<svg viewBox="2444 1404 4560 1914"><g fill="none" stroke-width="2.4"><path stroke="#000" stroke-dasharray="62 31 10 31" stroke-linejoin="round" stroke-width="8" d="M2456 2370h4536m-2268 937V1417"/><path fill="#000" stroke="#000" stroke-linejoin="bevel" stroke-width="8" d="M3346 2370v-1l-1-2v-5l-1-2v-1l-1-1-1-3-2-3-2-3-2-3-1-1v-1l-1-1-3-3-3-2-1-1h-2l-1-2-4-1-4-1-3-1h-5l-4 1h-4l-3 1h-1l-2 1h-2l-3 3-3 2-4 3-1 1-1 1-1 1-2 3-2 3-1 1v1l-1 1-1 4-1 4v11l1 5v4l1 1v2l2 3 2 3 2 3 1 1 1 1 1 1 4 4 3 2 1 1h1l1 1 4 1 4 1 3 1h7l2-1h5l2-1h1l2-1h2l4-2 3-2 3-4 1-1v-1l1-1 2-3 2-3 1-1h1v-2l2-3 1-4 1-4v-5m2832 0v-1l-1-2v-5l-1-2v-2l-1-3-1-3-2-3-2-3-1-1-2-1-1-1-3-3-3-2-1-1h-1l-1-2-4-1-4-1-4-1h-6l-2 1h-5l-2 1h-1l-2 1h-3l-3 3-3 2-3 3-1 1v1l-1 1-2 3-2 3-1 1-1 1v1l-3 4-1 4-1 3v5l1 3v5l1 3v1l2 1 1 2 2 3 2 3 2 3 1 1v1l1 1 3 4 3 2 1 1h1l1 1 5 1 4 1 3 1h5l3-1h5l3-1h1l2-1h2l3-2 3-2 3-4 1-1 2-1 1-1 2-3 2-3v-1h1v-2l1-3 1-4 1-4v-5"/><path stroke="#00d100" stroke-linejoin="round" stroke-width="16" d="M5949 1801l3-1 72-3 69 4 70 12 69 17 65 28 62 33 57 40 53 48 45 54 41 58 30 63 24 66 15 68 6 71-4 71-10 68-21 68-30 64-36 60-44 56-51 48-57 43-59 37-64 28-69 21-69 15-69 6-72-1-70-7-68-16-67-22-66-26-61-35-59-39-56-45-48-50-44-56-38-60-28-64-20-68-9-68 3-70 15-70 24-65 35-62 41-58 46-51 54-48 55-41 61-37 64-30 66-26 69-17 70-11h5m-2449 0l-3-1-72-3-69 4-70 12-69 17-65 28-62 33-57 40-53 48-45 54-41 58-30 63-25 66-14 68-7 71 5 71 10 68 21 68 29 64 37 60 44 56 51 48 56 43 60 37 64 28 69 21 69 15 69 6 72-1 70-7 68-16 67-22 65-26 62-35 59-39 56-45 48-50 44-56 38-60 28-64 20-68 9-68-4-70-14-70-24-65-35-62-41-58-46-51-54-48-55-41-61-37-64-30-66-26-69-17-70-11h-5"/><path stroke="#d10000" stroke-linejoin="round" stroke-width="16" d="M5959 1661h-4l-70 4-70 7-71 11-69 17-67 20-65 25-65 30-64 30-61 35-61 38-59 39-58 42-55 44-55 45-53 46-53 46-51 50-52 49-50 49-51 51-48 50-49 49-52 51-50 49-52 48-52 49-53 46-54 46-57 43-55 43-59 40-60 38-62 36-63 32-64 28-65 27-68 22-69 18-69 12-69 10-72 4-71-2-69-8-71-12-68-18-67-24-63-31-61-35-58-41-52-48-48-50-44-57-36-59-32-65-24-66-17-68-8-70-2-71 4-69 14-70 20-68 27-66 32-62 39-58 46-54 51-49 54-45 59-38 63-34 65-27 68-21 69-18 69-8 72-6h70l69 7 70 10 71 16 67 20 66 24 66 26 63 32 63 33 60 36 60 40 58 41 56 43 54 44 55 45 52 49 53 48 51 48 50 51 51 49 47 49 51 51 51 50 49 49 53 50 51 48 54 46 53 46 56 45 57 43 56 40 60 38 61 38 62 33 64 30 66 26 67 23 69 19 69 16 69 10 70 5h72l70-5 71-11 68-18 66-22 65-28 62-35 59-40 54-44 51-50 44-55 39-59 32-63 26-65 18-67 12-70 5-72-4-69-10-70-17-69-26-66-32-63-38-59-43-55-48-52-55-46-58-40-60-34-65-31-67-23-69-17-68-11-72-8-37-1"/><path stroke="#00f" stroke-linejoin="round" stroke-width="16" d="M5981 1520l-10-1-69-6h-72l-71 3-69 7-72 8-70 13-68 14-69 16-69 18-69 20-67 19-68 20-69 18-69 17-68 14-71 12-70 6-68 2-72-2-70-7-69-12-69-14-70-17-68-19-67-20-69-19-69-19-69-19-67-16-71-13-70-13-69-8-72-6-71-3h-69l-72 7-70 8-69 14-69 18-67 23-65 26-64 31-60 36-57 42-56 44-49 51-47 52-42 58-36 61-32 63-26 66-20 68-14 68-7 71-1 70 4 70 13 71 17 68 23 66 27 65 36 62 40 59 44 55 49 51 51 47 56 42 61 39 62 34 64 29 66 24 68 20 70 16 70 10 69 8 72 2h70l71-5 71-9 69-9 70-13 70-17 68-16 68-18 68-20 69-19 68-20 68-17 69-18 71-12 69-10 70-4h70l70 4 70 11 70 12 69 17 68 18 68 19 69 20 68 19 68 18 69 16 70 17 68 13 71 9 71 9 69 5h71l72-2 69-8 70-10 70-16 68-21 65-23 65-30 62-33 61-39 56-43 51-47 49-52 44-54 39-59 35-62 29-64 23-67 17-68 12-71 4-70-1-70-7-71-15-69-20-67-25-66-33-63-36-61-42-57-47-53-49-50-56-45-58-41-59-36-64-31-65-27-68-22-69-18-68-14-72-8h5"/></g></svg>