<svg viewBox="0 0 800 800"><path fill="#fff" d="M0 0h800v800H0z" class="dcg-svg-background"/><g fill="none" stroke="#000" stroke-miterlimit="10" stroke-width="2" paint-order="fill stroke markers"><path stroke-opacity="0.5" d="M17 0v800M75 0v800M133 0v800M191 0v800M247 0v800M363 0v800M421 0v800M477 0v800M535 0v800M593 0v800M651 0v800M709 0v800M765 0v800M0 743h800M0 687h800M0 629h800M0 571h800M0 513h800M0 457h800M0 341h800M0 283h800M0 225h800M0 169h800M0 111h800M0 53h800" class="dcg-svg-minor-gridline"/><path d="M17 0v800M593 0v800M0 687h800M0 111h800" class="dcg-svg-major-gridline"/></g><g transform="scale(2)"><title>Y axis</title><path fill="none" stroke="#000" stroke-miterlimit="10" stroke-opacity="0.9" stroke-width="2" d="M153 0v400" class="dcg-svg-axis-line" paint-order="fill stroke markers"/></g><g transform="scale(2)"><title>X axis</title><path fill="none" stroke="#000" stroke-miterlimit="10" stroke-opacity="0.9" stroke-width="2" d="M0 199h400" class="dcg-svg-axis-line" paint-order="fill stroke markers"/></g><g font-family="Arial" font-size="20" text-anchor="middle"><g class="dcg-svg-axis-value"><text x="142.1" y="219.8" fill="none" stroke="#fff" stroke-miterlimit="2" stroke-width="3" text-decoration="normal" transform="scale(2)">0</text><text x="142.1" y="219.8" text-decoration="normal" transform="scale(2)">0</text></g><g class="dcg-svg-axis-value dcg-svg-offcenter-axis-value"><text x="11.9" y="219.8" fill="none" stroke="#fff" stroke-miterlimit="2" stroke-width="3" text-decoration="normal" transform="scale(2)">-5</text><text x="11.9" y="219.8" text-decoration="normal" transform="scale(2)">-5</text></g><g class="dcg-svg-axis-value"><text x="296.5" y="219.8" fill="none" stroke="#fff" stroke-miterlimit="2" stroke-width="3" text-decoration="normal" transform="scale(2)">5</text><text x="296.5" y="219.8" text-decoration="normal" transform="scale(2)">5</text></g><g class="dcg-svg-axis-value"><text x="138.8" y="348.6" fill="none" stroke="#fff" stroke-miterlimit="2" stroke-width="3" text-decoration="normal" transform="scale(2)">-5</text><text x="138.8" y="348.6" text-decoration="normal" transform="scale(2)">-5</text></g><g class="dcg-svg-axis-value"><text x="142.1" y="60.9" fill="none" stroke="#fff" stroke-miterlimit="2" stroke-width="3" text-decoration="normal" transform="scale(2)">5</text><text x="142.1" y="60.9" text-decoration="normal" transform="scale(2)">5</text></g></g><g transform="scale(2)"><title>表达式1</title><path fill="none" stroke="#c74440" stroke-linecap="round" stroke-linejoin="round" stroke-miterlimit="10" stroke-width="5" d="m327.6 400-13.3-7.8-12.9-7.8-12-7.7L278 369l-10.7-7.4-10.3-7.4-9.6-7.3-9-7.2-8.5-7.1-7.9-7-7.4-7-7-6.9-6.3-6.7-6-6.8-5.7-6.8-5.2-6.7-4.7-6.7-4.2-6.4-3.8-6.2-3.3-6-2.8-5.7-2.6-5.6-2.1-5.5-2-5.3-1.5-5.2-1.4-5.1-1-5-1-5-.6-4.7-.4-4.8-.3-4.9V198l.1-4.6.4-4.9.5-4.8.8-4.8 1-4.8 1.1-5 1.5-5 1.6-5.1 2-5.2 2.2-5.4 2.6-5.4 3-5.8 3.2-5.8 3.7-6 4.2-6.3 4.7-6.5 5.2-6.6 5.7-6.8 6-6.8 6.6-6.7 6.9-6.8L223 72l7.8-6.9 8.4-7 9-7.2 9.5-7.1 10-7.3 10.8-7.5 11.2-7.4 12-7.5 12.6-7.7L325.2 0" class="dcg-svg-curve" paint-order="fill stroke markers"/></g><title>F(2,0)</title><title>K(-2,0)</title><g transform="scale(2)"><title>表达式4</title><path fill="none" stroke="#6042a6" stroke-linecap="round" stroke-linejoin="round" stroke-miterlimit="10" stroke-width="5" d="M95.1 400V0" class="dcg-svg-curve" paint-order="fill stroke markers"/></g><g class="dcg-svg-label" font-family="arial, sans-serif" font-size="22" font-weight="400"><text y="20" fill="none" stroke="#fff" stroke-linecap="round" stroke-linejoin="round" stroke-miterlimit="2" stroke-width="3" text-decoration="normal" transform="matrix(2 0 0 2 430 336)">F(2,0)</text><text y="20" fill="#2d70b3" text-decoration="normal" transform="matrix(2 0 0 2 430 336)">F(2,0)</text></g><g class="dcg-svg-label" font-family="arial, sans-serif" font-size="22" font-weight="400"><text y="20" fill="none" stroke="#fff" stroke-linecap="round" stroke-linejoin="round" stroke-miterlimit="2" stroke-width="3" text-decoration="normal" transform="matrix(2 0 0 2 46 336)">K(-2,0)</text><text y="20" fill="#348543" text-decoration="normal" transform="matrix(2 0 0 2 46 336)">K(-2,0)</text></g></svg>