<svg xmlns="http://www.w3.org/2000/svg" viewBox="0 0 800 800"><g transform="scale(2)"><path fill="#fff" class="dcg-svg-background" d="M0 0h400v400H0z"/><path fill="none" stroke="#000" class="dcg-svg-minor-gridline" paint-order="fill stroke markers" d="M8.5 0v400m29-400v400m29-400v400m29-400v400m28-400v400m58-400v400m29-400v400m28-400v400m29-400v400m29-400v400m29-400v400m29-400v400m28-400v400M0 371.5h400m-400-28h400m-400-29h400m-400-29h400m-400-29h400m-400-28h400m-400-58h400m-400-29h400m-400-29h400M0 84.5h400M0 55.5h400M0 26.5h400" stroke-opacity="0.5" stroke-miterlimit="10"/><path fill="none" stroke="#000" class="dcg-svg-major-gridline" paint-order="fill stroke markers" d="M8.5 0v400m288-400v400M0 343.5h400M0 55.5h400" stroke-miterlimit="10"/><path fill="none" stroke="#000" class="dcg-svg-axis-line" paint-order="fill stroke markers" d="M153 0v400M0 199h400" stroke-opacity="0.9" stroke-miterlimit="10" stroke-width="2"/><g class="dcg-svg-axis-value"><text fill="none" stroke="#fff" font-family="Arial" font-size="20" text-decoration="normal" x="142.11" y="219.75" text-anchor="middle" stroke-miterlimit="2" stroke-width="3">0</text><text font-family="Arial" font-size="20" text-decoration="normal" x="142.11" y="219.75" text-anchor="middle">0</text></g><g class="dcg-svg-axis-value dcg-svg-offcenter-axis-value"><text fill="none" stroke="#fff" font-family="Arial" font-size="20" text-decoration="normal" x="11.89" y="219.75" text-anchor="middle" stroke-miterlimit="2" stroke-width="3">-5</text><text font-family="Arial" font-size="20" text-decoration="normal" x="11.89" y="219.75" text-anchor="middle">-5</text></g><g class="dcg-svg-axis-value"><text fill="none" stroke="#fff" font-family="Arial" font-size="20" text-decoration="normal" x="296.54" y="219.75" text-anchor="middle" stroke-miterlimit="2" stroke-width="3">5</text><text font-family="Arial" font-size="20" text-decoration="normal" x="296.54" y="219.75" text-anchor="middle">5</text></g><g class="dcg-svg-axis-value"><text fill="none" stroke="#fff" font-family="Arial" font-size="20" text-decoration="normal" x="138.78" y="348.62" text-anchor="middle" stroke-miterlimit="2" stroke-width="3">-5</text><text font-family="Arial" font-size="20" text-decoration="normal" x="138.78" y="348.62" text-anchor="middle">-5</text></g><g class="dcg-svg-axis-value"><text fill="none" stroke="#fff" font-family="Arial" font-size="20" text-decoration="normal" x="142.11" y="60.88" text-anchor="middle" stroke-miterlimit="2" stroke-width="3">5</text><text font-family="Arial" font-size="20" text-decoration="normal" x="142.11" y="60.88" text-anchor="middle">5</text></g><path fill="none" stroke="#c74440" class="dcg-svg-curve" paint-order="fill stroke markers" d="m327.633 400-13.357-7.812-12.827-7.813-12.096-7.682-11.39-7.552-10.713-7.422-10.233-7.422-9.587-7.292-8.967-7.161-8.521-7.162-7.933-7.031-7.368-6.901-6.955-6.901-6.42-6.77-6.023-6.772-5.625-6.77-5.226-6.771-4.739-6.641-4.192-6.38-3.763-6.25-3.288-5.99-2.854-5.729-2.513-5.599-2.192-5.469-1.89-5.338-1.603-5.209-1.338-5.078-1.087-4.948-.875-4.947-.647-4.818-.446-4.818-.244-4.818-.044-4.687.147-4.688.35-4.817.552-4.818.753-4.818.955-4.817 1.19-4.948 1.444-5.078 1.667-5.079 1.943-5.208 2.236-5.339 2.547-5.468 2.947-5.73 3.31-5.859 3.69-5.99 4.185-6.25 4.719-6.51 5.192-6.64 5.69-6.771 6.087-6.771 6.486-6.77 6.884-6.772 7.426-6.9 7.84-6.902 8.414-7.031 9.01-7.162 9.457-7.161 10.086-7.292 10.74-7.422 11.22-7.421 11.908-7.552 12.62-7.683L325.246 0" stroke-linecap="round" stroke-linejoin="round" stroke-miterlimit="10" stroke-width="5"/><path fill="#2d70b3" class="dcg-svg-point" paint-order="stroke fill markers" d="M217.719 199.313a7.5 7.5 0 1 1 0-.008Z"/><path fill="#348543" class="dcg-svg-point" paint-order="stroke fill markers" d="M102.622 199.313a7.5 7.5 0 1 1 0-.008Z"/><path fill="none" stroke="#6042a6" class="dcg-svg-curve" paint-order="fill stroke markers" d="M95.122 400V0" stroke-linecap="round" stroke-linejoin="round" stroke-miterlimit="10" stroke-width="5"/><g class="dcg-svg-label" transform="translate(215 168)"><text fill="none" stroke="#fff" font-family="arial, sans-serif" font-size="22" font-weight="400" text-decoration="normal" y="19.98" stroke-linecap="round" stroke-linejoin="round" stroke-miterlimit="2" stroke-width="3">F(2,0)</text><text fill="#2d70b3" font-family="arial, sans-serif" font-size="22" font-weight="400" text-decoration="normal" y="19.98">F(2,0)</text></g><g class="dcg-svg-label" transform="translate(23 168)"><text fill="none" stroke="#fff" font-family="arial, sans-serif" font-size="22" font-weight="400" text-decoration="normal" y="19.98" stroke-linecap="round" stroke-linejoin="round" stroke-miterlimit="2" stroke-width="3">K(-2,0)</text><text fill="#348543" font-family="arial, sans-serif" font-size="22" font-weight="400" text-decoration="normal" y="19.98">K(-2,0)</text></g></g></svg>