<svg xmlns="http://www.w3.org/2000/svg" viewBox="0 0 800 800"><path fill="#fff" d="M0 0h800v800H0z" class="dcg-svg-background"/><path fill="none" stroke="#000" stroke-miterlimit="10" stroke-opacity="0.5" stroke-width="2" d="M17 0v800M75 0v800M133 0v800M191 0v800M247 0v800M363 0v800M421 0v800M477 0v800M535 0v800M593 0v800M651 0v800M709 0v800M765 0v800M0 743h800M0 687h800M0 629h800M0 571h800M0 513h800M0 457h800M0 341h800M0 283h800M0 225h800M0 169h800M0 111h800M0 53h800" class="dcg-svg-minor-gridline" paint-order="fill stroke markers"/><path fill="none" stroke="#000" stroke-miterlimit="10" stroke-width="2" d="M17 0v800M593 0v800M0 687h800M0 111h800" class="dcg-svg-major-gridline" paint-order="fill stroke markers"/><path fill="none" stroke="#000" stroke-miterlimit="10" stroke-opacity="0.9" stroke-width="4" d="M306 0v800M0 398h800" class="dcg-svg-axis-line" paint-order="fill stroke markers"/><g class="dcg-svg-axis-value" font-family="Arial" font-size="20" text-anchor="middle"><text x="142.11" y="219.75" fill="none" stroke="#fff" stroke-miterlimit="2" stroke-width="3" text-decoration="normal" transform="scale(2)">0</text><text x="142.11" y="219.75" text-decoration="normal" transform="scale(2)">0</text></g><g class="dcg-svg-axis-value dcg-svg-offcenter-axis-value" font-family="Arial" font-size="20" text-anchor="middle"><text x="11.89" y="219.75" fill="none" stroke="#fff" stroke-miterlimit="2" stroke-width="3" text-decoration="normal" transform="scale(2)">-5</text><text x="11.89" y="219.75" text-decoration="normal" transform="scale(2)">-5</text></g><g class="dcg-svg-axis-value" font-family="Arial" font-size="20" text-anchor="middle"><text x="296.54" y="219.75" fill="none" stroke="#fff" stroke-miterlimit="2" stroke-width="3" text-decoration="normal" transform="scale(2)">5</text><text x="296.54" y="219.75" text-decoration="normal" transform="scale(2)">5</text></g><g class="dcg-svg-axis-value" font-family="Arial" font-size="20" text-anchor="middle"><text x="138.78" y="348.62" fill="none" stroke="#fff" stroke-miterlimit="2" stroke-width="3" text-decoration="normal" transform="scale(2)">-5</text><text x="138.78" y="348.62" text-decoration="normal" transform="scale(2)">-5</text></g><g class="dcg-svg-axis-value" font-family="Arial" font-size="20" text-anchor="middle"><text x="142.11" y="60.88" fill="none" stroke="#fff" stroke-miterlimit="2" stroke-width="3" text-decoration="normal" transform="scale(2)">5</text><text x="142.11" y="60.88" text-decoration="normal" transform="scale(2)">5</text></g><path fill="none" stroke="#c74440" stroke-linecap="round" stroke-linejoin="round" stroke-miterlimit="10" stroke-width="10" d="m655.266 800-26.714-15.624-25.654-15.626-24.192-15.364-22.78-15.104-21.426-14.844-20.466-14.844-19.174-14.584-17.934-14.322-17.042-14.324-15.866-14.062-14.736-13.802-13.91-13.802-12.84-13.54-12.046-13.544-11.25-13.54-10.452-13.542-9.478-13.282-8.384-12.76-7.526-12.5-6.576-11.98-5.708-11.458-5.026-11.198-4.384-10.938-3.78-10.676-3.206-10.418-2.676-10.156-2.174-9.896-1.75-9.894-1.294-9.636-.892-9.636-.488-9.636-.088-9.374.294-9.376.7-9.634 1.104-9.636 1.506-9.636 1.91-9.634 2.38-9.896 2.888-10.156 3.334-10.158 3.886-10.416 4.472-10.678 5.094-10.936 5.894-11.46 6.62-11.718 7.38-11.98 8.37-12.5 9.438-13.02 10.384-13.28 11.38-13.542 12.174-13.542 12.972-13.54 13.768-13.544 14.852-13.8 15.68-13.804 16.828-14.062 18.02-14.324L515.596 87.5l20.172-14.584 21.48-14.844 22.44-14.842 23.816-15.104 25.24-15.366L650.492 0" class="dcg-svg-curve" paint-order="fill stroke markers"/><path fill="#2d70b3" d="M435.438 398.626a15 15 0 1 1 0-.016Z" class="dcg-svg-point" paint-order="stroke fill markers"/><path fill="#348543" d="M205.244 398.626a15 15 0 1 1 0-.016Z" class="dcg-svg-point" paint-order="stroke fill markers"/><path fill="none" stroke="#6042a6" stroke-linecap="round" stroke-linejoin="round" stroke-miterlimit="10" stroke-width="10" d="M190.244 800V0" class="dcg-svg-curve" paint-order="fill stroke markers"/><g class="dcg-svg-label" font-family="arial, sans-serif" font-size="22" font-weight="400"><text y="19.98" fill="none" stroke="#fff" stroke-linecap="round" stroke-linejoin="round" stroke-miterlimit="2" stroke-width="3" text-decoration="normal" transform="matrix(2 0 0 2 430 336)">F(2,0)</text><text y="19.98" fill="#2d70b3" text-decoration="normal" transform="matrix(2 0 0 2 430 336)">F(2,0)</text></g><g class="dcg-svg-label" font-family="arial, sans-serif" font-size="22" font-weight="400"><text y="19.98" fill="none" stroke="#fff" stroke-linecap="round" stroke-linejoin="round" stroke-miterlimit="2" stroke-width="3" text-decoration="normal" transform="matrix(2 0 0 2 46 336)">K(-2,0)</text><text y="19.98" fill="#348543" text-decoration="normal" transform="matrix(2 0 0 2 46 336)">K(-2,0)</text></g></svg>