<svg version="1.1" xmlns="http://www.w3.org/2000/svg" xmlns:xlink="http://www.w3.org/1999/xlink" width="979" height="847"><defs><clipPath id="HKQAGuIOfKwo"><path fill="none" stroke="none" d=" M 0 0 L 979 0 L 979 847 L 0 847 L 0 0 Z"/></clipPath></defs><g transform="scale(1,1)" clip-path="url(#HKQAGuIOfKwo)"><g><rect fill="rgb(255,255,255)" stroke="none" x="0" y="0" width="979" height="847" fill-opacity="1"/><path fill="none" stroke="rgb(0,0,0)" paint-order="fill stroke markers" d=" M 944.6689077366602 423.5 C 944.6689077366602 196.0750846322193 740.8828463400969 11.710763673162717 489.5 11.710763673162717 C 238.11715365990312 11.710763673162717 34.33109226333971 196.0750846322193 34.33109226333971 423.5 C 34.33109226333971 650.9249153677808 238.11715365990312 835.2892363268372 489.5 835.2892363268372 C 740.8828463400969 835.2892363268372 944.6689077366602 650.9249153677808 944.6689077366602 423.5 Z" stroke-opacity="0.6980392156862745" stroke-linecap="round" stroke-linejoin="round" stroke-miterlimit="10" stroke-width="2.5"/><path fill="rgb(0,0,0)" stroke="none" paint-order="stroke fill markers" d=" M 574.3817689402717 40.036642533496206 C 577.9627120717942 46.503995515158465 583.378218025301 50.85817576636964 589.4348951396937 52.139671387904514 C 595.4915722540866 53.42116700943944 601.6923436387681 51.52480451312363 606.6707720805975 46.86847711317432 L 593.1547265919221 22.530618725332147 Z" fill-opacity="0.09803921568627451"/><path fill="none" stroke="rgb(0,0,0)" paint-order="fill stroke markers" d=" M 574.3817689402717 40.036642533496206 C 577.9627120717942 46.503995515158465 583.378218025301 50.85817576636964 589.4348951396937 52.139671387904514 C 595.4915722540866 53.42116700943944 601.6923436387681 51.52480451312363 606.6707720805975 46.86847711317432 L 593.1547265919221 22.530618725332147 Z" stroke-opacity="0.6" stroke-linecap="round" stroke-linejoin="round" stroke-miterlimit="10" stroke-width="2.5"/><text fill="rgb(0,0,0)" stroke="none" font-family="geogebra-sans-serif, sans-serif" font-size="16px" font-style="normal" font-weight="normal" text-decoration="normal" x="574" y="77" text-anchor="start" dominant-baseline="alphabetic" fill-opacity="1">90°</text><path fill="none" stroke="rgb(0,0,0)" paint-order="fill stroke markers" d=" M -5 423.5 L 984 423.5" stroke-opacity="0.6980392156862745" stroke-linecap="round" stroke-linejoin="round" stroke-miterlimit="10" stroke-width="2.5"/><path fill="none" stroke="rgb(0,0,0)" paint-order="fill stroke markers" d=" M 163.16666666666669 423.5 L 906.965934070593 587.5992058747904" stroke-opacity="0.6980392156862745" stroke-linecap="round" stroke-linejoin="round" stroke-miterlimit="10" stroke-width="2.5"/><path fill="none" stroke="rgb(0,0,0)" paint-order="fill stroke markers" d=" M 593.1547265919221 22.530618725332147 L 49.63210300046154 529.3724369100878" stroke-opacity="0.6980392156862745" stroke-linecap="round" stroke-linejoin="round" stroke-miterlimit="10" stroke-width="2.5"/><path fill="none" stroke="rgb(0,0,0)" paint-order="fill stroke markers" d=" M 593.1547265919221 22.530618725332147 L 906.965934070593 587.5992058747904" stroke-opacity="0.6980392156862745" stroke-linecap="round" stroke-linejoin="round" stroke-miterlimit="10" stroke-width="2.5"/><path fill="rgb(21,101,192)" stroke="none" paint-order="stroke fill markers" d=" M 168.16666666666669 423.5 C 168.16666666666669 426.26142374915395 165.92809041582066 428.5 163.16666666666669 428.5 C 160.4052429175127 428.5 158.16666666666669 426.26142374915395 158.16666666666669 423.5 C 158.16666666666669 420.73857625084605 160.4052429175127 418.5 163.16666666666669 418.5 C 165.92809041582066 418.5 168.16666666666669 420.73857625084605 168.16666666666669 423.5 Z" fill-opacity="1"/><path fill="none" stroke="rgb(0,0,0)" paint-order="fill stroke markers" d=" M 168.16666666666669 423.5 C 168.16666666666669 426.26142374915395 165.92809041582066 428.5 163.16666666666669 428.5 C 160.4052429175127 428.5 158.16666666666669 426.26142374915395 158.16666666666669 423.5 C 158.16666666666669 420.73857625084605 160.4052429175127 418.5 163.16666666666669 418.5 C 165.92809041582066 418.5 168.16666666666669 420.73857625084605 168.16666666666669 423.5 Z" stroke-opacity="1" stroke-linecap="round" stroke-linejoin="round" stroke-miterlimit="10"/><text fill="rgb(21,101,192)" stroke="none" font-family="geogebra-sans-serif, sans-serif" font-size="16px" font-style="normal" font-weight="normal" text-decoration="normal" x="145" y="408" text-anchor="start" dominant-baseline="alphabetic" fill-opacity="1">C</text><path fill="rgb(21,101,192)" stroke="none" paint-order="stroke fill markers" d=" M 820.8333333333333 423.5 C 820.8333333333333 426.26142374915395 818.5947570824873 428.5 815.8333333333333 428.5 C 813.0719095841793 428.5 810.8333333333333 426.26142374915395 810.8333333333333 423.5 C 810.8333333333333 420.73857625084605 813.0719095841793 418.5 815.8333333333333 418.5 C 818.5947570824873 418.5 820.8333333333333 420.73857625084605 820.8333333333333 423.5 Z" fill-opacity="1"/><path fill="none" stroke="rgb(0,0,0)" paint-order="fill stroke markers" d=" M 820.8333333333333 423.5 C 820.8333333333333 426.26142374915395 818.5947570824873 428.5 815.8333333333333 428.5 C 813.0719095841793 428.5 810.8333333333333 426.26142374915395 810.8333333333333 423.5 C 810.8333333333333 420.73857625084605 813.0719095841793 418.5 815.8333333333333 418.5 C 818.5947570824873 418.5 820.8333333333333 420.73857625084605 820.8333333333333 423.5 Z" stroke-opacity="1" stroke-linecap="round" stroke-linejoin="round" stroke-miterlimit="10"/><text fill="rgb(21,101,192)" stroke="none" font-family="geogebra-sans-serif, sans-serif" font-size="16px" font-style="normal" font-weight="normal" text-decoration="normal" x="820" y="414" text-anchor="start" dominant-baseline="alphabetic" fill-opacity="1">F</text><path fill="rgb(21,101,192)" stroke="none" paint-order="stroke fill markers" d=" M 598.1547265919221 22.530618725332147 C 598.1547265919221 25.292042474486113 595.9161503410761 27.530618725332147 593.1547265919221 27.530618725332147 C 590.3933028427681 27.530618725332147 588.1547265919221 25.292042474486113 588.1547265919221 22.530618725332147 C 588.1547265919221 19.76919497617818 590.3933028427681 17.530618725332147 593.1547265919221 17.530618725332147 C 595.9161503410761 17.530618725332147 598.1547265919221 19.76919497617818 598.1547265919221 22.530618725332147 Z" fill-opacity="1"/><path fill="none" stroke="rgb(0,0,0)" paint-order="fill stroke markers" d=" M 598.1547265919221 22.530618725332147 C 598.1547265919221 25.292042474486113 595.9161503410761 27.530618725332147 593.1547265919221 27.530618725332147 C 590.3933028427681 27.530618725332147 588.1547265919221 25.292042474486113 588.1547265919221 22.530618725332147 C 588.1547265919221 19.76919497617818 590.3933028427681 17.530618725332147 593.1547265919221 17.530618725332147 C 595.9161503410761 17.530618725332147 598.1547265919221 19.76919497617818 598.1547265919221 22.530618725332147 Z" stroke-opacity="1" stroke-linecap="round" stroke-linejoin="round" stroke-miterlimit="10"/><text fill="rgb(21,101,192)" stroke="none" font-family="geogebra-sans-serif, sans-serif" font-size="16px" font-style="normal" font-weight="normal" text-decoration="normal" x="556" y="35" text-anchor="start" dominant-baseline="alphabetic" fill-opacity="1">A</text><path fill="rgb(110,109,115)" stroke="none" paint-order="stroke fill markers" d=" M 54.63210300046154 529.3724369100878 C 54.63210300046154 532.1338606592418 52.3935267496155 534.3724369100878 49.63210300046154 534.3724369100878 C 46.87067925130757 534.3724369100878 44.63210300046154 532.1338606592418 44.63210300046154 529.3724369100878 C 44.63210300046154 526.6110131609338 46.87067925130757 524.3724369100878 49.63210300046154 524.3724369100878 C 52.3935267496155 524.3724369100878 54.63210300046154 526.6110131609338 54.63210300046154 529.3724369100878 Z" fill-opacity="1"/><path fill="none" stroke="rgb(0,0,0)" paint-order="fill stroke markers" d=" M 54.63210300046154 529.3724369100878 C 54.63210300046154 532.1338606592418 52.3935267496155 534.3724369100878 49.63210300046154 534.3724369100878 C 46.87067925130757 534.3724369100878 44.63210300046154 532.1338606592418 44.63210300046154 529.3724369100878 C 44.63210300046154 526.6110131609338 46.87067925130757 524.3724369100878 49.63210300046154 524.3724369100878 C 52.3935267496155 524.3724369100878 54.63210300046154 526.6110131609338 54.63210300046154 529.3724369100878 Z" stroke-opacity="1" stroke-linecap="round" stroke-linejoin="round" stroke-miterlimit="10"/><path fill="rgb(110,109,115)" stroke="none" paint-order="stroke fill markers" d=" M 911.965934070593 587.5992058747904 C 911.965934070593 590.3606296239444 909.727357819747 592.5992058747904 906.965934070593 592.5992058747904 C 904.204510321439 592.5992058747904 901.965934070593 590.3606296239444 901.965934070593 587.5992058747904 C 901.965934070593 584.8377821256364 904.204510321439 582.5992058747904 906.965934070593 582.5992058747904 C 909.727357819747 582.5992058747904 911.965934070593 584.8377821256364 911.965934070593 587.5992058747904 Z" fill-opacity="1"/><path fill="none" stroke="rgb(0,0,0)" paint-order="fill stroke markers" d=" M 911.965934070593 587.5992058747904 C 911.965934070593 590.3606296239444 909.727357819747 592.5992058747904 906.965934070593 592.5992058747904 C 904.204510321439 592.5992058747904 901.965934070593 590.3606296239444 901.965934070593 587.5992058747904 C 901.965934070593 584.8377821256364 904.204510321439 582.5992058747904 906.965934070593 582.5992058747904 C 909.727357819747 582.5992058747904 911.965934070593 584.8377821256364 911.965934070593 587.5992058747904 Z" stroke-opacity="1" stroke-linecap="round" stroke-linejoin="round" stroke-miterlimit="10"/><text fill="rgb(110,109,115)" stroke="none" font-family="geogebra-sans-serif, sans-serif" font-size="16px" font-style="normal" font-weight="normal" text-decoration="normal" x="869" y="568" text-anchor="start" dominant-baseline="alphabetic" fill-opacity="1">B</text><path fill="rgb(255,255,255)" stroke="none" paint-order="stroke fill markers" d=" M 747 286 L 798 286 L 798 316 L 747 316 L 747 286 Z" fill-opacity="1"/><text fill="rgb(0,0,0)" stroke="none" font-family="geogebra-sans-serif, sans-serif" font-size="16px" font-style="normal" font-weight="normal" text-decoration="normal" x="750" y="305" text-anchor="start" dominant-baseline="alphabetic" fill-opacity="1">CE = 3</text><path fill="rgb(255,255,255)" stroke="none" paint-order="stroke fill markers" d=" M 375 204 L 426 204 L 426 234 L 375 234 L 375 204 Z" fill-opacity="1"/><text fill="rgb(0,0,0)" stroke="none" font-family="geogebra-sans-serif, sans-serif" font-size="16px" font-style="normal" font-weight="normal" text-decoration="normal" x="378" y="223" text-anchor="start" dominant-baseline="alphabetic" fill-opacity="1">AC = 3</text></g></g></svg>