<svg xmlns:xlink="http://www.w3.org/1999/xlink" viewBox="0 0 228.847 383.932"><defs><symbol id="c" overflow="visible"><path d="M3.531-3.797h2.016C7.203-3.797 9-5.157 9-6.53c0-.922-.938-1.938-2.453-1.938H2.859c-.234 0-.5.156-.5.39 0 .126.266.266.453.266.72 0 .563-.046.563.079 0 .03 0 .078-.047.265L1.703-1.047c-.094.422.047.406-.797.406-.219 0-.515.157-.515.36 0 .14.281.281.343.281.235 0 .47-.031.704-.031h1.39c.235 0 .485.031.703.031.11 0 .39-.14.39-.375 0-.11-.265-.266-.437-.266-.718 0-.578.063-.578-.047 0-.062.016-.156.016-.203l.734-2.906zM4.547-7.5c.11-.438 0-.313.469-.313h1.187c.89 0 1.469.141 1.469 1.032 0 .312-.11 1.218-.656 1.765-.203.22-.657.625-1.75.625H3.78zm0 0"/></symbol><symbol id="d" overflow="visible"><path d="M4.672-4.797c-.219 0-.453.047-.625.188-.063.062-.25.359-.25.547 0 .234.344.53.578.53.281 0 .766-.39.766-.874 0-.563-.703-1.157-1.532-1.157-1.562 0-3.296 1.86-3.296 3.547 0 1.047.812 2.141 2.03 2.141 1.626 0 2.813-1.422 2.813-1.578 0-.063-.234-.281-.281-.281a.548.548 0 00-.266.172 2.78 2.78 0 01-2.25 1.14c-.812 0-.922-.562-.922-1.156 0-.422.157-1.469.579-2.281.312-.563.859-1.172 1.609-1.172.156 0 .64-.125.813.234zm0 0"/></symbol><symbol id="e" overflow="visible"><path d="M8.828-5.375c0-1.969-1.437-3.344-3.11-3.344-2.562 0-5.312 2.906-5.312 5.672C.406-1.172 1.812.25 3.546.25c2.517 0 5.282-2.766 5.282-5.625zM3.625-.328c-.984 0-1.875-.563-1.875-2.422 0-1.094.36-2.766 1.328-3.953.875-1.047 1.781-1.453 2.578-1.453 1.047 0 1.89.625 1.89 2.344 0 1.062-.405 2.625-1.202 3.75C5.469-.845 4.5-.329 3.625-.329zm0 0"/></symbol><symbol id="f" overflow="visible"><path d="M7.75-8.453c0-.11-.25-.266-.266-.266-.047 0-.187.063-.328.25-.062.078-.562.703-.422.563-.312-.625-1.218-.813-1.718-.813-1.516 0-3.063 1.547-3.063 2.89 0 .907.719 1.579 1.297 1.782.125.047.844.234 1.203.313.61.172.64.187.89.453.048.047.235.219.235.781 0 1.11-.86 2.11-2.047 2.11C2.547-.39 1.61-.657 1.61-2c0-.219.047-.516.094-.625v-.125c0-.047-.172-.266-.266-.266-.109 0-.296.172-.343.375L.484-.187c0 .015-.047.171-.047.187 0 .11.266.25.297.25.047 0 .156-.047.313-.219l.422-.562C1.656-.266 2.39.25 3.5.25c1.547 0 3.11-1.64 3.11-3.125 0-.5-.173-1.063-.626-1.5-.25-.25-.562-.36-1.671-.64-.797-.22-.797-.204-1.016-.407-.203-.203-.313-.375-.313-.781 0-1 .86-1.89 2-1.89 1.172 0 1.547.577 1.547 1.702 0 .313-.047.641-.047.688 0 .11.25.25.297.25.11 0 .266-.172.313-.375zm0 0"/></symbol><symbol id="g" overflow="visible"><path d="M2.688-5.266c0-.203-.204-.406-.5-.406-.376.375-.672.516-1.61.516v.625c.406 0 .828 0 1.11-.125v3.812c0 .297.156.219-.594.219H.625v.64C1.141-.03 1.828-.03 2.188-.03s1.046 0 1.562.047v-.641h-.469c-.75 0-.594.078-.594-.219zm0 0"/></symbol><symbol id="h" overflow="visible"><path d="M2.375-1.688c.125-.109.469-.375.594-.484.484-.453 1.015-1.031 1.015-1.75 0-.953-.984-1.75-1.968-1.75-.97 0-1.782.922-1.782 1.625 0 .39.5.625.61.625.172 0 .594-.297.594-.61 0-.405-.579-.593-.422-.593.156-.39.515-.406.906-.406.734 0 .937.437.937 1.11 0 .827-.53 1.312-1.468 2.265L.375-.61c-.094.08-.14.235-.14.61h3.484l.297-1.797H3.39c-.047.344-.063.625-.157.766-.047.062-.515.015-.64.015H1.172l.125.313zm0 0"/></symbol><symbol id="i" overflow="visible"><path d="M2.094-8.672c0-.203-.188-.562-.438-.562-.234 0-.437.359-.437.562V2.422c0 .219.203.563.437.563.25 0 .438-.344.438-.563zm0 0"/></symbol><symbol id="j" overflow="visible"><path d="M2.484-3.125c0-.344-.468-.766-.828-.766-.344 0-.828.422-.828.766 0 .36.484.766.828.766.36 0 .828-.407.828-.766zm0 0"/></symbol><symbol id="o" overflow="visible"><path d="M7.875-2.75c.203 0 .61-.125.61-.375 0-.234-.407-.36-.61-.36H1.406c-.203 0-.625.126-.625.36 0 .25.422.375.625.375zm0 0"/></symbol><symbol id="k" overflow="visible"><path d="M8.063-3.875c.171 0 .546-.14.546-.36s-.359-.374-.546-.374H1.03c-.172 0-.547.156-.547.359 0 .234.36.375.547.375zm0 2.219c.171 0 .546-.14.546-.36s-.359-.375-.546-.375H1.03c-.172 0-.547.157-.547.375s.36.36.547.36zm0 0"/></symbol><symbol id="l" overflow="visible"><path d="M7.297-7.375c0-.438-.125-.422.734-.422h.39v-.64H.329v.64h.406c.86 0 .719-.016.719.422v6.328c0 .438.14.406-.719.406H.328v.672C.781-.03 1.75-.03 2.109-.03s1.329 0 1.782.062V-.64h-.407c-.859 0-.734.032-.734-.406v-6.75H6v6.75c0 .438.125.406-.734.406h-.407v.672C5.312-.03 6.297-.03 6.641-.03c.359 0 1.343 0 1.78.062V-.64h-.39c-.86 0-.734.032-.734-.406zm0 0"/></symbol><symbol id="m" overflow="visible"><path d="M4.047 2.766c0-.047-.047-.172-.25-.375C2.594 1.187 1.969-.688 1.969-3.125c0-2.313.515-4.203 1.906-5.61a.515.515 0 00.172-.28c0-.063-.219-.25-.266-.25-.156 0-1.265.906-1.844 2.077A9.033 9.033 0 001-3.125c0 1.063.172 2.484.797 3.766C2.5 2.078 3.64 3 3.78 3c.047 0 .266-.172.266-.234zm0 0"/></symbol><symbol id="n" overflow="visible"><path d="M3.531-3.125c0-.906-.125-2.39-.797-3.766C2.031-8.328.891-9.266.766-9.266c-.047 0-.282.188-.282.25 0 .032.047.172.25.375 1.204 1.204 1.829 3.079 1.829 5.516 0 2.313-.516 4.203-1.907 5.61-.125.109-.172.234-.172.28 0 .063.235.235.282.235.156 0 1.25-.89 1.828-2.063a9.132 9.132 0 00.937-4.062zm0 0"/></symbol><clipPath id="a"><path d="M179.281 233h226.7v239.18h-226.7zm0 0"/></clipPath><clipPath id="b"><path d="M217 91.133h188.98V264H217zm0 0"/></clipPath></defs><g clip-path="url(#a)" transform="translate(-178.608 -90.522)"><path fill="none" stroke="#00f" stroke-miterlimit="10" stroke-width="2.279" d="M403.48 367.941c0 56.63-45.91 102.54-102.539 102.54-56.632 0-102.543-45.91-102.543-102.54 0-56.632 45.91-102.543 102.543-102.543 56.63 0 102.54 45.91 102.54 102.543zm0 0"/></g><path fill="none" stroke="#ae00ae" stroke-miterlimit="10" stroke-width="1.139" d="M19.79 72.333l160.65-54.687M21.384 298.458l159.054-103.074"/><g clip-path="url(#b)" transform="translate(-178.608 -90.522)"><path fill="none" stroke="#00f" stroke-miterlimit="10" stroke-width="2.279" d="M386.39 162.855c0 37.758-30.605 68.364-68.359 68.364s-68.363-30.606-68.363-68.364c0-37.753 30.61-68.359 68.363-68.359s68.36 30.606 68.36 68.36zm0 0"/></g><path fill-rule="evenodd" d="M142.842 72.334a2.738 2.738 0 01-2.735 2.738 2.736 2.736 0 112.735-2.739"/><path fill="none" stroke="#000" stroke-miterlimit="10" stroke-width=".57" d="M142.842 72.333a2.738 2.738 0 01-2.735 2.739 2.736 2.736 0 010-5.473 2.737 2.737 0 012.735 2.734zm0 0"/><path fill="#00f" fill-rule="evenodd" d="M22.525 72.334c0 1.511-1.222 2.738-2.734 2.738s-2.734-1.227-2.734-2.738a2.735 2.735 0 015.468 0"/><path fill="none" stroke="#00f" stroke-miterlimit="10" stroke-width=".57" d="M22.525 72.333a2.736 2.736 0 01-2.734 2.739 2.736 2.736 0 112.734-2.739zm0 0"/><path fill-rule="evenodd" d="M125.068 277.42a2.737 2.737 0 01-5.472 0 2.736 2.736 0 015.472 0"/><path fill="none" stroke="#000" stroke-miterlimit="10" stroke-width=".57" d="M125.068 277.42a2.737 2.737 0 01-5.472 0 2.736 2.736 0 015.472 0zm0 0"/><path fill="#00f" fill-rule="evenodd" d="M56.705 277.42a2.735 2.735 0 11-5.47-.002 2.735 2.735 0 015.47.001"/><path fill="none" stroke="#00f" stroke-miterlimit="10" stroke-width=".57" d="M56.705 277.42a2.735 2.735 0 11-5.47-.002 2.735 2.735 0 015.47.001zm0 0"/><path fill="red" fill-rule="evenodd" d="M182.49 17.42a2.735 2.735 0 11-5.468-.001 2.735 2.735 0 015.468 0"/><path fill="none" stroke="red" stroke-miterlimit="10" stroke-width=".57" d="M182.49 17.42a2.735 2.735 0 11-5.468-.001 2.735 2.735 0 015.468 0zm0 0"/><path fill="red" fill-rule="evenodd" d="M76.455 53.955a2.735 2.735 0 11-5.47-.001 2.735 2.735 0 015.47 0"/><path fill="none" stroke="red" stroke-miterlimit="10" stroke-width=".57" d="M76.455 53.955a2.735 2.735 0 11-5.47-.001 2.735 2.735 0 015.47 0zm0 0"/><path fill="red" fill-rule="evenodd" d="M24.576 298.61a2.735 2.735 0 11-5.47 0 2.735 2.735 0 015.47 0"/><path fill="none" stroke="red" stroke-miterlimit="10" stroke-width=".57" d="M24.576 298.61a2.735 2.735 0 11-5.47 0 2.735 2.735 0 015.47 0zm0 0"/><path fill="red" fill-rule="evenodd" d="M184.236 194.095a2.735 2.735 0 11-5.47 0 2.735 2.735 0 015.47 0"/><path fill="none" stroke="red" stroke-miterlimit="10" stroke-width=".57" d="M184.236 194.095a2.735 2.735 0 11-5.47 0 2.735 2.735 0 015.47 0zm0 0"/><use width="595" height="842" x="229.146" y="360.8" fill="#211e1e" transform="translate(-178.608 -90.522)" xlink:href="#c"/><use width="595" height="842" x="181.749" y="170.301" fill="#211e1e" transform="translate(-178.608 -90.522)" xlink:href="#c"/><use width="595" height="842" x="379.917" y="326.923" fill="#211e1e" transform="translate(-178.608 -90.522)" xlink:href="#d"/><use width="595" height="842" x="366.245" y="138.931" fill="#211e1e" transform="translate(-178.608 -90.522)" xlink:href="#d"/><use width="595" height="842" x="310.243" y="371.966" fill="#211e1e" transform="translate(-178.608 -90.522)" xlink:href="#e"/><use width="595" height="842" x="328.245" y="167.643" fill="#211e1e" transform="translate(-178.608 -90.522)" xlink:href="#e"/><use width="595" height="842" x="181.005" y="401.209" fill="#211e1e" transform="translate(-178.608 -90.522)" xlink:href="#f"/><use width="595" height="842" x="188.205" y="403.009" fill="#211e1e" transform="translate(-178.608 -90.522)" xlink:href="#g"/><use width="595" height="842" x="233.566" y="142.197" fill="#211e1e" transform="translate(-178.608 -90.522)" xlink:href="#f"/><use width="595" height="842" x="240.766" y="143.997" fill="#211e1e" transform="translate(-178.608 -90.522)" xlink:href="#g"/><use width="595" height="842" x="362.237" y="276.185" fill="#211e1e" transform="translate(-178.608 -90.522)" xlink:href="#f"/><use width="595" height="842" x="369.437" y="277.985" fill="#211e1e" transform="translate(-178.608 -90.522)" xlink:href="#h"/><use width="595" height="842" x="363.377" y="103.536" fill="#211e1e" transform="translate(-178.608 -90.522)" xlink:href="#f"/><use width="595" height="842" x="370.577" y="105.336" fill="#211e1e" transform="translate(-178.608 -90.522)" xlink:href="#h"/><use width="595" height="842" x="265.164" y="190.962" fill="#211e1e" transform="translate(-178.608 -90.522)" xlink:href="#i"/><use width="595" height="842" x="268.525" y="190.962" fill="#211e1e" transform="translate(-178.608 -90.522)" xlink:href="#c"/><use width="595" height="842" x="277.764" y="190.962" fill="#211e1e" transform="translate(-178.608 -90.522)" xlink:href="#f"/><use width="595" height="842" x="284.964" y="192.762" fill="#211e1e" transform="translate(-178.608 -90.522)" xlink:href="#g"/><use width="595" height="842" x="289.644" y="190.962" fill="#211e1e" transform="translate(-178.608 -90.522)" xlink:href="#i"/><use width="595" height="842" x="295.525" y="190.962" fill="#211e1e" transform="translate(-178.608 -90.522)" xlink:href="#j"/><use width="595" height="842" x="301.525" y="190.962" fill="#211e1e" transform="translate(-178.608 -90.522)" xlink:href="#i"/><use width="595" height="842" x="304.885" y="190.962" fill="#211e1e" transform="translate(-178.608 -90.522)" xlink:href="#c"/><use width="595" height="842" x="314.125" y="190.962" fill="#211e1e" transform="translate(-178.608 -90.522)" xlink:href="#f"/><use width="595" height="842" x="321.325" y="192.762" fill="#211e1e" transform="translate(-178.608 -90.522)" xlink:href="#h"/><use width="595" height="842" x="326.005" y="190.962" fill="#211e1e" transform="translate(-178.608 -90.522)" xlink:href="#i"/><use width="595" height="842" x="332.605" y="190.962" fill="#211e1e" transform="translate(-178.608 -90.522)" xlink:href="#k"/><use width="595" height="842" x="345.085" y="190.962" fill="#211e1e" transform="translate(-178.608 -90.522)" xlink:href="#l"/><use width="595" height="842" x="353.845" y="190.962" fill="#211e1e" transform="translate(-178.608 -90.522)" xlink:href="#m"/><use width="595" height="842" x="358.405" y="190.962" fill="#211e1e" transform="translate(-178.608 -90.522)" xlink:href="#c"/><use width="595" height="842" x="367.644" y="190.962" fill="#211e1e" transform="translate(-178.608 -90.522)" xlink:href="#n"/><use width="595" height="842" x="242.605" y="403.26" fill="#211e1e" transform="translate(-178.608 -90.522)" xlink:href="#i"/><use width="595" height="842" x="245.966" y="403.26" fill="#211e1e" transform="translate(-178.608 -90.522)" xlink:href="#c"/><use width="595" height="842" x="255.206" y="403.26" fill="#211e1e" transform="translate(-178.608 -90.522)" xlink:href="#f"/><use width="595" height="842" x="262.405" y="405.06" fill="#211e1e" transform="translate(-178.608 -90.522)" xlink:href="#g"/><use width="595" height="842" x="266.965" y="403.26" fill="#211e1e" transform="translate(-178.608 -90.522)" xlink:href="#i"/><use width="595" height="842" x="272.965" y="403.26" fill="#211e1e" transform="translate(-178.608 -90.522)" xlink:href="#j"/><use width="595" height="842" x="278.965" y="403.26" fill="#211e1e" transform="translate(-178.608 -90.522)" xlink:href="#i"/><use width="595" height="842" x="282.325" y="403.26" fill="#211e1e" transform="translate(-178.608 -90.522)" xlink:href="#c"/><use width="595" height="842" x="291.565" y="403.26" fill="#211e1e" transform="translate(-178.608 -90.522)" xlink:href="#f"/><use width="595" height="842" x="298.765" y="405.06" fill="#211e1e" transform="translate(-178.608 -90.522)" xlink:href="#h"/><use width="595" height="842" x="303.325" y="403.26" fill="#211e1e" transform="translate(-178.608 -90.522)" xlink:href="#i"/><use width="595" height="842" x="310.045" y="403.26" fill="#211e1e" transform="translate(-178.608 -90.522)" xlink:href="#k"/><use width="595" height="842" x="322.405" y="403.26" fill="#211e1e" transform="translate(-178.608 -90.522)" xlink:href="#o"/><use width="595" height="842" x="331.645" y="403.26" fill="#211e1e" transform="translate(-178.608 -90.522)" xlink:href="#l"/><use width="595" height="842" x="340.405" y="403.26" fill="#211e1e" transform="translate(-178.608 -90.522)" xlink:href="#m"/><use width="595" height="842" x="344.965" y="403.26" fill="#211e1e" transform="translate(-178.608 -90.522)" xlink:href="#c"/><use width="595" height="842" x="354.205" y="403.26" fill="#211e1e" transform="translate(-178.608 -90.522)" xlink:href="#n"/></svg>