<svg xmlns="http://www.w3.org/2000/svg" xmlns:xlink="http://www.w3.org/1999/xlink" viewBox="0 0 172.8534 306.4307"><defs><symbol id="svg__github_work__c" overflow="visible"><path d="M4.1094-7.7031c-2.1719 0-3.7188 1.6406-3.7188 3.9375C.3906-2.7031.75-1.6562 1.3594-1 2.0313-.2812 3.0469.1563 4.0469.1563c2.2344 0 3.7969-1.5938 3.7969-3.875 0-1.1407-.3438-2.1094-.9688-2.7813-.7187-.7969-1.6719-1.2031-2.7656-1.2031zm0 .4062c.5312 0 1.0469.2188 1.4531.5781.625.5625.9688 1.625.9688 2.9844 0 .6719-.1407 1.4532-.375 2.0469-.0938.2813-.297.5781-.547.8281-.4062.4063-.9218.6094-1.5156.6094-.5312 0-1.0468-.2031-1.4375-.5625-.5937-.5156-.9687-1.6719-.9687-2.9375 0-1.1562.3125-2.2656.7969-2.7969.4375-.5 1-.75 1.625-.75zm0 0"/></symbol><symbol id="svg__github_work__f" overflow="visible"><path d="M3.5313-3.7969h2.0156C7.203-3.7969 9-5.1562 9-6.5312c0-.922-.9375-1.9375-2.4531-1.9375H2.8594c-.2344 0-.5.1562-.5.3906 0 .125.2656.2656.4531.2656.7188 0 .5625-.0469.5625.0781 0 .0313 0 .0781-.0469.2656l-1.625 6.422c-.0937.4218.0469.4062-.7969.4062-.2187 0-.5156.1562-.5156.3593C.3906-.1405.672 0 .7344 0c.2343 0 .4687-.0312.7031-.0312h1.3906c.2344 0 .4844.0312.7031.0312.1094 0 .3907-.1406.3907-.375 0-.1094-.2656-.2656-.4375-.2656-.7188 0-.5781.0625-.5781-.0469 0-.0625.0156-.1562.0156-.2031l.7344-2.9063zM4.5469-7.5c.1094-.4375 0-.3125.4687-.3125h1.1875c.8907 0 1.4688.1406 1.4688 1.0313 0 .3125-.1094 1.2187-.6563 1.7656-.2031.2187-.6562.625-1.75.625H3.7813zm0 0"/></symbol><symbol id="svg__github_work__g" overflow="visible"><path d="M4.6563-5.1875c-.375.0781-.7344.4844-.7344.75 0 .2969.3906.5313.5625.5313.3281 0 .7656-.4375.7656-.797 0-.375-.5312-.8593-1.125-.8593-.4844 0-1.1562.25-1.6562.9844l.2812.1094c-.0781-.6407-.7187-1.0938-1.2031-1.0938-.4531 0-.8125.4063-1.0156.75-.2032.4375-.375 1.1719-.375 1.2344 0 .0469.2187.25.2968.25.0938 0 .2657-.1563.3282-.4375.1875-.7188.2656-1.2656.7343-1.2656.2969 0 .2031.0625.2031.4062 0 .2656-.1093.7188-.203 1.0938L1.1874-2.25c-.0469.2344-.1875.7656-.25.9844-.0781.3125-.2031.8906-.2031.9375 0 .1719.2968.4531.4687.4531.1406 0 .5156-.2344.5938-.4687.0312-.0938.4687-1.9063.5469-2.172.0625-.2656.125-.5156.1875-.7812.0468-.1719.0937-.3594.1406-.5156.0312-.1094.2969-.5937.6094-.8437.1406-.1407.3437-.375.828-.375.1876 0 .2657 0 .1563-.0782zm0 0"/></symbol><symbol id="svg__github_work__h" overflow="visible"><path d="M4.6719-4.7969c-.2188 0-.4531.0469-.625.1875-.0625.0625-.25.3594-.25.5469 0 .2344.3437.5313.5781.5313.2813 0 .7656-.3907.7656-.875 0-.5625-.7031-1.1563-1.5312-1.1563-1.5625 0-3.2969 1.8594-3.2969 3.5469C.3125-.9687 1.125.125 2.3438.125c1.625 0 2.8125-1.4219 2.8125-1.5781 0-.0625-.2344-.2813-.2813-.2813-.0312 0-.1719.0625-.2656.1719C3.8438-.5469 2.828-.4219 2.3594-.4219c-.8125 0-.9219-.5625-.9219-1.1562 0-.4219.1563-1.4688.5781-2.2813.3125-.5625.8594-1.1718 1.6094-1.1718.1563 0 .6406-.125.8125.2343zm0 0"/></symbol><symbol id="svg__github_work__i" overflow="visible"><path d="M7.75-8.4531c0-.1094-.25-.2657-.2656-.2657-.0469 0-.1875.0625-.3281.25-.0625.0782-.5625.7032-.422.5625-.3124-.625-1.2187-.8125-1.7187-.8125-1.5156 0-3.0625 1.547-3.0625 2.8907 0 .9062.7188 1.5781 1.2969 1.7812.125.0469.8438.2344 1.2031.3125.6094.1719.6406.1875.8907.4531.0468.047.2343.2188.2343.7813 0 1.1094-.8593 2.1094-2.0468 2.1094-.9844 0-1.922-.2656-1.922-1.6094 0-.2187.047-.5156.0938-.625v-.125c0-.0469-.1719-.2656-.2656-.2656-.1094 0-.2969.1719-.3437.375L.4843-.1875c0 .0156-.0469.1719-.0469.1875 0 .1094.2656.25.2969.25.0468 0 .1562-.0469.3125-.2187l.4219-.5625C1.6562-.2656 2.3906.25 3.5.25c1.5469 0 3.1094-1.6406 3.1094-3.125 0-.5-.1719-1.0625-.625-1.5-.25-.25-.5625-.3594-1.6719-.6406-.7969-.2188-.7969-.2031-1.0156-.4063-.2031-.2031-.3125-.375-.3125-.7812 0-1 .8594-1.8906 2-1.8906 1.1719 0 1.5469.578 1.5469 1.703 0 .3126-.047.6407-.047.6876 0 .1094.25.25.297.25.1093 0 .2656-.1719.3125-.375zm0 0"/></symbol><symbol id="svg__github_work__j" overflow="visible"><path d="M5.1406-7.4375c.0781-.2812-.0625-.25.125-.2969C5.3594-7.75 5.75-7.75 6-7.75c1.2031 0 1.5938-.1094 1.5938.8281 0 .1875-.047.625-.125 1.0625l-.0157.1406c0 .0625.2188.2813.2969.2813.1094 0 .2656-.2031.3125-.3906l.3438-2.125c.0156-.1094.0156-.125.0156-.1563 0-.1406-.2188-.2968-.4688-.2968H1.422c-.2813 0-.4531.1562-.5313.375L.1563-5.8594C.203-5.953.125-5.7188.125-5.703c0 .0625.2031.2656.2813.2656.0937 0 .2812-.1875.328-.3437.5-1.4532.5938-1.9688 2.1876-1.9688h.7969c.2812 0 .2343-.1562.2343-.0156 0 .0312 0 .0469-.0625.2656L2.297-1.0937c-.125.4687.0156.453-1.25.453C.75-.6406.5-.4843.5-.2656.5-.1406.7969 0 .8594 0c.2968 0 .6093-.0312.9062-.0312h1.875C3.9375-.0312 4.25 0 4.547 0c.1406 0 .4062-.1406.4062-.375 0-.1094-.2344-.2656-.5469-.2656-1.078 0-.9218.0468-.9218-.1407 0 0 0-.0937.0469-.2812zm0 0"/></symbol><symbol id="svg__github_work__k" overflow="visible"><path d="M2.0938-8.6719c0-.2031-.1875-.5625-.4375-.5625-.2344 0-.4376.3594-.4376.5625V2.422c0 .2187.2032.5625.4376.5625.25 0 .4374-.3438.4374-.5625zm0 0"/></symbol><symbol id="svg__github_work__n" overflow="visible"><path d="M7.875-2.75c.2031 0 .6094-.125.6094-.375 0-.2344-.4063-.3594-.6094-.3594H1.4063c-.2032 0-.625.125-.625.3594 0 .25.4218.375.625.375zm0 0"/></symbol><symbol id="svg__github_work__l" overflow="visible"><path d="M2.375-1.6875c.125-.1094.4688-.375.5938-.4844.4843-.4531 1.0156-1.0312 1.0156-1.75 0-.9531-.9844-1.75-1.9688-1.75-.9687 0-1.7812.9219-1.7812 1.625 0 .3906.5.625.6094.625.1718 0 .5937-.2969.5937-.6094 0-.4062-.5781-.5937-.4219-.5937.1563-.3906.5156-.4062.9063-.4062.7344 0 .9375.4375.9375 1.1093 0 .8282-.5313 1.3125-1.4688 2.2657L.375-.6095C.2813-.5312.2344-.375.2344 0h3.4844l.2968-1.7969h-.625c-.0469.3438-.0625.625-.1562.7656-.0469.0626-.5156.0157-.6406.0157h-1.422l.125.3125zm0 0"/></symbol><symbol id="svg__github_work__m" overflow="visible"><path d="M8.0625-3.875c.1719 0 .5469-.1406.5469-.3594s-.3594-.375-.5469-.375H1.0313c-.172 0-.547.1563-.547.3594 0 .2344.3595.375.547.375zm0 2.2188c.1719 0 .5469-.1407.5469-.3594s-.3594-.375-.5469-.375H1.0313c-.172 0-.547.1562-.547.375s.3595.3594.547.3594zm0 0"/></symbol><symbol id="svg__github_work__o" overflow="visible"><path d="M7.2969-7.375c0-.4375-.125-.4219.7344-.4219h.3906v-.6406H.328v.6406h.4063c.8594 0 .7187-.0156.7187.4219v6.3281c0 .4375.1406.4063-.7187.4063H.328v.6718C.7813-.0311 1.75-.0311 2.1094-.0311s1.3281 0 1.7812.0625v-.672h-.4062c-.8594 0-.7344.0313-.7344-.4062v-6.75H6v6.75c0 .4375.125.4063-.7344.4063h-.4062v.6718c.4531-.0624 1.4375-.0624 1.7812-.0624.3594 0 1.3438 0 1.7813.0625v-.672h-.3907c-.8593 0-.7343.0313-.7343-.4062zm0 0"/></symbol><symbol id="svg__github_work__p" overflow="visible"><path d="M4.0469 2.7656c0-.0469-.0469-.1719-.25-.375C2.5938 1.1875 1.9688-.6875 1.9688-3.125c0-2.3125.5156-4.2031 1.9062-5.6094.125-.1093.1719-.25.1719-.2812 0-.0625-.2188-.25-.2656-.25-.1563 0-1.2657.9062-1.8438 2.0781C1.3281-5.9687 1-4.5937 1-3.125c0 1.0625.1719 2.4844.7969 3.7656C2.5 2.0781 3.6406 3 3.7813 3c.0468 0 .2656-.1719.2656-.2344zm0 0"/></symbol><symbol id="svg__github_work__q" overflow="visible"><path d="M3.5313-3.125c0-.9062-.125-2.3906-.797-3.7656-.703-1.4375-1.8437-2.375-1.9687-2.375-.0468 0-.2812.1875-.2812.25 0 .0312.0469.1718.25.375C1.9375-7.4375 2.5625-5.5625 2.5625-3.125c0 2.3125-.5156 4.2031-1.9062 5.6094-.125.1094-.172.2344-.172.2812 0 .0625.2345.2344.2813.2344.1563 0 1.25-.8906 1.8282-2.0625.6093-1.2187.9375-2.625.9375-4.0625zm0 0"/></symbol><clipPath id="svg__github_work__a"><path d="M207.6016 204h170v189.2188h-170zm0 0"/></clipPath><clipPath id="svg__github_work__b"><path d="M207.6016 91.211H304V175h-96.3984zm0 0"/></clipPath><clipPath id="svg__github_work__d"><path d="M228 91.211h149.6016V229H228zm0 0"/></clipPath><clipPath id="svg__github_work__e"><path d="M207.6016 141H223v18h-15.3984zm0 0"/></clipPath></defs><path fill="none" stroke="#000" stroke-miterlimit="10" stroke-width="4.4867" d="M2688.3594 7315.8203c18.0859-31.6797 51.8359-51.25 88.3203-51.25 20.8203 0 41.1719 6.4063 58.2422 18.3203" transform="matrix(.1 0 0 -.1 -206.32 752.8159)"/><path fill="none" stroke="#000" stroke-miterlimit="10" stroke-width="4.4867" d="M2409.6094 5403.3203a85.6 85.6 0 0 0 6.3281.2344c49.4141 0 89.4922-40.0781 89.4922-89.4922 0-1.5625-.039-3.125-.1172-4.6484" transform="matrix(.1 0 0 -.1 -206.32 752.8159)"/><path fill-rule="evenodd" d="M278.0508 111.254c0 .4608-.375.8358-.836.8358-.4648 0-.8398-.375-.8398-.8359 0-.4648.375-.8398.8398-.8398.461 0 .836.375.836.8398" transform="translate(-206.32 -89.1841)"/><path fill="none" stroke="#000" stroke-miterlimit="10" stroke-width="4.4867" d="M2780.5078 7307.4609c0-4.6093-3.75-8.3593-8.3594-8.3593-4.6484 0-8.3984 3.75-8.3984 8.3593 0 4.6485 3.75 8.3985 8.3984 8.3985 4.6094 0 8.3594-3.75 8.3594-8.3985zm0 0" transform="matrix(.1 0 0 -.1 -206.32 752.8159)"/><path fill-rule="evenodd" d="M246.1055 306.8125a.8386.8386 0 0 1-.8399.8398c-.461 0-.836-.375-.836-.8398 0-.461.375-.836.836-.836.4649 0 .8399.375.8399.836" transform="translate(-206.32 -89.1841)"/><path fill="none" stroke="#000" stroke-miterlimit="10" stroke-width="4.4867" d="M2461.0547 5351.875c0-4.6484-3.75-8.3984-8.3984-8.3984-4.6094 0-8.3594 3.75-8.3594 8.3984 0 4.6094 3.75 8.3594 8.3594 8.3594 4.6484 0 8.3984-3.75 8.3984-8.3594zm0 0" transform="matrix(.1 0 0 -.1 -206.32 752.8159)"/><g clip-path="url(#svg__github_work__a)" transform="translate(-206.32 -89.1841)"><path fill="none" stroke="#00f" stroke-miterlimit="10" stroke-width="17.9469" d="M3754.4141 5308.7891c0-446.0157-361.5625-807.6172-807.6172-807.6172-446.0156 0-807.5781 361.6015-807.5781 807.6172 0 446.0156 361.5625 807.6171 807.5781 807.6171 446.0547 0 807.6172-361.6015 807.6172-807.6171zm0 0" transform="matrix(.1 0 0 -.1 0 842)"/></g><path fill="none" stroke="#000" stroke-miterlimit="10" stroke-width="4.4867" d="M2167.3047 6923.9844h914.1016" transform="matrix(.1 0 0 -.1 -206.32 752.8159)"/><path fill="none" stroke="#000" stroke-miterlimit="10" stroke-width="4.4867" d="m2778.125 7368.4766 309.8828-445.6641" transform="matrix(.1 0 0 -.1 -206.32 752.8159)"/><path fill="none" stroke="#000" stroke-miterlimit="10" stroke-width="4.4867" d="m2946.7969 5308.7891-541.4063 598.8281" transform="matrix(.1 0 0 -.1 -206.32 752.8159)"/><path fill="none" stroke="#000" stroke-miterlimit="10" stroke-width="4.4867" d="M2404.8047 5308.7891h541.9922" transform="matrix(.1 0 0 -.1 -206.32 752.8159)"/><path fill="none" stroke="#ae00ae" stroke-miterlimit="10" stroke-width="17.9469" d="M2408.3984 5308.7891v592.2265" transform="matrix(.1 0 0 -.1 -206.32 752.8159)"/><g clip-path="url(#svg__github_work__b)" transform="translate(-206.32 -89.1841)"><path fill="none" stroke="#ae00ae" stroke-miterlimit="10" stroke-width="17.9469" d="m2139.2188 6923.9844 637.1093 446.289" transform="matrix(.1 0 0 -.1 0 842)"/></g><use xlink:href="#svg__github_work__c" width="595" height="842" x="304.073" y="162.701" transform="translate(-206.32 -89.1841)"/><use xlink:href="#svg__github_work__c" width="595" height="842" x="290.6726" y="324.582" transform="translate(-206.32 -89.1841)"/><g clip-path="url(#svg__github_work__d)" transform="translate(-206.32 -89.1841)"><path fill="none" stroke="#00f" stroke-miterlimit="10" stroke-width="17.9469" d="M3619.8047 6923.9844c0-297.3438-241.0156-538.3985-538.3984-538.3985-297.3438 0-538.3985 241.0547-538.3985 538.3985 0 297.3828 241.0547 538.4375 538.3985 538.4375 297.3828 0 538.3984-241.0547 538.3984-538.4375zm0 0" transform="matrix(.1 0 0 -.1 0 842)"/></g><path fill-rule="evenodd" d="M310.832 149.6016c0 1.1875-.9648 2.1523-2.1523 2.1523s-2.1524-.9648-2.1524-2.1523c0-1.1914.9649-2.1563 2.1524-2.1563s2.1523.9649 2.1523 2.1563" transform="translate(-206.32 -89.1841)"/><path fill="none" stroke="#000" stroke-miterlimit="10" stroke-width="4.4867" d="M3108.3203 6923.9844c0-11.875-9.6484-21.5235-21.5234-21.5235s-21.5235 9.6485-21.5235 21.5235c0 11.914 9.6485 21.5625 21.5235 21.5625s21.5234-9.6485 21.5234-21.5625zm0 0" transform="matrix(.1 0 0 -.1 -206.32 752.8159)"/><path fill="#00f" fill-rule="evenodd" d="M216.0742 149.6016c0 1.1875-.9648 2.1523-2.1523 2.1523-1.1914 0-2.1563-.9648-2.1563-2.1523 0-1.1914.9649-2.1563 2.1563-2.1563 1.1875 0 2.1523.9649 2.1523 2.1563" transform="translate(-206.32 -89.1841)"/><g clip-path="url(#svg__github_work__e)" transform="translate(-206.32 -89.1841)"><path fill="none" stroke="#00f" stroke-miterlimit="10" stroke-width="4.4867" d="M2160.7422 6923.9844c0-11.875-9.6484-21.5235-21.5234-21.5235-11.9141 0-21.5625 9.6485-21.5625 21.5235 0 11.914 9.6484 21.5625 21.5625 21.5625 11.875 0 21.5234-9.6485 21.5234-21.5625zm0 0" transform="matrix(.1 0 0 -.1 0 842)"/></g><path fill="red" fill-rule="evenodd" d="M279.9648 105.0313c0 1.1914-.9648 2.1523-2.1523 2.1523-1.1914 0-2.1562-.961-2.1562-2.1524 0-1.1874.9648-2.1523 2.1562-2.1523 1.1875 0 2.1523.9649 2.1523 2.1524" transform="translate(-206.32 -89.1841)"/><path fill="none" stroke="red" stroke-miterlimit="10" stroke-width="4.4867" d="M2799.6484 7369.6875c0-11.9141-9.6484-21.5234-21.5234-21.5234-11.9141 0-21.5625 9.6093-21.5625 21.5234 0 11.875 9.6484 21.5234 21.5625 21.5234 11.875 0 21.5234-9.6484 21.5234-21.5234zm0 0" transform="matrix(.1 0 0 -.1 -206.32 752.8159)"/><path fill-rule="evenodd" d="M296.836 311.121c0 1.1915-.965 2.1524-2.1563 2.1524-1.1875 0-2.1524-.9609-2.1524-2.1523 0-1.1875.9649-2.1524 2.1524-2.1524 1.1914 0 2.1562.9649 2.1562 2.1524" transform="translate(-206.32 -89.1841)"/><path fill="none" stroke="#000" stroke-miterlimit="10" stroke-width="4.4867" d="M2968.3594 5308.7891c0-11.9141-9.6485-21.5235-21.5625-21.5235-11.875 0-21.5235 9.6094-21.5235 21.5235 0 11.875 9.6485 21.5234 21.5235 21.5234 11.914 0 21.5625-9.6484 21.5625-21.5234zm0 0" transform="matrix(.1 0 0 -.1 -206.32 752.8159)"/><path fill="#00f" fill-rule="evenodd" d="M242.9922 311.121c0 1.1915-.961 2.1524-2.1524 2.1524-1.1875 0-2.1523-.9609-2.1523-2.1523 0-1.1875.9648-2.1524 2.1523-2.1524 1.1914 0 2.1524.9649 2.1524 2.1524" transform="translate(-206.32 -89.1841)"/><path fill="none" stroke="#00f" stroke-miterlimit="10" stroke-width="4.4867" d="M2429.9219 5308.7891c0-11.9141-9.6094-21.5235-21.5235-21.5235-11.875 0-21.5234 9.6094-21.5234 21.5235 0 11.875 9.6484 21.5234 21.5234 21.5234 11.9141 0 21.5235-9.6484 21.5235-21.5234zm0 0" transform="matrix(.1 0 0 -.1 -206.32 752.8159)"/><path fill="red" fill-rule="evenodd" d="M243.1133 251.2383c0 1.1914-.9649 2.1523-2.1524 2.1523-1.1914 0-2.1523-.961-2.1523-2.1523 0-1.1875.961-2.1524 2.1523-2.1524 1.1875 0 2.1524.9649 2.1524 2.1524" transform="translate(-206.32 -89.1841)"/><path fill="none" stroke="red" stroke-miterlimit="10" stroke-width="4.4867" d="M2431.1328 5907.6172c0-11.9141-9.6484-21.5235-21.5234-21.5235-11.9141 0-21.5235 9.6094-21.5235 21.5235 0 11.875 9.6094 21.5234 21.5235 21.5234 11.875 0 21.5234-9.6484 21.5234-21.5234zm0 0" transform="matrix(.1 0 0 -.1 -206.32 752.8159)"/><use xlink:href="#svg__github_work__f" width="595" height="842" x="208.764" y="163.06" fill="#211e1e" transform="translate(-206.32 -89.1841)"/><use xlink:href="#svg__github_work__f" width="595" height="842" x="235.6843" y="324.582" fill="#211e1e" transform="translate(-206.32 -89.1841)"/><use xlink:href="#svg__github_work__g" width="595" height="842" x="269.2675" y="279.4156" fill="#211e1e" transform="translate(-206.32 -89.1841)"/><use xlink:href="#svg__github_work__g" width="595" height="842" x="293.6753" y="123.0986" fill="#211e1e" transform="translate(-206.32 -89.1841)"/><use xlink:href="#svg__github_work__h" width="595" height="842" x="335.3464" y="122.6799" fill="#211e1e" transform="translate(-206.32 -89.1841)"/><use xlink:href="#svg__github_work__h" width="595" height="842" x="343.4226" y="270.7418" fill="#211e1e" transform="translate(-206.32 -89.1841)"/><use xlink:href="#svg__github_work__i" width="595" height="842" x="233.243" y="246.513" fill="#211e1e" transform="translate(-206.32 -89.1841)"/><use xlink:href="#svg__github_work__j" width="595" height="842" x="269.6895" y="100.425" fill="#211e1e" transform="translate(-206.32 -89.1841)"/><use xlink:href="#svg__github_work__k" width="595" height="842" x="257.175" y="354.194" fill="#630063" transform="translate(-206.32 -89.1841)"/><use xlink:href="#svg__github_work__f" width="595" height="842" x="260.5352" y="354.194" fill="#630063" transform="translate(-206.32 -89.1841)"/><use xlink:href="#svg__github_work__i" width="595" height="842" x="269.775" y="354.194" fill="#630063" transform="translate(-206.32 -89.1841)"/><use xlink:href="#svg__github_work__k" width="595" height="842" x="277.695" y="354.194" fill="#630063" transform="translate(-206.32 -89.1841)"/><use xlink:href="#svg__github_work__l" width="595" height="842" x="280.935" y="349.754" fill="#211e1e" transform="translate(-206.32 -89.1841)"/><use xlink:href="#svg__github_work__m" width="595" height="842" x="288.9749" y="354.1938" fill="#211e1e" transform="translate(-206.32 -89.1841)"/><use xlink:href="#svg__github_work__n" width="595" height="842" x="301.3351" y="354.1938" fill="#211e1e" transform="translate(-206.32 -89.1841)"/><use xlink:href="#svg__github_work__o" width="595" height="842" x="310.5749" y="354.1938" fill="#211e1e" transform="translate(-206.32 -89.1841)"/><use xlink:href="#svg__github_work__p" width="595" height="842" x="319.3349" y="354.1938" fill="#211e1e" transform="translate(-206.32 -89.1841)"/><use xlink:href="#svg__github_work__f" width="595" height="842" x="323.8948" y="354.1938" fill="#211e1e" transform="translate(-206.32 -89.1841)"/><use xlink:href="#svg__github_work__q" width="595" height="842" x="333.1346" y="354.1938" fill="#211e1e" transform="translate(-206.32 -89.1841)"/><use xlink:href="#svg__github_work__k" width="595" height="842" x="273.327" y="181.904" fill="#630063" transform="translate(-206.32 -89.1841)"/><use xlink:href="#svg__github_work__f" width="595" height="842" x="276.6872" y="181.904" fill="#630063" transform="translate(-206.32 -89.1841)"/><use xlink:href="#svg__github_work__j" width="595" height="842" x="285.927" y="181.904" fill="#630063" transform="translate(-206.32 -89.1841)"/><use xlink:href="#svg__github_work__k" width="595" height="842" x="294.447" y="181.904" fill="#630063" transform="translate(-206.32 -89.1841)"/><use xlink:href="#svg__github_work__l" width="595" height="842" x="297.567" y="177.584" fill="#211e1e" transform="translate(-206.32 -89.1841)"/><use xlink:href="#svg__github_work__m" width="595" height="842" x="305.6068" y="181.9039" fill="#211e1e" transform="translate(-206.32 -89.1841)"/><use xlink:href="#svg__github_work__o" width="595" height="842" x="318.0869" y="181.9039" fill="#211e1e" transform="translate(-206.32 -89.1841)"/><use xlink:href="#svg__github_work__p" width="595" height="842" x="326.847" y="181.9039" fill="#211e1e" transform="translate(-206.32 -89.1841)"/><use xlink:href="#svg__github_work__f" width="595" height="842" x="331.4068" y="181.9039" fill="#211e1e" transform="translate(-206.32 -89.1841)"/><use xlink:href="#svg__github_work__q" width="595" height="842" x="340.6467" y="181.9039" fill="#211e1e" transform="translate(-206.32 -89.1841)"/></svg>