<svg xmlns="http://www.w3.org/2000/svg" xmlns:xlink="http://www.w3.org/1999/xlink" width="465.6" height="401.829" version="1.1" viewBox="0 0 349.2 301.371"><metadata><rdf:RDF xmlns:cc="http://creativecommons.org/ns#" xmlns:dc="http://purl.org/dc/elements/1.1/" xmlns:rdf="http://www.w3.org/1999/02/22-rdf-syntax-ns#"><cc:Work><dc:type rdf:resource="http://purl.org/dc/dcmitype/StillImage"/><dc:date>2025-11-12T22:22:32.162156</dc:date><dc:format>image/svg+xml</dc:format><dc:creator><cc:Agent><dc:title>Matplotlib v3.10.7, https://matplotlib.org/</dc:title></cc:Agent></dc:creator></cc:Work></rdf:RDF></metadata><defs><style type="text/css">*{stroke-linejoin:round;stroke-linecap:butt}</style></defs><g id="figure_1"><g id="patch_1"><path d="M 0 301.371429 L 349.2 301.371429 L 349.2 0 L 0 0 z" style="fill:#fff"/></g><g id="axes_1"><g id="patch_2"><path d="M 198.514286 262.285714 C 228.110952 262.285714 256.499399 250.526834 277.427402 229.598831 C 298.355406 208.670828 310.114286 180.28238 310.114286 150.685714 C 310.114286 121.089048 298.355406 92.700601 277.427402 71.772598 C 256.499399 50.844594 228.110952 39.085714 198.514286 39.085714 C 168.91762 39.085714 140.529172 50.844594 119.601169 71.772598 C 98.673166 92.700601 86.914286 121.089048 86.914286 150.685714 C 86.914286 180.28238 98.673166 208.670828 119.601169 229.598831 C 140.529172 250.526834 168.91762 262.285714 198.514286 262.285714 L 198.514286 262.285714 z" clip-path="url(#p143fd83170)" style="fill:none;stroke:#000;stroke-width:1.5;stroke-linejoin:miter"/></g><g id="line2d_1"><defs><path id="m9cd81e95df" d="M 0 2.5 C 0.663008 2.5 1.29895 2.236584 1.767767 1.767767 C 2.236584 1.29895 2.5 0.663008 2.5 0 C 2.5 -0.663008 2.236584 -1.29895 1.767767 -1.767767 C 1.29895 -2.236584 0.663008 -2.5 0 -2.5 C -0.663008 -2.5 -1.29895 -2.236584 -1.767767 -1.767767 C -2.236584 -1.29895 -2.5 -0.663008 -2.5 0 C -2.5 0.663008 -2.236584 1.29895 -1.767767 1.767767 C -1.29895 2.236584 -0.663008 2.5 0 2.5 z" style="stroke:#000"/></defs><g clip-path="url(#p143fd83170)"><use x="198.514" y="150.686" xlink:href="#m9cd81e95df" style="stroke:#000"/></g></g><g id="line2d_2"><path d="M 39.085714 150.685714 L 264.355786 60.577686" clip-path="url(#p143fd83170)" style="fill:none;stroke:#a02c2c;stroke-width:2;stroke-linecap:square"/></g><g id="line2d_3"><path d="M 39.085714 150.685714 L 264.355786 240.793743" clip-path="url(#p143fd83170)" style="fill:none;stroke:#a02c2c;stroke-width:2;stroke-linecap:square"/></g><g id="line2d_4"><path d="M 88.69249 130.843004 L 264.355786 240.793743" clip-path="url(#p143fd83170)" style="fill:none;stroke-dasharray:3.7,1.6;stroke-dashoffset:0;stroke:gray"/></g><g id="line2d_5"><path d="M 264.355786 60.577686 L 88.69249 170.528425" clip-path="url(#p143fd83170)" style="fill:none;stroke-dasharray:3.7,1.6;stroke-dashoffset:0;stroke:gray"/></g><g id="line2d_6"><g clip-path="url(#p143fd83170)"><use x="39.086" y="150.686" xlink:href="#m9cd81e95df" style="stroke:#000"/></g></g><g id="text_1"><g transform="translate(19.913393 155.100714) scale(0.16 -0.16)"><defs><path id="DejaVuSans-50" d="M 1259 4147 L 1259 2394 L 2053 2394 Q 2494 2394 2734 2622 Q 2975 2850 2975 3272 Q 2975 3691 2734 3919 Q 2494 4147 2053 4147 L 1259 4147 z M 628 4666 L 2053 4666 Q 2838 4666 3239 4311 Q 3641 3956 3641 3272 Q 3641 2581 3239 2228 Q 2838 1875 2053 1875 L 1259 1875 L 1259 0 L 628 0 L 628 4666 z" transform="scale(0.015625)"/></defs><use xlink:href="#DejaVuSans-50"/></g></g><g id="text_2"><g transform="translate(73.654276 125.69229) scale(0.16 -0.16)"><defs><path id="DejaVuSans-41" d="M 2188 4044 L 1331 1722 L 3047 1722 L 2188 4044 z M 1831 4666 L 2547 4666 L 4325 0 L 3669 0 L 3244 1197 L 1141 1197 L 716 0 L 50 0 L 1831 4666 z" transform="scale(0.015625)"/></defs><use xlink:href="#DejaVuSans-41"/></g></g><g id="text_3"><g transform="translate(268.43275 55.426971) scale(0.16 -0.16)"><defs><path id="DejaVuSans-42" d="M 1259 2228 L 1259 519 L 2272 519 Q 2781 519 3026 730 Q 3272 941 3272 1375 Q 3272 1813 3026 2020 Q 2781 2228 2272 2228 L 1259 2228 z M 1259 4147 L 1259 2741 L 2194 2741 Q 2656 2741 2882 2914 Q 3109 3088 3109 3444 Q 3109 3797 2882 3972 Q 2656 4147 2194 4147 L 1259 4147 z M 628 4666 L 2241 4666 Q 2963 4666 3353 4366 Q 3744 4066 3744 3513 Q 3744 3084 3544 2831 Q 3344 2578 2956 2516 Q 3422 2416 3680 2098 Q 3938 1781 3938 1306 Q 3938 681 3513 340 Q 3088 0 2303 0 L 628 0 L 628 4666 z" transform="scale(0.015625)"/></defs><use xlink:href="#DejaVuSans-42"/></g></g><g id="text_4"><g transform="translate(73.540526 184.509139) scale(0.16 -0.16)"><defs><path id="DejaVuSans-43" d="M 4122 4306 L 4122 3641 Q 3803 3938 3442 4084 Q 3081 4231 2675 4231 Q 1875 4231 1450 3742 Q 1025 3253 1025 2328 Q 1025 1406 1450 917 Q 1875 428 2675 428 Q 3081 428 3442 575 Q 3803 722 4122 1019 L 4122 359 Q 3791 134 3420 21 Q 3050 -91 2638 -91 Q 1578 -91 968 557 Q 359 1206 359 2328 Q 359 3453 968 4101 Q 1578 4750 2638 4750 Q 3056 4750 3426 4639 Q 3797 4528 4122 4306 z" transform="scale(0.015625)"/></defs><use xlink:href="#DejaVuSans-43"/></g></g><g id="text_5"><g transform="translate(267.7615 254.774457) scale(0.16 -0.16)"><defs><path id="DejaVuSans-44" d="M 1259 4147 L 1259 519 L 2022 519 Q 2988 519 3436 956 Q 3884 1394 3884 2338 Q 3884 3275 3436 3711 Q 2988 4147 2022 4147 L 1259 4147 z M 628 4666 L 1925 4666 Q 3281 4666 3915 4102 Q 4550 3538 4550 2338 Q 4550 1131 3912 565 Q 3275 0 1925 0 L 628 0 L 628 4666 z" transform="scale(0.015625)"/></defs><use xlink:href="#DejaVuSans-44"/></g></g></g></g><defs><clipPath id="p143fd83170"><rect width="334.8" height="286.971" x="7.2" y="7.2"/></clipPath></defs></svg>