<svg xmlns:xlink="http://www.w3.org/1999/xlink" viewBox="0 0 349.2 301.4"><path d="M0 301.4h349.2V0H0z" style="fill:#fff"/><path d="M198.5 262.3a111.6 111.6 0 1 0 0-223.2 111.6 111.6 0 0 0 0 223.2z" clip-path="url(#a)" style="fill:none;stroke:#000;stroke-width:1.5;stroke-linejoin:miter"/><defs><path id="b" d="M0 2.5a2.5 2.5 0 1 0 0-5 2.5 2.5 0 0 0 0 5z" style="stroke:#000"/></defs><g clip-path="url(#a)"><use xlink:href="#b" x="198.5" y="150.7" style="stroke:#000"/></g><g clip-path="url(#a)"><use xlink:href="#b" x="39.1" y="150.7" style="stroke:#000"/></g><g transform="matrix(.16 0 0 -.16 19.913 155.1)"><defs><path id="c" d="M1259 4147V2394h794q441 0 681 228 241 228 241 650 0 419-241 647-240 228-681 228zm-631 519h1425q785 0 1186-355 402-355 402-1039 0-691-402-1044-401-353-1186-353h-794V0H628z" transform="scale(.01563)"/></defs><use xlink:href="#c"/></g><g transform="matrix(.16 0 0 -.16 73.654 125.692)"><defs><path id="d" d="m2188 4044-857-2322h1716zm-357 622h716L4325 0h-656l-425 1197H1141L716 0H50z" transform="scale(.01563)"/></defs><use xlink:href="#d"/></g><g transform="matrix(.16 0 0 -.16 268.433 55.427)"><defs><path id="e" d="M1259 2228V519h1013q509 0 754 211 246 211 246 645 0 438-246 645-245 208-754 208zm0 1919V2741h935q462 0 688 173 227 174 227 530 0 353-227 528-226 175-688 175zm-631 519h1613q722 0 1112-300 391-300 391-853 0-429-200-682t-588-315q466-100 724-418 258-317 258-792 0-625-425-966Q3088 0 2303 0H628z" transform="scale(.01563)"/></defs><use xlink:href="#e"/></g><g transform="matrix(.16 0 0 -.16 73.54 184.51)"><defs><path id="f" d="M4122 4306v-665q-319 297-680 443-361 147-767 147-800 0-1225-489t-425-1414q0-922 425-1411t1225-489q406 0 767 147t680 444V359q-331-225-702-338-370-112-782-112-1060 0-1670 648-609 649-609 1771 0 1125 609 1773 610 649 1670 649 418 0 788-111 371-111 696-333" transform="scale(.01563)"/></defs><use xlink:href="#f"/></g><g transform="matrix(.16 0 0 -.16 267.762 254.774)"><defs><path id="g" d="M1259 4147V519h763q966 0 1414 437 448 438 448 1382 0 937-448 1373t-1414 436zm-631 519h1297q1356 0 1990-564 635-564 635-1764 0-1207-638-1773Q3275 0 1925 0H628z" transform="scale(.01563)"/></defs><use xlink:href="#g"/></g><defs><clipPath id="a"><path d="M7.2 7.2H342v287H7.2z"/></clipPath></defs></svg>