<svg xmlns:xlink="http://www.w3.org/1999/xlink" viewBox="0 0 403 403"><defs><path id="b" stroke="#000" stroke-width="0.5" d="M0 0v-4"/><path id="c" stroke="#000" stroke-width="0.5" d="M0 0v4"/><path id="e" d="M12.4 8.3h16.1v55.6L11 60.4v9l17.4 3.5h9.9V8.3h16V0H12.5z"/><path id="d" d="M10.6 35.5h62.6v-8.3H10.6z"/><path id="f" d="M31.8 66.4q-7.6 0-11.5-7.5-3.8-7.5-3.8-22.5t3.8-22.5 11.5-7.5 11.5 7.5T47 36.4t-3.8 22.5-11.5 7.5m0 7.8q12.2 0 18.7-9.7T57 36.4 50.5 8.3 31.8-1.4 13 8.3q-6.5 9.7-6.5 28 0 18.5 6.5 28.2t18.7 9.7"/><path id="g" d="M54.9 54.7 35 28 56 0H45.3l-16 21.5L13.6 0H2.9L24 28.6l-19.4 26h10.6l14.5-19.4 14.5 19.5z"/><path id="h" stroke="#000" stroke-width="0.5" d="M0 0h4"/><path id="i" stroke="#000" stroke-width="0.5" d="M0 0h-4"/><path id="j" d="M32.2-5q-3.8-9.8-7.5-12.8-3.6-3-9.6-3H7.9v7.5h5.3q3.7 0 5.7 1.8 2.1 1.7 4.6 8.3l1.6 4L3 54.8h9.5l17-42.8 17.2 42.8h9.5z"/><path id="k" d="M10.6 45.4h62.6v-8.2H10.6zm0-20h62.6v-8.2H10.6z"/><path id="p" d="M31 75.9q-6.5-11.2-9.7-22.2T18 31.4 21.3 9 31-13.2h-7.8q-7.3 11.5-11 22.6-3.6 11-3.6 22t3.6 22 11 22.5z"/><path id="m" d="M9.4 54.7h9V0h-9zm0 21.3h9V64.6h-9z"/><path id="n" d="M54.9 33V0h-9v32.7q0 7.8-3 11.6-3 3.9-9.1 3.9-7.3 0-11.5-4.7Q18.1 39 18.1 31V0h-9v54.7h9v-8.5q3.2 5 7.6 7.4T35.8 56q9.4 0 14.2-5.8 5-5.9 5-17.2"/><path id="q" d="M8 75.9h7.8q7.3-11.5 11-22.6 3.6-11 3.6-22 0-10.8-3.6-22-3.7-11-11-22.5H8Q14.5-2 17.7 9.1q3.2 11 3.2 22.3t-3.2 22.3T8 75.9"/><path id="l" d="M44.3 53v-8.4q-3.8 2-8 2.9-4 1-8.4 1-6.7 0-10-2-3.4-2.1-3.4-6.2 0-3.1 2.4-5 2.4-1.7 9.6-3.3l3-.7q9.7-2 13.7-5.8t4-10.4q0-7.6-6-12T24.6-1.5q-4.4 0-9.1.8-4.8.9-10 2.6v9.3q5-2.6 9.7-4Q20.1 6 24.8 6q6.4 0 9.8 2.2t3.4 6.1q0 3.7-2.5 5.6-2.4 2-10.8 3.8l-3.1.7q-8.4 1.8-12 5.4-3.8 3.6-3.8 10 0 7.7 5.5 11.9T26.8 56q5 0 9.4-.7 4.4-.8 8-2.2"/><path id="o" d="M54.9 33V0h-9v32.7q0 7.8-3 11.6-3 3.9-9.1 3.9-7.3 0-11.5-4.7Q18.1 39 18.1 31V0h-9v76h9V46.2q3.2 5 7.6 7.4T35.8 56q9.4 0 14.2-5.8 5-5.9 5-17.2"/><path id="r" d="M48.8 52.6v-8.4Q45 46.3 41 47.3q-3.8 1-7.7 1-8.7 0-13.6-5.5Q15 37.3 15 27.3t4.8-15.6 13.6-5.5q4 0 7.7 1 3.9 1.1 7.7 3.2V2.1Q45 .3 41-.5q-4-1-8.6-1-12.3 0-19.6 7.8t-7.3 21q0 13.4 7.4 21Q20.2 56 33 56q4.2 0 8.1-.9 4-.8 7.7-2.5"/><path id="s" d="M30.6 48.4q-7.2 0-11.4-5.6Q15 37 15 27.3t4.2-15.5q4.1-5.6 11.4-5.6 7.2 0 11.4 5.7 4.2 5.6 4.2 15.4 0 9.7-4.2 15.4t-11.4 5.7m0 7.6q11.7 0 18.4-7.6t6.7-21.1-6.7-21-18.4-7.7-18.4 7.6-6.7 21.1 6.7 21T30.6 56"/><path id="u" d="M34.3 27.5q-11 0-15.1-2.5-4.2-2.5-4.2-8.5 0-4.8 3.1-7.6 3.2-2.8 8.6-2.8 7.5 0 12 5.3t4.5 14v2zm17.9 3.7V0h-9v8.3q-3-5-7.7-7.3T24.3-1.4Q16-1.4 11 3.3T6 15.9q0 9.2 6.2 14 6.2 4.6 18.4 4.6h12.6v1q0 6.1-4 9.5t-11.5 3.4q-4.7 0-9.2-1.1T10 43.9v8.3q5 2 9.6 2.8 4.6 1 9 1 11.9 0 17.7-6.2 5.9-6.1 5.9-18.6"/><path id="t" d="M18.3 70.2V54.7h18.5v-7H18.3V18q0-6.7 1.8-8.6t7.5-1.9h9.2V0h-9.2Q17.2 0 13.2 3.9T9.2 18v29.7H2.8v7h6.6v15.5z"/><clipPath id="a"><path d="M51.4 13h338.8v344.9H51.4z"/></clipPath></defs><path fill="none" d="M0 403.2h403.2V0H0z"/><path fill="none" d="M51.4 357.8h338.8V13H51.4z"/><path fill="none" stroke="#b30000" stroke-linejoin="round" stroke-miterlimit="100000" stroke-width="2" d="m162 357.8 2-15.5 2.4-16.8 2.4-15.1 2.4-13.4 2.4-12 2.3-11 2.4-9.6 2.4-8.7 2.3-7.9 2.4-7 2.4-6.3 2.4-5.7 2.4-5.2 2.4-4.6 2.6-4.8 2.7-4.5 2.7-4 3-4 3.4-4.2 3.8-4.1 5.1-5.4 10.8-11.3 3.8-4.2 3.3-4.3 3.2-4.1 2.6-4 2.7-4.6 2.4-4.3 2.4-4.8 2.4-5.2 2.3-5.8 2.4-6.4 2.4-7.2 2.4-7.9 2.4-8.8 2.4-9.8 2-9.4 2-10.2 2-11.3 2-12.4 2.1-13.6 2-15 1.3-10.4"/><path fill="none" stroke="#00b300" stroke-dasharray="6 6" stroke-linejoin="round" stroke-miterlimit="100000" stroke-width="2" d="m162.2 13 .4 3.6 2.4 17.8 2.4 15.8 2.4 14.2 2.4 12.6 2.4 11.2 2.4 10.1 2.4 8.9 2.3 8 2.4 7 2.4 6.3 2.3 5.6 2.4 4.9 2.4 4.3 2 3.3 2 3 2 2.5 2 2.3 2 2 2.2 1.8 2 1.4 2 1.3 2 1 2.1.7 2 .7 2 .4 2.1.1h2l2-.2 2-.4 2.2-.6 2-.8 2-1.2 2-1.2 2-1.6 2.1-1.7 2-2 2.1-2.4 2-2.7 2-3 2-3.3 2-3.7 2.2-4.2 2-4.6 2-5.2 2-5.7 2.1-6.3 2-7 2.1-7.7 2-8.5 2-9.5 2-10.4 2-11.3 2.2-12.7 2-13.9 2-15.4.4-3.6"/><path fill="none" stroke="#0000b3" stroke-dasharray="1 3" stroke-width="2" d="m51.4 207 106.2-.2 12.2-.2 7.5-.3 5.7-.5 4.4-.6 3.8-.7 3.3-.9 3.1-1 2.7-1 2.7-1.4 2.7-1.6 2.8-1.9 2.7-2 3-2.8 3.7-3.6 10.2-10 3-2.7 2.8-2 2.7-1.8 2.7-1.6 2.7-1.2 3-1.2 3.1-1 3.4-.7 3.8-.6 4.4-.6 5.4-.4 7.1-.3 10.2-.2 18-.1h89.8" clip-path="url(#a)"/><path fill="none" stroke="#000" stroke-linecap="square" d="M51.4 357.8h338.8m-338.8 0V13m338.8 344.8V13M51.4 13h338.8"/><path fill="none" stroke="#000" stroke-dasharray="1 3" stroke-width="0.5" d="M199.7 357.8V13" clip-path="url(#a)"/><use xlink:href="#b" x="199.7" y="357.8" stroke="#000" stroke-width="0.5"/><use xlink:href="#c" x="199.7" y="13" stroke="#000" stroke-width="0.5"/><g transform="matrix(.12 0 0 -.12 190.82 370.96)"><use xlink:href="#d"/><use xlink:href="#e" x="83.8"/></g><path fill="none" stroke="#000" stroke-dasharray="1 3" stroke-width="0.5" d="M220.8 357.8V13" clip-path="url(#a)"/><use xlink:href="#b" x="220.8" y="357.8" stroke="#000" stroke-width="0.5"/><use xlink:href="#c" x="220.8" y="13" stroke="#000" stroke-width="0.5"/><use xlink:href="#f" transform="matrix(.12 0 0 -.12 217.02 370.96)"/><path fill="none" stroke="#000" stroke-dasharray="1 3" stroke-width="0.5" d="M242 357.8V13" clip-path="url(#a)"/><use xlink:href="#b" x="242" y="357.8" stroke="#000" stroke-width="0.5"/><use xlink:href="#c" x="242" y="13" stroke="#000" stroke-width="0.5"/><use xlink:href="#e" transform="matrix(.12 0 0 -.12 238.2 370.96)"/><use xlink:href="#g" transform="matrix(.12 0 0 -.12 217.29 387.57)"/><path fill="none" stroke="#000" stroke-dasharray="1 3" stroke-width="0.5" d="M51.4 207h338.8" clip-path="url(#a)"/><use xlink:href="#h" x="51.4" y="207" stroke="#000" stroke-width="0.5"/><use xlink:href="#i" x="390.2" y="207" stroke="#000" stroke-width="0.5"/><g transform="matrix(.12 0 0 -.12 29.744 210.27)"><use xlink:href="#d"/><use xlink:href="#e" x="83.8"/></g><path fill="none" stroke="#000" stroke-dasharray="1 3" stroke-width="0.5" d="M51.4 185.4h338.8" clip-path="url(#a)"/><use xlink:href="#h" x="51.4" y="185.4" stroke="#000" stroke-width="0.5"/><use xlink:href="#i" x="390.2" y="185.4" stroke="#000" stroke-width="0.5"/><use xlink:href="#f" transform="matrix(.12 0 0 -.12 39.8 188.71)"/><path fill="none" stroke="#000" stroke-dasharray="1 3" stroke-width="0.5" d="M51.4 163.8h338.8" clip-path="url(#a)"/><use xlink:href="#h" x="51.4" y="163.8" stroke="#000" stroke-width="0.5"/><use xlink:href="#i" x="390.2" y="163.8" stroke="#000" stroke-width="0.5"/><use xlink:href="#e" transform="matrix(.12 0 0 -.12 39.8 167.16)"/><use xlink:href="#j" transform="matrix(0 -.12 -.12 0 22.249 188.95)"/><path fill="#fff" stroke="#000" d="M248.3 350.6H383V283H248.3z"/><path fill="none" stroke="#b30000" stroke-linecap="square" stroke-width="2" d="M258.4 294.6h20.2"/><g transform="matrix(.144 0 0 -.144 294.42 299.61)"><use xlink:href="#j"/><use xlink:href="#BitstreamVeraSans-Roman-20" x="59.2"/><use xlink:href="#k" x="91"/><use xlink:href="#BitstreamVeraSans-Roman-20" x="174.8"/><use xlink:href="#l" x="206.5"/><use xlink:href="#m" x="258.6"/><use xlink:href="#n" x="286.4"/><use xlink:href="#o" x="349.8"/><use xlink:href="#p" x="413.2"/><use xlink:href="#g" x="452.2"/><use xlink:href="#q" x="511.4"/></g><path fill="none" stroke="#00b300" stroke-dasharray="6 6" stroke-width="2" d="M258.4 315.7h20.2"/><g transform="matrix(.144 0 0 -.144 294.42 320.75)"><use xlink:href="#j"/><use xlink:href="#BitstreamVeraSans-Roman-20" x="59.2"/><use xlink:href="#k" x="91"/><use xlink:href="#BitstreamVeraSans-Roman-20" x="174.8"/><use xlink:href="#r" x="206.5"/><use xlink:href="#s" x="261.5"/><use xlink:href="#l" x="322.7"/><use xlink:href="#o" x="374.8"/><use xlink:href="#p" x="438.2"/><use xlink:href="#g" x="477.2"/><use xlink:href="#q" x="536.4"/></g><path fill="none" stroke="#0000b3" stroke-dasharray="1 3" stroke-width="2" d="M258.4 336.9h20.2"/><g transform="matrix(.144 0 0 -.144 294.42 341.89)"><use xlink:href="#j"/><use xlink:href="#BitstreamVeraSans-Roman-20" x="59.2"/><use xlink:href="#k" x="91"/><use xlink:href="#BitstreamVeraSans-Roman-20" x="174.8"/><use xlink:href="#t" x="206.5"/><use xlink:href="#u" x="245.8"/><use xlink:href="#n" x="307"/><use xlink:href="#o" x="370.4"/><use xlink:href="#p" x="433.8"/><use xlink:href="#g" x="472.8"/><use xlink:href="#q" x="532"/></g></svg>