<?xml version="1.0" encoding="UTF-8" standalone="no"?>
<!-- Created with matplotlib (http://matplotlib.org/) -->
<svg id="svg6564" xmlns:rdf="http://www.w3.org/1999/02/22-rdf-syntax-ns#" xmlns="http://www.w3.org/2000/svg" height="403pt" width="403pt" version="1.1" xmlns:cc="http://creativecommons.org/ns#" xmlns:xlink="http://www.w3.org/1999/xlink" viewBox="0 0 403 403" xmlns:dc="http://purl.org/dc/elements/1.1/">
 <defs>
  <style id="style6568" type="text/css">*{stroke-linecap:butt;stroke-linejoin:round;stroke-miterlimit:100000;}</style>
  <path id="m6d0dc4c4e2" stroke-width=".5" d="m0 0v-4" stroke="#000"/>
  <path id="m2997e254fe" stroke-width=".5" d="m0 0v4" stroke="#000"/>
  <path id="BitstreamVeraSans-Roman-31" d="m12.406 8.2969h16.11v55.625l-17.532-3.516v8.985l17.438 3.515h9.859v-64.609l16.11-0.0001v-8.2969h-41.985z"/>
  <path id="BitstreamVeraSans-Roman-2212" d="m10.594 35.5h62.594v-8.297h-62.594z"/>
  <path id="BitstreamVeraSans-Roman-30" d="m31.781 66.406q-7.609 0-11.453-7.5-3.828-7.484-3.828-22.531 0-14.984 3.828-22.484 3.844-7.5004 11.453-7.5004 7.672 0 11.5 7.5004 3.844 7.5 3.844 22.484 0 15.047-3.844 22.531-3.828 7.5-11.5 7.5m0 7.813q12.266 0 18.735-9.703 6.468-9.688 6.468-28.141 0-18.406-6.468-28.109-6.469-9.6879-18.735-9.6879-12.25 0-18.719 9.6875-6.4682 9.7034-6.4682 28.109 0 18.453 6.4682 28.141 6.469 9.703 18.719 9.703"/>
  <path id="BitstreamVeraSans-Roman-78" d="m54.891 54.688l-19.782-26.61 20.797-28.078h-10.594l-15.921 21.484-15.907-21.484h-10.609l21.25 28.609-19.438 26.079h10.594l14.5-19.485 14.5 19.485z"/>
  <path id="md69bb88a81" stroke-width=".5" d="m0 0h4" stroke="#000"/>
  <path id="m1d1e712049" stroke-width=".5" d="m0 0h-4" stroke="#000"/>
  <path id="BitstreamVeraSans-Roman-79" d="m32.172-5.0781q-3.797-9.7659-7.422-12.734-3.609-2.985-9.656-2.985h-7.1878v7.516h5.2818q3.703 0 5.75 1.765 2.062 1.7504 4.546 8.2972l1.61 4.0938-22.11 53.813h9.516l17.094-42.766 17.094 42.766h9.515z"/>
  <path id="BitstreamVeraSans-Roman-3d" d="m10.594 45.406h62.594v-8.203h-62.594zm0-19.922h62.594v-8.296h-62.594z"/>
  <path id="BitstreamVeraSans-Roman-28" d="m31 75.875q-6.531-11.219-9.719-22.219-3.172-10.984-3.172-22.265 0-11.266 3.203-22.328 3.204-11.063 9.688-22.251h-7.812q-7.313 11.485-10.954 22.563-3.6402 11.078-3.6402 22.016 0 10.89 3.6092 21.921 3.625 11.047 10.985 22.563z"/>
  <path id="BitstreamVeraSans-Roman-69" d="m9.4219 54.688h8.9841v-54.688h-8.9841zm0 21.296h8.9841v-11.39h-8.9841z"/>
  <path id="BitstreamVeraSans-Roman-6e" d="m54.891 33.016v-33.016h-8.985v32.719q0 7.765-3.031 11.609-3.031 3.86-9.078 3.86-7.281 0-11.485-4.641-4.203-4.625-4.203-12.641v-30.906h-9.0309v54.688h9.0309v-8.5q3.235 4.937 7.594 7.374 4.375 2.438 10.094 2.438 9.422 0 14.25-5.828 4.844-5.828 4.844-17.156"/>
  <path id="BitstreamVeraSans-Roman-29" d="m8.0156 75.875h7.8124q7.313-11.516 10.953-22.563 3.641-11.031 3.641-21.921 0-10.938-3.641-22.016-3.64-11.078-10.953-22.563h-7.8124q6.4844 11.188 9.6874 22.25 3.203 11.063 3.203 22.329 0 11.281-3.203 22.265-3.203 11-9.6874 22.219"/>
  <path id="BitstreamVeraSans-Roman-73" d="m44.281 53.078v-8.5q-3.797 1.953-7.906 2.922-4.094 0.984-8.5 0.984-6.687 0-10.031-2.046-3.344-2.047-3.344-6.157 0-3.125 2.391-4.906 2.39-1.781 9.625-3.391l3.078-0.687q9.562-2.047 13.594-5.781 4.031-3.735 4.031-10.422 0-7.6252-6.031-12.078-6.032-4.4379-16.579-4.4379-4.39 0-9.156 0.8594-4.765 0.85938-10.031 2.5625l-0.0001 9.281q4.9841-2.5935 9.8121-3.8904 4.828-1.2812 9.578-1.2812 6.344 0 9.75 2.1718 3.422 2.1718 3.422 6.1248 0 3.656-2.468 5.61-2.454 1.953-10.813 3.765l-3.125 0.735q-8.344 1.75-12.062 5.39-3.7035 3.641-3.7035 9.985 0 7.718 5.4685 11.906 5.469 4.203 15.531 4.203 4.969 0 9.36-0.734 4.406-0.719 8.109-2.188"/>
  <path id="BitstreamVeraSans-Roman-68" d="m54.891 33.016v-33.016h-8.985v32.719q0 7.765-3.031 11.609-3.031 3.86-9.078 3.86-7.281 0-11.485-4.641-4.203-4.625-4.203-12.641v-30.906h-9.0309v75.984h9.0309v-29.796q3.235 4.937 7.594 7.374 4.375 2.438 10.094 2.438 9.422 0 14.25-5.828 4.844-5.828 4.844-17.156"/>
  <path id="BitstreamVeraSans-Roman-63" d="m48.781 52.594v-8.406q-3.812 2.109-7.64 3.156-3.829 1.047-7.735 1.047-8.75 0-13.594-5.547-4.828-5.532-4.828-15.547 0-10.016 4.828-15.563 4.844-5.5309 13.594-5.5309 3.906 0 7.735 1.0469 3.828 1.0469 7.64 3.156v-8.3122q-3.765-1.75-7.797-2.625-4.015-0.8907-8.562-0.8907-12.36 0-19.641 7.7657-7.2654 7.7652-7.2654 20.953 0 13.375 7.3434 21.031 7.36 7.672 20.157 7.672 4.14 0 8.093-0.859 3.953-0.844 7.672-2.547"/>
  <path id="BitstreamVeraSans-Roman-6f" d="m30.609 48.391q-7.218 0-11.421-5.641-4.204-5.641-4.204-15.453 0-9.813 4.172-15.453 4.188-5.6409 11.453-5.6409 7.188 0 11.375 5.6559 4.204 5.672 4.204 15.438 0 9.719-4.204 15.406-4.187 5.688-11.375 5.688m0 7.609q11.719 0 18.407-7.625 6.703-7.609 6.703-21.078 0-13.422-6.703-21.078-6.688-7.6409-18.407-7.6409-11.765 0-18.437 7.6407-6.6564 7.6562-6.6564 21.078 0 13.469 6.6564 21.078 6.672 7.625 18.437 7.625"/>
  <path id="BitstreamVeraSans-Roman-61" d="m34.281 27.484q-10.89 0-15.093-2.484-4.204-2.484-4.204-8.5 0-4.781 3.157-7.5938 3.156-2.7968 8.562-2.7968 7.485 0 12 5.2966 4.516 5.297 4.516 14.078v2zm17.922 3.719v-31.203h-8.984v8.2969q-3.078-4.9688-7.672-7.3438t-11.235-2.375q-8.39 0-13.359 4.7188-4.953 4.7187-4.953 12.625 0 9.219 6.172 13.906 6.187 4.688 18.437 4.688h12.61v0.89q0 6.203-4.078 9.594-4.079 3.391-11.453 3.391-4.688 0-9.141-1.125-4.438-1.125-8.531-3.375v8.312q4.922 1.906 9.562 2.844 4.641 0.953 9.031 0.953 11.875 0 17.735-6.156 5.859-6.141 5.859-18.641"/>
  <path id="BitstreamVeraSans-Roman-74" d="m18.312 70.219v-15.531h18.5v-6.985h-18.5v-29.687q0-6.688 1.829-8.5941 1.828-1.9063 7.453-1.9063h9.218v-7.5156h-9.218q-10.406 0-14.36 3.875-3.9528 3.8906-3.9528 14.141v29.687h-6.5937v6.985h6.5937v15.531z"/>
  <clipPath id="p875ac5675d">
   <rect id="rect6866" y="12.96" width="338.8" x="51.435" height="344.88"/>
  </clipPath>
 </defs>
 <metadata id="metadata6870">
  <rdf:RDF>
   <cc:Work rdf:about="">
    <dc:format>image/svg+xml</dc:format>
    <dc:type rdf:resource="http://purl.org/dc/dcmitype/StillImage"/>
    <dc:title/>
   </cc:Work>
  </rdf:RDF>
 </metadata>
 <g id="figure_1">
  <g id="patch_1">
   <path id="path6572" fill="none" d="m0 403.2h403.2v-403.2h-403.2v403.2z"/>
  </g>
  <g id="axes_1">
   <g id="patch_2">
    <path id="path6576" fill="none" d="m51.435 357.84h338.8v-344.88h-338.8l-0.005 344.88z"/>
   </g>
   <g id="line2d_1">
    <path id="path7422" stroke-linejoin="round" d="m202.58 447.3l2.46-19.45 2.97-21.01 2.96-18.8 2.97-16.83 2.97-15.08 2.97-13.52 2.96-12.12 2.97-10.88 2.97-9.77 2.97-8.79 2.96-7.92 2.97-7.14 2.97-6.46 2.97-5.87 3.39-6.05 3.39-5.47 3.39-4.97 3.82-5.09 4.24-5.17 4.66-5.24 6.36-6.68 13.56-14.09 4.67-5.31 4.24-5.26 3.81-5.2 3.39-5.09 3.39-5.6 2.97-5.41 2.97-5.94 2.97-6.56 2.96-7.25 2.97-8.03 2.97-8.92 2.97-9.93 2.96-11.04 2.97-12.31 2.55-11.68 2.54-12.819 2.54-14.09 2.55-15.489 2.54-17.03 2.54-18.729 1.61-13.013" transform="scale(.8)" stroke="#b30000" stroke-miterlimit="1e5" stroke-width="2.5" fill="none"/>
   </g>
   <g id="line2d_2">
    <path id="path7415" stroke-linejoin="round" d="m202.79 16.2l0.55 4.635 2.97 22.175 2.97 19.799 2.97 17.675 2.96 15.771 2.97 14.065 2.97 12.54 2.97 11.17 2.96 9.94 2.97 8.83 2.97 7.84 2.97 6.95 2.96 6.13 2.97 5.41 2.54 4.11 2.55 3.66 2.54 3.24 2.54 2.86 2.55 2.5 2.54 2.17 2.55 1.85 2.54 1.55 2.54 1.27 2.55 1 2.54 0.74 2.54 0.48 2.55 0.22 2.54-0.02 2.54-0.27 2.55-0.52 2.54-0.78 2.54-1.04 2.55-1.32 2.54-1.6 2.55-1.9 2.54-2.22 2.54-2.56 2.55-2.92 2.54-3.31 2.54-3.73 2.55-4.19 2.54-4.68 2.54-5.21 2.55-5.8 2.54-6.43 2.55-7.14 2.54-7.9 2.54-8.73 2.55-9.65 2.54-10.66 2.54-11.76 2.55-12.976 2.54-14.31 2.54-15.774 2.55-17.387 2.54-19.158 0.56-4.635" transform="scale(.8)" stroke="#00b300" stroke-miterlimit="1e5" stroke-dasharray="7.5, 7.50000000000000000" stroke-width="2.5" fill="none"/>
   </g>
   <g id="line2d_3">
    <path id="path6585" d="m51.435 206.95l106.16-0.1 12.2-0.24 7.46-0.35 5.76-0.48 4.41-0.59 3.73-0.7 3.39-0.86 3.06-1 2.71-1.1 2.71-1.34 2.72-1.59 2.71-1.86 2.71-2.13 3.05-2.69 3.73-3.6 10.18-10.06 3.05-2.62 2.71-2.07 2.72-1.79 2.71-1.53 2.71-1.28 3.06-1.16 3.05-0.92 3.39-0.79 3.73-0.65 4.41-0.53 5.43-0.43 7.12-0.31 10.17-0.21 17.98-0.1 61.38-0.02h28.49" clip-path="url(#p875ac5675d)" stroke="#0000b3" stroke-dasharray="1.000000,3.000000" stroke-width="2" fill="none"/>
   </g>
   <g id="patch_3">
    <path id="path6588" d="m51.435 357.84h338.8" stroke="#000" stroke-linecap="square" fill="none"/>
   </g>
   <g id="patch_4">
    <path id="path6591" d="m51.435 357.84v-344.88" stroke="#000" stroke-linecap="square" fill="none"/>
   </g>
   <g id="patch_5">
    <path id="path6594" d="m390.24 357.84v-344.88" stroke="#000" stroke-linecap="square" fill="none"/>
   </g>
   <g id="patch_6">
    <path id="path6597" d="m51.435 12.96h338.8" stroke="#000" stroke-linecap="square" fill="none"/>
   </g>
   <g id="matplotlib.axis_1">
    <g id="xtick_1">
     <g id="line2d_4">
      <path id="path6602" d="m199.66 357.84v-344.88" clip-path="url(#p875ac5675d)" stroke="#000" stroke-dasharray="1.000000,3.000000" stroke-width=".5" fill="none"/>
     </g>
     <g id="line2d_5">
      <g id="g6608">
       <use id="use6610" xlink:href="#m6d0dc4c4e2" stroke="#000000" y="357.84" x="199.6621875" stroke-width=".5"/>
      </g>
     </g>
     <g id="line2d_6">
      <g id="g6616">
       <use id="use6618" xlink:href="#m2997e254fe" stroke="#000000" y="12.96" x="199.6621875" stroke-width=".5"/>
      </g>
     </g>
     <g id="text_1"><!-- −1 -->
      <g id="g6625" transform="translate(190.82 370.96) scale(.12 -.12)">
       <use id="use6627" xlink:href="#BitstreamVeraSans-Roman-2212"/>
       <use id="use6629" x="83.7890625" xlink:href="#BitstreamVeraSans-Roman-31"/>
      </g>
     </g>
    </g>
    <g id="xtick_2">
     <g id="line2d_7">
      <path id="path6633" d="m220.84 357.84v-344.88" clip-path="url(#p875ac5675d)" stroke="#000" stroke-dasharray="1.000000,3.000000" stroke-width=".5" fill="none"/>
     </g>
     <g id="line2d_8">
      <g id="g6636">
       <use id="use6638" xlink:href="#m6d0dc4c4e2" stroke="#000000" y="357.84" x="220.8375" stroke-width=".5"/>
      </g>
     </g>
     <g id="line2d_9">
      <g id="g6641">
       <use id="use6643" xlink:href="#m2997e254fe" stroke="#000000" y="12.96" x="220.8375" stroke-width=".5"/>
      </g>
     </g>
     <g id="text_2"><!-- 0 -->
      <g id="g6649" transform="translate(217.02 370.96) scale(.12 -.12)">
       <use id="use6651" xlink:href="#BitstreamVeraSans-Roman-30"/>
      </g>
     </g>
    </g>
    <g id="xtick_3">
     <g id="line2d_10">
      <path id="path6655" d="m242.01 357.84v-344.88" clip-path="url(#p875ac5675d)" stroke="#000" stroke-dasharray="1.000000,3.000000" stroke-width=".5" fill="none"/>
     </g>
     <g id="line2d_11">
      <g id="g6658">
       <use id="use6660" xlink:href="#m6d0dc4c4e2" stroke="#000000" y="357.84" x="242.0128125" stroke-width=".5"/>
      </g>
     </g>
     <g id="line2d_12">
      <g id="g6663">
       <use id="use6665" xlink:href="#m2997e254fe" stroke="#000000" y="12.96" x="242.0128125" stroke-width=".5"/>
      </g>
     </g>
     <g id="text_3"><!-- 1 -->
      <g id="g6668" transform="translate(238.2 370.96) scale(.12 -.12)">
       <use id="use6670" xlink:href="#BitstreamVeraSans-Roman-31"/>
      </g>
     </g>
    </g>
    <g id="text_4"><!-- x -->
     <g id="g6676" transform="translate(217.29 387.57) scale(.12 -.12)">
      <use id="use6678" xlink:href="#BitstreamVeraSans-Roman-78"/>
     </g>
    </g>
   </g>
   <g id="matplotlib.axis_2">
    <g id="ytick_1">
     <g id="line2d_13">
      <path id="path6683" d="m51.435 206.96h338.8" clip-path="url(#p875ac5675d)" stroke="#000" stroke-dasharray="1.000000,3.000000" stroke-width=".5" fill="none"/>
     </g>
     <g id="line2d_14">
      <g id="g6689">
       <use id="use6691" xlink:href="#md69bb88a81" stroke="#000000" y="206.955" x="51.435" stroke-width=".5"/>
      </g>
     </g>
     <g id="line2d_15">
      <g id="g6697">
       <use id="use6699" xlink:href="#m1d1e712049" stroke="#000000" y="206.955" x="390.24" stroke-width=".5"/>
      </g>
     </g>
     <g id="text_5"><!-- −1 -->
      <g id="g6702" transform="translate(29.744 210.27) scale(.12 -.12)">
       <use id="use6704" xlink:href="#BitstreamVeraSans-Roman-2212"/>
       <use id="use6706" x="83.7890625" xlink:href="#BitstreamVeraSans-Roman-31"/>
      </g>
     </g>
    </g>
    <g id="ytick_2">
     <g id="line2d_16">
      <path id="path6710" d="m51.435 185.4h338.8" clip-path="url(#p875ac5675d)" stroke="#000" stroke-dasharray="1.000000,3.000000" stroke-width=".5" fill="none"/>
     </g>
     <g id="line2d_17">
      <g id="g6713">
       <use id="use6715" xlink:href="#md69bb88a81" stroke="#000000" y="185.4" x="51.435" stroke-width=".5"/>
      </g>
     </g>
     <g id="line2d_18">
      <g id="g6718">
       <use id="use6720" xlink:href="#m1d1e712049" stroke="#000000" y="185.4" x="390.24" stroke-width=".5"/>
      </g>
     </g>
     <g id="text_6"><!-- 0 -->
      <g id="g6723" transform="translate(39.8 188.71) scale(.12 -.12)">
       <use id="use6725" xlink:href="#BitstreamVeraSans-Roman-30"/>
      </g>
     </g>
    </g>
    <g id="ytick_3">
     <g id="line2d_19">
      <path id="path6729" d="m51.435 163.84h338.8" clip-path="url(#p875ac5675d)" stroke="#000" stroke-dasharray="1.000000,3.000000" stroke-width=".5" fill="none"/>
     </g>
     <g id="line2d_20">
      <g id="g6732">
       <use id="use6734" xlink:href="#md69bb88a81" stroke="#000000" y="163.845" x="51.435" stroke-width=".5"/>
      </g>
     </g>
     <g id="line2d_21">
      <g id="g6737">
       <use id="use6739" xlink:href="#m1d1e712049" stroke="#000000" y="163.845" x="390.24" stroke-width=".5"/>
      </g>
     </g>
     <g id="text_7"><!-- 1 -->
      <g id="g6742" transform="translate(39.8 167.16) scale(.12 -.12)">
       <use id="use6744" xlink:href="#BitstreamVeraSans-Roman-31"/>
      </g>
     </g>
    </g>
    <g id="text_8"><!-- y -->
     <g id="g6750" transform="translate(22.249 188.95) rotate(-90) scale(.12 -.12)">
      <use id="use6752" xlink:href="#BitstreamVeraSans-Roman-79"/>
     </g>
    </g>
   </g>
   <g id="legend_1">
    <g id="patch_7">
     <path id="path6756" d="m248.34 350.64h134.7v-67.73h-134.7z" stroke="#000" fill="#fff"/>
    </g>
    <g id="line2d_22">
     <path id="path6759" d="m258.42 294.57h20.16" stroke="#b30000" stroke-linecap="square" stroke-width="2" fill="none"/>
    </g>
    <g id="text_9"><!-- y = sinh(x) -->
     <g id="g6773" transform="translate(294.42 299.61) scale(.144 -.144)">
      <use id="use6775" xlink:href="#BitstreamVeraSans-Roman-79"/>
      <use id="use6777" x="59.1796875" xlink:href="#BitstreamVeraSans-Roman-20"/>
      <use id="use6779" x="90.966796875" xlink:href="#BitstreamVeraSans-Roman-3d"/>
      <use id="use6781" x="174.755859375" xlink:href="#BitstreamVeraSans-Roman-20"/>
      <use id="use6783" x="206.54296875" xlink:href="#BitstreamVeraSans-Roman-73"/>
      <use id="use6785" x="258.642578125" xlink:href="#BitstreamVeraSans-Roman-69"/>
      <use id="use6787" x="286.42578125" xlink:href="#BitstreamVeraSans-Roman-6e"/>
      <use id="use6789" x="349.8046875" xlink:href="#BitstreamVeraSans-Roman-68"/>
      <use id="use6791" x="413.18359375" xlink:href="#BitstreamVeraSans-Roman-28"/>
      <use id="use6793" x="452.197265625" xlink:href="#BitstreamVeraSans-Roman-78"/>
      <use id="use6795" x="511.376953125" xlink:href="#BitstreamVeraSans-Roman-29"/>
     </g>
    </g>
    <g id="line2d_24">
     <path id="path6798" d="m258.42 315.71h20.16" stroke="#00b300" stroke-dasharray="6.000000,6.000000" stroke-width="2" fill="none"/>
    </g>
    <g id="text_10"><!-- y = cosh(x) -->
     <g id="g6806" transform="translate(294.42 320.75) scale(.144 -.144)">
      <use id="use6808" xlink:href="#BitstreamVeraSans-Roman-79"/>
      <use id="use6810" x="59.1796875" xlink:href="#BitstreamVeraSans-Roman-20"/>
      <use id="use6812" x="90.966796875" xlink:href="#BitstreamVeraSans-Roman-3d"/>
      <use id="use6814" x="174.755859375" xlink:href="#BitstreamVeraSans-Roman-20"/>
      <use id="use6816" x="206.54296875" xlink:href="#BitstreamVeraSans-Roman-63"/>
      <use id="use6818" x="261.5234375" xlink:href="#BitstreamVeraSans-Roman-6f"/>
      <use id="use6820" x="322.705078125" xlink:href="#BitstreamVeraSans-Roman-73"/>
      <use id="use6822" x="374.8046875" xlink:href="#BitstreamVeraSans-Roman-68"/>
      <use id="use6824" x="438.18359375" xlink:href="#BitstreamVeraSans-Roman-28"/>
      <use id="use6826" x="477.197265625" xlink:href="#BitstreamVeraSans-Roman-78"/>
      <use id="use6828" x="536.376953125" xlink:href="#BitstreamVeraSans-Roman-29"/>
     </g>
    </g>
    <g id="line2d_26">
     <path id="path6831" d="m258.42 336.85h20.16" stroke="#0000b3" stroke-dasharray="1.000000,3.000000" stroke-width="2" fill="none"/>
    </g>
    <g id="text_11"><!-- y = tanh(x) -->
     <g id="g6839" transform="translate(294.42 341.89) scale(.144 -.144)">
      <use id="use6841" xlink:href="#BitstreamVeraSans-Roman-79"/>
      <use id="use6843" x="59.1796875" xlink:href="#BitstreamVeraSans-Roman-20"/>
      <use id="use6845" x="90.966796875" xlink:href="#BitstreamVeraSans-Roman-3d"/>
      <use id="use6847" x="174.755859375" xlink:href="#BitstreamVeraSans-Roman-20"/>
      <use id="use6849" x="206.54296875" xlink:href="#BitstreamVeraSans-Roman-74"/>
      <use id="use6851" x="245.751953125" xlink:href="#BitstreamVeraSans-Roman-61"/>
      <use id="use6853" x="307.03125" xlink:href="#BitstreamVeraSans-Roman-6e"/>
      <use id="use6855" x="370.41015625" xlink:href="#BitstreamVeraSans-Roman-68"/>
      <use id="use6857" x="433.7890625" xlink:href="#BitstreamVeraSans-Roman-28"/>
      <use id="use6859" x="472.802734375" xlink:href="#BitstreamVeraSans-Roman-78"/>
      <use id="use6861" x="531.982421875" xlink:href="#BitstreamVeraSans-Roman-29"/>
     </g>
    </g>
   </g>
  </g>
 </g>
</svg>
