<svg xmlns="http://www.w3.org/2000/svg" id="svg6564" viewBox="0 0 403 403" xmlns:xlink="http://www.w3.org/1999/xlink"><defs><style id="style6568" type="text/css">*{stroke-linecap:butt;stroke-linejoin:round;stroke-miterlimit:100000}</style><path id="m6d0dc4c4e2" stroke="#000" stroke-width="0.5" d="M0 0v-4"/><path id="m2997e254fe" stroke="#000" stroke-width="0.5" d="M0 0v4"/><path id="BitstreamVeraSans-Roman-31" d="M12.406 8.297h16.11v55.625l-17.532-3.516v8.985l17.438 3.515h9.859V8.296h16.11V0H12.406z"/><path id="BitstreamVeraSans-Roman-2212" d="M10.594 35.5h62.594v-8.297H10.594z"/><path id="BitstreamVeraSans-Roman-30" d="M31.781 66.406q-7.609 0-11.453-7.5Q16.5 51.422 16.5 36.375q0-14.984 3.828-22.484 3.844-7.5 11.453-7.5 7.672 0 11.5 7.5 3.844 7.5 3.844 22.484 0 15.047-3.844 22.531-3.828 7.5-11.5 7.5m0 7.813q12.266 0 18.735-9.703 6.468-9.688 6.468-28.141 0-18.406-6.468-28.109-6.469-9.688-18.735-9.688-12.25 0-18.719 9.688-6.468 9.703-6.468 28.109 0 18.453 6.468 28.14 6.469 9.704 18.719 9.704"/><path id="BitstreamVeraSans-Roman-78" d="m54.891 54.688-19.782-26.61L55.906 0H45.312L29.391 21.484 13.484 0H2.875l21.25 28.609L4.687 54.688h10.594l14.5-19.485 14.5 19.485z"/><path id="md69bb88a81" stroke="#000" stroke-width="0.5" d="M0 0h4"/><path id="m1d1e712049" stroke="#000" stroke-width="0.5" d="M0 0h-4"/><path id="BitstreamVeraSans-Roman-79" d="M32.172-5.078q-3.797-9.766-7.422-12.734-3.609-2.985-9.656-2.985H7.906v7.516h5.282q3.703 0 5.75 1.765Q21-9.766 23.484-3.22l1.61 4.094-22.11 53.813H12.5l17.094-42.766 17.094 42.766h9.515z"/><path id="BitstreamVeraSans-Roman-3d" d="M10.594 45.406h62.594v-8.203H10.594zm0-19.922h62.594v-8.296H10.594z"/><path id="BitstreamVeraSans-Roman-28" d="M31 75.875q-6.531-11.219-9.719-22.219-3.172-10.984-3.172-22.265 0-11.266 3.203-22.328Q24.516-2 31-13.188h-7.812Q15.875-1.703 12.234 9.375q-3.64 11.078-3.64 22.016 0 10.89 3.609 21.921 3.625 11.047 10.985 22.563z"/><path id="BitstreamVeraSans-Roman-69" d="M9.422 54.688h8.984V0H9.422zm0 21.296h8.984v-11.39H9.422z"/><path id="BitstreamVeraSans-Roman-6e" d="M54.891 33.016V0h-8.985v32.719q0 7.765-3.031 11.609-3.031 3.86-9.078 3.86-7.281 0-11.485-4.641-4.203-4.625-4.203-12.641V0h-9.03v54.688h9.03v-8.5q3.235 4.937 7.594 7.374Q30.078 56 35.797 56q9.422 0 14.25-5.828 4.844-5.828 4.844-17.156"/><path id="BitstreamVeraSans-Roman-29" d="M8.016 75.875h7.812q7.313-11.516 10.953-22.563 3.641-11.031 3.641-21.921 0-10.938-3.641-22.016T15.828-13.188H8.016Q14.5-2 17.703 9.062q3.203 11.063 3.203 22.329 0 11.281-3.203 22.265-3.203 11-9.687 22.219"/><path id="BitstreamVeraSans-Roman-73" d="M44.281 53.078v-8.5q-3.797 1.953-7.906 2.922-4.094.984-8.5.984-6.687 0-10.031-2.046-3.344-2.047-3.344-6.157 0-3.125 2.391-4.906t9.625-3.391l3.078-.687q9.562-2.047 13.594-5.781 4.031-3.735 4.031-10.422 0-7.625-6.031-12.078-6.032-4.438-16.579-4.438-4.39 0-9.156.86Q10.688.297 5.422 2v9.281q4.984-2.593 9.812-3.89 4.828-1.282 9.578-1.282 6.344 0 9.75 2.172 3.422 2.172 3.422 6.125 0 3.656-2.468 5.61-2.454 1.953-10.813 3.765l-3.125.735q-8.344 1.75-12.062 5.39-3.704 3.641-3.704 9.985 0 7.718 5.469 11.906Q16.75 56 26.812 56q4.969 0 9.36-.734 4.406-.719 8.109-2.188"/><path id="BitstreamVeraSans-Roman-68" d="M54.891 33.016V0h-8.985v32.719q0 7.765-3.031 11.609-3.031 3.86-9.078 3.86-7.281 0-11.485-4.641-4.203-4.625-4.203-12.641V0h-9.03v75.984h9.03V46.188q3.235 4.937 7.594 7.374Q30.078 56 35.797 56q9.422 0 14.25-5.828 4.844-5.828 4.844-17.156"/><path id="BitstreamVeraSans-Roman-63" d="M48.781 52.594v-8.406q-3.812 2.109-7.64 3.156-3.829 1.047-7.735 1.047-8.75 0-13.594-5.547-4.828-5.532-4.828-15.547t4.828-15.563q4.844-5.53 13.594-5.53 3.906 0 7.735 1.046 3.828 1.047 7.64 3.156V2.094Q45.016.344 40.984-.531q-4.015-.89-8.562-.89-12.36 0-19.641 7.765-7.265 7.765-7.265 20.953 0 13.375 7.343 21.03Q20.219 56 33.016 56q4.14 0 8.093-.86 3.953-.843 7.672-2.546"/><path id="BitstreamVeraSans-Roman-6f" d="M30.609 48.391q-7.218 0-11.421-5.641-4.204-5.641-4.204-15.453 0-9.813 4.172-15.453 4.188-5.64 11.453-5.64 7.188 0 11.375 5.655 4.204 5.672 4.204 15.438 0 9.719-4.204 15.406-4.187 5.688-11.375 5.688m0 7.609q11.719 0 18.407-7.625 6.703-7.609 6.703-21.078 0-13.422-6.703-21.078-6.688-7.64-18.407-7.64-11.765 0-18.437 7.64-6.656 7.656-6.656 21.078 0 13.469 6.656 21.078Q18.844 56 30.609 56"/><path id="BitstreamVeraSans-Roman-61" d="M34.281 27.484q-10.89 0-15.093-2.484-4.204-2.484-4.204-8.5 0-4.781 3.157-7.594 3.156-2.797 8.562-2.797 7.485 0 12 5.297 4.516 5.297 4.516 14.078v2zm17.922 3.719V0h-8.984v8.297Q40.141 3.328 35.547.953T24.312-1.422q-8.39 0-13.359 4.719Q6 8.016 6 15.922q0 9.219 6.172 13.906 6.187 4.688 18.437 4.688h12.61v.89q0 6.203-4.078 9.594t-11.453 3.39q-4.688 0-9.141-1.124-4.438-1.125-8.531-3.375v8.312q4.922 1.906 9.562 2.844 4.641.953 9.031.953 11.875 0 17.735-6.156 5.859-6.141 5.859-18.641"/><path id="BitstreamVeraSans-Roman-74" d="M18.312 70.219V54.688h18.5v-6.985h-18.5V18.016q0-6.688 1.829-8.594t7.453-1.906h9.218V0h-9.218q-10.406 0-14.36 3.875-3.953 3.89-3.953 14.141v29.687H2.687v6.985h6.594v15.531z"/><clipPath id="p875ac5675d"><path id="rect6866" d="M51.44 12.96h338.8v344.88H51.44z"/></clipPath></defs><g id="figure_1"><g id="patch_1"><path id="path6572" fill="none" d="M0 403.2h403.2V0H0z"/></g><g id="axes_1"><g id="patch_2"><path id="path6576" fill="none" d="M51.435 357.84h338.8V12.96h-338.8l-.005 344.88z"/></g><g id="line2d_1"><path id="path7422" fill="none" stroke="#b30000" stroke-linejoin="round" stroke-miterlimit="100000" stroke-width="2.5" d="m202.58 447.3 2.46-19.45 2.97-21.01 2.96-18.8 2.97-16.83 2.97-15.08 2.97-13.52 2.96-12.12 2.97-10.88 2.97-9.77 2.97-8.79 2.96-7.92 2.97-7.14 2.97-6.46 2.97-5.87 3.39-6.05 3.39-5.47 3.39-4.97 3.82-5.09 4.24-5.17 4.66-5.24 6.36-6.68 13.56-14.09 4.67-5.31 4.24-5.26 3.81-5.2 3.39-5.09 3.39-5.6 2.97-5.41 2.97-5.94 2.97-6.56 2.96-7.25 2.97-8.03 2.97-8.92 2.97-9.93 2.96-11.04 2.97-12.31 2.55-11.68 2.54-12.819 2.54-14.09 2.55-15.489 2.54-17.03 2.54-18.729 1.61-13.013" transform="scale(.8)"/></g><g id="line2d_2"><path id="path7415" fill="none" stroke="#00b300" stroke-dasharray="7.5 7.5" stroke-linejoin="round" stroke-miterlimit="100000" stroke-width="2.5" d="m202.79 16.2.55 4.635 2.97 22.175 2.97 19.799 2.97 17.675 2.96 15.771 2.97 14.065 2.97 12.54 2.97 11.17 2.96 9.94 2.97 8.83 2.97 7.84 2.97 6.95 2.96 6.13 2.97 5.41 2.54 4.11 2.55 3.66 2.54 3.24 2.54 2.86 2.55 2.5 2.54 2.17 2.55 1.85 2.54 1.55 2.54 1.27 2.55 1 2.54.74 2.54.48 2.55.22 2.54-.02 2.54-.27 2.55-.52 2.54-.78 2.54-1.04 2.55-1.32 2.54-1.6 2.55-1.9 2.54-2.22 2.54-2.56 2.55-2.92 2.54-3.31 2.54-3.73 2.55-4.19 2.54-4.68 2.54-5.21 2.55-5.8 2.54-6.43 2.55-7.14 2.54-7.9 2.54-8.73 2.55-9.65 2.54-10.66 2.54-11.76 2.55-12.976 2.54-14.31 2.54-15.774 2.55-17.387 2.54-19.158.56-4.635" transform="scale(.8)"/></g><g id="line2d_3"><path id="path6585" fill="none" stroke="#0000b3" stroke-dasharray="1 3" stroke-width="2" d="m51.435 206.95 106.16-.1 12.2-.24 7.46-.35 5.76-.48 4.41-.59 3.73-.7 3.39-.86 3.06-1 2.71-1.1 2.71-1.34 2.72-1.59 2.71-1.86 2.71-2.13 3.05-2.69 3.73-3.6 10.18-10.06 3.05-2.62 2.71-2.07 2.72-1.79 2.71-1.53 2.71-1.28 3.06-1.16 3.05-.92 3.39-.79 3.73-.65 4.41-.53 5.43-.43 7.12-.31 10.17-.21 17.98-.1 61.38-.02h28.49" clip-path="url(#p875ac5675d)"/></g><g id="patch_3"><path id="path6588" fill="none" stroke="#000" stroke-linecap="square" d="M51.435 357.84h338.8"/></g><g id="patch_4"><path id="path6591" fill="none" stroke="#000" stroke-linecap="square" d="M51.435 357.84V12.96"/></g><g id="patch_5"><path id="path6594" fill="none" stroke="#000" stroke-linecap="square" d="M390.24 357.84V12.96"/></g><g id="patch_6"><path id="path6597" fill="none" stroke="#000" stroke-linecap="square" d="M51.435 12.96h338.8"/></g><g id="matplotlib.axis_1"><g id="xtick_1"><g id="line2d_4"><path id="path6602" fill="none" stroke="#000" stroke-dasharray="1 3" stroke-width="0.5" d="M199.66 357.84V12.96" clip-path="url(#p875ac5675d)"/></g><g id="line2d_5"><g id="g6608"><use id="use6610" x="199.66" y="357.84" stroke="#000" stroke-width="0.5" href="#m6d0dc4c4e2"/></g></g><g id="line2d_6"><g id="g6616"><use id="use6618" x="199.66" y="12.96" stroke="#000" stroke-width="0.5" href="#m2997e254fe"/></g></g><g id="text_1"><g id="g6625" transform="matrix(.12 0 0 -.12 190.82 370.96)"><use id="use6627" href="#BitstreamVeraSans-Roman-2212"/><use id="use6629" x="83.79" href="#BitstreamVeraSans-Roman-31"/></g></g></g><g id="xtick_2"><g id="line2d_7"><path id="path6633" fill="none" stroke="#000" stroke-dasharray="1 3" stroke-width="0.5" d="M220.84 357.84V12.96" clip-path="url(#p875ac5675d)"/></g><g id="line2d_8"><g id="g6636"><use id="use6638" x="220.84" y="357.84" stroke="#000" stroke-width="0.5" href="#m6d0dc4c4e2"/></g></g><g id="line2d_9"><g id="g6641"><use id="use6643" x="220.84" y="12.96" stroke="#000" stroke-width="0.5" href="#m2997e254fe"/></g></g><g id="text_2"><g id="g6649" transform="matrix(.12 0 0 -.12 217.02 370.96)"><use id="use6651" href="#BitstreamVeraSans-Roman-30"/></g></g></g><g id="xtick_3"><g id="line2d_10"><path id="path6655" fill="none" stroke="#000" stroke-dasharray="1 3" stroke-width="0.5" d="M242.01 357.84V12.96" clip-path="url(#p875ac5675d)"/></g><g id="line2d_11"><g id="g6658"><use id="use6660" x="242.01" y="357.84" stroke="#000" stroke-width="0.5" href="#m6d0dc4c4e2"/></g></g><g id="line2d_12"><g id="g6663"><use id="use6665" x="242.01" y="12.96" stroke="#000" stroke-width="0.5" href="#m2997e254fe"/></g></g><g id="text_3"><g id="g6668" transform="matrix(.12 0 0 -.12 238.2 370.96)"><use id="use6670" href="#BitstreamVeraSans-Roman-31"/></g></g></g><g id="text_4"><g id="g6676" transform="matrix(.12 0 0 -.12 217.29 387.57)"><use id="use6678" href="#BitstreamVeraSans-Roman-78"/></g></g></g><g id="matplotlib.axis_2"><g id="ytick_1"><g id="line2d_13"><path id="path6683" fill="none" stroke="#000" stroke-dasharray="1 3" stroke-width="0.5" d="M51.435 206.96h338.8" clip-path="url(#p875ac5675d)"/></g><g id="line2d_14"><g id="g6689"><use id="use6691" x="51.44" y="206.96" stroke="#000" stroke-width="0.5" href="#md69bb88a81"/></g></g><g id="line2d_15"><g id="g6697"><use id="use6699" x="390.24" y="206.96" stroke="#000" stroke-width="0.5" href="#m1d1e712049"/></g></g><g id="text_5"><g id="g6702" transform="matrix(.12 0 0 -.12 29.744 210.27)"><use id="use6704" href="#BitstreamVeraSans-Roman-2212"/><use id="use6706" x="83.79" href="#BitstreamVeraSans-Roman-31"/></g></g></g><g id="ytick_2"><g id="line2d_16"><path id="path6710" fill="none" stroke="#000" stroke-dasharray="1 3" stroke-width="0.5" d="M51.435 185.4h338.8" clip-path="url(#p875ac5675d)"/></g><g id="line2d_17"><g id="g6713"><use id="use6715" x="51.44" y="185.4" stroke="#000" stroke-width="0.5" href="#md69bb88a81"/></g></g><g id="line2d_18"><g id="g6718"><use id="use6720" x="390.24" y="185.4" stroke="#000" stroke-width="0.5" href="#m1d1e712049"/></g></g><g id="text_6"><g id="g6723" transform="matrix(.12 0 0 -.12 39.8 188.71)"><use id="use6725" href="#BitstreamVeraSans-Roman-30"/></g></g></g><g id="ytick_3"><g id="line2d_19"><path id="path6729" fill="none" stroke="#000" stroke-dasharray="1 3" stroke-width="0.5" d="M51.435 163.84h338.8" clip-path="url(#p875ac5675d)"/></g><g id="line2d_20"><g id="g6732"><use id="use6734" x="51.44" y="163.84" stroke="#000" stroke-width="0.5" href="#md69bb88a81"/></g></g><g id="line2d_21"><g id="g6737"><use id="use6739" x="390.24" y="163.84" stroke="#000" stroke-width="0.5" href="#m1d1e712049"/></g></g><g id="text_7"><g id="g6742" transform="matrix(.12 0 0 -.12 39.8 167.16)"><use id="use6744" href="#BitstreamVeraSans-Roman-31"/></g></g></g><g id="text_8"><g id="g6750" transform="matrix(0 -.12 -.12 0 22.249 188.95)"><use id="use6752" href="#BitstreamVeraSans-Roman-79"/></g></g></g><g id="legend_1"><g id="patch_7"><path id="path6756" fill="#fff" stroke="#000" d="M248.34 350.64h134.7v-67.73h-134.7z"/></g><g id="line2d_22"><path id="path6759" fill="none" stroke="#b30000" stroke-linecap="square" stroke-width="2" d="M258.42 294.57h20.16"/></g><g id="text_9"><g id="g6773" transform="matrix(.144 0 0 -.144 294.42 299.61)"><use id="use6775" href="#BitstreamVeraSans-Roman-79"/><use id="use6777" x="59.18" href="#BitstreamVeraSans-Roman-20"/><use id="use6779" x="90.97" href="#BitstreamVeraSans-Roman-3d"/><use id="use6781" x="174.76" href="#BitstreamVeraSans-Roman-20"/><use id="use6783" x="206.54" href="#BitstreamVeraSans-Roman-73"/><use id="use6785" x="258.64" href="#BitstreamVeraSans-Roman-69"/><use id="use6787" x="286.43" href="#BitstreamVeraSans-Roman-6e"/><use id="use6789" x="349.81" href="#BitstreamVeraSans-Roman-68"/><use id="use6791" x="413.18" href="#BitstreamVeraSans-Roman-28"/><use id="use6793" x="452.2" href="#BitstreamVeraSans-Roman-78"/><use id="use6795" x="511.38" href="#BitstreamVeraSans-Roman-29"/></g></g><g id="line2d_24"><path id="path6798" fill="none" stroke="#00b300" stroke-dasharray="6 6" stroke-width="2" d="M258.42 315.71h20.16"/></g><g id="text_10"><g id="g6806" transform="matrix(.144 0 0 -.144 294.42 320.75)"><use id="use6808" href="#BitstreamVeraSans-Roman-79"/><use id="use6810" x="59.18" href="#BitstreamVeraSans-Roman-20"/><use id="use6812" x="90.97" href="#BitstreamVeraSans-Roman-3d"/><use id="use6814" x="174.76" href="#BitstreamVeraSans-Roman-20"/><use id="use6816" x="206.54" href="#BitstreamVeraSans-Roman-63"/><use id="use6818" x="261.52" href="#BitstreamVeraSans-Roman-6f"/><use id="use6820" x="322.7" href="#BitstreamVeraSans-Roman-73"/><use id="use6822" x="374.81" href="#BitstreamVeraSans-Roman-68"/><use id="use6824" x="438.18" href="#BitstreamVeraSans-Roman-28"/><use id="use6826" x="477.2" href="#BitstreamVeraSans-Roman-78"/><use id="use6828" x="536.38" href="#BitstreamVeraSans-Roman-29"/></g></g><g id="line2d_26"><path id="path6831" fill="none" stroke="#0000b3" stroke-dasharray="1 3" stroke-width="2" d="M258.42 336.85h20.16"/></g><g id="text_11"><g id="g6839" transform="matrix(.144 0 0 -.144 294.42 341.89)"><use id="use6841" href="#BitstreamVeraSans-Roman-79"/><use id="use6843" x="59.18" href="#BitstreamVeraSans-Roman-20"/><use id="use6845" x="90.97" href="#BitstreamVeraSans-Roman-3d"/><use id="use6847" x="174.76" href="#BitstreamVeraSans-Roman-20"/><use id="use6849" x="206.54" href="#BitstreamVeraSans-Roman-74"/><use id="use6851" x="245.75" href="#BitstreamVeraSans-Roman-61"/><use id="use6853" x="307.03" href="#BitstreamVeraSans-Roman-6e"/><use id="use6855" x="370.41" href="#BitstreamVeraSans-Roman-68"/><use id="use6857" x="433.79" href="#BitstreamVeraSans-Roman-28"/><use id="use6859" x="472.8" href="#BitstreamVeraSans-Roman-78"/><use id="use6861" x="531.98" href="#BitstreamVeraSans-Roman-29"/></g></g></g></g></g></svg>