<svg viewBox="0 0 403 403"><defs><path id="b" stroke="#000" stroke-width=".5" d="M0 0v-4"/><path id="c" stroke="#000" stroke-width=".5" d="M0 0v4"/><path id="e" d="M12.406 8.297h16.11v55.625l-17.532-3.516v8.985l17.438 3.515h9.859V8.296h16.11V0H12.406z"/><path id="d" d="M10.594 35.5h62.594v-8.297H10.594z"/><path id="f" d="M31.781 66.406q-7.609 0-11.453-7.5Q16.5 51.422 16.5 36.375q0-14.984 3.828-22.484 3.844-7.5 11.453-7.5 7.672 0 11.5 7.5 3.844 7.5 3.844 22.484 0 15.047-3.844 22.531-3.828 7.5-11.5 7.5m0 7.813q12.266 0 18.735-9.703 6.468-9.688 6.468-28.141 0-18.406-6.468-28.109-6.469-9.688-18.735-9.688-12.25 0-18.719 9.688-6.468 9.703-6.468 28.109 0 18.453 6.468 28.14 6.469 9.704 18.719 9.704"/><path id="g" d="M54.891 54.688l-19.782-26.61L55.906 0H45.312L29.391 21.484 13.484 0H2.875l21.25 28.609L4.687 54.688h10.594l14.5-19.485 14.5 19.485z"/><path id="h" stroke="#000" stroke-width=".5" d="M0 0h4"/><path id="i" stroke="#000" stroke-width=".5" d="M0 0h-4"/><path id="j" d="M32.172-5.078q-3.797-9.766-7.422-12.734-3.609-2.985-9.656-2.985H7.906v7.516h5.282q3.703 0 5.75 1.765Q21-9.766 23.484-3.22l1.61 4.094-22.11 53.813H12.5l17.094-42.766 17.094 42.766h9.515z"/><path id="k" d="M10.594 45.406h62.594v-8.203H10.594zm0-19.922h62.594v-8.296H10.594z"/><path id="p" d="M31 75.875q-6.531-11.219-9.719-22.219-3.172-10.984-3.172-22.265 0-11.266 3.203-22.328Q24.516-2 31-13.188h-7.812Q15.875-1.703 12.234 9.375q-3.64 11.078-3.64 22.016 0 10.89 3.609 21.921 3.625 11.047 10.985 22.563z"/><path id="m" d="M9.422 54.688h8.984V0H9.422zm0 21.296h8.984v-11.39H9.422z"/><path id="n" d="M54.891 33.016V0h-8.985v32.719q0 7.765-3.031 11.609-3.031 3.86-9.078 3.86-7.281 0-11.485-4.641-4.203-4.625-4.203-12.641V0h-9.03v54.688h9.03v-8.5q3.235 4.937 7.594 7.374Q30.078 56 35.797 56q9.422 0 14.25-5.828 4.844-5.828 4.844-17.156"/><path id="q" d="M8.016 75.875h7.812q7.313-11.516 10.953-22.563 3.641-11.031 3.641-21.921 0-10.938-3.641-22.016T15.828-13.188H8.016Q14.5-2 17.703 9.062q3.203 11.063 3.203 22.329 0 11.281-3.203 22.265-3.203 11-9.687 22.219"/><path id="l" d="M44.281 53.078v-8.5q-3.797 1.953-7.906 2.922-4.094.984-8.5.984-6.687 0-10.031-2.046-3.344-2.047-3.344-6.157 0-3.125 2.391-4.906t9.625-3.391l3.078-.687q9.562-2.047 13.594-5.781 4.031-3.735 4.031-10.422 0-7.625-6.031-12.078-6.032-4.438-16.579-4.438-4.39 0-9.156.86Q10.688.297 5.422 2v9.281q4.984-2.593 9.812-3.89 4.828-1.282 9.578-1.282 6.344 0 9.75 2.172 3.422 2.172 3.422 6.125 0 3.656-2.468 5.61-2.454 1.953-10.813 3.765l-3.125.735q-8.344 1.75-12.062 5.39-3.704 3.641-3.704 9.985 0 7.718 5.469 11.906Q16.75 56 26.812 56q4.969 0 9.36-.734 4.406-.719 8.109-2.188"/><path id="o" d="M54.891 33.016V0h-8.985v32.719q0 7.765-3.031 11.609-3.031 3.86-9.078 3.86-7.281 0-11.485-4.641-4.203-4.625-4.203-12.641V0h-9.03v75.984h9.03V46.188q3.235 4.937 7.594 7.374Q30.078 56 35.797 56q9.422 0 14.25-5.828 4.844-5.828 4.844-17.156"/><path id="r" d="M48.781 52.594v-8.406q-3.812 2.109-7.64 3.156-3.829 1.047-7.735 1.047-8.75 0-13.594-5.547-4.828-5.532-4.828-15.547t4.828-15.563q4.844-5.53 13.594-5.53 3.906 0 7.735 1.046 3.828 1.047 7.64 3.156V2.094Q45.016.344 40.984-.531q-4.015-.89-8.562-.89-12.36 0-19.641 7.765-7.265 7.765-7.265 20.953 0 13.375 7.343 21.03Q20.219 56 33.016 56q4.14 0 8.093-.86 3.953-.843 7.672-2.546"/><path id="s" d="M30.609 48.391q-7.218 0-11.421-5.641-4.204-5.641-4.204-15.453 0-9.813 4.172-15.453 4.188-5.64 11.453-5.64 7.188 0 11.375 5.655 4.204 5.672 4.204 15.438 0 9.719-4.204 15.406-4.187 5.688-11.375 5.688m0 7.609q11.719 0 18.407-7.625 6.703-7.609 6.703-21.078 0-13.422-6.703-21.078-6.688-7.64-18.407-7.64-11.765 0-18.437 7.64-6.656 7.656-6.656 21.078 0 13.469 6.656 21.078Q18.844 56 30.609 56"/><path id="u" d="M34.281 27.484q-10.89 0-15.093-2.484-4.204-2.484-4.204-8.5 0-4.781 3.157-7.594 3.156-2.797 8.562-2.797 7.485 0 12 5.297 4.516 5.297 4.516 14.078v2zm17.922 3.719V0h-8.984v8.297Q40.141 3.328 35.547.953T24.312-1.422q-8.39 0-13.359 4.719Q6 8.016 6 15.922q0 9.219 6.172 13.906 6.187 4.688 18.437 4.688h12.61v.89q0 6.203-4.078 9.594t-11.453 3.39q-4.688 0-9.141-1.124-4.438-1.125-8.531-3.375v8.312q4.922 1.906 9.562 2.844 4.641.953 9.031.953 11.875 0 17.735-6.156 5.859-6.141 5.859-18.641"/><path id="t" d="M18.312 70.219V54.688h18.5v-6.985h-18.5V18.016q0-6.688 1.829-8.594t7.453-1.906h9.218V0h-9.218q-10.406 0-14.36 3.875-3.953 3.89-3.953 14.141v29.687H2.687v6.985h6.594v15.531z"/><clipPath id="a"><path d="M51.44 12.96h338.8v344.88H51.44z"/></clipPath></defs><path fill="none" d="M0 403.2h403.2V0H0z"/><path fill="none" d="M51.435 357.84h338.8V12.96h-338.8l-.005 344.88z"/><path fill="none" stroke="#b30000" stroke-linejoin="round" stroke-miterlimit="100000" stroke-width="2" d="M162.064 357.84l1.968-15.56 2.376-16.808 2.368-15.04 2.376-13.464 2.376-12.064 2.376-10.816 2.368-9.696 2.376-8.704 2.376-7.816 2.376-7.032 2.368-6.336 2.376-5.712 2.376-5.168 2.376-4.696 2.712-4.84 2.712-4.376 2.712-3.976 3.056-4.072 3.392-4.136 3.728-4.192 5.088-5.344 10.848-11.272 3.736-4.248 3.392-4.208 3.048-4.16 2.712-4.072 2.712-4.48 2.376-4.328 2.376-4.752 2.376-5.248 2.368-5.8 2.376-6.424 2.376-7.136 2.376-7.944 2.368-8.832 2.376-9.848 2.04-9.344 2.032-10.255 2.032-11.272 2.04-12.391 2.032-13.624 2.032-14.984 1.288-10.41"/><path fill="none" stroke="#00b300" stroke-dasharray="7.5 7.5" stroke-linejoin="round" stroke-miterlimit="100000" stroke-width="2" d="M162.232 12.96l.44 3.708 2.376 17.74 2.376 15.84 2.376 14.14 2.368 12.616 2.376 11.252 2.376 10.032 2.376 8.936 2.368 7.952 2.376 7.064 2.376 6.272 2.376 5.56 2.368 4.904 2.376 4.328 2.032 3.288 2.04 2.928 2.032 2.592 2.032 2.288 2.04 2 2.032 1.736 2.04 1.48 2.032 1.24 2.032 1.016 2.04.8 2.032.592 2.032.384 2.04.176 2.032-.016 2.032-.216 2.04-.416 2.032-.624 2.032-.832 2.04-1.056 2.032-1.28 2.04-1.52 2.032-1.776 2.032-2.048 2.04-2.336 2.032-2.648 2.032-2.984 2.04-3.352 2.032-3.744 2.032-4.168 2.04-4.64 2.032-5.144 2.04-5.712 2.032-6.32 2.032-6.984 2.04-7.72 2.032-8.528 2.032-9.408 2.04-10.38 2.032-11.449 2.032-12.619 2.04-13.91L279 16.668l.448-3.708"/><path fill="none" stroke="#0000b3" stroke-dasharray="1 3" stroke-width="2" d="M51.435 206.95l106.16-.1 12.2-.24 7.46-.35 5.76-.48 4.41-.59 3.73-.7 3.39-.86 3.06-1 2.71-1.1 2.71-1.34 2.72-1.59 2.71-1.86 2.71-2.13 3.05-2.69 3.73-3.6 10.18-10.06 3.05-2.62 2.71-2.07 2.72-1.79 2.71-1.53 2.71-1.28 3.06-1.16 3.05-.92 3.39-.79 3.73-.65 4.41-.53 5.43-.43 7.12-.31 10.17-.21 17.98-.1 61.38-.02h28.49" clip-path="url(#a)"/><path fill="none" stroke="#000" stroke-linecap="square" d="M51.435 357.84h338.8m-338.8 0V12.96M390.24 357.84V12.96m-338.805 0h338.8"/><path fill="none" stroke="#000" stroke-dasharray="1 3" stroke-width=".5" d="M199.66 357.84V12.96" clip-path="url(#a)"/><use x="199.66" y="357.84" stroke="#000" stroke-width=".5" href="#b"/><use x="199.66" y="12.96" stroke="#000" stroke-width=".5" href="#c"/><g transform="matrix(.12 0 0 -.12 190.82 370.96)"><use href="#d"/><use x="83.79" href="#e"/></g><path fill="none" stroke="#000" stroke-dasharray="1 3" stroke-width=".5" d="M220.84 357.84V12.96" clip-path="url(#a)"/><use x="220.84" y="357.84" stroke="#000" stroke-width=".5" href="#b"/><use x="220.84" y="12.96" stroke="#000" stroke-width=".5" href="#c"/><use href="#f" transform="matrix(.12 0 0 -.12 217.02 370.96)"/><path fill="none" stroke="#000" stroke-dasharray="1 3" stroke-width=".5" d="M242.01 357.84V12.96" clip-path="url(#a)"/><use x="242.01" y="357.84" stroke="#000" stroke-width=".5" href="#b"/><use x="242.01" y="12.96" stroke="#000" stroke-width=".5" href="#c"/><use href="#e" transform="matrix(.12 0 0 -.12 238.2 370.96)"/><use href="#g" transform="matrix(.12 0 0 -.12 217.29 387.57)"/><path fill="none" stroke="#000" stroke-dasharray="1 3" stroke-width=".5" d="M51.435 206.96h338.8" clip-path="url(#a)"/><use x="51.44" y="206.96" stroke="#000" stroke-width=".5" href="#h"/><use x="390.24" y="206.96" stroke="#000" stroke-width=".5" href="#i"/><g transform="matrix(.12 0 0 -.12 29.744 210.27)"><use href="#d"/><use x="83.79" href="#e"/></g><path fill="none" stroke="#000" stroke-dasharray="1 3" stroke-width=".5" d="M51.435 185.4h338.8" clip-path="url(#a)"/><use x="51.44" y="185.4" stroke="#000" stroke-width=".5" href="#h"/><use x="390.24" y="185.4" stroke="#000" stroke-width=".5" href="#i"/><use href="#f" transform="matrix(.12 0 0 -.12 39.8 188.71)"/><path fill="none" stroke="#000" stroke-dasharray="1 3" stroke-width=".5" d="M51.435 163.84h338.8" clip-path="url(#a)"/><use x="51.44" y="163.84" stroke="#000" stroke-width=".5" href="#h"/><use x="390.24" y="163.84" stroke="#000" stroke-width=".5" href="#i"/><use href="#e" transform="matrix(.12 0 0 -.12 39.8 167.16)"/><use href="#j" transform="matrix(0 -.12 -.12 0 22.249 188.95)"/><path fill="#fff" stroke="#000" d="M248.34 350.64h134.7v-67.73h-134.7z"/><path fill="none" stroke="#b30000" stroke-linecap="square" stroke-width="2" d="M258.42 294.57h20.16"/><g transform="matrix(.144 0 0 -.144 294.42 299.61)"><use href="#j"/><use x="59.18" href="#BitstreamVeraSans-Roman-20"/><use x="90.97" href="#k"/><use x="174.76" href="#BitstreamVeraSans-Roman-20"/><use x="206.54" href="#l"/><use x="258.64" href="#m"/><use x="286.43" href="#n"/><use x="349.81" href="#o"/><use x="413.18" href="#p"/><use x="452.2" href="#g"/><use x="511.38" href="#q"/></g><path fill="none" stroke="#00b300" stroke-dasharray="6 6" stroke-width="2" d="M258.42 315.71h20.16"/><g transform="matrix(.144 0 0 -.144 294.42 320.75)"><use href="#j"/><use x="59.18" href="#BitstreamVeraSans-Roman-20"/><use x="90.97" href="#k"/><use x="174.76" href="#BitstreamVeraSans-Roman-20"/><use x="206.54" href="#r"/><use x="261.52" href="#s"/><use x="322.7" href="#l"/><use x="374.81" href="#o"/><use x="438.18" href="#p"/><use x="477.2" href="#g"/><use x="536.38" href="#q"/></g><path fill="none" stroke="#0000b3" stroke-dasharray="1 3" stroke-width="2" d="M258.42 336.85h20.16"/><g transform="matrix(.144 0 0 -.144 294.42 341.89)"><use href="#j"/><use x="59.18" href="#BitstreamVeraSans-Roman-20"/><use x="90.97" href="#k"/><use x="174.76" href="#BitstreamVeraSans-Roman-20"/><use x="206.54" href="#t"/><use x="245.75" href="#u"/><use x="307.03" href="#n"/><use x="370.41" href="#o"/><use x="433.79" href="#p"/><use x="472.8" href="#g"/><use x="531.98" href="#q"/></g></svg>