<svg xmlns="http://www.w3.org/2000/svg" xml:space="preserve" overflow="visible" viewBox="0 0 297.86 148.4"><path fill="#231f20" d="m77.586 41.873 2.167.546q-.678 2.664-2.44 4.063-1.764 1.399-4.31 1.4-2.637 0-4.288-1.076T66.2 43.692q-.862-2.04-.861-4.379 0-2.55.972-4.452.974-1.9 2.77-2.886 1.795-.985 3.952-.986 2.446 0 4.113 1.249 1.669 1.248 2.324 3.512l-2.123.5q-.567-1.781-1.644-2.593-1.08-.812-2.712-.812-1.879 0-3.14.901-1.263.901-1.774 2.422a9.8 9.8 0 0 0-.51 3.134q-.001 2.082.604 3.634.606 1.554 1.883 2.321a5.27 5.27 0 0 0 2.767.769q1.81 0 3.065-1.047t1.699-3.106m4.176-2.221q0-4.064 2.183-6.363 2.184-2.3 5.637-2.3 2.26 0 4.076 1.08a7.07 7.07 0 0 1 2.768 3.013q.953 1.933.952 4.381 0 2.484-1.002 4.443-1.002 1.961-2.84 2.968a8.1 8.1 0 0 1-3.966 1.008q-2.305 0-4.12-1.113a7.17 7.17 0 0 1-2.752-3.04 9.2 9.2 0 0 1-.936-4.077m2.226.029q0 2.95 1.588 4.648 1.588 1.699 3.982 1.698 2.439 0 4.017-1.715 1.576-1.714 1.576-4.865 0-1.992-.674-3.479-.675-1.486-1.972-2.305-1.299-.817-2.913-.817-2.295 0-3.949 1.575-1.655 1.575-1.655 5.26m15.509-.029q0-4.064 2.183-6.363t5.636-2.3q2.261 0 4.077 1.08a7.07 7.07 0 0 1 2.768 3.013q.953 1.933.952 4.381 0 2.484-1.002 4.443-1.002 1.961-2.84 2.968a8.1 8.1 0 0 1-3.966 1.008q-2.305 0-4.121-1.113a7.17 7.17 0 0 1-2.751-3.04 9.2 9.2 0 0 1-.936-4.077m2.226.029q0 2.95 1.587 4.648 1.588 1.699 3.983 1.698 2.439 0 4.016-1.715 1.575-1.714 1.576-4.865 0-1.992-.673-3.479-.675-1.486-1.973-2.305-1.298-.817-2.912-.817-2.294 0-3.95 1.575-1.653 1.575-1.654 5.26m16.25 7.919V31.271h2.167v6.71h8.447v-6.71h2.167V47.6h-2.167v-7.69h-8.447v7.69zM77.586 79.59l2.167.545q-.678 2.664-2.44 4.063-1.764 1.399-4.31 1.4-2.637 0-4.288-1.076T66.2 81.408q-.862-2.04-.861-4.379 0-2.55.972-4.452.974-1.9 2.77-2.886 1.795-.985 3.952-.986 2.446 0 4.113 1.249 1.669 1.248 2.324 3.512l-2.123.5q-.567-1.781-1.644-2.593-1.08-.812-2.712-.812-1.879 0-3.14.901-1.263.901-1.774 2.422a9.8 9.8 0 0 0-.51 3.134q-.001 2.082.604 3.634.606 1.554 1.883 2.321a5.27 5.27 0 0 0 2.767.769q1.81 0 3.065-1.047t1.699-3.106M71.56 49.975h1.615v16.53H71.56zm30.91 45.078v-16.33h2.167v6.71h8.447v-6.71h2.167v16.33h-2.167v-7.69h-8.447v7.69zm-2.6-15.105-1.9 6.982-1.472-.665 1.71-6.508zm-5.272-.523-1.425 5.368-1.473-.713 1.283-4.845zm-5.225-.522-.998 3.704-1.52-.665.903-3.23zM84.1 78.38l-.522 2.043-1.52-.666.427-1.567zM7.447 104.125V87.796h2.166v6.71h8.447v-6.71h2.167v16.329H18.06v-7.69H9.613v7.69zm14.688 1.038 1.5-.208q.26 1.278.881 1.841.622.564 1.527.564 1.072 0 1.804-.734.73-.734.73-1.82 0-1.034-.68-1.706t-1.728-.672q-.429 0-1.066.168l.168-1.322q.151.017.244.017.96 0 1.73-.5t.769-1.541q0-.825-.561-1.367-.561-.54-1.45-.541-.879 0-1.465.553-.586.552-.753 1.659l-1.5-.267q.276-1.515 1.255-2.345.977-.832 2.432-.832 1.005-.001 1.848.43.844.428 1.292 1.17a3 3 0 0 1 .448 1.575q0 .792-.426 1.442t-1.26 1.033q1.084.252 1.69 1.04.604.79.605 1.975 0 1.604-1.172 2.718-1.171 1.115-2.96 1.115-1.615 0-2.682-.959-1.07-.959-1.22-2.486m21.449-6.765 2.167.546q-.68 2.664-2.441 4.063-1.764 1.399-4.31 1.4-2.636 0-4.288-1.076-1.65-1.075-2.513-3.114-.862-2.04-.862-4.379 0-2.55.973-4.452.973-1.9 2.77-2.886 1.794-.985 3.951-.986 2.446 0 4.114 1.249 1.668 1.248 2.323 3.512l-2.122.5q-.567-1.781-1.644-2.593-1.08-.812-2.713-.812-1.878 0-3.14.901-1.261.902-1.773 2.422a9.8 9.8 0 0 0-.511 3.134q0 2.082.605 3.634.605 1.554 1.883 2.321a5.27 5.27 0 0 0 2.766.769q1.811 0 3.066-1.047t1.699-3.106m5.176-7.525-.807-1.378L63.2 80.707l.808 1.378zm25.56 22.879q0-4.064 2.184-6.363 2.183-2.3 5.636-2.3 2.261 0 4.077 1.08a7.07 7.07 0 0 1 2.768 3.013q.953 1.933.952 4.381 0 2.484-1.002 4.443-1.002 1.961-2.84 2.968a8.1 8.1 0 0 1-3.966 1.008q-2.305 0-4.121-1.113a7.17 7.17 0 0 1-2.751-3.04 9.2 9.2 0 0 1-.936-4.077m2.227.029q0 2.95 1.587 4.648 1.588 1.699 3.983 1.698 2.439 0 4.016-1.715 1.576-1.714 1.576-4.865 0-1.992-.673-3.479-.675-1.486-1.973-2.305-1.298-.817-2.912-.817-2.294 0-3.95 1.575-1.653 1.575-1.654 5.26m16.249 7.919v-16.329h2.167v6.71h8.447v-6.71h2.167V121.7h-2.167v-7.69h-8.447v7.69zm-9.694-19.475-7.03 1.9L74.6 87.643l1.568-.428z"/><path fill="none" stroke="#231f20" stroke-dasharray="4.25" stroke-width="1.35" d="M148.178 144.69V3.71"/><path fill="#231f20" d="M167.118 47.6V31.271h2.167v6.71h8.446v-6.71h2.167V47.6h-2.167v-7.69h-8.446v7.69zm15.723-7.948q0-4.064 2.183-6.363 2.184-2.3 5.637-2.3 2.262 0 4.076 1.08a7.07 7.07 0 0 1 2.768 3.013c.635 1.287.952 2.75.952 4.381q0 2.484-1.002 4.443-1.004 1.961-2.84 2.968a8.1 8.1 0 0 1-3.966 1.008q-2.305 0-4.12-1.113a7.17 7.17 0 0 1-2.752-3.04 9.2 9.2 0 0 1-.936-4.077m2.227.029q0 2.95 1.587 4.648 1.589 1.699 3.983 1.698 2.44 0 4.016-1.715 1.578-1.714 1.577-4.865 0-1.992-.674-3.479-.675-1.486-1.972-2.305-1.298-.817-2.913-.817-2.294 0-3.95 1.575-1.653 1.575-1.654 5.26m15.508-.029q0-4.064 2.183-6.363t5.636-2.3q2.262 0 4.077 1.08a7.07 7.07 0 0 1 2.768 3.013c.635 1.287.952 2.75.952 4.381q0 2.484-1.002 4.443-1.004 1.961-2.84 2.968a8.1 8.1 0 0 1-3.966 1.008q-2.305 0-4.121-1.113a7.17 7.17 0 0 1-2.751-3.04 9.2 9.2 0 0 1-.936-4.077m2.227.029q0 2.95 1.587 4.648 1.587 1.699 3.982 1.698 2.44 0 4.017-1.715 1.577-1.714 1.576-4.865 0-1.992-.673-3.479-.675-1.486-1.973-2.305-1.297-.817-2.912-.817-2.295 0-3.95 1.575-1.653 1.575-1.654 5.26m27.797 2.192 2.168.546q-.68 2.664-2.441 4.063-1.763 1.399-4.31 1.4-2.635 0-4.288-1.076-1.65-1.076-2.513-3.114-.862-2.04-.862-4.379 0-2.55.972-4.452.973-1.9 2.77-2.886 1.794-.985 3.951-.986 2.446 0 4.114 1.249 1.667 1.248 2.323 3.512l-2.122.5q-.567-1.781-1.644-2.593-1.079-.812-2.713-.812-1.878 0-3.14.901t-1.773 2.422a9.8 9.8 0 0 0-.511 3.134q0 2.082.605 3.634.607 1.554 1.883 2.321a5.27 5.27 0 0 0 2.766.769q1.811 0 3.066-1.047t1.7-3.106m-.017 37.717 2.167.545q-.68 2.664-2.441 4.063-1.762 1.399-4.31 1.4-2.636 0-4.287-1.076-1.652-1.076-2.513-3.114-.861-2.04-.861-4.379 0-2.55.972-4.452.972-1.9 2.768-2.886 1.795-.985 3.952-.986 2.446 0 4.114 1.249 1.668 1.248 2.324 3.512l-2.122.5q-.567-1.781-1.645-2.593t-2.713-.812q-1.878 0-3.14.901-1.261.901-1.773 2.422a9.8 9.8 0 0 0-.51 3.134q0 2.082.605 3.634.606 1.554 1.883 2.321a5.27 5.27 0 0 0 2.765.769q1.812 0 3.067-1.047 1.254-1.047 1.698-3.106m-6.026-29.614h1.614v16.53h-1.614zm-41.955 45.078v-16.33h2.167v6.71h8.446v-6.71h2.167v16.33h-2.167v-7.69h-8.446v7.69zm17.255-8.123-1.853-7.03 1.615-.19 1.758 6.555zm4.987-2.232-1.425-5.368 1.614-.142 1.331 4.844zm4.988-2.233-.999-3.705 1.616-.142.855 3.182zm4.987-2.185-.57-2.09 1.615-.142.428 1.567zm48.35 18.118 2.166.546q-.678 2.664-2.44 4.063t-4.31 1.4q-2.637 0-4.288-1.076-1.651-1.075-2.513-3.114-.862-2.04-.862-4.379 0-2.55.973-4.452.971-1.9 2.768-2.886 1.795-.985 3.952-.986 2.446 0 4.114 1.249 1.668 1.248 2.323 3.512l-2.122.5q-.567-1.781-1.644-2.593-1.08-.812-2.713-.812-1.878 0-3.14.901-1.262.902-1.773 2.422a9.8 9.8 0 0 0-.511 3.134q0 2.082.606 3.634.604 1.554 1.882 2.321a5.27 5.27 0 0 0 2.765.769q1.812 0 3.067-1.047t1.7-3.106m4.916 5.727V87.796h2.167v6.71h8.446v-6.71h2.167v16.329h-2.167v-7.69h-8.446v7.69zm14.297 1.038 1.5-.208q.26 1.278.88 1.841.625.564 1.528.564 1.074 0 1.804-.734t.73-1.82q0-1.034-.68-1.706-.679-.672-1.728-.672-.428 0-1.065.168l.167-1.322q.15.017.243.017.962 0 1.731-.5.768-.5.769-1.541 0-.825-.56-1.367-.563-.54-1.45-.541-.88 0-1.466.553-.586.552-.755 1.659l-1.499-.267q.278-1.515 1.254-2.345.979-.832 2.433-.832 1.006-.001 1.848.43.844.428 1.291 1.17.447.741.448 1.575 0 .792-.425 1.442-.426.65-1.262 1.033 1.087.252 1.69 1.04.605.79.605 1.975 0 1.604-1.17 2.718-1.17 1.115-2.961 1.115-1.614 0-2.681-.959-1.068-.959-1.219-2.486m-32.08-15.383-.808 1.377-15.152-8.692.807-1.425zm-58.104 31.92v-16.329h2.167v6.71h8.446v-6.71h2.167V121.7h-2.167v-7.69h-8.446v7.69zm15.722-7.948q0-4.064 2.182-6.363 2.184-2.3 5.638-2.3 2.26 0 4.076 1.08a7.07 7.07 0 0 1 2.767 3.013q.954 1.933.953 4.381 0 2.484-1.003 4.443-1.003 1.961-2.84 2.968a8.1 8.1 0 0 1-3.965 1.008q-2.306 0-4.12-1.113a7.16 7.16 0 0 1-2.752-3.04 9.2 9.2 0 0 1-.936-4.077m2.227.029q0 2.95 1.587 4.648 1.588 1.698 3.983 1.698 2.439 0 4.016-1.715 1.576-1.714 1.577-4.865 0-1.992-.675-3.479-.675-1.486-1.971-2.305-1.3-.817-2.913-.817-2.295 0-3.95 1.575-1.654 1.575-1.654 5.26m11.56-9.656-7.03-1.9 6.981-15.152 1.569.427z"/></svg>