<svg xmlns="http://www.w3.org/2000/svg" xmlns:xlink="http://www.w3.org/1999/xlink" width="68.16" height="80.36" version="1.1" viewBox="104.06 118.05 61.16 87.36"><text x="140.265" y="154.89" lengthAdjust="spacingAndGlyphs" textLength="8.67" xml:space="preserve"><tspan fill="#000" baseline-shift="0" font-family="Times New Roman" font-size="13" font-weight="normal">C</tspan></text><polygon points="145.19 156.227 145.19 169.781 144.6 169.781 144.01 169.781 144.01 156.227 144.6 156.227" style="fill:#000;fill-opacity:1"/><text x="140.265" y="179.657" lengthAdjust="spacingAndGlyphs" textLength="21.957" xml:space="preserve"><tspan fill="#000" baseline-shift="0" font-family="Times New Roman" font-size="13" font-weight="normal">C</tspan><tspan fill="#000" baseline-shift="0" font-family="Times New Roman" font-size="13" font-weight="normal">H</tspan><tspan fill="#000" baseline-shift="-2" font-family="Times New Roman" font-size="8" font-weight="normal">2</tspan></text><polygon points="139.086 150.365 124.016 150.365 124.016 149.776 124.016 149.186 139.086 149.186 139.086 149.776" style="fill:#000;fill-opacity:1"/><text x="104.063" y="154.89" lengthAdjust="spacingAndGlyphs" textLength="18.773" xml:space="preserve"><tspan fill="#000" baseline-shift="0" font-family="Times New Roman" font-size="13" font-weight="normal">H</tspan><tspan fill="#000" baseline-shift="0" font-family="Times New Roman" font-size="13" font-weight="normal">N</tspan></text><polygon points="142.421 143.325 142.415 129.771 143.005 129.771 143.594 129.771 143.6 143.324 143.01 143.325" style="fill:#000;fill-opacity:1"/><polygon points="145.595 143.324 145.59 129.77 146.18 129.77 146.769 129.769 146.775 143.323 146.185 143.323" style="fill:#000;fill-opacity:1"/><text x="139.896" y="128.433" lengthAdjust="spacingAndGlyphs" textLength="9.387" xml:space="preserve"><tspan fill="#000" baseline-shift="0" font-family="Times New Roman" font-size="13" font-weight="normal">O</tspan></text><polygon points="118.733 156.227 118.733 169.781 118.143 169.781 117.554 169.781 117.554 156.227 118.143 156.227" style="fill:#000;fill-opacity:1"/><text x="113.808" y="181.346" lengthAdjust="spacingAndGlyphs" textLength="8.67" xml:space="preserve"><tspan fill="#000" baseline-shift="0" font-family="Times New Roman" font-size="13" font-weight="normal">C</tspan></text><text x="113.808" y="191.359" lengthAdjust="spacingAndGlyphs" textLength="13.287" xml:space="preserve"><tspan fill="#000" baseline-shift="0" font-family="Times New Roman" font-size="13" font-weight="normal">H</tspan><tspan fill="#000" baseline-shift="-2" font-family="Times New Roman" font-size="8" font-weight="normal">2</tspan></text><polygon points="139.086 176.822 123.658 176.822 123.658 176.232 123.658 175.643 139.086 175.643 139.086 176.232" style="fill:#000;fill-opacity:1"/></svg>