<svg xmlns="http://www.w3.org/2000/svg" xml:space="preserve" viewBox="0 0 462.5 418.99"><path d="M17 306 0 318.99l76.5-132.5 4 1.01 2 5z" transform="translate(50 50)"/><path d="m143 270 4 3v4L0 318.99 17 306zm141.5 37.5 4 9.5L147 277v-4l4-3z" transform="translate(50 50)"/><path d="m350 194.5 8.5-7 4 1.49-74 128.01-4-9.5z" transform="translate(50 50)"/><path d="M220 231.49V223l134.5-38.5 4 3-8.5 7zM82.5 192.5l-2-5 4-3L131 198v8zM220 223v8.49l-57-15.99V207z" transform="translate(50 50)"/><path d="m76.5 40.5 8 6v138l-4 3-4-1.01zM143 128l8 2v140l-4 3-4-3zm211.5-81.5 8-6v148.49l-4-1.49-4-3z" transform="translate(50 50)"/><path d="M219 0v4l-8.5 6.5-126 36-8-6zm143.5 40.5-8 6L221 9l-2-5V0z" transform="translate(50 50)"/><path d="M210.5 10.5 219 4l2 5-70 121-8-2z" transform="translate(50 50)"/></svg>