<svg viewBox="0 0 462.5 418.99"><path d="M67 356l-17 12.99 76.5-132.5 4 1.01 2 5z"/><path d="M193 320l4 3v4L50 368.99 67 356zm141.5 37.5l4 9.5L197 327v-4l4-3z"/><path d="M400 244.5l8.5-7 4 1.49-74 128.01-4-9.5z"/><path d="M270 281.49V273l134.5-38.5 4 3-8.5 7zM132.5 242.5l-2-5 4-3L181 248v8zM270 273v8.49l-57-15.99V257z"/><path d="M126.5 90.5l8 6v138l-4 3-4-1.01zM193 178l8 2v140l-4 3-4-3zm211.5-81.5l8-6v148.49l-4-1.49-4-3z"/><path d="M269 50v4l-8.5 6.5-126 36-8-6zm143.5 40.5l-8 6L271 59l-2-5v-4z"/><path d="M260.5 60.5L269 54l2 5-70 121-8-2z"/></svg>