<svg xmlns="http://www.w3.org/2000/svg" viewBox="0 0 620 369.37"><path d="M228.806 345.753v-13.618h3.756v11.27h14.088v-11.27h3.757v27.236h-3.757v-12.679h-14.088v12.68h-3.756zm20.347-17.752-1.02-.796 5.246-9.035c2.885-4.968 5.351-9.03 5.48-9.024.13.005.64.315 1.133.69.86.65.682 1.058-4.16 9.494-2.782 4.847-5.194 8.961-5.36 9.14-.165.18-.759-.03-1.32-.469m-153.476-1.688c-4.958-1.568-7.72-4.369-9.239-9.37-2.599-8.556 1.381-17.624 8.689-19.794 6.525-1.938 14.164.326 16.48 4.885 1.357 2.668 1.347 3.233-.062 3.502l-2.776.535c-1.298.252-1.572.104-2.4-1.298-2.311-3.918-9.653-4.167-12.967-.44-2.857 3.212-2.875 10.73-.035 14.495 2.317 3.07 7.61 3.775 11.905 1.584 1.75-.893 1.91-1.13 1.91-2.843v-1.87h-7.044v-5.165h12.68v12l-1.996 1.295c-4.26 2.765-10.842 3.845-15.145 2.484m449.33-16.212c-2.065-1.26-2.21-1.7-.855-2.587 1.066-.7 1.255-.704 1.908-.052.888.889 1.625.915 2.74.1.86-.629.865-1.738.024-5.049-.485-1.907.8-4.37 2.766-5.303 2.258-1.072 4.592-.44 6.644 1.8 1.687 1.842 2.584 2.051 3.759.877.605-.605.703-1.174.425-2.465-.587-2.73-.468-5.493.275-6.389.382-.46 1.399-1.131 2.26-1.491 2.052-.858 4.062-.214 6.19 1.983 1.81 1.866 2.772 2.034 3.985.694.738-.815.779-1.182.307-2.755-.845-2.82-.667-4.537.63-6.079 2.194-2.608 5.46-2.344 8.195.662 2.777 3.052 5.24 1.147 3.906-3.022-.623-1.948-.623-2.387-.002-3.872 1.24-2.97 4.744-3.877 7.742-2.006 1.308.816 1.346 1.64.112 2.41-.776.485-1.141.461-2.047-.132-2.013-1.32-4.002.483-3.113 2.82.884 2.325.58 5.333-.664 6.577-2.352 2.352-5.033 2.105-7.925-.73-2.06-2.02-2.536-2.173-3.83-1.227-.665.486-.791.99-.561 2.23.88 4.74.876 4.855-.254 6.519-1.219 1.795-3.349 2.664-5.32 2.17-.683-.172-2.062-1.15-3.065-2.173s-2.134-1.86-2.513-1.86c-1.244 0-2.27 1.459-1.951 2.774.162.67.416 2.19.563 3.38.24 1.937.12 2.332-1.155 3.758-1.214 1.359-1.73 1.593-3.512 1.593-1.806 0-2.384-.272-4.255-1.996-1.19-1.098-2.381-1.996-2.645-1.996-.948 0-2.438 1.934-2.108 2.737.667 1.62.79 4.81.236 6.145-.577 1.393-2.913 2.86-4.549 2.856-.477 0-1.532-.406-2.343-.9m-105.219-4.445c-2.99-.977-5.554-3.27-7.039-6.294-1.161-2.365-1.316-3.205-1.316-7.142 0-3.94.154-4.775 1.321-7.151 2.826-5.755 8.689-8.172 15.147-6.245 4.976 1.484 8.04 5.834 8.513 12.083.655 8.662-4.023 14.75-11.694 15.216-1.735.105-3.773-.088-4.932-.467m9.13-4.338c2.271-1.81 3.44-4.2 3.755-7.676.483-5.33-1.5-9.635-5.22-11.324-4.854-2.204-10.286.276-11.805 5.39-2.502 8.425 1.683 15.642 8.809 15.19 2.132-.135 3.06-.464 4.46-1.58m-189.12-9.098v-13.618l1.996.012 1.996.012 6.925 10.437 6.925 10.436.001-10.448.002-10.449h3.756v27.236l-1.995-.012-1.996-.011-6.925-10.437-6.925-10.436-.002 10.448v10.448h-3.758zm61.986 0v-13.618h3.757v11.27h14.087v-11.27h3.757v27.236h-3.757V293.16h-14.087v12.68h-3.757zm49.776-.939v-1.409h6.575v2.818h-6.573zm12.21 0v-1.409h6.574v2.818h-6.574zm12.209 0v-1.409h6.574v2.818h-6.574zm12.679 0v-1.409h6.574v2.818h-6.574zm12.21 0v-1.409h6.573v2.818h-6.574zm-136.181-.235v-1.174h33.81v2.348h-33.81zm61.985 0c0-1.14.094-1.174 3.287-1.174s3.287.034 3.287 1.174-.094 1.174-3.287 1.174-3.287-.033-3.287-1.174m12.21 0c0-1.147.078-1.174 3.521-1.174s3.522.027 3.522 1.174-.078 1.174-3.522 1.174-3.522-.026-3.522-1.174m196.992-18.761c-4.65-8.105-8.453-14.886-8.453-15.07s.44-.626.978-.983c.942-.626 1.292-.107 9.51 14.145 4.691 8.137 8.53 14.93 8.53 15.097 0 .325-1.488 1.552-1.878 1.55-.13-.002-4.038-6.634-8.687-14.739m-99.888 7.14c-.66-.519.603-2.92 10.694-20.31 6.294-10.848 11.45-19.882 11.46-20.075.01-.194-.808-.353-1.815-.353-1.532 0-1.982-.235-2.74-1.433-.707-1.116-1.015-1.298-1.392-.822-.266.337-5.496 9.322-11.622 19.967l-11.137 19.356-1.131-.74c-.622-.408-1.05-.877-.953-1.043 1.265-2.14 22.81-39.53 23.172-40.215.423-.798-.791-3.166-8.065-15.731-8.24-14.235-8.526-14.814-7.584-15.363.538-.314 1.089-.578 1.224-.587s4.678 7.69 10.096 17.108l9.85 17.125 23.363.015 23.362.015v2.348h-41.222l-11.908 20.656c-6.55 11.36-12.132 20.658-12.406 20.662-.273.003-.834-.258-1.246-.58m-197.007-5.91c-.453-.749-5.156-8.887-10.45-18.085l-9.627-16.724-23.597-.01-23.597-.009v-2.818l23.597-.003 23.597-.003 8.452-14.637c4.65-8.05 9.088-15.75 9.864-17.109 1.398-2.449 1.42-2.463 2.483-1.662l1.072.81-9.484 16.42c-5.216 9.03-9.579 16.783-9.695 17.228-.125.476 3.957 8.041 9.935 18.415 5.581 9.684 10.148 17.818 10.148 18.076s-.422.695-.937.97c-.794.426-1.063.294-1.761-.86m267.545-34.828v-13.618l1.996.012 1.996.012 6.925 10.437 6.925 10.436.001-10.448.002-10.449h3.756v27.236l-1.995-.012-1.996-.011-6.925-10.437-6.925-10.436-.002 10.448v10.448h-3.758zm-360.174-.47v-13.616l1.996.012 1.996.012 6.925 10.436 6.925 10.436.001-10.448.002-10.448h3.756v27.236l-1.995-.012-1.996-.012-6.925-10.436-6.925-10.437-.002 10.448v10.449h-3.758zm-111.716-2.313c-.736-.555-.932-.95-.579-1.169.702-.434.683-2.284-.03-2.998-.827-.827-2.638-.687-4.06.315-1.88 1.323-3.207 1.593-4.972 1.01-3.116-1.028-4.179-4.936-2.208-8.124 1.127-1.824 1.274-3.166.44-4.001-.863-.862-2.042-.68-3.943.61-5.303 3.6-10.638-2.028-6.957-7.338.818-1.18 1.115-2.073.907-2.726-.578-1.821-1.708-1.932-4.704-.463-2.777 1.361-3.561 1.402-5.794.3-1.268-.624-2.427-2.627-2.423-4.19.001-.593.523-1.924 1.16-2.957s1.163-2.312 1.17-2.841c.033-2.146-2.294-2.76-4.344-1.147-2.49 1.96-6.051 1.613-7.592-.74-.857-1.307-.946-3.904-.191-5.561.495-1.087.61-1.124 1.526-.483.734.514.99 1.193.99 2.624 0 2.88 1.039 3.325 3.946 1.69 3.468-1.949 6.462-1.519 7.829 1.125.987 1.909.823 3.512-.622 6.082-1.022 1.818-1.183 2.469-.774 3.122.745 1.19 2.788 1.277 4.324.183 3.25-2.314 7.511-.866 8.323 2.829.229 1.043-.01 2.032-.91 3.765-1.346 2.597-1.503 3.673-.656 4.52.828.827 2.168.688 3.668-.38 5.488-3.908 10.735 1.333 7.265 7.255-1.263 2.154-1.175 3.26.324 4.062.711.38 1.354.225 2.963-.718 4.706-2.758 9.407-.209 8.502 4.611-.421 2.25-1.2 2.772-2.578 1.733m137.074-8.017v-1.409h42.263v2.818h-42.263zm355.255-7.305c-.724-.548-.818-.879-.43-1.512.274-.445 4.977-8.572 10.45-18.06l9.953-17.25-15.158-26.294-15.157-26.294-30.289.007-30.288.007-10.331 18.048c-5.682 9.927-10.543 18.048-10.8 18.047-.26 0-.822-.268-1.252-.595-.701-.533.293-2.453 9.656-18.651l10.437-18.057-5.153-8.922-9.944-17.212-4.79-8.289 1.131-.515c.623-.284 1.188-.516 1.257-.516s4.549 7.703 9.956 17.117l9.833 17.117 31.18.14 31.181.14 15.484 26.767c8.516 14.722 15.583 27.117 15.704 27.545.2.706-20.887 37.979-21.468 37.946-.129-.007-.652-.329-1.162-.714m-381.433-1.286c-.502-.852-5.099-8.829-10.215-17.727-5.116-8.9-9.444-16.344-9.617-16.544-.247-.285-43.553-9.72-44.656-9.73-.15-.001-.177-.642-.062-1.425.153-1.046.411-1.363.975-1.197 2.183.642 43.771 9.308 43.903 9.147.216-.264 29.618-51.24 29.791-51.652.078-.185-5.792-6.92-13.044-14.97l-13.185-14.633 1.034-.837c1.032-.836 1.056-.813 14.218 13.862l13.183 14.7 27.876-.095 27.876-.096 10.887-18.883c5.987-10.385 11.019-19.016 11.181-19.178.428-.427 2.245.233 2.245.815 0 .271-4.755 8.713-10.566 18.76-5.81 10.046-10.565 18.369-10.565 18.494s.803.227 1.786.227c1.557 0 1.909.216 2.748 1.684l.962 1.684 9.285-16.124c13.602-23.62 12.307-21.642 13.606-20.791l1.092.716-11.237 19.446-11.238 19.446 8.942 15.457c4.918 8.502 8.942 15.673 8.942 15.938 0 .452-1.05 1.05-1.845 1.05-.198 0-4.988-8.027-10.645-17.838l-10.285-17.839-30.358-.006-30.357-.005-14.695 25.475a19645 19645 0 0 1-15.115 26.18c-.307.515 2.374 5.556 9.962 18.723 9.597 16.655 10.32 18.066 9.55 18.65-1.186.9-1.34.842-2.359-.884m-125.179-8.22c-.722-.798.036-1.564 13.584-13.735 7.892-7.09 14.573-12.891 14.846-12.891s.729.367 1.012.817c.414.656.286 1.041-.653 1.96-2.866 2.806-27.426 24.694-27.709 24.694-.173 0-.66-.38-1.08-.845m219.447-26.391v-13.618l1.996.012 1.996.012 6.925 10.436 6.925 10.436.001-10.448.002-10.448h3.756v27.236l-1.995-.012-1.996-.012-6.925-10.437-6.925-10.436-.002 10.448v10.449h-3.758zm61.986 0v-13.618h3.757v11.27h14.087v-11.27h3.757v27.236h-3.757v-12.68h-14.087v12.68h-3.757zm111.292 0v-13.618l1.996.012 1.996.012 6.925 10.436 6.925 10.436.001-10.448.002-10.448h3.756v27.236l-1.995-.012-1.996-.012-6.923-10.438-6.925-10.436-.002 10.448v10.449h-3.758zM74.778 171.536v-13.618l1.995.012 1.996.012 6.925 10.436 6.926 10.437v-10.448l.002-10.449h3.757v27.236l-1.996-.012-1.996-.012-6.925-10.436-6.925-10.436-.001 10.448-.002 10.448h-3.756zm297.249 12.21v-1.41h6.574v2.818h-6.574zm12.679 0v-1.41h6.574v2.818h-6.574zm12.679 0v-1.41h6.574v2.818h-6.574zm12.679 0v-1.41h6.574v2.818h-6.574zm12.678 0v-1.41h6.575v2.818h-6.575zm-137.586-.235v-1.174h33.34v2.348h-33.34zm61.516 0c0-1.14.094-1.174 3.287-1.174s3.287.033 3.287 1.174c0 1.14-.094 1.174-3.287 1.174s-3.287-.034-3.287-1.174m12.68 0c0-1.14.093-1.174 3.286-1.174s3.287.033 3.287 1.174c0 1.14-.094 1.174-3.287 1.174s-3.287-.034-3.287-1.174m-202.279-.099c-.971-.837-.93-.918 11.668-22.676 6.954-12.01 12.925-21.898 13.27-21.974.345-.075.887.176 1.205.56.479.576-1.578 4.438-11.952 22.443-6.892 11.96-12.685 21.913-12.873 22.117-.189.204-.782-.008-1.318-.47m386.826-20.826c-6.844-11.88-12.51-21.898-12.59-22.26-.16-.725 1.889-2.05 2.13-1.376.082.23 5.826 10.24 12.764 22.243 11.21 19.395 12.529 21.889 11.847 22.408-.422.321-.979.585-1.237.585-.258.001-6.07-9.72-12.914-21.6m-82.008 8.816c-.972-.553-.727-1.046 7.983-16.07 4.943-8.525 9.159-15.763 9.368-16.085.433-.665 2.202.035 2.202.871 0 .588-17.985 31.88-18.314 31.865-.13-.006-.686-.267-1.239-.58M84.163 154.515c-.005-.323-1.46-10.836-3.233-23.362-1.773-12.527-3.09-22.922-2.926-23.102.345-.378 40.394-18.222 40.9-18.222.184 0 .559.49.831 1.087.486 1.066.106 1.261-19.355 9.914-15.619 6.946-19.813 8.99-19.68 9.596.094.423 1.448 9.961 3.008 21.196s2.961 21.114 3.112 21.954c.26 1.453.204 1.526-1.187 1.526-.852 0-1.465-.245-1.47-.587m4.924-39.845c-.172-.543-.133-1.161.086-1.374.428-.417 33.02-15.014 33.523-15.014.165 0 .528.5.806 1.11.5 1.095.272 1.214-16.513 8.687-9.36 4.168-17.147 7.577-17.304 7.577s-.426-.444-.598-.986m35.939-30.007V71.045l1.995.012 1.996.012 6.925 10.437 6.925 10.436.002-10.448.001-10.449h3.757v27.237l-1.996-.012-1.996-.012-6.925-10.437-6.925-10.436-.001 10.448-.002 10.449h-3.756zm141.014 5.453c-2.99-.977-5.555-3.27-7.04-6.294-1.161-2.365-1.316-3.205-1.316-7.141 0-3.941.154-4.776 1.321-7.152 2.826-5.755 8.69-8.172 15.147-6.245 4.976 1.484 8.041 5.835 8.514 12.083.655 8.662-4.024 14.75-11.694 15.216-1.735.105-3.773-.088-4.932-.467m9.13-4.338c2.27-1.81 3.44-4.2 3.754-7.676.484-5.33-1.5-9.635-5.22-11.324-4.854-2.204-10.286.276-11.804 5.39-2.502 8.425 1.683 15.642 8.808 15.19 2.133-.135 3.06-.464 4.461-1.58m95.92-8.628V63.531h3.756v11.27h14.088v-11.27h3.757v27.236h-3.757V78.088h-14.088v12.68h-3.756zm62.455 0V63.531l1.996.012 1.995.012 6.926 10.436 6.925 10.437.001-10.449.001-10.448h3.757v27.236l-1.996-.012-1.995-.012-6.926-10.436-6.925-10.437-.001 10.449-.001 10.448h-3.757zm-122.093-.94v-1.408h6.574v2.818h-6.574zm12.679 0v-1.408h6.574v2.818h-6.574zm12.21 0v-1.408h6.573v2.818h-6.574zm12.678 0v-1.408h6.574v2.818h-6.574zm12.21 0v-1.408h6.574v2.818h-6.575zm34.749 0v-1.408h33.34v2.818h-33.34zm-109.414-.234c0-1.14.094-1.174 3.287-1.174s3.287.034 3.287 1.174-.094 1.174-3.287 1.174-3.287-.033-3.287-1.174m12.679 0c0-1.14.094-1.174 3.287-1.174s3.287.034 3.287 1.174-.094 1.174-3.287 1.174-3.287-.033-3.287-1.174m293.948-9.38c-4.972-1.598-8.302-6.4-8.774-12.65-.711-9.401 4.286-16.011 12.552-16.602 5.603-.401 10.132 1.932 12.17 6.268.564 1.199.943 2.26.844 2.359s-1.324.397-2.723.662c-1.777.337-2.594.333-2.71-.014-.09-.273-.68-1.108-1.31-1.856-3.097-3.682-9.88-2.826-12.273 1.549-.611 1.118-.814 2.601-.814 5.95 0 4.895.68 6.757 3.134 8.586 1.769 1.318 5.358 1.55 7.424.48 1.337-.693 3.209-3.092 3.877-4.967.13-.366 4.508.914 5.18 1.515.55.49-.876 3.527-2.547 5.431-.816.93-2.348 2.133-3.406 2.675-2.466 1.264-7.667 1.564-10.624.614m-139.514-7.432c-.68-.519-.195-1.569 4.427-9.584 4.829-8.374 5.259-8.967 6.165-8.497.535.278 1.05.572 1.144.652.318.272-10.028 18.017-10.502 18.014-.258-.002-.813-.265-1.234-.585m10.86-35.547V9.999h3.757v11.27h14.088V9.999h3.757v27.236h-3.757V24.556h-14.088v12.68h-3.756z"/></svg>