<svg xmlns="http://www.w3.org/2000/svg" width="361.8" height="293.23" viewBox="0 0 361.8 293.23" xml:space="preserve" overflow="visible" enable-background="new 0 0 361.8 293.23"><path d="m72.117 70.682-.808.806-.808-.806V33.346l1.616.902z"/><path d="m72.117 108.396-.808.807-.808-.807v-36.1l.808-.808.808.808z"/><path d="m72.117 146.063-.808.808-.808-.808v-36.052l.808-.808.808.808zm0 37.715-.808.808-.808-.808v-36.1l.808-.807.808.807zm4.41 41.774 2.167.545q-.679 2.665-2.44 4.063-1.763 1.4-4.31 1.4-2.637 0-4.288-1.076-1.652-1.075-2.513-3.114t-.862-4.379q0-2.552.973-4.451t2.769-2.886 3.952-.986q2.446 0 4.113 1.248 1.669 1.25 2.324 3.512l-2.122.5q-.567-1.78-1.645-2.593t-2.712-.812q-1.878 0-3.14.901-1.261.902-1.773 2.422a9.8 9.8 0 0 0-.511 3.134q0 2.081.605 3.635t1.883 2.32a5.27 5.27 0 0 0 2.766.77q1.81 0 3.066-1.048t1.698-3.105m4.917 5.725V214.95h2.167v6.71h8.447v-6.71h2.167v16.328h-2.167v-7.689H83.61v7.69zm22.196 2.837v1.44h-8.105q-.017-.543.177-1.045.31-.825.995-1.626.684-.8 1.967-1.851 1.989-1.642 2.698-2.596.71-.956.71-1.808a2 2 0 0 0-.642-1.505q-.641-.612-1.672-.613-1.091 0-1.744.654-.654.654-.662 1.81l-1.544-.164q.159-1.732 1.197-2.64 1.037-.907 2.787-.907 1.767 0 2.795.977 1.03.978 1.03 2.423-.001.736-.302 1.445t-1 1.495-2.318 2.156q-1.355 1.135-1.742 1.54-.385.405-.64.814h6.014m1.261-10.783q0-4.064 2.183-6.364t5.636-2.299q2.261 0 4.077 1.08 1.814 1.08 2.768 3.013.952 1.933.952 4.382 0 2.483-1.002 4.443t-2.84 2.967a8.1 8.1 0 0 1-3.966 1.008q-2.306 0-4.121-1.113a7.16 7.16 0 0 1-2.751-3.04 9.2 9.2 0 0 1-.936-4.076m2.227.027q0 2.95 1.587 4.648t3.983 1.698q2.44 0 4.016-1.715t1.576-4.865q0-1.992-.673-3.478-.675-1.487-1.972-2.305t-2.913-.818q-2.294 0-3.95 1.575t-1.654 5.26m16.25 7.92v-16.33h2.166v6.71h8.447v-6.71h2.167v16.33h-2.167v-7.69h-8.446v7.69zm-51.26-18.762H70.5v-27.122l.808-.808.808.808zm29.075-139.998q0-4.064 2.183-6.364t5.637-2.299q2.26 0 4.076 1.08t2.768 3.013.952 4.381q0 2.483-1.002 4.443t-2.84 2.968A8.1 8.1 0 0 1 109 80.748q-2.305 0-4.12-1.114a7.16 7.16 0 0 1-2.752-3.04 9.2 9.2 0 0 1-.936-4.076m2.226.028q0 2.95 1.587 4.648t3.983 1.698q2.44 0 4.016-1.715t1.576-4.865q0-1.992-.673-3.479-.675-1.487-1.972-2.305t-2.913-.818q-2.294 0-3.95 1.575t-1.654 5.26m16.25 7.92V64.136h2.168v6.71h8.446v-6.71h2.167v16.329h-2.167v-7.69h-8.446v7.69z"/><path d="M99 70.682v1.614H72.118l-.808-.808.808-.806zm-71.736 9.784V64.137h2.167v6.71h8.447v-6.71h2.167v16.329h-2.167v-7.69H29.43v7.69zm14.879-8.17v-1.614h28.358l.808.806-.808.808zm60.504 45.884v-16.327h2.167v6.71h8.446v-6.71h2.167v16.329h-2.167v-7.69h-8.446v7.69h-2.167zm-2.125-9.784v1.615H72.117l-.808-.808.808-.807zm-90.358 9.784v-16.328h2.167v6.71h8.447v-6.71h2.166v16.329h-2.166v-7.69H12.33v7.69zm15.724-7.947q0-4.064 2.183-6.364t5.636-2.299q2.261 0 4.076 1.08t2.769 3.013.952 4.381q0 2.483-1.003 4.443t-2.84 2.968a8.1 8.1 0 0 1-3.965 1.008q-2.306 0-4.121-1.114a7.16 7.16 0 0 1-2.752-3.04 9.2 9.2 0 0 1-.935-4.076m2.225.028q0 2.95 1.588 4.648t3.982 1.698q2.44 0 4.017-1.715t1.576-4.865q0-1.992-.674-3.479t-1.972-2.305-2.913-.818q-2.294 0-3.949 1.575t-1.655 5.26"/><path d="M43.568 110.01v-1.614h26.933l.808.807-.808.808zm59.079 45.838V139.52h2.167v6.71h8.446v-6.71h2.167v16.33h-2.167v-7.69h-8.446v7.69zm-2.125-9.785v1.615H72.117l-.808-.807.808-.808zm-90.358 9.784V139.52h2.167v6.71h8.447v-6.71h2.166v16.328h-2.166v-7.689H12.33v7.69zm15.724-7.946q0-4.065 2.183-6.365 2.183-2.298 5.636-2.298 2.261 0 4.076 1.08t2.769 3.012.952 4.382q0 2.483-1.003 4.443t-2.84 2.967a8.1 8.1 0 0 1-3.965 1.008q-2.306 0-4.121-1.113a7.16 7.16 0 0 1-2.752-3.04 9.2 9.2 0 0 1-.935-4.076m2.225.027q0 2.95 1.588 4.648t3.982 1.698q2.44 0 4.017-1.715t1.576-4.865q0-1.992-.674-3.478t-1.972-2.305-2.913-.818q-2.294 0-3.949 1.575t-1.655 5.26m15.455-.25v-1.615h26.933l.808.808-.808.807zm57.624 37.938q0-4.065 2.183-6.365 2.183-2.298 5.637-2.298 2.26 0 4.076 1.08t2.768 3.012.952 4.382q0 2.483-1.002 4.443t-2.84 2.967a8.1 8.1 0 0 1-3.966 1.008q-2.305 0-4.12-1.113a7.16 7.16 0 0 1-2.752-3.04 9.2 9.2 0 0 1-.936-4.076m2.226.027q0 2.95 1.587 4.648t3.983 1.698q2.44 0 4.016-1.715t1.576-4.865q0-1.992-.673-3.478-.675-1.487-1.972-2.305t-2.913-.818q-2.294 0-3.95 1.575t-1.654 5.26m16.25 7.92v-16.33h2.168v6.71h8.446v-6.71h2.167v16.33h-2.167v-7.69h-8.446v7.69zM99 183.778v1.616H72.118l-.808-.808.808-.808zm-71.736 9.785v-16.328h2.167v6.71h8.447v-6.71h2.167v16.328h-2.167v-7.69H29.43v7.69zm14.879-8.169v-1.616h28.358l.808.808-.808.808zm-11.251-169.4q0-4.064 2.183-6.364 2.184-2.3 5.636-2.3 2.26 0 4.076 1.08a7.06 7.06 0 0 1 2.768 3.013q.952 1.934.952 4.382 0 2.483-1.002 4.443t-2.84 2.968a8.1 8.1 0 0 1-3.966 1.008q-2.305 0-4.12-1.114a7.17 7.17 0 0 1-2.752-3.04 9.2 9.2 0 0 1-.935-4.076m2.226.027q0 2.95 1.588 4.649t3.982 1.697q2.439 0 4.017-1.714 1.575-1.715 1.576-4.865 0-1.992-.674-3.48-.675-1.486-1.972-2.304-1.299-.818-2.913-.818-2.295 0-3.949 1.575-1.655 1.576-1.655 5.26m13.016 7.398.808-1.378 24.794 14.297-.807 1.425zm2.802-4.893.807-1.378 24.795 14.298-.807 1.425zm48.676 5.414V7.614h2.167v6.71h8.446v-6.71h2.167v16.329h-2.167v-7.69H99.78v7.69h-2.167z"/><path d="m93.872 19.857.807 1.376-22.562 13.015-1.616-.902zm194.845 50.825-.808.806-.808-.806V33.346l1.616.902z"/><path d="m288.717 108.396-.808.807-.808-.807v-36.1l.808-.808.808.808z"/><path d="m288.717 146.063-.808.808-.808-.808v-36.052l.808-.808.808.808zm0 37.715-.808.808-.808-.808v-36.1l.808-.807.808.807zm4.41 41.774 2.167.545q-.678 2.665-2.44 4.063-1.763 1.4-4.31 1.4-2.637 0-4.288-1.076t-2.513-3.114-.862-4.379q0-2.552.973-4.451.972-1.9 2.768-2.886t3.952-.986q2.446 0 4.113 1.248 1.669 1.25 2.324 3.512l-2.122.5q-.567-1.78-1.645-2.593t-2.712-.812q-1.878 0-3.14.901t-1.773 2.422a9.8 9.8 0 0 0-.511 3.134q0 2.081.606 3.635.604 1.553 1.882 2.32a5.27 5.27 0 0 0 2.765.77q1.81 0 3.067-1.048t1.7-3.105m4.916 5.725V214.95h2.167v6.71h8.447v-6.71h2.167v16.328h-2.167v-7.689h-8.447v7.69zm22.194 2.837v1.44h-8.104q-.017-.543.177-1.045.312-.825.996-1.626.685-.8 1.967-1.851 1.988-1.642 2.698-2.596.709-.956.708-1.808a2 2 0 0 0-.64-1.505q-.641-.612-1.674-.613-1.09 0-1.744.654t-.662 1.81l-1.544-.164q.159-1.732 1.197-2.64 1.04-.907 2.787-.907 1.767 0 2.795.977 1.03.978 1.03 2.423 0 .736-.301 1.445-.302.709-1 1.495-.701.786-2.32 2.156-1.353 1.135-1.74 1.54a5 5 0 0 0-.64.814zm1.262-10.784q0-4.064 2.183-6.364t5.636-2.299q2.262 0 4.077 1.08a7.07 7.07 0 0 1 2.768 3.013q.952 1.933.952 4.382 0 2.483-1.002 4.443t-2.84 2.967a8.1 8.1 0 0 1-3.966 1.008q-2.306 0-4.121-1.113a7.16 7.16 0 0 1-2.751-3.04 9.2 9.2 0 0 1-.936-4.076m2.227.027q0 2.95 1.587 4.648t3.983 1.698q2.44 0 4.016-1.715t1.576-4.865q0-1.992-.673-3.478-.676-1.487-1.972-2.305t-2.913-.818q-2.294 0-3.95 1.575t-1.654 5.26m16.25 7.92v-16.33h2.167v6.71h8.447v-6.71h2.167v16.33h-2.167v-7.69h-8.447v7.69zm-51.26-18.762H287.1v-27.122l.808-.808.808.808zm30.529-132.05V64.137h2.167v6.71h8.446v-6.71h2.167v16.329h-2.167v-7.69h-8.446v7.69zm-2.124-9.784v1.614h-28.405l-.808-.808.808-.806zm-90.358 9.783V64.136h2.167v6.71h8.446v-6.71h2.167v16.329h-2.167v-7.69h-8.446v7.69zm15.724-7.947q0-4.064 2.183-6.364t5.636-2.299q2.262 0 4.076 1.08a7.07 7.07 0 0 1 2.769 3.013q.952 1.933.952 4.381 0 2.483-1.003 4.443t-2.84 2.968a8.1 8.1 0 0 1-3.965 1.008q-2.306 0-4.121-1.114a7.16 7.16 0 0 1-2.752-3.04 9.2 9.2 0 0 1-.935-4.076m2.225.028q0 2.95 1.588 4.648t3.982 1.698q2.44 0 4.017-1.715t1.576-4.865q0-1.992-.674-3.479-.675-1.487-1.972-2.305t-2.913-.818q-2.294 0-3.949 1.575t-1.655 5.26m15.455-.249v-1.614h26.933l.808.806-.808.808zm57.623 37.937q0-4.064 2.184-6.364 2.183-2.299 5.636-2.299 2.263 0 4.076 1.08a7.06 7.06 0 0 1 2.768 3.013q.952 1.933.952 4.381 0 2.483-1.002 4.443t-2.84 2.968a8.1 8.1 0 0 1-3.966 1.008q-2.304 0-4.12-1.114a7.17 7.17 0 0 1-2.752-3.04 9.2 9.2 0 0 1-.936-4.076m2.227.028q0 2.95 1.588 4.648t3.982 1.698q2.44 0 4.017-1.715 1.576-1.715 1.576-4.865 0-1.992-.674-3.479-.675-1.487-1.972-2.305t-2.913-.818q-2.294 0-3.948 1.575-1.657 1.576-1.656 5.26m16.25 7.92v-16.328h2.167v6.71h8.446v-6.71h2.167v16.329h-2.167v-7.69h-8.446v7.69z"/><path d="M315.6 108.396v1.615h-26.883l-.808-.808.808-.807zm-71.736 9.784v-16.327h2.167v6.71h8.447v-6.71h2.167v16.329h-2.167v-7.69h-8.447v7.69h-2.167zm14.879-8.17v-1.614h28.358l.808.807-.808.808zm59.048 37.89q0-4.064 2.184-6.363 2.183-2.3 5.636-2.3 2.263 0 4.076 1.08a7.06 7.06 0 0 1 2.768 3.013q.952 1.932.952 4.382 0 2.483-1.002 4.443t-2.84 2.967a8.1 8.1 0 0 1-3.966 1.008q-2.304 0-4.12-1.113a7.17 7.17 0 0 1-2.752-3.04 9.2 9.2 0 0 1-.936-4.076m2.227.027q0 2.95 1.588 4.648t3.982 1.698q2.44 0 4.017-1.715 1.576-1.713 1.576-4.865 0-1.992-.674-3.478-.675-1.487-1.972-2.305t-2.913-.818q-2.294 0-3.948 1.575-1.657 1.575-1.656 5.26m16.25 7.92v-16.33h2.167v6.71h8.446v-6.71h2.167v16.33h-2.167v-7.69h-8.446v7.69zm-20.668-9.785v1.615h-26.883l-.808-.807.808-.808zm-71.736 9.785V139.52h2.167v6.71h8.447v-6.71h2.167v16.33h-2.167v-7.69h-8.447v7.69zm14.879-8.17v-1.615h28.358l.808.808-.808.807zm60.503 45.885v-16.328h2.167v6.71h8.446v-6.71h2.167v16.328h-2.167v-7.69h-8.446v7.69zm-2.124-9.785v1.616h-28.405l-.808-.808.808-.808zm-90.358 9.784v-16.328h2.167v6.71h8.446v-6.71h2.167v16.328h-2.167v-7.689h-8.446v7.69zm15.724-7.946q0-4.065 2.183-6.365 2.183-2.298 5.636-2.298 2.262 0 4.076 1.08a7.07 7.07 0 0 1 2.769 3.012q.952 1.933.952 4.382 0 2.483-1.003 4.443t-2.84 2.967a8.1 8.1 0 0 1-3.965 1.008q-2.306 0-4.121-1.113a7.16 7.16 0 0 1-2.752-3.04 9.2 9.2 0 0 1-.935-4.076m2.225.027q0 2.95 1.588 4.648t3.982 1.698q2.44 0 4.017-1.715t1.576-4.865q0-1.992-.674-3.478-.675-1.487-1.972-2.305t-2.913-.818q-2.294 0-3.949 1.575t-1.655 5.26m15.455-.249v-1.616h26.933l.808.808-.808.808zm-12.677-169.4q0-4.064 2.184-6.364t5.636-2.3q2.262 0 4.076 1.08a7.05 7.05 0 0 1 2.768 3.013q.952 1.934.952 4.382 0 2.483-1.002 4.443t-2.84 2.968a8.1 8.1 0 0 1-3.966 1.008q-2.304 0-4.12-1.114a7.17 7.17 0 0 1-2.752-3.04 9.2 9.2 0 0 1-.936-4.076m2.227.027q0 2.95 1.588 4.649 1.588 1.697 3.982 1.697 2.44 0 4.017-1.714 1.576-1.715 1.576-4.865 0-1.992-.674-3.48-.675-1.486-1.972-2.304-1.298-.818-2.913-.818-2.293 0-3.948 1.575-1.657 1.577-1.656 5.26m13.016 7.398.808-1.378 24.794 14.297-.807 1.425zm2.802-4.893.807-1.378 24.795 14.298-.807 1.425zm48.677 5.414V7.614h2.167v6.71h8.446v-6.71h2.167v16.329h-2.168v-7.69h-8.446v7.69h-2.166z"/><path d="m310.472 19.857.807 1.376-22.562 13.015-1.616-.902zM9.045 285.618V269.29h5.615q1.902 0 2.904.233 1.4.323 2.39 1.169 1.29 1.092 1.93 2.79.639 1.7.64 3.883 0 1.859-.435 3.297-.434 1.437-1.111 2.377-.68.941-1.485 1.483-.807.54-1.946.818-1.14.278-2.619.278zm2.167-1.93h3.476q1.61 0 2.526-.3t1.46-.847q.767-.768 1.194-2.065t.428-3.146q0-2.56-.839-3.935-.838-1.375-2.038-1.842-.866-.334-2.787-.335h-3.42zm13.245-2.969V278.7h6.175v2.02zm16.275-1.499v-1.93h6.917v6.059q-1.592 1.27-3.284 1.911a9.8 9.8 0 0 1-3.473.64q-2.406 0-4.37-1.031-1.965-1.03-2.967-2.98t-1.002-4.357q0-2.386.996-4.452t2.866-3.07q1.871-1.002 4.309-1.002 1.77 0 3.2.573 1.431.575 2.243 1.602t1.236 2.677l-1.955.535q-.368-1.247-.912-1.96-.545-.713-1.557-1.142t-2.248-.428q-1.48 0-2.558.451-1.08.45-1.741 1.188a5.7 5.7 0 0 0-1.03 1.614q-.622 1.516-.622 3.288 0 2.183.751 3.655.75 1.469 2.186 2.184 1.434.713 3.048.713 1.402 0 2.737-.54 1.334-.541 2.024-1.154v-3.044zm17.557 4.943q-1.118.944-2.147 1.332a6.2 6.2 0 0 1-2.206.39q-1.945 0-2.99-.955-1.044-.95-1.044-2.434 0-.868.394-1.589a3.3 3.3 0 0 1 1.034-1.152 4.9 4.9 0 0 1 1.439-.658q.589-.156 1.778-.3 2.423-.29 3.567-.691.012-.413.012-.524 0-1.222-.567-1.723-.767-.677-2.277-.677-1.413 0-2.084.494-.671.493-.994 1.748l-1.96-.267q.268-1.257.878-2.03.613-.775 1.77-1.19 1.156-.418 2.68-.417 1.513 0 2.459.356.945.357 1.39.894.444.54.623 1.364.1.512.1 1.848v2.673q0 2.798.129 3.54.128.741.509 1.422h-2.093q-.311-.622-.4-1.454m-.163-4.482q-1.09.445-3.271.757-1.234.179-1.747.4a1.715 1.715 0 0 0-1.068 1.604q0 .802.605 1.336.606.535 1.772.535 1.155 0 2.054-.506a3.14 3.14 0 0 0 1.322-1.388q.322-.679.322-2.002zm5.08 5.937V269.29h2.004v16.328zm12.83-1.455q-1.119.944-2.148 1.332a6.2 6.2 0 0 1-2.206.39q-1.944 0-2.99-.955-1.044-.95-1.044-2.434 0-.868.394-1.589a3.3 3.3 0 0 1 1.033-1.152 4.9 4.9 0 0 1 1.44-.658q.589-.156 1.778-.3 2.423-.29 3.567-.691.012-.413.012-.524 0-1.222-.567-1.723-.767-.677-2.277-.677-1.412 0-2.084.494-.671.493-.994 1.748l-1.96-.267q.268-1.257.878-2.03.613-.775 1.77-1.19 1.155-.418 2.68-.417 1.514 0 2.459.356t1.39.894q.444.54.623 1.364.1.512.1 1.848v2.673q0 2.798.129 3.54.128.741.509 1.422h-2.093q-.311-.622-.4-1.454m-.163-4.482q-1.09.445-3.271.757-1.234.179-1.747.4a1.715 1.715 0 0 0-1.068 1.604q0 .802.605 1.336.606.535 1.772.535 1.155 0 2.054-.506a3.14 3.14 0 0 0 1.322-1.388q.322-.679.322-2.002zm12.843 1.602 1.974.267q-.323 2.035-1.654 3.185t-3.268 1.15q-2.427 0-3.904-1.588-1.476-1.587-1.475-4.55 0-1.917.635-3.352.634-1.438 1.931-2.157a5.7 5.7 0 0 1 2.823-.718q1.926 0 3.15.974 1.224.973 1.57 2.766l-1.946.297q-.278-1.189-.985-1.79-.707-.599-1.709-.6-1.514 0-2.46 1.086-.946 1.088-.946 3.438 0 2.385.912 3.464.912 1.083 2.381 1.082 1.18 0 1.97-.726.79-.722 1-2.228m8.062 2.55.297 1.77a7.6 7.6 0 0 1-1.517.179q-1.093 0-1.695-.345-.602-.348-.847-.91t-.245-2.369v-6.811h-1.485v-1.56h1.485v-2.927l2.003-1.203v4.13h2.004v1.56h-2.004v6.924q0 .86.105 1.104a.83.83 0 0 0 .343.392q.237.144.68.144.333 0 .876-.078m1.213-4.13q0-3.287 1.825-4.87 1.525-1.313 3.717-1.313 2.437 0 3.984 1.598 1.547 1.6 1.547 4.417 0 2.283-.685 3.592a4.85 4.85 0 0 1-1.992 2.034 5.8 5.8 0 0 1-2.855.724q-2.482 0-4.012-1.594-1.53-1.591-1.53-4.588m2.064.002q0 2.27.99 3.402.988 1.13 2.49 1.13 1.489 0 2.478-1.135.989-1.138.989-3.464 0-2.194-.995-3.325t-2.474-1.13q-1.5 0-2.49 1.125t-.988 3.396m10.557 2.381 1.99-.311q.167 1.194.929 1.827.763.637 2.13.637 1.381 0 2.048-.562.668-.564.668-1.322 0-.68-.587-1.07-.41-.269-2.045-.68-2.2-.558-3.054-.963-.855-.408-1.295-1.127a2.97 2.97 0 0 1-.44-1.586q0-.79.361-1.466.362-.674.986-1.12.467-.344 1.274-.584a6 6 0 0 1 1.731-.239q1.392 0 2.444.4 1.051.404 1.553 1.09.502.684.69 1.835l-1.96.267q-.133-.916-.772-1.43-.638-.515-1.805-.515-1.379 0-1.968.456t-.589 1.071q0 .39.245.701.244.323.767.535.3.112 1.768.514 2.122.568 2.963.93t1.32 1.052.478 1.716q0 1.002-.585 1.887-.585.888-1.688 1.37-1.102.485-2.496.485-2.306 0-3.515-.96-1.211-.954-1.545-2.838m20.284-.282 2.078.267q-.489 1.813-1.814 2.813-1.324 1.002-3.383 1.002-2.593 0-4.113-1.6-1.518-1.596-1.519-4.483 0-2.986 1.536-4.635 1.536-1.647 3.984-1.647 2.37 0 3.873 1.614 1.503 1.617 1.503 4.546 0 .178-.011.535h-8.821q.112 1.95 1.1 2.986.99 1.038 2.472 1.037 1.1 0 1.88-.58.778-.583 1.235-1.855m-6.568-3.236h6.59q-.133-1.493-.755-2.24-.956-1.16-2.478-1.159-1.378 0-2.317.925t-1.04 2.474m103.13 7.051V269.29h2.167v14.398h8.016v1.93zm11.715-4.899V278.7h6.175v2.02zm16.276-1.499v-1.93h6.917v6.059q-1.592 1.27-3.284 1.911a9.8 9.8 0 0 1-3.473.64q-2.405 0-4.37-1.031t-2.967-2.98-1.002-4.357q0-2.386.996-4.452t2.868-3.07q1.87-1.002 4.308-1.002 1.769 0 3.2.573 1.43.575 2.242 1.602t1.236 2.677l-1.955.535q-.367-1.247-.913-1.96-.544-.713-1.557-1.142t-2.247-.428q-1.48 0-2.558.451-1.08.45-1.741 1.188a5.7 5.7 0 0 0-1.03 1.614q-.622 1.516-.622 3.288 0 2.183.751 3.655.75 1.469 2.186 2.184 1.435.713 3.049.713 1.4 0 2.737-.54 1.334-.541 2.024-1.154v-3.044zm17.557 4.943q-1.118.944-2.147 1.332a6.2 6.2 0 0 1-2.206.39q-1.944 0-2.988-.955-1.045-.95-1.045-2.434 0-.868.394-1.589a3.3 3.3 0 0 1 1.034-1.152 4.9 4.9 0 0 1 1.439-.658q.589-.156 1.778-.3 2.423-.29 3.568-.691.01-.413.01-.524 0-1.222-.566-1.723-.767-.677-2.277-.677-1.412 0-2.084.494-.671.493-.994 1.748l-1.96-.267q.268-1.257.879-2.03.612-.775 1.768-1.19 1.158-.418 2.681-.417 1.514 0 2.459.356t1.39.894q.445.54.623 1.364.1.512.1 1.848v2.673q0 2.798.129 3.54.128.741.51 1.422h-2.094q-.312-.622-.4-1.454m-.164-4.482q-1.092.445-3.27.757-1.235.179-1.748.4a1.75 1.75 0 0 0-.79.652 1.7 1.7 0 0 0-.278.952q0 .802.605 1.336.607.535 1.772.535 1.155 0 2.054-.506.9-.51 1.322-1.388.323-.679.323-2.002zm5.08 5.937V269.29h2.003v16.328zm12.828-1.455q-1.118.944-2.147 1.332a6.2 6.2 0 0 1-2.205.39q-1.945 0-2.99-.955-1.044-.95-1.044-2.434 0-.868.394-1.589a3.3 3.3 0 0 1 1.034-1.152 4.9 4.9 0 0 1 1.439-.658q.589-.156 1.778-.3 2.423-.29 3.568-.691.011-.413.011-.524 0-1.222-.567-1.723-.767-.677-2.277-.677-1.412 0-2.084.494-.671.493-.994 1.748l-1.96-.267q.268-1.257.879-2.03.612-.775 1.768-1.19 1.157-.418 2.681-.417 1.513 0 2.459.356.945.357 1.39.894.445.54.623 1.364.1.512.1 1.848v2.673q0 2.798.129 3.54.128.741.51 1.422h-2.094q-.311-.622-.4-1.454m-.164-4.482q-1.092.445-3.27.757-1.235.179-1.748.4a1.75 1.75 0 0 0-.79.652 1.7 1.7 0 0 0-.278.952q0 .802.606 1.336.606.535 1.771.535 1.155 0 2.054-.506.9-.51 1.323-1.388.322-.679.322-2.002zm12.844 1.602 1.974.267q-.323 2.035-1.654 3.185t-3.268 1.15q-2.427 0-3.903-1.588-1.476-1.587-1.476-4.55 0-1.917.635-3.352.635-1.438 1.931-2.157a5.7 5.7 0 0 1 2.823-.718q1.926 0 3.15.974 1.224.973 1.57 2.766l-1.945.297q-.279-1.189-.986-1.79-.706-.599-1.709-.6-1.514 0-2.46 1.086-.946 1.088-.946 3.438 0 2.385.912 3.464.913 1.083 2.381 1.082 1.18 0 1.97-.726.788-.722 1.001-2.228m8.06 2.55.297 1.77a7.6 7.6 0 0 1-1.517.179q-1.092 0-1.695-.345-.602-.348-.848-.91-.245-.563-.245-2.369v-6.811h-1.485v-1.56h1.485v-2.927l2.003-1.203v4.13h2.004v1.56h-2.004v6.924q0 .86.105 1.104a.83.83 0 0 0 .343.392q.237.144.681.144.333 0 .876-.078m1.214-4.13q0-3.287 1.825-4.87 1.525-1.313 3.717-1.313 2.437 0 3.984 1.598 1.547 1.6 1.547 4.417 0 2.283-.685 3.592a4.87 4.87 0 0 1-1.992 2.034 5.8 5.8 0 0 1-2.855.724q-2.482 0-4.012-1.594-1.529-1.591-1.529-4.588m2.063.002q0 2.27.99 3.402.988 1.13 2.49 1.13 1.489 0 2.478-1.135.988-1.138.989-3.464 0-2.194-.995-3.325t-2.474-1.13q-1.5 0-2.49 1.125t-.988 3.396m10.558 2.381 1.989-.311q.166 1.194.93 1.827.761.637 2.13.637 1.38 0 2.046-.562.668-.564.668-1.322 0-.68-.587-1.07-.41-.269-2.043-.68-2.203-.558-3.056-.963-.855-.408-1.295-1.127a2.97 2.97 0 0 1-.44-1.586q0-.79.362-1.466.362-.674.985-1.12.467-.344 1.275-.584a6 6 0 0 1 1.73-.239q1.392 0 2.444.4 1.052.404 1.553 1.09.502.684.69 1.835l-1.959.267q-.134-.916-.772-1.43-.639-.515-1.806-.515-1.379 0-1.968.456t-.589 1.071q0 .39.245.701.245.323.767.535.3.112 1.768.514 2.122.568 2.963.93t1.32 1.052.478 1.716q0 1.002-.584 1.887-.586.888-1.688 1.37-1.102.485-2.496.485-2.305 0-3.515-.96-1.213-.954-1.545-2.838m20.283-.282 2.079.267q-.49 1.813-1.815 2.813-1.323 1.002-3.383 1.002-2.593 0-4.112-1.6-1.518-1.596-1.52-4.483 0-2.986 1.536-4.635 1.536-1.647 3.984-1.647 2.37 0 3.872 1.614 1.503 1.617 1.503 4.546 0 .178-.011.535h-8.82q.11 1.95 1.1 2.986.991 1.038 2.471 1.037 1.101 0 1.88-.58.78-.583 1.236-1.855m-6.568-3.236h6.59q-.133-1.493-.754-2.24-.957-1.16-2.479-1.159-1.377 0-2.317.925t-1.04 2.474"/></svg>