<svg xmlns="http://www.w3.org/2000/svg" xmlns:cc="http://web.resource.org/cc/" xmlns:svg="http://www.w3.org/2000/svg" id="Layer_1" width="360.625" height="257.981" version="1.1" viewBox="0 0 360.625 257.981" style="overflow:visible;enable-background:new 0 0 360.625 257.981" xml:space="preserve"><metadata id="metadata202"/><path id="polygon3" d="M 70.967975,69.800275 L 70.160475,70.606825 L 69.352975,69.800275 L 69.352975,32.464325 L 70.967975,33.366825 L 70.967975,69.800275 z"/><path id="polygon5" d="M 70.967975,107.51433 L 70.160475,108.32183 L 69.352975,107.51433 L 69.352975,71.414325 L 70.160475,70.606825 L 70.967975,71.414325 L 70.967975,107.51433 z"/><path id="polygon7" d="M 70.967975,145.18183 L 70.160475,145.98933 L 69.352975,145.18183 L 69.352975,109.12933 L 70.160475,108.32183 L 70.967975,109.12933 L 70.967975,145.18183 z"/><g id="g9" transform="matrix(0.95,0,0,0.95,9.015625,6.449525)"><path id="path11" d="M 69.856,190.007 L 72.137,190.581 C 71.661,192.451 70.804,193.877 69.568,194.858 C 68.331,195.84 66.818,196.331 65.031,196.331 C 63.181,196.331 61.677,195.954 60.518,195.199 C 59.359,194.444 58.477,193.352 57.872,191.921 C 57.267,190.49 56.965,188.954 56.965,187.312 C 56.965,185.521 57.306,183.959 57.989,182.626 C 58.672,181.292 59.643,180.28 60.904,179.588 C 62.164,178.896 63.55,178.55 65.064,178.55 C 66.781,178.55 68.224,178.988 69.394,179.864 C 70.565,180.741 71.38,181.973 71.84,183.561 L 69.606,184.088 C 69.208,182.838 68.631,181.928 67.875,181.358 C 67.118,180.788 66.166,180.503 65.02,180.503 C 63.702,180.503 62.6,180.819 61.714,181.452 C 60.829,182.085 60.207,182.934 59.848,184.001 C 59.489,185.068 59.31,186.167 59.31,187.3 C 59.31,188.761 59.522,190.036 59.947,191.126 C 60.372,192.216 61.032,193.03 61.929,193.569 C 62.826,194.108 63.796,194.378 64.841,194.378 C 66.112,194.378 67.187,194.011 68.068,193.276 C 68.949,192.541 69.544,191.452 69.856,190.007 z"/><path id="path13" d="M 75.032,196.034 L 75.032,178.846 L 77.313,178.846 L 77.313,185.909 L 86.204,185.909 L 86.204,178.846 L 88.485,178.846 L 88.485,196.034 L 86.204,196.034 L 86.204,187.94 L 77.313,187.94 L 77.313,196.034 L 75.032,196.034 z"/></g><g id="g15" transform="matrix(0.95,0,0,0.95,9.015625,6.449525)"><path id="path17" d="M 98.395,199.019 L 98.395,200.535 L 89.864,200.535 C 89.852,200.154 89.914,199.788 90.05,199.435 C 90.268,198.855 90.617,198.285 91.098,197.723 C 91.578,197.161 92.268,196.512 93.168,195.775 C 94.564,194.623 95.51,193.712 96.008,193.042 C 96.506,192.372 96.755,191.738 96.755,191.139 C 96.755,190.513 96.53,189.985 96.08,189.555 C 95.63,189.125 95.043,188.91 94.32,188.91 C 93.554,188.91 92.943,189.139 92.484,189.598 C 92.025,190.056 91.793,190.692 91.787,191.503 L 90.162,191.331 C 90.273,190.116 90.693,189.189 91.422,188.552 C 92.15,187.915 93.128,187.597 94.356,187.597 C 95.595,187.597 96.576,187.94 97.298,188.626 C 98.02,189.312 98.381,190.161 98.381,191.176 C 98.381,191.693 98.275,192.199 98.064,192.697 C 97.853,193.195 97.501,193.719 97.011,194.271 C 96.52,194.822 95.707,195.579 94.571,196.54 C 93.62,197.337 93.009,197.878 92.738,198.161 C 92.467,198.446 92.242,198.731 92.065,199.018 L 98.395,199.018 L 98.395,199.019 z"/></g><g id="g19" transform="matrix(0.95,0,0,0.95,9.015625,6.449525)"><path id="path21" d="M 99.722,187.669 C 99.722,184.817 100.488,182.584 102.02,180.97 C 103.552,179.357 105.53,178.55 107.953,178.55 C 109.54,178.55 110.97,178.929 112.244,179.687 C 113.518,180.445 114.489,181.502 115.158,182.858 C 115.826,184.214 116.16,185.752 116.16,187.47 C 116.16,189.212 115.808,190.772 115.105,192.147 C 114.401,193.523 113.405,194.564 112.115,195.271 C 110.825,195.978 109.434,196.332 107.941,196.332 C 106.323,196.332 104.877,195.941 103.603,195.16 C 102.329,194.379 101.364,193.312 100.707,191.96 C 100.05,190.607 99.722,189.177 99.722,187.669 z M 102.066,187.698 C 102.066,189.768 102.623,191.399 103.737,192.591 C 104.851,193.783 106.249,194.378 107.929,194.378 C 109.641,194.378 111.05,193.776 112.157,192.573 C 113.263,191.37 113.816,189.663 113.816,187.452 C 113.816,186.054 113.58,184.833 113.107,183.79 C 112.634,182.747 111.942,181.938 111.031,181.364 C 110.12,180.79 109.098,180.503 107.965,180.503 C 106.355,180.503 104.969,181.056 103.808,182.161 C 102.647,183.266 102.066,185.112 102.066,187.698 z"/><path id="path23" d="M 119.171,196.034 L 119.171,178.846 L 121.452,178.846 L 121.452,185.909 L 130.343,185.909 L 130.343,178.846 L 132.624,178.846 L 132.624,196.034 L 130.343,196.034 L 130.343,187.94 L 121.452,187.94 L 121.452,196.034 L 119.171,196.034 z"/></g><path id="polygon25" d="M 70.967975,173.91932 L 69.352975,173.91932 L 69.352975,146.79683 L 70.160475,145.98933 L 70.967975,146.79683 L 70.967975,173.91932 z"/><g id="g27" transform="matrix(0.95,0,0,0.95,9.015625,6.449525)"><path id="path29" d="M 95.819,68.619 C 95.819,65.767 96.585,63.534 98.117,61.92 C 99.649,60.307 101.627,59.5 104.05,59.5 C 105.637,59.5 107.067,59.879 108.341,60.637 C 109.615,61.395 110.586,62.452 111.255,63.808 C 111.923,65.164 112.257,66.702 112.257,68.42 C 112.257,70.162 111.905,71.722 111.202,73.097 C 110.498,74.473 109.502,75.514 108.212,76.221 C 106.922,76.928 105.531,77.282 104.038,77.282 C 102.42,77.282 100.974,76.891 99.7,76.11 C 98.426,75.329 97.461,74.262 96.804,72.91 C 96.147,71.558 95.819,70.127 95.819,68.619 z M 98.163,68.648 C 98.163,70.718 98.72,72.349 99.834,73.541 C 100.948,74.733 102.346,75.328 104.026,75.328 C 105.738,75.328 107.147,74.726 108.254,73.523 C 109.36,72.32 109.913,70.613 109.913,68.402 C 109.913,67.004 109.677,65.783 109.204,64.74 C 108.731,63.697 108.039,62.888 107.128,62.314 C 106.217,61.74 105.195,61.453 104.062,61.453 C 102.452,61.453 101.066,62.006 99.905,63.111 C 98.744,64.216 98.163,66.063 98.163,68.648 z"/><path id="path31" d="M 115.268,76.984 L 115.268,59.797 L 117.549,59.797 L 117.549,66.86 L 126.44,66.86 L 126.44,59.797 L 128.721,59.797 L 128.721,76.985 L 126.44,76.985 L 126.44,68.891 L 117.549,68.891 L 117.549,76.985 L 115.268,76.985 L 115.268,76.984 z"/></g><path id="polygon33" d="M 97.852975,69.800275 L 97.852975,71.414325 L 70.967975,71.414325 L 70.160475,70.606825 L 70.967975,69.800275 L 97.852975,69.800275 z"/><g id="g35" transform="matrix(0.95,0,0,0.95,9.015625,6.449525)"><path id="path37" d="M 18,76.984 L 18,59.797 L 20.281,59.797 L 20.281,66.86 L 29.172,66.86 L 29.172,59.797 L 31.453,59.797 L 31.453,76.985 L 29.172,76.985 L 29.172,68.891 L 20.281,68.891 L 20.281,76.985 L 18,76.985 L 18,76.984 z"/></g><path id="polygon39" d="M 40.995475,71.414325 L 40.995475,69.800275 L 69.352975,69.800275 L 70.160475,70.606825 L 69.352975,71.414325 L 40.995475,71.414325 z"/><g id="g41" transform="matrix(0.95,0,0,0.95,9.015625,6.449525)"><path id="path43" d="M 97.35,116.685 L 97.35,99.497 L 99.631,99.497 L 99.631,106.56 L 108.522,106.56 L 108.522,99.497 L 110.803,99.497 L 110.803,116.685 L 108.522,116.685 L 108.522,108.591 L 99.631,108.591 L 99.631,116.685 L 97.35,116.685 z"/></g><path id="polygon45" d="M 99.372975,107.51433 L 99.372975,109.12933 L 70.967975,109.12933 L 70.160475,108.32183 L 70.967975,107.51433 L 99.372975,107.51433 z"/><g id="g47" transform="matrix(0.95,0,0,0.95,9.015625,6.449525)"><path id="path49" d="M 0,116.685 L 0,99.497 L 2.281,99.497 L 2.281,106.56 L 11.172,106.56 L 11.172,99.497 L 13.453,99.497 L 13.453,116.685 L 11.172,116.685 L 11.172,108.591 L 2.281,108.591 L 2.281,116.685 L 0,116.685 z"/><path id="path51" d="M 16.551,108.319 C 16.551,105.467 17.317,103.234 18.849,101.62 C 20.381,100.007 22.359,99.2 24.782,99.2 C 26.369,99.2 27.799,99.579 29.073,100.337 C 30.347,101.095 31.318,102.152 31.987,103.508 C 32.655,104.864 32.989,106.402 32.989,108.12 C 32.989,109.862 32.637,111.422 31.934,112.797 C 31.23,114.173 30.234,115.214 28.944,115.921 C 27.654,116.628 26.263,116.982 24.77,116.982 C 23.152,116.982 21.706,116.591 20.432,115.81 C 19.158,115.029 18.193,113.962 17.536,112.61 C 16.879,111.258 16.551,109.827 16.551,108.319 z M 18.895,108.349 C 18.895,110.419 19.452,112.05 20.566,113.242 C 21.68,114.434 23.078,115.029 24.758,115.029 C 26.47,115.029 27.879,114.427 28.986,113.224 C 30.092,112.021 30.645,110.314 30.645,108.103 C 30.645,106.705 30.409,105.484 29.936,104.441 C 29.463,103.398 28.771,102.589 27.86,102.015 C 26.949,101.441 25.927,101.154 24.794,101.154 C 23.184,101.154 21.798,101.707 20.637,102.812 C 19.476,103.917 18.895,105.763 18.895,108.349 z"/></g><path id="polygon53" d="M 42.420475,109.12933 L 42.420475,107.51433 L 69.352975,107.51433 L 70.160475,108.32183 L 69.352975,109.12933 L 42.420475,109.12933 z"/><g id="g55" transform="matrix(0.95,0,0,0.95,9.015625,6.449525)"><path id="path57" d="M 95.819,147.969 C 95.819,145.117 96.585,142.884 98.117,141.27 C 99.649,139.657 101.627,138.85 104.05,138.85 C 105.637,138.85 107.067,139.229 108.341,139.987 C 109.615,140.745 110.586,141.802 111.255,143.158 C 111.923,144.514 112.257,146.052 112.257,147.77 C 112.257,149.512 111.905,151.072 111.202,152.447 C 110.498,153.823 109.502,154.864 108.212,155.571 C 106.922,156.278 105.531,156.632 104.038,156.632 C 102.42,156.632 100.974,156.241 99.7,155.46 C 98.426,154.679 97.461,153.612 96.804,152.26 C 96.147,150.907 95.819,149.477 95.819,147.969 z M 98.163,147.998 C 98.163,150.068 98.72,151.699 99.834,152.891 C 100.948,154.083 102.346,154.678 104.026,154.678 C 105.738,154.678 107.147,154.076 108.254,152.873 C 109.36,151.67 109.913,149.963 109.913,147.752 C 109.913,146.354 109.677,145.133 109.204,144.09 C 108.731,143.047 108.039,142.238 107.128,141.664 C 106.217,141.09 105.195,140.803 104.062,140.803 C 102.452,140.803 101.066,141.356 99.905,142.461 C 98.744,143.566 98.163,145.412 98.163,147.998 z"/><path id="path59" d="M 115.268,156.334 L 115.268,139.146 L 117.549,139.146 L 117.549,146.209 L 126.44,146.209 L 126.44,139.146 L 128.721,139.146 L 128.721,156.334 L 126.44,156.334 L 126.44,148.24 L 117.549,148.24 L 117.549,156.334 L 115.268,156.334 z"/></g><path id="polygon61" d="M 97.852975,145.18183 L 97.852975,146.79683 L 70.967975,146.79683 L 70.160475,145.98933 L 70.967975,145.18183 L 97.852975,145.18183 z"/><g id="g63" transform="matrix(0.95,0,0,0.95,9.015625,6.449525)"><path id="path65" d="M 18,156.334 L 18,139.146 L 20.281,139.146 L 20.281,146.209 L 29.172,146.209 L 29.172,139.146 L 31.453,139.146 L 31.453,156.334 L 29.172,156.334 L 29.172,148.24 L 20.281,148.24 L 20.281,156.334 L 18,156.334 z"/></g><path id="polygon67" d="M 40.995475,146.79683 L 40.995475,145.18183 L 69.352975,145.18183 L 70.160475,145.98933 L 69.352975,146.79683 L 40.995475,146.79683 z"/><g id="g69" transform="matrix(0.95,0,0,0.95,9.015625,6.449525)"><path id="path71" d="M 21.819,9.119 C 21.819,6.267 22.585,4.034 24.117,2.42 C 25.649,0.807 27.626,0 30.049,0 C 31.636,0 33.066,0.379 34.34,1.137 C 35.614,1.895 36.585,2.952 37.254,4.308 C 37.922,5.664 38.256,7.202 38.256,8.92 C 38.256,10.662 37.904,12.222 37.201,13.597 C 36.497,14.973 35.501,16.014 34.211,16.721 C 32.921,17.428 31.53,17.782 30.037,17.782 C 28.419,17.782 26.973,17.391 25.699,16.61 C 24.425,15.829 23.46,14.762 22.803,13.41 C 22.147,12.058 21.819,10.627 21.819,9.119 z M 24.163,9.148 C 24.163,11.218 24.72,12.849 25.834,14.041 C 26.948,15.233 28.346,15.828 30.026,15.828 C 31.738,15.828 33.147,15.226 34.254,14.023 C 35.36,12.82 35.913,11.113 35.913,8.902 C 35.913,7.504 35.677,6.283 35.204,5.24 C 34.731,4.197 34.039,3.388 33.128,2.814 C 32.217,2.24 31.195,1.953 30.062,1.953 C 28.452,1.953 27.066,2.506 25.905,3.611 C 24.744,4.716 24.163,6.563 24.163,9.148 z"/></g><path id="polygon73" d="M 44.937975,22.537775 L 45.745475,21.159325 L 70.587975,35.456825 L 69.780475,36.881825 L 44.937975,22.537775 z"/><path id="polygon75" d="M 47.740475,17.644325 L 48.547975,16.266825 L 73.390475,30.564325 L 72.582975,31.989325 L 47.740475,17.644325 z"/><g id="g77" transform="matrix(0.95,0,0,0.95,9.015625,6.449525)"><path id="path79" d="M 92.05,17.484 L 92.05,0.297 L 94.331,0.297 L 94.331,7.36 L 103.222,7.36 L 103.222,0.297 L 105.503,0.297 L 105.503,17.485 L 103.222,17.485 L 103.222,9.391 L 94.331,9.391 L 94.331,17.485 L 92.05,17.485 L 92.05,17.484 z"/></g><path id="polygon81" d="M 92.722975,18.975275 L 93.530475,20.351825 L 70.967975,33.366825 L 69.352975,32.464325 L 92.722975,18.975275 z"/><path id="polygon83" d="M 287.56797,69.800275 L 286.76047,70.606825 L 285.95297,69.800275 L 285.95297,32.464325 L 287.56797,33.366825 L 287.56797,69.800275 z"/><path id="polygon85" d="M 287.56797,107.51433 L 286.76047,108.32183 L 285.95297,107.51433 L 285.95297,71.414325 L 286.76047,70.606825 L 287.56797,71.414325 L 287.56797,107.51433 z"/><path id="polygon87" d="M 287.56797,145.18183 L 286.76047,145.98933 L 285.95297,145.18183 L 285.95297,109.12933 L 286.76047,108.32183 L 287.56797,109.12933 L 287.56797,145.18183 z"/><g id="g89" transform="matrix(0.95,0,0,0.95,9.015625,6.449525)"><path id="path91" d="M 297.856,190.007 L 300.137,190.581 C 299.661,192.451 298.804,193.877 297.568,194.858 C 296.331,195.84 294.818,196.331 293.031,196.331 C 291.181,196.331 289.677,195.954 288.518,195.199 C 287.359,194.444 286.477,193.352 285.872,191.921 C 285.267,190.49 284.965,188.954 284.965,187.312 C 284.965,185.521 285.306,183.959 285.989,182.626 C 286.671,181.292 287.642,180.28 288.903,179.588 C 290.163,178.896 291.549,178.55 293.063,178.55 C 294.78,178.55 296.223,178.988 297.393,179.864 C 298.564,180.741 299.379,181.973 299.839,183.561 L 297.605,184.088 C 297.208,182.838 296.629,181.928 295.874,181.358 C 295.117,180.788 294.165,180.503 293.019,180.503 C 291.701,180.503 290.599,180.819 289.713,181.452 C 288.827,182.085 288.206,182.934 287.847,184.001 C 287.488,185.068 287.309,186.167 287.309,187.3 C 287.309,188.761 287.521,190.036 287.947,191.126 C 288.371,192.216 289.032,193.03 289.928,193.569 C 290.824,194.108 291.795,194.378 292.839,194.378 C 294.11,194.378 295.186,194.011 296.067,193.276 C 296.948,192.541 297.545,191.452 297.856,190.007 z"/><path id="path93" d="M 303.032,196.034 L 303.032,178.846 L 305.313,178.846 L 305.313,185.909 L 314.204,185.909 L 314.204,178.846 L 316.485,178.846 L 316.485,196.034 L 314.204,196.034 L 314.204,187.94 L 305.313,187.94 L 305.313,196.034 L 303.032,196.034 z"/></g><g id="g95" transform="matrix(0.95,0,0,0.95,9.015625,6.449525)"><path id="path97" d="M 326.395,199.019 L 326.395,200.535 L 317.864,200.535 C 317.852,200.154 317.915,199.788 318.05,199.435 C 318.269,198.855 318.618,198.285 319.099,197.723 C 319.58,197.161 320.269,196.512 321.169,195.775 C 322.564,194.623 323.511,193.712 324.009,193.042 C 324.507,192.372 324.755,191.738 324.755,191.139 C 324.755,190.513 324.53,189.985 324.08,189.555 C 323.63,189.125 323.044,188.91 322.319,188.91 C 321.553,188.91 320.942,189.139 320.483,189.598 C 320.024,190.056 319.792,190.692 319.786,191.503 L 318.161,191.331 C 318.272,190.116 318.692,189.189 319.421,188.552 C 320.15,187.915 321.128,187.597 322.355,187.597 C 323.594,187.597 324.576,187.94 325.297,188.626 C 326.019,189.312 326.38,190.161 326.38,191.176 C 326.38,191.693 326.275,192.199 326.064,192.697 C 325.852,193.195 325.501,193.719 325.011,194.271 C 324.519,194.822 323.706,195.579 322.57,196.54 C 321.62,197.337 321.009,197.878 320.738,198.161 C 320.467,198.446 320.242,198.731 320.064,199.018 L 326.395,199.018 L 326.395,199.019 z"/></g><g id="g99" transform="matrix(0.95,0,0,0.95,9.015625,6.449525)"><path id="path101" d="M 327.723,187.669 C 327.723,184.817 328.489,182.584 330.021,180.97 C 331.553,179.357 333.531,178.55 335.954,178.55 C 337.541,178.55 338.972,178.929 340.245,179.687 C 341.518,180.445 342.49,181.502 343.159,182.858 C 343.827,184.214 344.161,185.752 344.161,187.47 C 344.161,189.212 343.809,190.772 343.106,192.147 C 342.402,193.523 341.405,194.564 340.116,195.271 C 338.826,195.978 337.434,196.332 335.942,196.332 C 334.324,196.332 332.878,195.941 331.604,195.16 C 330.33,194.379 329.365,193.312 328.708,191.96 C 328.051,190.607 327.723,189.177 327.723,187.669 z M 330.066,187.698 C 330.066,189.768 330.623,191.399 331.737,192.591 C 332.851,193.783 334.249,194.378 335.929,194.378 C 337.641,194.378 339.05,193.776 340.157,192.573 C 341.264,191.37 341.816,189.663 341.816,187.452 C 341.816,186.054 341.58,184.833 341.107,183.79 C 340.633,182.747 339.941,181.938 339.031,181.364 C 338.121,180.79 337.098,180.503 335.965,180.503 C 334.355,180.503 332.969,181.056 331.808,182.161 C 330.647,183.266 330.066,185.112 330.066,187.698 z"/><path id="path103" d="M 347.172,196.034 L 347.172,178.846 L 349.453,178.846 L 349.453,185.909 L 358.344,185.909 L 358.344,178.846 L 360.625,178.846 L 360.625,196.034 L 358.344,196.034 L 358.344,187.94 L 349.453,187.94 L 349.453,196.034 L 347.172,196.034 z"/></g><path id="polygon105" d="M 287.56797,173.91932 L 285.95297,173.91932 L 285.95297,146.79683 L 286.76047,145.98933 L 287.56797,146.79683 L 287.56797,173.91932 z"/><g id="g107" transform="matrix(0.95,0,0,0.95,9.015625,6.449525)"><path id="path109" d="M 325.35,76.984 L 325.35,59.797 L 327.631,59.797 L 327.631,66.86 L 336.522,66.86 L 336.522,59.797 L 338.803,59.797 L 338.803,76.985 L 336.522,76.985 L 336.522,68.891 L 327.631,68.891 L 327.631,76.985 L 325.35,76.985 L 325.35,76.984 z"/></g><path id="polygon111" d="M 315.97297,69.800275 L 315.97297,71.414325 L 287.56797,71.414325 L 286.76047,70.606825 L 287.56797,69.800275 L 315.97297,69.800275 z"/><g id="g113" transform="matrix(0.95,0,0,0.95,9.015625,6.449525)"><path id="path115" d="M 228,76.984 L 228,59.797 L 230.281,59.797 L 230.281,66.86 L 239.172,66.86 L 239.172,59.797 L 241.453,59.797 L 241.453,76.985 L 239.172,76.985 L 239.172,68.891 L 230.281,68.891 L 230.281,76.985 L 228,76.985 L 228,76.984 z"/><path id="path117" d="M 244.551,68.619 C 244.551,65.767 245.317,63.534 246.849,61.92 C 248.381,60.307 250.359,59.5 252.782,59.5 C 254.369,59.5 255.8,59.879 257.073,60.637 C 258.346,61.395 259.318,62.452 259.987,63.808 C 260.655,65.164 260.989,66.702 260.989,68.42 C 260.989,70.162 260.637,71.722 259.934,73.097 C 259.23,74.473 258.233,75.514 256.944,76.221 C 255.654,76.928 254.262,77.282 252.77,77.282 C 251.152,77.282 249.706,76.891 248.432,76.11 C 247.158,75.329 246.193,74.262 245.536,72.91 C 244.879,71.558 244.551,70.127 244.551,68.619 z M 246.895,68.648 C 246.895,70.718 247.452,72.349 248.566,73.541 C 249.68,74.733 251.078,75.328 252.758,75.328 C 254.47,75.328 255.879,74.726 256.986,73.523 C 258.093,72.32 258.645,70.613 258.645,68.402 C 258.645,67.004 258.409,65.783 257.936,64.74 C 257.462,63.697 256.77,62.888 255.86,62.314 C 254.95,61.74 253.927,61.453 252.794,61.453 C 251.184,61.453 249.798,62.006 248.637,63.111 C 247.476,64.216 246.895,66.063 246.895,68.648 z"/></g><path id="polygon119" d="M 259.01952,71.414325 L 259.01952,69.800275 L 285.95297,69.800275 L 286.76047,70.606825 L 285.95297,71.414325 L 259.01952,71.414325 z"/><g id="g121" transform="matrix(0.95,0,0,0.95,9.015625,6.449525)"><path id="path123" d="M 323.818,108.319 C 323.818,105.467 324.584,103.234 326.117,101.62 C 327.648,100.007 329.627,99.2 332.049,99.2 C 333.637,99.2 335.067,99.579 336.34,100.337 C 337.614,101.095 338.586,102.152 339.254,103.508 C 339.922,104.864 340.256,106.402 340.256,108.12 C 340.256,109.862 339.904,111.422 339.201,112.797 C 338.498,114.173 337.501,115.214 336.211,115.921 C 334.922,116.628 333.53,116.982 332.037,116.982 C 330.42,116.982 328.973,116.591 327.699,115.81 C 326.425,115.029 325.461,113.962 324.803,112.61 C 324.146,111.258 323.818,109.827 323.818,108.319 z M 326.162,108.349 C 326.162,110.419 326.719,112.05 327.834,113.242 C 328.947,114.433 330.346,115.029 332.025,115.029 C 333.738,115.029 335.146,114.427 336.254,113.224 C 337.359,112.021 337.912,110.314 337.912,108.103 C 337.912,106.705 337.676,105.484 337.203,104.441 C 336.73,103.398 336.038,102.589 335.127,102.015 C 334.217,101.441 333.195,101.154 332.061,101.154 C 330.452,101.154 329.065,101.707 327.905,102.812 C 326.742,103.917 326.162,105.763 326.162,108.349 z"/><path id="path125" d="M 343.268,116.685 L 343.268,99.497 L 345.549,99.497 L 345.549,106.56 L 354.44,106.56 L 354.44,99.497 L 356.721,99.497 L 356.721,116.685 L 354.44,116.685 L 354.44,108.591 L 345.549,108.591 L 345.549,116.685 L 343.268,116.685 z"/></g><path id="polygon127" d="M 314.45297,107.51433 L 314.45297,109.12933 L 287.56797,109.12933 L 286.76047,108.32183 L 287.56797,107.51433 L 314.45297,107.51433 z"/><g id="g129" transform="matrix(0.95,0,0,0.95,9.015625,6.449525)"><path id="path131" d="M 246,116.685 L 246,99.497 L 248.281,99.497 L 248.281,106.56 L 257.172,106.56 L 257.172,99.497 L 259.453,99.497 L 259.453,116.685 L 257.172,116.685 L 257.172,108.591 L 248.281,108.591 L 248.281,116.685 L 246,116.685 z"/></g><path id="polygon133" d="M 257.59452,109.12933 L 257.59452,107.51433 L 285.95297,107.51433 L 286.76047,108.32183 L 285.95297,109.12933 L 257.59452,109.12933 z"/><g id="g135" transform="matrix(0.95,0,0,0.95,9.015625,6.449525)"><path id="path137" d="M 325.35,156.334 L 325.35,139.146 L 327.631,139.146 L 327.631,146.209 L 336.522,146.209 L 336.522,139.146 L 338.803,139.146 L 338.803,156.334 L 336.522,156.334 L 336.522,148.24 L 327.631,148.24 L 327.631,156.334 L 325.35,156.334 z"/></g><path id="polygon139" d="M 315.97297,145.18183 L 315.97297,146.79683 L 287.56797,146.79683 L 286.76047,145.98933 L 287.56797,145.18183 L 315.97297,145.18183 z"/><g id="g141" transform="matrix(0.95,0,0,0.95,9.015625,6.449525)"><path id="path143" d="M 228,156.334 L 228,139.146 L 230.281,139.146 L 230.281,146.209 L 239.172,146.209 L 239.172,139.146 L 241.453,139.146 L 241.453,156.334 L 239.172,156.334 L 239.172,148.24 L 230.281,148.24 L 230.281,156.334 L 228,156.334 z"/><path id="path145" d="M 244.551,147.969 C 244.551,145.117 245.317,142.884 246.849,141.27 C 248.381,139.657 250.359,138.85 252.782,138.85 C 254.369,138.85 255.8,139.229 257.073,139.987 C 258.346,140.745 259.318,141.802 259.987,143.158 C 260.655,144.514 260.989,146.052 260.989,147.77 C 260.989,149.512 260.637,151.072 259.934,152.447 C 259.23,153.823 258.233,154.864 256.944,155.571 C 255.654,156.278 254.262,156.632 252.77,156.632 C 251.152,156.632 249.706,156.241 248.432,155.46 C 247.158,154.679 246.193,153.612 245.536,152.26 C 244.879,150.907 244.551,149.477 244.551,147.969 z M 246.895,147.998 C 246.895,150.068 247.452,151.699 248.566,152.891 C 249.68,154.083 251.078,154.678 252.758,154.678 C 254.47,154.678 255.879,154.076 256.986,152.873 C 258.093,151.67 258.645,149.963 258.645,147.752 C 258.645,146.354 258.409,145.133 257.936,144.09 C 257.462,143.047 256.77,142.238 255.86,141.664 C 254.95,141.09 253.927,140.803 252.794,140.803 C 251.184,140.803 249.798,141.356 248.637,142.461 C 247.476,143.566 246.895,145.412 246.895,147.998 z"/></g><path id="polygon147" d="M 259.01952,146.79683 L 259.01952,145.18183 L 285.95297,145.18183 L 286.76047,145.98933 L 285.95297,146.79683 L 259.01952,146.79683 z"/><g id="g149" transform="matrix(0.95,0,0,0.95,9.015625,6.449525)"><path id="path151" d="M 249.818,9.119 C 249.818,6.267 250.584,4.034 252.117,2.42 C 253.648,0.807 255.627,0 258.049,0 C 259.637,0 261.067,0.379 262.34,1.137 C 263.614,1.895 264.586,2.952 265.254,4.308 C 265.922,5.664 266.256,7.202 266.256,8.92 C 266.256,10.662 265.904,12.222 265.201,13.597 C 264.498,14.973 263.501,16.014 262.211,16.721 C 260.922,17.428 259.53,17.782 258.037,17.782 C 256.42,17.782 254.973,17.391 253.699,16.61 C 252.425,15.829 251.461,14.762 250.803,13.41 C 250.146,12.058 249.818,10.627 249.818,9.119 z M 252.162,9.148 C 252.162,11.218 252.719,12.849 253.834,14.041 C 254.947,15.232 256.346,15.828 258.025,15.828 C 259.738,15.828 261.146,15.226 262.254,14.023 C 263.359,12.82 263.912,11.113 263.912,8.902 C 263.912,7.504 263.676,6.283 263.203,5.24 C 262.73,4.197 262.038,3.388 261.127,2.814 C 260.217,2.24 259.195,1.953 258.061,1.953 C 256.452,1.953 255.065,2.506 253.905,3.611 C 252.742,4.717 252.162,6.563 252.162,9.148 z"/></g><path id="polygon153" d="M 261.53797,22.537775 L 262.34452,21.159325 L 287.18797,35.456825 L 286.38047,36.881825 L 261.53797,22.537775 z"/><path id="polygon155" d="M 264.34047,17.644325 L 265.14797,16.266825 L 289.99047,30.564325 L 289.18202,31.989325 L 264.34047,17.644325 z"/><g id="g157" transform="matrix(0.95,0,0,0.95,9.015625,6.449525)"><path id="path159" d="M 320.051,17.484 L 320.051,0.297 L 322.332,0.297 L 322.332,7.36 L 331.223,7.36 L 331.223,0.297 L 333.504,0.297 L 333.504,17.485 L 331.223,17.485 L 331.223,9.391 L 322.332,9.391 L 322.332,17.485 L 320.051,17.485 L 320.051,17.484 z"/></g><path id="polygon161" d="M 309.32297,18.975275 L 310.13047,20.351825 L 287.56797,33.366825 L 285.95297,32.464325 L 309.32297,18.975275 z"/><g id="g163" transform="matrix(0.95,0,0,0.95,9.015625,6.449525)"><path id="path165" d="M 16.822,252.935 L 16.822,235.747 L 22.733,235.747 C 24.068,235.747 25.086,235.829 25.789,235.993 C 26.772,236.22 27.611,236.63 28.306,237.224 C 29.211,237.99 29.888,238.969 30.337,240.161 C 30.785,241.353 31.01,242.716 31.01,244.247 C 31.01,245.552 30.858,246.709 30.553,247.718 C 30.249,248.726 29.858,249.56 29.383,250.221 C 28.906,250.881 28.386,251.402 27.82,251.781 C 27.254,252.16 26.571,252.447 25.772,252.642 C 24.973,252.837 24.053,252.935 23.015,252.935 L 16.822,252.935 L 16.822,252.935 z M 19.104,250.903 L 22.763,250.903 C 23.893,250.903 24.779,250.798 25.422,250.587 C 26.065,250.376 26.577,250.079 26.959,249.696 C 27.497,249.157 27.916,248.432 28.216,247.522 C 28.516,246.612 28.666,245.508 28.666,244.211 C 28.666,242.414 28.372,241.033 27.783,240.068 C 27.195,239.103 26.48,238.457 25.638,238.129 C 25.03,237.895 24.052,237.777 22.704,237.777 L 19.103,237.777 L 19.103,250.903 L 19.104,250.903 z"/><path id="path167" d="M 33.045,247.778 L 33.045,245.653 L 39.545,245.653 L 39.545,247.778 L 33.045,247.778 z"/><path id="path169" d="M 40.393,252.935 L 47.033,244.021 L 41.175,235.748 L 43.878,235.748 L 47.02,240.15 C 47.67,241.062 48.133,241.764 48.408,242.254 C 48.783,241.646 49.231,241 49.752,240.318 L 53.196,235.747 L 55.675,235.747 L 49.708,243.917 L 56.144,252.935 L 53.346,252.935 L 49.007,246.807 C 48.76,246.458 48.523,246.106 48.296,245.747 C 47.919,246.335 47.646,246.744 47.477,246.975 L 43.125,252.935 L 40.393,252.935 L 40.393,252.935 z"/><path id="path171" d="M 57.779,257.724 L 57.545,255.747 C 58.006,255.872 58.409,255.935 58.753,255.935 C 59.223,255.935 59.598,255.857 59.879,255.701 C 60.161,255.545 60.392,255.326 60.571,255.045 C 60.704,254.833 60.919,254.31 61.217,253.474 C 61.256,253.357 61.319,253.184 61.405,252.957 L 56.671,240.482 L 58.926,240.482 L 61.527,247.679 C 61.865,248.592 62.167,249.552 62.433,250.558 C 62.683,249.603 62.976,248.663 63.313,247.743 L 65.968,240.482 L 68.077,240.482 L 63.36,253.152 C 62.851,254.517 62.455,255.456 62.174,255.97 C 61.798,256.664 61.367,257.173 60.882,257.496 C 60.396,257.819 59.817,257.981 59.143,257.981 C 58.734,257.981 58.28,257.896 57.779,257.724 z"/><path id="path173" d="M 69.826,252.935 L 69.826,235.747 L 71.935,235.747 L 71.935,252.935 L 69.826,252.935 z"/><path id="path175" d="M 74.424,246.708 C 74.424,244.401 75.065,242.694 76.345,241.584 C 77.415,240.661 78.72,240.2 80.258,240.2 C 81.968,240.2 83.366,240.761 84.452,241.883 C 85.538,243.005 86.08,244.555 86.08,246.532 C 86.08,248.135 85.84,249.395 85.359,250.313 C 84.879,251.232 84.18,251.945 83.262,252.454 C 82.344,252.962 81.343,253.216 80.257,253.216 C 78.515,253.216 77.108,252.657 76.034,251.539 C 74.96,250.421 74.424,248.812 74.424,246.708 z M 76.596,246.71 C 76.596,248.305 76.943,249.498 77.637,250.292 C 78.331,251.085 79.205,251.481 80.258,251.481 C 81.303,251.481 82.173,251.083 82.867,250.286 C 83.561,249.488 83.908,248.273 83.908,246.64 C 83.908,245.101 83.559,243.934 82.861,243.14 C 82.163,242.347 81.295,241.951 80.257,241.951 C 79.204,241.951 78.33,242.346 77.636,243.135 C 76.942,243.924 76.596,245.116 76.596,246.71 z"/><path id="path177" d="M 87.709,249.216 L 89.803,248.888 C 89.92,249.726 90.246,250.367 90.781,250.813 C 91.316,251.259 92.064,251.482 93.024,251.482 C 93.992,251.482 94.711,251.285 95.179,250.89 C 95.647,250.494 95.882,250.031 95.882,249.499 C 95.882,249.022 95.676,248.646 95.264,248.373 C 94.976,248.185 94.259,247.946 93.112,247.657 C 91.568,247.266 90.495,246.928 89.897,246.643 C 89.297,246.358 88.843,245.962 88.534,245.458 C 88.225,244.954 88.07,244.396 88.07,243.787 C 88.07,243.232 88.197,242.719 88.451,242.245 C 88.705,241.772 89.051,241.38 89.488,241.066 C 89.816,240.824 90.263,240.619 90.83,240.451 C 91.397,240.283 92.004,240.199 92.652,240.199 C 93.629,240.199 94.486,240.34 95.224,240.622 C 95.962,240.904 96.507,241.286 96.859,241.768 C 97.211,242.25 97.453,242.893 97.586,243.7 L 95.523,243.981 C 95.429,243.338 95.158,242.836 94.71,242.475 C 94.262,242.115 93.628,241.934 92.809,241.934 C 91.842,241.934 91.151,242.094 90.738,242.414 C 90.324,242.735 90.118,243.11 90.118,243.541 C 90.118,243.814 90.204,244.061 90.376,244.279 C 90.547,244.507 90.816,244.694 91.183,244.842 C 91.393,244.92 92.014,245.101 93.044,245.382 C 94.533,245.78 95.573,246.107 96.163,246.361 C 96.753,246.615 97.216,246.985 97.552,247.469 C 97.888,247.953 98.056,248.556 98.056,249.275 C 98.056,249.978 97.851,250.641 97.44,251.262 C 97.029,251.884 96.437,252.365 95.663,252.704 C 94.889,253.043 94.014,253.214 93.036,253.214 C 91.418,253.214 90.184,252.878 89.336,252.205 C 88.485,251.534 87.943,250.538 87.709,249.216 z"/><path id="path179" d="M 109.061,248.919 L 111.249,249.2 C 110.905,250.472 110.269,251.46 109.339,252.162 C 108.409,252.864 107.222,253.216 105.778,253.216 C 103.958,253.216 102.515,252.655 101.449,251.533 C 100.384,250.411 99.85,248.839 99.85,246.813 C 99.85,244.718 100.389,243.092 101.466,241.935 C 102.544,240.778 103.942,240.2 105.66,240.2 C 107.323,240.2 108.682,240.766 109.737,241.9 C 110.792,243.034 111.319,244.629 111.319,246.684 C 111.319,246.809 111.315,246.997 111.307,247.247 L 102.022,247.247 C 102.1,248.616 102.487,249.663 103.181,250.391 C 103.876,251.119 104.743,251.482 105.782,251.482 C 106.554,251.482 107.215,251.279 107.761,250.871 C 108.307,250.463 108.74,249.813 109.061,248.919 z M 102.146,245.513 L 109.084,245.513 C 108.99,244.465 108.725,243.679 108.289,243.155 C 107.618,242.342 106.748,241.935 105.68,241.935 C 104.713,241.935 103.9,242.259 103.241,242.909 C 102.582,243.559 102.217,244.426 102.146,245.513 z"/></g><g id="g181" transform="matrix(0.95,0,0,0.95,9.015625,6.449525)"><path id="path183" d="M 246.729,252.935 L 246.729,235.747 L 249.01,235.747 L 249.01,250.903 L 257.448,250.903 L 257.448,252.934 L 246.729,252.934 L 246.729,252.935 z"/><path id="path185" d="M 259.061,247.778 L 259.061,245.653 L 265.561,245.653 L 265.561,247.778 L 259.061,247.778 z"/><path id="path187" d="M 266.408,252.935 L 273.048,244.021 L 267.19,235.748 L 269.893,235.748 L 273.035,240.15 C 273.685,241.062 274.148,241.764 274.423,242.254 C 274.798,241.646 275.246,241 275.767,240.318 L 279.211,235.747 L 281.69,235.747 L 275.723,243.917 L 282.159,252.935 L 279.36,252.935 L 275.021,246.807 C 274.774,246.458 274.538,246.106 274.309,245.747 C 273.932,246.335 273.659,246.744 273.491,246.975 L 269.139,252.935 L 266.408,252.935 L 266.408,252.935 z"/><path id="path189" d="M 283.795,257.724 L 283.561,255.747 C 284.022,255.872 284.425,255.935 284.769,255.935 C 285.239,255.935 285.614,255.857 285.895,255.701 C 286.176,255.545 286.408,255.326 286.587,255.045 C 286.72,254.833 286.935,254.31 287.233,253.474 C 287.272,253.357 287.335,253.184 287.421,252.957 L 282.687,240.482 L 284.942,240.482 L 287.543,247.679 C 287.881,248.592 288.183,249.552 288.449,250.558 C 288.699,249.603 288.992,248.663 289.329,247.743 L 291.984,240.482 L 294.093,240.482 L 289.376,253.152 C 288.866,254.517 288.471,255.456 288.189,255.97 C 287.813,256.664 287.381,257.173 286.897,257.496 C 286.411,257.819 285.832,257.981 285.158,257.981 C 284.75,257.981 284.296,257.896 283.795,257.724 z"/><path id="path191" d="M 295.842,252.935 L 295.842,235.747 L 297.951,235.747 L 297.951,252.935 L 295.842,252.935 z"/><path id="path193" d="M 300.439,246.708 C 300.439,244.401 301.08,242.694 302.36,241.584 C 303.43,240.661 304.734,240.2 306.273,240.2 C 307.983,240.2 309.381,240.761 310.466,241.883 C 311.552,243.005 312.095,244.555 312.095,246.532 C 312.095,248.135 311.855,249.395 311.374,250.313 C 310.894,251.232 310.194,251.945 309.277,252.454 C 308.359,252.962 307.358,253.216 306.272,253.216 C 304.53,253.216 303.123,252.657 302.049,251.539 C 300.977,250.421 300.439,248.812 300.439,246.708 z M 302.611,246.71 C 302.611,248.305 302.958,249.498 303.652,250.292 C 304.346,251.085 305.22,251.481 306.273,251.481 C 307.318,251.481 308.188,251.083 308.882,250.286 C 309.575,249.488 309.923,248.273 309.923,246.64 C 309.923,245.101 309.573,243.934 308.876,243.14 C 308.178,242.347 307.31,241.951 306.272,241.951 C 305.219,241.951 304.345,242.346 303.651,243.135 C 302.958,243.924 302.611,245.116 302.611,246.71 z"/><path id="path195" d="M 313.725,249.216 L 315.819,248.888 C 315.936,249.726 316.262,250.367 316.797,250.813 C 317.332,251.259 318.079,251.482 319.04,251.482 C 320.008,251.482 320.727,251.285 321.194,250.89 C 321.663,250.494 321.897,250.031 321.897,249.499 C 321.897,249.022 321.691,248.646 321.279,248.373 C 320.991,248.185 320.274,247.946 319.128,247.657 C 317.583,247.266 316.511,246.928 315.912,246.643 C 315.312,246.358 314.858,245.962 314.549,245.458 C 314.24,244.954 314.085,244.396 314.085,243.787 C 314.085,243.232 314.212,242.719 314.466,242.245 C 314.72,241.772 315.066,241.38 315.503,241.066 C 315.831,240.824 316.278,240.619 316.845,240.451 C 317.412,240.283 318.019,240.199 318.667,240.199 C 319.644,240.199 320.501,240.34 321.239,240.622 C 321.977,240.904 322.522,241.286 322.874,241.768 C 323.226,242.25 323.468,242.893 323.601,243.7 L 321.538,243.981 C 321.444,243.338 321.173,242.836 320.725,242.475 C 320.277,242.115 319.643,241.934 318.824,241.934 C 317.857,241.934 317.166,242.094 316.753,242.414 C 316.34,242.735 316.133,243.11 316.133,243.541 C 316.133,243.814 316.219,244.061 316.391,244.279 C 316.562,244.507 316.831,244.694 317.198,244.842 C 317.409,244.92 318.029,245.101 319.059,245.382 C 320.548,245.78 321.588,246.107 322.178,246.361 C 322.768,246.615 323.231,246.985 323.567,247.469 C 323.903,247.953 324.071,248.556 324.071,249.275 C 324.071,249.978 323.866,250.641 323.456,251.262 C 323.045,251.884 322.452,252.365 321.679,252.704 C 320.906,253.043 320.03,253.214 319.052,253.214 C 317.434,253.214 316.2,252.878 315.352,252.205 C 314.504,251.532 313.959,250.538 313.725,249.216 z"/><path id="path197" d="M 335.076,248.919 L 337.264,249.2 C 336.92,250.472 336.284,251.46 335.354,252.162 C 334.425,252.864 333.238,253.216 331.793,253.216 C 329.973,253.216 328.53,252.655 327.464,251.533 C 326.399,250.411 325.865,248.839 325.865,246.813 C 325.865,244.718 326.404,243.092 327.481,241.935 C 328.559,240.778 329.957,240.2 331.675,240.2 C 333.338,240.2 334.697,240.766 335.751,241.9 C 336.806,243.034 337.333,244.629 337.333,246.684 C 337.333,246.809 337.329,246.997 337.321,247.247 L 328.036,247.247 C 328.114,248.616 328.501,249.663 329.195,250.391 C 329.89,251.119 330.757,251.482 331.796,251.482 C 332.568,251.482 333.229,251.279 333.775,250.871 C 334.322,250.463 334.756,249.813 335.076,248.919 z M 328.162,245.513 L 335.1,245.513 C 335.006,244.465 334.741,243.679 334.305,243.155 C 333.633,242.342 332.764,241.935 331.696,241.935 C 330.729,241.935 329.916,242.259 329.257,242.909 C 328.598,243.559 328.232,244.426 328.162,245.513 z"/></g></svg>