<svg xmlns="http://www.w3.org/2000/svg" xmlns:xlink="http://www.w3.org/1999/xlink" width="456" height="141" x="0" y="0" version="1.1" viewBox="349 288 456 141"><g><g><rect width="456" height="141" x="349" y="288" fill="none" stroke="none"/><rect width="456" height="141" x="349" y="288" fill="none" fill-opacity="1" stroke="none"/><g><g><path fill="none" stroke="#111" stroke-linecap="round" stroke-linejoin="round" stroke-miterlimit="10" stroke-width="1.46" d="M 429.784 320.284 L 429.784 360.284" paint-order="fill stroke markers" transform="scale(1,1)"/></g><g><path fill="none" stroke="#111" stroke-linecap="round" stroke-linejoin="round" stroke-miterlimit="10" stroke-width="1.46" d="M 429.784 360.284 L 464.424 380.31999999999994 M 434.58399999999995 357.5152518432857 L 464.4266313541354 374.77642279627224" paint-order="fill stroke markers" transform="scale(1,1)"/></g><g><path fill="none" stroke="#111" stroke-linecap="round" stroke-linejoin="round" stroke-miterlimit="10" stroke-width="1.46" d="M 464.424 380.31999999999994 L 499.14 360.284" paint-order="fill stroke markers" transform="scale(1,1)"/></g><g><path fill="none" stroke="#111" stroke-linecap="round" stroke-linejoin="round" stroke-miterlimit="10" stroke-width="1.46" d="M 499.14 360.284 L 499.14 320.284 M 494.34 357.5122145295209 L 494.34 323.05578547047907" paint-order="fill stroke markers" transform="scale(1,1)"/></g><g><path fill="none" stroke="#111" stroke-linecap="round" stroke-linejoin="round" stroke-miterlimit="10" stroke-width="1.46" d="M 499.14 320.284 L 464.424 300.248" paint-order="fill stroke markers" transform="scale(1,1)"/></g><g><path fill="none" stroke="#111" stroke-linecap="round" stroke-linejoin="round" stroke-miterlimit="10" stroke-width="1.46" d="M 434.58399999999995 323.0527481567143 L 464.4266313541354 305.7915772037277 M 429.784 320.284 L 464.424 300.248" paint-order="fill stroke markers" transform="scale(1,1)"/></g><g><path fill="none" stroke="#111" stroke-linecap="round" stroke-linejoin="round" stroke-miterlimit="10" stroke-width="1.46" d="M 429.784 320.284 L 395.144 300.31600000000003" paint-order="fill stroke markers" transform="scale(1,1)"/></g><g><path fill="none" stroke="#111" stroke-linecap="round" stroke-linejoin="round" stroke-miterlimit="10" stroke-width="1.46" d="M 395.144 300.31600000000003 L 360.572 320.284 M 395.1463569308781 305.85774606115564 L 365.372 323.0547366661473" paint-order="fill stroke markers" transform="scale(1,1)"/></g><g><path fill="none" stroke="#111" stroke-linecap="round" stroke-linejoin="round" stroke-miterlimit="10" stroke-width="1.46" d="M 360.572 320.284 L 360.572 360.284" paint-order="fill stroke markers" transform="scale(1,1)"/></g><g><path fill="none" stroke="#111" stroke-linecap="round" stroke-linejoin="round" stroke-miterlimit="10" stroke-width="1.46" d="M 360.572 360.284 L 395.144 380.17600000000004 M 365.37200000000007 357.5079814051008 L 395.1463501912802 374.6395148427077" paint-order="fill stroke markers" transform="scale(1,1)"/></g><g><path fill="none" stroke="#111" stroke-linecap="round" stroke-linejoin="round" stroke-miterlimit="10" stroke-width="1.46" d="M 429.784 360.284 L 395.144 380.17600000000004" paint-order="fill stroke markers" transform="scale(1,1)"/></g><g><path fill="none" stroke="#111" stroke-linecap="round" stroke-linejoin="round" stroke-miterlimit="10" stroke-width="1.46" d="M 584.424 320.284 L 584.424 360.284 M 589.2239999999999 323.05194748001395 L 589.2239999999999 357.5163292952001" paint-order="fill stroke markers" transform="scale(1,1)"/></g><g><path fill="none" stroke="#111" stroke-linecap="round" stroke-linejoin="round" stroke-miterlimit="10" stroke-width="1.46" d="M 584.424 360.284 L 619.044 380.324" paint-order="fill stroke markers" transform="scale(1,1)"/></g><g><path fill="none" stroke="#111" stroke-linecap="round" stroke-linejoin="round" stroke-miterlimit="10" stroke-width="1.46" d="M 619.044 380.324 L 653.736 360.284 M 619.0464960044037 374.7792645906436 L 648.9360000000001 357.5134494150483" paint-order="fill stroke markers" transform="scale(1,1)"/></g><g><path fill="none" stroke="#111" stroke-linecap="round" stroke-linejoin="round" stroke-miterlimit="10" stroke-width="1.46" d="M 653.736 360.284 L 653.736 320.284" paint-order="fill stroke markers" transform="scale(1,1)"/></g><g><path fill="none" stroke="#111" stroke-linecap="round" stroke-linejoin="round" stroke-miterlimit="10" stroke-width="1.46" d="M 653.736 320.284 L 619.044 300.248 M 648.9359999999999 323.05482721708086 L 619.0464956310153 305.7924580963333" paint-order="fill stroke markers" transform="scale(1,1)"/></g><g><path fill="none" stroke="#111" stroke-linecap="round" stroke-linejoin="round" stroke-miterlimit="10" stroke-width="1.46" d="M 584.424 320.284 L 619.044 300.248" paint-order="fill stroke markers" transform="scale(1,1)"/></g><g><path fill="none" stroke="#111" stroke-linecap="round" stroke-linejoin="round" stroke-miterlimit="10" stroke-width="1.46" d="M 653.736 360.284 L 688.36 380.324" paint-order="fill stroke markers" transform="scale(1,1)"/></g><g><path fill="none" stroke="#111" stroke-linecap="round" stroke-linejoin="round" stroke-miterlimit="10" stroke-width="1.46" d="M 688.36 380.324 L 723.124 360.284 M 688.3648440545728 374.78078425285037 L 718.3240000000002 357.510576994009" paint-order="fill stroke markers" transform="scale(1,1)"/></g><g><path fill="none" stroke="#111" stroke-linecap="round" stroke-linejoin="round" stroke-miterlimit="10" stroke-width="1.46" d="M 723.124 360.284 L 723.124 320.284" paint-order="fill stroke markers" transform="scale(1,1)"/></g><g><path fill="none" stroke="#111" stroke-linecap="round" stroke-linejoin="round" stroke-miterlimit="10" stroke-width="1.46" d="M 723.124 320.284 L 688.36 300.248 M 718.3240000000002 323.0576994945133 L 688.3648433295328 305.7909389649574" paint-order="fill stroke markers" transform="scale(1,1)"/></g><g><path fill="none" stroke="#111" stroke-linecap="round" stroke-linejoin="round" stroke-miterlimit="10" stroke-width="1.46" d="M 653.736 320.284 L 688.36 300.248" paint-order="fill stroke markers" transform="scale(1,1)"/></g><g><path fill="none" stroke="#111" stroke-linecap="round" stroke-linejoin="round" stroke-miterlimit="10" stroke-width="1.46" d="M 723.124 360.284 L 757.74 380.324" paint-order="fill stroke markers" transform="scale(1,1)"/></g><g><path fill="none" stroke="#111" stroke-linecap="round" stroke-linejoin="round" stroke-miterlimit="10" stroke-width="1.46" d="M 757.74 380.324 L 792.436 360.284 M 757.7427733386868 374.7792644588638 L 787.6359999999999 357.51328964065095" paint-order="fill stroke markers" transform="scale(1,1)"/></g><g><path fill="none" stroke="#111" stroke-linecap="round" stroke-linejoin="round" stroke-miterlimit="10" stroke-width="1.46" d="M 792.436 360.284 L 792.436 320.284" paint-order="fill stroke markers" transform="scale(1,1)"/></g><g><path fill="none" stroke="#111" stroke-linecap="round" stroke-linejoin="round" stroke-miterlimit="10" stroke-width="1.46" d="M 792.436 320.284 L 757.74 300.248 M 787.6360000000001 323.05498698351397 L 757.7427729238104 305.79245822808" paint-order="fill stroke markers" transform="scale(1,1)"/></g><g><path fill="none" stroke="#111" stroke-linecap="round" stroke-linejoin="round" stroke-miterlimit="10" stroke-width="1.46" d="M 723.124 320.284 L 757.74 300.248" paint-order="fill stroke markers" transform="scale(1,1)"/></g><g><text x="409" y="408.857" fill="#000" stroke="none" dominant-baseline="alphabetic" font-family="'Times New Roman'" font-size="22.857" font-style="normal" font-weight="400" text-anchor="start" text-decoration="normal" transform="scale(1,1)">萘</text><text x="431.857" y="408.857" fill="#000" stroke="none" dominant-baseline="alphabetic" font-family="'Times New Roman'" font-size="22.857" font-style="normal" font-weight="400" text-anchor="start" text-decoration="normal" transform="scale(1,1)">[</text><text x="439.469" y="408.857" fill="#000" stroke="none" dominant-baseline="alphabetic" font-family="'Times New Roman'" font-size="22.857" font-style="normal" font-weight="400" text-anchor="start" text-decoration="normal" transform="scale(1,1)">nai4</text><text x="478.821" y="408.857" fill="#000" stroke="none" dominant-baseline="alphabetic" font-family="'Times New Roman'" font-size="22.857" font-style="normal" font-weight="400" text-anchor="start" text-decoration="normal" transform="scale(1,1)">]</text></g><g><text x="667.571" y="408.857" fill="#000" stroke="none" dominant-baseline="alphabetic" font-family="'Times New Roman'" font-size="22.857" font-style="normal" font-weight="400" text-anchor="start" text-decoration="normal" transform="scale(1,1)">蒽</text><text x="690.429" y="408.857" fill="#000" stroke="none" dominant-baseline="alphabetic" font-family="'Times New Roman'" font-size="22.857" font-style="normal" font-weight="400" text-anchor="start" text-decoration="normal" transform="scale(1,1)">[</text><text x="698.04" y="408.857" fill="#000" stroke="none" dominant-baseline="alphabetic" font-family="'Times New Roman'" font-size="22.857" font-style="normal" font-weight="400" text-anchor="start" text-decoration="normal" transform="scale(1,1)">en1</text><text x="731.031" y="408.857" fill="#000" stroke="none" dominant-baseline="alphabetic" font-family="'Times New Roman'" font-size="22.857" font-style="normal" font-weight="400" text-anchor="start" text-decoration="normal" transform="scale(1,1)">]</text></g></g></g></g></svg>