<svg viewBox="349 288 456 141"><defs><path id="a" fill="none" d="M349 288h456v141H349z"/></defs><use href="#a"/><use href="#a"/><path fill="none" stroke="#111" stroke-linecap="round" stroke-linejoin="round" stroke-miterlimit="10" stroke-width="1.46" d="M429.784 320.284v40m0 0l34.64 20.036m-29.84-22.805l29.843 17.261m-.003 5.544l34.716-20.036m0 0v-40m-4.8 37.228v-34.456m4.8-2.772l-34.716-20.036m-29.84 22.805l29.843-17.261m-34.643 14.492l34.64-20.036m-34.64 20.036l-34.64-19.968m0 0l-34.572 19.968m34.574-14.426l-29.774 17.197m-4.8-2.771v40m0 0l34.572 19.892m-29.772-22.668l29.774 17.132m34.638-14.356l-34.64 19.892m189.28-59.892v40m4.8-37.232v34.464m-4.8 2.768l34.62 20.04m0 0l34.692-20.04m-34.69 14.495l29.89-17.266m4.8 2.771v-40m0 0l-34.692-20.036m29.892 22.807l-29.89-17.263m-34.622 14.492l34.62-20.036m34.692 60.036l34.624 20.04m0 0l34.764-20.04m-34.76 14.497l29.96-17.27m4.8 2.773v-40m0 0l-34.764-20.036m29.964 22.81l-29.96-17.267m-34.628 14.493l34.624-20.036m34.764 60.036l34.616 20.04m0 0l34.696-20.04m-34.693 14.495l29.893-17.266m4.8 2.771v-40m0 0l-34.696-20.036m29.896 22.807l-29.893-17.263m-34.619 14.492l34.616-20.036" paint-order="fill stroke markers"/><text x="409" y="408.86" dominant-baseline="alphabetic" font-family="'Times New Roman'" font-size="22.86" font-weight="400" text-decoration="normal">萘</text><text x="431.86" y="408.86" dominant-baseline="alphabetic" font-family="'Times New Roman'" font-size="22.86" font-weight="400" text-decoration="normal">[</text><text x="439.47" y="408.86" dominant-baseline="alphabetic" font-family="'Times New Roman'" font-size="22.86" font-weight="400" text-decoration="normal">nai4</text><text x="478.82" y="408.86" dominant-baseline="alphabetic" font-family="'Times New Roman'" font-size="22.86" font-weight="400" text-decoration="normal">]</text><text x="667.57" y="408.86" dominant-baseline="alphabetic" font-family="'Times New Roman'" font-size="22.86" font-weight="400" text-decoration="normal">蒽</text><text x="690.43" y="408.86" dominant-baseline="alphabetic" font-family="'Times New Roman'" font-size="22.86" font-weight="400" text-decoration="normal">[</text><text x="698.04" y="408.86" dominant-baseline="alphabetic" font-family="'Times New Roman'" font-size="22.86" font-weight="400" text-decoration="normal">en1</text><text x="731.03" y="408.86" dominant-baseline="alphabetic" font-family="'Times New Roman'" font-size="22.86" font-weight="400" text-decoration="normal">]</text></svg>