<svg xmlns="http://www.w3.org/2000/svg" xml:space="preserve" overflow="visible" viewBox="0 0 267.88 172.86"><path fill="#ed1c24" d="M14.803 94.877v1.44H6.698q-.017-.542.177-1.045.31-.826.995-1.626.684-.801 1.967-1.85 1.989-1.643 2.698-2.597.71-.955.71-1.808 0-.892-.642-1.505t-1.672-.613q-1.09 0-1.744.654t-.662 1.81l-1.544-.164q.158-1.732 1.197-2.64 1.036-.906 2.786-.907 1.766 0 2.795.978t1.03 2.422q0 .736-.302 1.445-.301.71-1 1.495t-2.318 2.156q-1.356 1.136-1.742 1.54t-.64.814h6.016zm-7.897 44.896 1.5-.208q.26 1.278.88 1.841.623.564 1.527.564 1.074 0 1.804-.734.732-.733.73-1.818.001-1.036-.68-1.707-.678-.672-1.727-.672-.43 0-1.066.167l.168-1.321q.151.017.243.017.96 0 1.73-.5t.77-1.542q0-.825-.562-1.366-.56-.541-1.449-.541-.88 0-1.465.552-.588.554-.754 1.66l-1.499-.268q.276-1.513 1.254-2.345t2.433-.832q1.003 0 1.848.43.843.43 1.292 1.17.446.742.447 1.575a2.57 2.57 0 0 1-.425 1.442q-.426.65-1.261 1.034 1.085.25 1.69 1.04.604.789.605 1.974 0 1.604-1.171 2.718t-2.961 1.116q-1.615 0-2.681-.96-1.07-.96-1.22-2.486m45.58 28.554v-2.924h-5.33v-1.38l5.597-7.941h1.232v7.94h1.647v1.381h-1.647v2.924zm0-4.305v-5.542l-3.852 5.542zm36.928-35.191 1.573-.119q.175 1.147.812 1.723.636.577 1.548.577 1.1 0 1.848-.82t.749-2.175q0-1.289-.718-2.034t-1.901-.745q-.737 0-1.318.338t-.917.879l-1.41-.208 1.188-6.294h6.086v1.44H92.06l-.651 3.288q1.102-.765 2.315-.765 1.603 0 2.706 1.112 1.103 1.11 1.103 2.856 0 1.662-.969 2.873-1.178 1.486-3.216 1.486-1.672 0-2.727-.935-1.057-.933-1.207-2.477m-9.117-39.735h-1.499V79.52q-.544.518-1.427 1.036t-1.585.776v-1.453a9.1 9.1 0 0 0 2.208-1.436q.945-.844 1.338-1.637h.966zm3.854-6.037q0-2.17.448-3.498.446-1.326 1.327-2.04.882-.715 2.218-.715.985 0 1.733.397.747.396 1.228 1.143.48.748.756 1.82t.275 2.893q0 2.154-.442 3.482-.443 1.326-1.325 2.045t-2.226.718q-1.77 0-2.781-1.261-1.21-1.536-1.21-4.984m1.543.004q0 3.02.706 4.015t1.743.995 1.743-.998.706-4.012q0-3.022-.704-4.017t-1.762-.994q-1.037 0-1.658.877-.774 1.12-.774 4.134m-33.329-9.926h-1.499V63.56q-.544.518-1.427 1.036t-1.585.776v-1.453a9.1 9.1 0 0 0 2.208-1.436q.945-.844 1.338-1.637h.966z"/><path d="m19.874 132.703-1.615.95V94.988l1.615.95zm31.872 18.381v1.853L18.26 133.653l1.615-.95zm31.825-18.381.809.475v.95l-32.634 18.81v-1.854zm0-36.765.809-.475.806.475v36.764l-.806.476-.809-.476z"/><path d="M51.746 77.555v-1.853L84.38 94.56v.904l-.809.475zM19.874 95.938l-1.615-.95 33.487-19.285v1.852z"/><path fill="#ed1c24" d="m120.796 159.079-1.5.119q-.202-.885-.57-1.287a2 2 0 0 0-1.51-.643q-.722 0-1.274.401-.706.519-1.116 1.513t-.427 2.831q.544-.826 1.33-1.227a3.6 3.6 0 0 1 1.65-.4q1.507 0 2.566 1.105 1.059 1.107 1.059 2.86 0 1.153-.498 2.143-.499.988-1.369 1.515t-1.976.526q-1.884 0-3.072-1.381T112.9 162.6q0-3.549 1.317-5.16 1.149-1.404 3.093-1.404 1.45 0 2.377.81.925.807 1.109 2.233m-6.175 5.279q0 .778.331 1.489.333.71.924 1.084.592.372 1.253.372.963 0 1.647-.77.684-.769.684-2.091 0-1.272-.675-2.003-.677-.732-1.715-.732-1.024 0-1.737.732-.712.731-.712 1.919m39.259-31.517v-1.44h7.926v1.165q-1.17 1.245-2.32 3.307a20 20 0 0 0-1.778 4.244 15.8 15.8 0 0 0-.577 3.367h-1.543q.024-1.444.57-3.493a18.3 18.3 0 0 1 1.559-3.946q1.016-1.9 2.16-3.204zm-5.909-49.43q-.937-.343-1.39-.977t-.452-1.521q0-1.337.959-2.246.958-.912 2.553-.911 1.6 0 2.578.931.975.931.976 2.268 0 .852-.448 1.483-.446.63-1.355.972 1.128.368 1.717 1.186.59.817.59 1.953 0 1.569-1.11 2.636-1.111 1.07-2.92 1.07-1.812 0-2.92-1.073-1.11-1.072-1.11-2.675 0-1.194.606-1.998t1.726-1.099m-.788 3.108q0 .643.3 1.244.3.602.904.93.602.33 1.294.33 1.083 0 1.778-.693.695-.691.695-1.76 0-1.086-.718-1.795-.716-.71-1.806-.71-1.064 0-1.757.701-.691.702-.69 1.753m.49-5.658q0 .868.553 1.42.554.552 1.453.552.87 0 1.422-.547.55-.549.55-1.342 0-.826-.567-1.392-.567-.564-1.422-.564-.865 0-1.427.552a1.8 1.8 0 0 0-.562 1.32m-26.306-7.233 1.44-.118q.183 1.014.702 1.472t1.329.457q.695 0 1.22-.318a2.6 2.6 0 0 0 .858-.85q.33-.532.555-1.437a7.6 7.6 0 0 0 .218-2.14 3.4 3.4 0 0 1-1.231 1.165 3.3 3.3 0 0 1-1.691.448q-1.52 0-2.572-1.101t-1.052-2.903q0-1.862 1.098-2.996t2.75-1.134q1.194 0 2.182.643t1.503 1.833q.513 1.191.513 3.443 0 2.347-.51 3.738t-1.514 2.116-2.36.727q-1.436 0-2.345-.798-.91-.8-1.093-2.247m6.144-5.396q0-1.295-.684-2.053-.684-.76-1.657-.76-1.007 0-1.746.818-.738.817-.737 2.119 0 1.168.7 1.899t1.742.73 1.712-.73.67-2.023"/><path d="M117.011 151.084v1.853l-32.631-18.81v-.95l.806-.475zm31.872-18.381 1.617.95-33.489 19.285v-1.854z"/><path d="m148.883 95.938.809-.475.808.475v37.715l-1.617-.95zm-31.872-18.383v-.95l.808-.475 31.873 18.43v.903l-.81.475zM85.186 95.938l-.806-.475v-.904l31.825-18.429.806.475v.95z"/><path fill="#ed1c24" d="M179.81 95.746h-1.5V86.17q-.545.518-1.427 1.036-.884.517-1.586.776v-1.453a9.1 9.1 0 0 0 2.208-1.436q.944-.844 1.338-1.637h.967zm8.678 0v-2.924h-5.328v-1.38l5.596-7.941h1.232v7.94h1.647v1.381h-1.647v2.924zm0-4.304V85.9l-3.85 5.542zm-9.011-58.822h-1.499v-9.577q-.544.517-1.428 1.035t-1.585.776v-1.452a9.1 9.1 0 0 0 2.208-1.437q.945-.843 1.338-1.636h.966zm3.854-3.236 1.5-.208q.26 1.278.881 1.84.623.565 1.527.565 1.073 0 1.803-.734.731-.734.731-1.818 0-1.036-.68-1.708-.679-.671-1.728-.671-.428 0-1.066.167l.168-1.321q.15.017.244.017.96 0 1.73-.5t.769-1.542q0-.825-.561-1.366-.56-.541-1.45-.541-.879 0-1.466.552-.586.555-.753 1.66l-1.5-.268q.276-1.513 1.255-2.345.976-.832 2.433-.832 1.004 0 1.847.43t1.291 1.17q.447.742.448 1.575a2.57 2.57 0 0 1-.426 1.442q-.425.65-1.26 1.034 1.084.25 1.69 1.04.605.789.605 1.974 0 1.604-1.17 2.718-1.172 1.116-2.962 1.116-1.615 0-2.68-.96-1.07-.961-1.22-2.486M146.56 16.612h-1.5V7.034q-.545.518-1.427 1.036-.884.517-1.586.776V7.393a9.1 9.1 0 0 0 2.208-1.436q.944-.844 1.338-1.637h.967zm11.75-1.44v1.44h-8.104a2.7 2.7 0 0 1 .177-1.045q.311-.826.996-1.626.684-.801 1.967-1.85 1.988-1.643 2.698-2.597t.708-1.808q0-.892-.64-1.505-.641-.613-1.674-.613-1.09 0-1.744.654t-.662 1.81l-1.544-.164q.158-1.732 1.197-2.64 1.038-.907 2.786-.907 1.767 0 2.795.978t1.03 2.422q0 .736-.301 1.445-.302.71-1 1.495-.7.786-2.32 2.156-1.353 1.136-1.74 1.54-.386.405-.64.814zm-55.07 24.573h-1.5v-9.577q-.544.517-1.426 1.035t-1.586.776v-1.452a9.1 9.1 0 0 0 2.208-1.437q.945-.843 1.339-1.636h.966zm9.51 0h-1.5v-9.577q-.544.517-1.427 1.035t-1.585.776v-1.452a9.1 9.1 0 0 0 2.208-1.437q.945-.843 1.338-1.636h.966z"/><path d="m181.517 76.13.808.475.094.902-31.92 18.43-.807-.474v-.904z"/><path d="m181.517 39.365.808-.428.806.57v36.528l-.806.57-.808-.475z"/><path d="M149.692 20.983V19.13l32.727 18.905-.094.903-.808.427zm-31.873 18.382-1.614-.903 33.487-19.332v1.853zm0 36.765-.808.475-.806-.475V38.463l1.614.902z"/><path fill="#ed1c24" d="M216.765 105.246h-1.5V95.67q-.544.518-1.427 1.036t-1.586.776v-1.453a9.1 9.1 0 0 0 2.208-1.436q.945-.844 1.339-1.637h.966zm3.854-3.206 1.573-.119q.175 1.147.812 1.723t1.55.577q1.099 0 1.848-.82.746-.82.747-2.175 0-1.288-.718-2.034t-1.902-.745q-.735 0-1.317.338t-.917.879l-1.41-.208 1.187-6.294h6.086v1.44h-4.892l-.653 3.288q1.102-.764 2.315-.764 1.604 0 2.707 1.111t1.103 2.856q0 1.662-.97 2.873-1.177 1.486-3.216 1.486-1.672 0-2.727-.935-1.055-.933-1.206-2.477m28.683-38.213h-1.499V54.25q-.544.518-1.428 1.036t-1.585.776v-1.453a9.1 9.1 0 0 0 2.208-1.436q.945-.844 1.338-1.637h.966zm11.678-9.248-1.5.119q-.202-.885-.57-1.287a2 2 0 0 0-1.51-.643 2.12 2.12 0 0 0-1.275.401q-.705.519-1.116 1.513-.41.995-.428 2.831.545-.826 1.331-1.227a3.6 3.6 0 0 1 1.649-.4q1.508 0 2.566 1.105 1.059 1.107 1.059 2.86 0 1.153-.498 2.143-.499.988-1.368 1.515-.871.526-1.976.526-1.884 0-3.072-1.381-1.19-1.381-1.19-4.554 0-3.549 1.317-5.16 1.149-1.403 3.093-1.404 1.45 0 2.377.81.926.807 1.11 2.233m-6.174 5.279q0 .778.331 1.489.333.71.924 1.084.591.372 1.253.372.963 0 1.647-.77.684-.769.684-2.091 0-1.271-.675-2.003-.677-.732-1.715-.732-1.024 0-1.737.732-.712.731-.712 1.919M219.71 23.12h-1.5v-9.577q-.545.517-1.427 1.035-.884.518-1.586.776v-1.452a9.1 9.1 0 0 0 2.208-1.437q.944-.843 1.338-1.636h.967zm3.957-10.643v-1.44h7.927v1.165q-1.17 1.245-2.32 3.307a20 20 0 0 0-1.778 4.244 15.8 15.8 0 0 0-.577 3.367h-1.543q.024-1.444.57-3.493a18.3 18.3 0 0 1 1.559-3.946q1.016-1.9 2.16-3.204z"/><path d="m217.901 87.34.618 1.9-36.1-11.733-.094-.902.806-.57zm21.469-29.592h1.997L218.519 89.24l-.618-1.9zm-21.469-29.545.618-1.9 22.848 31.445h-1.997zm-34.77 11.305-.806-.57.094-.903 36.1-11.732-.618 1.9zM43.111 122.87l6.266-16.329h2.33l6.682 16.329h-2.46l-1.889-4.943h-6.852l-1.783 4.943zm4.708-6.71h5.532l-1.697-4.512q-.783-2.058-1.166-3.385a20.4 20.4 0 0 1-.88 3.114zm64.471 6.71v-16.33h6.123q1.87 0 3 .495a3.87 3.87 0 0 1 1.77 1.527q.64 1.031.64 2.156 0 1.048-.567 1.972t-1.712 1.494q1.478.434 2.272 1.48t.794 2.473q0 1.146-.484 2.131t-1.197 1.52-1.785.808-2.633.273zm2.168-9.471h3.528q1.434 0 2.058-.189.824-.245 1.241-.811t.417-1.424q0-.813-.39-1.43a1.98 1.98 0 0 0-1.112-.846q-.723-.228-2.481-.228h-3.26zm0 7.541h4.063q1.046 0 1.47-.078.746-.133 1.248-.445t.823-.908.323-1.374q0-.913-.47-1.587a2.47 2.47 0 0 0-1.297-.946q-.83-.273-2.387-.273h-3.773zm41.07-60.464 2.167.545q-.679 2.665-2.44 4.063-1.764 1.4-4.31 1.4-2.636 0-4.288-1.076-1.651-1.076-2.513-3.114-.863-2.039-.863-4.379 0-2.552.973-4.451.972-1.9 2.77-2.887 1.795-.986 3.951-.986 2.447 0 4.114 1.249t2.323 3.512l-2.123.5q-.566-1.78-1.643-2.593-1.08-.812-2.712-.812-1.879 0-3.142.901-1.262.902-1.772 2.422a9.8 9.8 0 0 0-.512 3.134q0 2.081.606 3.635.605 1.553 1.882 2.32a5.27 5.27 0 0 0 2.767.769q1.81 0 3.065-1.047t1.7-3.106m49.28 5.727V49.874h5.616q1.901 0 2.903.233 1.4.323 2.39 1.17 1.29 1.091 1.93 2.79t.64 3.881q0 1.86-.433 3.298-.435 1.436-1.114 2.378-.677.94-1.485 1.482-.804.54-1.946.818-1.14.278-2.618.278zm2.167-1.93h3.476q1.61 0 2.526-.3t1.461-.847q.765-.768 1.193-2.065t.428-3.146q0-2.56-.838-3.936-.84-1.374-2.039-1.842-.865-.334-2.787-.334h-3.42z"/></svg>