<svg xmlns="http://www.w3.org/2000/svg" width="312.46" height="320.07" viewBox="0 0 312.46 320.07" xmlns:xlink="http://www.w3.org/1999/xlink"><defs><clipPath id="a"><path d="M0 320.067h312.459V0H0Z" clip-rule="evenodd"/></clipPath><path id="b" d="M.884.724.857.687H.523v.086h.301Q.84.773.84.778T.83.793L.771.851.729.794H.245L.179.798.204.763c.015.006.042.01.061.01h.211V.687H.149v.05H.134A.18.18 0 0 0 .083.608C.059.587.051.575.051.566S.059.542.077.542q.014 0 .033.012C.133.57.146.6.148.666h.328V.554L.473.448q0-.021.009-.02.006 0 .02.005C.52.441.525.444.525.458L.523.552v.114h.341L.816.576l.012-.01c.05.062.087.086.119.091q.01.002.01.007 0 .004-.007.01zM.79.591H.585v-.02H.79zm-.378 0H.208v-.02h.204zM.797.494H.586v-.02h.211zm-.384 0H.206V.471h.207zM.862.441.82.383h-.7L.047.387.075.35a.2.2 0 0 0 .067.01H.43A1 1 0 0 0 .394.265H.23L.165.309C.167.275.168.223.168.184v-.11c0-.05-.001-.085-.003-.12L.164-.059q0-.016.009-.017.006 0 .018.006c.023.01.027.014.027.026v.006L.215.075v.168h.16V.098L.373-.021q0-.017.008-.017.006 0 .019.006c.021.01.025.013.025.024v.004l-.003.1v.147h.156V.106L.576-.013q0-.017.008-.017.006 0 .019.006c.021.01.025.013.025.024v.004l-.003.1v.139h.164V.024C.789.01.787.001.76.001l-.078.01-.001-.016c.062-.017.078-.03.084-.06q.001-.01.007-.01l.006.002c.051.022.058.037.058.084V.23l.026.018q.01.007.01.012T.863.268L.797.306.77.264H.415a1 1 0 0 0 .08.098h.421Q.932.36.932.366q0 .004-.01.014z"/><path id="c" d="M.863.833.825.78H.112Q.077.78.039.783L.067.746a.2.2 0 0 0 .067.011h.241V.634H.23L.176.671C.178.642.179.596.179.573v-.13L.177.38Q.176.368.184.368q.006 0 .02.006c.019.008.021.012.021.025v.032h.554V.388Q.778.376.787.375q.006 0 .019.006c.017.007.022.011.022.024L.824.5v.09l.029.026q.005.005.005.008 0 .005-.008.01l-.061.04-.026-.04H.622v.123h.297q.014 0 .014.007T.923.78zM.42.453v.16h.156v-.16zm0 .181v.123h.156V.634zm.202-.18v.158h.157V.453zm-.397 0v.16h.15v-.16zm.673-.1L.851.298H.407l.045.07.029.013q.008.004.008.007T.481.394L.424.425A2 2 0 0 0 .355.298H.103L.03.302.058.265a.2.2 0 0 0 .067.01h.217a2 2 0 0 0-.077-.12A1.3 1.3 0 0 0 .522.102C.43.026.295-.025.071-.068v-.016c.239.022.39.072.5.17a1 1 0 0 0 .242-.117C.838-.05.849-.056.856-.056c.009 0 .018.013.018.03a.06.06 0 0 1-.019.042.8.8 0 0 1-.253.1.7.7 0 0 1 .11.16h.235q.014 0 .014.006t-.01.016zM.392.276h.261A.6.6 0 0 0 .552.129 2 2 0 0 1 .324.17z"/><path id="d" d="M.412.677.39.643H.185L.137.674Q.14.652.139.614V.541L.135.478q0-.006.006-.006T.166.48c.02.007.02.008.02.033h.215c0-.023 0-.025.007-.025q.006 0 .02.005c.018.006.023.01.023.022L.448.57v.046c.018.015.021.016.021.02L.463.641zM.186.534v.087h.215V.534zm.056.3A.2.2 0 0 0 .285.76C.291.741.295.734.305.734c.015 0 .028.02.028.04C.333.8.311.816.248.843zM.494.775.461.728h-.34C.078.728.06.728.043.73L.075.7a.2.2 0 0 0 .059.006h.409q.012 0 .012.004 0 .003-.007.009zM.92.358.886.216C.816.254.805.405.805.503q0 .045.003.088l.03.018q.009.005.009.009T.839.627L.779.67.75.63.656.621C.66.678.663.735.664.782c.023.015.025.016.025.02q0 .003-.007.006L.61.841Q.612.78.612.716l-.001-.1a1 1 0 0 0-.12-.008L.525.577C.537.583.544.586.61.592A1 1 0 0 0 .6.46a1 1 0 0 1-.089.053L.505.503a1 1 0 0 0 .088-.08.45.45 0 0 0-.183-.28L.419.13c.135.087.172.154.204.26A.2.2 0 0 0 .662.33C.675.3.682.294.695.294c.011 0 .022.018.022.04C.717.37.68.4.636.435.644.472.65.533.654.597l.109.011L.761.526c0-.051.003-.091.01-.167.016-.177.15-.24.178-.24Q.961.12.961.13L.952.152Q.932.178.93.262q0 .04.007.094zM.493.334.316.312v.022c.088.062.13.085.163.089q.01.001.011.005 0 .003-.009.009L.435.474.402.441.151.438C.12.438.099.438.077.44L.11.409a.3.3 0 0 0 .078.008l.201.002L.318.357l-.05.026L.27.306.038.276l.027-.04q.006-.01.01-.01.003 0 .009.006c.014.01.03.016.186.045V.196C.27.18.268.172.245.172L.157.185.156.171C.224.157.236.138.242.113Q.244.105.249.105l.006.002C.31.133.316.15.316.187v.099L.495.32zM.542.107a.26.26 0 0 0 .063-.14c.001-.024.009-.032.02-.032.02 0 .039.023.039.05 0 .038-.055.092-.115.132zm.191.01a.36.36 0 0 0 .125-.176C.86-.073.871-.082.879-.082c.017 0 .035.02.035.048q0 .015-.007.031C.89.037.833.077.739.127zM.317.098a.3.3 0 0 0 .051-.14c.001-.02.008-.026.021-.026s.036.021.036.05c0 .046-.083.111-.099.123zM.18.112C.164.033.138-.004.078-.036.061-.045.058-.05.058-.068c0-.012.015-.017.033-.017.081 0 .098.103.103.196z"/><path id="e" d="M.142.804C.2.751.224.706.229.675q.01-.05.026-.048C.277.627.297.66.297.69c0 .044-.051.08-.149.124zm.77-.609C.907.033.896.013.837.009A3 3 0 0 0 .67.005C.502.005.491.014.491.068v.366h.311V.391q0-.01.006-.01t.02.006c.02.008.025.012.025.025L.847.515v.18L.885.72q.007.004.007.01 0 .002-.006.007L.816.79.781.74H.462L.389.744.417.707a.2.2 0 0 0 .067.011h.318V.456H.507L.444.507C.446.477.447.415.447.386V.069c0-.1.001-.105.205-.105.258 0 .286.01.311.075l.002.006q0 .005-.007.008C.934.065.931.083.931.195zm-.542 0L.236.09v.353l.046.025q.007.004.007.008 0 .003-.006.01L.217.543.178.497.113.493H.036L.064.461C.076.467.09.471.12.473l.072.004V.123C.192.08.183.052.138.026l.051-.06.006-.003q.003-.001.004.004C.223.02.236.037.38.183z"/><path id="f" d="M.405.696.372.65H.249l.079.127Q.341.797.361.8q.01.002.011.006T.36.816L.297.85A2 2 0 0 0 .23.65H.183L.122.7C.124.67.125.653.125.602V.186C.125.132.124.047.122-.009v-.007Q.121-.04.132-.04q.007 0 .02.006c.018.008.02.011.02.024v.095h.215V.012Q.386 0 .394 0l.019.006c.022.01.026.013.026.028V.04a3 3 0 0 0-.005.184V.61l.034.02q.008.006.008.01T.468.647zM.172.391v.238h.215V.39zm0-.284V.37h.215V.107zM.85.691.821.644h-.21l.05.112c.012.027.02.035.031.037q.016.003.016.01 0 .004-.015.012l-.059.03A2.3 2.3 0 0 0 .463.401L.474.394c.048.069.084.133.127.228h.234A9 9 0 0 0 .811.08C.806.02.798-.006.749-.006a.6.6 0 0 0-.12.021L.628 0c.091-.025.114-.04.125-.074q.004-.012.009-.012l.005.002C.844-.04.853-.01.86.082q.01.13.021.52l.032.02Q.921.625.921.63T.913.64zM.557.453A.33.33 0 0 0 .648.3C.652.28.657.275.672.275c.014 0 .029.02.029.048L.696.35C.686.378.645.418.564.462z"/><path id="g" d="M.885.718.844.661H.526v.1l.231.02A.1.1 0 0 0 .789.773L.803.769q.003 0 .003.003 0 .004-.007.015L.761.84A5 5 0 0 0 .154.763V.75L.229.749q.114 0 .25.009V.661H.108L.035.665.063.628A.2.2 0 0 0 .13.64h.349V.548H.282L.224.595.227.497V.35L.224.238.223.224q0-.016.008-.016.006 0 .02.006C.269.22.27.224.27.238v.024h.209v-.11H.244q-.035 0-.073.004L.199.119a.2.2 0 0 0 .067.01h.213V.002H.112q-.035 0-.073.004l.028-.037a.2.2 0 0 0 .067.011h.807q.017 0 .017.004 0 .005-.013.016L.882.06.839 0H.526v.13h.311Q.853.129.853.135T.841.152L.786.205.748.152H.526v.11h.211c0-.032 0-.035.007-.035q.007 0 .021.006c.02.009.023.013.023.026v.007a1 1 0 0 0-.004.108v.13l.033.022q.009.006.009.01 0 .003-.009.009L.751.589.725.548H.526v.091h.418q.017 0 .017.005 0 .006-.013.017zm-.359-.3v.108h.211V.419zm-.256 0v.107h.209V.419zM.526.284v.113h.211V.284zm-.256 0v.113h.209V.284z"/><path id="h" d="M.826.31.803.269H.534L.469.318.472.215V.077l-.003-.13-.001-.014q0-.018.009-.018.006 0 .019.006c.019.008.021.01.021.021v.054h.298v-.072Q.814-.089.823-.089q.006 0 .021.006c.016.006.021.01.021.023l-.001.012L.861.07v.162l.027.02q.006.004.005.007 0 .004-.005.007zM.517.018v.229h.298v-.23zm.382.669L.861.63H.699v.147l.027.018q.009.006.009.01 0 .003-.011.008L.65.846.653.748V.63H.481L.408.634.436.598a.2.2 0 0 0 .067.01h.15v-.18H.528L.455.432.483.395a.2.2 0 0 0 .067.01h.373q.009 0 .009.004 0 .003-.007.009L.864.474.828.428H.699v.18h.26Q.968.607.968.612q0 .003-.006.009zM.406.31.142.269C.25.395.317.479.355.53c.018.025.023.03.046.038Q.41.57.41.575q0 .003-.007.008l-.059.04a1 1 0 0 0-.052-.1L.102.516a4 4 0 0 1 .152.207c.027.04.034.046.06.058q.01.005.01.008T.316.796L.25.832A1.5 1.5 0 0 0 .117.575C.094.54.082.53.037.518L.071.465Q.074.459.077.459l.009.004c.02.013.033.02.196.044a2 2 0 0 0-.12-.178C.133.288.117.275.076.268l.04-.055Q.12.207.124.207L.132.21c.029.02.033.023.275.085zM.421.148.035.058.068.004q.003-.005.007-.005l.007.004C.105.02.117.026.267.079l.158.056z"/><path id="i" d="M.375.666.337.616H.271v.171c.03.02.033.022.033.025q0 .004-.011.01l-.07.031c.002-.035.004-.1.004-.14V.615H.121Q.086.615.048.62L.076.582a.2.2 0 0 0 .067.011h.076a2 2 0 0 0-.171-.42L.061.168c.057.08.12.213.166.332V.148L.222-.051v-.013q0-.019.008-.018.007 0 .02.006c.02.01.023.013.023.026v.007C.271.001.271.07.271.146v.302A.3.3 0 0 0 .35.352Q.361.328.372.329c.017 0 .026.02.026.041L.395.387Q.379.429.271.47v.123h.154q.014 0 .014.005 0 .004-.011.015zm.503.017L.852.64H.544L.59.738Q.613.79.635.795q.01.003.01.007 0 .003-.008.008L.575.844A2 2 0 0 0 .409.44L.421.431c.045.064.078.12.111.185h.335L.868.488C.868.264.856.064.838.035.828.018.814.009.781.009a1 1 0 0 0-.16.025L.618.019C.742-.02.756-.034.767-.072q.003-.01.008-.01l.008.003c.078.033.093.054.107.1.018.062.025.341.025.577l.033.027q.007.006.007.01 0 .003-.008.008zM.643.36A.6.6 0 0 0 .706.242L.473.205C.503.24.54.3.616.44.63.467.637.472.657.478Q.67.481.67.486q0 .003-.01.01L.596.53A1 1 0 0 0 .502.29C.463.22.459.218.407.205L.448.153Q.453.147.457.147.46.146.465.15a.3.3 0 0 0 .082.033l.164.042A.2.2 0 0 0 .72.183C.723.15.73.143.748.143.763.144.776.17.776.19L.775.2C.766.242.741.284.653.368z"/><path id="j" d="M.878.815.832.751H.109L.036.755.064.718a.2.2 0 0 0 .067.011h.341L.474.64.472.56H.216L.151.611.155.465V.178C.155.12.154.03.152-.03v-.01q0-.023.009-.022.006 0 .02.006c.021.01.025.013.025.027v.007a4 4 0 0 0-.004.197v.362h.269C.459.331.421.262.229.125L.236.114c.165.09.237.168.266.293a.46.46 0 0 0 .165-.2C.676.18.683.176.695.176.705.175.726.2.726.23L.721.254C.707.29.63.354.506.426q.009.05.011.112h.295v-.48C.812.038.808.027.773.027A1 1 0 0 0 .63.046L.628.032C.745 0 .762-.016.774-.054q.003-.01.007-.01t.009.003c.05.024.069.053.069.105v.471L.89.54q.006.004.007.01 0 .003-.008.01L.823.61.789.56H.518l.006.17h.422q.012 0 .012.004t-.007.01z"/><path id="k" d="M.404.668.378.628H.33V.77h.118q.016 0 .016.005T.452.791L.407.836.373.791H.11L.037.795.065.758a.2.2 0 0 0 .067.011h.066v-.14H.14L.091.666C.093.633.095.572.095.535V.16C.095.11.094.028.092-.025v-.009q0-.021.009-.02.005 0 .017.004c.017.007.019.011.019.024v.068h.256V-.01Q.391-.025.399-.025q.005 0 .02.007c.018.008.022.013.022.028v.006a3 3 0 0 0-.005.18v.4l.02.014q.008.004.008.009t-.009.01zM.137.237v.028c.075.082.098.159.099.342h.053V.403c0-.057.012-.075.068-.075L.393.33V.237zm.099.392v.14h.053v-.14zM.33.607h.063v-.24C.334.365.33.37.33.405zm-.193 0h.061C.197.439.176.352.137.285zm0-.543v.15h.256v-.15zm.632.433L.747.46h-.08L.614.499.617.425V.253L.614.173.613.163q0-.01.006-.01T.64.16c.019.009.019.014.019.06h.095c0-.033 0-.037.006-.037.008 0 .039.01.039.035L.797.296v.13L.819.44q.006.003.006.008 0 .006-.007.011zM.659.243v.195h.095V.243zm.134.415L.761.615H.655L.582.62.61.582a.2.2 0 0 0 .067.011h.158q.016 0 .016.005 0 .006-.012.017zm.108.177L.864.79h-.31L.496.844C.498.807.5.74.5.698V.172L.497-.034v-.012q0-.024.009-.023.006 0 .019.006c.02.009.024.014.024.03v.007C.547.014.546.05.546.126v.642h.339V.041C.885.017.884.006.853.006A1 1 0 0 0 .735.02L.733.008c.085-.025.106-.038.112-.07q.001-.011.007-.011l.007.002c.063.029.072.043.072.093v.733l.024.012q.009.004.009.008t-.01.013z"/><path id="l" d="M.07 0v.716h.217l.13-.488.128.488h.217V0H.628v.563L.486 0h-.14l-.14.563V0z"/><path id="m" d="M.372.165.51.142A.22.22 0 0 0 .426.027a.25.25 0 0 0-.143-.039q-.135 0-.2.089a.3.3 0 0 0-.051.178q0 .13.067.202A.22.22 0 0 0 .27.53.23.23 0 0 0 .453.454Q.52.377.516.22H.172A.14.14 0 0 1 .206.125.1.1 0 0 1 .285.09q.032 0 .054.017.023.018.033.057m.008.14q-.002.06-.03.09a.1.1 0 0 1-.072.03.1.1 0 0 1-.074-.032.13.13 0 0 1-.03-.088z"/><path id="n" d="M.043.354q0 .11.033.183.025.056.067.099T.235.7A.4.4 0 0 0 .39.73Q.548.729.643.63A.38.38 0 0 0 .738.357.38.38 0 0 0 .644.085a.33.33 0 0 0-.252-.098.34.34 0 0 0-.254.098.37.37 0 0 0-.095.269m.15.004q0-.12.056-.184A.18.18 0 0 1 .39.111q.087 0 .142.063.055.062.055.186T.534.544a.18.18 0 0 1-.143.06.18.18 0 0 1-.144-.06Q.193.481.192.357"/><path id="p" d="M.878.773.836.718h-.15v.063c.03.02.034.022.034.027q0 .005-.009.01L.636.85.639.764V.718H.374V.79c.031.02.034.022.034.026q0 .006-.01.01L.325.86.328.773V.718H.127L.054.722.082.685a.2.2 0 0 0 .067.011h.179V.651L.326.56q0-.01.006-.01t.021.006c.019.008.023.012.023.021L.374.649v.047h.265V.657L.638.563q0-.01.005-.01c.001 0 .045.012.045.032l-.002.07v.041H.94q.013 0 .013.008 0 .007-.009.014zm.089-.66C.792.147.652.293.589.465h.326Q.93.465.93.474.93.48.922.488L.861.544.819.487H.521v.101l.026.015q.008.005.008.01 0 .004-.01.01L.47.648Q.474.596.474.487H.137Q.102.487.064.49L.092.454a.2.2 0 0 0 .067.01h.255a1.2 1.2 0 0 0-.383-.43L.038.02a1.3 1.3 0 0 1 .436.44V.159H.335l-.07.004.027-.036a.2.2 0 0 0 .064.01h.118L.472-.075q-.001-.021.007-.02.005 0 .017.006c.023.013.028.017.028.031v.005Q.521.034.521.137h.177q.014 0 .014.007 0 .006-.009.014L.655.204.621.159h-.1v.306h.052a.72.72 0 0 1 .294-.4q.004 0 .008.006C.891.09.921.104.967.1z"/><path id="s" d="M.409.529.384.489h-.18L.149.53.152.428v-.11L.149.207q0-.022.008-.021.007 0 .022.009C.196.205.198.21.198.22v.034h.2C.398.21.398.21.405.21c.001 0 .044.015.044.035v.007a1 1 0 0 0-.004.09v.11L.471.47q.008.005.008.008 0 .004-.008.01zM.198.276v.192h.2V.276zm.704-.1A1 1 0 0 0 .873 0a.4.4 0 0 0-.184.172C.738.24.78.322.824.427a.04.04 0 0 0 .035.027Q.874.457.874.46t-.01.009l-.07.04A1 1 0 0 0 .669.217 1.2 1.2 0 0 0 .61.619h.333q.014 0 .014.004T.946.638L.892.692.854.642H.61q0 .066.003.131c.028.017.031.02.031.023q0 .005-.007.008L.562.842l.003-.2H.124L.051.644.079.608A.2.2 0 0 0 .146.62h.419C.57.374.599.256.638.173a1 1 0 0 0-.265-.24L.381-.08A.9.9 0 0 1 .66.134C.724.03.873-.081.938-.081c.004 0 .015 0 .015.01q0 .005-.011.024C.924-.015.916.01.916.087l.002.088zm-.203.62A.2.2 0 0 0 .788.7C.797.682.801.68.808.68c.016 0 .029.015.029.037L.833.738Q.818.777.704.805zM.505.141.037.078l.039-.06Q.079.014.083.014q.005 0 .012.007c.021.017.058.03.138.048l.272.058z"/><path id="t" d="M.791.712.747.651H.213Q.178.65.14.655L.168.618a.2.2 0 0 0 .067.01H.85q.016 0 .016.006 0 .005-.012.017zM.886.14.837.073H.102L.029.077.057.04a.2.2 0 0 0 .067.01h.825q.016 0 .016.006 0 .005-.012.017z"/><path id="u" d="M.975.149A.41.41 0 0 0 .659.33h.294q.014 0 .014.006 0 .005-.01.015l-.06.062-.046-.06H.709v.325h.236q.014 0 .014.006T.949.7l-.06.062-.044-.06H.709v.074c.026.016.029.018.029.023q0 .004-.012.01L.657.841c.002-.036.004-.1.004-.14H.347v.07c.026.017.029.02.029.023q0 .005-.012.01l-.068.03C.298.798.3.741.3.7H.134Q.099.7.061.704L.089.667a.2.2 0 0 0 .067.011H.3V.352H.109q-.035 0-.073.004L.064.319A.2.2 0 0 0 .131.33h.217A1.2 1.2 0 0 0 .027.06L.032.045C.185.12.315.22.415.33H.64A.5.5 0 0 1 .885.094q.004 0 .005.005C.901.12.921.135.975.136zm-.628.32v.095h.314V.47zm0 .116v.092h.314V.586zm0-.234v.096h.314V.352zm.489-.31L.793-.015H.528V.13h.196q.015 0 .015.006 0 .005-.011.016l-.049.05-.038-.05H.528v.08c.027.018.03.02.03.024q0 .006-.012.011l-.07.035C.478.266.48.232.48.191V.153H.318q-.035 0-.073.004L.273.12A.2.2 0 0 0 .34.13h.14v-.144H.172L.099-.01l.028-.037a.2.2 0 0 0 .067.011h.694q.016 0 .016.005 0 .006-.012.017z"/><path id="v" d="M.254.707.228.669H.114L.06.729C.062.696.063.664.063.624V.336C.063.266.062.189.06.13V.118Q.059.097.068.098q.006 0 .02.006c.017.007.02.013.02.025v.086h.138v-.08Q.245.123.253.123.259.122.272.128C.293.137.297.14.297.155v.007a3 3 0 0 0-.005.167V.63l.026.013Q.325.646.325.65T.318.659zM.108.237v.41h.138v-.41zm.786-.04c0-.22-.009-.227-.06-.233L.778-.038c-.072 0-.079 0-.079.049v.363C.868.52.883.532.911.536q.01.001.01.006L.917.549.861.6A1.2 1.2 0 0 0 .699.4v.382C.731.8.732.8.732.804q0 .004-.01.008L.65.846.653.714v-.71c0-.082.029-.082.128-.082.121 0 .146 0 .181.072l.002.008q0 .005-.005.006C.929.018.911.063.914.197zM.583.505.539.455H.462v.294c.03.017.033.02.033.022q0 .004-.011.01L.413.82C.415.785.416.724.416.687V.029C.416.01.41.004.372-.02l.042-.052Q.417-.075.42-.075t.006.006c.019.03.056.062.188.14L.607.087.462.022v.41h.162q.012 0 .012.005T.627.452z"/><path id="w" d="M.276.733.251.691H.152l-.06.051L.095.64V.268C.095.21.094.177.092.143L.091.128Q.091.11.099.11q.007 0 .02.006C.137.125.141.13.141.142v.122h.122V.2Q.262.187.27.187q.005 0 .02.006C.309.2.314.205.314.217l-.001.01A1 1 0 0 0 .31.329v.324l.028.019Q.345.676.345.68q0 .003-.006.008zM.141.286v.383h.122V.286zM.56.84A.23.23 0 0 0 .629.725C.631.699.641.692.652.692c.016 0 .036.022.036.05q0 .051-.12.11zM.851.722.819.681H.466L.463.727H.449A.25.25 0 0 0 .401.605Q.375.578.376.566c0-.01.011-.019.027-.019q.065 0 .063.112h.363L.778.564.789.556C.846.63.88.652.916.66q.007.001.007.006 0 .003-.006.008zM.966.03A2 2 0 0 0 .787.019a1 1 0 0 0-.124.01v.227h.224Q.897.255.898.26q0 .004-.007.01L.825.34.782.278H.663v.2h.253q.01 0 .011.005 0 .003-.008.011l-.06.06L.821.5H.464Q.429.5.391.504L.419.467a.2.2 0 0 0 .067.011h.131V.043a.5.5 0 0 0-.154.126q.02.058.031.124.003.021.027.03.007.003.007.007 0 .003-.005.006L.452.372C.431.15.384.042.206-.082l.007-.01A.45.45 0 0 1 .455.15a.36.36 0 0 1 .199-.166c.058-.012.17-.03.229-.03q.008 0 .01.009c.008.024.023.04.073.056z"/><path id="x" d="M.074 0v.716h.14l.294-.48v.48h.134V0H.497L.208.468V0z"/><path id="y" d="M.404.803.37.753H.102C.075.753.054.755.029.757L.057.72a.2.2 0 0 0 .067.011h.063V.59H.142L.085.635A2 2 0 0 0 .089.504v-.38c0-.05-.001-.131-.003-.184v-.008q0-.023.009-.022.006 0 .018.005c.017.007.018.011.018.024v.074h.253v-.055Q.383-.056.391-.055q.006 0 .019.006c.021.009.024.013.024.026v.008a3 3 0 0 0-.005.182v.388l.024.017Q.459.576.459.58q0 .003-.006.008L.398.625.372.59H.325v.14h.127q.016 0 .016.005 0 .004-.012.016zM.131.21v.02c.074.096.094.155.095.339h.058v-.2c0-.053.02-.064.1-.06V.21zm.095.38v.14h.058V.59zM.325.568h.059V.346L.362.343Q.327.343.325.37zm-.194 0h.056C.187.398.179.338.131.25zm0-.533v.153h.253V.035zm.777.74L.867.721H.805V.79C.828.803.83.805.83.81q0 .004-.007.007l-.064.03L.762.76V.722H.606v.063c.024.017.027.02.027.022q0 .003-.009.008l-.063.03L.564.76V.722H.508L.435.726.463.688A.2.2 0 0 0 .53.7h.034L.563.61q0-.02.008-.019l.014.005c.02.01.023.012.023.02L.606.7h.156L.761.62q0-.02.008-.019c.005 0 .038.01.038.026L.805.7h.148Q.968.7.969.704q0 .006-.012.017zM.972.391a.38.38 0 0 0-.271.184l.022.008Q.735.585.735.59q0 .003-.01.01L.669.63A1.4 1.4 0 0 0 .436.315L.445.304C.53.37.597.442.688.564A.46.46 0 0 1 .889.345q.003 0 .005.003C.912.37.925.376.972.377zM.895.056.851 0H.705v.16h.157q.016 0 .016.006T.867.182L.819.228.783.182H.705v.142h.126Q.847.322.847.33q0 .004-.011.016L.793.388.758.346H.592L.519.35.547.314c.016.006.044.01.065.01H.66V.182H.583L.51.186.538.15c.016.006.044.01.065.01H.66V0H.526L.453.005.481-.03c.016.006.044.01.065.01h.397q.016 0 .016.006 0 .004-.011.016z"/><path id="z" d="M.073 0v.716h.145V.435H.5v.28h.145V0H.5v.313H.218V0z"/><path id="A" d="M.445.832.409.778H.1L.027.782.055.745a.2.2 0 0 0 .067.011h.062V.62H.127l-.06.052C.069.64.071.578.071.542V.154c0-.05-.002-.132-.005-.185v-.012q0-.017.009-.017.006 0 .02.006c.021.01.023.013.023.023V.05h.284V.014q0-.017.006-.017t.021.01c.02.013.024.017.024.029V.04a3 3 0 0 0-.005.166v.378l.03.022q.007.006.007.008 0 .003-.007.006L.413.66.389.62h-.06v.136h.173q.012 0 .012.004 0 .003-.009.012zm-.327-.6V.27c.075.07.109.186.11.328h.057V.405c0-.056.009-.066.117-.063v-.11zm.11.388v.136h.057V.62zM.329.598h.073V.381C.334.38.329.384.329.407zm-.211 0h.066C.183.456.165.375.118.301zm0-.525V.21h.284V.073zm.665.734Q.789.81.789.812q0 .003-.006.005L.73.844A.67.67 0 0 1 .879.416Q.883.411.885.411q.003 0 .005.004C.902.43.933.442.971.438L.972.45C.862.497.775.61.753.794zM.608.774A2 2 0 0 0 .457.351l.01-.008C.529.424.608.604.644.7c.007.017.012.021.032.03q.012.006.012.01t-.01.007zM.801.44.774.4H.586L.513.403.541.366a.2.2 0 0 0 .071.011C.612.115.526.04.376-.073l.009-.012c.203.122.261.198.274.462h.129C.789.284.786.177.781.099.777.035.771.006.721.006a.4.4 0 0 0-.098.017L.62.009c.079-.024.098-.045.102-.075q.001-.006.004-.006t.009.003c.079.038.08.044.09.163.005.06.008.186.007.265l.031.017Q.871.38.871.383T.864.39z"/><path id="D" d="M.316-.142C.206-.06.151.097.151.262c0 .164.055.32.165.402L.305.679A.47.47 0 0 1 .091.262a.47.47 0 0 1 .214-.42z"/><path id="E" d="M.351.228A.4.4 0 0 0 .41.124L.281.099v.22h.102v-.03Q.382.275.39.275q.006 0 .02.006c.018.008.022.01.022.027v.007a2 2 0 0 0-.004.139v.148l.028.016q.008.005.008.008 0 .004-.008.01L.395.673.368.632H.281v.16l.024.016q.007.005.007.008 0 .004-.008.008L.232.862C.234.825.236.792.236.752v-.12H.148L.093.683Q.096.637.096.58V.407L.093.28.092.266q0-.018.009-.017.005 0 .017.005c.02.008.021.01.021.022V.32h.097V.09L.027.05l.037-.056q.003-.005.007-.005.003-.001.006.004C.091.01.101.016.2.045l.216.062.004-.02C.426.05.431.046.443.046s.03.024.03.049C.473.129.417.19.361.237zm-.07.114V.61h.102V.342zm-.142 0V.61h.097V.342zM.596.82A.3.3 0 0 0 .658.66C.66.626.665.622.678.622c.015 0 .032.022.032.05 0 .038-.049.1-.106.156zM.969.01a.46.46 0 0 0-.277.177c.06.1.114.28.152.507l.032.018Q.882.715.882.72q0 .003-.006.006L.8.77C.773.511.727.336.665.23.602.342.565.504.547.693L.532.69A1.1 1.1 0 0 1 .64.19a.9.9 0 0 0-.328-.267L.319-.09a.8.8 0 0 1 .347.24.7.7 0 0 1 .201-.184q.004-.001.007.004c.015.02.036.03.095.027z"/><path id="G" d="M.058.664C.168.58.223.424.223.26S.168-.06.058-.142l.011-.015A.47.47 0 0 1 .283.26a.47.47 0 0 1-.214.419z"/><path id="I" d="M.329.793.302.751H.187L.131.794Q.134.743.133.67V.378C.133.111.096.03.027-.077l.012-.008a.56.56 0 0 1 .138.38h.141V.034C.318.016.314.006.287.006a.5.5 0 0 0-.098.016L.186.008c.091-.023.1-.035.108-.067Q.296-.068.3-.068l.006.002c.044.022.058.042.058.096v.684l.024.017q.009.006.008.011t-.008.01zM.177.54v.189h.141V.54zm0-.222v.2h.141v-.2zm.727.145L.862.413H.607L.651.55l.035.016Q.693.57.693.573q0 .004-.006.008L.62.624.561.412H.466L.393.416.421.38a.2.2 0 0 0 .067.01h.067L.5.213a2 2 0 0 0 .156-.09C.588.038.499-.017.355-.078L.36-.092a.8.8 0 0 1 .334.19.6.6 0 0 0 .154-.135q.018-.028.031-.027c.013 0 .023.022.023.04 0 .022-.014.048-.054.075a2 2 0 0 1-.13.079.8.8 0 0 1 .095.26h.142q.013 0 .013.008 0 .006-.009.014zM.6.39h.162A.6.6 0 0 0 .677.152Q.622.182.545.219zM.587.84A.2.2 0 0 0 .655.717C.66.696.668.692.679.692c.014 0 .032.023.032.047 0 .039-.053.082-.118.11zM.882.716.848.678H.49L.488.713H.475C.466.643.454.616.415.588Q.395.571.395.558c0-.012.01-.023.026-.023.018 0 .069.021.069.121h.37L.802.548.815.541c.067.083.087.096.128.103q.01.002.01.006T.944.662z"/><path id="J" d="M.506.128V0H.025a.3.3 0 0 0 .047.137Q.11.202.226.308A1 1 0 0 1 .34.425.15.15 0 0 1 .368.51q0 .045-.024.07a.1.1 0 0 1-.069.025.1.1 0 0 1-.068-.026Q.182.552.177.492L.042.506Q.053.62.118.669q.064.05.16.05.107 0 .167-.057A.2.2 0 0 0 .505.52.3.3 0 0 0 .49.428.4.4 0 0 0 .434.336a1 1 0 0 0-.09-.091L.26.166A.2.2 0 0 1 .233.128z"/><path id="K" d="M.44.811.401.761H.113L.04.765.068.728A.2.2 0 0 0 .135.74H.19V.6H.136L.077.65C.079.614.081.553.081.516v-.38C.081.086.08.004.078-.05v-.008q0-.021.009-.02c.01 0 .038.008.038.027v.073h.271v-.068q0-.013.006-.013t.02.006c.019.008.023.013.023.027v.007A3 3 0 0 0 .44.166V.56c.027.014.03.016.03.021q0 .005-.007.01L.41.632.389.598H.334V.74h.15q.014 0 .014.007 0 .005-.01.015zM.125.22v.026C.201.313.23.45.233.576H.29V.375C.29.326.306.317.396.316V.22zm.108.378V.74H.29V.6zM.125.575H.19a.6.6 0 0 0-.065-.31zm.209 0h.062V.354C.346.355.334.361.334.377zM.125.044v.153h.271V.045zm.71.344L.811.35H.61L.55.396.553.298v-.2L.55-.052v-.01q0-.02.008-.02.006 0 .016.004c.021.01.023.015.023.025V.01H.82v-.075q0-.012.008-.012l.017.005c.02.009.025.013.025.025l-.001.009A2 2 0 0 0 .864.1v.21l.029.015q.008.005.008.01 0 .006-.008.01zM.597.2v.128H.82V.2zm0-.168v.146H.82V.033zm.304.495L.864.483H.809V.65h.126q.012 0 .012.005T.939.67L.894.717.863.673H.809V.78C.833.793.836.795.836.8q0 .006-.009.011L.761.847.765.71V.673H.653v.11C.678.8.68.801.68.806q0 .004-.009.01L.605.848C.607.814.609.75.609.711V.673H.556q-.035 0-.073.004L.511.64a.2.2 0 0 0 .067.011h.031V.483H.528q-.035 0-.073.004L.483.45A.2.2 0 0 0 .55.46h.393q.011 0 .011.007 0 .005-.007.013zM.653.483V.65h.112V.483z"/><path id="M" d="M.013 0h.062l.063.192h.278L.477 0h.066L.311.698H.245zm.264.632h.002L.397.25H.156z"/><path id="N" d="M.347.499a.24.24 0 0 1-.095.018C.11.517.041.409.041.253c0-.176.103-.26.212-.26.036 0 .074.008.099.02L.347.077C.33.058.284.051.261.051.206.051.103.083.103.27c0 .135.071.189.149.189.03 0 .069-.007.092-.026z"/><path id="O" d="M.051.35c0-.062 0-.357.246-.357S.543.288.543.35s0 .356-.246.356S.051.41.051.35m.066 0c0 .055 0 .298.18.298S.477.404.477.35s0-.298-.18-.298-.18.243-.18.298"/><path id="Q" d="M.08 0h.062v.334h.272V0h.062v.698H.414V.392H.142v.306H.08z"/><path id="R" d="M.02.64h.162V0h.062v.64h.162v.058H.02z"/><path id="T" d="M.08 0h.062v.334h.212v.058H.142V.64h.223v.058H.08z"/><path id="U" d="M.825.808.789.763H.191L.129.817.133.685V.143a2 2 0 0 0-.006-.18v-.008q0-.011.006-.01.007 0 .023.008C.178-.035.18-.03.18-.02v.098h.634V-.04Q.813-.054.821-.054q.006 0 .021.007c.021.01.027.014.027.025l-.001.01A2 2 0 0 0 .862.17v.55l.031.02q.009.004.008.008T.893.76zM.18.101v.64h.194C.373.426.332.313.191.2L.199.19c.177.107.219.212.22.551h.148v-.39c0-.044 0-.08.115-.08.054 0 .11.018.11.026 0 .005-.023.026-.035.037A.2.2 0 0 0 .663.31C.624.31.612.324.612.354V.74h.202V.1z"/><path id="V" d="M.776.682.732.632H.333L.26.634.288.6a.2.2 0 0 0 .067.01h.481q.007 0 .007.003T.838.621zm.095.11L.824.74H.289L.31.771Q.324.791.353.8q.01.003.01.007t-.009.01l-.071.04A2 2 0 0 0 .029.434L.04.424c.068.066.105.11.234.295h.661q.008 0 .008.003l-.007.01zM.533.441.495.409H.219L.146.413.174.377a.2.2 0 0 0 .067.01h.246a1.4 1.4 0 0 0-.462-.25L.03.12c.136.034.279.1.394.17A.5.5 0 0 0 .657.173Q.677.149.69.15c.011 0 .018.013.018.028a.05.05 0 0 1-.017.038.6.6 0 0 1-.248.087q.038.025.07.05c.02.015.049.026.076.029q.014.001.014.005 0 .003-.007.008zM.937.17C.919.03.915.008.906.003.859.013.813.106.801.189a1.3 1.3 0 0 0-.009.306l.037.02Q.835.516.835.52q0 .003-.006.008L.764.583.733.536h-.49Q.208.536.17.54L.198.504a.2.2 0 0 0 .067.011h.48L.743.4q0-.125.01-.208c.028-.242.2-.28.217-.28q.01 0 .011.01a.2.2 0 0 1-.017.04.3.3 0 0 0-.015.113q0 .043.005.094zM.654.03.612-.023H.419v.147h.182q.01 0 .011.004 0 .003-.007.01l-.057.06L.513.146h-.27L.177.15.202.115c.015.005.042.01.061.01h.109v-.148H.109L.043-.02l.025-.035c.015.006.042.01.061.01h.582q.01 0 .011.003t-.007.01z"/><path id="W" d="M.329.722.303.685H.164l-.055.05C.111.705.112.656.112.632V.378C.112.28.111.208.109.172L.108.156q0-.021.008-.02.005 0 .02.01c.02.013.022.016.022.028v.088h.156v-.05Q.313.198.321.197q.006 0 .02.01C.362.22.365.225.365.236v.007a3 3 0 0 0-.004.181v.224l.024.014Q.393.665.393.67q0 .003-.008.01zm.636-.72C.785.047.692.207.662.376h.263q.012 0 .011.005 0 .005-.007.012L.874.45.832.399H.631c.005.045.008.126.01.204h.216q.012 0 .012.004T.862.621L.818.679.774.625H.642c.002.063.002.121.002.154l.03.018q.009.005.009.01 0 .003-.009.007l-.083.04C.595.81.598.72.598.625H.465Q.43.625.392.629L.42.592a.2.2 0 0 0 .067.011h.111a3 3 0 0 0-.01-.204H.443L.37.403.398.366a.2.2 0 0 0 .067.011h.121C.557.138.468.02.278-.072l.007-.015c.229.078.316.237.344.464h.014C.669.203.716.079.863-.038l.006-.004q.004 0 .008.006.02.025.069.025h.019zM.158.284v.38h.156v-.38z"/><path id="X" d="M.279.721.254.684H.16L.106.735C.108.705.109.656.109.632v-.32L.106.11V.1q0-.023.008-.022.005 0 .017.006C.15.093.153.097.153.109V.25h.112V.18Q.264.165.272.166q.006 0 .02.007C.311.183.315.186.315.2v.006A2 2 0 0 0 .31.344v.303l.024.014q.008.005.008.01 0 .003-.008.01zM.153.273v.39h.112v-.39zm.379.195a.2.2 0 0 0 .043-.1C.579.348.582.343.596.343S.625.36.625.38Q.623.42.541.477zm.363.251L.859.671H.671l.005.112.028.014q.01.004.01.008 0 .003-.01.01l-.071.04c0-.032 0-.05-.002-.098L.627.671H.435L.362.675.39.639a.2.2 0 0 0 .067.01h.17L.622.536h-.16l-.06.048.004-.146V.163L.403-.043v-.012q-.001-.021.008-.02.006 0 .02.006c.021.009.024.013.024.026v.008A3 3 0 0 0 .451.16v.353h.404V.036c0-.021-.001-.03-.033-.03a1 1 0 0 0-.093.009L.726.002c.085-.02.096-.034.102-.064q.001-.01.007-.01l.007.003C.9-.037.901-.03.901.035v.461l.025.02q.006.003.006.007 0 .003-.006.007L.865.576.837.536H.665L.67.65h.286q.01 0 .01.003t-.008.01zM.769.235.74.198H.667v.108h.134Q.812.305.812.31q0 .004-.007.01L.766.365.74.328H.678c.073.11.078.116.102.12Q.791.45.791.453T.784.459l-.062.03A2 2 0 0 0 .66.328H.567L.501.332.526.296c.015.006.042.01.061.01h.036V.198H.55L.484.202.509.166c.015.006.042.01.061.01h.053C.623.122.622.033.62-.022v-.01q-.001-.02.008-.02.006 0 .02.006c.02.009.023.012.023.027v.008C.669.029.667.079.667.176h.142Q.821.175.82.18q0 .004-.007.01z"/><path id="Z" d="M.08 0h.108c.225 0 .324.156.324.36 0 .225-.109.338-.341.338H.08zm.062.64h.053C.429.64.446.458.446.35.446.173.361.057.206.057H.142z"/><path id="aa" d="M.08 0h.058v.64H.14L.347 0h.047L.6.64h.002V0H.66v.698H.565L.371.092H.369L.175.698H.08z"/><path id="ab" d="M.159.09H.085L.037-.132h.058z"/><path id="ac" d="M.385.236c0 .124-.015.28-.163.28C.136.517.041.447.041.256c0-.05 0-.262.2-.262.061 0 .095.016.119.03L.357.088a.2.2 0 0 0-.11-.042c-.023 0-.144 0-.144.189zM.103.29c0 .066.037.173.116.173C.266.463.323.425.323.29z"/><path id="ad" d="M.067 0h.346v.058H.137l.09.111C.286.242.404.39.404.522c0 .087-.046.183-.17.183A.27.27 0 0 1 .087.661L.096.592a.23.23 0 0 0 .133.055C.306.647.338.593.338.522.338.386.201.227.12.127L.067.061z"/><path id="ae" d="M.08 0h.058v.616H.14L.433 0h.08v.698H.455v-.62H.453L.16.698H.08z"/><path id="ag" d="M.469.082a.24.24 0 0 0-.118-.03c-.08 0-.228.056-.228.3 0 .272.18.295.229.295s.1-.019.119-.035l.003.07a.3.3 0 0 1-.117.023c-.215 0-.3-.172-.3-.352 0-.187.089-.36.296-.36.058 0 .1.015.119.022z"/><path id="ah" d="M.431.81.395.762h-.29Q.07.763.032.767L.06.731a.2.2 0 0 0 .067.011h.062V.608H.132L.075.654C.077.621.079.56.079.523V.147C.079.096.078.014.076-.038v-.008q0-.022.009-.021c.01 0 .038.009.038.028v.082h.282c0-.04 0-.04.007-.04q.006 0 .019.006c.02.011.024.015.024.028v.006A3 3 0 0 0 .45.227v.352c.027.019.03.02.03.026q0 .004-.007.009L.415.653.389.608H.334v.134h.142Q.49.742.49.748q0 .007-.01.015zM.123.216v.03c.075.076.107.196.108.34h.061v-.2C.292.34.304.323.361.323l.044.002v-.11zm.108.392v.134h.061V.608zM.334.587h.071V.365L.366.361C.342.361.334.37.334.387zm-.211 0h.066C.188.42.169.333.123.266zm0-.522v.13h.282v-.13zm.791.073C.907-.02.899-.026.844-.026c-.061 0-.061.014-.061.037v.36h.162q.013 0 .013.007 0 .005-.008.013L.894.448.857.392H.723v.216h.179q.014 0 .014.006T.906.63l-.05.053-.04-.054H.723V.79c.027.016.03.018.03.022q0 .004-.011.01l-.066.03C.678.817.679.794.679.755V.63H.578l.03.075c.025.014.028.016.028.02q0 .002-.007.006L.575.76A2.4 2.4 0 0 0 .474.435L.487.433Q.53.509.57.608h.109V.392H.522l-.07.004.027-.035a.2.2 0 0 0 .064.01H.59a1 1 0 0 0-.027-.26.43.43 0 0 0-.179-.198l.005-.01q.16.08.208.189c.021.046.032.114.038.28h.104v-.36c0-.061.015-.075.106-.075.07 0 .095.01.117.059l.002.007q0 .005-.006.007C.936.019.929.036.926.137z"/><path id="ai" d="M.48.821.443.767H.117q-.035 0-.073.004L.072.736a.2.2 0 0 0 .067.011h.075v-.14H.151L.09.658Q.093.608.094.546V.102C.094.05.093.012.091-.041v-.01q0-.021.009-.02.006 0 .019.005c.016.008.019.01.019.022v.078h.296v-.081Q.433-.061.441-.06q.006 0 .019.006c.019.009.022.013.022.026v.008a2 2 0 0 0-.003.14v.454l.028.018Q.515.596.515.6T.507.61L.446.65.42.607H.359v.14h.178q.01 0 .01.004 0 .003-.007.01zM.138.218v.039c.075.072.117.159.119.33h.059V.382c0-.044.015-.058.077-.058l.041.001V.218zm.119.389v.14h.059v-.14zm.102-.02h.075V.365L.395.362C.368.362.359.37.359.387zm-.221 0h.076C.213.437.189.353.138.284zm0-.533v.144h.296V.054zm.726.33L.839.34H.625L.571.39.574.287V.102l-.003-.15v-.009q0-.024.009-.023.006 0 .016.005c.019.008.022.011.022.021V0h.233v-.07q0-.01.006-.01.005 0 .018.006C.894-.063.9-.06.9-.049l-.001.007a1 1 0 0 0-.004.13v.213l.034.022Q.935.327.935.33T.929.338zM.618.183V.32h.233V.183zm0-.163v.143h.233V.02zm.291.62C.898.496.885.483.859.48L.767.479C.628.478.62.483.62.542v.05L.836.69a.15.15 0 0 0 .069.017q.01 0 .011.005 0 .004-.007.01L.861.764A3 3 0 0 0 .62.607v.168l.027.016Q.653.794.654.8q0 .004-.008.008L.573.845Q.576.808.576.743V.54C.576.447.58.438.748.438c.161 0 .173 0 .207.059l.003.008q0 .007-.008.01C.928.53.922.55.922.64z"/><path id="aj" d="M.08 0h.307v.058H.142v.276h.223v.058H.142V.64h.234v.058H.08z"/><path id="ak" d="M.094.612V.51H.018V.456h.076V.108c0-.057.02-.115.095-.115.027 0 .053.002.067.007v.058C.245.053.235.048.208.048.159.047.152.082.152.123v.332h.104V.51H.152v.12z"/><path id="al" d="M.073 0v.716h.53V.595H.218V.437h.36V.315h-.36V.121h.4V0z"/><path id="am" d="M.31.519v-.11H.216V.201q0-.064.003-.074A.03.03 0 0 1 .23.109.04.04 0 0 1 .254.103q.02 0 .055.013L.321.009a.3.3 0 0 0-.109-.02A.2.2 0 0 0 .146 0a.1.1 0 0 0-.044.032.1.1 0 0 0-.02.053 1 1 0 0 0-.004.097V.41H.015v.11h.063v.103l.138.081V.52z"/><path id="an" d="M.056.026a.26.26 0 0 1 .132-.033c.107 0 .187.076.187.193 0 .096-.038.128-.162.22-.06.043-.096.07-.096.14 0 .08.072.101.112.101A.2.2 0 0 0 .34.613l.003.07a.3.3 0 0 1-.11.022C.192.705.051.691.051.536.051.457.08.413.177.347.261.291.309.258.309.177.309.151.295.051.183.051A.2.2 0 0 0 .06.098z"/><path id="ao" d="m.036.232.14.014A.17.17 0 0 1 .229.142.16.16 0 0 1 .333.108q.07 0 .105.03.036.03.036.07A.07.07 0 0 1 .459.25a.1.1 0 0 1-.052.03L.29.314a.4.4 0 0 0-.163.071.187.187 0 0 0-.035.247q.03.048.09.073a.4.4 0 0 0 .14.025Q.457.73.525.67A.21.21 0 0 0 .598.511L.453.505q-.01.055-.04.08-.03.023-.091.023A.17.17 0 0 1 .223.583.05.05 0 0 1 .2.538Q.2.513.222.495A.4.4 0 0 1 .354.447.7.7 0 0 0 .51.395.2.2 0 0 0 .59.322.2.2 0 0 0 .618.208a.21.21 0 0 0-.13-.196.4.4 0 0 0-.156-.026.3.3 0 0 0-.209.063.27.27 0 0 0-.087.183"/><path d="M.796.826.764.78H.228L.166.831C.168.803.169.761.169.738V.43L.166.243v-.01q0-.02.008-.02L.192.22c.02.008.024.012.024.023V.31H.47V.17C.47.115.468.024.465-.034V-.05q0-.02.009-.019.008 0 .021.006c.021.01.024.013.024.027v.008L.517.169V.31h.267V.267Q.783.254.791.254.797.254.81.26c.02.008.026.012.026.029v.005a3 3 0 0 0-.005.183v.264l.032.02Q.87.764.87.767q0 .004-.007.01zM.517.56v.198h.267V.56zm-.301 0v.198H.47V.56zM.517.332v.206h.267V.332zm-.301 0v.206H.47V.332z" id="o"/><path d="M.859.255C.847.065.836.049.784.042A3 3 0 0 0 .468.03c-.213 0-.29.003-.29.085 0 .035 0 .102.499.573l.055.011q.017.003.017.01 0 .006-.01.018L.687.791.632.742H.16q-.035 0-.073.004L.115.71a.2.2 0 0 0 .067.01h.451C.266.347.128.207.128.115c0-.122.07-.129.393-.129.096 0 .192.003.277.008.07.005.088.018.12.077l.001.005q0 .008-.008.013C.884.106.874.14.874.255z" id="q"/><path d="M.975.018a2 2 0 0 0-.254-.022C.626-.004.597.001.55.048v.35l.026.016q.007.004.007.008 0 .003-.009.008L.522.464.497.428H.452L.412.43.424.408a.2.2 0 0 0 .043.005h.044v-.35L.408.003a1 1 0 0 0-.005.1V.57c.009.007.024.018.024.021q0 .003-.005.006L.373.635.349.601H.312v.155h.142q.01 0 .01.003T.459.767L.406.82.373.774H.099L.031.777l.024-.03a.2.2 0 0 0 .066.01h.05V.6H.118L.073.64V.093Q.073.01.07-.053v-.01q0-.018.008-.018c.001 0 .039.01.039.03V.03h.242v-.085l.052.027-.003.024.048-.03C.47-.002.499.05.519.05Q.531.05.547.032C.608-.027.636-.05.844-.05c.047 0 .052 0 .056.01.009.021.027.038.075.051zm-.858.21V.27C.19.342.213.44.214.583h.053V.392c0-.047.015-.059.092-.058V.229zM.214.6v.155h.053V.601zM.312.583h.047V.371L.335.367q-.024 0-.023.028zm-.195 0h.054C.174.423.159.366.117.293zm0-.535v.163h.242V.048zm.766.72A2 2 0 0 0 .788.552L.797.546l.09.137c.014.021.025.032.041.035Q.934.72.934.722T.928.73zM.58.731A.4.4 0 0 0 .636.595C.639.57.644.562.65.562c.019 0 .032.019.032.041 0 .028-.035.083-.099.132zM.448.727a.2.2 0 0 0 .05-.123C.5.573.505.565.514.565c.016 0 .033.013.033.04Q.545.666.453.73zM.887.553.853.503H.771v.29c.02.013.022.015.022.018q0 .005-.006.008L.723.847C.725.81.727.745.727.705V.504H.624q-.032 0-.068.004L.58.476c.015.004.045.01.066.01h.052A2 2 0 0 0 .569.168L.576.163c.06.08.115.189.151.289V.235L.725.062q0-.015.007-.015.006 0 .017.006c.021.01.026.013.026.028v.004L.771.234v.154A.4.4 0 0 0 .868.237C.877.2.881.195.896.195c.014 0 .023.017.023.037 0 .056-.078.122-.148.17v.084h.163Q.943.485.943.49L.938.498z" id="r"/><path d="M.436.816.401.77H.104Q.069.77.031.773L.059.736a.2.2 0 0 0 .067.011h.066V.606H.13L.074.651.078.519V.147q0-.075-.005-.184v-.009q0-.021.009-.02.006 0 .02.005c.017.007.019.01.019.023V.04h.277v-.043Q.397-.016.405-.016q.006 0 .019.006c.021.01.024.013.024.026v.008a3 3 0 0 0-.005.183V.57l.028.015Q.479.59.479.593T.471.601L.412.642.388.606H.331v.141h.144q.018 0 .018.005 0 .004-.009.013zM.121.224v.36h.071C.191.404.175.349.129.272L.132.254c.075.08.098.133.099.33H.29V.389C.29.34.303.326.398.326V.224zm.11.382v.141H.29V.606zm.1-.022h.067v-.22C.34.363.331.368.331.391zM.121.063v.139h.277v-.14zm.696.325L.788.349H.634l.022.039q.018.03.035.033.013.003.013.007T.696.436L.64.465A2 2 0 0 0 .491.159L.502.15q.046.056.104.152A.6.6 0 0 1 .683.123a.8.8 0 0 0-.311-.2L.377-.09a.75.75 0 0 1 .33.18.7.7 0 0 1 .167-.138q.004 0 .007.005c.015.022.031.033.084.035l.001.013a.43.43 0 0 0-.234.112 1 1 0 0 1 .105.177.06.06 0 0 0 .034.028q.012.002.011.006 0 .003-.008.01zM.621.327h.175A.6.6 0 0 0 .705.15a.6.6 0 0 0-.087.173zM.772.76A.4.4 0 0 0 .861.658L.545.643q.071.062.153.15a.1.1 0 0 0 .035.02q.01.002.011.005 0 .004-.008.008L.68.857a.8.8 0 0 0-.125-.18Q.543.66.492.652L.522.6Q.527.592.531.592t.012.004a.3.3 0 0 0 .088.019l.238.029.012-.028C.89.586.898.583.906.583c.015 0 .024.02.024.045C.93.672.893.71.778.771zM.757.55A.34.34 0 0 0 .876.42C.886.4.892.398.901.398s.021.016.021.037c0 .045-.04.08-.161.126zM.599.572A1.2 1.2 0 0 0 .454.364L.465.356c.06.058.098.096.16.159q.016.016.03.02.008.001.008.005 0 .003-.009.007z" id="B"/><path d="M.073-.106c.049.017.106.051.106.117C.179.075.13.107.103.107.084.107.063.094.063.071.063.06.071.057.076.056.103.05.131.031.131-.008c0-.035-.026-.06-.068-.078z" id="L"/></defs><g clip-path="url(#a)"><path fill="none" stroke="#231f20" stroke-miterlimit="10" d="M6 314.067h300.46M6 16.567h300.46"/><path fill="none" stroke="#231f20" stroke-miterlimit="10" stroke-width="0.3" d="M6 58.167h300.46M6 101.067h300.46M6 141.867h300.46M6 182.567h300.46M6 220.467h300.46M6 272.667h300.46"/><use fill="#231f20" data-text="需" transform="matrix(8 0 0 -8 6 8.631)" href="#b"/><use fill="#231f20" data-text="要" transform="matrix(8 0 0 -8 14 8.631)" href="#c"/><use fill="#231f20" data-text="熟" transform="matrix(8 0 0 -8 22 8.631)" href="#d"/><use fill="#231f20" data-text="记" transform="matrix(8 0 0 -8 30 8.631)" href="#e"/><use fill="#231f20" data-text="的" transform="matrix(8 0 0 -8 38 8.631)" href="#f"/><use fill="#231f20" data-text="重" transform="matrix(8 0 0 -8 46 8.631)" href="#g"/><use fill="#231f20" data-text="要" transform="matrix(8 0 0 -8 54 8.631)" href="#c"/><use fill="#231f20" data-text="结" transform="matrix(8 0 0 -8 62 8.63)" href="#h"/><use fill="#231f20" data-text="构" transform="matrix(8 0 0 -8 70 8.63)" href="#i"/><use fill="#231f20" data-text="丙" transform="matrix(8 0 0 -8 6 28.63)" href="#j"/><use fill="#231f20" data-text="酮" transform="matrix(8 0 0 -8 14 28.63)" href="#k"/><use fill="#ed1c24" data-text="M" transform="matrix(8 0 0 -8 81.4 50.687)" href="#l"/><use fill="#ed1c24" data-text="e" transform="matrix(8 0 0 -8 88.064 50.687)" href="#m"/><path fill="#ed1c24" d="M102.56 40.267v.8l-9.4 5.5-.3-.6z"/><use fill="#ed1c24" data-text="M" transform="matrix(8 0 0 -8 111.46 50.667)" href="#l"/><use fill="#ed1c24" data-text="e" transform="matrix(8 0 0 -8 118.124 50.667)" href="#m"/><path fill="#ed1c24" d="m110.46 44.867-.4.6-7.5-4.4v-.8z"/><use fill="#ed1c24" data-text="O" transform="matrix(8 0 0 -8 99.36 29.467)" href="#n"/><path fill="#ed1c24" d="M101.06 41.367h.7v-10.3h-.7Zm2.3 0h.7v-10.3h-.7Z"/><use fill="#231f20" data-text="甲" transform="matrix(8 0 0 -8 221.451 28.631)" href="#o"/><use fill="#231f20" data-text="苯" transform="matrix(8 0 0 -8 229.451 28.63)" href="#p"/><path fill="#ed1c24" d="m248.46 33.167-.7-.4 12.7-7v.8zm2.1 1.5-.4-.7 10.1-5.5.3.6z"/><path fill="#ed1c24" d="m248.16 46.967-.7.4.3-14.6.7.4z"/><path fill="#ed1c24" d="M259.96 54.067v.9l-12.5-7.6.7-.4zm.2-2.5-.3.6-9.9-6 .4-.6zm11.8-4.1.7.4-12.7 7.1v-.9z"/><path fill="#ed1c24" d="m272.26 33.667.4-.2.3.2-.3 14.2-.7-.4zm-2.3 1.1h.7l-.2 11.5h-.7z"/><path fill="#ed1c24" d="M272.66 33.067v.4l-.4.2-11.8-7.1v-.8z"/><use fill="#ed1c24" data-text="M" transform="matrix(8 0 0 -8 281.66 29.467)" href="#l"/><use fill="#ed1c24" data-text="e" transform="matrix(8 0 0 -8 288.324 29.467)" href="#m"/><path fill="#ed1c24" d="m280.26 28.767.4.7-7.7 4.2-.3-.2v-.4z"/><use fill="#231f20" data-text="乙" transform="matrix(8 0 0 -8 6 68.231)" href="#q"/><use fill="#231f20" data-text="醚" transform="matrix(8 0 0 -8 14 68.23)" href="#r"/><use fill="#231f20" data-text="或" transform="matrix(8 0 0 -8 23.848 68.23)" href="#s"/><use fill="#231f20" data-text="二" transform="matrix(8 0 0 -8 33.696 68.23)" href="#t"/><use fill="#231f20" data-text="乙" transform="matrix(8 0 0 -8 41.696 68.23)" href="#q"/><use fill="#231f20" data-text="基" transform="matrix(8 0 0 -8 49.696 68.23)" href="#u"/><use fill="#231f20" data-text="醚" transform="matrix(8 0 0 -8 57.696 68.23)" href="#r"/><path fill="#ed1c24" d="M93.76 72.667v.9l-12.4-7.2.4-.6z"/><use fill="#ed1c24" data-text="O" transform="matrix(8 0 0 -8 102.86 69.067)" href="#n"/><path fill="#ed1c24" d="m102.06 67.967.3.6-8.6 5v-.9zm16.2 4.7v.9l-8.6-5 .4-.6zm12.1-6.9.3.6-12.4 7.2v-.9z"/><use fill="#231f20" data-text="吡" transform="matrix(8 0 0 -8 221.528 68.231)" href="#v"/><use fill="#231f20" data-text="啶" transform="matrix(8 0 0 -8 229.528 68.231)" href="#w"/><use fill="#ed1c24" data-text="N" transform="matrix(8 0 0 -8 257.84 95.27)" href="#x"/><path fill="#ed1c24" d="m248.16 84.767-.7.4v-15.3l.7.4zm1.7-1.2h.75v-12.15h-.75Z"/><path fill="#ed1c24" d="m256.66 89.667-.3.6-8.9-5.1.7-.4zm16.7-4.9.7.4-9 5.2-.3-.7zm-2.2-1.5.3.6-7.6 4.4-.3-.6zm2.2-13 .7-.4v15.3l-.7-.4z"/><path fill="#ed1c24" d="M260.76 62.967v-.8l13.3 7.7-.7.4zm-.2 2.7.3-.6 10.6 6.1-.3.6z"/><path fill="#ed1c24" d="M260.76 62.167v.8l-12.6 7.3-.7-.4z"/><use fill="#231f20" data-text="乙" transform="matrix(8 0 0 -8 6 111.131)" href="#q"/><use fill="#231f20" data-text="醛" transform="matrix(8 0 0 -8 14 111.13)" href="#y"/><use fill="#ed1c24" data-text="M" transform="matrix(8 0 0 -8 81.4 133.139)" href="#l"/><use fill="#ed1c24" data-text="e" transform="matrix(8 0 0 -8 88.064 133.139)" href="#m"/><path fill="#ed1c24" d="M102.56 122.767v.9l-9.4 5.4-.3-.6z"/><use fill="#ed1c24" data-text="H" transform="matrix(8 0 0 -8 111.96 133.167)" href="#z"/><path fill="#ed1c24" d="m110.86 127.567-.4.6-7.9-4.5v-.9z"/><use fill="#ed1c24" data-text="O" transform="matrix(8 0 0 -8 99.46 111.967)" href="#n"/><path fill="#ed1c24" d="M101.06 123.867h.7v-10.3h-.7Zm2.3 0h.7v-10.3h-.7Z"/><use fill="#231f20" data-text="苯" transform="matrix(8 0 0 -8 221.524 111.131)" href="#p"/><use fill="#231f20" data-text="酚" transform="matrix(8 0 0 -8 229.524 111.131)" href="#A"/><path fill="#ed1c24" d="m248.26 116.367-.8-.4 12.7-7.3v.8zm2 1.4-.3-.6 10-5.8.3.6zm-2 12.4-.8.4v-14.6l.8.4zm11.9 6.8v.9l-12.7-7.3.8-.4zm.1-2.5-.3.6-10-5.7.3-.6zm11.8-4.3.7.4-12.6 7.3v-.9z"/><path fill="#ed1c24" d="m272.06 116.367.4-.2.3.2v14.2l-.7-.4zm-2.3 12.7h.7v-11.55h-.7Z"/><path fill="#ed1c24" d="M272.46 115.767v.4l-.4.2-11.9-6.9v-.8z"/><use fill="#ed1c24" data-text="O" transform="matrix(8 0 0 -8 281.56 111.967)" href="#n"/><use fill="#ed1c24" data-text="H" transform="matrix(8 0 0 -8 287.784 111.967)" href="#z"/><path fill="#ed1c24" d="m280.66 110.967.4.6-8.3 4.8-.3-.2v-.4z"/><use fill="#231f20" data-text="甲" transform="matrix(8 0 0 -8 6 151.931)" href="#o"/><use fill="#231f20" data-text="酸" transform="matrix(8 0 0 -8 14 151.93)" href="#B"/><use fill="#231f20" data-text="(" transform="matrix(8 0 0 -8 23.848 151.93)" href="#D"/><use fill="#231f20" data-text="蚁" transform="matrix(8 0 0 -8 26.84 151.93)" href="#E"/><use fill="#231f20" data-text="酸" transform="matrix(8 0 0 -8 34.84 151.93)" href="#B"/><use fill="#231f20" data-text=")" transform="matrix(8 0 0 -8 42.84 151.93)" href="#G"/><use fill="#ed1c24" data-text="H" transform="matrix(8 0 0 -8 81.4 173.939)" href="#z"/><path fill="#ed1c24" d="M96.66 163.567v.8l-8 4.6-.3-.6z"/><use fill="#ed1c24" data-text="O" transform="matrix(8 0 0 -8 105.76 173.967)" href="#n"/><use fill="#ed1c24" data-text="H" transform="matrix(8 0 0 -8 111.984 173.967)" href="#z"/><path fill="#ed1c24" d="m105.36 168.567-.4.6-8.3-4.8v-.8z"/><use fill="#ed1c24" data-text="O" transform="matrix(8 0 0 -8 93.46 152.667)" href="#n"/><path fill="#ed1c24" d="M95.16 164.667h.7v-10.3h-.7Zm2.2 0h.7v-10.3h-.7Z"/><use fill="#231f20" data-text="苯" transform="matrix(8 0 0 -8 221.524 151.931)" href="#p"/><use fill="#231f20" data-text="胺" transform="matrix(8 0 0 -8 229.524 151.931)" href="#I"/><path fill="#ed1c24" d="m248.16 157.167-.7-.4 12.6-7.3v.8zm2.1 1.4-.3-.6 10-5.8.3.6zm-2.1 12.4-.7.4v-14.6l.7.4z"/><path fill="#ed1c24" d="M260.06 177.767v.8l-12.6-7.2.7-.4zm.2-2.5-.3.6-10-5.7.3-.6zm11.8-4.3.7.4-12.7 7.2v-.8zm0-13.8.3-.2.4.2v14.2l-.7-.4zm-2.3 12.7h.7v-11.55h-.7Z"/><path fill="#ed1c24" d="M272.36 156.567v.4l-.3.2-12-6.9v-.8z"/><use fill="#ed1c24" data-text="N" transform="matrix(8 0 0 -8 281.76 152.667)" href="#x"/><use fill="#ed1c24" data-text="H" transform="matrix(8 0 0 -8 287.535 152.667)" href="#z"/><use fill="#ed1c24" data-text="2" transform="matrix(6 0 0 -6 293.26 154.267)" href="#J"/><path fill="#ed1c24" d="m280.26 151.967.4.6-7.9 4.6-.4-.2v-.4z"/><use fill="#231f20" data-text="醋" transform="matrix(8 0 0 -8 6 192.631)" href="#K"/><use fill="#231f20" data-text="酸" transform="matrix(8 0 0 -8 14 192.631)" href="#B"/><use fill="#231f20" data-text="," transform="matrix(8 0 0 -8 22 192.631)" href="#L"/><use fill="#231f20" data-text="A" transform="matrix(8 0 0 -8 25.576 192.631)" href="#M"/><use fill="#231f20" data-text="c" transform="matrix(8 0 0 -8 30.024 192.631)" href="#N"/><use fill="#231f20" data-text="O" transform="matrix(8 0 0 -8 32.984 192.631)" href="#O"/><use fill="#231f20" data-text="H" transform="matrix(8 0 0 -8 37.736 192.631)" href="#Q"/><use fill="#ed1c24" data-text="M" transform="matrix(8 0 0 -8 81.4 214.599)" href="#l"/><use fill="#ed1c24" data-text="e" transform="matrix(8 0 0 -8 88.064 214.599)" href="#m"/><path fill="#ed1c24" d="M102.56 204.267v.8l-9.4 5.4-.3-.6z"/><use fill="#ed1c24" data-text="O" transform="matrix(8 0 0 -8 111.66 214.667)" href="#n"/><use fill="#ed1c24" data-text="H" transform="matrix(8 0 0 -8 117.883 214.667)" href="#z"/><path fill="#ed1c24" d="m111.26 209.267-.4.6-8.3-4.8v-.8z"/><use fill="#ed1c24" data-text="O" transform="matrix(8 0 0 -8 99.36 193.467)" href="#n"/><path fill="#ed1c24" d="M101.06 205.267h.7v-10.3h-.7Zm2.3 0h.699v-10.3h-.7Z"/><use fill="#231f20" data-text="T" transform="matrix(8 0 0 -8 190.671 192.631)" href="#R"/><use fill="#231f20" data-text="H" transform="matrix(8 0 0 -8 194.079 192.631)" href="#Q"/><use fill="#231f20" data-text="F" transform="matrix(8 0 0 -8 198.527 192.631)" href="#T"/><use fill="#231f20" data-text="," transform="matrix(8 0 0 -8 201.784 192.63)" href="#L"/><use fill="#231f20" data-text="四" transform="matrix(8 0 0 -8 205.536 192.63)" href="#U"/><use fill="#231f20" data-text="氢" transform="matrix(8 0 0 -8 213.536 192.63)" href="#V"/><use fill="#231f20" data-text="呋" transform="matrix(8 0 0 -8 221.536 192.63)" href="#W"/><use fill="#231f20" data-text="喃" transform="matrix(8 0 0 -8 229.536 192.63)" href="#X"/><use fill="#ed1c24" data-text="O" transform="matrix(8 0 0 -8 256.72 211.31)" href="#n"/><path fill="#ed1c24" d="m248.26 200.467-.8.4 3.8-14.3.6.8z"/><path fill="#ed1c24" d="m256.36 205.767-.4.6-8.5-5.5.8-.4zm14-6.4.8.2-7.8 6.4-.5-.6z"/><path fill="#ed1c24" d="m265.46 187.367.5-.8 5.2 13-.8-.2z"/><path fill="#ed1c24" d="m265.96 186.567-.5.8h-13.6l-.6-.8z"/><use fill="#231f20" data-text="苯" transform="matrix(8 0 0 -8 6 230.531)" href="#p"/><path fill="#ed1c24" d="m82.16 245.967-.8.4v-14.6l.8.4zm1.5-1.1h.7v-11.6h-.7Z"/><path fill="#ed1c24" d="M94.06 252.867v.8l-12.7-7.3.8-.4zm11.9-6.9.7.4-12.6 7.3v-.8zm-2.1-1.5.4.7-10.1 5.8-.3-.7zm2.1-12.3.7-.4v14.6l-.7-.4z"/><path fill="#ed1c24" d="M94.06 225.267v-.8l12.6 7.3-.7.4zm-.2 2.5.3-.6 10.1 5.8-.4.6z"/><path fill="#ed1c24" d="M94.06 224.467v.8l-11.9 6.9-.8-.4z"/><use fill="#231f20" data-text="D" transform="matrix(8 0 0 -8 189.193 230.467)" href="#Z"/><use fill="#231f20" data-text="M" transform="matrix(8 0 0 -8 193.641 230.467)" href="#aa"/><use fill="#231f20" data-text="F" transform="matrix(8 0 0 -8 199.561 230.467)" href="#T"/><use fill="#231f20" data-text="," transform="matrix(8 0 0 -8 201.793 230.467)" href="#ab"/><use fill="#231f20" data-text="M" transform="matrix(8 0 0 -8 205.528 230.467)" href="#aa"/><use fill="#231f20" data-text="e" transform="matrix(8 0 0 -8 211.448 230.467)" href="#ac"/><use fill="#231f20" data-text="2" transform="matrix(5.2 0 0 -5.2 214.856 232.267)" href="#ad"/><use fill="#231f20" data-text="N" transform="matrix(8 0 0 -8 217.352 230.467)" href="#ae"/><use fill="#231f20" data-text="C" transform="matrix(8 0 0 -8 222.096 230.467)" href="#ag"/><use fill="#231f20" data-text="H" transform="matrix(8 0 0 -8 226.392 230.467)" href="#Q"/><use fill="#231f20" data-text="O" transform="matrix(8 0 0 -8 230.84 230.467)" href="#O"/><use fill="#231f20" data-text="," transform="matrix(8 0 0 -8 235.592 230.467)" href="#ab"/><use fill="#231f20" data-text="二" transform="matrix(8 0 0 -8 189.511 240.035)" href="#t"/><use fill="#231f20" data-text="甲" transform="matrix(8 0 0 -8 197.511 240.035)" href="#o"/><use fill="#231f20" data-text="基" transform="matrix(8 0 0 -8 205.511 240.035)" href="#u"/><use fill="#231f20" data-text="甲" transform="matrix(8 0 0 -8 213.511 240.035)" href="#o"/><use fill="#231f20" data-text="酰" transform="matrix(8 0 0 -8 221.511 240.035)" href="#ah"/><use fill="#231f20" data-text="胺" transform="matrix(8 0 0 -8 229.511 240.035)" href="#I"/><use fill="#ed1c24" data-text="N" transform="matrix(8 0 0 -8 265.72 245.443)" href="#x"/><path fill="#ed1c24" d="m272.66 245.267.4-.6 7.9 4.6v.8z"/><use fill="#ed1c24" data-text="M" transform="matrix(8 0 0 -8 247.46 252.567)" href="#l"/><use fill="#ed1c24" data-text="e" transform="matrix(8 0 0 -8 254.124 252.567)" href="#m"/><path fill="#ed1c24" d="m259.26 248.467-.4-.7 5.4-3.1.4.7z"/><use fill="#ed1c24" data-text="M" transform="matrix(8 0 0 -8 265.26 231.367)" href="#l"/><use fill="#ed1c24" data-text="e" transform="matrix(8 0 0 -8 271.924 231.367)" href="#m"/><path fill="#ed1c24" d="M268.36 238.267h.7v-5.55h-.7Z"/><use fill="#ed1c24" data-text="H" transform="matrix(8 0 0 -8 290.26 245.467)" href="#z"/><path fill="#ed1c24" d="m288.86 244.667.3.7-8.2 4.7v-.8z"/><use fill="#ed1c24" data-text="O" transform="matrix(8 0 0 -8 277.86 266.767)" href="#n"/><path fill="#ed1c24" d="M281.76 259.567h.699v-10.5h-.7Zm-2.3 0h.699v-10.5h-.7Z"/><use fill="#231f20" data-text="乙" transform="matrix(8 0 0 -8 6 282.731)" href="#q"/><use fill="#231f20" data-text="酸" transform="matrix(8 0 0 -8 14 282.73)" href="#B"/><use fill="#231f20" data-text="乙" transform="matrix(8 0 0 -8 22 282.73)" href="#q"/><use fill="#231f20" data-text="酯" transform="matrix(8 0 0 -8 30 282.73)" href="#ai"/><use fill="#231f20" data-text="," transform="matrix(8 0 0 -8 38 282.73)" href="#L"/><use fill="#231f20" data-text="E" transform="matrix(8 0 0 -8 41.995 282.73)" href="#aj"/><use fill="#231f20" data-text="t" transform="matrix(8 0 0 -8 45.547 282.73)" href="#ak"/><use fill="#231f20" data-text="O" transform="matrix(8 0 0 -8 47.77 282.73)" href="#O"/><use fill="#231f20" data-text="A" transform="matrix(8 0 0 -8 52.523 282.73)" href="#M"/><use fill="#231f20" data-text="c" transform="matrix(8 0 0 -8 56.97 282.73)" href="#N"/><use fill="#ed1c24" data-text="E" transform="matrix(8 0 0 -8 81.4 304.787)" href="#al"/><use fill="#ed1c24" data-text="t" transform="matrix(8 0 0 -8 86.736 304.787)" href="#am"/><use fill="#ed1c24" data-text="O" transform="matrix(8 0 0 -8 89.4 304.787)" href="#n"/><path fill="#ed1c24" d="M104.76 294.267v.9l-8.3 4.8-.4-.6z"/><use fill="#ed1c24" data-text="M" transform="matrix(8 0 0 -8 113.66 304.667)" href="#l"/><use fill="#ed1c24" data-text="e" transform="matrix(8 0 0 -8 120.323 304.667)" href="#m"/><path fill="#ed1c24" d="m112.66 298.867-.3.6-7.6-4.3v-.9z"/><use fill="#ed1c24" data-text="O" transform="matrix(8 0 0 -8 101.66 283.467)" href="#n"/><path fill="#ed1c24" d="M103.26 295.367h.7v-10.35h-.7Zm2.3 0h.75v-10.3h-.75Z"/><use fill="#231f20" data-text="D" transform="matrix(8 0 0 -8 218.96 282.667)" href="#Z"/><use fill="#231f20" data-text="M" transform="matrix(8 0 0 -8 223.408 282.667)" href="#aa"/><use fill="#231f20" data-text="S" transform="matrix(8 0 0 -8 229.328 282.667)" href="#an"/><use fill="#231f20" data-text="O" transform="matrix(8 0 0 -8 232.736 282.667)" href="#O"/><use fill="#ed1c24" data-text="M" transform="matrix(8 0 0 -8 247.488 304.69)" href="#l"/><use fill="#ed1c24" data-text="e" transform="matrix(8 0 0 -8 254.151 304.69)" href="#m"/><use fill="#ed1c24" data-text="S" transform="matrix(8 0 0 -8 265.943 297.699)" href="#ao"/><path fill="#ed1c24" d="m264.66 296.567.4.7-5.8 3.3-.3-.7z"/><use fill="#ed1c24" data-text="M" transform="matrix(8 0 0 -8 277.56 304.667)" href="#l"/><use fill="#ed1c24" data-text="e" transform="matrix(8 0 0 -8 284.224 304.667)" href="#m"/><path fill="#ed1c24" d="m276.56 298.867-.4.6-3.9-2.3.3-.6z"/><use fill="#ed1c24" data-text="O" transform="matrix(8 0 0 -8 265.46 283.467)" href="#n"/><path fill="#ed1c24" d="M267.16 290.367h.75v-5.35h-.75Zm2.3 0h.699v-5.35h-.7Z"/></g></svg>