<svg xmlns="http://www.w3.org/2000/svg" width="538.892" height="350.099" stroke-linecap="round" stroke-linejoin="round" class="tl-container tl-theme__force-sRGB tl-theme__light" data-color-mode="light" direction="ltr" viewBox="1566.436 848 538.892 350.099" style="background-color:#f9fafb"><g opacity="1"><g><path fill="none" stroke="#cbe7f1" stroke-linecap="round" stroke-width="20.16" d="M0,0 Q-0.2702,8.4467 -0.3277,10.6499 T-0.4095,14.1977 -0.4443,16.522 -0.4591,18.1912 -0.4654,19.582 -0.468,20.8545 -0.4692,22.2147 -0.4696,23.6092 -0.4698,24.6102 -0.3348,25.4438 -0.1423,26.3415 -0.0605,27.4044 -0.0257,28.9457 0.1242,30.8284 0.323,32.5831 0.4075,34.0102 0.4435,35.163 0.4587,36.1963 0.4652,37.1788 0.468,38.4157 0.4691,39.8959 0.6076,41.0684 0.8045,41.8369 0.8882,42.5718 0.9237,43.7035 0.9388,45.139 0.9453,46.4304 0.948,47.3876 0.9491,48.0646 0.9496,48.7606 1.085,49.7377 1.2776,50.8344 1.4975,51.9819 1.7289,53.286 1.8273,54.3866 1.8691,55.2654 1.8869,56.0472 1.8944,57.1959 1.8976,58.6386 1.899,59.7952 1.8996,60.6949 1.8998,61.3505 1.8999,61.9022 1.9,62.4098 2.0351,62.8958 2.2277,63.3755 2.4446,63.7173 2.9451,63.9977 3.9772,64.252 6.4599,64.3601 10.1026,64.406 13.83,64.4256 17.1851,64.4339 19.7007,64.4374 21.4512,64.4389 23.0116,64.1664 24.8996,63.6423 27.0647,63.2845 30.1641,62.8593 34.342,62.4054 38.4349,62.2126 42.2184,62.1306 45.8706,62.0958 50.2834,62.0809 55.7008,62.0747 60.5907,62.072 64.7102,62.0708 69.4596,61.7972 75.1581,61.2727 80.4406,60.9146 84.4566,60.7625 87.3882,60.6978 90.2671,60.6703 93.2616,60.6586 95.7619,60.6537 97.7791,60.6516 99.4529,60.6507 101.2538,60.6503 103.5171,60.6501 106.25,60.7852 109.7288,61.1157 112.9782,61.3942 115.0406,61.5125 116.3254,61.5628 117.4148,61.5842 118.424,61.5933 119.2612,61.5971 120.0253,61.5988 120.7582,61.5995 121.6131,61.4618 122.3876,61.2653 123.263,61.1817 124.1784,61.1462 124.8406,61.1312 125.3951,61.1247 125.901,61.122 126.3892,61.1209 127.1429,61.1204 128.1446,61.1202 129.1137,61.1201 129.9338,61.12 130.4204,60.9849 130.7623,60.6572 131.0427,60.2448 131.1619,59.7964 131.3506,59.4707 131.7039,59.0592 132.1243,58.0678 132.4381,56.6919 132.5714,55.1527 132.7661,53.4089 133.122,51.1699 133.6815,47.904 134.1924,44.4718 134.5446,41.6504 134.8295,39.2265 134.9505,36.6985 135.14,33.7151 135.3585,30.9493 135.5865,28.6842 135.8185,26.767 135.9171,24.9977 136.0941,23.4293 136.3045,22.0813 136.3939,20.9622 136.5699,19.6701 136.7827,18.0313 136.8732,16.6534 136.9116,15.5216 136.9279,14.6323 136.9349,13.8461 136.9378,12.9686 136.8011,11.9143 136.4698,10.7848 136.1939,9.7614 135.9415,8.6451 135.6992,7.4893 135.4581,6.4518 135.2177,5.4647 134.9804,4.6369 134.6064,4.0148 134.0392,3.6153 133.2548,3.4455 132.24,3.2353 130.8543,3.008 129.1757,2.7763 127.2375,2.5427 125.1862,2.3083 123.3599,2.0735 122.0403,1.9737 121.0713,1.9313 120.2512,1.9133 119.3564,1.9057 118.2947,1.9024 117.165,1.901 114.7759,1.9004 111.9895,1.9002 109.8537,1.9001 107.7183,1.9 105.31,1.9 102.7886,1.9 100.9005,1.9 99.0085,1.9 96.0251,1.9 92.0317,1.9 88.1552,1.9 84.6016,1.9 81.0472,1.9 77.3573,2.0351 73.4747,2.2277 70.4619,2.3095 68.3621,2.4794 64.609,2.6868 60.1533,2.7749 57.3052,2.8123 55.4133,2.8282 53.7928,2.835 51.8793,2.8379 49.8385,2.8391 47.8815,2.9776 45.825,3.1745 43.4531,3.2582 41.2175,3.2937 39.4479,3.3088 37.6062,3.3153 35.7339,3.318 33.8485,3.3191 31.8225,3.3196 29.5987,3.3198 26.6094,3.3199 23.0246,3.32 19.7301,3.32 17.2403,3.32 14.5462,3.32 10.4027,3.32 6.0541,3.32 3.1164,3.32 1.4596,3.32 0.6203,3.4551 0.2636,4.3291 0.3852,6.1983 0.9831,8.6287 1.6454,11.1594 2.4703,13.5949 3.6374,16.2658 4.6796,19.0369 5.5308,21.5773 6.3009,23.7466 6.9012,25.6231 7.4295,27.5102 7.792,29.1287 8.0812,30.4979 8.4744,32.1695 9.0497,33.9695 9.5674,35.9593 10.0605,38.576 10.6783,41.0508 11.076,42.784 11.3831,44.0668 11.9218,45.2934 12.559,46.4961 13.2381,47.6886 14.3432,49.147 15.4942,50.3102 16.3917,50.8046 17.3193,50.4713 18.9412,47.8773 21.2664,42.8246 23.2062,36.865 24.3009,31.4715 24.631,27.1351 24.3631,23.6563 23.7029,21.4964 22.4679,20.4434 20.7182,19.7227 18.885,19.1433 17.0162,18.2156 15.5407,16.8669 14.7755,15.6123 14.4503,14.5357 14.3121,13.9431 15.3459,16.2787 17.9674,22.3112 20.9876,29.0984 23.496,34.5733 24.9703,38.6712 25.5969,41.9106 25.9983,44.377 26.304,46.1066 26.572,47.2499 27.3672,47.871 28.9299,48.1349 31.7762,48.2471 36.5279,48.0216 42.4976,47.1093 47.8954,45.3588 51.4142,42.7059 53.1828,39.8102 53.5262,36.4004 52.5825,32.4988 50.8187,28.7994 48.9794,25.3181 47.3813,22.4758 45.8855,20.0431 44.5685,17.9196 43.3274,16.0626 41.8454,14.454 40.1259,13.2269 38.3055,12.4352 36.8505,12.0987 35.6887,11.9557 34.3756,12.3032 32.9981,13.5405 31.7342,15.6993 30.9268,18.6581 30.7188,22.0948 31.72,26.0078 33.6434,29.5798 35.4124,31.9173 36.9808,33.5921 38.4667,35.1204 40.3259,36.8595 42.2056,38.4152 43.2776,39.3495 44.0035,39.8845 45.2636,40.5202 47.7082,41.4688 51.1995,42.5534 54.9976,43.5606 57.9746,44.1237 59.513,44.4982 60.1668,45.0656 60.4446,46.1261 60.4276,47.8045 60.0121,49.6074 59.4273,51.1901 59.0436,52.4062 58.8805,51.5603 58.8112,49.0215 58.7818,45.4901 58.7693,39.3577 58.8991,31.5764 59.0893,25.2736 59.1702,21.5053 59.2046,19.3575 59.0841,17.8984 58.6246,16.3238 57.8831,14.8381 57.5679,14.0716 58.5236,15.1085 60.5628,18.8181 63.0653,24.6152 65.4916,30.621 67.4744,35.6258 68.9985,39.3887 69.9194,41.9425 70.5839,44.2525 71.2745,46.8702 72.3845,49.6186 73.9459,51.7383 75.564,52.7743 77.7525,53.2146 80.1804,52.9934 82.1639,50.9933 82.8718,46.6013 81.6748,40.7844 79.257,35.3165 75.0957,30.132 70.0583,25.4762 65.8733,22.1348 62.7319,19.625 60.5803,17.877 59.1225,16.9961 58.2298,17.5762 57.4422,20.2751 56.8372,26.1889 56.58,32.7905 56.6059,37.5024 57.2983,41.1379 58.547,43.6375 59.8942,45.2461 61.4184,46.2028 63.6992,45.9281 67.2589,44.4486 72.0435,42.1839 76.2563,39.5884 78.59,36.7143 79.717,32.6293 80.196,28.1706 80.3995,24.0964 80.4861,20.5938 80.5228,18.1536 80.2653,16.2972 79.8828,14.9619 79.7202,13.9862 79.7891,13.1633 80.6377,12.5433 83.721,12.0066 88.9817,11.9137 94.2161,12.8287 97.8035,14.1721 99.3281,15.6975 98.7484,17.2974 95.7766,18.2477 90.6984,18.6515 85.1362,18.688 80.0496,18.2953 76.252,17.8552 75.1813,17.6682 77.8601,17.5887 83.3599,17.555 92.2351,17.5406 103.2262,17.5345 111.9856,17.5319 117.6145,17.3957 120.5502,17.0647 121.1164,16.924 120.4055,17.0022 119.56,17.0354 118.7895,17.1847 116.1448,17.7915 111.4788,18.7308 106.5,19.9493 100.4337,21.9651 93.7673,24.7279 87.8032,27.538 83.0893,30.095 79.9933,32.1363 78.6775,33.2769 80.3005,33.8968 85.6218,34.2954 94.9674,34.4648 104.2523,34.4017 109.4231,33.8286 111.8938,32.6305 112.8087,30.2152 112.9245,27.2826 112.7005,24.9466 112.3322,23.1344 112.0377,21.956 111.7774,21.3201 110.8503,21.3229 108.4121,22.6869 102.8794,27.0788 95.7612,33.3039 90.4217,38.4019 87.1978,41.9313 87.5987,43.9776 92.4007,44.7092 99.0732,44.4739 105.0427,43.5574 108.6694,42.4865 110.2107,41.2149 111.0009,39.5848 111.6099,37.6644 112.5501,35.3504 113.493,33.2773 114.0318,31.988 114.5339,31.3049 115.1555,31.2877 115.966,32.2349 116.9918,35.225 118.1091,39.2184 118.9923,42.5514 119.6378,44.9225 120.0473,45.9302 120.2214,45.1308 120.2953,42.609 120.3268,39.4959 120.3401,36.4019 120.3458,35.2221 120.3482,37.173 120.3492,40.4545 120.3497,43.3499 120.3499,45.2618 119.2603,48.2537 117.3654,52.3002 L116.56,54.02" opacity=".82" pointer-events="all" transform="matrix(1, 0, 0, 1, 1609.4794, 1087.0894) scale(1)"/></g></g><g opacity="1"><g><path fill="none" stroke="#cbe7f1" stroke-linecap="round" stroke-width="20.16" d="M0,0 Q0,7.3025 0,9.3258 T0,12.4447 0,14.2418 0,15.477 0,16.7063 0,18.1689 0,19.3799 0,20.2482 0,21.0887 0,21.9175 0,22.9769 0,24.1344 0,25.3336 0,26.7863 0,28.1081 0,29.2563 0,30.6873 0,32.71 0,34.8662 0,36.8435 0.1179,38.624 0.2858,40.5566 0.3572,42.3209 0.3876,43.4244 0.4005,44.4827 0.5238,45.5219 0.6941,46.7887 0.7665,48.3879 0.7973,49.7749 0.8103,50.8329 0.698,51.987 0.5324,53.1847 0.462,54.401 0.3142,55.7431 0.1335,57.0207 0.0568,58.153 0.0241,58.9879 0.0103,59.6964 0.0044,60.5868 0.0019,61.6725 0.0008,62.6054 0.1182,63.2348 0.286,63.7352 0.3573,64.3014 0.6234,64.8957 1.09,65.3841 1.5241,65.7095 2.1801,65.9657 3.0483,66.3103 4.0067,66.5746 5.2362,66.687 7.0525,66.6168 9.2389,66.3513 10.9933,66.1205 12.2104,65.7867 13.5528,65.1734 15.5349,64.4441 17.9068,63.7833 20.683,63.2668 23.7489,62.9294 26.4635,62.786 29.5004,62.725 32.7949,62.6991 35.7275,62.6881 38.3854,62.5656 40.8088,62.2777 42.8996,62.0375 44.4955,61.9355 45.9988,61.8921 47.8165,61.8736 50.4721,61.8658 53.4839,61.8625 56.1784,61.861 58.5023,61.8604 60.7837,61.7423 63.0471,61.4564 64.952,61.217 66.8225,61.1152 69.0319,61.072 71.7362,60.9357 74.1793,60.7599 75.8069,60.6852 76.9702,60.6535 78.4076,60.64 80.7866,60.6342 83.6808,60.6318 86.0867,60.6308 87.5807,60.6303 88.5693,60.6301 89.5788,60.6301 90.9509,60.63 92.2412,60.63 93.1433,60.63 94.116,60.63 95.2367,60.63 97.2425,60.63 99.7423,60.63 101.3941,60.63 102.5676,60.63 104.5987,60.63 107.1093,60.63 108.8807,60.63 109.9872,60.5121 110.9289,60.3442 111.9185,60.2728 112.8106,60.2424 113.6613,60.2295 114.3764,60.2241 114.9161,60.2217 115.4991,60.2207 116.3362,60.2203 117.3993,60.2201 118.6762,60.2201 119.9233,60.22 120.9219,60.22 121.8178,60.22 122.7879,60.3379 124.0254,60.5058 125.3764,60.5772 126.4221,60.6076 127.2201,60.6205 127.9129,60.6259 128.4431,60.6283 128.9042,60.6293 129.3359,60.5118 129.873,60.1083 130.4549,59.5831 131.0558,59.2421 131.547,58.9793 131.8736,58.6318 132.2482,58.1305 132.6402,57.446 133.0397,56.5657 133.5631,55.6022 134.0213,54.839 134.2161,54.0432 134.2988,52.8827 134.334,51.4494 134.2311,50.133 134.0695,48.8663 133.765,47.5028 133.2849,45.8624 132.9658,43.9865 132.7124,42.3642 132.3689,40.8524 132.105,39.3876 131.9929,37.8221 131.8274,35.8602 131.5212,33.9654 131.2733,32.5708 131.1679,31.038 131.1231,29.2106 131.1041,27.2553 131.096,25.1276 131.0925,23.0446 131.0911,20.8627 131.2083,18.6417 131.376,16.5218 131.4473,14.7958 131.4776,13.355 131.4905,12.0354 131.496,10.7673 131.4983,9.5211 131.4993,8.2842 131.4997,6.8184 131.4999,5.609 131.4999,4.8592 131.5,4.1869 131.3821,3.4297 131.2141,2.6364 131.0249,1.9456 130.8266,1.4162 130.6244,1.0734 130.3028,0.9277 129.9303,0.8658 129.3005,0.7216 128.5613,0.5424 128.0114,0.4663 127.542,0.4339 127.1067,0.4202 126.5681,0.4143 125.9856,0.4118 125.3844,0.4108 124.3037,0.4103 122.7865,0.4101 121.5551,0.4101 120.7961,0.41 120.1198,0.41 119.1252,0.41 117.7594,0.41 116.236,0.2921 114.4098,0.0063 112.8085,-0.2331 111.8923,-0.3348 111.1492,-0.378 110.2469,-0.3964 109.1591,-0.4042 107.7537,-0.4075 106.4492,-0.409 105.659,-0.4096 105.0875,-0.4098 104.6088,-0.4099 104.0517,-0.5278 103.4614,-0.8137 102.9747,-1.2888 102.5321,-1.9623 101.9904,-2.72 101.2887,-3.5135 100.6368,-4.0865 100.2419,-4.4479 100.0741,-4.8372 100.0027,-5.3534 99.8545,-5.9236 99.6737,-6.5195 99.5968,-7.1264 99.5641,-8.0916 99.5503,-9.4448 99.4265,-10.7272 99.256,-11.8615 99.1836,-12.8152 99.1528,-13.5741 99.1397,-14.1324 99.1341,-14.7233 99.0139,-15.5638 98.727,-16.6253 98.4872,-17.663 98.3853,-18.5755 98.342,-19.4349 98.3236,-20.3894 98.3158,-21.2666 98.3125,-22.1109 98.311,-23.177 98.3104,-24.4552 98.3102,-25.9415 98.428,-27.3954 98.5959,-28.5998 98.6672,-29.5832 98.6976,-30.7083 98.7105,-32.0117 98.716,-33.0371 98.7183,-33.8265 98.7193,-34.5156 98.7197,-35.28 98.7199,-36.3121 98.7199,-37.2223 98.72,-37.9627 98.72,-38.7489 98.72,-39.4367 98.72,-40.0797 98.72,-40.7037 98.72,-41.2047 98.72,-41.7713 98.72,-42.4835 98.72,-43.1399 98.4871,-43.5367 98.1553,-43.8232 97.8964,-44.0629 97.5506,-44.1647 97.1679,-44.208 96.7695,-44.2264 96.3644,-44.2342 95.9565,-44.2375 95.5474,-44.239 95.2556,-44.1217 95.0138,-43.7182 94.7931,-43.1931 94.6993,-42.7342 94.6595,-42.3034 94.6425,-41.7667 94.5174,-40.9521 94.3464,-40.1373 94.2737,-39.5552 94.2428,-38.9542 94.2297,-38.2273 94.2241,-37.4468 94.2218,-36.4079 94.2207,-35.2591 94.2203,-34.1815 94.2201,-33.1341 94.2201,-32.3354 94.1021,-31.6423 93.8163,-30.8762 93.5769,-30.0791 93.4752,-29.1539 93.432,-28.292 93.2957,-27.5721 93.1199,-26.6768 93.0452,-25.7069 93.0135,-24.8232 93,-23.9761 92.9942,-23.1446 92.9918,-22.2018 92.9908,-21.2118 92.8725,-20.3195 92.7043,-19.4688 92.6328,-18.5207 92.6025,-17.5313 92.5895,-16.6393 92.5841,-15.9066 92.5817,-15.3594 92.5807,-14.7733 92.5803,-13.9348 92.5801,-12.8711 92.5801,-11.7119 92.4621,-10.2762 92.2942,-8.723 92.2228,-7.4735 92.1924,-6.5917 92.1795,-5.8662 92.1741,-5.2043 92.0538,-4.5693 91.8849,-3.7101 91.6952,-2.8734 91.4967,-2.1642 91.2945,-1.5092 90.9728,-0.995 90.6003,-0.5408 90.2063,0.0059 89.5673,0.7098 88.8242,1.3625 88.1548,1.7578 87.4017,2.0437 86.4951,2.4009 85.4025,2.7885 84.231,3.189 83.0258,3.4771 81.9242,3.7174 80.6309,4.0553 79.2561,4.4346 78.2004,4.7137 77.5159,4.9502 76.9893,5.1686 76.1789,5.2614 75.248,5.3008 74.1452,5.3176 72.8513,5.3247 71.5942,5.3278 70.3527,5.329 68.7641,5.3296 67.146,5.3298 65.6361,5.3299 64.0542,5.2121 62.4389,5.0441 60.22,4.8549 57.7446,4.5387 55.5138,4.1686 53.5078,3.8934 51.715,3.5407 50.128,3.155 48.7463,2.9911 47.5697,2.9215 46.3624,2.8919 44.3169,2.7614 42.0359,2.5881 40.1264,2.5144 38.4897,2.3653 37.0869,2.184 35.6655,2.1069 34.3542,2.0742 33.0897,2.0603 31.845,2.0544 30.3759,1.934 28.6935,1.7649 26.6819,1.6931 24.6482,1.6626 22.723,1.6496 20.9618,1.6441 19.8596,1.6417 19.0376,1.6407 18.2196,1.6403 17.1676,1.6401 15.8953,1.7579 14.5295,1.9259 13.1239,1.9972 11.7014,2.1455 10.2717,2.4442 9.1926,2.689 8.4982,2.7931 7.9674,3.0731 7.2703,3.6636 6.2696,4.6189 4.6685,6.4365 2.8092,9.2129 1.5475,12.161 0.8935,15.1792 0.6155,17.8735 0.4973,19.7259 0.4471,21.574 0.5436,23.6561 1.0562,26.0705 1.9812,28.6261 2.9638,30.7731 4.0886,32.8643 5.1532,34.6961 5.8385,35.8282 6.3655,36.663 7.061,37.725 7.9459,38.9986 8.7935,40.2443 9.861,41.481 11.2577,42.7138 12.5585,43.7092 13.465,44.368 14.2039,44.8838 14.9894,45.2209 15.9126,45.3641 17.0094,45.3071 17.9441,45.0472 18.695,44.3473 19.6035,42.989 20.4611,40.7643 20.9435,37.3463 21.0306,32.9497 20.3604,28.0192 19.2504,23.9199 18.31,21.2347 17.4418,19.1534 16.6013,17.4466 16.0083,16.1318 15.6384,15.2194 15.3633,14.478 15.1285,13.9271 14.6751,14.5182 13.7752,18.1848 12.6855,24.0988 11.8687,29.6741 11.4037,34.8698 11.2061,39.5504 11.1221,43.5435 11.0864,46.773 11.1891,48.8528 11.5864,50.2082 12.4625,51.3707 13.7778,52.5692 16.1021,53.4322 19.5624,53.7989 22.8011,53.719 25.825,52.5092 28.286,50.1119 29.4498,47.2071 29.9444,43.7358 29.686,38.9628 28.7539,34.1053 27.6505,30.3935 26.4744,27.0507 25.503,24.2156 24.9723,21.4782 24.7467,18.7854 24.7687,16.5829 25.2496,14.7039 26.6298,13.198 28.5102,12.2044 30.2523,11.9 31.8179,12.36 33.1905,13.7342 34.2453,15.8478 34.8115,18.2756 35.0521,20.8397 34.9187,23.5798 33.9189,28.0419 32.3153,33.7074 30.9265,38.352 29.9826,42.0912 29.4636,44.8592 29.243,46.9785 29.385,49.058 30.1526,50.9998 31.4219,52.7652 33.4937,54.4584 36.1423,55.6496 38.6796,56.1558 40.6981,56.371 41.9096,56.4624 42.8959,56.0298 43.7866,54.5493 44.2831,51.3297 44.1404,45.8415 43.0189,39.1505 41.6022,33.245 40.2957,28.1447 39.0332,23.3839 38.2608,19.9489 37.9326,17.5489 37.7931,15.7038 37.9696,14.4481 38.5161,13.5608 39.3348,13.0658 40.6229,12.8555 42.467,13.1197 44.4295,13.9393 45.8529,15.1127 46.6936,17.4945 47.1688,21.4508 47.3707,26.1941 47.4566,31.0361 47.493,35.9201 47.6264,40.3504 47.9189,43.6478 48.2789,46.2279 48.6677,48.1496 49.3044,49.6736 50.2822,51.1435 51.8737,52.2369 54.6689,52.8194 59.3903,53.067 64.223,53.1722 67.102,52.5126 68.4435,50.5848 68.66,47.7617 67.6911,43.3821 66.1006,38.6946 64.6024,35.0522 63.0255,31.7389 61.5302,28.4477 60.4232,25.045 59.8349,22.0665 59.5848,19.9755 59.4785,18.2646 59.6691,16.7152 60.3395,15.5852 61.4495,14.7513 62.8614,14.2791 64.6374,14.0784 66.5709,14.3467 68.2177,15.168 69.6249,16.3393 70.8123,17.8951 71.9064,20.0887 72.8428,22.5533 73.3587,24.6617 73.4601,26.7336 73.2674,29.4973 72.8319,33.0293 72.2932,36.7672 71.9464,39.8853 71.7989,42.1535 71.9721,43.9426 72.3992,45.1745 72.9344,45.9338 73.7513,46.4922 75.0385,47.2011 76.4079,47.856 77.3435,48.1343 77.9769,48.2526 78.4818,48.3028 79.05,48.3242 79.5273,47.626 79.848,45.6791 80.22,43.2042 80.496,39.7978 80.6133,35.8747 80.6632,32.56 80.6843,29.386 80.6933,26.5047 80.6972,23.8656 80.6988,21.2116 80.9352,18.7899 81.3894,16.8206 82.0538,15.2764 82.8078,14.2665 83.3639,13.7194 83.9539,13.4869 84.9119,13.8595 87.2022,15.3117 90.0587,17.3405 91.8621,19.4993 92.7464,21.9492 93.1222,25.5808 93.1641,30.4218 92.7104,35.3054 91.6924,39.7355 90.5525,43.1507 89.5966,45.6631 88.9545,47.3202 88.6817,48.4959 88.5657,49.7029 88.7522,51.2739 89.3029,52.9995 90.1264,54.2044 91.1836,54.9523 92.2223,55.2701 93.371,54.4622 94.4485,51.9999 95.0244,48.5988 95.0334,44.9166 94.6836,40.2898 94.417,35.1408 94.3037,30.3621 94.2556,26.5659 94.2351,22.3621 94.2245,17.5957 L94.22,15.57" opacity=".82" pointer-events="all" transform="matrix(1, 0, 0, 1, 1928.4097, 1088.8108) scale(1)"/></g></g><g opacity="1"><g><path fill="none" stroke="#cbe7f1" stroke-linecap="round" stroke-width="20.16" d="M0,0 Q5.1808,6.1237 6.3995,9.3082 T8.3721,15.4962 9.564,21.0701 10.1884,25.3222 10.5717,27.9544 10.8525,29.8983 10.9718,32.9611 11.0225,36.7354 11.3977,39.9897 12.1465,42.6694 12.8184,44.6333 13.3397,45.9395 14.1477,45.5517 15.1955,43.1472 15.9945,39.1813 16.4519,34.5518 16.6463,30.3475 16.6111,26.6776 16.2424,23.114 15.3814,19.0091 14.1932,14.9099 13.2167,11.7532 12.6839,9.4686 12.3395,7.3189 12.0753,5.1115 11.963,2.8797 11.9153,0.7524 12.0129,-1.0948 12.408,-2.587 12.9295,-3.6927 13.5048,-4.5163 14.3358,-4.9842 15.5112,-5.183 16.9538,-5.1497 18.392,-4.664 19.8283,-3.7503 21.3818,-2.5369 22.7493,-0.7246 23.6841,1.4573 24.1992,3.6784 24.4182,6.0368 24.2755,9.043 23.9791,12.3217 23.8531,14.7731 23.7996,16.6401 23.7768,18.2586 23.7671,20.0074 23.8809,21.8115 24.165,23.4034 24.6394,25.0201 26.2526,28.1797 28.5245,32.2641 L29.49,34" opacity=".82" pointer-events="all" transform="matrix(1, 0, 0, 1, 2022.63, 1104.38) scale(1)"/></g></g><g opacity="1"><g><path fill="none" stroke="#cbe7f1" stroke-linecap="round" stroke-width="20.16" d="M0,0 Q1.8112,-8.3432 2.1961,-10.2973 T2.5635,-13.0819 2.5385,-14.6275 2.1656,-15.8278 1.826,-17.0625 2.0439,-18.4928 2.6799,-20.5526 3.4936,-22.6987 4.2045,-24.1542 4.8718,-24.9539 5.6988,-24.7504 7.137,-23.7554 8.835,-22.4241 10.1,-21.1337 10.9999,-20.042 11.5634,-19.2157 11.803,-18.5023 11.9048,-17.8369 12.1291,-16.6484 12.5868,-14.5103 12.9624,-12.3309 13.3031,-10.3179 13.6291,-8.3756 13.7676,-6.8256 13.8265,-5.2584 13.8515,-3.3216 13.8621,-1.2305 13.8667,0.3826 13.8686,1.7927 13.8694,3.1165 13.8697,4.0443 14.0539,4.8037 14.3162,5.4887 14.6087,6.5043 14.9142,7.8416 15.044,9.3155 15.0992,10.6665 15.1227,11.6029 15.1326,12.3631 14.9557,15.5871 14.6429,20.5786 L14.51,22.7" opacity=".82" pointer-events="all" transform="matrix(1, 0, 0, 1, 2016.2148, 1037.9941) scale(1)"/></g></g><g opacity="1"><g stroke="#1d1d1d" stroke-width="3.5"><path fill="none" stroke-dasharray="7.5 8.333" stroke-dashoffset="0" d="M0, 0 L150, 0" transform="matrix(1, 0, 0, 1, 1600, 1080) scale(1)"/></g></g><g opacity="1"><g><path fill="none" stroke="#cbe7f1" stroke-linecap="round" stroke-width="20.16" d="M0,0 Q-0.2702,8.4467 -0.3277,10.6499 T-0.4095,14.1977 -0.4443,16.522 -0.4591,18.1912 -0.4654,19.582 -0.468,20.8545 -0.4692,22.2147 -0.4696,23.6092 -0.4698,24.6102 -0.3348,25.4438 -0.1423,26.3415 -0.0605,27.4044 -0.0257,28.9457 0.1242,30.8284 0.323,32.5831 0.4075,34.0102 0.4435,35.163 0.4587,36.1963 0.4652,37.1788 0.468,38.4157 0.4691,39.8959 0.6076,41.0684 0.8045,41.8369 0.8882,42.5718 0.9237,43.7035 0.9388,45.139 0.9453,46.4304 0.948,47.3876 0.9491,48.0646 0.9496,48.7606 1.085,49.7377 1.2776,50.8344 1.4975,51.9819 1.7289,53.286 1.8273,54.3866 1.8691,55.2654 1.8869,56.0472 1.8944,57.1959 1.8976,58.6386 1.899,59.7952 1.8996,60.6949 1.8998,61.3505 1.8999,61.9022 1.9,62.4098 2.0351,62.8958 2.2277,63.3755 2.4446,63.7173 2.9451,63.9977 3.9772,64.252 6.4599,64.3601 10.1026,64.406 13.83,64.4256 17.1851,64.4339 19.7007,64.4374 21.4512,64.4389 23.0116,64.1664 24.8996,63.6423 27.0647,63.2845 30.1641,62.8593 34.342,62.4054 38.4349,62.2126 42.2184,62.1306 45.8706,62.0958 50.2834,62.0809 55.7008,62.0747 60.5907,62.072 64.7102,62.0708 69.4596,61.7972 75.1581,61.2727 80.4406,60.9146 84.4566,60.7625 87.3882,60.6978 90.2671,60.6703 93.2616,60.6586 95.7619,60.6537 97.7791,60.6516 99.4529,60.6507 101.2538,60.6503 103.5171,60.6501 106.25,60.7852 109.7288,61.1157 112.9782,61.3942 115.0406,61.5125 116.3254,61.5628 117.4148,61.5842 118.424,61.5933 119.2612,61.5971 120.0253,61.5988 120.7582,61.5995 121.6131,61.4618 122.3876,61.2653 123.263,61.1817 124.1784,61.1462 124.8406,61.1312 125.3951,61.1247 125.901,61.122 126.3892,61.1209 127.1429,61.1204 128.1446,61.1202 129.1137,61.1201 129.9338,61.12 130.4204,60.9849 130.7623,60.6572 131.0427,60.2448 131.1619,59.7964 131.3506,59.4707 131.7039,59.0592 132.1243,58.0678 132.4381,56.6919 132.5714,55.1527 132.7661,53.4089 133.122,51.1699 133.6815,47.904 134.1924,44.4718 134.5446,41.6504 134.8295,39.2265 134.9505,36.6985 135.14,33.7151 135.3585,30.9493 135.5865,28.6842 135.8185,26.767 135.9171,24.9977 136.0941,23.4293 136.3045,22.0813 136.3939,20.9622 136.5699,19.6701 136.7827,18.0313 136.8732,16.6534 136.9116,15.5216 136.9279,14.6323 136.9349,13.8461 136.9378,12.9686 136.8011,11.9143 136.4698,10.7848 136.1939,9.7614 135.9415,8.6451 135.6992,7.4893 135.4581,6.4518 135.2177,5.4647 134.9804,4.6369 134.6064,4.0148 134.0392,3.6153 133.2548,3.4455 132.24,3.2353 130.8543,3.008 129.1757,2.7763 127.2375,2.5427 125.1862,2.3083 123.3599,2.0735 122.0403,1.9737 121.0713,1.9313 120.2512,1.9133 119.3564,1.9057 118.2947,1.9024 117.165,1.901 114.7759,1.9004 111.9895,1.9002 109.8537,1.9001 107.7183,1.9 105.31,1.9 102.7886,1.9 100.9005,1.9 99.0085,1.9 96.0251,1.9 92.0317,1.9 88.1552,1.9 84.6016,1.9 81.0472,1.9 77.3573,2.0351 73.4747,2.2277 70.4619,2.3095 68.3621,2.4794 64.609,2.6868 60.1533,2.7749 57.3052,2.8123 55.4133,2.8282 53.7928,2.835 51.8793,2.8379 49.8385,2.8391 47.8815,2.9776 45.825,3.1745 43.4531,3.2582 41.2175,3.2937 39.4479,3.3088 37.6062,3.3153 35.7339,3.318 33.8485,3.3191 31.8225,3.3196 29.5987,3.3198 26.6094,3.3199 23.0246,3.32 19.7301,3.32 17.2403,3.32 14.5462,3.32 10.4027,3.32 6.0541,3.32 3.1164,3.32 1.4596,3.32 0.6203,3.4551 0.2636,4.3291 0.3852,6.1983 0.9831,8.6287 1.6454,11.1594 2.4703,13.5949 3.6374,16.2658 4.6796,19.0369 5.5308,21.5773 6.3009,23.7466 6.9012,25.6231 7.4295,27.5102 7.792,29.1287 8.0812,30.4979 8.4744,32.1695 9.0497,33.9695 9.5674,35.9593 10.0605,38.576 10.6783,41.0508 11.076,42.784 11.3831,44.0668 11.9218,45.2934 12.559,46.4961 13.2381,47.6886 14.3432,49.147 15.4942,50.3102 16.3917,50.8046 17.3193,50.4713 18.9412,47.8773 21.2664,42.8246 23.2062,36.865 24.3009,31.4715 24.631,27.1351 24.3631,23.6563 23.7029,21.4964 22.4679,20.4434 20.7182,19.7227 18.885,19.1433 17.0162,18.2156 15.5407,16.8669 14.7755,15.6123 14.4503,14.5357 14.3121,13.9431 15.3459,16.2787 17.9674,22.3112 20.9876,29.0984 23.496,34.5733 24.9703,38.6712 25.5969,41.9106 25.9983,44.377 26.304,46.1066 26.572,47.2499 27.3672,47.871 28.9299,48.1349 31.7762,48.2471 36.5279,48.0216 42.4976,47.1093 47.8954,45.3588 51.4142,42.7059 53.1828,39.8102 53.5262,36.4004 52.5825,32.4988 50.8187,28.7994 48.9794,25.3181 47.3813,22.4758 45.8855,20.0431 44.5685,17.9196 43.3274,16.0626 41.8454,14.454 40.1259,13.2269 38.3055,12.4352 36.8505,12.0987 35.6887,11.9557 34.3756,12.3032 32.9981,13.5405 31.7342,15.6993 30.9268,18.6581 30.7188,22.0948 31.72,26.0078 33.6434,29.5798 35.4124,31.9173 36.9808,33.5921 38.4667,35.1204 40.3259,36.8595 42.2056,38.4152 43.2776,39.3495 44.0035,39.8845 45.2636,40.5202 47.7082,41.4688 51.1995,42.5534 54.9976,43.5606 57.9746,44.1237 59.513,44.4982 60.1668,45.0656 60.4446,46.1261 60.4276,47.8045 60.0121,49.6074 59.4273,51.1901 59.0436,52.4062 58.8805,51.5603 58.8112,49.0215 58.7818,45.4901 58.7693,39.3577 58.8991,31.5764 59.0893,25.2736 59.1702,21.5053 59.2046,19.3575 59.0841,17.8984 58.6246,16.3238 57.8831,14.8381 57.5679,14.0716 58.5236,15.1085 60.5628,18.8181 63.0653,24.6152 65.4916,30.621 67.4744,35.6258 68.9985,39.3887 69.9194,41.9425 70.5839,44.2525 71.2745,46.8702 72.3845,49.6186 73.9459,51.7383 75.564,52.7743 77.7525,53.2146 80.1804,52.9934 82.1639,50.9933 82.8718,46.6013 81.6748,40.7844 79.257,35.3165 75.0957,30.132 70.0583,25.4762 65.8733,22.1348 62.7319,19.625 60.5803,17.877 59.1225,16.9961 58.2298,17.5762 57.4422,20.2751 56.8372,26.1889 56.58,32.7905 56.6059,37.5024 57.2983,41.1379 58.547,43.6375 59.8942,45.2461 61.4184,46.2028 63.6992,45.9281 67.2589,44.4486 72.0435,42.1839 76.2563,39.5884 78.59,36.7143 79.717,32.6293 80.196,28.1706 80.3995,24.0964 80.4861,20.5938 80.5228,18.1536 80.2653,16.2972 79.8828,14.9619 79.7202,13.9862 79.7891,13.1633 80.6377,12.5433 83.721,12.0066 88.9817,11.9137 94.2161,12.8287 97.8035,14.1721 99.3281,15.6975 98.7484,17.2974 95.7766,18.2477 90.6984,18.6515 85.1362,18.688 80.0496,18.2953 76.252,17.8552 75.1813,17.6682 77.8601,17.5887 83.3599,17.555 92.2351,17.5406 103.2262,17.5345 111.9856,17.5319 117.6145,17.3957 120.5502,17.0647 121.1164,16.924 120.4055,17.0022 119.56,17.0354 118.7895,17.1847 116.1448,17.7915 111.4788,18.7308 106.5,19.9493 100.4337,21.9651 93.7673,24.7279 87.8032,27.538 83.0893,30.095 79.9933,32.1363 78.6775,33.2769 80.3005,33.8968 85.6218,34.2954 94.9674,34.4648 104.2523,34.4017 109.4231,33.8286 111.8938,32.6305 112.8087,30.2152 112.9245,27.2826 112.7005,24.9466 112.3322,23.1344 112.0377,21.956 111.7774,21.3201 110.8503,21.3229 108.4121,22.6869 102.8794,27.0788 95.7612,33.3039 90.4217,38.4019 87.1978,41.9313 87.5987,43.9776 92.4007,44.7092 99.0732,44.4739 105.0427,43.5574 108.6694,42.4865 110.2107,41.2149 111.0009,39.5848 111.6099,37.6644 112.5501,35.3504 113.493,33.2773 114.0318,31.988 114.5339,31.3049 115.1555,31.2877 115.966,32.2349 116.9918,35.225 118.1091,39.2184 118.9923,42.5514 119.6378,44.9225 120.0473,45.9302 120.2214,45.1308 120.2953,42.609 120.3268,39.4959 120.3401,36.4019 120.3458,35.2221 120.3482,37.173 120.3492,40.4545 120.3497,43.3499 120.3499,45.2618 119.2603,48.2537 117.3654,52.3002 L116.56,54.02" opacity=".35" pointer-events="all" transform="matrix(1, 0, 0, 1, 1609.4794, 1087.0894) scale(1)"/></g></g><g opacity="1"><path fill="none" stroke="#1d1d1d" stroke-width="3.5" d="M0, 50L0, 200" transform="matrix(1, 0, 0, 1, 1600, 960) scale(1)"/></g><g opacity="1"><path fill="none" stroke="#1d1d1d" stroke-width="3.5" d="M0, 0L150, 0" transform="matrix(1, 0, 0, 1, 1600, 1160) scale(1)"/></g><g opacity="1"><path fill="none" stroke="#1d1d1d" stroke-width="3.5" d="M0, 0L0, -150" transform="matrix(1, 0, 0, 1, 1750, 1160) scale(1)"/></g><g opacity="1"><path fill="none" stroke="#1d1d1d" stroke-width="3.5" d="M0, 0L40, 0" transform="matrix(1, 0, 0, 1, 1600, 1010) scale(1)"/></g><g opacity="1"><path fill="none" stroke="#1d1d1d" stroke-width="3.5" d="M-10, 0L30, 0" transform="matrix(1, 0, 0, 1, 1720, 1010) scale(1)"/></g><g opacity="1"><path fill="none" stroke="#1d1d1d" stroke-width="3.5" d="M0, 10L0, -20" transform="matrix(1, 0, 0, 1, 1640, 1000) scale(1)"/></g><g opacity="1"><path fill="none" stroke="#1d1d1d" stroke-width="3.5" d="M0, 10L0, -20" transform="matrix(1, 0, 0, 1, 1710, 1000) scale(1)"/></g><g opacity="1"><path fill="none" stroke="#1d1d1d" stroke-width="10" d="M0, 0L70, 0,70, 20,0, 20Z" transform="matrix(1, 0, 0, 1, 1640, 960)"/></g><g opacity="1"><path fill="none" stroke="#1d1d1d" stroke-width="3.5" d="M0, 0L60, 0" transform="matrix(1, 0, 0, 1, 1600, 890) scale(1)"/></g><g opacity="1"><path fill="none" stroke="#1d1d1d" stroke-width="3.5" d="M0, 0L70, 0" transform="matrix(1, 0, 0, 1, 1600, 880) scale(1)"/></g><g opacity="1"><path fill="none" stroke="#1d1d1d" stroke-width="3.5" d="M0, 0L0, 130" transform="matrix(1, 0, 0, 1, 1660, 890) scale(1)"/></g><g opacity="1"><path fill="none" stroke="#1d1d1d" stroke-width="3.5" d="M0, 0L0, 140" transform="matrix(1, 0, 0, 1, 1670, 880) scale(1)"/></g><g opacity="1"><path fill="none" stroke="#1d1d1d" stroke-width="3.5" d="M0, 120L0, -100" transform="matrix(1, 0, 0, 1, 1680, 1020) scale(1)"/></g><g opacity="1"><path fill="none" stroke="#1d1d1d" stroke-width="3.5" d="M0, 120L0, -90" transform="matrix(1, 0, 0, 1, 1690, 1020) scale(1)"/></g><g opacity="1"><path fill="none" stroke="#1d1d1d" stroke-width="3.5" d="M0, 0L120, 0" transform="matrix(1, 0, 0, 1, 1690, 930) scale(1)"/></g><g opacity="1"><path fill="none" stroke="#1d1d1d" stroke-width="3.5" d="M0, 0L140, 0" transform="matrix(1, 0, 0, 1, 1680, 920) scale(1)"/></g><g opacity="1"><path fill="none" stroke="#1d1d1d" stroke-width="3.5" d="M0, 0L50, 0" transform="matrix(1, 0, 0, 1, 1790, 1160) scale(1)"/></g><g opacity="1"><path fill="none" stroke="#1d1d1d" stroke-width="3.5" d="M0, 10L0, -150" transform="matrix(1, 0, 0, 1, 1800, 1140) scale(1)"/></g><g opacity="1"><path fill="none" stroke="#1d1d1d" stroke-width="3.5" d="M0, 10L-10, 20" transform="matrix(1, 0, 0, 1, 1800, 1140) scale(1)"/></g><g opacity="1"><path fill="none" stroke="#1d1d1d" stroke-width="3.5" d="M0, 10L0, -150" transform="matrix(1, 0, 0, 1, 1830, 1140) scale(1)"/></g><g opacity="1"><path fill="none" stroke="#1d1d1d" stroke-width="3.5" d="M0, 10L10, 20" transform="matrix(1, 0, 0, 1, 1830, 1140) scale(1)"/></g><g opacity="1"><path fill="none" stroke="#1d1d1d" stroke-width="3.5" d="M0, 0L0, 70" transform="matrix(1, 0, 0, 1, 1810, 930) scale(1)"/></g><g opacity="1"><path fill="none" stroke="#1d1d1d" stroke-width="3.5" d="M0, 0L0, 80" transform="matrix(1, 0, 0, 1, 1820, 920) scale(1)"/></g><g opacity="1"><path fill="none" stroke="#1d1d1d" stroke-width="3.5" d="M0, 0L30, 0" transform="matrix(1, 0, 0, 1, 1800, 1150) scale(1)"/></g><g opacity="1"><path fill="none" stroke="#1d1d1d" stroke-width="2" d="M0, 0L10, 0" transform="matrix(1, 0, 0, 1, 1800, 1130) scale(1)"/></g><g opacity="1"><path fill="none" stroke="#1d1d1d" stroke-width="2" d="M0, 0L10, 0" transform="matrix(1, 0, 0, 1, 1800, 1110) scale(1)"/></g><g opacity="1"><path fill="none" stroke="#1d1d1d" stroke-width="2" d="M0, 0L10, 0" transform="matrix(1, 0, 0, 1, 1800, 1090) scale(1)"/></g><g opacity="1"><path fill="none" stroke="#1d1d1d" stroke-width="2" d="M0, 0L10, 0" transform="matrix(1, 0, 0, 1, 1800, 1070) scale(1)"/></g><g opacity="1"><path fill="none" stroke="#1d1d1d" stroke-width="2" d="M0, 0L10, 0" transform="matrix(1, 0, 0, 1, 1800, 1050) scale(1)"/></g><g opacity="1"><path fill="none" stroke="#1d1d1d" stroke-width="2" d="M0, 0L10, 0" transform="matrix(1, 0, 0, 1, 1800, 1030) scale(1)"/></g><g opacity="1"><path fill="none" stroke="#1d1d1d" stroke-width="2" d="M0, 0L10, 0" transform="matrix(1, 0, 0, 1, 1800, 1010) scale(1)"/></g><g opacity="1"><path fill="none" stroke="#1d1d1d" stroke-width="3.5" d="M0, 50L0, 200" transform="matrix(1, 0, 0, 1, 1920, 960) scale(1)"/></g><g opacity="1"><path fill="none" stroke="#1d1d1d" stroke-width="3.5" d="M0, 0L150, 0" transform="matrix(1, 0, 0, 1, 1920, 1160) scale(1)"/></g><g opacity="1"><path fill="none" stroke="#1d1d1d" stroke-width="3.5" d="M0, 0L0, -150" transform="matrix(1, 0, 0, 1, 2070, 1160) scale(1)"/></g><g opacity="1"><path fill="none" stroke="#1d1d1d" stroke-width="3.5" d="M0, 0L50, 0" transform="matrix(1, 0, 0, 1, 2000, 950) scale(1)"/></g><g opacity="1"><path fill="none" stroke="#1d1d1d" stroke-width="3.5" d="M0, -10L0, 150" transform="matrix(1, 0, 0, 1, 2010, 970) scale(1)"/></g><g opacity="1"><path fill="none" stroke="#1d1d1d" stroke-width="3.5" d="M0, -10L-10, -20" transform="matrix(1, 0, 0, 1, 2010, 970) scale(1)"/></g><g opacity="1"><path fill="none" stroke="#1d1d1d" stroke-width="3.5" d="M0, -10L0, 150" transform="matrix(1, 0, 0, 1, 2040, 970) scale(1)"/></g><g opacity="1"><path fill="none" stroke="#1d1d1d" stroke-width="3.5" d="M0, -10L10, -20" transform="matrix(1, 0, 0, 1, 2040, 970) scale(1)"/></g><g opacity="1"><path fill="none" stroke="#1d1d1d" stroke-width="3.5" d="M0, 0L30, 0" transform="matrix(1, 0, 0, 1, 2010, 960) scale(1)"/></g><g opacity="1"><path fill="none" stroke="#1d1d1d" stroke-width="2" d="M0, 0L10, 0" transform="matrix(1, 0, 0, 1, 2010, 980) scale(1)"/></g><g opacity="1"><path fill="none" stroke="#1d1d1d" stroke-width="2" d="M0, 0L10, 0" transform="matrix(1, 0, 0, 1, 2010, 1000) scale(1)"/></g><g opacity="1"><path fill="none" stroke="#1d1d1d" stroke-width="2" d="M0, 0L10, 0" transform="matrix(1, 0, 0, 1, 2010, 1020) scale(1)"/></g><g opacity="1"><path fill="none" stroke="#1d1d1d" stroke-width="2" d="M0, 0L10, 0" transform="matrix(1, 0, 0, 1, 2010, 1040) scale(1)"/></g><g opacity="1"><path fill="none" stroke="#1d1d1d" stroke-width="2" d="M0, 0L10, 0" transform="matrix(1, 0, 0, 1, 2010, 1060) scale(1)"/></g><g opacity="1"><path fill="none" stroke="#1d1d1d" stroke-width="2" d="M0, 0L10, 0" transform="matrix(1, 0, 0, 1, 2010, 1080) scale(1)"/></g><g opacity="1"><path fill="none" stroke="#1d1d1d" stroke-width="2" d="M0, 0L10, 0" transform="matrix(1, 0, 0, 1, 2010, 1100) scale(1)"/></g><g opacity="1"><path fill="none" stroke="#1d1d1d" stroke-width="3.5" d="M0, 0L50, 0" transform="matrix(1, 0, 0, 1, 1920, 960) scale(1)"/></g><g opacity="1"><path fill="none" stroke="#1d1d1d" stroke-width="3.5" d="M0, 0L40, 0" transform="matrix(1, 0, 0, 1, 1920, 970) scale(1)"/></g><g opacity="1"><path fill="none" stroke="#1d1d1d" stroke-width="3.5" d="M0, 0L0, 170" transform="matrix(1, 0, 0, 1, 1960, 970) scale(1)"/></g><g opacity="1"><path fill="none" stroke="#1d1d1d" stroke-width="3.5" d="M0, 0L0, 170" transform="matrix(1, 0, 0, 1, 1970, 960) scale(1)"/></g><g opacity="1"><path fill="none" stroke="#1d1d1d" stroke-width="3.5" d="M0, 0L70, 0" transform="matrix(1, 0, 0, 1, 1960, 1140) scale(1)"/></g><g opacity="1"><path fill="none" stroke="#1d1d1d" stroke-width="3.5" d="M0, 0L50, 0" transform="matrix(1, 0, 0, 1, 1970, 1130) scale(1)"/></g><g opacity="1"><path fill="none" stroke="#1d1d1d" stroke-width="3.5" d="M0, 0L0, -30" transform="matrix(1, 0, 0, 1, 2030, 1140) scale(1)"/></g><g opacity="1"><path fill="none" stroke="#1d1d1d" stroke-width="3.5" d="M0, 0L0, -20" transform="matrix(1, 0, 0, 1, 2020, 1130) scale(1)"/></g><g opacity="1"><g stroke="#1d1d1d" stroke-width="3.5"><path fill="none" stroke-dasharray="7.5 8.333" stroke-dashoffset="0" d="M0, 0 L150, 0" transform="matrix(1, 0, 0, 1, 1920, 1080) scale(1)"/></g></g><g opacity="1"><g><path fill="none" stroke="#cbe7f1" stroke-linecap="round" stroke-width="20.16" d="M0,0 Q0,7.3025 0,9.3258 T0,12.4447 0,14.2418 0,15.477 0,16.7063 0,18.1689 0,19.3799 0,20.2482 0,21.0887 0,21.9175 0,22.9769 0,24.1344 0,25.3336 0,26.7863 0,28.1081 0,29.2563 0,30.6873 0,32.71 0,34.8662 0,36.8435 0.1179,38.624 0.2858,40.5566 0.3572,42.3209 0.3876,43.4244 0.4005,44.4827 0.5238,45.5219 0.6941,46.7887 0.7665,48.3879 0.7973,49.7749 0.8103,50.8329 0.698,51.987 0.5324,53.1847 0.462,54.401 0.3142,55.7431 0.1335,57.0207 0.0568,58.153 0.0241,58.9879 0.0103,59.6964 0.0044,60.5868 0.0019,61.6725 0.0008,62.6054 0.1182,63.2348 0.286,63.7352 0.3573,64.3014 0.6234,64.8957 1.09,65.3841 1.5241,65.7095 2.1801,65.9657 3.0483,66.3103 4.0067,66.5746 5.2362,66.687 7.0525,66.6168 9.2389,66.3513 10.9933,66.1205 12.2104,65.7867 13.5528,65.1734 15.5349,64.4441 17.9068,63.7833 20.683,63.2668 23.7489,62.9294 26.4635,62.786 29.5004,62.725 32.7949,62.6991 35.7275,62.6881 38.3854,62.5656 40.8088,62.2777 42.8996,62.0375 44.4955,61.9355 45.9988,61.8921 47.8165,61.8736 50.4721,61.8658 53.4839,61.8625 56.1784,61.861 58.5023,61.8604 60.7837,61.7423 63.0471,61.4564 64.952,61.217 66.8225,61.1152 69.0319,61.072 71.7362,60.9357 74.1793,60.7599 75.8069,60.6852 76.9702,60.6535 78.4076,60.64 80.7866,60.6342 83.6808,60.6318 86.0867,60.6308 87.5807,60.6303 88.5693,60.6301 89.5788,60.6301 90.9509,60.63 92.2412,60.63 93.1433,60.63 94.116,60.63 95.2367,60.63 97.2425,60.63 99.7423,60.63 101.3941,60.63 102.5676,60.63 104.5987,60.63 107.1093,60.63 108.8807,60.63 109.9872,60.5121 110.9289,60.3442 111.9185,60.2728 112.8106,60.2424 113.6613,60.2295 114.3764,60.2241 114.9161,60.2217 115.4991,60.2207 116.3362,60.2203 117.3993,60.2201 118.6762,60.2201 119.9233,60.22 120.9219,60.22 121.8178,60.22 122.7879,60.3379 124.0254,60.5058 125.3764,60.5772 126.4221,60.6076 127.2201,60.6205 127.9129,60.6259 128.4431,60.6283 128.9042,60.6293 129.3359,60.5118 129.873,60.1083 130.4549,59.5831 131.0558,59.2421 131.547,58.9793 131.8736,58.6318 132.2482,58.1305 132.6402,57.446 133.0397,56.5657 133.5631,55.6022 134.0213,54.839 134.2161,54.0432 134.2988,52.8827 134.334,51.4494 134.2311,50.133 134.0695,48.8663 133.765,47.5028 133.2849,45.8624 132.9658,43.9865 132.7124,42.3642 132.3689,40.8524 132.105,39.3876 131.9929,37.8221 131.8274,35.8602 131.5212,33.9654 131.2733,32.5708 131.1679,31.038 131.1231,29.2106 131.1041,27.2553 131.096,25.1276 131.0925,23.0446 131.0911,20.8627 131.2083,18.6417 131.376,16.5218 131.4473,14.7958 131.4776,13.355 131.4905,12.0354 131.496,10.7673 131.4983,9.5211 131.4993,8.2842 131.4997,6.8184 131.4999,5.609 131.4999,4.8592 131.5,4.1869 131.3821,3.4297 131.2141,2.6364 131.0249,1.9456 130.8266,1.4162 130.6244,1.0734 130.3028,0.9277 129.9303,0.8658 129.3005,0.7216 128.5613,0.5424 128.0114,0.4663 127.542,0.4339 127.1067,0.4202 126.5681,0.4143 125.9856,0.4118 125.3844,0.4108 124.3037,0.4103 122.7865,0.4101 121.5551,0.4101 120.7961,0.41 120.1198,0.41 119.1252,0.41 117.7594,0.41 116.236,0.2921 114.4098,0.0063 112.8085,-0.2331 111.8923,-0.3348 111.1492,-0.378 110.2469,-0.3964 109.1591,-0.4042 107.7537,-0.4075 106.4492,-0.409 105.659,-0.4096 105.0875,-0.4098 104.6088,-0.4099 104.0517,-0.5278 103.4614,-0.8137 102.9747,-1.2888 102.5321,-1.9623 101.9904,-2.72 101.2887,-3.5135 100.6368,-4.0865 100.2419,-4.4479 100.0741,-4.8372 100.0027,-5.3534 99.8545,-5.9236 99.6737,-6.5195 99.5968,-7.1264 99.5641,-8.0916 99.5503,-9.4448 99.4265,-10.7272 99.256,-11.8615 99.1836,-12.8152 99.1528,-13.5741 99.1397,-14.1324 99.1341,-14.7233 99.0139,-15.5638 98.727,-16.6253 98.4872,-17.663 98.3853,-18.5755 98.342,-19.4349 98.3236,-20.3894 98.3158,-21.2666 98.3125,-22.1109 98.311,-23.177 98.3104,-24.4552 98.3102,-25.9415 98.428,-27.3954 98.5959,-28.5998 98.6672,-29.5832 98.6976,-30.7083 98.7105,-32.0117 98.716,-33.0371 98.7183,-33.8265 98.7193,-34.5156 98.7197,-35.28 98.7199,-36.3121 98.7199,-37.2223 98.72,-37.9627 98.72,-38.7489 98.72,-39.4367 98.72,-40.0797 98.72,-40.7037 98.72,-41.2047 98.72,-41.7713 98.72,-42.4835 98.72,-43.1399 98.4871,-43.5367 98.1553,-43.8232 97.8964,-44.0629 97.5506,-44.1647 97.1679,-44.208 96.7695,-44.2264 96.3644,-44.2342 95.9565,-44.2375 95.5474,-44.239 95.2556,-44.1217 95.0138,-43.7182 94.7931,-43.1931 94.6993,-42.7342 94.6595,-42.3034 94.6425,-41.7667 94.5174,-40.9521 94.3464,-40.1373 94.2737,-39.5552 94.2428,-38.9542 94.2297,-38.2273 94.2241,-37.4468 94.2218,-36.4079 94.2207,-35.2591 94.2203,-34.1815 94.2201,-33.1341 94.2201,-32.3354 94.1021,-31.6423 93.8163,-30.8762 93.5769,-30.0791 93.4752,-29.1539 93.432,-28.292 93.2957,-27.5721 93.1199,-26.6768 93.0452,-25.7069 93.0135,-24.8232 93,-23.9761 92.9942,-23.1446 92.9918,-22.2018 92.9908,-21.2118 92.8725,-20.3195 92.7043,-19.4688 92.6328,-18.5207 92.6025,-17.5313 92.5895,-16.6393 92.5841,-15.9066 92.5817,-15.3594 92.5807,-14.7733 92.5803,-13.9348 92.5801,-12.8711 92.5801,-11.7119 92.4621,-10.2762 92.2942,-8.723 92.2228,-7.4735 92.1924,-6.5917 92.1795,-5.8662 92.1741,-5.2043 92.0538,-4.5693 91.8849,-3.7101 91.6952,-2.8734 91.4967,-2.1642 91.2945,-1.5092 90.9728,-0.995 90.6003,-0.5408 90.2063,0.0059 89.5673,0.7098 88.8242,1.3625 88.1548,1.7578 87.4017,2.0437 86.4951,2.4009 85.4025,2.7885 84.231,3.189 83.0258,3.4771 81.9242,3.7174 80.6309,4.0553 79.2561,4.4346 78.2004,4.7137 77.5159,4.9502 76.9893,5.1686 76.1789,5.2614 75.248,5.3008 74.1452,5.3176 72.8513,5.3247 71.5942,5.3278 70.3527,5.329 68.7641,5.3296 67.146,5.3298 65.6361,5.3299 64.0542,5.2121 62.4389,5.0441 60.22,4.8549 57.7446,4.5387 55.5138,4.1686 53.5078,3.8934 51.715,3.5407 50.128,3.155 48.7463,2.9911 47.5697,2.9215 46.3624,2.8919 44.3169,2.7614 42.0359,2.5881 40.1264,2.5144 38.4897,2.3653 37.0869,2.184 35.6655,2.1069 34.3542,2.0742 33.0897,2.0603 31.845,2.0544 30.3759,1.934 28.6935,1.7649 26.6819,1.6931 24.6482,1.6626 22.723,1.6496 20.9618,1.6441 19.8596,1.6417 19.0376,1.6407 18.2196,1.6403 17.1676,1.6401 15.8953,1.7579 14.5295,1.9259 13.1239,1.9972 11.7014,2.1455 10.2717,2.4442 9.1926,2.689 8.4982,2.7931 7.9674,3.0731 7.2703,3.6636 6.2696,4.6189 4.6685,6.4365 2.8092,9.2129 1.5475,12.161 0.8935,15.1792 0.6155,17.8735 0.4973,19.7259 0.4471,21.574 0.5436,23.6561 1.0562,26.0705 1.9812,28.6261 2.9638,30.7731 4.0886,32.8643 5.1532,34.6961 5.8385,35.8282 6.3655,36.663 7.061,37.725 7.9459,38.9986 8.7935,40.2443 9.861,41.481 11.2577,42.7138 12.5585,43.7092 13.465,44.368 14.2039,44.8838 14.9894,45.2209 15.9126,45.3641 17.0094,45.3071 17.9441,45.0472 18.695,44.3473 19.6035,42.989 20.4611,40.7643 20.9435,37.3463 21.0306,32.9497 20.3604,28.0192 19.2504,23.9199 18.31,21.2347 17.4418,19.1534 16.6013,17.4466 16.0083,16.1318 15.6384,15.2194 15.3633,14.478 15.1285,13.9271 14.6751,14.5182 13.7752,18.1848 12.6855,24.0988 11.8687,29.6741 11.4037,34.8698 11.2061,39.5504 11.1221,43.5435 11.0864,46.773 11.1891,48.8528 11.5864,50.2082 12.4625,51.3707 13.7778,52.5692 16.1021,53.4322 19.5624,53.7989 22.8011,53.719 25.825,52.5092 28.286,50.1119 29.4498,47.2071 29.9444,43.7358 29.686,38.9628 28.7539,34.1053 27.6505,30.3935 26.4744,27.0507 25.503,24.2156 24.9723,21.4782 24.7467,18.7854 24.7687,16.5829 25.2496,14.7039 26.6298,13.198 28.5102,12.2044 30.2523,11.9 31.8179,12.36 33.1905,13.7342 34.2453,15.8478 34.8115,18.2756 35.0521,20.8397 34.9187,23.5798 33.9189,28.0419 32.3153,33.7074 30.9265,38.352 29.9826,42.0912 29.4636,44.8592 29.243,46.9785 29.385,49.058 30.1526,50.9998 31.4219,52.7652 33.4937,54.4584 36.1423,55.6496 38.6796,56.1558 40.6981,56.371 41.9096,56.4624 42.8959,56.0298 43.7866,54.5493 44.2831,51.3297 44.1404,45.8415 43.0189,39.1505 41.6022,33.245 40.2957,28.1447 39.0332,23.3839 38.2608,19.9489 37.9326,17.5489 37.7931,15.7038 37.9696,14.4481 38.5161,13.5608 39.3348,13.0658 40.6229,12.8555 42.467,13.1197 44.4295,13.9393 45.8529,15.1127 46.6936,17.4945 47.1688,21.4508 47.3707,26.1941 47.4566,31.0361 47.493,35.9201 47.6264,40.3504 47.9189,43.6478 48.2789,46.2279 48.6677,48.1496 49.3044,49.6736 50.2822,51.1435 51.8737,52.2369 54.6689,52.8194 59.3903,53.067 64.223,53.1722 67.102,52.5126 68.4435,50.5848 68.66,47.7617 67.6911,43.3821 66.1006,38.6946 64.6024,35.0522 63.0255,31.7389 61.5302,28.4477 60.4232,25.045 59.8349,22.0665 59.5848,19.9755 59.4785,18.2646 59.6691,16.7152 60.3395,15.5852 61.4495,14.7513 62.8614,14.2791 64.6374,14.0784 66.5709,14.3467 68.2177,15.168 69.6249,16.3393 70.8123,17.8951 71.9064,20.0887 72.8428,22.5533 73.3587,24.6617 73.4601,26.7336 73.2674,29.4973 72.8319,33.0293 72.2932,36.7672 71.9464,39.8853 71.7989,42.1535 71.9721,43.9426 72.3992,45.1745 72.9344,45.9338 73.7513,46.4922 75.0385,47.2011 76.4079,47.856 77.3435,48.1343 77.9769,48.2526 78.4818,48.3028 79.05,48.3242 79.5273,47.626 79.848,45.6791 80.22,43.2042 80.496,39.7978 80.6133,35.8747 80.6632,32.56 80.6843,29.386 80.6933,26.5047 80.6972,23.8656 80.6988,21.2116 80.9352,18.7899 81.3894,16.8206 82.0538,15.2764 82.8078,14.2665 83.3639,13.7194 83.9539,13.4869 84.9119,13.8595 87.2022,15.3117 90.0587,17.3405 91.8621,19.4993 92.7464,21.9492 93.1222,25.5808 93.1641,30.4218 92.7104,35.3054 91.6924,39.7355 90.5525,43.1507 89.5966,45.6631 88.9545,47.3202 88.6817,48.4959 88.5657,49.7029 88.7522,51.2739 89.3029,52.9995 90.1264,54.2044 91.1836,54.9523 92.2223,55.2701 93.371,54.4622 94.4485,51.9999 95.0244,48.5988 95.0334,44.9166 94.6836,40.2898 94.417,35.1408 94.3037,30.3621 94.2556,26.5659 94.2351,22.3621 94.2245,17.5957 L94.22,15.57" opacity=".35" pointer-events="all" transform="matrix(1, 0, 0, 1, 1928.4097, 1088.8108) scale(1)"/></g></g><g opacity="1"><g><path fill="none" stroke="#cbe7f1" stroke-linecap="round" stroke-width="20.16" d="M0,0 Q5.1808,6.1237 6.3995,9.3082 T8.3721,15.4962 9.564,21.0701 10.1884,25.3222 10.5717,27.9544 10.8525,29.8983 10.9718,32.9611 11.0225,36.7354 11.3977,39.9897 12.1465,42.6694 12.8184,44.6333 13.3397,45.9395 14.1477,45.5517 15.1955,43.1472 15.9945,39.1813 16.4519,34.5518 16.6463,30.3475 16.6111,26.6776 16.2424,23.114 15.3814,19.0091 14.1932,14.9099 13.2167,11.7532 12.6839,9.4686 12.3395,7.3189 12.0753,5.1115 11.963,2.8797 11.9153,0.7524 12.0129,-1.0948 12.408,-2.587 12.9295,-3.6927 13.5048,-4.5163 14.3358,-4.9842 15.5112,-5.183 16.9538,-5.1497 18.392,-4.664 19.8283,-3.7503 21.3818,-2.5369 22.7493,-0.7246 23.6841,1.4573 24.1992,3.6784 24.4182,6.0368 24.2755,9.043 23.9791,12.3217 23.8531,14.7731 23.7996,16.6401 23.7768,18.2586 23.7671,20.0074 23.8809,21.8115 24.165,23.4034 24.6394,25.0201 26.2526,28.1797 28.5245,32.2641 L29.49,34" opacity=".35" pointer-events="all" transform="matrix(1, 0, 0, 1, 2022.63, 1104.38) scale(1)"/></g></g><g opacity="1"><g><path fill="none" stroke="#cbe7f1" stroke-linecap="round" stroke-width="20.16" d="M0,0 Q1.8112,-8.3432 2.1961,-10.2973 T2.5635,-13.0819 2.5385,-14.6275 2.1656,-15.8278 1.826,-17.0625 2.0439,-18.4928 2.6799,-20.5526 3.4936,-22.6987 4.2045,-24.1542 4.8718,-24.9539 5.6988,-24.7504 7.137,-23.7554 8.835,-22.4241 10.1,-21.1337 10.9999,-20.042 11.5634,-19.2157 11.803,-18.5023 11.9048,-17.8369 12.1291,-16.6484 12.5868,-14.5103 12.9624,-12.3309 13.3031,-10.3179 13.6291,-8.3756 13.7676,-6.8256 13.8265,-5.2584 13.8515,-3.3216 13.8621,-1.2305 13.8667,0.3826 13.8686,1.7927 13.8694,3.1165 13.8697,4.0443 14.0539,4.8037 14.3162,5.4887 14.6087,6.5043 14.9142,7.8416 15.044,9.3155 15.0992,10.6665 15.1227,11.6029 15.1326,12.3631 14.9557,15.5871 14.6429,20.5786 L14.51,22.7" opacity=".35" pointer-events="all" transform="matrix(1, 0, 0, 1, 2016.2148, 1037.9941) scale(1)"/></g></g><g opacity="1"><path fill="none" stroke="#1d1d1d" stroke-width="3.5" d="M0, 0L20, 0" transform="matrix(1, 0, 0, 1, 1920, 900) scale(1)"/></g><g opacity="1"><path fill="none" stroke="#1d1d1d" stroke-width="3.5" d="M0, 0L20, 0" transform="matrix(1, 0, 0, 1, 1920, 910) scale(1)"/></g><g opacity="1"><path fill="none" stroke="#1d1d1d" stroke-width="3.5" d="M0, 0L0, -10" transform="matrix(1, 0, 0, 1, 1940, 900) scale(1)"/></g><g opacity="1"><path fill="none" stroke="#1d1d1d" stroke-width="3.5" d="M0, 0L0, 10" transform="matrix(1, 0, 0, 1, 1940, 910) scale(1)"/></g><g opacity="1"><path fill="none" stroke="#1d1d1d" stroke-width="3.5" d="M20, 0L120, 0" transform="matrix(1, 0, 0, 1, 1920, 890) scale(1)"/></g><g opacity="1"><path fill="none" stroke="#1d1d1d" stroke-width="3.5" d="M20, 0L120, 0" transform="matrix(1, 0, 0, 1, 1920, 920) scale(1)"/></g><g opacity="1"><path fill="none" stroke="#1d1d1d" stroke-width="2" d="M40, 0L60, 0" transform="matrix(1, 0, 0, 1, 2000, 890) scale(1)"/></g><g opacity="1"><path fill="none" stroke="#1d1d1d" stroke-width="2" d="M40, 0L60, 0" transform="matrix(1, 0, 0, 1, 2000, 920) scale(1)"/></g><g opacity="1"><path fill="none" stroke="#1d1d1d" stroke-width="2" d="M0, 0L0, 50" transform="matrix(1, 0, 0, 1, 2070, 880) scale(1)"/></g><g opacity="1"><path fill="none" stroke="#1d1d1d" stroke-width="2" d="M0, 0L10, 0" transform="matrix(1, 0, 0, 1, 2060, 930) scale(1)"/></g><g opacity="1"><path fill="none" stroke="#1d1d1d" stroke-width="2" d="M0, 0L0, -50" transform="matrix(1, 0, 0, 1, 2060, 930) scale(1)"/></g><g opacity="1"><path fill="none" stroke="#1d1d1d" stroke-width="2" d="M0, 0L10, 0" transform="matrix(1, 0, 0, 1, 2060, 880) scale(1)"/></g><g opacity="1"><path fill="none" stroke="#1d1d1d" stroke-width="2" d="M0, 0L0, 30" transform="matrix(1, 0, 0, 1, 2000, 890) scale(1)"/></g></svg>