<svg xmlns="http://www.w3.org/2000/svg" xml:space="preserve" viewBox="0 0 1066.54 1019.06"><path fill="#fca" stroke="#00f" stroke-width="3.54" d="M248.022 391.156C142.144 452.452 70.866 566.97 70.866 698.031c52.129 30.178 112.63 47.47 177.156 47.47 64.514 0 125.035-17.272 177.157-47.438v-.032c0-131.061-71.278-245.579-177.157-306.875z" transform="translate(285.236 -35.072)"/><path fill="none" stroke="#00f" stroke-width="3.54" d="M779.53 698.033a354.332 354.332 0 1 1-708.664 0 354.332 354.332 0 1 1 708.663 0z" transform="translate(285.236 -35.072)"/><path fill="none" stroke="red" stroke-width="3.54" d="M602.364 391.176a354.332 354.332 0 1 1-708.663 0 354.332 354.332 0 1 1 708.663 0z" transform="translate(285.236 -35.072)"/><path fill="none" stroke="green" stroke-width="3.54" d="M425.198 698.033a354.332 354.332 0 1 1-708.663 0 354.332 354.332 0 1 1 708.663 0z" transform="translate(285.236 -35.072)"/><path fill="none" stroke="#f60" stroke-width="3.54" d="m70.415 697.792 354.782.667-177.37-307.425z" transform="translate(285.236 -35.072)"/><g fill="#bbb" stroke="#000"><path stroke-width="2" d="M2 172a196 196 0 0 0 196 0A196 196 0 0 0 100 2 196 196 0 0 0 2 172Z" transform="translate(352.914 353.998)scale(1.80212)"/><path d="M2 172h196L100 2Z" transform="translate(352.914 353.998)scale(1.80212)"/></g></svg>