<svg viewBox="0 0 1066.54 1019.06"><path fill="#fca" stroke="#00f" stroke-width="3.54" d="M533.258 356.084C427.38 417.38 356.102 531.898 356.102 662.959c52.129 30.178 112.63 47.47 177.156 47.47 64.514 0 125.035-17.272 177.157-47.438v-.032c0-131.061-71.278-245.579-177.157-306.875z"/><path fill="none" stroke="#00f" stroke-width="3.54" d="M1064.766 662.961a354.332 354.332 0 11-708.664 0 354.332 354.332 0 11708.663 0z"/><path fill="none" stroke="red" stroke-width="3.54" d="M887.6 356.104a354.332 354.332 0 11-708.663 0 354.332 354.332 0 11708.663 0z"/><path fill="none" stroke="green" stroke-width="3.54" d="M710.434 662.961a354.332 354.332 0 11-708.663 0 354.332 354.332 0 11708.663 0z"/><path fill="none" stroke="#f60" stroke-width="3.54" d="M355.651 662.72l354.782.667-177.37-307.425z"/><g fill="#bbb" stroke="#000"><path stroke-width="3.604" d="M356.518 663.963a353.216 353.216 0 00353.216 0 353.216 353.216 0 00-176.608-306.36 353.216 353.216 0 00-176.608 306.36z"/><path stroke-width="1.802" d="M356.518 663.963h353.216l-176.608-306.36z"/></g></svg>