<svg xmlns:xlink="http://www.w3.org/1999/xlink" viewBox="0 0 172.853 306.431"><defs><symbol id="c" overflow="visible"><path d="M4.11-7.703c-2.173 0-3.72 1.64-3.72 3.937 0 1.063.36 2.11.97 2.766A3.76 3.76 0 004.046.156c2.234 0 3.797-1.594 3.797-3.875 0-1.14-.344-2.11-.969-2.781-.719-.797-1.672-1.203-2.766-1.203zm0 .406c.53 0 1.046.219 1.452.578.625.563.97 1.625.97 2.985 0 .672-.141 1.453-.376 2.046-.093.282-.297.579-.547.829-.406.406-.921.609-1.515.609a2.13 2.13 0 01-1.438-.563c-.594-.515-.969-1.671-.969-2.937 0-1.156.313-2.266.797-2.797.438-.5 1-.75 1.625-.75zm0 0"/></symbol><symbol id="f" overflow="visible"><path d="M3.531-3.797h2.016C7.203-3.797 9-5.157 9-6.53c0-.922-.938-1.938-2.453-1.938H2.859c-.234 0-.5.156-.5.39 0 .126.266.266.453.266.72 0 .563-.046.563.079 0 .03 0 .078-.047.265L1.703-1.047c-.094.422.047.406-.797.406-.219 0-.515.157-.515.36 0 .14.281.281.343.281.235 0 .47-.031.704-.031h1.39c.235 0 .485.031.703.031.11 0 .39-.14.39-.375 0-.11-.265-.266-.437-.266-.718 0-.578.063-.578-.047 0-.062.016-.156.016-.203l.734-2.906zM4.547-7.5c.11-.438 0-.313.469-.313h1.187c.89 0 1.469.141 1.469 1.032 0 .312-.11 1.218-.656 1.765-.203.22-.657.625-1.75.625H3.78zm0 0"/></symbol><symbol id="g" overflow="visible"><path d="M4.656-5.188c-.375.079-.734.485-.734.75 0 .297.39.532.562.532.328 0 .766-.438.766-.797 0-.375-.531-.86-1.125-.86-.484 0-1.156.25-1.656.985l.281.11c-.078-.641-.719-1.095-1.203-1.095-.453 0-.813.407-1.016.75a6.13 6.13 0 00-.375 1.235c0 .047.219.25.297.25.094 0 .266-.156.328-.438.188-.718.266-1.265.735-1.265.296 0 .203.062.203.406 0 .266-.11.719-.203 1.094L1.187-2.25a17.67 17.67 0 01-.25.984 14.66 14.66 0 00-.203.938c0 .172.297.453.469.453.14 0 .516-.234.594-.469.031-.094.468-1.906.547-2.172.062-.265.125-.515.187-.78.047-.173.094-.36.14-.517.032-.109.298-.593.61-.843.14-.14.344-.375.828-.375.188 0 .266 0 .156-.078zm0 0"/></symbol><symbol id="h" overflow="visible"><path d="M4.672-4.797c-.219 0-.453.047-.625.188-.063.062-.25.359-.25.547 0 .234.344.53.578.53.281 0 .766-.39.766-.874 0-.563-.703-1.157-1.532-1.157-1.562 0-3.296 1.86-3.296 3.547 0 1.047.812 2.141 2.03 2.141 1.626 0 2.813-1.422 2.813-1.578 0-.063-.234-.281-.281-.281a.548.548 0 00-.266.172 2.78 2.78 0 01-2.25 1.14c-.812 0-.922-.562-.922-1.156 0-.422.157-1.469.579-2.281.312-.563.859-1.172 1.609-1.172.156 0 .64-.125.813.234zm0 0"/></symbol><symbol id="i" overflow="visible"><path d="M7.75-8.453c0-.11-.25-.266-.266-.266-.047 0-.187.063-.328.25-.062.078-.562.703-.422.563-.312-.625-1.218-.813-1.718-.813-1.516 0-3.063 1.547-3.063 2.89 0 .907.719 1.579 1.297 1.782.125.047.844.234 1.203.313.61.172.64.187.89.453.048.047.235.219.235.781 0 1.11-.86 2.11-2.047 2.11C2.547-.39 1.61-.657 1.61-2c0-.219.047-.516.094-.625v-.125c0-.047-.172-.266-.266-.266-.109 0-.296.172-.343.375L.484-.187c0 .015-.047.171-.047.187 0 .11.266.25.297.25.047 0 .156-.047.313-.219l.422-.562C1.656-.266 2.39.25 3.5.25c1.547 0 3.11-1.64 3.11-3.125 0-.5-.173-1.063-.626-1.5-.25-.25-.562-.36-1.671-.64-.797-.22-.797-.204-1.016-.407-.203-.203-.313-.375-.313-.781 0-1 .86-1.89 2-1.89 1.172 0 1.547.577 1.547 1.702 0 .313-.047.641-.047.688 0 .11.25.25.297.25.11 0 .266-.172.313-.375zm0 0"/></symbol><symbol id="j" overflow="visible"><path d="M5.14-7.438c.079-.28-.062-.25.126-.296.093-.016.484-.016.734-.016 1.203 0 1.594-.11 1.594.828 0 .188-.047.625-.125 1.063l-.016.14c0 .063.219.282.297.282.11 0 .266-.204.313-.391l.343-2.125c.016-.11.016-.125.016-.156 0-.141-.219-.297-.469-.297H1.422a.531.531 0 00-.531.375L.156-5.86c.047-.094-.031.14-.031.156 0 .063.203.266.281.266.094 0 .281-.188.328-.344.5-1.453.594-1.969 2.188-1.969h.797c.281 0 .234-.156.234-.016 0 .032 0 .047-.062.266L2.297-1.094c-.125.469.016.453-1.25.453C.75-.64.5-.484.5-.266.5-.14.797 0 .86 0c.296 0 .609-.031.906-.031H3.64c.296 0 .609.031.906.031.14 0 .406-.14.406-.375 0-.11-.234-.266-.547-.266-1.078 0-.921.047-.921-.14 0 0 0-.094.046-.282zm0 0"/></symbol><symbol id="k" overflow="visible"><path d="M2.094-8.672c0-.203-.188-.562-.438-.562-.234 0-.437.359-.437.562V2.422c0 .219.203.563.437.563.25 0 .438-.344.438-.563zm0 0"/></symbol><symbol id="n" overflow="visible"><path d="M7.875-2.75c.203 0 .61-.125.61-.375 0-.234-.407-.36-.61-.36H1.406c-.203 0-.625.126-.625.36 0 .25.422.375.625.375zm0 0"/></symbol><symbol id="l" overflow="visible"><path d="M2.375-1.688c.125-.109.469-.375.594-.484.484-.453 1.015-1.031 1.015-1.75 0-.953-.984-1.75-1.968-1.75-.97 0-1.782.922-1.782 1.625 0 .39.5.625.61.625.172 0 .594-.297.594-.61 0-.405-.579-.593-.422-.593.156-.39.515-.406.906-.406.734 0 .937.437.937 1.11 0 .827-.53 1.312-1.468 2.265L.375-.61c-.094.08-.14.235-.14.61h3.484l.297-1.797H3.39c-.047.344-.063.625-.157.766-.047.062-.515.015-.64.015H1.172l.125.313zm0 0"/></symbol><symbol id="m" overflow="visible"><path d="M8.063-3.875c.171 0 .546-.14.546-.36s-.359-.374-.546-.374H1.03c-.172 0-.547.156-.547.359 0 .234.36.375.547.375zm0 2.219c.171 0 .546-.14.546-.36s-.359-.375-.546-.375H1.03c-.172 0-.547.157-.547.375s.36.36.547.36zm0 0"/></symbol><symbol id="o" overflow="visible"><path d="M7.297-7.375c0-.438-.125-.422.734-.422h.39v-.64H.329v.64h.406c.86 0 .719-.016.719.422v6.328c0 .438.14.406-.719.406H.328v.672C.781-.03 1.75-.03 2.109-.03s1.329 0 1.782.062V-.64h-.407c-.859 0-.734.032-.734-.406v-6.75H6v6.75c0 .438.125.406-.734.406h-.407v.672C5.312-.03 6.297-.03 6.641-.03c.359 0 1.343 0 1.78.062V-.64h-.39c-.86 0-.734.032-.734-.406zm0 0"/></symbol><symbol id="p" overflow="visible"><path d="M4.047 2.766c0-.047-.047-.172-.25-.375C2.594 1.187 1.969-.688 1.969-3.125c0-2.313.515-4.203 1.906-5.61a.515.515 0 00.172-.28c0-.063-.219-.25-.266-.25-.156 0-1.265.906-1.844 2.077A9.033 9.033 0 001-3.125c0 1.063.172 2.484.797 3.766C2.5 2.078 3.64 3 3.78 3c.047 0 .266-.172.266-.234zm0 0"/></symbol><symbol id="q" overflow="visible"><path d="M3.531-3.125c0-.906-.125-2.39-.797-3.766C2.031-8.328.891-9.266.766-9.266c-.047 0-.282.188-.282.25 0 .032.047.172.25.375 1.204 1.204 1.829 3.079 1.829 5.516 0 2.313-.516 4.203-1.907 5.61-.125.109-.172.234-.172.28 0 .063.235.235.282.235.156 0 1.25-.89 1.828-2.063a9.132 9.132 0 00.937-4.062zm0 0"/></symbol><clipPath id="a"><path d="M207.602 204h170v189.219h-170zm0 0"/></clipPath><clipPath id="b"><path d="M207.602 91.211H304V175h-96.398zm0 0"/></clipPath><clipPath id="d"><path d="M228 91.211h149.602V229H228zm0 0"/></clipPath><clipPath id="e"><path d="M207.602 141H223v18h-15.398zm0 0"/></clipPath></defs><path fill="none" stroke="#000" stroke-miterlimit="10" stroke-width=".449" d="M62.516 21.234a10.174 10.174 0 0014.656 3.293M34.641 212.484a8.56 8.56 0 01.633-.024 8.95 8.95 0 018.937 9.414"/><path fill-rule="evenodd" d="M71.73 22.07a.837.837 0 11-1.673-.002.837.837 0 011.674.002"/><path fill="none" stroke="#000" stroke-miterlimit="10" stroke-width=".449" d="M71.73 22.07a.837.837 0 11-1.673-.002.837.837 0 011.674.002zm0 0"/><path fill-rule="evenodd" d="M39.786 217.628a.839.839 0 01-.84.84.838.838 0 11.84-.84"/><path fill="none" stroke="#000" stroke-miterlimit="10" stroke-width=".449" d="M39.785 217.628a.839.839 0 11-1.677.003.839.839 0 011.677-.003zm0 0"/><g clip-path="url(#a)" transform="translate(-206.32 -89.184)"><path fill="none" stroke="#00f" stroke-miterlimit="10" stroke-width="1.795" d="M375.441 311.121c0 44.602-36.156 80.762-80.761 80.762-44.602 0-80.758-36.16-80.758-80.762 0-44.601 36.156-80.762 80.758-80.762 44.605 0 80.761 36.16 80.761 80.762zm0 0"/></g><path fill="none" stroke="#000" stroke-miterlimit="10" stroke-width=".449" d="M10.41 60.417h91.41M71.494 15.968l30.988 44.567M88.36 221.937l-54.14-59.883m-.06 59.883h54.2"/><path fill="none" stroke="#ae00ae" stroke-miterlimit="10" stroke-width="1.795" d="M34.52 221.937v-59.223"/><g clip-path="url(#b)" transform="translate(-206.32 -89.184)"><path fill="none" stroke="#ae00ae" stroke-miterlimit="10" stroke-width="1.795" d="M213.922 149.602l63.71-44.63"/></g><use width="595" height="842" x="304.073" y="162.701" transform="translate(-206.32 -89.184)" xlink:href="#c"/><use width="595" height="842" x="290.673" y="324.582" transform="translate(-206.32 -89.184)" xlink:href="#c"/><g clip-path="url(#d)" transform="translate(-206.32 -89.184)"><path fill="none" stroke="#00f" stroke-miterlimit="10" stroke-width="1.795" d="M361.98 149.602c0 29.734-24.101 53.84-53.84 53.84-29.734 0-53.84-24.106-53.84-53.84 0-29.739 24.106-53.844 53.84-53.844 29.739 0 53.84 24.105 53.84 53.844zm0 0"/></g><path fill-rule="evenodd" d="M104.512 60.417a2.154 2.154 0 01-2.152 2.153 2.154 2.154 0 010-4.309c1.187 0 2.152.965 2.152 2.156"/><path fill="none" stroke="#000" stroke-miterlimit="10" stroke-width=".449" d="M104.512 60.417a2.154 2.154 0 01-2.152 2.153 2.154 2.154 0 010-4.309c1.187 0 2.152.965 2.152 2.156zm0 0"/><path fill="#00f" fill-rule="evenodd" d="M9.754 60.417a2.154 2.154 0 11-4.307-.003 2.154 2.154 0 014.307.003"/><g clip-path="url(#e)" transform="translate(-206.32 -89.184)"><path fill="none" stroke="#00f" stroke-miterlimit="10" stroke-width=".449" d="M216.074 149.602a2.154 2.154 0 11-4.308-.004 2.154 2.154 0 014.308.004zm0 0"/></g><path fill="red" fill-rule="evenodd" d="M73.645 15.847A2.151 2.151 0 0171.493 18a2.152 2.152 0 110-4.305c1.187 0 2.152.965 2.152 2.152"/><path fill="none" stroke="red" stroke-miterlimit="10" stroke-width=".449" d="M73.645 15.847A2.151 2.151 0 0171.493 18a2.152 2.152 0 110-4.304c1.187 0 2.152.965 2.152 2.152zm0 0"/><path fill-rule="evenodd" d="M90.516 221.937a2.152 2.152 0 01-2.156 2.152 2.151 2.151 0 110-4.304c1.191 0 2.156.964 2.156 2.152"/><path fill="none" stroke="#000" stroke-miterlimit="10" stroke-width=".449" d="M90.516 221.937a2.152 2.152 0 01-2.156 2.152 2.151 2.151 0 110-4.304c1.191 0 2.156.964 2.156 2.152zm0 0"/><path fill="#00f" fill-rule="evenodd" d="M36.672 221.937a2.149 2.149 0 01-2.152 2.152 2.151 2.151 0 110-4.304 2.15 2.15 0 012.152 2.152"/><path fill="none" stroke="#00f" stroke-miterlimit="10" stroke-width=".449" d="M36.672 221.937c0 1.191-.96 2.152-2.152 2.152a2.151 2.151 0 110-4.304 2.15 2.15 0 012.152 2.152zm0 0"/><path fill="red" fill-rule="evenodd" d="M36.793 162.054a2.151 2.151 0 01-2.152 2.153 2.149 2.149 0 01-2.152-2.153 2.151 2.151 0 114.304 0"/><path fill="none" stroke="red" stroke-miterlimit="10" stroke-width=".449" d="M36.793 162.054a2.151 2.151 0 01-2.152 2.153 2.149 2.149 0 01-2.152-2.153 2.151 2.151 0 114.304 0zm0 0"/><use width="595" height="842" x="208.764" y="163.06" fill="#211e1e" transform="translate(-206.32 -89.184)" xlink:href="#f"/><use width="595" height="842" x="235.684" y="324.582" fill="#211e1e" transform="translate(-206.32 -89.184)" xlink:href="#f"/><use width="595" height="842" x="269.267" y="279.416" fill="#211e1e" transform="translate(-206.32 -89.184)" xlink:href="#g"/><use width="595" height="842" x="293.675" y="123.099" fill="#211e1e" transform="translate(-206.32 -89.184)" xlink:href="#g"/><use width="595" height="842" x="335.346" y="122.68" fill="#211e1e" transform="translate(-206.32 -89.184)" xlink:href="#h"/><use width="595" height="842" x="343.423" y="270.742" fill="#211e1e" transform="translate(-206.32 -89.184)" xlink:href="#h"/><use width="595" height="842" x="233.243" y="246.513" fill="#211e1e" transform="translate(-206.32 -89.184)" xlink:href="#i"/><use width="595" height="842" x="269.69" y="100.425" fill="#211e1e" transform="translate(-206.32 -89.184)" xlink:href="#j"/><use width="595" height="842" x="257.175" y="354.194" fill="#630063" transform="translate(-206.32 -89.184)" xlink:href="#k"/><use width="595" height="842" x="260.535" y="354.194" fill="#630063" transform="translate(-206.32 -89.184)" xlink:href="#f"/><use width="595" height="842" x="269.775" y="354.194" fill="#630063" transform="translate(-206.32 -89.184)" xlink:href="#i"/><use width="595" height="842" x="277.695" y="354.194" fill="#630063" transform="translate(-206.32 -89.184)" xlink:href="#k"/><use width="595" height="842" x="280.935" y="349.754" fill="#211e1e" transform="translate(-206.32 -89.184)" xlink:href="#l"/><use width="595" height="842" x="288.975" y="354.194" fill="#211e1e" transform="translate(-206.32 -89.184)" xlink:href="#m"/><use width="595" height="842" x="301.335" y="354.194" fill="#211e1e" transform="translate(-206.32 -89.184)" xlink:href="#n"/><use width="595" height="842" x="310.575" y="354.194" fill="#211e1e" transform="translate(-206.32 -89.184)" xlink:href="#o"/><use width="595" height="842" x="319.335" y="354.194" fill="#211e1e" transform="translate(-206.32 -89.184)" xlink:href="#p"/><use width="595" height="842" x="323.895" y="354.194" fill="#211e1e" transform="translate(-206.32 -89.184)" xlink:href="#f"/><use width="595" height="842" x="333.135" y="354.194" fill="#211e1e" transform="translate(-206.32 -89.184)" xlink:href="#q"/><use width="595" height="842" x="273.327" y="181.904" fill="#630063" transform="translate(-206.32 -89.184)" xlink:href="#k"/><use width="595" height="842" x="276.687" y="181.904" fill="#630063" transform="translate(-206.32 -89.184)" xlink:href="#f"/><use width="595" height="842" x="285.927" y="181.904" fill="#630063" transform="translate(-206.32 -89.184)" xlink:href="#j"/><use width="595" height="842" x="294.447" y="181.904" fill="#630063" transform="translate(-206.32 -89.184)" xlink:href="#k"/><use width="595" height="842" x="297.567" y="177.584" fill="#211e1e" transform="translate(-206.32 -89.184)" xlink:href="#l"/><use width="595" height="842" x="305.607" y="181.904" fill="#211e1e" transform="translate(-206.32 -89.184)" xlink:href="#m"/><use width="595" height="842" x="318.087" y="181.904" fill="#211e1e" transform="translate(-206.32 -89.184)" xlink:href="#o"/><use width="595" height="842" x="326.847" y="181.904" fill="#211e1e" transform="translate(-206.32 -89.184)" xlink:href="#p"/><use width="595" height="842" x="331.407" y="181.904" fill="#211e1e" transform="translate(-206.32 -89.184)" xlink:href="#f"/><use width="595" height="842" x="340.647" y="181.904" fill="#211e1e" transform="translate(-206.32 -89.184)" xlink:href="#q"/></svg>