<svg xmlns="http://www.w3.org/2000/svg" xmlns:xlink="http://www.w3.org/1999/xlink" viewBox="0 0 228.8469 383.9324"><defs><symbol id="svg__github_work__c" overflow="visible"><path d="M3.5313-3.7969h2.0156C7.203-3.7969 9-5.1562 9-6.5312c0-.922-.9375-1.9375-2.4531-1.9375H2.8594c-.2344 0-.5.1562-.5.3906 0 .125.2656.2656.4531.2656.7188 0 .5625-.0469.5625.0781 0 .0313 0 .0781-.0469.2656l-1.625 6.422c-.0937.4218.0469.4062-.7969.4062-.2187 0-.5156.1562-.5156.3593C.3906-.1405.672 0 .7344 0c.2343 0 .4687-.0312.7031-.0312h1.3906c.2344 0 .4844.0312.7031.0312.1094 0 .3907-.1406.3907-.375 0-.1094-.2656-.2656-.4375-.2656-.7188 0-.5781.0625-.5781-.0469 0-.0625.0156-.1562.0156-.2031l.7344-2.9063zM4.5469-7.5c.1094-.4375 0-.3125.4687-.3125h1.1875c.8907 0 1.4688.1406 1.4688 1.0313 0 .3125-.1094 1.2187-.6563 1.7656-.2031.2187-.6562.625-1.75.625H3.7813zm0 0"/></symbol><symbol id="svg__github_work__d" overflow="visible"><path d="M4.6719-4.7969c-.2188 0-.4531.0469-.625.1875-.0625.0625-.25.3594-.25.5469 0 .2344.3437.5313.5781.5313.2813 0 .7656-.3907.7656-.875 0-.5625-.7031-1.1563-1.5312-1.1563-1.5625 0-3.2969 1.8594-3.2969 3.5469C.3125-.9687 1.125.125 2.3438.125c1.625 0 2.8125-1.4219 2.8125-1.5781 0-.0625-.2344-.2813-.2813-.2813-.0312 0-.1719.0625-.2656.1719C3.8438-.5469 2.828-.4219 2.3594-.4219c-.8125 0-.9219-.5625-.9219-1.1562 0-.4219.1563-1.4688.5781-2.2813.3125-.5625.8594-1.1718 1.6094-1.1718.1563 0 .6406-.125.8125.2343zm0 0"/></symbol><symbol id="svg__github_work__e" overflow="visible"><path d="M8.8281-5.375c0-1.9687-1.4375-3.3437-3.1093-3.3437-2.5625 0-5.3125 2.9062-5.3125 5.6718C.4063-1.1719 1.8125.25 3.5469.25 6.0625.25 8.828-2.5156 8.828-5.375zM3.625-.3281c-.9844 0-1.875-.5625-1.875-2.4219 0-1.0937.3594-2.7656 1.3281-3.9531.875-1.0469 1.7813-1.4531 2.5782-1.4531 1.0468 0 1.8906.625 1.8906 2.3437 0 1.0625-.4063 2.625-1.2031 3.75C5.4688-.8437 4.5-.3281 3.625-.3281zm0 0"/></symbol><symbol id="svg__github_work__f" overflow="visible"><path d="M7.75-8.4531c0-.1094-.25-.2657-.2656-.2657-.0469 0-.1875.0625-.3281.25-.0625.0782-.5625.7032-.422.5625-.3124-.625-1.2187-.8125-1.7187-.8125-1.5156 0-3.0625 1.547-3.0625 2.8907 0 .9062.7188 1.5781 1.2969 1.7812.125.0469.8438.2344 1.2031.3125.6094.1719.6406.1875.8907.4531.0468.047.2343.2188.2343.7813 0 1.1094-.8593 2.1094-2.0468 2.1094-.9844 0-1.922-.2656-1.922-1.6094 0-.2187.047-.5156.0938-.625v-.125c0-.0469-.1719-.2656-.2656-.2656-.1094 0-.2969.1719-.3437.375L.4843-.1875c0 .0156-.0469.1719-.0469.1875 0 .1094.2656.25.2969.25.0468 0 .1562-.0469.3125-.2187l.4219-.5625C1.6562-.2656 2.3906.25 3.5.25c1.5469 0 3.1094-1.6406 3.1094-3.125 0-.5-.1719-1.0625-.625-1.5-.25-.25-.5625-.3594-1.6719-.6406-.7969-.2188-.7969-.2031-1.0156-.4063-.2031-.2031-.3125-.375-.3125-.7812 0-1 .8594-1.8906 2-1.8906 1.1719 0 1.5469.578 1.5469 1.703 0 .3126-.047.6407-.047.6876 0 .1094.25.25.297.25.1093 0 .2656-.1719.3125-.375zm0 0"/></symbol><symbol id="svg__github_work__g" overflow="visible"><path d="M2.6875-5.2656c0-.2031-.2031-.4063-.5-.4063-.375.375-.6719.5156-1.6094.5156v.625c.4063 0 .8282 0 1.1094-.125v3.8126c0 .2968.1563.2187-.5937.2187H.625v.6406c.5156-.0468 1.2031-.0468 1.5625-.0468s1.0469 0 1.5625.0468V-.625h-.4687c-.75 0-.5938.0781-.5938-.2187zm0 0"/></symbol><symbol id="svg__github_work__h" overflow="visible"><path d="M2.375-1.6875c.125-.1094.4688-.375.5938-.4844.4843-.4531 1.0156-1.0312 1.0156-1.75 0-.9531-.9844-1.75-1.9688-1.75-.9687 0-1.7812.9219-1.7812 1.625 0 .3906.5.625.6094.625.1718 0 .5937-.2969.5937-.6094 0-.4062-.5781-.5937-.4219-.5937.1563-.3906.5156-.4062.9063-.4062.7344 0 .9375.4375.9375 1.1093 0 .8282-.5313 1.3125-1.4688 2.2657L.375-.6095C.2813-.5312.2344-.375.2344 0h3.4844l.2968-1.7969h-.625c-.0469.3438-.0625.625-.1562.7656-.0469.0626-.5156.0157-.6406.0157h-1.422l.125.3125zm0 0"/></symbol><symbol id="svg__github_work__i" overflow="visible"><path d="M2.0938-8.6719c0-.2031-.1875-.5625-.4375-.5625-.2344 0-.4376.3594-.4376.5625V2.422c0 .2187.2032.5625.4376.5625.25 0 .4374-.3438.4374-.5625zm0 0"/></symbol><symbol id="svg__github_work__j" overflow="visible"><path d="M2.4844-3.125c0-.3437-.4688-.7656-.8281-.7656-.3438 0-.8282.4219-.8282.7656 0 .3594.4844.7656.8282.7656.3593 0 .828-.4062.828-.7656zm0 0"/></symbol><symbol id="svg__github_work__o" overflow="visible"><path d="M7.875-2.75c.2031 0 .6094-.125.6094-.375 0-.2344-.4063-.3594-.6094-.3594H1.4063c-.2032 0-.625.125-.625.3594 0 .25.4218.375.625.375zm0 0"/></symbol><symbol id="svg__github_work__k" overflow="visible"><path d="M8.0625-3.875c.1719 0 .5469-.1406.5469-.3594s-.3594-.375-.5469-.375H1.0313c-.172 0-.547.1563-.547.3594 0 .2344.3595.375.547.375zm0 2.2188c.1719 0 .5469-.1407.5469-.3594s-.3594-.375-.5469-.375H1.0313c-.172 0-.547.1562-.547.375s.3595.3594.547.3594zm0 0"/></symbol><symbol id="svg__github_work__l" overflow="visible"><path d="M7.2969-7.375c0-.4375-.125-.4219.7344-.4219h.3906v-.6406H.328v.6406h.4063c.8594 0 .7187-.0156.7187.4219v6.3281c0 .4375.1406.4063-.7187.4063H.328v.6718C.7813-.0311 1.75-.0311 2.1094-.0311s1.3281 0 1.7812.0625v-.672h-.4062c-.8594 0-.7344.0313-.7344-.4062v-6.75H6v6.75c0 .4375.125.4063-.7344.4063h-.4062v.6718c.4531-.0624 1.4375-.0624 1.7812-.0624.3594 0 1.3438 0 1.7813.0625v-.672h-.3907c-.8593 0-.7343.0313-.7343-.4062zm0 0"/></symbol><symbol id="svg__github_work__m" overflow="visible"><path d="M4.0469 2.7656c0-.0469-.0469-.1719-.25-.375C2.5938 1.1875 1.9688-.6875 1.9688-3.125c0-2.3125.5156-4.2031 1.9062-5.6094.125-.1093.1719-.25.1719-.2812 0-.0625-.2188-.25-.2656-.25-.1563 0-1.2657.9062-1.8438 2.0781C1.3281-5.9687 1-4.5937 1-3.125c0 1.0625.1719 2.4844.7969 3.7656C2.5 2.0781 3.6406 3 3.7813 3c.0468 0 .2656-.1719.2656-.2344zm0 0"/></symbol><symbol id="svg__github_work__n" overflow="visible"><path d="M3.5313-3.125c0-.9062-.125-2.3906-.797-3.7656-.703-1.4375-1.8437-2.375-1.9687-2.375-.0468 0-.2812.1875-.2812.25 0 .0312.0469.1718.25.375C1.9375-7.4375 2.5625-5.5625 2.5625-3.125c0 2.3125-.5156 4.2031-1.9062 5.6094-.125.1094-.172.2344-.172.2812 0 .0625.2345.2344.2813.2344.1563 0 1.25-.8906 1.8282-2.0625.6093-1.2187.9375-2.625.9375-4.0625zm0 0"/></symbol><clipPath id="svg__github_work__a"><path d="M179.2813 233h226.6992v239.1797H179.2812zm0 0"/></clipPath><clipPath id="svg__github_work__b"><path d="M217 91.1328h188.9805V264H217zm0 0"/></clipPath></defs><g clip-path="url(#svg__github_work__a)" transform="translate(-178.6076 -90.522)"><path fill="none" stroke="#00f" stroke-miterlimit="10" stroke-width="22.787" d="M4034.8047 4740.5859c0-566.289-459.1016-1025.3906-1025.3906-1025.3906-566.3282 0-1025.4297 459.1016-1025.4297 1025.3906 0 566.3282 459.1015 1025.4297 1025.4297 1025.4297 566.289 0 1025.3906-459.1015 1025.3906-1025.4297zm0 0" transform="matrix(.1 0 0 -.1 0 842)"/></g><path fill="none" stroke="#ae00ae" stroke-miterlimit="10" stroke-width="11.3935" d="m1983.9844 6791.4453 1606.4844 546.875" transform="matrix(.1 0 0 -.1 -178.6076 751.478)"/><path fill="none" stroke="#ae00ae" stroke-miterlimit="10" stroke-width="11.3935" d="m1999.9219 4530.1953 1590.5469 1030.7422" transform="matrix(.1 0 0 -.1 -178.6076 751.478)"/><g clip-path="url(#svg__github_work__b)" transform="translate(-178.6076 -90.522)"><path fill="none" stroke="#00f" stroke-miterlimit="10" stroke-width="22.787" d="M3863.9063 6791.4453c0-377.5781-306.0547-683.6328-683.5938-683.6328s-683.6328 306.0547-683.6328 683.6328c0 377.5391 306.0937 683.5938 683.6328 683.5938s683.5938-306.0547 683.5938-683.5938zm0 0" transform="matrix(.1 0 0 -.1 0 842)"/></g><path fill-rule="evenodd" d="M321.4492 162.8555c0 1.5117-1.2265 2.7382-2.7344 2.7382-1.5117 0-2.7343-1.2265-2.7343-2.7382 0-1.5078 1.2226-2.7344 2.7343-2.7344 1.5079 0 2.7344 1.2266 2.7344 2.7344" transform="translate(-178.6076 -90.522)"/><path fill="none" stroke="#000" stroke-miterlimit="10" stroke-width="5.6967" d="M3214.4922 6791.4453c0-15.1172-12.2656-27.3828-27.3438-27.3828-15.1171 0-27.3437 12.2656-27.3437 27.3828 0 15.0781 12.2266 27.3438 27.3437 27.3438 15.0782 0 27.3438-12.2657 27.3438-27.3438zm0 0" transform="matrix(.1 0 0 -.1 -178.6076 751.478)"/><path fill="#00f" fill-rule="evenodd" d="M201.1328 162.8555c0 1.5117-1.2226 2.7382-2.7344 2.7382s-2.7343-1.2265-2.7343-2.7382c0-1.5078 1.2226-2.7344 2.7343-2.7344s2.7344 1.2266 2.7344 2.7344" transform="translate(-178.6076 -90.522)"/><path fill="none" stroke="#00f" stroke-miterlimit="10" stroke-width="5.6967" d="M2011.3281 6791.4453c0-15.1172-12.2265-27.3828-27.3437-27.3828s-27.3438 12.2656-27.3438 27.3828c0 15.0781 12.2266 27.3438 27.3438 27.3438s27.3437-12.2657 27.3437-27.3438zm0 0" transform="matrix(.1 0 0 -.1 -178.6076 751.478)"/><path fill-rule="evenodd" d="M303.6758 367.9414c0 1.5078-1.2266 2.7344-2.7344 2.7344-1.5117 0-2.7383-1.2266-2.7383-2.7344 0-1.5117 1.2266-2.7344 2.7383-2.7344 1.5078 0 2.7344 1.2227 2.7344 2.7344" transform="translate(-178.6076 -90.522)"/><path fill="none" stroke="#000" stroke-miterlimit="10" stroke-width="5.6967" d="M3036.7578 4740.5859c0-15.0781-12.2656-27.3437-27.3437-27.3437-15.1172 0-27.3828 12.2656-27.3828 27.3437 0 15.1172 12.2656 27.3438 27.3828 27.3438 15.0781 0 27.3437-12.2266 27.3437-27.3438zm0 0" transform="matrix(.1 0 0 -.1 -178.6076 751.478)"/><path fill="#00f" fill-rule="evenodd" d="M235.3125 367.9414c0 1.5078-1.2227 2.7344-2.7344 2.7344-1.5078 0-2.7343-1.2266-2.7343-2.7344 0-1.5117 1.2265-2.7344 2.7343-2.7344 1.5117 0 2.7344 1.2227 2.7344 2.7344" transform="translate(-178.6076 -90.522)"/><path fill="none" stroke="#00f" stroke-miterlimit="10" stroke-width="5.6967" d="M2353.125 4740.5859c0-15.0781-12.2266-27.3437-27.3437-27.3437-15.0782 0-27.3438 12.2656-27.3438 27.3437 0 15.1172 12.2656 27.3438 27.3438 27.3438 15.1171 0 27.3437-12.2266 27.3437-27.3438zm0 0" transform="matrix(.1 0 0 -.1 -178.6076 751.478)"/><path fill="red" fill-rule="evenodd" d="M361.0977 107.9414c0 1.5078-1.2266 2.7344-2.7344 2.7344-1.5117 0-2.7344-1.2266-2.7344-2.7344 0-1.5117 1.2227-2.7344 2.7344-2.7344 1.5078 0 2.7344 1.2227 2.7344 2.7344" transform="translate(-178.6076 -90.522)"/><path fill="none" stroke="red" stroke-miterlimit="10" stroke-width="5.6967" d="M3610.9766 7340.5859c0-15.0781-12.2657-27.3437-27.3438-27.3437-15.1172 0-27.3437 12.2656-27.3437 27.3437 0 15.1172 12.2265 27.3438 27.3437 27.3438 15.0781 0 27.3438-12.2266 27.3438-27.3438zm0 0" transform="matrix(.1 0 0 -.1 -178.6076 751.478)"/><path fill="red" fill-rule="evenodd" d="M255.0625 144.4766c0 1.5078-1.2227 2.7343-2.7344 2.7343s-2.7343-1.2265-2.7343-2.7343c0-1.5118 1.2226-2.7344 2.7343-2.7344s2.7344 1.2226 2.7344 2.7344" transform="translate(-178.6076 -90.522)"/><path fill="none" stroke="red" stroke-miterlimit="10" stroke-width="5.6967" d="M2550.625 6975.2344c0-15.0782-12.2266-27.3438-27.3437-27.3438-15.1172 0-27.3438 12.2656-27.3438 27.3438 0 15.1172 12.2266 27.3437 27.3438 27.3437 15.1171 0 27.3437-12.2265 27.3437-27.3437zm0 0" transform="matrix(.1 0 0 -.1 -178.6076 751.478)"/><path fill="red" fill-rule="evenodd" d="M203.1836 389.1328c0 1.5078-1.2227 2.7344-2.7344 2.7344s-2.7344-1.2266-2.7344-2.7344c0-1.5117 1.2227-2.7344 2.7344-2.7344s2.7344 1.2227 2.7344 2.7344" transform="translate(-178.6076 -90.522)"/><path fill="none" stroke="red" stroke-miterlimit="10" stroke-width="5.6967" d="M2031.8359 4528.6719c0-15.0782-12.2265-27.3438-27.3437-27.3438s-27.3438 12.2656-27.3438 27.3438c0 15.1172 12.2266 27.3437 27.3438 27.3437s27.3437-12.2265 27.3437-27.3437zm0 0" transform="matrix(.1 0 0 -.1 -178.6076 751.478)"/><path fill="red" fill-rule="evenodd" d="M362.8438 284.6172c0 1.5078-1.2227 2.7344-2.7344 2.7344-1.5078 0-2.7344-1.2266-2.7344-2.7344 0-1.5117 1.2266-2.7344 2.7344-2.7344 1.5117 0 2.7344 1.2227 2.7344 2.7344" transform="translate(-178.6076 -90.522)"/><path fill="none" stroke="red" stroke-miterlimit="10" stroke-width="5.6967" d="M3628.4375 5573.8281c0-15.0781-12.2266-27.3437-27.3437-27.3437-15.0782 0-27.3438 12.2656-27.3438 27.3437 0 15.1172 12.2656 27.3438 27.3438 27.3438 15.1171 0 27.3437-12.2266 27.3437-27.3438zm0 0" transform="matrix(.1 0 0 -.1 -178.6076 751.478)"/><use xlink:href="#svg__github_work__c" width="595" height="842" x="229.146" y="360.8" fill="#211e1e" transform="translate(-178.6076 -90.522)"/><use xlink:href="#svg__github_work__c" width="595" height="842" x="181.7491" y="170.301" fill="#211e1e" transform="translate(-178.6076 -90.522)"/><use xlink:href="#svg__github_work__d" width="595" height="842" x="379.917" y="326.923" fill="#211e1e" transform="translate(-178.6076 -90.522)"/><use xlink:href="#svg__github_work__d" width="595" height="842" x="366.2447" y="138.931" fill="#211e1e" transform="translate(-178.6076 -90.522)"/><use xlink:href="#svg__github_work__e" width="595" height="842" x="310.2427" y="371.966" fill="#211e1e" transform="translate(-178.6076 -90.522)"/><use xlink:href="#svg__github_work__e" width="595" height="842" x="328.2447" y="167.643" fill="#211e1e" transform="translate(-178.6076 -90.522)"/><use xlink:href="#svg__github_work__f" width="595" height="842" x="181.0047" y="401.209" fill="#211e1e" transform="translate(-178.6076 -90.522)"/><use xlink:href="#svg__github_work__g" width="595" height="842" x="188.2047" y="403.009" fill="#211e1e" transform="translate(-178.6076 -90.522)"/><use xlink:href="#svg__github_work__f" width="595" height="842" x="233.5664" y="142.197" fill="#211e1e" transform="translate(-178.6076 -90.522)"/><use xlink:href="#svg__github_work__g" width="595" height="842" x="240.7664" y="143.997" fill="#211e1e" transform="translate(-178.6076 -90.522)"/><use xlink:href="#svg__github_work__f" width="595" height="842" x="362.2374" y="276.185" fill="#211e1e" transform="translate(-178.6076 -90.522)"/><use xlink:href="#svg__github_work__h" width="595" height="842" x="369.4374" y="277.985" fill="#211e1e" transform="translate(-178.6076 -90.522)"/><use xlink:href="#svg__github_work__f" width="595" height="842" x="363.3765" y="103.536" fill="#211e1e" transform="translate(-178.6076 -90.522)"/><use xlink:href="#svg__github_work__h" width="595" height="842" x="370.5765" y="105.336" fill="#211e1e" transform="translate(-178.6076 -90.522)"/><use xlink:href="#svg__github_work__i" width="595" height="842" x="265.1645" y="190.9618" fill="#211e1e" transform="translate(-178.6076 -90.522)"/><use xlink:href="#svg__github_work__c" width="595" height="842" x="268.5246" y="190.9618" fill="#211e1e" transform="translate(-178.6076 -90.522)"/><use xlink:href="#svg__github_work__f" width="595" height="842" x="277.7645" y="190.9618" fill="#211e1e" transform="translate(-178.6076 -90.522)"/><use xlink:href="#svg__github_work__g" width="595" height="842" x="284.9644" y="192.7618" fill="#211e1e" transform="translate(-178.6076 -90.522)"/><use xlink:href="#svg__github_work__i" width="595" height="842" x="289.6445" y="190.9618" fill="#211e1e" transform="translate(-178.6076 -90.522)"/><use xlink:href="#svg__github_work__j" width="595" height="842" x="295.5246" y="190.9618" fill="#211e1e" transform="translate(-178.6076 -90.522)"/><use xlink:href="#svg__github_work__i" width="595" height="842" x="301.5246" y="190.9618" fill="#211e1e" transform="translate(-178.6076 -90.522)"/><use xlink:href="#svg__github_work__c" width="595" height="842" x="304.8847" y="190.9618" fill="#211e1e" transform="translate(-178.6076 -90.522)"/><use xlink:href="#svg__github_work__f" width="595" height="842" x="314.1246" y="190.9618" fill="#211e1e" transform="translate(-178.6076 -90.522)"/><use xlink:href="#svg__github_work__h" width="595" height="842" x="321.3245" y="192.7618" fill="#211e1e" transform="translate(-178.6076 -90.522)"/><use xlink:href="#svg__github_work__i" width="595" height="842" x="326.0046" y="190.9618" fill="#211e1e" transform="translate(-178.6076 -90.522)"/><use xlink:href="#svg__github_work__k" width="595" height="842" x="332.6046" y="190.9618" fill="#211e1e" transform="translate(-178.6076 -90.522)"/><use xlink:href="#svg__github_work__l" width="595" height="842" x="345.0847" y="190.9618" fill="#211e1e" transform="translate(-178.6076 -90.522)"/><use xlink:href="#svg__github_work__m" width="595" height="842" x="353.8447" y="190.9618" fill="#211e1e" transform="translate(-178.6076 -90.522)"/><use xlink:href="#svg__github_work__c" width="595" height="842" x="358.4046" y="190.9618" fill="#211e1e" transform="translate(-178.6076 -90.522)"/><use xlink:href="#svg__github_work__n" width="595" height="842" x="367.6444" y="190.9618" fill="#211e1e" transform="translate(-178.6076 -90.522)"/><use xlink:href="#svg__github_work__i" width="595" height="842" x="242.6054" y="403.2598" fill="#211e1e" transform="translate(-178.6076 -90.522)"/><use xlink:href="#svg__github_work__c" width="595" height="842" x="245.9656" y="403.2598" fill="#211e1e" transform="translate(-178.6076 -90.522)"/><use xlink:href="#svg__github_work__f" width="595" height="842" x="255.2055" y="403.2598" fill="#211e1e" transform="translate(-178.6076 -90.522)"/><use xlink:href="#svg__github_work__g" width="595" height="842" x="262.4054" y="405.0598" fill="#211e1e" transform="translate(-178.6076 -90.522)"/><use xlink:href="#svg__github_work__i" width="595" height="842" x="266.9651" y="403.2598" fill="#211e1e" transform="translate(-178.6076 -90.522)"/><use xlink:href="#svg__github_work__j" width="595" height="842" x="272.9652" y="403.2598" fill="#211e1e" transform="translate(-178.6076 -90.522)"/><use xlink:href="#svg__github_work__i" width="595" height="842" x="278.9652" y="403.2598" fill="#211e1e" transform="translate(-178.6076 -90.522)"/><use xlink:href="#svg__github_work__c" width="595" height="842" x="282.3254" y="403.2598" fill="#211e1e" transform="translate(-178.6076 -90.522)"/><use xlink:href="#svg__github_work__f" width="595" height="842" x="291.5652" y="403.2598" fill="#211e1e" transform="translate(-178.6076 -90.522)"/><use xlink:href="#svg__github_work__h" width="595" height="842" x="298.7651" y="405.0598" fill="#211e1e" transform="translate(-178.6076 -90.522)"/><use xlink:href="#svg__github_work__i" width="595" height="842" x="303.3253" y="403.2598" fill="#211e1e" transform="translate(-178.6076 -90.522)"/><use xlink:href="#svg__github_work__k" width="595" height="842" x="310.0452" y="403.2598" fill="#211e1e" transform="translate(-178.6076 -90.522)"/><use xlink:href="#svg__github_work__o" width="595" height="842" x="322.4054" y="403.2598" fill="#211e1e" transform="translate(-178.6076 -90.522)"/><use xlink:href="#svg__github_work__l" width="595" height="842" x="331.6453" y="403.2598" fill="#211e1e" transform="translate(-178.6076 -90.522)"/><use xlink:href="#svg__github_work__m" width="595" height="842" x="340.4053" y="403.2598" fill="#211e1e" transform="translate(-178.6076 -90.522)"/><use xlink:href="#svg__github_work__c" width="595" height="842" x="344.9652" y="403.2598" fill="#211e1e" transform="translate(-178.6076 -90.522)"/><use xlink:href="#svg__github_work__n" width="595" height="842" x="354.205" y="403.2598" fill="#211e1e" transform="translate(-178.6076 -90.522)"/></svg>