<svg viewBox="0 0 954 680.5"><path d="M58 551.49l-8 5V407.51l8 5z"/><path d="M178.5 621.49v9.01L50 556.49l8-5zm120.5-70l4 2.5v4.52L178.5 630.5v-9.01z"/><path d="M299 412.51l4-2.5 4 2.5v138.98l-4 2.5-4-2.5z"/><path d="M178.5 342.5v-9l120 69.5 4.5 7.01-4 2.5zM58 412.51l-8-5 128.5-74.01v9zm370 208.98v9.01l-125-71.99v-4.52l4-2.5zm120.5-70l8 5L428 630.5v-9.01z"/><path d="M548.5 412.51l4-2.5 4 2.5v143.98l-8-5z"/><path d="M428 342.5V338l4-2.5 115.5 67.01 5 7.5-4 2.5zm-121 70.01l-4-2.5 5-7.01 116-67.5 4 2.5v4.5zm366.5-77.01l4 2.5.51 4.5-121.51 70.01-4-2.5 5-7.5z"/><path d="M673.5 196.5l4-2.5 4 3v138l-4 3-4-2.5z"/><path d="M552.5 126.5v-9L673.01 187l4.49 7-4 2.5zm-120.5 70l-8-5 128.5-74v9z"/><path d="M432 335.5l-4 2.5-4-2.5v-144l8 5zM813.01 378l2.99 9-137.99-44.5-.51-4.5 4-3z"/><path d="M894 266h10l-88 121-2.99-9zm-80.99-112l2.99-9 88 121h-10z"/><path d="M681.5 197l-4-3 4.49-5.5L816 145l-2.99 9zM288 266h30l-10 137-5 7.01-4.5-7.01z"/><text transform="translate(516.507 305.007)"><tspan x="0" y="0" font-family="ArialMT" font-size="100">H</tspan></text><path d="M537.5 321h30l-10 81.51-5 7.5-5-7.5zm125-271h30l-10.51 138.5-4.49 5.5-4.49-7z"/><text transform="translate(391.998 521.007)"><tspan x="0" y="0" font-family="ArialMT" font-size="100">H</tspan></text><path d="M443 433.99h-30l1-7.98h27.5zm-5-31.48h-20l1-8.01h18zm-5-31.5h-10.5L424 363h8z"/><text transform="translate(641.507 521.007)"><tspan x="0" y="0" font-family="ArialMT" font-size="100">H</tspan></text><path d="M692.5 433.99h-30l1-7.98H691zm-5-31.48h-20.51l1.51-8.01H686zm-5-31.5h-10.49l1.49-8.01h8z"/></svg>