<svg xmlns:xlink="http://www.w3.org/1999/xlink" viewBox="-17.579 -7.045 836 766"><defs><symbol id="e" viewBox="-35.163 -21.955 70.327 43.91"><path fill="#f7941e" stroke="#ed1c24" d="M.001 21.237l8.336-8.579 15.543 2.36-3.751-9.775L33.771 0 20.129-5.243l3.751-9.775-15.543 2.359-8.336-8.579-8.338 8.579-15.542-2.359 3.75 9.775L-33.77 0l13.641 5.243-3.75 9.775 15.542-2.36z"/><text transform="matrix(1 0 0 -1 -18.336 -6.607)"><tspan x="0" y="0" font-family="'Helvetica'" font-size="18.573">AD</tspan><tspan x="25.801" y="0" font-family="'Helvetica'" font-size="18.573">P</tspan></text></symbol><symbol id="d" viewBox="-39.814 -24.99 79.63 49.98"><path fill="#fff200" stroke="#ed1c24" d="M0 24.195l8.396-10.371 15.286 5.749-1.703-11.029 16.337-1.066L27.168-.001l11.148-7.477-16.337-1.066 1.703-11.03-15.286 5.75L0-24.195l-8.395 10.371-15.285-5.75 1.701 11.03-16.336 1.066 11.149 7.477-11.149 7.479 16.336 1.066-1.701 11.029 15.285-5.749z"/><text transform="matrix(1 0 0 -1 -20.382 -9.419)"><tspan x="0" y="0" font-family="'Helvetica'" font-size="23.574" letter-spacing="-1">A</tspan><tspan x="13.985" y="0" font-family="'Helvetica'" font-size="23.574">T</tspan><tspan x="28.386" y="0" font-family="'Helvetica'" font-size="23.574">P</tspan></text></symbol><symbol id="g" viewBox="-35.163 -21.956 70.327 43.911"><path fill="#009f75" stroke="#3d52a4" d="M.001 21.237l8.336-8.579 15.543 2.36-3.751-9.776L33.771 0 20.129-5.244l3.751-9.774-15.543 2.36-8.336-8.58-8.338 8.58-15.542-2.36 3.75 9.774L-33.77 0l13.641 5.242-3.75 9.776 15.542-2.36z"/><text font-family="'Helvetica'" font-size="12.38" transform="matrix(1 0 0 -1 -19.336 -3.438)">NADP+</text></symbol><symbol id="f" viewBox="-39.815 -24.99 79.63 49.98"><path fill="#00a651" stroke="#00aeef" d="M-.001 24.195l8.396-10.371 15.286 5.749-1.702-11.029 16.336-1.066L27.167-.001l11.148-7.477-16.336-1.066 1.702-11.03-15.286 5.75-8.396-10.371-8.395 10.371-15.285-5.75 1.702 11.03-16.337 1.066 11.149 7.477-11.149 7.479 16.337 1.066-1.702 11.029 15.285-5.749z"/><text font-family="'Helvetica'" font-size="14.577" transform="matrix(1 0 0 -1 -25.07 -5.376)">NADPH</text></symbol></defs><radialGradient id="a" cx="313.177" cy="319.789" r="175.513" gradientTransform="matrix(.0268 -.9996 .6331 .017 105.437 625.366)" gradientUnits="userSpaceOnUse"><stop offset=".006" stop-color="#fff100"/><stop offset="1" stop-color="#fff200" stop-opacity="0"/></radialGradient><path fill="url(#a)" d="M66.984 202.013L312.756 348.65l248.319-142.283-38.754-.341-72.863-75.328s-68.42-45.32-71.961-45.906c-3.543-.586-52.815-1.582-52.815-1.582s-69.401.066-71.457-.4c-2.056-.465-63.775 22.955-63.775 22.955l-65.937 20.088-37.693 48.1 15.679 28.366z" opacity=".57"/><radialGradient id="b" cx="283.329" cy="365.934" r="175.502" gradientTransform="matrix(-.872 .4895 -.31 -.5523 643.68 426.921)" gradientUnits="userSpaceOnUse"><stop offset="0" stop-color="#f58c1f"/><stop offset="1" stop-color="#f78d1e" stop-opacity="0"/></radialGradient><path fill="url(#b)" d="M311.615 636.882l-.112-286.191L62.03 210.442l19.577 33.447-27.317 101.18s-3.831 81.979-2.518 85.319c1.313 3.342 25.72 46.156 25.72 46.156s35.639 59.551 36.292 61.555c.655 2.004 52.407 42.986 52.407 42.986l51.053 46.312 60.622 7.701 16.315-28.006z" opacity=".57"/><radialGradient id="c" cx="257.976" cy="318.386" r="175.517" gradientTransform="rotate(31.38 .22 430.291) scale(1 .6333)" gradientUnits="userSpaceOnUse"><stop offset=".006" stop-color="#eb1d24"/><stop offset="1" stop-color="#ed1c24" stop-opacity="0"/></radialGradient><path fill="url(#c)" d="M563.771 210.65L314.27 350.847l-.171 286.193 19.582-33.443 101.6-25.711s73.359-36.791 75.631-39.57c2.271-2.781 27.656-45.023 27.656-45.023s34.482-60.229 35.91-61.779c1.426-1.553 11.828-66.74 11.828-66.74l15.393-67.189-22.961-56.631-32.408-.517z" opacity=".57"/><path fill="#fff" stroke="#000" d="M259 323.012l51.01 88.352-52.374 30.238-51.01-88.352z" opacity=".5"/><path fill="none" stroke="#000" stroke-width="3" d="M24.146 306.812l-13.959 8.376"/><circle cx="7.396" cy="316.238" r="4.886" fill="#fff" stroke="#000"/><path fill="none" stroke="#000" stroke-width="5" d="M114.196 202.801a246.69 246.69 0 0167.75-65.02M70.251 363.804a248.905 248.905 0 01-.12-37.881m12.158 96.628a243.796 243.796 0 01-10.327-43.365m32.855 91.822a244.482 244.482 0 01-18.053-36.277m56.469 84.71a246.545 246.545 0 01-32.862-39.685m90.751 81.786a245.891 245.891 0 01-49.494-34.259m310.678 12.875a244.78 244.78 0 01-66.013 35.41m163.472-245.63c.266 4.677.4 9.389.4 14.132 0 14.001-1.173 27.729-3.426 41.09"/><path fill="none" stroke="#3c57a7" stroke-width="9" d="M431.021 127.932c35.211 18.97 65.256 46.293 87.482 79.316"/><path fill="none" stroke="#000" stroke-width="3" d="M307.41 140.711l13.959 8.376m-99.012 6.633l-11.277 7.621m6.338-31.069l6.376 10.207m50.81-66.68v13.96m26.523 27.57v13.96m22.685-54.792v13.96m24.43 1.744v13.96m.384 10.846v16.049m-24-31.049v16.049m-23.75-29.299v16.049m-48.607 12.523v13.96m26.174-55.49v13.96"/><circle cx="252.564" cy="109.427" r="8.25"/><circle cx="276.645" cy="68.944" r="8.251" fill="#ed1f24"/><circle cx="301.423" cy="137.347" r="8.25" fill="#ed1f24"/><circle cx="324.108" cy="68.595" r="8.251" fill="#ed1f24"/><path fill="none" stroke="#000" stroke-width="3" d="M248.429 139.665l-18.846 11.167"/><circle cx="276.296" cy="96.165" r="8.25"/><circle cx="300.725" cy="109.078" r="8.251"/><circle cx="324.107" cy="95.816" r="8.25"/><circle cx="348.537" cy="109.078" r="8.25"/><path fill="none" stroke="#000" stroke-width="3" d="M257.853 105.812l13.959-6.631m59.041-34.869l13.959-6.631m-62.53 41.5l13.96 8.376m9.771-2.094l15.007-8.026m31.759 9.073l15.006-8.027m-38.389-.349l14.657 9.074"/><circle cx="252.564" cy="137.695" r="8.25" fill="#ed1f24"/><circle cx="213.709" cy="127.281" r="8.25" fill="#ed1f24"/><path fill="none" stroke="#000" stroke-width="3" d="M241.867 168.772l-6.972-9.808"/><circle cx="245.049" cy="174.115" r="8.251" fill="#ed1f24"/><circle cx="206.897" cy="166.1" r="8.25" fill="#ed1f24"/><circle cx="229.584" cy="150.832" r="11.167" fill="#d0158d"/><path fill="none" stroke="#000" stroke-width="3" d="M389.743 88.521l-12.464 5.469m11.822-29.422l4.437 11.186m24.739 1.662l-20.547 7.597"/><circle cx="422.699" cy="76.222" r="8.251" fill="#ed1f24"/><circle cx="386.35" cy="58.991" r="8.25" fill="#ed1f24"/><path fill="none" stroke="#000" stroke-width="3" d="M406.587 104.869l-5.094-10.902"/><circle cx="408.758" cy="110.697" r="8.25" fill="#ed1f24"/><circle cx="372.668" cy="95.952" r="8.25" fill="#ed1f24"/><circle cx="397.731" cy="85.013" r="11.167" fill="#d0158d"/><circle cx="324.159" cy="150.137" r="4.886" fill="#fff" stroke="#000"/><circle cx="348.937" cy="55.56" r="4.886" fill="#fff" stroke="#000"/><path fill="none" stroke="#000" stroke-width="3" d="M232.31 97.317l13.96 8.376"/><circle cx="228.695" cy="94.847" r="4.886" fill="#fff" stroke="#000"/><circle cx="300.776" cy="85.573" r="4.886" fill="#fff" stroke="#000"/><circle cx="324.507" cy="118.378" r="4.886" fill="#fff" stroke="#000"/><circle cx="348.662" cy="136.581" r="4.886" fill="#fff" stroke="#000"/><circle cx="348.239" cy="88.366" r="4.886" fill="#fff" stroke="#000"/><path fill="none" stroke="#000" stroke-width="3" d="M252.241 92.201v13.96"/><circle cx="252.238" cy="88.366" r="4.886" fill="#fff" stroke="#000"/><path fill="none" stroke="#000" stroke-width="3" d="M499.973 84.056l14.923 8.633m-17.553-4.552l14.922 8.632"/><circle cx="493.877" cy="83.837" r="8.251" fill="#ed1f24"/><circle cx="518.245" cy="97.069" r="8.251"/><path fill="none" stroke="#000" stroke-width="3" d="M539.408 106.475l-14.987-8.52m12.793 12.851l-14.986-8.521"/><circle cx="542.676" cy="111.625" r="8.251" fill="#ed1f24"/><path fill="none" stroke="#3c57a7" stroke-width="9" d="M507.23 108.701c-14.92 31.162-11.809 69.442 11.191 98.253"/><path fill="none" stroke="#000" stroke-width="3" d="M420.233 289.979l14.923 8.633m-17.553-4.552l14.922 8.632m6.382 8.551v13.96m22.684-54.792v13.96m24.43 1.745v13.96m.385 10.845v16.05m-24-31.05v16.05"/><circle cx="439.203" cy="331.261" r="8.25" fill="#ed1f24"/><circle cx="461.887" cy="262.51" r="8.251" fill="#ed1f24"/><circle cx="414.137" cy="289.76" r="8.251" fill="#ed1f24"/><circle cx="438.504" cy="302.992" r="8.251"/><circle cx="461.887" cy="289.73" r="8.25"/><circle cx="486.316" cy="302.992" r="8.25"/><path fill="none" stroke="#000" stroke-width="3" d="M468.632 258.227l13.959-6.631m-38.799 47.782l15.007-8.027m31.759 9.074l15.006-8.027m-38.389-.349l14.658 9.074m45.689-18.687l-12.464 5.469m11.822-29.422l4.437 11.185m24.739 1.663l-20.547 7.596"/><circle cx="560.478" cy="270.136" r="8.251" fill="#ed1f24"/><circle cx="524.129" cy="252.906" r="8.25" fill="#ed1f24"/><path fill="none" stroke="#000" stroke-width="3" d="M544.367 298.784l-5.095-10.903"/><circle cx="546.537" cy="304.611" r="8.25" fill="#ed1f24"/><circle cx="510.447" cy="289.867" r="8.25" fill="#ed1f24"/><circle cx="535.51" cy="278.927" r="11.167" fill="#d0158d"/><circle cx="486.716" cy="249.475" r="4.886" fill="#fff" stroke="#000"/><circle cx="462.287" cy="312.293" r="4.886" fill="#fff" stroke="#000"/><circle cx="486.441" cy="330.496" r="4.886" fill="#fff" stroke="#000"/><circle cx="486.018" cy="282.281" r="4.886" fill="#fff" stroke="#000"/><circle cx="564.982" cy="256.992" r="3.333" fill="none" stroke="#000"/><path fill="none" stroke="#000" d="M563.078 256.992h3.809"/><circle cx="428.316" cy="341.325" r="3.333" fill="none" stroke="#000"/><path fill="none" stroke="#000" d="M426.412 341.325h3.809"/><path fill="none" stroke="#000" stroke-width="3" d="M627.778 219.167l14.923 8.632m-17.553-4.551l14.922 8.631m6.382 8.552v13.96m22.684-54.792v13.96m24.43 1.744v13.96m.385 10.846v16.049m-24-31.049v16.049"/><circle cx="646.748" cy="260.449" r="8.25" fill="#ed1f24"/><circle cx="669.432" cy="191.697" r="8.251" fill="#ed1f24"/><circle cx="621.682" cy="218.947" r="8.251" fill="#ed1f24"/><circle cx="646.049" cy="232.18" r="8.251"/><circle cx="669.432" cy="218.918" r="8.25"/><circle cx="693.861" cy="232.18" r="8.25"/><path fill="none" stroke="#000" stroke-width="3" d="M676.177 187.414l13.959-6.631m-38.799 47.782l15.007-8.026m31.759 9.073l15.006-8.027m-38.389-.349l14.657 9.074m45.69-18.686l-12.464 5.468m11.822-29.422l4.437 11.186m24.739 1.662l-20.547 7.597"/><circle cx="768.023" cy="199.324" r="8.251" fill="#ed1f24"/><circle cx="731.674" cy="182.093" r="8.25" fill="#ed1f24"/><path fill="none" stroke="#000" stroke-width="3" d="M751.912 227.971l-5.095-10.902"/><circle cx="754.082" cy="233.799" r="8.25" fill="#ed1f24"/><circle cx="717.992" cy="219.054" r="8.25" fill="#ed1f24"/><circle cx="743.055" cy="208.115" r="11.167" fill="#d0158d"/><circle cx="694.261" cy="178.662" r="4.886" fill="#fff" stroke="#000"/><circle cx="669.832" cy="241.48" r="4.886" fill="#fff" stroke="#000"/><circle cx="693.986" cy="259.683" r="4.886" fill="#fff" stroke="#000"/><circle cx="693.563" cy="211.468" r="4.886" fill="#fff" stroke="#000"/><circle cx="772.527" cy="186.18" r="3.333" fill="none" stroke="#000"/><path fill="none" stroke="#000" d="M770.623 186.18h3.809"/><circle cx="635.861" cy="270.513" r="3.333" fill="none" stroke="#000"/><path fill="none" stroke="#000" d="M633.957 270.513h3.809"/><circle cx="435.421" cy="82.622" r="3.333" fill="none" stroke="#000"/><path fill="none" stroke="#000" d="M433.516 82.622h3.81"/><circle cx="193.422" cy="163.621" r="3.333" fill="none" stroke="#000"/><path fill="none" stroke="#000" d="M191.517 163.621h3.81"/><circle cx="408.184" cy="511.622" r="3.333" fill="none" stroke="#000"/><path fill="none" stroke="#000" d="M406.279 511.622h3.809"/><circle cx="385.851" cy="544.955" r="3.333" fill="none" stroke="#000"/><path fill="none" stroke="#000" d="M383.946 544.955h3.809"/><path fill="none" stroke="#000" stroke-width="3" d="M437.333 506.392l-11.452 7.358m7.058-30.913l6.137 10.35m24.693-2.242l-19.1 10.728"/><circle cx="429.346" cy="477.761" r="8.25" fill="#ed1f24"/><path fill="none" stroke="#000" stroke-width="3" d="M456.535 519.894l-6.743-9.969"/><circle cx="459.593" cy="525.308" r="8.25" fill="#ed1f24"/><path fill="#ed1f24" d="M426.095 523.351a8.249 8.249 0 01-11.401-2.479 8.253 8.253 0 012.482-11.402 8.25 8.25 0 118.919 13.881z"/><circle cx="444.671" cy="501.673" r="11.168" fill="#d0158d"/><path fill="none" stroke="#000" stroke-width="3" d="M450.338 446.941l14.923 8.633m-17.553-4.551l14.922 8.631m6.382 8.552v13.96m22.685-54.792v13.959m24.429 1.745v13.961m.385 10.845v16.049m-24-31.049v16.049"/><circle cx="469.308" cy="488.223" r="8.25" fill="#ed1f24"/><circle cx="491.993" cy="419.472" r="8.251" fill="#ed1f24"/><circle cx="444.243" cy="446.722" r="8.251" fill="#ed1f24"/><circle cx="468.61" cy="459.955" r="8.251"/><circle cx="491.992" cy="446.693" r="8.25"/><circle cx="516.422" cy="459.955" r="8.25"/><path fill="none" stroke="#000" stroke-width="3" d="M498.738 415.189l13.959-6.631m-38.799 47.782l15.007-8.026m31.759 9.073l15.005-8.026m-38.388-.35l14.657 9.074m45.689-18.687l-12.463 5.469m11.822-29.422l4.436 11.185m24.74 1.662l-20.547 7.598"/><circle cx="590.583" cy="427.098" r="8.251" fill="#ed1f24"/><circle cx="554.234" cy="409.868" r="8.25" fill="#ed1f24"/><path fill="none" stroke="#000" stroke-width="3" d="M574.472 455.746l-5.095-10.903"/><circle cx="576.643" cy="461.574" r="8.25" fill="#ed1f24"/><circle cx="540.553" cy="446.83" r="8.25" fill="#ed1f24"/><circle cx="565.616" cy="435.89" r="11.167" fill="#d0158d"/><circle cx="516.822" cy="406.437" r="4.886" fill="#fff" stroke="#000"/><circle cx="492.392" cy="469.255" r="4.886" fill="#fff" stroke="#000"/><circle cx="516.546" cy="487.458" r="4.886" fill="#fff" stroke="#000"/><circle cx="516.124" cy="439.244" r="4.886" fill="#fff" stroke="#000"/><path fill="none" stroke="#000" stroke-width="3" d="M236.208 575.067l14.922 8.633m-17.552-4.552l14.922 8.632m6.381 7.054v17.5m22.685-56.835v13.96m24.43 1.745v13.96m.384 10.845v16.05m-24-31.05v16.05"/><circle cx="277.862" cy="547.598" r="8.251" fill="#ed1f24"/><circle cx="230.112" cy="574.848" r="8.251" fill="#ed1f24"/><circle cx="254.479" cy="588.081" r="8.251"/><circle cx="277.861" cy="574.819" r="8.25"/><circle cx="302.291" cy="588.081" r="8.25"/><path fill="none" stroke="#000" stroke-width="3" d="M284.607 543.315l13.959-6.631m-38.799 47.781l15.007-8.026m31.759 9.073l15.006-8.026m-38.389-.349l14.657 9.073m45.69-18.686l-12.464 5.469m11.822-29.422l4.437 11.185m24.739 1.662l-20.547 7.597"/><circle cx="376.453" cy="555.224" r="8.251" fill="#ed1f24"/><circle cx="340.104" cy="537.994" r="8.25" fill="#ed1f24"/><path fill="none" stroke="#000" stroke-width="3" d="M360.341 583.872l-5.094-10.903"/><circle cx="362.512" cy="589.699" r="8.25" fill="#ed1f24"/><circle cx="326.422" cy="574.955" r="8.25" fill="#ed1f24"/><circle cx="351.485" cy="564.015" r="11.167" fill="#d0158d"/><circle cx="302.691" cy="534.563" r="4.886" fill="#fff" stroke="#000"/><circle cx="278.261" cy="597.381" r="4.886" fill="#fff" stroke="#000"/><circle cx="254.761" cy="615.881" r="4.886" fill="#fff" stroke="#000"/><circle cx="302.416" cy="615.583" r="4.886" fill="#fff" stroke="#000"/><circle cx="301.993" cy="567.369" r="4.886" fill="#fff" stroke="#000"/><path fill="none" stroke="#000" stroke-width="3" d="M84.1 305.653l13.959 8.376m-46.765-73.288v13.96m26.524 27.57v13.959m22.684-54.792v13.96m24.43 1.745v13.96m.385 10.846v16.049m-24-31.049v16.049m-23.75-29.299v16.049m-48.608 12.523v13.959m26.174-55.489v13.96"/><circle cx="29.255" cy="274.369" r="8.25"/><circle cx="53.335" cy="233.886" r="8.251" fill="#ed1f24"/><circle cx="78.114" cy="302.289" r="8.25" fill="#ed1f24"/><circle cx="100.798" cy="233.537" r="8.251" fill="#ed1f24"/><circle cx="52.986" cy="261.107" r="8.25"/><circle cx="77.416" cy="274.02" r="8.251"/><circle cx="100.798" cy="260.758" r="8.25"/><circle cx="125.228" cy="274.02" r="8.25"/><path fill="none" stroke="#000" stroke-width="3" d="M34.543 270.754l13.959-6.631m59.041-34.869l13.959-6.631m-62.53 41.5l13.96 8.376m9.772-2.094l15.006-8.027m31.759 9.074l15.006-8.027m-38.389-.349l14.658 9.074"/><circle cx="29.255" cy="302.637" r="8.25" fill="#ed1f24"/><path fill="none" stroke="#000" stroke-width="3" d="M166.433 253.463l-12.464 5.469m11.823-29.422l4.436 11.186m24.739 1.662l-20.547 7.597"/><circle cx="199.389" cy="241.164" r="8.251" fill="#ed1f24"/><circle cx="163.04" cy="223.933" r="8.25" fill="#ed1f24"/><path fill="none" stroke="#000" stroke-width="3" d="M183.278 269.811l-5.095-10.902"/><circle cx="185.448" cy="275.639" r="8.25" fill="#ed1f24"/><circle cx="149.358" cy="260.894" r="8.25" fill="#ed1f24"/><circle cx="174.421" cy="249.955" r="11.167" fill="#d0158d"/><circle cx="100.849" cy="315.079" r="4.886" fill="#fff" stroke="#000"/><circle cx="125.627" cy="220.502" r="4.886" fill="#fff" stroke="#000"/><path fill="none" stroke="#000" stroke-width="3" d="M9 262.259l13.96 8.376"/><circle cx="5.386" cy="259.789" r="4.886" fill="#fff" stroke="#000"/><circle cx="77.466" cy="250.515" r="4.886" fill="#fff" stroke="#000"/><circle cx="101.198" cy="283.32" r="4.886" fill="#fff" stroke="#000"/><circle cx="125.352" cy="301.523" r="4.886" fill="#fff" stroke="#000"/><circle cx="124.929" cy="253.308" r="4.886" fill="#fff" stroke="#000"/><path fill="none" stroke="#000" stroke-width="3" d="M28.932 257.143v13.96"/><circle cx="28.929" cy="253.308" r="4.886" fill="#fff" stroke="#000"/><path fill="none" stroke="#000" d="M215.445 247.563a3.333 3.333 0 11-6.666 0 3.333 3.333 0 016.666 0m-5.238 0h3.809"/><path fill="none" stroke="#3c57a7" stroke-width="9" d="M518.343 206.834l5.87-11.182 1.529 22.174-19.967-9.764z"/><path d="M556.832 385.036l12.242-3.104-15.479 15.95-6.074-21.379zm-160.254 190.67l8.517 9.324-21.369-6.108 15.973-15.453zM70.424 326.547l-12.067 3.728 14.638-16.724 7.165 21.038zm2.03 55.001l-9.88 7.868 7.54-20.908 14.336 16.983zM699.437 77.019l-10.952 6.288 10.606-19.533 11.612 18.951zM87.908 436.865l-8.164 9.635 3.336-21.973 17.362 13.875zm24.916 46.826l-6.009 11.108-1.251-22.191 19.843 10.012zm41.497 45.727l-3.02 12.263-6.797-21.16 21.725 4.694zm27.609-391.22l-10.851-6.463 22.223-.332-10.823 19.411z"/><use width="79.63" height="49.98" x="-39.814" y="-24.99" overflow="visible" transform="matrix(1 0 0 -1 621.415 333.53)" xlink:href="#d"/><use width="79.63" height="49.98" x="-39.814" y="-24.99" overflow="visible" transform="matrix(1 0 0 -1 77.845 150.571)" xlink:href="#d"/><use width="70.327" height="43.91" x="-35.163" y="-21.955" overflow="visible" transform="matrix(1 0 0 -1 675.42 455.956)" xlink:href="#e"/><use width="70.327" height="43.91" x="-35.163" y="-21.955" overflow="visible" transform="matrix(1 0 0 -1 189.088 21.955)" xlink:href="#e"/><use width="79.63" height="49.98" x="-39.815" y="-24.99" overflow="visible" transform="matrix(1 0 0 -1 517.59 573.955)" xlink:href="#f"/><use width="70.327" height="43.911" x="-35.163" y="-21.956" overflow="visible" transform="matrix(1 0 0 -1 399.45 678.046)" xlink:href="#g"/><path fill="none" stroke="#000" stroke-width="5" d="M587.078 346.915c-16.202 5-28.315 19.319-30.08 36.698m-66.747 177.326c-12.389-11.577-30.833-14.977-46.792-7.874m-337.597-388.93c14.993 7.922 33.683 6.362 47.22-4.68"/><path d="M203.445 53.554l-8.155 9.644 3.319-21.977 17.371 13.861z"/><path fill="none" stroke="#000" stroke-width="5" d="M203.378 52.904c6.211 21.762 2.207 44.02-9.168 61.651"/><path d="M637.238 443.035l-2.396-12.402 15.034 16.372-21.691 4.834z"/><path fill="none" stroke="#000" stroke-width="5" d="M637.787 443.39c-20.844-8.813-35.666-25.895-42.262-45.813"/><path d="M614.278 247.751l-8.084-9.704 21.07 7.082-16.664 14.704z"/><path fill="none" stroke="#000" stroke-width="5" d="M614.93 247.798c-22.509 2.342-43.734-5.463-59.125-19.725"/><path d="M351.342 646.369l11.399-5.441-12.06 18.672-10.139-19.776z"/><path fill="none" stroke="#000" stroke-width="5" d="M351.136 646.99c3.282-22.392 16.081-41.036 33.698-52.435"/><circle cx="360.483" cy="667.302" r="3.333" fill="none" stroke="#000"/><path fill="none" stroke="#000" d="M358.578 667.302h3.81"/><circle cx="294.109" cy="709.068" r="3.333" fill="none" stroke="#000"/><path fill="none" stroke="#000" d="M292.205 709.068h3.809"/><path fill="none" stroke="#000" stroke-width="3" d="M318.129 689.872l-12.464 5.468m11.822-29.422l4.437 11.186m24.74 1.662l-20.547 7.597"/><circle cx="351.084" cy="677.572" r="8.251" fill="#ed1f24"/><circle cx="314.736" cy="660.341" r="8.25" fill="#ed1f24"/><path fill="none" stroke="#000" stroke-width="3" d="M334.974 706.219l-5.096-10.902"/><circle cx="337.144" cy="712.047" r="8.25" fill="#ed1f24"/><circle cx="301.054" cy="697.302" r="8.25" fill="#ed1f24"/><circle cx="326.117" cy="686.363" r="11.168" fill="#d0158d"/><path fill="#fff" stroke="#000" d="M262.637 256.065h102.019v60.476H262.637zm53.485 155.274l51.01-88.35 52.373 30.238-51.009 88.35z" opacity=".5"/><path fill="none" stroke="#000" stroke-width="5" d="M699.494 139.559V76.562"/><text x="638.505" y="165.097" font-family="Sans" font-size="40" font-weight="400" letter-spacing="0" word-spacing="0" style="line-height:125%"><tspan x="638.505" y="165.097" font-family="Microsoft YaHei" font-size="20" style="-inkscape-font-specification:Microsoft YaHei">3-磷酸甘油酸</tspan></text><text x="410.615" y="241.698" font-family="Sans" font-size="40" font-weight="400" letter-spacing="0" word-spacing="0" style="line-height:125%"><tspan x="410.615" y="241.698" font-family="Microsoft YaHei" font-size="20" style="-inkscape-font-specification:Microsoft YaHei">3-磷酸甘油酸</tspan></text><text x="338.195" y="182.007" fill="#3c57a7" font-family="Sans" font-size="40" font-weight="400" letter-spacing="0" word-spacing="0" style="line-height:125%"><tspan x="338.195" y="182.007" font-family="Microsoft YaHei" font-size="20" style="-inkscape-font-specification:Microsoft YaHei">1,5-二磷酸核酮</tspan><tspan x="338.195" y="207.007" font-family="Microsoft YaHei" font-size="20" style="-inkscape-font-specification:Microsoft YaHei">糖羧化酶/加氧酶</tspan></text><text x="232.052" y="45.549" font-family="Sans" font-size="40" font-weight="400" letter-spacing="0" word-spacing="0" style="line-height:125%"><tspan x="232.052" y="45.549" font-family="Microsoft YaHei" font-size="20" style="-inkscape-font-specification:Microsoft YaHei">核酮糖-1,5-二磷酸</tspan></text><text x="511.395" y="81.397" font-family="Sans" font-size="40" font-weight="400" letter-spacing="0" word-spacing="0" style="line-height:125%"><tspan x="511.395" y="81.397" font-family="Microsoft YaHei" font-size="20" style="-inkscape-font-specification:Microsoft YaHei">二氧化碳</tspan></text><text x="637.23" y="55.018" font-family="Sans" font-size="40" font-weight="400" letter-spacing="0" word-spacing="0" style="line-height:125%"><tspan x="637.23" y="55.018" font-family="Microsoft YaHei" font-size="20" style="-inkscape-font-specification:Microsoft YaHei">中央代谢途径</tspan></text><text x="-174.345" y="506.184" font-family="Sans" font-size="40" font-weight="400" letter-spacing="0" transform="rotate(-59.509)" word-spacing="0" style="text-align:start;line-height:125%"><tspan x="-174.345" y="506.184" font-family="Microsoft YaHei" font-size="16" font-weight="700" style="text-align:start;-inkscape-font-specification:Microsoft YaHei Bold">第二阶段</tspan><tspan x="-174.345" y="526.184" font-family="Microsoft YaHei" font-size="16" style="text-align:start;-inkscape-font-specification:Microsoft YaHei">：还原</tspan></text><text x="267.111" y="283.376" font-family="Sans" font-size="40" font-weight="400" letter-spacing="0" word-spacing="0" style="text-align:start;line-height:125%"><tspan x="267.111" y="283.376" font-family="Microsoft YaHei" font-size="16" font-weight="700" style="text-align:start;-inkscape-font-specification:Microsoft YaHei Bold">第一阶段：</tspan><tspan x="267.111" y="303.376" font-family="Microsoft YaHei" font-size="16" style="text-align:start;-inkscape-font-specification:Microsoft YaHei">二氧化碳固定</tspan></text><text x="424.769" y="-31.624" font-family="Sans" font-size="40" font-weight="400" letter-spacing="0" transform="rotate(59.187)" word-spacing="0" style="text-align:start;line-height:125%"><tspan x="424.769" y="-31.624" font-family="Microsoft YaHei" font-size="16" font-weight="700" style="text-align:start;-inkscape-font-specification:Microsoft YaHei Bold">第三阶段：</tspan><tspan x="424.769" y="-11.624" font-family="Microsoft YaHei" font-size="16" style="text-align:start;-inkscape-font-specification:Microsoft YaHei">核酮糖再生</tspan></text><text x="485.693" y="521.041" font-family="Sans" font-size="40" font-weight="400" letter-spacing="0" word-spacing="0" style="line-height:125%"><tspan x="485.693" y="521.041" font-family="Microsoft YaHei" font-size="20" style="-inkscape-font-specification:Microsoft YaHei">1,3-二磷酸甘油酸</tspan></text><text x="248.781" y="519.012" font-family="Sans" font-size="40" font-weight="400" letter-spacing="0" word-spacing="0" style="line-height:125%"><tspan x="248.781" y="519.012" font-family="Microsoft YaHei" font-size="20" style="-inkscape-font-specification:Microsoft YaHei">甘油醛-3-磷酸</tspan></text><text x="32.573" y="212.025" font-family="Sans" font-size="40" font-weight="400" letter-spacing="0" word-spacing="0" style="line-height:125%"><tspan x="32.573" y="212.025" font-family="Microsoft YaHei" font-size="20" style="-inkscape-font-specification:Microsoft YaHei">核酮糖-5-磷酸</tspan></text><text x="290.155" y="743.597" font-family="Sans" font-size="40" font-weight="400" letter-spacing="0" word-spacing="0" style="line-height:125%"><tspan x="290.155" y="743.597" font-family="Microsoft YaHei" font-size="20" style="-inkscape-font-specification:Microsoft YaHei">无机磷酸</tspan></text></svg>