<svg stroke="#000" stroke-linecap="square" stroke-miterlimit="10" color-interpolation="auto" font-family="'Dialog'" font-size="12" viewBox="0 0 805 445"><defs><clipPath id="a" clipPathUnits="userSpaceOnUse"><path d="M0 0h805v445H0z"/></clipPath><clipPath id="b" clipPathUnits="userSpaceOnUse"><path d="M-282.398-278.045h805v445h-805z"/></clipPath><clipPath id="c" clipPathUnits="userSpaceOnUse"><path d="M-343.662-171.935h805v445h-805z"/></clipPath><clipPath id="d" clipPathUnits="userSpaceOnUse"><path d="M-404.925-278.045h805v445h-805z"/></clipPath><clipPath id="e" clipPathUnits="userSpaceOnUse"><path d="M-221.134-384.154h805v445h-805z"/></clipPath><clipPath id="f" clipPathUnits="userSpaceOnUse"><path d="M-7.321-348.783h805v445h-805z"/></clipPath><clipPath id="g" clipPathUnits="userSpaceOnUse"><path d="M-341.155-30.45h805v445h-805z"/></clipPath><clipPath id="h" clipPathUnits="userSpaceOnUse"><path d="M-542.849-118.407h805v445h-805z"/></clipPath><clipPath id="i" clipPathUnits="userSpaceOnUse"><path d="M-724.616-123.16h805v445h-805z"/></clipPath><clipPath id="j" clipPathUnits="userSpaceOnUse"><path d="M-402.417-348.788h805v445h-805z"/></clipPath><clipPath id="k" clipPathUnits="userSpaceOnUse"><path d="M-700.146-3.31h805v445h-805z"/></clipPath></defs><path stroke="none" d="M176.509 235.226l-61.263 35.37a1.24 1.24 0 101.24 2.15l61.263-35.372a1.24 1.24 0 10-1.24-2.148" clip-path="url(#a)" text-rendering="geometricPrecision"/><path stroke="none" d="M114.625 271.671v70.743a1.24 1.24 0 102.481 0V271.67a1.24 1.24 0 10-2.48 0" clip-path="url(#a)" text-rendering="geometricPrecision"/><path stroke="none" d="M115.246 343.488l61.263 35.371a1.24 1.24 0 101.24-2.149l-61.263-35.37a1.24 1.24 0 10-1.24 2.148" clip-path="url(#a)" text-rendering="geometricPrecision"/><path stroke="none" d="M177.749 378.859l61.263-35.371a1.24 1.24 0 10-1.24-2.149l-61.263 35.371a1.24 1.24 0 101.24 2.149" clip-path="url(#a)" text-rendering="geometricPrecision"/><path stroke="none" d="M239.632 342.414V271.67a1.24 1.24 0 10-2.48 0v70.743a1.24 1.24 0 102.48 0" clip-path="url(#a)" text-rendering="geometricPrecision"/><path stroke="none" d="M176.509 237.374l61.262 35.371a1.24 1.24 0 101.24-2.148l-61.262-35.371a1.24 1.24 0 10-1.24 2.148M300.276 378.86l61.264-35.37a1.24 1.24 0 10-1.24-2.148l-61.264 35.37a1.24 1.24 0 101.24 2.148" clip-path="url(#a)" text-rendering="geometricPrecision"/><path stroke="none" d="M362.16 342.417v-70.741a1.24 1.24 0 10-2.48 0v70.74a1.24 1.24 0 102.48 0" clip-path="url(#a)" text-rendering="geometricPrecision"/><path stroke="none" d="M361.54 270.601l-61.264-35.372a1.24 1.24 0 10-1.24 2.15L360.3 272.75a1.24 1.24 0 101.24-2.149m-123.769 72.887l61.265 35.372a1.24 1.24 0 101.24-2.149l-61.264-35.372a1.24 1.24 0 10-1.24 2.149" clip-path="url(#a)" text-rendering="geometricPrecision"/><path stroke="none" d="M239.012 272.745l61.264-35.367a1.24 1.24 0 10-1.24-2.149l-61.265 35.368a1.24 1.24 0 101.24 2.148m61.267-106.108l61.262-35.372a1.24 1.24 0 10-1.24-2.148l-61.263 35.37a1.24 1.24 0 101.24 2.15" clip-path="url(#a)" text-rendering="geometricPrecision"/><path stroke="none" d="M360.3 131.265l61.263 35.372a1.24 1.24 0 101.24-2.15l-61.262-35.37a1.24 1.24 0 10-1.241 2.148" clip-path="url(#a)" text-rendering="geometricPrecision"/><path stroke="none" d="M420.943 165.562v70.742a1.24 1.24 0 102.48 0v-70.742a1.24 1.24 0 10-2.48 0" clip-path="url(#a)" text-rendering="geometricPrecision"/><path stroke="none" d="M361.54 272.75l61.263-35.371a1.24 1.24 0 10-1.24-2.149L360.3 270.601a1.24 1.24 0 101.24 2.15m-60.643-36.447v-70.742a1.24 1.24 0 10-2.48 0l-.002 70.742a1.24 1.24 0 102.481 0m189.565 22.588l41.582-57.23a1.24 1.24 0 10-2.007-1.458l-41.582 57.23a1.24 1.24 0 102.007 1.458" clip-path="url(#a)" text-rendering="geometricPrecision"/><path stroke="none" d="M532.043 200.204l-41.577-57.228a1.24 1.24 0 10-2.007 1.458l41.577 57.229a1.24 1.24 0 102.007-1.459" clip-path="url(#a)" text-rendering="geometricPrecision"/><path stroke="none" d="M422.566 166.742l67.28-21.857a1.24 1.24 0 10-.767-2.36l-67.28 21.857a1.24 1.24 0 10.767 2.36m-.766 70.742l67.274 21.86a1.24 1.24 0 10.767-2.36l-67.274-21.86a1.24 1.24 0 10-.767 2.36m-118.912 12.902l-.35-2.482h-5.763l-.351 2.482zm2.106 14.886l-.351-2.481h-9.974l-.35 2.481zm2.105 14.887l-.35-2.481h-14.185l-.351 2.48zm53.821-8.483h1.24l6.203-43.855h-14.886l6.203 43.855z" clip-path="url(#a)" text-rendering="geometricPrecision"/><path stroke="none" d="M422.183 165.562h1.24l6.203-70.74H414.74l6.203 70.74zm3.232 84.824l-.35-2.48h-5.763l-.351 2.48zm2.106 14.887l-.351-2.481h-9.974l-.35 2.48zm2.105 14.886l-.35-2.48H415.09l-.351 2.48zm-191.234-8.488h1.24l6.203-70.74h-14.887l6.203 70.74zm0 70.743h-1.24l-6.204 43.854h14.887l-6.203-43.854zm-129.864 7.482l1.956-1.575-2.426-4.2-2.341.906zm-11.734 9.449l1.955-1.575-4.74-8.212-2.343.906zm-11.734 9.449l1.955-1.575-7.057-12.224-2.342.907 3.722 6.446zm272.732-251.626l.36 2.48h5.537l.36-2.48zm-2.157-14.887l.36 2.481h9.851l.36-2.48zm-2.158-14.886l.36 2.48h14.167l.36-2.48zm137.165 56.693l21.863-67.277a1.24 1.24 0 10-2.36-.767l-21.862 67.278a1.24 1.24 0 102.36.766m11.54-74.493l1.822 1.698 2.98-2.683-1.499-1.99zm-10.93-10.19l1.821 1.698 4.92-4.43-1.499-1.989zm-10.931-10.19l1.822 1.698 6.86-6.176-1.5-1.99zm-10.931-10.19l1.822 1.698 8.8-7.922-1.499-1.99zm-10.93-10.19l1.821 1.698 10.74-9.669-1.498-1.99-5.532 4.98z" clip-path="url(#a)" text-rendering="geometricPrecision"/><path stroke="none" d="M511.583 77.64l69.195-14.705a1.24 1.24 0 10-.515-2.427l-69.196 14.706a1.24 1.24 0 10.516 2.427m-15.069 64.355l-2.493.167-.186 3.551 2.462.428zm14.96-1.008l-2.493.168-.374 7.124 2.462.428zm14.96-1.007l-2.494.168-.56 10.697 2.462.428zm14.96-1.008l-2.494.168-.748 14.27 2.462.428.39-7.433z" clip-path="url(#a)" text-rendering="geometricPrecision"/><path stroke="none" d="M579.599 62.552l47.333 52.572a1.24 1.24 0 101.843-1.66l-47.333-52.572a1.24 1.24 0 10-1.844 1.66" clip-path="url(#a)" text-rendering="geometricPrecision"/><path stroke="none" d="M628.112 115.507l69.195-14.705a1.24 1.24 0 10-.516-2.427l-69.195 14.705a1.24 1.24 0 10.515 2.427" clip-path="url(#a)" text-rendering="geometricPrecision"/><path stroke="none" d="M696.127 100.418l29 32.21a1.24 1.24 0 101.844-1.66l-29-32.21a1.24 1.24 0 10-1.844 1.66m-334.35 241.02l-.236-.096-.62 1.075-.621 1.074.201.156zm13.92 5.663l-2.32-.944-2.99 5.177 1.978 1.537zm13.92 5.663l-2.32-.944-5.045 8.738 1.977 1.537zm13.92 5.663l-2.32-.944-7.101 12.299 1.977 1.537 3.722-6.446z" clip-path="url(#a)" text-rendering="geometricPrecision"/><path stroke="none" d="M688.606 100.749a1.24 1.24 0 102.36.766l14.25-43.854a1.24 1.24 0 10-2.36-.766zm12.232 3.975a1.24 1.24 0 102.36.766l14.25-43.854a1.24 1.24 0 10-2.36-.766z" clip-path="url(#a)" text-rendering="geometricPrecision"/><text y="48" stroke="none" clip-path="url(#b)" font-family="'Arial'" font-size="49" text-rendering="geometricPrecision" transform="translate(282.398 278.045)">H</text><text y="48" stroke="none" clip-path="url(#c)" font-family="'Arial'" font-size="49" text-rendering="geometricPrecision" transform="translate(343.662 171.935)">H</text><text y="48" stroke="none" clip-path="url(#d)" font-family="'Arial'" font-size="49" text-rendering="geometricPrecision" transform="translate(404.925 278.045)">H</text><text y="48" stroke="none" clip-path="url(#e)" font-family="'Arial'" font-size="49" text-rendering="geometricPrecision" transform="translate(221.134 384.154)">H</text><text y="48" stroke="none" clip-path="url(#f)" font-family="'Arial'" font-size="49" text-rendering="geometricPrecision" transform="translate(7.321 348.784)">HO</text><text y="48" stroke="none" clip-path="url(#g)" font-family="'Arial'" font-size="49" text-rendering="geometricPrecision" transform="translate(341.155 30.45)">OH</text><text y="48" stroke="none" clip-path="url(#h)" font-family="'Arial'" font-size="49" text-rendering="geometricPrecision" transform="translate(542.849 118.407)">H</text><text y="48" stroke="none" clip-path="url(#i)" font-family="'Arial'" font-size="49" text-rendering="geometricPrecision" transform="translate(724.616 123.16)">OH</text><text y="48" stroke="none" clip-path="url(#j)" font-family="'Arial'" font-size="49" text-rendering="geometricPrecision" transform="translate(402.418 348.788)">OH</text><text y="48" stroke="none" clip-path="url(#k)" font-family="'Arial'" font-size="49" text-rendering="geometricPrecision" transform="translate(700.146 3.31)">O</text></svg>