<svg viewBox="0 0 360.63 293.23"><path d="M37.562 7.344c-2.301 0-4.17.749-5.625 2.281S29.75 13.291 29.75 16a9.2 9.2 0 00.937 4.063c.625 1.284 1.54 2.32 2.75 3.062s2.588 1.094 4.125 1.094c1.419 0 2.744-.329 3.97-1s2.143-1.662 2.812-2.969q1.001-1.958 1-4.437c0-1.633-.303-3.087-.938-4.376-.635-1.288-1.57-2.31-2.781-3.03s-2.555-1.063-4.063-1.063m216.594 0c-2.3 0-4.17.749-5.625 2.281s-2.187 3.666-2.187 6.375c0 1.433.313 2.778.937 4.063s1.54 2.32 2.75 3.062 2.59 1.094 4.125 1.094a8.1 8.1 0 003.969-1c1.225-.672 2.176-1.662 2.844-2.969q1.001-1.958 1-4.437c0-1.633-.334-3.087-.969-4.376-.635-1.288-1.54-2.31-2.75-3.03s-2.585-1.063-4.094-1.063M96.47 7.625v16.313h2.156V16.25h8.437v7.688h2.188V7.625h-2.188v6.688h-8.437V7.625zm216.593 0v16.313h2.157V16.25h8.468v7.688h2.157V7.625h-2.157v6.688h-8.468V7.625zm-275.5 1.563c1.077 0 2.073.267 2.938.812s1.52 1.322 1.969 2.313.656 2.14.656 3.468c0 2.1-.512 3.732-1.563 4.875s-2.404 1.719-4.03 1.719c-1.597 0-2.911-.586-3.97-1.719s-1.593-2.658-1.593-4.625c0-2.455.553-4.231 1.656-5.281s2.408-1.562 3.937-1.562m216.625 0c1.078 0 2.042.267 2.907.812s1.52 1.322 1.968 2.313.657 2.14.657 3.468c0 2.1-.513 3.732-1.563 4.875-1.052 1.143-2.404 1.719-4.031 1.719-1.595 0-2.911-.587-3.969-1.719-1.059-1.132-1.594-2.658-1.594-4.625 0-2.455.552-4.23 1.657-5.281 1.102-1.05 2.44-1.562 3.968-1.562M48.594 17.156l-.813 1.375 23.594 13.625-2.031 1.188v2.281L45.78 22.031 45 23.406 69.344 37.5v33.188H41v1.593h28.344v36.125H42.406V110h26.938v36.063H41v1.625h28.344v36.093H41v1.625h28.344V212.5h1.625v-27.094h26.875v-1.625H70.969v-36.094h26.875v-1.625H70.969V110h28.406v-1.594H70.969V72.281h26.875v-1.594H70.969V34.25L93.53 21.219l-.812-1.375L73 31.219zm216.593 0l-.812 1.375 23.594 13.625-2.032 1.188v2.281l-23.53-13.594-.813 1.375L285.937 37.5v33.188h-26.906v1.593h26.906v36.125h-28.343V110h28.343v36.063h-26.906v1.625h26.906v36.093h-26.906v1.625h26.906V212.5h1.625v-27.094h28.407v-1.625h-28.407v-36.094h28.407v-1.625h-28.407V110h26.875v-1.594h-26.875V72.281h28.407v-1.594h-28.407V34.25l22.563-13.031-.813-1.375-19.687 11.375zM107.875 63.844c-2.302 0-4.2.78-5.656 2.312-1.456 1.534-2.188 3.666-2.188 6.375 0 1.433.314 2.778.938 4.063a7.14 7.14 0 002.75 3.031c1.21.742 2.588 1.125 4.125 1.125a8.1 8.1 0 003.968-1q1.84-1.008 2.844-2.969c.668-1.306 1-2.782 1-4.437 0-1.632-.303-3.118-.937-4.406-.636-1.289-1.571-2.28-2.782-3s-2.554-1.094-4.062-1.094m141.281 0c-2.302 0-4.17.78-5.625 2.312-1.455 1.534-2.187 3.666-2.187 6.375 0 1.433.313 2.778.937 4.063s1.54 2.29 2.75 3.031 2.588 1.125 4.125 1.125a8.1 8.1 0 003.969-1c1.225-.672 2.144-1.662 2.812-2.969s1.032-2.782 1.032-4.437c0-1.632-.334-3.118-.969-4.406-.636-1.289-1.54-2.28-2.75-3s-2.586-1.094-4.094-1.094m-223.031.281v16.344h2.156V72.78h8.438v7.688h2.187V64.125H36.72v6.719h-8.44v-6.719zm92.406 0v16.344h2.156V72.78h8.438v7.688h2.187V64.125h-2.187v6.719h-8.438v-6.719zm107.094 0v16.344h2.156V72.78h8.438v7.688h2.187V64.125h-2.187v6.719h-8.438v-6.719zm92.469 0v16.344h2.156V72.78h8.469v7.688h2.156V64.125h-2.156v6.719h-8.469v-6.719zm-210.219 1.594c1.076 0 2.04.267 2.906.812.866.546 1.52 1.322 1.969 2.313.45.99.687 2.14.687 3.469 0 2.1-.543 3.732-1.593 4.874-1.052 1.143-2.374 1.72-4 1.72-1.596 0-2.942-.587-4-1.72s-1.563-2.69-1.563-4.656c0-2.456.554-4.2 1.656-5.25 1.103-1.05 2.408-1.562 3.938-1.562m141.281 0c1.077 0 2.073.267 2.938.812s1.518 1.322 1.968 2.313c.45.99.657 2.14.657 3.469 0 2.1-.511 3.732-1.563 4.874-1.051 1.143-2.405 1.72-4.031 1.72-1.596 0-2.91-.587-3.969-1.72s-1.594-2.69-1.594-4.656c0-2.456.554-4.2 1.657-5.25s2.408-1.562 3.937-1.562M32.562 101.563c-2.301 0-4.17.78-5.625 2.312-1.455 1.533-2.187 3.634-2.187 6.344 0 1.432.313 2.81.937 4.094s1.54 2.289 2.75 3.03 2.588 1.126 4.125 1.126c1.419 0 2.712-.329 3.938-1s2.175-1.662 2.844-2.969c.668-1.306 1-2.814 1-4.469 0-1.632-.303-3.087-.938-4.375s-1.57-2.28-2.781-3-2.555-1.094-4.063-1.094m291.907 0c-2.301 0-4.202.78-5.657 2.312-1.456 1.533-2.156 3.634-2.156 6.344 0 1.432.314 2.81.938 4.094.625 1.284 1.54 2.289 2.75 3.03s2.557 1.126 4.093 1.126a8.1 8.1 0 003.97-1q1.84-1.008 2.843-2.969c.668-1.306 1-2.814 1-4.469 0-1.632-.303-3.087-.938-4.375a7.05 7.05 0 00-2.78-3c-1.21-.72-2.555-1.094-4.063-1.094m-315.438.28v16.344h2.156V110.5h8.438v7.688h2.156v-16.344h-2.156v6.719h-8.438v-6.72zm92.469 0v16.344h2.156V110.5h8.469v7.688h2.156v-16.344h-2.156v6.719h-8.469v-6.72zm141.219 0v16.344h2.156V110.5h8.469v7.688h2.156v-16.344h-2.156v6.719h-8.469v-6.72zm92.406 0v16.344h2.156V110.5h8.438v7.688h2.187v-16.344h-2.187v6.719h-8.438v-6.72zM32 103.438c.185-.016.371 0 .562 0 1.077 0 2.041.268 2.907.813s1.55 1.322 2 2.313.656 2.14.656 3.468c0 2.1-.512 3.732-1.563 4.875s-2.404 1.688-4.03 1.688c-1.597 0-2.911-.555-3.97-1.688s-1.593-2.69-1.593-4.656c0-2.457.553-4.2 1.656-5.25.965-.919 2.083-1.448 3.375-1.562m291.906 0c.185-.016.372 0 .563 0 1.077 0 2.041.268 2.906.813s1.52 1.322 1.969 2.313c.45.99.687 2.14.687 3.468 0 2.1-.513 3.732-1.562 4.875-1.053 1.143-2.404 1.688-4.032 1.688-1.595 0-2.91-.556-3.968-1.688-1.06-1.132-1.594-2.69-1.594-4.656 0-2.457.551-4.2 1.656-5.25.964-.919 2.084-1.448 3.375-1.562m-216.031 35.81c-2.302 0-4.2.749-5.656 2.281-1.456 1.534-2.188 3.666-2.188 6.375 0 1.433.314 2.777.938 4.063.624 1.284 1.54 2.32 2.75 3.062s2.588 1.094 4.125 1.094a8.1 8.1 0 003.968-1q1.84-1.008 2.844-2.969c.668-1.306 1-2.782 1-4.437 0-1.632-.303-3.087-.937-4.375-.636-1.288-1.571-2.311-2.782-3.031s-2.554-1.063-4.062-1.063m141.281 0c-2.302 0-4.17.749-5.625 2.281-1.455 1.534-2.187 3.666-2.187 6.375a9.16 9.16 0 00.937 4.063c.624 1.284 1.54 2.32 2.75 3.062s2.588 1.094 4.125 1.094a8.1 8.1 0 003.969-1c1.225-.672 2.144-1.662 2.812-2.969s1.032-2.782 1.032-4.437c0-1.632-.334-3.087-.969-4.375-.636-1.288-1.54-2.311-2.75-3.031s-2.586-1.063-4.094-1.063m-223.031.281v16.313h2.156v-7.688h8.438v7.688h2.187V139.53H36.72v6.688h-8.44v-6.688zm92.406 0v16.313h2.156v-7.688h8.438v7.688h2.187V139.53h-2.187v6.688h-8.438v-6.688zm107.094 0v16.313h2.156v-7.688h8.438v7.688h2.187V139.53h-2.187v6.688h-8.438v-6.688zm92.469 0v16.313h2.156v-7.688h8.469v7.688h2.156V139.53h-2.156v6.688h-8.469v-6.688zm-210.219 1.563c1.076 0 2.04.267 2.906.812.866.546 1.52 1.322 1.969 2.313.45.99.687 2.14.687 3.469 0 2.1-.543 3.732-1.593 4.875-1.052 1.142-2.374 1.718-4 1.718-1.596 0-2.942-.586-4-1.719s-1.563-2.658-1.563-4.625c0-2.456.554-4.231 1.656-5.28 1.103-1.05 2.408-1.563 3.938-1.563m141.281 0c1.077 0 2.073.267 2.938.812s1.518 1.322 1.968 2.313c.45.99.657 2.14.657 3.469 0 2.1-.511 3.732-1.563 4.875-1.051 1.142-2.405 1.718-4.031 1.718-1.596 0-2.91-.586-3.969-1.719s-1.594-2.658-1.594-4.625c0-2.456.554-4.231 1.657-5.28s2.408-1.563 3.937-1.563m-141.281 35.875c-2.302 0-4.2.749-5.656 2.281s-2.188 3.666-2.188 6.375c0 1.433.314 2.777.938 4.063a7.14 7.14 0 002.75 3.03c1.21.743 2.588 1.126 4.125 1.126a8.1 8.1 0 003.968-1q1.84-1.008 2.844-2.969 1.001-1.957 1-4.437c0-1.633-.303-3.119-.937-4.407-.636-1.288-1.571-2.28-2.782-3s-2.554-1.062-4.062-1.062m141.281 0c-2.302 0-4.17.749-5.625 2.281s-2.187 3.666-2.187 6.375a9.16 9.16 0 00.937 4.063c.624 1.284 1.54 2.289 2.75 3.03s2.588 1.126 4.125 1.126a8.1 8.1 0 003.969-1c1.225-.672 2.144-1.662 2.812-2.969s1.032-2.783 1.032-4.437c0-1.633-.334-3.119-.969-4.407-.636-1.288-1.54-2.28-2.75-3s-2.586-1.062-4.094-1.062m-223.031.281v16.313h2.156v-7.688h8.438v7.688h2.187V177.25H36.72v6.688h-8.44v-6.688zm92.406 0v16.313h2.156v-7.688h8.438v7.688h2.187V177.25h-2.187v6.688h-8.438v-6.688zm107.094 0v16.313h2.156v-7.688h8.438v7.688h2.187V177.25h-2.187v6.688h-8.438v-6.688zm92.469 0v16.313h2.156v-7.688h8.469v7.688h2.156V177.25h-2.156v6.688h-8.469v-6.688zm-210.219 1.563c1.076 0 2.04.267 2.906.812s1.52 1.322 1.969 2.313c.45.99.687 2.14.687 3.468 0 2.1-.543 3.732-1.593 4.875-1.052 1.143-2.374 1.719-4 1.719-1.596 0-2.942-.586-4-1.719s-1.563-2.658-1.563-4.625c0-2.456.554-4.231 1.656-5.281 1.103-1.05 2.408-1.562 3.938-1.562m141.281 0c1.077 0 2.073.267 2.938.812s1.518 1.322 1.968 2.313c.45.99.657 2.14.657 3.468 0 2.1-.511 3.732-1.563 4.875-1.051 1.143-2.405 1.719-4.031 1.719-1.596 0-2.91-.586-3.969-1.719s-1.594-2.658-1.594-4.625c0-2.456.554-4.231 1.657-5.281s2.408-1.562 3.937-1.562M70.812 214.656a8.03 8.03 0 00-3.937 1 6.67 6.67 0 00-2.781 2.875c-.65 1.267-.969 2.768-.969 4.469 0 1.56.3 3.016.875 4.375s1.399 2.408 2.5 3.125 2.524 1.063 4.281 1.063c1.698 0 3.138-.474 4.313-1.407q1.76-1.398 2.437-4.062l-2.156-.531c-.296 1.372-.85 2.395-1.688 3.093s-1.855 1.063-3.062 1.063c-.993 0-1.93-.27-2.781-.781s-1.472-1.277-1.875-2.313-.594-2.268-.594-3.656c0-1.077.159-2.112.5-3.125s.94-1.805 1.781-2.406c.842-.602 1.873-.907 3.125-.907 1.089 0 2 .271 2.719.813s1.278 1.406 1.656 2.594l2.094-.5c-.437-1.51-1.2-2.699-2.313-3.532-1.111-.832-2.493-1.25-4.125-1.25m40.75 0c-2.301 0-4.17.78-5.625 2.313s-2.187 3.665-2.187 6.375c0 1.432.313 2.778.937 4.062s1.54 2.29 2.75 3.031 2.588 1.125 4.125 1.125c1.419 0 2.744-.328 3.97-1s2.174-1.661 2.843-2.968q1.001-1.957 1-4.438c0-1.632-.334-3.118-.969-4.406s-1.54-2.28-2.75-3-2.586-1.094-4.094-1.094m175.875 0a8.15 8.15 0 00-3.968 1c-1.198.658-2.102 1.608-2.75 2.875-.65 1.267-1 2.768-1 4.469 0 1.56.3 3.016.875 4.375s1.399 2.408 2.5 3.125 2.555 1.063 4.312 1.063c1.698 0 3.138-.474 4.313-1.407q1.76-1.398 2.437-4.062l-2.187-.531c-.296 1.372-.85 2.395-1.688 3.093s-1.855 1.063-3.062 1.063c-.992 0-1.93-.27-2.782-.781s-1.472-1.277-1.875-2.313c-.404-1.035-.593-2.268-.593-3.656 0-1.077.159-2.112.5-3.125s.94-1.805 1.781-2.406 1.873-.907 3.125-.907c1.089 0 2 .271 2.719.813.717.541 1.279 1.406 1.656 2.594l2.125-.5c-.437-1.51-1.231-2.699-2.344-3.532-1.111-.832-2.462-1.25-4.094-1.25m40.75 0c-2.301 0-4.2.78-5.656 2.313s-2.187 3.665-2.187 6.375c0 1.432.313 2.778.937 4.062s1.54 2.29 2.75 3.031 2.588 1.125 4.125 1.125a8.1 8.1 0 003.969-1q1.839-1.007 2.844-2.968 1.001-1.957 1-4.438c0-1.632-.303-3.118-.938-4.406s-1.572-2.28-2.781-3-2.555-1.094-4.063-1.094m-247.906.281v16.344h2.188v-7.687h8.437v7.687h2.156v-16.344h-2.156v6.72H82.47v-6.72zm41.938 0v16.344h2.187v-7.687h8.438v7.687H135v-16.344h-2.156v6.72h-8.438v-6.72zm174.687 0v16.344h2.156v-7.687h8.438v7.687h2.187v-16.344H307.5v6.72h-8.438v-6.72zm41.938 0v16.344H341v-7.687h8.437v7.687h2.157v-16.344h-2.157v6.72H341v-6.72zm-227.25 1.594c1.076 0 2.04.267 2.906.813.865.545 1.52 1.321 1.969 2.312s.687 2.14.687 3.469c0 2.1-.543 3.732-1.594 4.875s-2.373 1.719-4 1.719c-1.596 0-2.941-.587-4-1.719-1.058-1.132-1.593-2.69-1.593-4.656 0-2.456.553-4.2 1.656-5.25s2.44-1.563 3.969-1.563m216.593 0c1.077 0 2.042.267 2.907.813s1.518 1.321 1.968 2.312.688 2.14.688 3.469c0 2.1-.542 3.732-1.594 4.875-1.051 1.143-2.373 1.719-4 1.719-1.596 0-2.941-.587-4-1.719s-1.562-2.69-1.562-4.656c0-2.456.522-4.2 1.625-5.25s2.439-1.563 3.968-1.563m-229.53 6.719c-1.167 0-2.09.301-2.782.906s-1.113 1.502-1.219 2.656l1.563.157c.005-.77.22-1.378.656-1.813s1.022-.656 1.75-.656c.687 0 1.229.217 1.656.625.428.409.656.905.656 1.5 0 .569-.245 1.176-.718 1.813-.473.636-1.362 1.499-2.688 2.593-.855.7-1.513 1.31-1.969 1.844q-.686.8-1 1.625c-.129.335-.198.7-.187 1.063h8.125v-1.438h-6.031a5 5 0 01.656-.812c.257-.27.815-.806 1.719-1.563 1.079-.913 1.877-1.633 2.343-2.156q.7-.789 1-1.5c.3-.711.282-.947.282-1.438 0-.964-.346-1.754-1.032-2.406s-1.604-1-2.78-1m216.593 0c-1.166 0-2.089.301-2.781.906s-1.082 1.502-1.188 2.656l1.531.157c.006-.77.22-1.378.657-1.813.436-.436 1.022-.656 1.75-.656.688 0 1.26.217 1.687.625s.625.905.625 1.5c0 .569-.245 1.176-.719 1.813-.473.636-1.362 1.499-2.687 2.593-.855.7-1.512 1.31-1.969 1.844s-.792 1.074-1 1.625c-.128.335-.167.7-.156 1.063h8.094v-1.438h-6.032c.17-.273.4-.542.657-.812s.847-.806 1.75-1.563c1.079-.913 1.845-1.633 2.312-2.156q.699-.789 1-1.5c.2-.473.281-.947.281-1.438 0-.964-.314-1.754-1-2.406-.684-.652-1.635-1-2.812-1M49.062 269c-1.625 0-3.034.331-4.28 1s-2.212 1.715-2.876 3.094-1 2.847-1 4.437c0 1.606.332 3.044 1 4.344s1.659 2.312 2.969 3 2.771 1.031 4.375 1.031c1.187 0 2.341-.23 3.469-.656s2.22-1.06 3.281-1.906v-6.063h-6.906v1.938h4.781v3.031c-.46.41-1.141.795-2.031 1.156s-1.784.563-2.719.563a6.8 6.8 0 01-3.063-.719c-.956-.476-1.686-1.208-2.187-2.187q-.75-1.473-.75-3.657.001-1.768.625-3.281a5.7 5.7 0 011.031-1.625c.441-.491 1.031-.886 1.75-1.187s1.576-.438 2.563-.438c.823 0 1.574.12 2.25.406.674.286 1.168.681 1.531 1.156s.692 1.138.937 1.97l1.938-.532c-.282-1.1-.677-2.003-1.219-2.687-.541-.684-1.296-1.211-2.25-1.594S50.242 269 49.062 269m214.72 0q-2.44-.002-4.313 1c-1.248.669-2.18 1.715-2.844 3.094s-1 2.847-1 4.437c0 1.606.332 3.044 1 4.344s1.659 2.312 2.969 3 2.771 1.031 4.375 1.031c1.187 0 2.34-.23 3.468-.656s2.22-1.06 3.282-1.906v-6.063h-6.907v1.938h4.782v3.031q-.694.615-2.032 1.156c-.89.36-1.784.563-2.718.563a6.8 6.8 0 01-3.063-.719c-.957-.476-1.688-1.208-2.187-2.187q-.75-1.473-.75-3.657 0-1.768.625-3.281a5.7 5.7 0 011.031-1.625c.44-.491 1.03-.886 1.75-1.187.718-.302 1.575-.438 2.562-.438.823 0 1.544.12 2.22.406.674.286 1.199.681 1.562 1.156.364.475.66 1.138.906 1.97l1.969-.532c-.282-1.1-.709-2.003-1.25-2.687-.542-.684-1.265-1.211-2.219-1.594s-2.04-.594-3.219-.594m-246.376.281v16.344h5.875c.986 0 1.866-.096 2.625-.281s1.4-.453 1.938-.813 1.047-.873 1.5-1.5c.451-.628.805-1.417 1.093-2.375.29-.958.438-2.041.438-3.281 0-1.454-.2-2.774-.625-3.906-.427-1.133-1.078-2.054-1.938-2.781-.66-.565-1.472-.941-2.406-1.157-.668-.156-1.638-.25-2.906-.25zm41.469 0v16.344h2v-16.344zm176.937 0v16.344H246v-1.937h-8.031V269.28zm37.782 0v16.344h2v-16.344zM19.562 271.22H23c1.28 0 2.204.121 2.781.344.8.311 1.473.927 2.031 1.843.56.917.844 2.23.844 3.938 0 1.232-.152 2.26-.437 3.125s-.677 1.55-1.188 2.062c-.363.364-.858.644-1.469.844s-1.457.313-2.53.313h-3.47zm61.875 2.312c-1.017 0-1.948.24-2.812.719-.865.48-1.515 1.199-1.938 2.156s-.625 2.066-.625 3.344c0 1.976.485 3.504 1.47 4.563s2.287 1.562 3.905 1.562c1.292 0 2.394-.357 3.282-1.125q1.331-1.151 1.656-3.187l-2-.282c-.142 1.004-.474 1.736-1 2.219-.526.484-1.182.75-1.969.75-.98 0-1.766-.373-2.375-1.094-.608-.72-.906-1.878-.906-3.469 0-1.566.307-2.712.937-3.437s1.46-1.094 2.47-1.094c.667 0 1.247.225 1.718.625s.783.99.969 1.781l1.937-.312c-.23-1.195-.746-2.101-1.562-2.75s-1.872-.969-3.157-.969m11.438 0q-2.192-.001-3.719 1.313c-1.216 1.054-1.844 2.683-1.844 4.875 0 1.999.511 3.5 1.532 4.562s2.376 1.594 4.031 1.594a5.75 5.75 0 002.844-.719 4.86 4.86 0 002-2.031q.686-1.308.687-3.594c0-1.878-.53-3.34-1.562-4.406s-2.345-1.594-3.969-1.594m11.781 0c-.615 0-1.211.06-1.75.219-.538.16-.97.364-1.281.594a3.2 3.2 0 00-.969 1.125c-.241.45-.375.941-.375 1.469a3 3 0 00.438 1.593c.293.479.742.854 1.312 1.125.568.271 1.596.566 3.063.938 1.09.274 1.757.509 2.031.687.391.26.594.61.594 1.063 0 .505-.243.967-.688 1.344-.444.375-1.111.562-2.031.562-.912 0-1.617-.233-2.125-.656s-.826-1.017-.938-1.813l-2 .313c.223 1.256.755 2.206 1.563 2.844.806.639 1.963.937 3.5.937.93 0 1.765-.147 2.5-.469s1.297-.784 1.687-1.375c.39-.59.594-1.207.594-1.875 0-.683-.15-1.259-.469-1.719s-.783-.82-1.343-1.062c-.56-.241-1.554-.56-2.969-.937-.979-.267-1.55-.426-1.75-.5-.349-.141-.619-.315-.781-.532-.164-.207-.219-.46-.219-.719 0-.409.17-.757.562-1.062.393-.304 1.05-.469 1.97-.469.777 0 1.386.19 1.812.531.425.343.692.827.781 1.438l1.969-.281c-.127-.767-.385-1.386-.719-1.844s-.83-.826-1.531-1.094-1.51-.375-2.438-.375m11.75 0c-1.361.12-2.51.663-3.406 1.625-1.023 1.1-1.531 2.666-1.531 4.656 0 1.925.52 3.403 1.531 4.47 1.013 1.065 2.396 1.593 4.125 1.593 1.372 0 2.491-.333 3.375-1q1.324-1 1.812-2.812l-2.093-.25c-.304.849-.7 1.456-1.219 1.843s-1.142.594-1.875.594c-.987 0-1.809-.37-2.469-1.062s-1.05-1.669-1.125-2.97h8.844c.008-.237 0-.412 0-.53 0-1.953-.498-3.486-1.5-4.563s-2.295-1.594-3.875-1.594c-.204 0-.4-.017-.594 0m179.75 0c-1.017 0-1.948.24-2.812.719-.865.48-1.515 1.199-1.938 2.156-.422.958-.625 2.066-.625 3.344 0 1.976.486 3.504 1.469 4.563s2.288 1.562 3.906 1.562c1.291 0 2.394-.357 3.281-1.125.888-.767 1.41-1.83 1.625-3.187l-1.968-.282c-.142 1.004-.474 1.736-1 2.219-.527.484-1.182.75-1.969.75-.98 0-1.766-.373-2.375-1.094-.608-.72-.906-1.878-.906-3.469 0-1.566.306-2.712.937-3.437s1.46-1.094 2.469-1.094c.668 0 1.248.225 1.719.625s.783.99.968 1.781l1.938-.312c-.23-1.195-.746-2.101-1.563-2.75s-1.871-.969-3.156-.969m11.438 0q-2.194-.001-3.719 1.313c-1.216 1.054-1.844 2.683-1.844 4.875 0 1.999.512 3.5 1.531 4.562 1.02 1.062 2.377 1.594 4.032 1.594a5.75 5.75 0 002.843-.719 4.87 4.87 0 002-2.031q.687-1.308.688-3.594c0-1.878-.53-3.34-1.563-4.406-1.03-1.066-2.344-1.594-3.968-1.594m11.75 0c-.616 0-1.18.06-1.719.219-.539.16-.97.364-1.281.594a3.2 3.2 0 00-.969 1.125c-.241.45-.375.941-.375 1.469a3 3 0 00.437 1.593c.294.479.743.854 1.313 1.125.569.271 1.563.566 3.031.938 1.089.274 1.79.509 2.063.687.391.26.593.61.593 1.063 0 .505-.241.967-.687 1.344-.444.375-1.112.562-2.031.562-.913 0-1.617-.233-2.125-.656s-.827-1.017-.938-1.813l-2 .313c.223 1.256.757 2.204 1.563 2.844s1.963.937 3.5.937c.929 0 1.765-.147 2.5-.469s1.297-.784 1.687-1.375c.39-.59.594-1.207.594-1.875 0-.683-.18-1.259-.5-1.719s-.752-.82-1.313-1.062-1.554-.56-2.968-.937c-.979-.267-1.55-.426-1.75-.5-.349-.141-.62-.315-.782-.532a1.16 1.16 0 01-.25-.719c0-.409.202-.757.594-1.062.393-.304 1.05-.469 1.969-.469.778 0 1.387.19 1.812.531.426.343.692.827.782 1.438l1.937-.281c-.126-.767-.353-1.386-.687-1.844s-.83-.826-1.532-1.094-1.54-.375-2.468-.375m11.781 0c-1.362.12-2.51.663-3.406 1.625-1.023 1.1-1.532 2.666-1.532 4.656 0 1.925.52 3.403 1.532 4.47 1.012 1.065 2.364 1.593 4.093 1.593 1.373 0 2.524-.333 3.407-1q1.323-1 1.812-2.812l-2.094-.25c-.304.849-.699 1.456-1.218 1.843-.519.388-1.142.594-1.875.594-.987 0-1.84-.37-2.5-1.062s-1.02-1.669-1.094-2.97h8.844c.007-.237 0-.412 0-.53 0-1.953-.498-3.486-1.5-4.563s-2.295-1.594-3.875-1.594c-.204 0-.4-.017-.594 0m-267.188.25v7.344q.002 1.284.125 1.875c.12.586.332 1.064.625 1.469.294.405.74.764 1.344 1.031s1.24.375 1.938.375c1.58 0 2.86-.667 3.781-2v1.75h1.781v-11.844h-2v6.344c0 1.01-.125 1.781-.344 2.313a2.5 2.5 0 01-1.093 1.25 3.4 3.4 0 01-1.719.468c-.602 0-1.092-.137-1.5-.437a2.13 2.13 0 01-.813-1.25c-.081-.364-.125-1.077-.125-2.125v-6.563zm214.72 0v7.344q.001 1.284.124 1.875c.119.586.332 1.064.625 1.469.294.405.739.764 1.344 1.031s1.24.375 1.937.375q2.37 0 3.75-2v1.75h1.813v-11.844h-2v6.344c0 1.01-.125 1.781-.344 2.313-.22.53-.598.94-1.125 1.25a3.3 3.3 0 01-1.687.468c-.603 0-1.09-.137-1.5-.437a2.13 2.13 0 01-.813-1.25c-.081-.364-.125-1.077-.125-2.125v-6.563zm-161.626 1.375c1.015 0 1.832.384 2.469 1.156.414.498.66 1.255.75 2.25h-6.594c.068-1.032.405-1.85 1.031-2.468.627-.618 1.426-.938 2.344-.938m214.719 0c1.015 0 1.83.384 2.469 1.156.414.498.66 1.255.75 2.25h-6.594c.066-1.032.405-1.85 1.031-2.468s1.425-.938 2.344-.938m-238.875.031c.986 0 1.806.372 2.469 1.125.663.755 1 1.85 1 3.313 0 1.551-.341 2.71-1 3.469-.66.757-1.476 1.156-2.469 1.156-1 0-1.84-.403-2.5-1.156-.66-.755-1-1.86-1-3.375s.34-2.657 1-3.406 1.5-1.125 2.5-1.125m214.719 0c.986 0 1.805.372 2.468 1.125.663.755 1 1.85 1 3.313 0 1.551-.341 2.71-1 3.469-.659.757-1.476 1.156-2.468 1.156-1 0-1.841-.403-2.5-1.156-.66-.755-1-1.86-1-3.375s.341-2.657 1-3.406 1.5-1.125 2.5-1.125m-274.782 3.5v2.032h6.157v-2.031zm214.72 0v2.032h6.155v-2.031z"/></svg>