<svg viewBox="0 0 1067 599"><g fill="none" stroke="#000"><path stroke-width="3" d="M561.7 185.8l5.6 28.6 27.1-12.8m-89-.4l27.5 11.8 5.8-28.1m5.8 144.9c-11.1 32.1-33.6 60.1-63.4 80.6m-92.5 34.1c-8.6 1-17.3 1.5-26.2 1.5-26.4 0-51.6-4.6-74.4-12.9m-59.2-34c-18.8-15.9-33.8-35.2-43.6-56.6m-10.7-34.3c-1.4-7.9-2.1-16-2.1-24.2 0-9.7 1-19.2 2.9-28.4m18-45.6c11.4-19 27.1-35.7 46-49.4m56.8-28.4c18.8-6 39-9.5 60.1-10m87.6 15.6c53 21.5 92.4 63.4 104.5 113.7m376.1 68.6c-11.4 46.2-45.8 85.1-92.5 107.6m-212.7-15.4c-30.3-21-53-49.8-63.6-82.9m-2.8-78.3c12.2-49.5 51-89 102.9-110.6m83-16.3c58.4 0 110.6 22.5 145.5 57.9m26.1 34.7c11.7 21.1 18.3 44.6 18.3 69.5"/><path stroke-dasharray="5 5" stroke-dashoffset="5.25" stroke-linecap="round" stroke-linejoin="round" stroke-width="2.5" d="M664.8 454.5l27.6 1.5m-138.1 29.5c51.9 9.6 99.9 6.2 138.1-29.5l2.3 23.2"/><path stroke-linejoin="round" stroke-width="2.4" d="M613.6 396l5.6 16.3-17.2 1.9m-119.3-19.8l-1.6 16h16.3m96.9-229.8c34.1-35.3-4.7-73.8 29.8-105m-115.8 105c-34.1-35.3 4.7-73.8-29.8-105.1M205.1 375.1c-42.4-31-73.1-32.6-102-29.7l11.3-9.5m-11.4 9.5l12.1 11.1m18-180.2c70.7 31.9 104.2 29.4 49-55.4l11.4 1.5m-11.4-1.3l-3.9 9.8M459.5 251h199.9v77.7H459.5z"/></g><g font-family="DejaVu Sans" font-size="26"><text x="128" y="242">Glycerate</text><text x="142" y="333">Serine</text><text x="202" y="425">Glycine</text><text x="128" y="184" text-anchor="end" style="text-align:end">ATP</text><text x="45" y="328">CO<tspan dy="4" font-size="75%">2</tspan></text><text x="243" y="155">3PG</text><text x="366" y="139">RuBP</text><text x="45" y="372">NH<tspan dy="4" font-size="75%">3</tspan></text><text><tspan x="575" y="435" text-anchor="end" style="text-align:end">2-PGlycolate +</tspan><tspan x="400" y="467">3PGlycerate</tspan></text><text x="186" y="117" text-anchor="end">ADP</text><text x="664" y="141">RuBP</text><text x="1056" y="206" text-anchor="end">Ribulose 5-Phosphate</text><text x="1054" y="312" text-anchor="end">Triose Phosphate</text><text x="821" y="440" text-anchor="end" style="text-align:end">2 × 3PGlycerate</text><text x="624" y="66">CO<tspan dy="4" font-size="75%">2</tspan></text><text x="474" y="67" text-anchor="end">O<tspan dy="4" font-size="75%" style="text-align:end">2</tspan></text><text x="559" y="307" font-size="44" text-anchor="middle" style="text-align:center">RuBisCO</text><switch><g font-size="54" systemLanguage="en"><text x="56" y="551">Photorespiration</text><text x="989" y="557" text-anchor="end">Calvin Cycle</text></g><g font-size="54" systemLanguage="ta"><text x="56" y="551">ஒளிச்சுவாசம்</text><text x="989" y="557" text-anchor="end">கல்வின் வட்டம்</text></g><g font-size="54"><text x="56" y="551">Photorespiration</text><text x="989" y="557" text-anchor="end">Calvin Cycle</text></g></switch></g></svg>