<svg xmlns="http://www.w3.org/2000/svg" viewBox="0 0 800 800"><path fill="#fff" d="M0 0h800v800H0z" class="dcg-svg-background"/><path fill="none" stroke="#000" stroke-miterlimit="10" stroke-opacity="0.2" stroke-width="2" d="M145 0v800M221 0v800M297 0v800M373 0v800M447 0v800M523 0v800M599 0v800M675 0v800M751 0v800M0 735h800M0 659h800M0 583h800M0 509h800M0 357h800M0 281h800M0 205h800M0 129h800M0 53h800" class="dcg-svg-minor-gridline" paint-order="fill stroke markers"/><path fill="none" stroke="#000" stroke-miterlimit="10" stroke-opacity="0.25" stroke-width="2" d="M373 0v800M675 0v800M0 735h800M0 129h800" class="dcg-svg-major-gridline" paint-order="fill stroke markers"/><path fill="none" stroke="#000" stroke-miterlimit="10" stroke-opacity="0.9" stroke-width="3" d="M68 0v800M0 432h800" class="dcg-svg-axis-line" paint-order="fill stroke markers"/><g class="dcg-svg-axis-value" font-family="Arial" font-size="14" text-anchor="middle"><text x="25.3" y="231.9" fill="none" stroke="#fff" stroke-miterlimit="2" stroke-width="3" text-decoration="normal" transform="scale(2)">0</text><text x="25.3" y="231.9" text-decoration="normal" transform="scale(2)">0</text></g><g class="dcg-svg-axis-value" font-family="Arial" font-size="14" text-anchor="middle"><text x="186.01" y="231.9" fill="none" stroke="#fff" stroke-miterlimit="2" stroke-width="3" text-decoration="normal" transform="scale(2)">2</text><text x="186.01" y="231.9" text-decoration="normal" transform="scale(2)">2</text></g><g class="dcg-svg-axis-value" font-family="Arial" font-size="14" text-anchor="middle"><text x="337.81" y="231.9" fill="none" stroke="#fff" stroke-miterlimit="2" stroke-width="3" text-decoration="normal" transform="scale(2)">4</text><text x="337.81" y="231.9" text-decoration="normal" transform="scale(2)">4</text></g><g class="dcg-svg-axis-value" font-family="Arial" font-size="14" text-anchor="middle"><text x="22.97" y="371.67" fill="none" stroke="#fff" stroke-miterlimit="2" stroke-width="3" text-decoration="normal" transform="scale(2)">-2</text><text x="22.97" y="371.67" text-decoration="normal" transform="scale(2)">-2</text></g><g class="dcg-svg-axis-value" font-family="Arial" font-size="14" text-anchor="middle"><text x="25.3" y="68.13" fill="none" stroke="#fff" stroke-miterlimit="2" stroke-width="3" text-decoration="normal" transform="scale(2)">2</text><text x="25.3" y="68.13" text-decoration="normal" transform="scale(2)">2</text></g><path fill="none" stroke="#c74440" stroke-linecap="round" stroke-linejoin="round" stroke-miterlimit="10" stroke-width="5" d="m68.394 432.186.746 4.708 1.76 8.068 2.342 8.76 2.93 9.342 3.516 9.748 4.1 9.988 4.494 9.68 4.882 9.366 5.468 9.35 5.86 8.918 6.25 8.462 6.64 7.98 6.836 7.276 6.836 6.434 7.032 5.84 7.032 5.13 7.226 4.6 7.42 4.078 7.424 3.474 7.616 2.984 7.814 2.496 8.008 2.002 8.202 1.51 8.4 1.008 8.592.508h8.79l9.18-.526 9.374-1.066 9.766-1.642 9.96-2.208 10.352-2.836 10.742-3.494 11.134-4.186 11.522-4.91 11.914-5.66 12.306-6.444 12.694-7.25 13.282-8.214 13.672-9.092 14.258-10.14 14.844-11.24 15.43-12.39 16.014-13.584 16.602-14.83 17.188-16.116 17.774-17.45 18.554-19.03 19.14-20.464 19.922-22.16 20.704-23.92 21.484-25.744 22.266-27.626 23.24-29.822 24.026-31.84 24.804-33.912 25.39-35.76 25.976-37.64 26.368-39.25 26.954-41.17L800 13.344" class="dcg-svg-curve" paint-order="fill stroke markers"/><path fill="none" stroke="#2d70b3" stroke-linecap="round" stroke-linejoin="round" stroke-miterlimit="10" stroke-width="5" d="m68.394 432.186 11.1 10.688 10.74 9.576 10.548 8.66 10.35 7.79 10.158 6.954 9.96 6.162 9.766 5.408 9.57 4.69 9.374 4.008 9.376 3.43 9.18 2.798 8.984 2.2 8.984 1.67 8.984 1.138 8.986.606 8.984.074 8.984-.458 8.984-.988 8.984-1.52 8.986-2.052 8.984-2.584 9.18-3.188 9.18-3.744 9.374-4.396 9.57-5.086 9.57-5.688 9.766-6.426 9.96-7.2 10.158-8.016 10.546-9.044 10.742-9.962 10.938-10.926 11.328-12.146 11.524-13.222 11.914-14.59 12.304-16.05 12.5-17.326 12.5-18.354 12.696-19.696 12.694-20.756 12.696-21.818 12.89-23.24 12.892-24.332 13.086-25.82 13.086-26.952 13.28-28.504 13.28-29.666 13.48-31.29 13.67-32.966 13.672-34.198L617.188-11" class="dcg-svg-curve" paint-order="fill stroke markers"/></svg>