<svg version="1.1" xmlns="http://www.w3.org/2000/svg" xmlns:xlink="http://www.w3.org/1999/xlink" width="1524" height="847"><defs><clipPath id="KidEOGVcvCvu"><path fill="none" stroke="none" d=" M 0 0 L 1524 0 L 1524 847 L 0 847 L 0 0 Z"/></clipPath></defs><g transform="scale(1,1)" clip-path="url(#KidEOGVcvCvu)"><g><rect fill="rgb(255,255,255)" stroke="none" x="0" y="0" width="1524" height="847" fill-opacity="1"/><path fill="none" stroke="rgb(192,192,192)" paint-order="fill stroke markers" d=" M 60.5 0.5 L 60.5 847.5 M 60.5 0.5 L 60.5 847.5 M 121.5 0.5 L 121.5 847.5 M 182.5 0.5 L 182.5 847.5 M 243.5 0.5 L 243.5 847.5 M 304.5 0.5 L 304.5 847.5 M 365.5 0.5 L 365.5 847.5 M 426.5 0.5 L 426.5 847.5 M 487.5 0.5 L 487.5 847.5 M 548.5 0.5 L 548.5 847.5 M 670.5 0.5 L 670.5 847.5 M 731.5 0.5 L 731.5 847.5 M 792.5 0.5 L 792.5 847.5 M 853.5 0.5 L 853.5 847.5 M 914.5 0.5 L 914.5 847.5 M 975.5 0.5 L 975.5 847.5 M 1036.5 0.5 L 1036.5 847.5 M 1097.5 0.5 L 1097.5 847.5 M 1158.5 0.5 L 1158.5 847.5 M 1219.5 0.5 L 1219.5 847.5 M 1280.5 0.5 L 1280.5 847.5 M 1341.5 0.5 L 1341.5 847.5 M 1402.5 0.5 L 1402.5 847.5 M 1463.5 0.5 L 1463.5 847.5" stroke-opacity="1" stroke-linecap="round" stroke-linejoin="round" stroke-miterlimit="10"/><path fill="none" stroke="rgb(192,192,192)" paint-order="fill stroke markers" d=" M 12.5 0.5 L 12.5 847.5 M 24.5 0.5 L 24.5 847.5 M 36.5 0.5 L 36.5 847.5 M 48.5 0.5 L 48.5 847.5 M 73.5 0.5 L 73.5 847.5 M 85.5 0.5 L 85.5 847.5 M 97.5 0.5 L 97.5 847.5 M 109.5 0.5 L 109.5 847.5 M 134.5 0.5 L 134.5 847.5 M 146.5 0.5 L 146.5 847.5 M 158.5 0.5 L 158.5 847.5 M 170.5 0.5 L 170.5 847.5 M 195.5 0.5 L 195.5 847.5 M 207.5 0.5 L 207.5 847.5 M 219.5 0.5 L 219.5 847.5 M 231.5 0.5 L 231.5 847.5 M 256.5 0.5 L 256.5 847.5 M 268.5 0.5 L 268.5 847.5 M 280.5 0.5 L 280.5 847.5 M 292.5 0.5 L 292.5 847.5 M 316.5 0.5 L 316.5 847.5 M 329.5 0.5 L 329.5 847.5 M 341.5 0.5 L 341.5 847.5 M 353.5 0.5 L 353.5 847.5 M 377.5 0.5 L 377.5 847.5 M 390.5 0.5 L 390.5 847.5 M 402.5 0.5 L 402.5 847.5 M 414.5 0.5 L 414.5 847.5 M 438.5 0.5 L 438.5 847.5 M 451.5 0.5 L 451.5 847.5 M 463.5 0.5 L 463.5 847.5 M 475.5 0.5 L 475.5 847.5 M 499.5 0.5 L 499.5 847.5 M 512.5 0.5 L 512.5 847.5 M 524.5 0.5 L 524.5 847.5 M 536.5 0.5 L 536.5 847.5 M 560.5 0.5 L 560.5 847.5 M 573.5 0.5 L 573.5 847.5 M 585.5 0.5 L 585.5 847.5 M 597.5 0.5 L 597.5 847.5 M 621.5 0.5 L 621.5 847.5 M 633.5 0.5 L 633.5 847.5 M 646.5 0.5 L 646.5 847.5 M 658.5 0.5 L 658.5 847.5 M 682.5 0.5 L 682.5 847.5 M 694.5 0.5 L 694.5 847.5 M 707.5 0.5 L 707.5 847.5 M 719.5 0.5 L 719.5 847.5 M 743.5 0.5 L 743.5 847.5 M 755.5 0.5 L 755.5 847.5 M 768.5 0.5 L 768.5 847.5 M 780.5 0.5 L 780.5 847.5 M 804.5 0.5 L 804.5 847.5 M 816.5 0.5 L 816.5 847.5 M 829.5 0.5 L 829.5 847.5 M 841.5 0.5 L 841.5 847.5 M 865.5 0.5 L 865.5 847.5 M 877.5 0.5 L 877.5 847.5 M 890.5 0.5 L 890.5 847.5 M 902.5 0.5 L 902.5 847.5 M 926.5 0.5 L 926.5 847.5 M 938.5 0.5 L 938.5 847.5 M 950.5 0.5 L 950.5 847.5 M 963.5 0.5 L 963.5 847.5 M 987.5 0.5 L 987.5 847.5 M 999.5 0.5 L 999.5 847.5 M 1011.5 0.5 L 1011.5 847.5 M 1024.5 0.5 L 1024.5 847.5 M 1048.5 0.5 L 1048.5 847.5 M 1060.5 0.5 L 1060.5 847.5 M 1072.5 0.5 L 1072.5 847.5 M 1085.5 0.5 L 1085.5 847.5 M 1109.5 0.5 L 1109.5 847.5 M 1121.5 0.5 L 1121.5 847.5 M 1133.5 0.5 L 1133.5 847.5 M 1146.5 0.5 L 1146.5 847.5 M 1170.5 0.5 L 1170.5 847.5 M 1182.5 0.5 L 1182.5 847.5 M 1194.5 0.5 L 1194.5 847.5 M 1207.5 0.5 L 1207.5 847.5 M 1231.5 0.5 L 1231.5 847.5 M 1243.5 0.5 L 1243.5 847.5 M 1255.5 0.5 L 1255.5 847.5 M 1267.5 0.5 L 1267.5 847.5 M 1292.5 0.5 L 1292.5 847.5 M 1304.5 0.5 L 1304.5 847.5 M 1316.5 0.5 L 1316.5 847.5 M 1328.5 0.5 L 1328.5 847.5 M 1353.5 0.5 L 1353.5 847.5 M 1365.5 0.5 L 1365.5 847.5 M 1377.5 0.5 L 1377.5 847.5 M 1389.5 0.5 L 1389.5 847.5 M 1414.5 0.5 L 1414.5 847.5 M 1426.5 0.5 L 1426.5 847.5 M 1438.5 0.5 L 1438.5 847.5 M 1450.5 0.5 L 1450.5 847.5 M 1475.5 0.5 L 1475.5 847.5 M 1487.5 0.5 L 1487.5 847.5 M 1499.5 0.5 L 1499.5 847.5 M 1511.5 0.5 L 1511.5 847.5" stroke-opacity="0.23529411764705882" stroke-linecap="round" stroke-linejoin="round" stroke-miterlimit="10"/><path fill="none" stroke="rgb(192,192,192)" paint-order="fill stroke markers" d=" M 0.5 84.5 L 1524.5 84.5 M 0.5 84.5 L 1524.5 84.5 M 0.5 169.5 L 1524.5 169.5 M 0.5 254.5 L 1524.5 254.5 M 0.5 338.5 L 1524.5 338.5 M 0.5 508.5 L 1524.5 508.5 M 0.5 592.5 L 1524.5 592.5 M 0.5 677.5 L 1524.5 677.5 M 0.5 762.5 L 1524.5 762.5 M 0.5 847.5 L 1524.5 847.5" stroke-opacity="1" stroke-linecap="round" stroke-linejoin="round" stroke-miterlimit="10"/><path fill="none" stroke="rgb(192,192,192)" paint-order="fill stroke markers" d=" M 0.5 16.5 L 1524.5 16.5 M 0.5 33.5 L 1524.5 33.5 M 0.5 50.5 L 1524.5 50.5 M 0.5 67.5 L 1524.5 67.5 M 0.5 101.5 L 1524.5 101.5 M 0.5 118.5 L 1524.5 118.5 M 0.5 135.5 L 1524.5 135.5 M 0.5 152.5 L 1524.5 152.5 M 0.5 186.5 L 1524.5 186.5 M 0.5 203.5 L 1524.5 203.5 M 0.5 220.5 L 1524.5 220.5 M 0.5 237.5 L 1524.5 237.5 M 0.5 271.5 L 1524.5 271.5 M 0.5 287.5 L 1524.5 287.5 M 0.5 304.5 L 1524.5 304.5 M 0.5 321.5 L 1524.5 321.5 M 0.5 355.5 L 1524.5 355.5 M 0.5 372.5 L 1524.5 372.5 M 0.5 389.5 L 1524.5 389.5 M 0.5 406.5 L 1524.5 406.5 M 0.5 440.5 L 1524.5 440.5 M 0.5 457.5 L 1524.5 457.5 M 0.5 474.5 L 1524.5 474.5 M 0.5 491.5 L 1524.5 491.5 M 0.5 525.5 L 1524.5 525.5 M 0.5 542.5 L 1524.5 542.5 M 0.5 559.5 L 1524.5 559.5 M 0.5 575.5 L 1524.5 575.5 M 0.5 609.5 L 1524.5 609.5 M 0.5 626.5 L 1524.5 626.5 M 0.5 643.5 L 1524.5 643.5 M 0.5 660.5 L 1524.5 660.5 M 0.5 694.5 L 1524.5 694.5 M 0.5 711.5 L 1524.5 711.5 M 0.5 728.5 L 1524.5 728.5 M 0.5 745.5 L 1524.5 745.5 M 0.5 779.5 L 1524.5 779.5 M 0.5 796.5 L 1524.5 796.5 M 0.5 813.5 L 1524.5 813.5 M 0.5 830.5 L 1524.5 830.5" stroke-opacity="0.23529411764705882" stroke-linecap="round" stroke-linejoin="round" stroke-miterlimit="10"/><path fill="none" stroke="rgb(37,37,37)" paint-order="fill stroke markers" d=" M 609.5 2.5 L 609.5 847.5" stroke-opacity="1" stroke-miterlimit="10"/><path fill="none" stroke="rgb(37,37,37)" paint-order="fill stroke markers" d=" M 609.5 1.5 L 605.5 5.5" stroke-opacity="1" stroke-miterlimit="10"/><path fill="none" stroke="rgb(37,37,37)" paint-order="fill stroke markers" d=" M 609.5 1.5 L 613.5 5.5" stroke-opacity="1" stroke-miterlimit="10"/><path fill="none" stroke="rgb(37,37,37)" paint-order="fill stroke markers" d=" M 0.5 423.5 L 1522.5 423.5" stroke-opacity="1" stroke-miterlimit="10"/><path fill="none" stroke="rgb(37,37,37)" paint-order="fill stroke markers" d=" M 1523.5 423.5 L 1519.5 419.5" stroke-opacity="1" stroke-miterlimit="10"/><path fill="none" stroke="rgb(37,37,37)" paint-order="fill stroke markers" d=" M 1523.5 423.5 L 1519.5 427.5" stroke-opacity="1" stroke-miterlimit="10"/><text fill="rgb(37,37,37)" stroke="none" font-family="geogebra-sans-serif, sans-serif" font-size="12px" font-style="normal" font-weight="normal" text-decoration="normal" x="49" y="439" text-anchor="start" dominant-baseline="alphabetic" fill-opacity="1">–1.8</text><text fill="rgb(37,37,37)" stroke="none" font-family="geogebra-sans-serif, sans-serif" font-size="12px" font-style="normal" font-weight="normal" text-decoration="normal" x="110" y="439" text-anchor="start" dominant-baseline="alphabetic" fill-opacity="1">–1.6</text><text fill="rgb(37,37,37)" stroke="none" font-family="geogebra-sans-serif, sans-serif" font-size="12px" font-style="normal" font-weight="normal" text-decoration="normal" x="171" y="439" text-anchor="start" dominant-baseline="alphabetic" fill-opacity="1">–1.4</text><text fill="rgb(37,37,37)" stroke="none" font-family="geogebra-sans-serif, sans-serif" font-size="12px" font-style="normal" font-weight="normal" text-decoration="normal" x="232" y="439" text-anchor="start" dominant-baseline="alphabetic" fill-opacity="1">–1.2</text><text fill="rgb(37,37,37)" stroke="none" font-family="geogebra-sans-serif, sans-serif" font-size="12px" font-style="normal" font-weight="normal" text-decoration="normal" x="299" y="439" text-anchor="start" dominant-baseline="alphabetic" fill-opacity="1">–1</text><text fill="rgb(37,37,37)" stroke="none" font-family="geogebra-sans-serif, sans-serif" font-size="12px" font-style="normal" font-weight="normal" text-decoration="normal" x="354" y="439" text-anchor="start" dominant-baseline="alphabetic" fill-opacity="1">–0.8</text><text fill="rgb(37,37,37)" stroke="none" font-family="geogebra-sans-serif, sans-serif" font-size="12px" font-style="normal" font-weight="normal" text-decoration="normal" x="415" y="439" text-anchor="start" dominant-baseline="alphabetic" fill-opacity="1">–0.6</text><text fill="rgb(37,37,37)" stroke="none" font-family="geogebra-sans-serif, sans-serif" font-size="12px" font-style="normal" font-weight="normal" text-decoration="normal" x="476" y="439" text-anchor="start" dominant-baseline="alphabetic" fill-opacity="1">–0.4</text><text fill="rgb(37,37,37)" stroke="none" font-family="geogebra-sans-serif, sans-serif" font-size="12px" font-style="normal" font-weight="normal" text-decoration="normal" x="537" y="439" text-anchor="start" dominant-baseline="alphabetic" fill-opacity="1">–0.2</text><text fill="rgb(37,37,37)" stroke="none" font-family="geogebra-sans-serif, sans-serif" font-size="12px" font-style="normal" font-weight="normal" text-decoration="normal" x="662" y="439" text-anchor="start" dominant-baseline="alphabetic" fill-opacity="1">0.2</text><text fill="rgb(37,37,37)" stroke="none" font-family="geogebra-sans-serif, sans-serif" font-size="12px" font-style="normal" font-weight="normal" text-decoration="normal" x="723" y="439" text-anchor="start" dominant-baseline="alphabetic" fill-opacity="1">0.4</text><text fill="rgb(37,37,37)" stroke="none" font-family="geogebra-sans-serif, sans-serif" font-size="12px" font-style="normal" font-weight="normal" text-decoration="normal" x="784" y="439" text-anchor="start" dominant-baseline="alphabetic" fill-opacity="1">0.6</text><text fill="rgb(37,37,37)" stroke="none" font-family="geogebra-sans-serif, sans-serif" font-size="12px" font-style="normal" font-weight="normal" text-decoration="normal" x="845" y="439" text-anchor="start" dominant-baseline="alphabetic" fill-opacity="1">0.8</text><text fill="rgb(37,37,37)" stroke="none" font-family="geogebra-sans-serif, sans-serif" font-size="12px" font-style="normal" font-weight="normal" text-decoration="normal" x="912" y="439" text-anchor="start" dominant-baseline="alphabetic" fill-opacity="1">1</text><text fill="rgb(37,37,37)" stroke="none" font-family="geogebra-sans-serif, sans-serif" font-size="12px" font-style="normal" font-weight="normal" text-decoration="normal" x="967" y="439" text-anchor="start" dominant-baseline="alphabetic" fill-opacity="1">1.2</text><text fill="rgb(37,37,37)" stroke="none" font-family="geogebra-sans-serif, sans-serif" font-size="12px" font-style="normal" font-weight="normal" text-decoration="normal" x="1028" y="439" text-anchor="start" dominant-baseline="alphabetic" fill-opacity="1">1.4</text><text fill="rgb(37,37,37)" stroke="none" font-family="geogebra-sans-serif, sans-serif" font-size="12px" font-style="normal" font-weight="normal" text-decoration="normal" x="1089" y="439" text-anchor="start" dominant-baseline="alphabetic" fill-opacity="1">1.6</text><text fill="rgb(37,37,37)" stroke="none" font-family="geogebra-sans-serif, sans-serif" font-size="12px" font-style="normal" font-weight="normal" text-decoration="normal" x="1150" y="439" text-anchor="start" dominant-baseline="alphabetic" fill-opacity="1">1.8</text><text fill="rgb(37,37,37)" stroke="none" font-family="geogebra-sans-serif, sans-serif" font-size="12px" font-style="normal" font-weight="normal" text-decoration="normal" x="1217" y="439" text-anchor="start" dominant-baseline="alphabetic" fill-opacity="1">2</text><text fill="rgb(37,37,37)" stroke="none" font-family="geogebra-sans-serif, sans-serif" font-size="12px" font-style="normal" font-weight="normal" text-decoration="normal" x="1272" y="439" text-anchor="start" dominant-baseline="alphabetic" fill-opacity="1">2.2</text><text fill="rgb(37,37,37)" stroke="none" font-family="geogebra-sans-serif, sans-serif" font-size="12px" font-style="normal" font-weight="normal" text-decoration="normal" x="1333" y="439" text-anchor="start" dominant-baseline="alphabetic" fill-opacity="1">2.4</text><text fill="rgb(37,37,37)" stroke="none" font-family="geogebra-sans-serif, sans-serif" font-size="12px" font-style="normal" font-weight="normal" text-decoration="normal" x="1394" y="439" text-anchor="start" dominant-baseline="alphabetic" fill-opacity="1">2.6</text><text fill="rgb(37,37,37)" stroke="none" font-family="geogebra-sans-serif, sans-serif" font-size="12px" font-style="normal" font-weight="normal" text-decoration="normal" x="1455" y="439" text-anchor="start" dominant-baseline="alphabetic" fill-opacity="1">2.8</text><text fill="rgb(37,37,37)" stroke="none" font-family="geogebra-sans-serif, sans-serif" font-size="12px" font-style="normal" font-weight="normal" text-decoration="normal" x="579" y="767" text-anchor="start" dominant-baseline="alphabetic" fill-opacity="1">–0.8</text><text fill="rgb(37,37,37)" stroke="none" font-family="geogebra-sans-serif, sans-serif" font-size="12px" font-style="normal" font-weight="normal" text-decoration="normal" x="579" y="682" text-anchor="start" dominant-baseline="alphabetic" fill-opacity="1">–0.6</text><text fill="rgb(37,37,37)" stroke="none" font-family="geogebra-sans-serif, sans-serif" font-size="12px" font-style="normal" font-weight="normal" text-decoration="normal" x="579" y="597" text-anchor="start" dominant-baseline="alphabetic" fill-opacity="1">–0.4</text><text fill="rgb(37,37,37)" stroke="none" font-family="geogebra-sans-serif, sans-serif" font-size="12px" font-style="normal" font-weight="normal" text-decoration="normal" x="579" y="513" text-anchor="start" dominant-baseline="alphabetic" fill-opacity="1">–0.2</text><text fill="rgb(37,37,37)" stroke="none" font-family="geogebra-sans-serif, sans-serif" font-size="12px" font-style="normal" font-weight="normal" text-decoration="normal" x="585" y="343" text-anchor="start" dominant-baseline="alphabetic" fill-opacity="1">0.2</text><text fill="rgb(37,37,37)" stroke="none" font-family="geogebra-sans-serif, sans-serif" font-size="12px" font-style="normal" font-weight="normal" text-decoration="normal" x="585" y="259" text-anchor="start" dominant-baseline="alphabetic" fill-opacity="1">0.4</text><text fill="rgb(37,37,37)" stroke="none" font-family="geogebra-sans-serif, sans-serif" font-size="12px" font-style="normal" font-weight="normal" text-decoration="normal" x="585" y="174" text-anchor="start" dominant-baseline="alphabetic" fill-opacity="1">0.6</text><text fill="rgb(37,37,37)" stroke="none" font-family="geogebra-sans-serif, sans-serif" font-size="12px" font-style="normal" font-weight="normal" text-decoration="normal" x="585" y="89" text-anchor="start" dominant-baseline="alphabetic" fill-opacity="1">0.8</text><text fill="rgb(37,37,37)" stroke="none" font-family="geogebra-sans-serif, sans-serif" font-size="12px" font-style="normal" font-weight="normal" text-decoration="normal" x="595" y="439" text-anchor="start" dominant-baseline="alphabetic" fill-opacity="1">0</text><path fill="none" stroke="rgb(110,109,115)" paint-order="fill stroke markers" d=" M 609.6 423.5 L 610.49296875 430.73696095338016 L 611.3859375000001 436.2539150846872 L 613.171875 445.56781652522835 M 613.171875 445.56781652522835 L 614.66015625 452.31387870496144 L 616.1484375 458.44265651838936 L 617.63671875 464.09733175468796 L 619.125 469.36684858861514 M 619.125 469.36684858861514 L 622.1015625 478.9767182673742 L 625.078125 487.59236614483495 L 628.0546875 495.4077027846639 L 631.03125 502.5530615188486 L 634.0078125 509.1221504817446 L 636.984375 515.1856229988098 L 639.9609375 520.7986689170302 L 642.9375 526.0055978710199 L 648.890625 535.3405701173801 L 654.84375 543.4174474434877 L 660.796875 550.4028091635057 L 666.75 556.4241911783006 M 666.75 556.4241911783006 L 672.703125 561.582395251687 L 678.65625 565.9591089871086 L 684.609375 569.6218778904206 L 690.5625 572.6274888768005 L 696.515625 575.0243532499408 L 702.46875 576.8542337947504 L 708.421875 578.153527257127 L 714.375 578.9542367144161 L 720.328125 579.2847222732901 L 726.28125 579.1702898866037 L 732.234375 578.6336597103513 L 738.1875 577.6953433179635 L 744.140625 576.3739509214972 L 750.09375 574.6864441193536 L 756.046875 572.6483457349052 L 762 570.2739154835684 M 762 570.2739154835684 L 767.953125 567.5762981538251 L 773.90625 564.5676494768616 L 779.859375 561.259243732615 L 785.8125 557.6615662894641 L 791.765625 553.7843936257498 L 797.71875 549.6368628809669 L 803.671875 545.2275325951376 L 809.625 540.5644359892533 L 815.578125 535.6551278978139 L 821.53125 530.5067262716195 L 827.484375 525.1259490140695 L 833.4375 519.5191467889802 L 839.390625 513.6923323360313 L 845.34375 507.65120674654645 L 851.296875 501.40118308366505 L 857.25 494.9474076741641 L 863.203125 488.29477935195166 L 869.15625 481.44796689378745 L 875.109375 474.4114248546593 L 881.0625 467.189407982323 L 887.015625 459.78598436687804 L 892.96875 452.2050474611703 L 898.921875 444.4503270906895 L 904.875 436.5253995569677 L 910.828125 428.43369692590016 L 916.78125 420.1785155815615 L 922.734375 411.7630241167203 L 928.6875 403.1902706231257 L 934.640625 394.4631894375787 L 940.59375 385.5846073936428 L 946.546875 376.55724962346466 L 952.5 367.3837449494618 L 958.453125 358.06663090149004 L 964.40625 348.60835839145574 L 970.359375 339.01129607411985 L 976.3125 329.27773441999244 L 982.265625 319.40988952369287 L 988.21875 309.40990666891156 L 991.1953125 304.36101537232054 L 994.171875 299.2798636691125 L 997.1484375 294.16670125784276 L 1000.125 289.0217740013376 L 1003.1015625 283.84532401440435 L 1006.078125 278.6375897488885 L 1009.0546875 273.3988060761758 L 1012.03125 268.1292043672354 L 1015.0078125 262.82901257029454 L 1017.984375 257.4984552862323 L 1020.9609375 252.13775384177487 L 1023.9375 246.74712636057217 L 1026.9140625 241.3267878322323 L 1029.890625 235.8769501793858 L 1032.8671875 230.39782232285052 L 1035.84375 224.88961024496302 L 1038.8203125 219.3525170511408 L 1041.796875 213.78674302973727 L 1044.7734375 208.19248571024698 L 1047.75 202.5699399199192 L 1050.7265625 196.91929783883208 L 1053.703125 191.24074905348118 L 1056.6796875 185.53448060893064 L 1059.65625 179.80067705957552 L 1062.6328125 174.0395205185617 L 1065.609375 168.25119070590586 L 1068.5859375 162.43586499536042 L 1071.5625 156.59371846006133 L 1074.5390625 150.72492391700052 L 1077.515625 144.82965197035855 L 1080.4921875 138.90807105373523 L 1083.46875 132.96034747131193 L 1086.4453125 126.98664543798031 L 1089.421875 120.98712711846798 L 1092.3984375 114.96195266549461 L 1095.375 108.91128025698572 L 1098.3515625 102.83526613237547 L 1101.328125 96.73406462802421 L 1104.3046875 90.60782821177895 L 1107.28125 84.45670751670178 L 1110.2578125 78.28085137399148 L 1113.234375 72.0804068451223 L 1116.2109375 65.85551925322238 L 1119.1875 59.60633221371569 L 1122.1640625 53.33298766424679 L 1125.140625 47.035625893911856 L 1128.1171875 40.714385571812954 L 1131.09375 34.36940377495847 L 1134.0703125 28.000816015524663 L 1137.046875 21.608756267500155 L 1140.0234375 15.19335699272716 L 1143 8.754749166359886 L 1145.9765625 2.2930623017529115 L 1148.953125 -4.1915755252012445 L 1151.9296875 -10.699037652272864" stroke-opacity="0.8" stroke-linecap="round" stroke-linejoin="round" stroke-miterlimit="10" stroke-width="2.5"/><g transform="scale(19,19)"><g transform="translate(34.8421052631579,25.592105263157894)"><path fill="rgb(110,109,115)" stroke="none" paint-order="stroke fill markers" d=" M 0.367 -0.4 L 0.367 -0.4 L 0.307 -0.083 Q 0.298 -0.021 0.271 0.059000000000000004 Q 0.261 0.088 0.251 0.108 Q 0.216 0.182 0.164 0.2 Q 0.151 0.20500000000000002 0.138 0.20500000000000002 Q 0.088 0.20500000000000002 0.064 0.171 Q 0.053 0.156 0.053 0.136 Q 0.053 0.096 0.08700000000000001 0.081 Q 0.097 0.076 0.108 0.076 Q 0.137 0.076 0.14400000000000002 0.101 Q 0.145 0.106 0.145 0.111 Q 0.145 0.145 0.115 0.159 Q 0.10400000000000001 0.164 0.09 0.165 Q 0.109 0.183 0.138 0.183 Q 0.182 0.183 0.20700000000000002 0.085 Q 0.212 0.062 0.219 0.025 L 0.225 -0.005 L 0.3 -0.4 L 0.234 -0.4 Q 0.209 -0.4 0.20700000000000002 -0.40800000000000003 L 0.20600000000000002 -0.40800000000000003 L 0.20600000000000002 -0.41200000000000003 Q 0.20600000000000002 -0.429 0.223 -0.431 L 0.223 -0.431 L 0.23600000000000002 -0.431 L 0.305 -0.431 Q 0.329 -0.556 0.338 -0.588 Q 0.368 -0.6880000000000001 0.444 -0.7030000000000001 Q 0.455 -0.705 0.465 -0.705 Q 0.517 -0.705 0.541 -0.671 L 0.541 -0.671 Q 0.552 -0.656 0.552 -0.636 Q 0.552 -0.596 0.518 -0.581 Q 0.508 -0.5760000000000001 0.497 -0.5760000000000001 Q 0.468 -0.5760000000000001 0.461 -0.601 Q 0.46 -0.606 0.46 -0.611 Q 0.46 -0.642 0.488 -0.657 Q 0.499 -0.664 0.514 -0.665 Q 0.495 -0.683 0.465 -0.683 Q 0.434 -0.683 0.418 -0.649 Q 0.41100000000000003 -0.635 0.394 -0.545 L 0.373 -0.431 L 0.456 -0.431 Q 0.481 -0.431 0.483 -0.42 Q 0.483 -0.402 0.467 -0.4 L 0.466 -0.4 L 0.453 -0.4 L 0.367 -0.4 Z"/></g><g transform="translate(35.440105263157896,25.592105263157894)"><path fill="rgb(110,109,115)" stroke="none" paint-order="stroke fill markers" d=" M 0.331 0.24 L 0.331 0.24 Q 0.331 0.25 0.321 0.25 Q 0.309 0.25 0.268 0.209 Q 0.20600000000000002 0.147 0.165 0.062 Q 0.099 -0.074 0.099 -0.25 Q 0.099 -0.419 0.162 -0.555 Q 0.214 -0.666 0.294 -0.733 Q 0.315 -0.75 0.321 -0.75 Q 0.331 -0.75 0.331 -0.74 Q 0.331 -0.735 0.318 -0.723 Q 0.157 -0.559 0.157 -0.25 Q 0.157 0.058 0.314 0.218 Q 0.331 0.23500000000000001 0.331 0.24 Z"/></g><g transform="translate(35.8291052631579,25.592105263157894)"><path fill="rgb(110,109,115)" stroke="none" paint-order="stroke fill markers" d=" M 0.334 -0.302 L 0.3 -0.165 Q 0.28300000000000003 -0.097 0.28300000000000003 -0.077 Q 0.28300000000000003 -0.025 0.32 -0.014 Q 0.328 -0.011 0.338 -0.011 Q 0.388 -0.011 0.429 -0.061 Q 0.456 -0.093 0.47100000000000003 -0.14200000000000002 Q 0.47400000000000003 -0.153 0.484 -0.153 Q 0.496 -0.153 0.496 -0.14300000000000002 Q 0.496 -0.11800000000000001 0.465 -0.07100000000000001 Q 0.41100000000000003 0.011 0.336 0.011 Q 0.268 0.011 0.23700000000000002 -0.046 Q 0.231 -0.055 0.228 -0.065 Q 0.20400000000000001 -0.017 0.162 0.002 Q 0.14300000000000002 0.011 0.123 0.011 Q 0.063 0.011 0.039 -0.024 Q 0.029 -0.037 0.029 -0.055 Q 0.029 -0.092 0.061 -0.107 Q 0.07200000000000001 -0.113 0.084 -0.113 Q 0.114 -0.113 0.12 -0.088 Q 0.121 -0.083 0.121 -0.078 Q 0.121 -0.044 0.08700000000000001 -0.028 Q 0.081 -0.025 0.074 -0.024 Q 0.095 -0.011 0.124 -0.011 Q 0.177 -0.011 0.20800000000000002 -0.082 Q 0.214 -0.097 0.219 -0.115 Q 0.273 -0.319 0.273 -0.353 Q 0.267 -0.41500000000000004 0.219 -0.42 Q 0.167 -0.42 0.124 -0.367 L 0.124 -0.366 Q 0.124 -0.365 0.123 -0.365 Q 0.108 -0.34500000000000003 0.096 -0.319 Q 0.091 -0.307 0.08700000000000001 -0.295 L 0.085 -0.289 Q 0.083 -0.278 0.07200000000000001 -0.278 Q 0.06 -0.278 0.06 -0.28800000000000003 Q 0.06 -0.313 0.092 -0.36 Q 0.146 -0.442 0.221 -0.442 Q 0.298 -0.442 0.329 -0.366 Q 0.361 -0.428 0.41400000000000003 -0.44 Q 0.424 -0.442 0.434 -0.442 Q 0.493 -0.442 0.517 -0.40900000000000003 Q 0.527 -0.395 0.527 -0.376 Q 0.527 -0.335 0.49 -0.321 Q 0.481 -0.318 0.47300000000000003 -0.318 Q 0.442 -0.318 0.436 -0.34500000000000003 Q 0.435 -0.34900000000000003 0.435 -0.353 Q 0.435 -0.383 0.464 -0.4 Q 0.47300000000000003 -0.405 0.483 -0.40700000000000003 Q 0.462 -0.42 0.433 -0.42 Q 0.365 -0.42 0.337 -0.314 Q 0.335 -0.308 0.334 -0.302 Z"/></g><g transform="translate(36.4011052631579,25.592105263157894)"><path fill="rgb(110,109,115)" stroke="none" paint-order="stroke fill markers" d=" M 0.289 -0.25 L 0.289 -0.25 Q 0.289 -0.081 0.226 0.055 Q 0.17400000000000002 0.166 0.094 0.233 Q 0.073 0.25 0.067 0.25 Q 0.057 0.25 0.057 0.24 Q 0.057 0.23500000000000001 0.07 0.223 Q 0.231 0.059000000000000004 0.231 -0.25 Q 0.231 -0.555 0.081 -0.712 L 0.076 -0.717 Q 0.057 -0.735 0.057 -0.74 Q 0.057 -0.75 0.067 -0.75 Q 0.079 -0.75 0.12 -0.709 Q 0.182 -0.647 0.223 -0.562 Q 0.289 -0.426 0.289 -0.25 Z"/></g><g transform="translate(37.34566081871346,25.592105263157894)"><path fill="rgb(110,109,115)" stroke="none" paint-order="stroke fill markers" d=" M 0.687 -0.327 L 0.09 -0.327 Q 0.058 -0.327 0.056 -0.34700000000000003 Q 0.056 -0.367 0.089 -0.367 L 0.6880000000000001 -0.367 Q 0.72 -0.367 0.721 -0.34700000000000003 Q 0.721 -0.327 0.687 -0.327 M 0.6880000000000001 -0.133 L 0.089 -0.133 Q 0.057 -0.133 0.056 -0.153 Q 0.056 -0.17300000000000001 0.09 -0.17300000000000001 L 0.687 -0.17300000000000001 Q 0.719 -0.17300000000000001 0.721 -0.153 Q 0.721 -0.133 0.6880000000000001 -0.133 Z"/></g><g transform="translate(38.67921637426902,25.592105263157894)"><path fill="rgb(110,109,115)" stroke="none" paint-order="stroke fill markers" d=" M 0.334 -0.302 L 0.3 -0.165 Q 0.28300000000000003 -0.097 0.28300000000000003 -0.077 Q 0.28300000000000003 -0.025 0.32 -0.014 Q 0.328 -0.011 0.338 -0.011 Q 0.388 -0.011 0.429 -0.061 Q 0.456 -0.093 0.47100000000000003 -0.14200000000000002 Q 0.47400000000000003 -0.153 0.484 -0.153 Q 0.496 -0.153 0.496 -0.14300000000000002 Q 0.496 -0.11800000000000001 0.465 -0.07100000000000001 Q 0.41100000000000003 0.011 0.336 0.011 Q 0.268 0.011 0.23700000000000002 -0.046 Q 0.231 -0.055 0.228 -0.065 Q 0.20400000000000001 -0.017 0.162 0.002 Q 0.14300000000000002 0.011 0.123 0.011 Q 0.063 0.011 0.039 -0.024 Q 0.029 -0.037 0.029 -0.055 Q 0.029 -0.092 0.061 -0.107 Q 0.07200000000000001 -0.113 0.084 -0.113 Q 0.114 -0.113 0.12 -0.088 Q 0.121 -0.083 0.121 -0.078 Q 0.121 -0.044 0.08700000000000001 -0.028 Q 0.081 -0.025 0.074 -0.024 Q 0.095 -0.011 0.124 -0.011 Q 0.177 -0.011 0.20800000000000002 -0.082 Q 0.214 -0.097 0.219 -0.115 Q 0.273 -0.319 0.273 -0.353 Q 0.267 -0.41500000000000004 0.219 -0.42 Q 0.167 -0.42 0.124 -0.367 L 0.124 -0.366 Q 0.124 -0.365 0.123 -0.365 Q 0.108 -0.34500000000000003 0.096 -0.319 Q 0.091 -0.307 0.08700000000000001 -0.295 L 0.085 -0.289 Q 0.083 -0.278 0.07200000000000001 -0.278 Q 0.06 -0.278 0.06 -0.28800000000000003 Q 0.06 -0.313 0.092 -0.36 Q 0.146 -0.442 0.221 -0.442 Q 0.298 -0.442 0.329 -0.366 Q 0.361 -0.428 0.41400000000000003 -0.44 Q 0.424 -0.442 0.434 -0.442 Q 0.493 -0.442 0.517 -0.40900000000000003 Q 0.527 -0.395 0.527 -0.376 Q 0.527 -0.335 0.49 -0.321 Q 0.481 -0.318 0.47300000000000003 -0.318 Q 0.442 -0.318 0.436 -0.34500000000000003 Q 0.435 -0.34900000000000003 0.435 -0.353 Q 0.435 -0.383 0.464 -0.4 Q 0.47300000000000003 -0.405 0.483 -0.40700000000000003 Q 0.462 -0.42 0.433 -0.42 Q 0.365 -0.42 0.337 -0.314 Q 0.335 -0.308 0.334 -0.302 Z"/></g><g transform="translate(39.69566081871346,25.592105263157894)"><path fill="rgb(110,109,115)" stroke="none" paint-order="stroke fill markers" d=" M 0.177 -0.6940000000000001 L 0.177 -0.076 Q 0.177 -0.042 0.193 -0.036000000000000004 Q 0.20400000000000001 -0.031 0.255 -0.031 L 0.255 0 L 0.14400000000000002 -0.003 Q 0.132 -0.003 0.033 0 L 0.033 -0.031 Q 0.092 -0.031 0.10200000000000001 -0.04 L 0.10400000000000001 -0.042 Q 0.111 -0.05 0.111 -0.076 L 0.111 -0.596 Q 0.111 -0.635 0.097 -0.644 L 0.096 -0.644 Q 0.085 -0.65 0.058 -0.652 L 0.033 -0.652 L 0.033 -0.683 L 0.177 -0.6940000000000001 Z"/></g><g transform="translate(39.97366081871346,25.592105263157894)"><path fill="rgb(110,109,115)" stroke="none" paint-order="stroke fill markers" d=" M 0.11 -0.34400000000000003 Q 0.11 -0.383 0.095 -0.392 Q 0.083 -0.399 0.052000000000000005 -0.4 L 0.032 -0.4 L 0.032 -0.431 L 0.17300000000000001 -0.442 L 0.17300000000000001 -0.337 Q 0.22 -0.442 0.321 -0.442 Q 0.396 -0.442 0.426 -0.405 Q 0.453 -0.374 0.456 -0.32 Q 0.457 -0.301 0.457 -0.252 L 0.457 -0.061 Q 0.458 -0.037 0.486 -0.033 Q 0.498 -0.031 0.535 -0.031 L 0.535 0 Q 0.433 -0.003 0.423 -0.003 Q 0.41500000000000004 -0.003 0.31 0 L 0.31 -0.031 Q 0.369 -0.031 0.379 -0.04 L 0.381 -0.042 Q 0.388 -0.05 0.388 -0.076 L 0.388 -0.309 Q 0.388 -0.40800000000000003 0.331 -0.418 Q 0.323 -0.42 0.314 -0.42 Q 0.253 -0.42 0.212 -0.367 Q 0.179 -0.324 0.179 -0.26 L 0.179 -0.076 Q 0.179 -0.042 0.195 -0.036000000000000004 Q 0.20600000000000002 -0.031 0.257 -0.031 L 0.257 0 Q 0.155 -0.003 0.145 -0.003 Q 0.137 -0.003 0.032 0 L 0.032 -0.031 Q 0.091 -0.031 0.101 -0.04 L 0.10300000000000001 -0.042 Q 0.11 -0.05 0.11 -0.076 L 0.11 -0.34400000000000003 Z"/></g><g transform="translate(40.52966081871347,25.592105263157894)"><path fill="rgb(110,109,115)" stroke="none" paint-order="stroke fill markers" d=" M 0.331 0.24 L 0.331 0.24 Q 0.331 0.25 0.321 0.25 Q 0.309 0.25 0.268 0.209 Q 0.20600000000000002 0.147 0.165 0.062 Q 0.099 -0.074 0.099 -0.25 Q 0.099 -0.419 0.162 -0.555 Q 0.214 -0.666 0.294 -0.733 Q 0.315 -0.75 0.321 -0.75 Q 0.331 -0.75 0.331 -0.74 Q 0.331 -0.735 0.318 -0.723 Q 0.157 -0.559 0.157 -0.25 Q 0.157 0.058 0.314 0.218 Q 0.331 0.23500000000000001 0.331 0.24 Z"/></g><g transform="translate(40.91866081871347,25.592105263157894)"><path fill="rgb(110,109,115)" stroke="none" paint-order="stroke fill markers" d=" M 0.334 -0.302 L 0.3 -0.165 Q 0.28300000000000003 -0.097 0.28300000000000003 -0.077 Q 0.28300000000000003 -0.025 0.32 -0.014 Q 0.328 -0.011 0.338 -0.011 Q 0.388 -0.011 0.429 -0.061 Q 0.456 -0.093 0.47100000000000003 -0.14200000000000002 Q 0.47400000000000003 -0.153 0.484 -0.153 Q 0.496 -0.153 0.496 -0.14300000000000002 Q 0.496 -0.11800000000000001 0.465 -0.07100000000000001 Q 0.41100000000000003 0.011 0.336 0.011 Q 0.268 0.011 0.23700000000000002 -0.046 Q 0.231 -0.055 0.228 -0.065 Q 0.20400000000000001 -0.017 0.162 0.002 Q 0.14300000000000002 0.011 0.123 0.011 Q 0.063 0.011 0.039 -0.024 Q 0.029 -0.037 0.029 -0.055 Q 0.029 -0.092 0.061 -0.107 Q 0.07200000000000001 -0.113 0.084 -0.113 Q 0.114 -0.113 0.12 -0.088 Q 0.121 -0.083 0.121 -0.078 Q 0.121 -0.044 0.08700000000000001 -0.028 Q 0.081 -0.025 0.074 -0.024 Q 0.095 -0.011 0.124 -0.011 Q 0.177 -0.011 0.20800000000000002 -0.082 Q 0.214 -0.097 0.219 -0.115 Q 0.273 -0.319 0.273 -0.353 Q 0.267 -0.41500000000000004 0.219 -0.42 Q 0.167 -0.42 0.124 -0.367 L 0.124 -0.366 Q 0.124 -0.365 0.123 -0.365 Q 0.108 -0.34500000000000003 0.096 -0.319 Q 0.091 -0.307 0.08700000000000001 -0.295 L 0.085 -0.289 Q 0.083 -0.278 0.07200000000000001 -0.278 Q 0.06 -0.278 0.06 -0.28800000000000003 Q 0.06 -0.313 0.092 -0.36 Q 0.146 -0.442 0.221 -0.442 Q 0.298 -0.442 0.329 -0.366 Q 0.361 -0.428 0.41400000000000003 -0.44 Q 0.424 -0.442 0.434 -0.442 Q 0.493 -0.442 0.517 -0.40900000000000003 Q 0.527 -0.395 0.527 -0.376 Q 0.527 -0.335 0.49 -0.321 Q 0.481 -0.318 0.47300000000000003 -0.318 Q 0.442 -0.318 0.436 -0.34500000000000003 Q 0.435 -0.34900000000000003 0.435 -0.353 Q 0.435 -0.383 0.464 -0.4 Q 0.47300000000000003 -0.405 0.483 -0.40700000000000003 Q 0.462 -0.42 0.433 -0.42 Q 0.365 -0.42 0.337 -0.314 Q 0.335 -0.308 0.334 -0.302 Z"/></g><g transform="translate(41.49066081871347,25.592105263157894)"><path fill="rgb(110,109,115)" stroke="none" paint-order="stroke fill markers" d=" M 0.289 -0.25 L 0.289 -0.25 Q 0.289 -0.081 0.226 0.055 Q 0.17400000000000002 0.166 0.094 0.233 Q 0.073 0.25 0.067 0.25 Q 0.057 0.25 0.057 0.24 Q 0.057 0.23500000000000001 0.07 0.223 Q 0.231 0.059000000000000004 0.231 -0.25 Q 0.231 -0.555 0.081 -0.712 L 0.076 -0.717 Q 0.057 -0.735 0.057 -0.74 Q 0.057 -0.75 0.067 -0.75 Q 0.079 -0.75 0.12 -0.709 Q 0.182 -0.647 0.223 -0.562 Q 0.289 -0.426 0.289 -0.25 Z"/></g></g><path fill="none" stroke="rgb(21,101,192)" paint-order="fill stroke markers" d=" M 781.34765625 854.6308153215125 L 782.091796875 849.5355118545974 L 782.8359375 844.4978502722938 L 784.32421875 834.592036861243 L 785.8125 824.9067023532834 L 787.30078125 815.435420504509 L 788.7890625 806.1720005665725 L 790.27734375 797.1104768656589 L 791.765625 788.2450989216599 L 793.25390625 779.5703220754864 L 794.7421875 771.0807985945944 L 796.23046875 762.771369228782 L 797.71875 754.6370551901557 L 799.20703125 746.6730505328644 L 800.6953125 738.8747149097787 L 802.18359375 731.2375666847646 L 803.671875 723.757276380554 L 805.16015625 716.4296604434871 L 806.6484375 709.2506753075747 L 808.13671875 702.2164117414216 L 809.625 695.3230894625746 L 811.11328125 688.567052004804 L 812.6015625 681.9447618247127 L 814.08984375 675.4527956348884 L 815.578125 669.0878399515899 L 817.06640625 662.8466868456662 L 818.5546875 656.7262298860853 L 820.04296875 650.7234602660677 L 821.53125 644.8354631024131 L 823.01953125 639.0594138991457 L 824.5078125 633.3925751671227 L 825.99609375 627.8322931917264 L 827.484375 622.3759949412063 L 828.97265625 617.0211851086632 L 830.4609375 611.7654432810543 L 831.94921875 606.6064212289734 L 833.4375 601.5418403113003 L 836.4140625 591.6872204438156 L 839.390625 582.1846544061357 L 842.3671875 573.0181776210223 L 845.34375 564.1727243480682 L 848.3203125 555.6340670594228 L 851.296875 547.3887605758711 L 854.2734375 539.4240905375159 L 857.25 531.7280258259527 L 860.2265625 524.2891745927516 L 863.203125 517.096743582832 L 866.1796875 510.1405004714402 L 869.15625 503.4107389603412 L 872.1328125 496.8982464028935 L 875.109375 490.5942737492198 L 878.0859375 484.49050762199954 L 881.0625 478.5790443507526 L 884.0390625 472.8523658080635 L 887.015625 467.3033169052243 L 889.9921875 461.9250846174069 L 892.96875 456.71117841987245 L 898.921875 446.75188633533884 L 904.875 437.37930192126424 L 910.828125 428.55139529965777 L 916.78125 420.2298118675743 L 922.734375 412.3794915137328 L 928.6875 404.9683333642956 L 934.640625 397.96689990448226 L 940.59375 391.34815524752565 L 946.546875 385.08723309472435 L 952.5 379.1612305773525 L 958.453125 373.54902471502345 L 964.40625 368.23110868364535 L 970.359375 363.1894454739026 L 976.3125 358.40733685010775 L 982.265625 353.86930579902554 L 988.21875 349.5609908968572 L 994.171875 345.46905122659047 L 1000.125 341.5810806528077 L 1006.078125 337.8855304113407 L 1012.03125 334.3716391006192 L 1017.984375 331.0293692733344 L 1023.9375 327.84934992375526 L 1029.890625 324.82282424990353 L 1035.84375 321.9416021426758 L 1041.796875 319.19801691746056 L 1047.75 316.58488585916695 L 1053.703125 314.09547419997944 L 1059.65625 311.72346219154235 L 1065.609375 309.462914970463 L 1071.5625 307.3082549487099 L 1077.515625 305.25423648925806 L 1083.46875 303.29592265271015 L 1089.421875 301.42866382303885 L 1095.375 299.64807804042806 L 1101.328125 297.95003288676253 L 1107.28125 296.3306287849097 L 1113.234375 294.7861835867966 L 1119.1875 293.3132183376172 L 1125.140625 291.90844411449956 L 1131.09375 290.5687498477705 L 1137.046875 289.29119104172196 L 1143 288.07297931962773 L 1148.953125 286.911472724785 L 1154.90625 285.80416671566104 L 1160.859375 284.74868579888357 L 1166.8125 283.7427757489074 L 1172.765625 282.78429636776923 L 1178.71875 281.87121474247397 L 1184.671875 281.0015989612814 L 1190.625 280.17361225352755 L 1196.578125 279.38550752065714 L 1202.53125 278.63562222889857 L 1208.484375 277.9223736365068 L 1214.4375 277.24425433076294 L 1220.390625 276.5998280519729 L 1226.34375 275.98772578357557 L 1232.296875 275.40664208916553 L 1238.25 274.85533167878447 L 1244.203125 274.3326061882402 L 1250.15625 273.8373311564985 L 1256.109375 273.3684231873641 L 1262.0625 272.9248472827376 L 1268.015625 272.50561433571573 L 1273.96875 272.10977877269545 L 1279.921875 271.73643633446466 L 1285.875 271.3847219870139 L 1291.828125 271.0538079534922 L 1297.78125 270.7429018593629 L 1303.734375 270.4512449833984 L 1309.6875 270.17811060768486 L 1315.640625 269.92280246030157 L 1321.59375 269.6846532447902 L 1327.546875 269.4630232509481 L 1333.5 269.2572990418623 L 1339.453125 269.0668922124567 L 1345.40625 268.8912382151509 L 1351.359375 268.72979524853247 L 1357.3125 268.58204320522293 L 1363.265625 268.44748267537636 L 1369.21875 268.32563400248824 L 1375.171875 268.21603638841447 L 1381.125 268.1182470447037 L 1387.078125 268.03184038753864 L 1393.03125 267.9564072737548 L 1398.984375 267.8915542755743 L 1404.9375 267.8369029918372 L 1410.890625 267.7920893936604 L 1416.84375 267.7567632025816 L 1422.796875 267.73058729936963 L 1428.75 267.71323716179484 L 1434.703125 267.70440032976 L 1440.65625 267.7037758962906 L 1446.609375 267.7110740229747 L 1452.5625 267.7260154785281 L 1458.515625 267.74833119924256 L 1464.46875 267.7777618701448 L 1470.421875 267.81405752576984 L 1476.375 267.8569771695114 L 1482.328125 267.90628841057713 L 1488.28125 267.96176711763064 L 1494.234375 268.023197088258 L 1500.1875 268.0903697334429 L 1506.140625 268.1630837762855 L 1512.09375 268.24114496423863 L 1518.046875 268.3243657941816 L 1524 268.4125652496852" stroke-opacity="0.8" stroke-linecap="round" stroke-linejoin="round" stroke-miterlimit="10" stroke-width="2.5"/><g transform="scale(19,19)"><g transform="translate(44.68421052631579,42.110718526315786)"><path fill="rgb(21,101,192)" stroke="none" paint-order="stroke fill markers" d=" M 0.28700000000000003 -0.683 L 0.209 -0.365 Q 0.271 -0.442 0.357 -0.442 Q 0.446 -0.442 0.467 -0.373 L 0.467 -0.372 Q 0.47200000000000003 -0.355 0.47200000000000003 -0.335 Q 0.47200000000000003 -0.279 0.41100000000000003 -0.115 Q 0.393 -0.07100000000000001 0.393 -0.044 Q 0.393 -0.011 0.417 -0.011 Q 0.47900000000000004 -0.011 0.515 -0.121 L 0.519 -0.135 Q 0.524 -0.151 0.529 -0.152 L 0.529 -0.153 L 0.534 -0.153 Q 0.546 -0.153 0.546 -0.14300000000000002 Q 0.546 -0.126 0.525 -0.08 Q 0.482 0.011 0.41500000000000004 0.011 Q 0.364 0.011 0.342 -0.032 Q 0.333 -0.05 0.333 -0.07100000000000001 Q 0.333 -0.089 0.34600000000000003 -0.126 Q 0.40800000000000003 -0.28400000000000003 0.40800000000000003 -0.35000000000000003 Q 0.40800000000000003 -0.42 0.354 -0.42 Q 0.306 -0.42 0.258 -0.385 Q 0.221 -0.356 0.193 -0.299 L 0.19 -0.293 Q 0.186 -0.269 0.179 -0.248 Q 0.17400000000000002 -0.225 0.162 -0.181 L 0.14 -0.091 L 0.121 -0.015 Q 0.114 0.006 0.09 0.01 Q 0.08700000000000001 0.011 0.084 0.011 Q 0.06 0.011 0.056 -0.01 Q 0.055 -0.014 0.055 -0.017 Q 0.055 -0.025 0.059000000000000004 -0.039 L 0.20400000000000001 -0.615 L 0.20700000000000002 -0.635 Q 0.20700000000000002 -0.646 0.193 -0.649 L 0.193 -0.649 Q 0.181 -0.652 0.157 -0.652 Q 0.135 -0.652 0.133 -0.664 Q 0.133 -0.681 0.152 -0.684 L 0.274 -0.6940000000000001 Q 0.28700000000000003 -0.6940000000000001 0.28700000000000003 -0.683 Z"/></g><g transform="translate(45.26021052631579,42.110718526315786)"><path fill="rgb(21,101,192)" stroke="none" paint-order="stroke fill markers" d=" M 0.331 0.24 L 0.331 0.24 Q 0.331 0.25 0.321 0.25 Q 0.309 0.25 0.268 0.209 Q 0.20600000000000002 0.147 0.165 0.062 Q 0.099 -0.074 0.099 -0.25 Q 0.099 -0.419 0.162 -0.555 Q 0.214 -0.666 0.294 -0.733 Q 0.315 -0.75 0.321 -0.75 Q 0.331 -0.75 0.331 -0.74 Q 0.331 -0.735 0.318 -0.723 Q 0.157 -0.559 0.157 -0.25 Q 0.157 0.058 0.314 0.218 Q 0.331 0.23500000000000001 0.331 0.24 Z"/></g><g transform="translate(45.64921052631579,42.110718526315786)"><path fill="rgb(21,101,192)" stroke="none" paint-order="stroke fill markers" d=" M 0.334 -0.302 L 0.3 -0.165 Q 0.28300000000000003 -0.097 0.28300000000000003 -0.077 Q 0.28300000000000003 -0.025 0.32 -0.014 Q 0.328 -0.011 0.338 -0.011 Q 0.388 -0.011 0.429 -0.061 Q 0.456 -0.093 0.47100000000000003 -0.14200000000000002 Q 0.47400000000000003 -0.153 0.484 -0.153 Q 0.496 -0.153 0.496 -0.14300000000000002 Q 0.496 -0.11800000000000001 0.465 -0.07100000000000001 Q 0.41100000000000003 0.011 0.336 0.011 Q 0.268 0.011 0.23700000000000002 -0.046 Q 0.231 -0.055 0.228 -0.065 Q 0.20400000000000001 -0.017 0.162 0.002 Q 0.14300000000000002 0.011 0.123 0.011 Q 0.063 0.011 0.039 -0.024 Q 0.029 -0.037 0.029 -0.055 Q 0.029 -0.092 0.061 -0.107 Q 0.07200000000000001 -0.113 0.084 -0.113 Q 0.114 -0.113 0.12 -0.088 Q 0.121 -0.083 0.121 -0.078 Q 0.121 -0.044 0.08700000000000001 -0.028 Q 0.081 -0.025 0.074 -0.024 Q 0.095 -0.011 0.124 -0.011 Q 0.177 -0.011 0.20800000000000002 -0.082 Q 0.214 -0.097 0.219 -0.115 Q 0.273 -0.319 0.273 -0.353 Q 0.267 -0.41500000000000004 0.219 -0.42 Q 0.167 -0.42 0.124 -0.367 L 0.124 -0.366 Q 0.124 -0.365 0.123 -0.365 Q 0.108 -0.34500000000000003 0.096 -0.319 Q 0.091 -0.307 0.08700000000000001 -0.295 L 0.085 -0.289 Q 0.083 -0.278 0.07200000000000001 -0.278 Q 0.06 -0.278 0.06 -0.28800000000000003 Q 0.06 -0.313 0.092 -0.36 Q 0.146 -0.442 0.221 -0.442 Q 0.298 -0.442 0.329 -0.366 Q 0.361 -0.428 0.41400000000000003 -0.44 Q 0.424 -0.442 0.434 -0.442 Q 0.493 -0.442 0.517 -0.40900000000000003 Q 0.527 -0.395 0.527 -0.376 Q 0.527 -0.335 0.49 -0.321 Q 0.481 -0.318 0.47300000000000003 -0.318 Q 0.442 -0.318 0.436 -0.34500000000000003 Q 0.435 -0.34900000000000003 0.435 -0.353 Q 0.435 -0.383 0.464 -0.4 Q 0.47300000000000003 -0.405 0.483 -0.40700000000000003 Q 0.462 -0.42 0.433 -0.42 Q 0.365 -0.42 0.337 -0.314 Q 0.335 -0.308 0.334 -0.302 Z"/></g><g transform="translate(46.221210526315794,42.110718526315786)"><path fill="rgb(21,101,192)" stroke="none" paint-order="stroke fill markers" d=" M 0.289 -0.25 L 0.289 -0.25 Q 0.289 -0.081 0.226 0.055 Q 0.17400000000000002 0.166 0.094 0.233 Q 0.073 0.25 0.067 0.25 Q 0.057 0.25 0.057 0.24 Q 0.057 0.23500000000000001 0.07 0.223 Q 0.231 0.059000000000000004 0.231 -0.25 Q 0.231 -0.555 0.081 -0.712 L 0.076 -0.717 Q 0.057 -0.735 0.057 -0.74 Q 0.057 -0.75 0.067 -0.75 Q 0.079 -0.75 0.12 -0.709 Q 0.182 -0.647 0.223 -0.562 Q 0.289 -0.426 0.289 -0.25 Z"/></g><g transform="translate(47.165766081871354,42.110718526315786)"><path fill="rgb(21,101,192)" stroke="none" paint-order="stroke fill markers" d=" M 0.687 -0.327 L 0.09 -0.327 Q 0.058 -0.327 0.056 -0.34700000000000003 Q 0.056 -0.367 0.089 -0.367 L 0.6880000000000001 -0.367 Q 0.72 -0.367 0.721 -0.34700000000000003 Q 0.721 -0.327 0.687 -0.327 M 0.6880000000000001 -0.133 L 0.089 -0.133 Q 0.057 -0.133 0.056 -0.153 Q 0.056 -0.17300000000000001 0.09 -0.17300000000000001 L 0.687 -0.17300000000000001 Q 0.719 -0.17300000000000001 0.721 -0.153 Q 0.721 -0.133 0.6880000000000001 -0.133 Z"/></g><g transform="translate(48.562243574894275,41.43421052631579)"><path fill="rgb(21,101,192)" stroke="none" paint-order="stroke fill markers" d=" M 0.177 -0.6940000000000001 L 0.177 -0.076 Q 0.177 -0.042 0.193 -0.036000000000000004 Q 0.20400000000000001 -0.031 0.255 -0.031 L 0.255 0 L 0.14400000000000002 -0.003 Q 0.132 -0.003 0.033 0 L 0.033 -0.031 Q 0.092 -0.031 0.10200000000000001 -0.04 L 0.10400000000000001 -0.042 Q 0.111 -0.05 0.111 -0.076 L 0.111 -0.596 Q 0.111 -0.635 0.097 -0.644 L 0.096 -0.644 Q 0.085 -0.65 0.058 -0.652 L 0.033 -0.652 L 0.033 -0.683 L 0.177 -0.6940000000000001 Z"/></g><g transform="translate(48.840243574894274,41.43421052631579)"><path fill="rgb(21,101,192)" stroke="none" paint-order="stroke fill markers" d=" M 0.11 -0.34400000000000003 Q 0.11 -0.383 0.095 -0.392 Q 0.083 -0.399 0.052000000000000005 -0.4 L 0.032 -0.4 L 0.032 -0.431 L 0.17300000000000001 -0.442 L 0.17300000000000001 -0.337 Q 0.22 -0.442 0.321 -0.442 Q 0.396 -0.442 0.426 -0.405 Q 0.453 -0.374 0.456 -0.32 Q 0.457 -0.301 0.457 -0.252 L 0.457 -0.061 Q 0.458 -0.037 0.486 -0.033 Q 0.498 -0.031 0.535 -0.031 L 0.535 0 Q 0.433 -0.003 0.423 -0.003 Q 0.41500000000000004 -0.003 0.31 0 L 0.31 -0.031 Q 0.369 -0.031 0.379 -0.04 L 0.381 -0.042 Q 0.388 -0.05 0.388 -0.076 L 0.388 -0.309 Q 0.388 -0.40800000000000003 0.331 -0.418 Q 0.323 -0.42 0.314 -0.42 Q 0.253 -0.42 0.212 -0.367 Q 0.179 -0.324 0.179 -0.26 L 0.179 -0.076 Q 0.179 -0.042 0.195 -0.036000000000000004 Q 0.20600000000000002 -0.031 0.257 -0.031 L 0.257 0 Q 0.155 -0.003 0.145 -0.003 Q 0.137 -0.003 0.032 0 L 0.032 -0.031 Q 0.091 -0.031 0.101 -0.04 L 0.10300000000000001 -0.042 Q 0.11 -0.05 0.11 -0.076 L 0.11 -0.34400000000000003 Z"/></g><g transform="translate(49.39624357489428,41.43421052631579)"><path fill="rgb(21,101,192)" stroke="none" paint-order="stroke fill markers" d=" M 0.331 0.24 L 0.331 0.24 Q 0.331 0.25 0.321 0.25 Q 0.309 0.25 0.268 0.209 Q 0.20600000000000002 0.147 0.165 0.062 Q 0.099 -0.074 0.099 -0.25 Q 0.099 -0.419 0.162 -0.555 Q 0.214 -0.666 0.294 -0.733 Q 0.315 -0.75 0.321 -0.75 Q 0.331 -0.75 0.331 -0.74 Q 0.331 -0.735 0.318 -0.723 Q 0.157 -0.559 0.157 -0.25 Q 0.157 0.058 0.314 0.218 Q 0.331 0.23500000000000001 0.331 0.24 Z"/></g><g transform="translate(49.78524357489428,41.43421052631579)"><path fill="rgb(21,101,192)" stroke="none" paint-order="stroke fill markers" d=" M 0.334 -0.302 L 0.3 -0.165 Q 0.28300000000000003 -0.097 0.28300000000000003 -0.077 Q 0.28300000000000003 -0.025 0.32 -0.014 Q 0.328 -0.011 0.338 -0.011 Q 0.388 -0.011 0.429 -0.061 Q 0.456 -0.093 0.47100000000000003 -0.14200000000000002 Q 0.47400000000000003 -0.153 0.484 -0.153 Q 0.496 -0.153 0.496 -0.14300000000000002 Q 0.496 -0.11800000000000001 0.465 -0.07100000000000001 Q 0.41100000000000003 0.011 0.336 0.011 Q 0.268 0.011 0.23700000000000002 -0.046 Q 0.231 -0.055 0.228 -0.065 Q 0.20400000000000001 -0.017 0.162 0.002 Q 0.14300000000000002 0.011 0.123 0.011 Q 0.063 0.011 0.039 -0.024 Q 0.029 -0.037 0.029 -0.055 Q 0.029 -0.092 0.061 -0.107 Q 0.07200000000000001 -0.113 0.084 -0.113 Q 0.114 -0.113 0.12 -0.088 Q 0.121 -0.083 0.121 -0.078 Q 0.121 -0.044 0.08700000000000001 -0.028 Q 0.081 -0.025 0.074 -0.024 Q 0.095 -0.011 0.124 -0.011 Q 0.177 -0.011 0.20800000000000002 -0.082 Q 0.214 -0.097 0.219 -0.115 Q 0.273 -0.319 0.273 -0.353 Q 0.267 -0.41500000000000004 0.219 -0.42 Q 0.167 -0.42 0.124 -0.367 L 0.124 -0.366 Q 0.124 -0.365 0.123 -0.365 Q 0.108 -0.34500000000000003 0.096 -0.319 Q 0.091 -0.307 0.08700000000000001 -0.295 L 0.085 -0.289 Q 0.083 -0.278 0.07200000000000001 -0.278 Q 0.06 -0.278 0.06 -0.28800000000000003 Q 0.06 -0.313 0.092 -0.36 Q 0.146 -0.442 0.221 -0.442 Q 0.298 -0.442 0.329 -0.366 Q 0.361 -0.428 0.41400000000000003 -0.44 Q 0.424 -0.442 0.434 -0.442 Q 0.493 -0.442 0.517 -0.40900000000000003 Q 0.527 -0.395 0.527 -0.376 Q 0.527 -0.335 0.49 -0.321 Q 0.481 -0.318 0.47300000000000003 -0.318 Q 0.442 -0.318 0.436 -0.34500000000000003 Q 0.435 -0.34900000000000003 0.435 -0.353 Q 0.435 -0.383 0.464 -0.4 Q 0.47300000000000003 -0.405 0.483 -0.40700000000000003 Q 0.462 -0.42 0.433 -0.42 Q 0.365 -0.42 0.337 -0.314 Q 0.335 -0.308 0.334 -0.302 Z"/></g><g transform="translate(50.357243574894284,41.43421052631579)"><path fill="rgb(21,101,192)" stroke="none" paint-order="stroke fill markers" d=" M 0.289 -0.25 L 0.289 -0.25 Q 0.289 -0.081 0.226 0.055 Q 0.17400000000000002 0.166 0.094 0.233 Q 0.073 0.25 0.067 0.25 Q 0.057 0.25 0.057 0.24 Q 0.057 0.23500000000000001 0.07 0.223 Q 0.231 0.059000000000000004 0.231 -0.25 Q 0.231 -0.555 0.081 -0.712 L 0.076 -0.717 Q 0.057 -0.735 0.057 -0.74 Q 0.057 -0.75 0.067 -0.75 Q 0.079 -0.75 0.12 -0.709 Q 0.182 -0.647 0.223 -0.562 Q 0.289 -0.426 0.289 -0.25 Z"/></g><rect fill="rgb(21,101,192)" stroke="none" x="48.562243574894275" y="41.84071902631579" width="2.184" height="0.039999"/><g transform="translate(49.36824357489427,42.79666952631579)"><path fill="rgb(21,101,192)" stroke="none" paint-order="stroke fill markers" d=" M 0.334 -0.302 L 0.3 -0.165 Q 0.28300000000000003 -0.097 0.28300000000000003 -0.077 Q 0.28300000000000003 -0.025 0.32 -0.014 Q 0.328 -0.011 0.338 -0.011 Q 0.388 -0.011 0.429 -0.061 Q 0.456 -0.093 0.47100000000000003 -0.14200000000000002 Q 0.47400000000000003 -0.153 0.484 -0.153 Q 0.496 -0.153 0.496 -0.14300000000000002 Q 0.496 -0.11800000000000001 0.465 -0.07100000000000001 Q 0.41100000000000003 0.011 0.336 0.011 Q 0.268 0.011 0.23700000000000002 -0.046 Q 0.231 -0.055 0.228 -0.065 Q 0.20400000000000001 -0.017 0.162 0.002 Q 0.14300000000000002 0.011 0.123 0.011 Q 0.063 0.011 0.039 -0.024 Q 0.029 -0.037 0.029 -0.055 Q 0.029 -0.092 0.061 -0.107 Q 0.07200000000000001 -0.113 0.084 -0.113 Q 0.114 -0.113 0.12 -0.088 Q 0.121 -0.083 0.121 -0.078 Q 0.121 -0.044 0.08700000000000001 -0.028 Q 0.081 -0.025 0.074 -0.024 Q 0.095 -0.011 0.124 -0.011 Q 0.177 -0.011 0.20800000000000002 -0.082 Q 0.214 -0.097 0.219 -0.115 Q 0.273 -0.319 0.273 -0.353 Q 0.267 -0.41500000000000004 0.219 -0.42 Q 0.167 -0.42 0.124 -0.367 L 0.124 -0.366 Q 0.124 -0.365 0.123 -0.365 Q 0.108 -0.34500000000000003 0.096 -0.319 Q 0.091 -0.307 0.08700000000000001 -0.295 L 0.085 -0.289 Q 0.083 -0.278 0.07200000000000001 -0.278 Q 0.06 -0.278 0.06 -0.28800000000000003 Q 0.06 -0.313 0.092 -0.36 Q 0.146 -0.442 0.221 -0.442 Q 0.298 -0.442 0.329 -0.366 Q 0.361 -0.428 0.41400000000000003 -0.44 Q 0.424 -0.442 0.434 -0.442 Q 0.493 -0.442 0.517 -0.40900000000000003 Q 0.527 -0.395 0.527 -0.376 Q 0.527 -0.335 0.49 -0.321 Q 0.481 -0.318 0.47300000000000003 -0.318 Q 0.442 -0.318 0.436 -0.34500000000000003 Q 0.435 -0.34900000000000003 0.435 -0.353 Q 0.435 -0.383 0.464 -0.4 Q 0.47300000000000003 -0.405 0.483 -0.40700000000000003 Q 0.462 -0.42 0.433 -0.42 Q 0.365 -0.42 0.337 -0.314 Q 0.335 -0.308 0.334 -0.302 Z"/></g></g><path fill="none" stroke="rgb(211,47,47)" paint-order="fill stroke markers" d=" M 0 538.128984901411 L 5.953125 539.248336711928 L 11.90625 540.3672516425071 L 17.859375 541.4852770253106 L 23.8125 542.6019425063037 L 29.765625 543.7167595236865 L 35.71875 544.8292207726332 L 41.671875 545.9387996559988 L 47.625 547.0449497206498 L 53.578125 548.1471040790657 L 59.53125 549.2446748158475 L 65.484375 550.3370523787652 L 71.4375 551.4236049539638 L 77.390625 552.50367782494 L 83.34375 553.5765927148936 L 89.296875 554.6416471120449 L 95.25 555.6981135775045 L 101.203125 556.7452390352684 L 107.15625 557.782244043902 L 113.109375 558.8083220494685 L 119.0625 559.8226386192434 L 125.015625 560.8243306557495 L 130.96875 561.8125055906328 L 136.921875 562.7862405578904 L 142.875 563.7445815459503 L 148.828125 564.6865425280882 L 154.78125 565.6111045706604 L 160.734375 566.5172149186105 L 166.6875 567.4037860577075 L 172.640625 568.2696947529455 L 178.59375 569.1137810625353 L 184.546875 569.9348473268974 L 190.5 570.7316571320514 L 196.453125 571.5029342467899 L 202.40625 572.2473615330005 L 208.359375 572.9635798284957 L 214.3125 573.6501868016855 L 220.265625 574.3057357774197 L 226.21875 574.9287345333057 L 232.171875 575.5176440657966 L 238.125 576.0708773253233 L 244.078125 576.5867979197297 L 250.03125 577.0637187852545 L 255.984375 577.499900824281 L 261.9375 577.8935515090634 L 267.890625 578.2428234506166 L 273.84375 578.5458129319377 L 279.796875 578.8005584047103 L 285.75 579.0050389486205 L 291.703125 579.1571726923958 L 297.65625 579.2548151956544 L 303.609375 579.2957577906359 L 309.5625 579.2777258828582 L 315.515625 579.1983772097258 L 321.46875 579.0553000560924 L 327.421875 578.8460114257581 L 333.375 578.5679551678543 L 339.328125 578.2185000570514 L 345.28125 577.7949378264942 L 351.234375 577.2944811523485 L 357.1875 576.7142615888139 L 363.140625 576.051327452435 L 369.09375 575.3026416545123 L 375.046875 574.4650794803896 L 381 573.5354263143648 L 386.953125 572.5103753089443 L 392.90625 571.3865249971292 L 398.859375 570.1603768463933 L 404.8125 568.8283327529821 L 410.765625 567.3866924751293 L 416.71875 565.8316510037575 L 422.671875 564.1592958691934 L 428.625 562.3656043823983 L 434.578125 560.4464408091774 L 440.53125 558.3975534757983 L 446.484375 556.2145718044103 L 452.4375 553.8930032766243 L 458.390625 551.4282303235691 L 464.34375 548.8155071407092 L 470.296875 546.0499564256618 L 476.25 543.1265660372179 L 482.203125 540.0401855737267 L 488.15625 536.7855228689625 L 494.109375 533.3571404035494 L 500.0625 529.7494516299778 L 506.015625 525.9567172091984 L 511.96875 521.9730411567355 L 517.921875 517.7923668962161 L 523.875 513.4084732181594 L 529.828125 508.8149701418271 L 535.78125 504.0052946778804 L 541.734375 498.97270648954327 L 547.6875 493.71028344991396 L 553.640625 488.2109170930181 L 559.59375 482.46730795613934 L 565.546875 476.47196081090794 L 571.5 470.217179780572 L 577.453125 463.69506334081615 L 583.40625 456.89749920143345 L 589.359375 449.8161590660956 L 595.3125 442.44249326740396 L 601.265625 434.7677252743394 L 607.21875 426.7828460691657 L 613.171875 418.47860839077293 L 619.125 409.8455208413791 L 625.078125 400.8738418534408 L 631.03125 391.5535735135505 L 636.984375 381.874455240025 L 639.9609375 376.89704753340106 L 642.9375 371.82595731081824 L 645.9140625 366.6598252169011 L 648.890625 361.3972742383119 L 651.8671875 356.0369094880907 L 654.84375 350.5773179874627 L 657.8203125 345.01706844508516 L 660.796875 339.3547110337033 L 663.7734375 333.58877716418664 L 666.75 327.71777925691526 L 669.7265625 321.7402105104858 L 672.703125 315.654544667707 L 675.6796875 309.4592357788536 L 678.65625 303.1527179621469 L 681.6328125 296.73340516143116 L 684.609375 290.19969090101347 L 687.5859375 283.5499480376343 L 690.5625 276.78252850953737 L 693.5390625 269.8957630826037 L 696.515625 262.88796109351875 L 699.4921875 255.75741018993685 L 702.46875 248.50237606761007 L 705.4453125 241.1211022044463 L 708.421875 233.6118095914618 L 711.3984375 225.97269646059283 L 714.375 218.20193800933052 L 717.3515625 210.29768612214326 L 720.328125 202.25806908864956 L 723.3046875 194.08119131850444 L 726.28125 185.76513305296282 L 729.2578125 177.30795007308095 L 732.234375 168.7076734045183 L 735.2109375 159.9623090189017 L 738.1875 151.06983753171164 L 741.1640625 142.02821389665218 L 744.140625 132.83536709646398 L 747.1171875 123.48919983014042 L 750.09375 113.9875881965059 L 753.0703125 104.32838137411454 L 756.046875 94.50940129742884 L 759.0234375 84.528442329234 L 760.51171875 79.47652387858625 L 762 74.38327092924783 L 763.48828125 69.24839987382904 L 764.9765625 64.07162531888093 L 766.46484375 58.85266007420546 L 767.953125 53.591215142104204 L 769.44140625 48.28699970656379 L 770.9296875 42.93972112238026 L 772.41796875 37.54908490421923 L 773.90625 32.114794715613414 L 775.39453125 26.636552357896505 L 776.8828125 21.11405775907292 L 778.37109375 15.547008962623067 L 779.859375 9.935102116244536 L 781.34765625 4.278031460527359 L 782.8359375 -1.4245106824355958 L 784.32421875 -7.172833920504161" stroke-opacity="0.8" stroke-linecap="round" stroke-linejoin="round" stroke-miterlimit="10" stroke-width="2.5"/><g transform="scale(19,19)"><g transform="translate(3.5789473684210527,28.276315789473685)"><path fill="rgb(211,47,47)" stroke="none" paint-order="stroke fill markers" d=" M 0.47100000000000003 -0.377 L 0.47100000000000003 -0.377 L 0.36 0.067 Q 0.34500000000000003 0.127 0.28200000000000003 0.168 Q 0.224 0.20500000000000002 0.148 0.20500000000000002 Q 0.025 0.20500000000000002 0.016 0.155 Q 0.015 0.15 0.015 0.14400000000000002 Q 0.015 0.10300000000000001 0.052000000000000005 0.089 Q 0.061 0.08600000000000001 0.069 0.08600000000000001 Q 0.1 0.08600000000000001 0.106 0.113 Q 0.107 0.117 0.107 0.121 Q 0.107 0.153 0.077 0.169 Q 0.07200000000000001 0.171 0.066 0.17300000000000001 Q 0.097 0.183 0.146 0.183 Q 0.244 0.183 0.29 0.075 L 0.323 -0.057 L 0.322 -0.058 Q 0.277 -0.008 0.221 -0.001 Q 0.213 0 0.20600000000000002 0 Q 0.136 0 0.098 -0.061 Q 0.073 -0.10200000000000001 0.073 -0.158 Q 0.073 -0.265 0.149 -0.354 Q 0.219 -0.436 0.3 -0.442 L 0.311 -0.442 Q 0.365 -0.442 0.398 -0.391 L 0.404 -0.379 Q 0.41300000000000003 -0.417 0.445 -0.422 Q 0.47100000000000003 -0.422 0.47400000000000003 -0.395 L 0.47100000000000003 -0.377 M 0.341 -0.128 L 0.341 -0.128 L 0.389 -0.319 Q 0.392 -0.331 0.392 -0.334 Q 0.392 -0.354 0.375 -0.382 L 0.375 -0.382 Q 0.363 -0.402 0.34500000000000003 -0.41200000000000003 Q 0.33 -0.42 0.312 -0.42 Q 0.26 -0.42 0.213 -0.353 Q 0.20600000000000002 -0.342 0.2 -0.331 Q 0.168 -0.271 0.149 -0.164 Q 0.14400000000000002 -0.133 0.14400000000000002 -0.114 Q 0.14400000000000002 -0.048 0.182 -0.028 Q 0.193 -0.022 0.209 -0.022 Q 0.248 -0.022 0.29 -0.058 Q 0.334 -0.096 0.341 -0.128 Z"/></g><g transform="translate(4.091947368421053,28.276315789473685)"><path fill="rgb(211,47,47)" stroke="none" paint-order="stroke fill markers" d=" M 0.331 0.24 L 0.331 0.24 Q 0.331 0.25 0.321 0.25 Q 0.309 0.25 0.268 0.209 Q 0.20600000000000002 0.147 0.165 0.062 Q 0.099 -0.074 0.099 -0.25 Q 0.099 -0.419 0.162 -0.555 Q 0.214 -0.666 0.294 -0.733 Q 0.315 -0.75 0.321 -0.75 Q 0.331 -0.75 0.331 -0.74 Q 0.331 -0.735 0.318 -0.723 Q 0.157 -0.559 0.157 -0.25 Q 0.157 0.058 0.314 0.218 Q 0.331 0.23500000000000001 0.331 0.24 Z"/></g><g transform="translate(4.480947368421053,28.276315789473685)"><path fill="rgb(211,47,47)" stroke="none" paint-order="stroke fill markers" d=" M 0.334 -0.302 L 0.3 -0.165 Q 0.28300000000000003 -0.097 0.28300000000000003 -0.077 Q 0.28300000000000003 -0.025 0.32 -0.014 Q 0.328 -0.011 0.338 -0.011 Q 0.388 -0.011 0.429 -0.061 Q 0.456 -0.093 0.47100000000000003 -0.14200000000000002 Q 0.47400000000000003 -0.153 0.484 -0.153 Q 0.496 -0.153 0.496 -0.14300000000000002 Q 0.496 -0.11800000000000001 0.465 -0.07100000000000001 Q 0.41100000000000003 0.011 0.336 0.011 Q 0.268 0.011 0.23700000000000002 -0.046 Q 0.231 -0.055 0.228 -0.065 Q 0.20400000000000001 -0.017 0.162 0.002 Q 0.14300000000000002 0.011 0.123 0.011 Q 0.063 0.011 0.039 -0.024 Q 0.029 -0.037 0.029 -0.055 Q 0.029 -0.092 0.061 -0.107 Q 0.07200000000000001 -0.113 0.084 -0.113 Q 0.114 -0.113 0.12 -0.088 Q 0.121 -0.083 0.121 -0.078 Q 0.121 -0.044 0.08700000000000001 -0.028 Q 0.081 -0.025 0.074 -0.024 Q 0.095 -0.011 0.124 -0.011 Q 0.177 -0.011 0.20800000000000002 -0.082 Q 0.214 -0.097 0.219 -0.115 Q 0.273 -0.319 0.273 -0.353 Q 0.267 -0.41500000000000004 0.219 -0.42 Q 0.167 -0.42 0.124 -0.367 L 0.124 -0.366 Q 0.124 -0.365 0.123 -0.365 Q 0.108 -0.34500000000000003 0.096 -0.319 Q 0.091 -0.307 0.08700000000000001 -0.295 L 0.085 -0.289 Q 0.083 -0.278 0.07200000000000001 -0.278 Q 0.06 -0.278 0.06 -0.28800000000000003 Q 0.06 -0.313 0.092 -0.36 Q 0.146 -0.442 0.221 -0.442 Q 0.298 -0.442 0.329 -0.366 Q 0.361 -0.428 0.41400000000000003 -0.44 Q 0.424 -0.442 0.434 -0.442 Q 0.493 -0.442 0.517 -0.40900000000000003 Q 0.527 -0.395 0.527 -0.376 Q 0.527 -0.335 0.49 -0.321 Q 0.481 -0.318 0.47300000000000003 -0.318 Q 0.442 -0.318 0.436 -0.34500000000000003 Q 0.435 -0.34900000000000003 0.435 -0.353 Q 0.435 -0.383 0.464 -0.4 Q 0.47300000000000003 -0.405 0.483 -0.40700000000000003 Q 0.462 -0.42 0.433 -0.42 Q 0.365 -0.42 0.337 -0.314 Q 0.335 -0.308 0.334 -0.302 Z"/></g><g transform="translate(5.052947368421053,28.276315789473685)"><path fill="rgb(211,47,47)" stroke="none" paint-order="stroke fill markers" d=" M 0.289 -0.25 L 0.289 -0.25 Q 0.289 -0.081 0.226 0.055 Q 0.17400000000000002 0.166 0.094 0.233 Q 0.073 0.25 0.067 0.25 Q 0.057 0.25 0.057 0.24 Q 0.057 0.23500000000000001 0.07 0.223 Q 0.231 0.059000000000000004 0.231 -0.25 Q 0.231 -0.555 0.081 -0.712 L 0.076 -0.717 Q 0.057 -0.735 0.057 -0.74 Q 0.057 -0.75 0.067 -0.75 Q 0.079 -0.75 0.12 -0.709 Q 0.182 -0.647 0.223 -0.562 Q 0.289 -0.426 0.289 -0.25 Z"/></g><g transform="translate(5.997502923976609,28.276315789473685)"><path fill="rgb(211,47,47)" stroke="none" paint-order="stroke fill markers" d=" M 0.687 -0.327 L 0.09 -0.327 Q 0.058 -0.327 0.056 -0.34700000000000003 Q 0.056 -0.367 0.089 -0.367 L 0.6880000000000001 -0.367 Q 0.72 -0.367 0.721 -0.34700000000000003 Q 0.721 -0.327 0.687 -0.327 M 0.6880000000000001 -0.133 L 0.089 -0.133 Q 0.057 -0.133 0.056 -0.153 Q 0.056 -0.17300000000000001 0.09 -0.17300000000000001 L 0.687 -0.17300000000000001 Q 0.719 -0.17300000000000001 0.721 -0.153 Q 0.721 -0.133 0.6880000000000001 -0.133 Z"/></g><g transform="translate(7.331058479532164,28.276315789473685)"><path fill="rgb(211,47,47)" stroke="none" paint-order="stroke fill markers" d=" M 0.334 -0.302 L 0.3 -0.165 Q 0.28300000000000003 -0.097 0.28300000000000003 -0.077 Q 0.28300000000000003 -0.025 0.32 -0.014 Q 0.328 -0.011 0.338 -0.011 Q 0.388 -0.011 0.429 -0.061 Q 0.456 -0.093 0.47100000000000003 -0.14200000000000002 Q 0.47400000000000003 -0.153 0.484 -0.153 Q 0.496 -0.153 0.496 -0.14300000000000002 Q 0.496 -0.11800000000000001 0.465 -0.07100000000000001 Q 0.41100000000000003 0.011 0.336 0.011 Q 0.268 0.011 0.23700000000000002 -0.046 Q 0.231 -0.055 0.228 -0.065 Q 0.20400000000000001 -0.017 0.162 0.002 Q 0.14300000000000002 0.011 0.123 0.011 Q 0.063 0.011 0.039 -0.024 Q 0.029 -0.037 0.029 -0.055 Q 0.029 -0.092 0.061 -0.107 Q 0.07200000000000001 -0.113 0.084 -0.113 Q 0.114 -0.113 0.12 -0.088 Q 0.121 -0.083 0.121 -0.078 Q 0.121 -0.044 0.08700000000000001 -0.028 Q 0.081 -0.025 0.074 -0.024 Q 0.095 -0.011 0.124 -0.011 Q 0.177 -0.011 0.20800000000000002 -0.082 Q 0.214 -0.097 0.219 -0.115 Q 0.273 -0.319 0.273 -0.353 Q 0.267 -0.41500000000000004 0.219 -0.42 Q 0.167 -0.42 0.124 -0.367 L 0.124 -0.366 Q 0.124 -0.365 0.123 -0.365 Q 0.108 -0.34500000000000003 0.096 -0.319 Q 0.091 -0.307 0.08700000000000001 -0.295 L 0.085 -0.289 Q 0.083 -0.278 0.07200000000000001 -0.278 Q 0.06 -0.278 0.06 -0.28800000000000003 Q 0.06 -0.313 0.092 -0.36 Q 0.146 -0.442 0.221 -0.442 Q 0.298 -0.442 0.329 -0.366 Q 0.361 -0.428 0.41400000000000003 -0.44 Q 0.424 -0.442 0.434 -0.442 Q 0.493 -0.442 0.517 -0.40900000000000003 Q 0.527 -0.395 0.527 -0.376 Q 0.527 -0.335 0.49 -0.321 Q 0.481 -0.318 0.47300000000000003 -0.318 Q 0.442 -0.318 0.436 -0.34500000000000003 Q 0.435 -0.34900000000000003 0.435 -0.353 Q 0.435 -0.383 0.464 -0.4 Q 0.47300000000000003 -0.405 0.483 -0.40700000000000003 Q 0.462 -0.42 0.433 -0.42 Q 0.365 -0.42 0.337 -0.314 Q 0.335 -0.308 0.334 -0.302 Z"/></g><g transform="translate(8.180836257309942,28.276315789473685)"><path fill="rgb(211,47,47)" stroke="none" paint-order="stroke fill markers" d=" M 0.2548828125 0.01123046875 Q 0.220703125 0.01123046875 0.193603515625 -0.00341796875 Q 0.16650390625 -0.01806640625 0.14794921875 -0.044677734375 Q 0.12939453125 -0.0712890625 0.12060546875 -0.101806640625 Q 0.11181640625 -0.13232421875 0.11181640625 -0.1650390625 Q 0.11181640625 -0.216796875 0.130615234375 -0.266357421875 Q 0.1494140625 -0.31591796875 0.18359375 -0.35595703125 Q 0.2177734375 -0.39599609375 0.264404296875 -0.4189453125 Q 0.31103515625 -0.44189453125 0.36376953125 -0.44189453125 Q 0.3896484375 -0.44189453125 0.412841796875 -0.43212890625 Q 0.43603515625 -0.42236328125 0.450439453125 -0.403076171875 Q 0.46484375 -0.3837890625 0.46484375 -0.35693359375 Q 0.46484375 -0.27587890625 0.387451171875 -0.25244140625 Q 0.31005859375 -0.22900390625 0.205078125 -0.22900390625 L 0.2021484375 -0.22900390625 Q 0.18505859375 -0.16259765625 0.18505859375 -0.12109375 Q 0.18505859375 -0.0810546875 0.202392578125 -0.048095703125 Q 0.2197265625 -0.01513671875 0.2568359375 -0.01513671875 Q 0.3095703125 -0.01513671875 0.359130859375 -0.043701171875 Q 0.40869140625 -0.072265625 0.44189453125 -0.1181640625 Q 0.443359375 -0.12109375 0.44921875 -0.12109375 Q 0.455078125 -0.12109375 0.4658203125 -0.10693359375 Q 0.4677734375 -0.10595703125 0.4677734375 -0.10107421875 Q 0.4677734375 -0.09716796875 0.4658203125 -0.09521484375 Q 0.44287109375 -0.0625 0.4091796875 -0.038330078125 Q 0.37548828125 -0.01416015625 0.33544921875 -0.00146484375 Q 0.29541015625 0.01123046875 0.2548828125 0.01123046875 M 0.2080078125 -0.2548828125 Q 0.26318359375 -0.2548828125 0.3076171875 -0.260498046875 Q 0.35205078125 -0.26611328125 0.387451171875 -0.288818359375 Q 0.4228515625 -0.3115234375 0.4228515625 -0.35693359375 Q 0.4228515625 -0.3828125 0.4052734375 -0.3994140625 Q 0.3876953125 -0.416015625 0.36181640625 -0.416015625 Q 0.3037109375 -0.416015625 0.265380859375 -0.368896484375 Q 0.22705078125 -0.32177734375 0.2080078125 -0.2548828125 Z"/></g><g transform="translate(8.640836257309942,27.863423789473686) scale(0.7,0.7)"><path fill="rgb(211,47,47)" stroke="none" paint-order="stroke fill markers" d=" M 0.334 -0.302 L 0.3 -0.165 Q 0.28300000000000003 -0.097 0.28300000000000003 -0.077 Q 0.28300000000000003 -0.025 0.32 -0.014 Q 0.328 -0.011 0.338 -0.011 Q 0.388 -0.011 0.429 -0.061 Q 0.456 -0.093 0.47100000000000003 -0.14200000000000002 Q 0.47400000000000003 -0.153 0.484 -0.153 Q 0.496 -0.153 0.496 -0.14300000000000002 Q 0.496 -0.11800000000000001 0.465 -0.07100000000000001 Q 0.41100000000000003 0.011 0.336 0.011 Q 0.268 0.011 0.23700000000000002 -0.046 Q 0.231 -0.055 0.228 -0.065 Q 0.20400000000000001 -0.017 0.162 0.002 Q 0.14300000000000002 0.011 0.123 0.011 Q 0.063 0.011 0.039 -0.024 Q 0.029 -0.037 0.029 -0.055 Q 0.029 -0.092 0.061 -0.107 Q 0.07200000000000001 -0.113 0.084 -0.113 Q 0.114 -0.113 0.12 -0.088 Q 0.121 -0.083 0.121 -0.078 Q 0.121 -0.044 0.08700000000000001 -0.028 Q 0.081 -0.025 0.074 -0.024 Q 0.095 -0.011 0.124 -0.011 Q 0.177 -0.011 0.20800000000000002 -0.082 Q 0.214 -0.097 0.219 -0.115 Q 0.273 -0.319 0.273 -0.353 Q 0.267 -0.41500000000000004 0.219 -0.42 Q 0.167 -0.42 0.124 -0.367 L 0.124 -0.366 Q 0.124 -0.365 0.123 -0.365 Q 0.108 -0.34500000000000003 0.096 -0.319 Q 0.091 -0.307 0.08700000000000001 -0.295 L 0.085 -0.289 Q 0.083 -0.278 0.07200000000000001 -0.278 Q 0.06 -0.278 0.06 -0.28800000000000003 Q 0.06 -0.313 0.092 -0.36 Q 0.146 -0.442 0.221 -0.442 Q 0.298 -0.442 0.329 -0.366 Q 0.361 -0.428 0.41400000000000003 -0.44 Q 0.424 -0.442 0.434 -0.442 Q 0.493 -0.442 0.517 -0.40900000000000003 Q 0.527 -0.395 0.527 -0.376 Q 0.527 -0.335 0.49 -0.321 Q 0.481 -0.318 0.47300000000000003 -0.318 Q 0.442 -0.318 0.436 -0.34500000000000003 Q 0.435 -0.34900000000000003 0.435 -0.353 Q 0.435 -0.383 0.464 -0.4 Q 0.47300000000000003 -0.405 0.483 -0.40700000000000003 Q 0.462 -0.42 0.433 -0.42 Q 0.365 -0.42 0.337 -0.314 Q 0.335 -0.308 0.334 -0.302 Z"/></g></g><path fill="none" stroke="rgb(199,80,0)" paint-order="fill stroke markers" d=" M 434.578125 855.3280196815717 L 436.06640625 849.5705029008926 L 437.5546875 843.8588293694982 L 439.04296875 838.1926890921575 L 440.53125 832.5717740058915 L 442.01953125 826.9957779685042 L 443.5078125 821.4643967471794 L 444.99609375 815.977328007144 L 446.484375 810.5342713003951 L 447.97265625 805.134928054493 L 449.4609375 799.7790015614182 L 450.94921875 794.4661969664918 L 452.4375 789.1962212573608 L 453.92578125 783.968783253046 L 455.4140625 778.783593593053 L 456.90234375 773.6403647265458 L 458.390625 768.538810901583 L 459.87890625 763.4786481544152 L 461.3671875 758.4595942988444 L 464.34375 748.5436933420476 L 467.3203125 738.7888856921494 L 470.296875 729.1929767801589 L 473.2734375 719.7537994772738 L 476.25 710.4692137688055 L 479.2265625 701.3371064318511 L 482.203125 692.355390716669 L 485.1796875 683.5220060317171 L 488.15625 674.8349176323122 L 491.1328125 666.292116312871 L 494.109375 657.8916181026915 L 497.0859375 649.631463965235 L 500.0625 641.5097195008694 L 503.0390625 633.5244746530366 L 506.015625 625.6738434178026 L 508.9921875 617.9559635567543 L 511.96875 610.3689963132058 L 514.9453125 602.9111261316749 L 517.921875 595.580560380595 L 520.8984375 588.3755290782249 L 523.875 581.294284621721 L 526.8515625 574.3351015193368 L 529.828125 567.4962761257127 L 532.8046875 560.7761263802238 L 535.78125 554.1729915483493 L 538.7578125 547.6852319660303 L 541.734375 541.3112287869824 L 544.7109375 535.0493837329296 L 547.6875 528.8981188467268 L 550.6640625 522.8558762483376 L 553.640625 516.9211178936367 L 556.6171875 511.09232533600334 L 559.59375 505.36799949067563 L 562.5703125 499.74666040183376 L 565.546875 494.2268470123823 L 568.5234375 488.8071169363994 L 571.5 483.4860462342251 L 574.4765625 478.262229190157 L 577.453125 473.13427809272446 L 583.40625 463.1605116125094 L 589.359375 453.5539969965605 L 595.3125 444.3042588759708 L 601.265625 435.4010897156406 L 607.21875 426.8345433723979 L 613.171875 418.59492880211667 L 619.125 410.67280391247715 L 625.078125 403.05896955809044 L 631.03125 395.7444636747786 L 636.984375 388.72055554987384 L 642.9375 381.97874022547023 L 648.890625 375.51073303162775 L 654.84375 369.30846424659495 L 660.796875 363.3640738811835 L 666.75 357.6699065844876 L 672.703125 352.21850666820666 L 678.65625 347.0026132468892 L 684.609375 342.01515549147393 L 690.5625 337.24924799356455 L 696.515625 332.6981862379299 L 702.46875 328.355442180777 L 708.421875 324.2146599313994 L 714.375 320.2696515348556 L 720.328125 316.51439285338586 L 726.28125 312.94301954432416 L 732.234375 309.5498231323145 L 738.1875 306.32924717368775 L 744.140625 303.27588351090304 L 750.09375 300.3844686150053 L 756.046875 297.64988001409483 L 762 295.06713280584984 L 767.953125 292.6313762521878 L 773.90625 290.33789045419087 L 779.859375 288.1820831054663 L 785.8125 286.15948632215077 L 791.765625 284.2657535478081 L 797.71875 282.49665653150987 L 803.671875 280.8480823774255 L 809.625 279.31603066428545 L 815.578125 277.8966106331198 L 821.53125 276.586038441707 L 827.484375 275.38063448420576 L 833.4375 274.276820774475 L 839.390625 273.2711183916201 L 845.34375 272.3601449863397 L 851.296875 271.5406123466734 L 857.25 270.80932402178837 L 863.203125 270.1631730024685 L 869.15625 269.59913945700225 L 875.109375 269.11428852119417 L 881.0625 268.70576814125275 L 887.015625 268.3708069683367 L 892.96875 268.10671230356746 L 898.921875 267.9108680923441 L 904.875 267.78073296682214 L 910.828125 267.71383833544246 L 916.78125 267.70778651842454 L 922.734375 267.7602489281584 L 928.6875 267.8689642934575 L 934.640625 268.03173692665666 L 940.59375 268.24643503256016 L 946.546875 268.5109890582718 L 952.5 268.8233900829563 L 958.453125 269.1816882466054 L 964.40625 269.58399121690263 L 970.359375 270.0284626932995 L 976.3125 270.51332094743816 L 982.265625 271.03683739907467 L 988.21875 271.597335226674 L 994.171875 272.1931880118692 L 1000.125 272.8228184169959 L 1006.078125 273.4846968949262 L 1012.03125 274.1773404304513 L 1017.984375 274.8993113124727 L 1023.9375 275.64921593628117 L 1029.890625 276.42570363521963 L 1035.84375 277.2274655410413 L 1041.796875 278.0532334722897 L 1047.75 278.9017788500431 L 1053.703125 279.7719116403805 L 1059.65625 280.66247932294164 L 1065.609375 281.57236588496687 L 1071.5625 282.50049084021674 L 1077.515625 283.4458082721861 L 1083.46875 284.40730590103925 L 1089.421875 285.38400417370633 L 1095.375 286.37495537659504 L 1101.328125 287.37924277038195 L 1107.28125 288.3959797463623 L 1113.234375 289.42430900384716 L 1119.1875 290.4634017481103 L 1125.140625 291.5124569083967 L 1131.09375 292.5707003755169 L 1137.046875 293.63738425856263 L 1143 294.71178616028885 L 1148.953125 295.79320847071784 L 1154.90625 296.8809776785322 L 1160.859375 297.97444369983236 L 1166.8125 299.0729792238453 L 1172.765625 300.1759790751782 L 1178.71875 301.28285959222376 L 1184.671875 302.39305802133 L 1190.625 303.50603192635657 L 1196.578125 304.6212586132509 L 1202.53125 305.73823456928153 L 1208.484375 306.85647491657966 L 1214.4375 307.97551287964296 L 1220.390625 309.094899266467 L 1226.34375 310.2142019629764 L 1232.296875 311.3330054404347 L 1238.25 312.45091027552104 L 1244.203125 313.5675326827667 L 1250.15625 314.6825040590539 L 1256.109375 315.7954705398848 L 1262.0625 316.9060925671355 L 1268.015625 318.0140444680175 L 1273.96875 319.11901404497416 L 1279.921875 320.2207021762466 L 1285.875 321.31882242685026 L 1291.828125 322.41310066970874 L 1297.78125 323.5032747166967 L 1303.734375 324.58909395935154 L 1309.6875 325.67031901901703 L 1315.640625 326.7467214061881 L 1321.59375 327.81808318883316 L 1327.546875 328.88419666947266 L 1333.5 329.94486407079955 L 1339.453125 330.9998972296329 L 1345.40625 332.04911729899896 L 1351.359375 333.09235445814 L 1357.3125 334.12944763025604 L 1363.265625 335.1602442077883 L 1369.21875 336.1845997850587 L 1375.171875 337.2023778980836 L 1381.125 338.21344977138364 L 1387.078125 339.21769407161713 L 1393.03125 340.21499666786764 L 1398.984375 341.2052503984199 L 1404.9375 342.18835484386364 L 1410.890625 343.1642161063671 L 1416.84375 344.132746594967 L 1422.796875 345.0938648167237 L 1428.75 346.047495173597 L 1434.703125 346.9935677648972 L 1440.65625 347.9320181951733 L 1446.609375 348.86278738740106 L 1452.5625 349.78582140133807 L 1458.515625 350.7010712569162 L 1464.46875 351.60849276254373 L 1470.421875 352.50804634819417 L 1476.375 353.3996969031597 L 1482.328125 354.2834136183528 L 1488.28125 355.1591698330396 L 1494.234375 356.0269428858922 L 1500.1875 356.8867139702523 L 1506.140625 357.7384679934962 L 1512.09375 358.58219344039884 L 1518.046875 359.4178822403936 L 1524 360.24552963862885" stroke-opacity="0.8" stroke-linecap="round" stroke-linejoin="round" stroke-miterlimit="10" stroke-width="2.5"/><g transform="scale(19,19)"><g transform="translate(26,42.475929052631585)"><path fill="rgb(199,80,0)" stroke="none" paint-order="stroke fill markers" d=" M 0.045 0.122 L 0.045 0.122 L 0.157 -0.323 Q 0.164 -0.353 0.164 -0.374 Q 0.164 -0.42 0.133 -0.42 Q 0.092 -0.42 0.066 -0.325 Q 0.063 -0.314 0.06 -0.301 Q 0.049 -0.279 0.043000000000000003 -0.278 Q 0.031 -0.278 0.031 -0.28800000000000003 Q 0.031 -0.304 0.049 -0.355 Q 0.056 -0.373 0.062 -0.385 Q 0.08600000000000001 -0.434 0.122 -0.441 Q 0.129 -0.442 0.136 -0.442 Q 0.19 -0.442 0.215 -0.398 L 0.215 -0.397 Q 0.223 -0.384 0.226 -0.367 Q 0.289 -0.442 0.357 -0.442 Q 0.428 -0.442 0.466 -0.378 Q 0.488 -0.333 0.49 -0.28200000000000003 Q 0.49 -0.17400000000000002 0.41400000000000003 -0.082 Q 0.34500000000000003 0.002 0.263 0.01 Q 0.256 0.011 0.249 0.011 Q 0.186 0.011 0.157 -0.053 Q 0.12 0.079 0.109 0.14100000000000001 Q 0.108 0.146 0.108 0.147 Q 0.108 0.158 0.121 0.161 L 0.122 0.161 L 0.122 0.161 Q 0.134 0.163 0.158 0.163 Q 0.18 0.163 0.182 0.17400000000000002 Q 0.182 0.194 0.164 0.194 L 0.066 0.191 L 0.065 0.191 L -0.017 0.194 L -0.019 0.194 Q -0.032 0.194 -0.032 0.182 Q -0.026000000000000002 0.164 -0.009000000000000001 0.163 Q 0.028 0.163 0.036000000000000004 0.15 L 0.037 0.149 Q 0.039 0.145 0.041 0.138 Q 0.042 0.133 0.045 0.122 M 0.221 -0.312 L 0.221 -0.312 L 0.17200000000000001 -0.116 Q 0.169 -0.10400000000000001 0.169 -0.1 Q 0.169 -0.077 0.187 -0.048 Q 0.198 -0.029 0.215 -0.019 Q 0.23 -0.011 0.248 -0.011 Q 0.299 -0.011 0.34400000000000003 -0.075 Q 0.357 -0.093 0.367 -0.114 Q 0.394 -0.171 0.41200000000000003 -0.268 Q 0.418 -0.303 0.418 -0.326 Q 0.418 -0.405 0.37 -0.418 Q 0.362 -0.42 0.354 -0.42 Q 0.316 -0.42 0.273 -0.382 Q 0.23 -0.34600000000000003 0.221 -0.312 Z"/></g><g transform="translate(26.503,42.475929052631585)"><path fill="rgb(199,80,0)" stroke="none" paint-order="stroke fill markers" d=" M 0.331 0.24 L 0.331 0.24 Q 0.331 0.25 0.321 0.25 Q 0.309 0.25 0.268 0.209 Q 0.20600000000000002 0.147 0.165 0.062 Q 0.099 -0.074 0.099 -0.25 Q 0.099 -0.419 0.162 -0.555 Q 0.214 -0.666 0.294 -0.733 Q 0.315 -0.75 0.321 -0.75 Q 0.331 -0.75 0.331 -0.74 Q 0.331 -0.735 0.318 -0.723 Q 0.157 -0.559 0.157 -0.25 Q 0.157 0.058 0.314 0.218 Q 0.331 0.23500000000000001 0.331 0.24 Z"/></g><g transform="translate(26.892,42.475929052631585)"><path fill="rgb(199,80,0)" stroke="none" paint-order="stroke fill markers" d=" M 0.334 -0.302 L 0.3 -0.165 Q 0.28300000000000003 -0.097 0.28300000000000003 -0.077 Q 0.28300000000000003 -0.025 0.32 -0.014 Q 0.328 -0.011 0.338 -0.011 Q 0.388 -0.011 0.429 -0.061 Q 0.456 -0.093 0.47100000000000003 -0.14200000000000002 Q 0.47400000000000003 -0.153 0.484 -0.153 Q 0.496 -0.153 0.496 -0.14300000000000002 Q 0.496 -0.11800000000000001 0.465 -0.07100000000000001 Q 0.41100000000000003 0.011 0.336 0.011 Q 0.268 0.011 0.23700000000000002 -0.046 Q 0.231 -0.055 0.228 -0.065 Q 0.20400000000000001 -0.017 0.162 0.002 Q 0.14300000000000002 0.011 0.123 0.011 Q 0.063 0.011 0.039 -0.024 Q 0.029 -0.037 0.029 -0.055 Q 0.029 -0.092 0.061 -0.107 Q 0.07200000000000001 -0.113 0.084 -0.113 Q 0.114 -0.113 0.12 -0.088 Q 0.121 -0.083 0.121 -0.078 Q 0.121 -0.044 0.08700000000000001 -0.028 Q 0.081 -0.025 0.074 -0.024 Q 0.095 -0.011 0.124 -0.011 Q 0.177 -0.011 0.20800000000000002 -0.082 Q 0.214 -0.097 0.219 -0.115 Q 0.273 -0.319 0.273 -0.353 Q 0.267 -0.41500000000000004 0.219 -0.42 Q 0.167 -0.42 0.124 -0.367 L 0.124 -0.366 Q 0.124 -0.365 0.123 -0.365 Q 0.108 -0.34500000000000003 0.096 -0.319 Q 0.091 -0.307 0.08700000000000001 -0.295 L 0.085 -0.289 Q 0.083 -0.278 0.07200000000000001 -0.278 Q 0.06 -0.278 0.06 -0.28800000000000003 Q 0.06 -0.313 0.092 -0.36 Q 0.146 -0.442 0.221 -0.442 Q 0.298 -0.442 0.329 -0.366 Q 0.361 -0.428 0.41400000000000003 -0.44 Q 0.424 -0.442 0.434 -0.442 Q 0.493 -0.442 0.517 -0.40900000000000003 Q 0.527 -0.395 0.527 -0.376 Q 0.527 -0.335 0.49 -0.321 Q 0.481 -0.318 0.47300000000000003 -0.318 Q 0.442 -0.318 0.436 -0.34500000000000003 Q 0.435 -0.34900000000000003 0.435 -0.353 Q 0.435 -0.383 0.464 -0.4 Q 0.47300000000000003 -0.405 0.483 -0.40700000000000003 Q 0.462 -0.42 0.433 -0.42 Q 0.365 -0.42 0.337 -0.314 Q 0.335 -0.308 0.334 -0.302 Z"/></g><g transform="translate(27.464,42.475929052631585)"><path fill="rgb(199,80,0)" stroke="none" paint-order="stroke fill markers" d=" M 0.289 -0.25 L 0.289 -0.25 Q 0.289 -0.081 0.226 0.055 Q 0.17400000000000002 0.166 0.094 0.233 Q 0.073 0.25 0.067 0.25 Q 0.057 0.25 0.057 0.24 Q 0.057 0.23500000000000001 0.07 0.223 Q 0.231 0.059000000000000004 0.231 -0.25 Q 0.231 -0.555 0.081 -0.712 L 0.076 -0.717 Q 0.057 -0.735 0.057 -0.74 Q 0.057 -0.75 0.067 -0.75 Q 0.079 -0.75 0.12 -0.709 Q 0.182 -0.647 0.223 -0.562 Q 0.289 -0.426 0.289 -0.25 Z"/></g><g transform="translate(28.408555555555555,42.475929052631585)"><path fill="rgb(199,80,0)" stroke="none" paint-order="stroke fill markers" d=" M 0.687 -0.327 L 0.09 -0.327 Q 0.058 -0.327 0.056 -0.34700000000000003 Q 0.056 -0.367 0.089 -0.367 L 0.6880000000000001 -0.367 Q 0.72 -0.367 0.721 -0.34700000000000003 Q 0.721 -0.327 0.687 -0.327 M 0.6880000000000001 -0.133 L 0.089 -0.133 Q 0.057 -0.133 0.056 -0.153 Q 0.056 -0.17300000000000001 0.09 -0.17300000000000001 L 0.687 -0.17300000000000001 Q 0.719 -0.17300000000000001 0.721 -0.153 Q 0.721 -0.133 0.6880000000000001 -0.133 Z"/></g><g transform="translate(29.962341785550848,41.79942105263158)"><path fill="rgb(199,80,0)" stroke="none" paint-order="stroke fill markers" d=" M 0.334 -0.302 L 0.3 -0.165 Q 0.28300000000000003 -0.097 0.28300000000000003 -0.077 Q 0.28300000000000003 -0.025 0.32 -0.014 Q 0.328 -0.011 0.338 -0.011 Q 0.388 -0.011 0.429 -0.061 Q 0.456 -0.093 0.47100000000000003 -0.14200000000000002 Q 0.47400000000000003 -0.153 0.484 -0.153 Q 0.496 -0.153 0.496 -0.14300000000000002 Q 0.496 -0.11800000000000001 0.465 -0.07100000000000001 Q 0.41100000000000003 0.011 0.336 0.011 Q 0.268 0.011 0.23700000000000002 -0.046 Q 0.231 -0.055 0.228 -0.065 Q 0.20400000000000001 -0.017 0.162 0.002 Q 0.14300000000000002 0.011 0.123 0.011 Q 0.063 0.011 0.039 -0.024 Q 0.029 -0.037 0.029 -0.055 Q 0.029 -0.092 0.061 -0.107 Q 0.07200000000000001 -0.113 0.084 -0.113 Q 0.114 -0.113 0.12 -0.088 Q 0.121 -0.083 0.121 -0.078 Q 0.121 -0.044 0.08700000000000001 -0.028 Q 0.081 -0.025 0.074 -0.024 Q 0.095 -0.011 0.124 -0.011 Q 0.177 -0.011 0.20800000000000002 -0.082 Q 0.214 -0.097 0.219 -0.115 Q 0.273 -0.319 0.273 -0.353 Q 0.267 -0.41500000000000004 0.219 -0.42 Q 0.167 -0.42 0.124 -0.367 L 0.124 -0.366 Q 0.124 -0.365 0.123 -0.365 Q 0.108 -0.34500000000000003 0.096 -0.319 Q 0.091 -0.307 0.08700000000000001 -0.295 L 0.085 -0.289 Q 0.083 -0.278 0.07200000000000001 -0.278 Q 0.06 -0.278 0.06 -0.28800000000000003 Q 0.06 -0.313 0.092 -0.36 Q 0.146 -0.442 0.221 -0.442 Q 0.298 -0.442 0.329 -0.366 Q 0.361 -0.428 0.41400000000000003 -0.44 Q 0.424 -0.442 0.434 -0.442 Q 0.493 -0.442 0.517 -0.40900000000000003 Q 0.527 -0.395 0.527 -0.376 Q 0.527 -0.335 0.49 -0.321 Q 0.481 -0.318 0.47300000000000003 -0.318 Q 0.442 -0.318 0.436 -0.34500000000000003 Q 0.435 -0.34900000000000003 0.435 -0.353 Q 0.435 -0.383 0.464 -0.4 Q 0.47300000000000003 -0.405 0.483 -0.40700000000000003 Q 0.462 -0.42 0.433 -0.42 Q 0.365 -0.42 0.337 -0.314 Q 0.335 -0.308 0.334 -0.302 Z"/></g><rect fill="rgb(199,80,0)" stroke="none" x="29.80503304857848" y="42.20592955263158" width="0.8866174739447368" height="0.039999"/><g transform="translate(29.80503304857848,43.16188005263158)"><path fill="rgb(199,80,0)" stroke="none" paint-order="stroke fill markers" d=" M 0.2548828125 0.01123046875 Q 0.220703125 0.01123046875 0.193603515625 -0.00341796875 Q 0.16650390625 -0.01806640625 0.14794921875 -0.044677734375 Q 0.12939453125 -0.0712890625 0.12060546875 -0.101806640625 Q 0.11181640625 -0.13232421875 0.11181640625 -0.1650390625 Q 0.11181640625 -0.216796875 0.130615234375 -0.266357421875 Q 0.1494140625 -0.31591796875 0.18359375 -0.35595703125 Q 0.2177734375 -0.39599609375 0.264404296875 -0.4189453125 Q 0.31103515625 -0.44189453125 0.36376953125 -0.44189453125 Q 0.3896484375 -0.44189453125 0.412841796875 -0.43212890625 Q 0.43603515625 -0.42236328125 0.450439453125 -0.403076171875 Q 0.46484375 -0.3837890625 0.46484375 -0.35693359375 Q 0.46484375 -0.27587890625 0.387451171875 -0.25244140625 Q 0.31005859375 -0.22900390625 0.205078125 -0.22900390625 L 0.2021484375 -0.22900390625 Q 0.18505859375 -0.16259765625 0.18505859375 -0.12109375 Q 0.18505859375 -0.0810546875 0.202392578125 -0.048095703125 Q 0.2197265625 -0.01513671875 0.2568359375 -0.01513671875 Q 0.3095703125 -0.01513671875 0.359130859375 -0.043701171875 Q 0.40869140625 -0.072265625 0.44189453125 -0.1181640625 Q 0.443359375 -0.12109375 0.44921875 -0.12109375 Q 0.455078125 -0.12109375 0.4658203125 -0.10693359375 Q 0.4677734375 -0.10595703125 0.4677734375 -0.10107421875 Q 0.4677734375 -0.09716796875 0.4658203125 -0.09521484375 Q 0.44287109375 -0.0625 0.4091796875 -0.038330078125 Q 0.37548828125 -0.01416015625 0.33544921875 -0.00146484375 Q 0.29541015625 0.01123046875 0.2548828125 0.01123046875 M 0.2080078125 -0.2548828125 Q 0.26318359375 -0.2548828125 0.3076171875 -0.260498046875 Q 0.35205078125 -0.26611328125 0.387451171875 -0.288818359375 Q 0.4228515625 -0.3115234375 0.4228515625 -0.35693359375 Q 0.4228515625 -0.3828125 0.4052734375 -0.3994140625 Q 0.3876953125 -0.416015625 0.36181640625 -0.416015625 Q 0.3037109375 -0.416015625 0.265380859375 -0.368896484375 Q 0.22705078125 -0.32177734375 0.2080078125 -0.2548828125 Z"/></g><g transform="translate(30.26503304857848,42.87299105263158) scale(0.7,0.7)"><path fill="rgb(199,80,0)" stroke="none" paint-order="stroke fill markers" d=" M 0.334 -0.302 L 0.3 -0.165 Q 0.28300000000000003 -0.097 0.28300000000000003 -0.077 Q 0.28300000000000003 -0.025 0.32 -0.014 Q 0.328 -0.011 0.338 -0.011 Q 0.388 -0.011 0.429 -0.061 Q 0.456 -0.093 0.47100000000000003 -0.14200000000000002 Q 0.47400000000000003 -0.153 0.484 -0.153 Q 0.496 -0.153 0.496 -0.14300000000000002 Q 0.496 -0.11800000000000001 0.465 -0.07100000000000001 Q 0.41100000000000003 0.011 0.336 0.011 Q 0.268 0.011 0.23700000000000002 -0.046 Q 0.231 -0.055 0.228 -0.065 Q 0.20400000000000001 -0.017 0.162 0.002 Q 0.14300000000000002 0.011 0.123 0.011 Q 0.063 0.011 0.039 -0.024 Q 0.029 -0.037 0.029 -0.055 Q 0.029 -0.092 0.061 -0.107 Q 0.07200000000000001 -0.113 0.084 -0.113 Q 0.114 -0.113 0.12 -0.088 Q 0.121 -0.083 0.121 -0.078 Q 0.121 -0.044 0.08700000000000001 -0.028 Q 0.081 -0.025 0.074 -0.024 Q 0.095 -0.011 0.124 -0.011 Q 0.177 -0.011 0.20800000000000002 -0.082 Q 0.214 -0.097 0.219 -0.115 Q 0.273 -0.319 0.273 -0.353 Q 0.267 -0.41500000000000004 0.219 -0.42 Q 0.167 -0.42 0.124 -0.367 L 0.124 -0.366 Q 0.124 -0.365 0.123 -0.365 Q 0.108 -0.34500000000000003 0.096 -0.319 Q 0.091 -0.307 0.08700000000000001 -0.295 L 0.085 -0.289 Q 0.083 -0.278 0.07200000000000001 -0.278 Q 0.06 -0.278 0.06 -0.28800000000000003 Q 0.06 -0.313 0.092 -0.36 Q 0.146 -0.442 0.221 -0.442 Q 0.298 -0.442 0.329 -0.366 Q 0.361 -0.428 0.41400000000000003 -0.44 Q 0.424 -0.442 0.434 -0.442 Q 0.493 -0.442 0.517 -0.40900000000000003 Q 0.527 -0.395 0.527 -0.376 Q 0.527 -0.335 0.49 -0.321 Q 0.481 -0.318 0.47300000000000003 -0.318 Q 0.442 -0.318 0.436 -0.34500000000000003 Q 0.435 -0.34900000000000003 0.435 -0.353 Q 0.435 -0.383 0.464 -0.4 Q 0.47300000000000003 -0.405 0.483 -0.40700000000000003 Q 0.462 -0.42 0.433 -0.42 Q 0.365 -0.42 0.337 -0.314 Q 0.335 -0.308 0.334 -0.302 Z"/></g></g></g></g></svg>