<?xml version="1.0" encoding="UTF-8" standalone="no"?>
<!DOCTYPE svg PUBLIC "-//W3C//DTD SVG 1.0//EN" "http://www.w3.org/TR/2001/REC-SVG-20010904/DTD/svg10.dtd">
<svg
   xmlns:svg="http://www.w3.org/2000/svg"
   xmlns="http://www.w3.org/2000/svg"
   version="1.0"
   width="424"
   height="627"
   id="svg2">
  <defs
     id="defs4" />
  <g
     transform="translate(-70,-112.36218)"
     id="layer1">
    <rect
       width="424"
       height="627"
       x="70"
       y="112.36218"
       id="rect3281"
       style="opacity:1;fill:#ffffff;fill-opacity:1;stroke:none;stroke-width:0.60000002;stroke-linecap:butt;stroke-linejoin:miter;stroke-miterlimit:4;stroke-dasharray:none;stroke-opacity:1" />
    <path
       d="M 210,272.36218 L 190,282.36218 C 190,282.36218 170,492.36218 180,512.36218 C 188.59069,529.54356 230,552.36218 230,552.36218 L 230,602.36218 L 260,602.36218 L 260,552.36218 C 260,552.36218 301.40931,529.54356 310,512.36218 C 320,492.36218 300,282.36218 300,282.36218 L 280,272.36218 L 210,272.36218 z"
       id="path3213"
       style="fill:#ffffff;fill-opacity:1;fill-rule:evenodd;stroke:none;stroke-width:1px;stroke-linecap:butt;stroke-linejoin:miter;stroke-opacity:1" />
    <path
       d="M 184.79688,342.36218 C 184.79688,342.36218 171.7052,493.48269 179.79688,512.36218 C 187.36418,530.01822 230,552.36218 230,552.36218 L 230,602.36218 L 260,602.36218 L 259.79688,552.36218 C 259.79688,552.36218 301.95653,529.89868 309.79688,512.36218 C 317.98101,494.05672 304.79688,342.36218 304.79688,342.36218 L 184.79688,342.36218 z"
       id="path3211"
       style="fill:#b4cbff;fill-opacity:1;fill-rule:evenodd;stroke:none;stroke-width:1px;stroke-linecap:butt;stroke-linejoin:miter;stroke-opacity:1" />
    <path
       d="M 210,272.36218 L 220,182.36218 L 270,182.36218 L 280,272.36218 L 210,272.36218 z"
       id="path2387"
       style="fill:none;fill-rule:evenodd;stroke:#000000;stroke-width:1px;stroke-linecap:butt;stroke-linejoin:miter;stroke-opacity:1" />
    <path
       d="M 205,272.36218 L 220,152.36218 C 220,152.36218 229,142.36218 245,142.36218 C 261,142.36218 270,152.36218 270,152.36218 L 285,272.36218"
       id="path2389"
       style="fill:none;fill-rule:evenodd;stroke:#000000;stroke-width:1px;stroke-linecap:butt;stroke-linejoin:miter;stroke-opacity:1" />
    <path
       d="M 230,667.36218 L 260,667.36218 L 260,702.36218 L 230,727.36218 L 230,667.36218 z"
       id="path3163"
       style="fill:none;fill-rule:evenodd;stroke:#000000;stroke-width:1px;stroke-linecap:butt;stroke-linejoin:miter;stroke-opacity:1" />
    <path
       d="M 240,602.36218 L 240,667.36218 L 250,667.36218 L 250,642.36218 C 250,642.36218 334,642.36217 370,642.36218 C 378.44284,642.36218 400.88183,641.2605 415,624.39771 C 429.26279,607.36218 430,585.9996 430,577.36218 C 430,539.86218 430,452.36218 430,452.36218 L 390,452.36218 C 390,452.36218 390,539.86218 390,577.36218 C 390,582.64301 390,605.98586 380,616.64771 C 366.17116,631.39183 345.30372,632.36218 340,632.36218 C 313,632.36217 250,632.36218 250,632.36218 L 250,602.36218 L 240,602.36218 z"
       id="path3165"
       style="fill:#b4cbff;fill-opacity:1;fill-rule:evenodd;stroke:#000000;stroke-width:1px;stroke-linecap:butt;stroke-linejoin:miter;stroke-opacity:1" />
    <path
       d="M 290,664.86218 A 32.5,32.5 0 1 1 225,664.86218 A 32.5,32.5 0 1 1 290,664.86218 z"
       transform="translate(-12.5,-30)"
       id="path2391"
       style="opacity:1;fill:none;fill-opacity:1;stroke:#000000;stroke-width:1;stroke-linecap:butt;stroke-linejoin:miter;stroke-miterlimit:4;stroke-dasharray:none;stroke-opacity:1" />
    <path
       d="M 225,392.36218 L 265,392.36218 L 265,452.36218 L 225,452.36218 L 225,392.36218 z"
       id="path3169"
       style="fill:#6e6e6e;fill-opacity:1;fill-rule:evenodd;stroke:#000000;stroke-width:1px;stroke-linecap:butt;stroke-linejoin:miter;stroke-opacity:1" />
    <rect
       width="30"
       height="21.874998"
       x="315"
       y="325.48718"
       id="rect3207"
       style="opacity:1;fill:#b4cbff;fill-opacity:1;stroke:none;stroke-width:1;stroke-linecap:butt;stroke-linejoin:miter;stroke-miterlimit:4;stroke-dasharray:none;stroke-opacity:1" />
    <path
       d="M 315,307.36218 L 345,307.36218 L 345,312.36218 L 355,312.36218 L 355,322.36218 L 345,322.36218 L 345,347.36218 L 315,347.36218 L 315,307.36218 z"
       id="path3173"
       style="fill:none;fill-opacity:1;fill-rule:evenodd;stroke:#000000;stroke-width:1px;stroke-linecap:butt;stroke-linejoin:miter;stroke-opacity:1" />
    <path
       d="M 265,392.36218 C 265,392.36218 264.31846,384.83485 259.54954,381.49501 C 254.81023,378.1759 250.5601,378.72567 246.76777,377.36218 C 245.51599,376.91212 245,376.24661 245,375.30745 C 245,300.02387 245,124.36218 245,124.36218 C 245,124.36218 245.02187,123.40749 244.49219,122.87 C 243.97317,122.34332 243,122.36218 243,122.36218 C 243,122.36218 201.96919,121.4471 188,122.36218 C 174.03081,123.27726 161.05226,127.42335 150,127.36218 C 138.94774,127.30101 123.54561,120.97542 115,122.36218 C 106.45439,123.74894 98.340549,126.95706 95,132.36218 C 91.659451,137.7673 95,152.36218 95,152.36218"
       id="path3175"
       style="fill:none;fill-rule:evenodd;stroke:#000000;stroke-width:1px;stroke-linecap:butt;stroke-linejoin:miter;stroke-opacity:1" />
    <rect
       width="4.9599223"
       height="8.9981709"
       x="350.5867"
       y="312.86148"
       id="rect3199"
       style="opacity:1;fill:#ffffff;fill-opacity:1;stroke:none;stroke-width:1;stroke-linecap:butt;stroke-linejoin:miter;stroke-miterlimit:4;stroke-dasharray:none;stroke-opacity:1" />
    <path
       d="M 210,272.36218 L 190,282.36218 C 190,282.36218 170,492.36218 180,512.36218 C 188.59069,529.54356 230,552.36218 230,552.36218 L 230,602.36218 L 260,602.36218 L 260,552.36218 C 260,552.36218 301.40931,529.54356 310,512.36218 C 320,492.36218 300,282.36218 300,282.36218 L 280,272.36218 L 210,272.36218 z"
       id="path2385"
       style="fill:none;fill-rule:evenodd;stroke:#000000;stroke-width:1px;stroke-linecap:butt;stroke-linejoin:miter;stroke-opacity:1" />
    <path
       d="M 300.46484,287.36218 L 333,287.36218 C 333,287.36218 334.01668,287.36078 334.53596,287.89251 C 335.05524,288.42424 335,289.36218 335,289.36218 L 335,337.36218 L 325,337.36218 L 325.01562,297.36999 L 301.375,297.35437 L 300.46484,287.36218 z"
       id="path3171"
       style="fill:#ffffff;fill-opacity:1;fill-rule:evenodd;stroke:#000000;stroke-width:1px;stroke-linecap:round;stroke-linejoin:round;stroke-opacity:1" />
    <path
       d="M 302,287.86218 L 302,296.85437 L 300.73126,296.85437 L 299.98047,287.86218 L 302,287.86218 z"
       id="path3205"
       style="fill:#ffffff;fill-opacity:1;fill-rule:evenodd;stroke:none;stroke-width:1px;stroke-linecap:butt;stroke-linejoin:miter;stroke-opacity:1" />
    <rect
       width="8.9977589"
       height="2.7520771"
       x="325.50076"
       y="335.11148"
       id="rect3201"
       style="opacity:1;fill:#ffffff;fill-opacity:1;stroke:none;stroke-width:1;stroke-linecap:butt;stroke-linejoin:miter;stroke-miterlimit:4;stroke-dasharray:none;stroke-opacity:1" />
    <rect
       width="4.9599223"
       height="8.9981709"
       x="350.5867"
       y="312.86148"
       id="rect3215"
       style="opacity:1;fill:#ffffff;fill-opacity:1;stroke:none;stroke-width:1;stroke-linecap:butt;stroke-linejoin:miter;stroke-miterlimit:4;stroke-dasharray:none;stroke-opacity:1" />
    <rect
       width="39"
       height="4.6875"
       x="390.5"
       y="451.86218"
       id="rect3221"
       style="opacity:1;fill:#b4cbff;fill-opacity:1;stroke:none;stroke-width:1;stroke-linecap:butt;stroke-linejoin:miter;stroke-miterlimit:4;stroke-dasharray:none;stroke-opacity:1" />
    <path
       d="M 150,365.62222 L 195,365.62222 L 198,365.62222 C 198,365.62222 198.9765,365.64047 199.48438,366.15347 C 200,366.6743 200,367.62222 200,367.62222 L 200,492.36218 L 240,492.36218 L 240,477.36218 L 250,477.36218 L 250,500.36218 C 250,500.36218 250.04337,501.36675 249.49177,501.89814 C 248.96222,502.40829 248.0273,502.36218 248.0273,502.36218 C 248.0273,502.36218 207.91094,502.36219 192.01563,502.36218 C 191.41094,502.36218 191.02293,502.33925 190.5,501.84656 C 189.98909,501.36518 190,500.36218 190,500.36218 L 190,375.62222 L 150,375.62222 L 150,365.62222 z"
       id="path3167"
       style="fill:#ffffff;fill-opacity:1;fill-rule:evenodd;stroke:#000000;stroke-width:1px;stroke-linecap:round;stroke-linejoin:round;stroke-opacity:1" />
    <rect
       width="4.9599223"
       height="9.0020771"
       x="149.49388"
       y="366.11853"
       id="rect3217"
       style="opacity:1;fill:#ffffff;fill-opacity:1;stroke:none;stroke-width:1;stroke-linecap:butt;stroke-linejoin:miter;stroke-miterlimit:4;stroke-dasharray:none;stroke-opacity:1" />
    <rect
       width="8.9977589"
       height="2.7442646"
       x="240.50076"
       y="476.86148"
       id="rect3219"
       style="opacity:1;fill:#ffffff;fill-opacity:1;stroke:none;stroke-width:1;stroke-linecap:butt;stroke-linejoin:miter;stroke-miterlimit:4;stroke-dasharray:none;stroke-opacity:1" />
    <path
       d="M 265.82794,392.45477 A 0.83968931,0.83968931 0 1 1 264.14856,392.45477 A 0.83968931,0.83968931 0 1 1 265.82794,392.45477 z"
       transform="matrix(1.2894737,0,0,1.301184,-76.883901,-118.38628)"
       id="path3223"
       style="opacity:1;fill:#000000;fill-opacity:1;stroke:none;stroke-width:1;stroke-linecap:butt;stroke-linejoin:miter;stroke-miterlimit:4;stroke-dasharray:none;stroke-opacity:1" />
    <path
       d="M 242.36084,468.20358 A 2.7400389,2.7400389 0 1 1 236.88076,468.20358 A 2.7400389,2.7400389 0 1 1 242.36084,468.20358 z"
       transform="translate(1.7677669,2.8284271)"
       id="path3225"
       style="opacity:1;fill:#ffffff;fill-opacity:1;stroke:#000000;stroke-width:0.60000002;stroke-linecap:butt;stroke-linejoin:miter;stroke-miterlimit:4;stroke-dasharray:none;stroke-opacity:1" />
    <path
       d="M 242.36084,468.20358 A 2.7400389,2.7400389 0 1 1 236.88076,468.20358 A 2.7400389,2.7400389 0 1 1 242.36084,468.20358 z"
       transform="translate(8.4852813,-2.298097)"
       id="path3227"
       style="opacity:1;fill:#ffffff;fill-opacity:1;stroke:#000000;stroke-width:0.60000002;stroke-linecap:butt;stroke-linejoin:miter;stroke-miterlimit:4;stroke-dasharray:none;stroke-opacity:1" />
    <path
       d="M 242.36084,468.20358 A 2.7400389,2.7400389 0 1 1 236.88076,468.20358 A 2.7400389,2.7400389 0 1 1 242.36084,468.20358 z"
       transform="translate(0.3791962,-9.3691648)"
       id="path3229"
       style="opacity:1;fill:#ffffff;fill-opacity:1;stroke:#000000;stroke-width:0.60000002;stroke-linecap:butt;stroke-linejoin:miter;stroke-miterlimit:4;stroke-dasharray:none;stroke-opacity:1" />
    <path
       d="M 242.36084,468.20358 A 2.7400389,2.7400389 0 1 1 236.88076,468.20358 A 2.7400389,2.7400389 0 1 1 242.36084,468.20358 z"
       transform="translate(7.0967106,-9.0156114)"
       id="path3231"
       style="opacity:1;fill:#ffffff;fill-opacity:1;stroke:#000000;stroke-width:0.60000002;stroke-linecap:butt;stroke-linejoin:miter;stroke-miterlimit:4;stroke-dasharray:none;stroke-opacity:1" />
    <path
       d="M 242.36084,468.20358 A 2.7400389,2.7400389 0 1 1 236.88076,468.20358 A 2.7400389,2.7400389 0 1 1 242.36084,468.20358 z"
       transform="translate(10.379196,-27.223611)"
       id="path3233"
       style="opacity:1;fill:#ffffff;fill-opacity:1;stroke:#000000;stroke-width:0.60000002;stroke-linecap:butt;stroke-linejoin:miter;stroke-miterlimit:4;stroke-dasharray:none;stroke-opacity:1" />
    <path
       d="M 242.36084,468.20358 A 2.7400389,2.7400389 0 1 1 236.88076,468.20358 A 2.7400389,2.7400389 0 1 1 242.36084,468.20358 z"
       transform="translate(18.119235,-40.8414)"
       id="path3235"
       style="opacity:1;fill:#ffffff;fill-opacity:1;stroke:#000000;stroke-width:0.60000002;stroke-linecap:butt;stroke-linejoin:miter;stroke-miterlimit:4;stroke-dasharray:none;stroke-opacity:1" />
    <path
       d="M 242.36084,468.20358 A 2.7400389,2.7400389 0 1 1 236.88076,468.20358 A 2.7400389,2.7400389 0 1 1 242.36084,468.20358 z"
       transform="translate(-5.3539296,-31.996582)"
       id="path3237"
       style="opacity:1;fill:#ffffff;fill-opacity:1;stroke:#000000;stroke-width:0.60000002;stroke-linecap:butt;stroke-linejoin:miter;stroke-miterlimit:4;stroke-dasharray:none;stroke-opacity:1" />
    <path
       d="M 242.36084,468.20358 A 2.7400389,2.7400389 0 1 1 236.88076,468.20358 A 2.7400389,2.7400389 0 1 1 242.36084,468.20358 z"
       transform="translate(-9.0610364,-54.472349)"
       id="path3239"
       style="opacity:1;fill:#ffffff;fill-opacity:1;stroke:#000000;stroke-width:0.60000002;stroke-linecap:butt;stroke-linejoin:miter;stroke-miterlimit:4;stroke-dasharray:none;stroke-opacity:1" />
    <path
       d="M 242.36084,468.20358 A 2.7400389,2.7400389 0 1 1 236.88076,468.20358 A 2.7400389,2.7400389 0 1 1 242.36084,468.20358 z"
       transform="translate(13.119235,-56.581439)"
       id="path3241"
       style="opacity:1;fill:#ffffff;fill-opacity:1;stroke:#000000;stroke-width:0.60000002;stroke-linecap:butt;stroke-linejoin:miter;stroke-miterlimit:4;stroke-dasharray:none;stroke-opacity:1" />
    <path
       d="M 242.36084,468.20358 A 2.7400389,2.7400389 0 1 1 236.88076,468.20358 A 2.7400389,2.7400389 0 1 1 242.36084,468.20358 z"
       transform="translate(4.1920119,-45.323187)"
       id="path3243"
       style="opacity:1;fill:#ffffff;fill-opacity:1;stroke:#000000;stroke-width:0.60000002;stroke-linecap:butt;stroke-linejoin:miter;stroke-miterlimit:4;stroke-dasharray:none;stroke-opacity:1" />
    <path
       d="M 242.36084,468.20358 A 2.7400389,2.7400389 0 1 1 236.88076,468.20358 A 2.7400389,2.7400389 0 1 1 242.36084,468.20358 z"
       transform="translate(14.97539,-70.071924)"
       id="path3245"
       style="opacity:1;fill:#ffffff;fill-opacity:1;stroke:#000000;stroke-width:0.60000002;stroke-linecap:butt;stroke-linejoin:miter;stroke-miterlimit:4;stroke-dasharray:none;stroke-opacity:1" />
    <path
       d="M 242.36084,468.20358 A 2.7400389,2.7400389 0 1 1 236.88076,468.20358 A 2.7400389,2.7400389 0 1 1 242.36084,468.20358 z"
       transform="translate(-2.3608427,-70.071924)"
       id="path3247"
       style="opacity:1;fill:#ffffff;fill-opacity:1;stroke:#000000;stroke-width:0.60000002;stroke-linecap:butt;stroke-linejoin:miter;stroke-miterlimit:4;stroke-dasharray:none;stroke-opacity:1" />
    <path
       d="M 242.36084,468.20358 A 2.7400389,2.7400389 0 1 1 236.88076,468.20358 A 2.7400389,2.7400389 0 1 1 242.36084,468.20358 z"
       transform="translate(-10.139017,-82.623069)"
       id="path3249"
       style="opacity:1;fill:#ffffff;fill-opacity:1;stroke:#000000;stroke-width:0.60000002;stroke-linecap:butt;stroke-linejoin:miter;stroke-miterlimit:4;stroke-dasharray:none;stroke-opacity:1" />
    <path
       d="M 242.36084,468.20358 A 2.7400389,2.7400389 0 1 1 236.88076,468.20358 A 2.7400389,2.7400389 0 1 1 242.36084,468.20358 z"
       transform="translate(3.8263419,-86.688933)"
       id="path3251"
       style="opacity:1;fill:#ffffff;fill-opacity:1;stroke:#000000;stroke-width:0.60000002;stroke-linecap:butt;stroke-linejoin:miter;stroke-miterlimit:4;stroke-dasharray:none;stroke-opacity:1" />
    <path
       d="M 242.36084,468.20358 A 2.7400389,2.7400389 0 1 1 236.88076,468.20358 A 2.7400389,2.7400389 0 1 1 242.36084,468.20358 z"
       transform="translate(24.119235,-98.581439)"
       id="path3253"
       style="opacity:1;fill:#ffffff;fill-opacity:1;stroke:#000000;stroke-width:0.60000002;stroke-linecap:butt;stroke-linejoin:miter;stroke-miterlimit:4;stroke-dasharray:none;stroke-opacity:1" />
    <path
       d="M 242.36084,468.20358 A 2.7400389,2.7400389 0 1 1 236.88076,468.20358 A 2.7400389,2.7400389 0 1 1 242.36084,468.20358 z"
       transform="translate(-15.360843,-98.101361)"
       id="path3255"
       style="opacity:1;fill:#ffffff;fill-opacity:1;stroke:#000000;stroke-width:0.60000002;stroke-linecap:butt;stroke-linejoin:miter;stroke-miterlimit:4;stroke-dasharray:none;stroke-opacity:1" />
    <path
       d="M 242.36084,468.20358 A 2.7400389,2.7400389 0 1 1 236.88076,468.20358 A 2.7400389,2.7400389 0 1 1 242.36084,468.20358 z"
       transform="translate(20.379196,-113.10136)"
       id="path3257"
       style="opacity:1;fill:#ffffff;fill-opacity:1;stroke:#000000;stroke-width:0.60000002;stroke-linecap:butt;stroke-linejoin:miter;stroke-miterlimit:4;stroke-dasharray:none;stroke-opacity:1" />
    <path
       d="M 242.36084,468.20358 A 2.7400389,2.7400389 0 1 1 236.88076,468.20358 A 2.7400389,2.7400389 0 1 1 242.36084,468.20358 z"
       transform="translate(0.3791962,-105.08144)"
       id="path3259"
       style="opacity:1;fill:#ffffff;fill-opacity:1;stroke:#000000;stroke-width:0.60000002;stroke-linecap:butt;stroke-linejoin:miter;stroke-miterlimit:4;stroke-dasharray:none;stroke-opacity:1" />
    <path
       d="M 242.36084,468.20358 A 2.7400389,2.7400389 0 1 1 236.88076,468.20358 A 2.7400389,2.7400389 0 1 1 242.36084,468.20358 z"
       transform="translate(-10.7196,-118.10136)"
       id="path3261"
       style="opacity:1;fill:#ffffff;fill-opacity:1;stroke:#000000;stroke-width:0.60000002;stroke-linecap:butt;stroke-linejoin:miter;stroke-miterlimit:4;stroke-dasharray:none;stroke-opacity:1" />
    <path
       d="M 242.36084,468.20358 A 2.7400389,2.7400389 0 1 1 236.88076,468.20358 A 2.7400389,2.7400389 0 1 1 242.36084,468.20358 z"
       transform="translate(12.639157,-120.8414)"
       id="path3263"
       style="opacity:1;fill:#ffffff;fill-opacity:1;stroke:#000000;stroke-width:0.60000002;stroke-linecap:butt;stroke-linejoin:miter;stroke-miterlimit:4;stroke-dasharray:none;stroke-opacity:1" />
    <path
       d="M 242.36084,468.20358 A 2.7400389,2.7400389 0 1 1 236.88076,468.20358 A 2.7400389,2.7400389 0 1 1 242.36084,468.20358 z"
       transform="translate(1.3012152,-116.68714)"
       id="path3265"
       style="opacity:1;fill:#ffffff;fill-opacity:1;stroke:#000000;stroke-width:0.60000002;stroke-linecap:butt;stroke-linejoin:miter;stroke-miterlimit:4;stroke-dasharray:none;stroke-opacity:1" />
    <path
       d="M 242.36084,468.20358 A 2.7400389,2.7400389 0 1 1 236.88076,468.20358 A 2.7400389,2.7400389 0 1 1 242.36084,468.20358 z"
       transform="translate(84.379196,-127.49489)"
       id="path3267"
       style="opacity:1;fill:#ffffff;fill-opacity:1;stroke:#000000;stroke-width:0.60000002;stroke-linecap:butt;stroke-linejoin:miter;stroke-miterlimit:4;stroke-dasharray:none;stroke-opacity:1" />
    <path
       d="M 242.36084,468.20358 A 2.7400389,2.7400389 0 1 1 236.88076,468.20358 A 2.7400389,2.7400389 0 1 1 242.36084,468.20358 z"
       transform="translate(98.911366,-130.21564)"
       id="path3269"
       style="opacity:1;fill:#ffffff;fill-opacity:1;stroke:#000000;stroke-width:0.60000002;stroke-linecap:butt;stroke-linejoin:miter;stroke-miterlimit:4;stroke-dasharray:none;stroke-opacity:1" />
    <path
       d="M 242.36084,468.20358 A 2.7400389,2.7400389 0 1 1 236.88076,468.20358 A 2.7400389,2.7400389 0 1 1 242.36084,468.20358 z"
       transform="translate(80.639157,-136.60136)"
       id="path3273"
       style="opacity:1;fill:#ffffff;fill-opacity:1;stroke:#000000;stroke-width:0.60000002;stroke-linecap:butt;stroke-linejoin:miter;stroke-miterlimit:4;stroke-dasharray:none;stroke-opacity:1" />
    <path
       d="M 242.36084,468.20358 A 2.7400389,2.7400389 0 1 1 236.88076,468.20358 A 2.7400389,2.7400389 0 1 1 242.36084,468.20358 z"
       transform="translate(99.639157,-139.8414)"
       id="path3275"
       style="opacity:1;fill:#ffffff;fill-opacity:1;stroke:#000000;stroke-width:0.60000002;stroke-linecap:butt;stroke-linejoin:miter;stroke-miterlimit:4;stroke-dasharray:none;stroke-opacity:1" />
    <path
       d="M 112,168.86218 A 12,16.500002 0 1 1 88,168.86218 A 12,16.500002 0 1 1 112,168.86218 z"
       transform="translate(-4.8125,-1.25)"
       id="path3277"
       style="opacity:1;fill:#05350a;fill-opacity:1;stroke:none;stroke-width:0.60000002;stroke-linecap:butt;stroke-linejoin:miter;stroke-miterlimit:4;stroke-dasharray:none;stroke-opacity:1" />
    <rect
       width="10"
       height="21.179379"
       x="90.084595"
       y="164.61218"
       id="rect3279"
       style="opacity:1;fill:#ffffff;fill-opacity:1;stroke:none;stroke-width:0.60000002;stroke-linecap:butt;stroke-linejoin:miter;stroke-miterlimit:4;stroke-dasharray:none;stroke-opacity:1" />
    <path
       d="M 230,422.36218 L 125,422.36218"
       id="path3283"
       style="fill:none;fill-rule:evenodd;stroke:#000000;stroke-width:1.5;stroke-linecap:butt;stroke-linejoin:miter;stroke-miterlimit:4;stroke-dasharray:none;stroke-opacity:1" />
    <path
       d="M 240.07143,477.36218 L 125.07143,477.36218"
       id="path3285"
       style="fill:none;fill-rule:evenodd;stroke:#000000;stroke-width:1.5;stroke-linecap:butt;stroke-linejoin:miter;stroke-miterlimit:4;stroke-dasharray:none;stroke-opacity:1" />
    <path
       d="M 245.03364,532.36218 L 125.10507,532.36218"
       id="path3287"
       style="fill:none;fill-rule:evenodd;stroke:#000000;stroke-width:1.5;stroke-linecap:butt;stroke-linejoin:miter;stroke-miterlimit:4;stroke-dasharray:none;stroke-opacity:1" />
    <path
       d="M 450.01851,462.36218 L 410.00914,462.36218"
       id="path3289"
       style="fill:none;fill-rule:evenodd;stroke:#000000;stroke-width:1.50017571;stroke-linecap:butt;stroke-linejoin:miter;stroke-miterlimit:4;stroke-dasharray:none;stroke-opacity:1" />
    <path
       d="M 450.02141,342.36218 L 335.00899,342.36218"
       id="path3291"
       style="fill:none;fill-rule:evenodd;stroke:#000000;stroke-width:1.5;stroke-linecap:butt;stroke-linejoin:miter;stroke-miterlimit:4;stroke-dasharray:none;stroke-opacity:1" />
    <path
       d="M 125,434.86218 A 22.5,22.5 0 1 1 80,434.86218 A 22.5,22.5 0 1 1 125,434.86218 z"
       transform="matrix(0.6666667,0,0,0.6666667,37.730375,133.66853)"
       id="path3293"
       style="opacity:1;fill:#ffffff;fill-opacity:1;stroke:#000000;stroke-width:1.5;stroke-linecap:butt;stroke-linejoin:miter;stroke-miterlimit:4;stroke-dasharray:none;stroke-opacity:1" />
    <text
       x="95.650795"
       y="435.19669"
       id="text3295"
       xml:space="preserve"
       style="font-size:32px;font-style:normal;font-variant:normal;font-weight:normal;font-stretch:normal;fill:#000000;fill-opacity:1;stroke:none;stroke-width:1px;stroke-linecap:butt;stroke-linejoin:miter;stroke-opacity:1;font-family:DejaVu Sans;-inkscape-font-specification:DejaVu Sans"><tspan
         x="95.650795"
         y="435.19669"
         id="tspan3297">1</tspan></text>
    <path
       d="M 125,434.86218 A 22.5,22.5 0 1 1 80,434.86218 A 22.5,22.5 0 1 1 125,434.86218 z"
       transform="matrix(0.6666667,0,0,0.6666667,37.730375,188.82286)"
       id="path3299"
       style="opacity:1;fill:#ffffff;fill-opacity:1;stroke:#000000;stroke-width:1.5;stroke-linecap:butt;stroke-linejoin:miter;stroke-miterlimit:4;stroke-dasharray:none;stroke-opacity:1" />
    <text
       x="96.534676"
       y="489.7323"
       id="text3301"
       xml:space="preserve"
       style="font-size:32px;font-style:normal;font-variant:normal;font-weight:normal;font-stretch:normal;fill:#000000;fill-opacity:1;stroke:none;stroke-width:1px;stroke-linecap:butt;stroke-linejoin:miter;stroke-opacity:1;font-family:DejaVu Sans;-inkscape-font-specification:DejaVu Sans"><tspan
         x="96.534676"
         y="489.7323"
         id="tspan3303">2</tspan></text>
    <path
       d="M 125,434.86218 A 22.5,22.5 0 1 1 80,434.86218 A 22.5,22.5 0 1 1 125,434.86218 z"
       transform="matrix(0.6666667,0,0,0.6666667,37.730375,243.27008)"
       id="path3305"
       style="opacity:1;fill:#ffffff;fill-opacity:1;stroke:#000000;stroke-width:1.5;stroke-linecap:butt;stroke-linejoin:miter;stroke-miterlimit:4;stroke-dasharray:none;stroke-opacity:1" />
    <text
       x="96.711456"
       y="544.8866"
       id="text3307"
       xml:space="preserve"
       style="font-size:32px;font-style:normal;font-variant:normal;font-weight:normal;font-stretch:normal;fill:#000000;fill-opacity:1;stroke:none;stroke-width:1px;stroke-linecap:butt;stroke-linejoin:miter;stroke-opacity:1;font-family:DejaVu Sans;-inkscape-font-specification:DejaVu Sans"><tspan
         x="96.711456"
         y="544.8866"
         id="tspan3309">3</tspan></text>
    <path
       d="M 125,434.86218 A 22.5,22.5 0 1 1 80,434.86218 A 22.5,22.5 0 1 1 125,434.86218 z"
       transform="matrix(0.6666667,0,0,0.6666667,400.47615,173.26651)"
       id="path3331"
       style="opacity:1;fill:#ffffff;fill-opacity:1;stroke:#000000;stroke-width:1.5;stroke-linecap:butt;stroke-linejoin:miter;stroke-miterlimit:4;stroke-dasharray:none;stroke-opacity:1" />
    <text
       x="459.45724"
       y="474.97144"
       id="text3333"
       xml:space="preserve"
       style="font-size:32px;font-style:normal;font-variant:normal;font-weight:normal;font-stretch:normal;fill:#000000;fill-opacity:1;stroke:none;stroke-width:1px;stroke-linecap:butt;stroke-linejoin:miter;stroke-opacity:1;font-family:DejaVu Sans;-inkscape-font-specification:DejaVu Sans"><tspan
         x="459.45724"
         y="474.97144"
         id="tspan3335">5</tspan></text>
    <path
       d="M 125,434.86218 A 22.5,22.5 0 1 1 80,434.86218 A 22.5,22.5 0 1 1 125,434.86218 z"
       transform="matrix(0.6666667,0,0,0.6666667,400.47615,52.454046)"
       id="path3337"
       style="opacity:1;fill:#ffffff;fill-opacity:1;stroke:#000000;stroke-width:1.5;stroke-linecap:butt;stroke-linejoin:miter;stroke-miterlimit:4;stroke-dasharray:none;stroke-opacity:1" />
    <text
       x="457.33591"
       y="353.36218"
       id="text3339"
       xml:space="preserve"
       style="font-size:32px;font-style:normal;font-variant:normal;font-weight:normal;font-stretch:normal;fill:#000000;fill-opacity:1;stroke:none;stroke-width:1px;stroke-linecap:butt;stroke-linejoin:miter;stroke-opacity:1;font-family:DejaVu Sans;-inkscape-font-specification:DejaVu Sans"><tspan
         x="457.33591"
         y="353.36218"
         id="tspan3341">4</tspan></text>
    <path
       d="M 146.09507,370.86218 L 89.404929,370.86218"
       id="path3343"
       style="fill:none;fill-rule:evenodd;stroke:#000000;stroke-width:1.10217452;stroke-linecap:butt;stroke-linejoin:miter;stroke-miterlimit:4;stroke-dasharray:none;stroke-opacity:1" />
    <path
       d="M 146.06383,370.83093 L 135.87369,367.08093"
       id="path3345"
       style="fill:none;fill-rule:evenodd;stroke:#000000;stroke-width:1.10217452;stroke-linecap:round;stroke-linejoin:miter;stroke-miterlimit:4;stroke-dasharray:none;stroke-opacity:1" />
    <path
       d="M 146.09507,370.8778 L 135.90493,374.6278"
       id="path3347"
       style="fill:none;fill-rule:evenodd;stroke:#000000;stroke-width:1.10217452;stroke-linecap:round;stroke-linejoin:miter;stroke-miterlimit:4;stroke-dasharray:none;stroke-opacity:1" />
    <text
       x="89.961205"
       y="366.79996"
       id="text3349"
       xml:space="preserve"
       style="font-size:24.99700928px;font-style:normal;font-weight:normal;fill:#000000;fill-opacity:1;stroke:none;stroke-width:1px;stroke-linecap:butt;stroke-linejoin:miter;stroke-opacity:1;font-family:Bitstream Vera Sans"><tspan
         x="89.961205"
         y="366.79996"
         id="tspan3351">H</tspan></text>
    <text
       x="105.8968"
       y="368.98718"
       id="text3353"
       xml:space="preserve"
       style="font-size:12.49850464px;font-style:normal;font-weight:normal;fill:#000000;fill-opacity:1;stroke:none;stroke-width:1px;stroke-linecap:butt;stroke-linejoin:miter;stroke-opacity:1;font-family:Bitstream Vera Sans"><tspan
         x="105.8968"
         y="368.98718"
         id="tspan3355">2</tspan></text>
  </g>
</svg>
