<svg xmlns:xlink="http://www.w3.org/1999/xlink" viewBox="0 0 290 236"><g fill="none" stroke="#231f20" stroke-width="1.6"><path id="a" d="m40 56.6 23.3 13.5v37.7l22.9 13.1M85 54.3 60.4 68.6M88 59 63.4 73.4"/><use xlink:href="#a" transform="matrix(-1 0 0 -1 289.5 234.5)"/><path id="b" d="M194 98.2V70.1l32.6-18.9 24 13.9m-26.8-40.2v27.9m5.7-27.9v27.9"/><use xlink:href="#b" transform="matrix(-1 0 0 -1 290 236)"/><path d="m105.7 121 23-13.3 32.6 19 22.9-13.3"/></g><g fill="#231f20" font-family="'Liberation Sans', sans-serif" font-size="24"><text x="87.5" y="135.5">N</text><text x="185.4" y="116.7">N</text><text x="249.7" y="79.1">OH</text><text x="217.5" y="22.6">O</text><text x="3.2" y="173.2">HO</text><text x="3.2" y="60.2">HO</text><text x="86.7" y="60.2">O</text><text x="54" y="229.8">O</text><text x="250" y="192.3">OH</text><text x="184.6" y="192">O</text></g></svg>