<svg xmlns="http://www.w3.org/2000/svg" width="290" height="236"><g fill="none" stroke="#231f20" stroke-width="1.64"><path id="a" d="m40.07 56.64 23.25 13.44v37.68l22.85 13.18m-1.11-66.65L60.35 68.61m27.76-9.57L63.4 73.36"/><use transform="matrix(-1 0 0 -1 289.5 234.5)" href="#a"/><path id="b" d="M193.97 98.22V70.06l32.67-18.84 24.01 13.88m-26.83-40.2v27.9m5.65-27.9v27.9"/><use transform="matrix(-1 0 0 -1 290 236)" href="#b"/><path d="m105.71 121.02 22.97-13.27 32.64 18.87 22.84-13.18"/></g><g fill="#231f20" font-family="'Liberation Sans', sans-serif" font-size="24"><text x="87.5" y="135.5">N</text><text x="185.4" y="116.7">N</text><text x="249.7" y="79.1">OH</text><text x="217.5" y="22.56">O</text><text x="3.24" y="173.18">HO</text><text x="3.24" y="60.17">HO</text><text x="86.7" y="60.23">O</text><text x="54" y="229.76">O</text><text x="250" y="192.3">OH</text><text x="184.6" y="192">O</text></g></svg>