<?xml version="1.0" encoding="UTF-8"?><svg xmlns="http://www.w3.org/2000/svg" viewBox="0 0 504.46 895.61" xmlns:xlink="http://www.w3.org/1999/xlink"><defs><path fill="#00a7ff" stroke="#000" d="M205 267.362a5 5 0 0 1-5 5 5 5 0 0 1-5-5 5 5 0 0 1 5-5 5 5 0 0 1 5 5z" id="a"/></defs><g transform="translate(31.35 1051.25)"><path d="M262.76-356.903a37.044 37.044 0 0 1-37.045 37.044 37.044 37.044 0 0 1-37.044-37.044 37.044 37.044 0 0 1 37.044-37.044 37.044 37.044 0 0 1 37.045 37.044z" fill="red" stroke="#000" stroke-width="2.46"/><path d="M415.283 317.246c0 30.504-25.887 55.116-57.621 55.116s-57.622-24.496-57.622-55 25.726-55.232 57.46-55.232 57.783 24.612 57.783 55.116z" transform="matrix(3.29738 0 0 3.44727 -953.634 -1906.489)" fill="#f1b9a1" stroke="#000" stroke-width="0.75"/><use transform="rotate(15 5476.085 -1162.91)scale(2.46961)" stroke-width="0.5" href="#a"/><use transform="rotate(15 6471.129 -1031.91)scale(2.46961)" stroke-width="0.5" href="#a"/><use transform="rotate(-45 -1266.322 179.468)scale(2.46961)" stroke-width="0.5" href="#a"/><use transform="rotate(-45 -1582.583 310.468)scale(2.46961)" stroke-width="0.5" href="#a"/><use transform="rotate(255 -157.03 -41.386)scale(2.46961)" stroke-width="0.5" href="#a"/><use transform="rotate(255 -257.55 89.614)scale(2.46961)" stroke-width="0.5" href="#a"/><use transform="rotate(-37.32 -1336.594 620.527)scale(2.46961)" stroke-width="0.5" href="#a"/><path d="M415.748-351.904c0 105.155-85.36 190-190 190s-190-84.444-190-189.6 84.827-190.4 189.466-190.4 190.534 84.845 190.534 190z" fill="none" stroke="#000" stroke-width="2.53" stroke-dasharray="2.53 10.11"/><use transform="rotate(15 5973.607 -1097.41)scale(2.46961)" stroke-width="0.5" href="#a"/><use transform="rotate(-88.75 -226.397 358.415)scale(2.46961)" stroke-width="0.5" href="#a"/><use transform="rotate(219.82 151.39 269.221)scale(2.46961)" stroke-width="0.5" href="#a"/><use transform="rotate(168.39 416.957 206.522)scale(2.46961)" stroke-width="0.5" href="#a"/><use transform="rotate(116.96 709.866 137.368)scale(2.46961)" stroke-width="0.5" href="#a"/><use transform="rotate(65.53 1248.314 10.243)scale(2.46961)" stroke-width="0.5" href="#a"/><use transform="rotate(14.11 4984.683 -871.896)scale(2.46961)" stroke-width="0.5" href="#a"/></g><g transform="translate(-.385 -2.862)"><path d="m498.45 561.255-46.937 12.348.011-24.696zm-33.893 0H7.68m490.894 60.517L451.61 634.12v-24.697zm-34.615 0H7.08" stroke="#000" stroke-width="2.47"/><g transform="translate(-109.784 185.5)"><path d="m606.385 590.362-45.52 4.926 2.934-24.522z" stroke="#000" stroke-width="2.47"/><path d="m574.592 584.494-211.52-25.31c-8.796-1.093-15.648-2.742-28.786-2.594H118.293" fill="none" stroke="#000" stroke-width="2.47"/></g><path d="M86.437 512.623 207.07 664.92c3.288 4.263 11.746 17.47-8.253 17.368H8.51" fill="none" stroke="#000" stroke-width="2.47"/><path d="m498.573 801.969-46.967 12.348-.016-24.696zm-33.9 0H7.795m490.775 60.714-46.96 12.348v-24.696zm-34.611 0H7.08m491.533-761.966-47.332 12.348V88.369zm-34.984 0H6.751m491.765 60.451-47.526 12.348-.032-24.696zm-34.897 0H6.74m491.74 59.946-47.522 12.348-.03-24.696zm-34.861 0H6.74m491.829 59.946-47.607 12.349-.017-24.697zm-35.018 0H6.673m491.891 59.947-47.663 12.348.031-24.696zm-35.065 0H6.62m491.943 60.152-47.403 12.348v-24.695zm-35.055 0H6.63M80.054 505.2l35.872 25.169-19.359 15.334z" stroke="#000" stroke-width="2.47"/></g><g transform="translate(-18.507 1033.107)"><text xml:space="preserve" style="line-height:0%" x="184.69" y="-1001.88" font-family="sans-serif" letter-spacing="0" word-spacing="0"><tspan x="184.69" y="-1001.88" style="line-height:1.25" font-size="36">THOMSON</tspan></text><text xml:space="preserve" style="line-height:0%" x="149.14" y="-540.92" font-family="sans-serif" letter-spacing="0" word-spacing="0"><tspan x="149.14" y="-540.92" style="line-height:1.25" font-size="36">RUTHERFORD</tspan></text></g></svg>