<svg viewBox="0 0 504.5 895.6"><g style="display:inline"><path d="M340 514.9a12.5 12.5 0 0 1-12.5 12.5 12.5 12.5 0 0 1-12.5-12.5 12.5 12.5 0 0 1 12.5-12.5 12.5 12.5 0 0 1 12.5 12.5z" style="fill:red;fill-opacity:1;fill-rule:nonzero;stroke:#000;stroke-width:.83333331;stroke-miterlimit:4;stroke-opacity:1;stroke-dasharray:none;display:inline" transform="translate(-713.493 -831.467)scale(2.96354)"/><path d="M415.3 317.2a56.4 56.4 0 0 1-57.6 55.2 56.3 56.3 0 0 1-57.7-55 56.4 56.4 0 0 1 57.5-55.3 56.6 56.6 0 0 1 57.8 55.1z" style="fill:#f1b9a1;fill-opacity:1;fill-rule:nonzero;stroke:#000;stroke-width:.74981469;stroke-miterlimit:4;stroke-opacity:1;display:inline" transform="matrix(3.29738 0 0 3.44727 -922.284 -855.239)"/><path d="M205 267.4a5 5 0 0 1-5 5 5 5 0 0 1-5-5 5 5 0 0 1 5-5 5 5 0 0 1 5 5z" style="fill:#00a7ff;fill-opacity:1;fill-rule:nonzero;stroke:#000;stroke-width:.5;stroke-miterlimit:4;stroke-opacity:1;stroke-dasharray:none;display:inline" transform="rotate(15 1499.243 -518.22)scale(2.46961)"/><path d="M205 267.4a5 5 0 0 1-5 5 5 5 0 0 1-5-5 5 5 0 0 1 5-5 5 5 0 0 1 5 5z" style="fill:#00a7ff;fill-opacity:1;fill-rule:nonzero;stroke:#000;stroke-width:.5;stroke-miterlimit:4;stroke-opacity:1;stroke-dasharray:none;display:inline" transform="rotate(15 2494.287 -387.22)scale(2.46961)"/><path d="M205 267.4a5 5 0 0 1-5 5 5 5 0 0 1-5-5 5 5 0 0 1 5-5 5 5 0 0 1 5 5z" style="fill:#00a7ff;fill-opacity:1;fill-rule:nonzero;stroke:#000;stroke-width:.5;stroke-miterlimit:4;stroke-opacity:1;stroke-dasharray:none;display:inline" transform="rotate(-45 18.324 667.25)scale(2.46961)"/><path d="M205 267.4a5 5 0 0 1-5 5 5 5 0 0 1-5-5 5 5 0 0 1 5-5 5 5 0 0 1 5 5z" style="fill:#00a7ff;fill-opacity:1;fill-rule:nonzero;stroke:#000;stroke-width:.5;stroke-miterlimit:4;stroke-opacity:1;stroke-dasharray:none;display:inline" transform="rotate(-45 -297.937 798.25)scale(2.46961)"/><path d="M205 267.4a5 5 0 0 1-5 5 5 5 0 0 1-5-5 5 5 0 0 1 5-5 5 5 0 0 1 5 5z" style="fill:#00a7ff;fill-opacity:1;fill-rule:nonzero;stroke:#000;stroke-width:.5;stroke-miterlimit:4;stroke-opacity:1;stroke-dasharray:none;display:inline" transform="rotate(255 261.972 472.21)scale(2.46961)"/><path d="M205 267.4a5 5 0 0 1-5 5 5 5 0 0 1-5-5 5 5 0 0 1 5-5 5 5 0 0 1 5 5z" style="fill:#00a7ff;fill-opacity:1;fill-rule:nonzero;stroke:#000;stroke-width:.5;stroke-miterlimit:4;stroke-opacity:1;stroke-dasharray:none;display:inline" transform="rotate(255 161.452 603.21)scale(2.46961)"/><path d="M205 267.4a5 5 0 0 1-5 5 5 5 0 0 1-5-5 5 5 0 0 1 5-5 5 5 0 0 1 5 5z" style="fill:#00a7ff;fill-opacity:1;fill-rule:nonzero;stroke:#000;stroke-width:.5;stroke-miterlimit:4;stroke-opacity:1;stroke-dasharray:none;display:inline" transform="rotate(-37.32 235.569 1099.734)scale(2.46961)"/><path d="M415.7-351.9a190 190 0 1 1-190.5-190 190.5 190.5 0 0 1 190.5 190z" style="fill:none;stroke:#000;stroke-width:2.52800012;stroke-miterlimit:4;stroke-opacity:1;stroke-dasharray:2.528,10.112;stroke-dashoffset:0;display:inline" transform="translate(31.35 1051.25)"/><path d="M205 267.4a5 5 0 0 1-5 5 5 5 0 0 1-5-5 5 5 0 0 1 5-5 5 5 0 0 1 5 5z" style="fill:#00a7ff;fill-opacity:1;fill-rule:nonzero;stroke:#000;stroke-width:.5;stroke-miterlimit:4;stroke-opacity:1;stroke-dasharray:none;display:inline" transform="rotate(15 1996.765 -452.72)scale(2.46961)"/><path d="M205 267.4a5 5 0 0 1-5 5 5 5 0 0 1-5-5 5 5 0 0 1 5-5 5 5 0 0 1 5 5z" style="fill:#00a7ff;fill-opacity:1;fill-rule:nonzero;stroke:#000;stroke-width:.5;stroke-miterlimit:4;stroke-opacity:1;stroke-dasharray:none;display:inline" transform="rotate(-88.75 326.502 868.018)scale(2.46961)"/><path d="M205 267.4a5 5 0 0 1-5 5 5 5 0 0 1-5-5 5 5 0 0 1 5-5 5 5 0 0 1 5 5z" style="fill:#00a7ff;fill-opacity:1;fill-rule:nonzero;stroke:#000;stroke-width:.5;stroke-miterlimit:4;stroke-opacity:1;stroke-dasharray:none;display:inline" transform="rotate(219.82 357.445 789.168)scale(2.46961)"/><path d="M205 267.4a5 5 0 0 1-5 5 5 5 0 0 1-5-5 5 5 0 0 1 5-5 5 5 0 0 1 5 5z" style="fill:#00a7ff;fill-opacity:1;fill-rule:nonzero;stroke:#000;stroke-width:.5;stroke-miterlimit:4;stroke-opacity:1;stroke-dasharray:none;display:inline" transform="rotate(168.39 379.196 733.74)scale(2.46961)"/><path d="M205 267.4a5 5 0 0 1-5 5 5 5 0 0 1-5-5 5 5 0 0 1 5-5 5 5 0 0 1 5 5z" style="fill:#00a7ff;fill-opacity:1;fill-rule:nonzero;stroke:#000;stroke-width:.5;stroke-miterlimit:4;stroke-opacity:1;stroke-dasharray:none;display:inline" transform="rotate(116.96 403.188 672.606)scale(2.46961)"/><path d="M205 267.4a5 5 0 0 1-5 5 5 5 0 0 1-5-5 5 5 0 0 1 5-5 5 5 0 0 1 5 5z" style="fill:#00a7ff;fill-opacity:1;fill-rule:nonzero;stroke:#000;stroke-width:.5;stroke-miterlimit:4;stroke-opacity:1;stroke-dasharray:none;display:inline" transform="rotate(65.53 447.29 560.223)scale(2.46961)"/><path d="M205 267.4a5 5 0 0 1-5 5 5 5 0 0 1-5-5 5 5 0 0 1 5-5 5 5 0 0 1 5 5z" style="fill:#00a7ff;fill-opacity:1;fill-rule:nonzero;stroke:#000;stroke-width:.5;stroke-miterlimit:4;stroke-opacity:1;stroke-dasharray:none;display:inline" transform="rotate(14.11 753.323 -219.616)scale(2.46961)"/></g><g style="display:inline"><path d="m498.4 561.3-46.9 12.3v-24.7zm-33.8 0H7.6m491 60.5-47 12.3v-24.7zm-34.6 0H7" style="fill:#000;fill-opacity:1;fill-rule:nonzero;stroke:#000;stroke-width:2.46961355;stroke-miterlimit:4;stroke-opacity:1;display:inline" transform="translate(-.385 -2.862)"/><g style="display:inline"><path d="m606.4 590.4-45.5 4.9 2.9-24.5z" style="fill:#000;fill-opacity:1;fill-rule:nonzero;stroke:#000;stroke-width:2.46961355;stroke-miterlimit:4;stroke-opacity:1;display:inline" transform="translate(-110.17 182.639)"/><path d="M574.6 584.5 363 559.2c-8.8-1.1-15.7-2.8-28.8-2.6h-216" style="fill:none;stroke:#000;stroke-width:2.46961355;stroke-miterlimit:4;stroke-opacity:1;display:inline" transform="translate(-110.17 182.639)"/></g><path d="M86.4 512.6 207.1 665c3.3 4.3 11.7 17.5-8.3 17.4H8.5" style="fill:none;stroke:#000;stroke-width:2.46961355;stroke-miterlimit:4;stroke-opacity:1;display:inline" transform="translate(-.385 -2.862)"/><path d="m498.6 802-47 12.3v-24.7zm-34 0H7.9m490.7 60.7-47 12.3v-24.7zm-34.6 0H7" style="fill:#000;fill-opacity:1;fill-rule:nonzero;stroke:#000;stroke-width:2.46961355;stroke-miterlimit:4;stroke-opacity:1;display:inline" transform="translate(-.385 -2.862)"/><path d="M466.9-953.4 419.5-941v-24.7zm-35 0H-25M466.8-893l-47.5 12.4v-24.7zm-35 0H-25m491.7 60-47.5 12.4v-24.7zm-34.8 0H-25m491.8 60-47.6 12.3v-24.7zm-35 0H-25m491.8 59.9-47.6 12.3v-24.7zm-35 0h-457m492 60.1-47.4 12.4v-24.7zm-35 0h-457" style="fill:#000;fill-opacity:1;fill-rule:nonzero;stroke:#000;stroke-width:2.46961355;stroke-miterlimit:4;stroke-opacity:1;display:inline" transform="translate(31.35 1051.25)"/><path d="m80 505.2 36 25.2-19.4 15.3z" style="fill:#000;stroke:#000;stroke-width:2.46961355;stroke-miterlimit:4;stroke-opacity:1;display:inline" transform="translate(-.385 -2.862)"/></g><g style="display:inline"><text xml:space="preserve" x="184.7" y="-1001.9" style="font-style:normal;font-weight:400;line-height:0%;font-family:sans-serif;letter-spacing:0;word-spacing:0;fill:#000;fill-opacity:1;stroke:none" transform="translate(-18.507 1033.107)"><tspan x="184.7" y="-1001.9" style="font-size:36px;line-height:1.25;font-family:sans-serif">THOMSON</tspan></text><text xml:space="preserve" x="149.1" y="-540.9" style="font-style:normal;font-weight:400;line-height:0%;font-family:sans-serif;letter-spacing:0;word-spacing:0;fill:#000;fill-opacity:1;stroke:none" transform="translate(-18.507 1033.107)"><tspan x="149.1" y="-540.9" style="font-size:36px;line-height:1.25;font-family:sans-serif">RUTHERFORD</tspan></text></g></svg>