<svg viewBox="0 0 504.46 895.61"><defs><path id="a" fill="#00a7ff" stroke="#000" d="M205 267.362a5 5 0 01-5 5 5 5 0 01-5-5 5 5 0 015-5 5 5 0 015 5z"/></defs><g transform="translate(31.35 1051.25)"><path fill="red" stroke="#000" stroke-width="2.46" d="M262.76-356.903a37.044 37.044 0 01-37.045 37.044 37.044 37.044 0 01-37.044-37.044 37.044 37.044 0 0137.044-37.044 37.044 37.044 0 0137.045 37.044z"/><path fill="#f1b9a1" stroke="#000" stroke-width=".75" d="M415.283 317.246c0 30.504-25.887 55.116-57.621 55.116s-57.622-24.496-57.622-55 25.726-55.232 57.46-55.232 57.783 24.612 57.783 55.116z" transform="matrix(3.29738 0 0 3.44727 -953.634 -1906.489)"/><use stroke-width=".5" href="#a" transform="rotate(15 5476.085 -1162.91) scale(2.46961)"/><use stroke-width=".5" href="#a" transform="rotate(15 6471.129 -1031.91) scale(2.46961)"/><use stroke-width=".5" href="#a" transform="rotate(-45 -1266.322 179.468) scale(2.46961)"/><use stroke-width=".5" href="#a" transform="rotate(-45 -1582.583 310.468) scale(2.46961)"/><use stroke-width=".5" href="#a" transform="rotate(-105 -157.03 -41.386) scale(2.46961)"/><use stroke-width=".5" href="#a" transform="rotate(-105 -257.55 89.614) scale(2.46961)"/><use stroke-width=".5" href="#a" transform="rotate(-37.32 -1336.594 620.527) scale(2.46961)"/><path fill="none" stroke="#000" stroke-dasharray="2.53 10.11" stroke-width="2.53" d="M415.748-351.904c0 105.155-85.36 190-190 190s-190-84.444-190-189.6 84.827-190.4 189.466-190.4 190.534 84.845 190.534 190z"/><use stroke-width=".5" href="#a" transform="rotate(15 5973.607 -1097.41) scale(2.46961)"/><use stroke-width=".5" href="#a" transform="rotate(-88.75 -226.397 358.415) scale(2.46961)"/><use stroke-width=".5" href="#a" transform="rotate(-140.18 151.39 269.221) scale(2.46961)"/><use stroke-width=".5" href="#a" transform="rotate(168.39 416.957 206.522) scale(2.46961)"/><use stroke-width=".5" href="#a" transform="rotate(116.96 709.866 137.368) scale(2.46961)"/><use stroke-width=".5" href="#a" transform="rotate(65.53 1248.314 10.243) scale(2.46961)"/><use stroke-width=".5" href="#a" transform="rotate(14.11 4984.683 -871.896) scale(2.46961)"/></g><path stroke="#000" stroke-width="2.47" d="M498.065 558.393l-46.937 12.348.011-24.696zm-33.893 0H7.295m490.894 60.517l-46.964 12.348v-24.697zm-34.615 0H6.695M496.216 773l-45.52 4.926 2.934-24.522z"/><path fill="none" stroke="#000" stroke-width="2.47" d="M464.423 767.132l-211.52-25.31c-8.796-1.093-15.648-2.742-28.786-2.594H8.124m77.928-229.467l120.633 152.297c3.288 4.263 11.746 17.47-8.253 17.368H8.125"/><path stroke="#000" stroke-width="2.47" d="M498.188 799.107l-46.967 12.348-.016-24.696zm-33.9 0H7.41m490.775 60.714l-46.96 12.348v-24.696zm-34.611 0H6.695M498.228 97.855l-47.332 12.348V85.507zm-34.984 0H6.366m491.765 60.451l-47.526 12.348-.032-24.696zm-34.897 0H6.355m491.74 59.946L450.573 230.6l-.03-24.696zm-34.861 0H6.355m491.829 59.946l-47.607 12.349-.017-24.697zm-35.018 0H6.288m491.891 59.947l-47.663 12.348.031-24.696zm-35.065 0H6.235m491.943 60.152l-47.403 12.348V385.95zm-35.055 0H6.245m73.424 104.041l35.872 25.169-19.359 15.334z"/><g font-family="sans-serif" letter-spacing="0" word-spacing="0"><text x="184.69" y="-1001.88" transform="translate(-18.507 1033.107)" style="line-height:0%"><tspan style="line-height:1.25" x="184.69" y="-1001.88" font-size="36">THOMSON</tspan></text><text x="149.14" y="-540.92" transform="translate(-18.507 1033.107)" style="line-height:0%"><tspan style="line-height:1.25" x="149.14" y="-540.92" font-size="36">RUTHERFORD</tspan></text></g></svg>