<?xml version="1.0" encoding="UTF-8"?><svg xmlns="http://www.w3.org/2000/svg" viewBox="0 0 664.78 666.95" xmlns:xlink="http://www.w3.org/1999/xlink"><defs><linearGradient id="c"><stop offset="0" stop-color="#7f2aff"/><stop offset="1" stop-color="#7f2aff" stop-opacity="0"/></linearGradient><linearGradient id="b"><stop offset="0" stop-color="red"/><stop offset="1" stop-color="red" stop-opacity="0"/></linearGradient><linearGradient id="a"><stop offset="0" stop-color="#ff1cff"/><stop offset="0.03"/><stop offset="0.19" stop-color="#241c1c"/><stop offset="1" stop-color="#241c1c" stop-opacity="0"/></linearGradient><radialGradient cx="374.96" cy="545.91" r="227.14" fx="374.96" fy="545.91" id="d" gradientUnits="userSpaceOnUse" href="#a"/><radialGradient cx="657.5" cy="274.86" r="37.5" fx="657.5" fy="274.86" id="e" gradientUnits="userSpaceOnUse" href="#b"/><radialGradient cx="657.5" cy="274.86" r="37.5" fx="657.5" fy="274.86" id="f" gradientUnits="userSpaceOnUse" href="#b"/><radialGradient cx="590" cy="297.36" r="30" fx="590" fy="297.36" id="g" gradientUnits="userSpaceOnUse" href="#c"/><radialGradient cx="590" cy="297.36" r="30" fx="590" fy="297.36" id="h" gradientUnits="userSpaceOnUse" href="#c"/></defs><g transform="translate(-76.82 -185.408)"><path d="M602.857 545.22a227.143 227.143 0 1 1-454.286 0 227.143 227.143 0 1 1 454.286 0" transform="translate(0 1.429)" fill="url(#d)"/><path d="M535.143 186.648h204.714c.277 0 .5.223.5.5v204.714c0 .277-.223.5-.5.5H535.143a.5.5 0 0 1-.5-.5V187.148c0-.277.223-.5.5-.5z" fill="#241c1c" stroke="#920000" stroke-width="2.48" stroke-linejoin="round"/><a transform="translate(-.5 .643)" fill="red">
      <path d="m375.5 546.72 4.843-2.051 360.12-152.96m-204.963.011L375.714 546.647M535.5 186.72l-160 360" fill-rule="evenodd" stroke="#000"/>
    </a><g transform="translate(-2.5 -.357)"><path d="M695 274.862a37.5 37.5 0 1 1-75 0 37.5 37.5 0 1 1 75 0" transform="translate(-16.5 -20)" fill="url(#e)"/><path d="M695 274.862a37.5 37.5 0 1 1-75 0 37.5 37.5 0 1 1 75 0" transform="translate(-16.5 50)" fill="url(#f)"/><path d="M620 297.362a30 30 0 1 1-60 0 30 30 0 1 1 60 0" transform="translate(15 -10)" fill="url(#g)"/><path d="M620 297.362a30 30 0 1 1-60 0 30 30 0 1 1 60 0" transform="translate(85 -10)" fill="url(#h)"/></g><rect width="360" height="30" rx="0.5" ry="1.5" x="80" y="822.36" fill="#221c24"/><text x="79.98" y="811.12" xml:space="preserve" font-size="12" font-family="Century Gothic"><tspan x="79.98" y="811.12" font-size="36">1 Å = 100 pm</tspan></text><rect width="130" height="5" rx="0.54" ry="0.5" x="540" y="382.36" fill="#eed7f4"/><text x="540" y="377.36" xml:space="preserve" font-size="20" fill="#e5d5ff" font-family="Century Gothic"><tspan x="540" y="377.36">1 fm</tspan></text></g></svg>