<svg xmlns:xlink="http://www.w3.org/1999/xlink" viewBox="0 0 664.8 667"><defs><radialGradient xlink:href="#a" id="d" cx="375" cy="545.9" r="227.1" fx="375" fy="545.9" gradientUnits="userSpaceOnUse"/><radialGradient xlink:href="#b" id="e" cx="657.5" cy="274.9" r="37.5" fx="657.5" fy="274.9" gradientUnits="userSpaceOnUse"/><radialGradient xlink:href="#b" id="f" cx="657.5" cy="274.9" r="37.5" fx="657.5" fy="274.9" gradientUnits="userSpaceOnUse"/><radialGradient xlink:href="#c" id="g" cx="590" cy="297.4" r="30" fx="590" fy="297.4" gradientUnits="userSpaceOnUse"/><radialGradient xlink:href="#c" id="h" cx="590" cy="297.4" r="30" fx="590" fy="297.4" gradientUnits="userSpaceOnUse"/><linearGradient id="c"><stop offset="0" style="stop-color:#7f2aff;stop-opacity:1"/><stop offset="1" style="stop-color:#7f2aff;stop-opacity:0"/></linearGradient><linearGradient id="b"><stop offset="0" style="stop-color:red;stop-opacity:1"/><stop offset="1" style="stop-color:red;stop-opacity:0"/></linearGradient><linearGradient id="a"><stop offset="0" style="stop-color:#ff1cff;stop-opacity:1"/><stop offset="0" style="stop-color:#000;stop-opacity:1"/><stop offset="0.2" style="stop-color:#241c1c;stop-opacity:1"/><stop offset="1" style="stop-color:#241c1c;stop-opacity:0"/></linearGradient></defs><g transform="translate(-76.82 -185.408)"><path d="M602.9 545.2a227.1 227.1 0 1 1-454.3 0 227.1 227.1 0 1 1 454.3 0" style="opacity:1;fill:url(#d);fill-opacity:1;stroke-width:13.19999981;stroke-linecap:butt;stroke-linejoin:round;stroke-miterlimit:4;stroke-dasharray:none" transform="translate(0 1.429)"/><path d="M535.1 186.6H740q.4.1.5.5V392q-.1.4-.5.5H535l-.5-.5V187q.1-.4.5-.5z" style="fill:#241c1c;fill-opacity:1;stroke:#920000;stroke-width:2.48031497;stroke-linecap:butt;stroke-linejoin:round;stroke-miterlimit:4;stroke-opacity:1"/><a style="fill:red" transform="translate(-.5 .643)">
      <g style="fill:red;stroke:#000;stroke-opacity:1"><path d="m375.5 546.7 4.8-2 360.2-153m-205 0-159.8 155m159.8-360-160 360" style="fill:red;fill-rule:evenodd;stroke:#000;stroke-width:1px;stroke-linecap:butt;stroke-linejoin:miter;stroke-opacity:1"/></g>
    </a><path d="M695 274.9a37.5 37.5 0 1 1-75 0 37.5 37.5 0 1 1 75 0" style="opacity:1;fill:url(#e);fill-opacity:1;stroke:none;stroke-width:2.48031497;stroke-linecap:butt;stroke-linejoin:round;stroke-miterlimit:4;stroke-dasharray:none;stroke-opacity:1" transform="translate(-19 -20.357)"/><path d="M695 274.9a37.5 37.5 0 1 1-75 0 37.5 37.5 0 1 1 75 0" style="opacity:1;fill:url(#f);fill-opacity:1;stroke:none;stroke-width:2.48031497;stroke-linecap:butt;stroke-linejoin:round;stroke-miterlimit:4;stroke-dasharray:none;stroke-opacity:1" transform="translate(-19 49.643)"/><path d="M620 297.4a30 30 0 1 1-60 0 30 30 0 1 1 60 0" style="opacity:1;fill:url(#g);fill-opacity:1;stroke:none;stroke-width:2.48031497;stroke-linecap:butt;stroke-linejoin:round;stroke-miterlimit:4;stroke-dasharray:none;stroke-opacity:1" transform="translate(12.5 -10.357)"/><path d="M620 297.4a30 30 0 1 1-60 0 30 30 0 1 1 60 0" style="opacity:1;fill:url(#h);fill-opacity:1;stroke:none;stroke-width:2.48031497;stroke-linecap:butt;stroke-linejoin:round;stroke-miterlimit:4;stroke-dasharray:none;stroke-opacity:1" transform="translate(82.5 -10.357)"/><rect width="360" height="30" x="80" y="822.4" rx="0.5" ry="1.5" style="opacity:1;fill:#221c24;fill-opacity:1;stroke:none;stroke-width:2.48031497;stroke-linecap:butt;stroke-linejoin:round;stroke-miterlimit:4;stroke-dasharray:none;stroke-opacity:1"/><text xml:space="preserve" x="80" y="811.1" style="font-size:12px;font-style:normal;font-weight:400;fill:#000;fill-opacity:1;stroke:none;stroke-width:1px;stroke-linecap:butt;stroke-linejoin:miter;stroke-opacity:1;font-family:Century Gothic"><tspan x="80" y="811.1" style="font-size:36px">1 Å = 100 pm</tspan></text><rect width="130" height="5" x="540" y="382.4" rx="0.5" ry="0.5" style="opacity:1;fill:#eed7f4;fill-opacity:1;stroke:none;stroke-width:2.48031497;stroke-linecap:butt;stroke-linejoin:round;stroke-miterlimit:4;stroke-dasharray:none;stroke-opacity:1"/><text xml:space="preserve" x="540" y="377.4" style="font-size:20px;font-style:normal;font-weight:400;fill:#e5d5ff;fill-opacity:1;stroke:none;stroke-width:1px;stroke-linecap:butt;stroke-linejoin:miter;stroke-opacity:1;font-family:Century Gothic"><tspan x="540" y="377.4">1 fm</tspan></text></g></svg>