<svg viewBox="0 0 664.78 666.95"><defs><linearGradient id="c"><stop offset="0" stop-color="#7f2aff"/><stop offset="1" stop-color="#7f2aff" stop-opacity="0"/></linearGradient><linearGradient id="b"><stop offset="0" stop-color="red"/><stop offset="1" stop-color="red" stop-opacity="0"/></linearGradient><linearGradient id="a"><stop offset="0" stop-color="#ff1cff"/><stop offset=".03"/><stop offset=".19" stop-color="#241c1c"/><stop offset="1" stop-color="#241c1c" stop-opacity="0"/></linearGradient><radialGradient id="d" cx="374.96" cy="545.91" r="227.14" fx="374.96" fy="545.91" gradientUnits="userSpaceOnUse" href="#a"/><radialGradient id="e" cx="657.5" cy="274.86" r="37.5" fx="657.5" fy="274.86" gradientUnits="userSpaceOnUse" href="#b"/><radialGradient id="f" cx="657.5" cy="274.86" r="37.5" fx="657.5" fy="274.86" gradientUnits="userSpaceOnUse" href="#b"/><radialGradient id="g" cx="590" cy="297.36" r="30" fx="590" fy="297.36" gradientUnits="userSpaceOnUse" href="#c"/><radialGradient id="h" cx="590" cy="297.36" r="30" fx="590" fy="297.36" gradientUnits="userSpaceOnUse" href="#c"/></defs><g transform="translate(-76.82 -185.408)"><path fill="url(#d)" d="M602.857 545.22a227.143 227.143 0 11-454.286 0 227.143 227.143 0 11454.286 0" transform="translate(0 1.429)"/><path fill="#241c1c" stroke="#920000" stroke-linejoin="round" stroke-width="2.48" d="M535.143 186.648h204.714c.277 0 .5.223.5.5v204.714c0 .277-.223.5-.5.5H535.143a.5.5 0 01-.5-.5V187.148c0-.277.223-.5.5-.5z"/><a fill="red" transform="translate(-.5 .643)"><path fill-rule="evenodd" stroke="#000" d="M375.5 546.72l4.843-2.051 360.12-152.96m-204.963.011L375.714 546.647M535.5 186.72l-160 360"/></a><path fill="url(#e)" d="M695 274.862a37.5 37.5 0 11-75 0 37.5 37.5 0 1175 0" transform="translate(-19 -20.357)"/><path fill="url(#f)" d="M695 274.862a37.5 37.5 0 11-75 0 37.5 37.5 0 1175 0" transform="translate(-19 49.643)"/><path fill="url(#g)" d="M620 297.362a30 30 0 11-60 0 30 30 0 1160 0" transform="translate(12.5 -10.357)"/><path fill="url(#h)" d="M620 297.362a30 30 0 11-60 0 30 30 0 1160 0" transform="translate(82.5 -10.357)"/><rect width="360" height="30" x="80" y="822.36" fill="#221c24" rx=".5" ry="1.5"/><text x="79.98" y="811.12" font-family="Century Gothic" font-size="12"><tspan x="79.98" y="811.12" font-size="36">1 Å = 100 pm</tspan></text><rect width="130" height="5" x="540" y="382.36" fill="#eed7f4" rx=".54" ry=".5"/><text x="540" y="377.36" fill="#e5d5ff" font-family="Century Gothic" font-size="20"><tspan x="540" y="377.36">1 fm</tspan></text></g></svg>