<svg viewBox="0 0 387.96 346.03"><defs><symbol id="a" overflow="visible"><path d="M2.844-4.25l.469 1.188q.044.157-.063.234-.094.063-.172-.078l-.14-.281a5 5 0 00-.297-.407 1.5 1.5 0 00-.47-.344 1 1 0 00-.608-.109.88.88 0 00-.532.266.73.73 0 00-.234.5.65.65 0 00.156.484c.094.117.242.215.453.297l.86.281q.543.188.812.5.28.3.297.75.012.457-.281.797a1.28 1.28 0 01-.766.422q-.346.06-.64-.016a9 9 0 01-.47-.109C1.114.094 1.04.085 1 .109Q.952.137.89.266.827.39.75.39C.707.39.676.35.656.28L.125-1.125q-.048-.14.031-.203.078-.075.172.078L.5-.953q.154.3.36.516.217.222.64.375.435.139.797.015.375-.14.469-.484.093-.342 0-.578a.73.73 0 00-.266-.313q-.176-.124-.656-.266-.47-.152-.735-.234a1.8 1.8 0 01-.484-.25c-.148-.101-.266-.265-.36-.484q-.141-.342.016-.781.14-.404.485-.626c.226-.156.484-.234.765-.234.188 0 .336.024.453.063l.344.093q.171.048.219.032.03-.014.078-.11c.031-.07.066-.11.11-.11.038-.007.078.016.109.079m0 0"/></symbol><symbol id="b" overflow="visible"><path d="M1.484-4.36v.798q.094-.14.235-.313.14-.171.468-.312a1.73 1.73 0 011.688.14c.32.211.563.496.719.86q.232.55.218 1.234-.016.737-.328 1.281a1.7 1.7 0 01-.859.781c-.375.164-.727.227-1.047.188Q2.074.232 1.875.03l-.39-.312V.75q0 .187.046.297c.032.07.07.129.125.172q.094.077.39.078h.329c.082 0 .117.039.11.125 0 .082-.04.125-.11.125H.235q-.13-.001-.141-.125c0-.086.047-.125.14-.125h.22a.6.6 0 00.296-.063.3.3 0 00.156-.14q.047-.082.047-.328v-3.813a.9.9 0 00-.047-.312.5.5 0 00-.125-.235Q.7-3.688.453-3.688l-.187.016C.18-3.672.14-3.71.14-3.797c.007-.082.062-.125.156-.125l.172-.015a1 1 0 00.265-.032q.124-.045.313-.125a2 2 0 00.297-.172zm0 1.407v2.156q-.002.188.313.5c.219.2.5.3.844.313.289.007.547-.055.765-.203.219-.157.395-.383.531-.688q.219-.467.22-1.062A3.5 3.5 0 004-3.078c-.105-.313-.25-.55-.437-.719-.188-.176-.446-.27-.766-.281a1.25 1.25 0 00-.688.187q-.298.189-.468.454-.158.269-.157.484m0 0"/></symbol><symbol id="e" overflow="visible"><path d="M.297.328V.125q.576-.5.86-.781c.187-.188.413-.43.687-.735.281-.312.484-.554.61-.734q.198-.281.327-.469.122-.199.203-.422c.063-.156.102-.3.125-.437q.031-.2.032-.453a2.5 2.5 0 00-.063-.531 1.14 1.14 0 00-.219-.454 1.3 1.3 0 00-.437-.343 1.3 1.3 0 00-.61-.157q-.188.02-.359.079a1.4 1.4 0 00-.36.203.74.74 0 00-.25.28l-.234.423H.47q.06-.327.11-.5.059-.187.171-.39.123-.2.328-.376.218-.17.453-.266a1.5 1.5 0 01.532-.093q.185 0 .453.047c.175.03.336.086.484.156q.218.094.375.266.17.174.281.406.123.22.172.453.046.22.016.594a2.5 2.5 0 01-.047.375q-.034.128-.125.343a6 6 0 01-.172.375 5 5 0 01-.219.344q-.141.19-.5.625-.346.422-.828.89l-.86.845a44 44 0 011.485 0h.469c.07 0 .172-.008.297-.032.125-.02.242-.05.36-.094q.184-.075.218-.14l.172-.25h.156a4 4 0 00-.14.297 7 7 0 01-.141.453l-.14.406zm0 0"/></symbol><symbol id="Z" overflow="visible"><path d="M1.078-5.14l-.016-.173 1.579-.734V-.64c0 .25.007.414.03.485.02.062.063.117.126.156q.093.062.234.063l.375.015v.25H1.125v-.25c.082 0 .156-.008.219-.015q.093-.018.203-.047a.5.5 0 00.187-.078.4.4 0 00.11-.141Q1.89-.31 1.89-.61v-4.047q-.001-.2-.032-.328-.015-.141-.062-.188-.047-.06-.188-.062-.128.002-.25.015zm0 0"/></symbol><symbol id="Q" overflow="visible"><path d="M.36-2.984q0-.374.046-.766.062-.405.156-.703.106-.294.266-.578.17-.28.375-.485.217-.215.469-.343a1.46 1.46 0 011.125-.079q.216.082.422.25.201.16.39.407.2.235.313.5.122.269.203.718.075.44.094.829.028.39.015.812a9 9 0 01-.093.781 2.44 2.44 0 01-.437 1.063 2.5 2.5 0 01-.376.453 2 2 0 01-.453.313q-.27.137-.61.125c-.156 0-.32-.032-.484-.094a2 2 0 01-.437-.25 2.2 2.2 0 01-.36-.375 3.5 3.5 0 01-.296-.469 3.7 3.7 0 01-.204-.64 6 6 0 01-.109-.75 15 15 0 01-.016-.72M2.312.046a.9.9 0 00.328-.062c.101-.05.203-.129.297-.234q.138-.155.218-.344.078-.187.125-.625.062-.434.063-.781.014-.342.015-.906 0-.62-.03-.985a4 4 0 00-.063-.593A2.7 2.7 0 003.14-5a1.3 1.3 0 00-.203-.422.9.9 0 00-.282-.25 1 1 0 00-.312-.094.76.76 0 00-.375.094 1.2 1.2 0 00-.532.61 3 3 0 00-.14.515 6 6 0 00-.094.64q-.018.317 0 1.048.013.736.031 1.109.012.376.094.734.094.345.234.625c.094.18.204.297.329.36q.187.077.422.078m0 0"/></symbol><symbol id="aa" overflow="visible"><path d="M3.125-2.406a2 2 0 01-.703.375c-.18.054-.344.074-.5.062q-.33.001-.594-.11a2 2 0 01-.422-.265 1.4 1.4 0 01-.312-.36 1.6 1.6 0 01-.188-.5 2.7 2.7 0 01-.031-.765c.008-.289.047-.547.11-.765q.105-.343.234-.532c.094-.125.195-.234.312-.328q.188-.152.469-.281c.188-.094.398-.14.64-.14q.423.002.704.156.293.157.453.297.153.127.312.375c.102.167.188.355.25.562q.106.315.141.61.03.282.031.64.014.346-.031.656a3 3 0 01-.125.5 3.4 3.4 0 01-.422.906q-.129.205-.344.438a5 5 0 01-.421.406 5 5 0 01-.47.328c-.155.106-.312.18-.468.235a3 3 0 01-.531.156Q.92.312.734.313h-.28V.14Q.546.122.64.109A3 3 0 00.89.047c.113-.024.222-.047.328-.078q.17-.062.36-.156.185-.106.39-.282a3 3 0 00.375-.39 3 3 0 00.36-.532 2 2 0 00.233-.484zM1.094-4.062q0 .39.047.625.046.234.14.468c.07.156.16.29.266.39a.7.7 0 00.344.204q.2.048.453.031.201 0 .344-.047.152-.044.28-.125a.7.7 0 00.204-.187q.076-.107.078-.453-.017-.388-.047-.781a4 4 0 00-.078-.579A5 5 0 003-4.922a2 2 0 00-.156-.39q-.082-.186-.328-.313a1.3 1.3 0 00-.47-.14.9.9 0 00-.437.109.94.94 0 00-.453.61 2 2 0 00-.062.437 4 4 0 000 .547m0 0"/></symbol><symbol id="S" overflow="visible"><path d="M1.797-2.875l-.531-.406a2.4 2.4 0 01-.282-.281 2.3 2.3 0 01-.218-.376q-.111-.262-.11-.67c0-.282.063-.524.188-.735q.186-.31.531-.484.357-.187.75-.234.233-.014.453.03.217.034.328.079c.07.023.156.062.25.125.102.062.196.133.281.203a.9.9 0 01.22.25q.107.158.155.375.06.223.047.422a1.2 1.2 0 01-.125.422q-.093.222-.28.422a1.6 1.6 0 01-.376.312l-.453.281q.311.235.547.422.233.188.437.422c.133.149.235.313.297.5.07.188.11.387.11.594a2.3 2.3 0 01-.125.5 1.5 1.5 0 01-.25.469 1.7 1.7 0 01-.5.375q-.332.17-.813.172a1.7 1.7 0 01-.594-.079 2.2 2.2 0 01-.5-.218 1.6 1.6 0 01-.39-.344 1.2 1.2 0 01-.219-.406 1.7 1.7 0 01-.031-.47c0-.093.008-.194.031-.312q.047-.187.14-.343.094-.17.235-.328a4 4 0 01.39-.36zm.187.14a6 6 0 00-.328.297 2 2 0 00-.234.297 1.4 1.4 0 00-.156.407 1.6 1.6 0 00-.032.468q0 .345.063.563.06.222.172.375.123.158.328.281.2.122.562.11.31-.001.563-.125.248-.124.344-.282.091-.17.125-.36a1.3 1.3 0 00.03-.374 1.2 1.2 0 00-.14-.39 2.3 2.3 0 00-.36-.454 4 4 0 00-.421-.422zm.391-.624q.124.001.313-.125.185-.124.312-.313.14-.2.188-.36.06-.17.078-.452a5 5 0 000-.47.8.8 0 00-.172-.39 1 1 0 00-.328-.25 1.2 1.2 0 00-.485-.125q-.298.001-.515.125a.9.9 0 00-.328.25 1.3 1.3 0 00-.157.328.9.9 0 00-.015.391q.011.223.093.422.077.204.188.344.124.141.312.312.201.175.344.25a.6.6 0 00.172.063m0 0"/></symbol><symbol id="c" overflow="visible"><path d="M.25-2.687c.094-.22.21-.383.36-.5a.8.8 0 01.546-.188q.387.002.61.25a.7.7 0 01.156.422q0 .363-.453.75a.89.89 0 01.61.86q-.001.422-.266.734Q1.449.062.78.063.436.062.313-.016.202-.109.203-.203q0-.077.047-.125a.22.22 0 01.14-.047c.04 0 .083.008.126.016q.045.017.187.093.155.065.203.079a.6.6 0 00.203.03.56.56 0 00.422-.187.65.65 0 00.188-.453.9.9 0 00-.078-.375.8.8 0 00-.141-.219 1.2 1.2 0 00-.297-.171.9.9 0 00-.36-.079H.767v-.078a.84.84 0 00.375-.125.74.74 0 00.375-.64.57.57 0 00-.157-.407.54.54 0 00-.39-.156q-.376.001-.64.406zm0 0"/></symbol><symbol id="d" overflow="visible"><path d="M7.453-7.25l.734.61-.374.343v2.11q.028 4.64.062 4.64a1.2 1.2 0 01-.594.219V.109H1.516v.485a1.36 1.36 0 01-.594.25q.14-4.746.094-8.016l.672.344H7.14zm-3.766.64H1.97q-.535 0-.453.282v6.297H7.28V-6.61H3.797l.531.422a.1.1 0 01-.078.03.52.52 0 00-.312.22q-.176.236-.25.343h1.656c.187-.226.304-.36.36-.39q.452.47.593.64-.035.034-.11.032C6-5.29 5.82-5.187 5.658-5a.8.8 0 01-.141.14q-.345.47-.797.891a5.45 5.45 0 002.39.938l-.046.047c-.375.043-.633.183-.766.422l-.031.03q-.89-.31-1.828-1.202A7.9 7.9 0 011.797-2.22l-.078-.062c1.082-.594 1.879-1.18 2.39-1.766q-.374-.45-.656-1.187-.675.909-1.406 1.437l-.078-.031c.77-.914 1.344-1.844 1.719-2.781m-.14 1.235q.468.878.844 1.125c.406-.445.71-.82.922-1.125zm.36 2.313q.56.252.874.64.17.282-.031.563-.315.315-.39 0-.143-.704-.532-1.125zM2.812-1.484q1.999.222 2.468.468c.188.157.254.368.203.625q-.11.317-.39 0-.596-.48-2.282-.984zm0 0"/></symbol><symbol id="g" overflow="visible"><path d="M5.594-7.453l.812.422-.328.203v1.453h1.234v-1.547l.735.344q-.036.033-.094.078-.14.095-.14.14v1.298a1.14 1.14 0 01-.5.171v-.312H4.75c.414.23.625.36.625.39q-.236.096-.312.204a4 4 0 00-.141.593h2.812l.36-.453.656.64v.032H6.016q.14.064.484.25l-.094.094q-.222.14-.187.187a3.5 3.5 0 00-.032.594q.248.985.36 1.156a6.7 6.7 0 001.156-1.546q.45.42.531.562a1.06 1.06 0 00-.5.219q-.738.626-1.125.906.499 1.235 2 1.797V.5q-.702-.046-.937.281-1.236-1.064-1.594-2.89Q5.762.138 3.312.92L3.235.813c1.758-.617 2.594-2.148 2.5-4.609H4.86Q4.077-.67 2.11.781l-.062-.11c.344-.429.625-.769.844-1.03q-.252.188-.47.14v-.453h-.937v.703c-.074.07-.242.157-.5.25V-.953q.031-.42.032-.531v-1.641Q.64-2.387.219-1.906L.109-2q.95-1.653 1.407-4.016H.844L.5-5.984.281-6.22h2.36l.343-.422.532.563v.062H2.078L1.516-4.22l.109.172h.734l.25-.312.516.453-.203.25v3.265q.902-1.512 1.406-3.406h-.562l-.36.063-.172-.282h1.157c0-.113.023-.238.078-.375q.14-.561.14-.812h-.218l-.282.281-.484-.39.281-.282V-7.03l.735.343-.282.188v1.125h1.235zM2.422-3.828h-.703q-.282 0-.235.234v2.719h.938zm2.437 1.156h.063q.03 1.893-.531 1.688c-.188 0-.293-.07-.313-.22q-.002-.092.172-.202.357-.311.61-1.266m0 0"/></symbol><symbol id="f" overflow="visible"><path d="M7.953-7.203l.703.594-.047.062H5.141q-.001.047.203.14.31.19.39.22c-.023.023-.058.03-.109.03q-.175.081-.25.11A3 3 0 005-5.563a8 8 0 00-.281.391H6.78q.217-.31.328-.422.593.504.704.563a1.4 1.4 0 00-.36.25q-.002.954.078 2.36-.423.28-.64.233V-2.5H5.516L5.562.031q-.081.669-.89.844Q4.638.841 4.64.813c0-.336-.434-.594-1.297-.782V0h.765c.633.07.93-.008.891-.25V-2.5H3.594v.172q-.252.328-.563.281c0-.437.008-.96.031-1.578v-1.937q.342.25.626.39h.843c.313-.77.43-1.226.36-1.375H2.188q-.284-.06-.25.39a10 10 0 00-.032.923q.03 3.44-.422 4.359A9.2 9.2 0 01.313.781L.219.671Q1.2-.388 1.375-2.75q.03-1.575 0-2.953-.034-1.219-.11-1.406.03.001.391.218.14.065.313.141h5.453zm-1.062 2.25H3.828q-.28-.074-.234.172v.843H6.89zM3.594-3.734v1.03H6.89v-1.03zm-.219 1.906l.734.453a.5.5 0 01-.14.078c-.156.043-.274.11-.344.203A11.6 11.6 0 011.438.453L1.375.36q1.436-1.061 2-2.187m3.094.172q1.793.815 2 1.125c.144.336.086.582-.172.75Q8.12.247 8.016 0q-.456-.78-1.61-1.547zm0 0"/></symbol><symbol id="h" overflow="visible"><path d="M7-7.203q.668.564.844.875c-.024.023-.094.031-.219.031q-.487-.06-.703.031-.456.284-2.031 1.235.138.174.172.172-.002.081-.204.14l-.078.078v.985h2.532l.53-.594.813.766v.078H4.781V0q-.063.42-1.047.813a.24.24 0 01-.078-.11Q3.592.075 2.422-.078l.047-.063q1.078.143 1.36.11.357-.046.358-.25v-3.125H.985L.5-3.375l-.25-.281h3.938v-1.656q.03.001.453.218 1.155-.808 1.718-1.453H1.938l-.454.047-.14-.281h5.203q.171-.187.312-.282.106-.14.141-.14m0 0"/></symbol><symbol id="i" overflow="visible"><path d="M2.36-7.281q.701.393.765.453-.034.047-.062.078a.47.47 0 00-.313.281q-.11.207-.25.453a7 7 0 00-.39.735h1.156q.246-.28.328-.344.233.175.625.531a.7.7 0 01-.14.094l-.25.219.046 4.86a1.9 1.9 0 01-.531.312v-.672H1.516V.25Q1.263.451.922.594.952-1.234.953-2.5v-1.297q.03-.562.031-1.828l.672.344h.25c.094-.395.242-1.063.453-2m3.296.031q.218.142.36.219.528.28.484.281-.035.034-.14.11-.175.064-.204.14a2.6 2.6 0 00-.172.375q-.281.534-.359.781H7.39q.28-.356.343-.39.031.034.641.562a7 7 0 01-.36.313Q7.982-.17 7.532.28A2.8 2.8 0 016.5.921q-.033 0-.031-.077Q6.467.282 5.234 0l.047-.11q.06.034.14.032c.345.055.634.078.876.078h.484q.389-.03.532-1.156.14-1.061.14-4.016h-1.89q-.816 1.377-1.485 2.078l-.062-.078Q5.14-4.637 5.656-7.25M3.344-5.062H1.906c-.281 0-.414.117-.39.343v1.735h1.828zm1.719 1.328q.733.468 1.203 1.03a.77.77 0 010 .704q-.33.458-.5.14a.6.6 0 01-.063-.218c-.094-.563-.344-1.086-.75-1.578zm-3.547.953V-.5h1.828v-2.281zm0 0"/></symbol><symbol id="k" overflow="visible"><path d="M3.375-7.39l.922.39v.031q-.328.254-.328.36c-.024.093-.078.328-.172.703H5.28l.203-.36q.106-.169.141-.203l.734.563q-.002.033-.203.172-.253.174-.218.172v1.265q-.066.328.39.328h.844q.311-.047.36-.047.31-.059.452-1.156-.002-.107.032-.203h.14q-.112 1.158.39 1.297-.11.457-.53.562-.284.064-.907.063-.563.002-1.203-.031-.532-.029-.531-.485a14 14 0 01.047-1.734H3.766c-.243 1.105-.953 1.918-2.141 2.437-.219.137-.633.309-1.234.516l-.079-.14Q2.92-4.075 3.235-5.704H1.688l-.532.14-.234-.343h2.344c.07-.352.109-.848.109-1.485m.734 3.593L5-3.375l-.047.031q-.313.222-.312.25v.735H7l.453-.563.953.735-.078.046H4.641q.03 1.47.03 2.032.048.326.048.39-.112.498-.922.703Q3.734.311 2.703.141V.078q.919.094 1.235.094.17-.001.171-.172v-2.14H1.094l-.5.093-.203-.312h3.718zm-1.5 2.031l.766.5v.032q-.423.08-.531.172A15.5 15.5 0 01.422.78L.312.67Q1.768-.417 2.61-1.765m2.704.25c.914.305 1.734.688 2.453 1.157.164.242.21.476.14.718q-.234.45-.422.063c-.418-.563-1.152-1.18-2.203-1.86zm0 0"/></symbol><symbol id="l" overflow="visible"><path d="M2.813-7.344q.809.457.843.563-.035.063-.14.062a.82.82 0 00-.422.36q-.11.175-.485.843-.221.377-.25.485c.32.242.485.37.485.39 0 .024-.024.043-.063.063a.44.44 0 00-.172.36L2.5.671c-.117.094-.328.195-.64.312l.218-5.515Q1.154-3.312.313-2.47l-.094-.06a16.4 16.4 0 002.594-4.813m1.968 0q.95.456.985.485-.002.035-.203.14-.222.142-.22.172l-.03 3.344c.882-.82 1.625-1.61 2.218-2.36q.733.751.703.782a.6.6 0 01-.218.031q-.176-.03-.203 0a6 6 0 00-.422.36c-.75.68-1.446 1.261-2.078 1.75v2.25Q5.23.17 6.578.14c.633-.023 1.02-.124 1.156-.312q.281-.247.391-1.625h.14q-.08 1.66.454 1.719-.284.78-.953.781H6.5Q5.844.702 5.422.672q-.75-.112-.703-.703V-2.22q-.704.562-1.907.985l-.03-.11q1.264-.732 1.937-1.328zm0 0"/></symbol><symbol id="m" overflow="visible"><path d="M1.86-7.422q.387.253.812.5a.3.3 0 01-.11.063q-.28.221-.28.25-.205.595-.282.875h1.516l.422-.532.671.641v.11H1.97l-.735 2.109h1.047L2.25-5c.563.219.852.34.875.36q-.001.035-.172.14-.206.14-.172.14v.954h.625l.469-.563.594.656v.079H2.78v1.328l1.58-.344.032.14-1.61.594.031 2.22a2.4 2.4 0 01-.593.218l.062-2.266Q1.063-.95.734-.704h-.03q-.317-.42-.423-.671h.11q.169 0 1.89-.39v-1.47H1.203q-.047 0-.14.141-.112.174-.141.172a5 5 0 01-.5-.453q-.002 0 .172-.14a1.3 1.3 0 00.219-.141q.139-.388.53-1.766c-.03.055-.023.024.032-.094H.844l-.39.094-.204-.312h1.188q.327-.986.421-1.688m3.28.14q.45.223.907.391-.001.035-.172.141-.176.14-.14.14-.111 1.378-.11 1.657L6.609-5a6 6 0 01.36-.453q.421.315.703.562-.048.034-.219.172l-.203.188c-.125 2.687-.187 4.07-.187 4.14-.094.407.093.57.562.5.219.094.383-.363.5-1.375h.11Q8.184 0 8.546 0h.031q-.11.45-.484.563-.14.03-.844.03-.843-.002-.75-.812c0-.062.07-1.582.219-4.562l-1.094.031q-.112 2.642-.594 3.656c-.336.73-.98 1.43-1.937 2.11l-.11-.063c.875-.73 1.426-1.43 1.657-2.11q.387-.949.453-3.562l-.875.047-.39.063-.173-.282 1.438-.03v-.782q.047-.34.047-.656zm0 0"/></symbol><symbol id="n" overflow="visible"><path d="M6.438-7.453q.703.456.703.531c0 .024-.012.031-.032.031q-.393-.03-1.203.954h1.516l.422-.532.703.703-.031.032h-2.86q-.423.595-.625.875H6.61q0 .046.141-.203.105-.219.14-.22.45.393.673.563-.315.222-.313.25 0 .11.063 3.766-.206.205-.594.281v-.703h-2.5v.563q-.176.175-.563.25c.02-3.094.047-4.711.078-4.86l.657.313h.39c.094-.395.164-.688.219-.875H3.313a2.3 2.3 0 01-.47.03l-.171-.234h1.797q-.081-.075-.11-.28a2.6 2.6 0 00-.453-1.032l.063-.062q.779.422.953.734.105.253-.14.64h.843q.077-.106.031-.078.56-.903.782-1.437m-5.454.625q.921.329 1.266.75.17.656-.281.844-.11.001-.203-.25A2.97 2.97 0 00.922-6.75zM4.47-4.641q-.284 0-.25.282v.625h2.5v-.907zm-2.532.391q.389.316.594.516-.002.081-.203.187l-.11.063v3.03c.321.306.86.462 1.61.485Q4.778.11 8.61-.03v.06q-.596.047-.765.563Q6.184.56 4.859.53 3.594.498 3.313.421q-.392-.14-.954-.5a8 8 0 00-.453-.28q-.393 0-1.203.89v.031Q.527.5.281 0H.36q.422-.14 1.329-.562v-3.032H.703a1.2 1.2 0 01-.312.047l-.172-.25h1.36q0 .035.187-.219.138-.234.172-.234m2.282.734v.985h2.5v-.985zm2.5 1.157h-2.5v1.015h2.5zm0 0"/></symbol><symbol id="o" overflow="visible"><path d="M7.25-7.281q.481.393.656.593a.11.11 0 01-.093.047.56.56 0 00-.36.141Q6.265-5.374 5.234-4.672l-.062-.078Q6.357-5.98 7.25-7.281m-2.5.078l.844.656-.032.047H4.11v2.484h.329l.453-.453.703.64-.032.032H4.11L4.156-.03a.8.8 0 01-.562.25v-4.016H2.28q0 2.003-.422 2.875Q1.544-.079.25.734L.14.672q1.015-.89 1.297-1.735.33-.794.282-2.734H.875l-.484.063-.22-.282H1.72V-6.5h-.657l-.39.094-.25-.282H4.36zM3.594-6.5H2.28v2.484h1.313zm3.86 1.578q.17.143.64.672a.2.2 0 01-.11.031c-.187 0-.367.086-.53.25Q6.217-2.639 4.718-2l-.047-.11c1.101-.706 2.031-1.644 2.781-2.812m.39 2.39c.226.212.453.446.672.704a.14.14 0 01-.079.031q-.316-.03-.562.25Q6.715-.31 5.625.141 4.53.56 3.094.92L3.063.78Q4.715.278 5.765-.359q1.012-.732 2.078-2.172m0 0"/></symbol><symbol id="p" overflow="visible"><path d="M4.531-7.344q.89.283.922.313-.002.063-.11.11-.14.095-.14.202v1.297H7.25l.422-.562.766.672-.032.078H5.203q.107 2.202.734 3.515a9.5 9.5 0 00.891-2.922q.844.345.844.422a.6.6 0 01-.11.11q-.141.035-.171.14c-.032.024-.059.078-.079.172Q6.689-1.968 6.22-1.266 6.857-.31 7.766.031q.075.142.562-1.61l.11.032C8.344-.91 8.32-.395 8.375 0q.029.31.203.672.077.14.031.203-1.047.188-2.734-1.687C5.125-.125 4.195.414 3.094.813l-.031-.11Q4.606.001 5.624-1.234q-.878-1.576-.953-4h-2.39c-.212 0-.313.105-.313.312v1.266h1.406s.023-.035.078-.11q.14-.248.203-.25.53.362.672.5c0 .043-.086.11-.25.204l-.062.046q-.049.845-.11 1.5-.033.645-.11 1.266c-.093.336-.413.555-.952.672q-.036-.452-.985-.734l.047-.141q1.36.345 1.407-.031.028-.359.062-1.172.03-.844.078-1.547H1.97C2.062-1.316 1.489.113.25.844L.172.78c.875-.76 1.297-2.038 1.266-3.842q-.001-1.154-.032-1.75v-.985l.735.375h2.53q-.14-1.575-.14-1.922M5.766-7q1.061.143 1.437.531.187.626-.281.766-.065 0-.14-.14-.316-.622-1.016-1.079zm0 0"/></symbol><symbol id="q" overflow="visible"><path d="M6.578-7.203l.813.703-.047.031H2l-.484.11-.282-.282h4.891zm1.016 2.14l.843.766v.078H4.72V-.28Q4.67.5 3.797.734q-.034 0-.063-.093C3.66.266 3.258.023 2.531-.08v-.14q1.061.143 1.297.11.282 0 .281-.282V-4.22H1.094a2.5 2.5 0 01-.422.063l-.25-.282H7zM2.39-3.655q.668.455.875.672-.036.063-.094.062c-.219.024-.406.172-.563.453Q1.344-.529.172.25L.109.172q1.467-1.606 2.282-3.828m3.125.312c1.289.992 2.113 1.75 2.468 2.282q.2.814-.421 1.03-.113.036-.141-.187-.361-1.266-2-3.047zm0 0"/></symbol><symbol id="r" overflow="visible"><path d="M3.875-7.453q.762.282.984.625.062.22-.218.5l-.032.031h2l.5-.562.766.703-.031.078h-2.25q.31.176.625.422c0 .023-.024.043-.063.062q-.392.174-.843.735h2.14l.422-.516.781.703-.047.031H1.094l-.5.063-.235-.281h2.985a1.72 1.72 0 00-.531-1.078v-.079c.613.243.976.5 1.093.782q-.035.14-.14.375H5.03q.389-.761.485-1.22h-3.47l-.5.032-.171-.25h2.953c-.094-.508-.262-.86-.5-1.047zm2.672 3.062q.563.375.703.563-.328.174-.328.203l.047 1.86c-.219.148-.422.218-.61.218v-.281H2.641v.14q-.423.251-.563.204l.031-2.907q.029.002.391.204.168.14.25.14h3.516q0 .035.14-.172.095-.17.14-.172m-.14.563H2.89q-.284.002-.25.203v.563h3.765zm0 .984H2.64v.797h3.765zm-2.36 1.297q.81.345 1.047.625.187.563-.313.703-.112.001-.172-.203a2 2 0 00-.593-1.016zm-1.375.172q.779.221.812.25 0 .065-.078.14-.14.175-.14.313-.001.08-.032.172-.002.394.032.5-.207.388 1.375.313.843-.035.984-.063a.64.64 0 00.36-.172c.093-.195.187-.578.28-1.14l.094-.032c-.062.73.079 1.149.422 1.266q-.093.562-1.5.562-.393.047-1.625.047Q2.562.78 2.703-.03a7 7 0 00-.031-.813zm4.156.25q.937.392 1.36.766.279.608-.204.78-.175-.033-.25-.25-.204-.56-.953-1.187zm-5.11-.031l.11.031q.031.814-.25 1.234Q1.016.73.594.391.498.216.813 0a1.61 1.61 0 00.906-1.156m0 0"/></symbol><symbol id="j" overflow="visible"><path d="M.86-1.687v-.094q.17-.03.265-.063.107-.03.203-.093a.8.8 0 00.188-.141.8.8 0 00.125-.219.7.7 0 000-.578.5.5 0 00-.125-.156.37.37 0 00-.188-.11.8.8 0 00-.266-.046 1.2 1.2 0 00-.265.062.34.34 0 00-.172.11l-.11.124-.062.094q-.047.034-.078.016a.07.07 0 01-.047-.047q0-.031.063-.125l.125-.172a.5.5 0 01.156-.172.8.8 0 01.219-.125.9.9 0 01.28-.078q.153-.012.282 0a.7.7 0 01.234.063c.07.03.133.07.188.109q.076.065.14.172.06.094.079.187.029.082.015.188a.7.7 0 01-.046.25 1.1 1.1 0 01-.282.39L1.641-2q.17.111.28.188.107.062.173.156.077.08.125.218.06.141.062.329.013.175-.015.328a3 3 0 01-.094.297c-.043.093-.094.18-.156.25a1.4 1.4 0 01-.203.187q-.128.076-.297.14-.16.06-.313.079-.142.012-.344 0Q.796.17.656.156A1 1 0 01.453.11.2.2 0 01.328.031a.25.25 0 01-.047-.11Q.28-.136.297-.171.31-.2.375-.234A.4.4 0 01.5-.266a.6.6 0 01.172.063l.203.094a.45.45 0 00.188.03q.107.02.25 0a.9.9 0 00.265-.093.54.54 0 00.188-.187c.05-.094.086-.18.109-.266a.7.7 0 00.047-.25 1.3 1.3 0 00-.063-.234.6.6 0 00-.109-.22.7.7 0 00-.203-.202.6.6 0 00-.234-.11zm0 0"/></symbol><symbol id="I" overflow="visible"><path d="M.86-2.203q.122.128.187.25c.02.055.066.203.14.453l.22-.312a.8.8 0 01.202-.22 1.2 1.2 0 01.22-.155.5.5 0 01.124-.016.25.25 0 01.172.062q.061.049.063.125 0 .096-.047.125a.2.2 0 01-.157.063.4.4 0 01-.109-.016.5.5 0 00-.156-.047c-.032 0-.074.024-.125.063q-.158.142-.375.5l.203.844A1 1 0 001.5-.25q.03.033.063.031.06 0 .125-.062a.8.8 0 00.234-.297L2-.531q-.157.298-.39.484c-.094.07-.169.11-.22.11-.093 0-.167-.055-.218-.157Q1.107-.186.953-.922q-.375.674-.61.86-.157.124-.28.125a.27.27 0 01-.188-.079.17.17 0 01-.062-.14q.002-.077.062-.125A.16.16 0 010-.344c.05 0 .11.028.172.078q.058.064.094.063.03 0 .078-.047a2.4 2.4 0 00.312-.39q.2-.312.266-.454a27 27 0 00-.172-.625.5.5 0 00-.156-.218q-.082-.078-.25-.079c-.043 0-.09.008-.14.016v-.094zm0 0"/></symbol><symbol id="T" overflow="visible"><path d="M.797-2.203q.075.141.11.265.027.111.062.485l.11 1.187q.14-.17.421-.546.14-.187.328-.516c.082-.125.133-.211.156-.266.008-.031.016-.054.016-.078a.1.1 0 00-.016-.047.4.4 0 00-.093-.031.25.25 0 01-.125-.094.22.22 0 01-.047-.14c0-.07.02-.125.062-.157a.2.2 0 01.14-.062q.107 0 .188.094.078.081.079.234a.9.9 0 01-.141.438 6.5 6.5 0 01-.5.765C1.297-.328.992.04.64.438q-.375.42-.563.53a.6.6 0 01-.297.11.16.16 0 01-.125-.062A.16.16 0 01-.406.89q0-.095.078-.172A.23.23 0 01-.156.64q.047 0 .078.015A.3.3 0 01-.031.72q.017.058.047.094h.03Q.059.811.095.797A5 5 0 00.406.53C.562.375.676.242.75.141L.61-1.406Q.573-1.793.5-1.875q-.065-.077-.219-.078c-.031 0-.094.008-.187.016l-.016-.094zm0 0"/></symbol><symbol id="U" overflow="visible"><path d="M1.563-3.984a1.9 1.9 0 01.328.468q.074.16.25.829l.39-.579q.153-.216.375-.406a1.7 1.7 0 01.39-.265.6.6 0 01.235-.047c.125 0 .223.039.297.109.07.063.11.148.11.25 0 .105-.024.18-.063.219a.42.42 0 01-.281.11.6.6 0 01-.203-.032 1 1 0 00-.266-.078q-.11.001-.25.125-.28.234-.656.89l.36 1.5q.075.364.14.422.06.064.11.063.091 0 .218-.094.246-.201.406-.531l.156.078q-.27.518-.703.86C2.75.038 2.613.108 2.5.108q-.251 0-.39-.28-.094-.17-.376-1.47Q1.045-.45.625-.109.355.108.109.109a.47.47 0 01-.312-.125.37.37 0 01-.11-.265q0-.14.094-.235.094-.107.235-.109.139 0 .297.14.123.111.187.11c.031 0 .07-.023.125-.078q.217-.153.563-.703.357-.562.468-.813-.269-1.06-.297-1.125-.094-.294-.265-.406-.159-.124-.469-.125c-.074 0-.152.008-.234.016v-.157zm0 0"/></symbol><symbol id="M" overflow="visible"><path d="M1.438-3.984q.153.269.203.484.06.22.125.875l.187 2.156q.263-.31.766-1c.156-.218.351-.52.594-.906q.217-.358.265-.5a.3.3 0 00.031-.14.12.12 0 00-.03-.079.5.5 0 00-.173-.062.5.5 0 01-.219-.156.47.47 0 01-.078-.266.38.38 0 01.11-.281.34.34 0 01.265-.125q.188 0 .329.172.14.157.14.437-.002.345-.25.797-.235.44-.906 1.36C2.347-.603 1.8.065 1.157.796q-.657.75-.985.937c-.207.133-.39.204-.547.204a.3.3 0 01-.234-.11.3.3 0 01-.11-.234q0-.174.14-.313.143-.14.313-.14.095 0 .141.046.033.013.078.125.045.106.078.141c.02.008.035.016.047.016q.029 0 .094-.047.246-.14.562-.469.422-.44.625-.703l-.234-2.781q-.064-.686-.187-.844-.13-.154-.422-.156-.094 0-.328.031l-.032-.156zm0 0"/></symbol><clipPath id="s"><path d="M0 4h103v54H0zm0 0"/></clipPath><clipPath id="t"><path d="M0 58.3h102.504V4.169H0zM44.54 4.966l2.304 6.324c-.707-.488-1.414-.68-2.055-.703V36.57h-.5V10.594c-1.191.097-2.05.695-2.05.695zm0 0"/></clipPath><clipPath id="u"><path d="M102.348 4.168H205V58H102.348zm0 0"/></clipPath><clipPath id="w"><path d="M205 4.168h102V58H205zm0 0"/></clipPath><clipPath id="v"><path d="M307 4h69v81h-69zm0 0"/></clipPath><clipPath id="y"><path d="M307.277 85.168h68.364v-81h-68.364zm52.903-48.39l4.535-2.551.246.433-4.535 2.55zm-49.61 5.14l.094-.492 14.457 2.691-.094.492zm0 0"/></clipPath><clipPath id="x"><path d="M0 58.14h239v7.06H0zm44.79 7.06H239v3.116H44.79zM0 65.2h44.29V85H0zm44.79 3.116h92.51V85H44.79zm93.01 0H239V85H137.8zm0 0"/></clipPath><clipPath id="B"><path d="M239 58.14h68v7.766h-68zm0 7.766h.207V85H239zm.707 0H307V85h-67.293zm0 0"/></clipPath><clipPath id="D"><path d="M310 41h15v4h-15zm0 0"/></clipPath><clipPath id="z"><path d="M310.57 41.918l14.457 2.691.094-.492-14.457-2.691zm0 0"/></clipPath><clipPath id="F"><path d="M360 34h5v3h-5zm0 0"/></clipPath><clipPath id="A"><path d="M360.18 36.777l.246.434 4.535-2.55-.246-.434zm0 0"/></clipPath><clipPath id="H"><path d="M239.207 66h.5v19h-.5zm0 0"/></clipPath><clipPath id="C"><path d="M137.3 68.316h.5V85h-.5zm0 0"/></clipPath><clipPath id="K"><path d="M44 10h1v27h-1zm0 0"/></clipPath><clipPath id="L"><path d="M44.29 10.594V36.57h.5V10.586a2 2 0 00-.165-.008q-.171.002-.336.016"/></clipPath><clipPath id="E"><path d="M42 5h5v6h-5zm0 0"/></clipPath><clipPath id="N"><path d="M42.238 11.29s.86-.599 2.051-.696v-.899h.5v.89c.64.024 1.348.216 2.055.704l-2.305-6.324zm0 0"/></clipPath><clipPath id="P"><path d="M44 10h1v1h-1zm0 0"/></clipPath><clipPath id="G"><path d="M44.29 9.695v.899c.108-.008.222-.016.335-.016q.083.001.164.008v-.89zm0 0"/></clipPath><clipPath id="R"><path d="M44.29 65.2h.5V85h-.5zm0 0"/></clipPath><clipPath id="J"><path d="M31 104h316v88.906H31zm0 0"/></clipPath><clipPath id="X"><path d="M64 90h255v34H64zm0 0"/></clipPath><clipPath id="V"><path d="M71.008 94.004c4.3 1.805 7.836 3.558 12.203 4.523l10.824.985c9.895 1.808 19.63.59 29.309-.63 7.894-.991 15.754-1.987 23.633-1.335 4.863.398 19.613-.324 29.125 2.36 4.656 1.316 7.722 3.796 11.414 5.511l.195.59-6.887-1.774c2.344 3.055 5.059 5.832 7.082 9.25 1.875 3.168 2.375 6.965 4.133 10.434 1.535-5.836 6.965-16.555 11.613-18.895q.101-.196.196-.394l-7.082 1.773h-.2v-.789c19.715-11.332 50.164-4.793 76.36-4.722 10.656.027 21.613.488 30.11-1.97 2.558-1.112 5.116-2.23 7.675-3.343 2.45-1.023 5.703-1.613 7.48-3.348h.395q-6.007-.094-12.008-.195-6.293.101-12.594.195c-1.898.598-4.175 1.844-6.691 2.364l-9.645.785c-2.949-.067-5.902-.129-8.855-.195h-6.492c-8.66-.79-17.32-1.575-25.98-2.364-9.864-1.582-29.247-.175-36.997 1.97-2.215.612-4.652 2.3-6.496 2.757-.746.183-6.93-3.168-8.855-3.742-7.504-2.227-16.485-1.274-25.387-2.36-6.836-.836-15.469.383-21.453 1.375-6.559.461-13.117.918-19.68 1.38-10.207 1.628-21.637-.845-28.34-2.954-8.133-.129-16.27-.262-24.402-.39-.121 1.19 4.887 2.554 6.297 3.148"/></clipPath><clipPath id="O"><path d="M64 193h255v34H64zm0 0"/></clipPath><clipPath id="Y"><path d="M71.008 196.336c4.3 1.805 7.836 3.559 12.203 4.523l10.824.985c9.895 1.808 19.63.59 29.309-.63 7.894-.991 15.754-1.987 23.633-1.339 4.863.402 19.613-.324 29.125 2.363 4.656 1.313 7.722 3.797 11.414 5.508l.195.594q-3.444-.89-6.887-1.774c2.344 3.051 5.059 5.829 7.082 9.25 1.875 3.168 2.375 6.965 4.133 10.43 1.535-5.832 6.965-16.55 11.613-18.89l.196-.395-7.082 1.77h-.2v-.786c19.715-11.332 50.164-4.793 76.36-4.722 10.656.027 21.613.488 30.11-1.97l7.675-3.347c2.45-1.023 5.703-1.61 7.48-3.344h.395l-12.008-.199-12.594.2c-1.898.593-4.175 1.843-6.691 2.359q-4.822.397-9.645.789-4.425-.1-8.855-.195h-6.492c-8.66-.79-17.32-1.575-25.98-2.364-9.864-1.586-29.247-.18-36.997 1.97-2.215.612-4.652 2.296-6.496 2.753-.746.188-6.93-3.168-8.855-3.738-7.504-2.227-16.485-1.274-25.387-2.364-6.836-.835-15.469.383-21.453 1.38l-19.68 1.378c-10.207 1.63-21.637-.844-28.34-2.953-8.133-.133-16.27-.262-24.402-.394-.121 1.191 4.887 2.558 6.297 3.152"/></clipPath><clipPath id="W"><path d="M132.441 228h100.157v99.688H132.44zm0 0"/></clipPath></defs><path fill="#ed1c24" d="M96.578 338.527a4.606 4.606 0 014.606-4.605 4.605 4.605 0 11-4.605 4.605"/><path fill="#fff" d="M104.836 341.172h-7.309l3.657-6.332zm0 0"/><g fill="#231f20"><use x="163.35" y="327.63" href="#a"/><use x="166.85" y="327.63" href="#b"/></g><use x="171.86" y="323.13" fill="#231f20" href="#c"/><use x="105.78" y="341.91" fill="#231f20" href="#d"/><use x="110.28" y="341.91" fill="#231f20" href="#d"/><use x="119.02" y="341.91" fill="#231f20" href="#e"/><use x="123.52" y="341.91" fill="#231f20" href="#f"/><use x="129.49" y="341.91" fill="#231f20" href="#e"/><use x="133.99" y="341.91" fill="#231f20" href="#f"/><g fill="#231f20"><use x="139.97" y="341.91" href="#e"/><use x="144.47" y="341.91" href="#d"/></g><g fill="#231f20"><use x="153.47" y="341.91" href="#g"/><use x="162.47" y="341.91" href="#f"/><use x="171.47" y="341.91" href="#h"/><use x="180.47" y="341.91" href="#i"/></g><g fill="#231f20"><use x="189.47" y="341.91" href="#a"/><use x="192.97" y="341.91" href="#b"/></g><use x="197.98" y="337.56" fill="#231f20" href="#j"/><g fill="#231f20"><use x="200.6" y="341.91" href="#k"/><use x="209.6" y="341.91" href="#l"/><use x="218.6" y="341.91" href="#m"/><use x="227.6" y="341.91" href="#n"/><use x="236.6" y="341.91" href="#o"/><use x="245.6" y="341.91" href="#p"/><use x="254.6" y="341.91" href="#q"/><use x="263.6" y="341.91" href="#r"/><use x="272.6" y="341.91" href="#d"/></g><path fill="#231f20" d="M325.121 44.117l-14.457-2.691-.09.492 14.453 2.691zm35.301-6.907l4.535-2.55-.242-.433-4.535 2.55zM239.707 65.906h-.5v19.418h.5zM137.8 68.316h-.5v17.008h.5zM44.79 9.695h-.5V36.57h.5zm0 0"/><path fill="#231f20" d="M44.54 4.96l-2.302 6.33s2.301-1.595 4.606 0zm.25 60.24h-.5v19.968h.5zm0 0"/><g clip-path="url(#s)"><g clip-path="url(#t)"><use href="#u" transform="matrix(.23987 0 0 .23917 -.16 4.009)"/></g></g><g clip-path="url(#u)"><use href="#v" transform="matrix(.23987 0 0 .23917 102.346 4.009)"/></g><g clip-path="url(#w)"><use href="#x" transform="matrix(.23969 0 0 .23917 204.852 4.009)"/></g><g clip-path="url(#v)"><g clip-path="url(#y)"><use href="#z" transform="matrix(.2396 0 0 .23987 307.277 4.009)"/></g></g><g clip-path="url(#x)"><use href="#A" transform="matrix(.2398 0 0 .23847 -.16 58.14)"/></g><g clip-path="url(#B)"><use href="#C" transform="matrix(.23931 0 0 .23847 238.994 58.14)"/></g><g clip-path="url(#D)"><g clip-path="url(#z)"><use href="#E" transform="matrix(.2373 0 0 .23987 310.476 41.349)"/></g></g><g clip-path="url(#F)"><g clip-path="url(#A)"><use href="#G" transform="matrix(.23226 0 0 .23987 360.13 34.153)"/></g></g><g clip-path="url(#H)"><use href="#I" transform="matrix(.21322 0 0 .23987 239.153 65.816)"/></g><g clip-path="url(#C)"><use href="#J" transform="matrix(.21322 0 0 .23987 137.208 68.214)"/></g><g clip-path="url(#K)"><g clip-path="url(#L)"><use href="#M" transform="matrix(.21322 0 0 .23987 44.217 10.485)"/></g></g><g clip-path="url(#E)"><g clip-path="url(#N)"><use href="#O" transform="translate(42.138 4.888) scale(.23987)"/></g></g><g clip-path="url(#P)"><g clip-path="url(#G)"><use href="#Q" transform="matrix(.21322 0 0 .20789 44.217 9.606)"/></g></g><g clip-path="url(#R)"><use href="#S" transform="matrix(.21322 0 0 .23987 44.217 65.096)"/></g><path fill="#231f20" d="M96.555 66.414l6.722-.387s-2.375-1.484-1.82-4.226z"/><path fill="none" stroke="#231f20" stroke-width=".5" d="M36.203 54.929L14.546 66.636"/><path fill="#231f20" d="M10.383 68.883l6.66-.98s-2.496-1.266-2.191-4.051zM78.98 57.73l-5.777-3.453s1.133 2.559-.867 4.52z"/><g fill="#231f20"><use x="46.23" y="85.05" href="#e"/><use x="50.73" y="85.05" href="#a"/></g><g fill="#231f20"><use x="140.41" y="83.99" href="#e"/><use x="144.91" y="83.99" href="#b"/></g><use x="149.92" y="85.49" fill="#231f20" href="#I"/><g fill="#231f20"><use x="242.32" y="84.27" href="#e"/><use x="246.82" y="84.27" href="#b"/></g><use x="251.83" y="85.77" fill="#231f20" href="#T"/><g fill="#231f20"><use x="344.15" y="83.9" href="#e"/><use x="348.65" y="83.9" href="#b"/></g><use x="353.66" y="85.4" fill="#231f20" href="#J"/><use x="48.11" y="10.23" fill="#231f20" href="#ag"/><use x="140.7" y="10.23" fill="#231f20" href="#ag"/><use x="243.24" y="10.23" fill="#231f20" href="#ag"/><use x="344.55" y="10.23" fill="#231f20" href="#ag"/><use x="16.74" y="73.95" fill="#231f20" href="#U"/><use x="41.12" y="53.4" fill="#231f20" href="#V"/><use x="128.03" y="53.68" fill="#231f20" href="#V"/><use x="246.51" y="52.84" fill="#231f20" href="#V"/><use x="336.94" y="35.83" fill="#231f20" href="#V"/><use x="150.76" y="44.73" fill="#231f20" href="#aj"/><use x="222.62" y="47.84" fill="#231f20" href="#aj"/><use x="337.56" y="63.72" fill="#231f20" href="#aj"/><use x="101.67" y="71.4" fill="#231f20" href="#U"/><use x="215.01" y="71.9" fill="#231f20" href="#U"/><use x="309.67" y="71.65" fill="#231f20" href="#U"/><use x="269.87" y="62.9" fill="#231f20" href="#M"/><use x="373.49" y="62.9" fill="#231f20" href="#M"/><use x="166.86" y="62.9" fill="#231f20" href="#M"/><use x="71.03" y="65.02" fill="#231f20" href="#M"/><path fill="none" stroke="#231f20" stroke-width=".5" d="M137.551 33.141V9.696"/><path fill="#231f20" d="M137.55 4.96l-2.3 6.33s2.3-1.595 4.602 0z"/><path fill="none" stroke="#231f20" stroke-width=".5" d="M239.457 35.859V9.871"/><path fill="#231f20" d="M239.457 5.14l-2.3 6.325s2.3-1.594 4.6 0z"/><path fill="none" stroke="#231f20" stroke-width=".5" d="M340.371 21.12V9.691"/><path fill="#231f20" d="M340.371 4.96l-2.305 6.33s2.305-1.595 4.606 0zm-35.469 61.372l6.68-.82s-2.465-1.328-2.09-4.102zm73.278-10.914l-5.801-3.414s1.148 2.555-.84 4.527zm-102.992 0l-5.75-3.496s1.113 2.57-.903 4.516zm-72.192 11.34l6.676-.856s-2.469-1.316-2.11-4.093zM174.7 55.277l-5.786-3.445s1.137 2.559-.86 4.523z"/><path fill="none" stroke="#231f20" stroke-width=".5" d="M114.602 42.945l-6.094-1.133m104.738.672l-6.094-1.133m133.219 33.911v9.902M55.859 41.671l11.785-7.007M30.633 47.441l-20.676-4.11m150.181-4.268l5.445-2.493"/><g clip-path="url(#J)"><use href="#ag" transform="translate(30.87 103.892) scale(.1843)"/></g><use x="62.74" y="161.38" fill="#231f20" href="#W"/><use x="144.51" y="164.5" fill="#231f20" href="#W"/><use x="237.63" y="163.13" fill="#231f20" href="#W"/><use x="298.29" y="147.07" fill="#231f20" href="#W"/><use x="83.42" y="155.57" fill="#231f20" href="#ao"/><use x="149.75" y="147.21" fill="#231f20" href="#ao"/><use x="213.38" y="156.53" fill="#231f20" href="#ao"/><use x="297.29" y="167.62" fill="#231f20" href="#ao"/><g clip-path="url(#X)"><g clip-path="url(#V)"><use href="#aj" transform="translate(43.26 85.737) scale(.1968)"/></g></g><g clip-path="url(#O)"><g clip-path="url(#Y)"><use href="#am" transform="translate(43.26 188.068) scale(.1968)"/></g></g><g clip-path="url(#W)"><use href="#ao" transform="translate(132.44 227.756) scale(.2292)"/></g><use x="177.06" y="264.7" fill="#231f20" href="#ax"/><use x="174.22" y="297.02" fill="#231f20" href="#ax"/><use x="201.44" y="292.44" fill="#231f20" href="#ax"/><use x="151.55" y="281.43" fill="#231f20" href="#ax"/><g fill="#231f20"><use x="205.63" y="255.35" href="#Z"/><use x="210.13" y="255.35" href="#Q"/><use x="214.62" y="255.35" href="#aa"/></g><use x="219.12" y="255.35" fill="#231f20" href="#aB"/><g fill="#231f20"><use x="224.61" y="255.35" href="#e"/><use x="229.11" y="255.35" href="#S"/></g><use x="233.61" y="255.35" fill="#231f20" href="#aD"/><g fill="#231f20"><use x="129.34" y="301.26" href="#a"/><use x="132.84" y="301.26" href="#b"/></g><use x="137.85" y="296.77" fill="#231f20" href="#c"/><g fill="#231f20"><use x="170.44" y="235.49" href="#a"/><use x="173.94" y="235.49" href="#b"/></g><use x="178.95" y="231" fill="#231f20" href="#c"/><g fill="#231f20"><use x="223.14" y="305.76" href="#a"/><use x="226.64" y="305.76" href="#b"/></g><use x="231.64" y="301.27" fill="#231f20" href="#c"/></svg>