<svg viewBox="0 0 491.27 386.6"><defs><symbol id="a" overflow="visible"><path d="M7.64-5.64V.843H8c.281 0 .766-.297.766-.39v-5.579c.078-.016.375-.25.422-.516L7.64-5.797zm-2.89.015v1.875c0 1.547-.25 3.125-2.203 4.297l.281.36c2.453-1.08 3.063-3.033 3.078-4.642V-5.11c.063 0 .344-.25.375-.5L4.75-5.781zm2.016-3.14c.562 1.578 1.843 3.046 3.515 4.078.14-.532.188-.641.656-.72l.047-.312C9.281-6.53 8-7.625 7.406-8.78c0 0 .328-.203.36-.406l-1.578-.376c-.47 1.704-2.032 3.641-3.594 4.688l.234.406c1.906-1 3.594-2.703 4.344-4.297zM2.64-9.392C2.078-7.266 1.17-5.219.14-3.75l.406.313a10.8 10.8 0 001.484-1.86l-.344-.11v6.25h.344c.281 0 .781-.296.797-.374V-5.97c-.015 0 .297-.218.344-.375L2.734-6.5c.297-.594.735-1.5.985-2.172.11 0 .437-.234.5-.422l-1.516-.484zm0 0"/></symbol><symbol id="b" overflow="visible"><path d="M4.828-5.266H2.312v-1.78h2.313v1.78zm-.203.485v1.797H2.313v-1.672h2.312zM5.75-5.11v-1.938h2.484v1.781H5.75zm-.187.453h2.671v1.672H5.75v-1.672zm-3.25 2.672v-.391h2.312v1.781c0 .797.563 1.156 1.688 1.156H7.89c2.297 0 2.984-.234 2.984-.656 0-.156-.281-.375-.375-.406l-.031-1.766h-.516c-.203.938-.281 1.5-.39 1.688-.079.11.015.094-.157.11-.234.03-.75.046-1.5.046H6.36c-.687 0-.609.016-.609-.344v-1.609h2.484v.64h.313c.25 0 .812-.312.828-.374v-4.844c.016-.016.328-.125.5-.344l-1.156-.89-.5.53H5.75v-1.218c.078-.016.39-.266.406-.531l-1.531-.188v1.938H2.203L1.188-8.11v6.5h.343c.297 0 .782-.297.782-.375m0 0"/></symbol><symbol id="c" overflow="visible"><path d="M1.406-8.453L1.563-8H7.64c-.344.328-1.188 1.078-1.891 1.531L5-6.547v1.844H.25l.188.61H5v3.64c0 .203.125.14-.14.14-.313 0-1.829.126-1.829.126l-.328-.094V0c.89.094 1.125.172 1.344.281.219.125.234.203.312.61C5.781.734 6.141.203 6.141-.391v-3.703h4.14c.156 0 .485-.187.5-.343-.484-.438-1.14-.75-1.14-.75l-.282-.204-.562.688H6.14V-5.86c.062-.016.359-.25.406-.516l-.422-.047v.266c1.078-.453 2.344-1.219 3.063-1.735a1.45 1.45 0 00.656-.234L8.688-9.187l-.61.593H1.375zm0 0"/></symbol><symbol id="d" overflow="visible"><path d="M5.234-5.266l-.203.22c.797.75 1.094 1.671 1.328 2.343.75.703 1.547-1.485-1.062-2.625zm4.329-2.171l-.485.656v-2.016c.063-.015.375-.25.438-.515L7.953-9.5v2.719H4.61l.157.593h3.187v5.75c0 .172.14.094-.094.094-.265 0-1.5.156-1.5.156L6.016-.28v.265c.797.094.984.157 1.172.297.187.125.187.219.25.594C8.75.75 9.078.203 9.078-.375v-5.812h1.219c.14 0 .453-.188.484-.329-.39-.437-.953-.718-.953-.718zm-8.454.828l-.265.203c.828.765 1.484 1.64 1.937 2.422C2.125-2.406 1.297-1.031.063.203l.406.344c1.406-1.11 2.344-2.375 2.906-3.469.266.516.516 1.172.672 1.735.422.984 1.562.375.89-1.094a10 10 0 00-1.015-1.703c.547-1.188.906-2.438 1.125-3.485a.75.75 0 00.5-.297L4.5-8.734l-.531.562H.28l.188.61H3.89a18.4 18.4 0 01-.735 2.64c-.328-.406-.984-1.062-1.89-1.781zm0 0"/></symbol><symbol id="e" overflow="visible"><path d="M5.594-8.812L4.469-9.25a17 17 0 01-.75 1.922l.422.266c.437-.422.859-.907 1.156-1.282.11 0 .453-.219.516-.39zm-4.64-.22l-.25.141c.452.485.734.985.796 1.516.672.547 1.438-.969-.453-1.719zm2.25 5.188c.327.031.624-.203.687-.39l-1.407-.453c-.171.453-.296.75-.5 1.156H.22l.172.61h1.265c-.156.296-.468.827-.828 1.312.922.203 1.735.453 2.172.687C2.469-.39 1.734.047.344.468L.5.892C2 .563 3.14.063 3.766-.484c.187.109.484.328.687.562.734.235 1.078-.75.031-1.297.329-.375.704-1.078.891-1.64.11 0 .344-.063.531-.282l-.984-.89-.516.5H3.141l.172-.297zm1.108.781c-.187.626-.39 1.079-.718 1.485a6 6 0 00-1.406-.328c.109-.157.39-.625.624-1.016h1.47zM8.079-9.25l-1.375-.297C6.437-7.407 5.937-5.5 5.187-4l.438.25A8.6 8.6 0 006.75-5.516h-.406c.203 1.25.531 2.407 1.031 3.407-.61.953-1.578 1.828-3.062 2.625l.25.375C6.093.266 7.28-.516 7.858-1.22 8.281-.53 8.97.234 10.141 1c.203-.61.25-.625.734-.687l.078-.282C9.843-.547 9.047-1.266 8.5-2.03c.75-1.14 1.219-2.735 1.39-4.39h.579c.156 0 .453-.188.484-.345-.422-.421-1-.687-1-.687l-.281-.188-.485.61H7.376c.172-.485.344-1.14.469-1.688.078-.015.39-.234.453-.469zM7-6.422h1.688c-.126 1.344-.344 2.547-.797 3.406-.407-.703-.703-1.687-.97-2.89l.22-.516zm-1.89-1.36l-.438.532h-.969v-1.625c.078-.016.375-.25.406-.516l-1.5-.156v2.313L.281-7.25l.156.61h1.766c-.343.67-1.078 1.5-2.047 2.17l.266.422c1.14-.578 1.937-1.156 2.531-1.875l-.344-.094v1.704h.344c.25 0 .75-.297.75-.391v-1.281c.172.156.703.687.953 1.25.766.453 1.313-1.25-.953-1.938v.031h2.11c.156 0 .468-.187.484-.343-.39-.391-.922-.61-.922-.61zm0 0"/></symbol><symbol id="f" overflow="visible"><path d="M4.219-2.36L3-2.983C2.469-1.954 1.469-.704.36.172l.328.344c1.375-.735 2.5-1.766 3.062-2.5.172.03.406-.063.563-.328zm2.672-.374l-.235.203c1 .765 2.235 1.89 2.672 2.703.906.484 1.344-1.578-2.36-2.969zM9.203-4.47l-.547.688H6.078v-.906c.047 0 .36-.235.422-.5l-1.562-.157v1.563H.452l.188.594h4.297v2.75c0 .187.14.109-.063.109-.25 0-1.39.14-1.39.14L3.14-.28V0c.75.094.906.156 1.093.281.157.11.157.219.235.61C5.75.75 6.079.25 6.079-.375v-2.812h4.046c.156 0 .469-.188.516-.344-.5-.438-1.157-.735-1.157-.735zM5.188-9.406l-1.344-.125c-.016.625-.016 1.094-.047 1.406H.844l.187.61h2.672C3.5-6.329 3-5.298.406-4.266l.282.406c3.03-.97 3.968-2.391 4.187-3.657h2.094v2.079c0 .484.343.78 1.062.78h.89c1.313 0 1.829-.25 1.829-.562 0-.125-.25-.36-.281-.36l-.031-1.234h-.5c-.157.657-.188 1.032-.376 1.36 0 0 .188-.125.079-.125-.11.016-.391.016-.688.016h-.75c-.281 0-.11.109-.11 0v-1.891s.25-.094.423-.266l-1.063-.92-.484.516H4.953c.031-.187.047-.531.063-.75.046 0 .343-.25.375-.5zm0 0"/></symbol><symbol id="g" overflow="visible"><path d="M8.922-7.547c-.672.984-1.703 2.11-2.563 2.86v-3.985c.063-.015.375-.25.407-.515l-1.547-.188v5.625a19 19 0 01-2.375 1.625l.265.344c.875-.39 1.75-.828 2.11-1.063v2.297c0 .735.531 1.094 1.547 1.094H8.14c2.03 0 2.703-.266 2.703-.64 0-.157-.281-.376-.375-.407l-.047-1.703h-.5c-.188.875-.266 1.437-.36 1.625-.062.11.016.094-.124.11-.204.015-.657.03-1.282.03H6.844c-.563 0-.485.016-.485-.296v-2.844A17.8 17.8 0 009.641-6.5c.187.063.437 0 .625-.234L9.03-7.687zM3.109-9.375c-.718 2.25-1.859 4.36-3.125 5.844l.422.265a11 11 0 001.766-1.843l-.344-.11V.844h.36c.265 0 .765-.297.78-.344v-6.266s.298-.203.376-.359l-.375-.14a16.4 16.4 0 001.234-2.329c.11 0 .453-.234.531-.406l-1.546-.562zm0 0"/></symbol><symbol id="h" overflow="visible"><path d="M2.031-9.078l-.234.203c.64.5 1.266 1.125 1.5 1.766.812.484 1.39-1.313-1.203-2.032zm7.266 1.437l-.5.594H7.25c.344-.25 1.063-.89 1.469-1.281.14.031.437-.063.61-.313l-1.282-.703a26 26 0 01-1.688 2.297h-.312v-1.828c.078-.016.36-.25.39-.531l-1.515-.14v2.5H.39l.172.609h3.484c-.703.843-1.969 1.812-3.719 2.593l.219.406c1.89-.64 3.625-1.593 4.719-2.75l-.344-.093v2.343h.344c.28 0 .78-.296.78-.374v-1.579c.954.454 2.345 1.391 3.016 2 1.126.313 1.126-1.64-3.015-2.546h4.047c.156 0 .453-.188.484-.344-.422-.407-1.015-.672-1.015-.672zm.172 4.125l-.516.625H5.828c.016-.093.047-.328.063-.453.046-.015.375-.25.406-.515l-1.531-.157q-.048.82-.094 1.125H.219l.172.61h4.14C4.203-1.156 3.438-.391.188.406l.171.485C4.22.14 5.406-.984 5.72-2.281h-.19C6.22-.625 7.86.39 10.203.922c.14-.531.14-.64.64-.719l.048-.328C8.5-.437 6.92-1.078 6.203-2.281h4.078c.156 0 .469-.188.5-.344-.437-.422-1.031-.687-1.031-.687zm0 0"/></symbol><symbol id="i" overflow="visible"><path d="M6.703-8.828v4.281h.344c.25 0 .766-.281.766-.375v-3.39c.062-.016.359-.235.39-.5l-1.5-.172zm2.406-.5v5.031c0 .14.157.063-.015.063s-.953.172-.953.172l-.344-.11v.297c.61.078.703.125.844.234.125.125.093.204.156.579 1.094-.126 1.406-.594 1.406-1.172v-4.594c.063-.016.375-.235.406-.516l-1.5-.14zm-5.218.984v1.735h-.985l.016-.438v-1.156h.969zM.28-6.469l.14.438h1.36c-.11.843-.406 1.734-1.625 2.672L.484-3c1.72-.89 2.25-2.11 2.36-3.031H3.89v2.812h.312c.36 0 .797-.297.797-.344V-6.03h1.234c.157 0 .454-.188.5-.344-.421-.39-.984-.656-.984-.656l-.266-.188-.468.61H5v-1.594h1.063c.156 0 .453-.188.5-.344-.422-.375-.985-.61-.985-.61l-.281-.202-.438.562H.547l.172.594h1.11v1.594H.25zm0 6.594l.14.453h9.845c.156 0 .468-.187.515-.344-.469-.406-1.094-.703-1.094-.703l-.28-.187-.516.64H6.078v-1.78h3.25c.156 0 .453-.188.5-.329-.453-.422-1.062-.687-1.062-.687L8.5-3l-.484.61H6.078v-.797c.078-.016.39-.266.422-.516L4.938-3.86v1.468H1.313l.171.594h3.454v1.781H.234zm0 0"/></symbol><symbol id="j" overflow="visible"><path d="M3.063-9.281l-1.204-.344a28 28 0 01-.453 1.969H.063l.171.61h1A60 60 0 01.5-4.657c.047-.016-.219.11-.484.25l1.03.765.391-.406h.985v1.39c-.766.158-1.578.3-2.313.408l.563 1.172c.219-.078.516-.297.531-.344l1.219-.39v2.64h.328c.36 0 .797-.312.797-.36v-2.64a56 56 0 001.89-.687l-.046-.407-1.844.391v-1.172h1.5c.156 0 .469-.187.484-.344A3.2 3.2 0 004.61-5l-.28-.187-.438.53h-.344V-6.14c.062-.015.36-.25.406-.515L2.47-6.828v2.172h-.86c.188-.61.5-1.594.72-2.39h2.655c.157 0 .454-.188.47-.345-.391-.39-.954-.578-.954-.578l-.266-.203-.421.516H2.5c.125-.39.234-.89.297-1.11.094 0 .422-.25.484-.453zm4.312-.156l-1.36-.126v2.938H4.36l.188.594h1.437c-.078 2.906-.437 4.86-2.28 6.61l.421.359C6.5-.766 7-3 7.109-6.032h1.047v5.688c0 .438.313.782.906.782h.485c.906 0 1.375-.266 1.375-.547 0-.141-.25-.36-.281-.36l-.047-1.281h-.485c-.125.61-.171 1.094-.296 1.313-.032.078.124-.063.078-.047H9.25c-.172 0 0 .093 0-.063v-5.375c.047-.016.313-.11.5-.281l-1.094-.953-.5.531H7.125l.047-2.25c.062 0 .375-.25.422-.531zm0 0"/></symbol><symbol id="k" overflow="visible"><path d="M4.64-9.484l-.234.156c.453.484.719 1.015.766 1.578.766.625 1.625-1.094-.438-1.797zm-3.67.172l-.25.171c.625.72 1.265 1.625 1.484 2.407.844.578 1.656-1.25-1.125-2.657zm8.5.968l-.485.61h-.953a7.6 7.6 0 00.813-1c.14 0 .484-.22.547-.422l-1.547-.438c-.203.719-.469 1.453-.657 1.86h-4l.172.609h2.657l-.11.797H5.22l-.985-.438v6.141h.344c.297 0 .781-.297.781-.375v-.328h3.11v.625h.312c.25 0 .781-.297.797-.375v-4.563c.016 0 .328-.109.485-.328l-1.126-.875-.484.516h-1.61c.032-.094.298-.594.391-.797h3.047c.156 0 .453-.187.485-.344-.422-.422-1.016-.672-1.016-.672zM5.36-1.797v-1.016h3.11v.876H5.36zm0-1.484v-1h3.11v.86H5.36zm0-1.453v-.985h3.11v.844H5.36zM1.906-1.625C1.453-1.297.734-.656.141-.25L1.016.875c.234-.234.328-.422.28-.516.298-.421.907-1.203 1.173-1.546.11-.141-.078-.172.078 0C3.484.172 4.672.53 6.875.53h3.406c.063-.453.031-.547.563-.64V-.5c-1.469.063-2.5.047-3.75.047-2.14.016-3.172-.11-4.11-1.219-.062-.062-.218-.14-.062-.094v-3.343c.11-.016.39-.125.562-.313L2.266-6.438l-.485.657H.266l.125.593h1.453v3.61zm0 0"/></symbol><symbol id="l" overflow="visible"><path d="M9.297-9.297c-.797 1.281-1.89 2.375-3.188 3.25l.266.406c1.453-.703 2.875-1.703 3.75-2.718.156.015.39-.032.563-.297l-1.313-.766zm.062 2.828C8.422-5.016 7.188-3.89 5.656-3.03l.25.406c1.703-.703 3.266-1.703 4.266-2.922.172.031.406-.031.562-.281l-1.296-.75zm.188 2.797C8.484-1.734 7.157-.532 5.125.468l.188.423c2.171-.797 3.921-1.938 5.109-3.657.156.016.39-.046.547-.312L9.594-3.75zM4.172-8.156v2.828H2.844v-2.688h1.328zM.219-5.187l.14.437h1.36C1.703-2.969 1.562-1.078.156.672l.39.312C2.5-.64 2.813-2.953 2.845-4.75h1.328V.781h.312c.36 0 .782-.312.797-.36V-4.75h1.36c.14 0 .468-.172.5-.328a4.5 4.5 0 00-1-.672l-.282-.203-.484.625h-.094v-2.688h1.11c.156 0 .453-.187.484-.343-.437-.407-1.016-.672-1.016-.672l-.265-.188-.485.61H.438l.171.593h1.11v2.688H.188zm0 0"/></symbol><symbol id="m" overflow="visible"><path d="M8.016-8.89l-.235.218c.594.39 1.047.89 1.14 1.5.829.547 1.5-1.36-.858-1.781zM.672-7.688l-.235.14c.563.656.985 1.406 1.047 2.14.782.704 1.641-1.234-.718-2.343zm5.61-1.61c0 1.25 0 2.36-.048 3.235h-2.75l.172.593h2.532C6.016-2.953 5.484-1.156 3.422.547l.375.39c2.547-1.656 3.281-3.703 3.5-6.39H6.89c.234 1.922.922 4.625 3.187 6.422.188-.735.219-.766.766-.797l.031-.313c-2.344-1.53-3.094-3.64-3.36-5.328h2.829c.156 0 .453-.187.5-.328-.453-.406-1.031-.672-1.031-.672l-.282-.187-.469.593H7.329c.047-.75.078-1.734.078-2.703.078 0 .375-.265.422-.53l-1.547-.157zm-3.813-.031v5.422A45 45 0 01.188-2.453l.796 1.11c.282-.188.407-.438.407-.516C1.92-2.437 2.438-3 2.813-3.422l-.344-.11V.845h.344c.28 0 .78-.328.78-.438v-9.218c.079-.016.36-.25.423-.516l-1.547-.156zm0 0"/></symbol><symbol id="n" overflow="visible"><path d="M7.984-2.75l-.39.156c.265.531.406.922.531 1.36l-.562.172v-7.094l.906-.156c.047 3.406.406 7.187 1.578 9.125l.344-.094c.093-.328.062-.438.53-.547l.063-.188C9.641-1.859 9.25-5.234 9.125-8.422l.547-.11a.75.75 0 00.797-.124L9.5-9.562c-.953.359-2.562.828-4 1.109l-.922-.313v3.094c0 2.14-.125 4.313-1.61 6.328l.407.328C5.453-.984 5.672-3.703 5.672-5.672v-2.25l.828-.094V-1c0 .219.016.188-.406.406l.515.985C6.906.25 7 .188 7.063.063a27 27 0 001.234-.72c.015.11.094.47.094.829.656.672 1.515-1.063-.344-2.938zM3.141-6.734h-.063c.313-.25.875-.938 1.235-1.36.093-.015.375-.047.546-.25l-1.078-.984-.578.547H.266l.172.61H3.03c-.156.358-.422.937-.687 1.343l-.5-.047v2.219c-.5.187-1.094.375-1.672.547l.594 1.187c.218-.094.5-.344.515-.39l.563-.313v3.25c0 .156.172.063-.016.063-.187 0-.984.187-.984.187l-.328-.11v.282c.625.078.703.14.843.234.141.14.125.235.172.61C2.641.766 2.953.28 2.953-.33v-3.905l1.735-1.032-.125-.39-1.61.61v-1.157c.063 0 .375-.234.406-.516zm0 0"/></symbol><symbol id="o" overflow="visible"><path d="M5.016-9.094l-1.282-.469C3.11-7.655 1.906-5.687.094-4.342l.312.359c2.203-1.203 3.64-3.22 4.282-4.672.156.015.39-.078.546-.344zm2.453-.265l-.797-.25-.281.172c.578 2.484 1.703 4.203 3.703 5.374.219-.406.36-.593.828-.687l.062-.281c-2-.766-3.046-2.11-3.671-3.672.093-.094.203-.266.375-.578zM5.234-5.094h-3.53l.187.594h2.312C4.093-3.031 3.72-1.156.656.547L.97.922C4.438-.656 5.219-2.844 5.375-4.5h2.219c-.11 2.156-.266 3.766-.61 4.078-.125.094-.078.078-.296.078-.25 0-1.157-.078-1.875-.125l-.016.453c.672.079 1.062.172 1.234.297.172.11.157.235.157.563.718 0 1.296-.156 1.593-.453.5-.485.828-2.375.922-4.797a1.3 1.3 0 00.516-.297l-1.11-.938-.53.547zm0 0"/></symbol><symbol id="p" overflow="visible"><path d="M7.281-4.406l-.39.172a7.5 7.5 0 01.718 1.484c-.796.078-1.796.172-2.125.188C6-3.22 6.844-4.687 7.188-5.485c.062 0 .406-.235.453-.391l-1.407-.61c-.296 1.204-.968 3-1.546 3.829-.063.062.03.312.03.312l-.343-.094.5 1.094c.203-.093.422-.203.484-.297.922-.187 1.891-.453 2.422-.593.047.14.11.437.125.75.703.672 1.578-1.141-.578-2.953zm-.39-4.844l-1.328-.328c-.329 1.797-.829 3.375-1.5 4.61l.421.265a9 9 0 001.47-2.281H9.25c-.062 3.703-.187 6.109-.61 6.53-.124.126-.062.11-.296.11-.25 0-1.016-.078-1.703-.14l-.032.468c.641.094.954.188 1.141.297.156.11.125.235.125.578.703 0 1.297-.203 1.594-.562.531-.64.812-3.219.875-7.219.062 0 .344-.094.515-.297l-1.093-.937-.516.562H6.234c.125-.312.313-.781.407-1.14.093 0 .422-.235.468-.453zM3.734-7.562l-.453.593h-.11v-1.937c.095-.016.376-.25.407-.531l-1.5-.172v2.64H.203l.172.61h1.5C1.563-4.812 1.063-3.22.078-1.83l.375.376a10.4 10.4 0 002.031-3.125h-.406V.875h.36c.234 0 .734-.297.734-.406V-5.22l-.344.094c.328.469.625 1 .719 1.578.734.594 1.531-1.078-.375-1.984v-.828h1.312c.141 0 .454-.188.485-.344a4 4 0 00-.953-.672zm0 0"/></symbol><symbol id="q" overflow="visible"><path d="M7.188-8v6.531h.343c.25 0 .75-.281.75-.375v-5.64c.063-.016.344-.25.406-.5l-1.5-.172zm1.984-1.297V-.39c0 .188.14.11-.063.11-.25 0-1.328.156-1.328.156l-.328-.11v.298c.734.078.875.125 1.047.25s.172.203.234.578C9.954.766 10.266.25 10.266-.33v-8.437c.062 0 .375-.25.422-.515l-1.516-.172zM2.89-8.5l.125.453h1.062c-.25 1.766-.703 3.469-1.812 5.016l.39.344c.61-.641 1-1.188 1.235-1.594.203.203.53.61.687 1.093.719.47 1.422-1.046-.375-1.656.14-.297.39-.86.5-1.203H5.78C5.47-3.578 4.703-1.172 2.516.5l.328.39C5.64-.812 6.516-3.483 6.875-5.952a1 1 0 00.484-.281l-1.03-.938-.516.531h-.907c.125-.39.235-.953.313-1.406h1.968c.141 0 .47-.187.485-.36a5.6 5.6 0 00-1.016-.655l-.265-.188-.485.594H2.844zm-.907-.89c-.406 2-1.062 4-1.859 5.515l.422.281c.453-.594.797-1.14 1.125-1.734l-.344-.094V.86h.328c.25 0 .75-.312.766-.359v-6.484c-.016 0 .297-.22.344-.375l-.5-.172c.312-.688.593-1.5.78-2.172.095 0 .423-.219.47-.438L2.03-9.578zm0 0"/></symbol><symbol id="r" overflow="visible"><path d="M4.797-4.36q0-.152.062-.218a.2.2 0 01.157-.078q.106 0 .172.078.06.065.062.234v.766q-.002.175-.062.25a.23.23 0 01-.172.062.2.2 0 01-.157-.062q-.063-.062-.062-.203-.035-.31-.344-.531-.44-.295-1.156-.297-.766 0-1.188.312-.313.234-.312.516 0 .314.375.531.264.158.984.234.936.094 1.297.235.529.188.781.515c.164.22.25.461.25.72q0 .58-.546 1.03c-.368.29-.907.438-1.625.438q-1.065 0-1.75-.531a.6.6 0 01-.032.234.24.24 0 01-.078.094.2.2 0 01-.11.031q-.111 0-.171-.062-.064-.077-.063-.235v-.937q0-.153.063-.22a.2.2 0 01.172-.077q.092 0 .156.078a.25.25 0 01.063.172c0 .168.039.304.125.406.125.18.32.324.593.438.281.105.617.156 1.016.156q.873.002 1.297-.313.435-.328.437-.703 0-.42-.422-.672-.454-.246-1.296-.328-.83-.093-1.204-.234a1.2 1.2 0 01-.562-.422 1 1 0 01-.203-.594q0-.575.562-.922.574-.341 1.36-.343c.625 0 1.132.152 1.53.453m0 0"/></symbol><symbol id="s" overflow="visible"><path d="M1.594-4.656v.828q.403-.482.86-.735c.312-.164.679-.25 1.108-.25q.657.001 1.22.313.56.314.874.875.312.549.313 1.156c0 .649-.235 1.203-.703 1.672q-.691.69-1.703.688-1.207 0-1.97-.985v2.719h1.11q.154 0 .219.063.076.06.078.156A.2.2 0 012.922 2q-.065.077-.219.078H.547q-.175-.002-.25-.062a.23.23 0 01-.063-.172q0-.096.063-.157.075-.062.25-.062h.61v-5.812h-.61q-.175 0-.25-.063a.26.26 0 01-.063-.172q0-.092.063-.156.075-.077.25-.078zM5.516-2.47c0-.52-.196-.96-.578-1.328a1.88 1.88 0 00-1.375-.562q-.833 0-1.407.562a1.82 1.82 0 00-.562 1.328c0 .524.187.969.562 1.344q.575.563 1.406.563.811 0 1.376-.563c.382-.375.578-.82.578-1.344m0 0"/></symbol><symbol id="w" overflow="visible"><path d="M5.375-3.922v1.11c0 .968-.234 1.742-.703 2.312q-.534.657-1.36.656A1.9 1.9 0 012.548 0a1.7 1.7 0 01-.594-.437 3.6 3.6 0 01-.328-.579 3.5 3.5 0 01-.266-.718 4 4 0 01-.125-1.078v-1.11c0-.976.227-1.75.688-2.312q.543-.67 1.375-.672.405 0 .75.172.34.157.594.437.154.175.343.578.186.393.266.703.124.471.125 1.094m-.453.047q0-.621-.188-1.172-.174-.563-.406-.89a1.1 1.1 0 00-.344-.313 1.26 1.26 0 00-.687-.203c-.5 0-.899.262-1.188.781q-.42.767-.421 1.797v1a4 4 0 00.171 1.203c.125.367.258.656.407.875q.14.174.343.313.31.187.704.187.75.001 1.171-.766.437-.78.438-1.812zm0 0"/></symbol><symbol id="ad" overflow="visible"><path d="M4.234-3.672q.61.283.938.766.328.487.328 1.015 0 .816-.656 1.438-.657.61-1.64.61Q2.621.156 2-.079q-.627-.246-.875-.516a.24.24 0 01-.078-.187q0-.077.062-.14a.2.2 0 01.141-.063.37.37 0 01.203.078q.826.61 1.766.61.78 0 1.297-.485c.351-.32.53-.688.53-1.094q0-.405-.265-.781a1.7 1.7 0 00-.734-.61 2.25 2.25 0 00-.984-.234q-.176 0-.25-.062a.2.2 0 01-.063-.157q0-.092.063-.156a.3.3 0 01.218-.078l.375.015q.609 0 1-.374.406-.374.407-.86 0-.498-.422-.89-.41-.389-1.078-.391-.471 0-.86.172-.392.157-.625.437a.8.8 0 01-.14.14.2.2 0 01-.094.016.2.2 0 01-.157-.062.2.2 0 01-.062-.156q0-.218.469-.547a2.48 2.48 0 011.469-.453q.855 0 1.406.515.546.516.547 1.22-.001.455-.266.859-.269.408-.766.64m0 0"/></symbol><symbol id="ai" overflow="visible"><path d="M2.063-6.281v2.203q.386-.169.75-.25.375-.077.703-.078.843.001 1.406.593.576.597.578 1.563c0 .719-.215 1.305-.64 1.75q-.644.657-1.61.656-.644 0-1.234-.281c-.282-.133-.54-.3-.766-.5q-.204-.17-.203-.281c0-.07.02-.13.062-.172a.26.26 0 01.157-.063q.093 0 .203.094.795.75 1.765.75.781 0 1.297-.531.516-.546.516-1.438 0-.761-.453-1.218-.44-.47-1.125-.47-.704.002-1.406.36-.177.094-.235.094-.112 0-.172-.062-.047-.06-.047-.188v-2.984H4.75q.17.002.234.062.062.064.063.156a.24.24 0 01-.063.172q-.064.064-.234.063zm0 0"/></symbol><symbol id="aj" overflow="visible"><path d="M1.953-2.86q.421-.607.86-.906.45-.294.984-.296c.476 0 .906.203 1.281.609q.563.596.563 1.469 0 .816-.516 1.484-.504.657-1.406.656-.58 0-1.094-.36-.504-.357-.797-1.108-.361-.921-.36-2.047 0-.857.345-1.578.248-.563.671-.985.436-.433 1.016-.703a2.8 2.8 0 011.234-.281q.452 0 .75.187c.094.055.141.125.141.219a.22.22 0 01-.062.156.2.2 0 01-.157.063.3.3 0 01-.156-.063 1.4 1.4 0 00-.562-.11c-.7 0-1.336.306-1.907.907a3 3 0 00-.86 2.14q-.001.175.032.548m.11.75q.2.986.64 1.407.435.408 1.031.406.594 0 1.016-.469.437-.468.438-1.218c0-.47-.149-.852-.438-1.157q-.422-.468-.969-.468-.518 0-1 .453c-.219.187-.46.539-.719 1.047m0 0"/></symbol><symbol id="ak" overflow="visible"><path d="M4.813-6.078v-.203H1.578v.39q-.002.177-.062.235-.05.063-.157.062a.2.2 0 01-.156-.062q-.063-.059-.062-.235v-.843h4.14v.718L3.453-.219q-.035.141-.094.188a.23.23 0 01-.14.047.2.2 0 01-.156-.063A.24.24 0 013-.203q-.002-.061.031-.156zm0 0"/></symbol><symbol id="aa" overflow="visible"><path d="M5.516-6.734v6.28h.593c.114 0 .192.024.235.063q.077.066.078.172a.2.2 0 01-.078.157Q6.28 0 6.109 0H5.047v-.89Q4.262.173 3.063.171 2.453.17 1.89-.141A2.35 2.35 0 011-1.062a2.6 2.6 0 01-.328-1.25q0-.638.328-1.235.329-.61.89-.937a2.3 2.3 0 011.173-.328q1.185 0 1.984 1.078v-2.547h-.594q-.175 0-.25-.063-.063-.059-.062-.172 0-.092.062-.156.075-.06.25-.062zm-.47 4.422q-.001-.855-.577-1.454-.58-.592-1.375-.593-.816.001-1.39.593a2 2 0 00-.579 1.454q-.001.844.578 1.437.576.595 1.39.594.797.001 1.376-.594.576-.593.578-1.437m0 0"/></symbol><symbol id="t" overflow="visible"><path d="M1.906-6.828v6.266H.328v1.03h10.39v-1.03H9.204V-6.97H5.688l.14-.61h4.563v-1.015H6.016l.14-.86-1.281-.124-.094.984H.656v1.016h3.985l-.094.61h-2.64zm.985 2.422h5.125v.61H3.063v-.61zm.172-.782v-.796h4.953v.656H3.063zM2.89-2.89h5.125v.688H3.063v-.688zm.172 2.47v-.86h4.953v.718H3.063zm0 0"/></symbol><symbol id="u" overflow="visible"><path d="M.422-.734L.625.25C1.797-.11 3.109-.516 4.578-.937l-.156-.97A154 154 0 01.39-.811zm7.36-7.875a7.5 7.5 0 011.609 1.093l.687-.765c-.437-.375-1.281-.828-1.875-1.094l-.687.64zM.921-4.703c.156-.078.297-.11 1.328-.25-.312.453-.734 1-.953 1.219-.328.406-.453.64-.938.734.157.297.282.688.375 1.094.485-.266.735-.344 3.704-.938-.047-.265-.047-.578 0-.984l-2.016.375C3-4.141 3.844-5.36 4.625-6.72l-.953-.578a30 30 0 01-.75 1.297l-.985.11c.485-.673 1.172-1.97 1.657-3.173l-1.078-.5c-.5 1.516-1.25 2.829-1.5 3.188-.25.375-.297.594-.72.703.142.297.282.703.376 1.094zm8.75.61c-.453.702-1.047 1.343-1.547 1.734a14 14 0 01-.344-1.735l2.828-.531-.187-.984-2.766.515a18 18 0 01-.125-1.187l2.766-.407-.172-1-2.64.391a44 44 0 01-.048-2.281H6.267c.015.969.046 1.781.078 2.453l-1.766.25.188 1.031 1.625-.25c.03.344.093.828.125 1.219l-2.157.39.188 1.016 2.11-.39c.109.75.296 1.578.5 2.203-.876.578-1.829 1.031-3.235 1.469.36.343.562.64.719.906 1.125-.39 2.234-.906 2.922-1.36C7.906.125 8.688.844 9.469.844c.765 0 1.187-.485 1.344-1.797-.36-.156-.5-.281-.672-.469l-.297.094c-.063.984.015 1.094-.281 1.094-.5 0-.735-.313-1.063-1.063a9.3 9.3 0 002.203-2.39l-.984-.485zm0 0"/></symbol><symbol id="v" overflow="visible"><path d="M9.219-9.328c-.688.89-1.953 1.828-3.172 2.437.375.282.61.516.828.797 1.313-.718 2.547-1.703 3.469-2.86l-1.078-.452zm.312 3.047c-.734.953-2.078 1.953-3.36 2.61.36.28.595.53.829.78 1.344-.734 2.688-1.796 3.656-3.03L9.594-6.36zm.25 2.984C8.953-1.922 7.516-.734 5.594.063c.375.296.61.578.797.859 1.78-.828 3.484-2.188 4.515-3.875l-1.078-.422zm-5.5-4.656v2.719H2.844v-2.594H4.28zm-4 2.86v.906h1.422C1.672-2.673 1.47-1.158.172.297c.297.172.594.437.828.766C2.469-.532 2.797-2.47 2.844-4.187H4.28V.875h1.172v-5.062H6.64v-1.047H5.453v-2.594H6.5v-1.047H.469v1.047h1.25v2.594H.28zm0 0"/></symbol><symbol id="E" overflow="visible"><path d="M1.797-7c.422.828.812 1.797 1 2.64l1.11-.39c-.173-.703-.673-1.86-1.157-2.734l-1.047.312zm6.36-.375a14.3 14.3 0 01-1.25 2.703l1.03.328c.47-.734 1.032-1.89 1.485-2.86L8.219-7.53zM.39-3.985v.97h4.5v3.89h1.203v-3.89h4.562v-1.11H6.094v-3.578h3.937v-1.11H.984v1.11h3.907v3.578H.39zm0 0"/></symbol><symbol id="F" overflow="visible"><path d="M4.297-3.687h2.172v.968h-2v-.969zm.172-.813v-1.094h2v.953h-2zm-.172 2.734h2.172V-.75h-2v-1.016zM.469-8.687v.937h4.219c-.032.313-.157.828-.235 1.11H.97V.89h1.14V.298h6.766V.89h1.188v-7.532H5.656l.36-1.109h4.593v-1.078H.47zM2.109-.61v-4.985h1.25V-.75H2.11zm6.954-.14h-1.5v-4.844h1.312V-.75zm0 0"/></symbol><symbol id="G" overflow="visible"><path d="M1.906-5.766v5.063H.391V.39h10.265V-.703h-4.25v-3.203H9.86v-1.078H6.406v-2.672h3.89V-8.75H.814v1.094h4.375v6.953H3.094v-5.203H1.906zm0 0"/></symbol><symbol id="H" overflow="visible"><path d="M1.188-8.344v.969h8.687v-1.11H1.188zm.703 3.61v.968h7.125v-1.109H1.89zM.547-.891v.97h9.937v-1.11H.547zm0 0"/></symbol><symbol id="I" overflow="visible"><path d="M2.938-5.969h2.25v1.125H3.109v-1.125zm0-1.031h.296c.125-.11.438-.5.672-.844h2.75c-.11.157-.422.563-.703.844zm5.718.906v1.25H6.375v-1.125h2.281zm-5.11-3.343C3-8.328 1.985-7.078.345-5.97c.344.219.625.5.844.813.484-.328.765-.563.734-.532v1.594c0 1.375-.094 3.016-1.438 4.36.282.187.61.5.86.812a5.74 5.74 0 001.515-2.75h2.329V.641h1.187v-2.313h2.281v1.344c0 .172.11.078-.078.078-.187.016-.875.031-1.812-.016.187.391.343.75.406 1.11 1.062 0 1.672 0 2.031-.14s.625-.532.625-1.032V-7H7.344c.218-.219.625-.75.984-1.375l-.734-.5-.157.047h-2.89l.328-.531-1.25-.235zm-.608 5.593h2.25v1.156H3.03c.047-.343.078-.843.078-1.156zm5.718-.14v1.297H6.375v-1.157h2.281zm0 0"/></symbol><symbol id="P" overflow="visible"><path d="M7.5-4.328c0 2.156.922 4 2.328 5.437l.938-.484c-1.391-1.453-2.11-2.984-2.11-4.953s.719-3.5 2.11-4.953l-.938-.485C8.422-8.344 7.5-6.484 7.5-4.328m0 0"/></symbol><symbol id="Q" overflow="visible"><path d="M2.594 0h1.281l2.672-8.375H5.203L3.86-3.844c-.28.953-.484 1.719-.75 2.532h.172a96 96 0 01-.734-2.532l-1.36-4.531H-.187L2.484 0zm0 0"/></symbol><symbol id="K" overflow="visible"><path d="M3.531-4.328c0-2.156-.922-4.016-2.328-5.438l-.937.485C1.656-7.828 2.39-6.297 2.39-4.328S1.656-.828.266.625l.937.484C2.61-.328 3.531-2.17 3.531-4.328m0 0"/></symbol><symbol id="O" overflow="visible"><path d="M.797-8.453V.516h1.187v-.844h7.032v.766h1.187v-9.032H.797zm1.187 7.187v-6.25h1.72c-.048 2.579-.063 3.844-2.032 4.782.312.25.516.453.687.843 2-1 2.454-2.765 2.5-5.625h1.204v3.329c0 .859.359 1.343 1.14 1.343h1.203c.25 0 .547 0 .844-.11-.031-.265-.047-.562-.078-.968-.297.094-.61.094-.781.094H7.297c-.234 0-.11.015-.11-.344v-3.344h1.829v6.11H1.984zm0 0"/></symbol><symbol id="U" overflow="visible"><path d="M2.594-9.375C2.047-7.703 1.188-6.141.109-4.953c.25.281.454.625.657 1.11.5-.579.828-1 1.125-1.485l-.297-.094V.86h1.14v-7.687c.329-.64.704-1.531 1.016-2.39l-1.094-.329zm1.828 7.313v.89h1.812V.813h1.157v-1.985h1.78v-1.031h-1.78v-3.688h-.344c.687 1.922 1.797 3.875 3.094 5.063.25-.36.53-.64.843-.89C9.672-2.767 8.578-4.532 7.97-6.25h2.734v-1.078H7.391v-2.188H6.234v2.188H3.11v1.078h2.579C5.064-4.5 3.939-2.734 2.61-1.656c.313.25.579.531.813.86C4.75-1.985 5.875-3.907 6.578-5.86h-.344v3.656H4.422zm0 0"/></symbol><symbol id="R" overflow="visible"><path d="M7.188-8.969c.312.516.593 1.11.765 1.735l1.063-.453c-.172-.516-.547-1.266-.938-1.829l-.984.391zm-5.391-.406A6.4 6.4 0 01.172-6.719c.219.297.39.61.578 1.063.594-.578.969-1.078 1.266-1.61h2.828v-1.03H2.547c.047-.095.219-.532.375-.954l-1.063-.312zM.469-3.937v.906H2.03v2.14c0 .516-.312.735-.64.97.265.25.422.437.625.89.359-.39.672-.578 2.843-1.781-.093-.22-.171-.547-.234-1l-1.484.78v-2h1.406v-1.046H3.14v-1.219h1.172v-1.016H1.047v1.016h.984v1.219H.47zM7.563-4.5v1.281h-1.36v-1.156h1.36zM5.969-9.36c-.36 1.266-1.047 2.782-1.953 3.907.187.281.343.531.562 1.016.375-.485.61-.782.813-1.094l-.297-.11V.891h1.11V.094h4.484V-.97H8.672v-1.234h1.656V-3.22H8.672v-1.156h1.64v-1.031h-1.64v-1.125h1.875v-1.032H6.469c.203-.437.437-1.015.656-1.656l-1.11-.312zM7.75-5.405H6.203V-6.53h1.36v1.125zm-.187 3.078v1.36h-1.36v-1.235h1.36zm0 0"/></symbol><symbol id="Y" overflow="visible"><path d="M9.063-7.766c-.282 1.782-.75 3.204-1.313 4.188-.437-.953-.828-2.5-1.062-4.063H9.03zm-3.797-.796v.921h.297c.296 1.938.75 3.75 1.468 5.22Q5.954-.9 4.171.015c.329.28.579.609.75.922C6.126.28 7.032-.484 7.657-1.297 8.156-.5 8.922.297 10.078.984a3.5 3.5 0 01.813-.937 6.4 6.4 0 01-2.516-2.39c.922-1.438 1.64-3.548 1.953-6.188l-.719-.203-.14.03H5.266zM.672-6.047a42 42 0 012.062 2.719C2.078-1.813 1.266-.734.125.094c.328.234.61.547.828.875a9.4 9.4 0 002.531-3.14c.266.437.563.952.907 1.718l.968-.766a19 19 0 00-1.328-2.218c.532-1.391.922-3.063 1.125-5.094l-.703-.203-.14.03H.53v1.063h3.375C3.75-6.469 3.47-5.297 3.22-4.594c-.406-.578-1.063-1.39-1.766-2.218l-.875.64zm0 0"/></symbol><symbol id="Z" overflow="visible"><path d="M2.281-7.078c-.328.781-.828 1.484-1.578 2.125.328.187.64.406.922.64a8.5 8.5 0 001.781-2.64L2.36-7.25zm5.219.516C8.172-5.937 8.984-5 9.453-4.297l.922-.61c-.484-.702-1.281-1.593-2.094-2.28l-.906.5zM4.64-9.22c.204.313.376.61.454.797h-4.5v1.016h3.062v3.36h1.172v-3.36h1.36v3.343h1.171v-3.343h3.079v-1.016H6.375a11 11 0 00-.734-1.25l-1.11.281zM1.298-3.875V-3h.953A7.3 7.3 0 004.375-.969c-.922.36-2.36.688-4.094.907.297.39.453.625.563.984C2.578.656 4.14.25 5.516-.375 6.813.265 8.375.688 10.188.922c.156-.375.312-.594.687-.984C9-.266 7.578-.594 6.672-.97c.969-.531 1.906-1.39 2.625-2.625l-.688-.453-.187.031H1.297zM3.266-3h4.25c-.375.5-1.188 1.094-1.985 1.5C4.72-1.922 3.953-2.516 3.563-3zm0 0"/></symbol><symbol id="ab" overflow="visible"><path d="M2.797 0h1.172v-7.234h2.453v-1.141H.188v1.14H2.64V0zm0 0"/></symbol><symbol id="ac" overflow="visible"><path d="M4.906-4.14v.546H.578v1.078h4.328V-.28c0 .156.125.062-.078.078-.203 0-.922 0-1.937-.031.297.468.406.75.484 1.109 1.094 0 1.672-.016 2.063-.14.39-.141.687-.516.687-1v-2.25h4.313v-1.079H6.125v-.203a11.1 11.1 0 002.703-2.047l-.734-.578-.235.063H2.391v1.062h4.218a8.4 8.4 0 01-1.703 1.094zm-.36-5c.22.296.376.562.454.734H.703v2.562H1.86v-1.484h7.282v1.484h1.187v-2.562h-4a7 7 0 00-.766-1.25l-1.125.36zm0 0"/></symbol><symbol id="af" overflow="visible"><path d="M3.188-8.344C2.968-5.297 2.516-1.906.094.078c.312.25.61.547.828.844C3.5-1.234 4.125-5 4.469-8.391L3.203-8.5zm4.109-.39l-1 .078c.078 1.031.39 6.906 3.75 9.547.265-.313.531-.516.969-.766C7.719-2.391 7.5-7.781 7.453-8.75zm0 0"/></symbol><symbol id="ag" overflow="visible"><path d="M4.734-9.062c.282.515.563 1.124.657 1.421H.578v1.079h3C3.453-4.156 3.36-1.437.234.125q.54.375.797.844C3.344-.22 4.203-2.156 4.547-3.984h3.61C8-1.625 7.827-.656 7.5-.36c-.14.109-.156.078-.39.078-.298 0-1.079 0-2.188-.094.344.484.406.734.453 1.094C6.281.78 7 .797 7.391.766c.437-.032.828-.141 1.078-.422.437-.438.703-1.735.922-4.875.015-.125-.016-.297-.016-.297l-.125-.25H4.719a46 46 0 00.125-1.484H10.5v-1.079H5.672v.266l.984-.406c-.187-.5-.562-1.282-.922-1.86l-1.078.422zm0 0"/></symbol><symbol id="X" overflow="visible"><path d="M4.922-9.406v3.984H.438v1.125h4.484V.891h1.234v-5.188h4.532v-1.125H6.156v-4.125H4.922zm0 0"/></symbol><symbol id="ah" overflow="visible"><path d="M1.75-5.11v.938h2.047a69 69 0 01-.61 3.36H.438V.28H10.61V-.813H8.391c.14-1.312.297-3.046.39-4.406l-.812-.078-.157.031H5.204l.344-2.125h4.281v-1.093H1.156v1.093h3.125a63 63 0 01-.297 2.125H1.75zM4.406-.671c.203-1 .438-2.297.625-3.5h2.453a60 60 0 01-.328 3.36H4.438zm0 0"/></symbol><symbol id="y" overflow="visible"><path d="M1.844-2.578q.013.675.25 1.11c.156.28.36.491.61.624q.386.204.843.203.434.002.797-.125.375-.138.75-.406l.437.61q-.41.327-.937.515A3.4 3.4 0 013.53.125q-.843 0-1.453-.375a2.46 2.46 0 01-.906-1.062Q.857-2 .859-2.907q-.002-.872.313-1.563.329-.685.89-1.078.576-.388 1.344-.39.733.002 1.266.343c.351.23.625.559.812.985q.282.643.282 1.515v.297c0 .086-.008.156-.016.219zm1.578-2.594q-.659 0-1.094.453-.424.457-.484 1.422h3.031q-.018-.938-.406-1.406-.392-.47-1.047-.469m0 0"/></symbol><symbol id="x" overflow="visible"><path d="M3.953-7.734q.748 0 1.25.187.497.188.953.563l-.531.625a2.2 2.2 0 00-.766-.438 2.8 2.8 0 00-.828-.125c-.418 0-.804.102-1.156.297q-.531.3-.86.984-.313.675-.312 1.829 0 1.141.297 1.828.311.69.828.984.527.299 1.172.297.637 0 1.047-.188.421-.187.719-.437l.5.625q-.345.347-.907.594Q4.81.125 4 .125a3.14 3.14 0 01-1.672-.453q-.752-.45-1.187-1.328Q.702-2.53.703-3.813q0-1.278.438-2.14.45-.872 1.187-1.328.749-.452 1.625-.453m0 0"/></symbol><symbol id="z" overflow="visible"><path d="M3.375-8.156v6.719c0 .292.086.5.266.625.175.117.406.171.687.171q.265 0 .5-.046a3.5 3.5 0 00.484-.157l.25.672q-.235.11-.593.203-.346.094-.782.094-.785 0-1.265-.422-.47-.435-.469-1.187v-5.938H.656v-.734zm0 0"/></symbol><symbol id="C" overflow="visible"><path d="M4.75 0v-3.61H1.875V0H.922v-7.61h.953v3.22H4.75v-3.22h.953V0zm0 0"/></symbol><symbol id="A" overflow="visible"><path d="M5.844-6.437l.281.875q-.375.11-.797.14c-.273.024-.574.031-.906.031q.498.235.75.61.265.362.266.86-.001.562-.266 1.015a1.7 1.7 0 01-.75.703q-.486.251-1.172.25-.3.001-.5-.016-.187-.03-.375-.093a.9.9 0 00-.219.25.7.7 0 00-.078.312q-.002.22.156.36.17.126.625.124h1.047c.383 0 .735.075 1.047.22.313.136.555.323.734.562.176.23.266.492.266.797q-.001.855-.734 1.312-.72.47-2.032.469c-.624 0-1.117-.07-1.468-.203q-.533-.19-.766-.578Q.72 1.187.72.593h.844c0 .22.039.4.125.548q.139.234.484.328c.238.07.57.11 1 .11.426 0 .773-.04 1.047-.11q.405-.095.593-.313a.77.77 0 00.204-.531q0-.408-.375-.625-.375-.201-.938-.203H2.672q-.75 0-1.11-.328c-.242-.219-.359-.473-.359-.766q-.001-.279.156-.547.17-.264.485-.468-.504-.264-.75-.657-.235-.389-.235-.953 0-.59.297-1.047.296-.45.813-.703a2.7 2.7 0 011.219-.266Q3.918-5.95 4.375-6q.469-.06.797-.172.327-.106.672-.266M3.187-5.266c-.468 0-.82.133-1.046.391q-.329.377-.328.953-.001.598.343.985.342.374 1.047.374.621.002.938-.359.328-.356.328-1 0-.655-.328-1c-.211-.226-.528-.344-.953-.344m0 0"/></symbol><symbol id="D" overflow="visible"><path d="M6.11-3.797c0 .774-.106 1.453-.313 2.047q-.317.878-.938 1.375c-.418.336-.933.5-1.546.5q-.926.001-1.547-.484Q1.14-.84.828-1.72.515-2.609.516-3.78c0-.77.101-1.453.312-2.047q.31-.89.938-1.39.621-.516 1.547-.516.92.001 1.546.5.621.484.938 1.375.311.879.312 2.062m-1 0q0-1.514-.423-2.312-.409-.812-1.375-.813c-.636 0-1.093.274-1.374.813q-.423.815-.422 2.328 0 1.516.422 2.312.436.798 1.375.797.965 0 1.374-.797.422-.81.422-2.328m0 0"/></symbol><symbol id="N" overflow="visible"><path d="M5.922-2.11q0 .657-.328 1.172c-.211.336-.524.594-.938.782q-.626.28-1.515.281a4.3 4.3 0 01-1.5-.25A3.2 3.2 0 01.484-.844l.563-.64q.403.376.906.593.516.222 1.219.22.45 0 .86-.157.404-.153.656-.469c.164-.207.25-.473.25-.797q-.002-.356-.157-.625-.14-.265-.5-.453a5.7 5.7 0 00-1.015-.406 8 8 0 01-1.313-.5c-.367-.188-.648-.414-.844-.688q-.297-.403-.296-1c0-.382.101-.722.312-1.015q.31-.436.86-.688a3 3 0 011.296-.265q.78 0 1.36.234.592.221 1.062.64l-.562.626a2.6 2.6 0 00-.875-.516 2.8 2.8 0 00-.953-.172q-.425.001-.766.125-.347.129-.547.375-.204.235-.203.61c0 .218.055.414.172.578q.17.236.593.437.421.189 1.141.406.591.177 1.094.422.515.253.812.703.312.44.313 1.157m0 0"/></symbol><symbol id="L" overflow="visible"><path d="M2.031-5.062a2.35 2.35 0 01.735-.641 1.86 1.86 0 01.922-.234q.778 0 1.265.375.48.376.703 1.062.218.674.219 1.594-.001.878-.266 1.562c-.18.461-.437.82-.78 1.078-.337.262-.75.391-1.25.391-.68 0-1.212-.242-1.595-.734L1.922 0h-.813v-8.156l.922-.125zM3.36-.625q.716 0 1.11-.562.388-.563.39-1.735-.002-.748-.156-1.25-.142-.515-.453-.766c-.21-.164-.46-.25-.75-.25-.324 0-.61.102-.86.297a3 3 0 00-.609.625v2.891q.233.346.578.547.34.204.75.203m0 0"/></symbol><symbol id="M" overflow="visible"><path d="M1.11 0v-5.812h.796l.063.796q.357-.435.89-.671.528-.249 1.032-.25.856 0 1.25.453c.257.304.39.726.39 1.265V0h-.937v-3.547c0-.394-.024-.71-.063-.953q-.064-.374-.281-.531-.207-.171-.64-.172c-.231 0-.45.055-.657.156q-.299.142-.531.36a2.6 2.6 0 00-.39.453V0zm0 0"/></symbol><symbol id="T" overflow="visible"><path d="M1.172 0v-.719h.906v-4.39h-.906v-.703h1.61l.171 1.375q.327-.716.813-1.11.48-.388 1.265-.39c.164 0 .313.011.438.03q.187.035.39.095l-.265.828c-.125-.032-.242-.055-.344-.079a1.6 1.6 0 00-.328-.03q-.676.001-1.156.484Q3.28-4.14 3-3.172v2.453h1.188V0zm3.797-3.844v-1.265l.093-.703h.797l-.125 1.968zm0 0"/></symbol><symbol id="W" overflow="visible"><path d="M4.36 0L1.686-6.687q-.001.128.016.421.03.3.047.704.03.409.047.859c.008.305.016.601.016.89V0h-.89v-7.61h1.297L4.938-.89q-.001-.155-.032-.579-.034-.435-.062-1.047a22 22 0 01-.032-1.28V-7.61h.891V0zm0 0"/></symbol><symbol id="J" overflow="visible"><path d="M2.156-5.625q.53 0 .906.188.374.188.579.5.217.313.218.687a1.29 1.29 0 01-.546 1.063 1.3 1.3 0 01-.532.234q.328.035.61.187.28.16.468.454c.125.187.188.43.188.718q-.002.471-.25.86a1.6 1.6 0 01-.672.609 2.3 2.3 0 01-1.016.219q-.454-.001-.921-.172a1.9 1.9 0 01-.766-.563l.453-.375q.234.282.563.422c.218.086.437.125.656.125Q2.67-.467 3-.766q.328-.311.328-.828c0-.258-.055-.468-.156-.625a.75.75 0 00-.406-.328 1.7 1.7 0 00-.578-.094h-.47l.079-.546h.328q.265 0 .5-.094a.9.9 0 00.563-.86q-.001-.468-.313-.703c-.2-.164-.445-.25-.734-.25-.243 0-.453.043-.641.125q-.268.128-.531.39L.594-5q.34-.328.734-.469a2.3 2.3 0 01.828-.156m0 0"/></symbol><symbol id="S" overflow="visible"><path d="M3.922-5.547L3.812-5H1.626v1.75q.263-.14.484-.187.234-.062.485-.063.434.002.781.203.342.206.531.594.188.392.188.953 0 .549-.235.969-.22.422-.64.656a2.2 2.2 0 01-1 .219q-.504-.001-.89-.172a2.5 2.5 0 01-.704-.5l.406-.406q.265.269.547.39c.195.086.414.125.656.125q.546 0 .844-.328.312-.328.313-.984 0-.436-.141-.688a.77.77 0 00-.36-.375 1.15 1.15 0 00-.5-.11q-.236 0-.437.048a3 3 0 00-.422.14H.984v-2.78zm0 0"/></symbol><symbol id="V" overflow="visible"><path d="M2.703-5.625q.31 0 .578.078.282.082.516.234l-.266.47a1.2 1.2 0 00-.406-.173 1.6 1.6 0 00-.437-.062q-.44.002-.75.297-.317.3-.47.828-.156.533-.155 1.265l.015.25c0 .688.086 1.196.266 1.516q.264.47.875.469.527 0 .797-.375c.175-.25.265-.586.265-1.016q0-.686-.281-.937-.27-.265-.703-.266-.439.001-.766.266a1.9 1.9 0 00-.531.64l-.016-.593q.281-.469.625-.672.34-.201.797-.203.42 0 .781.187.358.19.563.578.218.393.219.985 0 .61-.235 1.047a1.66 1.66 0 01-.64.671 1.64 1.64 0 01-.86.235q-.516 0-.875-.188a1.6 1.6 0 01-.562-.547A3 3 0 01.734-1.5a6 6 0 01-.093-1.125q0-.904.234-1.578.246-.685.703-1.047.47-.375 1.125-.375m0 0"/></symbol><symbol id="B" overflow="visible"><path d="M1.484-.89l.344-.47A11.3 11.3 0 014.016.689l-.47.546C3.13.586 2.442-.117 1.485-.89m0 0"/></symbol><clipPath id="al"><path d="M489 12h2.27v365H489zm0 0"/></clipPath><clipPath id="am"><path d="M13 10h478.27v3H13zm0 0"/></clipPath><clipPath id="an"><path d="M13 29h478.27v3H13zm0 0"/></clipPath><clipPath id="ae"><path d="M13 374h478.27v3H13zm0 0"/></clipPath></defs><use x="17.51" y="24.7" href="#a"/><use x="28.55" y="24.7" href="#b"/><use x="39.59" y="24.7" href="#c"/><use x="50.63" y="24.7" href="#d"/><use x="61.67" y="24.7" href="#e"/><use x="80.62" y="24.7" href="#f"/><use x="91.66" y="24.7" href="#g"/><use x="102.7" y="24.7" href="#h"/><use x="113.74" y="24.7" href="#i"/><use x="143.98" y="24.7" href="#j"/><use x="155.02" y="24.7" href="#k"/><use x="166.06" y="24.7" href="#l"/><use x="177.1" y="24.7" href="#m"/><use x="207.58" y="24.7" href="#n"/><use x="218.62" y="24.7" href="#b"/><use x="229.66" y="24.7" href="#c"/><use x="240.7" y="24.7" href="#d"/><use x="251.74" y="24.7" href="#e"/><use x="282.23" y="24.7" href="#o"/><use x="293.26" y="24.7" href="#c"/><use x="304.31" y="24.7" href="#p"/><use x="315.35" y="24.7" href="#i"/><use x="410.74" y="24.7" href="#q"/><use x="41.74" y="42.82" href="#r"/><use x="96.1" y="42.82" href="#r"/><use x="102.7" y="42.82" href="#s"/><use x="149.5" y="43.9" href="#t"/><use x="160.54" y="43.9" href="#u"/><use x="171.58" y="43.9" href="#v"/><use x="231.83" y="42.82" href="#w"/><use x="268.43" y="43.9" href="#t"/><use x="279.47" y="43.9" href="#u"/><use x="290.51" y="43.9" href="#v"/><use x="343.55" y="42.94" href="#x"/><use x="350.39" y="42.94" href="#y"/><use x="357.23" y="42.94" href="#x"/><use x="364.08" y="42.94" href="#z"/><use x="370.91" y="42.94" href="#A"/><use x="375.83" y="42.94" href="#B"/><use x="386.87" y="42.94" href="#C"/><use x="393.71" y="42.94" href="#A"/><use x="400.55" y="42.94" href="#x"/><use x="407.4" y="42.94" href="#z"/><use x="414.23" y="42.94" href="#A"/><use x="419.15" y="42.94" href="#B"/><use x="430.19" y="42.94" href="#x"/><use x="437.03" y="42.94" href="#D"/><use x="443.87" y="42.94" href="#A"/><use x="231.83" y="62.02" href="#w"/><use x="268.43" y="63.11" href="#E"/><use x="279.47" y="63.11" href="#F"/><use x="290.51" y="63.11" href="#G"/><use x="301.55" y="63.11" href="#H"/><use x="312.59" y="63.11" href="#I"/><use x="323.63" y="63.11" href="#v"/><use x="343.55" y="62.14" href="#x"/><use x="350.39" y="62.14" href="#x"/><use x="357.23" y="62.14" href="#z"/><use x="364.07" y="62.14" href="#J"/><use x="368.99" y="62.14" href="#B"/><use x="380.03" y="62.14" href="#x"/><use x="386.87" y="62.14" href="#K"/><use x="393.71" y="62.14" href="#J"/><use x="398.63" y="62.14" href="#B"/><use x="409.67" y="62.14" href="#x"/><use x="416.51" y="62.14" href="#D"/><use x="423.35" y="62.14" href="#J"/><use x="428.27" y="62.14" href="#L"/><use x="435.11" y="62.14" href="#M"/><use x="441.95" y="62.14" href="#B"/><use x="452.99" y="62.14" href="#N"/><use x="459.83" y="62.14" href="#D"/><use x="466.67" y="62.14" href="#J"/><use x="231.83" y="81.22" href="#O"/><use x="268.43" y="82.3" href="#I"/><use x="279.47" y="82.3" href="#v"/><use x="290.51" y="82.3" href="#P"/><use x="301.55" y="82.3" href="#Q"/><use x="307.91" y="82.3" href="#R"/><use x="310.43" y="82.3" href="#v"/><use x="321.47" y="82.3" href="#K"/><use x="343.55" y="81.34" href="#N"/><use x="350.39" y="81.34" href="#D"/><use x="357.23" y="81.34" href="#A"/><use x="362.15" y="81.34" href="#B"/><use x="373.19" y="81.34" href="#D"/><use x="380.03" y="81.34" href="#J"/><use x="384.95" y="81.34" href="#B"/><use x="395.99" y="81.34" href="#S"/><use x="402.83" y="81.34" href="#L"/><use x="409.67" y="81.34" href="#x"/><use x="416.52" y="81.34" href="#z"/><use x="423.35" y="81.34" href="#J"/><use x="428.27" y="81.34" href="#B"/><use x="439.31" y="81.34" href="#N"/><use x="446.15" y="81.34" href="#M"/><use x="452.99" y="81.34" href="#x"/><use x="459.84" y="81.34" href="#T"/><use x="466.67" y="81.34" href="#A"/><use x="231.83" y="100.42" href="#w"/><use x="268.43" y="101.51" href="#G"/><use x="279.47" y="101.51" href="#O"/><use x="290.51" y="101.51" href="#F"/><use x="301.55" y="101.51" href="#U"/><use x="343.55" y="100.54" href="#x"/><use x="350.39" y="100.54" href="#C"/><use x="357.23" y="100.54" href="#V"/><use x="362.15" y="100.54" href="#B"/><use x="373.19" y="100.54" href="#x"/><use x="380.03" y="100.54" href="#x"/><use x="386.87" y="100.54" href="#z"/><use x="393.71" y="100.54" href="#V"/><use x="398.63" y="100.54" href="#B"/><use x="409.67" y="100.54" href="#W"/><use x="416.51" y="100.54" href="#C"/><use x="423.35" y="100.54" href="#V"/><use x="428.27" y="100.54" href="#X"/><use x="435.11" y="100.54" href="#B"/><use x="446.15" y="100.54" href="#N"/><use x="452.99" y="100.54" href="#D"/><use x="459.83" y="100.54" href="#V"/><use x="464.75" y="100.54" href="#L"/><use x="471.59" y="100.54" href="#M"/><use x="231.83" y="119.62" href="#O"/><use x="268.43" y="120.7" href="#H"/><use x="279.47" y="120.7" href="#I"/><use x="290.51" y="120.7" href="#R"/><use x="343.54" y="119.74" href="#W"/><use x="350.39" y="119.74" href="#C"/><use x="357.23" y="119.74" href="#J"/><use x="362.15" y="119.74" href="#B"/><use x="373.19" y="119.74" href="#C"/><use x="380.03" y="119.74" href="#J"/><use x="384.95" y="119.74" href="#D"/><use x="391.79" y="119.74" href="#X"/><use x="231.83" y="138.82" href="#r"/><use x="268.43" y="139.9" href="#I"/><use x="279.47" y="139.9" href="#v"/><use x="290.51" y="139.9" href="#P"/><use x="301.55" y="139.9" href="#Q"/><use x="307.91" y="139.9" href="#R"/><use x="310.43" y="139.9" href="#v"/><use x="321.47" y="139.9" href="#K"/><use x="343.55" y="138.94" href="#C"/><use x="350.39" y="138.94" href="#A"/><use x="355.31" y="138.94" href="#D"/><use x="362.15" y="138.94" href="#B"/><use x="373.19" y="138.94" href="#C"/><use x="380.03" y="138.94" href="#A"/><use x="384.95" y="138.94" href="#N"/><use x="391.79" y="138.94" href="#B"/><use x="402.83" y="138.94" href="#N"/><use x="409.67" y="138.94" href="#x"/><use x="416.51" y="138.94" href="#z"/><use x="423.35" y="138.94" href="#A"/><use x="231.83" y="158.02" href="#w"/><use x="268.43" y="159.11" href="#H"/><use x="279.47" y="159.11" href="#I"/><use x="290.51" y="159.11" href="#Y"/><use x="301.55" y="159.11" href="#R"/><use x="343.55" y="158.14" href="#S"/><use x="350.39" y="158.14" href="#x"/><use x="357.23" y="158.14" href="#z"/><use x="364.07" y="158.14" href="#S"/><use x="231.83" y="177.22" href="#O"/><use x="268.43" y="178.3" href="#Z"/><use x="279.47" y="178.3" href="#v"/><use x="290.51" y="178.3" href="#O"/><use x="301.55" y="178.3" href="#F"/><use x="312.59" y="178.3" href="#U"/><use x="343.55" y="177.34" href="#N"/><use x="350.39" y="177.34" href="#K"/><use x="357.23" y="177.34" href="#V"/><use x="362.15" y="177.34" href="#B"/><use x="373.19" y="177.34" href="#aa"/><use x="380.03" y="177.34" href="#y"/><use x="386.87" y="177.34" href="#x"/><use x="393.72" y="177.34" href="#z"/><use x="400.55" y="177.34" href="#V"/><use x="231.83" y="196.42" href="#r"/><use x="268.43" y="197.5" href="#ab"/><use x="275.03" y="197.5" href="#R"/><use x="277.55" y="197.5" href="#ac"/><use x="288.59" y="197.5" href="#v"/><use x="343.55" y="196.54" href="#x"/><use x="350.39" y="196.54" href="#z"/><use x="357.23" y="196.54" href="#K"/><use x="364.07" y="196.54" href="#J"/><use x="231.83" y="215.62" href="#ad"/><use x="268.43" y="216.7" href="#t"/><use x="279.47" y="216.7" href="#u"/><use x="290.51" y="216.7" href="#v"/><use x="343.54" y="215.74" href="#ae"/><use x="350.39" y="215.74" href="#J"/><use x="355.31" y="215.74" href="#M"/><use x="231.83" y="234.82" href="#w"/><use x="268.42" y="235.9" href="#G"/><use x="279.46" y="235.9" href="#af"/><use x="290.5" y="235.9" href="#F"/><use x="301.54" y="235.9" href="#U"/><use x="343.55" y="234.94" href="#N"/><use x="350.39" y="234.94" href="#K"/><use x="357.23" y="234.94" href="#V"/><use x="231.83" y="254.02" href="#O"/><use x="268.43" y="255.1" href="#O"/><use x="279.47" y="255.1" href="#ag"/><use x="290.51" y="255.1" href="#R"/><use x="343.55" y="254.14" href="#ae"/><use x="350.39" y="254.14" href="#K"/><use x="357.23" y="254.14" href="#S"/><use x="231.83" y="273.22" href="#r"/><use x="268.43" y="274.3" href="#E"/><use x="279.47" y="274.3" href="#F"/><use x="290.51" y="274.3" href="#X"/><use x="301.55" y="274.3" href="#ac"/><use x="312.59" y="274.3" href="#v"/><use x="343.55" y="273.34" href="#ae"/><use x="350.39" y="273.34" href="#x"/><use x="357.23" y="273.34" href="#z"/><use x="364.07" y="273.34" href="#V"/><use x="368.99" y="273.34" href="#M"/><use x="231.83" y="292.42" href="#ad"/><use x="268.43" y="293.5" href="#ab"/><use x="275.03" y="293.5" href="#R"/><use x="277.55" y="293.5" href="#ac"/><use x="288.59" y="293.5" href="#v"/><use x="231.83" y="311.62" href="#as"/><use x="268.43" y="312.7" href="#t"/><use x="279.47" y="312.7" href="#u"/><use x="290.51" y="312.7" href="#v"/><use x="231.83" y="330.82" href="#w"/><use x="268.43" y="331.9" href="#ah"/><use x="279.47" y="331.9" href="#I"/><use x="290.51" y="331.9" href="#Y"/><use x="301.55" y="331.9" href="#R"/><use x="231.83" y="350.02" href="#O"/><use x="268.43" y="351.1" href="#ah"/><use x="279.47" y="351.1" href="#I"/><use x="290.51" y="351.1" href="#R"/><use x="231.83" y="369.22" href="#r"/><use x="268.43" y="370.3" href="#ah"/><use x="279.47" y="370.3" href="#I"/><use x="290.51" y="370.3" href="#v"/><use x="143.99" y="120.23" href="#G"/><use x="155.03" y="120.23" href="#O"/><use x="166.06" y="120.23" href="#F"/><use x="177.1" y="120.23" href="#U"/><use x="143.99" y="350.63" href="#ah"/><use x="155.03" y="350.63" href="#I"/><use x="166.06" y="350.63" href="#Y"/><use x="177.1" y="350.63" href="#R"/><use x="143.99" y="273.82" href="#G"/><use x="155.03" y="273.82" href="#af"/><use x="166.06" y="273.82" href="#F"/><use x="177.1" y="273.82" href="#U"/><use x="143.99" y="187.43" href="#H"/><use x="155.03" y="187.43" href="#I"/><use x="166.06" y="187.43" href="#Y"/><use x="177.1" y="187.43" href="#R"/><use x="132.94" y="72.22" href="#E"/><use x="143.99" y="72.22" href="#F"/><use x="155.03" y="72.22" href="#G"/><use x="166.06" y="72.22" href="#H"/><use x="177.1" y="72.22" href="#I"/><use x="188.15" y="72.22" href="#v"/><use x="41.74" y="71.14" href="#ad"/><use x="41.74" y="119.14" href="#as"/><use x="41.74" y="186.34" href="#ai"/><use x="41.74" y="272.74" href="#aj"/><use x="41.74" y="349.55" href="#ak"/><use x="92.75" y="71.15" href="#r"/><use x="99.35" y="71.15" href="#s"/><use x="105.95" y="71.15" href="#r"/><use x="92.75" y="119.16" href="#r"/><use x="99.35" y="119.16" href="#s"/><use x="105.95" y="119.16" href="#ad"/><use x="89.51" y="186.36" href="#r"/><use x="96.12" y="186.36" href="#s"/><use x="102.72" y="186.36" href="#ad"/><use x="109.32" y="186.36" href="#aa"/><use x="86.16" y="272.75" href="#r"/><use x="92.76" y="272.75" href="#s"/><use x="99.36" y="272.75" href="#ad"/><use x="105.96" y="272.75" href="#aa"/><use x="112.57" y="272.75" href="#r"/><use x="86.16" y="349.56" href="#r"/><use x="92.76" y="349.56" href="#s"/><use x="99.36" y="349.56" href="#ad"/><use x="105.96" y="349.56" href="#aa"/><use x="112.57" y="349.56" href="#ad"/><path d="M75.828 29.383h.961V12.105h-.96zm51.84 0h.96V12.105h-.96zm138.242 0h.957V12.105h-.957zm74.88 0h.96V12.105h-.96zM13.91 50.023h188.156v-.957H13.91zm0 38.403h188.156v-.961H13.91zm0 57.597h188.156v-.96H13.91zm0 76.801h188.156v-.96H13.91zm0 96h188.156v-.96H13.91zm-1.922 58.078h1.922V10.184h-1.922zm0 0"/><path d="M75.828 374.984h.961V31.304h-.96zm51.84 0h.96V31.304h-.96zm0 0"/><path fill-rule="evenodd" d="M202.066 376.902h1.922V12.105h-1.922zm0 0"/><path d="M265.91 374.984h.957V31.304h-.957zm74.88 0h.96V31.304h-.96zm0 0"/><g clip-path="url(#al)"><path fill-rule="evenodd" d="M489.348 376.902h1.922V12.105h-1.922zm0 0"/></g><g clip-path="url(#am)"><path fill-rule="evenodd" d="M13.91 12.105h477.36v-1.921H13.91zm0 0"/></g><g clip-path="url(#an)"><path fill-rule="evenodd" d="M13.91 31.305h477.36v-1.922H13.91zm0 0"/></g><path d="M203.988 50.023h285.36v-.957h-285.36zm0 19.2h285.36v-.957h-285.36zm0 19.203h285.36v-.961h-285.36zm0 19.199h285.36v-.96h-285.36zm0 19.199h285.36v-.96h-285.36zm0 19.199h285.36v-.96h-285.36zm0 19.2h285.36v-.957h-285.36zm0 19.203h285.36v-.961h-285.36zm0 19.199h285.36v-.96h-285.36zm0 19.199h285.36v-.96h-285.36zm0 19.199h285.36v-.96h-285.36zm0 19.2h285.36v-.957h-285.36zm0 19.203h285.36v-.961h-285.36zm0 19.199h285.36v-.96h-285.36zm0 19.199h285.36v-.96h-285.36zm0 19.199h285.36v-.957h-285.36zm0 19.2h285.36v-.957h-285.36zm0 0"/><g clip-path="url(#ae)"><path fill-rule="evenodd" d="M13.91 376.902h477.36v-1.918H13.91zm0 0"/></g></svg>