<svg xmlns:xlink="http://www.w3.org/1999/xlink" viewBox="0 0 491.3 386.6"><defs><symbol id="a" overflow="visible"><path d="M7.6-5.6V.8H8l.8-.3v-5.6l.4-.5-1.6-.2Zm-2.8 0v1.8c0 1.6-.3 3.2-2.3 4.3l.3.4c2.5-1 3-3 3.1-4.6v-1.4l.4-.5-1.5-.2Zm2-3.2q.9 2.4 3.5 4.1 0-.6.6-.7v-.3Q8.5-7 7.5-8.7l.4-.5-1.6-.4c-.5 1.7-2 3.7-3.6 4.7l.2.4c2-1 3.6-2.7 4.4-4.3Zm-4.2-.6Q1.8-6 .1-3.7l.4.3q1-.9 1.5-1.9l-.3-.1V.8H2l.8-.3V-6l.4-.3-.5-.2q.6-1 1-2.2.3 0 .5-.4l-1.5-.5Zm0 0" style="stroke:none"/></symbol><symbol id="b" overflow="visible"><path d="M4.8-5.3H2.3V-7h2.3v1.7Zm-.2.5V-3H2.3v-1.7zM5.8-5v-2h2.4v1.8H5.8Zm-.2.4h2.6V-3H5.8v-1.7ZM2.3-2v-.4h2.3v1.8Q4.6.6 6.3.6H8c2.3 0 3-.3 3-.7l-.4-.4v-1.8H10L9.6-.6l-.2.1h-3q-.9 0-.7-.3v-1.6h2.5v.7h.3c.3 0 .9-.3.9-.4V-7l.5-.3-1.2-.9-.5.5H5.8v-1.2l.4-.5-1.6-.2v2H2.2l-1-.5v6.5h.3q.6-.1.8-.4m0 0" style="stroke:none"/></symbol><symbol id="c" overflow="visible"><path d="m1.4-8.5.2.5h6L5.8-6.5H5v1.8H.3l.1.6H5v3.6q.1.3-.1.2L3-.2h-.3V0Q3.9 0 4 .3q.3 0 .4.6C5.8.7 6 .2 6-.4V-4h4.2l.5-.3c-.5-.5-1.2-.8-1.2-.8l-.2-.2-.6.7H6.1v-1.2q.3 0 .4-.5h-.4v.2c1.1-.4 2.4-1.2 3-1.7l.7-.2-1.1-1-.6.5zm0 0" style="stroke:none"/></symbol><symbol id="d" overflow="visible"><path d="M5.2-5.3 5-5q1 1.2 1.4 2.3C7-2 7.9-4.2 5.3-5.3Zm4.4-2.1-.5.6v-2s.4-.2.4-.5L8-9.5v2.7H4.6l.2.6H8v5.8h-.1l-1.5.2H6V0q1 0 1.2.3.3 0 .2.6Q9.2.6 9.1-.4v-5.8h1.2l.5-.3q-.8-.7-1-.7ZM1-6.6l-.3.2Q2-5.2 2.7-4 1.8-1.6 0 .2l.4.3q2-1.6 2.9-3.4L4-1.2c.5 1 1.6.4 1-1L4-4q.7-1.8 1-3.5.3 0 .5-.3l-1-1-.5.6H.3l.2.6h3.4l-.7 2.7-2-1.8Zm0 0" style="stroke:none"/></symbol><symbol id="e" overflow="visible"><path d="m5.6-8.8-1.1-.4-.8 1.9.4.2 1.2-1.2.5-.4ZM1-9H.7q.7.8.8 1.5c.7.6 1.4-1-.5-1.7Zm2.2 5.2q.5 0 .7-.4l-1.4-.5L2-3.5H.2l.2.6h1.3L.8-1.6q1.5.3 2.2.7A6 6 0 0 1 .3.5l.2.4Q2.8.4 3.8-.5l.7.6c.7.2 1-.8 0-1.3L5.4-3l.5-.2-1-1-.5.6H3.1l.2-.3Zm1.1.7Q4-2 3.6-1.6l-1.4-.3.6-1h1.5Zm3.8-6.1-1.4-.3Q6.3-6.4 5.2-4l.4.3 1.2-1.8h-.5q.3 1.9 1 3.4a8 8 0 0 1-3 2.6l.3.4a9 9 0 0 0 3.3-2.1Q8.4-.2 10 1q.2-.7.8-.7V0Q9.4-.8 8.6-2q1-2 1.3-4.4h.6l.5-.4-1-.7-.3-.1-.5.6H7.4l.4-1.7.5-.5ZM7-6.4h1.7A10 10 0 0 1 7.9-3q-.6-1-1-3l.2-.4ZM5.1-7.8l-.4.5h-1v-1.6s.4-.2.4-.5l-1.5-.1v2.3H.3l.1.6h1.8q-.5 1-2 2.1l.2.5Q2.2-4.8 3-6h-.4v1.7H3l.7-.4V-6l1 1.3c.7.4 1.3-1.3-1-2h2.1q.4 0 .5-.3-.8-.6-1-.6Zm0 0" style="stroke:none"/></symbol><symbol id="f" overflow="visible"><path d="M4.2-2.4 3-3Q2.2-1.3.4.2l.3.3a10 10 0 0 0 3-2.5q.4 0 .6-.3ZM7-2.7l-.2.2C7.8-1.8 9-.6 9.4.2c1 .5 1.4-1.6-2.3-3Zm2.3-1.8-.5.7H6v-.9l.4-.5-1.6-.1v1.5H.5l.1.6H5v2.8q.2.2 0 0l-1.4.2H3V0q1 0 1.1.3.2 0 .3.6Q6.3.6 6-.4v-2.8h4q.4 0 .5-.3l-1.1-.8Zm-4-5H3.8v1.4h-3l.2.6h2.7C3.5-6.3 3-5.3.4-4.3l.3.4c3-1 4-2.3 4.2-3.6h2v2q0 .8 1.1.8h1q1.8 0 1.8-.5l-.3-.4v-1.2h-.6l-.3 1.3q.1 0 0 0H8.1v-2l.4-.2-1-1L7-8H5v-1s.4-.2.4-.5Zm0 0" style="stroke:none"/></symbol><symbol id="g" overflow="visible"><path d="M9-7.5Q7.7-6 6.3-4.7v-4l.4-.5-1.6-.2v5.7L2.8-2.1l.3.3 2.1-1v2.3q0 1 1.6 1H8q2.8 0 2.7-.6l-.3-.4v-1.7h-.6L9.6-.6l-.2.1H6.8q-.6 0-.4-.2v-2.9q2-1.5 3.2-2.9l.7-.2-1.3-1ZM3-9.4Q2-5.8 0-3.5l.4.2Q1.4-4 2.2-5l-.4-.1v6h.4L3 .6v-6.3l.3-.3-.3-.2q.7-1 1.2-2.3.3 0 .5-.4l-1.5-.6Zm0 0" style="stroke:none"/></symbol><symbol id="h" overflow="visible"><path d="m2-9-.2.1Q2.8-8 3.3-7c.8.5 1.4-1.3-1.2-2Zm7.3 1.4-.5.6H7.2l1.5-1.3q.4 0 .6-.3L8-9.3 6.4-7H6v-2q.3 0 .4-.5H5V-7H.4l.2.6H4Q3-5.1.3-3.8l.2.4q3-1 4.8-2.8h-.4V-4h.4l.7-.4V-6c1 .5 2.4 1.4 3 2 1.2.3 1.2-1.6-3-2.5h4q.4 0 .6-.4l-1-.7Zm.2 4-.5.7H5.8v-.4q.3 0 .5-.6L4.8-4l-.1 1H.2l.2.6h4.1C4.2-1.2 3.5-.3.2.4l.2.5C4.2 0 5.4-1 5.7-2.3h-.2Q6.7.2 10.2 1q0-.6.6-.7V0Q7.4-.5 6.3-2.3h4l.6-.3-1-.7Zm0 0" style="stroke:none"/></symbol><symbol id="i" overflow="visible"><path d="M6.7-8.8v4.3H7q.6-.1.8-.4v-3.4s.4-.2.4-.5L6.7-9Zm2.4-.5v5q.1 0 0 0L8-4h-.3v.2q.8 0 .8.3.2 0 .2.5 1.5-.2 1.4-1.1v-4.6s.4-.3.4-.5zM4-8.3v1.7H3v-1.6zM.3-6.5l.1.5h1.4q0 1.2-1.6 2.6l.3.4q2.4-1.5 2.3-3h1v2.8h.4q.7-.1.8-.4V-6h1.2q.4 0 .5-.4Q6-7 5.7-7l-.2-.2-.5.6v-1.6h1l.6-.3-1-.7-.3-.2-.4.6H.5l.2.6h1.1v1.6H.3ZM.3.1l.1.5h9.9l.5-.4-1.1-.7-.3-.2L9 0H6v-1.8h3.2q.4 0 .5-.3l-1-.7-.3-.2-.5.6H6v-.8q.4-.1.5-.5l-1.6-.2v1.5H1.3l.2.6h3.4V0H.2Zm0 0" style="stroke:none"/></symbol><symbol id="j" overflow="visible"><path d="m3-9.3-1-.3-.5 2H.1l.1.6h1L.5-4.7l-.5.3 1 .8.4-.4h1v1.3l-2.3.5.6 1.1.5-.3 1.2-.4V.8h.4l.7-.3v-2.7l2-.7-.1-.4-1.9.4V-4H5q.4 0 .5-.4-.7-.6-.9-.6l-.3-.2-.4.5h-.4V-6q.3 0 .5-.6l-1.5-.1v2.1h-.9L2.3-7H5l.5-.4q-.8-.6-1-.6l-.3-.2-.4.5H2.5l.3-1 .5-.5Zm4.4-.1L6-9.6v3H4.4l.1.6H6C6-3.1 5.5-1.2 3.7.6l.4.3C6.5-.8 7-3 7.1-6h1v5.8q0 .7 1 .7h.4Q11 .4 11 0l-.3-.4v-1.2H10L9.8-.4h-.5q-.1 0 0-.1V-6l.4-.3-1-1-.5.6h-1V-9l.4-.5Zm0 0" style="stroke:none"/></symbol><symbol id="k" overflow="visible"><path d="m4.6-9.5-.2.2q.7.7.8 1.6c.7.6 1.6-1.1-.5-1.8ZM1-9.3l-.3.2q1 1.1 1.5 2.4C3-6.2 3.9-8 1.1-9.4Zm8.5 1-.5.6H8l.8-1q.4-.1.6-.5l-1.6-.4-.6 1.9h-4l.2.6H6v.8h-.8l-1-.5v6.2h.4q.6-.1.8-.4v-.3h3v.6h.4l.8-.4v-4.5L10-6l-1.2-.8-.4.5H6.8l.4-.8h3q.4 0 .6-.4l-1-.6ZM5.4-1.8v-1h3v.9zm0-1.5v-1h3v.9h-3Zm0-1.4v-1h3v.8h-3Zm-3.5 3L.1-.1l1 1 .2-.4 1.2-1.6q0-.2 0 0Q3.8.7 7 .5h3.4q-.1-.5.5-.6v-.4H7.1C5-.5 3.9-.5 3-1.7q-.2 0 0 0v-3.4l.5-.3-1.2-1-.5.6H.3v.6h1.5zm0 0" style="stroke:none"/></symbol><symbol id="l" overflow="visible"><path d="M9.3-9.3Q8.1-7.3 6.1-6l.3.4Q8.6-6.7 10-8.4q.3 0 .6-.3zm0 2.8Q8-4.3 5.8-3l.2.4a11 11 0 0 0 4.3-3q.3 0 .5-.2l-1.3-.8Zm.2 2.8Q8.1-.8 5.1.5l.2.4q3.4-1.2 5.1-3.7.3 0 .6-.3zM4.2-8.2v2.9H2.8V-8h1.4Zm-4 3 .2.5h1.3C1.7-3 1.6-1.1.2.7l.3.3c2-1.6 2.3-4 2.3-5.7h1.4V.8h.3q.6-.1.8-.4v-5.1h1.3q.4 0 .5-.4l-1-.7L6-6l-.5.7h-.1V-8h1q.4 0 .6-.4L6-9l-.3-.2-.5.6H.4l.2.6h1.1v2.7zm0 0" style="stroke:none"/></symbol><symbol id="m" overflow="visible"><path d="m8-8.9-.2.2q1 .7 1.1 1.5c.8.6 1.5-1.3-.8-1.8ZM.7-7.7l-.3.2a4 4 0 0 1 1 2c.9.8 1.7-1.1-.6-2.2Zm5.6-1.6v3.2H3.4l.2.6h2.5C6-3 5.5-1.2 3.4.5l.4.4C6.3-.7 7.1-2.8 7.3-5.5h-.4C7-3.5 7.9-.8 10 1c.2-.8.2-.8.7-.8v-.3a7 7 0 0 1-3.3-5.4h2.8q.4 0 .5-.3l-1-.7-.3-.2-.4.6H7.3l.1-2.7s.4-.2.4-.5l-1.5-.2Zm-3.8 0V-4L.2-2.5 1-1.3q.4-.4.4-.6l1.4-1.5-.3-.1V.8h.3q.6-.1.8-.4v-9.2l.4-.5-1.5-.2Zm0 0" style="stroke:none"/></symbol><symbol id="n" overflow="visible"><path d="m8-2.7-.4.1q.4.8.5 1.4l-.5.1v-7l.9-.2c0 3.4.4 7.2 1.5 9.1h.4q-.1-.5.5-.6V0C9.7-2 9.3-5.2 9.2-8.4l.6-.1.8-.2-1-.9q-1.7.7-4 1.1l-1-.3v3.1c0 2.2 0 4.3-1.5 6.4l.4.3c2-2 2.3-4.7 2.3-6.7v-2.2l.8-.1v7q.1.2-.4.4l.5 1 .5-.3 1.2-.8v.9c.7.6 1.6-1-.3-3Zm-5-4 1.2-1.4.6-.2-1.1-1-.6.5h-3l.2.6H3l-.7 1.4h-.5v2.1L.2-4l.6 1 .5-.4.5-.3v3.2q.2.2 0 0L.8 0 .5-.2V0l.9.3.1.6Q3.1.7 3-.3v-4l1.7-1-.1-.4L3-5v-1.2l.4-.5Zm0 0" style="stroke:none"/></symbol><symbol id="o" overflow="visible"><path d="m5-9-1.3-.6Q2.8-6.4.1-4.3l.3.3C2.6-5.2 4-7.2 4.7-8.7q.3 0 .5-.3Zm2.5-.4-.8-.2-.3.2A8 8 0 0 0 10-4.1q.3-.6.8-.7V-5Q8.2-6.2 7.4-8.7l.4-.6ZM5.2-5H1.7l.2.6h2.3C4.1-3 3.7-1.2.7.5L1 1C4.4-.7 5.2-2.8 5.4-4.5h2.2Q7.5-1 7-.5q0 .3-.3.2L4.8-.5V0q1 0 1.2.3.3 0 .2.5Q7.3.8 7.8.4c.5-.5.8-2.4.9-4.8l.5-.3-1-1-.6.6Zm0 0" style="stroke:none"/></symbol><symbol id="p" overflow="visible"><path d="m7.3-4.4-.4.2q.5.8.7 1.5l-2.1.1c.5-.6 1.3-2 1.7-2.9q.2 0 .4-.4l-1.4-.6c-.3 1.2-1 3-1.5 3.8v.4l-.3-.1.5 1 .5-.2 2.4-.6.1.7c.7.7 1.6-1.1-.6-3Zm-.4-4.8-1.3-.4Q5-6.8 4-5l.4.3A9 9 0 0 0 6-7h3.3q0 5.7-.7 6.5 0 .3-.3.2L6.6-.5V0q1 0 1.2.3v.6Q9 .9 9.6.3q.8-1 .8-7.2l.6-.3-1.1-1-.6.6h-3l.4-1.1q.3-.1.5-.5ZM3.7-7.6l-.4.6h-.1v-2l.4-.4L2-9.6V-7H.2l.2.6h1.5Q1.5-3.9 0-1.8l.4.3q1.3-1.5 2-3H2V.8h.3q.6-.1.8-.4v-5.7h-.4q.7.7.7 1.7c.8.5 1.6-1.1-.3-2v-.9h1.3q.3 0 .5-.3l-1-.7Zm0 0" style="stroke:none"/></symbol><symbol id="q" overflow="visible"><path d="M7.2-8v6.5h.3q.6 0 .8-.3v-5.7l.4-.5-1.5-.2Zm2-1.3v9L7.7 0l-.3-.1V0q.9 0 1 .2.3 0 .2.6 1.8-.2 1.6-1.2v-8.5l.4-.5-1.5-.2Zm-6.3.8L3-8h1a11 11 0 0 1-1.7 5l.4.3q.9-1 1.2-1.6l.7 1.1c.7.5 1.4-1-.4-1.6L4.7-6h1c-.2 2.4-1 4.8-3.2 6.5l.3.4C5.6-.8 6.5-3.5 6.8-6l.6-.2-1-1-.6.6H5L5.2-8h2q.3 0 .5-.4l-1-.7-.3-.2-.5.6H3Zm-1-.9Q1.5-6.3.2-3.9l.4.3 1.2-1.7-.4-.1V.9h.4l.7-.4V-6l.4-.4-.5-.1q.5-1.1.7-2.2.3 0 .5-.4L2-9.6Zm0 0" style="stroke:none"/></symbol><symbol id="s" overflow="visible"><path d="M4.8-4.4v-.2h.4v1.3h-.3l-.1-.2-.3-.6-1.2-.3a2 2 0 0 0-1.2.4q-.3.2-.3.5t.4.5l1 .2 1.3.3q.5.1.7.5.3.3.3.7 0 .6-.6 1T3.3.2 1.6-.4V0h-.1l-.2.1h-.1v-1.5h.3v.2l.2.4.6.5 1 .1q.9 0 1.3-.3t.4-.7-.4-.7l-1.3-.3-1.2-.2-.6-.5-.2-.5q0-.6.6-1 .5-.3 1.4-.3t1.5.4m0 0" style="stroke:none"/></symbol><symbol id="t" overflow="visible"><path d="M1.6-4.7v.9q.4-.5.9-.8l1-.2q.8 0 1.3.3t.9.9a2 2 0 0 1-.4 2.8q-.7.7-1.7.7-1.2 0-2-1v2.7h1.3l.1.2V2H.2v-.3h.9v-5.9H.3v-.4h.2Zm4 2.2q0-.8-.7-1.3-.5-.6-1.3-.6a2 2 0 0 0-2 2q0 .7.6 1.3t1.4.5T4.9-1t.6-1.4m0 0" style="stroke:none"/></symbol><symbol id="x" overflow="visible"><path d="M5.4-4v1.2q0 1.5-.7 2.3-.5.7-1.4.7L2.5 0 2-.4 1.6-1l-.2-.7-.2-1.1V-4q0-1.5.7-2.3.5-.7 1.4-.7.4 0 .7.2.4 0 .6.4l.4.6A4 4 0 0 1 5.4-4m-.5.1q0-.6-.2-1.1 0-.6-.4-1L4-6.1q-.4-.3-.7-.3-.7 0-1.2.8t-.4 1.8v1a4 4 0 0 0 .6 2.1l.3.3.7.2q.8 0 1.2-.8.4-.7.4-1.8Zm0 0" style="stroke:none"/></symbol><symbol id="R" overflow="visible"><path d="M3.5-6.8v6.3h1.6l.2.1V0l-.2.1H1.3v-.4H3v-5.8l-1.5.5h-.3V-6h.2Zm0 0" style="stroke:none"/></symbol><symbol id="am" overflow="visible"><path d="M4.2-3.7q.7.3 1 .8t.3 1q0 .9-.7 1.4-.7.7-1.6.7a3 3 0 0 1-2-.8L1-.8l.1-.1h.4a3 3 0 0 0 1.7.6q.8 0 1.3-.5t.5-1-.2-.9L4-3.3l-1-.2h-.2V-4h.6q.6 0 1-.4t.4-.9-.4-.9-1-.4l-1 .2-.6.5-.1.1h-.3V-6q0-.2.4-.6.8-.4 1.5-.4.8 0 1.4.5t.6 1.2l-.3.9q-.3.4-.8.6m0 0" style="stroke:none"/></symbol><symbol id="au" overflow="visible"><path d="M2-6.3V-4l1.5-.3q.8 0 1.4.6t.6 1.5q0 1.2-.6 1.8T3.2.2L2-.1l-.7-.5L1-1l.1-.2h.4q.7.9 1.7.8t1.3-.5q.6-.6.5-1.5 0-.7-.4-1.2T3.5-4L2-3.6l-.3.1h-.1v-3.2H5v.4h-.2Zm0 0" style="stroke:none"/></symbol><symbol id="av" overflow="visible"><path d="M2-2.9q.3-.6.8-.9t1-.3q.7 0 1.3.6T5.6-2 5.1-.5 3.7.2q-.6 0-1-.4-.6-.3-.9-1.1-.3-1-.3-2a4 4 0 0 1 2-3.3L4.7-7q.5 0 .8.2l.1.2v.2h-.4l-.5-.2q-1 0-2 1a3 3 0 0 0-.8 2zM2-2q.3 1 .7 1.4t1 .4 1-.5q.5-.4.5-1.2T4.7-3q-.3-.5-1-.5-.4 0-1 .4zm0 0" style="stroke:none"/></symbol><symbol id="ax" overflow="visible"><path d="M5.5-6.7v6.2h.6l.2.1.1.2v.1L6 0H5v-.9A2.4 2.4 0 0 1 1-1L.7-2.3q0-.6.3-1.2a2 2 0 0 1 2-1.3q1.3 0 2 1v-2.5h-.8v-.4h.3ZM5-2.3q0-.8-.5-1.5T3-4.4t-1.4.6A2 2 0 0 0 1-2.3q0 .8.6 1.4T3-.3t1.4-.6.5-1.4m0 0" style="stroke:none"/></symbol><symbol id="u" overflow="visible"><path d="M2-6.8v6.2H.2v1h10.4v-1H9.2V-7H5.7l.1-.6h4.6v-1H6l.2-.9H4.9l-.1 1H.7v1h4l-.2.5H2Zm.9 2.4H8v.6H3v-.6Zm.2-.8V-6h5v.7H3Zm-.2 2.3H8v.7H3v-.7ZM3-.4v-.9h5v.7H3Zm0 0" style="stroke:none"/></symbol><symbol id="v" overflow="visible"><path d="m.4-.7.2 1 4-1.2-.2-1-4 1Zm7.4-8 1.6 1.2.7-.8-1.9-1-.7.6Zm-6.9 4L2.3-5l-1 1.3q-.4.6-1 .7l.4 1 3.7-.8v-1l-2 .3q1-1 2.2-3.2l-1-.6L3-6l-1 .1Q2.8-7 3.6-9l-1-.5Q1.5-7 1-6.4q-.2.6-.7.7l.4 1.1Zm8.8.6Q9-3 8-2.4L7.8-4l2.8-.5-.2-1-2.7.5-.2-1.2 2.8-.4-.2-1-2.6.4v-2.3H6.2V-7H4.6l.2 1h1.6l.1 1.2-2.1.4.1 1 2.2-.4q.1 1.3.5 2.2-1.4.8-3.3 1.5l.7 1 3-1.4Q8 .6 9.5.8q1.1.1 1.3-1.8l-.7-.4h-.3q0 1.4-.2 1.2-.7 0-1.1-1.1 1.3-.9 2.2-2.4zm0 0" style="stroke:none"/></symbol><symbol id="w" overflow="visible"><path d="M9.2-9.3Q8-8 6-7l1 1q2-1 3.4-2.9l-1-.4Zm.3 3Q8.3-4.7 6.2-3.7l.8.8q2-1.1 3.7-3zm.3 3A9 9 0 0 1 5.6.1l.8.8Q9.3-.4 10.9-3zM4.3-8v2.8H2.8v-2.6h1.5Zm-4 3v.8h1.4c0 1.5-.2 3-1.5 4.5q.5.3.8.8a8 8 0 0 0 1.8-5.3h1.5v5h1.2v-5h1.1v-1H5.5v-2.6h1v-1h-6v1h1.2v2.6H.3Zm0 0" style="stroke:none"/></symbol><symbol id="H" overflow="visible"><path d="m1.8-7 1 2.6 1.1-.3c-.2-.8-.7-2-1.1-2.8l-1.1.3Zm6.4-.4Q7.7-6 6.9-4.7l1 .4 1.5-2.9zM.4-4v1h4.5V.9H6v-4h4.6v-1H6v-3.6h4v-1.1H1v1.1h3.9v3.6zm0 0" style="stroke:none"/></symbol><symbol id="I" overflow="visible"><path d="M4.3-3.7h2.2v1h-2v-1Zm.2-.8v-1h2v.9zm-.2 2.7h2.2v1h-2v-1ZM.5-8.7v1h4.2l-.2 1H1V1h1V.3h7v.6h1v-7.5H5.7L6-7.8h4.6v-1H.5ZM2-.7v-4.9h1.3v4.9zm7 0H7.6v-4.9h1.3zm0 0" style="stroke:none"/></symbol><symbol id="J" overflow="visible"><path d="M2-5.8v5.1H.3v1h10.3v-1H6.4v-3.2H10v-1H6.4v-2.8h3.9v-1H.8v1h4.4v7H3v-5.2H1.9Zm0 0" style="stroke:none"/></symbol><symbol id="L" overflow="visible"><path d="M3-6h2.2v1.2h-2V-6Zm0-1h.2l.7-.8h2.8L6-7Zm5.7 1v1.2H6.4V-6zM3.5-9.5A9 9 0 0 1 .3-6l.9.8.7-.5V-4C2-2.7 2-1 .5.3l.8.8Q2.7-.4 3-1.7h2.3V.6h1.2v-2.3h2.3v1.4h-2L7.2.8l2-.1q.6-.2.6-1V-7H7.3q.5-.3 1-1.4l-.7-.5H4.5l.4-.5-1.3-.2ZM3-3.8h2.3v1.1H3l.1-1.1ZM8.7-4v1.3H6.4v-1.1h2.3Zm0 0" style="stroke:none"/></symbol><symbol id="S" overflow="visible"><path d="M7.5-4.3Q7.7-1.1 9.8 1l1-.5a7 7 0 0 1-2.1-5q0-2.8 2-4.9l-.9-.5a8 8 0 0 0-2.3 5.5m0 0" style="stroke:none"/></symbol><symbol id="T" overflow="visible"><path d="M2.6 0h1.3l2.6-8.4H5.2L3.9-3.8 3-1.3h.2l-.8-2.5-1.3-4.6H-.2L2.5 0Zm0 0" style="stroke:none"/></symbol><symbol id="V" overflow="visible"><path d="M3.5-4.3q-.1-3.3-2.3-5.5l-1 .5a7 7 0 0 1 0 10l1 .4a8 8 0 0 0 2.3-5.4m0 0" style="stroke:none"/></symbol><symbol id="aa" overflow="visible"><path d="M.8-8.5v9H2v-.8h7v.7h1.2v-9zM2-1.3v-6.2h1.7c0 2.6 0 3.8-2 4.8q.4.3.7.8c2-1 2.4-2.8 2.5-5.6H6v3.3q0 1.4 1.1 1.4h1.2q.5 0 .8-.2v-1q-.5.3-.8.2h-1q-.2.1-.1-.4v-3.3H9v6H2Zm0 0" style="stroke:none"/></symbol><symbol id="ab" overflow="visible"><path d="M2.6-9.4Q1.7-6.7 0-5l.7 1.2q.7-.8 1-1.5l-.2-.1V.9h1.1v-7.7l1-2.4zM4.4-2v1h1.8v2h1.2v-2h1.8v-1.1H7.4v-3.7H7q1.1 3.2 3.1 5l.9-.8c-1.3-1-2.4-2.8-3-4.5h2.7v-1.1H7.4v-2.2H6.2v2.2h-3v1h2.5c-.6 1.8-1.8 3.6-3 4.6l.7.9q2.1-2 3.2-5h-.4v3.6H4.4Zm0 0" style="stroke:none"/></symbol><symbol id="af" overflow="visible"><path d="M7.2-9q.5.8.8 1.8l1-.5q-.3-.9-1-1.8l-1 .4Zm-5.4-.4Q1.3-7.8.2-6.7l.6 1q.8-.7 1.2-1.6h2.8v-1H2.5l.4-1-1-.3ZM.5-3.9v.9H2v2q0 .6-.6 1 .4.2.6.9L5-.8l-.3-1-1.5.8v-2h1.4v-1H3.1v-1.3h1.2v-1H1v1h1v1.2H.5Zm7-.6v1.3H6.3v-1.2h1.4ZM6-9.4q-.6 2-2 4l.6 1 .8-1.1-.3-.1V.9h1.1V0h4.5v-1h-2v-1.3h1.6v-1H8.7v-1.2h1.6v-1H8.7v-1.1h1.8v-1h-4L7-9.3l-1-.3Zm1.8 4H6.2v-1.1h1.4v1Zm-.2 3V-1H6.2v-1.2h1.4Zm0 0" style="stroke:none"/></symbol><symbol id="ag" overflow="visible"><path d="M9-7.8Q8.7-5 7.9-3.6q-.8-1.6-1.1-4H9Zm-3.7-.8v1h.3Q6-4.7 7-2.4 6-1 4.2 0l.7 1a9 9 0 0 0 2.8-2.3A7 7 0 0 0 10 1q.3-.6.8-1Q9-1 8.4-2.3q1.4-2.3 2-6.2l-.8-.2zM.7-6l2 2.7A8 8 0 0 1 .1 0q.5.3.9.9Q2.6-.5 3.5-2.2l.9 1.7 1-.7L4-3.4q1-2.1 1.2-5.1l-.7-.2h-4v1H4q-.2 2-.7 3.1L1.5-6.8l-1 .6Zm0 0" style="stroke:none"/></symbol><symbol id="ai" overflow="visible"><path d="M2.3-7Q1.9-6 .7-5l1 .7q1-1.1 1.7-2.7l-1-.2Zm5.2.4 2 2.3.9-.6Q9.6-6 8.3-7.2l-1 .5ZM4.6-9.2l.5.8H.6v1h3V-4h1.2v-3.4h1.4v3.3h1.2v-3.3h3v-1h-4l-.8-1.3-1 .3ZM1.3-4v.9h1q.8 1.2 2 2Q3-.4.4 0q.4.4.5 1Q3.4.5 5.5-.5q2 1 4.7 1.3.1-.5.7-1Q8-.4 6.7-1a7 7 0 0 0 2.6-2.6L8.6-4zm2 .9h4.2q-.7.8-2 1.5-1.2-.7-2-1.5Zm0 0" style="stroke:none"/></symbol><symbol id="ak" overflow="visible"><path d="M2.8 0H4v-7.2h2.4v-1.2H.2v1.2h2.4V0Zm0 0" style="stroke:none"/></symbol><symbol id="al" overflow="visible"><path d="M5-4.1v.5H.5v1h4.3v2.4h-2l.5 1h2q.7-.3.7-1v-2.3h4.3v-1H6.1v-.3q1.6-.8 2.7-2l-.7-.6H2.4v1.1h4.2L5-4.2Zm-.5-5 .5.7H.7v2.6h1.2v-1.5H9v1.5h1.2v-2.6h-4l-.7-1.3-1.2.4Zm0 0" style="stroke:none"/></symbol><symbol id="ao" overflow="visible"><path d="M3.2-8.3C3-5.3 2.5-2 0 0l.8.8c2.7-2 3.3-5.8 3.7-9.2l-1.3-.1Zm4.1-.4h-1c0 1 .4 7 3.7 9.6l1-.8C7.7-2.4 7.5-7.8 7.5-8.7Zm0 0" style="stroke:none"/></symbol><symbol id="aq" overflow="visible"><path d="m4.7-9 .7 1.4H.6v1h3C3.5-4.2 3.4-1.4.2.1q.6.5.8.9a7 7 0 0 0 3.5-5h3.7C8-1.6 7.8-.7 7.5-.4q-.1.2-.4.1H5q.5.6.5 1h2q.7.1 1-.4c.5-.4.8-1.7 1-4.8v-.3l-.2-.3H4.8l.1-1.5h5.7v-1H5.7v.2l1-.4-1-1.8-1 .4Zm0 0" style="stroke:none"/></symbol><symbol id="ar" overflow="visible"><path d="M5-9.4v4H.3v1.1H5V.9h1.3v-5.2h4.5v-1.1H6.2v-4.1zm0 0" style="stroke:none"/></symbol><symbol id="at" overflow="visible"><path d="M1.8-5.1v1h2L3.2-.9H.4v1h10.2v-1H8.4l.4-4.4-.8-.1H5.2l.3-2h4.3v-1.2H1.2v1.1h3L4-5.3H1.8ZM4.4-.7 5-4.2h2.5L7.2-.8zm0 0" style="stroke:none"/></symbol><symbol id="y" overflow="visible"><path d="M5-2.1q0-.6-.3-1l-.6-.4H2v2.7h1.8l.6-.2.4-.5zm-.4-3.5q0-.7-.4-1l-1-.2H2v2.4h1.3q.6 0 1-.3.3-.3.3-1M6-2.2q0 .6-.3 1T5-.4q-.3.3-.9.4l-1 .1h-2v-7.6h2.8l.9.4a2 2 0 0 1 .8 1.5q0 .5-.2.8t-.5.6l-.7.3.8.2.7.6q.3.4.3 1m0 0" style="stroke:none"/></symbol><symbol id="z" overflow="visible"><path d="M1.8-2.6q0 .7.3 1.1t.6.7l.8.2a2 2 0 0 0 1.6-.6l.4.6a3 3 0 0 1-2 .7q-.8 0-1.4-.3L1-1.3V-3q0-.9.3-1.6t.9-1T3.4-6t1.3.3.8 1 .3 1.5v.5Zm1.6-2.6q-.6 0-1 .5t-.6 1.4h3q0-.8-.3-1.4-.4-.5-1-.5m0 0" style="stroke:none"/></symbol><symbol id="B" overflow="visible"><path d="M3.4-8.2v6.8q0 .5.2.6l.7.2 1-.2.3.6-1.4.3q-.8 0-1.3-.4t-.4-1.2v-6H.7v-.7Zm0 0" style="stroke:none"/></symbol><symbol id="E" overflow="visible"><path d="M4.8 0v-3.6h-3V0H1v-7.6h1v3.2h2.9v-3.2h.9V0Zm0 0" style="stroke:none"/></symbol><symbol id="F" overflow="visible"><path d="m5.8-6.4.3.8-.8.2h-.9l.8.6.2.9q0 .6-.2 1t-.8.7-1.2.2h-.8q-.2 0-.2.2l-.1.3.1.4H4q.6 0 1 .3.5.1.8.6.3.3.3.8 0 .8-.8 1.3-.7.4-2 .4-.9 0-1.5-.2-.5-.1-.7-.5-.3-.4-.3-1h.9V1l.6.4h2q.4 0 .6-.3L5 .6q0-.4-.4-.6l-.9-.2h-1q-.8 0-1.1-.3a1 1 0 0 1-.4-.8q0-.3.2-.5 0-.3.4-.5L1.1-3Q.9-3.3.9-4a2 2 0 0 1 1-1.7l1.3-.2L4.4-6zM3.2-5.3q-.7 0-1 .4t-.4 1 .4 1q.3.3 1 .3t1-.3q.3-.4.3-1T4-5t-1-.4m0 0" style="stroke:none"/></symbol><symbol id="G" overflow="visible"><path d="M6.1-3.8q0 1.2-.3 2a3 3 0 0 1-1 1.4q-.6.6-1.5.5T1.8-.4Q1-.8.8-1.7t-.3-2q0-1.3.3-2.1t1-1.4 1.5-.5q.9 0 1.6.5.6.4.9 1.3t.3 2.1m-1 0a5 5 0 0 0-.4-2.3Q4.3-7 3.3-7q-.8 0-1.4.8-.3.8-.4 2.3 0 1.5.4 2.3.5.9 1.4.8 1 0 1.4-.8T5-3.8m0 0" style="stroke:none"/></symbol><symbol id="Q" overflow="visible"><path d="M6-2.1q0 .6-.4 1.2l-1 .7Q4 .1 3.2.1L1.6 0 .5-.8l.5-.7q.4.5 1 .6a3 3 0 0 0 2 0q.4 0 .7-.4.3-.3.2-.8l-.1-.6-.5-.5-1-.4L2-4q-.6-.3-.9-.7t-.3-1 .3-1 .9-.7l1.3-.2a4 4 0 0 1 2.4.8l-.6.7q-.3-.4-.8-.5-.5-.3-1-.2l-.8.1q-.3 0-.5.4l-.2.6.2.6.6.4 1.1.4 1.1.4.8.7Q6-2.9 6-2m0 0" style="stroke:none"/></symbol><symbol id="X" overflow="visible"><path d="M2-5q.4-.5.8-.7.4-.3.9-.2.8 0 1.3.3l.7 1.1a5 5 0 0 1 0 3.2q-.4.7-.9 1a2 2 0 0 1-1.2.4Q2.6.1 2-.6V0H1v-8.2h1ZM3.4-.7q.6 0 1-.6T5-2.9l-.2-1.3q0-.5-.5-.7-.3-.3-.7-.3l-.9.3-.6.6v3l.6.5zm0 0" style="stroke:none"/></symbol><symbol id="Y" overflow="visible"><path d="M1.1 0v-5.8H2v.8l1-.7q.5-.3 1-.2.9 0 1.2.4.4.4.4 1.3V0h-1v-4.5L4.3-5l-.7-.2L3-5l-.6.3-.4.5V0Zm0 0" style="stroke:none"/></symbol><symbol id="Z" overflow="visible"><path d="M1.2 0v-.7H2v-4.4H1v-.7h1.7L3-4.4q.3-.8.8-1.1A2 2 0 0 1 5-6h1l-.3 1-.3-.2H5q-.6 0-1.1.5T3-3.2v2.5h1.2V0ZM5-3.8v-2h1l-.2 2Zm0 0" style="stroke:none"/></symbol><symbol id="ad" overflow="visible"><path d="M4.4 0 1.7-6.7v1.1l.1.9V0H1v-7.6h1.3L5-1v-6.7h.8V0Zm0 0" style="stroke:none"/></symbol><symbol id="C" overflow="visible"><path d="M2.2-5.6q.5 0 .9.2l.5.5q.3.4.2.8l-.1.8-.4.7-.8 1-1.1 1H4l-.1.6H.6v-.5l1-1L2.9-3l.3-1q0-.6-.2-.8l-1-.3q-.4 0-.6.2l-.6.4-.4-.3q.3-.4.7-.6.4-.3 1-.2m0 0" style="stroke:none"/></symbol><symbol id="M" overflow="visible"><path d="M2.2-5.6q.5 0 .9.2.3.1.5.5.3.3.3.7a1 1 0 0 1-.6 1l-.5.2.6.2.5.5.1.7q0 .5-.2.9l-.7.6-1 .2-1-.2-.6-.5L1-1l1 .5q.6 0 .9-.3t.3-.8l-.1-.6q-.2-.3-.4-.3l-.6-.1h-.5l.1-.6h.8l.4-.4.2-.5q0-.6-.3-.7-.3-.3-.8-.3l-.6.1-.5.4L.6-5l.7-.5zm0 0" style="stroke:none"/></symbol><symbol id="ah" overflow="visible"><path d="m4-5.5-.2.5H1.6v1.8l.5-.2.5-.1.8.2q.3.1.5.6l.2 1-.2 1-.7.6-1 .2q-.5 0-.9-.2L.6-.6 1-1l.6.4.6.1q.6 0 .9-.3t.3-1l-.1-.7-.4-.3-.5-.2-.9.2H1v-2.7Zm0 0" style="stroke:none"/></symbol><symbol id="ap" overflow="visible"><path d="M2.7-5.6h.6l.5.3-.3.5-.4-.2h-.4l-.8.2-.4.8-.2 1.3v.3q0 1 .3 1.5t.9.4q.5 0 .8-.3l.2-1q0-.7-.2-1L2.5-3q-.4 0-.7.2l-.5.7v-.6q.2-.5.6-.7l.8-.2q.4 0 .7.2.4.1.6.6l.2 1-.2 1-.7.7-.8.2q-.6 0-.9-.2L1-.6l-.3-.9A6 6 0 0 1 1-4.2q.2-.7.7-1t1.1-.4m0 0" style="stroke:none"/></symbol><symbol id="D" overflow="visible"><path d="m1.5-.9.3-.5q1.3 1 2.2 2l-.5.6a10 10 0 0 0-2-2m0 0" style="stroke:none"/></symbol><clipPath id="ay"><path d="M489 12h2.3v365H489Zm0 0"/></clipPath><clipPath id="az"><path d="M13 10h478.3v3H13Zm0 0"/></clipPath><clipPath id="aA"><path d="M13 29h478.3v3H13Zm0 0"/></clipPath><clipPath id="aB"><path d="M13 374h478.3v3H13Zm0 0"/></clipPath></defs><g style="fill:#000;fill-opacity:1"><use xlink:href="#a" x="17.5" y="24.7"/><use xlink:href="#b" x="28.5" y="24.7"/><use xlink:href="#c" x="39.6" y="24.7"/><use xlink:href="#d" x="50.6" y="24.7"/><use xlink:href="#e" x="61.7" y="24.7"/></g><g style="fill:#000;fill-opacity:1"><use xlink:href="#f" x="80.6" y="24.7"/><use xlink:href="#g" x="91.7" y="24.7"/><use xlink:href="#h" x="102.7" y="24.7"/><use xlink:href="#i" x="113.7" y="24.7"/></g><g style="fill:#000;fill-opacity:1"><use xlink:href="#j" x="144" y="24.7"/><use xlink:href="#k" x="155" y="24.7"/><use xlink:href="#l" x="166.1" y="24.7"/><use xlink:href="#m" x="177.1" y="24.7"/></g><g style="fill:#000;fill-opacity:1"><use xlink:href="#n" x="207.6" y="24.7"/><use xlink:href="#b" x="218.6" y="24.7"/><use xlink:href="#c" x="229.7" y="24.7"/><use xlink:href="#d" x="240.7" y="24.7"/><use xlink:href="#e" x="251.7" y="24.7"/></g><g style="fill:#000;fill-opacity:1"><use xlink:href="#o" x="282.2" y="24.7"/><use xlink:href="#c" x="293.3" y="24.7"/><use xlink:href="#p" x="304.3" y="24.7"/><use xlink:href="#i" x="315.3" y="24.7"/></g><use xlink:href="#q" x="410.7" y="24.7" style="fill:#000;fill-opacity:1"/><use xlink:href="#r" x="41.7" y="42.8" style="fill:#000;fill-opacity:1"/><g style="fill:#000;fill-opacity:1"><use xlink:href="#s" x="96.1" y="42.8"/><use xlink:href="#t" x="102.7" y="42.8"/></g><g style="fill:#000;fill-opacity:1"><use xlink:href="#u" x="149.5" y="43.9"/><use xlink:href="#v" x="160.5" y="43.9"/><use xlink:href="#w" x="171.6" y="43.9"/></g><use xlink:href="#x" x="231.8" y="42.8" style="fill:#000;fill-opacity:1"/><g style="fill:#000;fill-opacity:1"><use xlink:href="#u" x="268.4" y="43.9"/><use xlink:href="#v" x="279.5" y="43.9"/><use xlink:href="#w" x="290.5" y="43.9"/></g><g style="fill:#000;fill-opacity:1"><use xlink:href="#y" x="343.5" y="42.9"/><use xlink:href="#z" x="350.4" y="42.9"/></g><g style="fill:#000;fill-opacity:1"><use xlink:href="#A" x="357.2" y="42.9"/><use xlink:href="#B" x="364.1" y="42.9"/></g><use xlink:href="#C" x="370.9" y="42.9" style="fill:#000;fill-opacity:1"/><use xlink:href="#D" x="375.8" y="42.9" style="fill:#000;fill-opacity:1"/><g style="fill:#000;fill-opacity:1"><use xlink:href="#E" x="386.9" y="42.9"/><use xlink:href="#F" x="393.7" y="42.9"/></g><g style="fill:#000;fill-opacity:1"><use xlink:href="#A" x="400.6" y="42.9"/><use xlink:href="#B" x="407.4" y="42.9"/></g><use xlink:href="#C" x="414.2" y="42.9" style="fill:#000;fill-opacity:1"/><use xlink:href="#D" x="419.1" y="42.9" style="fill:#000;fill-opacity:1"/><g style="fill:#000;fill-opacity:1"><use xlink:href="#A" x="430.2" y="42.9"/><use xlink:href="#G" x="437" y="42.9"/></g><use xlink:href="#C" x="443.9" y="42.9" style="fill:#000;fill-opacity:1"/><use xlink:href="#x" x="231.8" y="62" style="fill:#000;fill-opacity:1"/><g style="fill:#000;fill-opacity:1"><use xlink:href="#H" x="268.4" y="63.1"/><use xlink:href="#I" x="279.5" y="63.1"/><use xlink:href="#J" x="290.5" y="63.1"/><use xlink:href="#K" x="301.5" y="63.1"/><use xlink:href="#L" x="312.6" y="63.1"/><use xlink:href="#w" x="323.6" y="63.1"/></g><g style="fill:#000;fill-opacity:1"><use xlink:href="#y" x="343.5" y="62.1"/><use xlink:href="#A" x="350.4" y="62.1"/></g><use xlink:href="#B" x="357.2" y="62.1" style="fill:#000;fill-opacity:1"/><use xlink:href="#M" x="364.1" y="62.1" style="fill:#000;fill-opacity:1"/><use xlink:href="#D" x="369" y="62.1" style="fill:#000;fill-opacity:1"/><g style="fill:#000;fill-opacity:1"><use xlink:href="#y" x="380" y="62.1"/><use xlink:href="#N" x="386.9" y="62.1"/></g><use xlink:href="#M" x="393.7" y="62.1" style="fill:#000;fill-opacity:1"/><use xlink:href="#D" x="398.6" y="62.1" style="fill:#000;fill-opacity:1"/><g style="fill:#000;fill-opacity:1"><use xlink:href="#A" x="409.7" y="62.1"/><use xlink:href="#G" x="416.5" y="62.1"/></g><use xlink:href="#M" x="423.3" y="62.1" style="fill:#000;fill-opacity:1"/><g style="fill:#000;fill-opacity:1"><use xlink:href="#O" x="428.3" y="62.1"/><use xlink:href="#P" x="435.1" y="62.1"/></g><use xlink:href="#D" x="441.9" y="62.1" style="fill:#000;fill-opacity:1"/><g style="fill:#000;fill-opacity:1"><use xlink:href="#Q" x="453" y="62.1"/><use xlink:href="#G" x="459.8" y="62.1"/></g><use xlink:href="#M" x="466.7" y="62.1" style="fill:#000;fill-opacity:1"/><use xlink:href="#R" x="231.8" y="81.2" style="fill:#000;fill-opacity:1"/><g style="fill:#000;fill-opacity:1"><use xlink:href="#L" x="268.4" y="82.3"/><use xlink:href="#w" x="279.5" y="82.3"/><use xlink:href="#S" x="290.5" y="82.3"/><use xlink:href="#T" x="301.5" y="82.3"/></g><use xlink:href="#U" x="307.9" y="82.3" style="fill:#000;fill-opacity:1"/><g style="fill:#000;fill-opacity:1"><use xlink:href="#w" x="310.4" y="82.3"/><use xlink:href="#V" x="321.5" y="82.3"/></g><g style="fill:#000;fill-opacity:1"><use xlink:href="#Q" x="343.5" y="81.3"/><use xlink:href="#G" x="350.4" y="81.3"/></g><use xlink:href="#C" x="357.2" y="81.3" style="fill:#000;fill-opacity:1"/><use xlink:href="#D" x="362.1" y="81.3" style="fill:#000;fill-opacity:1"/><use xlink:href="#G" x="373.2" y="81.3" style="fill:#000;fill-opacity:1"/><use xlink:href="#M" x="380" y="81.3" style="fill:#000;fill-opacity:1"/><use xlink:href="#D" x="384.9" y="81.3" style="fill:#000;fill-opacity:1"/><g style="fill:#000;fill-opacity:1"><use xlink:href="#W" x="396" y="81.3"/><use xlink:href="#X" x="402.8" y="81.3"/></g><g style="fill:#000;fill-opacity:1"><use xlink:href="#A" x="409.7" y="81.3"/><use xlink:href="#B" x="416.5" y="81.3"/></g><use xlink:href="#M" x="423.3" y="81.3" style="fill:#000;fill-opacity:1"/><use xlink:href="#D" x="428.3" y="81.3" style="fill:#000;fill-opacity:1"/><g style="fill:#000;fill-opacity:1"><use xlink:href="#Q" x="439.3" y="81.3"/><use xlink:href="#Y" x="446.2" y="81.3"/></g><g style="fill:#000;fill-opacity:1"><use xlink:href="#y" x="453" y="81.3"/><use xlink:href="#Z" x="459.8" y="81.3"/></g><use xlink:href="#C" x="466.7" y="81.3" style="fill:#000;fill-opacity:1"/><use xlink:href="#x" x="231.8" y="100.4" style="fill:#000;fill-opacity:1"/><g style="fill:#000;fill-opacity:1"><use xlink:href="#J" x="268.4" y="101.5"/><use xlink:href="#aa" x="279.5" y="101.5"/><use xlink:href="#I" x="290.5" y="101.5"/><use xlink:href="#ab" x="301.5" y="101.5"/></g><g style="fill:#000;fill-opacity:1"><use xlink:href="#A" x="343.5" y="100.5"/><use xlink:href="#E" x="350.4" y="100.5"/></g><use xlink:href="#ac" x="357.2" y="100.5" style="fill:#000;fill-opacity:1"/><use xlink:href="#D" x="362.1" y="100.5" style="fill:#000;fill-opacity:1"/><g style="fill:#000;fill-opacity:1"><use xlink:href="#A" x="373.2" y="100.5"/><use xlink:href="#A" x="380" y="100.5"/></g><use xlink:href="#B" x="386.9" y="100.5" style="fill:#000;fill-opacity:1"/><use xlink:href="#ac" x="393.7" y="100.5" style="fill:#000;fill-opacity:1"/><use xlink:href="#D" x="398.6" y="100.5" style="fill:#000;fill-opacity:1"/><g style="fill:#000;fill-opacity:1"><use xlink:href="#ad" x="409.7" y="100.5"/><use xlink:href="#E" x="416.5" y="100.5"/></g><use xlink:href="#ac" x="423.3" y="100.5" style="fill:#000;fill-opacity:1"/><use xlink:href="#ae" x="428.3" y="100.5" style="fill:#000;fill-opacity:1"/><use xlink:href="#D" x="435.1" y="100.5" style="fill:#000;fill-opacity:1"/><g style="fill:#000;fill-opacity:1"><use xlink:href="#Q" x="446.1" y="100.5"/><use xlink:href="#G" x="453" y="100.5"/></g><use xlink:href="#ac" x="459.8" y="100.5" style="fill:#000;fill-opacity:1"/><g style="fill:#000;fill-opacity:1"><use xlink:href="#O" x="464.7" y="100.5"/><use xlink:href="#P" x="471.6" y="100.5"/></g><use xlink:href="#R" x="231.8" y="119.6" style="fill:#000;fill-opacity:1"/><g style="fill:#000;fill-opacity:1"><use xlink:href="#K" x="268.4" y="120.7"/><use xlink:href="#L" x="279.5" y="120.7"/><use xlink:href="#af" x="290.5" y="120.7"/></g><g style="fill:#000;fill-opacity:1"><use xlink:href="#ad" x="343.5" y="119.7"/><use xlink:href="#E" x="350.4" y="119.7"/></g><use xlink:href="#M" x="357.2" y="119.7" style="fill:#000;fill-opacity:1"/><use xlink:href="#D" x="362.1" y="119.7" style="fill:#000;fill-opacity:1"/><use xlink:href="#E" x="373.2" y="119.7" style="fill:#000;fill-opacity:1"/><use xlink:href="#M" x="380" y="119.7" style="fill:#000;fill-opacity:1"/><g style="fill:#000;fill-opacity:1"><use xlink:href="#G" x="384.9" y="119.7"/><use xlink:href="#ae" x="391.8" y="119.7"/></g><use xlink:href="#r" x="231.8" y="138.8" style="fill:#000;fill-opacity:1"/><g style="fill:#000;fill-opacity:1"><use xlink:href="#L" x="268.4" y="139.9"/><use xlink:href="#w" x="279.5" y="139.9"/><use xlink:href="#S" x="290.5" y="139.9"/><use xlink:href="#T" x="301.5" y="139.9"/></g><use xlink:href="#U" x="307.9" y="139.9" style="fill:#000;fill-opacity:1"/><g style="fill:#000;fill-opacity:1"><use xlink:href="#w" x="310.4" y="139.9"/><use xlink:href="#V" x="321.5" y="139.9"/></g><use xlink:href="#E" x="343.5" y="138.9" style="fill:#000;fill-opacity:1"/><use xlink:href="#C" x="350.4" y="138.9" style="fill:#000;fill-opacity:1"/><use xlink:href="#G" x="355.3" y="138.9" style="fill:#000;fill-opacity:1"/><use xlink:href="#D" x="362.1" y="138.9" style="fill:#000;fill-opacity:1"/><use xlink:href="#E" x="373.2" y="138.9" style="fill:#000;fill-opacity:1"/><use xlink:href="#C" x="380" y="138.9" style="fill:#000;fill-opacity:1"/><use xlink:href="#Q" x="384.9" y="138.9" style="fill:#000;fill-opacity:1"/><use xlink:href="#D" x="391.8" y="138.9" style="fill:#000;fill-opacity:1"/><g style="fill:#000;fill-opacity:1"><use xlink:href="#Q" x="402.8" y="138.9"/><use xlink:href="#A" x="409.7" y="138.9"/></g><use xlink:href="#B" x="416.5" y="138.9" style="fill:#000;fill-opacity:1"/><use xlink:href="#C" x="423.3" y="138.9" style="fill:#000;fill-opacity:1"/><use xlink:href="#x" x="231.8" y="158" style="fill:#000;fill-opacity:1"/><g style="fill:#000;fill-opacity:1"><use xlink:href="#K" x="268.4" y="159.1"/><use xlink:href="#L" x="279.5" y="159.1"/><use xlink:href="#ag" x="290.5" y="159.1"/><use xlink:href="#af" x="301.5" y="159.1"/></g><g style="fill:#000;fill-opacity:1"><use xlink:href="#W" x="343.5" y="158.1"/><use xlink:href="#A" x="350.4" y="158.1"/></g><use xlink:href="#B" x="357.2" y="158.1" style="fill:#000;fill-opacity:1"/><use xlink:href="#ah" x="364.1" y="158.1" style="fill:#000;fill-opacity:1"/><use xlink:href="#R" x="231.8" y="177.2" style="fill:#000;fill-opacity:1"/><g style="fill:#000;fill-opacity:1"><use xlink:href="#ai" x="268.4" y="178.3"/><use xlink:href="#w" x="279.5" y="178.3"/><use xlink:href="#aa" x="290.5" y="178.3"/><use xlink:href="#I" x="301.5" y="178.3"/><use xlink:href="#ab" x="312.6" y="178.3"/></g><g style="fill:#000;fill-opacity:1"><use xlink:href="#Q" x="343.5" y="177.3"/><use xlink:href="#N" x="350.4" y="177.3"/></g><use xlink:href="#ac" x="357.2" y="177.3" style="fill:#000;fill-opacity:1"/><use xlink:href="#D" x="362.1" y="177.3" style="fill:#000;fill-opacity:1"/><g style="fill:#000;fill-opacity:1"><use xlink:href="#aj" x="373.2" y="177.3"/><use xlink:href="#z" x="380" y="177.3"/></g><g style="fill:#000;fill-opacity:1"><use xlink:href="#A" x="386.9" y="177.3"/><use xlink:href="#B" x="393.7" y="177.3"/></g><use xlink:href="#ac" x="400.5" y="177.3" style="fill:#000;fill-opacity:1"/><use xlink:href="#r" x="231.8" y="196.4" style="fill:#000;fill-opacity:1"/><g style="fill:#000;fill-opacity:1"><use xlink:href="#ak" x="268.4" y="197.5"/><use xlink:href="#U" x="275" y="197.5"/></g><use xlink:href="#al" x="277.6" y="197.5" style="fill:#000;fill-opacity:1"/><use xlink:href="#w" x="288.6" y="197.5" style="fill:#000;fill-opacity:1"/><g style="fill:#000;fill-opacity:1"><use xlink:href="#A" x="343.5" y="196.5"/><use xlink:href="#B" x="350.4" y="196.5"/></g><use xlink:href="#N" x="357.2" y="196.5" style="fill:#000;fill-opacity:1"/><use xlink:href="#M" x="364.1" y="196.5" style="fill:#000;fill-opacity:1"/><use xlink:href="#am" x="231.8" y="215.6" style="fill:#000;fill-opacity:1"/><g style="fill:#000;fill-opacity:1"><use xlink:href="#u" x="268.4" y="216.7"/><use xlink:href="#v" x="279.5" y="216.7"/><use xlink:href="#w" x="290.5" y="216.7"/></g><use xlink:href="#an" x="343.5" y="215.7" style="fill:#000;fill-opacity:1"/><use xlink:href="#M" x="350.4" y="215.7" style="fill:#000;fill-opacity:1"/><use xlink:href="#P" x="355.3" y="215.7" style="fill:#000;fill-opacity:1"/><use xlink:href="#x" x="231.8" y="234.8" style="fill:#000;fill-opacity:1"/><g style="fill:#000;fill-opacity:1"><use xlink:href="#J" x="268.4" y="235.9"/><use xlink:href="#ao" x="279.5" y="235.9"/><use xlink:href="#I" x="290.5" y="235.9"/><use xlink:href="#ab" x="301.5" y="235.9"/></g><g style="fill:#000;fill-opacity:1"><use xlink:href="#Q" x="343.5" y="234.9"/><use xlink:href="#N" x="350.4" y="234.9"/></g><use xlink:href="#ap" x="357.2" y="234.9" style="fill:#000;fill-opacity:1"/><use xlink:href="#R" x="231.8" y="254" style="fill:#000;fill-opacity:1"/><g style="fill:#000;fill-opacity:1"><use xlink:href="#aa" x="268.4" y="255.1"/><use xlink:href="#aq" x="279.5" y="255.1"/><use xlink:href="#af" x="290.5" y="255.1"/></g><g style="fill:#000;fill-opacity:1"><use xlink:href="#an" x="343.5" y="254.1"/><use xlink:href="#N" x="350.4" y="254.1"/></g><use xlink:href="#ah" x="357.2" y="254.1" style="fill:#000;fill-opacity:1"/><use xlink:href="#r" x="231.8" y="273.2" style="fill:#000;fill-opacity:1"/><g style="fill:#000;fill-opacity:1"><use xlink:href="#H" x="268.4" y="274.3"/><use xlink:href="#I" x="279.5" y="274.3"/><use xlink:href="#ar" x="290.5" y="274.3"/><use xlink:href="#al" x="301.5" y="274.3"/><use xlink:href="#w" x="312.6" y="274.3"/></g><g style="fill:#000;fill-opacity:1"><use xlink:href="#an" x="343.5" y="273.3"/><use xlink:href="#A" x="350.4" y="273.3"/></g><use xlink:href="#B" x="357.2" y="273.3" style="fill:#000;fill-opacity:1"/><use xlink:href="#ac" x="364.1" y="273.3" style="fill:#000;fill-opacity:1"/><use xlink:href="#P" x="369" y="273.3" style="fill:#000;fill-opacity:1"/><use xlink:href="#am" x="231.8" y="292.4" style="fill:#000;fill-opacity:1"/><g style="fill:#000;fill-opacity:1"><use xlink:href="#ak" x="268.4" y="293.5"/><use xlink:href="#U" x="275" y="293.5"/></g><use xlink:href="#al" x="277.6" y="293.5" style="fill:#000;fill-opacity:1"/><use xlink:href="#w" x="288.6" y="293.5" style="fill:#000;fill-opacity:1"/><use xlink:href="#as" x="231.8" y="311.6" style="fill:#000;fill-opacity:1"/><g style="fill:#000;fill-opacity:1"><use xlink:href="#u" x="268.4" y="312.7"/><use xlink:href="#v" x="279.5" y="312.7"/><use xlink:href="#w" x="290.5" y="312.7"/></g><use xlink:href="#x" x="231.8" y="330.8" style="fill:#000;fill-opacity:1"/><g style="fill:#000;fill-opacity:1"><use xlink:href="#at" x="268.4" y="331.9"/><use xlink:href="#L" x="279.5" y="331.9"/><use xlink:href="#ag" x="290.5" y="331.9"/><use xlink:href="#af" x="301.5" y="331.9"/></g><use xlink:href="#R" x="231.8" y="350" style="fill:#000;fill-opacity:1"/><g style="fill:#000;fill-opacity:1"><use xlink:href="#at" x="268.4" y="351.1"/><use xlink:href="#L" x="279.5" y="351.1"/><use xlink:href="#af" x="290.5" y="351.1"/></g><use xlink:href="#r" x="231.8" y="369.2" style="fill:#000;fill-opacity:1"/><g style="fill:#000;fill-opacity:1"><use xlink:href="#at" x="268.4" y="370.3"/><use xlink:href="#L" x="279.5" y="370.3"/><use xlink:href="#w" x="290.5" y="370.3"/></g><g style="fill:#000;fill-opacity:1"><use xlink:href="#J" x="144" y="120.2"/><use xlink:href="#aa" x="155" y="120.2"/><use xlink:href="#I" x="166.1" y="120.2"/><use xlink:href="#ab" x="177.1" y="120.2"/></g><g style="fill:#000;fill-opacity:1"><use xlink:href="#at" x="144" y="350.6"/><use xlink:href="#L" x="155" y="350.6"/><use xlink:href="#ag" x="166.1" y="350.6"/><use xlink:href="#af" x="177.1" y="350.6"/></g><g style="fill:#000;fill-opacity:1"><use xlink:href="#J" x="144" y="273.8"/><use xlink:href="#ao" x="155" y="273.8"/><use xlink:href="#I" x="166.1" y="273.8"/><use xlink:href="#ab" x="177.1" y="273.8"/></g><g style="fill:#000;fill-opacity:1"><use xlink:href="#K" x="144" y="187.4"/><use xlink:href="#L" x="155" y="187.4"/><use xlink:href="#ag" x="166.1" y="187.4"/><use xlink:href="#af" x="177.1" y="187.4"/></g><g style="fill:#000;fill-opacity:1"><use xlink:href="#H" x="132.9" y="72.2"/><use xlink:href="#I" x="144" y="72.2"/><use xlink:href="#J" x="155" y="72.2"/><use xlink:href="#K" x="166.1" y="72.2"/><use xlink:href="#L" x="177.1" y="72.2"/><use xlink:href="#w" x="188.1" y="72.2"/></g><use xlink:href="#am" x="41.7" y="71.1" style="fill:#000;fill-opacity:1"/><use xlink:href="#as" x="41.7" y="119.1" style="fill:#000;fill-opacity:1"/><use xlink:href="#au" x="41.7" y="186.3" style="fill:#000;fill-opacity:1"/><use xlink:href="#av" x="41.7" y="272.7" style="fill:#000;fill-opacity:1"/><use xlink:href="#aw" x="41.7" y="349.5" style="fill:#000;fill-opacity:1"/><g style="fill:#000;fill-opacity:1"><use xlink:href="#s" x="92.7" y="71.2"/><use xlink:href="#t" x="99.4" y="71.2"/><use xlink:href="#r" x="106" y="71.2"/></g><g style="fill:#000;fill-opacity:1"><use xlink:href="#s" x="92.7" y="119.2"/><use xlink:href="#t" x="99.4" y="119.2"/><use xlink:href="#am" x="106" y="119.2"/></g><g style="fill:#000;fill-opacity:1"><use xlink:href="#s" x="89.5" y="186.4"/><use xlink:href="#t" x="96.1" y="186.4"/><use xlink:href="#am" x="102.7" y="186.4"/><use xlink:href="#ax" x="109.3" y="186.4"/></g><g style="fill:#000;fill-opacity:1"><use xlink:href="#s" x="86.2" y="272.8"/><use xlink:href="#t" x="92.8" y="272.8"/><use xlink:href="#am" x="99.4" y="272.8"/><use xlink:href="#ax" x="106" y="272.8"/><use xlink:href="#r" x="112.6" y="272.8"/></g><g style="fill:#000;fill-opacity:1"><use xlink:href="#s" x="86.2" y="349.6"/><use xlink:href="#t" x="92.8" y="349.6"/><use xlink:href="#am" x="99.4" y="349.6"/><use xlink:href="#ax" x="106" y="349.6"/><use xlink:href="#am" x="112.6" y="349.6"/></g><path d="M75.8 29.4h1V12h-1Zm51.9 0h1V12h-1Zm138.3 0h.9V12h-1Zm74.8 0h1V12h-1ZM14 50h188v-1H14Zm0 38.4h188v-1H14Zm0 57.6h188v-1H14Zm0 76.8h188v-1H14Zm0 96h188v-1H14Zm-2 58.1h2V10.2h-2Zm0 0" style="stroke:none;fill-rule:nonzero;fill:#000;fill-opacity:1"/><path d="M75.8 375h1V31.3h-1Zm51.9 0h1V31.3h-1Zm0 0" style="stroke:none;fill-rule:nonzero;fill:#000;fill-opacity:1"/><path d="M202 376.9h2V12.1h-2Zm0 0" style="stroke:none;fill-rule:evenodd;fill:#000;fill-opacity:1"/><path d="M266 375h.9V31.3h-1Zm74.8 0h1V31.3h-1Zm0 0" style="stroke:none;fill-rule:nonzero;fill:#000;fill-opacity:1"/><g clip-path="url(#ay)"><path d="M489.3 376.9h2V12.1h-2Zm0 0" style="stroke:none;fill-rule:evenodd;fill:#000;fill-opacity:1"/></g><g clip-path="url(#az)"><path d="M14 12.1h477.3v-2H13.9Zm0 0" style="stroke:none;fill-rule:evenodd;fill:#000;fill-opacity:1"/></g><g clip-path="url(#aA)"><path d="M14 31.3h477.3v-2H13.9Zm0 0" style="stroke:none;fill-rule:evenodd;fill:#000;fill-opacity:1"/></g><path d="M204 50h285.3v-1H204Zm0 19.2h285.3v-1H204Zm0 19.2h285.3v-1H204Zm0 19.2h285.3v-1H204Zm0 19.2h285.3v-1H204Zm0 19.2h285.3v-1H204Zm0 19.2h285.3v-1H204Zm0 19.2h285.3v-1H204Zm0 19.2h285.3v-1H204Zm0 19.2h285.3v-1H204Zm0 19.2h285.3v-1H204Zm0 19.2h285.3v-1H204Zm0 19.2h285.3v-1H204Zm0 19.2h285.3v-1H204Zm0 19.2h285.3v-1H204Zm0 19.2h285.3v-1H204Zm0 19.2h285.3v-1H204Zm0 0" style="stroke:none;fill-rule:nonzero;fill:#000;fill-opacity:1"/><g clip-path="url(#aB)"><path d="M14 376.9h477.3v-2H13.9Zm0 0" style="stroke:none;fill-rule:evenodd;fill:#000;fill-opacity:1"/></g></svg>