<svg stroke-linecap="round" stroke-linejoin="round" class="tl-container tl-theme__force-sRGB tl-theme__light" data-color-mode="light" style="background-color:#f9fafb" viewBox="1788 918 574 284"><text fill="#f9fafb" stroke="#f9fafb" stroke-width="2" alignment-baseline="mathematical" dominant-baseline="mathematical" font-family="'tldraw_draw', sans-serif" font-size="24" transform="translate(1840 1040)"><tspan x="0" y="12.5" unicode-bidi="plaintext">CO</tspan></text><text fill="#1d1d1d" alignment-baseline="mathematical" dominant-baseline="mathematical" font-family="'tldraw_draw', sans-serif" font-size="24" transform="translate(1840 1040)"><tspan x="0" y="12.5" unicode-bidi="plaintext">CO</tspan></text><text fill="#f9fafb" stroke="#f9fafb" stroke-width="2" alignment-baseline="mathematical" dominant-baseline="mathematical" font-family="'tldraw_draw', sans-serif" font-size="24" transform="translate(1840 1120)"><tspan x="0" y="12.5" unicode-bidi="plaintext">CO₂</tspan></text><text fill="#1d1d1d" alignment-baseline="mathematical" dominant-baseline="mathematical" font-family="'tldraw_draw', sans-serif" font-size="24" transform="translate(1840 1120)"><tspan x="0" y="12.5" unicode-bidi="plaintext">CO₂</tspan></text><text fill="#f9fafb" stroke="#f9fafb" stroke-width="2" alignment-baseline="mathematical" dominant-baseline="mathematical" font-family="'tldraw_draw', sans-serif" font-size="24" transform="translate(1930 970)"><tspan x="0" y="12.5" unicode-bidi="plaintext">M</tspan></text><text fill="#1d1d1d" alignment-baseline="mathematical" dominant-baseline="mathematical" font-family="'tldraw_draw', sans-serif" font-size="24" transform="translate(1930 970)"><tspan x="0" y="12.5" unicode-bidi="plaintext">M</tspan></text><text fill="#f9fafb" stroke="#f9fafb" stroke-width="2" alignment-baseline="mathematical" dominant-baseline="mathematical" font-family="'tldraw_draw', sans-serif" font-size="24" transform="translate(1930 1040)"><tspan x="0" y="12.5" unicode-bidi="plaintext">28</tspan></text><text fill="#1d1d1d" alignment-baseline="mathematical" dominant-baseline="mathematical" font-family="'tldraw_draw', sans-serif" font-size="24" transform="translate(1930 1040)"><tspan x="0" y="12.5" unicode-bidi="plaintext">28</tspan></text><text fill="#f9fafb" stroke="#f9fafb" stroke-width="2" alignment-baseline="mathematical" dominant-baseline="mathematical" font-family="'tldraw_draw', sans-serif" font-size="24" transform="translate(1930 1120)"><tspan x="0" y="12.5" unicode-bidi="plaintext">44</tspan></text><text fill="#1d1d1d" alignment-baseline="mathematical" dominant-baseline="mathematical" font-family="'tldraw_draw', sans-serif" font-size="24" transform="translate(1930 1120)"><tspan x="0" y="12.5" unicode-bidi="plaintext">44</tspan></text><text fill="#f9fafb" stroke="#f9fafb" stroke-width="2" alignment-baseline="mathematical" dominant-baseline="mathematical" font-family="'tldraw_draw', sans-serif" font-size="24" transform="translate(2050 970)"><tspan x="0" y="12.5" unicode-bidi="plaintext">M</tspan></text><text fill="#1d1d1d" alignment-baseline="mathematical" dominant-baseline="mathematical" font-family="'tldraw_draw', sans-serif" font-size="24" transform="translate(2050 970)"><tspan x="0" y="12.5" unicode-bidi="plaintext">M</tspan></text><path fill="none" stroke="#1d1d1d" stroke-width="3.5" d="M2050 970h20m-20 0h21"/><text fill="#f9fafb" stroke="#f9fafb" stroke-width="2" alignment-baseline="mathematical" dominant-baseline="mathematical" font-family="'tldraw_draw', sans-serif" font-size="24" transform="translate(2040 1080)"><tspan x="0" y="12.5" unicode-bidi="plaintext">32</tspan></text><text fill="#1d1d1d" alignment-baseline="mathematical" dominant-baseline="mathematical" font-family="'tldraw_draw', sans-serif" font-size="24" transform="translate(2040 1080)"><tspan x="0" y="12.5" unicode-bidi="plaintext">32</tspan></text><text fill="#f9fafb" stroke="#f9fafb" stroke-width="2" alignment-baseline="mathematical" dominant-baseline="mathematical" font-family="'tldraw_draw', sans-serif" font-size="24" transform="translate(2140 970)"><tspan x="0" y="12.5" unicode-bidi="plaintext">|M-M|</tspan></text><text fill="#1d1d1d" alignment-baseline="mathematical" dominant-baseline="mathematical" font-family="'tldraw_draw', sans-serif" font-size="24" transform="translate(2140 970)"><tspan x="0" y="12.5" unicode-bidi="plaintext">|M-M|</tspan></text><path fill="none" stroke="#1d1d1d" stroke-width="3.5" d="M2150 970h20m-20 0 5-.2 15.3-.5"/><text fill="#f9fafb" stroke="#f9fafb" stroke-width="2" alignment-baseline="mathematical" dominant-baseline="mathematical" font-family="'tldraw_draw', sans-serif" font-size="24" transform="translate(2160 1040)"><tspan x="0" y="12.5" unicode-bidi="plaintext">12</tspan></text><text fill="#1d1d1d" alignment-baseline="mathematical" dominant-baseline="mathematical" font-family="'tldraw_draw', sans-serif" font-size="24" transform="translate(2160 1040)"><tspan x="0" y="12.5" unicode-bidi="plaintext">12</tspan></text><text fill="#f9fafb" stroke="#f9fafb" stroke-width="2" alignment-baseline="mathematical" dominant-baseline="mathematical" font-family="'tldraw_draw', sans-serif" font-size="24" transform="translate(2160 1120)"><tspan x="0" y="12.5" unicode-bidi="plaintext">4</tspan></text><text fill="#1d1d1d" alignment-baseline="mathematical" dominant-baseline="mathematical" font-family="'tldraw_draw', sans-serif" font-size="24" transform="translate(2160 1120)"><tspan x="0" y="12.5" unicode-bidi="plaintext">4</tspan></text><path fill="none" stroke="#1d1d1d" stroke-width="3.5" d="m1970 1050 6.3 3.1 53.7 26.9m-60-30 6.3 3.1 54.8 27.4m48.9 19.5 6.4 2.8 63.6 27.2m-70-30 6.5 2.7 64.5 27m-171 .3 6.5-2.6 43.5-17.4m-50 20 6.6-2.5 44.1-16.6m49.3-20.9 6.4-2.8 63.6-27.2m-70 30 6.4-2.8 62.6-28"/><text fill="#f9fafb" stroke="#f9fafb" stroke-width="2" alignment-baseline="mathematical" dominant-baseline="mathematical" font-family="'tldraw_draw', sans-serif" font-size="24" transform="translate(2260 970)"><tspan x="0" y="12.5" unicode-bidi="plaintext">n/V</tspan></text><text fill="#1d1d1d" alignment-baseline="mathematical" dominant-baseline="mathematical" font-family="'tldraw_draw', sans-serif" font-size="24" transform="translate(2260 970)"><tspan x="0" y="12.5" unicode-bidi="plaintext">n/V</tspan></text><text fill="#f9fafb" stroke="#f9fafb" stroke-width="2" alignment-baseline="mathematical" dominant-baseline="mathematical" font-family="'tldraw_draw', sans-serif" font-size="24" transform="translate(2270 1040)"><tspan x="0" y="12.5" unicode-bidi="plaintext">3</tspan></text><text fill="#1d1d1d" alignment-baseline="mathematical" dominant-baseline="mathematical" font-family="'tldraw_draw', sans-serif" font-size="24" transform="translate(2270 1040)"><tspan x="0" y="12.5" unicode-bidi="plaintext">3</tspan></text><text fill="#f9fafb" stroke="#f9fafb" stroke-width="2" alignment-baseline="mathematical" dominant-baseline="mathematical" font-family="'tldraw_draw', sans-serif" font-size="24" transform="translate(2270 1120)"><tspan x="0" y="12.5" unicode-bidi="plaintext">1</tspan></text><text fill="#1d1d1d" alignment-baseline="mathematical" dominant-baseline="mathematical" font-family="'tldraw_draw', sans-serif" font-size="24" transform="translate(2270 1120)"><tspan x="0" y="12.5" unicode-bidi="plaintext">1</tspan></text><path fill="none" stroke="#1d1d1d" stroke-width="3.5" d="m1827 950 496.5-.5q7 0 7 7l-.3 207.4q0 7-7 7l-497-1.9q-7 0-7-7l.6-203.8q0-7 7-7l495.6-1.3q7 0 7 7l-.4 205.3q0 7-7 7l-495 1.5q-7 0-7-7l1-206.5q.1-7 6-7.2"/><path fill="none" stroke="#1d1d1d" stroke-width="3.5" d="M1900 950v220m0-220v7l-.2 213.4M2230 950v220m0-220v7l.4 213.6"/><path fill="none" stroke="#1d1d1d" stroke-width="3.5" d="M1820 1020h510m-510 0h7l501.9 1.2"/></svg>