<svg xmlns:xlink="http://www.w3.org/1999/xlink" viewBox="0 0 481.6 223.7"><defs><clipPath id="a"><path d="M0 223.7h481.6V0H0Z" clip-rule="evenodd"/></clipPath><clipPath id="n"><path d="M-59.7 700.5h603.8v-858.9H-59.7Z"/></clipPath><clipPath id="o"><path d="M-59.7 700.5h603.8v-858.9H-59.7Z"/></clipPath><clipPath id="p"><path d="M-59.7 700.5h603.8v-858.9H-59.7Z"/></clipPath><clipPath id="q"><path d="M-59.7 700.5h603.8v-858.9H-59.7Z"/></clipPath><clipPath id="r"><path d="M-59.7 700.5h603.8v-858.9H-59.7Z"/></clipPath><clipPath id="s"><path d="M-59.7 700.5h603.8v-858.9H-59.7Z"/></clipPath><clipPath id="t"><path d="M-59.7 700.5h603.8v-858.9H-59.7Z"/></clipPath><clipPath id="u"><path d="M-59.7 700.5h603.8v-858.9H-59.7Z"/></clipPath><clipPath id="v"><path d="M-59.7 700.5h603.8v-858.9H-59.7Z"/></clipPath><clipPath id="w"><path d="M-59.7 700.5h603.8v-858.9H-59.7Z"/></clipPath><clipPath id="x"><path d="M-59.7 700.5h603.8v-858.9H-59.7Z"/></clipPath><clipPath id="y"><path d="M-59.7 700.5h603.8v-858.9H-59.7Z"/></clipPath><clipPath id="z"><path d="M-59.7 700.5h603.8v-858.9H-59.7Z"/></clipPath><clipPath id="A"><path d="M-59.7 700.5h603.8v-858.9H-59.7Z"/></clipPath><clipPath id="B"><path d="M-59.7 700.5h603.8v-858.9H-59.7Z"/></clipPath><clipPath id="C"><path d="M-59.7 700.5h603.8v-858.9H-59.7Z"/></clipPath><clipPath id="D"><path d="M-59.7 700.5h603.8v-858.9H-59.7Z"/></clipPath><clipPath id="E"><path d="M-59.7 700.5h603.8v-858.9H-59.7Z"/></clipPath><clipPath id="F"><path d="M-59.7 700.5h603.8v-858.9H-59.7Z"/></clipPath><clipPath id="G"><path d="M-59.7 700.5h603.8v-858.9H-59.7Z"/></clipPath><clipPath id="H"><path d="M-59.7 700.5h603.8v-858.9H-59.7Z"/></clipPath><clipPath id="I"><path d="M-59.7 700.5h603.8v-858.9H-59.7Z"/></clipPath><clipPath id="J"><path d="M-59.7 700.5h603.8v-858.9H-59.7Z"/></clipPath><clipPath id="K"><path d="M-59.7 700.5h603.8v-858.9H-59.7Z"/></clipPath><clipPath id="L"><path d="M-59.7 700.5h603.8v-858.9H-59.7Z"/></clipPath><clipPath id="M"><path d="M-59.7 700.5h603.8v-858.9H-59.7Z"/></clipPath><clipPath id="N"><path d="M-59.7 700.5h603.8v-858.9H-59.7Z"/></clipPath><clipPath id="O"><path d="M-59.7 700.5h603.8v-858.9H-59.7Z"/></clipPath><clipPath id="P"><path d="M-59.7 700.5h603.8v-858.9H-59.7Z"/></clipPath><clipPath id="Q"><path d="M-59.7 700.5h603.8v-858.9H-59.7Z"/></clipPath><clipPath id="R"><path d="M-59.7 700.5h603.8v-858.9H-59.7Z"/></clipPath><clipPath id="S"><path d="M-59.7 700.5h603.8v-858.9H-59.7Z"/></clipPath><clipPath id="T"><path d="M-59.7 700.5h603.8v-858.9H-59.7Z"/></clipPath><clipPath id="U"><path d="M-59.7 700.5h603.8v-858.9H-59.7Z"/></clipPath><clipPath id="V"><path d="M-59.7 700.5h603.8v-858.9H-59.7Z"/></clipPath><clipPath id="W"><path d="M-59.7 700.5h603.8v-858.9H-59.7Z"/></clipPath><clipPath id="X"><path d="M-59.7 700.5h603.8v-858.9H-59.7Z"/></clipPath><clipPath id="Y"><path d="M-59.7 700.5h603.8v-858.9H-59.7Z"/></clipPath><clipPath id="Z"><path d="M-59.7 700.5h603.8v-858.9H-59.7Z"/></clipPath><clipPath id="aa"><path d="M-59.7 700.5h603.8v-858.9H-59.7Z"/></clipPath><clipPath id="ab"><path d="M-59.7 700.5h603.8v-858.9H-59.7Z"/></clipPath><clipPath id="ac"><path d="M-59.7 700.5h603.8v-858.9H-59.7Z"/></clipPath><clipPath id="ad"><path d="M-59.7 700.5h603.8v-858.9H-59.7Z"/></clipPath><clipPath id="ae"><path d="M-59.7 700.5h603.8v-858.9H-59.7Z"/></clipPath><clipPath id="af"><path d="M-59.7 700.5h603.8v-858.9H-59.7Z"/></clipPath><clipPath id="ag"><path d="M-59.7 700.5h603.8v-858.9H-59.7Z"/></clipPath><clipPath id="ah"><path d="M-59.7 700.5h603.8v-858.9H-59.7Z"/></clipPath><clipPath id="ai"><path d="M-59.7 700.5h603.8v-858.9H-59.7Z"/></clipPath><clipPath id="aj"><path d="M-59.7 700.5h603.8v-858.9H-59.7Z"/></clipPath><clipPath id="ak"><path d="M-59.7 700.5h603.8v-858.9H-59.7Z"/></clipPath><clipPath id="al"><path d="M-59.7 700.5h603.8v-858.9H-59.7Z"/></clipPath><clipPath id="am"><path d="M-59.7 700.5h603.8v-858.9H-59.7Z"/></clipPath><clipPath id="an"><path d="M-59.7 700.5h603.8v-858.9H-59.7Z"/></clipPath><clipPath id="ao"><path d="M-59.7 700.5h603.8v-858.9H-59.7Z"/></clipPath><clipPath id="ap"><path d="M-59.7 700.5h603.8v-858.9H-59.7Z"/></clipPath><clipPath id="aq"><path d="M-59.7 700.5h603.8v-858.9H-59.7Z"/></clipPath><clipPath id="ar"><path d="M-59.7 700.5h603.8v-858.9H-59.7Z"/></clipPath><clipPath id="as"><path d="M-59.7 700.5h603.8v-858.9H-59.7Z"/></clipPath><clipPath id="at"><path d="M-59.7 700.5h603.8v-858.9H-59.7Z"/></clipPath><clipPath id="au"><path d="M-59.7 700.5h603.8v-858.9H-59.7Z"/></clipPath><clipPath id="av"><path d="M-59.7 700.5h603.8v-858.9H-59.7Z"/></clipPath><clipPath id="aw"><path d="M-59.7 700.5h603.8v-858.9H-59.7Z"/></clipPath><clipPath id="ax"><path d="M-59.7 700.5h603.8v-858.9H-59.7Z"/></clipPath><clipPath id="ay"><path d="M-59.7 700.5h603.8v-858.9H-59.7Z"/></clipPath><clipPath id="az"><path d="M-59.7 700.5h603.8v-858.9H-59.7Z"/></clipPath><clipPath id="aA"><path d="M-59.7 700.5h603.8v-858.9H-59.7Z"/></clipPath><clipPath id="aB"><path d="M-59.7 700.5h603.8v-858.9H-59.7Z"/></clipPath><clipPath id="aC"><path d="M-59.7 700.5h603.8v-858.9H-59.7Z"/></clipPath><clipPath id="aD"><path d="M-59.7 700.5h603.8v-858.9H-59.7Z"/></clipPath><clipPath id="aE"><path d="M-59.7 700.5h603.8v-858.9H-59.7Z"/></clipPath><clipPath id="aF"><path d="M-59.7 700.5h603.8v-858.9H-59.7Z"/></clipPath><clipPath id="aG"><path d="M-59.7 700.5h603.8v-858.9H-59.7Z"/></clipPath><clipPath id="aH"><path d="M-59.7 700.5h603.8v-858.9H-59.7Z"/></clipPath><clipPath id="aI"><path d="M-59.7 700.5h603.8v-858.9H-59.7Z"/></clipPath><clipPath id="aJ"><path d="M-59.7 700.5h603.8v-858.9H-59.7Z"/></clipPath><clipPath id="aK"><path d="M-59.7 700.5h603.8v-858.9H-59.7Z"/></clipPath><clipPath id="aL"><path d="M-59.7 700.5h603.8v-858.9H-59.7Z"/></clipPath><clipPath id="aM"><path d="M-59.7 700.5h603.8v-858.9H-59.7Z"/></clipPath><clipPath id="aN"><path d="M-59.7 700.5h603.8v-858.9H-59.7Z"/></clipPath><clipPath id="aO"><path d="M-59.7 700.5h603.8v-858.9H-59.7Z"/></clipPath><clipPath id="aP"><path d="M-59.7 700.5h603.8v-858.9H-59.7Z"/></clipPath><clipPath id="aQ"><path d="M-59.7 700.5h603.8v-858.9H-59.7Z"/></clipPath><clipPath id="aR"><path d="M-59.7 700.5h603.8v-858.9H-59.7Z"/></clipPath><clipPath id="aS"><path d="M-59.7 700.5h603.8v-858.9H-59.7Z"/></clipPath><clipPath id="aT"><path d="M-59.7 700.5h603.8v-858.9H-59.7Z"/></clipPath><path id="b" d="M.4.6v.2h.1zV.3L.5.2h.1l.1.1L.6.1h.1L.9 0H.3v.3-.2H0l.2.2L.1.2l.2.1H.2zM.5 0l.2.2H.4z"/><path id="c" d="m0 0 .3.2v.3L.2.7H0V.4v.1h.3V.2L.2.1h.2V0z"/><path id="d" d="M0 .3h.6z"/><path id="e" d="M.1.6h.2V0H.2h.1v.5"/><path id="f" d="M.4.7 1 .4H.5V.2h.1V0H.4v-.2.3H.3V0L.2.2h.1v.2l.2.1h.1-.4.1zH.2zM.1.5V.3M.3 0v.1z"/><path id="g" d="M.4.7h.3V.3H.5L.4.2V0H0q.5 0 .3.5h.1V.3v.2-.3zM.8.2v.2L1 0H.5v.2V0h.3"/><path id="h" d="M.6.5v.2h.1zV.3h.2V.1H.4L.2 0l.2.2H0h.2v.4h.2V.5m0-.2v.1M.8 0 .6.2h.2z"/><path id="i" d="m.3.3.2.5h.1V.5L.8.4H1Q1 .2.8.3H.6L.5.6V.2L.3 0q.2.2.1.3zV0H.1v.3H0V.1v.2l.1.2.1.1zm.3-.5v.5z"/><path id="j" d="M.5.6v.2h.1zL1 .4H.6V.2h.1-.1V0H1 .5v.1H.2h.1v.3q0 .1.1 0zM0 .3l.1.1.1.2.1.1V.5h.1-.1L.2.3h.1V0H.1v.2zm.6.1V.1h.1z"/><path id="k" d="M.3.5h.2l.2.2L.6.5h.2V0H.4h.2v.3H.4V0H.2v.3H.1q0 .3.2.3zm0-.3h.1v.2H.3zm.4 0L.4.4h.2"/><path id="l" d="M.1.5h.1l.1.2h.1L.3.5v.1h.1V.4H.2m.3 0v.3h.1V.6h.1zV.3zM.2.1v.3h.2V0zh.1v.2zm.3 0v.2h.2zh.2v.2L.9 0H.5z"/><path id="aU" d="M.6.8V.5h.2-.2V.3H1V.2H.1h.2v.3H.2h.1v.3h.1V.5h.2zM.4.3h.2v.2H.4zm0-.1V0L0-.1zm.2 0L1 0H.5"/><path id="aV" d="M.6.8Q.8.5 1 .5L.9.4zL.4.3.3.4zM.2.8h.1V0H.2v.4H0zM.7.4v-.5zM.5.4V0L.4-.1H.3l.1.2z"/><path id="aW" d="M.2.8V.5h.1-.1.1V0L.2-.1v.3H0v.1h.1v.5m.6 0V.6h.1V.5H1V.4H.7V.2h.1V0H.7h.1-.6v.3L.5 0v.6h.1V0h.1-.3v.2h.1v.3h.1zM.8.5"/><path id="aX" d="M.6.8V.5l.2.1H.7V.5H1 .5zM.2.8h.1V.6H.1h.2v.1L.5.5H0v.1zM.6.4V.1l.2.1L.6 0h.3v-.2H.6v.4M.4.4H.2zm0 0H.2V0h.2zm0 .2V0H.2h.1H0v.4h.3"/><path id="aY" d="M.3.7 0 0z"/><path id="aZ" d="M.7.8.5.3Q.5.1.7 0 .5 0 .5.3t.2.5"/><path id="ba" d="M.2.7V.2l.2.2H.2h.2-.1V.3L.4 0h.2-.2.1L.2.2V0H0h.1v.6"/><path id="bb" d="M.2.6h.2V.2L.2 0H0h.1v.6"/><path id="bc" d="M.5.3v.1z"/><path id="bd" d="M.2.5h.5V0h.1-.2v.4H.5V0H.3zH.1V0H0h.1v.4"/><path id="be" d="M0 .2v.1l.2.2h.1L.4.4V0H0zm0 0V.1L.4 0v.4H.2L.1.1"/><path id="bf" d="M.2.7V0H0h.1v.7"/><path id="bg" d="m.3-.1.2.4Q.5.6.3.8.6.6.5.3T.3 0"/><path id="bh" d="M.6.7V.5zH.2V.1L.3 0h.3-.5v.2L0 .3v.2l.1.1h.3"/><path id="bi" d="M0 .4h1z"/><path id="bj" d="M.2.3h.4v.3H.4h.2V0v.3zV0h.1-.2v.6h.2z"/><path id="bk" d="M0 .1v.1l.3.5V.2h.2-.1V0H.3zm0 .1h.3v.4z"/><path id="bl" d="M.2.3h.1v.2H0h.3V0H0h.2z"/><path id="bm" d="M0 .6h.6L.3.7H.2V.3h.1v.1h.1V.3v.1H.1V0h.1H0z"/><path id="bn" d="M.2.7h.2V.6zV.5h.1L.4.2V0H0h.2v.4H0z"/><path id="bo" d="M.5.7.1.4V.3h.2V0H0v.5l.2.1zM.4 0v.3H.1V0"/><path id="bp" d="M.1.7h.4L.3 0H.2l.2.6H0"/><path id="bq" d="M0 .6h.5a.1.1 0 0 0 0-.2V0H0zm.3 0V.3h.2v.3M.2.3V0h.3v.3H.1"/><path id="br" d="M.2.5V.3zh.2V.3zH.1V0H0h.1v.4"/><path id="bs" d="M.3.3H0v.3h.3V0H.1h.1zM.1.6V.3h.2v.3z"/><path id="bt" d="M.1 0v.6h.2V0z"/><path id="bu" d="M0 .2h.6zm0 .2h.6z"/><path id="bv" d="M.2.7.6 0v.5h.1V0H.5zV0H.1v.6"/><path id="bw" d="M.8.4H.2zm0-.2H.2zm0 .1H.2z"/><path id="bx" d="M.2.3H0v.2h.3zL.4.2V0H0v.2zm0 0V0h.1v.3m0 0v.3H.2z"/><path id="by" d="M0 .3v.1l.2.2h.4V0H.2zm0 0L.3 0h.2v.6H.2V.3"/></defs><g clip-path="url(#a)"><use xlink:href="#b" fill="#2c292a" data-text="表" transform="matrix(12 0 0 -12 161.807 12.654)"/><use xlink:href="#c" fill="#2c292a" data-text="2" transform="matrix(12 0 0 -12 176.807 12.654)"/><use xlink:href="#d" fill="#2c292a" data-text="-" transform="matrix(12 0 0 -12 182.807 12.654)"/><use xlink:href="#e" fill="#2c292a" data-text="1" transform="matrix(12 0 0 -12 191.267 12.654)"/><use xlink:href="#d" fill="#2c292a" data-text="-" transform="matrix(12 0 0 -12 197.267 12.654)"/><use xlink:href="#c" fill="#2c292a" data-text="2" transform="matrix(12 0 0 -12 205.727 12.654)"/><use xlink:href="#f" fill="#2c292a" data-text="常" transform="matrix(12 0 0 -12 223.727 12.654)"/><use xlink:href="#g" fill="#2c292a" data-text="见" transform="matrix(12 0 0 -12 235.727 12.654)"/><use xlink:href="#h" fill="#2c292a" data-text="共" transform="matrix(12 0 0 -12 247.727 12.654)"/><use xlink:href="#i" fill="#2c292a" data-text="价" transform="matrix(12 0 0 -12 259.727 12.654)"/><use xlink:href="#j" fill="#2c292a" data-text="键" transform="matrix(12 0 0 -12 271.727 12.654)"/><use xlink:href="#k" fill="#2c292a" data-text="的" transform="matrix(12 0 0 -12 283.727 12.654)"/><use xlink:href="#j" fill="#2c292a" data-text="键" transform="matrix(12 0 0 -12 295.727 12.654)"/><use xlink:href="#l" fill="#2c292a" data-text="能" transform="matrix(12 0 0 -12 307.727 12.654)"/><g clip-path="url(#n)"><path fill="none" stroke="#fff" stroke-miterlimit="10" stroke-width="0.8" d="M5.1 50.2V26.4"/></g><g clip-path="url(#o)"><path fill="none" stroke="#fff" stroke-miterlimit="10" stroke-width="0.8" d="M476.4 50.2V26.4"/></g><g clip-path="url(#p)"><path fill="none" stroke="#fff" stroke-miterlimit="10" stroke-width="0.8" d="M5.1 74.3V50.2"/></g><g clip-path="url(#q)"><path fill="none" stroke="#fff" stroke-miterlimit="10" stroke-width="0.8" d="M476.4 74.3V50.2"/></g><g clip-path="url(#r)"><path fill="none" stroke="#fff" stroke-miterlimit="10" stroke-width="0.8" d="M5.1 98.4V74.3"/></g><g clip-path="url(#s)"><path fill="none" stroke="#fff" stroke-miterlimit="10" stroke-width="0.8" d="M476.4 98.4V74.3"/></g><g clip-path="url(#t)"><path fill="none" stroke="#fff" stroke-miterlimit="10" stroke-width="0.8" d="M5.1 122.5v-24"/></g><g clip-path="url(#u)"><path fill="none" stroke="#fff" stroke-miterlimit="10" stroke-width="0.8" d="M476.4 122.5v-24"/></g><g clip-path="url(#v)"><path fill="none" stroke="#fff" stroke-miterlimit="10" stroke-width="0.8" d="M5.1 146.6v-24"/></g><g clip-path="url(#w)"><path fill="none" stroke="#fff" stroke-miterlimit="10" stroke-width="0.8" d="M476.4 146.6v-24"/></g><g clip-path="url(#x)"><path fill="none" stroke="#fff" stroke-miterlimit="10" stroke-width="0.8" d="M5.1 170.7v-24"/></g><g clip-path="url(#y)"><path fill="none" stroke="#fff" stroke-miterlimit="10" stroke-width="0.8" d="M476.4 170.7v-24"/></g><g clip-path="url(#z)"><path fill="none" stroke="#fff" stroke-miterlimit="10" stroke-width="0.8" d="M5.1 194.7v-24"/></g><g clip-path="url(#A)"><path fill="none" stroke="#fff" stroke-miterlimit="10" stroke-width="0.8" d="M476.4 194.8v-24"/></g><g clip-path="url(#B)"><path fill="none" stroke="#fff" stroke-miterlimit="10" stroke-width="0.8" d="M476.4 218.5v-23.7"/></g><g clip-path="url(#C)"><path fill="none" stroke="#2c292a" stroke-miterlimit="10" stroke-width="0.8" d="M4.8 26h117.8"/></g><g clip-path="url(#D)"><path fill="none" stroke="#2c292a" stroke-miterlimit="10" stroke-width="0.8" d="M122.6 26h117"/></g><g clip-path="url(#E)"><path fill="none" stroke="#2c292a" stroke-miterlimit="10" stroke-width="0.8" d="M243.4 26h117"/></g><g clip-path="url(#F)"><path fill="none" stroke="#2c292a" stroke-miterlimit="10" stroke-width="0.8" d="M360.5 26h116.3"/></g><g clip-path="url(#G)"><path fill="none" stroke="#2c292a" stroke-miterlimit="10" stroke-width="0.3" d="M122.6 49.8V26.4"/></g><g clip-path="url(#H)"><path fill="none" stroke="#2c292a" stroke-miterlimit="10" stroke-width="0.3" d="M360.5 49.8V26.4"/></g><g clip-path="url(#I)"><path fill="none" stroke="#2c292a" stroke-miterlimit="10" stroke-width="0.3" d="M122.6 74.1V50.5"/></g><g clip-path="url(#J)"><path fill="none" stroke="#2c292a" stroke-miterlimit="10" stroke-width="0.3" d="M360.5 74.1V50.5"/></g><g clip-path="url(#K)"><path fill="none" stroke="#2c292a" stroke-miterlimit="10" stroke-width="0.3" d="M122.6 98.3v-24"/></g><g clip-path="url(#L)"><path fill="none" stroke="#2c292a" stroke-miterlimit="10" stroke-width="0.3" d="M360.5 98.3v-24"/></g><g clip-path="url(#M)"><path fill="none" stroke="#2c292a" stroke-miterlimit="10" stroke-width="0.3" d="M122.6 122.4V98.6"/></g><g clip-path="url(#N)"><path fill="none" stroke="#2c292a" stroke-miterlimit="10" stroke-width="0.3" d="M360.5 122.4V98.6"/></g><g clip-path="url(#O)"><path fill="none" stroke="#2c292a" stroke-miterlimit="10" stroke-width="0.3" d="M122.6 146.5v-23.9"/></g><g clip-path="url(#P)"><path fill="none" stroke="#2c292a" stroke-miterlimit="10" stroke-width="0.3" d="M360.5 146.5v-23.9"/></g><g clip-path="url(#Q)"><path fill="none" stroke="#2c292a" stroke-miterlimit="10" stroke-width="0.3" d="M122.6 170.6v-23.9"/></g><g clip-path="url(#R)"><path fill="none" stroke="#2c292a" stroke-miterlimit="10" stroke-width="0.3" d="M360.5 170.6v-23.9"/></g><g clip-path="url(#S)"><path fill="none" stroke="#2c292a" stroke-miterlimit="10" stroke-width="0.3" d="M122.6 194.7v-23.9"/></g><g clip-path="url(#T)"><path fill="none" stroke="#2c292a" stroke-miterlimit="10" stroke-width="0.3" d="M360.5 194.7v-23.9"/></g><g clip-path="url(#U)"><path fill="none" stroke="#2c292a" stroke-miterlimit="10" stroke-width="0.3" d="M122.6 218.5V195"/></g><g clip-path="url(#V)"><path fill="none" stroke="#2c292a" stroke-miterlimit="10" stroke-width="0.3" d="M360.5 218.5V195"/></g><g clip-path="url(#W)"><path fill="none" stroke="#2c292a" stroke-miterlimit="10" stroke-width="0.3" d="M5.5 74.3h117"/></g><g clip-path="url(#X)"><path fill="none" stroke="#2c292a" stroke-miterlimit="10" stroke-width="0.3" d="M122.6 74.3h117"/></g><g clip-path="url(#Y)"><path fill="none" stroke="#2c292a" stroke-miterlimit="10" stroke-width="0.3" d="M243.4 74.3h117"/></g><g clip-path="url(#Z)"><path fill="none" stroke="#2c292a" stroke-miterlimit="10" stroke-width="0.3" d="M360.5 74.3H476"/></g><g clip-path="url(#aa)"><path fill="none" stroke="#2c292a" stroke-miterlimit="10" stroke-width="0.3" d="M5.5 98.4h117"/></g><g clip-path="url(#ab)"><path fill="none" stroke="#2c292a" stroke-miterlimit="10" stroke-width="0.3" d="M122.6 98.4h117"/></g><g clip-path="url(#ac)"><path fill="none" stroke="#2c292a" stroke-miterlimit="10" stroke-width="0.3" d="M243.4 98.4h117"/></g><g clip-path="url(#ad)"><path fill="none" stroke="#2c292a" stroke-miterlimit="10" stroke-width="0.3" d="M360.5 98.4H476"/></g><g clip-path="url(#ae)"><path fill="none" stroke="#2c292a" stroke-miterlimit="10" stroke-width="0.3" d="M5.5 122.5h117"/></g><g clip-path="url(#af)"><path fill="none" stroke="#2c292a" stroke-miterlimit="10" stroke-width="0.3" d="M122.6 122.5h117"/></g><g clip-path="url(#ag)"><path fill="none" stroke="#2c292a" stroke-miterlimit="10" stroke-width="0.3" d="M243.4 122.5h117"/></g><g clip-path="url(#ah)"><path fill="none" stroke="#2c292a" stroke-miterlimit="10" stroke-width="0.3" d="M360.5 122.5H476"/></g><g clip-path="url(#ai)"><path fill="none" stroke="#2c292a" stroke-miterlimit="10" stroke-width="0.3" d="M5.5 146.6h117"/></g><g clip-path="url(#aj)"><path fill="none" stroke="#2c292a" stroke-miterlimit="10" stroke-width="0.3" d="M122.6 146.6h117"/></g><g clip-path="url(#ak)"><path fill="none" stroke="#2c292a" stroke-miterlimit="10" stroke-width="0.3" d="M243.4 146.6h117"/></g><g clip-path="url(#al)"><path fill="none" stroke="#2c292a" stroke-miterlimit="10" stroke-width="0.3" d="M360.5 146.6H476"/></g><g clip-path="url(#am)"><path fill="none" stroke="#2c292a" stroke-miterlimit="10" stroke-width="0.3" d="M5.5 170.7h117"/></g><g clip-path="url(#an)"><path fill="none" stroke="#2c292a" stroke-miterlimit="10" stroke-width="0.3" d="M122.6 170.7h117"/></g><g clip-path="url(#ao)"><path fill="none" stroke="#2c292a" stroke-miterlimit="10" stroke-width="0.3" d="M243.4 170.7h117"/></g><g clip-path="url(#ap)"><path fill="none" stroke="#2c292a" stroke-miterlimit="10" stroke-width="0.3" d="M360.5 170.7H476"/></g><g clip-path="url(#aq)"><path fill="none" stroke="#2c292a" stroke-miterlimit="10" stroke-width="0.3" d="M243.4 194.8h117"/></g><g clip-path="url(#ar)"><path fill="none" stroke="#2c292a" stroke-miterlimit="10" stroke-width="0.3" d="M360.5 194.8H476"/></g><g clip-path="url(#as)"><path fill="none" stroke="#2c292a" stroke-miterlimit="10" stroke-width="0.3" d="M4.8 194.8h117.8"/></g><g clip-path="url(#at)"><path fill="none" stroke="#2c292a" stroke-miterlimit="10" stroke-width="0.3" d="M122.6 194.8h117"/></g><g clip-path="url(#au)"><path fill="none" stroke="#2c292a" stroke-miterlimit="10" stroke-width="0.8" d="M5.1 218.9h117.5"/></g><g clip-path="url(#av)"><path fill="none" stroke="#2c292a" stroke-miterlimit="10" stroke-width="0.8" d="M122.6 218.9h117"/></g><g clip-path="url(#aw)"><path fill="none" stroke="#2c292a" stroke-miterlimit="10" stroke-width="0.8" d="M243.4 218.9h117"/></g><g clip-path="url(#ax)"><path fill="none" stroke="#2c292a" stroke-miterlimit="10" stroke-width="0.8" d="M360.5 218.9h116.3"/></g><g clip-path="url(#ay)"><path fill="none" stroke="#2c292a" stroke-miterlimit="10" stroke-width="0.8" d="M5.5 50.2h117"/></g><g clip-path="url(#az)"><path fill="none" stroke="#2c292a" stroke-miterlimit="10" stroke-width="0.8" d="M122.6 50.2h117"/></g><g clip-path="url(#aA)"><path fill="none" stroke="#2c292a" stroke-miterlimit="10" stroke-width="0.8" d="M243.4 50.2h117"/></g><g clip-path="url(#aB)"><path fill="none" stroke="#2c292a" stroke-miterlimit="10" stroke-width="0.8" d="M360.5 50.2H476"/></g><g clip-path="url(#aC)"><path fill="none" stroke="#2c292a" stroke-miterlimit="10" stroke-width="0.7" d="M239.7 26h3.7"/></g><g clip-path="url(#aD)"><path fill="none" stroke="#2c292a" stroke-miterlimit="10" stroke-width="0.7" d="M240 50.2V26.4"/></g><g clip-path="url(#aE)"><path fill="none" stroke="#2c292a" stroke-miterlimit="10" stroke-width="0.7" d="M243 50.2V26.4"/></g><g clip-path="url(#aF)"><path fill="none" stroke="#2c292a" stroke-miterlimit="10" stroke-width="0.7" d="M240 74.3V50.2"/></g><g clip-path="url(#aG)"><path fill="none" stroke="#2c292a" stroke-miterlimit="10" stroke-width="0.7" d="M243 74.3V50.2"/></g><g clip-path="url(#aH)"><path fill="none" stroke="#2c292a" stroke-miterlimit="10" stroke-width="0.7" d="M240 98.4V74.3"/></g><g clip-path="url(#aI)"><path fill="none" stroke="#2c292a" stroke-miterlimit="10" stroke-width="0.7" d="M243 98.4V74.3"/></g><g clip-path="url(#aJ)"><path fill="none" stroke="#2c292a" stroke-miterlimit="10" stroke-width="0.7" d="M240 122.5v-24"/></g><g clip-path="url(#aK)"><path fill="none" stroke="#2c292a" stroke-miterlimit="10" stroke-width="0.7" d="M243 122.5v-24"/></g><g clip-path="url(#aL)"><path fill="none" stroke="#2c292a" stroke-miterlimit="10" stroke-width="0.7" d="M240 146.6v-24"/></g><g clip-path="url(#aM)"><path fill="none" stroke="#2c292a" stroke-miterlimit="10" stroke-width="0.7" d="M243 146.6v-24"/></g><g clip-path="url(#aN)"><path fill="none" stroke="#2c292a" stroke-miterlimit="10" stroke-width="0.7" d="M240 170.7v-24"/></g><g clip-path="url(#aO)"><path fill="none" stroke="#2c292a" stroke-miterlimit="10" stroke-width="0.7" d="M243 170.7v-24"/></g><g clip-path="url(#aP)"><path fill="none" stroke="#2c292a" stroke-miterlimit="10" stroke-width="0.7" d="M240 194.8v-24"/></g><g clip-path="url(#aQ)"><path fill="none" stroke="#2c292a" stroke-miterlimit="10" stroke-width="0.7" d="M243 194.8v-24"/></g><g clip-path="url(#aR)"><path fill="none" stroke="#2c292a" stroke-miterlimit="10" stroke-width="0.7" d="M240 218.5v-23.7"/></g><g clip-path="url(#aS)"><path fill="none" stroke="#2c292a" stroke-miterlimit="10" stroke-width="0.7" d="M243 218.5v-23.7"/></g><g clip-path="url(#aT)"><path fill="none" stroke="#2c292a" stroke-miterlimit="10" stroke-width="0.7" d="M239.7 218.9h3.7"/></g><use xlink:href="#aU" fill="#2c292a" data-text="共" transform="matrix(10.5 0 0 -10.5 48.1 41.882)"/><use xlink:href="#aV" fill="#2c292a" data-text="价" transform="matrix(10.5 0 0 -10.5 58.6 41.882)"/><use xlink:href="#aW" fill="#2c292a" data-text="键" transform="matrix(10.5 0 0 -10.5 69.1 41.882)"/><use xlink:href="#aW" fill="#2c292a" data-text="键" transform="matrix(10.5 0 0 -10.5 134.547 41.882)"/><use xlink:href="#aX" fill="#2c292a" data-text="能" transform="matrix(10.5 0 0 -10.5 145.047 41.882)"/><use xlink:href="#aY" fill="#2c292a" data-text="/" transform="matrix(10.5 0 0 -10.5 158.172 41.882)"/><use xlink:href="#aZ" fill="#2c292a" data-text="（" transform="matrix(10.5 0 0 -10.5 161.08 41.882)"/><use xlink:href="#ba" fill="#2c292a" data-text="k" transform="matrix(10.5 0 0 -10.5 171.58 41.882)"/><use xlink:href="#bb" fill="#2c292a" data-text="J" transform="matrix(10.5 0 0 -10.5 177.807 41.882)"/><use xlink:href="#bc" fill="#2c292a" data-text="·" transform="matrix(10.5 0 0 -10.5 182.448 41.882)"/><use xlink:href="#bd" fill="#2c292a" data-text="m" transform="matrix(10.5 0 0 -10.5 192.948 41.882)"/><use xlink:href="#be" fill="#2c292a" data-text="o" transform="matrix(10.5 0 0 -10.5 201.663 41.882)"/><use xlink:href="#bf" fill="#2c292a" data-text="l" transform="matrix(10.5 0 0 -10.5 207.102 41.882)"/><use xlink:href="#d" fill="#2c292a" data-text="-" transform="matrix(6.1215 0 0 -6.1215 210.178 36.812)"/><use xlink:href="#e" fill="#2c292a" data-text="1" transform="matrix(6.1215 0 0 -6.1215 214.494 36.812)"/><use xlink:href="#bg" fill="#2c292a" data-text="）" transform="matrix(10.5 0 0 -10.5 217.555 41.882)"/><use xlink:href="#aU" fill="#2c292a" data-text="共" transform="matrix(10.5 0 0 -10.5 286.005 41.882)"/><use xlink:href="#aV" fill="#2c292a" data-text="价" transform="matrix(10.5 0 0 -10.5 296.505 41.882)"/><use xlink:href="#aW" fill="#2c292a" data-text="键" transform="matrix(10.5 0 0 -10.5 307.005 41.882)"/><use xlink:href="#aW" fill="#2c292a" data-text="键" transform="matrix(10.5 0 0 -10.5 371.695 41.882)"/><use xlink:href="#aX" fill="#2c292a" data-text="能" transform="matrix(10.5 0 0 -10.5 382.195 41.882)"/><use xlink:href="#aY" fill="#2c292a" data-text="/" transform="matrix(10.5 0 0 -10.5 395.32 41.882)"/><use xlink:href="#aZ" fill="#2c292a" data-text="（" transform="matrix(10.5 0 0 -10.5 398.229 41.882)"/><use xlink:href="#ba" fill="#2c292a" data-text="k" transform="matrix(10.5 0 0 -10.5 408.729 41.882)"/><use xlink:href="#bb" fill="#2c292a" data-text="J" transform="matrix(10.5 0 0 -10.5 414.955 41.882)"/><use xlink:href="#bc" fill="#2c292a" data-text="·" transform="matrix(10.5 0 0 -10.5 419.596 41.882)"/><use xlink:href="#bd" fill="#2c292a" data-text="m" transform="matrix(10.5 0 0 -10.5 430.096 41.882)"/><use xlink:href="#be" fill="#2c292a" data-text="o" transform="matrix(10.5 0 0 -10.5 438.811 41.882)"/><use xlink:href="#bf" fill="#2c292a" data-text="l" transform="matrix(10.5 0 0 -10.5 444.25 41.882)"/><use xlink:href="#d" fill="#2c292a" data-text="-" transform="matrix(6.1215 0 0 -6.1215 447.329 36.812)"/><use xlink:href="#e" fill="#2c292a" data-text="1" transform="matrix(6.1215 0 0 -6.1215 451.645 36.812)"/><use xlink:href="#bg" fill="#2c292a" data-text="）" transform="matrix(10.5 0 0 -10.5 454.706 41.882)"/><use xlink:href="#bh" fill="#2c292a" data-text="C" transform="matrix(11 0 0 -11 49.244 66.156)"/><use xlink:href="#bi" fill="#2c292a" data-text="—" transform="matrix(11 0 0 -11 57.89 66.156)"/><use xlink:href="#bj" fill="#2c292a" data-text="H" transform="matrix(11 0 0 -11 69.33 66.156)"/><use xlink:href="#bk" fill="#2c292a" data-text="4" transform="matrix(11 0 0 -11 173.06 66.156)"/><use xlink:href="#e" fill="#2c292a" data-text="1" transform="matrix(11 0 0 -11 178.56 66.156)"/><use xlink:href="#bl" fill="#2c292a" data-text="3" transform="matrix(11 0 0 -11 184.06 66.156)"/><use xlink:href="#bj" fill="#2c292a" data-text="H" transform="matrix(11 0 0 -11 288.197 66.156)"/><use xlink:href="#bi" fill="#2c292a" data-text="—" transform="matrix(11 0 0 -11 297.327 66.156)"/><use xlink:href="#bm" fill="#2c292a" data-text="F" transform="matrix(11 0 0 -11 308.327 66.156)"/><use xlink:href="#bn" fill="#2c292a" data-text="5" transform="matrix(11 0 0 -11 410.209 66.156)"/><use xlink:href="#bo" fill="#2c292a" data-text="6" transform="matrix(11 0 0 -11 415.709 66.156)"/><use xlink:href="#bn" fill="#2c292a" data-text="5" transform="matrix(11 0 0 -11 421.209 66.156)"/><use xlink:href="#bh" fill="#2c292a" data-text="C" transform="matrix(11 0 0 -11 50.377 90.29)"/><use xlink:href="#bi" fill="#2c292a" data-text="—" transform="matrix(11 0 0 -11 58.363 90.29)"/><use xlink:href="#bh" fill="#2c292a" data-text="C" transform="matrix(11 0 0 -11 69.363 90.29)"/><use xlink:href="#bl" fill="#2c292a" data-text="3" transform="matrix(11 0 0 -11 173.06 90.29)"/><use xlink:href="#bk" fill="#2c292a" data-text="4" transform="matrix(11 0 0 -11 178.56 90.29)"/><use xlink:href="#bp" fill="#2c292a" data-text="7" transform="matrix(11 0 0 -11 184.06 90.29)"/><use xlink:href="#bj" fill="#2c292a" data-text="H" transform="matrix(11 0 0 -11 286.096 90.29)"/><use xlink:href="#bi" fill="#2c292a" data-text="—" transform="matrix(11 0 0 -11 295.226 90.29)"/><use xlink:href="#bh" fill="#2c292a" data-text="C" transform="matrix(11 0 0 -11 306.226 90.29)"/><use xlink:href="#bf" fill="#2c292a" data-text="l" transform="matrix(11 0 0 -11 314.212 90.29)"/><use xlink:href="#bk" fill="#2c292a" data-text="4" transform="matrix(11 0 0 -11 410.209 90.29)"/><use xlink:href="#bl" fill="#2c292a" data-text="3" transform="matrix(11 0 0 -11 415.709 90.29)"/><use xlink:href="#e" fill="#2c292a" data-text="1" transform="matrix(11 0 0 -11 421.209 90.29)"/><use xlink:href="#bh" fill="#2c292a" data-text="C" transform="matrix(11 0 0 -11 47.154 114.424)"/><use xlink:href="#bf" fill="#2c292a" data-text="l" transform="matrix(11 0 0 -11 55.14 114.424)"/><use xlink:href="#bi" fill="#2c292a" data-text="—" transform="matrix(11 0 0 -11 58.363 114.424)"/><use xlink:href="#bh" fill="#2c292a" data-text="C" transform="matrix(11 0 0 -11 69.363 114.424)"/><use xlink:href="#bf" fill="#2c292a" data-text="l" transform="matrix(11 0 0 -11 77.349 114.424)"/><use xlink:href="#c" fill="#2c292a" data-text="2" transform="matrix(11 0 0 -11 173.06 114.424)"/><use xlink:href="#bk" fill="#2c292a" data-text="4" transform="matrix(11 0 0 -11 178.56 114.424)"/><use xlink:href="#bl" fill="#2c292a" data-text="3" transform="matrix(11 0 0 -11 184.06 114.424)"/><use xlink:href="#bj" fill="#2c292a" data-text="H" transform="matrix(11 0 0 -11 285.656 114.424)"/><use xlink:href="#bi" fill="#2c292a" data-text="—" transform="matrix(11 0 0 -11 294.786 114.424)"/><use xlink:href="#bq" fill="#2c292a" data-text="B" transform="matrix(11 0 0 -11 305.786 114.424)"/><use xlink:href="#br" fill="#2c292a" data-text="r" transform="matrix(11 0 0 -11 313.189 114.424)"/><use xlink:href="#bl" fill="#2c292a" data-text="3" transform="matrix(11 0 0 -11 410.209 114.424)"/><use xlink:href="#bo" fill="#2c292a" data-text="6" transform="matrix(11 0 0 -11 415.709 114.424)"/><use xlink:href="#bl" fill="#2c292a" data-text="3" transform="matrix(11 0 0 -11 421.209 114.424)"/><use xlink:href="#bq" fill="#2c292a" data-text="B" transform="matrix(11 0 0 -11 45.614 138.514)"/><use xlink:href="#br" fill="#2c292a" data-text="r" transform="matrix(11 0 0 -11 53.017 138.514)"/><use xlink:href="#bi" fill="#2c292a" data-text="—" transform="matrix(11 0 0 -11 58.363 138.514)"/><use xlink:href="#bq" fill="#2c292a" data-text="B" transform="matrix(11 0 0 -11 70.023 138.514)"/><use xlink:href="#br" fill="#2c292a" data-text="r" transform="matrix(11 0 0 -11 77.426 138.514)"/><use xlink:href="#e" fill="#2c292a" data-text="1" transform="matrix(11 0 0 -11 173.06 138.514)"/><use xlink:href="#bs" fill="#2c292a" data-text="9" transform="matrix(11 0 0 -11 178.56 138.514)"/><use xlink:href="#bl" fill="#2c292a" data-text="3" transform="matrix(11 0 0 -11 184.06 138.514)"/><use xlink:href="#bj" fill="#2c292a" data-text="H" transform="matrix(11 0 0 -11 289.803 138.514)"/><use xlink:href="#bi" fill="#2c292a" data-text="—" transform="matrix(11 0 0 -11 298.933 138.514)"/><use xlink:href="#bt" fill="#2c292a" data-text="I" transform="matrix(11 0 0 -11 309.933 138.514)"/><use xlink:href="#c" fill="#2c292a" data-text="2" transform="matrix(11 0 0 -11 410.22 138.514)"/><use xlink:href="#bs" fill="#2c292a" data-text="9" transform="matrix(11 0 0 -11 415.72 138.514)"/><use xlink:href="#bp" fill="#2c292a" data-text="7" transform="matrix(11 0 0 -11 421.22 138.514)"/><use xlink:href="#bt" fill="#2c292a" data-text="I" transform="matrix(11 0 0 -11 53.919 162.604)"/><use xlink:href="#bi" fill="#2c292a" data-text="—" transform="matrix(11 0 0 -11 58.374 162.604)"/><use xlink:href="#bt" fill="#2c292a" data-text="I" transform="matrix(11 0 0 -11 70.034 162.604)"/><use xlink:href="#e" fill="#2c292a" data-text="1" transform="matrix(11 0 0 -11 173.07 162.604)"/><use xlink:href="#bn" fill="#2c292a" data-text="5" transform="matrix(11 0 0 -11 178.57 162.604)"/><use xlink:href="#e" fill="#2c292a" data-text="1" transform="matrix(11 0 0 -11 184.07 162.604)"/><use xlink:href="#bh" fill="#2c292a" data-text="C" transform="matrix(11 0 0 -11 287.658 162.604)"/><use xlink:href="#bu" fill="#2c292a" data-text="=" transform="matrix(11 0 0 -11 295.64 162.604)"/><use xlink:href="#bu" fill="#2c292a" data-text="=" transform="matrix(11 0 0 -11 300.557 162.604)"/><use xlink:href="#bh" fill="#2c292a" data-text="C" transform="matrix(11 0 0 -11 307.894 162.604)"/><use xlink:href="#bo" fill="#2c292a" data-text="6" transform="matrix(11 0 0 -11 410.22 162.604)"/><use xlink:href="#e" fill="#2c292a" data-text="1" transform="matrix(11 0 0 -11 415.72 162.604)"/><use xlink:href="#bk" fill="#2c292a" data-text="4" transform="matrix(11 0 0 -11 421.22 162.604)"/><use xlink:href="#bv" fill="#2c292a" data-text="N" transform="matrix(11 0 0 -11 48.859 186.694)"/><use xlink:href="#bi" fill="#2c292a" data-text="—" transform="matrix(11 0 0 -11 58.088 186.694)"/><use xlink:href="#bj" fill="#2c292a" data-text="H" transform="matrix(11 0 0 -11 69.748 186.694)"/><use xlink:href="#bl" fill="#2c292a" data-text="3" transform="matrix(11 0 0 -11 173.07 186.694)"/><use xlink:href="#bs" fill="#2c292a" data-text="9" transform="matrix(11 0 0 -11 178.57 186.694)"/><use xlink:href="#e" fill="#2c292a" data-text="1" transform="matrix(11 0 0 -11 184.07 186.694)"/><use xlink:href="#bh" fill="#2c292a" data-text="C" transform="matrix(11 0 0 -11 287.91 186.694)"/><use xlink:href="#bw" fill="#2c292a" data-text="≡" transform="matrix(14.3 0 0 -11 294.612 186.713)"/><use xlink:href="#bh" fill="#2c292a" data-text="C" transform="matrix(11 0 0 -11 307.625 186.713)"/><use xlink:href="#bx" fill="#2c292a" data-text="8" transform="matrix(11 0 0 -11 410.2 186.713)"/><use xlink:href="#bl" fill="#2c292a" data-text="3" transform="matrix(11 0 0 -11 415.7 186.713)"/><use xlink:href="#bs" fill="#2c292a" data-text="9" transform="matrix(11 0 0 -11 421.2 186.713)"/><use xlink:href="#by" fill="#2c292a" data-text="O" transform="matrix(11 0 0 -11 49.037 210.803)"/><use xlink:href="#bi" fill="#2c292a" data-text="—" transform="matrix(11 0 0 -11 57.87 210.803)"/><use xlink:href="#bj" fill="#2c292a" data-text="H" transform="matrix(11 0 0 -11 69.53 210.803)"/><use xlink:href="#bk" fill="#2c292a" data-text="4" transform="matrix(11 0 0 -11 173.05 210.803)"/><use xlink:href="#bo" fill="#2c292a" data-text="6" transform="matrix(11 0 0 -11 178.55 210.803)"/><use xlink:href="#bp" fill="#2c292a" data-text="7" transform="matrix(11 0 0 -11 184.05 210.803)"/><use xlink:href="#bv" fill="#2c292a" data-text="N" transform="matrix(11 0 0 -11 287.275 210.803)"/><use xlink:href="#bw" fill="#2c292a" data-text="≡" transform="matrix(14.3 0 0 -11 294.359 210.808)"/><use xlink:href="#bv" fill="#2c292a" data-text="N" transform="matrix(11 0 0 -11 307.658 210.808)"/><use xlink:href="#bs" fill="#2c292a" data-text="9" transform="matrix(11 0 0 -11 410.2 210.808)"/><use xlink:href="#bk" fill="#2c292a" data-text="4" transform="matrix(11 0 0 -11 415.7 210.808)"/><use xlink:href="#bn" fill="#2c292a" data-text="5" transform="matrix(11 0 0 -11 421.2 210.808)"/></g></svg>