<svg xmlns="http://www.w3.org/2000/svg" viewBox="0 0 481.55 223.65" xmlns:xlink="http://www.w3.org/1999/xlink"><defs><clipPath id="b"><path d="M0 223.652h481.551V0H0Z" clip-rule="evenodd"/></clipPath><path id="c" d="M.395.605q.015 0 .011.028l.008.14v.004Q.41.79.414.793A.2.2 0 0 0 .488.781h.004Q.516.773.512.766A.5.5 0 0 1 .488.64q0-.012.008-.008L.527.64a.2.2 0 0 1 .09.03Q.63.673.633.638A.03.03 0 0 0 .62.613L.492.563Q.476.543.488.523l.086.02.043.008Q.633.527.61.496.606.488.582.488.578.488.566.48L.546.47.517.457Q.48.446.48.437.473.419.484.415A2 2 0 0 1 .63.45.1.1 0 0 0 .664.395Q.66.38.637.379A.1.1 0 0 0 .609.375L.582.371.562.367A1 1 0 0 1 .45.328Q.454.298.5.281q.063.02.145.067a.3.3 0 0 1 .085.07q.048.007.063-.05Q.789.362.781.362q-.02 0-.043-.02a1 1 0 0 0-.18-.097 1 1 0 0 1 .145-.09A1 1 0 0 1 .855.102l.06-.016.007-.004Q.968.067.96.051.942.027.848.023A.4.4 0 0 0 .703.04L.7.047a.13.13 0 0 1-.023.058L.672.11Q.645.14.625.145a.48.48 0 0 0-.246-.223.24.24 0 0 0-.035.09L.348.09q.011.125.007.125Q.328.203.262.098q0-.02-.012-.024Q.067.008.078.047a.6.6 0 0 1 .262.23L.344.29Q.34.297.332.293L.258.277A.3.3 0 0 1 .16.25L.148.242Q.133.222.125.23.095.281.109.3l.145.044Q.3.356.344.379q.023.004.043.02Q.399.41.383.417L.352.414.328.41.305.398Q.3.39.293.395a.08.08 0 0 0-.031.058q.004.008.07.024l.055.015Q.41.5.398.527q0 .004-.015.004A.14.14 0 0 1 .3.508L.297.504Q.297.5.285.5.27.496.25.574l.04.008Q.331.59.394.605M.418.023q.105.012.187.13 0 .007-.023.011L.57.168q-.003 0-.02.016L.517.207.484.215A.4.4 0 0 0 .426.23Q.418.235.406.21A1 1 0 0 1 .391.07q0-.046.027-.047"/><path id="d" d="M.033-.037v.022q.064.056.095.087A2 2 0 0 1 .31.29a.3.3 0 0 1 .036.095l.004.05a.3.3 0 0 1-.008.059.1.1 0 0 1-.023.05.2.2 0 0 1-.05.038A.14.14 0 0 1 .203.6a.13.13 0 0 1-.08-.032.1.1 0 0 1-.028-.03L.068.49H.053l.012.055q.006.02.019.043T.12.629a.17.17 0 0 0 .11.042.3.3 0 0 0 .104-.023.1.1 0 0 0 .042-.03.2.2 0 0 0 .05-.095.3.3 0 0 0-.004-.108L.408.376.365.298a1.4 1.4 0 0 0-.148-.17L.12.035h.22l.033.003a.2.2 0 0 1 .04.011q.019.008.024.015l.018.029h.018L.457.059.44.009.425-.037z"/><path id="e" d="M.048.318h.6V.276h-.6z"/><path id="f" d="m.12.571-.003.02.177.08v-.6Q.294.03.297.02A.03.03 0 0 1 .31 0l.026-.007.042-.002v-.028H.125v.028a.2.2 0 0 1 .047.007l.02.009Q.2.013.205.024A.1.1 0 0 1 .21.068v.45q0 .021-.002.036Q.205.57.2.575T.179.582L.15.579z"/><path id="g" d="M.438.691v.086q0 .055.019.067.015.012.074-.012.024-.02.016-.027Q.515.793.512.707V.676A.3.3 0 0 1 .594.73l.015.016q.028.024.032.02Q.67.715.668.703A.14.14 0 0 0 .613.68L.586.668.512.641Q.507.609.512.609.519.606.68.61h.007Q.809.593.856.461q0-.008-.027-.008L.754.445.719.45a.1.1 0 0 1-.047.004.05.05 0 0 0-.027-.035.1.1 0 0 1-.036-.047A.05.05 0 0 0 .59.34.1.1 0 0 0 .548.32H.539Q.532.305.535.297.547.293.57.3l.028.004A1 1 0 0 0 .71.285Q.754.265.746.254A.3.3 0 0 0 .723.188a.6.6 0 0 1-.04-.122Q.665.005.634.008A.1.1 0 0 0 .59.039L.582.047a.3.3 0 0 1-.078.05.1.1 0 0 1 0-.034V.007a.5.5 0 0 1 .004-.11Q.51-.117.465-.117q-.02 0-.02.012l.004.007a.2.2 0 0 1 .008.055v.082q0 .06-.004.18Q.453.23.441.23.371.215.363.176L.36.129a.2.2 0 0 0-.004-.05Q.355.054.34.05.32.046.312.066.298.144.29.215q0 .023.02.035.003.004.02.004.007.004.015.004.012.004.035.004.044.003.062.02Q.465.3.437.315H.423q-.015 0-.02.008a.1.1 0 0 1-.02.02.15.15 0 0 0-.05.102q-.008.01.102.042a.6.6 0 0 0 .132.024q.031 0 .09-.043.075.004.086.043 0 .05-.086.058A.3.3 0 0 1 .531.54a.2.2 0 0 0-.086 0A.5.5 0 0 1 .301.503Q.289.508.289.524q.015.019.063.042L.398.59l.036.015a.2.2 0 0 1 0 .067L.394.637Q.342.582.32.586.277.594.277.664l.016.004q.07.004.145.023M.14.411q.039.085.097.1L.242.497l.004-.05A.2.2 0 0 0 .25.382Q.18.375.14.41m.282 0Q.425.38.457.375.503.379.52.41.53.446.516.46.488.47.457.45.422.43.422.41M.59.102Q.61.098.62.125a.2.2 0 0 1 .02.086Q.636.25.555.258q-.028 0-.04-.012a.1.1 0 0 1-.011-.05V.132A.4.4 0 0 1 .59.102"/><path id="h" d="M.352.668q.03.008.062.027.176.063.277.008Q.723.687.703.66A.2.2 0 0 1 .68.566 3 3 0 0 1 .668.277Q.656.203.5.34A.6.6 0 0 0 .383.172L.375.164Q.336.13.332.098.336.066.301.055.156.005.129.015.105.025.105.028q0 .008.02.02.36.16.324.535 0 .03.055.016Q.53.59.524.566A.1.1 0 0 1 .52.527L.516.484Q.516.4.504.355l.02-.003Q.582.343.582.375q.007.117 0 .266Q.574.7.508.67.383.646.383.52A1 1 0 0 1 .379.316Q.359.278.324.296A.75.75 0 0 0 .32.634q0 .027.032.035M.828.113a.6.6 0 0 1 .012.14q0 .025.008.024.008 0 .015-.023A.7.7 0 0 0 .906.02Q.918-.024.883-.023A1 1 0 0 0 .66-.035q-.167.007-.176.16v.023q.009.06.008.118 0 .015.051.004Q.57.266.555.238a.3.3 0 0 1-.02-.117Q.54.051.63.047.833.04.83.113"/><path id="i" d="M.574.512q.015 0 .02.02a3 3 0 0 1 .035.202q.004.04.031.04Q.742.75.738.713a.5.5 0 0 1-.05-.179l.046.009Q.762.539.79.449.793.434.79.426.782.418.762.422A.3.3 0 0 1 .668.43L.645.352Q.64.324.68.312.805.309.898.32.942.313.961.21.957.169.93.18a.68.68 0 0 1-.442.054.22.22 0 0 1-.09-.175Q.36-.016.218-.008q-.01 0-.011.004 0 .005.008.012A1 1 0 0 0 .293.07q.094.067.105.157L.316.207A.6.6 0 0 1 .13.152Q.106.15.082.222q.14.017.266.051.046.012.047.036 0 .075-.008.07Q.35.387.285.359.27.356.246.406.226.452.242.457q.066 0 .133.023 0 .012-.004.04a1 1 0 0 0-.004.128q.004.044.024.04.105-.012.097-.04Q.458.61.461.5.477.5.504.504zM.504.32q.055 0 .07.098 0 .004-.008.004Q.481.422.465.41.453.39.46.352.473.32.504.32M.75-.03.656.074Q.605.14.578.172.57.195.59.195.702.156.797.105.84.082.785-.027.77-.051.75-.031"/><path id="j" d="M.281.336A.95.95 0 0 1 .547.75q0 .031.066-.004Q.644.742.586.656.57.614.598.582A.8.8 0 0 1 .78.438Q.906.387.973.344q.01-.008.011-.02Q.981.312.964.31a.3.3 0 0 0-.12.004.4.4 0 0 1-.086.011Q.715.32.718.371a.1.1 0 0 1-.046.074L.637.473.578.516Q.531.547.5.512A.4.4 0 0 1 .422.379q.105-.02.086-.05Q.465.183.48.163.495.15.473.13.403.032.343.039.334.034.329.04.324.043.336.055.465.183.434.34.42.375.39.344.376.304.28.297A.4.4 0 0 1 .258.16Q.258.02.223 0 .199-.004.195.016L.2.152q0 .09.004.133.004.02-.004.02Q.196.309.18.297a1 1 0 0 1-.11-.09Q.055.192.047.199.04.207.047.227.07.277.14.383.168.422.23.55q.06.118.081.153Q.318.742.376.68.399.665.379.645.207.398.227.387q0-.028.03-.035Q.279.348.282.336m.348-.41Q.59-.078.59-.051a1 1 0 0 0-.007.153q0 .13.004.191a.3.3 0 0 1-.004.09v.012q-.011.03.07.007.031-.004.016-.05a2 2 0 0 1-.02-.399q.01-.03-.02-.027"/><path id="k" d="M.527.598.56.602q.045.004.058.007.008 0 .012.02v.016Q.64.75.637.75.63.774.703.75.723.746.711.71L.69.64Q.688.63.691.626q.005-.004.02 0 .074.02.129-.02Q.855.597.848.582L.832.547Q.824.53.848.53.899.547.902.496.91.465.875.473a.2.2 0 0 1-.05.004Q.803.477.8.453.793.391.773.391L.734.387A.1.1 0 0 1 .695.383Q.685.37.695.352l.016.003.05.008Q.786.363.79.332.785.302.762.305a.1.1 0 0 1-.059 0Q.68.285.695.277.743.286.79.29.817.293.832.25.84.235.832.23.828.222.809.227a.4.4 0 0 1-.11 0Q.676.223.68.203q0-.117.028-.105Q.93.028.957 0q.02-.011.016-.02 0-.008-.024-.011a.4.4 0 0 0-.172.015L.73-.012q-.015 0-.015.024Q.707.063.637.09a.6.6 0 0 0-.125.05Q.484.165.46.134A.2.2 0 0 0 .34.05Q.32.046.316.055q0 .012.016.023a.5.5 0 0 1 .09.082q.016.016-.02.027-.015.01-.02.033.006.05.033.038Q.43.243.454.23q.015.004.01.055Q.47.316.423.301.402.293.395.3.39.313.406.324q.047.024.07.102.004.02-.007.02Q.454.441.445.421.422.39.395.422.366.46.395.477.477.51.53.492a.3.3 0 0 1 .086.02Q.632.527.62.547A.1.1 0 0 1 .578.53Q.555.52.543.535.513.601.527.598M.04.348Q.05.36.08.383l.034.035q.063.055.121.16.044.07.09.133Q.344.738.38.68.4.656.38.648A.3.3 0 0 1 .336.605Q.328.598.328.59.332.586.344.586q.011 0 .039.004H.41Q.425.594.43.582A.03.03 0 0 0 .426.559Q.35.48.309.523.28.551.258.523A.5.5 0 0 1 .199.445Q.192.43.195.425q.005-.003.02 0 .054.017.11.044Q.36.48.362.453.371.414.34.398.265.368.285.336q.027.008.05.012.029.004.017-.04Q.347.274.305.259.262.254.25.164q0-.023.02-.023.058.01.082.086l.007.02q.005 0 .008-.02Q.374.152.293.067L.253.03Q.244.02.235.02.226.023.22.04.195.081.203.175.203.199.2.203L.18.191Q.15.171.138.203.097.281.133.277.226.29.207.336.177.32.168.367A.6.6 0 0 0 .047.324Q.032.321.027.328.024.336.04.348m.676.175Q.75.527.742.551.73.574.715.574.688.574.688.547.683.52.715.523M.723.47Q.683.47.688.45q0-.023.027-.02.027 0 .027.028.004.015-.02.012M.56.363Q.535.368.543.398l.016.004q.015 0 .058.012.02.024 0 .043-.094 0-.12-.086-.008-.02.015-.02Q.53.349.52.325A1 1 0 0 1 .5.22Q.492.204.516.195.575.172.633.145.629.23.617.215L.551.21Q.528.234.543.246a.3.3 0 0 1 .082.012q.012.02-.004.027L.563.281q-.015 0-.02.024 0 .023.02.023A.2.2 0 0 1 .625.34Q.637.36.617.367A.4.4 0 0 0 .56.363"/><path id="l" d="M.273.457q.023 0 .075.012.09.023.136.004l.07.101q.083.114.114.172L.734.707q.009-.008 0-.02A2 2 0 0 1 .59.513q.136 0 .183.004a.3.3 0 0 0 .098-.02Q.883.485.883.476a.2.2 0 0 1-.028-.07A1.3 1.3 0 0 0 .81.168L.773.047l-.02-.05Q.75-.02.73-.02a.44.44 0 0 0-.195.122Q.515.125.52.132q.007.01.03-.006.106-.06.141-.02.044.044.063.157a.4.4 0 0 1-.008.172Q.738.48.598.469A.12.12 0 0 1 .512.414.3.3 0 0 1 .477.293.6.6 0 0 0 .465.074Q.46.06.41.09.402.098.398.098a.4.4 0 0 0-.062.05A.13.13 0 0 1 .28.121Q.254.098.242.105a.4.4 0 0 0-.027.149V.3L.21.398A.1.1 0 0 0 .176.391Q.156.386.156.395q-.003.01.012.027.148.219.207.273Q.441.652.449.613A.55.55 0 0 1 .273.457M.387.164Q.399.17.402.176a.2.2 0 0 1 .004.043q0 .176-.02.207 0 .003-.015.008Q.321.43.297.406q-.012-.035 0-.05l.062.003Q.38.34.36.313A.1.1 0 0 0 .33.285L.315.281Q.274.258.281.227.29.212.34.234q.015 0 .02-.058Q.374.164.386.164m.289.129Q.664.239.64.223q-.009 0-.028.02L.61.245.605.254A1 1 0 0 1 .54.336Q.524.348.527.356q.008.014.024.01a.24.24 0 0 0 .105-.03Q.68.316.676.293"/><path id="m" d="M.117.473q.04.008.086.062l.012.012Q.262.6.3.66.336.7.379.754a.1.1 0 0 0 .05-.04.3.3 0 0 0-.034-.038.4.4 0 0 1-.106-.14q0-.005.012 0A.4.4 0 0 0 .367.55a.13.13 0 0 0 .008.074Q.399.629.43.598L.44.59A.1.1 0 0 0 .484.52Q.493.469.45.473q-.015 0-.047.02L.395.495A3 3 0 0 1 .16.386Q.114.447.117.474M.535.43.527.438Q.497.484.5.516A2 2 0 0 1 .52.66q.01.036.003.074 0 .016.036.012L.566.742Q.621.722.61.715.567.68.563.602l.027.02.039.019q.039.015.059.043.039-.02.046-.051Q.74.62.707.617L.695.613.68.61A.3.3 0 0 1 .617.58.14.14 0 0 1 .57.495Q.58.468.637.465q.05 0 .07.027.015.015.02.074Q.754.566.77.45L.773.437Q.785.423.781.415q0-.016-.027-.016L.637.395H.613A.07.07 0 0 0 .535.43M.175.05a3 3 0 0 0 .04.305l.012.024a.2.2 0 0 0 .058.023l.055.02q.03.012.05.012a.12.12 0 0 0 .063-.04Q.438.38.433.34V.32L.427.078.422.023Q.429-.023.414-.016L.387 0 .355.012.332.027a.1.1 0 0 1-.023.02Q.242.086.25.105.255.11.277.102A.1.1 0 0 1 .312.09Q.36.094.364.12v.215q0 .03-.011.039Q.289.39.277.335q0-.003.02 0 .027.013.035.009Q.345.34.336.313.336.3.316.289.312.285.31.285.254.243.262.235l.035.007Q.33.25.336.246.35.203.258.16.234.148.223.063.23.039.195.03H.191Q.18.03.176.05m.312.105q0 .035.008.11L.5.32v.004Q.508.336.5.352q.043.015.043.011 0-.012.02-.015L.57.344A.3.3 0 0 1 .555.277L.547.238a.5.5 0 0 1 .11.086L.66.328q.04.047.055.02.03-.06.02-.075A.16.16 0 0 1 .651.25Q.554.184.547.152.539.078.586.06q.063-.005.129 0 .035.003.05.058a.6.6 0 0 1 .016.137Q.81.266.836.12.847.063.856.004.85-.004.835-.008q-.12 0-.234-.008Q.532-.019.5.078a.3.3 0 0 0-.012.078"/><clipPath id="n"><use href="#a"/></clipPath><clipPath id="o"><use href="#a"/></clipPath><clipPath id="p"><use href="#a"/></clipPath><clipPath id="q"><use href="#a"/></clipPath><clipPath id="r"><use href="#a"/></clipPath><clipPath id="s"><use href="#a"/></clipPath><clipPath id="t"><use href="#a"/></clipPath><clipPath id="u"><use href="#a"/></clipPath><clipPath id="v"><use href="#a"/></clipPath><clipPath id="w"><use href="#a"/></clipPath><clipPath id="x"><use href="#a"/></clipPath><clipPath id="y"><use href="#a"/></clipPath><clipPath id="z"><use href="#a"/></clipPath><clipPath id="A"><use href="#a"/></clipPath><clipPath id="B"><use href="#a"/></clipPath><clipPath id="C"><use href="#a"/></clipPath><clipPath id="D"><use href="#a"/></clipPath><clipPath id="E"><use href="#a"/></clipPath><clipPath id="F"><use href="#a"/></clipPath><clipPath id="G"><use href="#a"/></clipPath><clipPath id="H"><use href="#a"/></clipPath><clipPath id="I"><use href="#a"/></clipPath><clipPath id="J"><use href="#a"/></clipPath><clipPath id="K"><use href="#a"/></clipPath><clipPath id="L"><use href="#a"/></clipPath><clipPath id="M"><use href="#a"/></clipPath><clipPath id="N"><use href="#a"/></clipPath><clipPath id="O"><use href="#a"/></clipPath><clipPath id="P"><use href="#a"/></clipPath><clipPath id="Q"><use href="#a"/></clipPath><clipPath id="R"><use href="#a"/></clipPath><clipPath id="S"><use href="#a"/></clipPath><clipPath id="T"><use href="#a"/></clipPath><clipPath id="U"><use href="#a"/></clipPath><clipPath id="V"><use href="#a"/></clipPath><clipPath id="W"><use href="#a"/></clipPath><clipPath id="X"><use href="#a"/></clipPath><clipPath id="Y"><use href="#a"/></clipPath><clipPath id="Z"><use href="#a"/></clipPath><clipPath id="aa"><use href="#a"/></clipPath><clipPath id="ab"><use href="#a"/></clipPath><clipPath id="ac"><use href="#a"/></clipPath><clipPath id="ad"><use href="#a"/></clipPath><clipPath id="ae"><use href="#a"/></clipPath><clipPath id="af"><use href="#a"/></clipPath><clipPath id="ag"><use href="#a"/></clipPath><clipPath id="ah"><use href="#a"/></clipPath><clipPath id="ai"><use href="#a"/></clipPath><clipPath id="aj"><use href="#a"/></clipPath><clipPath id="ak"><use href="#a"/></clipPath><clipPath id="al"><use href="#a"/></clipPath><clipPath id="am"><use href="#a"/></clipPath><clipPath id="an"><use href="#a"/></clipPath><clipPath id="ao"><use href="#a"/></clipPath><clipPath id="ap"><use href="#a"/></clipPath><clipPath id="aq"><use href="#a"/></clipPath><clipPath id="ar"><use href="#a"/></clipPath><clipPath id="as"><use href="#a"/></clipPath><clipPath id="at"><use href="#a"/></clipPath><clipPath id="au"><use href="#a"/></clipPath><clipPath id="av"><use href="#a"/></clipPath><clipPath id="aw"><use href="#a"/></clipPath><clipPath id="ax"><use href="#a"/></clipPath><clipPath id="ay"><use href="#a"/></clipPath><clipPath id="az"><use href="#a"/></clipPath><clipPath id="aA"><use href="#a"/></clipPath><clipPath id="aB"><use href="#a"/></clipPath><clipPath id="aC"><use href="#a"/></clipPath><clipPath id="aD"><use href="#a"/></clipPath><clipPath id="aE"><use href="#a"/></clipPath><clipPath id="aF"><use href="#a"/></clipPath><clipPath id="aG"><use href="#a"/></clipPath><clipPath id="aH"><use href="#a"/></clipPath><clipPath id="aI"><use href="#a"/></clipPath><clipPath id="aJ"><use href="#a"/></clipPath><clipPath id="aK"><use href="#a"/></clipPath><clipPath id="aL"><use href="#a"/></clipPath><clipPath id="aM"><use href="#a"/></clipPath><clipPath id="aN"><use href="#a"/></clipPath><clipPath id="aO"><use href="#a"/></clipPath><clipPath id="aP"><use href="#a"/></clipPath><clipPath id="aQ"><use href="#a"/></clipPath><clipPath id="aR"><use href="#a"/></clipPath><clipPath id="aS"><use href="#a"/></clipPath><clipPath id="aT"><use href="#a"/></clipPath><path id="aU" d="M.59.8Q.688.8.69.79A.04.04 0 0 0 .688.772a.1.1 0 0 1-.012-.05V.574h.058l.098.004h.047V.504H.824Q.765.508.734.508H.676V.285h.086q.078 0 .164.008v-.09a2 2 0 0 1-.168.008h-.54Q.145.21.067.203v.09Q.152.285.22.285h.094v.223h-.06Q.232.508.177.504H.113v.078Q.2.574.253.574h.06v.16l-.004.04v.023q.093 0 .097-.012L.402.762A.1.1 0 0 1 .391.727V.574h.203V.73Q.594.785.59.8M.39.286h.208v.223H.39zM.35.16Q.442.106.439.094q0-.008-.016-.012a.1.1 0 0 1-.05-.02A4 4 0 0 1 .147-.09a.2.2 0 0 1-.078.067Q.23.043.352.16m.293 0Q.762.097.91-.012L.84-.09Q.735.012.582.098z"/><path id="aV" d="M.563.805.582.8Q.684.794.676.785L.672.773Q.664.765.664.762a.46.46 0 0 1 .3-.309.2.2 0 0 1-.066-.086.57.57 0 0 0-.285.344A1.1 1.1 0 0 0 .36.336a.3.3 0 0 1-.086.062q.203.11.29.407M.246.789Q.351.765.348.75.348.746.34.734A.2.2 0 0 1 .312.7 1 1 0 0 0 .259.594V.07q0-.05.004-.11v-.046H.176v.016a1 1 0 0 1 .008.14v.371L.144.38.098.31.039.367Q.168.543.246.79M.688.426q.094 0 .097-.012L.781.398A.1.1 0 0 1 .773.352v-.29q0-.073.008-.148h-.09q.004.035.004.152v.282a.3.3 0 0 1-.007.078m-.211 0h.027Q.579.422.574.41L.57.398A.1.1 0 0 1 .563.363 1 1 0 0 0 .52.07a.45.45 0 0 0-.133-.16.4.4 0 0 1-.086.05q.117.052.148.142Q.48.18.477.426"/><path id="aW" d="M.188.805a.4.4 0 0 0 .097-.04Q.285.758.273.75a.2.2 0 0 1-.03-.043L.198.641h.028q.042 0 .09.007V.574a1 1 0 0 1-.098.004H.176L.164.563.114.496l.08-.008H.21l.05.004.06.004v-.07H.28L.238.43H.223V.305h.011q.06 0 .082.004V.242H.223V.074q-.005 0 .039.043.035.035.047.051L.336.094A2 2 0 0 0 .16-.078l-.055.074q.035.02.051.035v.211H.145A1 1 0 0 1 .043.234V.31A1 1 0 0 1 .141.305h.015v.12A.3.3 0 0 1 .098.423v.05L.062.435A.2.2 0 0 1 .036.5L.031.512a.7.7 0 0 1 .157.293M.652.797q.074 0 .086-.008L.734.773A.05.05 0 0 1 .727.746a.2.2 0 0 1-.004-.05h.089l.07.003Q.888.7.888.695A.4.4 0 0 1 .88.605V.56l.043.003h.035V.497L.88.505V.469q0-.055.008-.11Q.888.355.88.355L.816.36h-.09V.29h.047q.082 0 .122.004V.227L.773.234H.727V.152h.058Q.88.152.91.156V.09Q.887.09.824.094H.727V0q.058-.005.199 0h.031a.2.2 0 0 1-.055-.086q-.386.008-.468.11a.6.6 0 0 0-.137-.118.16.16 0 0 1-.074.055.36.36 0 0 1 .168.121 1 1 0 0 0-.07.191l.074.004A.6.6 0 0 1 .422.141q.02.07.035.222A.4.4 0 0 1 .336.34L.312.402Q.349.41.368.453q.047.11.074.188A1 1 0 0 1 .328.629v.07a1 1 0 0 1 .195 0Q.527.7.527.691A3 3 0 0 0 .418.414l.055.004q.03.008.054.012.009 0 .008-.008a1.4 1.4 0 0 0-.07-.348Q.51.015.66 0v.094H.637Q.559.094.527.09v.07a1 1 0 0 1 .11-.008H.66v.082H.64L.575.23H.547v.067A1 1 0 0 1 .64.289h.02v.07H.644A1 1 0 0 1 .55.355v.07A1 1 0 0 1 .645.423H.66v.074H.64Q.579.496.505.492v.074A.6.6 0 0 1 .637.56H.66v.078H.645Q.6.637.55.633v.066Q.566.7.6.695h.055a.4.4 0 0 1-.004.102m.075-.16V.559h.086v.078zm0-.14V.421h.086v.074z"/><path id="aX" d="M.555.805Q.655.797.656.78q0-.007-.008-.01A.07.07 0 0 1 .637.727V.62q.078.036.187.117Q.895.677.891.66.887.657.863.652L.813.637.738.605.637.563v-.07q0-.013.062-.016a.3.3 0 0 1 .11.007q.027.012.027.098A.4.4 0 0 1 .93.527Q.902.417.84.407a.8.8 0 0 0-.192 0Q.562.417.562.464.567.69.556.793zM.238.797Q.332.766.332.754A.1.1 0 0 0 .312.73L.29.71.246.657A1 1 0 0 0 .168.555l.23.015a.4.4 0 0 1-.074.086L.394.7A1 1 0 0 0 .532.516L.445.469l-.02.047A2 2 0 0 1 .09.469l-.031.09a.12.12 0 0 1 .074.05q.059.075.105.188M.555.379l.03-.004Q.658.368.653.359q0-.003-.007-.015A.1.1 0 0 1 .637.316v-.12a1 1 0 0 1 .191.116L.863.267Q.894.235.891.23.89.226.875.223A.2.2 0 0 1 .832.21a3 3 0 0 0-.18-.066Q.641.136.637.137V.035Q.64.001.703.008.81.016.82.023q.031.02.028.098a.4.4 0 0 1 .09-.05Q.902-.04.859-.052a.4.4 0 0 0-.097-.012q-.075 0-.121.004Q.566-.05.562 0v.281A.5.5 0 0 1 .556.38M.398.367h-.21V.281h.21zm0-.14h-.21v-.09h.21zm.079.21a.4.4 0 0 1-.008-.07v-.39Q.465-.074.324-.093A.14.14 0 0 1 .29.003Q.38-.012.4.008v.074H.186V.016a.4.4 0 0 1 .01-.106H.102q.007.075.007.106v.351a.3.3 0 0 1-.007.07A1 1 0 0 1 .199.43h.16q.036 0 .118.008"/><path id="aY" d="M.293.734.051-.012h-.059l.235.746z"/><path id="aZ" d="M.727.816V.81A.6.6 0 0 1 .53.348a.56.56 0 0 1 .196-.45v-.007Q.457.074.469.348.457.62.727.816"/><path id="ba" d="M.166.688V.206l.188.193q.01.01.007.02Q.36.432.355.436.352.438.34.438H.305Q.289.438.29.451q0 .013.017.013h.206Q.526.464.526.45T.513.438H.479A.1.1 0 0 1 .446.432L.419.418.396.399.287.29.444.066.476.025A.1.1 0 0 1 .504.002.1.1 0 0 1 .54-.006h.028q.015 0 .016-.013T.567-.03H.35q-.015 0-.014.012t.014.013h.017q.021 0 .026.005.006.005.006.017a.05.05 0 0 1-.01.028L.243.24.166.163V.038L.171.013a.04.04 0 0 1 .014-.014l.026-.005h.022q.015 0 .017-.013 0-.013-.017-.012H.035Q.02-.031.02-.02t.015.013H.06L.083 0a.04.04 0 0 1 .018.015l.005.027v.521A.05.05 0 0 1 .094.6a.05.05 0 0 1-.035.013H.035Q.02.613.02.625t.015.014L.06.64a.14.14 0 0 1 .059.016.1.1 0 0 1 .027.017z"/><path id="bb" d="M.233.59a.1.1 0 0 1-.008.032.04.04 0 0 1-.016.017.1.1 0 0 1-.03.006H.145q-.018 0-.018.012T.145.67h.244Q.407.67.408.657.408.645.39.645H.358A.1.1 0 0 1 .325.638Q.313.63.311.622a.1.1 0 0 1-.003-.03V.17a.4.4 0 0 0-.01-.083.13.13 0 0 0-.033-.064.2.2 0 0 0-.055-.039.2.2 0 0 0-.064-.016.1.1 0 0 0-.052.007A.1.1 0 0 0 .06 0a.05.05 0 0 0-.013.04q0 .012.01.023A.04.04 0 0 0 .08.077.05.05 0 0 0 .108.07.05.05 0 0 0 .131.047L.136.03A.04.04 0 0 1 .152.01Q.165.002.188.012a.05.05 0 0 1 .029.024.1.1 0 0 1 .013.05q.003.033.003.083z"/><path id="bc" d="M.5.266Q.422.27.418.348.422.426.5.434.579.425.582.348.578.269.5.266"/><path id="bd" d="M.164.476v-.09l.022.031Q.2.437.228.452A.17.17 0 0 0 .343.47a.1.1 0 0 0 .05-.026.1.1 0 0 0 .035-.04L.44.376q.014.026.024.039.01.015.027.025.016.012.043.024A.14.14 0 0 0 .671.453.1.1 0 0 0 .718.399.2.2 0 0 0 .729.324V.04q0-.018.005-.026A.04.04 0 0 1 .748.001.1.1 0 0 1 .78-.004h.018q.014 0 .014-.013T.798-.029H.61q-.015 0-.017.012t.018.013h.017q.017 0 .024.007.009.006.012.017l.004.025v.27a.2.2 0 0 1-.008.06.1.1 0 0 1-.028.049Q.612.444.57.44A.12.12 0 0 1 .492.408.2.2 0 0 1 .45.356.1.1 0 0 1 .441.322V.051q0-.027.013-.041t.037-.014h.02q.013 0 .013-.013T.51-.029H.313Q.3-.03.3-.017t.014.013h.015A.1.1 0 0 1 .36.002a.03.03 0 0 1 .016.015l.005.027v.281A.2.2 0 0 1 .372.38a.1.1 0 0 1-.03.044.1.1 0 0 1-.052.02A.1.1 0 0 1 .24.43.2.2 0 0 1 .188.38Q.162.34.163.318L.164.041q0-.021.004-.029A.03.03 0 0 1 .183 0L.21-.004h.021q.015 0 .016-.013 0-.012-.016-.012H.038q-.012 0-.012.012t.013.013h.017l.027.005a.03.03 0 0 1 .015.015l.006.023v.302Q.104.367.1.378L.083.396a.1.1 0 0 1-.03.008L.029.405q-.012 0-.014.012 0 .013.014.014h.023q.017 0 .033.004.016.003.031.01l.028.017z"/><path id="be" d="M.034.219q0 .052.011.1a.2.2 0 0 0 .117.138.24.24 0 0 0 .178 0A.17.17 0 0 0 .415.402.3.3 0 0 0 .458.323.3.3 0 0 0 .474.22L.464.14a.23.23 0 0 0-.11-.15.2.2 0 0 0-.105-.022.2.2 0 0 0-.09.02.2.2 0 0 0-.071.056.2.2 0 0 0-.04.082.4.4 0 0 0-.014.094m.071 0Q.107.15.123.099a.14.14 0 0 1 .05-.075.14.14 0 0 1 .078-.027.13.13 0 0 1 .08.023.15.15 0 0 1 .055.084.45.45 0 0 1 .002.228.2.2 0 0 1-.056.086.13.13 0 0 1-.165-.001.15.15 0 0 1-.05-.08.4.4 0 0 1-.012-.118"/><path id="bf" d="M.168.696v-.64q0-.024.006-.035A.04.04 0 0 1 .192.004a.1.1 0 0 1 .042-.006h.033q.014 0 .012-.013T.267-.027H.02q-.015 0-.016.012 0 .013.017.013h.037a.05.05 0 0 1 .045.029.1.1 0 0 1 .004.03v.516a.1.1 0 0 1-.005.033.04.04 0 0 1-.013.02L.063.634.036.636q-.015 0-.015.012 0 .011.016.013l.026.002A.2.2 0 0 1 .13.677q.018.006.023.01z"/><path id="bg" d="M.273-.11v.008Q.477.09.47.348a.62.62 0 0 1-.196.46v.008Q.54.621.531.348.54.074.273-.11"/><path id="bh" d="m.576.679.049-.16Q.63.5.618.497.606.49.6.504L.586.526.553.573a.2.2 0 0 1-.057.05.17.17 0 0 1-.102.023.2.2 0 0 1-.171-.11.5.5 0 0 1-.043-.21Q.18.23.213.164A.26.26 0 0 1 .3.062.2.2 0 0 1 .418.027q.057 0 .095.022a.2.2 0 0 1 .065.059l.04.054.012.02q.007.014.016.009T.65.17L.64.146.603.083a.3.3 0 0 0-.078-.08.2.2 0 0 0-.12-.036.24.24 0 0 0-.14.033.3.3 0 0 0-.096.083.3.3 0 0 0-.051.105A.5.5 0 0 0 .1.325q0 .071.014.127t.047.107q.031.05.085.084A.3.3 0 0 0 .375.68.4.4 0 0 0 .457.672L.505.659.529.656q.015 0 .029.011z"/><path id="bi" d="M0 .36h.996V.315H0z"/><path id="bj" d="M.232.348h.359v.245L.586.617A.04.04 0 0 1 .57.634a.1.1 0 0 1-.029.007H.509Q.49.64.489.653q0 .013.02.013h.237q.015 0 .017-.013Q.764.641.746.641H.718A.1.1 0 0 1 .685.635.04.04 0 0 1 .67.618.1.1 0 0 1 .665.589V.064q0-.033.008-.045l.02-.018a.1.1 0 0 1 .04-.005H.75q.018 0 .019-.013T.75-.029H.515q-.02 0-.018.012 0 .013.018.013h.032q.014 0 .023.006.009.005.015.016a.1.1 0 0 1 .006.046v.258H.232v-.26q0-.031.006-.043a.04.04 0 0 1 .02-.017.1.1 0 0 1 .039-.006H.32q.018 0 .017-.013T.321-.029h-.24q-.016 0-.018.012 0 .013.019.013h.024q.018 0 .03.007.012.008.017.018.005.011.005.037v.519a.1.1 0 0 1-.005.032.05.05 0 0 1-.018.022.1.1 0 0 1-.04.01H.07Q.053.64.052.653t.017.013h.248q.014 0 .015-.013T.317.641H.28L.254.634.238.62A.05.05 0 0 1 .232.592z"/><path id="bk" d="M.025.134v.074l.3.454.06.001L.384.208H.47V.135L.385.134V-.03H.302v.163zm.042.074h.234v.357z"/><path id="bl" d="M.164.321V.34q.033.004.053.01a.2.2 0 0 1 .071.046.14.14 0 0 1 .037.096q0 .03-.012.056a.1.1 0 0 1-.06.05.16.16 0 0 1-.1 0A.1.1 0 0 1 .12.574L.098.551.085.534Q.077.526.071.53.065.53.064.539.063.545.075.562l.023.035a.2.2 0 0 0 .03.032.2.2 0 0 0 .15.038.2.2 0 0 0 .045-.012.1.1 0 0 0 .034-.02.1.1 0 0 0 .026-.032.1.1 0 0 0 .016-.035.1.1 0 0 0 .003-.039.17.17 0 0 0-.064-.123L.312.382.366.347a.2.2 0 0 0 .033-.03.2.2 0 0 0 .037-.104.24.24 0 0 0-.023-.119.2.2 0 0 0-.029-.048.2.2 0 0 0-.04-.036.27.27 0 0 0-.179-.042l-.08.01a.04.04 0 0 0-.03.037q0 .011.003.017t.015.012l.02.008A.1.1 0 0 0 .13.039L.168.021A.1.1 0 0 1 .201.015a.17.17 0 0 1 .1.019Q.32.046.336.07t.022.048a.14.14 0 0 1-.002.094.2.2 0 0 1-.02.043.2.2 0 0 1-.04.037.1.1 0 0 1-.045.02z"/><path id="bm" d="M.044.646Q.03.653.03.662T.044.67h.53L.597.499q0-.015-.01-.018Q.58.478.573.491L.56.513a.4.4 0 0 1-.04.056.21.21 0 0 1-.156.077H.287Q.221.646.21.63A.06.06 0 0 1 .2.595v-.25h.13q.014 0 .024.005a.04.04 0 0 1 .02.014.15.15 0 0 1 .018.066v.032q0 .015.014.016T.421.462V.21Q.42.19.406.192q-.015 0-.014.015v.036q0 .015-.004.03a.1.1 0 0 1-.013.026A.05.05 0 0 1 .33.32H.2V.06Q.2.027.208.016A.05.05 0 0 1 .234 0 .2.2 0 0 1 .28-.003h.03q.016 0 .016-.013T.309-.028H.05q-.015 0-.015.012t.015.013h.02q.02 0 .03.005a.04.04 0 0 1 .02.015q.006.009.006.04v.522A.1.1 0 0 1 .12.615a.04.04 0 0 1-.018.023.1.1 0 0 1-.034.008z"/><path id="bn" d="M.196.662h.242L.401.59H.202L.154.49.222.475a.3.3 0 0 0 .1-.049.23.23 0 0 0 .077-.092.3.3 0 0 0 .02-.055.3.3 0 0 0-.005-.124.2.2 0 0 0-.02-.051.23.23 0 0 0-.082-.09.25.25 0 0 0-.127-.042.2.2 0 0 0-.1.014.1.1 0 0 0-.026.019.04.04 0 0 0-.008.027l.002.012a.03.03 0 0 0 .011.012.04.04 0 0 0 .021.006L.103.056.13.041A.2.2 0 0 1 .17.022.2.2 0 0 1 .216.016Q.236.014.253.02a.2.2 0 0 1 .042.02q.024.014.042.044t.023.06a.23.23 0 0 1-.018.128.2.2 0 0 1-.034.052.25.25 0 0 1-.153.08L.1.408Q.084.41.082.415.079.42.082.429l.016.03z"/><path id="bo" d="M.453.665V.65L.381.64A.4.4 0 0 1 .188.49.2.2 0 0 1 .167.445L.14.372.196.4l.05.015q.03.006.059.004A.18.18 0 0 0 .433.347.2.2 0 0 0 .466.25.4.4 0 0 0 .432.062a.2.2 0 0 0-.097-.087.2.2 0 0 0-.083-.012.2.2 0 0 0-.066.01A.22.22 0 0 0 .06.09a.3.3 0 0 0-.022.068.5.5 0 0 0-.004.17.5.5 0 0 0 .069.167.5.5 0 0 0 .183.142.4.4 0 0 0 .124.028zM.267-.013A.2.2 0 0 1 .317 0a.1.1 0 0 1 .03.021.1.1 0 0 1 .018.034l.009.04A.6.6 0 0 1 .36.284.2.2 0 0 1 .336.33a.11.11 0 0 1-.092.043.15.15 0 0 1-.07-.016L.129.331a1 1 0 0 1 0-.163A.3.3 0 0 1 .16.055.1.1 0 0 1 .187.017a.1.1 0 0 1 .031-.02.2.2 0 0 1 .049-.01"/><path id="bp" d="M.108.666h.357L.252-.031H.199l.188.62h-.2L.146.587.126.579.102.557.082.528.067.511Q.061.506.055.51T.049.518q0 .005.008.025z"/><path id="bq" d="M.074.639H.046Q.03.639.03.65t.016.013h.329A.3.3 0 0 0 .457.652.16.16 0 0 0 .538.597.15.15 0 0 0 .513.383.2.2 0 0 0 .458.35L.425.338.487.324A.16.16 0 0 0 .592.23.2.2 0 0 0 .58.07.2.2 0 0 0 .523.01a.2.2 0 0 0-.071-.03.4.4 0 0 0-.08-.007h-.32q-.016 0-.018.012t.019.013h.025Q.1-.003.112.01t.012.04v.541q0 .024-.012.036T.074.639m.283 0H.265Q.227.639.212.622A.05.05 0 0 1 .198.588V.35h.157q.03 0 .061.014.03.013.052.046A.16.16 0 0 1 .49.5a.15.15 0 0 1-.02.078.1.1 0 0 1-.05.046.14.14 0 0 1-.063.015M.198.324V.053q0-.024.018-.04.017-.015.035-.016h.112q.044 0 .08.018a.12.12 0 0 1 .058.057q.02.04.021.089A.2.2 0 0 1 .504.25.12.12 0 0 1 .44.31a.2.2 0 0 1-.084.014z"/><path id="br" d="M.185.47V.345l.043.061q.022.03.051.048.03.017.067.015a.1.1 0 0 0 .05-.02Q.413.432.414.414A.04.04 0 0 0 .402.382.03.03 0 0 0 .37.372a.04.04 0 0 0-.03.017L.33.406a.03.03 0 0 1-.02.011.05.05 0 0 1-.032-.008A.2.2 0 0 1 .24.377.3.3 0 0 1 .202.324.1.1 0 0 1 .185.27V.047A.1.1 0 0 1 .189.014.03.03 0 0 1 .202.001a.1.1 0 0 1 .032-.005h.04q.015 0 .016-.013 0-.012-.017-.012H.05Q.03-.03.03-.017t.018.013h.018q.02 0 .032.005a.04.04 0 0 1 .018.016.1.1 0 0 1 .008.032l.001.268q0 .067-.013.077T.07.404H.05q-.018 0-.018.013t.022.015H.07a.3.3 0 0 1 .07.013.1.1 0 0 1 .028.015z"/><path id="bs" d="M.348.268.314.244A.2.2 0 0 0 .27.227.2.2 0 0 0 .213.219.2.2 0 0 0 .148.23.16.16 0 0 0 .067.3a.2.2 0 0 0-.022.057.4.4 0 0 0 .01.17.2.2 0 0 0 .06.096q.02.017.052.031A.2.2 0 0 0 .238.67Q.284.669.316.65a.4.4 0 0 0 .05-.03.2.2 0 0 0 .035-.043A.3.3 0 0 0 .43.514.4.4 0 0 0 .449.375.5.5 0 0 0 .43.246.5.5 0 0 0 .347.098.5.5 0 0 0 .195-.01a.4.4 0 0 0-.113-.023H.051v.018a.2.2 0 0 1 .05.01.4.4 0 0 1 .074.027.3.3 0 0 1 .126.133.3.3 0 0 1 .026.054zM.122.45q0-.042.006-.07A.2.2 0 0 1 .143.33.14.14 0 0 1 .172.286.1.1 0 0 1 .21.263.2.2 0 0 1 .26.26q.023 0 .038.006Q.315.27.33.28T.353.3Q.36.314.36.35a1 1 0 0 1-.013.152.5.5 0 0 1-.03.09.1.1 0 0 1-.038.033.1.1 0 0 1-.051.016.1.1 0 0 1-.049-.013.1.1 0 0 1-.033-.03.1.1 0 0 1-.018-.036.2.2 0 0 1-.006-.05z"/><path id="bt" d="M.134.05v.54L.127.613.111.634Q.102.643.081.643H.046q-.013 0-.013.012t.013.013h.24q.02 0 .02-.013T.286.643H.261A.1.1 0 0 1 .228.636.04.04 0 0 1 .212.62L.207.596v-.54q0-.024.006-.036L.231.002a.1.1 0 0 1 .037-.007h.025q.015 0 .014-.013T.293-.03h-.24q-.015 0-.015.012t.016.013h.034q.014 0 .024.006a.04.04 0 0 1 .016.018.1.1 0 0 1 .006.032"/><path id="bu" d="M.048.234h.6V.192h-.6zm0 .177h.6V.37h-.6z"/><path id="bv" d="M.19.668.615.096v.49a.1.1 0 0 1-.004.03L.6.634Q.592.643.572.643H.53q-.015 0-.017.012 0 .013.017.013h.188Q.74.668.74.655T.72.643H.69Q.667.643.66.637A.03.03 0 0 1 .65.62L.645.594v-.602q0-.019-.018-.022Q.611-.033.6-.017L.16.606V.05A.1.1 0 0 1 .167.02.04.04 0 0 1 .183.003.1.1 0 0 1 .22 0h.024q.015 0 .018-.013.001-.012-.02-.012h-.19q-.016 0-.015.012T.053 0h.032q.014 0 .023.005A.04.04 0 0 1 .124.02a.1.1 0 0 1 .007.03v.536L.125.613.109.634Q.1.643.076.643H.045q-.018 0-.019.012 0 .013.019.013z"/><path id="bw" d="M.828.434h-.66v.043h.66zm0-.274h-.66v.043h.66zm0 .137h-.66V.34h.66z"/><path id="bx" d="M.2.32.141.364.11.395a.2.2 0 0 0-.038.117q0 .046.02.082a.15.15 0 0 0 .06.054.22.22 0 0 0 .17.014l.03-.015.03-.021A.1.1 0 0 0 .407.598.16.16 0 0 0 .43.508.1.1 0 0 0 .416.46.2.2 0 0 0 .384.415.2.2 0 0 0 .343.38L.292.35l.06-.048A.4.4 0 0 0 .4.256a.173.173 0 0 0-.05-.272.2.2 0 0 0-.091-.02.23.23 0 0 0-.12.033.2.2 0 0 0-.043.04.13.13 0 0 0-.03.097.2.2 0 0 0 .02.073.2.2 0 0 0 .026.036l.043.04zM.22.304.186.27A.2.2 0 0 1 .16.237.1.1 0 0 1 .141.193.2.2 0 0 1 .137.141q0-.039.007-.063a.1.1 0 0 1 .02-.041A.1.1 0 0 1 .2.006a.1.1 0 0 1 .062-.013q.035 0 .063.014T.363.04a.1.1 0 0 1 .015.04.2.2 0 0 1 .002.04.1.1 0 0 1-.016.045.5.5 0 0 1-.087.095zm.045.07q.013 0 .033.013a.14.14 0 0 1 .057.076.3.3 0 0 1 .008.05.2.2 0 0 1 0 .05.1.1 0 0 1-.02.046.1.1 0 0 1-.035.027.1.1 0 0 1-.054.012.1.1 0 0 1-.058-.012A.1.1 0 0 1 .16.607.1.1 0 0 1 .143.572.1.1 0 0 1 .141.528.16.16 0 0 1 .173.443.4.4 0 0 1 .245.382z"/><path id="by" d="M.038.32q0 .06.014.12a.33.33 0 0 0 .16.209Q.275.679.35.68A.3.3 0 0 0 .476.658.3.3 0 0 0 .574.596.3.3 0 0 0 .629.52a.4.4 0 0 0 .045-.2.4.4 0 0 0-.028-.146A.4.4 0 0 0 .574.06a.3.3 0 0 0-.103-.07.32.32 0 0 0-.238 0A.3.3 0 0 0 .13.068a.3.3 0 0 0-.07.117.4.4 0 0 0-.02.134m.081 0q0-.061.016-.117a.33.33 0 0 1 .12-.178.2.2 0 0 1 .093-.025.2.2 0 0 1 .184.095Q.567.146.58.2a.6.6 0 0 1-.001.237.4.4 0 0 1-.044.105.24.24 0 0 1-.08.08.2.2 0 0 1-.216-.006.23.23 0 0 1-.078-.09.4.4 0 0 1-.035-.11A1 1 0 0 1 .12.32"/><path d="M-59.697 700.533h603.78v-858.898h-603.78Z" id="a"/></defs><g clip-path="url(#b)"><use fill="#2c292a" data-text="表" transform="matrix(12 0 0 -12 161.807 12.654)" href="#c"/><use fill="#2c292a" data-text="2" transform="matrix(12 0 0 -12 176.807 12.654)" href="#d"/><use fill="#2c292a" data-text="-" transform="matrix(12 0 0 -12 182.807 12.654)" href="#e"/><use fill="#2c292a" data-text="1" transform="matrix(12 0 0 -12 191.267 12.654)" href="#f"/><use fill="#2c292a" data-text="-" transform="matrix(12 0 0 -12 197.267 12.654)" href="#e"/><use fill="#2c292a" data-text="2" transform="matrix(12 0 0 -12 205.727 12.654)" href="#d"/><use fill="#2c292a" data-text="常" transform="matrix(12 0 0 -12 223.727 12.654)" href="#g"/><use fill="#2c292a" data-text="见" transform="matrix(12 0 0 -12 235.727 12.654)" href="#h"/><use fill="#2c292a" data-text="共" transform="matrix(12 0 0 -12 247.727 12.654)" href="#i"/><use fill="#2c292a" data-text="价" transform="matrix(12 0 0 -12 259.727 12.654)" href="#j"/><use fill="#2c292a" data-text="键" transform="matrix(12 0 0 -12 271.727 12.654)" href="#k"/><use fill="#2c292a" data-text="的" transform="matrix(12 0 0 -12 283.727 12.654)" href="#l"/><use fill="#2c292a" data-text="键" transform="matrix(12 0 0 -12 295.727 12.654)" href="#k"/><use fill="#2c292a" data-text="能" transform="matrix(12 0 0 -12 307.727 12.654)" href="#m"/><g clip-path="url(#n)"><path fill="none" stroke="#fff" stroke-miterlimit="10" stroke-width="0.75" d="M5.125 50.156V26.437"/></g><g clip-path="url(#o)"><path fill="none" stroke="#fff" stroke-miterlimit="10" stroke-width="0.75" d="M476.426 50.156V26.437"/></g><g clip-path="url(#p)"><path fill="none" stroke="#fff" stroke-miterlimit="10" stroke-width="0.75" d="M5.125 74.25V50.158"/></g><g clip-path="url(#q)"><path fill="none" stroke="#fff" stroke-miterlimit="10" stroke-width="0.75" d="M476.426 74.25V50.158"/></g><g clip-path="url(#r)"><path fill="none" stroke="#fff" stroke-miterlimit="10" stroke-width="0.75" d="M5.125 98.43V74.25"/></g><g clip-path="url(#s)"><path fill="none" stroke="#fff" stroke-miterlimit="10" stroke-width="0.75" d="M476.426 98.43V74.25"/></g><g clip-path="url(#t)"><path fill="none" stroke="#fff" stroke-miterlimit="10" stroke-width="0.75" d="M5.125 122.524V98.43"/></g><g clip-path="url(#u)"><path fill="none" stroke="#fff" stroke-miterlimit="10" stroke-width="0.75" d="M476.426 122.524V98.43"/></g><g clip-path="url(#v)"><path fill="none" stroke="#fff" stroke-miterlimit="10" stroke-width="0.75" d="M5.125 146.619v-24.094"/></g><g clip-path="url(#w)"><path fill="none" stroke="#fff" stroke-miterlimit="10" stroke-width="0.75" d="M476.426 146.619v-24.094"/></g><g clip-path="url(#x)"><path fill="none" stroke="#fff" stroke-miterlimit="10" stroke-width="0.75" d="M5.125 170.713v-24.094"/></g><g clip-path="url(#y)"><path fill="none" stroke="#fff" stroke-miterlimit="10" stroke-width="0.75" d="M476.426 170.713v-24.094"/></g><g clip-path="url(#z)"><path fill="none" stroke="#fff" stroke-miterlimit="10" stroke-width="0.75" d="M5.125 194.683v-23.97"/></g><g clip-path="url(#A)"><path fill="none" stroke="#fff" stroke-miterlimit="10" stroke-width="0.75" d="M476.426 194.808v-24.094"/></g><g clip-path="url(#B)"><path fill="none" stroke="#fff" stroke-miterlimit="10" stroke-width="0.75" d="M476.426 218.527v-23.719"/></g><g clip-path="url(#C)"><path fill="none" stroke="#2c292a" stroke-miterlimit="10" stroke-width="0.75" d="M4.75 26.062h117.825"/></g><g clip-path="url(#D)"><path fill="none" stroke="#2c292a" stroke-miterlimit="10" stroke-width="0.75" d="M122.575 26.062h117.096"/></g><g clip-path="url(#E)"><path fill="none" stroke="#2c292a" stroke-miterlimit="10" stroke-width="0.75" d="M243.38 26.062h117.096"/></g><g clip-path="url(#F)"><path fill="none" stroke="#2c292a" stroke-miterlimit="10" stroke-width="0.75" d="M360.476 26.062H476.8"/></g><g clip-path="url(#G)"><path fill="none" stroke="#2c292a" stroke-miterlimit="10" stroke-width="0.25" d="M122.575 49.781V26.437"/></g><g clip-path="url(#H)"><path fill="none" stroke="#2c292a" stroke-miterlimit="10" stroke-width="0.25" d="M360.476 49.781V26.437"/></g><g clip-path="url(#I)"><path fill="none" stroke="#2c292a" stroke-miterlimit="10" stroke-width="0.25" d="M122.575 74.126V50.532"/></g><g clip-path="url(#J)"><path fill="none" stroke="#2c292a" stroke-miterlimit="10" stroke-width="0.25" d="M360.476 74.126V50.532"/></g><g clip-path="url(#K)"><path fill="none" stroke="#2c292a" stroke-miterlimit="10" stroke-width="0.25" d="M122.575 98.305v-23.93"/></g><g clip-path="url(#L)"><path fill="none" stroke="#2c292a" stroke-miterlimit="10" stroke-width="0.25" d="M360.476 98.305v-23.93"/></g><g clip-path="url(#M)"><path fill="none" stroke="#2c292a" stroke-miterlimit="10" stroke-width="0.25" d="M122.575 122.399V98.555"/></g><g clip-path="url(#N)"><path fill="none" stroke="#2c292a" stroke-miterlimit="10" stroke-width="0.25" d="M360.476 122.399V98.555"/></g><g clip-path="url(#O)"><path fill="none" stroke="#2c292a" stroke-miterlimit="10" stroke-width="0.25" d="M122.575 146.494V122.65"/></g><g clip-path="url(#P)"><path fill="none" stroke="#2c292a" stroke-miterlimit="10" stroke-width="0.25" d="M360.476 146.494V122.65"/></g><g clip-path="url(#Q)"><path fill="none" stroke="#2c292a" stroke-miterlimit="10" stroke-width="0.25" d="M122.575 170.588v-23.844"/></g><g clip-path="url(#R)"><path fill="none" stroke="#2c292a" stroke-miterlimit="10" stroke-width="0.25" d="M360.476 170.588v-23.844"/></g><g clip-path="url(#S)"><path fill="none" stroke="#2c292a" stroke-miterlimit="10" stroke-width="0.25" d="M122.575 194.683v-23.844"/></g><g clip-path="url(#T)"><path fill="none" stroke="#2c292a" stroke-miterlimit="10" stroke-width="0.25" d="M360.476 194.683v-23.844"/></g><g clip-path="url(#U)"><path fill="none" stroke="#2c292a" stroke-miterlimit="10" stroke-width="0.25" d="M122.575 218.527v-23.594"/></g><g clip-path="url(#V)"><path fill="none" stroke="#2c292a" stroke-miterlimit="10" stroke-width="0.25" d="M360.476 218.527v-23.594"/></g><g clip-path="url(#W)"><path fill="none" stroke="#2c292a" stroke-miterlimit="10" stroke-width="0.25" d="M5.5 74.25h117.075"/></g><g clip-path="url(#X)"><path fill="none" stroke="#2c292a" stroke-miterlimit="10" stroke-width="0.25" d="M122.575 74.25h117.096"/></g><g clip-path="url(#Y)"><path fill="none" stroke="#2c292a" stroke-miterlimit="10" stroke-width="0.25" d="M243.38 74.25h117.096"/></g><g clip-path="url(#Z)"><path fill="none" stroke="#2c292a" stroke-miterlimit="10" stroke-width="0.25" d="M360.476 74.25H476.05"/></g><g clip-path="url(#aa)"><path fill="none" stroke="#2c292a" stroke-miterlimit="10" stroke-width="0.25" d="M5.5 98.43h117.075"/></g><g clip-path="url(#ab)"><path fill="none" stroke="#2c292a" stroke-miterlimit="10" stroke-width="0.25" d="M122.575 98.43h117.096"/></g><g clip-path="url(#ac)"><path fill="none" stroke="#2c292a" stroke-miterlimit="10" stroke-width="0.25" d="M243.38 98.43h117.096"/></g><g clip-path="url(#ad)"><path fill="none" stroke="#2c292a" stroke-miterlimit="10" stroke-width="0.25" d="M360.476 98.43H476.05"/></g><g clip-path="url(#ae)"><path fill="none" stroke="#2c292a" stroke-miterlimit="10" stroke-width="0.25" d="M5.5 122.524h117.075"/></g><g clip-path="url(#af)"><path fill="none" stroke="#2c292a" stroke-miterlimit="10" stroke-width="0.25" d="M122.575 122.524h117.096"/></g><g clip-path="url(#ag)"><path fill="none" stroke="#2c292a" stroke-miterlimit="10" stroke-width="0.25" d="M243.38 122.524h117.096"/></g><g clip-path="url(#ah)"><path fill="none" stroke="#2c292a" stroke-miterlimit="10" stroke-width="0.25" d="M360.476 122.524H476.05"/></g><g clip-path="url(#ai)"><path fill="none" stroke="#2c292a" stroke-miterlimit="10" stroke-width="0.25" d="M5.5 146.619h117.075"/></g><g clip-path="url(#aj)"><path fill="none" stroke="#2c292a" stroke-miterlimit="10" stroke-width="0.25" d="M122.575 146.619h117.096"/></g><g clip-path="url(#ak)"><path fill="none" stroke="#2c292a" stroke-miterlimit="10" stroke-width="0.25" d="M243.38 146.619h117.096"/></g><g clip-path="url(#al)"><path fill="none" stroke="#2c292a" stroke-miterlimit="10" stroke-width="0.25" d="M360.476 146.619H476.05"/></g><g clip-path="url(#am)"><path fill="none" stroke="#2c292a" stroke-miterlimit="10" stroke-width="0.25" d="M5.5 170.713h117.075"/></g><g clip-path="url(#an)"><path fill="none" stroke="#2c292a" stroke-miterlimit="10" stroke-width="0.25" d="M122.575 170.713h117.096"/></g><g clip-path="url(#ao)"><path fill="none" stroke="#2c292a" stroke-miterlimit="10" stroke-width="0.25" d="M243.38 170.713h117.096"/></g><g clip-path="url(#ap)"><path fill="none" stroke="#2c292a" stroke-miterlimit="10" stroke-width="0.25" d="M360.476 170.713H476.05"/></g><g clip-path="url(#aq)"><path fill="none" stroke="#2c292a" stroke-miterlimit="10" stroke-width="0.25" d="M243.38 194.808h117.096"/></g><g clip-path="url(#ar)"><path fill="none" stroke="#2c292a" stroke-miterlimit="10" stroke-width="0.25" d="M360.476 194.808H476.05"/></g><g clip-path="url(#as)"><path fill="none" stroke="#2c292a" stroke-miterlimit="10" stroke-width="0.25" d="M4.75 194.808h117.825"/></g><g clip-path="url(#at)"><path fill="none" stroke="#2c292a" stroke-miterlimit="10" stroke-width="0.25" d="M122.575 194.808h117.096"/></g><g clip-path="url(#au)"><path fill="none" stroke="#2c292a" stroke-miterlimit="10" stroke-width="0.75" d="M5.125 218.902h117.45"/></g><g clip-path="url(#av)"><path fill="none" stroke="#2c292a" stroke-miterlimit="10" stroke-width="0.75" d="M122.575 218.902h117.096"/></g><g clip-path="url(#aw)"><path fill="none" stroke="#2c292a" stroke-miterlimit="10" stroke-width="0.75" d="M243.38 218.902h117.096"/></g><g clip-path="url(#ax)"><path fill="none" stroke="#2c292a" stroke-miterlimit="10" stroke-width="0.75" d="M360.476 218.902H476.8"/></g><g clip-path="url(#ay)"><path fill="none" stroke="#2c292a" stroke-miterlimit="10" stroke-width="0.75" d="M5.5 50.156h117.075"/></g><g clip-path="url(#az)"><path fill="none" stroke="#2c292a" stroke-miterlimit="10" stroke-width="0.75" d="M122.575 50.156h117.096"/></g><g clip-path="url(#aA)"><path fill="none" stroke="#2c292a" stroke-miterlimit="10" stroke-width="0.75" d="M243.38 50.156h117.096"/></g><g clip-path="url(#aB)"><path fill="none" stroke="#2c292a" stroke-miterlimit="10" stroke-width="0.75" d="M360.476 50.156H476.05"/></g><g clip-path="url(#aC)"><path fill="none" stroke="#2c292a" stroke-miterlimit="10" stroke-width="0.71" d="M239.671 26.062h3.71"/></g><g clip-path="url(#aD)"><path fill="none" stroke="#2c292a" stroke-miterlimit="10" stroke-width="0.71" d="M240.026 50.156v-23.74"/></g><g clip-path="url(#aE)"><path fill="none" stroke="#2c292a" stroke-miterlimit="10" stroke-width="0.71" d="M243.026 50.156v-23.74"/></g><g clip-path="url(#aF)"><path fill="none" stroke="#2c292a" stroke-miterlimit="10" stroke-width="0.71" d="M240.026 74.25V50.158"/></g><g clip-path="url(#aG)"><path fill="none" stroke="#2c292a" stroke-miterlimit="10" stroke-width="0.71" d="M243.026 74.25V50.158"/></g><g clip-path="url(#aH)"><path fill="none" stroke="#2c292a" stroke-miterlimit="10" stroke-width="0.71" d="M240.026 98.43V74.25"/></g><g clip-path="url(#aI)"><path fill="none" stroke="#2c292a" stroke-miterlimit="10" stroke-width="0.71" d="M243.026 98.43V74.25"/></g><g clip-path="url(#aJ)"><path fill="none" stroke="#2c292a" stroke-miterlimit="10" stroke-width="0.71" d="M240.026 122.524V98.43"/></g><g clip-path="url(#aK)"><path fill="none" stroke="#2c292a" stroke-miterlimit="10" stroke-width="0.71" d="M243.026 122.524V98.43"/></g><g clip-path="url(#aL)"><path fill="none" stroke="#2c292a" stroke-miterlimit="10" stroke-width="0.71" d="M240.026 146.619v-24.094"/></g><g clip-path="url(#aM)"><path fill="none" stroke="#2c292a" stroke-miterlimit="10" stroke-width="0.71" d="M243.026 146.619v-24.094"/></g><g clip-path="url(#aN)"><path fill="none" stroke="#2c292a" stroke-miterlimit="10" stroke-width="0.71" d="M240.026 170.713v-24.094"/></g><g clip-path="url(#aO)"><path fill="none" stroke="#2c292a" stroke-miterlimit="10" stroke-width="0.71" d="M243.026 170.713v-24.094"/></g><g clip-path="url(#aP)"><path fill="none" stroke="#2c292a" stroke-miterlimit="10" stroke-width="0.71" d="M240.026 194.808v-24.094"/></g><g clip-path="url(#aQ)"><path fill="none" stroke="#2c292a" stroke-miterlimit="10" stroke-width="0.71" d="M243.026 194.808v-24.094"/></g><g clip-path="url(#aR)"><path fill="none" stroke="#2c292a" stroke-miterlimit="10" stroke-width="0.71" d="M240.026 218.548v-23.74"/></g><g clip-path="url(#aS)"><path fill="none" stroke="#2c292a" stroke-miterlimit="10" stroke-width="0.71" d="M243.026 218.548v-23.74"/></g><g clip-path="url(#aT)"><path fill="none" stroke="#2c292a" stroke-miterlimit="10" stroke-width="0.71" d="M239.671 218.902h3.71"/></g><use fill="#2c292a" data-text="共" transform="matrix(10.5 0 0 -10.5 48.1 41.882)" href="#aU"/><use fill="#2c292a" data-text="价" transform="matrix(10.5 0 0 -10.5 58.6 41.882)" href="#aV"/><use fill="#2c292a" data-text="键" transform="matrix(10.5 0 0 -10.5 69.1 41.882)" href="#aW"/><use fill="#2c292a" data-text="键" transform="matrix(10.5 0 0 -10.5 134.547 41.882)" href="#aW"/><use fill="#2c292a" data-text="能" transform="matrix(10.5 0 0 -10.5 145.047 41.882)" href="#aX"/><use fill="#2c292a" data-text="/" transform="matrix(10.5 0 0 -10.5 158.172 41.882)" href="#aY"/><use fill="#2c292a" data-text="（" transform="matrix(10.5 0 0 -10.5 161.08 41.882)" href="#aZ"/><use fill="#2c292a" data-text="k" transform="matrix(10.5 0 0 -10.5 171.58 41.882)" href="#ba"/><use fill="#2c292a" data-text="J" transform="matrix(10.5 0 0 -10.5 177.807 41.882)" href="#bb"/><use fill="#2c292a" data-text="·" transform="matrix(10.5 0 0 -10.5 182.448 41.882)" href="#bc"/><use fill="#2c292a" data-text="m" transform="matrix(10.5 0 0 -10.5 192.948 41.882)" href="#bd"/><use fill="#2c292a" data-text="o" transform="matrix(10.5 0 0 -10.5 201.663 41.882)" href="#be"/><use fill="#2c292a" data-text="l" transform="matrix(10.5 0 0 -10.5 207.102 41.882)" href="#bf"/><use fill="#2c292a" data-text="-" transform="matrix(6.1215 0 0 -6.1215 210.178 36.812)" href="#e"/><use fill="#2c292a" data-text="1" transform="matrix(6.1215 0 0 -6.1215 214.494 36.812)" href="#f"/><use fill="#2c292a" data-text="）" transform="matrix(10.5 0 0 -10.5 217.555 41.882)" href="#bg"/><use fill="#2c292a" data-text="共" transform="matrix(10.5 0 0 -10.5 286.005 41.882)" href="#aU"/><use fill="#2c292a" data-text="价" transform="matrix(10.5 0 0 -10.5 296.505 41.882)" href="#aV"/><use fill="#2c292a" data-text="键" transform="matrix(10.5 0 0 -10.5 307.005 41.882)" href="#aW"/><use fill="#2c292a" data-text="键" transform="matrix(10.5 0 0 -10.5 371.695 41.882)" href="#aW"/><use fill="#2c292a" data-text="能" transform="matrix(10.5 0 0 -10.5 382.195 41.882)" href="#aX"/><use fill="#2c292a" data-text="/" transform="matrix(10.5 0 0 -10.5 395.32 41.882)" href="#aY"/><use fill="#2c292a" data-text="（" transform="matrix(10.5 0 0 -10.5 398.229 41.882)" href="#aZ"/><use fill="#2c292a" data-text="k" transform="matrix(10.5 0 0 -10.5 408.729 41.882)" href="#ba"/><use fill="#2c292a" data-text="J" transform="matrix(10.5 0 0 -10.5 414.955 41.882)" href="#bb"/><use fill="#2c292a" data-text="·" transform="matrix(10.5 0 0 -10.5 419.596 41.882)" href="#bc"/><use fill="#2c292a" data-text="m" transform="matrix(10.5 0 0 -10.5 430.096 41.882)" href="#bd"/><use fill="#2c292a" data-text="o" transform="matrix(10.5 0 0 -10.5 438.811 41.882)" href="#be"/><use fill="#2c292a" data-text="l" transform="matrix(10.5 0 0 -10.5 444.25 41.882)" href="#bf"/><use fill="#2c292a" data-text="-" transform="matrix(6.1215 0 0 -6.1215 447.329 36.812)" href="#e"/><use fill="#2c292a" data-text="1" transform="matrix(6.1215 0 0 -6.1215 451.645 36.812)" href="#f"/><use fill="#2c292a" data-text="）" transform="matrix(10.5 0 0 -10.5 454.706 41.882)" href="#bg"/><use fill="#2c292a" data-text="C" transform="matrix(11 0 0 -11 49.244 66.156)" href="#bh"/><use fill="#2c292a" data-text="—" transform="matrix(11 0 0 -11 57.89 66.156)" href="#bi"/><use fill="#2c292a" data-text="H" transform="matrix(11 0 0 -11 69.33 66.156)" href="#bj"/><use fill="#2c292a" data-text="4" transform="matrix(11 0 0 -11 173.06 66.156)" href="#bk"/><use fill="#2c292a" data-text="1" transform="matrix(11 0 0 -11 178.56 66.156)" href="#f"/><use fill="#2c292a" data-text="3" transform="matrix(11 0 0 -11 184.06 66.156)" href="#bl"/><use fill="#2c292a" data-text="H" transform="matrix(11 0 0 -11 288.197 66.156)" href="#bj"/><use fill="#2c292a" data-text="—" transform="matrix(11 0 0 -11 297.327 66.156)" href="#bi"/><use fill="#2c292a" data-text="F" transform="matrix(11 0 0 -11 308.327 66.156)" href="#bm"/><use fill="#2c292a" data-text="5" transform="matrix(11 0 0 -11 410.209 66.156)" href="#bn"/><use fill="#2c292a" data-text="6" transform="matrix(11 0 0 -11 415.709 66.156)" href="#bo"/><use fill="#2c292a" data-text="5" transform="matrix(11 0 0 -11 421.209 66.156)" href="#bn"/><use fill="#2c292a" data-text="C" transform="matrix(11 0 0 -11 50.377 90.29)" href="#bh"/><use fill="#2c292a" data-text="—" transform="matrix(11 0 0 -11 58.363 90.29)" href="#bi"/><use fill="#2c292a" data-text="C" transform="matrix(11 0 0 -11 69.363 90.29)" href="#bh"/><use fill="#2c292a" data-text="3" transform="matrix(11 0 0 -11 173.06 90.29)" href="#bl"/><use fill="#2c292a" data-text="4" transform="matrix(11 0 0 -11 178.56 90.29)" href="#bk"/><use fill="#2c292a" data-text="7" transform="matrix(11 0 0 -11 184.06 90.29)" href="#bp"/><use fill="#2c292a" data-text="H" transform="matrix(11 0 0 -11 286.096 90.29)" href="#bj"/><use fill="#2c292a" data-text="—" transform="matrix(11 0 0 -11 295.226 90.29)" href="#bi"/><use fill="#2c292a" data-text="C" transform="matrix(11 0 0 -11 306.226 90.29)" href="#bh"/><use fill="#2c292a" data-text="l" transform="matrix(11 0 0 -11 314.212 90.29)" href="#bf"/><use fill="#2c292a" data-text="4" transform="matrix(11 0 0 -11 410.209 90.29)" href="#bk"/><use fill="#2c292a" data-text="3" transform="matrix(11 0 0 -11 415.709 90.29)" href="#bl"/><use fill="#2c292a" data-text="1" transform="matrix(11 0 0 -11 421.209 90.29)" href="#f"/><use fill="#2c292a" data-text="C" transform="matrix(11 0 0 -11 47.154 114.424)" href="#bh"/><use fill="#2c292a" data-text="l" transform="matrix(11 0 0 -11 55.14 114.424)" href="#bf"/><use fill="#2c292a" data-text="—" transform="matrix(11 0 0 -11 58.363 114.424)" href="#bi"/><use fill="#2c292a" data-text="C" transform="matrix(11 0 0 -11 69.363 114.424)" href="#bh"/><use fill="#2c292a" data-text="l" transform="matrix(11 0 0 -11 77.349 114.424)" href="#bf"/><use fill="#2c292a" data-text="2" transform="matrix(11 0 0 -11 173.06 114.424)" href="#d"/><use fill="#2c292a" data-text="4" transform="matrix(11 0 0 -11 178.56 114.424)" href="#bk"/><use fill="#2c292a" data-text="3" transform="matrix(11 0 0 -11 184.06 114.424)" href="#bl"/><use fill="#2c292a" data-text="H" transform="matrix(11 0 0 -11 285.656 114.424)" href="#bj"/><use fill="#2c292a" data-text="—" transform="matrix(11 0 0 -11 294.786 114.424)" href="#bi"/><use fill="#2c292a" data-text="B" transform="matrix(11 0 0 -11 305.786 114.424)" href="#bq"/><use fill="#2c292a" data-text="r" transform="matrix(11 0 0 -11 313.189 114.424)" href="#br"/><use fill="#2c292a" data-text="3" transform="matrix(11 0 0 -11 410.209 114.424)" href="#bl"/><use fill="#2c292a" data-text="6" transform="matrix(11 0 0 -11 415.709 114.424)" href="#bo"/><use fill="#2c292a" data-text="3" transform="matrix(11 0 0 -11 421.209 114.424)" href="#bl"/><use fill="#2c292a" data-text="B" transform="matrix(11 0 0 -11 45.614 138.514)" href="#bq"/><use fill="#2c292a" data-text="r" transform="matrix(11 0 0 -11 53.017 138.514)" href="#br"/><use fill="#2c292a" data-text="—" transform="matrix(11 0 0 -11 58.363 138.514)" href="#bi"/><use fill="#2c292a" data-text="B" transform="matrix(11 0 0 -11 70.023 138.514)" href="#bq"/><use fill="#2c292a" data-text="r" transform="matrix(11 0 0 -11 77.426 138.514)" href="#br"/><use fill="#2c292a" data-text="1" transform="matrix(11 0 0 -11 173.06 138.514)" href="#f"/><use fill="#2c292a" data-text="9" transform="matrix(11 0 0 -11 178.56 138.514)" href="#bs"/><use fill="#2c292a" data-text="3" transform="matrix(11 0 0 -11 184.06 138.514)" href="#bl"/><use fill="#2c292a" data-text="H" transform="matrix(11 0 0 -11 289.803 138.514)" href="#bj"/><use fill="#2c292a" data-text="—" transform="matrix(11 0 0 -11 298.933 138.514)" href="#bi"/><use fill="#2c292a" data-text="I" transform="matrix(11 0 0 -11 309.933 138.514)" href="#bt"/><use fill="#2c292a" data-text="2" transform="matrix(11 0 0 -11 410.22 138.514)" href="#d"/><use fill="#2c292a" data-text="9" transform="matrix(11 0 0 -11 415.72 138.514)" href="#bs"/><use fill="#2c292a" data-text="7" transform="matrix(11 0 0 -11 421.22 138.514)" href="#bp"/><use fill="#2c292a" data-text="I" transform="matrix(11 0 0 -11 53.919 162.604)" href="#bt"/><use fill="#2c292a" data-text="—" transform="matrix(11 0 0 -11 58.374 162.604)" href="#bi"/><use fill="#2c292a" data-text="I" transform="matrix(11 0 0 -11 70.034 162.604)" href="#bt"/><use fill="#2c292a" data-text="1" transform="matrix(11 0 0 -11 173.07 162.604)" href="#f"/><use fill="#2c292a" data-text="5" transform="matrix(11 0 0 -11 178.57 162.604)" href="#bn"/><use fill="#2c292a" data-text="1" transform="matrix(11 0 0 -11 184.07 162.604)" href="#f"/><use fill="#2c292a" data-text="C" transform="matrix(11 0 0 -11 287.658 162.604)" href="#bh"/><use fill="#2c292a" data-text="=" transform="matrix(11 0 0 -11 295.64 162.604)" href="#bu"/><use fill="#2c292a" data-text="=" transform="matrix(11 0 0 -11 300.557 162.604)" href="#bu"/><use fill="#2c292a" data-text="C" transform="matrix(11 0 0 -11 307.894 162.604)" href="#bh"/><use fill="#2c292a" data-text="6" transform="matrix(11 0 0 -11 410.22 162.604)" href="#bo"/><use fill="#2c292a" data-text="1" transform="matrix(11 0 0 -11 415.72 162.604)" href="#f"/><use fill="#2c292a" data-text="4" transform="matrix(11 0 0 -11 421.22 162.604)" href="#bk"/><use fill="#2c292a" data-text="N" transform="matrix(11 0 0 -11 48.859 186.694)" href="#bv"/><use fill="#2c292a" data-text="—" transform="matrix(11 0 0 -11 58.088 186.694)" href="#bi"/><use fill="#2c292a" data-text="H" transform="matrix(11 0 0 -11 69.748 186.694)" href="#bj"/><use fill="#2c292a" data-text="3" transform="matrix(11 0 0 -11 173.07 186.694)" href="#bl"/><use fill="#2c292a" data-text="9" transform="matrix(11 0 0 -11 178.57 186.694)" href="#bs"/><use fill="#2c292a" data-text="1" transform="matrix(11 0 0 -11 184.07 186.694)" href="#f"/><use fill="#2c292a" data-text="C" transform="matrix(11 0 0 -11 287.91 186.694)" href="#bh"/><use fill="#2c292a" data-text="≡" transform="matrix(14.3 0 0 -11 294.612 186.713)" href="#bw"/><use fill="#2c292a" data-text="C" transform="matrix(11 0 0 -11 307.625 186.713)" href="#bh"/><use fill="#2c292a" data-text="8" transform="matrix(11 0 0 -11 410.2 186.713)" href="#bx"/><use fill="#2c292a" data-text="3" transform="matrix(11 0 0 -11 415.7 186.713)" href="#bl"/><use fill="#2c292a" data-text="9" transform="matrix(11 0 0 -11 421.2 186.713)" href="#bs"/><use fill="#2c292a" data-text="O" transform="matrix(11 0 0 -11 49.037 210.803)" href="#by"/><use fill="#2c292a" data-text="—" transform="matrix(11 0 0 -11 57.87 210.803)" href="#bi"/><use fill="#2c292a" data-text="H" transform="matrix(11 0 0 -11 69.53 210.803)" href="#bj"/><use fill="#2c292a" data-text="4" transform="matrix(11 0 0 -11 173.05 210.803)" href="#bk"/><use fill="#2c292a" data-text="6" transform="matrix(11 0 0 -11 178.55 210.803)" href="#bo"/><use fill="#2c292a" data-text="7" transform="matrix(11 0 0 -11 184.05 210.803)" href="#bp"/><use fill="#2c292a" data-text="N" transform="matrix(11 0 0 -11 287.275 210.803)" href="#bv"/><use fill="#2c292a" data-text="≡" transform="matrix(14.3 0 0 -11 294.359 210.808)" href="#bw"/><use fill="#2c292a" data-text="N" transform="matrix(11 0 0 -11 307.658 210.808)" href="#bv"/><use fill="#2c292a" data-text="9" transform="matrix(11 0 0 -11 410.2 210.808)" href="#bs"/><use fill="#2c292a" data-text="4" transform="matrix(11 0 0 -11 415.7 210.808)" href="#bk"/><use fill="#2c292a" data-text="5" transform="matrix(11 0 0 -11 421.2 210.808)" href="#bn"/></g></svg>