<svg xmlns:xlink="http://www.w3.org/1999/xlink" viewBox="0 0 481.6 199.5"><defs><path id="b" d="M.4.6v.2h.1zV.3L.5.2h.1l.1.1L.6.1h.1L.9 0H.3v.3-.2H0l.2.2L.1.2l.2.1H.2zM.5 0l.2.2H.4z"/><path id="c" d="m0 0 .3.2v.3L.2.7H0V.4v.1h.3V.2L.2.1h.2V0z"/><path id="d" d="M0 .3h.6z"/><path id="e" d="M.1.6h.2V0H.2h.1v.5"/><path id="f" d="M.4.7 1 .4H.5V.2h.1V0H.4v-.2.3H.3V0L.2.2h.1v.2l.2.1h.1-.4.1zH.2zM.1.5V.3M.3 0v.1z"/><path id="g" d="M.4.7h.3V.3H.5L.4.2V0H0q.5 0 .3.5h.1V.3v.2-.3zM.8.2v.2L1 0H.5v.2V0h.3"/><path id="h" d="M.6.5v.2h.1zV.3h.2V.1H.4L.2 0l.2.2H0h.2v.4h.2V.5m0-.2v.1M.8 0 .6.2h.2z"/><path id="i" d="m.3.3.2.5h.1V.5L.8.4H1Q1 .2.8.3H.6L.5.6V.2L.3 0q.2.2.1.3zV0H.1v.3H0V.1v.2l.1.2.1.1zm.3-.5v.5z"/><path id="j" d="M.5.6v.2h.1zL1 .4H.6V.2h.1-.1V0H1 .5v.1H.2h.1v.3q0 .1.1 0zM0 .3l.1.1.1.2.1.1V.5h.1-.1L.2.3h.1V0H.1v.2zm.6.1V.1h.1z"/><path id="k" d="M.3.5h.2l.2.2L.6.5h.2V0H.4h.2v.3H.4V0H.2v.3H.1q0 .3.2.3zm0-.3h.1v.2H.3zm.4 0L.4.4h.2"/><path id="l" d="M.3.5v.2h.2V.6l.1.2V.7L.4.4h.3L.5.3.7.1H1L.8 0H.5v.1H.3v.1h.2q0 .1 0 0L.4 0v.4H.1h.1z"/><path id="n" d="M.6.8V.5h.2-.2V.3H1V.2H.1h.2v.3H.2h.1v.3h.1V.5h.2zM.4.3h.2v.2H.4zm0-.1V0L0-.1zm.2 0L1 0H.5"/><path id="o" d="M.6.8Q.8.5 1 .5L.9.4zL.4.3.3.4zM.2.8h.1V0H.2v.4H0zM.7.4v-.5zM.5.4V0L.4-.1H.3l.1.2z"/><path id="p" d="M.2.8V.5h.1-.1.1V0L.2-.1v.3H0v.1h.1v.5m.6 0V.6h.1V.5H1V.4H.7V.2h.1V0H.7h.1-.6v.3L.5 0v.6h.1V0h.1-.3v.2h.1v.3h.1zM.8.5"/><path id="q" d="M.3.8V.4H1 .6Q.6.1.9.1V0Q.4 0 .4.4H.3V0h.2L.3-.1v.5H0h.1v.4m.5 0V.6L.5.5z"/><path id="r" d="M.3.7 0 0z"/><path id="s" d="M.2.5h.2V0h.1-.1v.4zV0H0v.4z"/><path id="t" d="M.2.5h.5V0h.1-.2v.4H.5V0H.3zH.1V0H0h.1v.4"/><path id="u" d="M.6.7V.5zH.2V.1L.3 0h.3-.5v.2L0 .3v.2l.1.1h.3"/><path id="v" d="M0 .4h1z"/><path id="w" d="M0 .3v.2l.1.1h.3V0H.1L0 .1zM.2 0v.6H.1V0"/><path id="x" d="M.2.1h.1V0H.1z"/><path id="y" d="M.2.7h.2V.6zV.5h.1L.4.2V0H0h.2v.4H0z"/><path id="z" d="M0 .1v.1l.3.5V.2h.2-.1V0H.3zm0 .1h.3v.4z"/><path id="A" d="M0 .6h.6L.3.7H.2V.3h.1v.1h.1V.3v.1H.1V0h.1H0z"/><path id="B" d="M.2.3h.1v.2H0h.3V0H0h.2z"/><path id="C" d="M0 .2h.6zm0 .2h.6z"/><path id="D" d="M.2.7V0H0h.1v.7"/><path id="E" d="M.3.3H0v.3h.3V0H.1h.1zM.1.6V.3h.2v.3z"/><path id="F" d="M.8.4H.2zm0-.2H.2zm0 .1H.2z"/><path id="G" d="M0 .6h.5a.1.1 0 0 0 0-.2V0H0zm.3 0V.3h.2v.3M.2.3V0h.3v.3H.1"/><path id="H" d="M.2.5V.3zh.2V.3zH.1V0H0h.1v.4"/><path id="I" d="M.2.3H0v.2h.3zL.4.2V0H0v.2zm0 0V0h.1v.3m0 0v.3H.2z"/><path id="J" d="M.2.7.6 0v.5h.1V0H.5zV0H.1v.6"/><path id="K" d="M.1 0v.6h.2V0z"/><path id="L" d="M.5.7.1.4V.3h.2V0H0v.5l.2.1zM.4 0v.3H.1V0"/><path id="M" d="M.2.3h.4v.3H.4h.2V0v.3zV0h.1-.2v.6h.2z"/><path id="N" d="M.1.7h.4L.3 0H.2l.2.6H0"/><clipPath id="a"><path d="M0 199.5h481.6V0H0Z" clip-rule="evenodd"/></clipPath></defs><g clip-path="url(#a)"><use xlink:href="#b" fill="#2c292a" data-text="表" transform="matrix(12 0 0 -12 161.81 12.654)"/><use xlink:href="#c" fill="#2c292a" data-text="2" transform="matrix(12 0 0 -12 176.81 12.654)"/><use xlink:href="#d" fill="#2c292a" data-text="-" transform="matrix(12 0 0 -12 182.81 12.654)"/><use xlink:href="#e" fill="#2c292a" data-text="1" transform="matrix(12 0 0 -12 191.27 12.654)"/><use xlink:href="#d" fill="#2c292a" data-text="-" transform="matrix(12 0 0 -12 197.27 12.654)"/><use xlink:href="#e" fill="#2c292a" data-text="1" transform="matrix(12 0 0 -12 205.73 12.654)"/><use xlink:href="#f" fill="#2c292a" data-text="常" transform="matrix(12 0 0 -12 223.73 12.654)"/><use xlink:href="#g" fill="#2c292a" data-text="见" transform="matrix(12 0 0 -12 235.73 12.654)"/><use xlink:href="#h" fill="#2c292a" data-text="共" transform="matrix(12 0 0 -12 247.73 12.654)"/><use xlink:href="#i" fill="#2c292a" data-text="价" transform="matrix(12 0 0 -12 259.73 12.654)"/><use xlink:href="#j" fill="#2c292a" data-text="键" transform="matrix(12 0 0 -12 271.73 12.654)"/><use xlink:href="#k" fill="#2c292a" data-text="的" transform="matrix(12 0 0 -12 283.73 12.654)"/><use xlink:href="#j" fill="#2c292a" data-text="键" transform="matrix(12 0 0 -12 295.73 12.654)"/><use xlink:href="#l" fill="#2c292a" data-text="长" transform="matrix(12 0 0 -12 307.73 12.654)"/><path fill="none" stroke="#fff" stroke-miterlimit="10" stroke-width="0.8" d="M5.1 50.2V26.4m471.3 23.8V26.4M5.1 74.3V50.2m471.3 24.1V50.2M5.1 98.3v-24m471.3 24v-24M5.1 122.4v-24m471.3 24v-24M5.1 146.5v-24m471.3 24v-24M5.1 170.6v-24m471.3 24v-24M5.1 194.3v-23.7m471.3 23.7v-23.7"/><path fill="none" stroke="#2c292a" stroke-miterlimit="10" stroke-width="0.8" d="M5.5 50.2h117m.2 0h117m3.7 0h117m.2 0h115.5M4.7 26h117.9m0 0h117m3.8 0h117m.1 0h116.3M4.7 194.7h117.9m0 0h117m3.8 0h117m.1 0h116.3"/><path fill="none" stroke="#2c292a" stroke-miterlimit="10" stroke-width="0.3" d="M122.6 50.2V26.4m237.9 23.8V26.4M122.6 74.1v-24m237.9 24v-24M122.6 98.2V74.4m237.9 23.8V74.4m-237.9 47.9V98.5m237.9 23.8V98.5m-237.9 47.9v-23.8m237.9 23.8v-23.8m-237.9 47.9v-23.8m237.9 23.8v-23.8m-237.9 47.6v-23.5m237.9 23.5v-23.5M5.5 74.3h117m.1 0h117m3.8 0h117m.1 0H476M5.5 98.3h117m.1 0h117m3.8 0h117m.1 0H476M5.5 122.4h117m.1 0h117m3.8 0h117m.1 0H476M5.5 146.5h117m.1 0h117m3.8 0h117m.1 0H476M5.5 170.6h117m.1 0h117m3.8 0h117m.1 0H476"/><path fill="none" stroke="#2c292a" stroke-miterlimit="10" stroke-width="0.8" d="M239.7 26h3.7M240 50.2V26.4m3 23.8V26.4m-3 47.9V50.2m3 24.1V50.2m-3 48.1v-24m3 24v-24m-3 48.1v-24m3 24v-24m-3 48.1v-24m3 24v-24m-3 48.1v-24m3 24v-24m-3 47.7v-23.7m3 23.7v-23.7m-3.3 24.1h3.7"/><use xlink:href="#n" fill="#2c292a" data-text="共" transform="matrix(10.5 0 0 -10.5 48.1 41.883)"/><use xlink:href="#o" fill="#2c292a" data-text="价" transform="matrix(10.5 0 0 -10.5 58.6 41.883)"/><use xlink:href="#p" fill="#2c292a" data-text="键" transform="matrix(10.5 0 0 -10.5 69.1 41.883)"/><use xlink:href="#p" fill="#2c292a" data-text="键" transform="matrix(10.5 0 0 -10.5 160.04 41.883)"/><use xlink:href="#q" fill="#2c292a" data-text="长" transform="matrix(10.5 0 0 -10.5 170.54 41.883)"/><use xlink:href="#r" fill="#2c292a" data-text="/" transform="matrix(10.5 0 0 -10.5 183.666 41.883)"/><use xlink:href="#s" fill="#2c292a" data-text="n" transform="matrix(10.5 0 0 -10.5 187.834 41.883)"/><use xlink:href="#t" fill="#2c292a" data-text="m" transform="matrix(10.5 0 0 -10.5 193.84 41.883)"/><use xlink:href="#n" fill="#2c292a" data-text="共" transform="matrix(10.5 0 0 -10.5 285.999 41.883)"/><use xlink:href="#o" fill="#2c292a" data-text="价" transform="matrix(10.5 0 0 -10.5 296.499 41.883)"/><use xlink:href="#p" fill="#2c292a" data-text="键" transform="matrix(10.5 0 0 -10.5 306.999 41.883)"/><use xlink:href="#p" fill="#2c292a" data-text="键" transform="matrix(10.5 0 0 -10.5 397.078 41.883)"/><use xlink:href="#q" fill="#2c292a" data-text="长" transform="matrix(10.5 0 0 -10.5 407.578 41.883)"/><use xlink:href="#r" fill="#2c292a" data-text="/" transform="matrix(10.5 0 0 -10.5 420.703 41.883)"/><use xlink:href="#s" fill="#2c292a" data-text="n" transform="matrix(10.5 0 0 -10.5 425.082 41.883)"/><use xlink:href="#t" fill="#2c292a" data-text="m" transform="matrix(10.5 0 0 -10.5 431.088 41.883)"/><use xlink:href="#u" fill="#2c292a" data-text="C" transform="matrix(11 0 0 -11 50.369 66.157)"/><use xlink:href="#v" fill="#2c292a" data-text="—" transform="matrix(11 0 0 -11 58.355 66.157)"/><use xlink:href="#u" fill="#2c292a" data-text="C" transform="matrix(11 0 0 -11 69.355 66.157)"/><use xlink:href="#w" fill="#2c292a" data-text="0" transform="matrix(11 0 0 -11 167.552 66.157)"/><use xlink:href="#x" fill="#2c292a" data-text="." transform="matrix(11 0 0 -11 173.04 66.157)"/><use xlink:href="#e" fill="#2c292a" data-text="1" transform="matrix(11 0 0 -11 178.54 66.157)"/><use xlink:href="#y" fill="#2c292a" data-text="5" transform="matrix(11 0 0 -11 184.04 66.157)"/><use xlink:href="#z" fill="#2c292a" data-text="4" transform="matrix(11 0 0 -11 189.54 66.157)"/><use xlink:href="#A" fill="#2c292a" data-text="F" transform="matrix(11 0 0 -11 289.256 66.157)"/><use xlink:href="#v" fill="#2c292a" data-text="—" transform="matrix(11 0 0 -11 296.252 66.157)"/><use xlink:href="#A" fill="#2c292a" data-text="F" transform="matrix(11 0 0 -11 307.252 66.157)"/><use xlink:href="#w" fill="#2c292a" data-text="0" transform="matrix(11 0 0 -11 404.7 66.157)"/><use xlink:href="#x" fill="#2c292a" data-text="." transform="matrix(11 0 0 -11 410.19 66.157)"/><use xlink:href="#e" fill="#2c292a" data-text="1" transform="matrix(11 0 0 -11 415.69 66.157)"/><use xlink:href="#z" fill="#2c292a" data-text="4" transform="matrix(11 0 0 -11 421.19 66.157)"/><use xlink:href="#B" fill="#2c292a" data-text="3" transform="matrix(11 0 0 -11 426.69 66.157)"/><use xlink:href="#u" fill="#2c292a" data-text="C" transform="matrix(11 0 0 -11 49.73 90.247)"/><use xlink:href="#C" fill="#2c292a" data-text="=" transform="matrix(11 0 0 -11 57.712 90.247)"/><use xlink:href="#C" fill="#2c292a" data-text="=" transform="matrix(11 0 0 -11 62.63 90.247)"/><use xlink:href="#u" fill="#2c292a" data-text="C" transform="matrix(11 0 0 -11 69.966 90.247)"/><use xlink:href="#w" fill="#2c292a" data-text="0" transform="matrix(11 0 0 -11 167.54 90.247)"/><use xlink:href="#x" fill="#2c292a" data-text="." transform="matrix(11 0 0 -11 173.03 90.247)"/><use xlink:href="#e" fill="#2c292a" data-text="1" transform="matrix(11 0 0 -11 178.53 90.247)"/><use xlink:href="#B" fill="#2c292a" data-text="3" transform="matrix(11 0 0 -11 184.03 90.247)"/><use xlink:href="#z" fill="#2c292a" data-text="4" transform="matrix(11 0 0 -11 189.53 90.247)"/><use xlink:href="#u" fill="#2c292a" data-text="C" transform="matrix(11 0 0 -11 285.032 90.247)"/><use xlink:href="#D" fill="#2c292a" data-text="l" transform="matrix(11 0 0 -11 293.018 90.247)"/><use xlink:href="#v" fill="#2c292a" data-text="—" transform="matrix(11 0 0 -11 296.24 90.247)"/><use xlink:href="#u" fill="#2c292a" data-text="C" transform="matrix(11 0 0 -11 307.24 90.247)"/><use xlink:href="#D" fill="#2c292a" data-text="l" transform="matrix(11 0 0 -11 315.227 90.247)"/><use xlink:href="#w" fill="#2c292a" data-text="0" transform="matrix(11 0 0 -11 404.69 90.247)"/><use xlink:href="#x" fill="#2c292a" data-text="." transform="matrix(11 0 0 -11 410.179 90.247)"/><use xlink:href="#e" fill="#2c292a" data-text="1" transform="matrix(11 0 0 -11 415.679 90.247)"/><use xlink:href="#E" fill="#2c292a" data-text="9" transform="matrix(11 0 0 -11 421.179 90.247)"/><use xlink:href="#E" fill="#2c292a" data-text="9" transform="matrix(11 0 0 -11 426.679 90.247)"/><use xlink:href="#u" fill="#2c292a" data-text="C" transform="matrix(11 0 0 -11 50.479 114.337)"/><use xlink:href="#F" fill="#2c292a" data-text="≡" transform="matrix(14.3 0 0 -11 56.777 114.346)"/><use xlink:href="#u" fill="#2c292a" data-text="C" transform="matrix(11 0 0 -11 69.218 114.346)"/><use xlink:href="#w" fill="#2c292a" data-text="0" transform="matrix(11 0 0 -11 167.558 114.346)"/><use xlink:href="#x" fill="#2c292a" data-text="." transform="matrix(11 0 0 -11 173.047 114.346)"/><use xlink:href="#e" fill="#2c292a" data-text="1" transform="matrix(11 0 0 -11 178.547 114.346)"/><use xlink:href="#c" fill="#2c292a" data-text="2" transform="matrix(11 0 0 -11 184.047 114.346)"/><use xlink:href="#e" fill="#2c292a" data-text="1" transform="matrix(11 0 0 -11 189.547 114.346)"/><use xlink:href="#G" fill="#2c292a" data-text="B" transform="matrix(11 0 0 -11 283.73 114.346)"/><use xlink:href="#H" fill="#2c292a" data-text="r" transform="matrix(11 0 0 -11 291.132 114.346)"/><use xlink:href="#v" fill="#2c292a" data-text="—" transform="matrix(11 0 0 -11 296.698 114.346)"/><use xlink:href="#G" fill="#2c292a" data-text="B" transform="matrix(11 0 0 -11 307.698 114.346)"/><use xlink:href="#H" fill="#2c292a" data-text="r" transform="matrix(11 0 0 -11 315.101 114.346)"/><use xlink:href="#w" fill="#2c292a" data-text="0" transform="matrix(11 0 0 -11 404.718 114.346)"/><use xlink:href="#x" fill="#2c292a" data-text="." transform="matrix(11 0 0 -11 410.207 114.346)"/><use xlink:href="#c" fill="#2c292a" data-text="2" transform="matrix(11 0 0 -11 415.707 114.346)"/><use xlink:href="#c" fill="#2c292a" data-text="2" transform="matrix(11 0 0 -11 421.207 114.346)"/><use xlink:href="#I" fill="#2c292a" data-text="8" transform="matrix(11 0 0 -11 426.707 114.346)"/><use xlink:href="#J" fill="#2c292a" data-text="N" transform="matrix(11 0 0 -11 49.891 138.436)"/><use xlink:href="#F" fill="#2c292a" data-text="≡" transform="matrix(14.3 0 0 -11 56.524 138.44)"/><use xlink:href="#J" fill="#2c292a" data-text="N" transform="matrix(11 0 0 -11 69.251 138.44)"/><use xlink:href="#w" fill="#2c292a" data-text="0" transform="matrix(11 0 0 -11 167.558 138.44)"/><use xlink:href="#x" fill="#2c292a" data-text="." transform="matrix(11 0 0 -11 173.047 138.44)"/><use xlink:href="#e" fill="#2c292a" data-text="1" transform="matrix(11 0 0 -11 178.547 138.44)"/><use xlink:href="#e" fill="#2c292a" data-text="1" transform="matrix(11 0 0 -11 184.047 138.44)"/><use xlink:href="#w" fill="#2c292a" data-text="0" transform="matrix(11 0 0 -11 189.547 138.44)"/><use xlink:href="#K" fill="#2c292a" data-text="I" transform="matrix(11 0 0 -11 291.682 138.44)"/><use xlink:href="#v" fill="#2c292a" data-text="—" transform="matrix(11 0 0 -11 296.357 138.44)"/><use xlink:href="#K" fill="#2c292a" data-text="I" transform="matrix(11 0 0 -11 308.017 138.44)"/><use xlink:href="#w" fill="#2c292a" data-text="0" transform="matrix(11 0 0 -11 404.707 138.44)"/><use xlink:href="#x" fill="#2c292a" data-text="." transform="matrix(11 0 0 -11 410.196 138.44)"/><use xlink:href="#c" fill="#2c292a" data-text="2" transform="matrix(11 0 0 -11 415.696 138.44)"/><use xlink:href="#L" fill="#2c292a" data-text="6" transform="matrix(11 0 0 -11 421.196 138.44)"/><use xlink:href="#L" fill="#2c292a" data-text="6" transform="matrix(11 0 0 -11 426.696 138.44)"/><use xlink:href="#M" fill="#2c292a" data-text="H" transform="matrix(11 0 0 -11 49.22 162.53)"/><use xlink:href="#v" fill="#2c292a" data-text="—" transform="matrix(11 0 0 -11 58.35 162.53)"/><use xlink:href="#M" fill="#2c292a" data-text="H" transform="matrix(11 0 0 -11 69.35 162.53)"/><use xlink:href="#w" fill="#2c292a" data-text="0" transform="matrix(11 0 0 -11 167.558 162.53)"/><use xlink:href="#x" fill="#2c292a" data-text="." transform="matrix(11 0 0 -11 173.047 162.53)"/><use xlink:href="#w" fill="#2c292a" data-text="0" transform="matrix(11 0 0 -11 178.547 162.53)"/><use xlink:href="#N" fill="#2c292a" data-text="7" transform="matrix(11 0 0 -11 184.036 162.53)"/><use xlink:href="#z" fill="#2c292a" data-text="4" transform="matrix(11 0 0 -11 189.536 162.53)"/><use xlink:href="#M" fill="#2c292a" data-text="H" transform="matrix(11 0 0 -11 288.184 162.53)"/><use xlink:href="#v" fill="#2c292a" data-text="—" transform="matrix(11 0 0 -11 297.314 162.53)"/><use xlink:href="#A" fill="#2c292a" data-text="F" transform="matrix(11 0 0 -11 308.314 162.53)"/><use xlink:href="#w" fill="#2c292a" data-text="0" transform="matrix(11 0 0 -11 404.707 162.53)"/><use xlink:href="#x" fill="#2c292a" data-text="." transform="matrix(11 0 0 -11 410.196 162.53)"/><use xlink:href="#w" fill="#2c292a" data-text="0" transform="matrix(11 0 0 -11 415.696 162.53)"/><use xlink:href="#E" fill="#2c292a" data-text="9" transform="matrix(11 0 0 -11 421.185 162.53)"/><use xlink:href="#c" fill="#2c292a" data-text="2" transform="matrix(11 0 0 -11 426.685 162.53)"/><use xlink:href="#M" fill="#2c292a" data-text="H" transform="matrix(11 0 0 -11 48.175 186.62)"/><use xlink:href="#v" fill="#2c292a" data-text="—" transform="matrix(11 0 0 -11 57.305 186.62)"/><use xlink:href="#u" fill="#2c292a" data-text="C" transform="matrix(11 0 0 -11 68.305 186.62)"/><use xlink:href="#D" fill="#2c292a" data-text="l" transform="matrix(11 0 0 -11 76.291 186.62)"/><use xlink:href="#w" fill="#2c292a" data-text="0" transform="matrix(11 0 0 -11 167.547 186.62)"/><use xlink:href="#x" fill="#2c292a" data-text="." transform="matrix(11 0 0 -11 173.036 186.62)"/><use xlink:href="#e" fill="#2c292a" data-text="1" transform="matrix(11 0 0 -11 178.536 186.62)"/><use xlink:href="#c" fill="#2c292a" data-text="2" transform="matrix(11 0 0 -11 184.036 186.62)"/><use xlink:href="#N" fill="#2c292a" data-text="7" transform="matrix(11 0 0 -11 189.536 186.62)"/><use xlink:href="#M" fill="#2c292a" data-text="H" transform="matrix(11 0 0 -11 285.632 186.62)"/><use xlink:href="#v" fill="#2c292a" data-text="—" transform="matrix(11 0 0 -11 294.762 186.62)"/><use xlink:href="#G" fill="#2c292a" data-text="B" transform="matrix(11 0 0 -11 305.762 186.62)"/><use xlink:href="#H" fill="#2c292a" data-text="r" transform="matrix(11 0 0 -11 313.165 186.62)"/><use xlink:href="#w" fill="#2c292a" data-text="0" transform="matrix(11 0 0 -11 404.696 186.62)"/><use xlink:href="#x" fill="#2c292a" data-text="." transform="matrix(11 0 0 -11 410.185 186.62)"/><use xlink:href="#e" fill="#2c292a" data-text="1" transform="matrix(11 0 0 -11 415.685 186.62)"/><use xlink:href="#z" fill="#2c292a" data-text="4" transform="matrix(11 0 0 -11 421.185 186.62)"/><use xlink:href="#e" fill="#2c292a" data-text="1" transform="matrix(11 0 0 -11 426.685 186.62)"/></g></svg>