<svg xmlns="http://www.w3.org/2000/svg" width="481.55" height="199.48" viewBox="0 0 481.55 199.48" xmlns:xlink="http://www.w3.org/1999/xlink"><defs><clipPath id="a"><path d="M0 199.479h481.55V0H0Z" clip-rule="evenodd"/></clipPath><path id="b" d="M.395.605q.015 0 .011.028l.008.14v.004Q.41.79.414.793A.2.2 0 0 0 .488.781h.004Q.516.773.512.766A.5.5 0 0 1 .488.64q0-.012.008-.008L.527.64a.2.2 0 0 1 .09.03Q.63.673.633.638A.03.03 0 0 0 .62.613L.492.563Q.476.543.488.523l.086.02.043.008Q.633.527.61.496.606.488.582.488.578.488.566.48L.546.47.517.457Q.48.446.48.437.473.419.484.415A2 2 0 0 1 .63.45.1.1 0 0 0 .664.395Q.66.38.637.379A.1.1 0 0 0 .609.375L.582.371.562.367A1 1 0 0 1 .45.328Q.454.298.5.281q.063.02.145.067a.3.3 0 0 1 .085.07q.048.007.063-.05Q.789.362.781.362q-.02 0-.043-.02a1 1 0 0 0-.18-.097 1 1 0 0 1 .145-.09A1 1 0 0 1 .855.102l.06-.016.007-.004Q.968.067.96.051.942.027.848.023A.4.4 0 0 0 .703.04L.7.047a.13.13 0 0 1-.023.058L.672.11Q.645.14.625.145a.48.48 0 0 0-.246-.223.24.24 0 0 0-.035.09L.348.09q.011.125.007.125Q.328.203.262.098q0-.02-.012-.024Q.067.008.078.047a.6.6 0 0 1 .262.23L.344.29Q.34.297.332.293L.258.277A.3.3 0 0 1 .16.25L.148.242Q.133.222.125.23.095.281.109.3l.145.044Q.3.356.344.379q.023.004.043.02Q.399.41.383.417L.352.414.328.41.305.398Q.3.39.293.395a.08.08 0 0 0-.031.058q.004.008.07.024l.055.015Q.41.5.398.527q0 .004-.015.004A.14.14 0 0 1 .3.508L.297.504Q.297.5.285.5.27.496.25.574l.04.008Q.331.59.394.605M.418.023q.105.012.187.13 0 .007-.023.011L.57.168q-.003 0-.02.016L.517.207.484.215A.4.4 0 0 0 .426.23Q.418.235.406.21A1 1 0 0 1 .391.07q0-.046.027-.047"/><path id="c" d="M.033-.037v.022q.064.056.095.087A2 2 0 0 1 .31.29a.3.3 0 0 1 .036.095l.004.05a.3.3 0 0 1-.008.059.1.1 0 0 1-.023.05.2.2 0 0 1-.05.038A.14.14 0 0 1 .203.6a.13.13 0 0 1-.08-.032.1.1 0 0 1-.028-.03L.068.49H.053l.012.055q.006.02.019.043T.12.629a.17.17 0 0 0 .11.042.3.3 0 0 0 .104-.023.1.1 0 0 0 .042-.03.2.2 0 0 0 .05-.095.3.3 0 0 0-.004-.108L.408.376.365.298a1.4 1.4 0 0 0-.148-.17L.12.035h.22l.033.003a.2.2 0 0 1 .04.011q.019.008.024.015l.018.029h.018L.457.059.44.009.425-.037z"/><path id="d" d="M.048.318h.6V.276h-.6z"/><path id="e" d="m.12.571-.003.02.177.08v-.6Q.294.03.297.02A.03.03 0 0 1 .31 0l.026-.007.042-.002v-.028H.125v.028a.2.2 0 0 1 .047.007l.02.009Q.2.013.205.024A.1.1 0 0 1 .21.068v.45q0 .021-.002.036Q.205.57.2.575T.179.582L.15.579z"/><path id="f" d="M.438.691v.086q0 .055.019.067.015.012.074-.012.024-.02.016-.027Q.515.793.512.707V.676A.3.3 0 0 1 .594.73l.015.016q.028.024.032.02Q.67.715.668.703A.14.14 0 0 0 .613.68L.586.668.512.641Q.507.609.512.609.519.606.68.61h.007Q.809.593.856.461q0-.008-.027-.008L.754.445.719.45a.1.1 0 0 1-.047.004.05.05 0 0 0-.027-.035.1.1 0 0 1-.036-.047A.05.05 0 0 0 .59.34.1.1 0 0 0 .548.32H.539Q.532.305.535.297.547.293.57.3l.028.004A1 1 0 0 0 .71.285Q.754.265.746.254A.3.3 0 0 0 .723.188a.6.6 0 0 1-.04-.122Q.665.005.634.008A.1.1 0 0 0 .59.039L.582.047a.3.3 0 0 1-.078.05.1.1 0 0 1 0-.034V.007a.5.5 0 0 1 .004-.11Q.51-.117.465-.117q-.02 0-.02.012l.004.007a.2.2 0 0 1 .008.055v.082q0 .06-.004.18Q.453.23.441.23.371.215.363.176L.36.129a.2.2 0 0 0-.004-.05Q.355.054.34.05.32.046.312.066.298.144.29.215q0 .023.02.035.003.004.02.004.007.004.015.004.012.004.035.004.044.003.062.02Q.465.3.437.315H.423q-.015 0-.02.008a.1.1 0 0 1-.02.02.15.15 0 0 0-.05.102q-.008.01.102.042a.6.6 0 0 0 .132.024q.031 0 .09-.043.075.004.086.043 0 .05-.086.058A.3.3 0 0 1 .531.54a.2.2 0 0 0-.086 0A.5.5 0 0 1 .301.503Q.289.508.289.524q.015.019.063.042L.398.59l.036.015a.2.2 0 0 1 0 .067L.394.637Q.342.582.32.586.277.594.277.664l.016.004q.07.004.145.023M.14.411q.039.085.097.1L.242.497l.004-.05A.2.2 0 0 0 .25.382Q.18.375.14.41m.282 0Q.425.38.457.375.503.379.52.41.53.446.516.46.488.47.457.45.422.43.422.41M.59.102Q.61.098.62.125a.2.2 0 0 1 .02.086Q.636.25.555.258q-.028 0-.04-.012a.1.1 0 0 1-.011-.05V.132A.4.4 0 0 1 .59.102"/><path id="g" d="M.352.668q.03.008.062.027.176.063.277.008Q.723.687.703.66A.2.2 0 0 1 .68.566 3 3 0 0 1 .668.277Q.656.203.5.34A.6.6 0 0 0 .383.172L.375.164Q.336.13.332.098.336.066.301.055.156.005.129.015.105.025.105.028q0 .008.02.02.36.16.324.535 0 .03.055.016Q.53.59.524.566A.1.1 0 0 1 .52.527L.516.484Q.516.4.504.355l.02-.003Q.582.343.582.375q.007.117 0 .266Q.574.7.508.67.383.646.383.52A1 1 0 0 1 .379.316Q.359.278.324.296A.75.75 0 0 0 .32.634q0 .027.032.035M.828.113a.6.6 0 0 1 .012.14q0 .025.008.024.008 0 .015-.023A.7.7 0 0 0 .906.02Q.918-.024.883-.023A1 1 0 0 0 .66-.035q-.167.007-.176.16v.023q.009.06.008.118 0 .015.051.004Q.57.266.555.238a.3.3 0 0 1-.02-.117Q.54.051.63.047.833.04.83.113"/><path id="h" d="M.574.512q.015 0 .02.02a3 3 0 0 1 .035.202q.004.04.031.04Q.742.75.738.713a.5.5 0 0 1-.05-.179l.046.009Q.762.539.79.449.793.434.79.426.782.418.762.422A.3.3 0 0 1 .668.43L.645.352Q.64.324.68.312.805.309.898.32.942.313.961.21.957.169.93.18a.68.68 0 0 1-.442.054.22.22 0 0 1-.09-.175Q.36-.016.218-.008q-.01 0-.011.004 0 .005.008.012A1 1 0 0 0 .293.07q.094.067.105.157L.316.207A.6.6 0 0 1 .13.152Q.106.15.082.222q.14.017.266.051.046.012.047.036 0 .075-.008.07Q.35.387.285.359.27.356.246.406.226.452.242.457q.066 0 .133.023 0 .012-.004.04a1 1 0 0 0-.004.128q.004.044.024.04.105-.012.097-.04Q.458.61.461.5.477.5.504.504zM.504.32q.055 0 .07.098 0 .004-.008.004Q.481.422.465.41.453.39.46.352.473.32.504.32M.75-.03.656.074Q.605.14.578.172.57.195.59.195.702.156.797.105.84.082.785-.027.77-.051.75-.031"/><path id="i" d="M.281.336A.95.95 0 0 1 .547.75q0 .031.066-.004Q.644.742.586.656.57.614.598.582A.8.8 0 0 1 .78.438Q.906.387.973.344q.01-.008.011-.02Q.981.312.964.31a.3.3 0 0 0-.12.004.4.4 0 0 1-.086.011Q.715.32.718.371a.1.1 0 0 1-.046.074L.637.473.578.516Q.531.547.5.512A.4.4 0 0 1 .422.379q.105-.02.086-.05Q.465.183.48.163.495.15.473.13.403.032.343.039.334.034.329.04.324.043.336.055.465.183.434.34.42.375.39.344.376.304.28.297A.4.4 0 0 1 .258.16Q.258.02.223 0 .199-.004.195.016L.2.152q0 .09.004.133.004.02-.004.02Q.196.309.18.297a1 1 0 0 1-.11-.09Q.055.192.047.199.04.207.047.227.07.277.14.383.168.422.23.55q.06.118.081.153Q.318.742.376.68.399.665.379.645.207.398.227.387q0-.028.03-.035Q.279.348.282.336m.348-.41Q.59-.078.59-.051a1 1 0 0 0-.007.153q0 .13.004.191a.3.3 0 0 1-.004.09v.012q-.011.03.07.007.031-.004.016-.05a2 2 0 0 1-.02-.399q.01-.03-.02-.027"/><path id="j" d="M.527.598.56.602q.045.004.058.007.008 0 .012.02v.016Q.64.75.637.75.63.774.703.75.723.746.711.71L.69.64Q.688.63.691.626q.005-.004.02 0 .074.02.129-.02Q.855.597.848.582L.832.547Q.824.53.848.53.899.547.902.496.91.465.875.473a.2.2 0 0 1-.05.004Q.803.477.8.453.793.391.773.391L.734.387A.1.1 0 0 1 .695.383Q.685.37.695.352l.016.003.05.008Q.786.363.79.332.785.302.762.305a.1.1 0 0 1-.059 0Q.68.285.695.277.743.286.79.29.817.293.832.25.84.235.832.23.828.222.809.227a.4.4 0 0 1-.11 0Q.676.223.68.203q0-.117.028-.105Q.93.028.957 0q.02-.011.016-.02 0-.008-.024-.011a.4.4 0 0 0-.172.015L.73-.012q-.015 0-.015.024Q.707.063.637.09a.6.6 0 0 0-.125.05Q.484.165.46.134A.2.2 0 0 0 .34.05Q.32.046.316.055q0 .012.016.023a.5.5 0 0 1 .09.082q.016.016-.02.027-.015.01-.02.033.006.05.033.038Q.43.243.454.23q.015.004.01.055Q.47.316.423.301.402.293.395.3.39.313.406.324q.047.024.07.102.004.02-.007.02Q.454.441.445.421.422.39.395.422.366.46.395.477.477.51.53.492a.3.3 0 0 1 .086.02Q.632.527.62.547A.1.1 0 0 1 .578.53Q.555.52.543.535.513.601.527.598M.04.348Q.05.36.08.383l.034.035q.063.055.121.16.044.07.09.133Q.344.738.38.68.4.656.38.648A.3.3 0 0 1 .336.605Q.328.598.328.59.332.586.344.586q.011 0 .039.004H.41Q.425.594.43.582A.03.03 0 0 0 .426.559Q.35.48.309.523.28.551.258.523A.5.5 0 0 1 .199.445Q.192.43.195.425q.005-.003.02 0 .054.017.11.044Q.36.48.362.453.371.414.34.398.265.368.285.336q.027.008.05.012.029.004.017-.04Q.347.274.305.259.262.254.25.164q0-.023.02-.023.058.01.082.086l.007.02q.005 0 .008-.02Q.374.152.293.067L.253.03Q.244.02.235.02.226.023.22.04.195.081.203.175.203.199.2.203L.18.191Q.15.171.138.203.097.281.133.277.226.29.207.336.177.32.168.367A.6.6 0 0 0 .047.324Q.032.321.027.328.024.336.04.348m.676.175Q.75.527.742.551.73.574.715.574.688.574.688.547.683.52.715.523M.723.47Q.683.47.688.45q0-.023.027-.02.027 0 .027.028.004.015-.02.012M.56.363Q.535.368.543.398l.016.004q.015 0 .058.012.02.024 0 .043-.094 0-.12-.086-.008-.02.015-.02Q.53.349.52.325A1 1 0 0 1 .5.22Q.492.204.516.195.575.172.633.145.629.23.617.215L.551.21Q.528.234.543.246a.3.3 0 0 1 .082.012q.012.02-.004.027L.563.281q-.015 0-.02.024 0 .023.02.023A.2.2 0 0 1 .625.34Q.637.36.617.367A.4.4 0 0 0 .56.363"/><path id="k" d="M.273.457q.023 0 .075.012.09.023.136.004l.07.101q.083.114.114.172L.734.707q.009-.008 0-.02A2 2 0 0 1 .59.513q.136 0 .183.004a.3.3 0 0 0 .098-.02Q.883.485.883.476a.2.2 0 0 1-.028-.07A1.3 1.3 0 0 0 .81.168L.773.047l-.02-.05Q.75-.02.73-.02a.44.44 0 0 0-.195.122Q.515.125.52.132q.007.01.03-.006.106-.06.141-.02.044.044.063.157a.4.4 0 0 1-.008.172Q.738.48.598.469A.12.12 0 0 1 .512.414.3.3 0 0 1 .477.293.6.6 0 0 0 .465.074Q.46.06.41.09.402.098.398.098a.4.4 0 0 0-.062.05A.13.13 0 0 1 .28.121Q.254.098.242.105a.4.4 0 0 0-.027.149V.3L.21.398A.1.1 0 0 0 .176.391Q.156.386.156.395q-.003.01.012.027.148.219.207.273Q.441.652.449.613A.55.55 0 0 1 .273.457M.387.164Q.399.17.402.176a.2.2 0 0 1 .004.043q0 .176-.02.207 0 .003-.015.008Q.321.43.297.406q-.012-.035 0-.05l.062.003Q.38.34.36.313A.1.1 0 0 0 .33.285L.315.281Q.274.258.281.227.29.212.34.234q.015 0 .02-.058Q.374.164.386.164m.289.129Q.664.239.64.223q-.009 0-.028.02L.61.245.605.254A1 1 0 0 1 .54.336Q.524.348.527.356q.008.014.024.01a.24.24 0 0 0 .105-.03Q.68.316.676.293"/><path id="l" d="M.344.523q.008.157 0 .2-.008.015 0 .023.003.008.023.004A.2.2 0 0 0 .461.723Q.465.715.445.66a.3.3 0 0 1-.004-.1q.18.164.172.195Q.617.76.63.758.699.71.679.69A.3.3 0 0 1 .634.656L.617.645A2 2 0 0 0 .441.504q-.01-.055 0-.059l.114.04.101.035a.2.2 0 0 1 .055.023q.004.008.008.008L.73.543Q.805.477.773.445A.3.3 0 0 0 .676.437.3.3 0 0 1 .5.38Q.48.359.488.348.493.336.523.324.58.301.687.234A.8.8 0 0 1 .935.137L.988.12.996.117Q.996.114.988.11.942.063.84.063.754.066.746.082.738.141.645.188L.602.207l-.07.035a1 1 0 0 1-.102.04Q.36.261.355.085.371.035.422.039q.086.03.156.149Q.59.21.586.18.51-.012.359-.066.344-.071.324-.012a.4.4 0 0 0-.012.164q.02.07.02.118 0 .03-.023.027A.3.3 0 0 1 .164.242Q.148.22.137.222.093.318.105.32.2.336.325.387.34.395.34.414v.05z"/><path id="n" d="M.59.8Q.688.8.69.79A.04.04 0 0 0 .688.772a.1.1 0 0 1-.012-.05V.574h.058l.098.004h.047V.504H.824Q.765.508.734.508H.676V.285h.086q.078 0 .164.008v-.09a2 2 0 0 1-.168.008h-.54Q.145.21.067.203v.09Q.152.285.22.285h.094v.223h-.06Q.232.508.177.504H.113v.078Q.2.574.253.574h.06v.16l-.004.04v.023q.093 0 .097-.012L.402.762A.1.1 0 0 1 .391.727V.574h.203V.73Q.594.785.59.8M.39.286h.208v.223H.39zM.35.16Q.442.106.439.094q0-.008-.016-.012a.1.1 0 0 1-.05-.02A4 4 0 0 1 .147-.09a.2.2 0 0 1-.078.067Q.23.043.352.16m.293 0Q.762.097.91-.012L.84-.09Q.735.012.582.098z"/><path id="o" d="M.563.805.582.8Q.684.794.676.785L.672.773Q.664.765.664.762a.46.46 0 0 1 .3-.309.2.2 0 0 1-.066-.086.57.57 0 0 0-.285.344A1.1 1.1 0 0 0 .36.336a.3.3 0 0 1-.086.062q.203.11.29.407M.246.789Q.351.765.348.75.348.746.34.734A.2.2 0 0 1 .312.7 1 1 0 0 0 .259.594V.07q0-.05.004-.11v-.046H.176v.016a1 1 0 0 1 .008.14v.371L.144.38.098.31.039.367Q.168.543.246.79M.688.426q.094 0 .097-.012L.781.398A.1.1 0 0 1 .773.352v-.29q0-.073.008-.148h-.09q.004.035.004.152v.282a.3.3 0 0 1-.007.078m-.211 0h.027Q.579.422.574.41L.57.398A.1.1 0 0 1 .563.363 1 1 0 0 0 .52.07a.45.45 0 0 0-.133-.16.4.4 0 0 1-.086.05q.117.052.148.142Q.48.18.477.426"/><path id="p" d="M.188.805a.4.4 0 0 0 .097-.04Q.285.758.273.75a.2.2 0 0 1-.03-.043L.198.641h.028q.042 0 .09.007V.574a1 1 0 0 1-.098.004H.176L.164.563.114.496l.08-.008H.21l.05.004.06.004v-.07H.28L.238.43H.223V.305h.011q.06 0 .082.004V.242H.223V.074q-.005 0 .039.043.035.035.047.051L.336.094A2 2 0 0 0 .16-.078l-.055.074q.035.02.051.035v.211H.145A1 1 0 0 1 .043.234V.31A1 1 0 0 1 .141.305h.015v.12A.3.3 0 0 1 .098.423v.05L.062.435A.2.2 0 0 1 .036.5L.031.512a.7.7 0 0 1 .157.293M.652.797q.074 0 .086-.008L.734.773A.05.05 0 0 1 .727.746a.2.2 0 0 1-.004-.05h.089l.07.003Q.888.7.888.695A.4.4 0 0 1 .88.605V.56l.043.003h.035V.497L.88.505V.469q0-.055.008-.11Q.888.355.88.355L.816.36h-.09V.29h.047q.082 0 .122.004V.227L.773.234H.727V.152h.058Q.88.152.91.156V.09Q.887.09.824.094H.727V0q.058-.005.199 0h.031a.2.2 0 0 1-.055-.086q-.386.008-.468.11a.6.6 0 0 0-.137-.118.16.16 0 0 1-.074.055.36.36 0 0 1 .168.121 1 1 0 0 0-.07.191l.074.004A.6.6 0 0 1 .422.141q.02.07.035.222A.4.4 0 0 1 .336.34L.312.402Q.349.41.368.453q.047.11.074.188A1 1 0 0 1 .328.629v.07a1 1 0 0 1 .195 0Q.527.7.527.691A3 3 0 0 0 .418.414l.055.004q.03.008.054.012.009 0 .008-.008a1.4 1.4 0 0 0-.07-.348Q.51.015.66 0v.094H.637Q.559.094.527.09v.07a1 1 0 0 1 .11-.008H.66v.082H.64L.575.23H.547v.067A1 1 0 0 1 .64.289h.02v.07H.644A1 1 0 0 1 .55.355v.07A1 1 0 0 1 .645.423H.66v.074H.64Q.579.496.505.492v.074A.6.6 0 0 1 .637.56H.66v.078H.645Q.6.637.55.633v.066Q.566.7.6.695h.055a.4.4 0 0 1-.004.102m.075-.16V.559h.086v.078zm0-.14V.421h.086v.074z"/><path id="q" d="M.254.8Q.366.795.37.782L.367.773A.4.4 0 0 1 .344.617v-.18h.414q.097 0 .16.008V.352a1 1 0 0 1-.156.007h-.2Q.65.13.946.07a.18.18 0 0 1-.097-.097.6.6 0 0 0-.368.386H.344v-.3q.093.066.144.125L.52.09Q.313-.043.28-.09L.22 0l.004.004q.039.035.039.062V.36H.23A1 1 0 0 1 .055.352v.093Q.105.437.23.437h.032v.176q0 .113-.008.176zM.723.785A.5.5 0 0 0 .828.723q0-.005-.015-.008a.1.1 0 0 1-.04-.016A6 6 0 0 0 .488.473.2.2 0 0 1 .406.53q.195.09.317.254"/><path id="r" d="M.293.734.051-.012h-.059l.235.746z"/><path id="s" d="M.15.47V.358q.015.027.032.05Q.2.429.24.452A.2.2 0 0 0 .336.47.15.15 0 0 0 .43.436.12.12 0 0 0 .47.38.4.4 0 0 0 .475.303V.042q0-.021.004-.027L.494.003a.1.1 0 0 1 .03-.006h.022q.017 0 .015-.013 0-.012-.015-.012H.354q-.018 0-.019.012t.019.013h.023q.013 0 .021.007t.014.015l.005.025v.265A.2.2 0 0 1 .409.36a.1.1 0 0 1-.031.053.1.1 0 0 1-.066.025.13.13 0 0 1-.059-.011.18.18 0 0 1-.09-.093A.1.1 0 0 1 .15.29V.046Q.15.03.155.019A.04.04 0 0 1 .168.002q.009-.005.03-.005H.22q.014 0 .014-.013T.22-.028H.032q-.018 0-.017.012.002.013.017.013h.02q.012 0 .022.006t.013.013a.1.1 0 0 1 .005.029v.282A.2.2 0 0 1 .09.37L.079.393Q.069.402.05.402H.022q-.015 0-.015.012 0 .011.018.014L.054.43q.01 0 .038.01a.2.2 0 0 1 .042.018z"/><path id="t" d="M.164.476v-.09l.022.031Q.2.437.228.452A.17.17 0 0 0 .343.47a.1.1 0 0 0 .05-.026.1.1 0 0 0 .035-.04L.44.376q.014.026.024.039.01.015.027.025.016.012.043.024A.14.14 0 0 0 .671.453.1.1 0 0 0 .718.399.2.2 0 0 0 .729.324V.04q0-.018.005-.026A.04.04 0 0 1 .748.001.1.1 0 0 1 .78-.004h.018q.014 0 .014-.013T.798-.029H.61q-.015 0-.017.012t.018.013h.017q.017 0 .024.007.009.006.012.017l.004.025v.27a.2.2 0 0 1-.008.06.1.1 0 0 1-.028.049Q.612.444.57.44A.12.12 0 0 1 .492.408.2.2 0 0 1 .45.356.1.1 0 0 1 .441.322V.051q0-.027.013-.041t.037-.014h.02q.013 0 .013-.013T.51-.029H.313Q.3-.03.3-.017t.014.013h.015A.1.1 0 0 1 .36.002a.03.03 0 0 1 .016.015l.005.027v.281A.2.2 0 0 1 .372.38a.1.1 0 0 1-.03.044.1.1 0 0 1-.052.02A.1.1 0 0 1 .24.43.2.2 0 0 1 .188.38Q.162.34.163.318L.164.041q0-.021.004-.029A.03.03 0 0 1 .183 0L.21-.004h.021q.015 0 .016-.013 0-.012-.016-.012H.038q-.012 0-.012.012t.013.013h.017l.027.005a.03.03 0 0 1 .015.015l.006.023v.302Q.104.367.1.378L.083.396a.1.1 0 0 1-.03.008L.029.405q-.012 0-.014.012 0 .013.014.014h.023q.017 0 .033.004.016.003.031.01l.028.017z"/><path id="u" d="m.576.679.049-.16Q.63.5.618.497.606.49.6.504L.586.526.553.573a.2.2 0 0 1-.057.05.17.17 0 0 1-.102.023.2.2 0 0 1-.171-.11.5.5 0 0 1-.043-.21Q.18.23.213.164A.26.26 0 0 1 .3.062.2.2 0 0 1 .418.027q.057 0 .095.022a.2.2 0 0 1 .065.059l.04.054.012.02q.007.014.016.009T.65.17L.64.146.603.083a.3.3 0 0 0-.078-.08.2.2 0 0 0-.12-.036.24.24 0 0 0-.14.033.3.3 0 0 0-.096.083.3.3 0 0 0-.051.105A.5.5 0 0 0 .1.325q0 .071.014.127t.047.107q.031.05.085.084A.3.3 0 0 0 .375.68.4.4 0 0 0 .457.672L.505.659.529.656q.015 0 .029.011z"/><path id="v" d="M0 .36h.996V.315H0z"/><path id="w" d="M.04.331a.6.6 0 0 0 .023.163.4.4 0 0 0 .03.065q.017.03.041.055a.2.2 0 0 0 .053.038q.028.015.069.016A.16.16 0 0 0 .358.632.26.26 0 0 0 .436.531.4.4 0 0 0 .458.452.8.8 0 0 0 .46.183.29.29 0 0 0 .32-.02a.14.14 0 0 0-.068-.014.14.14 0 0 0-.053.01.2.2 0 0 0-.049.029.3.3 0 0 0-.073.094.3.3 0 0 0-.022.07.7.7 0 0 0-.016.163m.218-.336q.022 0 .037.008.017.008.032.025a.1.1 0 0 1 .025.038q.008.02.014.07a1 1 0 0 1 .009.187A2 2 0 0 1 .364.5.3.3 0 0 1 .35.555a.2.2 0 0 1-.024.049A.1.1 0 0 1 .26.64.1.1 0 0 1 .218.63.13.13 0 0 1 .16.562.6.6 0 0 1 .135.435a3 3 0 0 1 .003-.24.5.5 0 0 1 .035-.15.1.1 0 0 1 .036-.04.1.1 0 0 1 .048-.01"/><path id="x" d="M.244.104a.07.07 0 0 0 .06-.036.1.1 0 0 0 .01-.035.1.1 0 0 0-.01-.035.1.1 0 0 0-.025-.026.06.06 0 0 0-.035-.008.1.1 0 0 0-.036.009.06.06 0 0 0-.025.025.1.1 0 0 0-.01.035.1.1 0 0 0 .01.035Q.19.085.209.094t.035.01"/><path id="y" d="M.196.662h.242L.401.59H.202L.154.49.222.475a.3.3 0 0 0 .1-.049.23.23 0 0 0 .077-.092.3.3 0 0 0 .02-.055.3.3 0 0 0-.005-.124.2.2 0 0 0-.02-.051.23.23 0 0 0-.082-.09.25.25 0 0 0-.127-.042.2.2 0 0 0-.1.014.1.1 0 0 0-.026.019.04.04 0 0 0-.008.027l.002.012a.03.03 0 0 0 .011.012.04.04 0 0 0 .021.006L.103.056.13.041A.2.2 0 0 1 .17.022.2.2 0 0 1 .216.016Q.236.014.253.02a.2.2 0 0 1 .042.02q.024.014.042.044t.023.06a.23.23 0 0 1-.018.128.2.2 0 0 1-.034.052.25.25 0 0 1-.153.08L.1.408Q.084.41.082.415.079.42.082.429l.016.03z"/><path id="z" d="M.025.134v.074l.3.454.06.001L.384.208H.47V.135L.385.134V-.03H.302v.163zm.042.074h.234v.357z"/><path id="A" d="M.044.646Q.03.653.03.662T.044.67h.53L.597.499q0-.015-.01-.018Q.58.478.573.491L.56.513a.4.4 0 0 1-.04.056.21.21 0 0 1-.156.077H.287Q.221.646.21.63A.06.06 0 0 1 .2.595v-.25h.13q.014 0 .024.005a.04.04 0 0 1 .02.014.15.15 0 0 1 .018.066v.032q0 .015.014.016T.421.462V.21Q.42.19.406.192q-.015 0-.014.015v.036q0 .015-.004.03a.1.1 0 0 1-.013.026A.05.05 0 0 1 .33.32H.2V.06Q.2.027.208.016A.05.05 0 0 1 .234 0 .2.2 0 0 1 .28-.003h.03q.016 0 .016-.013T.309-.028H.05q-.015 0-.015.012t.015.013h.02q.02 0 .03.005a.04.04 0 0 1 .02.015q.006.009.006.04v.522A.1.1 0 0 1 .12.615a.04.04 0 0 1-.018.023.1.1 0 0 1-.034.008z"/><path id="B" d="M.164.321V.34q.033.004.053.01a.2.2 0 0 1 .071.046.14.14 0 0 1 .037.096q0 .03-.012.056a.1.1 0 0 1-.06.05.16.16 0 0 1-.1 0A.1.1 0 0 1 .12.574L.098.551.085.534Q.077.526.071.53.065.53.064.539.063.545.075.562l.023.035a.2.2 0 0 0 .03.032.2.2 0 0 0 .15.038.2.2 0 0 0 .045-.012.1.1 0 0 0 .034-.02.1.1 0 0 0 .026-.032.1.1 0 0 0 .016-.035.1.1 0 0 0 .003-.039.17.17 0 0 0-.064-.123L.312.382.366.347a.2.2 0 0 0 .033-.03.2.2 0 0 0 .037-.104.24.24 0 0 0-.023-.119.2.2 0 0 0-.029-.048.2.2 0 0 0-.04-.036.27.27 0 0 0-.179-.042l-.08.01a.04.04 0 0 0-.03.037q0 .011.003.017t.015.012l.02.008A.1.1 0 0 0 .13.039L.168.021A.1.1 0 0 1 .201.015a.17.17 0 0 1 .1.019Q.32.046.336.07t.022.048a.14.14 0 0 1-.002.094.2.2 0 0 1-.02.043.2.2 0 0 1-.04.037.1.1 0 0 1-.045.02z"/><path id="C" d="M.048.234h.6V.192h-.6zm0 .177h.6V.37h-.6z"/><path id="D" d="M.168.696v-.64q0-.024.006-.035A.04.04 0 0 1 .192.004a.1.1 0 0 1 .042-.006h.033q.014 0 .012-.013T.267-.027H.02q-.015 0-.016.012 0 .013.017.013h.037a.05.05 0 0 1 .045.029.1.1 0 0 1 .004.03v.516a.1.1 0 0 1-.005.033.04.04 0 0 1-.013.02L.063.634.036.636q-.015 0-.015.012 0 .011.016.013l.026.002A.2.2 0 0 1 .13.677q.018.006.023.01z"/><path id="E" d="M.348.268.314.244A.2.2 0 0 0 .27.227.2.2 0 0 0 .213.219.2.2 0 0 0 .148.23.16.16 0 0 0 .067.3a.2.2 0 0 0-.022.057.4.4 0 0 0 .01.17.2.2 0 0 0 .06.096q.02.017.052.031A.2.2 0 0 0 .238.67Q.284.669.316.65a.4.4 0 0 0 .05-.03.2.2 0 0 0 .035-.043A.3.3 0 0 0 .43.514.4.4 0 0 0 .449.375.5.5 0 0 0 .43.246.5.5 0 0 0 .347.098.5.5 0 0 0 .195-.01a.4.4 0 0 0-.113-.023H.051v.018a.2.2 0 0 1 .05.01.4.4 0 0 1 .074.027.3.3 0 0 1 .126.133.3.3 0 0 1 .026.054zM.122.45q0-.042.006-.07A.2.2 0 0 1 .143.33.14.14 0 0 1 .172.286.1.1 0 0 1 .21.263.2.2 0 0 1 .26.26q.023 0 .038.006Q.315.27.33.28T.353.3Q.36.314.36.35a1 1 0 0 1-.013.152.5.5 0 0 1-.03.09.1.1 0 0 1-.038.033.1.1 0 0 1-.051.016.1.1 0 0 1-.049-.013.1.1 0 0 1-.033-.03.1.1 0 0 1-.018-.036.2.2 0 0 1-.006-.05z"/><path id="F" d="M.828.434h-.66v.043h.66zm0-.274h-.66v.043h.66zm0 .137h-.66V.34h.66z"/><path id="G" d="M.074.639H.046Q.03.639.03.65t.016.013h.329A.3.3 0 0 0 .457.652.16.16 0 0 0 .538.597.15.15 0 0 0 .513.383.2.2 0 0 0 .458.35L.425.338.487.324A.16.16 0 0 0 .592.23.2.2 0 0 0 .58.07.2.2 0 0 0 .523.01a.2.2 0 0 0-.071-.03.4.4 0 0 0-.08-.007h-.32q-.016 0-.018.012t.019.013h.025Q.1-.003.112.01t.012.04v.541q0 .024-.012.036T.074.639m.283 0H.265Q.227.639.212.622A.05.05 0 0 1 .198.588V.35h.157q.03 0 .061.014.03.013.052.046A.16.16 0 0 1 .49.5a.15.15 0 0 1-.02.078.1.1 0 0 1-.05.046.14.14 0 0 1-.063.015M.198.324V.053q0-.024.018-.04.017-.015.035-.016h.112q.044 0 .08.018a.12.12 0 0 1 .058.057q.02.04.021.089A.2.2 0 0 1 .504.25.12.12 0 0 1 .44.31a.2.2 0 0 1-.084.014z"/><path id="H" d="M.185.47V.345l.043.061q.022.03.051.048.03.017.067.015a.1.1 0 0 0 .05-.02Q.413.432.414.414A.04.04 0 0 0 .402.382.03.03 0 0 0 .37.372a.04.04 0 0 0-.03.017L.33.406a.03.03 0 0 1-.02.011.05.05 0 0 1-.032-.008A.2.2 0 0 1 .24.377.3.3 0 0 1 .202.324.1.1 0 0 1 .185.27V.047A.1.1 0 0 1 .189.014.03.03 0 0 1 .202.001a.1.1 0 0 1 .032-.005h.04q.015 0 .016-.013 0-.012-.017-.012H.05Q.03-.03.03-.017t.018.013h.018q.02 0 .032.005a.04.04 0 0 1 .018.016.1.1 0 0 1 .008.032l.001.268q0 .067-.013.077T.07.404H.05q-.018 0-.018.013t.022.015H.07a.3.3 0 0 1 .07.013.1.1 0 0 1 .028.015z"/><path id="I" d="M.2.32.141.364.11.395a.2.2 0 0 0-.038.117q0 .046.02.082a.15.15 0 0 0 .06.054.22.22 0 0 0 .17.014l.03-.015.03-.021A.1.1 0 0 0 .407.598.16.16 0 0 0 .43.508.1.1 0 0 0 .416.46.2.2 0 0 0 .384.415.2.2 0 0 0 .343.38L.292.35l.06-.048A.4.4 0 0 0 .4.256a.173.173 0 0 0-.05-.272.2.2 0 0 0-.091-.02.23.23 0 0 0-.12.033.2.2 0 0 0-.043.04.13.13 0 0 0-.03.097.2.2 0 0 0 .02.073.2.2 0 0 0 .026.036l.043.04zM.22.304.186.27A.2.2 0 0 1 .16.237.1.1 0 0 1 .141.193.2.2 0 0 1 .137.141q0-.039.007-.063a.1.1 0 0 1 .02-.041A.1.1 0 0 1 .2.006a.1.1 0 0 1 .062-.013q.035 0 .063.014T.363.04a.1.1 0 0 1 .015.04.2.2 0 0 1 .002.04.1.1 0 0 1-.016.045.5.5 0 0 1-.087.095zm.045.07q.013 0 .033.013a.14.14 0 0 1 .057.076.3.3 0 0 1 .008.05.2.2 0 0 1 0 .05.1.1 0 0 1-.02.046.1.1 0 0 1-.035.027.1.1 0 0 1-.054.012.1.1 0 0 1-.058-.012A.1.1 0 0 1 .16.607.1.1 0 0 1 .143.572.1.1 0 0 1 .141.528.16.16 0 0 1 .173.443.4.4 0 0 1 .245.382z"/><path id="J" d="M.19.668.615.096v.49a.1.1 0 0 1-.004.03L.6.634Q.592.643.572.643H.53q-.015 0-.017.012 0 .013.017.013h.188Q.74.668.74.655T.72.643H.69Q.667.643.66.637A.03.03 0 0 1 .65.62L.645.594v-.602q0-.019-.018-.022Q.611-.033.6-.017L.16.606V.05A.1.1 0 0 1 .167.02.04.04 0 0 1 .183.003.1.1 0 0 1 .22 0h.024q.015 0 .018-.013.001-.012-.02-.012h-.19q-.016 0-.015.012T.053 0h.032q.014 0 .023.005A.04.04 0 0 1 .124.02a.1.1 0 0 1 .007.03v.536L.125.613.109.634Q.1.643.076.643H.045q-.018 0-.019.012 0 .013.019.013z"/><path id="K" d="M.134.05v.54L.127.613.111.634Q.102.643.081.643H.046q-.013 0-.013.012t.013.013h.24q.02 0 .02-.013T.286.643H.261A.1.1 0 0 1 .228.636.04.04 0 0 1 .212.62L.207.596v-.54q0-.024.006-.036L.231.002a.1.1 0 0 1 .037-.007h.025q.015 0 .014-.013T.293-.03h-.24q-.015 0-.015.012t.016.013h.034q.014 0 .024.006a.04.04 0 0 1 .016.018.1.1 0 0 1 .006.032"/><path id="L" d="M.453.665V.65L.381.64A.4.4 0 0 1 .188.49.2.2 0 0 1 .167.445L.14.372.196.4l.05.015q.03.006.059.004A.18.18 0 0 0 .433.347.2.2 0 0 0 .466.25.4.4 0 0 0 .432.062a.2.2 0 0 0-.097-.087.2.2 0 0 0-.083-.012.2.2 0 0 0-.066.01A.22.22 0 0 0 .06.09a.3.3 0 0 0-.022.068.5.5 0 0 0-.004.17.5.5 0 0 0 .069.167.5.5 0 0 0 .183.142.4.4 0 0 0 .124.028zM.267-.013A.2.2 0 0 1 .317 0a.1.1 0 0 1 .03.021.1.1 0 0 1 .018.034l.009.04A.6.6 0 0 1 .36.284.2.2 0 0 1 .336.33a.11.11 0 0 1-.092.043.15.15 0 0 1-.07-.016L.129.331a1 1 0 0 1 0-.163A.3.3 0 0 1 .16.055.1.1 0 0 1 .187.017a.1.1 0 0 1 .031-.02.2.2 0 0 1 .049-.01"/><path id="M" d="M.232.348h.359v.245L.586.617A.04.04 0 0 1 .57.634a.1.1 0 0 1-.029.007H.509Q.49.64.489.653q0 .013.02.013h.237q.015 0 .017-.013Q.764.641.746.641H.718A.1.1 0 0 1 .685.635.04.04 0 0 1 .67.618.1.1 0 0 1 .665.589V.064q0-.033.008-.045l.02-.018a.1.1 0 0 1 .04-.005H.75q.018 0 .019-.013T.75-.029H.515q-.02 0-.018.012 0 .013.018.013h.032q.014 0 .023.006.009.005.015.016a.1.1 0 0 1 .006.046v.258H.232v-.26q0-.031.006-.043a.04.04 0 0 1 .02-.017.1.1 0 0 1 .039-.006H.32q.018 0 .017-.013T.321-.029h-.24q-.016 0-.018.012 0 .013.019.013h.024q.018 0 .03.007.012.008.017.018.005.011.005.037v.519a.1.1 0 0 1-.005.032.05.05 0 0 1-.018.022.1.1 0 0 1-.04.01H.07Q.053.64.052.653t.017.013h.248q.014 0 .015-.013T.317.641H.28L.254.634.238.62A.05.05 0 0 1 .232.592z"/><path id="N" d="M.108.666h.357L.252-.031H.199l.188.62h-.2L.146.587.126.579.102.557.082.528.067.511Q.061.506.055.51T.049.518q0 .005.008.025z"/></defs><g clip-path="url(#a)"><use fill="#2c292a" data-text="表" transform="matrix(12 0 0 -12 161.81 12.654)" href="#b"/><use fill="#2c292a" data-text="2" transform="matrix(12 0 0 -12 176.81 12.654)" href="#c"/><use fill="#2c292a" data-text="-" transform="matrix(12 0 0 -12 182.81 12.654)" href="#d"/><use fill="#2c292a" data-text="1" transform="matrix(12 0 0 -12 191.27 12.654)" href="#e"/><use fill="#2c292a" data-text="-" transform="matrix(12 0 0 -12 197.27 12.654)" href="#d"/><use fill="#2c292a" data-text="1" transform="matrix(12 0 0 -12 205.73 12.654)" href="#e"/><use fill="#2c292a" data-text="常" transform="matrix(12 0 0 -12 223.73 12.654)" href="#f"/><use fill="#2c292a" data-text="见" transform="matrix(12 0 0 -12 235.73 12.654)" href="#g"/><use fill="#2c292a" data-text="共" transform="matrix(12 0 0 -12 247.73 12.654)" href="#h"/><use fill="#2c292a" data-text="价" transform="matrix(12 0 0 -12 259.73 12.654)" href="#i"/><use fill="#2c292a" data-text="键" transform="matrix(12 0 0 -12 271.73 12.654)" href="#j"/><use fill="#2c292a" data-text="的" transform="matrix(12 0 0 -12 283.73 12.654)" href="#k"/><use fill="#2c292a" data-text="键" transform="matrix(12 0 0 -12 295.73 12.654)" href="#j"/><use fill="#2c292a" data-text="长" transform="matrix(12 0 0 -12 307.73 12.654)" href="#l"/><path fill="none" stroke="#fff" stroke-miterlimit="10" stroke-width="0.75" d="M5.125 50.157v-23.72m471.301 23.72v-23.72M5.125 74.251V50.157m471.301 24.094V50.157M5.125 98.346V74.252m471.301 24.094V74.252M5.125 122.44V98.346m471.301 24.094V98.346M5.125 146.535V122.44m471.301 24.095V122.44M5.125 170.63v-24.095m471.301 24.095v-24.095M5.125 194.349v-23.72m471.301 23.72v-23.72"/><path fill="none" stroke="#2c292a" stroke-miterlimit="10" stroke-width="0.75" d="M5.5 50.157h116.95m.25 0h116.95m3.751 0h116.95m.249 0h115.45M4.75 26.062h117.825m0 0H239.65m3.751 0h117.075m0 0H476.8M4.75 194.724h117.825m0 0H239.65m3.751 0h117.075m0 0H476.8"/><path fill="none" stroke="#2c292a" stroke-miterlimit="10" stroke-width="0.25" d="M122.575 50.157v-23.72m237.901 23.72v-23.72M122.575 74.126V50.157m237.901 23.969V50.157M122.575 98.22V74.378M360.476 98.22V74.378m-237.901 47.937V98.471m237.901 23.844V98.471M122.575 146.41v-23.844m237.901 23.844v-23.844m-237.901 47.938V146.66m237.901 23.844V146.66m-237.901 47.689v-23.594m237.901 23.594v-23.594M5.5 74.251h117.075m0 0H239.65m3.751 0h117.075m0 0H476.05M5.5 98.346h117.075m0 0H239.65m3.751 0h117.075m0 0H476.05M5.5 122.44h117.075m0 0H239.65m3.751 0h117.075m0 0H476.05M5.5 146.535h117.075m0 0H239.65m3.751 0h117.075m0 0H476.05M5.5 170.63h117.075m0 0H239.65m3.751 0h117.075m0 0H476.05"/><path fill="none" stroke="#2c292a" stroke-miterlimit="10" stroke-width="0.75" d="M239.65 26.062h3.751m-3.375 24.095v-23.72m3 23.72v-23.72m-3 47.814V50.157m3 24.094V50.157m-3 48.189V74.252m3 24.094V74.252m-3 48.188V98.346m3 24.094V98.346m-3 48.189V122.44m3 24.095V122.44m-3 48.19v-24.095m3 24.095v-24.095m-3 47.813V170.63m3 23.718V170.63m-3.376 24.094h3.751"/><use fill="#2c292a" data-text="共" transform="matrix(10.5 0 0 -10.5 48.1 41.883)" href="#n"/><use fill="#2c292a" data-text="价" transform="matrix(10.5 0 0 -10.5 58.6 41.883)" href="#o"/><use fill="#2c292a" data-text="键" transform="matrix(10.5 0 0 -10.5 69.1 41.883)" href="#p"/><use fill="#2c292a" data-text="键" transform="matrix(10.5 0 0 -10.5 160.04 41.883)" href="#p"/><use fill="#2c292a" data-text="长" transform="matrix(10.5 0 0 -10.5 170.54 41.883)" href="#q"/><use fill="#2c292a" data-text="/" transform="matrix(10.5 0 0 -10.5 183.666 41.883)" href="#r"/><use fill="#2c292a" data-text="n" transform="matrix(10.5 0 0 -10.5 187.834 41.883)" href="#s"/><use fill="#2c292a" data-text="m" transform="matrix(10.5 0 0 -10.5 193.84 41.883)" href="#t"/><use fill="#2c292a" data-text="共" transform="matrix(10.5 0 0 -10.5 285.999 41.883)" href="#n"/><use fill="#2c292a" data-text="价" transform="matrix(10.5 0 0 -10.5 296.499 41.883)" href="#o"/><use fill="#2c292a" data-text="键" transform="matrix(10.5 0 0 -10.5 306.999 41.883)" href="#p"/><use fill="#2c292a" data-text="键" transform="matrix(10.5 0 0 -10.5 397.078 41.883)" href="#p"/><use fill="#2c292a" data-text="长" transform="matrix(10.5 0 0 -10.5 407.578 41.883)" href="#q"/><use fill="#2c292a" data-text="/" transform="matrix(10.5 0 0 -10.5 420.703 41.883)" href="#r"/><use fill="#2c292a" data-text="n" transform="matrix(10.5 0 0 -10.5 425.082 41.883)" href="#s"/><use fill="#2c292a" data-text="m" transform="matrix(10.5 0 0 -10.5 431.088 41.883)" href="#t"/><use fill="#2c292a" data-text="C" transform="matrix(11 0 0 -11 50.369 66.157)" href="#u"/><use fill="#2c292a" data-text="—" transform="matrix(11 0 0 -11 58.355 66.157)" href="#v"/><use fill="#2c292a" data-text="C" transform="matrix(11 0 0 -11 69.355 66.157)" href="#u"/><use fill="#2c292a" data-text="0" transform="matrix(11 0 0 -11 167.552 66.157)" href="#w"/><use fill="#2c292a" data-text="." transform="matrix(11 0 0 -11 173.04 66.157)" href="#x"/><use fill="#2c292a" data-text="1" transform="matrix(11 0 0 -11 178.54 66.157)" href="#e"/><use fill="#2c292a" data-text="5" transform="matrix(11 0 0 -11 184.04 66.157)" href="#y"/><use fill="#2c292a" data-text="4" transform="matrix(11 0 0 -11 189.54 66.157)" href="#z"/><use fill="#2c292a" data-text="F" transform="matrix(11 0 0 -11 289.256 66.157)" href="#A"/><use fill="#2c292a" data-text="—" transform="matrix(11 0 0 -11 296.252 66.157)" href="#v"/><use fill="#2c292a" data-text="F" transform="matrix(11 0 0 -11 307.252 66.157)" href="#A"/><use fill="#2c292a" data-text="0" transform="matrix(11 0 0 -11 404.7 66.157)" href="#w"/><use fill="#2c292a" data-text="." transform="matrix(11 0 0 -11 410.19 66.157)" href="#x"/><use fill="#2c292a" data-text="1" transform="matrix(11 0 0 -11 415.69 66.157)" href="#e"/><use fill="#2c292a" data-text="4" transform="matrix(11 0 0 -11 421.19 66.157)" href="#z"/><use fill="#2c292a" data-text="3" transform="matrix(11 0 0 -11 426.69 66.157)" href="#B"/><use fill="#2c292a" data-text="C" transform="matrix(11 0 0 -11 49.73 90.247)" href="#u"/><use fill="#2c292a" data-text="=" transform="matrix(11 0 0 -11 57.712 90.247)" href="#C"/><use fill="#2c292a" data-text="=" transform="matrix(11 0 0 -11 62.63 90.247)" href="#C"/><use fill="#2c292a" data-text="C" transform="matrix(11 0 0 -11 69.966 90.247)" href="#u"/><use fill="#2c292a" data-text="0" transform="matrix(11 0 0 -11 167.54 90.247)" href="#w"/><use fill="#2c292a" data-text="." transform="matrix(11 0 0 -11 173.03 90.247)" href="#x"/><use fill="#2c292a" data-text="1" transform="matrix(11 0 0 -11 178.53 90.247)" href="#e"/><use fill="#2c292a" data-text="3" transform="matrix(11 0 0 -11 184.03 90.247)" href="#B"/><use fill="#2c292a" data-text="4" transform="matrix(11 0 0 -11 189.53 90.247)" href="#z"/><use fill="#2c292a" data-text="C" transform="matrix(11 0 0 -11 285.032 90.247)" href="#u"/><use fill="#2c292a" data-text="l" transform="matrix(11 0 0 -11 293.018 90.247)" href="#D"/><use fill="#2c292a" data-text="—" transform="matrix(11 0 0 -11 296.24 90.247)" href="#v"/><use fill="#2c292a" data-text="C" transform="matrix(11 0 0 -11 307.24 90.247)" href="#u"/><use fill="#2c292a" data-text="l" transform="matrix(11 0 0 -11 315.227 90.247)" href="#D"/><use fill="#2c292a" data-text="0" transform="matrix(11 0 0 -11 404.69 90.247)" href="#w"/><use fill="#2c292a" data-text="." transform="matrix(11 0 0 -11 410.179 90.247)" href="#x"/><use fill="#2c292a" data-text="1" transform="matrix(11 0 0 -11 415.679 90.247)" href="#e"/><use fill="#2c292a" data-text="9" transform="matrix(11 0 0 -11 421.179 90.247)" href="#E"/><use fill="#2c292a" data-text="9" transform="matrix(11 0 0 -11 426.679 90.247)" href="#E"/><use fill="#2c292a" data-text="C" transform="matrix(11 0 0 -11 50.479 114.337)" href="#u"/><use fill="#2c292a" data-text="≡" transform="matrix(14.3 0 0 -11 56.777 114.346)" href="#F"/><use fill="#2c292a" data-text="C" transform="matrix(11 0 0 -11 69.218 114.346)" href="#u"/><use fill="#2c292a" data-text="0" transform="matrix(11 0 0 -11 167.558 114.346)" href="#w"/><use fill="#2c292a" data-text="." transform="matrix(11 0 0 -11 173.047 114.346)" href="#x"/><use fill="#2c292a" data-text="1" transform="matrix(11 0 0 -11 178.547 114.346)" href="#e"/><use fill="#2c292a" data-text="2" transform="matrix(11 0 0 -11 184.047 114.346)" href="#c"/><use fill="#2c292a" data-text="1" transform="matrix(11 0 0 -11 189.547 114.346)" href="#e"/><use fill="#2c292a" data-text="B" transform="matrix(11 0 0 -11 283.73 114.346)" href="#G"/><use fill="#2c292a" data-text="r" transform="matrix(11 0 0 -11 291.132 114.346)" href="#H"/><use fill="#2c292a" data-text="—" transform="matrix(11 0 0 -11 296.698 114.346)" href="#v"/><use fill="#2c292a" data-text="B" transform="matrix(11 0 0 -11 307.698 114.346)" href="#G"/><use fill="#2c292a" data-text="r" transform="matrix(11 0 0 -11 315.101 114.346)" href="#H"/><use fill="#2c292a" data-text="0" transform="matrix(11 0 0 -11 404.718 114.346)" href="#w"/><use fill="#2c292a" data-text="." transform="matrix(11 0 0 -11 410.207 114.346)" href="#x"/><use fill="#2c292a" data-text="2" transform="matrix(11 0 0 -11 415.707 114.346)" href="#c"/><use fill="#2c292a" data-text="2" transform="matrix(11 0 0 -11 421.207 114.346)" href="#c"/><use fill="#2c292a" data-text="8" transform="matrix(11 0 0 -11 426.707 114.346)" href="#I"/><use fill="#2c292a" data-text="N" transform="matrix(11 0 0 -11 49.891 138.436)" href="#J"/><use fill="#2c292a" data-text="≡" transform="matrix(14.3 0 0 -11 56.524 138.44)" href="#F"/><use fill="#2c292a" data-text="N" transform="matrix(11 0 0 -11 69.251 138.44)" href="#J"/><use fill="#2c292a" data-text="0" transform="matrix(11 0 0 -11 167.558 138.44)" href="#w"/><use fill="#2c292a" data-text="." transform="matrix(11 0 0 -11 173.047 138.44)" href="#x"/><use fill="#2c292a" data-text="1" transform="matrix(11 0 0 -11 178.547 138.44)" href="#e"/><use fill="#2c292a" data-text="1" transform="matrix(11 0 0 -11 184.047 138.44)" href="#e"/><use fill="#2c292a" data-text="0" transform="matrix(11 0 0 -11 189.547 138.44)" href="#w"/><use fill="#2c292a" data-text="I" transform="matrix(11 0 0 -11 291.682 138.44)" href="#K"/><use fill="#2c292a" data-text="—" transform="matrix(11 0 0 -11 296.357 138.44)" href="#v"/><use fill="#2c292a" data-text="I" transform="matrix(11 0 0 -11 308.017 138.44)" href="#K"/><use fill="#2c292a" data-text="0" transform="matrix(11 0 0 -11 404.707 138.44)" href="#w"/><use fill="#2c292a" data-text="." transform="matrix(11 0 0 -11 410.196 138.44)" href="#x"/><use fill="#2c292a" data-text="2" transform="matrix(11 0 0 -11 415.696 138.44)" href="#c"/><use fill="#2c292a" data-text="6" transform="matrix(11 0 0 -11 421.196 138.44)" href="#L"/><use fill="#2c292a" data-text="6" transform="matrix(11 0 0 -11 426.696 138.44)" href="#L"/><use fill="#2c292a" data-text="H" transform="matrix(11 0 0 -11 49.22 162.53)" href="#M"/><use fill="#2c292a" data-text="—" transform="matrix(11 0 0 -11 58.35 162.53)" href="#v"/><use fill="#2c292a" data-text="H" transform="matrix(11 0 0 -11 69.35 162.53)" href="#M"/><use fill="#2c292a" data-text="0" transform="matrix(11 0 0 -11 167.558 162.53)" href="#w"/><use fill="#2c292a" data-text="." transform="matrix(11 0 0 -11 173.047 162.53)" href="#x"/><use fill="#2c292a" data-text="0" transform="matrix(11 0 0 -11 178.547 162.53)" href="#w"/><use fill="#2c292a" data-text="7" transform="matrix(11 0 0 -11 184.036 162.53)" href="#N"/><use fill="#2c292a" data-text="4" transform="matrix(11 0 0 -11 189.536 162.53)" href="#z"/><use fill="#2c292a" data-text="H" transform="matrix(11 0 0 -11 288.184 162.53)" href="#M"/><use fill="#2c292a" data-text="—" transform="matrix(11 0 0 -11 297.314 162.53)" href="#v"/><use fill="#2c292a" data-text="F" transform="matrix(11 0 0 -11 308.314 162.53)" href="#A"/><use fill="#2c292a" data-text="0" transform="matrix(11 0 0 -11 404.707 162.53)" href="#w"/><use fill="#2c292a" data-text="." transform="matrix(11 0 0 -11 410.196 162.53)" href="#x"/><use fill="#2c292a" data-text="0" transform="matrix(11 0 0 -11 415.696 162.53)" href="#w"/><use fill="#2c292a" data-text="9" transform="matrix(11 0 0 -11 421.185 162.53)" href="#E"/><use fill="#2c292a" data-text="2" transform="matrix(11 0 0 -11 426.685 162.53)" href="#c"/><use fill="#2c292a" data-text="H" transform="matrix(11 0 0 -11 48.175 186.62)" href="#M"/><use fill="#2c292a" data-text="—" transform="matrix(11 0 0 -11 57.305 186.62)" href="#v"/><use fill="#2c292a" data-text="C" transform="matrix(11 0 0 -11 68.305 186.62)" href="#u"/><use fill="#2c292a" data-text="l" transform="matrix(11 0 0 -11 76.291 186.62)" href="#D"/><use fill="#2c292a" data-text="0" transform="matrix(11 0 0 -11 167.547 186.62)" href="#w"/><use fill="#2c292a" data-text="." transform="matrix(11 0 0 -11 173.036 186.62)" href="#x"/><use fill="#2c292a" data-text="1" transform="matrix(11 0 0 -11 178.536 186.62)" href="#e"/><use fill="#2c292a" data-text="2" transform="matrix(11 0 0 -11 184.036 186.62)" href="#c"/><use fill="#2c292a" data-text="7" transform="matrix(11 0 0 -11 189.536 186.62)" href="#N"/><use fill="#2c292a" data-text="H" transform="matrix(11 0 0 -11 285.632 186.62)" href="#M"/><use fill="#2c292a" data-text="—" transform="matrix(11 0 0 -11 294.762 186.62)" href="#v"/><use fill="#2c292a" data-text="B" transform="matrix(11 0 0 -11 305.762 186.62)" href="#G"/><use fill="#2c292a" data-text="r" transform="matrix(11 0 0 -11 313.165 186.62)" href="#H"/><use fill="#2c292a" data-text="0" transform="matrix(11 0 0 -11 404.696 186.62)" href="#w"/><use fill="#2c292a" data-text="." transform="matrix(11 0 0 -11 410.185 186.62)" href="#x"/><use fill="#2c292a" data-text="1" transform="matrix(11 0 0 -11 415.685 186.62)" href="#e"/><use fill="#2c292a" data-text="4" transform="matrix(11 0 0 -11 421.185 186.62)" href="#z"/><use fill="#2c292a" data-text="1" transform="matrix(11 0 0 -11 426.685 186.62)" href="#e"/></g></svg>