<?xml version="1.0" encoding="utf-8"?>
<!-- Generator: Adobe Illustrator 19.0.0, SVG Export Plug-In . SVG Version: 6.00 Build 0)  -->
<svg version="1.1" id="Layer_1" xmlns="http://www.w3.org/2000/svg" xmlns:xlink="http://www.w3.org/1999/xlink" x="0px" y="0px"
	 viewBox="0 0 366 330" style="enable-background:new 0 0 366 330;" xml:space="preserve">
<style type="text/css">
	.st0{clip-path:url(#SVGID_2_);}
	.st1{clip-path:url(#SVGID_4_);}
	.st2{clip-path:url(#SVGID_6_);}
	.st3{clip-path:url(#SVGID_8_);fill:none;stroke:#0000FF;stroke-width:0.7349445;stroke-linecap:square;stroke-miterlimit:10;}
	.st4{clip-path:url(#SVGID_8_);fill-rule:evenodd;clip-rule:evenodd;fill:#FFFFFF;}
	.st5{clip-path:url(#SVGID_8_);fill:none;stroke:#000000;stroke-width:1.4698682;stroke-linecap:square;stroke-miterlimit:10;}
	
		.st6{clip-path:url(#SVGID_6_);fill:none;stroke:#000000;stroke-width:0.7991203;stroke-linecap:round;stroke-linejoin:round;stroke-miterlimit:10;stroke-dasharray:6.3929625,3.1964812;}
	.st7{clip-path:url(#SVGID_10_);fill-rule:evenodd;clip-rule:evenodd;}
	.st8{clip-path:url(#SVGID_12_);fill-rule:evenodd;clip-rule:evenodd;}
	.st9{clip-path:url(#SVGID_14_);fill-rule:evenodd;clip-rule:evenodd;}
	
		.st10{clip-path:url(#SVGID_6_);fill:none;stroke:#000000;stroke-width:1.1986805;stroke-linecap:round;stroke-linejoin:round;stroke-miterlimit:10;}
	.st11{clip-path:url(#SVGID_16_);fill-rule:evenodd;clip-rule:evenodd;}
	.st12{clip-path:url(#SVGID_18_);fill-rule:evenodd;clip-rule:evenodd;}
	
		.st13{clip-path:url(#SVGID_18_);fill:none;stroke:#000000;stroke-width:0.8566399;stroke-linecap:round;stroke-linejoin:round;stroke-miterlimit:10;}
	.st14{clip-path:url(#SVGID_20_);fill-rule:evenodd;clip-rule:evenodd;}
	
		.st15{clip-path:url(#SVGID_20_);fill:none;stroke:#000000;stroke-width:0.8566654;stroke-linecap:round;stroke-linejoin:round;stroke-miterlimit:10;}
</style>
<g>
	<defs>
		<rect id="SVGID_1_" x="0.0000055" width="366" height="330"/>
	</defs>
	<clipPath id="SVGID_2_">
		<use xlink:href="#SVGID_1_"  style="overflow:visible;"/>
	</clipPath>
	<g class="st0">
	</g>
</g>
<g>
	<defs>
		<rect id="SVGID_3_" y="-0.000061" width="366" height="330"/>
	</defs>
	<clipPath id="SVGID_4_">
		<use xlink:href="#SVGID_3_"  style="overflow:visible;"/>
	</clipPath>
	<g class="st1">
		<defs>
			<rect id="SVGID_5_" y="0.0120239" width="365.6079102" height="329.6272888"/>
		</defs>
		<clipPath id="SVGID_6_">
			<use xlink:href="#SVGID_5_"  style="overflow:visible;"/>
		</clipPath>
		<g class="st2">
			<defs>
				<rect id="SVGID_7_" x="6.7634077" y="7.2969666" width="318.3857422" height="317.6266174"/>
			</defs>
			<clipPath id="SVGID_8_">
				<use xlink:href="#SVGID_7_"  style="overflow:visible;"/>
			</clipPath>
			<path class="st3" d="M318.1074219,165.5301056c0,23.9889984-19.5244141,43.4310455-43.5898438,43.4310455
				c-24.0863495,0-43.5584259-19.4420471-43.5584259-43.4310455c0-24.0098877,19.4720764-43.4832764,43.5584259-43.4832764
				C298.5830078,122.0468292,318.1074219,141.5202179,318.1074219,165.5301056"/>
			<path class="st3" d="M314.3720398,137.3600464c0,24.0098877-19.4930115,43.4833069-43.5793762,43.4833069
				c-24.0340424,0-43.516571-19.4734192-43.516571-43.4833069c0-23.9785309,19.4825287-43.4310303,43.516571-43.4310303
				C294.8790283,93.9290161,314.3720398,113.3815155,314.3720398,137.3600464"/>
			<path class="st3" d="M303.5007629,111.1759949c0,23.9785309-19.5244141,43.4728546-43.5584717,43.4728546
				c-24.0654297,0-43.5898285-19.4943237-43.5898285-43.4728546c0-24.0098877,19.5243988-43.4309998,43.5898285-43.4309998
				C283.9763489,67.7449951,303.5007629,87.1661072,303.5007629,111.1759949"/>
			<path class="st3" d="M286.184082,88.6817627c0,24.0098877-19.4720764,43.431015-43.5584259,43.431015
				c-24.0654449,0-43.5375214-19.4211273-43.5375214-43.431015c0-23.9785156,19.4720764-43.4832764,43.5375214-43.4832764
				C266.7120056,45.1984863,286.184082,64.7032471,286.184082,88.6817627"/>
			<path class="st3" d="M263.6148987,71.4138794c0,23.9889679-19.5034637,43.4310303-43.5375214,43.4310303
				c-24.0863495,0-43.5584259-19.4420624-43.5584259-43.4310303c0-24.0098877,19.4720764-43.4728394,43.5584259-43.4728394
				C244.1114349,27.94104,263.6148987,47.4039917,263.6148987,71.4138794"/>
			<path class="st3" d="M237.3417206,60.5430603c0,24.0098572-19.4720917,43.4832764-43.5584412,43.4832764
				c-24.0340424,0-43.5375214-19.4734192-43.5375214-43.4832764c0-23.9889832,19.503479-43.4310303,43.5375214-43.4310303
				C217.8696289,17.11203,237.3417206,36.5540771,237.3417206,60.5430603"/>
			<path class="st3" d="M209.1746826,56.863678c0,23.9889984-19.492981,43.4310455-43.579361,43.4310455
				c-24.0445099,0-43.5375214-19.4420471-43.5375214-43.4310455c0-24.0098877,19.4930115-43.4832458,43.5375214-43.4832458
				C189.6817017,13.3804321,209.1746826,32.8537903,209.1746826,56.863678"/>
			<path class="st3" d="M180.9762726,60.5430603c0,24.0098572-19.4930115,43.4832764-43.5270538,43.4832764
				c-24.0863724,0-43.5898361-19.4734192-43.5898361-43.4832764c0-23.9889832,19.5034637-43.4310303,43.5898361-43.4310303
				C161.4832611,17.11203,180.9762726,36.5540771,180.9762726,60.5430603"/>
			<path class="st3" d="M154.7135468,71.4138794c0,23.9889679-19.4720612,43.4310303-43.5615768,43.4310303
				c-24.0623016,0-43.5354233-19.4420624-43.5354233-43.4310303c0-24.0098877,19.4731216-43.4728394,43.5354233-43.4728394
				C135.2414856,27.94104,154.7135468,47.4039917,154.7135468,71.4138794"/>
			<path class="st3" d="M132.1443634,88.6817627c0,24.0098877-19.472084,43.431015-43.5333405,43.431015
				c-24.08741,0-43.5605316-19.4211273-43.5605316-43.431015c0-23.9785156,19.4731216-43.4832764,43.5605316-43.4832764
				C112.6722794,45.1984863,132.1443634,64.7032471,132.1443634,88.6817627"/>
			<path class="st3" d="M114.8800201,111.1759949c0,23.9785309-19.5243988,43.4728546-43.5866928,43.4728546
				c-24.0371857,0-43.5605354-19.4943237-43.5605354-43.4728546c0-24.0098877,19.5233498-43.4309998,43.5605354-43.4309998
				C95.3556213,67.7449951,114.8800201,87.1661072,114.8800201,111.1759949"/>
			<path class="st3" d="M103.9511719,137.3600464c0,24.0098877-19.4731216,43.4833069-43.5354233,43.4833069
				c-24.08741,0-43.5608521-19.4734192-43.5608521-43.4833069c-0.0000019-23.9785309,19.4734402-43.4310303,43.5608521-43.4310303
				C84.4780502,93.9290161,103.9511719,113.3815155,103.9511719,137.3600464"/>
			<path class="st3" d="M100.2743912,165.5301056c0,23.9889984-19.5233536,43.4310455-43.5856438,43.4310455
				c-24.0371895,0-43.5610619-19.4420471-43.5610619-43.4310455c0-24.0098877,19.5238724-43.4832764,43.5610619-43.4832764
				C80.7510376,122.0468292,100.2743912,141.5202179,100.2743912,165.5301056"/>
			<path class="st3" d="M103.9511719,193.6270142c0,23.9785461-19.4731216,43.4770355-43.5354233,43.4770355
				c-24.08741,0-43.5608521-19.4984894-43.5608521-43.4770355c0-24.0098877,19.4734402-43.4310303,43.5608521-43.4310303
				C84.4780502,150.1959839,103.9511719,169.6171265,103.9511719,193.6270142"/>
			<path class="st3" d="M114.8800201,219.8110657c0,24.0119934-19.5243988,43.4833069-43.5866928,43.4833069
				c-24.0371857,0-43.5605354-19.4713135-43.5605354-43.4833069c0-23.9785309,19.5233498-43.4310303,43.5605354-43.4310303
				C95.3556213,176.3800354,114.8800201,195.8325348,114.8800201,219.8110657"/>
			<path class="st3" d="M132.1443634,242.352356c0,23.9848022-19.472084,43.4310303-43.5333405,43.4310303
				c-24.08741,0-43.5605316-19.446228-43.5605316-43.4310303c0-24.0151062,19.4731216-43.4780731,43.5605316-43.4780731
				C112.6722794,198.8742828,132.1443634,218.3372498,132.1443634,242.352356"/>
			<path class="st3" d="M154.7135468,259.6181641c0,24.0098877-19.4720612,43.4310303-43.5615768,43.4310303
				c-24.0623016,0-43.5354233-19.4211426-43.5354233-43.4310303c0-24.0349884,19.4731216-43.4864502,43.5354233-43.4864502
				C135.2414856,216.1317139,154.7135468,235.5831757,154.7135468,259.6181641"/>
			<path class="st3" d="M180.9762726,270.4440308c0,24.0098877-19.4930115,43.4812012-43.5270538,43.4812012
				c-24.0863724,0-43.5898361-19.4713135-43.5898361-43.4812012c0-23.9848022,19.5034637-43.4310303,43.5898361-43.4310303
				C161.4832611,227.0130005,180.9762726,246.4592285,180.9762726,270.4440308"/>
			<path class="st3" d="M209.1746826,274.1714478c0,24.0098877-19.492981,43.4304199-43.579361,43.4304199
				c-24.0445099,0-43.5375214-19.4205322-43.5375214-43.4304199c0-24.0360107,19.4930115-43.4822388,43.5375214-43.4822388
				C189.6817017,230.689209,209.1746826,250.135437,209.1746826,274.1714478"/>
			<path class="st3" d="M237.3417206,270.4440308c0,24.0098877-19.4720917,43.4812012-43.5584412,43.4812012
				c-24.0340424,0-43.5375214-19.4713135-43.5375214-43.4812012c0-23.9848022,19.503479-43.4310303,43.5375214-43.4310303
				C217.8696289,227.0130005,237.3417206,246.4592285,237.3417206,270.4440308"/>
			<path class="st3" d="M263.6148987,259.6181641c0,24.0098877-19.5034637,43.4310303-43.5375214,43.4310303
				c-24.0863495,0-43.5584259-19.4211426-43.5584259-43.4310303c0-24.0349884,19.4720764-43.4864502,43.5584259-43.4864502
				C244.1114349,216.1317139,263.6148987,235.5831757,263.6148987,259.6181641"/>
			<path class="st3" d="M286.184082,242.352356c0,23.9848022-19.4720764,43.4310303-43.5584259,43.4310303
				c-24.0654449,0-43.5375214-19.446228-43.5375214-43.4310303c0-24.0151062,19.4720764-43.4780731,43.5375214-43.4780731
				C266.7120056,198.8742828,286.184082,218.3372498,286.184082,242.352356"/>
			<path class="st3" d="M303.5007629,219.8110657c0,24.0119934-19.5244141,43.4833069-43.5584717,43.4833069
				c-24.0654297,0-43.5898285-19.4713135-43.5898285-43.4833069c0-23.9785309,19.5243988-43.4310303,43.5898285-43.4310303
				C283.9763489,176.3800354,303.5007629,195.8325348,303.5007629,219.8110657"/>
			<path class="st3" d="M314.3720398,193.6270142c0,23.9785461-19.4930115,43.4770355-43.5793762,43.4770355
				c-24.0340424,0-43.516571-19.4984894-43.516571-43.4770355c0-24.0098877,19.4825287-43.4310303,43.516571-43.4310303
				C294.8790283,150.1959839,314.3720398,169.6171265,314.3720398,193.6270142"/>
			<path class="st3" d="M318.1074219,165.5301056c0,23.9889984-19.5244141,43.4310455-43.5898438,43.4310455
				c-24.0863495,0-43.5584259-19.4420471-43.5584259-43.4310455c0-24.0098877,19.4720764-43.4832764,43.5584259-43.4832764
				C298.5830078,122.0468292,318.1074219,141.5202179,318.1074219,165.5301056"/>
			<path class="st4" d="M274.5175781,165.5301056c0,60.0121918-48.7586517,108.6413422-108.9222565,108.6413422
				c-60.1228027,0-108.9065704-48.6291504-108.9065704-108.6413422c0-60.0403748,48.7837715-108.6664276,108.9065704-108.6664276
				C225.7589264,56.863678,274.5175781,105.4897308,274.5175781,165.5301056z"/>
			<path class="st5" d="M274.5175781,165.5301056c0,60.0121918-48.7586517,108.6413422-108.9222565,108.6413422
				c-60.1228027,0-108.9065704-48.6291504-108.9065704-108.6413422c0-60.0403748,48.7837715-108.6664276,108.9065704-108.6664276
				C225.7589264,56.863678,274.5175781,105.4897308,274.5175781,165.5301056"/>
			<path class="st5" d="M318.1074219,165.5301056c0,83.996994-68.2621307,152.0717621-152.5121002,152.0717621
				c-84.2102051,0-152.4676361-68.0747681-152.4676361-152.0717621c0-84.0189056,68.257431-152.1496735,152.4676361-152.1496735
				C249.8452911,13.3804321,318.1074219,81.5112,318.1074219,165.5301056"/>
		</g>
		<line class="st6" x1="275.4740295" y1="166.1100769" x2="317.4333496" y2="166.1100769"/>
		<g class="st2">
			<defs>
				<rect id="SVGID_9_" x="143.5987244" y="157.0600739" width="22.2951965" height="33.5796051"/>
			</defs>
			<clipPath id="SVGID_10_">
				<use xlink:href="#SVGID_9_"  style="overflow:visible;"/>
			</clipPath>
			<path class="st7" d="M159.4186859,167.6711731c-0.2365417-0.5849457-0.5913696-1.0601501-1.0666046-1.4266815
				c-0.4730835-0.365448-1.0548706-0.5487213-1.7442627-0.5487213c-0.6819458,0-1.3606873,0.1875305-2.0362396,0.5593872
				c-0.674057,0.3729095-1.277359,0.8555756-1.8093719,1.4479675c-0.667984,0.7192078-1.1954193,1.4980774-1.5830688,2.3376617
				c-0.3875275,0.8406677-0.6894989,1.6919861-0.9051666,2.5560913c-0.2510376,0.9418793-0.4053192,1.8592529-0.4627533,2.75
				c-0.014389,0.168335-0.021637,0.3356171-0.021637,0.5018311c0,0.6978912,0.1150818,1.3808594,0.3444824,2.0499878
				c0.2229156,0.5934753,0.5641022,1.0899811,1.0235596,1.4906006c0.4594574,0.4016876,1.0339966,0.6014709,1.7228546,0.6008301
				c0.7111359,0.0006409,1.4066162-0.2033997,2.0853577-0.6114807c0.6776733-0.4070129,1.286087-0.9109802,1.8252563-1.510849
				c0.6968536-0.8087006,1.2381439-1.6621399,1.6259918-2.5614014c0.3878632-0.8992615,0.7043152-1.8166504,0.9472656-2.7510681
				c0.2237549-0.8704987,0.3633423-1.7282104,0.4208832-2.5731354v-0.3654633
				C159.7852325,168.9199066,159.6637573,168.2720947,159.4186859,167.6711731z M161.5945129,172.9420929
				c-0.2578735,1.0111389-0.6766205,1.9871216-1.2541351,2.9290009c-0.5785828,0.9408112-1.3052826,1.8017273-2.1811523,2.5816498
				c-0.7895508,0.7042847-1.6537018,1.2647247-2.5913696,1.6791992c-0.9365997,0.4143677-1.8755493,0.6214905-2.8160858,0.6214905
				c-0.9477997,0-1.7902069-0.2085114-2.5261688-0.6267242c-0.7359619-0.4188385-1.3229675-0.9824677-1.760788-1.6942139
				c-0.4810944-0.787384-0.7575989-1.6589508-0.8295288-2.6146851c-0.028656-0.2290802-0.043045-0.4592133-0.043045-0.6904297
				c0-0.7170715,0.0934448-1.4597015,0.2797089-2.2268524c0.2731934-1.0249786,0.6947174-2.0190735,1.2660522-2.9854584
				c0.5712433-0.965332,1.301239-1.8379517,2.1914825-2.6200104c0.7902069-0.7032166,1.6536102-1.27005,2.5908508-1.6983795
				c0.9368134-0.4293823,1.8829956-0.6435394,2.8377228-0.6435394c0.9483185,0,1.7868958,0.2162933,2.5157166,0.64888
				c0.7288208,0.4325714,1.311676,1.0036774,1.7496033,1.7143555c0.4816284,0.7884521,0.7650452,1.6663971,0.8513641,2.6349182
				c0.013855,0.2376099,0.0213165,0.4709473,0.0213165,0.7010803
				C161.8960571,171.3982239,161.7958984,172.1621704,161.5945129,172.9420929z"/>
		</g>
		<path class="st2" d="M244.8295288,90.9268188l-11.1582031,5.6677246l3.8034058,0.515152l0.8268433,0.8672791l0.3329773,3.82341
			L244.8295288,90.9268188z M165.5458984,165.6758881l71.9357452-68.5731354l0.8268585,0.8678131l-71.9352112,68.5731506
			c-0.2397461,0.2285461-0.6190796,0.2194977-0.847641-0.0202332S165.3061523,165.9044342,165.5458984,165.6758881z"/>
		<g class="st2">
			<defs>
				<rect id="SVGID_11_" x="191.9346924" y="64.0604553" width="26.1210938" height="33.8302002"/>
			</defs>
			<clipPath id="SVGID_12_">
				<use xlink:href="#SVGID_11_"  style="overflow:visible;"/>
			</clipPath>
			<path class="st8" d="M207.2141724,77.1818848c-0.0426331,0.1960449-0.150238,0.2930145-0.3228607,0.2930145
				c-0.013855,0.0138397-0.0500793,0.0213013-0.1076202,0.0202484c-0.0362244,0.0010529-0.0649872-0.0064087-0.0863037-0.0202484
				h-0.0969543c-0.1864624,0-0.2802429-0.0692596-0.2802429-0.2098999v-0.072464
				c0.086319-0.515686,0.1289368-0.9930267,0.1289368-1.433075v-0.3974152
				c-0.0426178-0.5359497-0.1630249-0.9972992-0.3601532-1.3851471c-0.197113-0.3867493-0.4869385-0.6861572-0.8673248-0.8992615
				c-0.3803864-0.2120361-0.8619995-0.318573-1.4437714-0.3196411c-0.3367004,0.0010681-0.6797943,0.074585-1.0282135,0.2205505
				c-0.3477936,0.1470337-0.6725616,0.3452148-0.9745331,0.5956116c-0.3300934,0.2727661-0.59935,0.5806885-0.8078613,0.9259033
				c-0.2078857,0.3452148-0.3588715,0.6989594-0.4529572,1.0612183c-0.0712891,0.2589111-0.1104889,0.5050507-0.1182709,0.7426453
				c0,0.3271027,0.0719299,0.6414185,0.2156677,0.9408264c0.2085114,0.5028992,0.581665,0.8236237,1.1202698,0.9621277
				l2.4774323,0.6904449c0.4517822,0.1331787,0.838562,0.3441467,1.1582184,0.6328888
				c0.3196564,0.2898102,0.5593872,0.6307678,0.7213593,1.0249939c0.1619568,0.3942413,0.2567749,0.8236237,0.285553,1.2903137
				v0.1885834c0,0.404892-0.0575409,0.8193665-0.1726074,1.2444916c-0.150238,0.5860138-0.3910522,1.1507263-0.7213593,1.6941223
				c-0.330307,0.5444641-0.7394714,1.0324554-1.2285309,1.463974c-0.4667053,0.3974304-0.9770813,0.7170715-1.5343475,0.9565887
				c-0.5569458,0.2404785-1.1151733,0.3607788-1.6753082,0.3607788c-0.8254547,0-1.5293274-0.132019-2.1110992-0.3974304
				c-0.581665-0.2635956-1.0123444-0.5981598-1.2928009-1.0041199l-1.0659332,1.2655945
				c-0.092804,0.0907745-0.1902008,0.1359558-0.2908936,0.1359558h-0.0646667c-0.1791229,0-0.2765045-0.0693665-0.2908936-0.2091522
				c0-0.0418854,0.0110931-0.0798035,0.032074-0.1150818l1.2496338-4.8938751
				c0.0431519-0.1949768,0.1693115-0.2951355,0.3770905-0.3036652h0.2366486
				c0.0863037,0.0010681,0.1653748,0.0351563,0.2372894,0.1044159c0.028656,0.0564728,0.043045,0.105484,0.043045,0.1470337
				c0,0.0287781-0.0071411,0.0628662-0.0215149,0.1044312c-0.1294708,0.5028992-0.1941376,0.9695892-0.1941376,1.4011078
				c0,0.6914978,0.1693115,1.2764435,0.506546,1.7569885c0.5385132,0.7745972,1.4796753,1.161377,2.8222198,1.1603088
				c0.3372345,0.0010681,0.6803284-0.077774,1.0287628-0.2344055c0.3482056-0.1566315,0.6731873-0.3675995,0.9747314-0.6329041
				c0.330307-0.3057861,0.6084137-0.6456757,0.8342896-1.0196686c0.2258911-0.3718567,0.3931732-0.7575531,0.5007935-1.1560516
				c0.0713959-0.3196411,0.1076202-0.6190491,0.1076202-0.8992615c0-0.3473511-0.0458221-0.6819153-0.1395874-1.0036926
				c-0.2152252-0.5359344-0.613739-0.8811493-1.1954956-1.0345917l-2.4451447-0.6904297
				c-0.4379272-0.1182709-0.8150177-0.3111267-1.1313629-0.5796204c-0.3156128-0.2685089-0.5614319-0.5870819-0.7372437-0.9568024
				c-0.1757965-0.3697357-0.2784119-0.7778168-0.3071747-1.2242432V77.244751c0-0.3473511,0.0431519-0.7138824,0.1294556-1.0985107
				c0.1509857-0.5561829,0.3914642-1.0899963,0.7215576-1.5993042c0.3306274-0.5082245,0.7397919-0.9589233,1.2273712-1.3489075
				c0.4601898-0.3760986,0.9647217-0.6776428,1.5137787-0.9045715c0.5492706-0.2258911,1.09375-0.3399048,1.6318359-0.3399048
				c0.7405243,0,1.3500061,0.1385193,1.8305511,0.4133911c0.4816132,0.2759705,0.8300323,0.6009521,1.0452728,0.9770508
				l1.0346069-1.2444763c0.0564728-0.0969543,0.150238-0.1459656,0.2791748-0.1459656h0.0969543
				c0.1726227,0,0.2589264,0.0841675,0.2589264,0.2503967v0.0841675L207.2141724,77.1818848z"/>
			<path class="st8" d="M214.3296814,90.3210297c-0.8279114-0.0234528-1.6345062-0.0351715-2.4187317-0.0351715
				c-0.7831421,0-1.5897369,0.0117188-2.4187012,0.0351715v-0.5035553h0.4666901
				c0.1491699,0.0003204,0.2887573-0.0014954,0.4187469-0.0055389c0.1310577-0.0036163,0.2546539-0.0135345,0.3718567-0.0292969
				c0.117218-0.0153503,0.2184296-0.0311127,0.3036804-0.0472107c0.0724487-0.0112915,0.1321106-0.0471954,0.1790009-0.1079254
				c0.0479431-0.0604095,0.0713959-0.1277618,0.0713959-0.2024536l-0.0000153-6.5992889
				c-0.224823,0.0980225-0.5018463,0.1715393-0.8311005,0.2226868c-0.3292389,0.0511475-0.6893768,0.0756531-1.0814972,0.0756531
				v-0.4975891c0.5412903,0,1.0399475-0.0575256,1.4970551-0.1726074c0.4571075-0.1150665,0.852417-0.3313599,1.1859131-0.6478119
				h0.208847c0.1491699,0.0010681,0.2226868,0.0650024,0.2226868,0.193924v7.4250336
				c0,0.0783234,0.0223846,0.1468353,0.0681915,0.2053223c0.044754,0.058609,0.1108246,0.0937653,0.1960602,0.1050568
				c0.0713959,0.016098,0.164093,0.0318604,0.2770386,0.0472107c0.1118774,0.0157623,0.2397308,0.0256805,0.3814545,0.0292969
				c0.1417084,0.0040436,0.2802277,0.0058594,0.4155426,0.0055389h0.4858856V90.3210297z"/>
		</g>
		<g class="st2">
			<defs>
				<rect id="SVGID_13_" x="230.8727264" y="0.1886902" width="27.1134033" height="33.8302002"/>
			</defs>
			<clipPath id="SVGID_14_">
				<use xlink:href="#SVGID_13_"  style="overflow:visible;"/>
			</clipPath>
			<path class="st9" d="M246.1523895,13.3101196c-0.0426178,0.1960449-0.150238,0.2929993-0.3228455,0.2929993
				c-0.013855,0.013855-0.0500793,0.0213318-0.1076202,0.0202637c-0.0362244,0.0010681-0.0650024-0.0064087-0.086319-0.0202637
				h-0.0969543c-0.1864624,0-0.2802277-0.0692444-0.2802277-0.2098999v-0.0724487
				c0.0863037-0.515686,0.1289215-0.9930115,0.1289215-1.433075v-0.3974304
				c-0.0426178-0.5359192-0.1630249-0.9972839-0.3601532-1.3851318c-0.197113-0.3867493-0.4869385-0.6861572-0.8673401-0.8992615
				c-0.3803864-0.2120361-0.8620148-0.318573-1.4437866-0.3196411c-0.3367004,0.0010681-0.6798096,0.074585-1.0282288,0.2205505
				c-0.3477936,0.1470337-0.6725616,0.3452148-0.9745331,0.5956116c-0.3301086,0.2727661-0.5993652,0.5806885-0.8078918,0.9259033
				c-0.2078857,0.3452148-0.3588715,0.6989441-0.4529572,1.0612183c-0.0712738,0.2589111-0.1104889,0.5050354-0.1182709,0.7426453
				c0,0.3271179,0.0719299,0.6414185,0.2156677,0.9408264c0.2085266,0.5028992,0.5816803,0.8236084,1.1203003,0.9621277
				l2.4774628,0.6904297c0.4517822,0.1332092,0.838562,0.3441467,1.1582184,0.6329041
				c0.3196564,0.2898254,0.5594025,0.6307678,0.7213593,1.0249939c0.161972,0.3942261,0.2568054,0.8236389,0.2855682,1.2903137
				v0.1885986c0,0.4048767-0.0575409,0.8193359-0.1726074,1.2444763c-0.1502533,0.5860291-0.3910522,1.1507263-0.7213593,1.6941223
				c-0.3303223,0.5444641-0.7394867,1.0324402-1.2285614,1.4639587c-0.4667053,0.3974304-0.9770813,0.7170715-1.5343628,0.956604
				c-0.5569458,0.2404785-1.1151733,0.3607788-1.6753235,0.3607788c-0.82547,0-1.5293579-0.132019-2.1111298-0.3974304
				c-0.581665-0.2636108-1.0123596-0.598175-1.2928009-1.0041199l-1.0659637,1.2655945
				c-0.092804,0.0907898-0.1901855,0.1359558-0.2908783,0.1359558h-0.064682c-0.1791229,0-0.2765045-0.0693665-0.2908936-0.2091675
				c0-0.0418701,0.0110779-0.0798035,0.032074-0.1150513l1.249649-4.8938904
				c0.0431519-0.1949768,0.1693115-0.2951355,0.3770905-0.3036499h0.2366486
				c0.086319,0.0010376,0.1653748,0.0351563,0.2373047,0.1044006c0.028656,0.056488,0.043045,0.1054993,0.043045,0.1470337
				c0,0.0287781-0.0071411,0.0628662-0.0215302,0.1044312c-0.1294556,0.5028992-0.1941376,0.969574-0.1941376,1.4010925
				c0,0.6915283,0.1693115,1.2764587,0.5065613,1.7569885c0.5385132,0.7746277,1.4796906,1.161377,2.8222504,1.1603088
				c0.3372498,0.0010681,0.6803436-0.0777588,1.0287781-0.2344055c0.3482056-0.1566162,0.6732025-0.3675842,0.9747467-0.6328735
				c0.330307-0.3058167,0.6084137-0.6456909,0.8343048-1.0196838c0.2258911-0.3718567,0.3931732-0.7575684,0.5007935-1.1560364
				c0.0713959-0.3196716,0.1076202-0.6190491,0.1076202-0.899292c0-0.3473511-0.0458221-0.6819153-0.1395874-1.0036621
				c-0.2152405-0.5359497-0.613739-0.8811646-1.1955261-1.0346069L239.8191071,16.3638
				c-0.4379272-0.1182556-0.8150177-0.3111267-1.1313782-0.5796204c-0.3155975-0.2684937-0.5614166-0.5870972-0.7372284-0.9568176
				s-0.2784271-0.7778015-0.3071899-1.2242432l-0.0000153-0.2301331c0-0.3473511,0.0431671-0.7138672,0.1294708-1.0985107
				c0.1509857-0.5561829,0.3914642-1.0899963,0.7215729-1.5993042c0.3306274-0.5082397,0.7397919-0.9589233,1.2273712-1.3489075
				c0.4602051-0.3760986,0.9647369-0.6776428,1.5138092-0.9045715c0.5492706-0.2258911,1.09375-0.3399048,1.6318512-0.3399048
				c0.7405396,0,1.3500214,0.1385193,1.8305664,0.4133911c0.4816284,0.2759705,0.8300476,0.6009521,1.0452881,0.9770508
				l1.0346375-1.2444763c0.0564575-0.0969543,0.150238-0.1459656,0.2791595-0.1459656h0.0969696
				c0.1726074,0,0.2589111,0.0841675,0.2589111,0.2503967v0.0841675L246.1523895,13.3101196z"/>
			<path class="st9" d="M253.7687988,26.4492493h-5.4991913v-0.3220825c0-0.0230103,0.013855-0.0581665,0.0404816-0.1053772
				l2.2098999-2.1433411c0.2610626-0.2572021,0.5253143-0.520813,0.7927551-0.7903748
				c0.2685242-0.2695618,0.508255-0.5444641,0.7203064-0.8257446c0.2120361-0.2812805,0.3803864-0.571106,0.5071869-0.8694458
				c0.1257324-0.2983398,0.1885986-0.6115723,0.1885986-0.9397583c0-0.2770081-0.0404968-0.5359192-0.1214752-0.7756653
				c-0.0820465-0.2408142-0.1981812-0.4507141-0.3516235-0.6329041c-0.1534424-0.1811218-0.344162-0.3281555-0.5743256-0.4389648
				c-0.2290802-0.1108093-0.4954681-0.1672974-0.7970123-0.1672974c-0.449646,0-0.8481598,0.1204224-1.1923218,0.3601379
				c-0.344162,0.2408142-0.5732574,0.5050354-0.686203,0.7937927c-0.0223694,0.0074463,0.013855,0.0117188,0.1086884,0.0117188
				h0.1140137c0.1353149,0.02771,0.252533,0.0692444,0.3516235,0.1257324
				c0.0990906,0.0564575,0.1822052,0.1353149,0.2503967,0.2344055c0.0671234,0.0990906,0.1012268,0.2194824,0.1012268,0.3601379
				c0,0.2344055-0.0852356,0.4144592-0.2567902,0.5391235s-0.3622894,0.1875305-0.5743256,0.1864624
				c-0.2024536,0.0010681-0.3921051-0.0617981-0.566864-0.1864624c-0.1758118-0.1246643-0.2642517-0.304718-0.2642517-0.5391235
				c0-0.328186,0.072464-0.6382446,0.2163086-0.9312439c0.1449127-0.2929993,0.3399048-0.5466003,0.5881653-0.7607422
				c0.2472076-0.2152405,0.5402222-0.3846436,0.878006-0.5093079c0.3377686-0.1257324,0.6957855-0.1875305,1.0740509-0.1885986
				c0.4688263,0.0010681,0.8982391,0.0617981,1.2871552,0.1853943c0.3899841,0.1225281,0.7213593,0.299408,0.9962616,0.529541
				c0.2749176,0.2312317,0.4901428,0.4975891,0.6457214,0.7991333c0.1544952,0.3025818,0.2322845,0.637146,0.2322845,1.0047302
				c0,0.4059448-0.103363,0.7799377-0.3100739,1.1209106c-0.2077789,0.3420105-0.4645691,0.6552734-0.7703705,0.9408264
				c-0.3058167,0.2844849-0.6318665,0.5529785-0.9760284,0.8044128c-0.3452301,0.2521057-0.6563721,0.4969482-0.9355316,0.7348938
				l-1.5546112,1.3058472h2.0341034c0.283432,0.0004272,0.5487518-0.0013733,0.793808-0.0054321
				c0.2450714-0.0036316,0.4528503-0.0117188,0.6244049-0.0234375s0.2589264-0.0194092,0.2631836-0.0237732
				c0.0362396-0.0270691,0.0703278-0.081604,0.1022949-0.1636658c0.030899-0.0819397,0.06073-0.1785583,0.0873718-0.2897949
				s0.0543365-0.2243958,0.0809784-0.3396912c0.02771-0.1149597,0.0522156-0.2412109,0.074585-0.3780212h0.4997253
				L253.7687988,26.4492493z"/>
		</g>
		<line class="st10" x1="337.8083496" y1="128.5184479" x2="296.4537048" y2="166.1100769"/>
		<g class="st2">
			<defs>
				<rect id="SVGID_15_" x="313.575592" y="100.3365021" width="47.6654358" height="33.5795898"/>
			</defs>
			<clipPath id="SVGID_16_">
				<use xlink:href="#SVGID_15_"  style="overflow:visible;"/>
			</clipPath>
			<path class="st11" d="M328.3136902,120.4122162c-0.0788269,0.3207092-0.1715393,0.6765747-0.2802124,1.0665436
				c-0.1065674,0.3910217-0.2503967,0.7532959-0.430481,1.0878448c-0.1789856,0.3345642-0.4048767,0.6243744-0.6787109,0.8678436
				c-0.2727661,0.2437744-0.613739,0.3653412-1.0228882,0.3653412c-0.5029297,0-0.9088745-0.1287079-1.2167969-0.3862305
				c-0.309021-0.2577362-0.4997253-0.5230408-0.5715637-0.7958069c-0.2437744,0.3015289-0.5705566,0.5732269-0.9797058,0.8166809
				c-0.4091797,0.2437897-0.8836365,0.3653564-1.4222412,0.3653564c-0.4875793,0-0.9241333-0.0901337-1.3084412-0.2719116
				c-0.3843384-0.1803894-0.6875916-0.4594269-0.9104919-0.8366089c-0.2150269-0.4038239-0.3189087-0.8491821-0.3124084-1.3382416
				v-0.0841675c0.0143738-0.5082397,0.079071-1.0132751,0.1941528-1.5161743
				c0.1149597-0.480545,0.2823486-1.0090179,0.5013123-1.5886383c0.2188416-0.5785522,0.4287415-1.1400604,0.6293945-1.6845245
				c0.2156372-0.5774841,0.3234863-1.0516205,0.3234863-1.4213409c0-0.3132477-0.1326599-0.4709473-0.3987122-0.4709473
				c-0.2438049,0-0.4646606,0.0703278-0.6621094,0.2098999c-0.1973267,0.1395874-0.3770752,0.3334961-0.5385132,0.5796204
				c-0.1614075,0.2482605-0.3071899,0.5412598-0.4366455,0.8790283c-0.1293335,0.3388214-0.2365417,0.6989441-0.3228455,1.0814514
				c-0.079071,0.1885986-0.2117004,0.2866211-0.3985901,0.2930145h-0.2477417c-0.1726074,0-0.2588196-0.0863037-0.2588196-0.2610474
				v-0.0735168c0.1005859-0.3835754,0.2339783-0.7745972,0.3986206-1.1762848
				c0.1653442-0.4006195,0.3738708-0.7639465,0.6249084-1.0921173c0.2515564-0.3281708,0.5391541-0.5998688,0.8619995-0.8161621
				c0.322937-0.2152252,0.6927795-0.3238983,1.1091919-0.3249664c0.3594971,0.0010681,0.6659241,0.077774,0.9208984,0.2312164
				c0.2548828,0.1534271,0.4490051,0.3569336,0.581665,0.6115723c0.1333008,0.2546539,0.2065125,0.541275,0.2208862,0.8619843
				v0.0735168c0,0.3004608-0.06073,0.6105194-0.1835938,0.9301605c-0.2078552,0.5444641-0.4137268,1.1006317-0.618927,1.6685333
				c-0.2045898,0.5689697-0.3641052,1.0793304-0.4791565,1.5321655c-0.1149902,0.4538879-0.1940308,0.9024506-0.2371826,1.3488922
				c-0.0287781,0.1182709-0.0464783,0.2482605-0.0536194,0.3867645c0,0.271698,0.0469971,0.5412598,0.139801,0.8044434
				c0.0647888,0.2386627,0.183075,0.4261932,0.3555603,0.5657654c0.1726074,0.1395721,0.3771973,0.2088318,0.613739,0.2088318
				c0.4745789,0,0.8875732-0.1417084,1.2391968-0.4283142c0.351593-0.285553,0.6601868-0.6659241,0.9254761-1.1411285
				c0.0144043-0.0543518,0.0254822-0.119339,0.0327148-0.1917877c0.0071411-0.0735168,0.0175781-0.1491699,0.0319824-0.2258911
				l1.615509-6.2330475c0.0660706-0.2567749,0.1960449-0.4464264,0.393158-0.5689545
				c0.1981812-0.1214752,0.3974304-0.1832733,0.5977478-0.1832733c0.2088623,0,0.3814697,0.0628662,0.5178528,0.1885986
				c0.09375,0.0905609,0.1395874,0.2120361,0.1395874,0.3654633c0,0.0767059-0.0074768,0.1576843-0.0213318,0.240799
				l-1.6152954,6.2319794c-0.1150818,0.4325714-0.1726074,0.8161469-0.1726074,1.1507111
				c0,0.091629,0.0063782,0.1885834,0.0213013,0.2929993c0.0362244,0.3345642,0.2045898,0.5018463,0.506134,0.5018463
				c0.3025818,0,0.562561-0.2567749,0.7810059-0.7735291c0.2194824-0.5157013,0.4325867-1.178421,0.6403809-1.9871216
				c0.0436707-0.1811371,0.1661987-0.271698,0.3665161-0.2727661h0.2471924
				c0.0799255,0.0010681,0.158783,0.0255737,0.2376099,0.0735168c0.0287781,0.0639343,0.0437012,0.1161346,0.0437012,0.1566315
				C328.3467407,120.335495,328.3360901,120.3706665,328.3136902,120.4122162z"/>
			<path class="st11" d="M340.6096497,110.3210754l-5.901825,11.4922485h11.7940674L340.6096497,110.3210754z
				 M349.485321,123.1515656c0.0223694,0.0500793,0.0319519,0.0948334,0.0319519,0.135849
				c0,0.0561523-0.0138245,0.0980225-0.0426025,0.1255188c-0.0437012,0.0836334-0.1257324,0.1253967-0.2482605,0.1253967H333.286438
				c-0.1150818,0-0.1982117-0.0417633-0.248291-0.125412c-0.0287476-0.0274811-0.0426025-0.0693512-0.0426025-0.1255035
				c0-0.0410309,0.0106506-0.0857849,0.0319519-0.135849l7.6364746-14.8804779
				c0.0937805-0.2013702,0.2589417-0.2993927,0.4954834-0.2929993h0.1939087
				c0.2226868,0.0010681,0.3878479,0.0948334,0.4954529,0.2823486L349.485321,123.1515656z"/>
			<path class="st11" d="M357.1910706,114.681015c-0.0777893,0.2098999-0.2184448,0.3143158-0.4198303,0.3143158h-2.0031433
				l-1.5939941,6.1797791c-0.1289368,0.4474945-0.1939087,0.8374634-0.1939087,1.1709595
				c0,0.091629,0.0074463,0.1790009,0.0213013,0.2621002c0.0362244,0.3345642,0.2045593,0.5018463,0.5061035,0.5018463
				c0.2738342,0,0.5317078-0.074585,0.7756958-0.2248077c0.2450867-0.1491699,0.4741516-0.3505554,0.6893921-0.6009369
				c0.2162781-0.2514496,0.4091492-0.5465851,0.5817566-0.8886108c0.1726074-0.3420105,0.3303223-0.7010803,0.4730835-1.0782623
				c0.0223694-0.0830994,0.0692749-0.1438446,0.1406555-0.1821899c0.0724487-0.0383606,0.1406555-0.0575409,0.2045593-0.058609
				h0.2695923c0.09375,0.0010681,0.168335,0.0394287,0.2258911,0.1150818
				c0.0223694,0.0500641,0.0319519,0.0948181,0.0319519,0.1363678v0.0628662
				c-0.150238,0.4112701-0.3388367,0.8182831-0.5647278,1.2189026c-0.2258606,0.4016876-0.4869385,0.7618256-0.7810059,1.0825348
				s-0.6190491,0.5852661-0.9749451,0.7937775c-0.3558655,0.2091522-0.7479858,0.3136749-1.1795044,0.3136749
				c-0.3729248,0-0.6957703-0.0712738-0.9696045-0.2143707c-0.2727661-0.1424561-0.4912109-0.3401031-0.6563721-0.5958252
				c-0.1651306-0.2535706-0.2621155-0.545517-0.290863-0.8736877c-0.0149231-0.0830994-0.0213318-0.1736755-0.0213318-0.271698
				c0-0.2365265,0.0287781-0.4773254,0.0863342-0.7213287l1.5822754-6.1275635h-2.0244751
				c-0.1790161,0-0.2770386-0.0937653-0.2908936-0.2823486v-0.0841675l0.0650024-0.177948
				c0.0713806-0.2077637,0.2045898-0.3132477,0.3984985-0.3132477h2.056427l0.8843689-3.4297638
				c0.0639343-0.2578583,0.1949768-0.449646,0.3920898-0.574295c0.1971436-0.1257324,0.3974609-0.1885834,0.5977783-0.1896515
				c0.2088318,0.0010681,0.3814392,0.0671234,0.5178223,0.199234c0.0927124,0.091629,0.1395874,0.2162933,0.1395874,0.3761139
				c0,0.0767212-0.0074768,0.1544952-0.0213013,0.2301483l-0.8726501,3.3882294h1.981842
				c0.1875,0,0.2802124,0.0948181,0.2802124,0.2823486v0.0735168L357.1910706,114.681015z"/>
		</g>
		<path class="st2" d="M292.5490723,250.8728943l-7.9594727-9.6573334l0.3249817,3.8239288l-0.6669922,0.9956818
			l-3.6595459,1.1560211L292.5490723,250.8728943z M166.2928314,165.611969l118.6297455,79.4328613l-0.6670227,0.9962006
			L165.625824,166.6076355c-0.2749176-0.1837769-0.3484344-0.5561676-0.1641083-0.8310547
			C165.6455231,165.5011597,166.0179291,165.4276428,166.2928314,165.611969z"/>
		<g class="st2">
			<defs>
				<rect id="SVGID_17_" x="120.3622894" y="106.2090836" width="74.6929932" height="33.8302002"/>
			</defs>
			<clipPath id="SVGID_18_">
				<use xlink:href="#SVGID_17_"  style="overflow:visible;"/>
			</clipPath>
			<path class="st12" d="M136.627594,118.5250092c0.1150665-0.4176788,0.1790009-0.8353424,0.1939087-1.2540741v-0.0628662
				c0-0.3548126-0.1108093-0.6616669-0.334549-0.9205933c-0.2653046-0.3057861-0.6115723-0.5220795-1.0388184-0.6478119
				c-0.4272614-0.1257172-0.8960571-0.1885834-1.4053497-0.1885834h-1.4330444c-0.365448,0-0.5849304,0.0287628-0.6563263,0.0841675
				c-0.0724487,0.0564728-0.1470337,0.2546539-0.226944,0.5956116l-1.42099,5.5319977h2.0783844
				c0.5092926,0,1.0132599-0.0628662,1.5086975-0.1875305c0.4954376-0.1257172,0.9653015-0.3484039,1.4096069-0.6701813
				c0.381424-0.271698,0.6690979-0.6126556,0.8619537-1.023941
				C136.3591003,119.3699341,136.5125275,118.9512024,136.627594,118.5250092z M139.1580658,127.319519
				c-0.077774,0.3143158-0.1960449,0.6233063-0.3547974,0.9259033c-0.1576843,0.3036652-0.3516083,0.5774994-0.5817413,0.8214874
				c-0.2290802,0.2440033-0.486908,0.4435577-0.7703247,0.6004028c-0.2834167,0.1569519-0.590271,0.2353668-0.9205627,0.2353668
				c-1.0409546,0-1.8240662-0.2752228-2.3482666-0.8261719c-0.3590698-0.3761292-0.5380707-0.8491974-0.5380707-1.4224243
				c0-0.2919464,0.0468903-0.6083984,0.1395874-0.9514771l0.4847717-1.8720703
				c0.0575409-0.2365265,0.0863037-0.4592133,0.0863037-0.6691132c0-0.1033478-0.0074615-0.2120361-0.0213013-0.3239136
				c-0.0436859-0.2919464-0.1438446-0.5497894-0.3015289-0.7735443c-0.1587524-0.2226868-0.3611908-0.3984833-0.6083832-0.5274048
				c-0.2482452-0.1289368-0.5401764-0.193924-0.8789978-0.193924h-2.4334106l-1.4326019,5.5735474
				c-0.0287781,0.133194-0.0431519,0.240799-0.0431519,0.3239136c0,0.105484,0.0216217,0.1747437,0.0647736,0.2088318
				c0.0934448,0.0564728,0.2875671,0.0895081,0.5816345,0.1001587c0.2947083,0.0106506,0.6103973,0.015976,0.9476166,0.0149078
				c0.2013702,0.0010681,0.3019562,0.0841827,0.3019562,0.2514648c0,0.0426178-0.0071411,0.0873718-0.0215302,0.1353149
				l-0.0431519,0.1672821c-0.0784149,0.2098999-0.2189484,0.3139954-0.4202118,0.3139954
				c-0.8829498-0.0417633-1.7731323-0.0625458-2.6711044-0.0625458c-0.8973312,0-1.7986069,0.0207825-2.7030716,0.0625458
				c-0.1934891,0-0.2973709-0.0902405-0.3123932-0.2713776v-0.0841675l0.043045-0.177948
				c0.0575333-0.2290802,0.1974258-0.3409424,0.4195709-0.3345642c0.3379669,0.0010681,0.6575012-0.0042572,0.9588089-0.0149078
				c0.3019562-0.0106506,0.5242081-0.0468903,0.6679382-0.1108093c0.1365891-0.0756531,0.2404709-0.2631836,0.3123932-0.5647125
				l3.0266495-11.7853241c0.0431519-0.1523743,0.0640259-0.2706451,0.0640259-0.3548126
				c0-0.0830994-0.0176849-0.1321106-0.0535889-0.1470337c-0.1006775-0.0617981-0.2960815-0.0990906-0.586853-0.1140137
				c-0.290863-0.0138397-0.60849-0.0213013-0.9535828-0.0213013c-0.2006226,0-0.3013153-0.0937653-0.3013153-0.2823486v-0.0841827
				l0.0647736-0.1779327c0.043045-0.2077637,0.1764526-0.3121948,0.3985901-0.3132477h6.063324
				c0.6829529,0.0010529,1.3318176,0.091629,1.9497986,0.2727509c0.6179657,0.1811371,1.1560211,0.480545,1.6152344,0.8982086
				c0.3803711,0.3356323,0.6573792,0.7469025,0.8299866,1.2338409c0.1076202,0.2653046,0.1651459,0.5412598,0.1715393,0.8268127
				c0,0.2589111-0.0394135,0.5124969-0.1182556,0.7628784c-0.1353149,0.5583191-0.4197998,1.0644226-0.8502502,1.5172577
				c-0.4315033,0.4539032-0.9162903,0.8395996-1.4543457,1.1603088c-0.3739777,0.2162933-0.7522125,0.3963623-1.1357727,0.5391388
				c-0.3846436,0.1427765-0.6595306,0.2312164-0.8246765,0.2653046c0.4091492,0.1608887,0.7969666,0.4752045,1.1634827,0.9418945
				c0.3089905,0.4048767,0.4634857,0.8886108,0.4634857,1.4533234c0,0.1182709-0.0074615,0.2375946-0.0213165,0.3558655
				l-0.2056274,1.8816528c-0.0564728,0.4890594-0.0852356,0.9141846-0.0852356,1.2764435
				c0,0.2376099,0.0138397,0.4464417,0.0426178,0.6265106c0.0500641,0.4123383,0.2652893,0.617981,0.6456604,0.6169128
				c0.3452148,0.0010681,0.6605835-0.1853943,0.9482574-0.5583191c0.287674-0.3729095,0.4997101-0.8342743,0.635025-1.3861847
				c0.0799103-0.208847,0.2194824-0.3100586,0.4208527-0.3036652h0.1715393
				c0.1939087,0.0010681,0.2983246,0.091629,0.3121796,0.271698V127.319519z"/>
			<path class="st12" d="M145.0074463,132.4696503c-0.8289337-0.0234375-1.6344147-0.0351715-2.4185944-0.0351715
				c-0.7831116,0-1.5896759,0.011734-2.4185944,0.0351715v-0.5035553h0.4666748
				c0.1480865,0.0003204,0.2876587-0.0014954,0.4187164-0.0055389c0.1299896-0.0036163,0.2546539-0.0135345,0.3718414-0.0292969
				c0.1172028-0.0153503,0.2184296-0.0311127,0.3036652-0.0471954c0.0713806-0.0113068,0.1321106-0.0472107,0.1790009-0.1079407
				c0.046875-0.0604095,0.0703125-0.1277466,0.0703125-0.2024384v-6.5993042
				c-0.2248077,0.0980225-0.5018311,0.1715546-0.8300018,0.2226868c-0.3292236,0.0511475-0.6893463,0.0756531-1.0814362,0.0756531
				v-0.4975739c0.5401917,0,1.0398865-0.0575409,1.4969788-0.1726227c0.457077-0.1150665,0.8512878-0.3313599,1.1847839-0.6478119
				h0.2098999c0.1481018,0.0010681,0.2226715,0.0650024,0.2226715,0.193924l0.0000153,7.4250488
				c0,0.0783081,0.0223694,0.1468201,0.0671234,0.205307c0.0458069,0.058609,0.1108093,0.0937653,0.1960449,0.105072
				c0.0724487,0.0160828,0.1651459,0.0318451,0.2770233,0.0471954c0.1129303,0.0157623,0.2397156,0.0256805,0.381424,0.0292969
				c0.1427765,0.0040436,0.2812805,0.0058594,0.4155273,0.0055389h0.4869232V132.4696503z"/>
			<line class="st13" x1="151.5898438" y1="120.7508087" x2="166.5808716" y2="120.7508087"/>
			<line class="st13" x1="151.5898438" y1="125.2482147" x2="166.5808716" y2="125.2482147"/>
			<path class="st12" d="M183.5419312,126.2849426c-0.0788422,0.3207092-0.1715393,0.6765747-0.2802124,1.0665436
				c-0.1065521,0.391037-0.2503967,0.7532959-0.4304504,1.0878601c-0.1790009,0.3345642-0.4048767,0.6243744-0.6786957,0.8683777
				c-0.2727661,0.2433472-0.6137085,0.3648224-1.0228424,0.3648224c-0.5028992,0-0.908844-0.1287231-1.2167664-0.3861389
				c-0.3089752-0.257843-0.4996948-0.5231476-0.5721436-0.7959137c-0.2429199,0.3015289-0.5700226,0.5732269-0.9791565,0.8172302
				c-0.4091339,0.2433472-0.8832703,0.3648224-1.4223938,0.3648224c-0.486908,0-0.9237518-0.0901489-1.3083801-0.2718048
				c-0.3835602-0.1803894-0.6872253-0.459549-0.9098969-0.836731c-0.2152252-0.4038239-0.3196411-0.8491974-0.3121796-1.3382568
				v-0.0841675c0.0138397-0.5082397,0.0788422-1.0132751,0.1939087-1.5161896
				c0.1150665-0.4805298,0.2823486-1.0090027,0.5007629-1.5886383c0.2194824-0.5785522,0.4293823-1.1400604,0.6296844-1.6845245
				c0.2152252-0.5774994,0.3238983-1.0516357,0.3238983-1.4213562c0-0.3132629-0.1331787-0.4698792-0.3995514-0.4709473
				c-0.2429199,0.0010681-0.4645233,0.0703278-0.6616364,0.2098999s-0.377182,0.3334961-0.5380707,0.5806885
				c-0.1619415,0.2471924-0.3079071,0.5402069-0.4368286,0.8779602c-0.1299896,0.3388214-0.2365417,0.6989594-0.3228455,1.0814667
				c-0.0788422,0.1885834-0.2120209,0.2866211-0.398468,0.2930145h-0.2482605
				c-0.1725922,0.0010681-0.2588959-0.0863037-0.2589111-0.2610474v-0.0735168
				c0.1012268-0.3835754,0.2344055-0.7746124,0.3984833-1.1763c0.166214-0.4006195,0.3739777-0.7639465,0.6254272-1.0921173
				s0.5391235-0.5998688,0.8619537-0.8161621c0.3228455-0.2152252,0.6925507-0.3239136,1.1091461-0.3249817
				c0.3590698,0.0010681,0.6659241,0.0777893,0.9205627,0.2312164s0.4496155,0.3569336,0.5817413,0.6115875
				c0.1331787,0.2546539,0.2066956,0.5423279,0.2205505,0.8619843v0.0735168c0,0.3004608-0.06073,0.6105194-0.1832581,0.9301605
				c-0.2077637,0.5444641-0.4134064,1.100647-0.6190338,1.6685486c-0.2045593,0.5689697-0.3643799,1.0793457-0.4794617,1.5321655
				c-0.1139984,0.4539032-0.1939087,0.9024811-0.2365265,1.3489075c-0.0287628,0.1182709-0.046875,0.2482605-0.0532684,0.3867798
				c0,0.271698,0.046875,0.5412598,0.1395721,0.8044281c0.0649872,0.238678,0.1832581,0.4262085,0.3547974,0.5657806
				c0.1726074,0.1395721,0.3771667,0.2088318,0.6137085,0.2088318c0.4751892,0,0.8875275-0.1417084,1.2391205-0.4283295
				c0.3516083-0.2855377,0.6605835-0.6659241,0.9258881-1.1400604c0.0149231-0.0554047,0.0255737-0.1204071,0.0330353-0.1928558
				c0.0063934-0.0735168,0.0170441-0.1491699,0.0319519-0.2258759l1.6152344-6.2320251
				c0.0650024-0.257843,0.1960449-0.4475098,0.393158-0.5700378c0.1981812-0.12146,0.3974304-0.1822052,0.5977325-0.1832581
				c0.2088165,0.0010529,0.381424,0.0628662,0.517807,0.1885834c0.0937653,0.0905762,0.1395874,0.2131042,0.1395874,0.3654633
				c0,0.0767212-0.0074615,0.1576996-0.0213165,0.240799l-1.6152344,6.2320251
				c-0.1150665,0.4325867-0.1726074,0.8161621-0.1726074,1.1507263c0,0.091629,0.0063934,0.1885834,0.0213165,0.2929993
				c0.0362244,0.3345642,0.2045593,0.5018463,0.5060883,0.5018463c0.302597,0,0.562561-0.2567749,0.7809753-0.7735443
				c0.2194977-0.515686,0.4325714-1.178421,0.6403503-1.9871216c0.0436859-0.1811371,0.166214-0.271698,0.3665161-0.271698
				h0.2471771c0.0799255,0,0.1587677,0.0245056,0.2376099,0.0724487c0.0287628,0.0639343,0.0436707,0.1161346,0.0436707,0.1566315
				C183.5749512,126.2082214,183.5643005,126.2433777,183.5419312,126.2849426z"/>
			<path class="st12" d="M191.0054779,120.5536957c-0.077774,0.2098999-0.2184296,0.3143158-0.4197998,0.3143158h-2.003067
				l-1.5939178,6.1798096c-0.1289215,0.4475098-0.193924,0.8374786-0.193924,1.1709747
				c0,0.091629,0.0074768,0.1790009,0.0213165,0.2621155c0.0362244,0.334549,0.2045746,0.5018311,0.5061035,0.5018311
				c0.273819,0,0.531662-0.074585,0.77565-0.2248077c0.2450562-0.1491699,0.4741211-0.3494873,0.6893463-0.6009369
				c0.2162933-0.2514496,0.4091339-0.5466003,0.5817413-0.8886108c0.1726074-0.3409576,0.3302917-0.7010956,0.4741211-1.0782776
				c0.0213318-0.0830994,0.0682068-0.1438446,0.1395874-0.1821899c0.0724487-0.0372925,0.140625-0.0575409,0.2045593-0.0575409
				h0.2695618c0.0937653,0,0.1683502,0.0383606,0.2258911,0.1139984c0.0223694,0.0500793,0.0319519,0.0948334,0.0319519,0.1363831
				v0.0628662c-0.1502228,0.4112854-0.3388062,0.8182983-0.5646973,1.2189178
				c-0.2258606,0.4016876-0.486908,0.7618256-0.7809753,1.0825348s-0.6190186,0.5849457-0.974884,0.7937775
				c-0.3547974,0.2091675-0.7479553,0.3136902-1.1794739,0.3136902c-0.3728943,0-0.6957397-0.0711823-0.969574-0.214386
				c-0.2716827-0.141922-0.4911652-0.3401031-0.656311-0.5958099c-0.1651611-0.2535858-0.2621155-0.5455322-0.2908783-0.873703
				c-0.0149078-0.0830994-0.0213165-0.1736755-0.0213165-0.271698c0-0.2365417,0.0287781-0.4773407,0.0863037-0.7213287
				l1.5822144-6.1276093h-2.0243835c-0.1789856,0-0.2759399-0.0937653-0.290863-0.2823486v-0.0841827l0.0650024-0.1779327
				c0.0713806-0.2077637,0.2045593-0.3121948,0.398468-0.3132477h2.0563354l0.8843384-3.4297943
				c0.0639343-0.2578583,0.1949768-0.449646,0.3920898-0.574295c0.1981812-0.1257324,0.3974152-0.1885986,0.5987854-0.1896667
				c0.2077637,0.0010681,0.3803711,0.0671234,0.5167542,0.1992493c0.0926819,0.091629,0.1395721,0.2162933,0.1395721,0.3761139
				c0,0.0767212-0.0074615,0.1544952-0.0213165,0.2301483l-0.8726044,3.3882446h1.9817657
				c0.1875153,0.0010681,0.2802124,0.0948334,0.2802124,0.2823486v0.0735168L191.0054779,120.5536957z"/>
		</g>
		<g class="st2">
			<defs>
				<rect id="SVGID_19_" x="76.8659286" y="198.9369507" width="145.7750702" height="34.8645935"/>
			</defs>
			<clipPath id="SVGID_20_">
				<use xlink:href="#SVGID_19_"  style="overflow:visible;"/>
			</clipPath>
			<path class="st14" d="M93.132309,211.8952942c0.1150818-0.4176636,0.1790085-0.8353424,0.193924-1.2551422v-0.0617981
				c0-0.3558655-0.1108093-0.6616669-0.3345718-0.920578c-0.2653122-0.3057861-0.6116104-0.5220795-1.038887-0.6477966
				c-0.4272766-0.1257324-0.8961182-0.1885986-1.4054337-0.1885986h-1.4331436
				c-0.3654709,0-0.5849762,0.0287781-0.6563644,0.0841675c-0.0724564,0.056488-0.1470413,0.2536011-0.2269516,0.5956116
				l-1.4210968,5.5319672h2.0785217c0.5093231,0,1.0133209-0.0628662,1.5087891-0.1885834
				c0.4954758-0.1246643,0.9653702-0.3473511,1.4096985-0.6691284c0.3814621-0.271698,0.6691513-0.6126556,0.8620148-1.0239258
				C92.8638,212.7402191,93.0172348,212.3214722,93.132309,211.8952942z M95.6629486,220.6897583
				c-0.0777893,0.3143158-0.1960602,0.623291-0.3548279,0.9259033c-0.1576996,0.3036499-0.3516235,0.5774841-0.5817795,0.8214722
				c-0.2290878,0.2440033-0.4869461,0.4432373-0.7703781,0.5998688c-0.2834244,0.1573639-0.5903015,0.2357941-0.9206085,0.2357941
				c-1.0410309,0-1.8241882-0.2752075-2.3484344-0.8260651c-0.3590775-0.3761139-0.5380859-0.8491974-0.5380859-1.4224091
				c0-0.2919464,0.0468826-0.6083984,0.1395798-0.9514771l0.4848175-1.8720398
				c0.0575333-0.2365417,0.0863037-0.4592285,0.0863037-0.6691284c0-0.103363-0.0074539-0.2120361-0.0213089-0.3239136
				c-0.0436859-0.2919312-0.1438446-0.5497742-0.3015442-0.7735291c-0.1587677-0.2226868-0.3612137-0.3984985-0.6084137-0.52742
				c-0.2482681-0.1289215-0.5402298-0.1939087-0.8790665-0.1949768h-2.4335632l-1.4327087,5.574585
				c-0.0287704,0.1331787-0.0431519,0.240799-0.0431519,0.3238983c0,0.105484,0.0216293,0.1747437,0.0647812,0.2088318
				c0.0934448,0.056488,0.28759,0.0895081,0.5816727,0.1001587c0.2947311,0.0106506,0.6104431,0.0159912,0.9476852,0.0149231
				c0.2013855,0.0010681,0.3019714,0.0841675,0.3019714,0.2514496c0,0.0415497-0.0071411,0.0873718-0.0215302,0.1353149
				l-0.0431519,0.1672821c-0.0784225,0.2098999-0.2189636,0.3143158-0.4202423,0.3143158
				c-0.8830032-0.0426178-1.7732544-0.0628662-2.6712799-0.0628662c-0.8973923,0-1.7987213,0.0202484-2.7032471,0.0628662
				c-0.1935043,0-0.2973938-0.0905609-0.3124161-0.2727661v-0.0830994l0.043045-0.1779327
				c0.0575409-0.2290802,0.1974411-0.3409576,0.4196091-0.3345642c0.3379822,0.0010681,0.6575394-0.0042725,0.9588699-0.0149231
				c0.3019714-0.0106506,0.5242386-0.046875,0.6679764-0.1108093c0.1366043-0.0756531,0.2404938-0.2642365,0.3124161-0.5646973
				l3.0268478-11.7852631c0.0431519-0.152359,0.0640411-0.2706299,0.0640411-0.3548126
				c0-0.0830994-0.0176926-0.1321106-0.0535965-0.1470337c-0.1007004-0.0617981-0.2961121-0.1001587-0.5868988-0.1139984
				c-0.2908859-0.013855-0.6085205-0.0213165-0.9536514-0.0213165c-0.2006378,0-0.3013306-0.0937653-0.3013306-0.2823486v-0.0841675
				l0.0647888-0.177948c0.043045-0.2077637,0.1764526-0.3121796,0.398613-0.3132477h6.0637131
				c0.6830063,0.0010681,1.3319092,0.091629,1.9499207,0.2727661c0.6180038,0.1811371,1.1560974,0.4805298,1.6153412,0.8982086
				c0.380394,0.3356171,0.6574326,0.7468872,0.8300476,1.2338104c0.1076202,0.2653046,0.1651611,0.541275,0.1715546,0.8268127
				c0,0.2589111-0.0394287,0.5124969-0.1182785,0.7628937c-0.1353226,0.5583038-0.4198151,1.0644073-0.8502884,1.5172424
				c-0.4315414,0.4528198-0.9163589,0.8395996-1.4544525,1.1602936c-0.3740005,0.2162933-0.7522583,0.3963623-1.135849,0.5391388
				c-0.3846588,0.1427765-0.6595612,0.2312012-0.8247223,0.2653046c0.4091644,0.1608887,0.7970123,0.4752045,1.163559,0.9418793
				c0.3090057,0.4048767,0.463501,0.8886108,0.463501,1.4533081c0,0.1182861-0.0074539,0.2376099-0.0213089,0.3548126
				l-0.2056427,1.8827057c-0.0564728,0.4890442-0.0852432,0.9141846-0.0852432,1.2753754
				c0,0.2386627,0.013855,0.4474945,0.0426178,0.6275635c0.0500793,0.4123383,0.2653198,0.617981,0.6457138,0.6169128
				c0.3452301,0.0010681,0.6606293-0.1853943,0.9483185-0.5583038c0.2876968-0.3729248,0.499733-0.8342743,0.6350555-1.3862
				c0.0799179-0.2088318,0.2195053-0.3100433,0.4208908-0.3036499h0.1715469
				c0.193924,0.0010681,0.2983475,0.091629,0.3122025,0.271698V220.6897583z"/>
			<path class="st14" d="M102.0124359,225.8398438h-5.4981308v-0.3220825c0-0.0230103,0.0127869-0.0581818,0.0404892-0.1053772
				l2.2088394-2.1433105c0.261055-0.2576447,0.5253067-0.520813,0.7938232-0.7903748
				c0.2685089-0.2695618,0.508255-0.5444641,0.7202988-0.8257446c0.210968-0.2812958,0.380394-0.571106,0.5061264-0.8694458
				c0.1267929-0.2983246,0.1885986-0.6115723,0.1885986-0.939743c0-0.2770233-0.0404892-0.5359344-0.1214752-0.7756805
				c-0.0809784-0.2407837-0.1981888-0.4517517-0.3516235-0.6328735c-0.1523666-0.1811523-0.344162-0.328186-0.5732498-0.4389954
				c-0.2301559-0.1118774-0.4954758-0.1672668-0.79702-0.1672668c-0.4507217,0-0.8481598,0.1203918-1.1933975,0.3601227
				c-0.344162,0.240799-0.5721893,0.5050507-0.6851349,0.7937775c-0.0223694,0.0074768,0.013855,0.0117188,0.1076202,0.0117188
				h0.1150818c0.1353149,0.02771,0.2525253,0.0692749,0.3516235,0.1257324
				c0.0990906,0.0564728,0.1822052,0.1353149,0.2493286,0.2344055c0.0681992,0.0990906,0.1012268,0.2194824,0.1012268,0.3601379
				c0,0.2344055-0.0852356,0.4144592-0.255722,0.5391235c-0.1715546,0.1246643-0.3633499,0.1875305-0.5743256,0.1864624
				c-0.202446,0.0010681-0.3921127-0.0617981-0.5679245-0.1864624s-0.2631836-0.304718-0.2631836-0.5391235
				c0-0.3281708,0.0713882-0.6382141,0.216301-0.9312286c0.1438446-0.2930145,0.3399048-0.5465851,0.5871048-0.7607574
				c0.2482681-0.2152252,0.5402222-0.3846436,0.8779984-0.5103607c0.3377686-0.1246643,0.6968536-0.1864624,1.075119-0.1875305
				c0.4677658,0.0010681,0.897171,0.0617981,1.2871552,0.1853943c0.3889236,0.1225433,0.7213669,0.299408,0.9962769,0.5295563
				c0.2738342,0.2312012,0.4890747,0.4975586,0.6446381,0.7991028c0.155571,0.302597,0.2333527,0.637146,0.2333527,1.0047455
				c0,0.4059448-0.1033554,0.7799225-0.3111343,1.1208801c-0.2067108,0.3420258-0.463501,0.6552734-0.76931,0.9408112
				c-0.3068695,0.2844849-0.6318588,0.5529938-0.9770889,0.8044434c-0.3441696,0.2525177-0.6563644,0.4969482-0.9355392,0.7348633
				l-1.5535431,1.3058472h2.0330353c0.2845001,0.0004272,0.5487442-0.0014954,0.7938156-0.0054321
				c0.2461395-0.0037231,0.4539185-0.0117188,0.6254654-0.0234375c0.1715546-0.0117188,0.2589264-0.0193939,0.2631912-0.0238647
				c0.0362244-0.0270691,0.0703201-0.0816193,0.1012192-0.1635437c0.0319672-0.0820618,0.0607376-0.1785889,0.0884399-0.289917
				c0.0266418-0.1112366,0.0532761-0.2243042,0.0809784-0.3395691c0.0266418-0.114975,0.0511475-0.2412415,0.0735245-0.3781433
				h0.499733L102.0124359,225.8398438z"/>
			<line class="st15" x1="109.0886078" y1="214.1210785" x2="124.0806122" y2="214.1210785"/>
			<line class="st15" x1="109.0886078" y1="218.6184692" x2="124.0806122" y2="218.6184692"/>
			<path class="st14" d="M141.0353088,219.6551819c-0.0788422,0.3207092-0.1726074,0.6765747-0.2802277,1.0665283
				c-0.1065521,0.391037-0.250412,0.7532959-0.430481,1.0878601c-0.1790009,0.3345642-0.404892,0.6243744-0.6787262,0.8683777
				c-0.2727814,0.2429199-0.6137543,0.3643799-1.0229187,0.3643799c-0.5029297,0-0.9088898-0.1278534-1.2178955-0.3856964
				c-0.3079376-0.257843-0.4986725-0.5231476-0.5711365-0.7959137c-0.2429352,0.3015289-0.5700378,0.5732269-0.9792175,0.8172302
				c-0.4091492,0.2429199-0.883316,0.3643799-1.4224701,0.3643799c-0.4869537,0-0.9238129-0.0894928-1.3084717-0.271698
				c-0.3846588-0.1800537-0.6872711-0.4592133-0.9099579-0.8363953c-0.2152405-0.4038086-0.3196716-0.8491821-0.3132782-1.3382416
				v-0.0841827c0.0149231-0.5082245,0.0799103-1.0132599,0.1949921-1.5161743
				c0.1150818-0.4805298,0.2823639-1.0090027,0.5007935-1.588623c0.2195129-0.5785522,0.4283447-1.1400604,0.6297302-1.6845245
				c0.2152405-0.5774841,0.3228607-1.0516205,0.3228607-1.4213409c0-0.3132629-0.1321259-0.4709473-0.3985138-0.4709473
				c-0.2440033,0-0.4645691,0.0703278-0.6616821,0.2098999c-0.1971283,0.1395874-0.3771973,0.3334961-0.5391693,0.5796204
				c-0.1608887,0.2482605-0.3068695,0.5412598-0.4358063,0.8790283c-0.1299744,0.3388062-0.2365417,0.6989441-0.3228455,1.0814514
				c-0.0799103,0.1885986-0.2120361,0.2866211-0.3995667,0.2929993h-0.2472076
				c-0.1726227,0-0.2589264-0.0863037-0.2589264-0.2610321v-0.0735168c0.1012268-0.3835754,0.2344208-0.7746124,0.3985138-1.1762848
				c0.1651459-0.4006348,0.3739929-0.7639465,0.6254578-1.0921173s0.5391693-0.5998688,0.8620148-0.8161621
				c0.3228607-0.2152252,0.6925964-0.3238983,1.1092224-0.3249664c0.3590851,0.0010681,0.6659546,0.077774,0.9206085,0.2312012
				c0.2546692,0.1534424,0.4485931,0.3569336,0.5817871,0.6115875s0.2067108,0.5412598,0.2205658,0.8619843v0.0735168
				c0,0.3004456-0.06073,0.6105042-0.1832733,0.9301453c-0.2077789,0.5444641-0.4134369,1.100647-0.6190796,1.6685486
				c-0.2045746,0.5689697-0.3644104,1.0793304-0.4794769,1.5321655c-0.1150818,0.4538879-0.1939392,0.9024506-0.236557,1.3488922
				c-0.0287628,0.1182709-0.0468903,0.2482452-0.0543365,0.3867645c0,0.271698,0.0479431,0.5412598,0.1406403,0.8044434
				c0.0639343,0.2386627,0.1822052,0.426178,0.3548279,0.5657654c0.1726227,0.1395721,0.3771973,0.2088318,0.6137543,0.2088318
				c0.4752197,0,0.8875732-0.1417084,1.2391968-0.4283142c0.3516235-0.285553,0.6606293-0.6659241,0.9259491-1.1411438
				c0.013855-0.0543213,0.0255737-0.1193237,0.0330353-0.1917725c0.0063934-0.0735168,0.0170441-0.1491699,0.0319672-0.2258911
				l1.6153412-6.2330475c0.0650024-0.2567902,0.1960449-0.4464264,0.3931732-0.5689545
				c0.1971283-0.1214752,0.3974457-0.1832733,0.5977631-0.1832733c0.208847,0,0.3814697,0.0628662,0.5178528,0.1885834
				c0.0926971,0.0905762,0.1395874,0.2120361,0.1395874,0.3654633c0,0.0767212-0.0074615,0.1576996-0.0213165,0.240799
				l-1.6164093,6.2319946c-0.1150818,0.4325867-0.1726074,0.8161469-0.1726074,1.1507111
				c0,0.091629,0.0074463,0.1885834,0.0223694,0.2930145c0.0351563,0.334549,0.2045898,0.5018311,0.506134,0.5018311
				s0.5625916-0.2567749,0.7810211-0.7735291c0.2194977-0.5157013,0.4326019-1.1784363,0.6403961-1.9871216
				c0.0436707-0.1811371,0.1651459-0.271698,0.3665314-0.2727661h0.2472076
				c0.0799255,0.0010681,0.1587677,0.0255737,0.2376099,0.0735168c0.0287781,0.0639343,0.0426331,0.1161499,0.0426331,0.1566162
				C141.0672913,219.5784607,141.0576935,219.6136169,141.0353088,219.6551819z"/>
			<path class="st14" d="M159.3336487,213.9239655c-0.0788574,0.2098999-0.2184296,0.3143158-0.4198151,0.3143158h-2.0031891
				l-1.5950928,6.1797791c-0.1278687,0.4475098-0.1928711,0.8374634-0.1928711,1.1709595
				c0,0.091629,0.0074463,0.1790009,0.0213013,0.2621155c0.0362396,0.334549,0.2045898,0.5018311,0.506134,0.5018311
				c0.2727661,0,0.5317078-0.074585,0.7757111-0.224823c0.2440033-0.1491547,0.4741669-0.3505249,0.6894073-0.6009216
				c0.2162781-0.2514496,0.4091492-0.5466003,0.5817566-0.8886108c0.1726379-0.3420105,0.3303223-0.7010803,0.473114-1.0782623
				c0.0223694-0.0831146,0.0692444-0.1438446,0.1406403-0.1822052c0.072464-0.0383453,0.1395874-0.0575256,0.2045746-0.0585938
				h0.2695923c0.0926971,0.0010681,0.1683502,0.0394287,0.2258911,0.1150818
				c0.0213013,0.0500641,0.0319519,0.0948181,0.0319519,0.1363678v0.0628662
				c-0.150238,0.4112701-0.3388367,0.8182831-0.5657959,1.2189178c-0.2258911,0.4016724-0.4858704,0.7618103-0.7799683,1.0825195
				c-0.2940674,0.3207092-0.6190643,0.5849457-0.9749451,0.7937775c-0.355896,0.2088318-0.7480164,0.3132477-1.1795502,0.3132477
				c-0.3740082,0-0.6968536-0.0703125-0.9696198-0.2141571c-0.2727966-0.1427765-0.4912109-0.3398895-0.6563721-0.5955963
				c-0.1651611-0.2535858-0.2621155-0.5455322-0.2908936-0.8736877c-0.0149231-0.0831146-0.0223694-0.1736755-0.0223694-0.271698
				c0-0.2365417,0.0287628-0.4773407,0.0863037-0.721344l1.583374-6.1275635h-2.0245056
				c-0.1790161,0-0.2770386-0.0937653-0.2908936-0.2823486v-0.0841675l0.0639343-0.177948
				c0.072464-0.2077637,0.205658-0.3132477,0.3995667-0.3132477h2.056488l0.883316-3.4297791
				c0.0649872-0.257843,0.1960602-0.4496307,0.3931732-0.574295c0.1971283-0.1257172,0.3963776-0.1885834,0.5977631-0.1896515
				c0.208847,0.0010681,0.3814545,0.0671234,0.5167847,0.1992493c0.0937653,0.091629,0.1406403,0.2162933,0.1406403,0.3761139
				c0,0.0767212-0.0074463,0.1544952-0.0223694,0.2301331l-0.871582,3.3882294h1.9818726
				c0.1864624,0,0.2791748,0.0948334,0.2791748,0.2823639v0.0735168L159.3336487,213.9239655z"/>
			<line class="st15" x1="165.591507" y1="216.3692322" x2="180.5834961" y2="216.3692322"/>
			<line class="st15" x1="173.0874939" y1="208.8735962" x2="173.0875092" y2="223.8648834"/>
			<path class="st14" d="M194.40448,209.5640259l-5.9030304,11.4922485h11.7954102L194.40448,209.5640259z M203.2803345,222.3945313
				c0.0213318,0.0500793,0.0319824,0.0948181,0.0319824,0.1353149c0,0.0564575-0.0106506,0.0990906-0.0426331,0.1257172
				c-0.0426178,0.0841827-0.1172028,0.1257324-0.2450562,0.1257324h-15.9403229
				c-0.1172028,0-0.2024536-0.0415497-0.2450714-0.1257324c-0.0319824-0.0266266-0.0426331-0.0692596-0.0426331-0.1257172
				c0-0.0404968,0.0106506-0.0852356,0.0319672-0.1353149l7.6291962-14.8804932
				c0.0958862-0.2013702,0.2663727-0.2993927,0.5007935-0.2929993h0.191803
				c0.2237549,0.0010681,0.3942261,0.0948181,0.5007935,0.2823486L203.2803345,222.3945313z"/>
			<path class="st14" d="M210.9841309,213.9239655c-0.074585,0.2098999-0.2131042,0.3143158-0.4155579,0.3143158h-2.0032043
				l-1.5982971,6.1797791c-0.1278687,0.4475098-0.191803,0.8374634-0.191803,1.1709595
				c0,0.091629,0.0106812,0.1790009,0.0213318,0.2621155c0.0319519,0.3345642,0.2024536,0.5018311,0.5007935,0.5018311
				c0.2770386,0,0.5327759-0.074585,0.777832-0.224823c0.2450867-0.1491547,0.4794922-0.3505249,0.6925964-0.6009216
				c0.2131042-0.2514496,0.4049072-0.5465851,0.5860291-0.8886108c0.1705017-0.3420105,0.3196716-0.7010803,0.4688416-1.0782623
				c0.0213318-0.0831146,0.0639343-0.1438446,0.1385193-0.1821899c0.074585-0.0383606,0.1385193-0.0575409,0.2024536-0.058609
				h0.2770386c0.0852356,0.0010681,0.1598206,0.0394287,0.2237549,0.1150818
				c0.0213013,0.0500793,0.0319824,0.0948181,0.0319824,0.1363831v0.062851
				c-0.1492004,0.4112701-0.3409729,0.8182831-0.5647278,1.2189178c-0.2237854,0.4016724-0.4901428,0.7618103-0.7778625,1.0825195
				c-0.2983398,0.3207092-0.6286621,0.5849457-0.9802856,0.7937775c-0.3516235,0.208847-0.7458496,0.3132477-1.1827393,0.3132477
				c-0.3729248,0-0.6925659-0.0703125-0.9696045-0.2141571c-0.2663879-0.1427765-0.4901428-0.3398895-0.6499939-0.5955963
				c-0.1704712-0.2535858-0.2663879-0.5455322-0.2983398-0.8736877c-0.0106506-0.0831146-0.0213013-0.1736755-0.0213013-0.271698
				c0-0.2365417,0.0319519-0.4773407,0.0852356-0.721344l1.587616-6.1275635h-2.0244751
				c-0.1811523,0-0.2770386-0.09375-0.2877045-0.2823486v-0.0841675l0.0639191-0.177948
				c0.074585-0.2077637,0.2024536-0.3132477,0.3942566-0.3132477h2.0564575l0.8843994-3.4297638
				c0.0639343-0.2578583,0.191803-0.449646,0.3942566-0.5743103c0.2024536-0.1257172,0.3942261-0.1885834,0.5966797-0.1896362
				c0.2131042,0.0010529,0.383606,0.0671082,0.5221252,0.199234c0.0852356,0.091629,0.1385193,0.2162933,0.1385193,0.3761139
				c0,0.0767212-0.0106506,0.1544952-0.0213013,0.2301331l-0.8737488,3.3882294h1.9818726
				c0.1811523,0,0.2770386,0.0948334,0.2770386,0.2823639v0.0735168L210.9841309,213.9239655z"/>
			<path class="st14" d="M150.6304016,226.5935669c-7.5386047-4.6007385-7.53862-15.8479309,0-20.4486694h1.0964355
				c-6.8534851,4.6007385-6.8534851,15.8479309,0,20.4486694"/>
			<path class="st14" d="M213.3709106,206.1448975c7.5332947,4.6007385,7.5332947,15.8479309,0,20.4486694h-1.0975037
				c6.8513489-4.6007385,6.8513489-15.8479309,0-20.4486694"/>
		</g>
	</g>
</g>
</svg>
