<svg xmlns="http://www.w3.org/2000/svg" xmlns:xlink="http://www.w3.org/1999/xlink" xml:space="preserve" id="svg__github_work__Layer_1" x="0" y="0" viewBox="0 0 366 330"><style>.st2{clip-path:url(#svg__github_work__SVGID_6_)}.st3,.st5{clip-path:url(#svg__github_work__SVGID_8_);fill:none;stroke:#00f;stroke-width:.7349445;stroke-linecap:square;stroke-miterlimit:10}.st5{stroke:#000;stroke-width:1.4698682}.st11,.st8,.st9{fill-rule:evenodd;clip-rule:evenodd}.st8{clip-path:url(#svg__github_work__SVGID_12_)}.st9{clip-path:url(#svg__github_work__SVGID_14_)}.st11{clip-path:url(#svg__github_work__SVGID_16_)}.st12,.st13{clip-path:url(#svg__github_work__SVGID_18_)}.st12{fill-rule:evenodd;clip-rule:evenodd}.st13{fill:none;stroke:#000;stroke-width:.8566399;stroke-linecap:round;stroke-linejoin:round;stroke-miterlimit:10}.st14,.st15{clip-path:url(#svg__github_work__SVGID_20_)}.st14{fill-rule:evenodd;clip-rule:evenodd}.st15{fill:none;stroke:#000;stroke-width:.8566654;stroke-linecap:round;stroke-linejoin:round;stroke-miterlimit:10}</style><defs><rect id="svg__github_work__SVGID_1_" width="366" height="330" x="0"/></defs><clipPath id="svg__github_work__SVGID_2_"><use xlink:href="#svg__github_work__SVGID_1_" overflow="visible"/></clipPath><defs><rect id="svg__github_work__SVGID_3_" width="366" height="330" y="-0.0001"/></defs><clipPath id="svg__github_work__SVGID_4_"><use xlink:href="#svg__github_work__SVGID_3_" overflow="visible"/></clipPath><g clip-path="url(#svg__github_work__SVGID_4_)"><defs><rect id="svg__github_work__SVGID_5_" width="365.6079" height="329.6273" y="0.012"/></defs><clipPath id="svg__github_work__SVGID_6_"><use xlink:href="#svg__github_work__SVGID_5_" overflow="visible"/></clipPath><g class="st2"><defs><rect id="svg__github_work__SVGID_7_" width="318.3857" height="317.6266" x="6.7634" y="7.297"/></defs><clipPath id="svg__github_work__SVGID_8_"><use xlink:href="#svg__github_work__SVGID_7_" overflow="visible"/></clipPath><path d="M318.1074 165.5301c0 23.989-19.5244 43.431-43.5898 43.431-24.0864 0-43.5584-19.442-43.5584-43.431 0-24.0099 19.472-43.4833 43.5584-43.4833 24.0654 0 43.5898 19.4734 43.5898 43.4833" class="st3"/><path d="M314.372 137.36c0 24.01-19.493 43.4834-43.5793 43.4834-24.034 0-43.5166-19.4735-43.5166-43.4834 0-23.9785 19.4825-43.431 43.5166-43.431 24.0863 0 43.5793 19.4525 43.5793 43.431" class="st3"/><path d="M303.5008 111.176c0 23.9785-19.5245 43.4728-43.5585 43.4728-24.0654 0-43.5898-19.4943-43.5898-43.4728 0-24.0099 19.5244-43.431 43.5898-43.431 24.034 0 43.5585 19.4211 43.5585 43.431" class="st3"/><path d="M286.184 88.6818c0 24.0099-19.472 43.431-43.5583 43.431-24.0655 0-43.5376-19.4211-43.5376-43.431 0-23.9786 19.4721-43.4833 43.5376-43.4833 24.0863 0 43.5584 19.5047 43.5584 43.4833" class="st3"/><path d="M263.6149 71.4139c0 23.989-19.5035 43.431-43.5375 43.431-24.0864 0-43.5584-19.442-43.5584-43.431 0-24.01 19.472-43.4729 43.5584-43.4729 24.034 0 43.5375 19.463 43.5375 43.4729" class="st3"/><path d="M237.3417 60.543c0 24.01-19.472 43.4833-43.5584 43.4833-24.034 0-43.5375-19.4734-43.5375-43.4832 0-23.989 19.5034-43.431 43.5375-43.431 24.0863 0 43.5584 19.442 43.5584 43.431" class="st3"/><path d="M209.1747 56.8637c0 23.989-19.493 43.431-43.5794 43.431-24.0445 0-43.5375-19.442-43.5375-43.431 0-24.01 19.493-43.4833 43.5375-43.4833 24.0864 0 43.5794 19.4734 43.5794 43.4833" class="st3"/><path d="M180.9763 60.543c0 24.01-19.493 43.4833-43.527 43.4833-24.0865 0-43.59-19.4734-43.59-43.4832 0-23.989 19.5035-43.431 43.59-43.431 24.034 0 43.527 19.442 43.527 43.431" class="st3"/><path d="M154.7135 71.4139c0 23.989-19.472 43.431-43.5615 43.431-24.0623 0-43.5355-19.442-43.5355-43.431 0-24.01 19.4732-43.4729 43.5355-43.4729 24.0895 0 43.5615 19.463 43.5615 43.4729" class="st3"/><path d="M132.1444 88.6818c0 24.0099-19.4721 43.431-43.5334 43.431-24.0874 0-43.5605-19.4211-43.5605-43.431 0-23.9786 19.4731-43.4833 43.5605-43.4833 24.0613 0 43.5334 19.5047 43.5334 43.4833" class="st3"/><path d="M114.88 111.176c0 23.9785-19.5244 43.4728-43.5867 43.4728-24.0372 0-43.5605-19.4943-43.5605-43.4728 0-24.0099 19.5233-43.431 43.5605-43.431 24.0623 0 43.5867 19.4211 43.5867 43.431" class="st3"/><path d="M103.9512 137.36c0 24.01-19.4731 43.4834-43.5355 43.4834-24.0874 0-43.5608-19.4735-43.5608-43.4834 0-23.9785 19.4734-43.431 43.5608-43.431 24.0624 0 43.5355 19.4525 43.5355 43.431" class="st3"/><path d="M100.2744 165.5301c0 23.989-19.5234 43.431-43.5857 43.431-24.0371 0-43.561-19.442-43.561-43.431 0-24.0099 19.5239-43.4833 43.561-43.4833 24.0623 0 43.5857 19.4734 43.5857 43.4833" class="st3"/><path d="M103.9512 193.627c0 23.9786-19.4731 43.477-43.5355 43.477-24.0874 0-43.5608-19.4984-43.5608-43.477 0-24.0099 19.4734-43.431 43.5608-43.431 24.0624 0 43.5355 19.4211 43.5355 43.431" class="st3"/><path d="M114.88 219.811c0 24.012-19.5244 43.4834-43.5867 43.4834-24.0372 0-43.5605-19.4713-43.5605-43.4833 0-23.9786 19.5233-43.431 43.5605-43.431 24.0623 0 43.5867 19.4524 43.5867 43.431" class="st3"/><path d="M132.1444 242.3524c0 23.9848-19.4721 43.431-43.5334 43.431-24.0874 0-43.5605-19.4462-43.5605-43.431 0-24.0152 19.4731-43.4781 43.5605-43.4781 24.0613 0 43.5334 19.463 43.5334 43.478" class="st3"/><path d="M154.7135 259.6182c0 24.0099-19.472 43.431-43.5615 43.431-24.0623 0-43.5355-19.4211-43.5355-43.431 0-24.035 19.4732-43.4865 43.5355-43.4865 24.0895 0 43.5615 19.4515 43.5615 43.4865" class="st3"/><path d="M180.9763 270.444c0 24.01-19.493 43.4812-43.527 43.4812-24.0865 0-43.59-19.4713-43.59-43.4812 0-23.9848 19.5035-43.431 43.59-43.431 24.034 0 43.527 19.4462 43.527 43.431" class="st3"/><path d="M209.1747 274.1714c0 24.01-19.493 43.4305-43.5794 43.4305-24.0445 0-43.5375-19.4206-43.5375-43.4305 0-24.036 19.493-43.4822 43.5375-43.4822 24.0864 0 43.5794 19.4462 43.5794 43.4822" class="st3"/><path d="M237.3417 270.444c0 24.01-19.472 43.4812-43.5584 43.4812-24.034 0-43.5375-19.4713-43.5375-43.4812 0-23.9848 19.5034-43.431 43.5375-43.431 24.0863 0 43.5584 19.4462 43.5584 43.431" class="st3"/><path d="M263.6149 259.6182c0 24.0099-19.5035 43.431-43.5375 43.431-24.0864 0-43.5584-19.4211-43.5584-43.431 0-24.035 19.472-43.4865 43.5584-43.4865 24.034 0 43.5375 19.4515 43.5375 43.4865" class="st3"/><path d="M286.184 242.3524c0 23.9848-19.472 43.431-43.5583 43.431-24.0655 0-43.5376-19.4462-43.5376-43.431 0-24.0152 19.4721-43.4781 43.5376-43.4781 24.0863 0 43.5584 19.463 43.5584 43.478" class="st3"/><path d="M303.5008 219.811c0 24.012-19.5245 43.4834-43.5585 43.4834-24.0654 0-43.5898-19.4713-43.5898-43.4833 0-23.9786 19.5244-43.431 43.5898-43.431 24.034 0 43.5585 19.4524 43.5585 43.431" class="st3"/><path d="M314.372 193.627c0 23.9786-19.493 43.477-43.5793 43.477-24.034 0-43.5166-19.4984-43.5166-43.477 0-24.0099 19.4825-43.431 43.5166-43.431 24.0863 0 43.5793 19.4211 43.5793 43.431" class="st3"/><path d="M318.1074 165.5301c0 23.989-19.5244 43.431-43.5898 43.431-24.0864 0-43.5584-19.442-43.5584-43.431 0-24.0099 19.472-43.4833 43.5584-43.4833 24.0654 0 43.5898 19.4734 43.5898 43.4833" class="st3"/><path fill="#fff" fill-rule="evenodd" d="M274.5176 165.5301c0 60.0122-48.7587 108.6413-108.9223 108.6413-60.1228 0-108.9065-48.6291-108.9065-108.6413 0-60.0404 48.7837-108.6664 108.9065-108.6664 60.1636 0 108.9223 48.626 108.9223 108.6664z" clip-path="url(#svg__github_work__SVGID_8_)" clip-rule="evenodd"/><path d="M274.5176 165.5301c0 60.0122-48.7587 108.6413-108.9223 108.6413-60.1228 0-108.9065-48.6291-108.9065-108.6413 0-60.0404 48.7837-108.6664 108.9065-108.6664 60.1636 0 108.9223 48.626 108.9223 108.6664" class="st5"/><path d="M318.1074 165.5301c0 83.997-68.2621 152.0718-152.512 152.0718-84.2103 0-152.4677-68.0748-152.4677-152.0718 0-84.0189 68.2574-152.1497 152.4676-152.1497 84.25 0 152.5121 68.1308 152.5121 152.1497" class="st5"/></g><line x1="275.474" x2="317.4333" y1="166.1101" y2="166.1101" fill="none" stroke="#000" stroke-dasharray="6.393 3.1965" stroke-linecap="round" stroke-linejoin="round" stroke-miterlimit="10" stroke-width="0.7991" clip-path="url(#svg__github_work__SVGID_6_)"/><g class="st2"><defs><rect id="svg__github_work__SVGID_9_" width="22.2952" height="33.5796" x="143.5987" y="157.0601"/></defs><clipPath id="svg__github_work__SVGID_10_"><use xlink:href="#svg__github_work__SVGID_9_" overflow="visible"/></clipPath><path fill-rule="evenodd" d="M159.4187 167.6712c-.2366-.585-.5914-1.0602-1.0666-1.4267-.4731-.3655-1.0549-.5487-1.7443-.5487-.682 0-1.3607.1875-2.0362.5594q-1.0112.5593-1.8094 1.448c-.668.7191-1.1954 1.498-1.583 2.3376-.3876.8407-.6896 1.692-.9052 2.556-.251.942-.4053 1.8593-.4628 2.75a6 6 0 0 0-.0216.502c0 .6978.115 1.3808.3445 2.0499.2229.5935.564 1.09 1.0235 1.4906.4595.4017 1.034.6015 1.7229.6008.7111.0007 1.4066-.2034 2.0853-.6115.6777-.407 1.2861-.911 1.8253-1.5108.6968-.8087 1.2381-1.6621 1.626-2.5614a19.04 19.04 0 0 0 .9472-2.751c.2238-.8706.3634-1.7283.421-2.5732v-.3655c0-.6968-.1215-1.3446-.3666-1.9455zm2.1758 5.2709c-.2579 1.0111-.6766 1.9871-1.2541 2.929-.5786.9408-1.3053 1.8017-2.1812 2.5816-.7895.7043-1.6537 1.2648-2.5913 1.6792-.9366.4144-1.8756.6215-2.8161.6215-.9478 0-1.7902-.2085-2.5262-.6267-.736-.4188-1.323-.9825-1.7608-1.6942q-.7216-1.1811-.8295-2.6147a5.6 5.6 0 0 1-.043-.6904c0-.717.0934-1.4597.2796-2.2269.2732-1.025.6948-2.019 1.2661-2.9854.5712-.9654 1.3012-1.838 2.1915-2.62.7902-.7033 1.6536-1.27 2.5908-1.6984.9368-.4294 1.883-.6436 2.8378-.6436q1.4225 0 2.5157.649c.7288.4325 1.3116 1.0036 1.7496 1.7143.4816.7884.765 1.6664.8513 2.6349.0139.2376.0214.471.0214.701 0 .746-.1002 1.5099-.3016 2.2898z" clip-path="url(#svg__github_work__SVGID_10_)" clip-rule="evenodd"/></g><path d="m244.8295 90.9268-11.1582 5.6677 3.8034.5152.8269.8673.333 3.8234zm-79.2836 74.749 71.9357-68.573.8269.8678-71.9352 68.5731c-.2398.2286-.619.2195-.8477-.0202s-.2194-.619.0203-.8476z" class="st2"/><g class="st2"><defs><rect id="svg__github_work__SVGID_11_" width="26.1211" height="33.8302" x="191.9347" y="64.0605"/></defs><clipPath id="svg__github_work__SVGID_12_"><use xlink:href="#svg__github_work__SVGID_11_" overflow="visible"/></clipPath><path d="M207.2142 77.1819c-.0427.196-.1503.293-.3229.293-.0138.0138-.05.0213-.1076.0202-.0362.0011-.065-.0064-.0863-.0202h-.097c-.1864 0-.2802-.0693-.2802-.2099v-.0725c.0863-.5157.129-.993.129-1.433v-.3975c-.0427-.5359-.1631-.9973-.3602-1.3851-.1971-.3868-.487-.6862-.8674-.8993-.3803-.212-.862-.3185-1.4437-.3196-.3367.001-.6798.0746-1.0282.2205q-.5217.2203-.9746.5957c-.33.2727-.5993.5806-.8078.9259q-.312.5179-.453 1.0612c-.0713.2589-.1105.505-.1183.7426 0 .3271.072.6414.2157.9409q.3126.7544 1.1203.962l2.4774.6905c.4518.1332.8386.3442 1.1582.633.3197.2897.5594.6307.7214 1.025.162.3941.2568.8235.2855 1.2902v.1886c0 .4049-.0575.8194-.1726 1.2445-.1502.586-.391 1.1507-.7213 1.6941-.3303.5445-.7395 1.0325-1.2286 1.464-.4667.3974-.977.717-1.5343.9566q-.8353.3608-1.6753.3608c-.8255 0-1.5293-.132-2.1111-.3975q-.8724-.3953-1.2928-1.004l-1.066 1.2655c-.0927.0908-.1901.136-.2908.136h-.0647c-.1791 0-.2765-.0694-.2909-.2092a.22.22 0 0 1 .032-.115l1.2497-4.894c.0432-.195.1693-.295.3771-.3036h.2366c.0864.001.1654.0351.2373.1044q.043.0847.043.147c0 .0288-.007.0629-.0214.1045-.1295.5029-.1942.9696-.1942 1.401 0 .6916.1693 1.2765.5066 1.757.5385.7747 1.4797 1.1614 2.8222 1.1604.3372.001.6803-.0778 1.0288-.2344q.5223-.235.9747-.633.4954-.4586.8343-1.0196c.2259-.3719.3932-.7576.5008-1.156.0714-.3197.1076-.6191.1076-.8993 0-.3474-.0458-.682-.1396-1.0037-.2152-.536-.6137-.8812-1.1955-1.0346l-2.4451-.6904c-.438-.1183-.815-.3112-1.1314-.5797-.3156-.2685-.5614-.587-.7372-.9568-.1758-.3697-.2785-.7778-.3072-1.2242v-.2301c0-.3474.0431-.714.1294-1.0986.151-.5561.3915-1.09.7216-1.5993.3306-.5082.7398-.9589 1.2274-1.3489a6 6 0 0 1 1.5137-.9045c.5493-.226 1.0938-.34 1.6319-.34.7405 0 1.35.1386 1.8305.4134.4816.276.83.601 1.0453.977l1.0346-1.2444c.0565-.097.1503-.146.2792-.146h.097c.1726 0 .2589.0842.2589.2504v.0842z" class="st8"/><path d="M214.3297 90.321a86 86 0 0 0-2.4188-.0351 86 86 0 0 0-2.4187.0351v-.5035h.4667q.2238.0005.4188-.0056a3.5 3.5 0 0 0 .3718-.0293 5.5 5.5 0 0 0 .3037-.0472q.1087-.0169.179-.1079a.317.317 0 0 0 .0714-.2025v-6.5992c-.2248.098-.5018.1715-.8311.2226-.3292.0512-.6894.0757-1.0815.0757v-.4976c.5413 0 1.04-.0575 1.497-.1726.4572-.115.8525-.3314 1.186-.6478h.2088c.1492.001.2227.065.2227.194v7.425c0 .0783.0224.1468.0682.2053.0448.0586.1108.0937.196.105a3.4 3.4 0 0 0 .2771.0472 3.4 3.4 0 0 0 .3815.0293q.2125.006.4155.0056h.4859z" class="st8"/></g><g class="st2"><defs><rect id="svg__github_work__SVGID_13_" width="27.1134" height="33.8302" x="230.8727" y="0.1887"/></defs><clipPath id="svg__github_work__SVGID_14_"><use xlink:href="#svg__github_work__SVGID_13_" overflow="visible"/></clipPath><path d="M246.1524 13.3101c-.0426.196-.1502.293-.3229.293-.0138.0139-.05.0214-.1076.0203-.0362.001-.065-.0064-.0863-.0203h-.097c-.1864 0-.2802-.0692-.2802-.2099v-.0724c.0863-.5157.129-.993.129-1.4331v-.3974c-.0427-.536-.163-.9973-.3602-1.3852-.1971-.3867-.487-.6861-.8673-.8992-.3804-.212-.862-.3186-1.4438-.3197-.3367.0011-.6798.0746-1.0283.2206-.3478.147-.6725.3452-.9745.5956-.3301.2728-.5994.5807-.8079.9259q-.3119.5179-.453 1.0612c-.0712.259-.1104.505-.1182.7427 0 .327.072.6414.2157.9408.2085.5029.5816.8236 1.1203.9621l2.4774.6904c.4518.1333.8386.3442 1.1582.633.3197.2898.5594.6307.7214 1.025s.2568.8236.2856 1.2903v.1886c0 .4048-.0576.8193-.1726 1.2444-.1503.586-.3911 1.1508-.7214 1.6942-.3303.5444-.7395 1.0324-1.2286 1.464-.4667.3973-.977.717-1.5343.9565q-.8353.3608-1.6754.3608c-.8254 0-1.5293-.132-2.111-.3974q-.8724-.3953-1.2929-1.0042l-1.066 1.2656c-.0928.0908-.1901.136-.2908.136h-.0647c-.1791 0-.2765-.0694-.2909-.2092a.22.22 0 0 1 .032-.115l1.2497-4.894c.0432-.1949.1693-.295.3771-.3036h.2367c.0863.001.1653.0352.2373.1044q.043.0847.043.147c0 .0288-.0071.063-.0215.1045-.1295.5029-.1942.9696-.1942 1.401 0 .6916.1694 1.2766.5066 1.757.5385.7747 1.4797 1.1615 2.8223 1.1604.3372.001.6803-.0778 1.0287-.2344q.5224-.235.9748-.6329.4955-.4587.8343-1.0197c.2259-.3718.3932-.7575.5008-1.156.0714-.3197.1076-.619.1076-.8993 0-.3474-.0458-.682-.1396-1.0037q-.3228-.8042-1.1955-1.0346l-2.4452-.6904c-.438-.1183-.815-.3111-1.1314-.5796-.3156-.2685-.5614-.5871-.7372-.9568s-.2784-.7778-.3072-1.2243v-.2301c0-.3474.0432-.7139.1295-1.0985.151-.5562.3914-1.09.7215-1.5993.3307-.5083.7398-.959 1.2274-1.349a6 6 0 0 1 1.5138-.9045c.5493-.2259 1.0938-.34 1.6319-.34.7405 0 1.35.1386 1.8305.4135.4817.276.83.601 1.0453.977l1.0347-1.2444c.0564-.097.1502-.146.2791-.146h.097c.1726 0 .2589.0842.2589.2504v.0842z" class="st9"/><path d="M253.7688 26.4492h-5.4992v-.322c0-.023.0139-.0582.0405-.1054l2.2099-2.1434q.3915-.386.7927-.7903c.2686-.2696.5083-.5445.7204-.8258.212-.2813.3803-.571.5071-.8694a2.4 2.4 0 0 0 .1886-.9398c0-.277-.0405-.5359-.1214-.7756-.082-.2409-.1982-.4508-.3517-.633-.1534-.181-.3441-.3281-.5743-.439-.229-.1107-.4955-.1672-.797-.1672-.4496 0-.8482.1204-1.1923.3601-.3442.2408-.5733.505-.6862.7938-.0224.0075.0138.0117.1087.0117h.114c.1353.0278.2525.0693.3516.1258.099.0564.1822.1353.2504.2344.0671.099.1012.2195.1012.3601 0 .2344-.0852.4145-.2568.5391s-.3623.1876-.5743.1865c-.2024.001-.3921-.0618-.5669-.1865-.1758-.1246-.2642-.3047-.2642-.539 0-.3283.0725-.6383.2163-.9313.145-.293.34-.5466.5882-.7608.2472-.2152.5402-.3846.878-.5093.3377-.1257.6958-.1875 1.074-.1886.4688.001.8983.0618 1.2872.1854.39.1225.7213.2994.9962.5296q.4124.3468.6458.799c.1545.3027.2322.6372.2322 1.0048 0 .406-.1033.78-.31 1.121-.2078.342-.4646.6552-.7704.9408-.3058.2844-.6319.553-.976.8044-.3453.252-.6564.497-.9356.7349L249.641 25.36h2.0341a45 45 0 0 0 .7938-.0054c.2451-.0036.4529-.0117.6244-.0235s.259-.0194.2632-.0237q.0545-.0406.1023-.1637c.031-.082.0608-.1786.0874-.2898s.0543-.2244.081-.3397a5.2 5.2 0 0 0 .0746-.378h.4997z" class="st9"/></g><line x1="337.8083" x2="296.4537" y1="128.5184" y2="166.1101" fill="none" stroke="#000" stroke-linecap="round" stroke-linejoin="round" stroke-miterlimit="10" stroke-width="1.1987" clip-path="url(#svg__github_work__SVGID_6_)"/><g class="st2"><defs><rect id="svg__github_work__SVGID_15_" width="47.6654" height="33.5796" x="313.5756" y="100.3365"/></defs><clipPath id="svg__github_work__SVGID_16_"><use xlink:href="#svg__github_work__SVGID_15_" overflow="visible"/></clipPath><path d="M328.3137 120.4122a36 36 0 0 1-.2802 1.0666c-.1066.391-.2504.7533-.4305 1.0878-.179.3346-.4049.6244-.6787.8678q-.4092.3655-1.0229.3654c-.503 0-.9089-.1287-1.2168-.3862q-.4636-.3867-.5716-.7958c-.2437.3015-.5705.5732-.9797.8166-.4091.2438-.8836.3654-1.4222.3654-.4876 0-.9241-.0901-1.3085-.272-.3843-.1803-.6875-.4593-.9104-.8365-.215-.4039-.319-.8492-.3125-1.3383v-.0841a7.76 7.76 0 0 1 .1942-1.5162c.115-.4806.2824-1.009.5013-1.5887q.3284-.8678.6294-1.6845c.2156-.5775.3235-1.0516.3235-1.4213 0-.3133-.1327-.471-.3987-.471-.2438 0-.4647.0704-.6621.21s-.3771.3334-.5385.5796q-.2423.3723-.4367.879c-.1293.3388-.2365.699-.3228 1.0814-.0791.1886-.2117.2867-.3986.293h-.2478c-.1726 0-.2588-.0863-.2588-.261v-.0735c.1006-.3836.234-.7746.3986-1.1763.1654-.4006.374-.764.625-1.0921.2515-.3282.5391-.5999.862-.8162.3229-.2152.6927-.3239 1.1091-.325.3595.0011.666.0778.921.2313.2548.1534.449.3569.5816.6115.1333.2547.2065.5413.2209.862v.0735c0 .3005-.0607.6106-.1836.9302a99 99 0 0 0-.619 1.6685c-.2045.569-.364 1.0794-.479 1.5322a9 9 0 0 0-.2373 1.3489c-.0288.1183-.0465.2483-.0536.3868 0 .2717.047.5412.1398.8044.0648.2387.183.4262.3556.5658s.3772.2088.6137.2088c.4746 0 .8876-.1417 1.2392-.4283q.5275-.4284.9255-1.1411a1.25 1.25 0 0 0 .0327-.1918 2.6 2.6 0 0 1 .032-.226l1.6155-6.233c.066-.2567.196-.4464.3931-.569.1982-.1214.3975-.1832.5978-.1832q.3134 0 .5178.1886c.0938.0906.1396.212.1396.3655 0 .0767-.0074.1576-.0213.2408l-1.6153 6.232q-.1726.6487-.1726 1.1507c0 .0916.0064.1885.0213.293.0362.3345.2046.5018.5061.5018.3026 0 .5626-.2568.781-.7735.2195-.5157.4326-1.1784.6404-1.9872.0437-.181.1662-.2716.3665-.2727h.2472c.08.001.1588.0256.2376.0735.0288.064.0437.1161.0437.1566 0 .0288-.0106.064-.033.1055z" class="st11"/><path d="m340.6096 110.321-5.9018 11.4923h11.794zm8.8757 12.8306c.0224.05.032.0948.032.1358 0 .0562-.0139.098-.0426.1255-.0437.0837-.1258.1254-.2483.1254h-15.94c-.115 0-.1982-.0417-.2483-.1254-.0287-.0275-.0426-.0693-.0426-.1255 0-.041.0107-.0858.032-.1358l7.6365-14.8805c.0938-.2014.259-.2994.4955-.293h.1939c.2226.001.3878.0948.4954.2823z" class="st11"/><path d="M357.191 114.681c-.0777.21-.2184.3143-.4198.3143h-2.0031l-1.594 6.1798c-.129.4475-.194.8375-.194 1.171 0 .0916.0075.179.0214.262.0362.3346.2046.502.5061.502.2738 0 .5317-.0747.7757-.2249.245-.1492.4741-.3505.6894-.601.2163-.2514.4091-.5465.5817-.8885.1727-.342.3304-.7011.4731-1.0783q.0336-.1246.1407-.1822c.0724-.0384.1406-.0575.2045-.0586h.2696c.0938.001.1684.0394.226.115.0223.0501.0319.0949.0319.1364v.063c-.1503.4112-.3389.8182-.5648 1.2188-.2258.4017-.4869.7618-.781 1.0826s-.619.5852-.9749.7937c-.3559.2092-.748.3137-1.1795.3137-.373 0-.6958-.0713-.9696-.2144-.2728-.1424-.4912-.34-.6564-.5958-.1651-.2536-.2621-.5455-.2908-.8737-.015-.083-.0214-.1737-.0214-.2717 0-.2365.0288-.4773.0864-.7213l1.5822-6.1276h-2.0244c-.179 0-.277-.0937-.291-.2823v-.0842l.065-.178c.0714-.2077.2047-.3132.3986-.3132h2.0564l.8844-3.4297c.0639-.2579.195-.4497.392-.5743.1972-.1258.3975-.1886.5978-.1897.2089.001.3815.0671.5179.1992.0927.0917.1395.2163.1395.3762a1.3 1.3 0 0 1-.0213.2301l-.8726 3.3882h1.9818c.1875 0 .2802.0949.2802.2824v.0735z" class="st11"/></g><path d="m292.549 250.8729-7.9594-9.6573.325 3.8239-.667.9957-3.6596 1.156zm-126.2562-85.261 118.6298 79.433-.667.9961-118.6298-79.4334a.5987.5987 0 0 1-.164-.831.5984.5984 0 0 1 .831-.1646z" class="st2"/><g class="st2"><defs><rect id="svg__github_work__SVGID_17_" width="74.693" height="33.8302" x="120.3623" y="106.2091"/></defs><clipPath id="svg__github_work__SVGID_18_"><use xlink:href="#svg__github_work__SVGID_17_" overflow="visible"/></clipPath><path d="M136.6276 118.525c.115-.4177.179-.8353.1939-1.254v-.063c0-.3547-.1108-.6616-.3345-.9205-.2654-.3058-.6116-.5221-1.0389-.6478s-.896-.1886-1.4053-.1886h-1.433c-.3655 0-.585.0287-.6564.0841-.0724.0565-.147.2547-.227.5957l-1.421 5.532h2.0785a6.17 6.17 0 0 0 1.5087-.1876c.4954-.1257.9653-.3484 1.4096-.6702.3814-.2717.669-.6126.862-1.0239a7.47 7.47 0 0 0 .4634-1.2562zm2.5305 8.7945c-.0778.3143-.196.6233-.3548.926a3.63 3.63 0 0 1-.5818.8214 3.13 3.13 0 0 1-.7703.6004q-.4251.2355-.9206.2354c-1.041 0-1.824-.2752-2.3482-.8262-.3591-.3761-.5381-.8492-.5381-1.4224 0-.292.0469-.6084.1396-.9515l.4848-1.872c.0575-.2366.0863-.4593.0863-.6692a2.7 2.7 0 0 0-.0213-.3239c-.0437-.292-.1439-.5498-.3016-.7735-.1587-.2227-.3612-.3985-.6083-.5274-.2483-.129-.5402-.194-.879-.194h-2.4335l-1.4326 5.5736c-.0287.1332-.0431.2408-.0431.3239 0 .1055.0216.1747.0648.2088.0934.0565.2875.0895.5816.1002.2947.0106.6104.016.9476.0149.2014.001.302.0842.302.2515a.47.47 0 0 1-.0216.1353l-.0431.1673c-.0784.2099-.219.314-.4202.314a56.5 56.5 0 0 0-2.6711-.0626q-1.3462 0-2.7031.0626-.29.0001-.3124-.2714v-.0842l.043-.178c.0576-.229.1975-.3409.4196-.3345.338.001.6575-.0043.9588-.015.302-.0106.5242-.0468.668-.1107.1366-.0757.2404-.2632.3124-.5647l3.0266-11.7854c.0432-.1523.064-.2706.064-.3548q.0002-.1245-.0535-.147c-.1007-.0618-.2961-.0991-.5869-.114a20 20 0 0 0-.9536-.0213c-.2006 0-.3013-.0938-.3013-.2824v-.0842l.0648-.1779c.043-.2077.1764-.3122.3986-.3132h6.0633c.683.001 1.3318.0916 1.9498.2727.618.1812 1.156.4806 1.6152.8982.3804.3357.6574.747.83 1.2339.1076.2653.1652.5412.1715.8268a2.52 2.52 0 0 1-.1182.7629c-.1353.5583-.4198 1.0644-.8503 1.5172a6.8 6.8 0 0 1-1.4543 1.1603c-.374.2163-.7522.3964-1.1358.5392q-.5769.2141-.8247.2653c.4092.1609.797.4752 1.1635.9419.309.4048.4635.8886.4635 1.4533 0 .1183-.0074.2376-.0213.3559l-.2056 1.8816c-.0565.489-.0853.9142-.0853 1.2764 0 .2377.0139.4465.0427.6266q.075.6185.6456.6169c.3452.001.6606-.1854.9483-.5583.2876-.373.4997-.8343.635-1.3862.0799-.2089.2195-.31.4208-.3037h.1716c.1939.001.2983.0916.3122.2717z" class="st12"/><path d="M145.0074 132.4697a86 86 0 0 0-2.4185-.0352c-.7832 0-1.5897.0117-2.4186.0352v-.5036h.4666q.2222.0005.4187-.0055c.13-.0037.2547-.0136.3719-.0293a5.6 5.6 0 0 0 .3037-.0472c.0713-.0113.132-.0472.179-.108a.322.322 0 0 0 .0703-.2024v-6.5993c-.2248.098-.5019.1715-.83.2227-.3293.0511-.6894.0756-1.0815.0756v-.4976c.5402 0 1.04-.0575 1.497-.1726.457-.115.8513-.3313 1.1848-.6478h.2099c.1481.001.2227.065.2227.194v7.425q0 .1175.0671.2053c.0458.0586.1108.0938.196.105a3.5 3.5 0 0 0 .277.0473c.113.0157.2398.0256.3815.0293q.2142.006.4155.0055h.487z" class="st12"/><line x1="151.5898" x2="166.5809" y1="120.7508" y2="120.7508" class="st13"/><line x1="151.5898" x2="166.5809" y1="125.2482" y2="125.2482" class="st13"/><path d="M183.542 126.285a36 36 0 0 1-.2803 1.0665c-.1065.391-.2504.7533-.4304 1.0878-.179.3346-.405.6244-.6787.8684q-.4091.365-1.0229.3648c-.5029 0-.9088-.1287-1.2167-.386q-.4635-.3869-.5722-.796c-.2429.3015-.57.5732-.9791.8172q-.6138.365-1.4224.3648c-.487 0-.9238-.0901-1.3084-.2718-.3836-.1803-.6872-.4595-.91-.8367-.2151-.4038-.3195-.8492-.312-1.3382v-.0842a7.7 7.7 0 0 1 .1938-1.5162c.115-.4805.2824-1.009.5008-1.5886q.3293-.8679.6297-1.6846c.2152-.5775.3239-1.0516.3239-1.4213 0-.3133-.1332-.4699-.3996-.471-.2429.0011-.4645.0704-.6616.21s-.3772.3334-.538.5806c-.162.2472-.308.5402-.437.878-.13.3388-.2365.699-.3228 1.0814-.0788.1886-.212.2867-.3984.293h-.2483c-.1726.0011-.2589-.0862-.2589-.261v-.0735c.1012-.3836.2344-.7746.3985-1.1763.1662-.4006.374-.764.6254-1.0921s.5391-.5999.862-.8162c.3228-.2152.6925-.3239 1.1091-.325.359.0011.666.0778.9206.2313s.4496.3569.5817.6115c.1332.2547.2067.5424.2206.862v.0735c0 .3005-.0608.6106-.1833.9302a104 104 0 0 0-.619 1.6685c-.2046.569-.3644 1.0794-.4795 1.5322-.114.454-.1939.9025-.2365 1.349a2.04 2.04 0 0 0-.0533.3867c0 .2717.0469.5413.1396.8044.065.2387.1832.4262.3548.5658.1726.1396.3771.2088.6137.2088.4752 0 .8875-.1417 1.2391-.4283.3516-.2855.6606-.666.9259-1.14a1.25 1.25 0 0 0 .033-.1929 2.2 2.2 0 0 1 .032-.2259l1.6152-6.232c.065-.2578.196-.4475.3932-.57.1982-.1215.3974-.1822.5977-.1833.2088.001.3814.0629.5178.1886.0938.0906.1396.213.1396.3654a1.5 1.5 0 0 1-.0213.2408l-1.6152 6.232q-.1727.649-.1727 1.1508c0 .0916.0064.1886.0214.293.0362.3346.2045.5018.506.5018.3026 0 .5626-.2567.781-.7735.2195-.5157.4326-1.1784.6404-1.9871.0437-.1812.1662-.2717.3665-.2717h.2472c.0799 0 .1587.0245.2376.0724.0287.064.0437.1162.0437.1567 0 .0287-.0107.0639-.033.1054z" class="st12"/><path d="M191.0055 120.5537c-.0778.2099-.2185.3143-.4198.3143h-2.003l-1.594 6.1798c-.129.4475-.194.8375-.194 1.171 0 .0916.0075.179.0214.2621.0362.3346.2046.5018.506.5018.274 0 .5318-.0745.7757-.2248.2451-.1491.4742-.3495.6894-.6009.2163-.2515.4091-.5466.5817-.8886.1726-.341.3303-.7011.4741-1.0783.0214-.083.0683-.1438.1396-.1822.0725-.0373.1407-.0575.2046-.0575h.2696c.0937 0 .1683.0383.2258.114.0224.05.032.0948.032.1364v.0628c-.1502.4113-.3388.8183-.5647 1.219-.2259.4016-.487.7618-.781 1.0825s-.619.585-.9749.7938q-.5323.3136-1.1794.3136c-.373 0-.6958-.0711-.9696-.2143-.2717-.142-.4912-.3401-.6563-.5958-.1652-.2536-.2621-.5456-.2909-.8738-.0149-.083-.0213-.1736-.0213-.2717 0-.2365.0288-.4773.0863-.7213l1.5822-6.1276h-2.0244c-.179 0-.276-.0938-.2908-.2823v-.0842l.065-.178c.0713-.2077.2045-.3121.3984-.3132h2.0564l.8843-3.4298c.064-.2579.195-.4496.392-.5743.1983-.1257.3975-.1886.5989-.1897.2077.0011.3804.0672.5167.1993.0927.0916.1396.2163.1396.3761 0 .0767-.0075.1545-.0213.2302l-.8726 3.3882h1.9818c.1875.001.2802.0948.2802.2823v.0736z" class="st12"/></g><g class="st2"><defs><rect id="svg__github_work__SVGID_19_" width="145.7751" height="34.8646" x="76.8659" y="198.937"/></defs><clipPath id="svg__github_work__SVGID_20_"><use xlink:href="#svg__github_work__SVGID_19_" overflow="visible"/></clipPath><path d="M93.1323 211.8953c.115-.4177.179-.8353.194-1.2551v-.0618c0-.356-.1109-.6617-.3346-.9206-.2654-.3058-.6116-.5221-1.039-.6478-.4272-.1258-.896-.1886-1.4054-.1886h-1.4331c-.3655 0-.585.0288-.6564.0841-.0724.0565-.147.2536-.227.5957l-1.421 5.532h2.0785a6.12 6.12 0 0 0 1.5088-.1887c.4955-.1246.9654-.3473 1.4097-.669.3815-.2718.6691-.6127.862-1.024a7.47 7.47 0 0 0 .4635-1.2562zm2.5306 8.7945q-.1166.4717-.3548.9259a3.63 3.63 0 0 1-.5818.8214 3.12 3.12 0 0 1-.7703.5999q-.4252.236-.9206.2358c-1.041 0-1.8242-.2752-2.3485-.826-.359-.3762-.538-.8493-.538-1.4225 0-.292.0468-.6084.1395-.9515l.4848-1.872c.0576-.2365.0863-.4592.0863-.6691a2.7 2.7 0 0 0-.0213-.324c-.0437-.2919-.1438-.5497-.3015-.7735-.1588-.2227-.3612-.3985-.6084-.5274-.2483-.129-.5403-.1939-.8791-.195h-2.4336l-1.4327 5.5746c-.0287.1332-.0431.2408-.0431.324 0 .1054.0216.1747.0648.2088.0934.0564.2875.0895.5816.1001a24 24 0 0 0 .9477.015c.2014.001.302.0841.302.2514a.48.48 0 0 1-.0215.1353l-.0432.1673c-.0784.2099-.219.3143-.4202.3143a55.4 55.4 0 0 0-2.6713-.0629c-.8974 0-1.7987.0203-2.7033.0629-.1935 0-.2974-.0906-.3124-.2728v-.083l.043-.178c.0576-.229.1975-.341.4197-.3346a25 25 0 0 0 .9588-.0149c.302-.0106.5243-.0469.668-.1108q.2047-.1138.3124-.5647l3.0269-11.7853c.0431-.1523.064-.2706.064-.3548q.0001-.1245-.0536-.147c-.1007-.0618-.296-.1002-.5869-.114a20 20 0 0 0-.9536-.0213c-.2007 0-.3014-.0938-.3014-.2824v-.0841l.0648-.178c.043-.2077.1765-.3122.3987-.3132h6.0637c.683.001 1.3319.0916 1.9499.2727.618.1812 1.156.4806 1.6153.8982.3804.3357.6575.747.83 1.2339a2.32 2.32 0 0 1 .1716.8268 2.52 2.52 0 0 1-.1183.7629c-.1353.5583-.4198 1.0644-.8502 1.5172a6.83 6.83 0 0 1-1.4545 1.1603c-.374.2163-.7522.3964-1.1358.5391q-.577.2142-.8248.2653.6137.2416 1.1636.942c.309.4048.4635.8885.4635 1.4532 0 .1183-.0075.2376-.0213.3548l-.2057 1.8827c-.0564.489-.0852.9142-.0852 1.2754 0 .2387.0139.4475.0426.6276q.0751.6185.6457.6169c.3453.001.6607-.1854.9484-.5583.2876-.373.4997-.8343.635-1.3862.08-.2088.2195-.31.4209-.3037h.1715c.194.0011.2984.0917.3122.2717z" class="st14"/><path d="M102.0124 225.8398h-5.498v-.322c0-.023.0127-.0582.0404-.1054l2.2088-2.1433a136 136 0 0 0 .7939-.7904c.2685-.2696.5082-.5445.7203-.8257.211-.2813.3803-.5712.506-.8695.1269-.2983.1887-.6116.1887-.9397 0-.277-.0405-.536-.1215-.7757q-.1215-.3612-.3516-.6329c-.1524-.1811-.3442-.3282-.5733-.439-.2301-.1119-.4954-.1673-.797-.1673-.4507 0-.8481.1204-1.1934.3602-.3441.2408-.5722.505-.6851.7937-.0224.0075.0138.0118.1076.0118h.115c.1354.0277.2526.0692.3517.1257s.1822.1353.2493.2344c.0682.0991.1013.2195.1013.3601 0 .2344-.0853.4145-.2558.5392-.1715.1246-.3633.1875-.5743.1864-.2024.0011-.3921-.0618-.568-.1864s-.2631-.3048-.2631-.5392c0-.3281.0714-.6382.2163-.9312a2.39 2.39 0 0 1 .5871-.7607c.2483-.2153.5402-.3847.878-.5104.3378-.1247.6969-.1865 1.0751-.1875.4678.001.8972.0618 1.2872.1854.389.1225.7214.2994.9963.5295.2738.2312.489.4976.6446.7991.1556.3026.2334.6372.2334 1.0048 0 .406-.1034.7799-.3112 1.1208-.2067.342-.4635.6553-.7693.9409-.3069.2844-.6319.553-.977.8044-.3443.2525-.6564.497-.9356.7349l-1.5536 1.3058h2.033c.2846.0004.5488-.0015.7939-.0054.2461-.0037.4539-.0117.6255-.0235s.2589-.0194.2631-.0238c.0363-.027.0704-.0816.1013-.1636.032-.082.0607-.1786.0884-.2899.0266-.1112.0533-.2243.081-.3396a6 6 0 0 0 .0735-.3781h.4997z" class="st14"/><line x1="109.0886" x2="124.0806" y1="214.1211" y2="214.1211" class="st15"/><line x1="109.0886" x2="124.0806" y1="218.6185" y2="218.6185" class="st15"/><path d="M141.0353 219.6552a40 40 0 0 1-.2802 1.0665c-.1066.391-.2504.7533-.4305 1.0879-.179.3345-.4049.6243-.6787.8683q-.4092.3645-1.023.3644c-.5029 0-.9088-.1278-1.2178-.3857-.308-.2578-.4987-.5231-.5712-.7959-.243.3015-.57.5732-.9792.8172q-.6137.3645-1.4225.3644c-.487 0-.9238-.0895-1.3084-.2717-.3847-.18-.6873-.4592-.91-.8364-.2152-.4038-.3197-.8491-.3133-1.3382v-.0842c.015-.5082.08-1.0132.195-1.5162.1151-.4805.2824-1.009.5008-1.5886.2195-.5785.4284-1.14.6297-1.6845.2153-.5775.3229-1.0516.3229-1.4214 0-.3132-.1321-.4709-.3985-.4709-.244 0-.4646.0703-.6617.2099s-.3772.3335-.5392.5796c-.1608.2483-.3068.5413-.4358.879-.13.3389-.2365.699-.3228 1.0815-.08.1886-.212.2866-.3996.293h-.2472c-.1726 0-.259-.0863-.259-.261v-.0735c.1013-.3836.2345-.7747.3986-1.1763.1651-.4007.374-.764.6255-1.0922s.5391-.5998.862-.8161c.3228-.2152.6926-.324 1.1092-.325q.5386.0013.9206.2312c.2547.1535.4486.357.5818.6116s.2067.5413.2206.862v.0735c0 .3005-.0608.6105-.1833.9302a104 104 0 0 0-.6191 1.6685c-.2046.569-.3644 1.0793-.4795 1.5322-.115.4539-.194.9024-.2365 1.3489a2.13 2.13 0 0 0-.0544.3867c0 .2717.048.5413.1407.8045.064.2386.1822.4261.3548.5657s.3772.2089.6138.2089c.4752 0 .8875-.1417 1.2392-.4283.3516-.2856.6606-.666.9259-1.1412a1.34 1.34 0 0 0 .033-.1918 2.2 2.2 0 0 1 .032-.2259l1.6153-6.233q.0975-.3852.3932-.569c.1971-.1214.3975-.1832.5978-.1832q.3133 0 .5178.1886c.0927.0905.1396.212.1396.3654a1.5 1.5 0 0 1-.0213.2408l-1.6164 6.232q-.1725.649-.1726 1.1507c0 .0917.0074.1886.0224.293.0351.3346.2045.5019.506.5019s.5627-.2568.7811-.7736c.2195-.5157.4326-1.1784.6404-1.987.0437-.1812.1652-.2718.3665-.2729h.2472c.08.0011.1588.0256.2377.0736.0287.0639.0426.1161.0426.1566 0 .0288-.0096.064-.032.1055z" class="st14"/><path d="M159.3336 213.924c-.0788.2099-.2184.3143-.4198.3143h-2.0032l-1.595 6.1798c-.128.4475-.193.8374-.193 1.171 0 .0915.0075.179.0214.262.0362.3346.2046.5019.5061.5019.2728 0 .5317-.0746.7757-.2249.244-.1491.4742-.3505.6894-.6009.2163-.2514.4092-.5466.5818-.8886s.3303-.701.4731-1.0783q.0335-.1246.1406-.1822c.0725-.0383.1396-.0575.2046-.0586h.2696c.0927.0011.1684.0395.2259.1151.0213.0501.032.0948.032.1364v.0629a8.14 8.14 0 0 1-.5658 1.2189c-.226.4017-.486.7618-.78 1.0825s-.619.585-.975.7938-.748.3132-1.1795.3132c-.374 0-.6969-.0703-.9696-.2141-.2728-.1428-.4912-.34-.6564-.5956-.1652-.2536-.2621-.5456-.2909-.8737a1.54 1.54 0 0 1-.0224-.2717 3.14 3.14 0 0 1 .0863-.7214l1.5834-6.1275h-2.0245c-.179 0-.277-.0938-.2909-.2824v-.0841l.064-.178c.0724-.2077.2056-.3132.3995-.3132h2.0565l.8833-3.4298q.0975-.387.3932-.5743c.1971-.1257.3964-.1886.5978-.1897.2088.0011.3814.0672.5167.1993.0938.0916.1407.2163.1407.3761 0 .0767-.0075.1545-.0224.2301l-.8716 3.3883h1.982c.1864 0 .279.0948.279.2823v.0736z" class="st14"/><line x1="165.5915" x2="180.5835" y1="216.3692" y2="216.3692" class="st15"/><line x1="173.0875" x2="173.0875" y1="208.8736" y2="223.8649" class="st15"/><path d="m194.4045 209.564-5.903 11.4923h11.7954zm8.8758 12.8305c.0214.0501.032.0948.032.1353 0 .0565-.0106.0991-.0426.1258-.0426.0841-.1172.1257-.245.1257h-15.9404c-.1172 0-.2024-.0416-.245-.1257-.032-.0267-.0427-.0693-.0427-.1258 0-.0405.0107-.0852.032-.1353l7.6292-14.8805c.0958-.2013.2663-.2994.5008-.293h.1918c.2237.0011.3942.0949.5008.2824z" class="st14"/><path d="M210.9841 213.924c-.0746.2099-.213.3143-.4155.3143h-2.0032l-1.5983 6.1798c-.1279.4475-.1918.8374-.1918 1.171 0 .0915.0106.179.0213.262.032.3346.2025.5019.5008.5019.277 0 .5328-.0746.7778-.2249.2451-.1491.4795-.3505.6926-.6009.2131-.2514.405-.5466.586-.8886.1706-.342.3197-.701.4689-1.0783.0213-.083.064-.1438.1385-.1821s.1385-.0576.2025-.0587h.277q.1278.0017.2238.1151c.0213.0501.032.0948.032.1364v.0629c-.1493.4112-.341.8182-.5648 1.2189-.2238.4017-.4901.7618-.7778 1.0825a4.42 4.42 0 0 1-.9803.7938q-.5275.3132-1.1828.3132c-.3729 0-.6925-.0703-.9696-.2141-.2664-.1428-.4901-.34-.65-.5956-.1704-.2536-.2664-.5456-.2983-.8737-.0107-.0831-.0213-.1737-.0213-.2717 0-.2366.032-.4774.0852-.7214l1.5876-6.1275H204.9c-.1812 0-.277-.0938-.2877-.2824v-.0841l.0639-.178c.0746-.2077.2024-.3132.3942-.3132h2.0565l.8844-3.4298c.064-.2579.1918-.4496.3942-.5743.2025-.1257.3943-.1886.5967-.1896.2131.001.3836.067.5222.1992.0852.0916.1385.2163.1385.3761 0 .0767-.0107.1545-.0213.2301l-.8738 3.3883h1.9819c.1811 0 .277.0948.277.2823v.0736z" class="st14"/><path d="M150.6304 226.5936c-7.5386-4.6008-7.5386-15.848 0-20.4487h1.0964c-6.8534 4.6007-6.8534 15.848 0 20.4487" class="st14"/><path d="M213.371 206.1449c7.5332 4.6007 7.5332 15.848 0 20.4487h-1.0976c6.8514-4.6008 6.8514-15.848 0-20.4487" class="st14"/></g></g></svg>