<?xml version="1.0" encoding="utf-8"?>
<!-- Generator: Adobe Illustrator 19.0.0, SVG Export Plug-In . SVG Version: 6.00 Build 0)  -->
<svg version="1.1" id="Layer_1" xmlns="http://www.w3.org/2000/svg" xmlns:xlink="http://www.w3.org/1999/xlink" x="0px" y="0px"
	 viewBox="0 0 262.0799866 239.0399933" style="enable-background:new 0 0 262.0799866 239.0399933;" xml:space="preserve">
<style type="text/css">
	.st0{clip-path:url(#SVGID_2_);}
	.st1{clip-path:url(#SVGID_4_);}
	
		.st2{clip-path:url(#SVGID_6_);fill:none;stroke:#000000;stroke-width:1.3983835;stroke-linecap:round;stroke-linejoin:round;stroke-miterlimit:10;}
	
		.st3{clip-path:url(#SVGID_6_);fill:none;stroke:#0000F0;stroke-width:1.3983835;stroke-linecap:round;stroke-linejoin:round;stroke-miterlimit:10;}
	.st4{clip-path:url(#SVGID_6_);}
	.st5{clip-path:url(#SVGID_8_);fill-rule:evenodd;clip-rule:evenodd;}
	.st6{clip-path:url(#SVGID_10_);fill-rule:evenodd;clip-rule:evenodd;}
	.st7{clip-path:url(#SVGID_12_);fill-rule:evenodd;clip-rule:evenodd;}
	.st8{clip-path:url(#SVGID_14_);fill-rule:evenodd;clip-rule:evenodd;}
	.st9{clip-path:url(#SVGID_16_);fill-rule:evenodd;clip-rule:evenodd;}
	
		.st10{clip-path:url(#SVGID_16_);fill:none;stroke:#000000;stroke-width:0.599626;stroke-linecap:round;stroke-linejoin:round;stroke-miterlimit:10;}
	.st11{clip-path:url(#SVGID_18_);fill-rule:evenodd;clip-rule:evenodd;}
</style>
<g>
	<defs>
		<rect id="SVGID_1_" x="0.0000039" y="0.0000153" width="262.0799866" height="239.0399933"/>
	</defs>
	<clipPath id="SVGID_2_">
		<use xlink:href="#SVGID_1_"  style="overflow:visible;"/>
	</clipPath>
	<g class="st0">
	</g>
</g>
<g>
	<defs>
		<rect id="SVGID_3_" y="-0.0000458" width="262.0799866" height="239.0399933"/>
	</defs>
	<clipPath id="SVGID_4_">
		<use xlink:href="#SVGID_3_"  style="overflow:visible;"/>
	</clipPath>
	<g class="st1">
		<defs>
			<rect id="SVGID_5_" y="0.0039368" width="261.6996155" height="238.7223969"/>
		</defs>
		<clipPath id="SVGID_6_">
			<use xlink:href="#SVGID_5_"  style="overflow:visible;"/>
		</clipPath>
		<path class="st2" d="M49.4482269,49.319809c71.1466751,49.4752808,57.6530838,134.9306641,139.8396454,163.5525208"/>
		<path class="st2" d="M83.1477203,23.9114075c71.1466827,49.4743652,57.6530914,134.9297333,139.8396301,163.5515747"/>
		<path class="st3" d="M48.3668022,48.4136658c15.81493-16.931488,42.3620872-17.837616,59.2938652-2.0229645
			c16.9327164,15.814621,17.8379517,42.3612976,2.0230179,59.2937012c-2.2131882,2.3688507-4.6930237,4.4738617-7.3909912,6.2721634
			"/>
		<path class="st3" d="M60.8526154,57.7435913c17.5806427-15.3410492,44.0662689-13.2910461,59.1577682,4.5791931
			c15.0924149,17.8693085,13.0759354,44.7926178-4.5037766,60.1346207c-1.8803787,1.6407471-3.900589,3.1090393-6.0364075,4.3880768
			"/>
		<path class="st3" d="M73.5071716,69.0834503c19.3836441-12.6916199,45.3863449-7.2668762,58.0782013,12.1164093
			c12.6909027,19.3842316,7.2660675,45.3855209-12.1175766,58.0771484c-0.8763275,0.5733337-1.7731705,1.1140289-2.6895752,1.62117"
			/>
		<path class="st3" d="M83.4665527,82.7185059c20.0380859-11.6316528,45.7107849-4.816925,57.3435822,15.2198639
			c11.6318512,20.0377121,4.8170013,45.7108612-15.2201538,57.342514c-0.2554398,0.1482239-0.5127487,0.2936707-0.7709808,0.4362946
			"/>
		<path class="st3" d="M93.2189636,97.2158813c20.6524506-10.50177,45.9084167-2.2728271,56.4094543,18.3792419
			c9.8689423,19.4065857,3.2507935,43.1378784-15.2369232,54.637146"/>
		<path class="st3" d="M102.468895,113.1349335c20.7922897-10.2211609,45.9345169-1.6519547,56.1568069,19.1399536
			c8.9264221,18.1583099,3.6199646,40.0996857-12.6172638,52.172287"/>
		<path class="st3" d="M111.1165771,127.2416916c20.6524506-10.50177,45.907486-2.2728195,56.4094391,18.3792496
			c8.7017517,17.1123352,4.6771851,37.9480591-9.7719879,50.5883942"/>
		<path class="st3" d="M117.0588303,140.4665527c19.9346085-11.8078613,45.6669693-5.2196655,57.475029,14.7145844
			c9.2433929,15.6058197,7.411499,35.3843842-4.5419922,49.0259552"/>
		<g class="st4">
			<defs>
				<rect id="SVGID_7_" x="21.0486622" y="24.7200317" width="22.8536777" height="29.5984955"/>
			</defs>
			<clipPath id="SVGID_8_">
				<use xlink:href="#SVGID_7_"  style="overflow:visible;"/>
			</clipPath>
			<path class="st5" d="M34.4176102,36.199585c-0.0378532,0.171524-0.1316376,0.2567291-0.2826691,0.2561798
				c-0.0124893,0.0124817-0.0439987,0.0188293-0.0943451,0.0182648c-0.0313225,0.0005646-0.0564957-0.0057831-0.075325-0.0182648
				H33.880619c-0.1637077,0.0005493-0.2453728-0.0606079-0.2453728-0.1831055v-0.0639496
				c0.0755157-0.4506378,0.1131783-0.8686523,0.1131783-1.2527313v-0.3486633
				c-0.0376625-0.4679718-0.1430092-0.8725739-0.3156662-1.2118988c-0.172657-0.3374786-0.4254875-0.6003571-0.7583122-0.7868195
				c-0.3328171-0.1845703-0.7542038-0.2778015-1.2632236-0.2796631c-0.2949715,0.0018616-0.5953484,0.0652618-0.9000149,0.1939087
				c-0.3042946,0.12677-0.5884495,0.3020325-0.8526535,0.5201874c-0.2888184,0.2386475-0.5244961,0.5089874-0.7068481,0.8110352
				c-0.1817932,0.3020477-0.3139896,0.6096802-0.3962154,0.926651c-0.0624619,0.2274628-0.0967693,0.4437408-0.1036682,0.6506958
				c0,0.2865601,0.0630207,0.561203,0.188879,0.8229828c0.1823502,0.4398346,0.508831,0.7206116,0.9800014,0.8418121
				l2.1673412,0.6038971c0.3958435,0.1165314,0.7336998,0.3013,1.0133781,0.5541229
				c0.2796822,0.2532043,0.4901886,0.5522614,0.6313362,0.8966217c0.1418915,0.3447418,0.2246742,0.720993,0.2498474,1.1293182
				v0.1646271c0,0.3546295-0.0501556,0.7170868-0.1508408,1.0888519c-0.1316376,0.5129242-0.3419571,1.0070038-0.6313362,1.4828186
				c-0.2888145,0.4756317-0.6468048,0.902771-1.0745316,1.2803345c-0.4083347,0.3482819-0.8554516,0.6271973-1.3428421,0.8371429
				c-0.4872055,0.2103119-0.9755287,0.3156586-1.4655304,0.3156586c-0.7223244,0-1.3381805-0.1156006-1.8472023-0.3477325
				c-0.5088329-0.2310028-0.8858433-0.5237274-1.1310291-0.8783569l-0.9328308,1.107132
				c-0.0811062,0.079422-0.166317,0.1189575-0.254324,0.1189575l-0.0566807-0.0000153
				c-0.1566219,0-0.2418308-0.0605927-0.2545109-0.1830902c0-0.0365295,0.009697-0.0697327,0.0279694-0.1004944l1.0935516-4.2819366
				c0.0376644-0.1704102,0.1480446-0.258606,0.3298378-0.2653198h0.2069645
				c0.0755138,0.0005646,0.1446877,0.0307617,0.2077103,0.0913544c0.0251713,0.0492249,0.0376644,0.0921173,0.0376644,0.1280975
				c0,0.0251617-0.00634,0.0555573-0.0188332,0.0915375c-0.1131783,0.4398346-0.1698589,0.8487091-0.1698589,1.2260895
				c0,0.6044617,0.1480446,1.116806,0.4432011,1.5370636c0.4711685,0.6775513,1.2947369,1.0161438,2.4692116,1.0155792
				c0.2951584,0.0005646,0.5953484-0.0680542,0.9002018-0.2052765c0.3048515-0.1372223,0.5890083-0.321991,0.8526535-0.5541229
				c0.2893772-0.2675476,0.5323277-0.5649261,0.730154-0.8915863c0.1980133-0.3259125,0.3443794-0.6631927,0.4381676-1.0114746
				c0.0628357-0.2802277,0.0943451-0.5421906,0.0943451-0.7868042c0-0.3042908-0.0406456-0.5970154-0.1225014-0.8783569
				c-0.1881313-0.4689178-0.5369873-0.7709656-1.0458202-0.9057617L28.8761921,38.87117
				c-0.3831635-0.1029053-0.7129993-0.2722015-0.9898853-0.5073242c-0.2761383-0.2343597-0.4911194-0.5134735-0.6449451-0.8371429
				c-0.1538239-0.3231049-0.2436962-0.6797791-0.2688656-1.0709534v-0.201355c0-0.3040924,0.0376625-0.6234894,0.1131763-0.9609528
				c0.1321964-0.4866333,0.3425159-0.9527435,0.6313343-1.3983612c0.2893753-0.4456024,0.6473694-0.8390045,1.0739746-1.1820679
				c0.4025555-0.3281403,0.8440781-0.5910339,1.3243847-0.7905426c0.4810505-0.1976318,0.9566956-0.2964478,1.4280529-0.2983093
				c0.6473694,0.0018616,1.1808128,0.1211853,1.6016388,0.3635712c0.4210129,0.2405243,0.7256813,0.5257874,0.9145584,0.8539276
				l0.9046745-1.0888519c0.0501556-0.0838928,0.1320114-0.12677,0.2446289-0.1286469h0.0852089
				c0.1510277,0.0018768,0.2259827,0.074585,0.2259827,0.2200165v0.0727081L34.4176102,36.199585z"/>
			<path class="st5" d="M40.6431274,47.6955566c-0.7253113-0.0205231-1.4301071-0.030777-2.1158829-0.030777
				c-0.6854057,0-1.3909492,0.0102539-2.1162567,0.0307617v-0.440567h0.4081497
				c0.1299591,0.0003662,0.2522736-0.0013123,0.3661957-0.0048523c0.1144867-0.0031738,0.2228127-0.0119324,0.3253632-0.0255432
				c0.1025467-0.0136108,0.1912994-0.0272217,0.2658844-0.0413818c0.0630188-0.0098877,0.1154137-0.041214,0.15662-0.0945282
				c0.0415802-0.0527649,0.062088-0.1116943,0.062088-0.1769409v-5.7744598
				c-0.1968956,0.0857697-0.4392815,0.1508331-0.7269821,0.1950226c-0.2877007,0.0445557-0.602993,0.0665588-0.9458847,0.0663757
				v-0.4355469c0.4730339,0.0001831,0.9097099-0.0499573,1.3094673-0.1508331
				c0.3999443-0.1004944,0.7458191-0.2895508,1.0374336-0.5664215h0.1832848
				c0.1297722,0.0001831,0.1946564,0.0566711,0.1946564,0.1689148v6.4969482c0,0.0684204,0.0197639,0.1282654,0.0591049,0.1795502
				c0.0395279,0.0512695,0.0969582,0.0820313,0.1715393,0.0919189c0.0632095,0.0141602,0.1441269,0.027771,0.2423935,0.0413818
				c0.0986328,0.0136108,0.209198,0.0223846,0.3341217,0.0255432c0.1230621,0.00354,0.2461205,0.0052185,0.3635864,0.0048523
				h0.4251175V47.6955566z"/>
		</g>
		<g class="st4">
			<defs>
				<rect id="SVGID_9_" x="57.721138" y="-1.1805878" width="23.7224388" height="29.5984802"/>
			</defs>
			<clipPath id="SVGID_10_">
				<use xlink:href="#SVGID_9_"  style="overflow:visible;"/>
			</clipPath>
			<path class="st6" d="M71.0900192,10.2989502c-0.0378494,0.171524-0.1316299,0.2567291-0.2826614,0.2561798
				c-0.0124969,0.0124817-0.0440063,0.0188293-0.0943451,0.0182648c-0.0313263,0.0005646-0.0564957-0.0057831-0.075325-0.0182648
				h-0.0846481c-0.1637115,0.0005493-0.2453766-0.0605927-0.2453766-0.1830902v-0.0639496
				c0.0755157-0.4506531,0.1131744-0.8686676,0.1131744-1.2527466V8.7066956
				c-0.0376587-0.4679871-0.1430054-0.8725739-0.3156662-1.2119141c-0.1726532-0.3374634-0.4254837-0.6003571-0.7583008-0.7868042
				c-0.3328171-0.1845856-0.7542038-0.2778168-1.2632217-0.2796783c-0.2949677,0.0018616-0.5953445,0.0652618-0.9000092,0.1939087
				C66.8793488,6.7489929,66.595192,6.9242554,66.330986,7.142395c-0.2888107,0.2386627-0.5244904,0.5090027-0.7068405,0.8110504
				c-0.1817932,0.3020477-0.3139877,0.6096802-0.3962173,0.9266357c-0.0624619,0.2274628-0.0967636,0.4437561-0.1036682,0.6507111
				c0,0.2865601,0.0630264,0.561203,0.1888809,0.8229675c0.1823502,0.4398346,0.5088272,0.7206268,0.9799957,0.8418121
				l2.1673355,0.6038971c0.3958359,0.1165314,0.733696,0.3013,1.0133743,0.5541229
				c0.2796783,0.2532043,0.490181,0.5522614,0.6313324,0.896637c0.1418839,0.3447266,0.2246704,0.7209778,0.2498398,1.129303
				l0.0000076,0.1646271c0,0.3546295-0.0501556,0.7170868-0.1508408,1.0888519
				c-0.1316376,0.5129242-0.3419571,1.0070038-0.6313324,1.4828186c-0.2888184,0.4756317-0.6468048,0.9027863-1.0745316,1.2803345
				c-0.4083328,0.3482819-0.8554459,0.6272125-1.3428345,0.8371582c-0.4872055,0.2102966-0.9755249,0.3156433-1.4655228,0.3156433
				c-0.7223206,0-1.3381729-0.1156006-1.8471909-0.3477173c-0.508831-0.2310181-0.8858414-0.5237274-1.1310272-0.8783569
				l-0.9328232,1.107132c-0.0811081,0.079422-0.166317,0.1189423-0.2543221,0.1189423h-0.0566826
				c-0.15662,0-0.2418289-0.0605927-0.254509-0.1830902c0-0.0365448,0.009697-0.0697327,0.0279694-0.1004944l1.093544-4.2819519
				c0.0376663-0.1704102,0.1480446-0.2585907,0.3298378-0.2653046h0.2069626
				c0.0755119,0.0005493,0.1446877,0.0307617,0.2077103,0.0913544c0.0251694,0.0492249,0.0376625,0.0921021,0.0376625,0.1280975
				c0,0.0251617-0.00634,0.0555573-0.0188332,0.0915375c-0.1131783,0.4398346-0.169857,0.8487091-0.169857,1.2260742
				c0,0.6044617,0.1480446,1.1168213,0.4431992,1.5370789c0.4711685,0.6775513,1.2947311,1.0161285,2.4692001,1.0155792
				c0.2951508,0.0005493,0.5953445-0.0680542,0.9001923-0.2052765c0.3048553-0.1372375,0.5890121-0.3220062,0.8526535-0.5541229
				c0.2893753-0.2675629,0.5323257-0.5649414,0.7301483-0.8916016c0.1980133-0.3258972,0.3443832-0.6631927,0.4381714-1.0114746
				c0.0628281-0.2802277,0.0943375-0.5421906,0.0943375-0.7868042c0-0.3042755-0.0406418-0.5970001-0.1224976-0.8783569
				c-0.1881332-0.4689026-0.5369873-0.7709503-1.0458145-0.9057617l-2.1393661-0.6038971
				c-0.3831635-0.1029205-0.7129974-0.2722168-0.9898758-0.5073242c-0.2761383-0.2343597-0.4911194-0.5134735-0.6449432-0.8371429
				c-0.1538239-0.3231201-0.2436943-0.6797943-0.2688675-1.0709534v-0.2013702c0-0.3040924,0.0376625-0.6234741,0.1131783-0.9609528
				c0.1321945-0.486618,0.3425102-0.9527435,0.6313286-1.3983459c0.2893753-0.4456024,0.6473694-0.8390198,1.0739746-1.1820831
				c0.4025497-0.3281403,0.8440704-0.5910339,1.3243713-0.7905273c0.4810486-0.1976318,0.9566956-0.2964478,1.4280472-0.2983246
				c0.6473618,0.0018768,1.180809,0.1212006,1.6016312,0.3635864c0.4210129,0.240509,0.7256775,0.5257721,0.9145508,0.8539276
				l0.9046783-1.0888519c0.0501556-0.0839081,0.1320038-0.1267853,0.2446213-0.1286621h0.0852127
				c0.1510239,0.0018768,0.2259827,0.074585,0.2259827,0.2200165v0.0727081L71.0900192,10.2989502z"/>
			<path class="st6" d="M77.7536774,21.7949066h-4.8112411v-0.2817078c0-0.0203247,0.0119324-0.0509033,0.035614-0.0923004
				l1.9327698-1.8752899c0.2284012-0.2250366,0.4597931-0.4556732,0.6943512-0.6913452s0.4446945-0.4765625,0.629837-0.7224731
				c0.185524-0.2459259,0.3328247-0.4994965,0.4428329-0.7608948c0.1118698-0.2612152,0.1659393-0.5352936,0.1659393-0.8226013
				c0-0.2420197-0.0354233-0.4685516-0.1062775-0.6784821c-0.0708542-0.2101288-0.1734009-0.3945313-0.3076477-0.5533752
				c-0.133873-0.1588593-0.3013077-0.2869415-0.5023041-0.3842773c-0.2008133-0.0973206-0.4335022-0.1459808-0.697525-0.1463623
				c-0.3937836,0.0003815-0.7417068,0.1053467-1.0433884,0.3154755c-0.3013077,0.2099304-0.5013733,0.4414978-0.6000061,0.6937714
				c-0.0193939,0.0070801,0.0121155,0.0106201,0.0947189,0.0102539h0.1003113
				c0.1183929,0.0244293,0.2205734,0.0611572,0.307457,0.1105652c0.0867004,0.0495911,0.1596069,0.1178284,0.2187119,0.204895
				c0.0592957,0.0870819,0.088562,0.1922302,0.088562,0.3149109c0,0.2050934-0.0745773,0.3624573-0.2244873,0.4715271
				c-0.1499023,0.1096344-0.3173447,0.1640778-0.5024872,0.1637115c-0.1771317,0.0003662-0.3428879-0.0540771-0.4963379-0.1637115
				c-0.1534576-0.1090698-0.2306442-0.2664337-0.2306442-0.4715271c0-0.2867584,0.0632095-0.5582123,0.1894302-0.8143921
				c0.126236-0.2561798,0.2972107-0.4780579,0.5138702-0.6661835c0.2166595-0.187561,0.472847-0.3361664,0.7683716-0.4456024
				c0.2955322-0.1092682,0.6089554-0.1640778,0.940094-0.1642609c0.4098282,0.0001831,0.785347,0.0540619,1.1259918,0.1616516
				c0.341217,0.1075745,0.6320801,0.2623291,0.8726044,0.4636841c0.2386627,0.2017365,0.4269791,0.4347992,0.5630875,0.6993713
				c0.136116,0.2647552,0.205101,0.5574799,0.205101,0.8783569c0,0.355545-0.091362,0.6827698-0.2722244,0.9814453
				c-0.1808548,0.2992554-0.4064713,0.5733337-0.6749573,0.8224182c-0.2666321,0.2494812-0.5519028,0.4842072-0.8534012,0.7045898
				c-0.3013077,0.2201996-0.5742722,0.4344177-0.8185272,0.6426849L74.1422577,20.84198h1.7793274
				c0.2481689,0.0001831,0.4803009-0.001297,0.694725-0.0048523c0.2144165-0.0031586,0.3971481-0.0102539,0.5463028-0.0205078
				c0.1510315-0.0102539,0.227478-0.0169678,0.2312012-0.020874c0.0317001-0.0236816,0.0615311-0.0714111,0.0876389-0.1430054
				c0.0279617-0.0717926,0.0540695-0.15625,0.0783081-0.2537537c0.022377-0.0973358,0.0466156-0.1961517,0.0708542-0.2970123
				c0.0223694-0.1006775,0.0447464-0.2110596,0.0633926-0.3309479h0.4381638L77.7536774,21.7949066z"/>
		</g>
		<path class="st3" d="M124.8273849,155.9343872c18.9445419-13.3376617,45.1150742-8.7920227,58.4529648,10.1531067
			c9.3459473,13.2761383,10.1924591,30.7529755,2.173111,44.8699951"/>
		<g class="st4">
			<defs>
				<rect id="SVGID_11_" x="3.0622046" y="85.327652" width="66.6236115" height="23.5040283"/>
			</defs>
			<clipPath id="SVGID_12_">
				<use xlink:href="#SVGID_11_"  style="overflow:visible;"/>
			</clipPath>
			<path class="st7" d="M16.2291927,98.8065796c2.60886,1.0346222,3.9695969,1.7110596,4.0783005,2.0330658
				c0.1126175,0.321991,0.1650105,0.5917969,0.1650105,0.801178c0,0.2615814-0.0322552,0.4750671-0.0965824,0.6439972
				c-0.0645142,0.1732178-0.1450596,0.2576752-0.2336273,0.2576752c-0.0885639,0-0.2213211-0.12883-0.3984509-0.3865051
				c-0.3059711-0.4266052-0.773037-0.9177246-1.3929939-1.4774475c-0.6199589-0.5554352-1.3486195-1.0950317-2.1900845-1.6142883
				L16.2291927,98.8065796z M12.2476616,98.4845734l1.1272984,0.9661865
				c-0.4831009,0.1771393-1.1716757,0.6279755-2.0573301,1.3527069c-0.8815527,0.7325745-1.8317204,1.3525238-2.850316,1.8678741
				l-0.1327553-0.1931763c0.841279-0.6400757,1.614316-1.3245392,2.3228397-2.0572968
				C11.365921,99.692215,11.8933992,99.0482178,12.2476616,98.4845734z M11.7162676,94.9418182v1.8680573h6.3043718v-1.8680573
				H11.7162676z M11.7162676,92.687439v1.8678589h6.3043718V92.687439H11.7162676z M12.2476616,101.8339844
				c0.5313921,0.0482941,1.0426483,0.0805511,1.5257492,0.1006775c0.4872036,0.0240631,0.7286615-0.1812286,0.7286615-0.6160278
				v-4.1224365h-2.7858047v0.4510193l-0.9300299,0.3863373c0.0482912-0.6842804,0.068428-1.6786194,0.068428-2.9910583
				c0-1.3085022-0.0201368-2.3712769-0.068428-3.1924133l0.9300299,0.4508362h1.5941792
				c0.3986378-0.8977509,0.6643353-1.6264038,0.7931738-2.1907959l1.1955414,0.5804138
				c-0.3059711,0.1771393-0.5836,0.3824158-0.8293467,0.6160431c-0.241457,0.2375336-0.499136,0.5675507-0.7648325,0.994339
				h4.1829014l0.462965-0.6441803l0.9943562,0.7730255l-0.4629631,0.3865051v3.1560669
				c0,0.4750671,0.0242386,1.0146637,0.0645142,1.6103821l-0.9261169,0.3865051v-0.7730255h-2.6569653v4.5089417
				c0.0482912,0.817215-0.3945351,1.3769531-1.3245668,1.6747131c-0.0441895-0.599823-0.6400948-1.0305176-1.7914457-1.2881927
				V101.8339844z M7.9359198,91.0125427c0-0.5554352-0.0201368-1.1746368-0.068428-1.8682404l0.9943571,0.5164795h9.0260353
				L18.8822422,88.6931l1.3929939,1.3536377H8.8618488l0.000001,5.5392609
				c0.0482912,1.465332-0.0844641,2.8180237-0.394536,4.062027c-0.309886,1.2479248-1.0829229,2.5079651-2.3228397,3.7963409
				l-0.2013702-0.1288452c0.8856554-1.2842712,1.4534063-2.4960175,1.6948633-3.6352386
				c0.2416439-1.1352997,0.342329-2.3955231,0.2979536-3.7722778L7.9359198,91.0125427z"/>
			<path class="st7" d="M22.535429,89.0809174c1.2399158,0.6040955,1.9167423,1.0571747,2.0248852,1.3560486
				c0.1137352,0.3018646,0.1659451,0.5153503,0.1659451,0.6400909c0,0.2174072-0.0764465,0.4146729-0.2293377,0.583786
				c-0.152895,0.1730194-0.2778168,0.2576752-0.3673153,0.2535706c-0.1286545,0.0041046-0.261034-0.2093811-0.3990097-0.6441956
				c-0.2162876-0.5554352-0.6600475-1.2197571-1.3275509-1.9972534L22.535429,89.0809174z M21.0784779,92.7517548
				c1.5501766,0.776947,2.322094,1.4131165,2.322094,1.9042358c0,0.4952087-0.1193295,0.8293304-0.365448,0.9984436
				c-0.2423897,0.1730194-0.4549465-0.0443726-0.6320782-0.6482849c-0.2181511-0.5554504-0.7046089-1.2398987-1.4575081-2.0612183
				L21.0784779,92.7517548z M26.4528198,91.5924072c-1.7228317,4.5572357-2.664423,7.1015472-2.8173141,7.6368561
				c-0.152895,0.5395813-0.2218819,1.1916046-0.2013721,1.9646301c0.0242405,0.7730255,0.0559368,1.3083344,0.1006851,1.6062775
				c0,0.1732178-0.1100082,0.2576752-0.3356152,0.2576752c-0.1771317,0-0.3934193-0.0402679-0.6600475-0.12883
				c-0.2647629-0.0844727-0.3971462-0.2778168-0.3971462-0.5796814c0-0.2093811,0.0671234-0.5313873,0.1957779-0.9661865
				c0.1342449-0.4267883,0.1976414-0.7689362,0.1976414-1.0307007c0-0.2977753-0.0969563-0.5313873-0.2983265-0.704422
				c-0.1957779-0.1691132-0.6272297-0.3421326-1.2915649-0.519455v-0.2574768
				c0.7974625,0.088562,1.2971573,0.1247253,1.4929352,0.1004944c0.2013683-0.0201416,0.4232502-0.2133026,0.665638-0.5796814
				c0.2405262-0.3622742,1.2716141-2.6530151,3.0839443-6.8640137L26.4528198,91.5924072z M31.3602791,99.6439362
				c0.8409081-0.9822388,1.5699387-2.1859589,2.1908302-3.6070862h-4.445055
				C29.7698307,97.6309967,30.5231018,98.8308105,31.3602791,99.6439362z M27.580862,92.3652496v3.28508h2.9180012v-3.28508
				H27.580862z M33.4168663,93.9756317l0.8632774-1.6103821h-2.9198647v3.28508h2.1255722l0.5966492-0.5796814l0.9285431,0.9016876
				l-0.6637764,0.4510193c-0.6190262,1.3364868-1.4375572,2.6006165-2.455595,3.8002472
				c1.4170475,1.2481079,2.8993549,2.0211334,4.4450588,2.3188934v0.1933594
				c-0.6600456,0.0441742-1.1485558,0.3018494-1.4580727,0.7728271c-1.3685684-0.7728271-2.5432243-1.6705933-3.5183792-2.7052155
				c-1.545702,1.4612122-3.5388889,2.4475403-5.9702454,2.9628906l-0.0652599-0.2576752
				c2.2150707-0.6842651,4.0460434-1.7792969,5.5041122-3.28508c-0.8819256-1.1110535-1.5662098-2.5079498-2.0528545-4.1867523
				h-0.3990116l-0.3990097,0.12883l-0.3971481-0.3220062c0,1.5497894-0.2871361,2.9789429-0.8614159,4.2874451
				c-0.5761414,1.312439-1.5512924,2.499939-2.9198627,3.5709229l-0.2013702-0.1933594
				c1.1951675-1.2440033,2.0136986-2.483902,2.455595-3.7318115c0.4437599-1.2440033,0.665638-2.6408997,0.665638-4.1869507
				c0-1.5458679-0.0205078-2.942749-0.0689869-4.1908569l0.9937992,0.5796661h2.8546047
				c0-1.7149658-0.0205097-2.8306885-0.065258-3.3490295l1.3946724,0.5146027l-0.4679985,0.5164795v2.3179474h2.7856178
				l0.7327614-0.7085114l1.1280479,1.0950317c-0.3952789,0.1329346-0.7364922,0.2858276-1.027359,0.4549408
				c-0.2890053,0.1732178-0.7402229,0.5998077-1.3611145,1.2842712L33.4168663,93.9756317z"/>
			<path class="st7" d="M39.7283211,94.2976227c0.8409042,0.6924896,1.4282341,1.3245544,1.7601204,1.9042358
				c0.3300247,0.5796661,0.4624062,1.2037201,0.3971481,1.868042c-0.0633926,0.6682434-0.296463,1.1593628-0.6954727,1.4815521
				c-0.3990097,0.321991-0.8427696,0.5272827-1.3294144,0.6078339c0-0.5556335-0.4624023-0.9822388-1.392807-1.2881927v-0.2576752
				c0.4437561,0.088562,0.8856544,0.1327515,1.3256874,0.12883c0.4008751,0.0039215,0.6991997-0.0684204,0.8968391-0.2214966
				c0.2013702-0.1489868,0.2535744-0.6320801,0.1659431-1.449295c-0.0894966-0.8131104-0.5761414-1.739212-1.4617958-2.7738342
				l1.327549-3.7359161H38.068882v12.8181458l-0.9285355,0.4510193c0.0484734-1.5016785,0.0671196-4.0741425,0.0671196-7.7256012
				c0-3.6473541-0.0186462-5.841507-0.0671196-6.5750122l0.9285355,0.6451263h2.5898399l0.527668-0.7085114l1.1299057,0.9660034
				c-0.3971443,0.177124-0.7849693,0.5757599-1.1634674,1.1957092
				C40.7799187,92.2526398,40.3044662,93.1421967,39.7283211,94.2976227z M46.3623428,95.9080048
				c0-1.1996307-0.0186462-2.2303314-0.0671234-3.0917358l1.5251884,0.6440125l-0.596653,0.4510193v1.932373h1.6594429
				l0.8614159-0.8375244l1.1317711,1.2238617h-3.6526299v2.8342438h2.4556007l0.9304008-0.9018707l1.1914368,1.2883759h-4.5774384
				c0,1.9806824,0.0242424,3.2850952,0.0689926,3.9290924l-0.9975281,0.4510193
				c0.0484772-1.7149811,0.0671234-3.1523285,0.0671234-4.3157806h-2.5189896
				c-0.5761414,0.0041046-1.1075363,0.0684204-1.5941772,0.1933441l-0.596653-0.5798645h4.7098198v-2.8340454h-2.5189896
				l-0.531395,0.5153503l-0.7980194-0.8375397l0.5313911-0.3220062c0.6208916-1.5419464,1.1075363-2.8743286,1.4580688-3.9935913
				h-0.3300247c-0.5724106,0.0041046-1.1038017,0.0684204-1.5904503,0.1933441l-0.6003761-0.5798645h2.6532364
				c0.3542595-1.2850189,0.5556259-2.1855774,0.6003761-2.70578l1.392807,0.7085266l-0.5313911,0.3878174l-0.5966492,1.609436
				h3.5836411l0.9266739-0.8373413l1.1951637,1.2238617h-5.7726021l-1.5904503,4.2512665H46.3623428z"/>
			<path class="st7" d="M57.9112816,96.1656799v2.5765686h2.785614v-2.5765686H57.9112816z M57.9112816,93.3314362v2.4477386
				h2.785614v-2.4477386H57.9112816z M61.5583115,93.3314362v8.6313782h2.9198608v-8.6313782H61.5583115z M54.1952591,93.3314362
				v8.6313782h2.8508759v-8.6313782H54.1952591z M57.4432831,92.944931
				c0.3542633-0.9822388,0.6003799-1.9081421,0.7290306-2.7695465h-4.2436829
				c-0.6600456,0.0037231-1.2343254,0.0682373-1.7265625,0.193161l-0.5947876-0.5791168h13.2680397l1.0627899-0.9676819
				l1.1914368,1.3536377h-8.2915916l0.9937973,0.515152l-0.6600456,0.1931763
				c-0.5313911,0.7327423-0.9751511,1.4211273-1.3294144,2.0612183h6.5016403l0.4642715-0.6440125l1.0627823,0.7728424
				l-0.4642715,0.4510345c0,3.8686676,0.0242386,7.0894165,0.0652618,9.6618958l-0.9938049,0.4508362v-1.2881927H54.1952591
				v0.9016724l-0.9993896,0.4510345c0.0484772-1.5016785,0.068985-3.4180298,0.068985-5.7609711
				c0-2.339035-0.0205078-4.1748199-0.068985-5.5113068l0.9993896,0.5151672H57.4432831z M57.9112816,99.1285706v2.8342438h2.785614
				v-2.8342438H57.9112816z"/>
		</g>
		<g class="st4">
			<defs>
				<rect id="SVGID_13_" x="100.470108" y="11.4601364" width="66.6236038" height="23.5040131"/>
			</defs>
			<clipPath id="SVGID_14_">
				<use xlink:href="#SVGID_13_"  style="overflow:visible;"/>
			</clipPath>
			<path class="st8" d="M105.1424561,28.0952911c0.7972717,0.1329346,1.3405991,0.193161,1.6266174,0.193161
				c0.2897491,0,0.4307098-0.1689301,0.4307098-0.5151672v-4.0581055h-2.387352l-0.5959091,0.12883l-0.5313873-0.5153503h3.5146484
				v-2.2543793h-1.9243927c-0.5716629,0.0041046-1.1030579,0.0684357-1.5902634,0.193161l-0.5998154-0.5796814l4.843132,0.0000153
				c0.4911194-1.1996307,0.8213272-2.2303314,0.9984589-3.0917358h-3.1201172
				c-0.5716705,0.0039063-1.1030579,0.0684204-1.5902634,0.193161l-0.599823-0.5796814h3.6515121
				c-0.0443802-0.5958862-0.3542633-1.3044128-0.9300308-2.1247864l0.1329346-0.1305237
				c0.7970886,0.4362946,1.2760925,0.77005,1.4291687,1.0031128c0.1528931,0.2367859,0.2295227,0.3986206,0.2295227,0.4791718
				c0,0.2174072-0.1329346,0.4750824-0.3986359,0.7730255h1.6586914l0.7970886-0.7730255l1.1916275,1.1595459h-2.318924
				l1.1272964,0.7085114c-0.3100662,0.1327515-0.6078339,0.4025421-0.8977737,0.8092041
				c-0.2858276,0.410553-0.6279755,0.9339294-1.0266113,1.5740204h1.7230225l0.7972717-0.7728424l1.1955414,1.1593475h-3.9172058
				v2.2543793h1.5259399l0.7970886-0.7728424l1.1957245,1.1593628h-3.5187531l0.0000076,4.5089417
				c0,0.6441956-0.4185944,1.1192627-1.2600555,1.4170227c0-0.515152-0.5515289-0.9419403-1.6586914-1.2881775V28.0952911z
				 M105.2753983,24.488205l1.2600479,0.7728424l-0.5272903,0.2576752
				c-0.9744034,1.5057678-1.9042511,2.6248474-2.7899017,3.3495941l-0.1972656-0.1288452
				C103.9508286,27.6282196,104.7037277,26.2111969,105.2753983,24.488205z M108.7939606,24.681366
				c0.8414688,0.4750824,1.3929977,0.8414459,1.6586914,1.0991364c0.2657013,0.2576599,0.3986359,0.4952087,0.3986359,0.7044067
				c0,0.177124-0.0645065,0.3825989-0.1972656,0.6160278c-0.1329346,0.2375488-0.2457428,0.3542633-0.3343048,0.3501587
				c-0.0885696,0.0041046-0.1972733-0.1890564-0.3341293-0.5796814c-0.2174072-0.5554352-0.6602325-1.2197571-1.324379-1.9967041
				L108.7939606,24.681366z M105.1424484,17.853714c0.6201477,0.3904266,1.0547714,0.7124329,1.2964172,0.970108
				c0.2414551,0.2576752,0.3622742,0.4952087,0.3622742,0.7045898c0,0.2174072-0.0764465,0.4347992-0.229332,0.6481018
				c-0.1530838,0.2174072-0.2537689,0.3220062-0.3020554,0.3180847c-0.1288452,0.0039215-0.2414627-0.1691132-0.3300247-0.5153503
				c-0.1288376-0.5112457-0.4629669-1.1755676-0.994545-1.9967041L105.1424484,17.853714z M116.1573868,21.1386108v5.9261627
				c0.0000076,0.6922913,0.0240555,1.4813538,0.0643311,2.3832092l-0.9943542,0.4508514
				c0.0482864-2.2706146,0.0684204-5.193222,0.0684204-8.7602234h-2.1257553
				c0.088562,2.7939606-0.2737122,4.7947693-1.0909424,5.9945831c-0.8172226,1.1996307-1.7793198,2.1216278-2.8864822,2.7656403
				l-0.1329422-0.1931763c0.8856506-0.728653,1.5701218-1.4856415,2.0573273-2.2827148
				c0.4870148-0.792984,0.8092041-1.6746979,0.9620972-2.6408997c0.1530762-0.9661865,0.2295227-2.1779327,0.2295227-3.639328
				c0-1.4573059-0.020134-3.1118774-0.0645142-4.9635162l0.9259338,0.579483
				c1.8600616-0.4267883,3.079834-0.8983154,3.6515045-1.4166565l1.1273041,1.1589813
				c-0.6199646,0.0039215-1.2158661,0.0482941-1.7914505,0.1327515c-0.5716705,0.088562-1.5701294,0.2375488-2.9873581,0.4469299
				v3.6715851l3.2530518,0.0000153l0.8614197-0.8373566l1.2602386,1.2236786H116.1573868z"/>
			<path class="st8" d="M119.9433289,15.2133789c1.2399139,0.6041107,1.9167404,1.0571747,2.0248871,1.3560638
				c0.1137314,0.3018646,0.1659393,0.5153503,0.1659393,0.6400757c0,0.2174072-0.0764465,0.4146729-0.229332,0.583786
				c-0.1529007,0.1730194-0.2778168,0.2576752-0.3673172,0.2535706c-0.1286545,0.0041046-0.2610321-0.2093811-0.3990097-0.6441803
				c-0.2162857-0.5554504-0.6600494-1.2197723-1.3275528-1.9972687L119.9433289,15.2133789z M118.4863739,18.8842316
				c1.5501862,0.776947,2.3220978,1.4131165,2.3220978,1.9042206c0,0.495224-0.1193237,0.8293304-0.365448,0.9984436
				c-0.2423859,0.1730347-0.4549408-0.0443726-0.6320801-0.6482849c-0.2181473-0.5554352-0.7046051-1.2398987-1.4575043-2.0612183
				L118.4863739,18.8842316z M123.8607178,17.724884c-1.7228241,4.5572357-2.6644135,7.1015472-2.8173065,7.6368408
				c-0.1528931,0.5395966-0.2218857,1.1916046-0.2013702,1.9646454c0.0242386,0.7730255,0.0559387,1.3083191,0.1006851,1.6062775
				c0,0.1732025-0.1100082,0.2576752-0.3356171,0.2576752c-0.1771317,0-0.3934174-0.0402832-0.6600494-0.1288452
				c-0.2647629-0.0844574-0.3971481-0.2778168-0.3971481-0.5796814c0-0.2093811,0.0671234-0.5313873,0.1957779-0.9661865
				c0.1342468-0.4267883,0.1976395-0.7689209,0.1976395-1.0307007c0-0.29776-0.0969543-0.5313873-0.2983246-0.7044067
				c-0.1957779-0.1691132-0.6272278-0.3421478-1.2915649-0.519455v-0.2574921
				c0.7974625,0.088562,1.2971573,0.1247406,1.4929352,0.1004944c0.2013702-0.0201416,0.4232483-0.2133026,0.6656418-0.5796661
				c0.2405243-0.3622894,1.2716141-2.6530151,3.0839386-6.8640137L123.8607178,17.724884z M128.7681885,25.7763977
				c0.8408966-0.9822235,1.569931-2.1859589,2.1908264-3.6070862h-4.4450607
				C127.1777344,23.7634735,127.9310074,24.9632874,128.7681885,25.7763977z M124.9887619,18.4977264v3.28508h2.9180069
				l-0.0000076-3.28508H124.9887619z M130.8247681,20.1080933l0.8632813-1.6103668h-2.9198761l0.0000153,3.28508h2.1255646
				l0.5966492-0.5796814l0.9285431,0.9016724l-0.6637726,0.4510345c-0.6190338,1.3364868-1.437561,2.6006165-2.4555969,3.8002472
				c1.4170532,1.2480927,2.899353,2.0211334,4.4450531,2.3188934v0.1933441
				c-0.6600342,0.0441895-1.1485596,0.3018646-1.4580688,0.7728424c-1.3685608-0.7728424-2.5432281-1.6706085-3.5183716-2.7052155
				c-1.5457077,1.4612122-3.5388947,2.4475403-5.9702454,2.9628906l-0.0652618-0.2576752
				c2.2150726-0.6842804,4.0460358-1.7793121,5.5041046-3.28508c-0.8819199-1.1110687-1.5662079-2.5079651-2.0528564-4.1867676
				h-0.3990097l-0.3990097,0.1288452l-0.3971481-0.3220062c0,1.5497742-0.2871323,2.9789276-0.861412,4.2874451
				c-0.5761414,1.3124237-1.5512924,2.499939-2.9198608,3.5709076l-0.2013702-0.1933441
				c1.1951675-1.2440033,2.0136948-2.483902,2.4555969-3.7318268c0.4437561-1.2440033,0.6656342-2.6408844,0.6656342-4.1869354
				c0-1.5458679-0.0205078-2.9427643-0.0689926-4.1908722l0.9937973,0.5796814h2.8546066
				c0-1.7149811-0.0205078-2.8307037-0.0652542-3.3490295l1.3946686,0.5146027l-0.4680023,0.5164642v2.3179626h2.7856293
				l0.7327576-0.7085114l1.1280518,1.0950317c-0.3952942,0.1329346-0.736496,0.2858276-1.0273743,0.4549408
				c-0.2890015,0.1732025-0.7402039,0.5998077-1.3610992,1.2842712L130.8247681,20.1080933z"/>
			<path class="st8" d="M137.1362152,20.4300995c0.8409119,0.6924744,1.4282379,1.3245544,1.7601318,1.9042206
				c0.3300171,0.5796814,0.4624023,1.2037354,0.3971405,1.8680573c-0.063385,0.6682434-0.296463,1.1593628-0.6954651,1.4815369
				c-0.3990173,0.3220062-0.8427734,0.527298-1.329422,0.6078339c0-0.5556183-0.4624023-0.9822235-1.392807-1.2881927v-0.2576752
				c0.4437561,0.088562,0.8856506,0.1327515,1.3256836,0.1288452c0.4008789,0.0039063,0.6992035-0.0684357,0.8968506-0.2215118
				c0.2013702-0.1489716,0.2535706-0.6320648,0.1659393-1.4492798c-0.0894928-0.8131104-0.5761414-1.739212-1.4618073-2.7738342
				l1.3275604-3.7359161h-2.653244v12.8181305l-0.9285278,0.4510345c0.0484772-1.5016785,0.0671234-4.0741425,0.0671234-7.7256012
				c-0.0000153-3.6473694-0.0186615-5.8415222-0.0671234-6.5750122l0.9285278,0.6451111h2.5898438l0.5276642-0.7085114
				l1.1299133,0.9660034c-0.3971405,0.1771393-0.7849731,0.5757599-1.1634674,1.1957245
				C138.1878204,18.3851013,137.7123718,19.2746582,137.1362152,20.4300995z M143.7702484,22.0404816
				c-0.0000153-1.1996307-0.0186615-2.2303314-0.0671234-3.0917358l1.525177,0.6440125l-0.5966492,0.4510193v1.932373h1.6594543
				l0.8614044-0.8375244l1.1317749,1.2238617h-3.6526337v2.8342438h2.4555969l0.9304047-0.9018707l1.1914368,1.2883759h-4.5774384
				c0,1.9806671,0.0242462,3.28508,0.0690002,3.9290924l-0.9975281,0.4510193
				c0.0484772-1.7149811,0.0671234-3.1523285,0.0671234-4.3157806h-2.5189972
				c-0.5761414,0.0041046-1.1075287,0.0684204-1.5941772,0.1933441l-0.5966492-0.5798645h4.7098236V22.427002l-2.5189972-0.0000153
				l-0.5313873,0.5153503l-0.7980194-0.8375244l0.5313873-0.3220062c0.6208954-1.5419464,1.1075287-2.8743286,1.4580688-3.9935913
				h-0.3300323c-0.572403,0.0040894-1.1037903,0.0684204-1.5904541,0.1933441l-0.6003723-0.5798645h2.653244
				c0.3542633-1.2850189,0.5556183-2.1855774,0.6003723-2.70578l1.392807,0.7085114l-0.5313873,0.3878326l-0.5966492,1.609436
				h3.5836334l0.9266815-0.8373413l1.1951599,1.2238617h-5.7725983l-1.5904541,4.2512665H143.7702484z"/>
			<path class="st8" d="M155.3191833,22.2981567v2.5765686h2.785614v-2.5765686H155.3191833z M155.3191833,19.463913v2.4477386
				h2.785614V19.463913H155.3191833z M158.966217,19.463913v8.6313934h2.9198608V19.463913H158.966217z M151.6031494,19.463913
				l0.0000153,8.6313782h2.8508759V19.463913H151.6031494z M154.851181,19.0774078
				c0.3542633-0.9822235,0.6003876-1.9081421,0.7290344-2.7695465h-4.2436829
				c-0.6600494,0.0037231-1.2343292,0.0682373-1.7265625,0.193161l-0.5947876-0.5791168h13.2680359l1.0627899-0.9676819
				l1.1914368,1.3536377h-8.2915955l0.9938049,0.5151672l-0.6600494,0.193161
				c-0.5313873,0.7327576-0.9751434,1.4211273-1.329422,2.0612183h6.5016479l0.4642639-0.6440125l1.0627899,0.7728424
				l-0.4642639,0.4510345c0,3.8686676,0.0242462,7.0894318,0.0652618,9.6618958l-0.9938049,0.4508362v-1.2881927h-10.2829132
				v0.9016724l-0.9993896,0.4510345c0.0484772-1.5016785,0.068985-3.4180298,0.068985-5.7609711
				c0-2.339035-0.0205078-4.1748199-0.0690002-5.5113068l0.9993896,0.5151672H154.851181z M155.3191833,25.2610626v2.8342438
				h2.785614v-2.8342438H155.3191833z"/>
		</g>
		<path class="st4" d="M190.9286499,190.2373657l-13.983963-4.1951141l2.7967987,3.4959259v1.3983765l-2.7967987,3.4959106
			L190.9286499,190.2373657z M151.0864716,189.5381775h28.6661987v1.3983765h-28.6661987
			c-0.3859558,0-0.6991882-0.3132477-0.6991882-0.6991882C150.3872833,189.8504791,150.7005157,189.5381775,151.0864716,189.5381775
			z"/>
		<g class="st4">
			<defs>
				<rect id="SVGID_15_" x="194.328598" y="188.1908722" width="62.9103088" height="23.5040226"/>
			</defs>
			<clipPath id="SVGID_16_">
				<use xlink:href="#SVGID_15_"  style="overflow:visible;"/>
			</clipPath>
			<path class="st9" d="M205.7138367,196.8110657c0.0805511-0.2923584,0.1258545-0.585083,0.1359253-0.8783722v-0.0440063
				c0-0.2483521-0.0777588-0.4629669-0.2338104-0.6439972c-0.1857147-0.2142334-0.4282837-0.3656311-0.7273407-0.4534607
				c-0.2992554-0.0878143-0.6272278-0.1318054-0.9841003-0.1321869h-1.0027161
				c-0.2561951,0.0003815-0.4094543,0.0201416-0.4597931,0.0590973c-0.0503387,0.0393524-0.1029205,0.177887-0.1582947,0.4167175
				l-0.9950867,3.8720398h1.4548798c0.3566742,0.0005493,0.7090607-0.0434418,1.0558624-0.1312561
				c0.3466187-0.0878296,0.6760712-0.2438812,0.9870758-0.4689331c0.2667999-0.1898041,0.4679871-0.4286499,0.6035309-0.7169037
				C205.5257111,197.4021149,205.6338501,197.109375,205.7138367,196.8110657z M207.4856873,202.9669342
				c-0.0550079,0.2200165-0.1377869,0.4359283-0.2485504,0.6481018c-0.1105499,0.2123718-0.246109,0.4040375-0.4070129,0.574646
				c-0.161087,0.1711578-0.3408356,0.3106232-0.5393982,0.4204407c-0.1985779,0.1098175-0.4131775,0.1646423-0.6445618,0.1646423
				c-0.7288361,0-1.2768097-0.1926117-1.6437531-0.578186c-0.2511444-0.2630768-0.3769989-0.5947723-0.3769989-0.9954681
				c0-0.2045288,0.0330048-0.4264069,0.0984344-0.6661835l0.338974-1.3101959
				c0.0402679-0.1655731,0.0604095-0.3216248,0.0604095-0.4683685c0-0.0727081-0.0050354-0.1482239-0.0151062-0.2269135
				c-0.0301971-0.2045288-0.1003113-0.3848267-0.2108765-0.5412598c-0.1107483-0.1560669-0.2526398-0.2791138-0.4260406-0.3695526
				c-0.1734009-0.0902405-0.3783112-0.1355438-0.6147308-0.13591h-1.7037811l-1.0027313,3.9012909
				c-0.0201263,0.0934143-0.0301971,0.1689301-0.0301971,0.2269135c0,0.0736542,0.0151062,0.1226807,0.0453033,0.1463623
				c0.0654449,0.0393372,0.2013702,0.0628357,0.4072113,0.0701141c0.2062073,0.0072632,0.4271545,0.0110016,0.663208,0.010437
				c0.1409454,0.0005646,0.2114258,0.0590973,0.2114258,0.1756439c0,0.0298157-0.0050354,0.0613403-0.0150909,0.0952759
				l-0.0302124,0.1170807c-0.0548096,0.1463623-0.1532593,0.2196503-0.29422,0.2196503
				c-0.6178894-0.0292816-1.2410126-0.0440063-1.8695374-0.0440063c-0.6281586,0-1.2591095,0.0147247-1.8922882,0.0440063
				c-0.1353607,0-0.2080841-0.0632172-0.2185211-0.1903687v-0.058548l0.0302124-0.1243744
				c0.0400848-0.1607056,0.1381531-0.2388306,0.2936554-0.2343597c0.2364197,0.0005646,0.4601593-0.0031738,0.6710358-0.010437
				c0.2114258-0.0072784,0.3669281-0.0330048,0.4676208-0.0773773c0.0956421-0.052948,0.1683655-0.1847839,0.2187042-0.3952789
				l2.1184387-8.2491608c0.0302124-0.1070251,0.0449371-0.1900024,0.0449371-0.2489014
				c0-0.0581818-0.0122986-0.0924988-0.0374756-0.1025543c-0.0704803-0.0434418-0.2073364-0.069931-0.4109344-0.0800018
				c-0.2036133-0.0096741-0.4258575-0.0147095-0.6674957-0.0150909c-0.1403961,0.0003815-0.2108765-0.0654449-0.2108765-0.1976471
				v-0.0585327l0.0453033-0.1243591c0.0302124-0.1459961,0.1236267-0.2192688,0.2791138-0.2196503h4.2445526
				c0.4775085,0.0003815,0.932251,0.0639496,1.3646393,0.1907501c0.4321899,0.1271515,0.8091888,0.336731,1.1308136,0.6290741
				c0.2662506,0.2345581,0.4597931,0.5224457,0.5806122,0.8636475c0.0753326,0.1856995,0.1156006,0.3788605,0.1202545,0.5783691
				c0,0.1810455-0.0274048,0.3591156-0.0827789,0.5341797c-0.0952759,0.3908081-0.2936554,0.744873-0.5957031,1.0618439
				c-0.3014984,0.3175201-0.6408386,0.5878754-1.0178375,0.8119965c-0.2612152,0.1519623-0.5261536,0.2778168-0.7950287,0.3775635
				c-0.269043,0.1001129-0.4612732,0.1623993-0.5768738,0.1860809c0.2862091,0.1126099,0.5580444,0.3320618,0.8142242,0.6587219
				c0.2164764,0.283783,0.3244324,0.6227417,0.3244324,1.0174713c0,0.0833435-0.0050354,0.1664886-0.0151062,0.2489166
				l-0.1437531,1.3174591c-0.0397034,0.3423309-0.059845,0.6397095-0.059845,0.8930969
				c0,0.1665039,0.0100708,0.3128662,0.0301971,0.4391022c0.0352478,0.2882385,0.1857147,0.432373,0.4519653,0.4320068
				c0.2414551,0.0003662,0.4624023-0.1299744,0.6637573-0.3911743c0.2013702-0.260849,0.3495941-0.5843506,0.4446869-0.9703064
				c0.0553741-0.1459808,0.1532593-0.2168274,0.29422-0.2123718h0.1202545
				c0.1359253,0.0005646,0.2086487,0.0641479,0.2187195,0.1903687V202.9669342z"/>
			<line class="st10" x1="211.8312836" y1="198.3684845" x2="222.324173" y2="198.3684845"/>
			<line class="st10" x1="211.8312836" y1="201.5165253" x2="222.324173" y2="201.5165253"/>
			<path class="st9" d="M234.1917572,202.2421875c-0.0559387,0.2250519-0.1212006,0.4739685-0.1957855,0.7471161
				c-0.0764313,0.2735291-0.177124,0.5269165-0.3020325,0.7612762c-0.124939,0.2341919-0.2834167,0.4368591-0.4754639,0.6074677
				c-0.1901703,0.1705933-0.428833,0.2558136-0.7159576,0.2558136c-0.3524017,0-0.6358032-0.0902405-0.8520813-0.2703552
				c-0.2162933-0.1802979-0.3486633-0.3660126-0.3990021-0.5569305c-0.1715393,0.210495-0.3990173,0.4008636-0.686142,0.5714722
				c-0.2871399,0.1705933-0.6190186,0.2558136-0.9956512,0.2558136c-0.3412018,0-0.6469727-0.0632172-0.9154663-0.1903687
				c-0.2684937-0.126236-0.4810486-0.3216248-0.6376648-0.5856476c-0.1510315-0.2826691-0.2237396-0.5945892-0.2181396-0.9369202
				v-0.058548c0.0093079-0.3559265,0.0540619-0.7094421,0.1361084-1.0612793
				c0.0801697-0.3363495,0.1976318-0.7068329,0.3505249-1.1121826c0.1528778-0.4047852,0.3001709-0.797821,0.4400177-1.1789246
				c0.1510162-0.4044189,0.2274628-0.7364807,0.2274628-0.9954529c0-0.2190857-0.0932159-0.3289185-0.2796783-0.3294678
				c-0.171524,0.0005493-0.3262787,0.049408-0.4642487,0.1469269c-0.1379852,0.0978851-0.2629089,0.2332458-0.3766479,0.4062653
				c-0.1118622,0.1734009-0.2144165,0.3783264-0.3057709,0.6149292c-0.0894928,0.236969-0.1659393,0.4888611-0.2256012,0.7569885
				c-0.0559387,0.1321869-0.1473083,0.2004395-0.2796783,0.2049103h-0.1734009
				c-0.1193237,0.0005646-0.1808624-0.0602264-0.1808624-0.1829071v-0.0512695
				c0.0708618-0.2681274,0.1640778-0.5420227,0.2796783-0.822998c0.1156006-0.280426,0.2610321-0.5353088,0.4362946-0.7648315
				c0.177124-0.2293396,0.3784943-0.4195099,0.6040955-0.5709076c0.2256165-0.1510315,0.4847717-0.2269135,0.77565-0.227478
				c0.251709,0.0005646,0.4661255,0.0544434,0.6451111,0.1614685c0.1790009,0.1075897,0.3151093,0.2502289,0.4083252,0.4282837
				c0.0932312,0.178421,0.1435699,0.3792419,0.1528931,0.6033478v0.0512848c0,0.210495-0.0410156,0.4273376-0.1267853,0.6514587
				c-0.1454315,0.3811035-0.290863,0.7704163-0.434433,1.167923c-0.1435699,0.3980713-0.2535706,0.7553101-0.3356018,1.0722809
				c-0.0801849,0.3175201-0.1361084,0.6318817-0.1659393,0.9438171c-0.0205078,0.0833435-0.0317078,0.1737823-0.0372925,0.2709198
				c0,0.1907349,0.0335541,0.3786774,0.0988159,0.5636292c0.0447388,0.1665039,0.1267853,0.2981415,0.2479858,0.3956604
				c0.1211853,0.0978851,0.2647552,0.1463623,0.4306946,0.1459961c0.3318787,0.0003662,0.6208801-0.0993958,0.8669891-0.2998199
				c0.2461243-0.1998749,0.4624023-0.4661255,0.6469879-0.7982025c0.0111847-0.0384064,0.0186462-0.0837097,0.0223694-0.1349792
				c0.0056-0.0512848,0.0130615-0.1038666,0.0223846-0.1577454l1.1317444-4.3625793
				c0.0466156-0.1802979,0.1379852-0.3128662,0.2759552-0.3984528c0.13797-0.0852051,0.2778015-0.1280975,0.4176483-0.1286469
				c0.1454315,0.0005493,0.2666168,0.0443726,0.3617096,0.1318207c0.0652618,0.0641327,0.0988159,0.1491547,0.0988159,0.2561798
				c0,0.0540771-0.0055847,0.110199-0.0149078,0.1683655l-1.1317596,4.3625793
				c-0.0801697,0.3027954-0.1211853,0.5712891-0.1211853,0.8050995c0,0.0641327,0.0055847,0.1321869,0.0149078,0.2049103
				c0.0261078,0.2347412,0.1435699,0.3518372,0.3561249,0.3514709c0.2106934,0.0003662,0.3934021-0.1799316,0.5462952-0.541275
				c0.1528931-0.3609772,0.302063-0.8248596,0.4474792-1.3911133c0.0298462-0.1264191,0.1156006-0.1899872,0.257309-0.1903687
				h0.1734009c0.0559235,0.0003815,0.1100006,0.0173492,0.1659393,0.0512848
				c0.0205078,0.0443726,0.0298309,0.0809021,0.0298309,0.1096191
				C234.2141266,202.1890564,234.206665,202.2134857,234.1917572,202.2421875z"/>
			<path class="st9" d="M242.7964478,195.1786804l-4.1298828,8.0444336h8.2541809L242.7964478,195.1786804z
				 M249.0071259,204.1600342c0.0167694,0.034668,0.0242462,0.0661926,0.0242462,0.0950928
				c0,0.0393372-0.0112,0.0686035-0.0317078,0.0878143c-0.0298309,0.058548-0.0876312,0.0878143-0.1734009,0.0878143H237.670929
				c-0.0801849,0-0.13797-0.0292664-0.1734009-0.0878143c-0.0186462-0.0192108-0.0298462-0.0484772-0.0298462-0.0878143
				c0-0.0289001,0.0074768-0.0604248,0.0223846-0.0950928l5.3436737-10.4159088
				c0.0671082-0.1409607,0.1827087-0.2095795,0.3468018-0.2049103h0.1361084
				c0.1566162,0.0003662,0.2722168,0.0661926,0.3467865,0.1974487L249.0071259,204.1600342z"/>
			<path class="st9" d="M254.4029999,198.2310791c-0.0540619,0.1467285-0.1528931,0.2200012-0.2945862,0.219635h-1.4002533
				l-1.1168365,4.3258514c-0.0894928,0.3128662-0.1342316,0.5860138-0.1342316,0.8198242
				c0,0.0639496,0.0037231,0.1249237,0.0149078,0.1829071c0.0242462,0.2347412,0.1417084,0.3518372,0.3542633,0.3514709
				c0.1901703,0.0003662,0.3710327-0.0518494,0.542572-0.1569977c0.171524-0.1047821,0.3318787-0.2451935,0.4810333-0.4208221
				c0.1510315-0.175827,0.2871399-0.3829651,0.4083252-0.6221924c0.1212006-0.2388306,0.2312012-0.4905396,0.3318939-0.7543793
				c0.0149078-0.0581665,0.0466003-0.1006775,0.0969543-0.1277161c0.0503387-0.026474,0.0988159-0.0402679,0.1435547-0.0406494
				h0.188324c0.0652466,0.0003815,0.1174622,0.02742,0.1584778,0.0805511
				c0.0149231,0.034668,0.0223694,0.0661926,0.0223694,0.0950928v0.0440063
				c-0.1044006,0.2880554-0.2367859,0.5725861-0.3952637,0.8531952c-0.158493,0.2807922-0.341217,0.5332489-0.5463104,0.7575531
				c-0.206955,0.2244873-0.434433,0.4098206-0.6824036,0.5558014c-0.2498474,0.1463776-0.5239258,0.2196503-0.8259735,0.2196503
				c-0.2610321,0-0.4866333-0.0499725-0.6786804-0.1501007c-0.1901855-0.0997467-0.3430786-0.2384796-0.4586792-0.4167175
				c-0.1156006-0.1780548-0.1845856-0.3820343-0.2050934-0.6117401c-0.0093231-0.0581818-0.0149078-0.1217651-0.0149078-0.1903687
				c0-0.1655731,0.0205078-0.3339386,0.0615234-0.5049133l1.1075134-4.2893066h-1.4170227
				c-0.1249237,0.0003662-0.1939087-0.0654449-0.2032318-0.1976318v-0.0585632l0.044754-0.1245422
				c0.0503387-0.1459961,0.1435547-0.2190857,0.2796631-0.219635h1.4394073l0.6171417-2.4007568
				c0.0466156-0.1802979,0.13797-0.3143463,0.2759552-0.4021606c0.13797-0.0878296,0.2778015-0.1318359,0.4176483-0.1322021
				c0.1454315,0.0003662,0.2666168,0.0466156,0.3617096,0.1390991c0.0652618,0.0639496,0.0988159,0.151947,0.0988159,0.2634583
				c0,0.0540619-0.0056,0.1079407-0.0149078,0.161087l-0.611557,2.3714752h1.3871918
				c0.1305237,0.0005493,0.1957703,0.0663757,0.1957703,0.1976318v0.0512695L254.4029999,198.2310791z"/>
		</g>
		<g class="st4">
			<defs>
				<rect id="SVGID_17_" x="140.7262268" y="214.0102844" width="43.00737" height="23.5040264"/>
			</defs>
			<clipPath id="SVGID_18_">
				<use xlink:href="#SVGID_17_"  style="overflow:visible;"/>
			</clipPath>
			<path class="st11" d="M147.9867249,224.0504913c-0.0548248,0.1467438-0.1532745,0.2200165-0.29422,0.2196503h-1.4021301
				l-1.1157379,4.3258514c-0.0902557,0.3128662-0.1355591,0.5860138-0.1355591,0.8198242
				c0,0.0639496,0.0050354,0.1249237,0.0151062,0.1829071c0.025177,0.2347412,0.1431885,0.3518372,0.3540802,0.3514557
				c0.1912994,0.0003815,0.3719635-0.0518341,0.5431366-0.1569824c0.1709747-0.1047974,0.3316956-0.2451935,0.4825439-0.4208221
				c0.1510162-0.175827,0.2863922-0.3829803,0.4072113-0.6221924c0.1208191-0.2388458,0.2310181-0.4905548,0.3313293-0.7543793
				c0.0154724-0.0581818,0.0479126-0.1006927,0.0982513-0.1277161c0.050354-0.026474,0.0979004-0.0402832,0.1432037-0.0406494
				h0.1885071c0.0654449,0.0003662,0.1180267,0.0274048,0.1582947,0.0805511
				c0.0151062,0.034668,0.0223694,0.0661774,0.0223694,0.0950775v0.0440063
				c-0.1051483,0.2880707-0.2373505,0.5725861-0.3956451,0.8532104c-0.1583099,0.2807922-0.3404694,0.5332489-0.5463104,0.7575378
				c-0.2058411,0.2244873-0.4336853,0.4098206-0.6826019,0.5558167c-0.2487335,0.1463623-0.5237579,0.219635-0.8256226,0.219635
				c-0.2612152,0-0.4873962-0.0499573-0.6784973-0.1500854c-0.1907501-0.0997467-0.3440094-0.2384796-0.4598083-0.4167175
				c-0.1152191-0.1780701-0.1834564-0.3820496-0.203598-0.6117554c-0.0100708-0.0581665-0.0151062-0.1217499-0.0151062-0.1903687
				c0-0.1655579,0.0201416-0.3339233,0.0604095-0.5048981l1.1080933-4.2893066h-1.4174194
				c-0.1252899,0.0003662-0.1935425-0.0654449-0.2034149-0.1976471v-0.058548l0.0451202-0.1245422
				c0.0503387-0.1459961,0.1437531-0.2190857,0.2791138-0.219635h1.4398041l0.618454-2.4007568
				c0.0453186-0.1802979,0.1368561-0.3143463,0.2750244-0.4021759c0.1381531-0.0878143,0.2776337-0.1318207,0.4185791-0.1321869
				c0.145813,0.0003662,0.2666321,0.0466156,0.3617249,0.1390991c0.0654449,0.0639496,0.0978851,0.151947,0.0978851,0.263443
				c0,0.0540771-0.0050354,0.1079559-0.0149078,0.1611023l-0.6108246,2.3714752h1.3875885
				c0.1307068,0.0005493,0.1957703,0.0663757,0.1957703,0.1976318v0.0512695L147.9867249,224.0504913z"/>
			<path class="st11" d="M155.700119,225.6856689c0,2.0653229,0.0242462,3.3977051,0.0645142,3.9936066l-0.9945374,0.5153503
				V228.90625h-2.7214813v1.3526917l-0.9943542,0.5153503c0.0482941-1.3687286,0.0684204-3.4299469,0.0684204-6.1795502
				c0-2.7456818-0.0201416-4.5290833-0.0684204-5.3504028l1.0629578,0.5153656h2.5201111l0.5314026-0.6441956l1.0627747,0.8373566
				l-0.5313873,0.4510193V225.6856689z M152.0486145,224.3974762v4.1224365h2.7214813v-4.1224365H152.0486145z
				 M152.0486145,220.1462097v3.8647614h2.7214813l-0.0000153-3.8647614H152.0486145z M157.2258606,223.5601349
				c1.1515503,0.7769318,1.8238983,1.3163452,2.0250854,1.6142883c0.2008057,0.3018646,0.29776,0.5354919,0.29776,0.7044067
				c0,0.2174072-0.0969543,0.4670715-0.29776,0.744873c-0.2011871,0.2817383-0.3462524,0.4185944-0.4348145,0.4146729
				c-0.1288452,0.0039215-0.2615967-0.2535706-0.3984528-0.7730255c-0.2174072-0.7689209-0.6844635-1.6062775-1.3929901-2.5120544
				L157.2258606,223.5601349z M161.5381622,221.5632324c0-1.6707764-0.0205078-3.066925-0.0652618-4.1875l1.6594391,0.8371582
				l-0.6637726,0.4512177v2.8991241h0.9938049l0.8614044-0.8373413l1.2604218,1.2238617h-3.1156311v8.6313782
				c0,0.817215-0.4884949,1.3968964-1.461792,1.7390289c-0.0410156-0.6439972-0.7737732-1.1151581-2.1906433-1.4170227v-0.3220062
				c1.1949768,0.177124,1.9482574,0.2414551,2.2577667,0.1972656c0.3113708-0.0402679,0.4642639-0.3020477,0.4642639-0.7771301
				v-8.0515137h-3.4506989c-0.5716553,0.0039215-1.1030579,0.0684204-1.5902557,0.193161l-0.599823-0.5796814H161.5381622z"/>
			<path class="st11" d="M179.454483,219.9528656c0-0.9822235-0.0205078-1.8201447-0.068985-2.5118713l1.3946686,0.5798645
				l-0.4642639,0.4512024v11.9802399c0.044754,1.0305176-0.3990021,1.7188873-1.3275452,2.0612183
				c-0.0894928-0.728653-0.7942963-1.1796875-2.1218414-1.3527069v-0.3221893
				c0.9304047,0.0887451,1.6053619,0.1208191,2.0248871,0.0967712c0.4176483-0.0201416,0.6078339-0.3302155,0.5630798-0.9341278
				V219.9528656z M177.4613037,220.9190521v5.6039734c0,0.6481018,0.024231,1.2481079,0.068985,1.8035431l-0.9937897,0.4508362
				c0.0428772-1.3284607,0.063385-2.8301392,0.063385-4.5048523c0-1.6746979-0.0205078-3.1562347-0.0634003-4.4485321
				l1.5251923,0.5798645L177.4613037,220.9190521z M169.5034637,217.5696411l0.1957703-0.1286469
				c1.1970367,0.7327423,1.7918243,1.2715912,1.7918243,1.6141052c0,0.3462372-0.0876465,0.6039124-0.2647705,0.7730255
				c-0.177124,0.1730194-0.3095093,0.2576752-0.3990173,0.2535706c-0.177124,0.0041046-0.3095093-0.2093811-0.3990021-0.6439972
				C170.2996216,218.8412323,169.990097,218.2184906,169.5034637,217.5696411z M174.3456573,225.87883
				c-0.7476807,0.9059753-1.456192,1.6989441-2.1255646,2.3834076c1.5494232,0.905777,2.3343964,1.5619049,2.3586426,1.9685516
				c0.024231,0.4105682-0.0428925,0.7046051-0.2013702,0.8977661c-0.1529083,0.1933441-0.2778168,0.2899323-0.3654633,0.2899323
				c-0.177124,0-0.3300171-0.2134857-0.4624023-0.6441956c-0.2181396-0.5958862-0.7495422-1.3486023-1.5904388-2.2543793
				c-1.5941772,1.5497894-3.6526337,2.7697296-6.1716156,3.6714172l-0.068985-0.2576752
				c2.1703186-1.0708008,3.8521271-2.1859589,5.0435638-3.3453064c1.1970367-1.1595459,2.2355804-2.5122528,3.1175079-4.062027
				l1.2641449,1.1593475L174.3456573,225.87883z M170.7620239,221.4989166
				c-1.1914368,1.292099-2.0565796,2.1497803-2.5879822,2.5763702l3.5183868-0.0643158
				c0.4885101-0.8133087,0.8427582-1.5218201,1.0590515-2.1257324l1.392807,1.0307007l-0.7290344,0.193161
				c-1.1914368,1.7231903-2.4071045,3.0555725-3.6470337,3.9976959c-1.2399139,0.9460602-2.5432129,1.6747131-3.9173737,2.1859589
				l-0.1323853-0.193161c1.0627747-0.5556183,2.0938721-1.2398987,3.0876617-2.0572968
				c0.9993896-0.8131256,1.871994-1.7189026,2.6215363-2.7093201c-0.6656342,0.0482788-1.3163605,0.112793-1.9577637,0.1972656
				c-0.6395264,0.088562-1.2268524,0.2778015-1.758255,0.5757599l-0.6003723-1.0950317
				c0.5313873-0.1249237,1.0627747-0.5313873,1.5941772-1.2199554c0.5313873-0.6842651,0.9303894-1.3726501,1.1951599-2.0651245
				h-1.8589478c-0.572403,0.0040894-1.1037903,0.0684204-1.5904388,0.193161l-0.6003876-0.5796814h7.6334076l0.8614197-0.8373566
				l1.2604218,1.223877h-5.1778107l0.9304047,0.6441803L170.7620239,221.4989166z"/>
		</g>
	</g>
</g>
</svg>
