<?xml version="1.0" encoding="utf-8"?><svg id="Layer_1" xmlns="http://www.w3.org/2000/svg" x="0" y="0" viewBox="0 0 234.96 235.92" xml:space="preserve" enable-background="new 0 0 234.96 235.92" xmlns:xlink="http://www.w3.org/1999/xlink"><style>.st1{clip-path:url(#SVGID_4_)}.st2{fill:none;stroke:#0000f0;stroke-width:1.5982906;stroke-linecap:round;stroke-linejoin:round;stroke-miterlimit:10}.st2,.st3,.st4,.st5{clip-path:url(#SVGID_6_)}.st4,.st5{fill:none;stroke:#000;stroke-width:1.5982906;stroke-linecap:round;stroke-linejoin:round;stroke-miterlimit:10}.st5{stroke-width:.7991453}.st6{clip-path:url(#SVGID_8_)}.st6,.st7,.st8{fill-rule:evenodd;clip-rule:evenodd}.st7{clip-path:url(#SVGID_10_)}.st8{clip-path:url(#SVGID_12_)}</style><defs><path d="M0 0h234.96v235.92H0z" id="reuse-0"/></defs><clipPath id="SVGID_2_"><use overflow="visible" href="#reuse-0"/></clipPath><defs><use id="SVGID_3_" href="#reuse-0"/></defs><clipPath id="SVGID_4_"><use overflow="visible" href="#SVGID_3_"/></clipPath><g class="st1"><defs><path id="SVGID_5_" d="M0 0h234.75v235.75H0z"/></defs><clipPath id="SVGID_6_"><use overflow="visible" href="#SVGID_5_"/></clipPath><path class="st2" d="M55.576 76.005c23.33 12.528 32.086 41.598 19.557 64.927a47.95 47.95 0 0 1-17.785 18.556"/><path class="st2" d="M66.919 54.883c34.995 18.793 48.129 62.398 29.335 97.392a71.9 71.9 0 0 1-26.677 27.833"/><path class="st2" d="M78.261 33.762c46.66 25.058 64.173 83.196 39.115 129.856a95.9 95.9 0 0 1-35.57 37.111"/><path class="st2" d="M43.79 97.125c11.663 6.265 16.042 20.8 9.777 32.465a24 24 0 0 1-8.891 9.277"/><path class="st3" d="m125.68 118.246-15.984-4.795 3.197 3.996v1.598l-3.197 3.996zm-117.208-.799h104.434v1.598H8.472a.799.799 0 1 1 0-1.598"/><path class="st4" d="M128.79 13.03v95.33"/><path class="st4" d="M128.79 126.76v95.35"/><path class="st4" d="M134.93 13.97v86.47"/><path class="st4" d="M134.93 135.02v87.09"/><use class="st5" href="#reuse-1"/><use class="st5" href="#reuse-1"/><use class="st5" href="#reuse-2"/><use class="st5" href="#reuse-2"/><use class="st5" href="#reuse-3"/><use class="st5" href="#reuse-3"/><use class="st5" href="#reuse-4"/><use class="st5" href="#reuse-4"/><use class="st5" href="#reuse-5"/><use class="st5" href="#reuse-5"/><use class="st5" href="#reuse-6"/><use class="st5" href="#reuse-6"/><use class="st5" href="#reuse-7"/><use class="st5" href="#reuse-7"/><path class="st3" d="m145.24 107.873 2.398-7.991-1.998 1.598h-.8l-1.997-1.598zm.4-15.458v9.072h-.8v-9.072a.4.4 0 0 1 .8 0"/><path class="st5" d="M137.16 108.36h16.16"/><path class="st5" d="M137.16 126.44h16.16"/><path class="st3" d="m145.24 126.861-2.397 7.991 1.998-1.598h.799l1.998 1.598zm-.4 15.36v-8.973h.8v8.972a.399.399 0 1 1-.8 0"/><g class="st3"><defs><path id="SVGID_7_" d="M153.83 97.33h17.65v33.58h-17.65z"/></defs><clipPath id="SVGID_8_"><use overflow="visible" href="#SVGID_7_"/></clipPath><path class="st6" d="M164.399 113.524a6 6 0 0 1-.075-.391 3 3 0 0 0-.098-.404 2.2 2.2 0 0 0-.49-.82q-.316-.33-.802-.33-.452.001-.894.325a3.7 3.7 0 0 0-.808.836 5.6 5.6 0 0 0-.775 1.501q-.258.78-.474 1.626a23 23 0 0 0-.356 1.62 3.6 3.6 0 0 0-.086.754q.001.377.086.732.098.492.35.81.254.32.705.319.496 0 .997-.344a5 5 0 0 0 .932-.848q.172-.208.328-.402.158-.194.275-.414zm3.08 3.849q-.128.513-.29 1.098t-.431 1.088a3.1 3.1 0 0 1-.679.868q-.408.365-1.023.365-.818.001-1.309-.454-.49-.455-.565-.926-.367.42-1.093.9-.728.48-1.535.48-.851 0-1.428-.428a3 3 0 0 1-.899-1.078 3.9 3.9 0 0 1-.41-1.662v-.157q.001-.825.227-1.652a9.6 9.6 0 0 1 .722-1.799 6.8 6.8 0 0 1 1.228-1.652q.625-.627 1.427-1.056a3.4 3.4 0 0 1 1.631-.43q.723.002 1.174.383.452.382.572.632l-.044.178a.9.9 0 0 1 .361-.585q.286-.198.577-.2.333.001.56.2a.64.64 0 0 1 .15.418q0 .095-.021.209l-1.551 6.044a6 6 0 0 0-.151.805q-.021.189-.021.345 0 .138.02.293.034.252.152.377.118.126.334.125.225 0 .425-.188.2-.187.367-.559.166-.371.317-.889t.312-1.125q.065-.27.367-.272h.248q.28.001.28.23z"/></g><path class="st2" d="M134.931 78.29c22.069 0 39.958 17.89 39.958 39.956 0 22.068-17.89 39.957-39.957 39.957"/><path class="st2" d="M134.932 54.315c35.309 0 63.932 28.623 63.932 63.931s-28.622 63.932-63.93 63.932"/><path class="st2" d="M134.931 30.342c48.55-.001 87.907 39.356 87.907 87.904s-39.357 87.906-87.906 87.906"/><g class="st3"><defs><path id="SVGID_9_" d="M102.38.34h22.21v33.58h-22.21z"/></defs><clipPath id="SVGID_10_"><use overflow="visible" href="#SVGID_9_"/></clipPath><path class="st7" d="m116.013 11.226-3.834 6.568h4.287zm4.513 12.027q-.118.315-.409.314a37 37 0 0 0-2.143-.063h-.356q-1.26.021-2.53.063-.292 0-.313-.272v-.084l.043-.177q.085-.345.42-.335.399 0 .71-.026a1.5 1.5 0 0 0 .604-.183.5.5 0 0 0 .183-.147.5.5 0 0 0 .053-.167v-.063l-.258-3.472h-4.868l-1.713 2.929a.96.96 0 0 0-.14.46q0 .178.107.324.238.345.884.345.291 0 .312.25a.5.5 0 0 1-.022.137l-.042.167q-.12.315-.42.314-.99-.042-1.961-.063h-.29q-.84 0-1.702.063-.162 0-.238-.105a.2.2 0 0 1-.064-.146q0-.061.021-.126l.043-.156q.087-.345.42-.335.345 0 .679-.073t.625-.261.539-.455.441-.602l7.604-13.02q.195-.291.496-.282h.205q.345 0 .388.324l.947 13.626q.022.273.065.414t.151.203q.15.096.5.11.352.016.792.016.302 0 .302.25a.5.5 0 0 1-.021.137z"/></g><g class="st3"><defs><path id="SVGID_11_" d="M101.99 200.23h22.99v33.58h-22.99z"/></defs><clipPath id="SVGID_12_"><use overflow="visible" href="#SVGID_11_"/></clipPath><path class="st8" d="M117.364 219.394q.15-.532.15-1.056v-.22a2.6 2.6 0 0 0-.312-1.077 1.96 1.96 0 0 0-.641-.695 1.7 1.7 0 0 0-.942-.267h-3.867l-1.498 5.856a2.5 2.5 0 0 0-.086.513q0 .084.011.094.023.031.56.042h2.876q.593 0 1.196-.256.603-.255 1.11-.675a4.4 4.4 0 0 0 1.443-2.259m1.324-7.079a3.4 3.4 0 0 0 .108-.837v-.252a2.1 2.1 0 0 0-.302-.929q-.226-.387-.597-.607a1.7 1.7 0 0 0-.868-.22h-2.843q-.57.001-.657.073-.13.105-.248.607l-1.335 5.25h2.94q.614 0 1.218-.24.603-.24 1.152-.681 1.142-.92 1.432-2.164m2.176.04a3.5 3.5 0 0 1-.727 1.414q-.543.659-1.255 1.118-.56.377-1.147.597t-.415.187q-.03-.01.566.268.6.277 1.05.757.507.514.69 1.234.086.357.096.7 0 .4-.118.827a4.3 4.3 0 0 1-.754 1.538 5.9 5.9 0 0 1-1.314 1.275 6.2 6.2 0 0 1-1.718.884 5.8 5.8 0 0 1-1.815.298h-7.712q-.162 0-.237-.094a.22.22 0 0 1-.075-.157q0-.062.021-.126l.043-.157q.064-.344.42-.334.507 0 .948-.015t.668-.111q.194-.104.302-.564l3.026-11.787q.065-.228.065-.355t-.054-.145q-.15-.093-.587-.115-.436-.02-.954-.022-.16 0-.236-.104a.21.21 0 0 1-.065-.158q0-.06.032-.115l.033-.156a.4.4 0 0 1 .156-.236.47.47 0 0 1 .264-.09h7.141q.884.004 1.67.263.786.261 1.303.826.507.515.71 1.192.087.347.087.7 0 .378-.108.764"/></g></g></svg>