<svg xmlns="http://www.w3.org/2000/svg" xmlns:xlink="http://www.w3.org/1999/xlink" xml:space="preserve" id="svg__github_work__Layer_1" x="0" y="0" viewBox="0 0 234.96 235.92"><style>.st2{fill:none;stroke:#0000f0;stroke-width:1.5982906;stroke-linecap:round;stroke-linejoin:round;stroke-miterlimit:10}.st2,.st3,.st4,.st5{clip-path:url(#svg__github_work__SVGID_6_)}.st4,.st5{fill:none;stroke:#000;stroke-width:1.5982906;stroke-linecap:round;stroke-linejoin:round;stroke-miterlimit:10}.st5{stroke-width:.7991453}</style><defs><rect id="svg__github_work__SVGID_1_" width="234.96" height="235.92" x="0"/></defs><clipPath id="svg__github_work__SVGID_2_"><use xlink:href="#svg__github_work__SVGID_1_" overflow="visible"/></clipPath><defs><rect id="svg__github_work__SVGID_3_" width="234.96" height="235.92" y="0"/></defs><clipPath id="svg__github_work__SVGID_4_"><use xlink:href="#svg__github_work__SVGID_3_" overflow="visible"/></clipPath><g clip-path="url(#svg__github_work__SVGID_4_)"><defs><rect id="svg__github_work__SVGID_5_" width="234.7493" height="235.7469" y="0.002"/></defs><clipPath id="svg__github_work__SVGID_6_"><use xlink:href="#svg__github_work__SVGID_5_" overflow="visible"/></clipPath><path d="M55.576 76.0046c23.3298 12.5285 32.0863 41.598 19.5567 64.9277a47.946 47.946 0 0 1-17.7847 18.556" class="st2"/><path d="M66.9186 54.8828c34.9952 18.7937 48.129 62.398 29.3351 97.392a71.91 71.91 0 0 1-26.6766 27.8335" class="st2"/><path d="M78.2611 33.762c46.6607 25.0579 64.1727 83.196 39.1146 129.8563a95.905 95.905 0 0 1-35.5695 37.1111" class="st2"/><path d="M43.789 97.1254c11.6644 6.2642 16.0427 20.799 9.7785 32.4644a23.98 23.98 0 0 1-8.892 9.2775" class="st2"/><path d="m125.6794 118.2462-15.983-4.7948 3.1966 3.9957v1.5982l-3.1966 3.9958zm-117.2079-.7991h104.4343v1.5982H8.4715a.7985.7985 0 0 1-.7991-.799.799.799 0 0 1 .7991-.7992z" class="st3"/><line x1="128.7876" x2="128.7876" y1="13.0312" y2="108.3624" class="st4"/><line x1="128.7876" x2="128.7876" y1="126.7597" y2="222.1102" class="st4"/><line x1="134.9314" x2="134.9314" y1="13.972" y2="100.4403" class="st4"/><line x1="134.9314" x2="134.9314" y1="135.0229" y2="222.1102" class="st4"/><line x1="128.7876" x2="134.9314" y1="108.3624" y2="100.4403" class="st4"/><line x1="128.7876" x2="134.9314" y1="100.3358" y2="92.4147" class="st5"/><line x1="128.7876" x2="134.9314" y1="92.1505" y2="84.2283" class="st5"/><line x1="128.7876" x2="134.9314" y1="84.6716" y2="76.7494" class="st5"/><line x1="128.7876" x2="134.9314" y1="84.6716" y2="76.7494" class="st5"/><line x1="128.7876" x2="134.9314" y1="76.4852" y2="68.563" class="st5"/><line x1="128.7876" x2="134.9314" y1="69.0063" y2="61.0841" class="st5"/><line x1="128.7876" x2="134.9314" y1="69.0063" y2="61.0841" class="st5"/><line x1="128.7876" x2="134.9314" y1="60.8199" y2="52.8977" class="st5"/><line x1="128.7876" x2="134.9314" y1="53.341" y2="45.4188" class="st5"/><line x1="128.7876" x2="134.9314" y1="53.341" y2="45.4188" class="st5"/><line x1="128.7876" x2="134.9314" y1="45.1545" y2="37.2324" class="st5"/><line x1="128.7876" x2="134.9314" y1="37.6756" y2="29.7535" class="st5"/><line x1="128.7876" x2="134.9325" y1="37.5584" y2="29.6373" class="st5"/><line x1="128.7876" x2="134.9325" y1="29.3731" y2="21.4509" class="st5"/><line x1="128.7876" x2="134.9325" y1="21.8931" y2="13.972" class="st5"/><line x1="128.7876" x2="134.9325" y1="126.438" y2="135.0229" class="st4"/><line x1="128.7876" x2="134.9314" y1="135.2647" y2="143.8497" class="st5"/><line x1="128.7876" x2="134.9314" y1="143.855" y2="152.441" class="st5"/><line x1="128.7876" x2="134.9314" y1="143.855" y2="152.441" class="st5"/><line x1="128.7876" x2="134.9314" y1="152.6828" y2="161.2678" class="st5"/><line x1="128.7876" x2="134.9314" y1="161.2731" y2="169.858" class="st5"/><line x1="128.7876" x2="134.9325" y1="161.2731" y2="169.858" class="st5"/><line x1="128.7876" x2="134.9314" y1="170.0999" y2="178.6848" class="st5"/><line x1="128.7876" x2="134.9314" y1="178.6901" y2="187.275" class="st5"/><line x1="128.7876" x2="134.9314" y1="178.6901" y2="187.275" class="st5"/><line x1="128.7876" x2="134.9314" y1="187.5169" y2="196.1018" class="st5"/><line x1="128.7876" x2="134.9314" y1="196.1082" y2="204.6931" class="st5"/><line x1="128.7876" x2="134.9325" y1="196.1082" y2="204.6931" class="st5"/><line x1="128.7876" x2="134.9325" y1="204.9339" y2="213.5189" class="st5"/><line x1="128.7876" x2="134.9325" y1="213.5253" y2="222.1102" class="st5"/><path d="m145.2404 107.8734 2.3975-7.9915-1.9979 1.5983h-.7991l-1.998-1.5983zm.3996-15.4587v9.0719h-.7991v-9.0719c0-.2205.179-.3995.3995-.3995s.3996.179.3996.3995z" class="st3"/><line x1="137.1616" x2="153.3193" y1="108.3624" y2="108.3624" class="st5"/><line x1="137.1616" x2="153.3193" y1="126.438" y2="126.438" class="st5"/><path d="m145.2404 126.861-2.3974 7.9914 1.9979-1.5983h.7991l1.9979 1.5983zm-.3995 15.3595v-8.9728h.7991v8.9728a.399.399 0 0 1-.3996.3995.399.399 0 0 1-.3995-.3995z" class="st3"/><g class="st3"><defs><rect id="svg__github_work__SVGID_7_" width="17.6529" height="33.5808" x="153.8254" y="97.3281"/></defs><clipPath id="svg__github_work__SVGID_8_"><use xlink:href="#svg__github_work__SVGID_7_" overflow="visible"/></clipPath><path fill-rule="evenodd" d="M164.3988 113.5244a6 6 0 0 1-.075-.3915 2.7 2.7 0 0 0-.0974-.4034c-.1144-.3267-.2779-.6005-.4895-.8202-.2118-.2195-.48-.3295-.8028-.3301-.3013.0006-.5992.1093-.894.325q-.4412.3242-.8078.8357c-.3446.4819-.6027.9824-.7753 1.5013a24 24 0 0 0-.4743 1.6256 23 23 0 0 0-.3557 1.6209q-.0856.398-.0857.7528.0002.3774.0857.732c.0654.3282.1817.5989.3503.8113.1686.213.404.3188.7052.3182.3307.0006.6627-.1142.9969-.3444q.501-.345.9313-.8477.1726-.2079.3288-.4019a2.6 2.6 0 0 0 .2744-.4139zm3.0804 3.8482a45 45 0 0 1-.29 1.0987c-.1078.3909-.2517.753-.4315 1.0877-.179.3346-.4051.6242-.6784.868-.2725.2438-.6137.3652-1.0235.3652-.5451 0-.9818-.1508-1.3085-.4543-.3268-.3032-.515-.6116-.5653-.9261-.2444.2798-.6086.5798-1.0935.9001-.4843.3203-.9962.4803-1.5347.4803q-.851.0001-1.4274-.428c-.3844-.2856-.6837-.6451-.8993-1.0777q-.3876-.7727-.4092-1.6629v-.1568c0-.5503.0757-1.1007.2261-1.6522q.2588-.909.7216-1.7982.4637-.888 1.2281-1.6528.6254-.6264 1.4274-1.0555.802-.4286 1.6313-.4294.722.0009 1.174.3823c.302.2549.492.4652.5711.632l-.043.1778c.0503-.2577.1705-.4524.3608-.585q.2862-.1983.5764-.1994.3336.0008.56.1988.1405.1575.1505.4183 0 .0951-.0215.209l-1.551 6.0445c-.072.2862-.1223.555-.151.8051a3.2 3.2 0 0 0-.021.3452c0 .0915.0073.1889.021.2928q.0332.2519.151.377c.079.0838.19.1255.334.1249q.2263.0008.4255-.1875.1999-.1881.3665-.5594c.111-.2472.217-.5439.3178-.8889a47 47 0 0 0 .3118-1.125c.043-.1802.1653-.2712.3665-.2719h.2478c.187.0007.2796.0772.2796.2302z" clip-path="url(#svg__github_work__SVGID_8_)" clip-rule="evenodd"/></g><path d="M134.9314 78.2891c22.0682 0 39.9574 17.8901 39.9574 39.9571 0 22.068-17.8892 39.9571-39.9563 39.9571" class="st2"/><path d="M134.9325 54.3148c35.3085 0 63.9319 28.6232 63.9319 63.9314s-28.6223 63.9314-63.9309 63.9314" class="st2"/><path d="M134.9314 30.3416c48.5488-.001 87.9064 39.3562 87.9064 87.9046s-39.3565 87.9056-87.9053 87.9056" class="st2"/><g class="st3"><defs><rect id="svg__github_work__SVGID_9_" width="22.2101" height="33.5808" x="102.3762" y="0.3432"/></defs><clipPath id="svg__github_work__SVGID_10_"><use xlink:href="#svg__github_work__SVGID_9_" overflow="visible"/></clipPath><path fill-rule="evenodd" d="m116.0134 11.2263-3.8349 6.5679h4.2871zm4.513 12.0267q-.1178.3138-.4092.3137a37 37 0 0 0-2.1436-.0626h-.3557a165 165 0 0 0-2.5307.0626c-.1935 0-.298-.0901-.3124-.272v-.0834l.043-.1778q.0863-.3443.4197-.3348.3992.0011.7111-.0253c.2084-.017.4098-.0784.6033-.1837a.51.51 0 0 0 .183-.1464.48.48 0 0 0 .0536-.1673v-.0629l-.2581-3.4718h-4.8689l-1.7123 2.9282q-.1404.2522-.1406.46c0 .119.036.2275.1078.3242.1583.2308.453.3457.8831.345q.2912.001.3124.251a.48.48 0 0 1-.0215.136l-.0426.1673q-.1184.3138-.4203.3137-.99-.0411-1.9608-.0627h-.29q-.8403 0-1.702.0627c-.108 0-.187-.0345-.2373-.1044q-.0648-.0622-.0648-.1464a.39.39 0 0 1 .0216-.1255l.0432-.1569c.0576-.2295.198-.3412.4203-.3348a3.1 3.1 0 0 0 .6783-.0724 1.87 1.87 0 0 0 .6248-.2615q.2914-.1881.5388-.455.2478-.2665.4417-.6018l7.6041-13.0204q.1942-.2908.496-.2813h.2045c.2302 0 .3589.1087.3877.324l.9477 13.626q.0216.2727.0647.4138c.0288.094.079.162.1511.2031q.1508.0951.5006.1106c.234.0105.4974.0156.7915.015q.302.001.302.251a.48.48 0 0 1-.0216.136z" clip-path="url(#svg__github_work__SVGID_10_)" clip-rule="evenodd"/></g><g class="st3"><defs><rect id="svg__github_work__SVGID_11_" width="22.9854" height="33.5808" x="101.9894" y="200.228"/></defs><clipPath id="svg__github_work__SVGID_12_"><use xlink:href="#svg__github_work__SVGID_11_" overflow="visible"/></clipPath><path fill-rule="evenodd" d="M117.3636 219.394q.151-.5323.151-1.056v-.2198c-.0289-.3893-.1326-.7488-.3125-1.077-.1581-.285-.3719-.517-.6412-.6947-.2692-.1778-.5829-.2668-.9424-.2675h-3.8668l-1.4972 5.8563q-.0864.3567-.0863.5123.0001.0844.011.0942.0219.0322.5603.0418h2.8756c.395.0006.7936-.0842 1.1955-.2556a4.44 4.44 0 0 0 1.1099-.675c.3738-.3131.6804-.6647.9208-1.0556.2406-.3902.4151-.7914.5223-1.2034zm1.3249-7.0788a3.35 3.35 0 0 0 .1078-.8375v-.2515a2.134 2.134 0 0 0-.302-.9291q-.2256-.3868-.5975-.6073c-.2476-.145-.5366-.2195-.8673-.2195h-2.8437c-.3804 0-.5994.0255-.6568.0724q-.1293.1055-.2478.6074l-1.3353 5.2493h2.9406c.4092.0007.815-.079 1.217-.24.4026-.16.7862-.387 1.1523-.6804q1.1423-.9196 1.4327-2.1638zm2.1758.0405c-.1217.5031-.3642.9736-.727 1.413a5.46 5.46 0 0 1-1.2549 1.1182c-.3731.2517-.7554.4503-1.1469.5967s-.53.2093-.4151.1877c-.021-.0066.1673.083.566.2673a3.38 3.38 0 0 1 1.0497.7576q.5071.5135.6896 1.2338c.0576.238.0902.4714.0968.7007 0 .2653-.0392.5413-.1185.8262-.136.5372-.3874 1.0502-.7535 1.5378-.366.4884-.8045.9131-1.3145 1.2752q-.8077.5861-1.7176.8844c-.6065.1986-1.2117.2972-1.8156.2972h-7.7118q-.1619 0-.2372-.094c-.0497-.0483-.0753-.1008-.0753-.1568a.39.39 0 0 1 .0218-.1255l.043-.1569q.0646-.3443.4196-.3347.5071.0008.9483-.015c.2941-.0104.517-.047.6675-.1106q.194-.1038.302-.5645l3.0267-11.786c.043-.1535.0641-.2707.0641-.356 0-.083-.0177-.132-.0537-.1449q-.1507-.0927-.5869-.115a22 22 0 0 0-.9536-.0213c-.1072 0-.1863-.0341-.2366-.1045-.0432-.0426-.0647-.0937-.0647-.1577 0-.0405.011-.0788.0321-.115l.0326-.1556q.0325-.147.1562-.2365.1236-.0864.264-.0895h7.1412q.8834.0031 1.6692.262c.5243.1748.959.4497 1.3034.827.338.343.5752.7394.7111 1.1911.0576.2323.0863.4646.0863.7012 0 .2514-.036.505-.1078.7629z" clip-path="url(#svg__github_work__SVGID_12_)" clip-rule="evenodd"/></g></g></svg>