<?xml version="1.0" encoding="utf-8"?>
<!-- Generator: Adobe Illustrator 19.0.0, SVG Export Plug-In . SVG Version: 6.00 Build 0)  -->
<svg version="1.1" id="Layer_1" xmlns="http://www.w3.org/2000/svg" xmlns:xlink="http://www.w3.org/1999/xlink" x="0px" y="0px"
	 viewBox="0 0 234.9600067 235.9199982" style="enable-background:new 0 0 234.9600067 235.9199982;" xml:space="preserve">
<style type="text/css">
	.st0{clip-path:url(#SVGID_2_);}
	.st1{clip-path:url(#SVGID_4_);}
	
		.st2{clip-path:url(#SVGID_6_);fill:none;stroke:#0000F0;stroke-width:1.5982906;stroke-linecap:round;stroke-linejoin:round;stroke-miterlimit:10;}
	.st3{clip-path:url(#SVGID_6_);}
	
		.st4{clip-path:url(#SVGID_6_);fill:none;stroke:#000000;stroke-width:1.5982906;stroke-linecap:round;stroke-linejoin:round;stroke-miterlimit:10;}
	
		.st5{clip-path:url(#SVGID_6_);fill:none;stroke:#000000;stroke-width:0.7991453;stroke-linecap:round;stroke-linejoin:round;stroke-miterlimit:10;}
	.st6{clip-path:url(#SVGID_8_);fill-rule:evenodd;clip-rule:evenodd;}
	.st7{clip-path:url(#SVGID_10_);fill-rule:evenodd;clip-rule:evenodd;}
	.st8{clip-path:url(#SVGID_12_);fill-rule:evenodd;clip-rule:evenodd;}
</style>
<g>
	<defs>
		<rect id="SVGID_1_" x="0.0000035" width="234.9600067" height="235.9199982"/>
	</defs>
	<clipPath id="SVGID_2_">
		<use xlink:href="#SVGID_1_"  style="overflow:visible;"/>
	</clipPath>
	<g class="st0">
	</g>
</g>
<g>
	<defs>
		<rect id="SVGID_3_" y="-0.0000153" width="234.9600067" height="235.9199982"/>
	</defs>
	<clipPath id="SVGID_4_">
		<use xlink:href="#SVGID_3_"  style="overflow:visible;"/>
	</clipPath>
	<g class="st1">
		<defs>
			<rect id="SVGID_5_" y="0.0019531" width="234.7493439" height="235.7469177"/>
		</defs>
		<clipPath id="SVGID_6_">
			<use xlink:href="#SVGID_5_"  style="overflow:visible;"/>
		</clipPath>
		<path class="st2" d="M55.575985,76.0046234c23.3298073,12.5284271,32.0863457,41.5980072,19.5567589,64.9276276
			c-4.1289368,7.6888123-10.2781219,14.1043396-17.7847824,18.5560913"/>
		<path class="st2" d="M66.9185638,54.8827667c34.9952469,18.7936859,48.1289749,62.3980865,29.335144,97.391983
			c-6.1928711,11.5332184-15.4171753,21.1570129-26.676651,27.8335876"/>
		<path class="st2" d="M78.2611389,33.7619781c46.6606903,25.0578918,64.1726837,83.196022,39.1145859,129.8563232
			c-8.2589188,15.3765564-20.556221,28.2075806-35.5695572,37.1110992"/>
		<path class="st2" d="M43.7890739,97.1254272c11.6643715,6.2642059,16.0426407,20.798996,9.7783813,32.4643402
			c-2.0649986,3.8444061-5.1390572,7.0516205-8.891861,9.2775116"/>
		<path class="st3" d="M125.6794205,118.2462082l-15.9829712-4.7948532l3.1965942,3.9957123v1.5982819l-3.1965942,3.9957123
			L125.6794205,118.2462082z M8.4715061,117.4470673h104.4343262v1.5982819H8.4715061
			c-0.4414492,0-0.7991481-0.3569412-0.7991481-0.7991409C7.672358,117.8050842,8.030057,117.4470673,8.4715061,117.4470673z"/>
		<line class="st4" x1="128.7875824" y1="13.0311737" x2="128.7875824" y2="108.3624191"/>
		<line class="st4" x1="128.7875824" y1="126.7597427" x2="128.7875824" y2="222.1101685"/>
		<line class="st4" x1="134.931427" y1="13.9720306" x2="134.931427" y2="100.4402618"/>
		<line class="st4" x1="134.931427" y1="135.0228577" x2="134.931427" y2="222.1101685"/>
		<line class="st4" x1="128.7875824" y1="108.3624191" x2="134.931427" y2="100.4402618"/>
		<line class="st5" x1="128.7875824" y1="100.3358459" x2="134.931427" y2="92.4147491"/>
		<line class="st5" x1="128.7875824" y1="92.1504822" x2="134.931427" y2="84.2283325"/>
		<line class="st5" x1="128.7875824" y1="84.6715851" x2="134.931427" y2="76.7494354"/>
		<line class="st5" x1="128.7875824" y1="84.6715851" x2="134.931427" y2="76.7494354"/>
		<line class="st5" x1="128.7875824" y1="76.4851837" x2="134.931427" y2="68.5630035"/>
		<line class="st5" x1="128.7875824" y1="69.0062714" x2="134.931427" y2="61.0841064"/>
		<line class="st5" x1="128.7875824" y1="69.0062714" x2="134.931427" y2="61.0841064"/>
		<line class="st5" x1="128.7875824" y1="60.81987" x2="134.931427" y2="52.8977051"/>
		<line class="st5" x1="128.7875824" y1="53.3409576" x2="134.931427" y2="45.4187927"/>
		<line class="st5" x1="128.7875824" y1="53.3409576" x2="134.931427" y2="45.4187927"/>
		<line class="st5" x1="128.7875824" y1="45.154541" x2="134.931427" y2="37.2323914"/>
		<line class="st5" x1="128.7875824" y1="37.6756287" x2="134.931427" y2="29.753479"/>
		<line class="st5" x1="128.7875824" y1="37.5584259" x2="134.9324799" y2="29.6373291"/>
		<line class="st5" x1="128.7875824" y1="29.3730927" x2="134.9324799" y2="21.4509277"/>
		<line class="st5" x1="128.7875824" y1="21.8931122" x2="134.9324799" y2="13.9720306"/>
		<line class="st4" x1="128.7875824" y1="126.4379501" x2="134.9324799" y2="135.0228577"/>
		<line class="st5" x1="128.7875824" y1="135.26474" x2="134.931427" y2="143.8496704"/>
		<line class="st5" x1="128.7875824" y1="143.8549805" x2="134.931427" y2="152.440979"/>
		<line class="st5" x1="128.7875824" y1="143.8549805" x2="134.931427" y2="152.440979"/>
		<line class="st5" x1="128.7875824" y1="152.6828308" x2="134.931427" y2="161.2677612"/>
		<line class="st5" x1="128.7875824" y1="161.2730865" x2="134.931427" y2="169.8580017"/>
		<line class="st5" x1="128.7875824" y1="161.2730865" x2="134.9324799" y2="169.8580017"/>
		<line class="st5" x1="128.7875824" y1="170.099884" x2="134.931427" y2="178.6847992"/>
		<line class="st5" x1="128.7875824" y1="178.6901245" x2="134.931427" y2="187.2750397"/>
		<line class="st5" x1="128.7875824" y1="178.6901245" x2="134.931427" y2="187.2750397"/>
		<line class="st5" x1="128.7875824" y1="187.5169067" x2="134.931427" y2="196.1018372"/>
		<line class="st5" x1="128.7875824" y1="196.1082153" x2="134.931427" y2="204.6931458"/>
		<line class="st5" x1="128.7875824" y1="196.1082153" x2="134.9324799" y2="204.6931458"/>
		<line class="st5" x1="128.7875824" y1="204.9339447" x2="134.9324799" y2="213.5188599"/>
		<line class="st5" x1="128.7875824" y1="213.5252533" x2="134.9324799" y2="222.1101685"/>
		<path class="st3" d="M145.2404327,107.8733521l2.3974457-7.9914246l-1.9978638,1.5982819h-0.7991486l-1.997879-1.5982819
			L145.2404327,107.8733521z M145.6400146,92.4147491v9.0718536h-0.7991486v-9.0718536
			c0-0.2205658,0.1790161-0.3995667,0.3995667-0.3995667C145.4610138,92.0151825,145.6400146,92.1941833,145.6400146,92.4147491z"/>
		<line class="st5" x1="137.1615906" y1="108.3624191" x2="153.3193054" y2="108.3624191"/>
		<line class="st5" x1="137.1615906" y1="126.4379501" x2="153.3193054" y2="126.4379501"/>
		<path class="st3" d="M145.2404327,126.8609695l-2.3974457,7.9914169l1.997879-1.5982819h0.7991486l1.9978638,1.5982819
			L145.2404327,126.8609695z M144.8408661,142.2204742v-8.9727631h0.7991486v8.9727631
			c0,0.2216339-0.1790009,0.3995667-0.3995819,0.3995667C145.0198822,142.6200409,144.8408661,142.4421082,144.8408661,142.2204742z
			"/>
		<g class="st3">
			<defs>
				<rect id="SVGID_7_" x="153.8254089" y="97.3281097" width="17.6529388" height="33.58078"/>
			</defs>
			<clipPath id="SVGID_8_">
				<use xlink:href="#SVGID_7_"  style="overflow:visible;"/>
			</clipPath>
			<path class="st6" d="M164.3988037,113.5243607c-0.0285492-0.1248779-0.0534821-0.2555084-0.0750122-0.3914719
				c-0.0215149-0.1359558-0.0543365-0.2699966-0.0973816-0.4033966c-0.1144409-0.3266907-0.2778931-0.6005249-0.489502-0.8202362
				c-0.2118225-0.2194977-0.4799194-0.3294601-0.8027649-0.3300934c-0.3013306,0.0006332-0.5992584,0.109314-0.8939819,0.3249741
				c-0.2942963,0.216301-0.563446,0.4946136-0.8078766,0.8357925c-0.3445892,0.4818268-0.6026611,0.9824066-0.7752686,1.5013123
				c-0.1724091,0.5197601-0.3307343,1.06147-0.4743652,1.6255493c-0.1432037,0.5581207-0.2614899,1.0987625-0.3556824,1.6208649
				c-0.0568848,0.2653122-0.0856628,0.5163498-0.0856628,0.7528915c0,0.2516785,0.0287781,0.4954681,0.0856628,0.7320099
				c0.0654297,0.3281784,0.181778,0.5988235,0.3503571,0.8112869c0.1685638,0.2128906,0.4040375,0.3188019,0.7051544,0.318161
				c0.3307343,0.0006409,0.6627655-0.1142273,0.9969025-0.3443756c0.3339386-0.2301483,0.6444244-0.5125122,0.9312744-0.8477249
				c0.1150665-0.1385193,0.224823-0.2725601,0.3288116-0.4019089c0.1046295-0.1287155,0.1960602-0.2668076,0.2744751-0.4138489
				L164.3988037,113.5243607z M167.4792328,117.3725815c-0.0854492,0.3426666-0.1822052,0.7085648-0.2900238,1.0987549
				c-0.1078339,0.390831-0.2516785,0.7528992-0.4315491,1.0876846c-0.1790009,0.3345642-0.4051056,0.624176-0.6783142,0.8679657
				c-0.2725525,0.2437897-0.613739,0.3652573-1.0235291,0.3652573c-0.5451202,0-0.981781-0.1508789-1.3084717-0.4543381
				c-0.326889-0.3032455-0.5150757-0.6116028-0.5653534-0.9261475c-0.2444305,0.279808-0.6086273,0.5798569-1.0934448,0.9001541
				c-0.4843903,0.3202896-0.9962616,0.4803314-1.5347748,0.4803314c-0.5672913,0-1.0431519-0.1425629-1.4273834-0.4281235
				c-0.3844299-0.2855606-0.6836395-0.6450653-0.899292-1.0776596c-0.2582855-0.5150757-0.3948822-1.0693512-0.4091644-1.6628494
				v-0.1568375c0-0.5502396,0.0756531-1.1006775,0.2261047-1.6521912c0.1726074-0.6060638,0.4129944-1.2053146,0.7215729-1.7981644
				c0.3092041-0.5920029,0.7183685-1.1430817,1.2281189-1.652832c0.417038-0.4176788,0.8926849-0.7693024,1.4273682-1.0554962
				c0.5346832-0.2857666,1.0785217-0.4287643,1.6313171-0.4293976c0.4811859,0.0006332,0.8726654,0.128067,1.173996,0.3823013
				c0.3019714,0.2548752,0.4920502,0.4652023,0.5711212,0.6320648l-0.043045,0.1777267
				c0.050293-0.2576447,0.1704712-0.4524155,0.3607788-0.5849686c0.1907349-0.1321182,0.3829498-0.198822,0.5764465-0.1994629
				c0.2222748,0.0006409,0.4091644,0.0667038,0.5600433,0.198822c0.0935516,0.1050644,0.1438446,0.2444305,0.1504517,0.4183273
				c0,0.0632935-0.0072479,0.1331863-0.0215302,0.209053l-1.5509644,6.0444565
				c-0.0720367,0.2861938-0.1223297,0.5549164-0.1510925,0.8050995c-0.0136414,0.1261597-0.0208893,0.2412338-0.0208893,0.3452301
				c0,0.091423,0.0072479,0.1888123,0.0208893,0.2928009c0.0221558,0.1679306,0.0726624,0.2934418,0.1510925,0.3769836
				c0.0790558,0.0837479,0.1900787,0.1255188,0.3339233,0.1248779c0.1508789,0.0006409,0.2928162-0.0620117,0.4255829-0.1875305
				c0.1331787-0.1255188,0.2555084-0.3117676,0.3665314-0.5593948c0.1110229-0.2472,0.2169495-0.5438385,0.317749-0.888855
				c0.1005707-0.3452301,0.2045746-0.7196503,0.3117676-1.1249695c0.043045-0.1802902,0.1653595-0.2712784,0.3665314-0.2719193
				h0.2478485c0.1868896,0.0006409,0.2795868,0.0771408,0.2795868,0.2301483V117.3725815z"/>
		</g>
		<path class="st2" d="M134.931427,78.2891083c22.0682068,0,39.9574127,17.8901215,39.9574127,39.9570999
			c0,22.0680466-17.8892059,39.9570999-39.9563599,39.9570999"/>
		<path class="st2" d="M134.9324799,54.3148346c35.3085175,0,63.9318848,28.6231537,63.9318848,63.9313736
			s-28.6222992,63.9313736-63.9308167,63.9313736"/>
		<path class="st2" d="M134.931427,30.3416443c48.5487976-0.0010681,87.9063416,39.3561554,87.9063416,87.9045639
			s-39.3564758,87.905632-87.9052887,87.905632"/>
		<g class="st3">
			<defs>
				<rect id="SVGID_9_" x="102.376236" y="0.3431549" width="22.2100525" height="33.5807953"/>
			</defs>
			<clipPath id="SVGID_10_">
				<use xlink:href="#SVGID_9_"  style="overflow:visible;"/>
			</clipPath>
			<path class="st7" d="M116.0134048,11.2263336l-3.8348618,6.5678406h4.2870789L116.0134048,11.2263336z M120.5263824,23.2530212
				c-0.0784225,0.2092743-0.2150192,0.3136902-0.4091644,0.3136902c-0.7175293-0.0417633-1.432724-0.0626526-2.1436462-0.0626526
				h-0.3556747c-0.839859,0.0142822-1.6837616,0.0353699-2.5306549,0.0626526c-0.1934967,0-0.2981339-0.0901489-0.3124161-0.2719269
				v-0.0835266l0.0430527-0.1777344c0.0575333-0.2295074,0.1973343-0.3411713,0.4196091-0.3347778
				c0.2659531,0.0006409,0.5033569-0.0076752,0.7111359-0.0253601c0.2084198-0.0170441,0.4098053-0.0784302,0.6033096-0.1837006
				c0.0718155-0.0340881,0.133194-0.0831146,0.1830597-0.1463928c0.0287704-0.0549927,0.0468826-0.1110382,0.0534897-0.1672974
				v-0.0628662l-0.2580795-3.4718781h-4.8688583l-1.7123184,2.9282532c-0.0935593,0.167923-0.1406555,0.3215637-0.1406555,0.460083
				c0,0.1189117,0.0360184,0.2273865,0.1078339,0.3241272c0.1583405,0.2308044,0.4530716,0.3456573,0.8831177,0.3450165
				c0.1941452,0.0006409,0.2981415,0.0843964,0.3124161,0.2510376c0,0.0424194-0.0072479,0.0875854-0.0215225,0.1359711
				l-0.0426254,0.1672821c-0.0790558,0.209259-0.2188568,0.3136902-0.4202423,0.3136902
				c-0.659996-0.0272827-1.3135986-0.0483856-1.9608002-0.0626678h-0.2900391c-0.5602646,0-1.1275558,0.0208893-1.702095,0.0626526
				c-0.1078262,0-0.1868896-0.0345154-0.2371826-0.1044159c-0.0432663-0.0413361-0.0647888-0.0903625-0.0647888-0.1464081
				c0-0.0413361,0.0072479-0.0830994,0.0215225-0.1255188l0.0432663-0.1568298
				c0.0575333-0.2295227,0.1979752-0.3411865,0.4202423-0.3347931c0.2299423,0.0006409,0.4562683-0.0234375,0.6783218-0.0724487
				c0.222908-0.0483856,0.4315414-0.1359711,0.6248322-0.2614746c0.1941376-0.1255188,0.3740005-0.2770386,0.5387344-0.4549866
				c0.1653748-0.1777191,0.3124161-0.3782501,0.4417725-0.6017914L116.74543,8.2876434
				c0.1293564-0.193924,0.2947235-0.2876892,0.495903-0.2812958h0.2045822c0.2301559,0,0.3588715,0.1086884,0.3876419,0.3239136
				l0.9476929,13.6260376c0.0144882,0.181778,0.0360107,0.3196564,0.0647812,0.4138336
				c0.0287704,0.0939789,0.0790634,0.161972,0.1511002,0.2030945c0.1005859,0.0635071,0.2672272,0.1001587,0.5005798,0.1105957
				c0.2339935,0.0104523,0.4973984,0.015564,0.7914886,0.0149231c0.2013855,0.0006409,0.3019714,0.0843964,0.3019714,0.2510376
				c0,0.0424042-0.0072479,0.0875854-0.0215225,0.1359558L120.5263824,23.2530212z"/>
		</g>
		<g class="st3">
			<defs>
				<rect id="SVGID_11_" x="101.9894485" y="200.2279816" width="22.9853973" height="33.5807877"/>
			</defs>
			<clipPath id="SVGID_12_">
				<use xlink:href="#SVGID_11_"  style="overflow:visible;"/>
			</clipPath>
			<path class="st8" d="M117.3636322,219.394043c0.1005859-0.3548126,0.1508789-0.707077,0.1508789-1.0561371v-0.2197113
				c-0.0287704-0.3893433-0.1325531-0.7488403-0.3124084-1.0770264c-0.1581268-0.2849121-0.3718719-0.516983-0.6412354-0.6947174
				c-0.2691498-0.1777191-0.58284-0.2667999-0.9423447-0.2674408h-3.8667755l-1.497261,5.8562927
				c-0.0575409,0.2378235-0.0863113,0.4085083-0.0863113,0.5122986c0,0.0562592,0.0038376,0.0875854,0.0110855,0.0941925
				c0.0144882,0.0215149,0.2013779,0.0353699,0.5602493,0.0417633h2.8756256
				c0.3948822,0.0006409,0.793602-0.0841827,1.1955109-0.2555084c0.4025574-0.1704865,0.7725067-0.3953094,1.109848-0.6751099
				c0.3737869-0.3130493,0.6804428-0.6646729,0.9208221-1.0554962
				C117.0819092,220.2072449,117.2564392,219.8059692,117.3636322,219.394043z M118.6884995,212.3151855
				c0.0718155-0.2791748,0.1078262-0.5583344,0.1078262-0.8374939v-0.2514648
				c-0.0287628-0.3324432-0.1295624-0.6435699-0.3019638-0.9291382c-0.1504517-0.257843-0.3497086-0.4602966-0.5975418-0.6073303
				c-0.2476273-0.1449127-0.5365982-0.2194977-0.8673401-0.2194977h-2.8436584
				c-0.3803864,0-0.5994644,0.0255585-0.6567841,0.0724487c-0.0863113,0.0703278-0.1687775,0.2727814-0.2478409,0.6073456
				l-1.3353119,5.2493744h2.9406281c0.4091568,0.0006256,0.8149033-0.079071,1.2170334-0.2399597
				c0.4025574-0.1600342,0.7861404-0.3869934,1.1522522-0.6804352
				C118.0172195,213.8659363,118.4950027,213.144577,118.6884995,212.3151855z M120.8642883,212.3556671
				c-0.1216736,0.5031433-0.3641891,0.9736786-0.7268982,1.4130859c-0.3627014,0.439209-0.7810211,0.8123474-1.2549591,1.1181641
				c-0.3731537,0.2516632-0.7554626,0.4502869-1.1469345,0.5966797c-0.3914719,0.1464081-0.5299911,0.2092743-0.415123,0.1877441
				c-0.0208893-0.0066071,0.1672821,0.082901,0.5660019,0.2672272c0.3987198,0.1849823,0.7484207,0.4372864,1.0497513,0.7575836
				c0.3379822,0.342453,0.5679245,0.75354,0.6896057,1.2338715c0.0575409,0.2380371,0.0901413,0.4713898,0.0967484,0.7006836
				c0,0.2653198-0.0392075,0.5412903-0.1184845,0.8262024c-0.1359634,0.5372314-0.3874207,1.0501709-0.7535324,1.5377502
				c-0.3659058,0.4884338-0.8044739,0.913147-1.3144302,1.2752075c-0.5385132,0.3908386-1.1111221,0.6855621-1.7176132,0.8843842
				c-0.6064987,0.1986084-1.2117157,0.2972717-1.8156509,0.2972717h-7.7118073
				c-0.1078339,0-0.1868973-0.0313263-0.2371902-0.0939789c-0.0496521-0.0483704-0.0752258-0.1007996-0.0752258-0.1568451
				c0-0.0413361,0.0072479-0.0830994,0.0217361-0.1255188l0.0430527-0.1568451
				c0.043045-0.2295074,0.1830521-0.3411713,0.4196014-0.3347778c0.3379822,0.0006409,0.6542282-0.0044708,0.9483109-0.0149231
				c0.2940826-0.010437,0.5169907-0.0470886,0.6674423-0.1105957c0.1293564-0.0692596,0.2299423-0.257431,0.3019714-0.5645142
				l3.0267105-11.786087c0.043045-0.1534424,0.0641403-0.2706451,0.0641403-0.3558807
				c0-0.0831146-0.0176849-0.1321259-0.0536957-0.1449127c-0.1005859-0.0617981-0.2960052-0.1001587-0.5868912-0.1150818
				c-0.2908859-0.0127869-0.6084137-0.0213013-0.9536438-0.0213013c-0.107193,0-0.1862488-0.0341034-0.2365417-0.1044312
				c-0.0432587-0.0426178-0.0647888-0.0937653-0.0647888-0.1576843c0-0.0404968,0.0110855-0.0788574,0.0321808-0.1150818
				l0.032608-0.1555634c0.0215225-0.0980225,0.0737305-0.1768799,0.1562042-0.2365417
				c0.0822601-0.0575409,0.1704788-0.0873718,0.2640381-0.0895081h7.1411133
				c0.5890198,0.0021362,1.1452255,0.0895081,1.6692429,0.2621155c0.5242386,0.1747437,0.9589691,0.449646,1.3033447,0.8268433
				c0.3379822,0.3430939,0.5751724,0.7394714,0.7111359,1.1912384c0.0575333,0.2322845,0.0863037,0.4645691,0.0863037,0.7011108
				C120.9721222,211.844223,120.9361115,212.0978241,120.8642883,212.3556671z"/>
		</g>
	</g>
</g>
</svg>
