<svg xmlns:xlink="http://www.w3.org/1999/xlink" viewBox="0 0 568.1 311.8"><path d="M0 311.8h568.1V0H0z" style="fill:#fff"/><path d="M65.6 204.6h490.3V16H65.6z" style="fill:#f0f5e5"/><path d="M65.6 204.6V16" clip-path="url(#a)" style="fill:none;stroke:#fff;stroke-opacity:.7;stroke-width:.8;stroke-linecap:square"/><defs><path id="b" d="M0 0v3.5" style="stroke:#000;stroke-width:.8"/></defs><use xlink:href="#b" x="65.6" y="204.6" style="stroke:#000;stroke-width:.8"/><g transform="matrix(.14 0 0 -.14 62.074 221.26)"><defs><path id="c" d="M225 2537q25 663 187 1050 163 388 463 638t737 250q438 0 763-363 325-362 425-912t62-1263q-37-712-250-1162-212-450-637-625t-850 37Q700 400 525 750t-250 737q-75 388-50 1050m525 150q-75-687 50-1225 125-537 412-762 288-225 588-88 300 138 437 550 138 413 138 900 0 488-38 888-37 400-225 725-187 325-500 337-312 13-550-312-237-325-312-1013" transform="scale(.01563)"/></defs><use xlink:href="#c"/></g><path d="M103.7 204.6V16" clip-path="url(#a)" style="fill:none;stroke:#fff;stroke-opacity:.7;stroke-width:.8;stroke-linecap:square"/><use xlink:href="#b" x="103.7" y="204.6" style="stroke:#000;stroke-width:.8"/><g transform="matrix(.14 0 0 -.14 100.213 221.26)"><defs><path id="d" d="M850 150q450 1900 1575 3775H275v450h2675v-425Q1775 2050 1400 150z" transform="scale(.01563)"/></defs><use xlink:href="#d"/></g><path d="M141.9 204.6V16" clip-path="url(#a)" style="fill:none;stroke:#fff;stroke-opacity:.7;stroke-width:.8;stroke-linecap:square"/><use xlink:href="#b" x="141.9" y="204.6" style="stroke:#000;stroke-width:.8"/><g transform="matrix(.14 0 0 -.14 134.852 221.26)"><defs><path id="e" d="M1400 3600q-325-325-825-625v475q625 425 1025 1000h300V150h-500z" transform="scale(.01563)"/><path id="f" d="M2000 1100H75v425l2025 2925h375V1525h600v-425h-600V150h-475zm0 425v1975L600 1525z" transform="scale(.01563)"/></defs><use xlink:href="#e"/><use xlink:href="#f" transform="translate(50)"/></g><path d="M180 204.6V16" clip-path="url(#a)" style="fill:none;stroke:#fff;stroke-opacity:.7;stroke-width:.8;stroke-linecap:square"/><use xlink:href="#b" x="180" y="204.6" style="stroke:#000;stroke-width:.8"/><g transform="matrix(.14 0 0 -.14 172.99 221.26)"><defs><path id="g" d="M300 250q25 375 350 675t825 937q500 638 650 988t112 600q-37 250-237 412-200 163-463 138-262-25-500-200-237-175-362-525l-475 75q200 575 512 837 313 263 738 288 250 25 450-13 200-37 412-175 213-137 350-412 138-275 100-663-37-387-387-925-350-537-1350-1687h1800V150H300z" transform="scale(.01563)"/></defs><use xlink:href="#g"/><use xlink:href="#e" transform="translate(50)"/></g><path d="M218.1 204.6V16" clip-path="url(#a)" style="fill:none;stroke:#fff;stroke-opacity:.7;stroke-width:.8;stroke-linecap:square"/><use xlink:href="#b" x="218.1" y="204.6" style="stroke:#000;stroke-width:.8"/><g transform="matrix(.14 0 0 -.14 211.13 221.26)"><defs><path id="h" d="M175 1375q0 300 150 587 150 288 500 463-300 175-400 387-100 213-113 488-12 275 75 475 88 200 263 375t387 237q213 63 463 63t450-50 425-213q225-162 325-462t-13-700q-112-400-587-625 425-125 600-388 175-262 175-637t-113-600q-112-225-250-375-137-150-375-238-237-87-600-87-362 0-625 87-262 88-437 263T237 837q-62 238-62 538m512 25q-12-300 100-525 113-225 413-288 300-62 625 13t450 350 87 550q-37 275-312 462-275 188-600 163t-538-225q-212-200-225-500m88 1950q0-250 175-475t550-225 562 225q188 225 175 537-12 313-225 463-212 150-575 125-362-25-512-213-150-187-150-437" transform="scale(.01563)"/></defs><use xlink:href="#g"/><use xlink:href="#h" transform="translate(50)"/></g><path d="M256.3 204.6V16" clip-path="url(#a)" style="fill:none;stroke:#fff;stroke-opacity:.7;stroke-width:.8;stroke-linecap:square"/><use xlink:href="#b" x="256.3" y="204.6" style="stroke:#000;stroke-width:.8"/><g transform="matrix(.14 0 0 -.14 249.268 221.26)"><defs><path id="i" d="m250 1225 450 75q100-325 325-538 225-212 562-200 338 13 538 275 200 263 175 600-25 338-263 525-237 188-762 263v325q525 50 762 275 238 225 213 587-25 363-325 525-300 163-638 38-337-125-537-700l-450 75q150 450 412 750 263 300 713 350t787-113q338-162 475-500 138-337 38-737t-575-700q350-150 537-450 188-300 125-788-62-487-437-787T1525 87q-475 13-825 300-350 288-450 838" transform="scale(.01563)"/><path id="j" d="M550 1325q175-675 600-750t687 87q263 163 375 425 113 263 100 588-12 325-175 550-162 225-412 300t-563 0q-312-75-512-350l-425 50q50 150 475 2150h1975v-450H1075q-125-675-250-1075 375 175 700 162 325-12 625-150 300-137 437-375 138-237 200-475 63-237 50-512-12-275-112-563-100-287-300-475-200-187-488-300-287-112-662-87T562 350q-337 250-462 850z" transform="scale(.01563)"/></defs><use xlink:href="#i"/><use xlink:href="#j" transform="translate(50)"/></g><path d="M294.4 204.6V16" clip-path="url(#a)" style="fill:none;stroke:#fff;stroke-opacity:.7;stroke-width:.8;stroke-linecap:square"/><use xlink:href="#b" x="294.4" y="204.6" style="stroke:#000;stroke-width:.8"/><g transform="matrix(.14 0 0 -.14 287.407 221.26)"><use xlink:href="#f"/><use xlink:href="#g" transform="translate(50)"/></g><path d="M332.5 204.6V16" clip-path="url(#a)" style="fill:none;stroke:#fff;stroke-opacity:.7;stroke-width:.8;stroke-linecap:square"/><use xlink:href="#b" x="332.5" y="204.6" style="stroke:#000;stroke-width:.8"/><g transform="matrix(.14 0 0 -.14 325.545 221.26)"><defs><path id="k" d="M800 75q550 925 900 1675-625-100-1038 162-412 263-500 713-87 450 13 812 100 363 312 600 213 238 513 338t537 100q238 0 488-100t450-300 275-413q75-212 75-550 0-337-250-862T1350 75zM662 2875q38-325 275-538 238-212 513-187t437 150q163 125 313 425 100 375 50 637-50 263-263 438-212 175-462 175-150 25-388-75-237-100-375-400-137-300-100-625" transform="scale(.01563)"/></defs><use xlink:href="#f"/><use xlink:href="#k" transform="translate(50)"/></g><path d="M370.7 204.6V16" clip-path="url(#a)" style="fill:none;stroke:#fff;stroke-opacity:.7;stroke-width:.8;stroke-linecap:square"/><use xlink:href="#b" x="370.7" y="204.6" style="stroke:#000;stroke-width:.8"/><g transform="matrix(.14 0 0 -.14 363.684 221.26)"><defs><path id="l" d="M250 1612q25 363 137 613 113 250 338 625l1025 1600h575L1275 2800q675 175 1075-50t537-513q138-287 150-625 13-337-100-662-112-325-400-588-287-262-800-287-512-25-875 187-362 213-500 600-137 388-112 750m775-825q225-237 600-262t625 250 250 800-313 725q-312 200-700 150-387-50-562-375t-150-688q25-362 250-600" transform="scale(.01563)"/></defs><use xlink:href="#j"/><use xlink:href="#l" transform="translate(50)"/></g><path d="M408.8 204.6V16" clip-path="url(#a)" style="fill:none;stroke:#fff;stroke-opacity:.7;stroke-width:.8;stroke-linecap:square"/><use xlink:href="#b" x="408.8" y="204.6" style="stroke:#000;stroke-width:.8"/><g transform="matrix(.14 0 0 -.14 401.823 221.26)"><use xlink:href="#l"/><use xlink:href="#i" transform="translate(50)"/></g><path d="M447 204.6V16" clip-path="url(#a)" style="fill:none;stroke:#fff;stroke-opacity:.7;stroke-width:.8;stroke-linecap:square"/><use xlink:href="#b" x="447" y="204.6" style="stroke:#000;stroke-width:.8"/><g transform="matrix(.14 0 0 -.14 439.961 221.26)"><use xlink:href="#d"/><use xlink:href="#c" transform="translate(50)"/></g><path d="M485.1 204.6V16" clip-path="url(#a)" style="fill:none;stroke:#fff;stroke-opacity:.7;stroke-width:.8;stroke-linecap:square"/><use xlink:href="#b" x="485.1" y="204.6" style="stroke:#000;stroke-width:.8"/><g transform="matrix(.14 0 0 -.14 478.1 221.26)"><use xlink:href="#d"/><use xlink:href="#d" transform="translate(50)"/></g><path d="M523.2 204.6V16" clip-path="url(#a)" style="fill:none;stroke:#fff;stroke-opacity:.7;stroke-width:.8;stroke-linecap:square"/><use xlink:href="#b" x="523.2" y="204.6" style="stroke:#000;stroke-width:.8"/><g transform="matrix(.14 0 0 -.14 516.239 221.26)"><use xlink:href="#h"/><use xlink:href="#f" transform="translate(50)"/></g><g transform="matrix(.18 0 0 -.18 283.752 247.423)"><defs><path id="m" d="M2525 4575q-25-900-25-2175t25-2000h-525v475H1000V50H475q25 1150 25 2300 0 1175-25 2225zm2350-750q0 750-25 1400h550q-25-650-25-1400 375 0 800 25v-475q-425 25-800 25V50q0-375-300-475t-775-150q0 300-275 575 475-50 662-25 188 25 188 325v3100q-1250 0-2100-25v475q800-25 2100-25M2000 1300v1250H1000V1300zm0 1675v1175H1000V2975zm1550-250q325-525 625-1125-250-75-525-225-200 600-575 1125 225 100 475 225" transform="scale(.01563)"/><path id="n" d="M4450 3550q-25-475-25-825V1400q0-325 25-775H1925q25 450 25 800v1300q0 350-25 825zm1350 1325q-25-475-25-950V250q25-575-313-700-337-125-737-175-25 300-200 600 475-25 612 50 138 75 138 325v4100H3775q-600 0-1125-25v475q525-25 1125-25zM550-525q50 500 50 1050v2625q0 525-50 875h575q-25-375-25-725V500q0-500 25-1025zm3400 1550v925H2425v-925zm0 1325v800H2425v-800zM1525 5300q225-300 700-950-275-125-525-275-250 500-625 950 275 200 450 275" transform="scale(.01563)"/><path id="o" d="M3000 4550 350-175 100-25l2650 4725z" transform="scale(.01563)"/><path id="p" d="M2750 125h-500v375q-150-225-350-325T1425 75q-500 0-850 362-350 363-350 1088t350 1100 850 375q275 0 475-113 200-112 350-337v1850h500zm-500 1400q0 475-213 750-212 275-512 275-375 0-563-275-187-275-187-750t187-738q188-262 563-262 300 0 512 262 213 263 213 738" transform="scale(.01563)"/></defs><use xlink:href="#m"/><use xlink:href="#n" transform="translate(100)"/><use xlink:href="#o" transform="translate(200)"/><use xlink:href="#p" transform="translate(250)"/></g><path d="M65.6 201h490.3" clip-path="url(#a)" style="fill:none;stroke:#fff;stroke-opacity:.7;stroke-width:.8;stroke-linecap:square"/><defs><path id="q" d="M0 0h-3.5" style="stroke:#000;stroke-width:.8"/></defs><use xlink:href="#q" x="65.6" y="201" style="stroke:#000;stroke-width:.8"/><g transform="matrix(.14 0 0 -.14 33.934 206.612)"><defs><path id="r" d="M794 531h1031v3560L703 3866v575l1116 225h631V531h1031V0H794z" transform="scale(.01563)"/><path id="s" d="M2034 4250q-487 0-733-480-245-479-245-1442 0-959 245-1439 246-480 733-480 491 0 736 480 246 480 246 1439 0 963-246 1442-245 480-736 480m0 500q785 0 1199-621 414-620 414-1801 0-1178-414-1799Q2819-91 2034-91q-784 0-1198 620-414 621-414 1799 0 1181 414 1801 414 621 1198 621" transform="scale(.01563)"/></defs><use xlink:href="#r" transform="translate(0 .766)"/><use xlink:href="#s" transform="translate(63.623 .766)"/><use xlink:href="#s" transform="matrix(.7 0 0 .7 128.203 39.047)"/></g><path d="M65.6 163.2h490.3" clip-path="url(#a)" style="fill:none;stroke:#fff;stroke-opacity:.7;stroke-width:.8;stroke-linecap:square"/><use xlink:href="#q" x="65.6" y="163.2" style="stroke:#000;stroke-width:.8"/><g transform="matrix(.14 0 0 -.14 33.934 168.81)"><use xlink:href="#r" transform="translate(0 .684)"/><use xlink:href="#s" transform="translate(63.623 .684)"/><use xlink:href="#r" transform="matrix(.7 0 0 .7 128.203 38.966)"/></g><path d="M65.6 125.5h490.3" clip-path="url(#a)" style="fill:none;stroke:#fff;stroke-opacity:.7;stroke-width:.8;stroke-linecap:square"/><use xlink:href="#q" x="65.6" y="125.5" style="stroke:#000;stroke-width:.8"/><g transform="matrix(.14 0 0 -.14 33.934 131.148)"><defs><path id="t" d="M1228 531h2203V0H469v531q359 372 979 998 621 627 780 809 303 340 423 576 121 236 121 464 0 372-261 606-261 235-680 235-297 0-627-103-329-103-704-313v638q381 153 712 231 332 78 607 78 725 0 1156-363 431-362 431-968 0-288-108-546-107-257-392-607-78-91-497-524-418-433-1181-1211" transform="scale(.01563)"/></defs><use xlink:href="#r" transform="translate(0 .766)"/><use xlink:href="#s" transform="translate(63.623 .766)"/><use xlink:href="#t" transform="matrix(.7 0 0 .7 128.203 39.047)"/></g><path d="M65.6 87.8h490.3" clip-path="url(#a)" style="fill:none;stroke:#fff;stroke-opacity:.7;stroke-width:.8;stroke-linecap:square"/><use xlink:href="#q" x="65.6" y="87.8" style="stroke:#000;stroke-width:.8"/><g transform="matrix(.14 0 0 -.14 33.934 93.416)"><defs><path id="u" d="M2597 2516q453-97 707-404 255-306 255-756 0-690-475-1069Q2609-91 1734-91q-293 0-604 58T488 141v609q262-153 574-231 313-78 654-78 593 0 904 234t311 681q0 413-289 645-289 233-804 233h-544v519h569q465 0 712 186t247 536q0 359-255 551-254 193-729 193-260 0-557-57-297-56-653-174v562q360 100 674 150t592 50q719 0 1137-327 419-326 419-882 0-388-222-655t-631-370" transform="scale(.01563)"/></defs><use xlink:href="#r" transform="translate(0 .766)"/><use xlink:href="#s" transform="translate(63.623 .766)"/><use xlink:href="#u" transform="matrix(.7 0 0 .7 128.203 39.047)"/></g><path d="M65.6 50h490.3" clip-path="url(#a)" style="fill:none;stroke:#fff;stroke-opacity:.7;stroke-width:.8;stroke-linecap:square"/><use xlink:href="#q" x="65.6" y="50" style="stroke:#000;stroke-width:.8"/><g transform="matrix(.14 0 0 -.14 33.934 55.614)"><defs><path id="v" d="M2419 4116 825 1625h1594zm-166 550h794V1625h666v-525h-666V0h-628v1100H313v609z" transform="scale(.01563)"/></defs><use xlink:href="#r" transform="translate(0 .684)"/><use xlink:href="#s" transform="translate(63.623 .684)"/><use xlink:href="#v" transform="matrix(.7 0 0 .7 128.203 38.966)"/></g><path d="M65.6 204.6h490.3" clip-path="url(#a)" style="fill:none;stroke:#fff;stroke-opacity:.7;stroke-width:.8;stroke-linecap:square"/><defs><path id="w" d="M0 0h-2" style="stroke:#000;stroke-width:.6"/></defs><use xlink:href="#w" x="65.6" y="204.6" style="stroke:#000;stroke-width:.6"/><path d="M65.6 202.7h490.3" clip-path="url(#a)" style="fill:none;stroke:#fff;stroke-opacity:.7;stroke-width:.8;stroke-linecap:square"/><use xlink:href="#w" x="65.6" y="202.7" style="stroke:#000;stroke-width:.6"/><path d="M65.6 189.6h490.3" clip-path="url(#a)" style="fill:none;stroke:#fff;stroke-opacity:.7;stroke-width:.8;stroke-linecap:square"/><use xlink:href="#w" x="65.6" y="189.6" style="stroke:#000;stroke-width:.6"/><path d="M65.6 183h490.3" clip-path="url(#a)" style="fill:none;stroke:#fff;stroke-opacity:.7;stroke-width:.8;stroke-linecap:square"/><use xlink:href="#w" x="65.6" y="183" style="stroke:#000;stroke-width:.6"/><path d="M65.6 178.3h490.3" clip-path="url(#a)" style="fill:none;stroke:#fff;stroke-opacity:.7;stroke-width:.8;stroke-linecap:square"/><use xlink:href="#w" x="65.6" y="178.3" style="stroke:#000;stroke-width:.6"/><path d="M65.6 174.6h490.3" clip-path="url(#a)" style="fill:none;stroke:#fff;stroke-opacity:.7;stroke-width:.8;stroke-linecap:square"/><use xlink:href="#w" x="65.6" y="174.6" style="stroke:#000;stroke-width:.6"/><path d="M65.6 171.6h490.3" clip-path="url(#a)" style="fill:none;stroke:#fff;stroke-opacity:.7;stroke-width:.8;stroke-linecap:square"/><use xlink:href="#w" x="65.6" y="171.6" style="stroke:#000;stroke-width:.6"/><path d="M65.6 169h490.3" clip-path="url(#a)" style="fill:none;stroke:#fff;stroke-opacity:.7;stroke-width:.8;stroke-linecap:square"/><use xlink:href="#w" x="65.6" y="169.1" style="stroke:#000;stroke-width:.6"/><path d="M65.6 166.9h490.3" clip-path="url(#a)" style="fill:none;stroke:#fff;stroke-opacity:.7;stroke-width:.8;stroke-linecap:square"/><use xlink:href="#w" x="65.6" y="166.9" style="stroke:#000;stroke-width:.6"/><path d="M65.6 165h490.3" clip-path="url(#a)" style="fill:none;stroke:#fff;stroke-opacity:.7;stroke-width:.8;stroke-linecap:square"/><use xlink:href="#w" x="65.6" y="165" style="stroke:#000;stroke-width:.6"/><path d="M65.6 151.9h490.3" clip-path="url(#a)" style="fill:none;stroke:#fff;stroke-opacity:.7;stroke-width:.8;stroke-linecap:square"/><use xlink:href="#w" x="65.6" y="151.9" style="stroke:#000;stroke-width:.6"/><path d="M65.6 145.2h490.3" clip-path="url(#a)" style="fill:none;stroke:#fff;stroke-opacity:.7;stroke-width:.8;stroke-linecap:square"/><use xlink:href="#w" x="65.6" y="145.2" style="stroke:#000;stroke-width:.6"/><path d="M65.6 140.5h490.3" clip-path="url(#a)" style="fill:none;stroke:#fff;stroke-opacity:.7;stroke-width:.8;stroke-linecap:square"/><use xlink:href="#w" x="65.6" y="140.5" style="stroke:#000;stroke-width:.6"/><path d="M65.6 136.9h490.3" clip-path="url(#a)" style="fill:none;stroke:#fff;stroke-opacity:.7;stroke-width:.8;stroke-linecap:square"/><use xlink:href="#w" x="65.6" y="136.9" style="stroke:#000;stroke-width:.6"/><path d="M65.6 133.9h490.3" clip-path="url(#a)" style="fill:none;stroke:#fff;stroke-opacity:.7;stroke-width:.8;stroke-linecap:square"/><use xlink:href="#w" x="65.6" y="133.9" style="stroke:#000;stroke-width:.6"/><path d="M65.6 131.4h490.3" clip-path="url(#a)" style="fill:none;stroke:#fff;stroke-opacity:.7;stroke-width:.8;stroke-linecap:square"/><use xlink:href="#w" x="65.6" y="131.4" style="stroke:#000;stroke-width:.6"/><path d="M65.6 129.2h490.3" clip-path="url(#a)" style="fill:none;stroke:#fff;stroke-opacity:.7;stroke-width:.8;stroke-linecap:square"/><use xlink:href="#w" x="65.6" y="129.2" style="stroke:#000;stroke-width:.6"/><path d="M65.6 127.2h490.3" clip-path="url(#a)" style="fill:none;stroke:#fff;stroke-opacity:.7;stroke-width:.8;stroke-linecap:square"/><use xlink:href="#w" x="65.6" y="127.2" style="stroke:#000;stroke-width:.6"/><path d="M65.6 114.2h490.3" clip-path="url(#a)" style="fill:none;stroke:#fff;stroke-opacity:.7;stroke-width:.8;stroke-linecap:square"/><use xlink:href="#w" x="65.6" y="114.2" style="stroke:#000;stroke-width:.6"/><path d="M65.6 107.5h490.3" clip-path="url(#a)" style="fill:none;stroke:#fff;stroke-opacity:.7;stroke-width:.8;stroke-linecap:square"/><use xlink:href="#w" x="65.6" y="107.5" style="stroke:#000;stroke-width:.6"/><path d="M65.6 102.8h490.3" clip-path="url(#a)" style="fill:none;stroke:#fff;stroke-opacity:.7;stroke-width:.8;stroke-linecap:square"/><use xlink:href="#w" x="65.6" y="102.8" style="stroke:#000;stroke-width:.6"/><path d="M65.6 99.1h490.3" clip-path="url(#a)" style="fill:none;stroke:#fff;stroke-opacity:.7;stroke-width:.8;stroke-linecap:square"/><use xlink:href="#w" x="65.6" y="99.1" style="stroke:#000;stroke-width:.6"/><path d="M65.6 96.2h490.3" clip-path="url(#a)" style="fill:none;stroke:#fff;stroke-opacity:.7;stroke-width:.8;stroke-linecap:square"/><use xlink:href="#w" x="65.6" y="96.2" style="stroke:#000;stroke-width:.6"/><path d="M65.6 93.6h490.3" clip-path="url(#a)" style="fill:none;stroke:#fff;stroke-opacity:.7;stroke-width:.8;stroke-linecap:square"/><use xlink:href="#w" x="65.6" y="93.6" style="stroke:#000;stroke-width:.6"/><path d="M65.6 91.4h490.3" clip-path="url(#a)" style="fill:none;stroke:#fff;stroke-opacity:.7;stroke-width:.8;stroke-linecap:square"/><use xlink:href="#w" x="65.6" y="91.4" style="stroke:#000;stroke-width:.6"/><path d="M65.6 89.5h490.3" clip-path="url(#a)" style="fill:none;stroke:#fff;stroke-opacity:.7;stroke-width:.8;stroke-linecap:square"/><use xlink:href="#w" x="65.6" y="89.5" style="stroke:#000;stroke-width:.6"/><path d="M65.6 76.4h490.3" clip-path="url(#a)" style="fill:none;stroke:#fff;stroke-opacity:.7;stroke-width:.8;stroke-linecap:square"/><use xlink:href="#w" x="65.6" y="76.4" style="stroke:#000;stroke-width:.6"/><path d="M65.6 69.8h490.3" clip-path="url(#a)" style="fill:none;stroke:#fff;stroke-opacity:.7;stroke-width:.8;stroke-linecap:square"/><use xlink:href="#w" x="65.6" y="69.8" style="stroke:#000;stroke-width:.6"/><path d="M65.6 65h490.3" clip-path="url(#a)" style="fill:none;stroke:#fff;stroke-opacity:.7;stroke-width:.8;stroke-linecap:square"/><use xlink:href="#w" x="65.6" y="65.1" style="stroke:#000;stroke-width:.6"/><path d="M65.6 61.4h490.3" clip-path="url(#a)" style="fill:none;stroke:#fff;stroke-opacity:.7;stroke-width:.8;stroke-linecap:square"/><use xlink:href="#w" x="65.6" y="61.4" style="stroke:#000;stroke-width:.6"/><path d="M65.6 58.4h490.3" clip-path="url(#a)" style="fill:none;stroke:#fff;stroke-opacity:.7;stroke-width:.8;stroke-linecap:square"/><use xlink:href="#w" x="65.6" y="58.4" style="stroke:#000;stroke-width:.6"/><path d="M65.6 55.9h490.3" clip-path="url(#a)" style="fill:none;stroke:#fff;stroke-opacity:.7;stroke-width:.8;stroke-linecap:square"/><use xlink:href="#w" x="65.6" y="55.9" style="stroke:#000;stroke-width:.6"/><path d="M65.6 53.7h490.3" clip-path="url(#a)" style="fill:none;stroke:#fff;stroke-opacity:.7;stroke-width:.8;stroke-linecap:square"/><use xlink:href="#w" x="65.6" y="53.7" style="stroke:#000;stroke-width:.6"/><path d="M65.6 51.8h490.3" clip-path="url(#a)" style="fill:none;stroke:#fff;stroke-opacity:.7;stroke-width:.8;stroke-linecap:square"/><use xlink:href="#w" x="65.6" y="51.8" style="stroke:#000;stroke-width:.6"/><path d="M65.6 38.7h490.3" clip-path="url(#a)" style="fill:none;stroke:#fff;stroke-opacity:.7;stroke-width:.8;stroke-linecap:square"/><use xlink:href="#w" x="65.6" y="38.7" style="stroke:#000;stroke-width:.6"/><path d="M65.6 32h490.3" clip-path="url(#a)" style="fill:none;stroke:#fff;stroke-opacity:.7;stroke-width:.8;stroke-linecap:square"/><use xlink:href="#w" x="65.6" y="32" style="stroke:#000;stroke-width:.6"/><path d="M65.6 27.3h490.3" clip-path="url(#a)" style="fill:none;stroke:#fff;stroke-opacity:.7;stroke-width:.8;stroke-linecap:square"/><use xlink:href="#w" x="65.6" y="27.3" style="stroke:#000;stroke-width:.6"/><path d="M65.6 23.7h490.3" clip-path="url(#a)" style="fill:none;stroke:#fff;stroke-opacity:.7;stroke-width:.8;stroke-linecap:square"/><use xlink:href="#w" x="65.6" y="23.7" style="stroke:#000;stroke-width:.6"/><path d="M65.6 20.7h490.3" clip-path="url(#a)" style="fill:none;stroke:#fff;stroke-opacity:.7;stroke-width:.8;stroke-linecap:square"/><use xlink:href="#w" x="65.6" y="20.7" style="stroke:#000;stroke-width:.6"/><path d="M65.6 18.2h490.3" clip-path="url(#a)" style="fill:none;stroke:#fff;stroke-opacity:.7;stroke-width:.8;stroke-linecap:square"/><use xlink:href="#w" x="65.6" y="18.2" style="stroke:#000;stroke-width:.6"/><path d="M65.6 16h490.3" clip-path="url(#a)" style="fill:none;stroke:#fff;stroke-opacity:.7;stroke-width:.8;stroke-linecap:square"/><use xlink:href="#w" x="65.6" y="16" style="stroke:#000;stroke-width:.6"/><g transform="matrix(0 -.18 -.18 0 21.684 164.304)"><defs><path id="x" d="M6150 325q-100-450-200-625t-400-175h-475q-575 0-575 425v2500h-900q0-800-50-1300t-213-825Q3175 0 2975-225t-400-475q-200 275-450 450 375 200 637 612 263 413 325 1000 63 588 13 1488h1950q-50-450-50-1050V250q0-300 137-312 138-13 238-13t150 112q50 113 100 563 250-225 525-275M425 1200q-75 300-200 600 250 75 950 275v1275q-550 0-875-25v450q300-25 875-50 0 800-50 1475h550q-25-625-25-1475 150 25 600 50v-450q-450 25-600 25V2225q450 150 750 275 0-225 50-425-325-125-800-325V175q0-400-175-537-175-138-775-263Q675-400 550 0q475-50 550 50t75 250v1275q-575-275-750-375m4650 2800q425 25 925 50v-500q-500 50-900 50H3400q-475 0-900-50v500q425-25 900-50zm-950 1200q250-575 350-775-275-75-475-200-100 200-350 775 225 100 475 200" transform="scale(.01563)"/><path id="y" d="M3650 3850q0 900-25 1275h500q-25-350-25-1275h1100q500 0 725 25v-450q-225 25-725 25h-675q400-1600 1675-2250-275-150-425-425-1350 1025-1675 2650V1025q725 0 950 25V600q-225 25-950 25 0-550 25-1200h-500q25 675 25 1200-450 0-950-25v450q500-25 950-25v2425Q3375 1800 2000 650q-150 225-450 375 1300 850 1650 2425h-525q-400 0-700-25v450q300-25 700-25zM2000 4900q-175-225-475-1125V575q0-775 25-1125h-500q25 325 25 1100v2350q-125-275-500-850-125 225-350 375 300 300 700 1187 400 888 500 1513 275-125 575-225" transform="scale(.01563)"/><path id="z" d="M5900 4825q-25-600-25-1250V750q0-675 25-1325h-500v475H3525v-525h-500q25 750 25 1300v2925q0 650-25 1225zM1400 3825q0 1025-25 1375h550q-25-375-25-1375 600 0 925 25v-475q-300 25-925 25v-950q125 125 275 300 450-475 775-925-150-100-375-325-275 475-675 875V475q0-425 25-1100h-550q25 675 25 1075v1700q-325-925-750-1475-175 275-350 425 175 150 500 787 325 638 500 1513-550 0-900-25v475q450-25 1000-25M5400 325v1150H3525V325zm0 2975v1100H3525V3300zm0-1400v1000H3525V1900z" transform="scale(.01563)"/><path id="A" d="M525 4250q375-25 875-25h1425q-250-1600-625-2475 625-875 925-1350-175-125-400-325-525 900-775 1225-300-525-600-875T600-350Q425-125 200-25q425 300 775 700t675 1025q-600 725-1100 1200 150 125 350 325 725-800 975-1075 325 900 425 1675h-900q-500 0-875-25zm2400-550q600-25 825-25h1075v750q0 325-50 700h575q-25-300-25-750v-700q250 0 825 25v-450q-575 25-825 25V125q25-475-313-600-337-125-762-175-75 300-225 550 550 0 687 63 138 62 113 362v2950H3775q-225 0-850-50zm525-975q425-750 725-1400-325-125-475-250-225 675-650 1400 175 75 400 250" transform="scale(.01563)"/><path id="B" d="M5775 2250q-175-100-450-313-275-212-600-512 200-400 662-825 463-425 763-500-275-250-400-475Q5025 50 4500 862q-525 813-850 1963-100-200-325-600V275q275 225 625 575 175-325 275-475-325-225-675-525t-550-475q-150 250-300 400 150 150 175 425v1425q-325-450-875-925-200 200-450 325 425 300 800 700 375 425 662 900 288 475 513 1325H2500v-725h-525q50 275 0 1125h1625q100 650 75 900 325-75 625-100-75-200-175-800h1650q-25-800 0-1100h-500v700H4025q-50-225-125-425 300-1100 625-1700 450 350 825 875 200-250 425-450M250-200Q450 75 725 675t450 1275q275-200 475-275-275-625-450-1150T850-450Q550-250 250-200m1150 2675q-475 350-1100 600 100 225 225 475 700-325 1150-625-175-275-275-450m150 1450q-375 375-950 750 125 175 300 400 650-450 975-750-225-225-325-400" transform="scale(.01563)"/><path id="C" d="M1750 1675q700-25 1125-25h2325q-225-400-550-800t-625-650q325-150 925-250t1150-100q-150-150-275-500-725 100-1275 238-550 137-925 312-525-225-1038-362-512-138-1062-213-75 200-300 425 450 0 1025 125t1000 325q-425 350-850 1075l-650-25zm1225 3400q275 75 500 175 150-275 300-725h925q275 0 1000 25v-450q-700 25-1050 25H1375q0-1125-25-1813-25-687-138-1362-112-675-487-1475-225 150-475 225 400 700 512 1375 113 675 125 1725 13 1050-12 1725h2325q-100 325-225 550m-500-1775q0 400-25 625h525q-25-200-25-625h1350q0 400-25 650h525q-25-300-25-650 550 0 950 25v-425q-375 25-950 25 0-675 25-975H2450q25 400 25 975-300 0-875-25v425q575-25 875-25m1825-950v575H2950v-575zM2875 1275q325-500 775-850 375 275 775 850z" transform="scale(.01563)"/></defs><use xlink:href="#x"/><use xlink:href="#y" transform="translate(100)"/><use xlink:href="#z" transform="translate(200)"/><use xlink:href="#A" transform="translate(300)"/><use xlink:href="#B" transform="translate(400)"/><use xlink:href="#C" transform="translate(500)"/></g><path d="M65.6 201H93l1-.2.8-.3 1.9-1 1.8-1.5 5.5-5 1-1 1.7-3 7.4-13.3 2.7-4.1 1.9-2.4 1.8-2.2 2.8-2.8 2.7-2.3 2.8-2 2.7-1.5 2.8-1.3 1.8-.6 1.8-.4 1.9-.3 1.8-.1 2.8.1 2.7.5 2.8.7 2.7 1 2.8 1.3 2.7 1.5 2.8 1.8 2.7 2 2.8 2.3 3.6 3.4 5.5 5 1.9 1.5 1.8 1.2 16.5 7.8 7.3 3.6 3.7 1.5 2.8 1 2.7.8 2.8.5 2.7.2 1-1 .9-4.4 2.7-17.4 1.8-9.3 1.9-7.5 1.8-6.2 1-2.7.8-4.7 1.9-16.2.9-6.8 1-5.8.8-4.8 1-4.2 1.8-6.8 1.8-5.4 1-2.2.9-2.6 4.5-16.3 1.9-4.8 1.8-3.9 1.8-2.8 1-1.2.9-.9.9-.7 1-.6.8-.3h2.8l1.8.3 1.8.4 2.8 1 2.8 1.2 2.7 1.7 2.8 2 2.7 2.4 2.8 2.8L281 69l2.8 3.8 2.7 4.2 4.6 7.3 1.8 2.3 1 .9 14.6 9.2 13.8 9.2 3.6 2 2.8 1.3 2.8 1 3.6.8 7.4 1.5 7.3 1.3 7.3 1 7.4.8 9.1.7 15.6 1 10.1.5 8.3.2h115.5" clip-path="url(#a)" style="fill:none;stroke:#8da0cb;stroke-width:3;stroke-linecap:square"/><path d="m65.6 201 180.7-.1.9-.3.9-.4 1.8-1.2 2.8-2.4 4.6-4.2.9-1.3 1.8-3.2 5.5-10.2 2.8-4.3 1.8-2.6 1.8-2.3 1.9-2.1 2.7-2.7 2.8-2.3 2.7-1.9 2.8-1.4 2.7-1.2 1.9-.5 1.8-.4 1.8-.2 1.9-.1 2.7.2 2.8.5 2.7.8 2.8 1 2.7 1.3 2.8 1.6 2.7 1.8 2.8 2 2.7 2.3 3.7 3.4 5.5 5 1.8 1.5 1.9 1.2 4.6 2.5 4.5 2.8 4.6 3 5.5 4 8.3 6 2.7 1.8 1.9 1 1.8.8 1.8.5 1.9.3h153.1" clip-path="url(#a)" style="fill:none;stroke:#fc8d9e;stroke-width:3;stroke-linecap:square"/><defs><path id="D" d="M5 0-5-5V5z" style="stroke:gray;stroke-linejoin:miter"/></defs><use xlink:href="#D" x="555.9" y="201" style="fill:gray;stroke:gray;stroke-linejoin:miter"/><defs><path id="E" d="M0-5-5 5H5z" style="stroke:gray;stroke-linejoin:miter"/></defs><use xlink:href="#E" x="65.6" y="12.2" style="fill:gray;stroke:gray;stroke-linejoin:miter"/><path d="M65.6 204.6V16m0 188.6h490.3" style="fill:none;stroke:gray;stroke-width:2;stroke-linejoin:miter;stroke-linecap:square"/><path d="M65.6 254.4v-49.2m-3.6 7.2 3.6-7.2 3.6 7.2" style="fill:none;stroke:#fa9fb5;stroke-width:2;stroke-linecap:round"/><g transform="matrix(.18 0 0 -.18 25.074 272.994)"><defs><path id="F" d="M4675 4050q475 0 1100 25v-475q-675 25-1075 25h-500V2250h475q425 0 1000 25v-475q-550 25-1000 25h-475V0h625q600 0 1250 25v-475q-650 25-1225 25H3025q-650 0-1075-25V25Q2350 0 3050 0h650v1825h-400q-475 0-900-25v475q425-25 925-25h375v1375h-475q-500 0-1000-25v475q500-25 1025-25zM1950 1425q-275-450-613-1138-337-687-462-962-250 250-550 425Q600 0 950 612q350 613 625 1188 175-225 375-375M725 3350q575-375 1025-675-150-175-325-450-475 425-1000 725 150 150 300 400m300 1675q600-450 925-800-225-175-350-375-425 500-925 800 175 175 350 375m2200-75q175 125 350 300 325-275 800-800-200-150-400-325-425 525-750 825" transform="scale(.01563)"/><path id="G" d="M2150 5125q-150-150-325-625h1400q-25-425-25-850V-50q0-300-213-412-212-113-737-188-25 275-175 575 400-50 537 0 138 50 138 300v1050h-275q-200-550-750-1025T625-500Q450-275 225-75 775 75 1250 450t725 825H825q-175 0-550-25v475q350-25 525-25v1975q0 400-25 825h625q100 400 125 775zm2725-625q0 325-50 700h525q-25-375-25-700v-950q425 0 825 25v-450q-400 25-825 25V75q-25-375-313-512-287-138-687-213 0 300-250 625 400-50 600 0t200 275v2900q-975 0-1500-25v450q625-25 1500-25zm-2125-950v550H1250v-550zm0-925v525H1250v-525zm0-925v525H1250v-525zm1250 900q275-825 350-1075-250-50-475-175-75 500-350 1100 225 100 475 150" transform="scale(.01563)"/><path id="H" d="M3050 125h-500v2025q0 150-50 250t-200 100q-175 0-325-188-150-187-150-487V125h-500v2025q0 150-50 250t-200 100q-175 0-325-188-150-187-150-487V125H100v2800h500v-375q125 200 300 312 175 113 375 113t337-113q138-112 188-312 125 200 287 312 163 113 363 113 300 0 450-163 150-162 150-462z" transform="scale(.01563)"/><path id="I" d="M3850 4275q-175-250-250-575h1850q-25-225-25-700v-775q0-400 25-750H4050V-50q0-350-225-437-225-88-725-138-50 300-175 575 475-25 550 13 75 37 75 212v1300H2125q25 300 25 725v825q0 400-25 675h1025q150 550 150 725zM275-325q450 600 600 1362 150 763 150 1263v1825q0 525-25 775h4025q550 0 775 25v-450q-200 25-775 25H1525V2375q-25-725-113-1263-87-537-275-987-187-450-337-700-250 175-525 250m4650 3100v550H2625v-550zm0-900v525H2625v-525zM1475-50q325 200 612 500 288 300 488 650 225-225 400-350Q2300-50 1825-400q-150 175-350 350m3350 1125Q5700 300 5925 25q-175-150-350-350Q5250 75 4500 725q175 200 325 350" transform="scale(.01563)"/></defs><use xlink:href="#F"/><use xlink:href="#G" transform="translate(100)"/><use xlink:href="#H" transform="translate(200)"/><use xlink:href="#x" transform="translate(250)"/><use xlink:href="#I" transform="translate(350)"/></g><path d="M218.1 283.8v-78.6m-3.6 7.2 3.6-7.2 3.6 7.2" style="fill:none;stroke:#fa9fb5;stroke-width:2;stroke-linecap:round"/><g transform="matrix(.18 0 0 -.18 146.13 302.355)"><defs><path id="J" d="M5875 4200q-25-500-25-925V700q0-450 25-725h-500v600H4175V-75h-475q25 575 25 700v2650q0 425-25 925zm-2600 250q-225 0-1025-125V3200h375q375 0 800 25v-450q-425 25-775 25h-400V225q0-425 25-775h-500q25 400 25 775v1625Q1425 1150 675 250 550 425 275 600q550 525 962 1212 413 688 463 988h-450q-550 0-800-25v450q275-25 800-25h550v1050q-325-50-1025-125-50 250-150 450 475 25 1200 125t1225 300q50-275 225-550M5375 975v2800H4175V975zm-2300 25q-325 625-750 1100 150 100 375 300 475-525 800-1075-250-150-425-325" transform="scale(.01563)"/><path id="K" d="M2800 125h-500v1800q0 300-150 475t-400 175q-325 0-613-338-287-337-287-837V125H350v2800h500v-525q200 275 437 425 238 150 613 150 450 0 675-250t225-625z" transform="scale(.01563)"/></defs><use xlink:href="#F"/><use xlink:href="#G" transform="translate(100)"/><use xlink:href="#H" transform="translate(200)"/><use xlink:href="#x" transform="translate(250)"/><use xlink:href="#I" transform="translate(350)"/><use xlink:href="#J" transform="translate(450)"/><use xlink:href="#K" transform="translate(550)"/><use xlink:href="#x" transform="translate(600)"/><use xlink:href="#I" transform="translate(700)"/></g><path d="M141.9 110.6v43.1" style="fill:none;stroke:gray;stroke-width:1.5;stroke-linecap:round"/><g transform="matrix(.18 0 0 -.18 110.352 104.397)"><use xlink:href="#x"/><use xlink:href="#H" transform="translate(100)"/><use xlink:href="#x" transform="translate(150)"/><use xlink:href="#y" transform="translate(250)"/></g><path d="M311.6 110.5 295 153.8" style="fill:none;stroke:gray;stroke-width:1.5;stroke-linecap:round"/><g transform="matrix(.18 0 0 -.18 284.7 104.397)"><use xlink:href="#x"/><use xlink:href="#K" transform="translate(100)"/><use xlink:href="#x" transform="translate(150)"/><use xlink:href="#y" transform="translate(250)"/></g><defs><clipPath id="a"><path d="M65.6 16H556v188.7H65.6z"/></clipPath></defs></svg>