<?xml version="1.0" encoding="utf-8" standalone="no"?>
<!DOCTYPE svg PUBLIC "-//W3C//DTD SVG 1.1//EN"
  "http://www.w3.org/Graphics/SVG/1.1/DTD/svg11.dtd">
<svg xmlns:xlink="http://www.w3.org/1999/xlink" width="568.129173pt" height="311.804967pt" viewBox="0 0 568.129173 311.804967" xmlns="http://www.w3.org/2000/svg" version="1.1">
 <metadata>
  <rdf:RDF xmlns:dc="http://purl.org/dc/elements/1.1/" xmlns:cc="http://creativecommons.org/ns#" xmlns:rdf="http://www.w3.org/1999/02/22-rdf-syntax-ns#">
   <cc:Work>
    <dc:type rdf:resource="http://purl.org/dc/dcmitype/StillImage"/>
    <dc:date>2025-10-26T22:00:14.423771</dc:date>
    <dc:format>image/svg+xml</dc:format>
    <dc:creator>
     <cc:Agent>
      <dc:title>Matplotlib v3.10.7, https://matplotlib.org/</dc:title>
     </cc:Agent>
    </dc:creator>
   </cc:Work>
  </rdf:RDF>
 </metadata>
 <defs>
  <style type="text/css">*{stroke-linejoin: round; stroke-linecap: butt}</style>
 </defs>
 <g id="figure_1">
  <g id="patch_1">
   <path d="M 0 311.804967 
L 568.129173 311.804967 
L 568.129173 0 
L 0 0 
z
" style="fill: #ffffff"/>
  </g>
  <g id="axes_1">
   <g id="patch_2">
    <path d="M 65.574375 204.634055 
L 555.929173 204.634055 
L 555.929173 15.973217 
L 65.574375 15.973217 
z
" style="fill: #f0f5e5"/>
   </g>
   <g id="matplotlib.axis_1">
    <g id="xtick_1">
     <g id="line2d_1">
      <path d="M 65.574375 204.634055 
L 65.574375 15.973217 
" clip-path="url(#peb44e748e0)" style="fill: none; stroke: #ffffff; stroke-opacity: 0.7; stroke-width: 0.8; stroke-linecap: square"/>
     </g>
     <g id="line2d_2">
      <defs>
       <path id="md01d3aa2f5" d="M 0 0 
L 0 3.5 
" style="stroke: #000000; stroke-width: 0.8"/>
      </defs>
      <g>
       <use xlink:href="#md01d3aa2f5" x="65.574375" y="204.634055" style="stroke: #000000; stroke-width: 0.8"/>
      </g>
     </g>
     <g id="text_1">
      <!-- 0 -->
      <g transform="translate(62.074375 221.259055) scale(0.14 -0.14)">
       <defs>
        <path id="SimHei-30" d="M 225 2537 
Q 250 3200 412 3587 
Q 575 3975 875 4225 
Q 1175 4475 1612 4475 
Q 2050 4475 2375 4112 
Q 2700 3750 2800 3200 
Q 2900 2650 2862 1937 
Q 2825 1225 2612 775 
Q 2400 325 1975 150 
Q 1550 -25 1125 187 
Q 700 400 525 750 
Q 350 1100 275 1487 
Q 200 1875 225 2537 
z
M 750 2687 
Q 675 2000 800 1462 
Q 925 925 1212 700 
Q 1500 475 1800 612 
Q 2100 750 2237 1162 
Q 2375 1575 2375 2062 
Q 2375 2550 2337 2950 
Q 2300 3350 2112 3675 
Q 1925 4000 1612 4012 
Q 1300 4025 1062 3700 
Q 825 3375 750 2687 
z
" transform="scale(0.015625)"/>
       </defs>
       <use xlink:href="#SimHei-30"/>
      </g>
     </g>
    </g>
    <g id="xtick_2">
     <g id="line2d_3">
      <path d="M 103.713082 204.634055 
L 103.713082 15.973217 
" clip-path="url(#peb44e748e0)" style="fill: none; stroke: #ffffff; stroke-opacity: 0.7; stroke-width: 0.8; stroke-linecap: square"/>
     </g>
     <g id="line2d_4">
      <g>
       <use xlink:href="#md01d3aa2f5" x="103.713082" y="204.634055" style="stroke: #000000; stroke-width: 0.8"/>
      </g>
     </g>
     <g id="text_2">
      <!-- 7 -->
      <g transform="translate(100.213082 221.259055) scale(0.14 -0.14)">
       <defs>
        <path id="SimHei-37" d="M 850 150 
Q 1300 2050 2425 3925 
L 275 3925 
L 275 4375 
L 2950 4375 
L 2950 3950 
Q 1775 2050 1400 150 
L 850 150 
z
" transform="scale(0.015625)"/>
       </defs>
       <use xlink:href="#SimHei-37"/>
      </g>
     </g>
    </g>
    <g id="xtick_3">
     <g id="line2d_5">
      <path d="M 141.851788 204.634055 
L 141.851788 15.973217 
" clip-path="url(#peb44e748e0)" style="fill: none; stroke: #ffffff; stroke-opacity: 0.7; stroke-width: 0.8; stroke-linecap: square"/>
     </g>
     <g id="line2d_6">
      <g>
       <use xlink:href="#md01d3aa2f5" x="141.851788" y="204.634055" style="stroke: #000000; stroke-width: 0.8"/>
      </g>
     </g>
     <g id="text_3">
      <!-- 14 -->
      <g transform="translate(134.851788 221.259055) scale(0.14 -0.14)">
       <defs>
        <path id="SimHei-31" d="M 1400 3600 
Q 1075 3275 575 2975 
L 575 3450 
Q 1200 3875 1600 4450 
L 1900 4450 
L 1900 150 
L 1400 150 
L 1400 3600 
z
" transform="scale(0.015625)"/>
        <path id="SimHei-34" d="M 2000 1100 
L 75 1100 
L 75 1525 
L 2100 4450 
L 2475 4450 
L 2475 1525 
L 3075 1525 
L 3075 1100 
L 2475 1100 
L 2475 150 
L 2000 150 
L 2000 1100 
z
M 2000 1525 
L 2000 3500 
L 600 1525 
L 2000 1525 
z
" transform="scale(0.015625)"/>
       </defs>
       <use xlink:href="#SimHei-31"/>
       <use xlink:href="#SimHei-34" transform="translate(50 0)"/>
      </g>
     </g>
    </g>
    <g id="xtick_4">
     <g id="line2d_7">
      <path d="M 179.990495 204.634055 
L 179.990495 15.973217 
" clip-path="url(#peb44e748e0)" style="fill: none; stroke: #ffffff; stroke-opacity: 0.7; stroke-width: 0.8; stroke-linecap: square"/>
     </g>
     <g id="line2d_8">
      <g>
       <use xlink:href="#md01d3aa2f5" x="179.990495" y="204.634055" style="stroke: #000000; stroke-width: 0.8"/>
      </g>
     </g>
     <g id="text_4">
      <!-- 21 -->
      <g transform="translate(172.990495 221.259055) scale(0.14 -0.14)">
       <defs>
        <path id="SimHei-32" d="M 300 250 
Q 325 625 650 925 
Q 975 1225 1475 1862 
Q 1975 2500 2125 2850 
Q 2275 3200 2237 3450 
Q 2200 3700 2000 3862 
Q 1800 4025 1537 4000 
Q 1275 3975 1037 3800 
Q 800 3625 675 3275 
L 200 3350 
Q 400 3925 712 4187 
Q 1025 4450 1450 4475 
Q 1700 4500 1900 4462 
Q 2100 4425 2312 4287 
Q 2525 4150 2662 3875 
Q 2800 3600 2762 3212 
Q 2725 2825 2375 2287 
Q 2025 1750 1025 600 
L 2825 600 
L 2825 150 
L 300 150 
L 300 250 
z
" transform="scale(0.015625)"/>
       </defs>
       <use xlink:href="#SimHei-32"/>
       <use xlink:href="#SimHei-31" transform="translate(50 0)"/>
      </g>
     </g>
    </g>
    <g id="xtick_5">
     <g id="line2d_9">
      <path d="M 218.129201 204.634055 
L 218.129201 15.973217 
" clip-path="url(#peb44e748e0)" style="fill: none; stroke: #ffffff; stroke-opacity: 0.7; stroke-width: 0.8; stroke-linecap: square"/>
     </g>
     <g id="line2d_10">
      <g>
       <use xlink:href="#md01d3aa2f5" x="218.129201" y="204.634055" style="stroke: #000000; stroke-width: 0.8"/>
      </g>
     </g>
     <g id="text_5">
      <!-- 28 -->
      <g transform="translate(211.129201 221.259055) scale(0.14 -0.14)">
       <defs>
        <path id="SimHei-38" d="M 175 1375 
Q 175 1675 325 1962 
Q 475 2250 825 2425 
Q 525 2600 425 2812 
Q 325 3025 312 3300 
Q 300 3575 387 3775 
Q 475 3975 650 4150 
Q 825 4325 1037 4387 
Q 1250 4450 1500 4450 
Q 1750 4450 1950 4400 
Q 2150 4350 2375 4187 
Q 2600 4025 2700 3725 
Q 2800 3425 2687 3025 
Q 2575 2625 2100 2400 
Q 2525 2275 2700 2012 
Q 2875 1750 2875 1375 
Q 2875 1000 2762 775 
Q 2650 550 2512 400 
Q 2375 250 2137 162 
Q 1900 75 1537 75 
Q 1175 75 912 162 
Q 650 250 475 425 
Q 300 600 237 837 
Q 175 1075 175 1375 
z
M 687 1400 
Q 675 1100 787 875 
Q 900 650 1200 587 
Q 1500 525 1825 600 
Q 2150 675 2275 950 
Q 2400 1225 2362 1500 
Q 2325 1775 2050 1962 
Q 1775 2150 1450 2125 
Q 1125 2100 912 1900 
Q 700 1700 687 1400 
z
M 775 3350 
Q 775 3100 950 2875 
Q 1125 2650 1500 2650 
Q 1875 2650 2062 2875 
Q 2250 3100 2237 3412 
Q 2225 3725 2012 3875 
Q 1800 4025 1437 4000 
Q 1075 3975 925 3787 
Q 775 3600 775 3350 
z
" transform="scale(0.015625)"/>
       </defs>
       <use xlink:href="#SimHei-32"/>
       <use xlink:href="#SimHei-38" transform="translate(50 0)"/>
      </g>
     </g>
    </g>
    <g id="xtick_6">
     <g id="line2d_11">
      <path d="M 256.267908 204.634055 
L 256.267908 15.973217 
" clip-path="url(#peb44e748e0)" style="fill: none; stroke: #ffffff; stroke-opacity: 0.7; stroke-width: 0.8; stroke-linecap: square"/>
     </g>
     <g id="line2d_12">
      <g>
       <use xlink:href="#md01d3aa2f5" x="256.267908" y="204.634055" style="stroke: #000000; stroke-width: 0.8"/>
      </g>
     </g>
     <g id="text_6">
      <!-- 35 -->
      <g transform="translate(249.267908 221.259055) scale(0.14 -0.14)">
       <defs>
        <path id="SimHei-33" d="M 250 1225 
L 700 1300 
Q 800 975 1025 762 
Q 1250 550 1587 562 
Q 1925 575 2125 837 
Q 2325 1100 2300 1437 
Q 2275 1775 2037 1962 
Q 1800 2150 1275 2225 
L 1275 2550 
Q 1800 2600 2037 2825 
Q 2275 3050 2250 3412 
Q 2225 3775 1925 3937 
Q 1625 4100 1287 3975 
Q 950 3850 750 3275 
L 300 3350 
Q 450 3800 712 4100 
Q 975 4400 1425 4450 
Q 1875 4500 2212 4337 
Q 2550 4175 2687 3837 
Q 2825 3500 2725 3100 
Q 2625 2700 2150 2400 
Q 2500 2250 2687 1950 
Q 2875 1650 2812 1162 
Q 2750 675 2375 375 
Q 2000 75 1525 87 
Q 1050 100 700 387 
Q 350 675 250 1225 
z
" transform="scale(0.015625)"/>
        <path id="SimHei-35" d="M 550 1325 
Q 725 650 1150 575 
Q 1575 500 1837 662 
Q 2100 825 2212 1087 
Q 2325 1350 2312 1675 
Q 2300 2000 2137 2225 
Q 1975 2450 1725 2525 
Q 1475 2600 1162 2525 
Q 850 2450 650 2175 
L 225 2225 
Q 275 2375 700 4375 
L 2675 4375 
L 2675 3925 
L 1075 3925 
Q 950 3250 825 2850 
Q 1200 3025 1525 3012 
Q 1850 3000 2150 2862 
Q 2450 2725 2587 2487 
Q 2725 2250 2787 2012 
Q 2850 1775 2837 1500 
Q 2825 1225 2725 937 
Q 2625 650 2425 462 
Q 2225 275 1937 162 
Q 1650 50 1275 75 
Q 900 100 562 350 
Q 225 600 100 1200 
L 550 1325 
z
" transform="scale(0.015625)"/>
       </defs>
       <use xlink:href="#SimHei-33"/>
       <use xlink:href="#SimHei-35" transform="translate(50 0)"/>
      </g>
     </g>
    </g>
    <g id="xtick_7">
     <g id="line2d_13">
      <path d="M 294.406614 204.634055 
L 294.406614 15.973217 
" clip-path="url(#peb44e748e0)" style="fill: none; stroke: #ffffff; stroke-opacity: 0.7; stroke-width: 0.8; stroke-linecap: square"/>
     </g>
     <g id="line2d_14">
      <g>
       <use xlink:href="#md01d3aa2f5" x="294.406614" y="204.634055" style="stroke: #000000; stroke-width: 0.8"/>
      </g>
     </g>
     <g id="text_7">
      <!-- 42 -->
      <g transform="translate(287.406614 221.259055) scale(0.14 -0.14)">
       <use xlink:href="#SimHei-34"/>
       <use xlink:href="#SimHei-32" transform="translate(50 0)"/>
      </g>
     </g>
    </g>
    <g id="xtick_8">
     <g id="line2d_15">
      <path d="M 332.545321 204.634055 
L 332.545321 15.973217 
" clip-path="url(#peb44e748e0)" style="fill: none; stroke: #ffffff; stroke-opacity: 0.7; stroke-width: 0.8; stroke-linecap: square"/>
     </g>
     <g id="line2d_16">
      <g>
       <use xlink:href="#md01d3aa2f5" x="332.545321" y="204.634055" style="stroke: #000000; stroke-width: 0.8"/>
      </g>
     </g>
     <g id="text_8">
      <!-- 49 -->
      <g transform="translate(325.545321 221.259055) scale(0.14 -0.14)">
       <defs>
        <path id="SimHei-39" d="M 800 75 
Q 1350 1000 1700 1750 
Q 1075 1650 662 1912 
Q 250 2175 162 2625 
Q 75 3075 175 3437 
Q 275 3800 487 4037 
Q 700 4275 1000 4375 
Q 1300 4475 1537 4475 
Q 1775 4475 2025 4375 
Q 2275 4275 2475 4075 
Q 2675 3875 2750 3662 
Q 2825 3450 2825 3112 
Q 2825 2775 2575 2250 
Q 2325 1725 1350 75 
L 800 75 
z
M 662 2875 
Q 700 2550 937 2337 
Q 1175 2125 1450 2150 
Q 1725 2175 1887 2300 
Q 2050 2425 2200 2725 
Q 2300 3100 2250 3362 
Q 2200 3625 1987 3800 
Q 1775 3975 1525 3975 
Q 1375 4000 1137 3900 
Q 900 3800 762 3500 
Q 625 3200 662 2875 
z
" transform="scale(0.015625)"/>
       </defs>
       <use xlink:href="#SimHei-34"/>
       <use xlink:href="#SimHei-39" transform="translate(50 0)"/>
      </g>
     </g>
    </g>
    <g id="xtick_9">
     <g id="line2d_17">
      <path d="M 370.684027 204.634055 
L 370.684027 15.973217 
" clip-path="url(#peb44e748e0)" style="fill: none; stroke: #ffffff; stroke-opacity: 0.7; stroke-width: 0.8; stroke-linecap: square"/>
     </g>
     <g id="line2d_18">
      <g>
       <use xlink:href="#md01d3aa2f5" x="370.684027" y="204.634055" style="stroke: #000000; stroke-width: 0.8"/>
      </g>
     </g>
     <g id="text_9">
      <!-- 56 -->
      <g transform="translate(363.684027 221.259055) scale(0.14 -0.14)">
       <defs>
        <path id="SimHei-36" d="M 250 1612 
Q 275 1975 387 2225 
Q 500 2475 725 2850 
L 1750 4450 
L 2325 4450 
L 1275 2800 
Q 1950 2975 2350 2750 
Q 2750 2525 2887 2237 
Q 3025 1950 3037 1612 
Q 3050 1275 2937 950 
Q 2825 625 2537 362 
Q 2250 100 1737 75 
Q 1225 50 862 262 
Q 500 475 362 862 
Q 225 1250 250 1612 
z
M 1025 787 
Q 1250 550 1625 525 
Q 2000 500 2250 775 
Q 2500 1050 2500 1575 
Q 2500 2100 2187 2300 
Q 1875 2500 1487 2450 
Q 1100 2400 925 2075 
Q 750 1750 775 1387 
Q 800 1025 1025 787 
z
" transform="scale(0.015625)"/>
       </defs>
       <use xlink:href="#SimHei-35"/>
       <use xlink:href="#SimHei-36" transform="translate(50 0)"/>
      </g>
     </g>
    </g>
    <g id="xtick_10">
     <g id="line2d_19">
      <path d="M 408.822734 204.634055 
L 408.822734 15.973217 
" clip-path="url(#peb44e748e0)" style="fill: none; stroke: #ffffff; stroke-opacity: 0.7; stroke-width: 0.8; stroke-linecap: square"/>
     </g>
     <g id="line2d_20">
      <g>
       <use xlink:href="#md01d3aa2f5" x="408.822734" y="204.634055" style="stroke: #000000; stroke-width: 0.8"/>
      </g>
     </g>
     <g id="text_10">
      <!-- 63 -->
      <g transform="translate(401.822734 221.259055) scale(0.14 -0.14)">
       <use xlink:href="#SimHei-36"/>
       <use xlink:href="#SimHei-33" transform="translate(50 0)"/>
      </g>
     </g>
    </g>
    <g id="xtick_11">
     <g id="line2d_21">
      <path d="M 446.96144 204.634055 
L 446.96144 15.973217 
" clip-path="url(#peb44e748e0)" style="fill: none; stroke: #ffffff; stroke-opacity: 0.7; stroke-width: 0.8; stroke-linecap: square"/>
     </g>
     <g id="line2d_22">
      <g>
       <use xlink:href="#md01d3aa2f5" x="446.96144" y="204.634055" style="stroke: #000000; stroke-width: 0.8"/>
      </g>
     </g>
     <g id="text_11">
      <!-- 70 -->
      <g transform="translate(439.96144 221.259055) scale(0.14 -0.14)">
       <use xlink:href="#SimHei-37"/>
       <use xlink:href="#SimHei-30" transform="translate(50 0)"/>
      </g>
     </g>
    </g>
    <g id="xtick_12">
     <g id="line2d_23">
      <path d="M 485.100147 204.634055 
L 485.100147 15.973217 
" clip-path="url(#peb44e748e0)" style="fill: none; stroke: #ffffff; stroke-opacity: 0.7; stroke-width: 0.8; stroke-linecap: square"/>
     </g>
     <g id="line2d_24">
      <g>
       <use xlink:href="#md01d3aa2f5" x="485.100147" y="204.634055" style="stroke: #000000; stroke-width: 0.8"/>
      </g>
     </g>
     <g id="text_12">
      <!-- 77 -->
      <g transform="translate(478.100147 221.259055) scale(0.14 -0.14)">
       <use xlink:href="#SimHei-37"/>
       <use xlink:href="#SimHei-37" transform="translate(50 0)"/>
      </g>
     </g>
    </g>
    <g id="xtick_13">
     <g id="line2d_25">
      <path d="M 523.238854 204.634055 
L 523.238854 15.973217 
" clip-path="url(#peb44e748e0)" style="fill: none; stroke: #ffffff; stroke-opacity: 0.7; stroke-width: 0.8; stroke-linecap: square"/>
     </g>
     <g id="line2d_26">
      <g>
       <use xlink:href="#md01d3aa2f5" x="523.238854" y="204.634055" style="stroke: #000000; stroke-width: 0.8"/>
      </g>
     </g>
     <g id="text_13">
      <!-- 84 -->
      <g transform="translate(516.238854 221.259055) scale(0.14 -0.14)">
       <use xlink:href="#SimHei-38"/>
       <use xlink:href="#SimHei-34" transform="translate(50 0)"/>
      </g>
     </g>
    </g>
    <g id="text_14">
     <!-- 时间/d -->
     <g transform="translate(283.751774 247.423117) scale(0.18 -0.18)">
      <defs>
       <path id="SimHei-65f6" d="M 2525 4575 
Q 2500 3675 2500 2400 
Q 2500 1125 2525 400 
L 2000 400 
L 2000 875 
L 1000 875 
L 1000 50 
L 475 50 
Q 500 1200 500 2350 
Q 500 3525 475 4575 
L 2525 4575 
z
M 4875 3825 
Q 4875 4575 4850 5225 
L 5400 5225 
Q 5375 4575 5375 3825 
Q 5750 3825 6175 3850 
L 6175 3375 
Q 5750 3400 5375 3400 
L 5375 50 
Q 5375 -325 5075 -425 
Q 4775 -525 4300 -575 
Q 4300 -275 4025 0 
Q 4500 -50 4687 -25 
Q 4875 0 4875 300 
L 4875 3400 
Q 3625 3400 2775 3375 
L 2775 3850 
Q 3575 3825 4875 3825 
z
M 2000 1300 
L 2000 2550 
L 1000 2550 
L 1000 1300 
L 2000 1300 
z
M 2000 2975 
L 2000 4150 
L 1000 4150 
L 1000 2975 
L 2000 2975 
z
M 3550 2725 
Q 3875 2200 4175 1600 
Q 3925 1525 3650 1375 
Q 3450 1975 3075 2500 
Q 3300 2600 3550 2725 
z
" transform="scale(0.015625)"/>
       <path id="SimHei-95f4" d="M 4450 3550 
Q 4425 3075 4425 2725 
L 4425 1400 
Q 4425 1075 4450 625 
L 1925 625 
Q 1950 1075 1950 1425 
L 1950 2725 
Q 1950 3075 1925 3550 
L 4450 3550 
z
M 5800 4875 
Q 5775 4400 5775 3925 
L 5775 250 
Q 5800 -325 5462 -450 
Q 5125 -575 4725 -625 
Q 4700 -325 4525 -25 
Q 5000 -50 5137 25 
Q 5275 100 5275 350 
L 5275 4450 
L 3775 4450 
Q 3175 4450 2650 4425 
L 2650 4900 
Q 3175 4875 3775 4875 
L 5800 4875 
z
M 550 -525 
Q 600 -25 600 525 
L 600 3150 
Q 600 3675 550 4025 
L 1125 4025 
Q 1100 3650 1100 3300 
L 1100 500 
Q 1100 0 1125 -525 
L 550 -525 
z
M 3950 1025 
L 3950 1950 
L 2425 1950 
L 2425 1025 
L 3950 1025 
z
M 3950 2350 
L 3950 3150 
L 2425 3150 
L 2425 2350 
L 3950 2350 
z
M 1525 5300 
Q 1750 5000 2225 4350 
Q 1950 4225 1700 4075 
Q 1450 4575 1075 5025 
Q 1350 5225 1525 5300 
z
" transform="scale(0.015625)"/>
       <path id="SimHei-2f" d="M 3000 4550 
L 350 -175 
L 100 -25 
L 2750 4700 
L 3000 4550 
z
" transform="scale(0.015625)"/>
       <path id="SimHei-64" d="M 2750 125 
L 2250 125 
L 2250 500 
Q 2100 275 1900 175 
Q 1700 75 1425 75 
Q 925 75 575 437 
Q 225 800 225 1525 
Q 225 2250 575 2625 
Q 925 3000 1425 3000 
Q 1700 3000 1900 2887 
Q 2100 2775 2250 2550 
L 2250 4400 
L 2750 4400 
L 2750 125 
z
M 2250 1525 
Q 2250 2000 2037 2275 
Q 1825 2550 1525 2550 
Q 1150 2550 962 2275 
Q 775 2000 775 1525 
Q 775 1050 962 787 
Q 1150 525 1525 525 
Q 1825 525 2037 787 
Q 2250 1050 2250 1525 
z
" transform="scale(0.015625)"/>
      </defs>
      <use xlink:href="#SimHei-65f6"/>
      <use xlink:href="#SimHei-95f4" transform="translate(100 0)"/>
      <use xlink:href="#SimHei-2f" transform="translate(200 0)"/>
      <use xlink:href="#SimHei-64" transform="translate(250 0)"/>
     </g>
    </g>
   </g>
   <g id="matplotlib.axis_2">
    <g id="ytick_1">
     <g id="line2d_27">
      <path d="M 65.574375 200.97743 
L 555.929173 200.97743 
" clip-path="url(#peb44e748e0)" style="fill: none; stroke: #ffffff; stroke-opacity: 0.7; stroke-width: 0.8; stroke-linecap: square"/>
     </g>
     <g id="line2d_28">
      <defs>
       <path id="m0c47b06666" d="M 0 0 
L -3.5 0 
" style="stroke: #000000; stroke-width: 0.8"/>
      </defs>
      <g>
       <use xlink:href="#m0c47b06666" x="65.574375" y="200.97743" style="stroke: #000000; stroke-width: 0.8"/>
      </g>
     </g>
     <g id="text_15">
      <!-- $10^0$ -->
      <g transform="translate(33.934375 206.61243) scale(0.14 -0.14)">
       <defs>
        <path id="DejaVuSans-31" d="M 794 531 
L 1825 531 
L 1825 4091 
L 703 3866 
L 703 4441 
L 1819 4666 
L 2450 4666 
L 2450 531 
L 3481 531 
L 3481 0 
L 794 0 
L 794 531 
z
" transform="scale(0.015625)"/>
        <path id="DejaVuSans-30" d="M 2034 4250 
Q 1547 4250 1301 3770 
Q 1056 3291 1056 2328 
Q 1056 1369 1301 889 
Q 1547 409 2034 409 
Q 2525 409 2770 889 
Q 3016 1369 3016 2328 
Q 3016 3291 2770 3770 
Q 2525 4250 2034 4250 
z
M 2034 4750 
Q 2819 4750 3233 4129 
Q 3647 3509 3647 2328 
Q 3647 1150 3233 529 
Q 2819 -91 2034 -91 
Q 1250 -91 836 529 
Q 422 1150 422 2328 
Q 422 3509 836 4129 
Q 1250 4750 2034 4750 
z
" transform="scale(0.015625)"/>
       </defs>
       <use xlink:href="#DejaVuSans-31" transform="translate(0 0.765625)"/>
       <use xlink:href="#DejaVuSans-30" transform="translate(63.623047 0.765625)"/>
       <use xlink:href="#DejaVuSans-30" transform="translate(128.203125 39.046875) scale(0.7)"/>
      </g>
     </g>
    </g>
    <g id="ytick_2">
     <g id="line2d_29">
      <path d="M 65.574375 163.245262 
L 555.929173 163.245262 
" clip-path="url(#peb44e748e0)" style="fill: none; stroke: #ffffff; stroke-opacity: 0.7; stroke-width: 0.8; stroke-linecap: square"/>
     </g>
     <g id="line2d_30">
      <g>
       <use xlink:href="#m0c47b06666" x="65.574375" y="163.245262" style="stroke: #000000; stroke-width: 0.8"/>
      </g>
     </g>
     <g id="text_16">
      <!-- $10^1$ -->
      <g transform="translate(33.934375 168.810262) scale(0.14 -0.14)">
       <use xlink:href="#DejaVuSans-31" transform="translate(0 0.684375)"/>
       <use xlink:href="#DejaVuSans-30" transform="translate(63.623047 0.684375)"/>
       <use xlink:href="#DejaVuSans-31" transform="translate(128.203125 38.965625) scale(0.7)"/>
      </g>
     </g>
    </g>
    <g id="ytick_3">
     <g id="line2d_31">
      <path d="M 65.574375 125.513095 
L 555.929173 125.513095 
" clip-path="url(#peb44e748e0)" style="fill: none; stroke: #ffffff; stroke-opacity: 0.7; stroke-width: 0.8; stroke-linecap: square"/>
     </g>
     <g id="line2d_32">
      <g>
       <use xlink:href="#m0c47b06666" x="65.574375" y="125.513095" style="stroke: #000000; stroke-width: 0.8"/>
      </g>
     </g>
     <g id="text_17">
      <!-- $10^2$ -->
      <g transform="translate(33.934375 131.148095) scale(0.14 -0.14)">
       <defs>
        <path id="DejaVuSans-32" d="M 1228 531 
L 3431 531 
L 3431 0 
L 469 0 
L 469 531 
Q 828 903 1448 1529 
Q 2069 2156 2228 2338 
Q 2531 2678 2651 2914 
Q 2772 3150 2772 3378 
Q 2772 3750 2511 3984 
Q 2250 4219 1831 4219 
Q 1534 4219 1204 4116 
Q 875 4013 500 3803 
L 500 4441 
Q 881 4594 1212 4672 
Q 1544 4750 1819 4750 
Q 2544 4750 2975 4387 
Q 3406 4025 3406 3419 
Q 3406 3131 3298 2873 
Q 3191 2616 2906 2266 
Q 2828 2175 2409 1742 
Q 1991 1309 1228 531 
z
" transform="scale(0.015625)"/>
       </defs>
       <use xlink:href="#DejaVuSans-31" transform="translate(0 0.765625)"/>
       <use xlink:href="#DejaVuSans-30" transform="translate(63.623047 0.765625)"/>
       <use xlink:href="#DejaVuSans-32" transform="translate(128.203125 39.046875) scale(0.7)"/>
      </g>
     </g>
    </g>
    <g id="ytick_4">
     <g id="line2d_33">
      <path d="M 65.574375 87.780927 
L 555.929173 87.780927 
" clip-path="url(#peb44e748e0)" style="fill: none; stroke: #ffffff; stroke-opacity: 0.7; stroke-width: 0.8; stroke-linecap: square"/>
     </g>
     <g id="line2d_34">
      <g>
       <use xlink:href="#m0c47b06666" x="65.574375" y="87.780927" style="stroke: #000000; stroke-width: 0.8"/>
      </g>
     </g>
     <g id="text_18">
      <!-- $10^3$ -->
      <g transform="translate(33.934375 93.415927) scale(0.14 -0.14)">
       <defs>
        <path id="DejaVuSans-33" d="M 2597 2516 
Q 3050 2419 3304 2112 
Q 3559 1806 3559 1356 
Q 3559 666 3084 287 
Q 2609 -91 1734 -91 
Q 1441 -91 1130 -33 
Q 819 25 488 141 
L 488 750 
Q 750 597 1062 519 
Q 1375 441 1716 441 
Q 2309 441 2620 675 
Q 2931 909 2931 1356 
Q 2931 1769 2642 2001 
Q 2353 2234 1838 2234 
L 1294 2234 
L 1294 2753 
L 1863 2753 
Q 2328 2753 2575 2939 
Q 2822 3125 2822 3475 
Q 2822 3834 2567 4026 
Q 2313 4219 1838 4219 
Q 1578 4219 1281 4162 
Q 984 4106 628 3988 
L 628 4550 
Q 988 4650 1302 4700 
Q 1616 4750 1894 4750 
Q 2613 4750 3031 4423 
Q 3450 4097 3450 3541 
Q 3450 3153 3228 2886 
Q 3006 2619 2597 2516 
z
" transform="scale(0.015625)"/>
       </defs>
       <use xlink:href="#DejaVuSans-31" transform="translate(0 0.765625)"/>
       <use xlink:href="#DejaVuSans-30" transform="translate(63.623047 0.765625)"/>
       <use xlink:href="#DejaVuSans-33" transform="translate(128.203125 39.046875) scale(0.7)"/>
      </g>
     </g>
    </g>
    <g id="ytick_5">
     <g id="line2d_35">
      <path d="M 65.574375 50.04876 
L 555.929173 50.04876 
" clip-path="url(#peb44e748e0)" style="fill: none; stroke: #ffffff; stroke-opacity: 0.7; stroke-width: 0.8; stroke-linecap: square"/>
     </g>
     <g id="line2d_36">
      <g>
       <use xlink:href="#m0c47b06666" x="65.574375" y="50.04876" style="stroke: #000000; stroke-width: 0.8"/>
      </g>
     </g>
     <g id="text_19">
      <!-- $10^4$ -->
      <g transform="translate(33.934375 55.61376) scale(0.14 -0.14)">
       <defs>
        <path id="DejaVuSans-34" d="M 2419 4116 
L 825 1625 
L 2419 1625 
L 2419 4116 
z
M 2253 4666 
L 3047 4666 
L 3047 1625 
L 3713 1625 
L 3713 1100 
L 3047 1100 
L 3047 0 
L 2419 0 
L 2419 1100 
L 313 1100 
L 313 1709 
L 2253 4666 
z
" transform="scale(0.015625)"/>
       </defs>
       <use xlink:href="#DejaVuSans-31" transform="translate(0 0.684375)"/>
       <use xlink:href="#DejaVuSans-30" transform="translate(63.623047 0.684375)"/>
       <use xlink:href="#DejaVuSans-34" transform="translate(128.203125 38.965625) scale(0.7)"/>
      </g>
     </g>
    </g>
    <g id="ytick_6">
     <g id="line2d_37">
      <path d="M 65.574375 204.634055 
L 555.929173 204.634055 
" clip-path="url(#peb44e748e0)" style="fill: none; stroke: #ffffff; stroke-opacity: 0.7; stroke-width: 0.8; stroke-linecap: square"/>
     </g>
     <g id="line2d_38">
      <defs>
       <path id="m8dfca90bb9" d="M 0 0 
L -2 0 
" style="stroke: #000000; stroke-width: 0.6"/>
      </defs>
      <g>
       <use xlink:href="#m8dfca90bb9" x="65.574375" y="204.634055" style="stroke: #000000; stroke-width: 0.6"/>
      </g>
     </g>
    </g>
    <g id="ytick_7">
     <g id="line2d_39">
      <path d="M 65.574375 202.703959 
L 555.929173 202.703959 
" clip-path="url(#peb44e748e0)" style="fill: none; stroke: #ffffff; stroke-opacity: 0.7; stroke-width: 0.8; stroke-linecap: square"/>
     </g>
     <g id="line2d_40">
      <g>
       <use xlink:href="#m8dfca90bb9" x="65.574375" y="202.703959" style="stroke: #000000; stroke-width: 0.6"/>
      </g>
     </g>
    </g>
    <g id="ytick_8">
     <g id="line2d_41">
      <path d="M 65.574375 189.618916 
L 555.929173 189.618916 
" clip-path="url(#peb44e748e0)" style="fill: none; stroke: #ffffff; stroke-opacity: 0.7; stroke-width: 0.8; stroke-linecap: square"/>
     </g>
     <g id="line2d_42">
      <g>
       <use xlink:href="#m8dfca90bb9" x="65.574375" y="189.618916" style="stroke: #000000; stroke-width: 0.6"/>
      </g>
     </g>
    </g>
    <g id="ytick_9">
     <g id="line2d_43">
      <path d="M 65.574375 182.974611 
L 555.929173 182.974611 
" clip-path="url(#peb44e748e0)" style="fill: none; stroke: #ffffff; stroke-opacity: 0.7; stroke-width: 0.8; stroke-linecap: square"/>
     </g>
     <g id="line2d_44">
      <g>
       <use xlink:href="#m8dfca90bb9" x="65.574375" y="182.974611" style="stroke: #000000; stroke-width: 0.6"/>
      </g>
     </g>
    </g>
    <g id="ytick_10">
     <g id="line2d_45">
      <path d="M 65.574375 178.260402 
L 555.929173 178.260402 
" clip-path="url(#peb44e748e0)" style="fill: none; stroke: #ffffff; stroke-opacity: 0.7; stroke-width: 0.8; stroke-linecap: square"/>
     </g>
     <g id="line2d_46">
      <g>
       <use xlink:href="#m8dfca90bb9" x="65.574375" y="178.260402" style="stroke: #000000; stroke-width: 0.6"/>
      </g>
     </g>
    </g>
    <g id="ytick_11">
     <g id="line2d_47">
      <path d="M 65.574375 174.603777 
L 555.929173 174.603777 
" clip-path="url(#peb44e748e0)" style="fill: none; stroke: #ffffff; stroke-opacity: 0.7; stroke-width: 0.8; stroke-linecap: square"/>
     </g>
     <g id="line2d_48">
      <g>
       <use xlink:href="#m8dfca90bb9" x="65.574375" y="174.603777" style="stroke: #000000; stroke-width: 0.6"/>
      </g>
     </g>
    </g>
    <g id="ytick_12">
     <g id="line2d_49">
      <path d="M 65.574375 171.616097 
L 555.929173 171.616097 
" clip-path="url(#peb44e748e0)" style="fill: none; stroke: #ffffff; stroke-opacity: 0.7; stroke-width: 0.8; stroke-linecap: square"/>
     </g>
     <g id="line2d_50">
      <g>
       <use xlink:href="#m8dfca90bb9" x="65.574375" y="171.616097" style="stroke: #000000; stroke-width: 0.6"/>
      </g>
     </g>
    </g>
    <g id="ytick_13">
     <g id="line2d_51">
      <path d="M 65.574375 169.090049 
L 555.929173 169.090049 
" clip-path="url(#peb44e748e0)" style="fill: none; stroke: #ffffff; stroke-opacity: 0.7; stroke-width: 0.8; stroke-linecap: square"/>
     </g>
     <g id="line2d_52">
      <g>
       <use xlink:href="#m8dfca90bb9" x="65.574375" y="169.090049" style="stroke: #000000; stroke-width: 0.6"/>
      </g>
     </g>
    </g>
    <g id="ytick_14">
     <g id="line2d_53">
      <path d="M 65.574375 166.901887 
L 555.929173 166.901887 
" clip-path="url(#peb44e748e0)" style="fill: none; stroke: #ffffff; stroke-opacity: 0.7; stroke-width: 0.8; stroke-linecap: square"/>
     </g>
     <g id="line2d_54">
      <g>
       <use xlink:href="#m8dfca90bb9" x="65.574375" y="166.901887" style="stroke: #000000; stroke-width: 0.6"/>
      </g>
     </g>
    </g>
    <g id="ytick_15">
     <g id="line2d_55">
      <path d="M 65.574375 164.971792 
L 555.929173 164.971792 
" clip-path="url(#peb44e748e0)" style="fill: none; stroke: #ffffff; stroke-opacity: 0.7; stroke-width: 0.8; stroke-linecap: square"/>
     </g>
     <g id="line2d_56">
      <g>
       <use xlink:href="#m8dfca90bb9" x="65.574375" y="164.971792" style="stroke: #000000; stroke-width: 0.6"/>
      </g>
     </g>
    </g>
    <g id="ytick_16">
     <g id="line2d_57">
      <path d="M 65.574375 151.886748 
L 555.929173 151.886748 
" clip-path="url(#peb44e748e0)" style="fill: none; stroke: #ffffff; stroke-opacity: 0.7; stroke-width: 0.8; stroke-linecap: square"/>
     </g>
     <g id="line2d_58">
      <g>
       <use xlink:href="#m8dfca90bb9" x="65.574375" y="151.886748" style="stroke: #000000; stroke-width: 0.6"/>
      </g>
     </g>
    </g>
    <g id="ytick_17">
     <g id="line2d_59">
      <path d="M 65.574375 145.242443 
L 555.929173 145.242443 
" clip-path="url(#peb44e748e0)" style="fill: none; stroke: #ffffff; stroke-opacity: 0.7; stroke-width: 0.8; stroke-linecap: square"/>
     </g>
     <g id="line2d_60">
      <g>
       <use xlink:href="#m8dfca90bb9" x="65.574375" y="145.242443" style="stroke: #000000; stroke-width: 0.6"/>
      </g>
     </g>
    </g>
    <g id="ytick_18">
     <g id="line2d_61">
      <path d="M 65.574375 140.528234 
L 555.929173 140.528234 
" clip-path="url(#peb44e748e0)" style="fill: none; stroke: #ffffff; stroke-opacity: 0.7; stroke-width: 0.8; stroke-linecap: square"/>
     </g>
     <g id="line2d_62">
      <g>
       <use xlink:href="#m8dfca90bb9" x="65.574375" y="140.528234" style="stroke: #000000; stroke-width: 0.6"/>
      </g>
     </g>
    </g>
    <g id="ytick_19">
     <g id="line2d_63">
      <path d="M 65.574375 136.871609 
L 555.929173 136.871609 
" clip-path="url(#peb44e748e0)" style="fill: none; stroke: #ffffff; stroke-opacity: 0.7; stroke-width: 0.8; stroke-linecap: square"/>
     </g>
     <g id="line2d_64">
      <g>
       <use xlink:href="#m8dfca90bb9" x="65.574375" y="136.871609" style="stroke: #000000; stroke-width: 0.6"/>
      </g>
     </g>
    </g>
    <g id="ytick_20">
     <g id="line2d_65">
      <path d="M 65.574375 133.883929 
L 555.929173 133.883929 
" clip-path="url(#peb44e748e0)" style="fill: none; stroke: #ffffff; stroke-opacity: 0.7; stroke-width: 0.8; stroke-linecap: square"/>
     </g>
     <g id="line2d_66">
      <g>
       <use xlink:href="#m8dfca90bb9" x="65.574375" y="133.883929" style="stroke: #000000; stroke-width: 0.6"/>
      </g>
     </g>
    </g>
    <g id="ytick_21">
     <g id="line2d_67">
      <path d="M 65.574375 131.357882 
L 555.929173 131.357882 
" clip-path="url(#peb44e748e0)" style="fill: none; stroke: #ffffff; stroke-opacity: 0.7; stroke-width: 0.8; stroke-linecap: square"/>
     </g>
     <g id="line2d_68">
      <g>
       <use xlink:href="#m8dfca90bb9" x="65.574375" y="131.357882" style="stroke: #000000; stroke-width: 0.6"/>
      </g>
     </g>
    </g>
    <g id="ytick_22">
     <g id="line2d_69">
      <path d="M 65.574375 129.16972 
L 555.929173 129.16972 
" clip-path="url(#peb44e748e0)" style="fill: none; stroke: #ffffff; stroke-opacity: 0.7; stroke-width: 0.8; stroke-linecap: square"/>
     </g>
     <g id="line2d_70">
      <g>
       <use xlink:href="#m8dfca90bb9" x="65.574375" y="129.16972" style="stroke: #000000; stroke-width: 0.6"/>
      </g>
     </g>
    </g>
    <g id="ytick_23">
     <g id="line2d_71">
      <path d="M 65.574375 127.239624 
L 555.929173 127.239624 
" clip-path="url(#peb44e748e0)" style="fill: none; stroke: #ffffff; stroke-opacity: 0.7; stroke-width: 0.8; stroke-linecap: square"/>
     </g>
     <g id="line2d_72">
      <g>
       <use xlink:href="#m8dfca90bb9" x="65.574375" y="127.239624" style="stroke: #000000; stroke-width: 0.6"/>
      </g>
     </g>
    </g>
    <g id="ytick_24">
     <g id="line2d_73">
      <path d="M 65.574375 114.154581 
L 555.929173 114.154581 
" clip-path="url(#peb44e748e0)" style="fill: none; stroke: #ffffff; stroke-opacity: 0.7; stroke-width: 0.8; stroke-linecap: square"/>
     </g>
     <g id="line2d_74">
      <g>
       <use xlink:href="#m8dfca90bb9" x="65.574375" y="114.154581" style="stroke: #000000; stroke-width: 0.6"/>
      </g>
     </g>
    </g>
    <g id="ytick_25">
     <g id="line2d_75">
      <path d="M 65.574375 107.510276 
L 555.929173 107.510276 
" clip-path="url(#peb44e748e0)" style="fill: none; stroke: #ffffff; stroke-opacity: 0.7; stroke-width: 0.8; stroke-linecap: square"/>
     </g>
     <g id="line2d_76">
      <g>
       <use xlink:href="#m8dfca90bb9" x="65.574375" y="107.510276" style="stroke: #000000; stroke-width: 0.6"/>
      </g>
     </g>
    </g>
    <g id="ytick_26">
     <g id="line2d_77">
      <path d="M 65.574375 102.796066 
L 555.929173 102.796066 
" clip-path="url(#peb44e748e0)" style="fill: none; stroke: #ffffff; stroke-opacity: 0.7; stroke-width: 0.8; stroke-linecap: square"/>
     </g>
     <g id="line2d_78">
      <g>
       <use xlink:href="#m8dfca90bb9" x="65.574375" y="102.796066" style="stroke: #000000; stroke-width: 0.6"/>
      </g>
     </g>
    </g>
    <g id="ytick_27">
     <g id="line2d_79">
      <path d="M 65.574375 99.139441 
L 555.929173 99.139441 
" clip-path="url(#peb44e748e0)" style="fill: none; stroke: #ffffff; stroke-opacity: 0.7; stroke-width: 0.8; stroke-linecap: square"/>
     </g>
     <g id="line2d_80">
      <g>
       <use xlink:href="#m8dfca90bb9" x="65.574375" y="99.139441" style="stroke: #000000; stroke-width: 0.6"/>
      </g>
     </g>
    </g>
    <g id="ytick_28">
     <g id="line2d_81">
      <path d="M 65.574375 96.151761 
L 555.929173 96.151761 
" clip-path="url(#peb44e748e0)" style="fill: none; stroke: #ffffff; stroke-opacity: 0.7; stroke-width: 0.8; stroke-linecap: square"/>
     </g>
     <g id="line2d_82">
      <g>
       <use xlink:href="#m8dfca90bb9" x="65.574375" y="96.151761" style="stroke: #000000; stroke-width: 0.6"/>
      </g>
     </g>
    </g>
    <g id="ytick_29">
     <g id="line2d_83">
      <path d="M 65.574375 93.625714 
L 555.929173 93.625714 
" clip-path="url(#peb44e748e0)" style="fill: none; stroke: #ffffff; stroke-opacity: 0.7; stroke-width: 0.8; stroke-linecap: square"/>
     </g>
     <g id="line2d_84">
      <g>
       <use xlink:href="#m8dfca90bb9" x="65.574375" y="93.625714" style="stroke: #000000; stroke-width: 0.6"/>
      </g>
     </g>
    </g>
    <g id="ytick_30">
     <g id="line2d_85">
      <path d="M 65.574375 91.437552 
L 555.929173 91.437552 
" clip-path="url(#peb44e748e0)" style="fill: none; stroke: #ffffff; stroke-opacity: 0.7; stroke-width: 0.8; stroke-linecap: square"/>
     </g>
     <g id="line2d_86">
      <g>
       <use xlink:href="#m8dfca90bb9" x="65.574375" y="91.437552" style="stroke: #000000; stroke-width: 0.6"/>
      </g>
     </g>
    </g>
    <g id="ytick_31">
     <g id="line2d_87">
      <path d="M 65.574375 89.507456 
L 555.929173 89.507456 
" clip-path="url(#peb44e748e0)" style="fill: none; stroke: #ffffff; stroke-opacity: 0.7; stroke-width: 0.8; stroke-linecap: square"/>
     </g>
     <g id="line2d_88">
      <g>
       <use xlink:href="#m8dfca90bb9" x="65.574375" y="89.507456" style="stroke: #000000; stroke-width: 0.6"/>
      </g>
     </g>
    </g>
    <g id="ytick_32">
     <g id="line2d_89">
      <path d="M 65.574375 76.422413 
L 555.929173 76.422413 
" clip-path="url(#peb44e748e0)" style="fill: none; stroke: #ffffff; stroke-opacity: 0.7; stroke-width: 0.8; stroke-linecap: square"/>
     </g>
     <g id="line2d_90">
      <g>
       <use xlink:href="#m8dfca90bb9" x="65.574375" y="76.422413" style="stroke: #000000; stroke-width: 0.6"/>
      </g>
     </g>
    </g>
    <g id="ytick_33">
     <g id="line2d_91">
      <path d="M 65.574375 69.778108 
L 555.929173 69.778108 
" clip-path="url(#peb44e748e0)" style="fill: none; stroke: #ffffff; stroke-opacity: 0.7; stroke-width: 0.8; stroke-linecap: square"/>
     </g>
     <g id="line2d_92">
      <g>
       <use xlink:href="#m8dfca90bb9" x="65.574375" y="69.778108" style="stroke: #000000; stroke-width: 0.6"/>
      </g>
     </g>
    </g>
    <g id="ytick_34">
     <g id="line2d_93">
      <path d="M 65.574375 65.063899 
L 555.929173 65.063899 
" clip-path="url(#peb44e748e0)" style="fill: none; stroke: #ffffff; stroke-opacity: 0.7; stroke-width: 0.8; stroke-linecap: square"/>
     </g>
     <g id="line2d_94">
      <g>
       <use xlink:href="#m8dfca90bb9" x="65.574375" y="65.063899" style="stroke: #000000; stroke-width: 0.6"/>
      </g>
     </g>
    </g>
    <g id="ytick_35">
     <g id="line2d_95">
      <path d="M 65.574375 61.407274 
L 555.929173 61.407274 
" clip-path="url(#peb44e748e0)" style="fill: none; stroke: #ffffff; stroke-opacity: 0.7; stroke-width: 0.8; stroke-linecap: square"/>
     </g>
     <g id="line2d_96">
      <g>
       <use xlink:href="#m8dfca90bb9" x="65.574375" y="61.407274" style="stroke: #000000; stroke-width: 0.6"/>
      </g>
     </g>
    </g>
    <g id="ytick_36">
     <g id="line2d_97">
      <path d="M 65.574375 58.419594 
L 555.929173 58.419594 
" clip-path="url(#peb44e748e0)" style="fill: none; stroke: #ffffff; stroke-opacity: 0.7; stroke-width: 0.8; stroke-linecap: square"/>
     </g>
     <g id="line2d_98">
      <g>
       <use xlink:href="#m8dfca90bb9" x="65.574375" y="58.419594" style="stroke: #000000; stroke-width: 0.6"/>
      </g>
     </g>
    </g>
    <g id="ytick_37">
     <g id="line2d_99">
      <path d="M 65.574375 55.893546 
L 555.929173 55.893546 
" clip-path="url(#peb44e748e0)" style="fill: none; stroke: #ffffff; stroke-opacity: 0.7; stroke-width: 0.8; stroke-linecap: square"/>
     </g>
     <g id="line2d_100">
      <g>
       <use xlink:href="#m8dfca90bb9" x="65.574375" y="55.893546" style="stroke: #000000; stroke-width: 0.6"/>
      </g>
     </g>
    </g>
    <g id="ytick_38">
     <g id="line2d_101">
      <path d="M 65.574375 53.705384 
L 555.929173 53.705384 
" clip-path="url(#peb44e748e0)" style="fill: none; stroke: #ffffff; stroke-opacity: 0.7; stroke-width: 0.8; stroke-linecap: square"/>
     </g>
     <g id="line2d_102">
      <g>
       <use xlink:href="#m8dfca90bb9" x="65.574375" y="53.705384" style="stroke: #000000; stroke-width: 0.6"/>
      </g>
     </g>
    </g>
    <g id="ytick_39">
     <g id="line2d_103">
      <path d="M 65.574375 51.775289 
L 555.929173 51.775289 
" clip-path="url(#peb44e748e0)" style="fill: none; stroke: #ffffff; stroke-opacity: 0.7; stroke-width: 0.8; stroke-linecap: square"/>
     </g>
     <g id="line2d_104">
      <g>
       <use xlink:href="#m8dfca90bb9" x="65.574375" y="51.775289" style="stroke: #000000; stroke-width: 0.6"/>
      </g>
     </g>
    </g>
    <g id="ytick_40">
     <g id="line2d_105">
      <path d="M 65.574375 38.690245 
L 555.929173 38.690245 
" clip-path="url(#peb44e748e0)" style="fill: none; stroke: #ffffff; stroke-opacity: 0.7; stroke-width: 0.8; stroke-linecap: square"/>
     </g>
     <g id="line2d_106">
      <g>
       <use xlink:href="#m8dfca90bb9" x="65.574375" y="38.690245" style="stroke: #000000; stroke-width: 0.6"/>
      </g>
     </g>
    </g>
    <g id="ytick_41">
     <g id="line2d_107">
      <path d="M 65.574375 32.04594 
L 555.929173 32.04594 
" clip-path="url(#peb44e748e0)" style="fill: none; stroke: #ffffff; stroke-opacity: 0.7; stroke-width: 0.8; stroke-linecap: square"/>
     </g>
     <g id="line2d_108">
      <g>
       <use xlink:href="#m8dfca90bb9" x="65.574375" y="32.04594" style="stroke: #000000; stroke-width: 0.6"/>
      </g>
     </g>
    </g>
    <g id="ytick_42">
     <g id="line2d_109">
      <path d="M 65.574375 27.331731 
L 555.929173 27.331731 
" clip-path="url(#peb44e748e0)" style="fill: none; stroke: #ffffff; stroke-opacity: 0.7; stroke-width: 0.8; stroke-linecap: square"/>
     </g>
     <g id="line2d_110">
      <g>
       <use xlink:href="#m8dfca90bb9" x="65.574375" y="27.331731" style="stroke: #000000; stroke-width: 0.6"/>
      </g>
     </g>
    </g>
    <g id="ytick_43">
     <g id="line2d_111">
      <path d="M 65.574375 23.675106 
L 555.929173 23.675106 
" clip-path="url(#peb44e748e0)" style="fill: none; stroke: #ffffff; stroke-opacity: 0.7; stroke-width: 0.8; stroke-linecap: square"/>
     </g>
     <g id="line2d_112">
      <g>
       <use xlink:href="#m8dfca90bb9" x="65.574375" y="23.675106" style="stroke: #000000; stroke-width: 0.6"/>
      </g>
     </g>
    </g>
    <g id="ytick_44">
     <g id="line2d_113">
      <path d="M 65.574375 20.687426 
L 555.929173 20.687426 
" clip-path="url(#peb44e748e0)" style="fill: none; stroke: #ffffff; stroke-opacity: 0.7; stroke-width: 0.8; stroke-linecap: square"/>
     </g>
     <g id="line2d_114">
      <g>
       <use xlink:href="#m8dfca90bb9" x="65.574375" y="20.687426" style="stroke: #000000; stroke-width: 0.6"/>
      </g>
     </g>
    </g>
    <g id="ytick_45">
     <g id="line2d_115">
      <path d="M 65.574375 18.161379 
L 555.929173 18.161379 
" clip-path="url(#peb44e748e0)" style="fill: none; stroke: #ffffff; stroke-opacity: 0.7; stroke-width: 0.8; stroke-linecap: square"/>
     </g>
     <g id="line2d_116">
      <g>
       <use xlink:href="#m8dfca90bb9" x="65.574375" y="18.161379" style="stroke: #000000; stroke-width: 0.6"/>
      </g>
     </g>
    </g>
    <g id="ytick_46">
     <g id="line2d_117">
      <path d="M 65.574375 15.973217 
L 555.929173 15.973217 
" clip-path="url(#peb44e748e0)" style="fill: none; stroke: #ffffff; stroke-opacity: 0.7; stroke-width: 0.8; stroke-linecap: square"/>
     </g>
     <g id="line2d_118">
      <g>
       <use xlink:href="#m8dfca90bb9" x="65.574375" y="15.973217" style="stroke: #000000; stroke-width: 0.6"/>
      </g>
     </g>
    </g>
    <g id="text_20">
     <!-- 抗体相对浓度 -->
     <g transform="translate(21.684375 164.303636) rotate(-90) scale(0.18 -0.18)">
      <defs>
       <path id="SimHei-6297" d="M 6150 325 
Q 6050 -125 5950 -300 
Q 5850 -475 5550 -475 
L 5075 -475 
Q 4500 -475 4500 -50 
L 4500 2450 
L 3600 2450 
Q 3600 1650 3550 1150 
Q 3500 650 3337 325 
Q 3175 0 2975 -225 
Q 2775 -450 2575 -700 
Q 2375 -425 2125 -250 
Q 2500 -50 2762 362 
Q 3025 775 3087 1362 
Q 3150 1950 3100 2850 
L 5050 2850 
Q 5000 2400 5000 1800 
L 5000 250 
Q 5000 -50 5137 -62 
Q 5275 -75 5375 -75 
Q 5475 -75 5525 37 
Q 5575 150 5625 600 
Q 5875 375 6150 325 
z
M 425 1200 
Q 350 1500 225 1800 
Q 475 1875 1175 2075 
L 1175 3350 
Q 625 3350 300 3325 
L 300 3775 
Q 600 3750 1175 3725 
Q 1175 4525 1125 5200 
L 1675 5200 
Q 1650 4575 1650 3725 
Q 1800 3750 2250 3775 
L 2250 3325 
Q 1800 3350 1650 3350 
L 1650 2225 
Q 2100 2375 2400 2500 
Q 2400 2275 2450 2075 
Q 2125 1950 1650 1750 
L 1650 175 
Q 1650 -225 1475 -362 
Q 1300 -500 700 -625 
Q 675 -400 550 0 
Q 1025 -50 1100 50 
Q 1175 150 1175 300 
L 1175 1575 
Q 600 1300 425 1200 
z
M 5075 4000 
Q 5500 4025 6000 4050 
L 6000 3550 
Q 5500 3600 5100 3600 
L 3400 3600 
Q 2925 3600 2500 3550 
L 2500 4050 
Q 2925 4025 3400 4000 
L 5075 4000 
z
M 4125 5200 
Q 4375 4625 4475 4425 
Q 4200 4350 4000 4225 
Q 3900 4425 3650 5000 
Q 3875 5100 4125 5200 
z
" transform="scale(0.015625)"/>
       <path id="SimHei-4f53" d="M 3650 3850 
Q 3650 4750 3625 5125 
L 4125 5125 
Q 4100 4775 4100 3850 
L 5200 3850 
Q 5700 3850 5925 3875 
L 5925 3425 
Q 5700 3450 5200 3450 
L 4525 3450 
Q 4925 1850 6200 1200 
Q 5925 1050 5775 775 
Q 4425 1800 4100 3425 
L 4100 1025 
Q 4825 1025 5050 1050 
L 5050 600 
Q 4825 625 4100 625 
Q 4100 75 4125 -575 
L 3625 -575 
Q 3650 100 3650 625 
Q 3200 625 2700 600 
L 2700 1050 
Q 3200 1025 3650 1025 
L 3650 3450 
Q 3375 1800 2000 650 
Q 1850 875 1550 1025 
Q 2850 1875 3200 3450 
L 2675 3450 
Q 2275 3450 1975 3425 
L 1975 3875 
Q 2275 3850 2675 3850 
L 3650 3850 
z
M 2000 4900 
Q 1825 4675 1525 3775 
L 1525 575 
Q 1525 -200 1550 -550 
L 1050 -550 
Q 1075 -225 1075 550 
L 1075 2900 
Q 950 2625 575 2050 
Q 450 2275 225 2425 
Q 525 2725 925 3612 
Q 1325 4500 1425 5125 
Q 1700 5000 2000 4900 
z
" transform="scale(0.015625)"/>
       <path id="SimHei-76f8" d="M 5900 4825 
Q 5875 4225 5875 3575 
L 5875 750 
Q 5875 75 5900 -575 
L 5400 -575 
L 5400 -100 
L 3525 -100 
L 3525 -625 
L 3025 -625 
Q 3050 125 3050 675 
L 3050 3600 
Q 3050 4250 3025 4825 
L 5900 4825 
z
M 1400 3825 
Q 1400 4850 1375 5200 
L 1925 5200 
Q 1900 4825 1900 3825 
Q 2500 3825 2825 3850 
L 2825 3375 
Q 2525 3400 1900 3400 
L 1900 2450 
Q 2025 2575 2175 2750 
Q 2625 2275 2950 1825 
Q 2800 1725 2575 1500 
Q 2300 1975 1900 2375 
L 1900 475 
Q 1900 50 1925 -625 
L 1375 -625 
Q 1400 50 1400 450 
L 1400 2150 
Q 1075 1225 650 675 
Q 475 950 300 1100 
Q 475 1250 800 1887 
Q 1125 2525 1300 3400 
Q 750 3400 400 3375 
L 400 3850 
Q 850 3825 1400 3825 
z
M 5400 325 
L 5400 1475 
L 3525 1475 
L 3525 325 
L 5400 325 
z
M 5400 3300 
L 5400 4400 
L 3525 4400 
L 3525 3300 
L 5400 3300 
z
M 5400 1900 
L 5400 2900 
L 3525 2900 
L 3525 1900 
L 5400 1900 
z
" transform="scale(0.015625)"/>
       <path id="SimHei-5bf9" d="M 525 4250 
Q 900 4225 1400 4225 
L 2825 4225 
Q 2575 2625 2200 1750 
Q 2825 875 3125 400 
Q 2950 275 2725 75 
Q 2200 975 1950 1300 
Q 1650 775 1350 425 
Q 1050 75 600 -350 
Q 425 -125 200 -25 
Q 625 275 975 675 
Q 1325 1075 1650 1700 
Q 1050 2425 550 2900 
Q 700 3025 900 3225 
Q 1625 2425 1875 2150 
Q 2200 3050 2300 3825 
L 1400 3825 
Q 900 3825 525 3800 
L 525 4250 
z
M 2925 3700 
Q 3525 3675 3750 3675 
L 4825 3675 
L 4825 4425 
Q 4825 4750 4775 5125 
L 5350 5125 
Q 5325 4825 5325 4375 
L 5325 3675 
Q 5575 3675 6150 3700 
L 6150 3250 
Q 5575 3275 5325 3275 
L 5325 125 
Q 5350 -350 5012 -475 
Q 4675 -600 4250 -650 
Q 4175 -350 4025 -100 
Q 4575 -100 4712 -37 
Q 4850 25 4825 325 
L 4825 3275 
L 3775 3275 
Q 3550 3275 2925 3225 
L 2925 3700 
z
M 3450 2725 
Q 3875 1975 4175 1325 
Q 3850 1200 3700 1075 
Q 3475 1750 3050 2475 
Q 3225 2550 3450 2725 
z
" transform="scale(0.015625)"/>
       <path id="SimHei-6d53" d="M 5775 2250 
Q 5600 2150 5325 1937 
Q 5050 1725 4725 1425 
Q 4925 1025 5387 600 
Q 5850 175 6150 100 
Q 5875 -150 5750 -375 
Q 5025 50 4500 862 
Q 3975 1675 3650 2825 
Q 3550 2625 3325 2225 
L 3325 275 
Q 3600 500 3950 850 
Q 4125 525 4225 375 
Q 3900 150 3550 -150 
Q 3200 -450 3000 -625 
Q 2850 -375 2700 -225 
Q 2850 -75 2875 200 
L 2875 1625 
Q 2550 1175 2000 700 
Q 1800 900 1550 1025 
Q 1975 1325 2350 1725 
Q 2725 2150 3012 2625 
Q 3300 3100 3525 3950 
L 2500 3950 
L 2500 3225 
L 1975 3225 
Q 2025 3500 1975 4350 
L 3600 4350 
Q 3700 5000 3675 5250 
Q 4000 5175 4300 5150 
Q 4225 4950 4125 4350 
L 5775 4350 
Q 5750 3550 5775 3250 
L 5275 3250 
L 5275 3950 
L 4025 3950 
Q 3975 3725 3900 3525 
Q 4200 2425 4525 1825 
Q 4975 2175 5350 2700 
Q 5550 2450 5775 2250 
z
M 250 -200 
Q 450 75 725 675 
Q 1000 1275 1175 1950 
Q 1450 1750 1650 1675 
Q 1375 1050 1200 525 
Q 1025 0 850 -450 
Q 550 -250 250 -200 
z
M 1400 2475 
Q 925 2825 300 3075 
Q 400 3300 525 3550 
Q 1225 3225 1675 2925 
Q 1500 2650 1400 2475 
z
M 1550 3925 
Q 1175 4300 600 4675 
Q 725 4850 900 5075 
Q 1550 4625 1875 4325 
Q 1650 4100 1550 3925 
z
" transform="scale(0.015625)"/>
       <path id="SimHei-5ea6" d="M 1750 1675 
Q 2450 1650 2875 1650 
L 5200 1650 
Q 4975 1250 4650 850 
Q 4325 450 4025 200 
Q 4350 50 4950 -50 
Q 5550 -150 6100 -150 
Q 5950 -300 5825 -650 
Q 5100 -550 4550 -412 
Q 4000 -275 3625 -100 
Q 3100 -325 2587 -462 
Q 2075 -600 1525 -675 
Q 1450 -475 1225 -250 
Q 1675 -250 2250 -125 
Q 2825 0 3250 200 
Q 2825 550 2400 1275 
L 1750 1250 
L 1750 1675 
z
M 2975 5075 
Q 3250 5150 3475 5250 
Q 3625 4975 3775 4525 
L 4700 4525 
Q 4975 4525 5700 4550 
L 5700 4100 
Q 5000 4125 4650 4125 
L 1375 4125 
Q 1375 3000 1350 2312 
Q 1325 1625 1212 950 
Q 1100 275 725 -525 
Q 500 -375 250 -300 
Q 650 400 762 1075 
Q 875 1750 887 2800 
Q 900 3850 875 4525 
L 3200 4525 
Q 3100 4850 2975 5075 
z
M 2475 3300 
Q 2475 3700 2450 3925 
L 2975 3925 
Q 2950 3725 2950 3300 
L 4300 3300 
Q 4300 3700 4275 3950 
L 4800 3950 
Q 4775 3650 4775 3300 
Q 5325 3300 5725 3325 
L 5725 2900 
Q 5350 2925 4775 2925 
Q 4775 2250 4800 1950 
L 2450 1950 
Q 2475 2350 2475 2925 
Q 2175 2925 1600 2900 
L 1600 3325 
Q 2175 3300 2475 3300 
z
M 4300 2350 
L 4300 2925 
L 2950 2925 
L 2950 2350 
L 4300 2350 
z
M 2875 1275 
Q 3200 775 3650 425 
Q 4025 700 4425 1275 
L 2900 1275 
L 2875 1275 
z
" transform="scale(0.015625)"/>
      </defs>
      <use xlink:href="#SimHei-6297"/>
      <use xlink:href="#SimHei-4f53" transform="translate(100 0)"/>
      <use xlink:href="#SimHei-76f8" transform="translate(200 0)"/>
      <use xlink:href="#SimHei-5bf9" transform="translate(300 0)"/>
      <use xlink:href="#SimHei-6d53" transform="translate(400 0)"/>
      <use xlink:href="#SimHei-5ea6" transform="translate(500 0)"/>
     </g>
    </g>
   </g>
   <g id="line2d_119">
    <path d="M 65.574375 200.97743 
L 93.089274 200.968697 
L 94.006437 200.81663 
L 94.9236 200.492072 
L 96.757927 199.427559 
L 98.592253 197.987417 
L 104.095233 193.071585 
L 105.012396 191.96348 
L 106.846723 189.010945 
L 114.184029 175.707297 
L 116.935519 171.602957 
L 118.769845 169.198744 
L 120.604172 167.040892 
L 123.355662 164.225637 
L 126.107152 161.866418 
L 128.858642 159.918427 
L 131.610131 158.350088 
L 134.361621 157.142954 
L 136.195948 156.535773 
L 138.030274 156.088605 
L 139.864601 155.806762 
L 141.698928 155.699486 
L 144.450417 155.84478 
L 147.201907 156.296514 
L 149.953397 157.030894 
L 152.704887 158.034256 
L 155.456377 159.299759 
L 158.207867 160.824771 
L 160.959356 162.607957 
L 163.710846 164.645047 
L 166.462336 166.921779 
L 170.130989 170.261298 
L 175.633969 175.383683 
L 177.468296 176.848655 
L 179.302622 178.008923 
L 195.811561 185.833283 
L 203.148868 189.374974 
L 206.817521 190.936428 
L 209.569011 191.928698 
L 212.3205 192.708771 
L 215.07199 193.223915 
L 217.82348 193.428874 
L 218.740643 192.428867 
L 219.657807 188.008173 
L 222.409297 170.588051 
L 224.243623 161.253635 
L 226.07795 153.770109 
L 227.912276 147.621847 
L 228.829439 144.928413 
L 229.746603 140.179496 
L 231.580929 123.983387 
L 232.498093 117.171395 
L 233.415256 111.437708 
L 234.332419 106.573883 
L 235.249582 102.396703 
L 237.083909 95.578743 
L 238.918236 90.239485 
L 239.835399 87.98354 
L 240.752562 85.388675 
L 245.338379 69.12157 
L 247.172705 64.254907 
L 249.007032 60.444264 
L 250.841358 57.555094 
L 251.758522 56.425667 
L 252.675685 55.497224 
L 253.592848 54.76777 
L 254.510011 54.23963 
L 255.427175 53.920142 
L 256.344338 53.822137 
L 258.178665 53.919876 
L 260.012991 54.189036 
L 261.847318 54.620114 
L 264.598808 55.558626 
L 267.350297 56.84247 
L 270.101787 58.477683 
L 272.853277 60.481502 
L 275.604767 62.881177 
L 278.356257 65.711833 
L 281.107747 69.010395 
L 283.859237 72.798278 
L 286.610726 77.034824 
L 291.196543 84.325866 
L 293.030869 86.645268 
L 293.948033 87.474856 
L 308.622645 96.740275 
L 322.380094 105.891855 
L 326.048748 107.947913 
L 328.800237 109.215682 
L 331.551727 110.167313 
L 335.22038 111.017883 
L 342.557687 112.507197 
L 349.894993 113.762152 
L 357.232299 114.778215 
L 364.569605 115.569472 
L 373.741238 116.305416 
L 389.333014 117.349735 
L 399.42181 117.807753 
L 407.67628 117.964124 
L 449.865791 117.966661 
L 523.238854 117.966661 
L 523.238854 117.966661 
" clip-path="url(#peb44e748e0)" style="fill: none; stroke: #8da0cb; stroke-width: 3; stroke-linecap: square"/>
   </g>
   <g id="line2d_120">
    <path d="M 65.574375 200.97743 
L 246.255542 200.887619 
L 247.172705 200.617941 
L 248.089868 200.192124 
L 249.924195 198.979001 
L 252.675685 196.639924 
L 257.261501 192.367769 
L 258.178665 191.066923 
L 260.012991 187.896958 
L 265.515971 177.72921 
L 268.267461 173.351349 
L 270.101787 170.773043 
L 271.936114 168.45301 
L 273.77044 166.37312 
L 276.52193 163.663738 
L 279.27342 161.399311 
L 282.02491 159.537952 
L 284.7764 158.051014 
L 287.52789 156.922969 
L 289.362216 156.368748 
L 291.196543 155.97592 
L 293.030869 155.751021 
L 294.865196 155.703405 
L 297.616686 155.914429 
L 300.368176 156.418562 
L 303.119665 157.195424 
L 305.871155 158.233525 
L 308.622645 159.527486 
L 311.374135 161.075644 
L 314.125625 162.877267 
L 316.877115 164.928407 
L 319.628605 167.214897 
L 323.297258 170.560674 
L 328.800237 175.679043 
L 330.634564 177.140714 
L 332.468891 178.29844 
L 337.054707 180.789945 
L 341.640523 183.562329 
L 346.22634 186.614028 
L 351.729319 190.588911 
L 359.983789 196.647399 
L 362.735279 198.395566 
L 364.569605 199.379071 
L 366.403932 200.16344 
L 368.238259 200.703351 
L 370.072585 200.959923 
L 376.492728 200.97743 
L 523.238854 200.97743 
L 523.238854 200.97743 
" clip-path="url(#peb44e748e0)" style="fill: none; stroke: #fc8d9e; stroke-width: 3; stroke-linecap: square"/>
   </g>
   <g id="line2d_121">
    <defs>
     <path id="mfb6454c3de" d="M 5 0 
L -5 -5 
L -5 5 
z
" style="stroke: #808080; stroke-linejoin: miter"/>
    </defs>
    <g>
     <use xlink:href="#mfb6454c3de" x="555.929173" y="200.97743" style="fill: #808080; stroke: #808080; stroke-linejoin: miter"/>
    </g>
   </g>
   <g id="line2d_122">
    <defs>
     <path id="m0fe3c5b334" d="M 0 -5 
L -5 5 
L 5 5 
z
" style="stroke: #808080; stroke-linejoin: miter"/>
    </defs>
    <g>
     <use xlink:href="#m0fe3c5b334" x="65.574375" y="12.2" style="fill: #808080; stroke: #808080; stroke-linejoin: miter"/>
    </g>
   </g>
   <g id="patch_3">
    <path d="M 65.574375 204.634055 
L 65.574375 15.973217 
" style="fill: none; stroke: #808080; stroke-width: 2; stroke-linejoin: miter; stroke-linecap: square"/>
   </g>
   <g id="patch_4">
    <path d="M 65.574375 204.634055 
L 555.929173 204.634055 
" style="fill: none; stroke: #808080; stroke-width: 2; stroke-linejoin: miter; stroke-linecap: square"/>
   </g>
   <g id="patch_5">
    <path d="M 65.574375 254.440833 
Q 65.574375 228.709286 65.574375 205.213807 
" style="fill: none; stroke: #fa9fb5; stroke-width: 2; stroke-linecap: round"/>
    <path d="M 61.974375 212.413807 
L 65.574375 205.213807 
L 69.174375 212.413807 
" style="fill: none; stroke: #fa9fb5; stroke-width: 2; stroke-linecap: round"/>
   </g>
   <g id="text_21">
    <!-- 注射m抗原 -->
    <g transform="translate(25.074375 272.993634) scale(0.18 -0.18)">
     <defs>
      <path id="SimHei-6ce8" d="M 4675 4050 
Q 5150 4050 5775 4075 
L 5775 3600 
Q 5100 3625 4700 3625 
L 4200 3625 
L 4200 2250 
L 4675 2250 
Q 5100 2250 5675 2275 
L 5675 1800 
Q 5125 1825 4675 1825 
L 4200 1825 
L 4200 0 
L 4825 0 
Q 5425 0 6075 25 
L 6075 -450 
Q 5425 -425 4850 -425 
L 3025 -425 
Q 2375 -425 1950 -450 
L 1950 25 
Q 2350 0 3050 0 
L 3700 0 
L 3700 1825 
L 3300 1825 
Q 2825 1825 2400 1800 
L 2400 2275 
Q 2825 2250 3325 2250 
L 3700 2250 
L 3700 3625 
L 3225 3625 
Q 2725 3625 2225 3600 
L 2225 4075 
Q 2725 4050 3250 4050 
L 4675 4050 
z
M 1950 1425 
Q 1675 975 1337 287 
Q 1000 -400 875 -675 
Q 625 -425 325 -250 
Q 600 0 950 612 
Q 1300 1225 1575 1800 
Q 1750 1575 1950 1425 
z
M 725 3350 
Q 1300 2975 1750 2675 
Q 1600 2500 1425 2225 
Q 950 2650 425 2950 
Q 575 3100 725 3350 
z
M 1025 5025 
Q 1625 4575 1950 4225 
Q 1725 4050 1600 3850 
Q 1175 4350 675 4650 
Q 850 4825 1025 5025 
z
M 3225 4950 
Q 3400 5075 3575 5250 
Q 3900 4975 4375 4450 
Q 4175 4300 3975 4125 
Q 3550 4650 3225 4950 
z
" transform="scale(0.015625)"/>
      <path id="SimHei-5c04" d="M 2150 5125 
Q 2000 4975 1825 4500 
L 3225 4500 
Q 3200 4075 3200 3650 
L 3200 -50 
Q 3200 -350 2987 -462 
Q 2775 -575 2250 -650 
Q 2225 -375 2075 -75 
Q 2475 -125 2612 -75 
Q 2750 -25 2750 225 
L 2750 1275 
L 2475 1275 
Q 2275 725 1725 250 
Q 1175 -225 625 -500 
Q 450 -275 225 -75 
Q 775 75 1250 450 
Q 1725 825 1975 1275 
L 825 1275 
Q 650 1275 275 1250 
L 275 1725 
Q 625 1700 800 1700 
L 800 3675 
Q 800 4075 775 4500 
L 1400 4500 
Q 1500 4900 1525 5275 
L 2150 5125 
z
M 4875 4500 
Q 4875 4825 4825 5200 
L 5350 5200 
Q 5325 4825 5325 4500 
L 5325 3550 
Q 5750 3550 6150 3575 
L 6150 3125 
Q 5750 3150 5325 3150 
L 5325 75 
Q 5300 -300 5012 -437 
Q 4725 -575 4325 -650 
Q 4325 -350 4075 -25 
Q 4475 -75 4675 -25 
Q 4875 25 4875 250 
L 4875 3150 
Q 3900 3150 3375 3125 
L 3375 3575 
Q 4000 3550 4875 3550 
L 4875 4500 
z
M 2750 3550 
L 2750 4100 
L 1250 4100 
L 1250 3550 
L 2750 3550 
z
M 2750 2625 
L 2750 3150 
L 1250 3150 
L 1250 2625 
L 2750 2625 
z
M 2750 1700 
L 2750 2225 
L 1250 2225 
L 1250 1700 
L 2750 1700 
z
M 4000 2600 
Q 4275 1775 4350 1525 
Q 4100 1475 3875 1350 
Q 3800 1850 3525 2450 
Q 3750 2550 4000 2600 
z
" transform="scale(0.015625)"/>
      <path id="SimHei-6d" d="M 3050 125 
L 2550 125 
L 2550 2150 
Q 2550 2300 2500 2400 
Q 2450 2500 2300 2500 
Q 2125 2500 1975 2312 
Q 1825 2125 1825 1825 
L 1825 125 
L 1325 125 
L 1325 2150 
Q 1325 2300 1275 2400 
Q 1225 2500 1075 2500 
Q 900 2500 750 2312 
Q 600 2125 600 1825 
L 600 125 
L 100 125 
L 100 2925 
L 600 2925 
L 600 2550 
Q 725 2750 900 2862 
Q 1075 2975 1275 2975 
Q 1475 2975 1612 2862 
Q 1750 2750 1800 2550 
Q 1925 2750 2087 2862 
Q 2250 2975 2450 2975 
Q 2750 2975 2900 2812 
Q 3050 2650 3050 2350 
L 3050 125 
z
" transform="scale(0.015625)"/>
      <path id="SimHei-539f" d="M 3850 4275 
Q 3675 4025 3600 3700 
L 5450 3700 
Q 5425 3475 5425 3000 
L 5425 2225 
Q 5425 1825 5450 1475 
L 4050 1475 
L 4050 -50 
Q 4050 -400 3825 -487 
Q 3600 -575 3100 -625 
Q 3050 -325 2925 -50 
Q 3400 -75 3475 -37 
Q 3550 0 3550 175 
L 3550 1475 
L 2125 1475 
Q 2150 1775 2150 2200 
L 2150 3025 
Q 2150 3425 2125 3700 
L 3150 3700 
Q 3300 4250 3300 4425 
L 3850 4275 
z
M 275 -325 
Q 725 275 875 1037 
Q 1025 1800 1025 2300 
L 1025 4125 
Q 1025 4650 1000 4900 
L 5025 4900 
Q 5575 4900 5800 4925 
L 5800 4475 
Q 5600 4500 5025 4500 
L 1525 4500 
L 1525 2375 
Q 1500 1650 1412 1112 
Q 1325 575 1137 125 
Q 950 -325 800 -575 
Q 550 -400 275 -325 
z
M 4925 2775 
L 4925 3325 
L 2625 3325 
L 2625 2775 
L 4925 2775 
z
M 4925 1875 
L 4925 2400 
L 2625 2400 
L 2625 1875 
L 4925 1875 
z
M 1475 -50 
Q 1800 150 2087 450 
Q 2375 750 2575 1100 
Q 2800 875 2975 750 
Q 2300 -50 1825 -400 
Q 1675 -225 1475 -50 
z
M 4825 1075 
Q 5700 300 5925 25 
Q 5750 -125 5575 -325 
Q 5250 75 4500 725 
Q 4675 925 4825 1075 
z
" transform="scale(0.015625)"/>
     </defs>
     <use xlink:href="#SimHei-6ce8"/>
     <use xlink:href="#SimHei-5c04" transform="translate(100 0)"/>
     <use xlink:href="#SimHei-6d" transform="translate(200 0)"/>
     <use xlink:href="#SimHei-6297" transform="translate(250 0)"/>
     <use xlink:href="#SimHei-539f" transform="translate(350 0)"/>
    </g>
   </g>
   <g id="patch_6">
    <path d="M 218.129201 283.800881 
Q 218.129201 243.38881 218.129201 205.212807 
" style="fill: none; stroke: #fa9fb5; stroke-width: 2; stroke-linecap: round"/>
    <path d="M 214.529201 212.412807 
L 218.129201 205.212807 
L 221.729201 212.412807 
" style="fill: none; stroke: #fa9fb5; stroke-width: 2; stroke-linecap: round"/>
   </g>
   <g id="text_22">
    <!-- 注射m抗原和n抗原 -->
    <g transform="translate(146.129201 302.354967) scale(0.18 -0.18)">
     <defs>
      <path id="SimHei-548c" d="M 5875 4200 
Q 5850 3700 5850 3275 
L 5850 700 
Q 5850 250 5875 -25 
L 5375 -25 
L 5375 575 
L 4175 575 
L 4175 -75 
L 3700 -75 
Q 3725 500 3725 625 
L 3725 3275 
Q 3725 3700 3700 4200 
L 5875 4200 
z
M 3275 4450 
Q 3050 4450 2250 4325 
L 2250 3200 
L 2625 3200 
Q 3000 3200 3425 3225 
L 3425 2775 
Q 3000 2800 2650 2800 
L 2250 2800 
L 2250 225 
Q 2250 -200 2275 -550 
L 1775 -550 
Q 1800 -150 1800 225 
L 1800 1850 
Q 1425 1150 675 250 
Q 550 425 275 600 
Q 825 1125 1237 1812 
Q 1650 2500 1700 2800 
L 1250 2800 
Q 700 2800 450 2775 
L 450 3225 
Q 725 3200 1250 3200 
L 1800 3200 
L 1800 4250 
Q 1475 4200 775 4125 
Q 725 4375 625 4575 
Q 1100 4600 1825 4700 
Q 2550 4800 3050 5000 
Q 3100 4725 3275 4450 
z
M 5375 975 
L 5375 3775 
L 4175 3775 
L 4175 975 
L 5375 975 
z
M 3075 1000 
Q 2750 1625 2325 2100 
Q 2475 2200 2700 2400 
Q 3175 1875 3500 1325 
Q 3250 1175 3075 1000 
z
" transform="scale(0.015625)"/>
      <path id="SimHei-6e" d="M 2800 125 
L 2300 125 
L 2300 1925 
Q 2300 2225 2150 2400 
Q 2000 2575 1750 2575 
Q 1425 2575 1137 2237 
Q 850 1900 850 1400 
L 850 125 
L 350 125 
L 350 2925 
L 850 2925 
L 850 2400 
Q 1050 2675 1287 2825 
Q 1525 2975 1900 2975 
Q 2350 2975 2575 2725 
Q 2800 2475 2800 2100 
L 2800 125 
z
" transform="scale(0.015625)"/>
     </defs>
     <use xlink:href="#SimHei-6ce8"/>
     <use xlink:href="#SimHei-5c04" transform="translate(100 0)"/>
     <use xlink:href="#SimHei-6d" transform="translate(200 0)"/>
     <use xlink:href="#SimHei-6297" transform="translate(250 0)"/>
     <use xlink:href="#SimHei-539f" transform="translate(350 0)"/>
     <use xlink:href="#SimHei-548c" transform="translate(450 0)"/>
     <use xlink:href="#SimHei-6e" transform="translate(550 0)"/>
     <use xlink:href="#SimHei-6297" transform="translate(600 0)"/>
     <use xlink:href="#SimHei-539f" transform="translate(700 0)"/>
    </g>
   </g>
   <g id="patch_7">
    <path d="M 141.851788 110.646241 
Q 141.851788 132.172986 141.851788 153.69973 
" style="fill: none; stroke: #808080; stroke-width: 1.5; stroke-linecap: round"/>
   </g>
   <g id="text_23">
    <!-- 抗m抗体 -->
    <g transform="translate(110.351788 104.397011) scale(0.18 -0.18)">
     <use xlink:href="#SimHei-6297"/>
     <use xlink:href="#SimHei-6d" transform="translate(100 0)"/>
     <use xlink:href="#SimHei-6297" transform="translate(150 0)"/>
     <use xlink:href="#SimHei-4f53" transform="translate(250 0)"/>
    </g>
   </g>
   <g id="patch_8">
    <path d="M 311.577622 110.514131 
Q 303.346878 132.172946 295.116134 153.831761 
" style="fill: none; stroke: #808080; stroke-width: 1.5; stroke-linecap: round"/>
   </g>
   <g id="text_24">
    <!-- 抗n抗体 -->
    <g transform="translate(284.700161 104.397011) scale(0.18 -0.18)">
     <use xlink:href="#SimHei-6297"/>
     <use xlink:href="#SimHei-6e" transform="translate(100 0)"/>
     <use xlink:href="#SimHei-6297" transform="translate(150 0)"/>
     <use xlink:href="#SimHei-4f53" transform="translate(250 0)"/>
    </g>
   </g>
  </g>
 </g>
 <defs>
  <clipPath id="peb44e748e0">
   <rect x="65.574375" y="15.973217" width="490.354798" height="188.660838"/>
  </clipPath>
 </defs>
</svg>
