<svg viewBox="0 0 720 305"><path fill="#f8f9fa" d="M0 0h720v305H0z"/><text y="28.2" fill="#1e1e1e" dominant-baseline="alphabetic" font-family="Excalifont, Xiaolai, sans-serif, Segoe UI Emoji" font-size="32" style="white-space:pre" transform="translate(190 130)">血糖（主要是葡萄糖）</text><path fill="none" stroke="#1e1e1e" stroke-linecap="round" stroke-width="4" d="M10 90c149.8-1.8 299.5-1.1 700 0M10 90c177.4 1.2 354 1.9 700 0M10 211.9c153 1.7 307.4 2 700 0m-700 0c279.1-2.6 558.4-2.4 700 0"/><text y="17.6" fill="#1e1e1e" dominant-baseline="alphabetic" font-family="Excalifont, Xiaolai, sans-serif, Segoe UI Emoji" font-size="20" style="white-space:pre" transform="translate(30 10)">小肠细胞（食物）</text><text y="17.6" fill="#1e1e1e" dominant-baseline="alphabetic" font-family="Excalifont, Xiaolai, sans-serif, Segoe UI Emoji" font-size="20" style="white-space:pre" transform="translate(530 10)">脂肪细胞（脂肪）</text><text y="17.6" fill="#1e1e1e" dominant-baseline="alphabetic" font-family="Excalifont, Xiaolai, sans-serif, Segoe UI Emoji" font-size="20" style="white-space:pre" transform="translate(30 270)">肝细胞（肝糖原）</text><text y="17.6" fill="#1e1e1e" dominant-baseline="alphabetic" font-family="Excalifont, Xiaolai, sans-serif, Segoe UI Emoji" font-size="20" style="white-space:pre" transform="translate(330 270)">肌细胞（肌糖原）、组织细胞（氧化分解）</text><g fill="none" stroke="#1e1e1e" stroke-linecap="round" stroke-width="4"><path d="M509.7 170.5c10 3.5 43.5 6.3 60.3 19.8s33.5 51 40.3 60.8m-98.5-81.5c9.7 3.3 40.9 5.4 57.2 18.7s33.6 50.8 40.7 61"/><path d="M590.5 233.3c7.3 5.6 13.8 11.8 19.2 16m-19.2-16c7.9 5.9 14.1 12.8 19.2 16"/><path d="M605.3 224.7c2 8.6 3.3 17.7 4.4 24.7m-4.5-24.7c2.2 9.1 2.7 19.5 4.5 24.7"/></g><g fill="none" stroke="#1e1e1e" stroke-linecap="round" stroke-width="4"><path d="M110.6 49.7c3.4 10 10.6 47.5 20.3 61s31.7 16.9 38 20.1m-59.5-82.3c3.3 9.7 10.8 47.1 21 60.5 10.4 13.4 34.5 16.2 40.9 19.9"/><path d="M149 129.1c7.2 1.4 16.6-2 22.3-.2m-22.4.2c7.5-1 17-1 22.4-.2M154 114.7c5.6 6.4 13.2 8 17.3 14.2M154 114.7c5.5 4.3 13.2 9.6 17.3 14.2"/></g><g fill="none" stroke="#1e1e1e" stroke-linecap="round" stroke-width="4"><path d="M590.2 51.2c.2 10 14.3 47.8 1 61-13.2 13.3-67.2 15.3-80.5 18.5M592.2 50c.1 10.1 12.2 46.9-1.5 60.5S523 128 510 131.6"/><path d="M602.2 73.1c-3.9-4.7-5.4-11.5-12-22m12 22c-3.3-4.7-5.3-10.6-12-22m-4.9 24.6c.6-5.3 3.7-12.8 4.9-24.5m-5 24.5c.7-5.3 2.7-11.8 5-24.5m-58.5 68c-6.2 4.4-10.2 6.8-21.7 12.4m21.7-12.4c-5.4 3.3-9.7 5.6-21.7 12.4m24.6 4.4c-7 0-12-2.1-24.6-4.4m24.6 4.4c-6.2-.6-11.2-2.4-24.6-4.4"/></g><g fill="none" stroke="#1e1e1e" stroke-linecap="round" stroke-width="4"><path d="M109.3 250.2c0-10.2-8.8-46.8 1.1-60.2s48.4-16.6 58.5-20m-57.7 79.2c-.1-10-11.5-44.6-1.5-57.6s51.2-16.8 61.5-20.4"/><path d="M98.9 227.5c3.7 7.8 6.7 12.4 10.4 22.7M99 227.5c3.7 7.6 6 12.3 10.4 22.7"/><path d="M116 226c-1.6 8.3-4 13.3-6.7 24.2M116 226c-1.2 8-4 13-6.6 24m40.7-65.4c6.8-3.4 13.2-10.1 21.1-13.4m-21 13.4c6.5-2.8 11.9-8.7 21-13.4m-24.8-3.2c8.1 1.8 15.6.3 24.8 3.2m-24.8-3.3c7.8 2 14.3 1.1 24.8 3.3"/></g></svg>