<svg viewBox="0 0 720 305"><path fill="#f8f9fa" d="M0 0h720v305H0z"/><text y="28.19" fill="#1e1e1e" dominant-baseline="alphabetic" font-family="Excalifont, Xiaolai, sans-serif, Segoe UI Emoji" font-size="32" transform="translate(190 130)" style="white-space:pre">血糖（主要是葡萄糖）</text><path fill="none" stroke="#1e1e1e" stroke-linecap="round" stroke-width="4" d="M10 90c149.84-1.78 299.51-1.12 700 0M10 90c177.36 1.15 353.94 1.86 700 0M10 211.862c152.94 1.75 307.42 1.97 700 0m-700 0c279.13-2.58 558.41-2.39 700 0"/><text y="17.62" fill="#1e1e1e" dominant-baseline="alphabetic" font-family="Excalifont, Xiaolai, sans-serif, Segoe UI Emoji" font-size="20" transform="translate(30 10)" style="white-space:pre">小肠细胞（食物）</text><text y="17.62" fill="#1e1e1e" dominant-baseline="alphabetic" font-family="Excalifont, Xiaolai, sans-serif, Segoe UI Emoji" font-size="20" transform="translate(530 10)" style="white-space:pre">脂肪细胞（脂肪）</text><text y="17.62" fill="#1e1e1e" dominant-baseline="alphabetic" font-family="Excalifont, Xiaolai, sans-serif, Segoe UI Emoji" font-size="20" transform="translate(30 270)" style="white-space:pre">肝细胞（肝糖原）</text><text y="17.62" fill="#1e1e1e" dominant-baseline="alphabetic" font-family="Excalifont, Xiaolai, sans-serif, Segoe UI Emoji" font-size="20" transform="translate(330 270)" style="white-space:pre">肌细胞（肌糖原）、组织细胞（氧化分解）</text><g fill="none" stroke="#1e1e1e" stroke-linecap="round" stroke-width="4"><path d="M509.72 170.45c9.89 3.55 43.47 6.4 60.24 19.85 16.76 13.44 33.53 51.03 40.32 60.81m-98.51-81.47c9.68 3.26 40.9 5.4 57.21 18.69 16.32 13.28 33.63 50.82 40.69 61.02"/><path d="M590.47 233.34c7.33 5.57 13.79 11.72 19.2 16.01m-19.2-16.01c7.89 5.85 14.17 12.81 19.2 16.01"/><path d="M605.25 224.74c2.09 8.55 3.38 17.7 4.42 24.61m-4.42-24.61c2.14 9.1 2.62 19.43 4.42 24.61"/></g><g fill="none" stroke="#1e1e1e" stroke-linecap="round" stroke-width="4"><path d="M110.58 49.71c3.39 10.04 10.62 47.51 20.34 61.02 9.73 13.52 31.67 16.83 38.03 20.09m-59.53-82.31c3.27 9.66 10.73 47.09 21.04 60.49 10.32 13.39 34.43 16.15 40.84 19.9"/><path d="M148.94 129.13c7.23 1.35 16.66-2.01 22.36-.23m-22.36.23c7.45-1.02 17.02-1.04 22.36-.23m-17.27-14.2c5.53 6.36 13.2 7.98 17.27 14.2m-17.27-14.2c5.47 4.31 13.17 9.59 17.27 14.2"/></g><g fill="none" stroke="#1e1e1e" stroke-linecap="round" stroke-width="4"><path d="M590.195 51.19c.18 9.94 14.29 47.78 1.04 61.03s-67.25 15.32-80.56 18.47M592.225 50c.12 10.12 12.15 46.9-1.56 60.5-13.7 13.6-67.57 17.52-80.66 21.11"/><path d="M602.185 73.12c-3.86-4.69-5.34-11.49-11.99-21.93m11.99 21.93c-3.32-4.7-5.33-10.61-11.99-21.93m-4.91 24.51c.63-5.34 3.67-12.83 4.91-24.51m-4.91 24.51c.65-5.26 2.63-11.78 4.91-24.51m-58.51 67.98c-6.14 4.48-10.22 6.87-21.68 12.44m21.68-12.44c-5.36 3.38-9.66 5.59-21.68 12.44m24.6 4.41c-7.07-.04-11.93-2.15-24.6-4.41m24.6 4.41c-6.17-.6-11.16-2.37-24.6-4.41"/></g><g fill="none" stroke="#1e1e1e" stroke-linecap="round" stroke-width="4"><path d="M109.31 250.19c.04-10.16-8.83-46.79 1.1-60.17s48.4-16.64 58.48-20.1m-57.74 79.32c-.09-10.03-11.49-44.66-1.48-57.67s51.21-16.77 61.53-20.38m-72.31 56.27c3.75 7.86 6.74 12.44 10.42 22.73m-10.42-22.73c3.7 7.68 5.97 12.39 10.42 22.73"/><path d="M115.93 226.08c-1.57 8.19-3.92 13.21-6.62 24.11m6.62-24.11c-1.28 7.96-4 13.09-6.62 24.11m40.8-65.57c6.81-3.41 13.14-10.15 21.09-13.43m-21.09 13.43c6.57-2.85 11.96-8.73 21.09-13.43m-24.79-3.26c8.1 1.84 15.59.33 24.79 3.26m-24.79-3.26c7.77 2.06 14.25 1.08 24.79 3.26"/></g></svg>