<svg xml:space="preserve" viewBox="-21.9 -25.6 507 459"><path fill="#e5d4b1" stroke="#000" stroke-width="3" d="M467 303.8c-22-3-57-23-62-26s-28-28-40-47-23-42-27-55-8-26-9-33 1-23.5 4-30.5c-7-5-21-6-27 7s-11 33-11 46 22 55 8 61-17 14-89-4-102-20-109-6 34 20 56 24 72 22.6 65 32c-4.4 5.8-9.4 4.5-20.7 8.5-19.6 6.9-19.3 10-43.8 18.3s-22.9 32.2-15.2 36.3 14 6.3 46.4-12c14.4-5.4 31.8-9 47.1-10.3s24.7 56 41.4 64.7 36 8 48 8 18.6 2 25.3-1.3 25.3 1.3 35.3 6.6c0 0 38.7 18.7 42 22.7"/><path fill="none" stroke="#897f6a" stroke-width="2" d="M234.5 270.8c34-2 46 30.7 54 48m17.6-73.3c.4 25.3 11 46.6 25.4 54.6m-91.7-69.3c-8 1.3-17.3 20-13.3 25.3m-29.4-36c-5.3 4-16 13.4-13.3 18.7m-34.7-26.7c-6.6 4-8.8 15.5-10.1 18.2m83.5 49.8c8 4 12 17.4 9.3 26.7m-30.5-19.4c6.7 4 7.2 24 4.6 28m-30.1-16.8c8.7 6.5 9.6 15.5 5.1 26.5M294 236.3c-4 10-7 18-6 24m7-95c12 1.7 2.7 3.2 25-1m79.1 122.5c-4 12-8 16-14.6 20"/><path fill="#e5d4b1" stroke="#000" stroke-width="3" d="M299.8 374.5c16-3.2 27.3-5.4 36-8s21.3-10 24.7-16.7.6-8-1.4-12.7-24-2-29.3 0-10 4-32 7.4-28 5-39.3 3.6c-9.3-1 1.3 22.4 6 25s5.3 7.4 35.3 1.4z"/><path fill="#e5d4b1" stroke="#000" stroke-width="3" d="M316.8 311.8c18.9-1.3 28.3-2.7 33.4 2.7s3 10.6 1.5 12-18.2 8.6-27 11.3c-8.6 2.7-10.1.7-27.5 4.7-17.5 4-19 5.3-24 7.3s-15.3 1.3-24.7-6c-9.5-7.3-8-20-7.3-24s1.4-12.7 19.6-14 12.4 4.7 35.6 5.3z"/><path fill="none" stroke="#897f6a" stroke-width="2" d="M245.8 318.5c-2 17.3 1.1 18.1 10.7 25.3m18.6-25c0 5.3 1.4 17.3 1.4 17.3m31.6-19c0 2.7 1.4 13.4 1.4 17.4m5.3 12.6a79 79 0 0 0 6.7 17.4m-39-9.7c1.3 2.7 2.6 14.7 6.6 16m116.7-52c-6.7 12-10.7 42.7-17.3 49.3"/><path fill="#963c96" d="m322.8 41.8-23.3 18.5L322.8 0l23.3 60.3z"/><path fill="#2828ff" d="m40.9 201 13.3 26.7L0 192.5 63.8 182z"/><path fill="none" stroke="#e12828" stroke-linecap="round" stroke-width="9" d="M126.4 335.3 95.6 348"/><path fill="#e12828" d="m95.6 348 22.5 23.4-49-13.2 27.5-42.6z"/><path fill="#2828ff" d="m375.9 62.1-.3-.1q-1.8 1.6-3.3 2.4c-1.5.8-2.2.7-3.4.7q-2.6 0-4.1-1.4c-1.5-1.4-1.6-2.1-1.6-3.7q0-3 3-4.7c3-1.7 5-1.9 9-2.2v-2q0-1.8-.5-2.9c-.5-1.1-.6-1.2-1-1.5s-1-.4-1.7-.4-1.2.1-1.6.4q-.7.3-1.3 1.2c-.6.9-.6 1.4-.8 2.5h-3.9v-3.7a42 42 0 0 1 7-2.3l2.8-.3q2.4 0 4 .7 1.5.6 2.2 2.1a8 8 0 0 1 .7 4v8l.1 2.6.3 1q.2.3.6.5l1.2.4v1.4h-7.6zm-.7-7q-3.2 0-4.7 1.2c-1.5 1.2-1.5 1.8-1.5 3.2q0 1.3.7 2c.7.7 1 .6 1.9.6q.9 0 1.8-.5c.9-.5 1-.7 1.3-1.3s.5-1.2.5-1.8z"/><path d="m404 52.8 9.2 9.3-2 2-9.3-9.3-9.4 9.3-2-2 9.4-9.3-9.3-9.2 2-2 9.3 9.2 9.3-9.3 2 2z"/><path fill="#e12828" d="m422.5 42.5-.3-4.2q-.2-.5-.6-.8l-1.4-.4v-1.4l5.7-.3h2.6v11.8q1.8-1.7 3.3-2.4c1.5-.7 2-.7 3-.7q3.7 0 5.5 2.6c1.8 2.6 1.8 4.3 1.8 7.7q0 5.4-2.4 8-2.5 2.7-7 2.7-3.3 0-6-1.2l-1.5 1.2-2.7-.4zm6 15.6q0 2.4.8 3.7c.8 1.3 1.5 1.2 2.7 1.2q2 0 3-2c1-2 1-3.2 1-5.6q0-4.1-1-6c-1-2-1.5-2-2.7-2q-.9-.1-1.8.4c-.9.5-1 .8-1.5 1.3s-.5 1.3-.5 2z"/><path fill="#2828ff" d="m74.3 166.8-.3-.1q-1.6 1.6-3.2 2.3a7 7 0 0 1-3.4.8q-2.7 0-4.2-1.4c-1.5-1.4-1.5-2.2-1.5-3.7q0-3 3-4.8c3-1.8 5-1.8 9-2.1v-2q0-1.9-.5-3c-.5-1-.6-1.1-1.1-1.4s-1-.4-1.6-.4-1.2.1-1.6.3q-.8.3-1.3 1.3c-.5 1-.6 1.4-.8 2.5h-3.9v-3.7a42 42 0 0 1 7-2.4l2.7-.2q2.5 0 4 .6t2.2 2.2a8 8 0 0 1 .8 4v10.5q0 .8.4 1 .2.4.5.6l1.3.4v1.4h-7.6zm-.6-7q-3.2 0-4.7 1.2c-1.5 1.2-1.6 1.8-1.6 3.2q0 1.3.7 2c.7.6 1.1.6 2 .6q1 0 1.7-.5 1-.7 1.4-1.3a3 3 0 0 0 .5-1.8z"/><path fill="#e12828" d="m93.7 283.2-.3-4.2q-.2-.5-.6-.8l-1.4-.5v-1.3l5.7-.3h2.5v11.7q2-1.6 3.4-2.3c1.4-.7 2-.7 3-.7q3.7 0 5.5 2.6c1.8 2.6 1.8 4.2 1.8 7.7q0 5.3-2.4 8t-7.1 2.7q-3.2 0-6-1.2l-1.5 1.2-2.6-.4zm6 15.5q0 2.6.8 3.8c.8 1.2 1.5 1.2 2.7 1.2q1.9 0 2.9-2c1-2 1-3.2 1-5.7q0-4-.9-6c-.9-2-1.5-2-2.7-2q-.9 0-1.8.5c-1 .5-1.1.7-1.5 1.3s-.6 1.2-.6 2z"/></svg>