<svg viewBox="-21.91 -25.61 507 459"><path fill="#e5d4b1" stroke="#000" stroke-width="3" d="M466.982 303.788c-22-3-57-23-62-26s-28-28-40-47-23-42-27-55-8-26-9-33 1-23.5 4-30.5c-7-5-21-6-27 7s-11 33-11 46 22 55 8 61-17 14-89-4-102-20-109-6 34 20 56 24 72.021 22.634 65 32c-4.35 5.802-9.375 4.488-20.709 8.488-19.611 6.922-19.308 9.966-43.791 18.345-24.433 8.362-22.843 32.226-15.167 36.23s14.016 6.342 46.386-12.013c14.35-5.34 31.782-8.885 47.115-10.218s24.668 56 41.334 64.667 35.999 8 47.999 8 18.666 2.001 25.333-1.333 25.334 1.332 35.334 6.666c0 0 38.667 18.667 42 22.667"/><path fill="none" stroke="#897f6a" stroke-width="2" d="M234.483 270.787c33.999-1.999 45.999 30.667 53.999 48.001m17.667-73.335c.334 25.334 11.001 46.668 25.333 54.666m-91.666-69.332c-8 1.333-17.333 20-13.333 25.333m-29.334-36c-5.333 4-16 13.333-13.333 18.667m-34.667-26.667c-6.667 4-8.834 15.501-10.167 18.167m83.501 49.834c8 4 12 17.332 9.333 26.666m-30.52-19.394c6.667 4 7.248 23.993 4.581 27.993m-30.029-16.796c8.648 6.485 9.591 15.534 5.089 26.466m113.045-88.768c-4 10-7 18-6 24m7-95c11.947 1.707 2.677 3.252 25-1m79.167 122.5c-4 12-8 15.999-14.667 19.999"/><path fill="#e5d4b1" stroke="#000" stroke-width="3" d="M299.816 374.455c15.905-3.181 27.334-5.333 36-8s21.332-10.001 24.666-16.667.667-7.999-1.333-12.666-23.999-2-29.333 0-10 4-32 7.333-28 5-39.334 3.666c-9.292-1.094 1.335 22.333 6.001 25s5.333 7.334 35.333 1.334z"/><path fill="#e5d4b1" stroke="#000" stroke-width="3" d="M316.784 311.788c18.897-1.333 28.348-2.666 33.435 2.667s2.906 10.667 1.453 12-18.171 8.666-26.893 11.333-10.176.667-27.619 4.667c-17.444 4-18.897 5.333-23.986 7.333-5.088 2-15.263 1.333-24.711-6-9.449-7.333-7.996-20-7.269-24s1.455-12.667 19.625-14 12.354 4.666 35.614 5.333c23.258.667 20.351.667 20.351.667z"/><path fill="none" stroke="#897f6a" stroke-width="2" d="M245.815 318.455c-1.923 17.305 1.109 18.166 10.667 25.333m18.667-25.001c0 5.333 1.333 17.333 1.333 17.333m31.667-19c0 2.667 1.334 13.333 1.334 17.333m5.332 12.669c0 4 6.667 17.333 6.667 17.333m-39-9.667c1.333 2.667 2.667 14.666 6.667 16m116.666-52c-6.666 12-10.666 42.668-17.333 49.334"/><path fill="#963c96" d="M322.81 41.79L299.5 60.3 322.81 0l23.32 60.3z"/><path fill="#2828ff" d="M40.9 201.07l13.34 26.61L0 192.5l63.8-10.46z"/><path fill="none" stroke="#e12828" stroke-linecap="round" stroke-width="9" d="M126.38 335.25L95.58 348"/><path fill="#e12828" d="M95.58 348l22.48 23.41-49-13.21 27.55-42.63z"/><path fill="#2828ff" d="M375.868 62.098l-.308-.103q-1.682 1.641-3.271 2.379c-1.589.738-2.184.738-3.373.738q-2.625 0-4.163-1.384c-1.538-1.384-1.538-2.157-1.538-3.702q0-3.014 2.963-4.748c2.963-1.734 4.974-1.883 8.993-2.184v-1.948q0-1.907-.431-2.943c-.431-1.036-.656-1.176-1.107-1.456s-.991-.42-1.62-.42-1.173.109-1.63.328q-.688.328-1.241 1.241c-.553.913-.643 1.453-.82 2.533h-3.876v-3.732q2.359-1.046 3.988-1.569 1.632-.523 3.035-.769c1.403-.246 1.836-.246 2.697-.246q2.481 0 3.969.656 1.485.656 2.225 2.133c.74 1.477.738 2.345.738 4.081v7.998q0 1.743.103 2.471c.103.728.175.837.317 1.056q.216.329.555.513.338.185 1.24.41v1.354h-7.629zm-.677-6.994q-3.178.082-4.707 1.189c-1.529 1.107-1.527 1.818-1.527 3.24q0 1.272.697 1.938c.697.666 1.107.667 1.928.667q.944 0 1.784-.502c.84-.502 1.005-.783 1.333-1.343s.492-1.155.492-1.784z"/><path d="M403.971 52.808l9.208 9.311-2.051 2.051-9.188-9.372-9.475 9.29-1.907-1.928 9.372-9.352-9.33-9.208 2.051-2.051 9.29 9.27 9.29-9.27 1.928 1.907z"/><path fill="#e12828" d="M422.54 42.492q0-1.948-.062-2.83c-.062-.882-.127-1.042-.256-1.364a1.65 1.65 0 00-.596-.759q-.399-.277-1.404-.482v-1.354l5.722-.287h2.522v11.751l.021.021q1.825-1.702 3.312-2.389c1.487-.687 2.007-.687 3.046-.687q3.65 0 5.476 2.574c1.826 2.574 1.825 4.283 1.825 7.701q0 5.352-2.409 8.039-2.41 2.687-7.127 2.687-3.24 0-5.927-1.169l-1.518 1.169-2.625-.369zm5.926 15.566q0 2.523.871 3.722c.871 1.199 1.48 1.2 2.697 1.2q1.887 0 2.881-1.979c.994-1.979.995-3.203.995-5.65q0-4.04-.882-6.029c-.882-1.989-1.504-1.989-2.748-1.989q-.902 0-1.784.472c-.882.472-1.073.762-1.456 1.343s-.574 1.22-.574 1.917z"/><path fill="#2828ff" d="M74.339 166.769l-.308-.103q-1.682 1.641-3.271 2.379c-1.589.738-2.184.738-3.373.738q-2.625 0-4.163-1.384c-1.538-1.384-1.538-2.157-1.538-3.702q0-3.014 2.963-4.748c2.963-1.734 4.974-1.883 8.993-2.184v-1.948q0-1.906-.431-2.943c-.431-1.037-.656-1.176-1.107-1.456s-.991-.42-1.62-.42-1.173.109-1.63.328q-.688.328-1.241 1.241c-.553.913-.643 1.453-.82 2.533h-3.876v-3.732q2.358-1.046 3.988-1.569 1.631-.523 3.035-.769c1.404-.246 1.836-.246 2.697-.246q2.481 0 3.969.656 1.485.656 2.225 2.133c.74 1.477.738 2.345.738 4.081v7.998q0 1.743.103 2.471c.103.728.175.837.317 1.056q.216.328.555.513.338.185 1.24.41v1.354h-7.629zm-.676-6.994q-3.178.082-4.707 1.189c-1.529 1.107-1.527 1.818-1.527 3.24q0 1.272.697 1.938c.697.666 1.107.667 1.928.667q.944 0 1.784-.502c.84-.502 1.005-.783 1.333-1.343s.492-1.155.492-1.784z"/><path fill="#e12828" d="M93.716 283.163q0-1.948-.062-2.83c-.062-.882-.127-1.042-.256-1.363a1.65 1.65 0 00-.596-.759q-.399-.277-1.404-.481v-1.354l5.722-.287h2.522v11.75l.021.021q1.825-1.703 3.312-2.39c1.487-.687 2.007-.687 3.046-.687q3.65 0 5.476 2.573c1.826 2.573 1.825 4.282 1.825 7.7q0 5.352-2.409 8.039-2.41 2.687-7.127 2.688-3.24 0-5.927-1.17l-1.518 1.17-2.625-.369zm5.927 15.566q0 2.522.871 3.722c.871 1.2 1.48 1.2 2.697 1.2q1.887 0 2.881-1.979c.994-1.979.995-3.202.995-5.649q0-4.04-.882-6.029c-.882-1.989-1.504-1.99-2.748-1.99q-.903 0-1.784.473c-.881.473-1.073.762-1.456 1.343s-.574 1.22-.574 1.917z"/></svg>