<svg viewBox="0 0 800 800"><path fill="#fff" d="M0 0h800v800H0z" class="dcg-svg-background"/><g fill="none" stroke="#000" stroke-miterlimit="10" stroke-width="2" paint-order="fill stroke markers"><path stroke-opacity="0.2" d="M19 0v800M171 0v800M247 0v800M323 0v800M399 0v800M475 0v800M551 0v800M627 0v800M703 0v800M779 0v800M0 795h800M0 719h800M0 643h800M0 567h800M0 491h800M0 339h800M0 263h800M0 187h800M0 111h800M0 35h800" class="dcg-svg-minor-gridline"/><path stroke-opacity="0.3" d="M399 0v800M703 0v800M0 719h800M0 111h800" class="dcg-svg-major-gridline"/></g><g transform="scale(2)"><title>Y axis</title><path fill="none" stroke="#000" stroke-miterlimit="10" stroke-opacity="0.9" stroke-width="1.5" d="M47 0v400" class="dcg-svg-axis-line" paint-order="fill stroke markers"/></g><g transform="scale(2)"><title>X axis</title><path fill="none" stroke="#000" stroke-miterlimit="10" stroke-opacity="0.9" stroke-width="1.5" d="M0 207h400" class="dcg-svg-axis-line" paint-order="fill stroke markers"/></g><g font-family="Arial" font-size="14" text-anchor="middle"><g class="dcg-svg-axis-value"><text x="38.5" y="223.2" fill="none" stroke="#fff" stroke-miterlimit="2" stroke-width="3" text-decoration="normal" transform="scale(2)">0</text><text x="38.5" y="223.2" text-decoration="normal" transform="scale(2)">0</text></g><g class="dcg-svg-axis-value"><text x="199.2" y="223.2" fill="none" stroke="#fff" stroke-miterlimit="2" stroke-width="3" text-decoration="normal" transform="scale(2)">2</text><text x="199.2" y="223.2" text-decoration="normal" transform="scale(2)">2</text></g><g class="dcg-svg-axis-value"><text x="351.1" y="223.2" fill="none" stroke="#fff" stroke-miterlimit="2" stroke-width="3" text-decoration="normal" transform="scale(2)">4</text><text x="351.1" y="223.2" text-decoration="normal" transform="scale(2)">4</text></g><g class="dcg-svg-axis-value"><text x="36.2" y="362.9" fill="none" stroke="#fff" stroke-miterlimit="2" stroke-width="3" text-decoration="normal" transform="scale(2)">-2</text><text x="36.2" y="362.9" text-decoration="normal" transform="scale(2)">-2</text></g><g class="dcg-svg-axis-value"><text x="38.5" y="59.4" fill="none" stroke="#fff" stroke-miterlimit="2" stroke-width="3" text-decoration="normal" transform="scale(2)">2</text><text x="38.5" y="59.4" text-decoration="normal" transform="scale(2)">2</text></g></g><g transform="scale(2)"><title>表达式3</title><path fill="none" stroke="#c74440" stroke-linecap="round" stroke-linejoin="round" stroke-miterlimit="10" stroke-width="2.5" d="m47.4 169.4.4 2 .7 3.8 1.2 4.5 1.5 4.7 1.7 5 2 4.7 2.2 5 2.5 4.7 2.6 4.6 3 4.5 3 4.3 3.4 4L75 225l3.4 3.2 3.5 3 3.5 2.6 3.7 2.3 3.7 2.1 3.7 1.8 3.8 1.5 3.9 1.3 4 1 4.1.8 4.2.5 4.3.3h4.4l4.6-.3 4.7-.5 4.8-.8 5-1 5.1-1.4 5.4-1.8 5.5-2 5.6-2.4 5.9-2.7 6.1-3.2 6.4-3.6 6.5-4 6.9-4.5 7-5 7.4-5.6 7.6-6 8-6.7 8.1-7.3 8.5-7.9 9-8.6 9.1-9.4 9.6-10.2 10-11 10.3-11.9 10.7-12.8 11.2-13.7 11.5-14.8 12-15.8 12.4-17 12.7-17.7L375.7 17l13.2-19.5 2-3" class="dcg-svg-curve" paint-order="fill stroke markers"/></g><g transform="scale(2)"><title>表达式4</title><path fill="none" stroke="#2d70b3" stroke-linecap="round" stroke-linejoin="round" stroke-miterlimit="10" stroke-width="2.5" d="m47.4 207.4 5.5 5.3 5.4 4.7 5.3 4.4 5.2 3.9 5 3.5 5 3 4.9 2.8 4.8 2.3 4.7 2 4.7 1.7 4.5 1.4 4.5 1.1 4.5.9 4.5.5 4.5.3h4.5l4.5-.1 4.5-.5 4.5-.8 4.5-1 4.5-1.3 4.6-1.6 4.5-1.9 4.7-2.2 4.8-2.5 4.8-2.8 4.9-3.2 5-3.6 5-4 5.3-4.6 5.4-5 5.5-5.4 5.6-6 5.8-6.7 6-7.3 6-8 6.3-8.6 6.3-9.2 6.3-9.9 6.4-10.3 6.3-11 6.5-11.5 6.4-12.2 6.6-13 6.5-13.4 6.7-14.2 6.6-14.9 6.7-15.6 6.9-16.5 6.8-17 1.9-4.9" class="dcg-svg-curve" paint-order="fill stroke markers"/></g></svg>