<svg xmlns="http://www.w3.org/2000/svg" width="800" height="800"><g transform="scale(2)"><path fill="#fff" class="dcg-svg-background" d="M0 0h400v400H0z"/><path fill="none" stroke="#000" class="dcg-svg-minor-gridline" paint-order="fill stroke markers" d="M72.5 0v400m38-400v400m38-400v400m38-400v400m37-400v400m38-400v400m38-400v400m38-400v400m38-400v400M0 367.5h400m-400-38h400m-400-38h400m-400-37h400m-400-76h400m-400-38h400m-400-38h400M0 64.5h400M0 26.5h400" stroke-opacity="0.2" stroke-miterlimit="10"/><path fill="none" stroke="#000" class="dcg-svg-major-gridline" paint-order="fill stroke markers" d="M186.5 0v400m151-400v400M0 367.5h400M0 64.5h400" stroke-opacity="0.25" stroke-miterlimit="10"/><path fill="none" stroke="#000" class="dcg-svg-axis-line" paint-order="fill stroke markers" d="M34 0v400M0 216h400" stroke-opacity="0.9" stroke-miterlimit="10" stroke-width="1.5"/><g class="dcg-svg-axis-value"><text fill="none" stroke="#fff" font-family="Arial" font-size="14" text-decoration="normal" x="25.3" y="231.9" text-anchor="middle" stroke-miterlimit="2" stroke-width="3">0</text><text font-family="Arial" font-size="14" text-decoration="normal" x="25.3" y="231.9" text-anchor="middle">0</text></g><g class="dcg-svg-axis-value"><text fill="none" stroke="#fff" font-family="Arial" font-size="14" text-decoration="normal" x="186.01" y="231.9" text-anchor="middle" stroke-miterlimit="2" stroke-width="3">2</text><text font-family="Arial" font-size="14" text-decoration="normal" x="186.01" y="231.9" text-anchor="middle">2</text></g><g class="dcg-svg-axis-value"><text fill="none" stroke="#fff" font-family="Arial" font-size="14" text-decoration="normal" x="337.81" y="231.9" text-anchor="middle" stroke-miterlimit="2" stroke-width="3">4</text><text font-family="Arial" font-size="14" text-decoration="normal" x="337.81" y="231.9" text-anchor="middle">4</text></g><g class="dcg-svg-axis-value"><text fill="none" stroke="#fff" font-family="Arial" font-size="14" text-decoration="normal" x="22.97" y="371.67" text-anchor="middle" stroke-miterlimit="2" stroke-width="3">-2</text><text font-family="Arial" font-size="14" text-decoration="normal" x="22.97" y="371.67" text-anchor="middle">-2</text></g><g class="dcg-svg-axis-value"><text fill="none" stroke="#fff" font-family="Arial" font-size="14" text-decoration="normal" x="25.3" y="68.13" text-anchor="middle" stroke-miterlimit="2" stroke-width="3">2</text><text font-family="Arial" font-size="14" text-decoration="normal" x="25.3" y="68.13" text-anchor="middle">2</text></g><path fill="none" stroke="#c74440" class="dcg-svg-curve" paint-order="fill stroke markers" d="m34.197 216.093.373 2.354.88 4.034 1.171 4.38 1.465 4.671 1.758 4.874 2.05 4.994 2.247 4.84 2.441 4.683 2.734 4.675 2.93 4.459 3.125 4.231 3.32 3.99 3.418 3.638 3.418 3.217 3.516 2.92 3.516 2.565 3.613 2.3 3.71 2.039 3.712 1.737 3.808 1.492 3.907 1.248 4.004 1.001 4.101.755 4.2.504 4.296.254h4.395l4.59-.263 4.687-.533 4.883-.821 4.98-1.104 5.176-1.418 5.371-1.747 5.567-2.093 5.761-2.455 5.957-2.83 6.153-3.222 6.347-3.625 6.641-4.107 6.836-4.546 7.129-5.07 7.422-5.62 7.715-6.195 8.007-6.792 8.301-7.415 8.594-8.058 8.887-8.725 9.277-9.515 9.57-10.232 9.961-11.08 10.352-11.96 10.742-12.872 11.133-13.813 11.62-14.911 12.013-15.92 12.402-16.956 12.695-17.88 12.988-18.82 13.184-19.625 13.477-20.585L400 6.672" stroke-linecap="round" stroke-linejoin="round" stroke-miterlimit="10" stroke-width="2.5"/><path fill="none" stroke="#2d70b3" class="dcg-svg-curve" paint-order="fill stroke markers" d="m34.197 216.093 5.55 5.344 5.37 4.788 5.274 4.33 5.175 3.895 5.079 3.477 4.98 3.081 4.883 2.704 4.785 2.345 4.687 2.004 4.688 1.715 4.59 1.399 4.492 1.1 4.492.835 4.492.569 4.493.303 4.492.037 4.492-.229 4.492-.494 4.492-.76 4.493-1.026 4.492-1.292 4.59-1.594 4.59-1.872 4.687-2.198 4.785-2.543 4.785-2.844 4.883-3.213 4.98-3.6 5.079-4.008 5.273-4.522 5.371-4.981 5.469-5.463 5.664-6.073 5.762-6.611 5.957-7.295 6.152-8.025 6.25-8.663 6.25-9.177 6.348-9.848 6.347-10.378 6.348-10.909 6.445-11.62 6.446-12.166 6.543-12.91 6.543-13.476 6.64-14.252 6.64-14.833 6.74-15.645 6.835-16.483 6.836-17.099L308.594-5.5" stroke-linecap="round" stroke-linejoin="round" stroke-miterlimit="10" stroke-width="2.5"/></g></svg>