<svg viewBox="0 0 800 800"><path fill="#fff" d="M0 0h800v800H0z" class="dcg-svg-background"/><g fill="none" stroke="#000" stroke-miterlimit="10" stroke-width="2" paint-order="fill stroke markers"><path stroke-opacity="0.2" d="M5 0v800M33 0v800M61 0v800M119 0v800M147 0v800M175 0v800M203 0v800M231 0v800M259 0v800M289 0v800M317 0v800M345 0v800M373 0v800M401 0v800M431 0v800M459 0v800M487 0v800M515 0v800M543 0v800M573 0v800M601 0v800M629 0v800M657 0v800M685 0v800M713 0v800M743 0v800M771 0v800M799 0v800M0 789h800M0 761h800M0 735h800M0 709h800M0 681h800M0 655h800M0 629h800M0 601h800M0 575h800M0 523h800M0 495h800M0 469h800M0 443h800M0 415h800M0 389h800M0 363h800M0 335h800M0 309h800M0 283h800M0 255h800M0 229h800M0 203h800M0 177h800M0 149h800M0 123h800M0 97h800M0 69h800M0 43h800M0 17h800" class="dcg-svg-minor-gridline"/><path stroke-opacity="0.3" d="M203 0v800M317 0v800M431 0v800M543 0v800M657 0v800M771 0v800M0 761h800M0 655h800M0 443h800M0 335h800M0 229h800M0 123h800M0 17h800" class="dcg-svg-major-gridline"/></g><g transform="scale(2)"><title>Y axis</title><path fill="none" stroke="#000" stroke-miterlimit="10" stroke-opacity="0.9" stroke-width="1.5" d="M45 0v400" class="dcg-svg-axis-line" paint-order="fill stroke markers"/></g><g transform="scale(2)"><title>X axis</title><path fill="none" stroke="#000" stroke-miterlimit="10" stroke-opacity="0.9" stroke-width="1.5" d="M0 274h400" class="dcg-svg-axis-line" paint-order="fill stroke markers"/></g><g font-family="Arial" font-size="14" text-anchor="middle"><g class="dcg-svg-axis-value"><text x="36" y="290.1" fill="none" stroke="#fff" stroke-miterlimit="2" stroke-width="3" text-decoration="normal" transform="scale(2)">0</text><text x="36" y="290.1" text-decoration="normal" transform="scale(2)">0</text></g><g class="dcg-svg-axis-value"><text x="101.6" y="290.1" fill="none" stroke="#fff" stroke-miterlimit="2" stroke-width="3" text-decoration="normal" transform="scale(2)">1</text><text x="101.6" y="290.1" text-decoration="normal" transform="scale(2)">1</text></g><g class="dcg-svg-axis-value"><text x="158.4" y="290.1" fill="none" stroke="#fff" stroke-miterlimit="2" stroke-width="3" text-decoration="normal" transform="scale(2)">2</text><text x="158.4" y="290.1" text-decoration="normal" transform="scale(2)">2</text></g><g class="dcg-svg-axis-value"><text x="215.1" y="290.1" fill="none" stroke="#fff" stroke-miterlimit="2" stroke-width="3" text-decoration="normal" transform="scale(2)">3</text><text x="215.1" y="290.1" text-decoration="normal" transform="scale(2)">3</text></g><g class="dcg-svg-axis-value"><text x="271.8" y="290.1" fill="none" stroke="#fff" stroke-miterlimit="2" stroke-width="3" text-decoration="normal" transform="scale(2)">4</text><text x="271.8" y="290.1" text-decoration="normal" transform="scale(2)">4</text></g><g class="dcg-svg-axis-value"><text x="328.6" y="290.1" fill="none" stroke="#fff" stroke-miterlimit="2" stroke-width="3" text-decoration="normal" transform="scale(2)">5</text><text x="328.6" y="290.1" text-decoration="normal" transform="scale(2)">5</text></g><g class="dcg-svg-axis-value"><text x="385.3" y="290.1" fill="none" stroke="#fff" stroke-miterlimit="2" stroke-width="3" text-decoration="normal" transform="scale(2)">6</text><text x="385.3" y="290.1" text-decoration="normal" transform="scale(2)">6</text></g><g class="dcg-svg-axis-value"><text x="29.8" y="384.6" fill="none" stroke="#fff" stroke-miterlimit="2" stroke-width="3" text-decoration="normal" transform="scale(2)">-40</text><text x="29.8" y="384.6" text-decoration="normal" transform="scale(2)">-40</text></g><g class="dcg-svg-axis-value"><text x="29.8" y="331.4" fill="none" stroke="#fff" stroke-miterlimit="2" stroke-width="3" text-decoration="normal" transform="scale(2)">-20</text><text x="29.8" y="331.4" text-decoration="normal" transform="scale(2)">-20</text></g><g class="dcg-svg-axis-value"><text x="32.1" y="224.9" fill="none" stroke="#fff" stroke-miterlimit="2" stroke-width="3" text-decoration="normal" transform="scale(2)">20</text><text x="32.1" y="224.9" text-decoration="normal" transform="scale(2)">20</text></g><g class="dcg-svg-axis-value"><text x="32.1" y="171.7" fill="none" stroke="#fff" stroke-miterlimit="2" stroke-width="3" text-decoration="normal" transform="scale(2)">40</text><text x="32.1" y="171.7" text-decoration="normal" transform="scale(2)">40</text></g><g class="dcg-svg-axis-value"><text x="32.1" y="118.5" fill="none" stroke="#fff" stroke-miterlimit="2" stroke-width="3" text-decoration="normal" transform="scale(2)">60</text><text x="32.1" y="118.5" text-decoration="normal" transform="scale(2)">60</text></g><g class="dcg-svg-axis-value"><text x="32.1" y="65.2" fill="none" stroke="#fff" stroke-miterlimit="2" stroke-width="3" text-decoration="normal" transform="scale(2)">80</text><text x="32.1" y="65.2" text-decoration="normal" transform="scale(2)">80</text></g><g class="dcg-svg-axis-value dcg-svg-offcenter-axis-value"><text x="28.2" y="13.8" fill="none" stroke="#fff" stroke-miterlimit="2" stroke-width="3" text-decoration="normal" transform="scale(2)">100</text><text x="28.2" y="13.8" text-decoration="normal" transform="scale(2)">100</text></g></g><g transform="scale(2)"><title>表达式1</title><path fill="none" stroke="#c74440" stroke-linecap="round" stroke-linejoin="round" stroke-miterlimit="10" stroke-width="2.5" d="m0 273.1 24.4-.6 20-.8 17-1 14.7-1 13-1.2 11.6-1.3 10.5-1.4 9.7-1.6 8.9-1.8 8.3-1.8 7.7-2 7.3-2.2 6.9-2.3 6.5-2.5 6.3-2.6 6-2.8 5.7-3 5.4-3.2 5.4-3.4 5.2-3.6 5-3.9 5-4.1 5-4.4 4.7-4.8 4.7-5 4.7-5.5 4.7-6 4.7-6.4 4.5-6.7 4.3-7 4.2-7.2 4-7.7 4-8 4-8.5 3.8-8.8 3.8-9.4 3.7-9.7 3.7-10.5 3.6-10.8 3.6-11.6 3.5-12 3.6-12.7 3.5-13.6 3.5-14.4 3.4-14.9 3.4-15.8 1.9-9.1" class="dcg-svg-curve" paint-order="fill stroke markers"/></g><g transform="scale(2)"><title>表达式2</title><path fill="none" stroke="#2d70b3" stroke-linecap="round" stroke-linejoin="round" stroke-miterlimit="10" stroke-width="2.5" d="M19.2 405.5 400 46.6" class="dcg-svg-curve" paint-order="fill stroke markers"/></g><title>表达式3</title><title>表达式4</title></svg>