<svg viewBox="0 0 800 800"><path fill="#fff" d="M0 0h800v800H0z" class="dcg-svg-background"/><g fill="none" stroke="#000" stroke-miterlimit="10" stroke-width="2" paint-order="fill stroke markers"><path stroke-opacity="0.2" d="M145 0v800M221 0v800M297 0v800M373 0v800M447 0v800M523 0v800M599 0v800M675 0v800M751 0v800M0 735h800M0 659h800M0 583h800M0 509h800M0 357h800M0 281h800M0 205h800M0 129h800M0 53h800" class="dcg-svg-minor-gridline"/><path stroke-opacity="0.3" d="M373 0v800M675 0v800M0 735h800M0 129h800" class="dcg-svg-major-gridline"/></g><g transform="scale(2)"><title>Y axis</title><path fill="none" stroke="#000" stroke-miterlimit="10" stroke-opacity="0.9" stroke-width="1.5" d="M34 0v400" class="dcg-svg-axis-line" paint-order="fill stroke markers"/></g><g transform="scale(2)"><title>X axis</title><path fill="none" stroke="#000" stroke-miterlimit="10" stroke-opacity="0.9" stroke-width="1.5" d="M0 216h400" class="dcg-svg-axis-line" paint-order="fill stroke markers"/></g><g font-family="Arial" font-size="14" text-anchor="middle"><g class="dcg-svg-axis-value"><text x="25.3" y="231.9" fill="none" stroke="#fff" stroke-miterlimit="2" stroke-width="3" text-decoration="normal" transform="scale(2)">0</text><text x="25.3" y="231.9" text-decoration="normal" transform="scale(2)">0</text></g><g class="dcg-svg-axis-value"><text x="186" y="231.9" fill="none" stroke="#fff" stroke-miterlimit="2" stroke-width="3" text-decoration="normal" transform="scale(2)">2</text><text x="186" y="231.9" text-decoration="normal" transform="scale(2)">2</text></g><g class="dcg-svg-axis-value"><text x="337.8" y="231.9" fill="none" stroke="#fff" stroke-miterlimit="2" stroke-width="3" text-decoration="normal" transform="scale(2)">4</text><text x="337.8" y="231.9" text-decoration="normal" transform="scale(2)">4</text></g><g class="dcg-svg-axis-value"><text x="23" y="371.7" fill="none" stroke="#fff" stroke-miterlimit="2" stroke-width="3" text-decoration="normal" transform="scale(2)">-2</text><text x="23" y="371.7" text-decoration="normal" transform="scale(2)">-2</text></g><g class="dcg-svg-axis-value"><text x="25.3" y="68.1" fill="none" stroke="#fff" stroke-miterlimit="2" stroke-width="3" text-decoration="normal" transform="scale(2)">2</text><text x="25.3" y="68.1" text-decoration="normal" transform="scale(2)">2</text></g></g><g transform="scale(2)"><title>表达式3</title><path fill="none" stroke="#c74440" stroke-linecap="round" stroke-linejoin="round" stroke-miterlimit="10" stroke-width="2.5" d="m34.2 216 .4 2.4.8 4 1.2 4.5 1.5 4.6 1.7 5 2 4.9 2.3 4.8 2.5 4.7 2.7 4.7 3 4.5 3 4.2 3.4 4 3.4 3.6 3.4 3.2 3.5 3 3.6 2.5 3.6 2.3 3.7 2 3.7 1.8 3.8 1.5 4 1.2 4 1 4 .8 4.2.5 4.3.2h4.4l4.6-.2 4.7-.5 4.9-.9 5-1 5.1-1.5 5.4-1.7 5.6-2.1 5.7-2.5 6-2.8 6.1-3.2 6.4-3.7 6.6-4 6.9-4.6 7-5 7.5-5.7 7.7-6.2 8-6.8 8.3-7.4 8.6-8 9-8.8 9.2-9.5 9.6-10.2 10-11.1 10.3-12 10.7-12.8 11.1-13.9L314 131l12-15.9 12.4-17L351 80.2l13-18.8 13.1-19.7 13.5-20.6L400 6.7" class="dcg-svg-curve" paint-order="fill stroke markers"/></g><g transform="scale(2)"><title>表达式4</title><path fill="none" stroke="#2d70b3" stroke-linecap="round" stroke-linejoin="round" stroke-miterlimit="10" stroke-width="2.5" d="m34.2 216 5.5 5.4 5.4 4.8 5.3 4.4 5.2 3.8 5 3.5 5 3.1 5 2.7 4.7 2.4 4.7 2 4.7 1.7 4.6 1.4 4.5 1 4.4 1 4.5.5 4.5.3h4.5l4.5-.2 4.5-.5 4.5-.8 4.5-1 4.5-1.3 4.6-1.6 4.6-1.8 4.6-2.2 4.8-2.6 4.8-2.8 4.9-3.2 5-3.6 5-4 5.3-4.6 5.4-5 5.5-5.4 5.6-6 5.8-6.7 6-7.3 6.1-8 6.3-8.7 6.2-9.2 6.4-9.8 6.3-10.4 6.4-10.9 6.4-11.6 6.4-12.2 6.6-12.9 6.5-13.5 6.7-14.2 6.6-15 6.7-15.6 6.9-16.5 6.8-17 5.2-13.5" class="dcg-svg-curve" paint-order="fill stroke markers"/></g></svg>