<svg xmlns="http://www.w3.org/2000/svg" viewBox="0 0 800 800"><g transform="scale(2)"><path fill="#fff" class="dcg-svg-background" d="M0 0h400v400H0z"/><path fill="none" stroke="#000" stroke-miterlimit="10" stroke-opacity="0.2" d="M9.5 0v400m76-400v400m38-400v400m38-400v400m38-400v400m38-400v400m38-400v400m38-400v400m38-400v400m38-400v400M0 397.5h400m-400-38h400m-400-38h400m-400-38h400m-400-38h400m-400-76h400m-400-38h400M0 93.5h400M0 55.5h400M0 17.5h400" class="dcg-svg-minor-gridline" paint-order="fill stroke markers"/><path fill="none" stroke="#000" stroke-miterlimit="10" stroke-opacity="0.25" d="M199.5 0v400m152-400v400M0 359.5h400M0 55.5h400" class="dcg-svg-major-gridline" paint-order="fill stroke markers"/><path fill="none" stroke="#000" stroke-miterlimit="10" stroke-opacity="0.9" stroke-width="1.5" d="M47 0v400M0 207h400" class="dcg-svg-axis-line" paint-order="fill stroke markers"/><g class="dcg-svg-axis-value"><text x="38.54" y="223.17" fill="none" stroke="#fff" stroke-miterlimit="2" stroke-width="3" font-family="Arial" font-size="14" text-anchor="middle" text-decoration="normal">0</text><text x="38.54" y="223.17" font-family="Arial" font-size="14" text-anchor="middle" text-decoration="normal">0</text></g><g class="dcg-svg-axis-value"><text x="199.25" y="223.17" fill="none" stroke="#fff" stroke-miterlimit="2" stroke-width="3" font-family="Arial" font-size="14" text-anchor="middle" text-decoration="normal">2</text><text x="199.25" y="223.17" font-family="Arial" font-size="14" text-anchor="middle" text-decoration="normal">2</text></g><g class="dcg-svg-axis-value"><text x="351.05" y="223.17" fill="none" stroke="#fff" stroke-miterlimit="2" stroke-width="3" font-family="Arial" font-size="14" text-anchor="middle" text-decoration="normal">4</text><text x="351.05" y="223.17" font-family="Arial" font-size="14" text-anchor="middle" text-decoration="normal">4</text></g><g class="dcg-svg-axis-value"><text x="36.21" y="362.94" fill="none" stroke="#fff" stroke-miterlimit="2" stroke-width="3" font-family="Arial" font-size="14" text-anchor="middle" text-decoration="normal">-2</text><text x="36.21" y="362.94" font-family="Arial" font-size="14" text-anchor="middle" text-decoration="normal">-2</text></g><g class="dcg-svg-axis-value"><text x="38.54" y="59.39" fill="none" stroke="#fff" stroke-miterlimit="2" stroke-width="3" font-family="Arial" font-size="14" text-anchor="middle" text-decoration="normal">2</text><text x="38.54" y="59.39" font-family="Arial" font-size="14" text-anchor="middle" text-decoration="normal">2</text></g><path fill="none" stroke="#c74440" stroke-linecap="round" stroke-linejoin="round" stroke-miterlimit="10" stroke-width="2.5" d="m47.437 169.417.317 2.053.781 3.696 1.172 4.486 1.465 4.745 1.758 4.932 1.953 4.816 2.246 4.905 2.441 4.74 2.637 4.565 2.93 4.521 3.125 4.288 3.32 4.042L75 224.889l3.418 3.258 3.516 2.957 3.515 2.598 3.614 2.332 3.71 2.068 3.711 1.765 3.809 1.518 3.906 1.273 4.004 1.025 4.102.777 4.199.526 4.297.275 4.394.02 4.59-.243 4.688-.513 4.785-.784 4.98-1.08 5.176-1.395 5.371-1.724 5.469-2.033 5.664-2.383 5.86-2.752 6.152-3.185 6.347-3.59 6.543-4.01 6.836-4.507 7.13-5.032 7.323-5.506 7.618-6.072 7.91-6.661 8.203-7.275 8.496-7.91 8.887-8.667 9.18-9.355 9.57-10.17 9.96-11.02 10.352-11.898 10.742-12.81 11.133-13.753 11.524-14.724 12.011-15.856 12.403-16.892 12.695-17.819 12.89-18.615 13.184-19.561 1.965-2.986" class="dcg-svg-curve" paint-order="fill stroke markers"/><path fill="none" stroke="#2d70b3" stroke-linecap="round" stroke-linejoin="round" stroke-miterlimit="10" stroke-width="2.5" d="m47.437 207.36 5.493 5.293 5.37 4.791 5.274 4.335 5.176 3.898 5.078 3.482 4.98 3.084 4.883 2.707 4.786 2.349 4.687 2.008 4.688 1.718 4.59 1.402 4.492 1.104 4.492.838 4.492.572 4.492.306 4.492.04 4.493-.225 4.492-.49 4.492-.757 4.492-1.023 4.492-1.289 4.59-1.59 4.59-1.87 4.687-2.194 4.786-2.539 4.785-2.84 4.883-3.21 4.98-3.597 5.078-4.004 5.274-4.517 5.37-4.978 5.47-5.458 5.664-6.07 5.761-6.606 5.957-7.291 6.153-8.02 6.25-8.659 6.25-9.172 6.347-9.843 6.348-10.374 6.348-10.904 6.445-11.615 6.445-12.162 6.543-12.906 6.543-13.47 6.64-14.247 6.641-14.829 6.739-15.64 6.836-16.478 6.836-17.093 1.862-4.827" class="dcg-svg-curve" paint-order="fill stroke markers"/></g></svg>