<svg version="1.1" xmlns="http://www.w3.org/2000/svg" xmlns:xlink="http://www.w3.org/1999/xlink" width="800" height="800"><defs/><g transform="scale(2,2)"><g id="background-f5c5a2c4"><rect fill="white" stroke="none" x="0" y="0" width="400" height="400" class="dcg-svg-background"/></g><g id="graphpaper-f5c5a2c4"><g id="grid-f5c5a2c4"><g><path fill="none" stroke="rgb(0,0,0)" class="dcg-svg-minor-gridline" paint-order="fill stroke markers" d=" M 72.5 0 L 72.5 400" stroke-opacity="0.2" stroke-miterlimit="10" stroke-dasharray=""/><path fill="none" stroke="rgb(0,0,0)" class="dcg-svg-minor-gridline" paint-order="fill stroke markers" d=" M 110.5 0 L 110.5 400" stroke-opacity="0.2" stroke-miterlimit="10" stroke-dasharray=""/><path fill="none" stroke="rgb(0,0,0)" class="dcg-svg-minor-gridline" paint-order="fill stroke markers" d=" M 148.5 0 L 148.5 400" stroke-opacity="0.2" stroke-miterlimit="10" stroke-dasharray=""/><path fill="none" stroke="rgb(0,0,0)" class="dcg-svg-minor-gridline" paint-order="fill stroke markers" d=" M 186.5 0 L 186.5 400" stroke-opacity="0.2" stroke-miterlimit="10" stroke-dasharray=""/><path fill="none" stroke="rgb(0,0,0)" class="dcg-svg-minor-gridline" paint-order="fill stroke markers" d=" M 223.5 0 L 223.5 400" stroke-opacity="0.2" stroke-miterlimit="10" stroke-dasharray=""/><path fill="none" stroke="rgb(0,0,0)" class="dcg-svg-minor-gridline" paint-order="fill stroke markers" d=" M 261.5 0 L 261.5 400" stroke-opacity="0.2" stroke-miterlimit="10" stroke-dasharray=""/><path fill="none" stroke="rgb(0,0,0)" class="dcg-svg-minor-gridline" paint-order="fill stroke markers" d=" M 299.5 0 L 299.5 400" stroke-opacity="0.2" stroke-miterlimit="10" stroke-dasharray=""/><path fill="none" stroke="rgb(0,0,0)" class="dcg-svg-minor-gridline" paint-order="fill stroke markers" d=" M 337.5 0 L 337.5 400" stroke-opacity="0.2" stroke-miterlimit="10" stroke-dasharray=""/><path fill="none" stroke="rgb(0,0,0)" class="dcg-svg-minor-gridline" paint-order="fill stroke markers" d=" M 375.5 0 L 375.5 400" stroke-opacity="0.2" stroke-miterlimit="10" stroke-dasharray=""/><path fill="none" stroke="rgb(0,0,0)" class="dcg-svg-minor-gridline" paint-order="fill stroke markers" d=" M 0 367.5 L 400 367.5" stroke-opacity="0.2" stroke-miterlimit="10" stroke-dasharray=""/><path fill="none" stroke="rgb(0,0,0)" class="dcg-svg-minor-gridline" paint-order="fill stroke markers" d=" M 0 329.5 L 400 329.5" stroke-opacity="0.2" stroke-miterlimit="10" stroke-dasharray=""/><path fill="none" stroke="rgb(0,0,0)" class="dcg-svg-minor-gridline" paint-order="fill stroke markers" d=" M 0 291.5 L 400 291.5" stroke-opacity="0.2" stroke-miterlimit="10" stroke-dasharray=""/><path fill="none" stroke="rgb(0,0,0)" class="dcg-svg-minor-gridline" paint-order="fill stroke markers" d=" M 0 254.5 L 400 254.5" stroke-opacity="0.2" stroke-miterlimit="10" stroke-dasharray=""/><path fill="none" stroke="rgb(0,0,0)" class="dcg-svg-minor-gridline" paint-order="fill stroke markers" d=" M 0 178.5 L 400 178.5" stroke-opacity="0.2" stroke-miterlimit="10" stroke-dasharray=""/><path fill="none" stroke="rgb(0,0,0)" class="dcg-svg-minor-gridline" paint-order="fill stroke markers" d=" M 0 140.5 L 400 140.5" stroke-opacity="0.2" stroke-miterlimit="10" stroke-dasharray=""/><path fill="none" stroke="rgb(0,0,0)" class="dcg-svg-minor-gridline" paint-order="fill stroke markers" d=" M 0 102.5 L 400 102.5" stroke-opacity="0.2" stroke-miterlimit="10" stroke-dasharray=""/><path fill="none" stroke="rgb(0,0,0)" class="dcg-svg-minor-gridline" paint-order="fill stroke markers" d=" M 0 64.5 L 400 64.5" stroke-opacity="0.2" stroke-miterlimit="10" stroke-dasharray=""/><path fill="none" stroke="rgb(0,0,0)" class="dcg-svg-minor-gridline" paint-order="fill stroke markers" d=" M 0 26.5 L 400 26.5" stroke-opacity="0.2" stroke-miterlimit="10" stroke-dasharray=""/><path fill="none" stroke="rgb(0,0,0)" class="dcg-svg-major-gridline" paint-order="fill stroke markers" d=" M 186.5 0 L 186.5 400" stroke-opacity="0.2500000000000001" stroke-miterlimit="10" stroke-dasharray=""/><path fill="none" stroke="rgb(0,0,0)" class="dcg-svg-major-gridline" paint-order="fill stroke markers" d=" M 337.5 0 L 337.5 400" stroke-opacity="0.2500000000000001" stroke-miterlimit="10" stroke-dasharray=""/><path fill="none" stroke="rgb(0,0,0)" class="dcg-svg-major-gridline" paint-order="fill stroke markers" d=" M 0 367.5 L 400 367.5" stroke-opacity="0.2500000000000001" stroke-miterlimit="10" stroke-dasharray=""/><path fill="none" stroke="rgb(0,0,0)" class="dcg-svg-major-gridline" paint-order="fill stroke markers" d=" M 0 64.5 L 400 64.5" stroke-opacity="0.2500000000000001" stroke-miterlimit="10" stroke-dasharray=""/></g></g><g id="axis-f5c5a2c4"><g id="yaxis-f5c5a2c4"><title>Y axis</title><g><path fill="none" stroke="rgb(0,0,0)" class="dcg-svg-axis-line" paint-order="fill stroke markers" d=" M 34 0 L 34 400" stroke-opacity="0.9" stroke-miterlimit="10" stroke-width="1.5" stroke-dasharray=""/></g></g><g id="xaxis-f5c5a2c4"><title>X axis</title><g><path fill="none" stroke="rgb(0,0,0)" class="dcg-svg-axis-line" paint-order="fill stroke markers" d=" M 0 216 L 400 216" stroke-opacity="0.9" stroke-miterlimit="10" stroke-width="1.5" stroke-dasharray=""/></g></g><g><g class="dcg-svg-axis-value"><text fill="none" stroke="#ffffff" font-family="Arial" font-size="14px" font-style="normal" font-weight="normal" text-decoration="normal" x="25.30438576281901" y="231.90067758651512" text-anchor="middle" stroke-miterlimit="2" stroke-width="3" stroke-dasharray="">0</text><text fill="#000000" stroke="none" font-family="Arial" font-size="14px" font-style="normal" font-weight="normal" text-decoration="normal" x="25.30438576281901" y="231.90067758651512" text-anchor="middle">0</text></g><g class="dcg-svg-axis-value"><text fill="none" stroke="#ffffff" font-family="Arial" font-size="14px" font-style="normal" font-weight="normal" text-decoration="normal" x="186.00559050010685" y="231.90067758651512" text-anchor="middle" stroke-miterlimit="2" stroke-width="3" stroke-dasharray="">2</text><text fill="#000000" stroke="none" font-family="Arial" font-size="14px" font-style="normal" font-weight="normal" text-decoration="normal" x="186.00559050010685" y="231.90067758651512" text-anchor="middle">2</text></g><g class="dcg-svg-axis-value"><text fill="none" stroke="#ffffff" font-family="Arial" font-size="14px" font-style="normal" font-weight="normal" text-decoration="normal" x="337.81372883114466" y="231.90067758651512" text-anchor="middle" stroke-miterlimit="2" stroke-width="3" stroke-dasharray="">4</text><text fill="#000000" stroke="none" font-family="Arial" font-size="14px" font-style="normal" font-weight="normal" text-decoration="normal" x="337.81372883114466" y="231.90067758651512" text-anchor="middle">4</text></g><g class="dcg-svg-axis-value"><text fill="none" stroke="#ffffff" font-family="Arial" font-size="14px" font-style="normal" font-weight="normal" text-decoration="normal" x="22.97333107531901" y="371.6748522612551" text-anchor="middle" stroke-miterlimit="2" stroke-width="3" stroke-dasharray="">-2</text><text fill="#000000" stroke="none" font-family="Arial" font-size="14px" font-style="normal" font-weight="normal" text-decoration="normal" x="22.97333107531901" y="371.6748522612551" text-anchor="middle">-2</text></g><g class="dcg-svg-axis-value"><text fill="none" stroke="#ffffff" font-family="Arial" font-size="14px" font-style="normal" font-weight="normal" text-decoration="normal" x="25.30438576281901" y="68.12650291177512" text-anchor="middle" stroke-miterlimit="2" stroke-width="3" stroke-dasharray="">2</text><text fill="#000000" stroke="none" font-family="Arial" font-size="14px" font-style="normal" font-weight="normal" text-decoration="normal" x="25.30438576281901" y="68.12650291177512" text-anchor="middle">2</text></g></g></g></g><g id="expressions-f5c5a2c4"><g id="sketch-f5c5a2c4"><title>表达式3</title><path fill="#c74440" stroke="none" paint-order="stroke fill markers" d="" fill-opacity="0.4"/><g><path fill="none" stroke="#c74440" class="dcg-svg-curve" paint-order="fill stroke markers" d=" M 34.19745216906901 216.09267758651512 L 34.19745216906901 216.09267758651512 L 34.57031250000003 218.44714464058 L 35.449218750000036 222.48140927224233 L 36.62109375000003 226.861413518931 L 38.08593750000003 231.5321499345321 L 39.84375000000003 236.40616645819273 L 41.89453125000003 241.3998548013029 L 44.14062500000003 246.239439517819 L 46.58203125000003 250.92292994643154 L 49.31640625000003 255.5975428044188 L 52.24609375000003 260.0565474939454 L 55.37109375000003 264.28820197267896 L 58.69140625000003 268.27869292383843 L 62.10937500000003 271.91565261524903 L 65.52734375000003 275.13310470228294 L 69.04296875000003 278.05315991610854 L 72.55859375000003 280.6179928605041 L 76.17187500000003 282.9182075848744 L 79.88281250000003 284.95673752584617 L 83.59375000000003 286.6935700219656 L 87.40234375000001 288.1861959919376 L 91.30859375000001 289.43387480796457 L 95.31250000000001 290.43546424985846 L 99.41406250000003 291.1895013060504 L 103.61328125000003 291.6942657435666 L 107.91015625000001 291.9478306196101 L 112.30468750000001 291.9481027708237 L 116.89453125000003 291.6845445590152 L 121.58203125000001 291.1524703549684 L 126.46484375000001 290.3309702966764 L 131.4453125 289.2268636699801 L 136.62109375 287.8093064604864 L 141.9921875 286.06183304939316 L 147.55859375 283.9685272883613 L 153.32031250000003 281.5139992637411 L 159.27734375000003 278.68336201069053 L 165.42968750000003 275.46220851592295 L 171.77734375000003 271.83658925406286 L 178.41796875 267.7303545868647 L 185.25390625000003 263.18405859407653 L 192.38281250000003 258.1135647403759 L 199.8046875 252.4935082326283 L 207.51953125000003 246.29919802599682 L 215.52734374999997 239.50661378482326 L 223.828125 232.09239792957445 L 232.421875 224.03384387992668 L 241.30859375 215.30888141873547 L 250.5859375 205.7937996835916 L 260.15625 195.5615993280079 L 270.1171875 184.4814706374559 L 280.46875 172.52140448209252 L 291.2109375 159.6501730493054 L 302.34375 145.83733040451506 L 313.96484375 130.9258613816131 L 325.9765625 115.00603187316075 L 338.37890625 98.04980933659334 L 351.07421875 80.16944517547421 L 364.0625 61.350228033730616 L 377.24609375 41.72509739459488 L 390.72265625 21.1403190928755 L 400 6.672440325017135" stroke-linecap="round" stroke-linejoin="round" stroke-miterlimit="10" stroke-width="2.5" stroke-dasharray=""/></g></g><g id="sketch-f5c5a2c4"><title>表达式4</title><path fill="#2d70b3" stroke="none" paint-order="stroke fill markers" d="" fill-opacity="0.4"/><g><path fill="none" stroke="#2d70b3" class="dcg-svg-curve" paint-order="fill stroke markers" d=" M 34.19745216906901 216.09267758651512 L 34.19745216906901 216.09267758651512 L 39.74609375000003 221.43731832864918 L 45.117187500000036 226.2246763853776 L 50.39062500000003 230.5553097296524 L 55.56640625000003 234.44956782048433 L 60.64453125000003 237.92742327505056 L 65.62500000000003 241.0084718686948 L 70.50781250000003 243.71193253492717 L 75.29296875000003 246.05664736542425 L 79.98046875000003 248.0610816100291 L 84.66796875000003 249.7761013264814 L 89.25781250000003 251.17495833438753 L 93.75000000000003 252.2753641999235 L 98.24218750000003 253.1099709588749 L 102.73437500000003 253.67877861124168 L 107.22656250000001 253.98178715702392 L 111.71875000000003 254.01899659622157 L 116.21093750000001 253.79040692883464 L 120.70312500000003 253.29601815486313 L 125.19531250000003 252.53583027430705 L 129.68750000000003 251.5098432871664 L 134.17968750000003 250.21805719344115 L 138.76953125 248.6236595176025 L 143.35937500000003 246.7517806383398 L 148.04687500000003 244.55367475539566 L 152.83203125 242.0112534607606 L 157.6171875 239.1672330853554 L 162.50000000000003 235.9542769651352 L 167.48046875 232.35354300842332 L 172.55859375 228.3458122817097 L 177.83203125000003 223.82443095631754 L 183.20312500000003 218.84279254845106 L 188.67187500000003 213.3801707572661 L 194.33593750000003 207.30717563012934 L 200.09765625000003 200.69591716097716 L 206.05468750000003 193.40080119833453 L 212.20703125 185.3758530385105 L 218.45703125000003 176.71302967867408 L 224.70703125000003 167.53569160212194 L 231.05468750000003 157.68832115576268 L 237.40234375 147.3102317938459 L 243.75000000000003 136.40142351637147 L 250.19531250000003 124.78175833712397 L 256.640625 112.614918815588 L 263.18359375 99.70406031092814 L 269.7265625 86.22932080935996 L 276.3671875 71.97689778753886 L 283.0078125 57.1436358863005 L 289.74609375 41.498523471902416 L 296.58203125 25.015558457831162 L 303.41796875 7.9170851156574145 L 308.5944219480979 -5.5" stroke-linecap="round" stroke-linejoin="round" stroke-miterlimit="10" stroke-width="2.5" stroke-dasharray=""/></g></g></g><g id="labels-f5c5a2c4"/><g id="labels-f5c5a2c4"/></g></svg>