<svg viewBox="0 0 680 440"><defs><clipPath id="a"><path d="M0 0h680v440H0z"/></clipPath></defs><path fill="#fff" d="M0 0h680v440H0z"/><use width="640" height="400" href="#image-c7ad30b01e20315347d57c389232225278f07229" transform="translate(40 40)"/><g stroke-linecap="round" clip-path="url(#a)"><path fill="none" stroke="#e03131" stroke-width="4" d="M151.304 170.22h121.76m-121.76 0h121.76m-23.49 8.55c5.43-1.98 10.87-3.95 23.49-8.55m-23.49 8.55c7.15-2.6 14.31-5.21 23.49-8.55m-23.49-8.55c5.43 1.98 10.87 3.95 23.49 8.55m-23.49-8.55c7.15 2.6 14.31 5.21 23.49 8.55"/></g><g fill="none" stroke="#e03131" stroke-linecap="round" stroke-width="4" clip-path="url(#a)"><path d="M150.027 169.795V28.455m0 141.34V28.455m8.55 23.49c-3.26-8.96-6.52-17.92-8.55-23.49m8.55 23.49c-3.24-8.9-6.48-17.8-8.55-23.49"/><path d="M141.477 51.945c3.26-8.96 6.52-17.92 8.55-23.49m-8.55 23.49c3.24-8.9 6.48-17.8 8.55-23.49"/></g><g fill="none" stroke="#e03131" stroke-linecap="round" stroke-width="4" clip-path="url(#a)"><path d="M150.453 168.518v146.03m0-146.03v146.03m-8.55-23.5c1.79 4.91 3.57 9.82 8.55 23.5m-8.55-23.5c3.29 9.04 6.57 18.07 8.55 23.5"/><path d="M159.003 291.048c-1.79 4.91-3.57 9.82-8.55 23.5m8.55-23.5c-3.29 9.04-6.57 18.07-8.55 23.5"/></g><g clip-path="url(#a)"><text style="white-space:pre" y="34.34" fill="#e03131" dominant-baseline="alphabetic" font-family="Nunito, sans-serif, Segoe UI Emoji" font-size="36" transform="translate(100 260)">Eq</text></g><g stroke-linecap="round" clip-path="url(#a)"><path fill="#fff" d="M200 120h120v40H200"/><path fill="none" stroke="transparent" stroke-width="4" d="M200 120h120m-120 0h120m0 0v40m0-40v40m0 0H200m120 0H200m0 0v-40m0 40v-40"/></g><g clip-path="url(#a)"><text style="white-space:pre" y="34.34" fill="#e03131" dominant-baseline="alphabetic" font-family="Nunito, sans-serif, Segoe UI Emoji" font-size="36" transform="translate(40 120)">v₂</text></g><g fill="none" stroke="#e03131" stroke-linecap="round" stroke-width="4" clip-path="url(#a)"><path d="M150.356 170.668H23.596m126.76 0H23.596m23.49-8.55c-6.22 2.26-12.45 4.53-23.49 8.55m23.49-8.55c-6.45 2.35-12.9 4.69-23.49 8.55"/><path d="M47.086 179.218c-6.22-2.26-12.45-4.53-23.49-8.55m23.49 8.55c-6.45-2.35-12.9-4.69-23.49-8.55"/></g><g clip-path="url(#a)"><text style="white-space:pre" y="34.34" fill="#e03131" dominant-baseline="alphabetic" font-family="Nunito, sans-serif, Segoe UI Emoji" font-size="36" transform="translate(200 120)">v₁=E/B</text></g><path fill="none" stroke="transparent" stroke-linecap="round" stroke-width="4" d="M840 280H180m660 0H180m0 0q0 0 0 0m0 0q0 0 0 0m0 0h-20m20 0h-20m0 0L60 260m100 20c-35.17-7.03-70.33-14.07-100-20m0 0c13.63 6.81 27.25 13.63 40 20m-40-20c12.97 6.49 25.94 12.97 40 20m0 0c76.56-98.43 153.12-196.86 280-360M100 280c59.42-76.4 118.84-152.79 280-360m-7.67 23.79c1.79-5.55 3.58-11.11 7.67-23.79m-7.67 23.79c1.59-4.93 3.18-9.87 7.67-23.79m-21.17 13.29c4.94-3.1 9.88-6.2 21.17-13.29m-21.17 13.29c4.39-2.75 8.78-5.51 21.17-13.29"/><g clip-path="url(#a)"><text style="white-space:pre" y="34.34" fill="#e03131" dominant-baseline="alphabetic" font-family="Nunito, sans-serif, Segoe UI Emoji" font-size="36" transform="translate(160 40)">qvB</text></g></svg>