<svg viewBox="0 0 340 420"><defs><clipPath id="a"><path d="M0 0h340v420H0z"/></clipPath></defs><path fill="#fff" d="M0 0h340v420H0z"/><use width="640" height="400" href="#image-c7ad30b01e20315347d57c389232225278f07229" transform="translate(40 40)"/><g stroke-linecap="round" clip-path="url(#a)"><path fill="none" stroke="#e03131" stroke-width="4" d="M151.304 170.22h121.76m-121.76 0h121.76m-23.49 8.55c5.43-1.98 10.87-3.95 23.49-8.55m-23.49 8.55c7.15-2.6 14.31-5.21 23.49-8.55m-23.49-8.55c5.43 1.98 10.87 3.95 23.49 8.55m-23.49-8.55c7.15 2.6 14.31 5.21 23.49 8.55"/></g><g fill="none" stroke="#e03131" stroke-linecap="round" stroke-width="4" clip-path="url(#a)"><path d="M150.027 169.795V28.455m0 141.34V28.455m8.55 23.49c-3.26-8.96-6.52-17.92-8.55-23.49m8.55 23.49c-3.24-8.9-6.48-17.8-8.55-23.49"/><path d="M141.477 51.945c3.26-8.96 6.52-17.92 8.55-23.49m-8.55 23.49c3.24-8.9 6.48-17.8 8.55-23.49"/></g><g fill="none" stroke="#e03131" stroke-linecap="round" stroke-width="4" clip-path="url(#a)"><path d="M150.453 168.518v146.03m0-146.03v146.03m-8.55-23.5c1.79 4.91 3.57 9.82 8.55 23.5m-8.55-23.5c3.29 9.04 6.57 18.07 8.55 23.5"/><path d="M159.003 291.048c-1.79 4.91-3.57 9.82-8.55 23.5m8.55-23.5c-3.29 9.04-6.57 18.07-8.55 23.5"/></g><g clip-path="url(#a)"><text style="white-space:pre" y="34.34" fill="#e03131" dominant-baseline="alphabetic" font-family="Nunito, sans-serif, Segoe UI Emoji" font-size="36" transform="translate(166.205 25.471)">qv₁B</text></g><g stroke-linecap="round" clip-path="url(#a)"><path fill="#fff" d="M200 120h120v40H200"/><path fill="none" stroke="transparent" stroke-width="4" d="M200 120h120m-120 0h120m0 0v40m0-40v40m0 0H200m120 0H200m0 0v-40m0 40v-40"/></g><g clip-path="url(#a)"><text style="white-space:pre" y="34.34" fill="#e03131" dominant-baseline="alphabetic" font-family="Nunito, sans-serif, Segoe UI Emoji" font-size="36" transform="translate(200 120)">v₁=E/B</text></g><g clip-path="url(#a)"><text style="white-space:pre" y="34.34" fill="#e03131" dominant-baseline="alphabetic" font-family="Nunito, sans-serif, Segoe UI Emoji" font-size="36" transform="translate(98.087 260.902)">Eq</text></g><g stroke-linecap="round" clip-path="url(#a)"><path fill="#fff" d="M314.075 202.606h10.14v13.56h-10.14"/><path fill="none" stroke="transparent" stroke-width="4" d="M314.075 202.606h10.14m-10.14 0h10.14m0 0v13.56m0-13.56v13.56m0 0h-10.14m10.14 0h-10.14m0 0v-13.56m0 13.56v-13.56"/></g><g stroke-linecap="round"><path fill="#fff" d="M320 40h40v440h-40"/><path fill="none" stroke="transparent" stroke-width="4" d="M320 40h40m-40 0h40m0 0v440m0-440v440m0 0h-40m40 0h-40m0 0V40m0 440V40"/></g></svg>