<svg viewBox="0 0 740 580"><defs><clipPath id="a"><path d="M0 0h740v580H0z"/></clipPath></defs><path fill="#fff" d="M0 0h740v580H0z"/><g clip-path="url(#a)"><path fill="none" stroke="#1e1e1e" stroke-linecap="round" stroke-width="4" d="M20 440h700m-700 0h700"/></g><g stroke-linecap="round" clip-path="url(#a)"><path fill="none" stroke="#1e1e1e" stroke-width="4" d="M120 440V340m0 100V340m8.6 23.5L120 340m8.6 23.5L120 340m-8.5 23.5L120 340m-8.5 23.5L120 340"/></g><g stroke-linecap="round" clip-path="url(#a)"><path fill="none" stroke="#1e1e1e" stroke-width="4.5" d="M67.3 496c-3 9.5-5.8 19-7.3 24m21-13.7L60 520"/></g><g fill="none" stroke="#1e1e1e" stroke-linecap="round" stroke-width="4.5" clip-path="url(#a)"><path stroke-dasharray="8 12" d="M120 440v100"/><path d="M111.5 516.5 120 540m8.6-23.5L120 540"/></g><g fill="none" stroke="#1e1e1e" stroke-linecap="round" stroke-width="4.5" clip-path="url(#a)"><path stroke-dasharray="8 12" d="M620 440v100"/><path d="M611.5 516.5 620 540m8.6-23.5L620 540"/></g><g clip-path="url(#a)"><path fill="none" stroke="#868e96" stroke-dasharray="1.5 10" stroke-linecap="round" stroke-width="4.5" d="M573 287.9a249 249 0 0 1-22.3 103.5 247 247 0 0 1-41.2 63.7 254 254 0 0 1-99.3 68.5 252.1 252.1 0 1 1 162.3-251c.3 5.1.3 12.8.4 15.3s.1-2.5 0 0"/></g><path fill="none" stroke="#868e96" stroke-dasharray="1.5 10" stroke-linecap="round" stroke-width="4.5" d="M572.6 593.3a249 249 0 0 1-22.2 103.5 247 247 0 0 1-41.2 63.7 254 254 0 0 1-99.3 68.6A252.1 252.1 0 1 1 572 578c.3 5 .4 12.7.5 15.2 0 2.6 0-2.5 0 0"/><g clip-path="url(#a)"><path fill="none" stroke="#343a40" stroke-linecap="round" stroke-width="4" d="m60 80 20 20M60 80l20 20"/></g><g clip-path="url(#a)"><text y="34.3" fill="#343a40" dominant-baseline="alphabetic" font-family="Nunito, sans-serif, Segoe UI Emoji" font-size="36" style="white-space:pre" transform="translate(620 100)">B</text></g></svg>