<svg viewBox="0 0 740 580"><defs><clipPath id="a"><path d="M0 0h740v580H0z"/></clipPath></defs><path fill="#fff" d="M0 0h740v580H0z"/><g clip-path="url(#a)"><path fill="none" stroke="#1e1e1e" stroke-linecap="round" stroke-width="4" d="M20 440h700m-700 0h700"/></g><g stroke-linecap="round" clip-path="url(#a)"><path fill="none" stroke="#1e1e1e" stroke-width="4" d="M120 440V340m0 100V340m8.55 23.49c-1.76-4.83-3.52-9.66-8.55-23.49m8.55 23.49c-1.95-5.37-3.91-10.73-8.55-23.49m-8.55 23.49c1.76-4.83 3.52-9.66 8.55-23.49m-8.55 23.49c1.95-5.37 3.91-10.73 8.55-23.49"/></g><g stroke-linecap="round" clip-path="url(#a)"><path fill="none" stroke="#1e1e1e" stroke-width="4" d="M120 440c10-13.33 50-66.67 60-80m-60 80c10-13.33 50-66.67 60-80m-7.25 23.92c2.83-9.34 5.66-18.69 7.25-23.92m-7.25 23.92c1.74-5.74 3.48-11.47 7.25-23.92m-20.94 13.66c8.18-5.34 16.36-10.67 20.94-13.66m-20.94 13.66c5.03-3.27 10.05-6.55 20.94-13.66"/></g><g stroke-linecap="round" clip-path="url(#a)"><path fill="none" stroke="#1e1e1e" stroke-width="4" d="M120 440c-10-13.33-50-66.67-60-80m60 80c-10-13.33-50-66.67-60-80m20.94 13.66C73.93 369.09 66.93 364.52 60 360m20.94 13.66L60 360m7.25 23.92c-2.42-8-4.85-16-7.25-23.92m7.25 23.92c-2.42-7.98-4.84-15.96-7.25-23.92"/></g><g fill="none" stroke="#1e1e1e" stroke-linecap="round" stroke-width="4.5" clip-path="url(#a)"><path stroke-dasharray="8 12" d="M120 440c16.19 21.59 32.39 43.19 60 80"/><path d="M159.06 506.34c5.65 3.68 11.31 7.37 20.94 13.66m-7.25-23.92c1.95 6.45 3.91 12.91 7.25 23.92"/></g><g fill="none" stroke="#1e1e1e" stroke-linecap="round" stroke-width="4.5" clip-path="url(#a)"><path stroke-dasharray="8 12" d="M120 440c-23.7 31.61-47.41 63.21-60 80"/><path d="M67.25 496.08c-2.86 9.45-5.73 18.9-7.25 23.92m20.94-13.66C72.66 511.73 64.39 517.13 60 520"/></g><g fill="none" stroke="#1e1e1e" stroke-linecap="round" stroke-width="4.5" clip-path="url(#a)"><path stroke-dasharray="8 12" d="M120 440v100"/><path d="M111.45 516.51c2.31 6.35 4.62 12.7 8.55 23.49m8.55-23.49c-2.31 6.35-4.62 12.7-8.55 23.49"/></g><g fill="none" stroke="#1e1e1e" stroke-linecap="round" stroke-width="4.5" clip-path="url(#a)"><path stroke-dasharray="8 12" d="M520 440c18.54 24.72 37.09 49.45 60 80"/><path d="M559.06 506.34c6.47 4.22 12.94 8.44 20.94 13.66m-7.25-23.92L580 520"/></g><g fill="none" stroke="#1e1e1e" stroke-linecap="round" stroke-width="4.5" clip-path="url(#a)"><path stroke-dasharray="8 12" d="M520 440c-21.56 28.75-43.12 57.49-60 80"/><path d="M467.25 496.08c-2.6 8.59-5.21 17.19-7.25 23.92m20.94-13.66c-7.53 4.91-15.05 9.82-20.94 13.66"/></g><g fill="none" stroke="#1e1e1e" stroke-linecap="round" stroke-width="4.5" clip-path="url(#a)"><path stroke-dasharray="8 12" d="M620 440v100"/><path d="M611.45 516.51L620 540m8.55-23.49L620 540"/></g><g clip-path="url(#a)"><path fill="none" stroke="#868e96" stroke-dasharray="1.5 10" stroke-linecap="round" stroke-width="4.5" d="M572.926 287.89c0 5.07-.15 10.16-.46 15.22-.31 5.07-.77 10.13-1.38 15.17s-1.38 10.06-2.29 15.05-1.98 9.97-3.2 14.89c-1.21 4.93-2.58 9.83-4.09 14.67-1.51 4.85-3.16 9.65-4.96 14.4-1.8 4.74-3.75 9.44-5.83 14.07s-4.31 9.2-6.67 13.69a255 255 0 01-7.48 13.27c-2.62 4.34-5.39 8.61-8.27 12.78-2.88 4.18-5.89 8.28-9.02 12.27s-6.39 7.9-9.75 11.7c-3.37 3.8-6.85 7.5-10.44 11.09s-7.29 7.07-11.09 10.44c-3.8 3.36-7.71 6.62-11.7 9.75s-8.09 6.14-12.27 9.02c-4.17 2.88-8.44 5.65-12.78 8.27a255 255 0 01-13.27 7.48c-4.49 2.36-9.06 4.59-13.69 6.67s-9.33 4.03-14.07 5.83c-4.75 1.8-9.55 3.45-14.4 4.96-4.84 1.51-9.74 2.88-14.67 4.09-4.92 1.22-9.9 2.29-14.89 3.2s-10.01 1.68-15.05 2.29-10.1 1.07-15.17 1.38c-5.06.31-10.15.46-15.22.46s-10.16-.15-15.22-.46c-5.07-.31-10.13-.77-15.17-1.38s-10.06-1.38-15.05-2.29c-5-.91-9.97-1.98-14.89-3.2-4.93-1.21-9.83-2.58-14.67-4.09-4.85-1.51-9.66-3.16-14.4-4.96s-9.44-3.75-14.07-5.83-9.2-4.31-13.69-6.67a255 255 0 01-13.27-7.48c-4.34-2.62-8.61-5.39-12.78-8.27-4.18-2.88-8.28-5.89-12.27-9.02-4-3.13-7.9-6.39-11.7-9.75-3.8-3.37-7.5-6.85-11.09-10.44s-7.07-7.29-10.44-11.09c-3.36-3.8-6.62-7.71-9.75-11.7s-6.14-8.09-9.02-12.27c-2.88-4.17-5.65-8.44-8.27-12.78a255 255 0 01-7.48-13.27c-2.36-4.49-4.59-9.06-6.67-13.69s-4.03-9.33-5.83-14.07c-1.8-4.75-3.46-9.55-4.96-14.4-1.51-4.84-2.88-9.74-4.09-14.67-1.22-4.92-2.29-9.9-3.2-14.89a246 246 0 01-2.29-15.05c-.61-5.04-1.07-10.1-1.38-15.17-.31-5.06-.46-10.15-.46-15.22s.15-10.16.46-15.22c.31-5.07.77-10.13 1.38-15.17s1.37-10.06 2.29-15.05c.91-5 1.98-9.97 3.2-14.89 1.21-4.93 2.58-9.83 4.09-14.67 1.5-4.85 3.16-9.66 4.96-14.4s3.75-9.44 5.83-14.07 4.31-9.2 6.67-13.69 4.85-8.92 7.48-13.27c2.62-4.34 5.39-8.61 8.27-12.78 2.88-4.18 5.89-8.28 9.02-12.27 3.13-4 6.39-7.9 9.75-11.7 3.37-3.8 6.85-7.5 10.44-11.09s7.29-7.07 11.09-10.44c3.8-3.36 7.7-6.62 11.7-9.75 3.99-3.13 8.09-6.14 12.27-9.02 4.17-2.88 8.44-5.65 12.78-8.27 4.35-2.63 8.78-5.12 13.27-7.48s9.06-4.59 13.69-6.67 9.33-4.03 14.07-5.83 9.55-3.46 14.4-4.96c4.84-1.51 9.74-2.88 14.67-4.09 4.92-1.22 9.89-2.29 14.89-3.2 4.99-.92 10.01-1.68 15.05-2.29s10.1-1.07 15.17-1.38c5.06-.31 10.15-.46 15.22-.46s10.16.15 15.22.46c5.07.31 10.13.77 15.17 1.38s10.06 1.37 15.05 2.29c4.99.91 9.97 1.98 14.89 3.2 4.93 1.21 9.83 2.58 14.67 4.09 4.85 1.5 9.65 3.16 14.4 4.96 4.74 1.8 9.44 3.75 14.07 5.83s9.2 4.31 13.69 6.67 8.92 4.85 13.27 7.48c4.34 2.62 8.61 5.39 12.78 8.27 4.18 2.88 8.28 5.89 12.27 9.02s7.9 6.39 11.7 9.75c3.8 3.37 7.5 6.85 11.09 10.44s7.07 7.29 10.44 11.09c3.36 3.8 6.62 7.7 9.75 11.7 3.13 3.99 6.14 8.09 9.02 12.27 2.88 4.17 5.65 8.44 8.27 12.78 2.63 4.35 5.12 8.78 7.48 13.27s4.59 9.06 6.67 13.69 4.03 9.33 5.83 14.07 3.45 9.55 4.96 14.4c1.51 4.84 2.88 9.74 4.09 14.67 1.22 4.92 2.29 9.89 3.2 14.89.91 4.99 1.68 10.01 2.29 15.05s1.07 10.1 1.38 15.17c.31 5.06.38 12.68.46 15.22s.08-2.54 0 0"/></g><path fill="none" stroke="#868e96" stroke-dasharray="1.5 10" stroke-linecap="round" stroke-width="4.5" d="M572.595 593.331c0 5.07-.15 10.16-.46 15.22-.31 5.07-.77 10.13-1.38 15.17s-1.38 10.06-2.29 15.05-1.98 9.97-3.2 14.89c-1.21 4.93-2.58 9.83-4.09 14.67-1.51 4.85-3.16 9.65-4.96 14.4-1.8 4.74-3.75 9.44-5.83 14.07s-4.31 9.2-6.67 13.69a255 255 0 01-7.48 13.27c-2.62 4.34-5.39 8.61-8.27 12.78-2.88 4.18-5.89 8.28-9.02 12.27s-6.39 7.9-9.75 11.7c-3.37 3.8-6.85 7.5-10.44 11.09s-7.29 7.07-11.09 10.44c-3.8 3.36-7.71 6.62-11.7 9.75s-8.09 6.14-12.27 9.02c-4.17 2.88-8.44 5.65-12.78 8.27a255 255 0 01-13.27 7.48c-4.49 2.36-9.06 4.59-13.69 6.67s-9.33 4.03-14.07 5.83c-4.75 1.8-9.55 3.45-14.4 4.96-4.84 1.51-9.74 2.88-14.67 4.09-4.92 1.22-9.9 2.29-14.89 3.2s-10.01 1.68-15.05 2.29-10.1 1.07-15.17 1.38c-5.06.31-10.15.46-15.22.46s-10.16-.15-15.22-.46c-5.07-.31-10.13-.77-15.17-1.38s-10.06-1.38-15.05-2.29c-5-.91-9.97-1.98-14.89-3.2-4.93-1.21-9.83-2.58-14.67-4.09-4.85-1.51-9.66-3.16-14.4-4.96s-9.44-3.75-14.07-5.83-9.2-4.31-13.69-6.67a255 255 0 01-13.27-7.48c-4.34-2.62-8.61-5.39-12.78-8.27-4.18-2.88-8.28-5.89-12.27-9.02-4-3.13-7.9-6.39-11.7-9.75-3.8-3.37-7.5-6.85-11.09-10.44s-7.07-7.29-10.44-11.09c-3.36-3.8-6.62-7.71-9.75-11.7s-6.14-8.09-9.02-12.27c-2.88-4.17-5.65-8.44-8.27-12.78a255 255 0 01-7.48-13.27c-2.36-4.49-4.59-9.06-6.67-13.69s-4.03-9.33-5.83-14.07c-1.8-4.75-3.46-9.55-4.96-14.4-1.51-4.84-2.88-9.74-4.09-14.67-1.22-4.92-2.29-9.9-3.2-14.89a246 246 0 01-2.29-15.05c-.61-5.04-1.07-10.1-1.38-15.17-.31-5.06-.46-10.15-.46-15.22s.15-10.16.46-15.22c.31-5.07.77-10.13 1.38-15.17s1.37-10.06 2.29-15.05c.91-5 1.98-9.97 3.2-14.89 1.21-4.93 2.58-9.83 4.09-14.67 1.5-4.85 3.16-9.66 4.96-14.4s3.75-9.44 5.83-14.07 4.31-9.2 6.67-13.69 4.85-8.92 7.48-13.27c2.62-4.34 5.39-8.61 8.27-12.78 2.88-4.18 5.89-8.28 9.02-12.27 3.13-4 6.39-7.9 9.75-11.7 3.37-3.8 6.85-7.5 10.44-11.09s7.29-7.07 11.09-10.44c3.8-3.36 7.7-6.62 11.7-9.75 3.99-3.13 8.09-6.14 12.27-9.02 4.17-2.88 8.44-5.65 12.78-8.27 4.35-2.63 8.78-5.12 13.27-7.48s9.06-4.59 13.69-6.67 9.33-4.03 14.07-5.83 9.55-3.46 14.4-4.96c4.84-1.51 9.74-2.88 14.67-4.09 4.92-1.22 9.89-2.29 14.89-3.2 4.99-.92 10.01-1.68 15.05-2.29s10.1-1.07 15.17-1.38c5.06-.31 10.15-.46 15.22-.46s10.16.15 15.22.46c5.07.31 10.13.77 15.17 1.38s10.06 1.37 15.05 2.29c4.99.91 9.97 1.98 14.89 3.2 4.93 1.21 9.83 2.58 14.67 4.09 4.85 1.5 9.65 3.16 14.4 4.96 4.74 1.8 9.44 3.75 14.07 5.83s9.2 4.31 13.69 6.67 8.92 4.85 13.27 7.48c4.34 2.62 8.61 5.39 12.78 8.27 4.18 2.88 8.28 5.89 12.27 9.02s7.9 6.39 11.7 9.75c3.8 3.37 7.5 6.85 11.09 10.44s7.07 7.29 10.44 11.09c3.36 3.8 6.62 7.7 9.75 11.7 3.13 3.99 6.14 8.09 9.02 12.27 2.88 4.17 5.65 8.44 8.27 12.78 2.63 4.35 5.12 8.78 7.48 13.27s4.59 9.06 6.67 13.69 4.03 9.33 5.83 14.07 3.45 9.55 4.96 14.4c1.51 4.84 2.88 9.74 4.09 14.67 1.22 4.92 2.29 9.89 3.2 14.89.91 4.99 1.68 10.01 2.29 15.05s1.07 10.1 1.38 15.17c.31 5.06.38 12.68.46 15.22s.08-2.54 0 0"/><g clip-path="url(#a)"><path fill="none" stroke="#343a40" stroke-linecap="round" stroke-width="4" d="M60 80l20 20M60 80l20 20"/></g><g clip-path="url(#a)"><text style="white-space:pre" y="34.34" fill="#343a40" dominant-baseline="alphabetic" font-family="Nunito, sans-serif, Segoe UI Emoji" font-size="36" transform="translate(620 100)">B</text></g></svg>