<svg xmlns="http://www.w3.org/2000/svg" viewBox="0 0 610.02 357"><defs><clipPath id="a"><path d="M419 26h22v22h-22zm0 0"/></clipPath><clipPath id="b"><path d="M414.508 61.566h38.504V15.055l-38.504-.004zm0 0"/></clipPath><clipPath id="c"><path d="M445 24h5v10h-5zm0 0"/></clipPath><clipPath id="d"><path d="M414.508 61.566h38.504V15.055l-38.504-.004zm0 0"/></clipPath></defs><path fill="none" stroke="#000" stroke-linecap="round" stroke-linejoin="round" stroke-miterlimit="10" stroke-width="15" d="M389.718 1426.28v-330.02m0-93.751V672.514" transform="matrix(.14643 0 0 -.1465 0 357.698)"/><path fill-rule="evenodd" d="M62.34 322.352a5.271 5.271 0 1 1-10.543 0c0-2.91 2.36-5.274 5.27-5.274a5.274 5.274 0 0 1 5.273 5.274M32.664 196.277c-.062.27-.207.403-.445.403q-.03.028-.149.027a.2.2 0 0 1-.117-.027h-.133q-.386-.001-.386-.29v-.1c.117-.708.18-1.364.18-1.97v-.547q-.093-1.103-.497-1.902a2.9 2.9 0 0 0-1.191-1.238q-.785-.437-1.985-.438a3.6 3.6 0 0 0-1.414.305 5.4 5.4 0 0 0-1.34.816 5 5 0 0 0-1.109 1.274 5.5 5.5 0 0 0-.62 1.457 4.3 4.3 0 0 0-.165 1.023q0 .674.297 1.293.427 1.039 1.539 1.32l3.402.95a4.1 4.1 0 0 1 1.594.87q.657.598.992 1.411t.39 1.774v.257q.002.838-.238 1.715a8.5 8.5 0 0 1-.988 2.328A8.8 8.8 0 0 1 28.594 209a8.4 8.4 0 0 1-2.11 1.316 5.75 5.75 0 0 1-2.304.496c-1.133 0-2.102-.183-2.899-.546q-1.201-.547-1.777-1.38l-1.465 1.739q-.193.188-.398.188h-.09c-.246 0-.383-.094-.402-.29a.3.3 0 0 1 .047-.156l1.714-6.73c.059-.266.235-.406.52-.418h.324a.5.5 0 0 1 .328.144.5.5 0 0 1 .059.203.5.5 0 0 1-.031.145 8 8 0 0 0-.266 1.926q-.001 1.424.695 2.414 1.113 1.598 3.88 1.597.695 0 1.413-.324.72-.322 1.34-.87a6.4 6.4 0 0 0 1.145-1.4 6.2 6.2 0 0 0 .69-1.59q.15-.658.15-1.237-.001-.716-.196-1.38c-.293-.738-.844-1.21-1.64-1.425l-3.36-.95a3.9 3.9 0 0 1-1.555-.796q-.654-.55-1.015-1.313c-.361-.763-.383-1.07-.422-1.683v-.317c0-.48.058-.98.18-1.511a7.7 7.7 0 0 1 .988-2.196 8 8 0 0 1 1.687-1.86 8.3 8.3 0 0 1 2.082-1.241 6 6 0 0 1 2.243-.47c1.015.005 1.855.192 2.515.571s1.14.828 1.438 1.344l1.418-1.711q.123-.199.386-.203h.133c.238.004.356.117.356.348v.113zm9.77 18.063a121 121 0 0 0-3.325-.047q-1.613 0-3.32.047v-.692h.64q.306.002.575-.007c.18-.004.348-.02.512-.04.16-.023.3-.042.418-.066a.36.36 0 0 0 .242-.148.43.43 0 0 0 .097-.278v-9.074a4.6 4.6 0 0 1-1.14.309q-.678.1-1.485.101v-.683q1.116.001 2.055-.239.943-.234 1.63-.89h.288q.305.004.305.265v10.211q0 .164.093.282a.4.4 0 0 0 .27.144c.098.024.227.043.383.067.152.02.328.035.52.039.199.007.386.007.574.007h.668zM31.98 316.039q-.09.403-.446.402c-.02.02-.066.032-.148.028a.2.2 0 0 1-.117-.028h-.133c-.258 0-.387-.093-.387-.289v-.097q.18-1.066.18-1.97v-.55q-.09-1.102-.496-1.902a2.9 2.9 0 0 0-1.192-1.238q-.783-.434-1.984-.438a3.7 3.7 0 0 0-1.414.305 5.3 5.3 0 0 0-1.34.816c-.453.375-.82.8-1.11 1.274a5.5 5.5 0 0 0-.62 1.457 4.5 4.5 0 0 0-.165 1.023c0 .45.102.883.297 1.293.285.691.801 1.133 1.54 1.324l3.406.95c.62.18 1.152.472 1.59.867q.659.599.992 1.41a5.5 5.5 0 0 1 .39 1.773v.262q0 .832-.234 1.71a8.6 8.6 0 0 1-.992 2.329 8.6 8.6 0 0 1-1.688 2.012 8.2 8.2 0 0 1-2.11 1.316 5.7 5.7 0 0 1-2.3.496q-1.704.002-2.902-.547c-.801-.363-1.391-.82-1.778-1.379l-1.465 1.739q-.193.187-.398.187h-.09c-.246 0-.379-.093-.398-.289a.3.3 0 0 1 .043-.156l1.718-6.73q.088-.401.516-.415h.324q.182 0 .328.141.06.119.059.203a.5.5 0 0 1-.027.145 7.7 7.7 0 0 0-.27 1.925q.002 1.424.695 2.415 1.114 1.598 3.88 1.597a3.4 3.4 0 0 0 1.413-.324 5.2 5.2 0 0 0 1.34-.871 6.5 6.5 0 0 0 1.149-1.399 6.3 6.3 0 0 0 .687-1.59q.148-.659.149-1.238c0-.476-.067-.937-.192-1.379q-.445-1.106-1.644-1.421l-3.36-.95a4 4 0 0 1-1.554-.797 4 4 0 0 1-1.016-1.316 4.7 4.7 0 0 1-.422-1.684v-.316c0-.477.063-.98.18-1.512a7.8 7.8 0 0 1 .992-2.195 7.9 7.9 0 0 1 1.687-1.86 8.4 8.4 0 0 1 2.079-1.242 6 6 0 0 1 2.242-.468c1.02.004 1.855.191 2.515.574q.994.564 1.438 1.34l1.422-1.711q.118-.199.383-.203h.132c.239.004.356.117.356.347v.114zm10.464 18.067H34.89v-.446q0-.046.058-.144l3.035-2.946q.54-.533 1.09-1.086c.367-.37.7-.75.989-1.136q.434-.58.699-1.196.258-.614.258-1.293a3.4 3.4 0 0 0-.168-1.066 2.7 2.7 0 0 0-.485-.871 2.4 2.4 0 0 0-.789-.602 2.5 2.5 0 0 0-1.094-.23q-.927-.001-1.636.496-.714.492-.946 1.09-.042.016.149.015h.16q.275.059.48.176a1 1 0 0 1 .344.32q.14.204.14.496 0 .481-.35.739a1.32 1.32 0 0 1-1.571 0q-.363-.258-.363-.738.002-.68.297-1.282a3.4 3.4 0 0 1 .808-1.047q.51-.44 1.207-.699t1.477-.258c.644 0 1.234.082 1.765.254.54.168.993.41 1.371.727s.676.683.887 1.101a3 3 0 0 1 .32 1.38 2.95 2.95 0 0 1-.425 1.542c-.285.47-.641.899-1.059 1.293q-.634.584-1.344 1.106-.71.52-1.285 1.011l-2.133 1.793h2.793q.585.002 1.09-.007a16 16 0 0 0 1.223-.062.6.6 0 0 0 .14-.227 4 4 0 0 0 .118-.399q.053-.229.113-.465c.039-.16.07-.332.102-.523h.687zm0 0"/><path fill="none" stroke="#000" stroke-dasharray="120 60" stroke-linecap="round" stroke-linejoin="round" stroke-miterlimit="10" stroke-width="15" d="M2969.74 2005.423V672.514" transform="matrix(.14643 0 0 -.1465 0 357.698)"/><path fill-rule="evenodd" stroke="#000" stroke-linecap="round" stroke-linejoin="round" stroke-miterlimit="10" stroke-width="15" d="M1484.737 650.01H2969.74v45.009H1484.737zm0 0" transform="matrix(.14643 0 0 -.1465 0 357.698)"/><path fill="none" stroke="#000" stroke-dasharray="120 60" stroke-linecap="round" stroke-linejoin="round" stroke-miterlimit="10" stroke-width="15" d="M389.718 672.514h1530.007" transform="matrix(.14643 0 0 -.1465 0 357.698)"/><path fill="none" stroke="#0000f0" stroke-linecap="round" stroke-linejoin="round" stroke-miterlimit="10" stroke-width="15" d="m937.227 888.146 554.926-173.023" transform="matrix(.14643 0 0 -.1465 0 357.698)"/><path fill="#0000f0" d="m57.395 201.539 74.609 23.266-.652 2.097-74.61-23.261c-.582-.184-.902-.801-.723-1.38s.797-.902 1.375-.722zm91.043 29.54-19.012-12.833 2.558 6.55-.652 2.099-5.828 3.937zm67.628 20.433 176.918-40.27.489 2.145-176.918 40.265a1.09 1.09 0 0 1-1.313-.828c-.137-.59.235-1.18.824-1.312m194.278-43.094-22.875-1.55 5.5 4.378.484 2.145-3.062 6.332zm0 0"/><path fill="none" stroke="#000" stroke-linecap="round" stroke-linejoin="round" stroke-miterlimit="10" stroke-width="15" d="M3974.726 627.532v1377.89" transform="matrix(.14643 0 0 -.1465 0 357.698)"/><path fill="#0000f0" d="m402.875 208.992 161.012-36.648.488 2.144-161.016 36.649a1.1 1.1 0 0 1-.484-2.145m178.371-39.472-22.879-1.551 5.5 4.379.489 2.144-3.063 6.332zm0 0"/><g clip-path="url(#a)"><g clip-path="url(#b)"><path fill-rule="evenodd" d="M440.215 33.438a.64.64 0 0 1-.192.324.48.48 0 0 1-.328.136.3.3 0 0 1-.148.028q-.176.001-.176-.028-.37 0-.398-.316v-.102q.085-.674.148-1.367.06-.532.059-.976v-.246a5.5 5.5 0 0 0-.14-1.028 1.8 1.8 0 0 0-.395-.77q-.564-.66-1.672-.78a23 23 0 0 0-2.367-.126h-3.184q-.784.006-.918.118-.075.058-.297.847l-1.836 7.016h2.043q.832 0 1.512-.07a2.3 2.3 0 0 0 1.168-.434q.446-.358.675-1.004.228-.648.45-1.484c.11-.285.297-.426.562-.414h.254q.412.001.414.37v.102l-1.851 7.118c-.059.3-.25.441-.579.433h-.234q-.417 0-.418-.348a.3.3 0 0 1 .047-.156 14 14 0 0 0 .281-1.48 2 2 0 0 0 .032-.305c0-.266-.063-.48-.18-.644q-.251-.346-.895-.41c-.644-.064-.91-.067-1.445-.067h-2.129l-2.031 7.879q-.148.504-.149.75v.055c.043.043.317.066.832.074h3.387q1.319 0 2.555-.18a5.4 5.4 0 0 0 2.3-.914c.317-.23.622-.535.907-.918s.555-.809.812-1.273.5-.957.735-1.48q.346-.786.687-1.548.117-.344.516-.343h.254q.415.001.414.37v.118l-2.945 7.015a.55.55 0 0 1-.536.344h-15.39q-.223 0-.328-.129a.3.3 0 0 1-.102-.215.5.5 0 0 1 .027-.172l.059-.214a.62.62 0 0 1 .207-.325.57.57 0 0 1 .371-.136q.697-.001 1.305-.02c.402-.015.71-.066.914-.152.18-.098.316-.356.418-.777l4.156-16.102c.063-.211.09-.379.09-.504 0-.113-.024-.184-.074-.203q-.207-.128-.813-.156a33 33 0 0 0-1.304-.032c-.274.004-.414-.129-.414-.386v-.102l.058-.242q.123-.475.578-.477h14.996q.37 0 .399.36v.101zm0 0"/></g></g><g clip-path="url(#c)"><g clip-path="url(#d)"><path fill-rule="evenodd" d="M446.258 33.25q-.103.268-.36.266h-.105l-.078-.035q-.253-.055-.277-.31v-.081l1.336-7.418a1.11 1.11 0 0 1 .566-.797q.468-.275.95-.273.514.002.831.285.2.175.2.46 0 .21-.118.485zm0 0"/></g></g><path fill-rule="evenodd" d="M589.879 30.125a.62.62 0 0 1-.195.324.46.46 0 0 1-.325.137.3.3 0 0 1-.148.027q-.176.005-.176-.027c-.246 0-.383-.105-.402-.316v-.102q.089-.676.148-1.363.06-.535.059-.98v-.243a6 6 0 0 0-.137-1.031 1.8 1.8 0 0 0-.394-.77q-.564-.657-1.672-.781a24 24 0 0 0-2.371-.125h-3.18q-.784.006-.918.117-.074.058-.297.848l-1.836 7.016h2.043q.832.005 1.512-.07a2.35 2.35 0 0 0 1.168-.43c.297-.243.52-.575.672-1.008.156-.43.304-.922.453-1.48q.165-.43.562-.419h.25q.415 0 .414.375v.102l-1.847 7.117q-.09.446-.578.43h-.239c-.273 0-.414-.114-.414-.344q.001-.087.043-.16a13 13 0 0 0 .285-1.48 2 2 0 0 0 .028-.302q0-.403-.176-.648-.253-.345-.898-.41a15 15 0 0 0-1.442-.063h-2.133l-2.027 7.88q-.148.504-.148.745v.059q.06.058.828.07h3.39q1.319.002 2.555-.18a5.35 5.35 0 0 0 2.3-.91q.476-.346.903-.922c.29-.382.559-.804.816-1.273.258-.46.5-.957.73-1.48q.353-.78.692-1.547.118-.342.516-.344h.254c.273 0 .414.125.414.375v.113l-2.945 7.016q-.166.346-.535.348h-15.395q-.22 0-.324-.13a.32.32 0 0 1-.106-.218.7.7 0 0 1 .032-.172l.058-.215a.61.61 0 0 1 .578-.46q.698.001 1.301-.02.608-.024.918-.153c.18-.093.316-.355.414-.777l4.16-16.101q.09-.317.09-.504.001-.17-.074-.203c-.137-.082-.41-.137-.813-.157a33 33 0 0 0-1.304-.031c-.278.004-.414-.129-.414-.387v-.101l.058-.242c.078-.317.274-.477.578-.477h14.996q.37 0 .399.363v.098zm0 0"/><path fill="#0000f0" d="m57.211 201.5 182.695 24.176-.285 2.18L56.926 203.68a1.1 1.1 0 0 1 .285-2.18m199.957 27.57-20.91-9.418 3.633 6.024-.29 2.176-5.074 4.87zm0 0"/><path fill="none" stroke="#0000f0" stroke-linecap="round" stroke-linejoin="round" stroke-miterlimit="10" stroke-width="15" d="m1689.106 880.36 1285.623-170.036" transform="matrix(.14643 0 0 -.1465 0 357.698)"/><path fill="none" stroke="#000" stroke-dasharray="120 60" stroke-linecap="round" stroke-linejoin="round" stroke-miterlimit="10" stroke-width="15" d="M382.995 241.277 2974.97 716.243" transform="matrix(.14643 0 0 -.1465 0 357.698)"/><path fill="#0000f0" d="m434.531 251.852 65.32-11.973.395 2.16-65.32 11.977a1.1 1.1 0 0 1-.394-2.164zm82.785-14.059-22.793-2.524 5.309 4.614.398 2.16-3.332 6.195zm0 0"/><path fill="none" stroke="#0000f0" stroke-linecap="round" stroke-linejoin="round" stroke-miterlimit="10" stroke-width="15" d="m2968.86 710.03 999.65 183.21" transform="matrix(.14643 0 0 -.1465 0 357.698)"/><path fill="none" stroke="#000" stroke-dasharray="120 60" stroke-linecap="round" stroke-linejoin="round" stroke-miterlimit="10" stroke-width="15" d="m382.995 241.277 1109.158 431.237" transform="matrix(.14643 0 0 -.1465 0 357.698)"/><path fill="none" stroke="#0000f0" stroke-linecap="round" stroke-linejoin="round" stroke-miterlimit="10" stroke-width="15" d="m382.995 1058.77 3591.731 367.51" transform="matrix(.14643 0 0 -.1465 0 357.698)"/><path fill="#0000f0" d="m55.969 201.496 252.515-25.848.223 2.188-252.516 25.848a1.1 1.1 0 0 1-.222-2.188m270.09-26.543-22.52-4.32 4.93 5.015.222 2.188-3.812 5.914zm0 0"/><path fill-rule="evenodd" d="M225.102 265.336c-.059.3-.243.445-.547.445-.461 0-.903.012-1.317.032q-.62.029-.902.152-.282.119-.445.754l-4.16 16.203q-.09.317-.09.5 0 .176.09.219.204.129.808.152a44 44 0 0 0 1.293.02q.415.002.414.343a.7.7 0 0 1-.027.188l-.063.215q-.04.187-.199.316-.152.129-.363.129a77 77 0 0 0-3.582-.086q-1.817.002-3.668.086c-.258 0-.387-.121-.387-.371v-.117l.059-.243q.119-.473.578-.46.697-.001 1.3-.02.61-.024.907-.152.265-.146.426-.778l4.16-16.062-10.996 17.8a.73.73 0 0 1-.684.403h-.144q-.457 0-.551-.457l-1.79-17.586-3.894 15.168a1.7 1.7 0 0 0-.086.547.5.5 0 0 0 .028.16q.028.344.238.543c.176.176.414.289.71.348.298.058.63.085 1.005.085.277 0 .414.118.414.344a.7.7 0 0 1-.028.188l-.058.215a.58.58 0 0 1-.203.316q-.153.129-.375.129a54 54 0 0 0-2.993-.086c-1.003 0-2.027.031-3.062.086q-.224 0-.324-.129-.106-.099-.106-.215.001-.085.032-.172l.058-.215q.117-.473.578-.46.562 0 1.059-.087a2.5 2.5 0 0 0 .926-.359q.339-.215.554-.566a3 3 0 0 0 .317-.758l3.965-15.383q.092-.316.09-.492 0-.17-.075-.2c-.136-.081-.406-.136-.804-.156a27 27 0 0 0-1.297-.03q-.4 0-.43-.388v-.101l.062-.258c.106-.289.301-.43.575-.433h4.797q.474.003.53.464l1.688 16.43 10.188-16.492c.144-.27.375-.399.68-.402h4.796q.204.004.356.144a.5.5 0 0 1 .058.215.3.3 0 0 1-.043.16zm220.585 10.305q-.046.187-.199.316a.58.58 0 0 1-.379.129q-.532 0-1.035.078a2.25 2.25 0 0 0-.933.383c-.235.14-.422.332-.563.566a3 3 0 0 0-.309.754l-4.367 17.012q-.162.429-.578.43h-.34a.44.44 0 0 1-.398-.23 2929 2929 0 0 1-3.324-9.009 947 947 0 0 0-3.16-8.492l-3.817 14.856q-.088.247-.09.488.001.1.032.215a.84.84 0 0 0 .265.547q.265.258.711.347c.297.055.629.086 1.008.082.273.004.414.118.414.348a.7.7 0 0 1-.031.187l-.059.215q-.045.2-.215.324c-.17.124-.234.121-.363.121a51 51 0 0 0-3.004-.085 53 53 0 0 0-3.047.086q-.222 0-.328-.13a.3.3 0 0 1-.101-.214q.002-.088.027-.176l.059-.215a.6.6 0 0 1 .21-.32.56.56 0 0 1 .368-.14 6 6 0 0 0 1.05-.083c.329-.058.637-.18.934-.363.227-.14.41-.332.547-.566q.208-.351.324-.754l4.145-16.118c-.168-.058-.47-.093-.91-.117a39 39 0 0 0-1.399-.027q-.223.001-.324-.145a.3.3 0 0 1-.09-.214q.001-.087.043-.16l.047-.227q.164-.434.574-.434h4.633q.285.001.37.23l5.638 15.212 3.242-12.567q.089-.257.09-.52c0-.292-.094-.538-.282-.73a1.37 1.37 0 0 0-.73-.37 5.6 5.6 0 0 0-.988-.075q-.218 0-.324-.129a.32.32 0 0 1-.102-.23q.001-.087.043-.16l.043-.227c.11-.29.3-.434.578-.434a78 78 0 0 0 3.035.059q1.506 0 3.035-.059.205-.001.352.145a.5.5 0 0 1 .058.215.27.27 0 0 1-.043.156zm0 0"/><path fill="#0bc2b8" fill-opacity="0.392" fill-rule="evenodd" d="m580.242 169.992-1.097.551-2.746 1.648-10.981 6.59-1.649.551-2.746.55.551-1.1 2.196-3.844h-2.196l-4.941 1.648-12.082 2.746-19.219 3.844-12.078 3.297-43.383 9.34-12.078 3.296-12.082 2.746-4.941 1.098h-2.196l-.55.55h-1.649l-.547 9.892-2.746-.551v-8.242h-1.648l-2.746 1.101h-2.196l-4.941 1.645-7.14 1.101-6.587 1.649-1.648.547-1.098.55-11.531 6.594-1.098 1.098-2.199-.551.55-1.098 1.65-2.746.546-1.097-2.746.546-4.941 1.649-12.082 2.746-60.403 13.734-7.136 1.102-2.196.547-.55.55h-1.649 2.2l.546.547h3.844l8.238 1.102 12.629 2.195 8.238.551 66.442 9.34 20.867 2.746 4.39.55h4.395l.547-3.296 2.746.547v2.199h2.2l.546-.55h2.746l6.04-1.098 6.042-1.649 26.907-4.394 6.039-1.649 8.785-1.098 3.297-1.097-1.098-1.102-3.297-2.746 2.746-.55 5.492 1.101h4.942l5.492 1.098h4.39c1.008-.184 2.016-.368 6.04-1.098 4.027-.734 15.101-2.746 18.12-3.297l6.044-1.648 20.863-3.297 6.043-1.098 3.293-1.098h2.195zm0 0"/></svg>