<svg viewBox="0 0 454 504"><defs><filter id="a" color-interpolation-filters="sRGB"><feGaussianBlur stdDeviation="1.01"/></filter></defs><path fill="none" stroke="#000" stroke-width="9" d="M149.149 158.567l-.253 65.001c.04 4.218 1.679 6.703 4.319 8.103s6.282 1.716 10.328 1.593l33.03-10.758c7.425-2.699 12.044-.296 12.07 10.456l.253 119.7c.501 16.839-7.406 19.334-14.747 22.795L84.677 422.216c-8.68 4.124-15.606 4.674-15.276-9.558l-.126-128.992c-.147-7.38.924-14.74 19.95-21.79l27.538-9.81c5.918-2.01 12.331-2.812 12.386-19.155v-64.595"/><path fill="none" stroke="#d70000" stroke-width="8" d="M149.275 158.441l-.253 65.001c.04 4.218 1.679 6.703 4.32 8.103s6.281 1.715 10.328 1.593l33.03-10.758c7.425-2.699 12.043-.296 12.07 10.456l.252 119.699c.502 16.84-7.406 19.334-14.747 22.796L84.803 422.089c-8.68 4.124-15.606 4.674-15.275-9.558l-.127-128.992c-.146-7.38.924-14.74 19.95-21.79l27.539-9.811c5.918-2.01 12.33-2.811 12.385-19.154v-64.596"/><path fill="none" stroke="#fff" stroke-linejoin="round" stroke-width="2" d="M526.868 614.158l-.126-128.992c-.147-7.38.924-14.74 19.95-21.79l27.538-9.81c5.918-2.01 12.33-2.812 12.385-19.155v-64.595m34.395 64.949l33.03-10.758m12.07 10.456l.253 119.7c.501 16.839-7.407 19.334-14.748 22.796l-109.472 46.758m64.472-263.649l-.252 65.002" filter="url(#a)" transform="translate(-460.01 -203.644)"/><path fill="none" stroke="#000" stroke-linejoin="round" stroke-width="2" d="M533.181 616.431l-.126-128.992c-.147-7.38.924-14.74 19.95-21.79l27.538-9.81c5.919-2.01 12.331-2.812 12.386-19.155v-64.595m18.232 63.686c9.597 6.314 24.42-1.427 24.42-1.427l8.258-2.689 11.54-3.194s10.278-4.71 10.026 2.613m7.019 5.658l.252 119.7c.502 16.839-7.406 19.334-14.747 22.795l-54.736 23.38-48.834 21.538s-16.509 10.68-25.853 2.345m84.423-264.153l-.253 65.001" filter="url(#a)" opacity=".56" transform="translate(-460.01 -203.644)"/><path fill="#fff" d="M83.153 306.665l30.81-.505 14.647-15.657 1.01-28.285c9.648-6.585 21.846-12.745 47.477-16.667 6.992 2.739 16.99 1.144 22.729 15.152l-1.01 90.914-25.76.505-5.555 5.05 1.01 38.892c-19.866 12.186-39.732 17.918-59.599 20.708-14.657.035-20.326-10.201-25.759-20.708z"/><path fill="none" stroke="#000" d="M168.717 306.615s-40 20-60 20c-17.772 0-25-20-25-20m115-45v90"/><path fill="none" stroke="#b3b3b3" d="M198.717 301.615h-25l-4.999 6.034"/><path fill="none" stroke="#000" d="M83.717 306.615v90m85-90v90m0 0s-40 20-60 20c-17.772 0-25-20-25-20m115-45h-25l-5 5"/><path fill="none" stroke="#b3b3b3" d="M128.717 286.615h3m-3-5h7m-7-5h11m-11-5h16m-16-5h20"/><path fill="none" stroke="#000" d="M128.717 261.615v27.98"/><path fill="red" d="M157.135 262.329l13.844-12.918h1.754l-4.084 10.142 10.87-10.142h1.639l-13.845 12.918h-1.754l4.094-10.151-10.88 10.151z" font-family="Bitstream Vera Sans" font-size="40" font-weight="400"/><path fill="#00f" d="M113.356 315.882l1.637-.132q-.798.905-.987 1.485-.19.58.276.937.464.358 1.492.358.913 0 1.884-.272.968-.27 1.784-.744.814-.473 1.373-1.032.567-.567.661-.99.096-.424-.373-.712-.297-.189-1.558-.588-1.262-.4-1.576-.752-.409-.453-.164-1.123a4.45 1.7-31.717 011.077-1.5q.914-.914 2.225-1.707 1.312-.794 2.718-1.205 1.404-.41 2.622-.41 1.341 0 1.934.43.591.433.304 1.271a5.906 2.256-31.717 01-1.308 1.9l-1.645.115q1.02-1.143.893-1.727-.128-.584-1.517-.584-1.447 0-2.64.53-1.19.53-1.941 1.28-.649.649-.6 1.068.041.42 1.546.86t1.899.769q.568.485.325 1.229t-1.213 1.715a5.34 2.04-31.717 01-2.363 1.813q-1.403.851-2.908 1.324t-2.796.473q-1.636 0-2.265-.477a6.213 2.373-31.717 01-.301-1.435 6.585 2.515-31.717 011.505-2.167" font-family="Bitstream Vera Sans" font-size="16.84" font-weight="400"/><path fill="none" stroke="#000" stroke-width="3" d="M143.003 282.329v-37.142"/><path fill="none" stroke="gray" d="M168.717 311.258s-40 20-60 20c-17.772 0-25-20-25-20"/><path fill="none" stroke="gray" d="M168.717 331.615s-40 20-60 20c-17.772 0-25-20-25-20m85-5s-40 20-60 20c-17.772 0-25-20-25-20m85-5s-40 20-60 20c-17.772 0-25-20-25-20m85-5s-40 20-60 20c-17.772 0-25-20-25-20"/><path fill="none" stroke="gray" d="M168.717 351.615s-40 20-60 20c-17.772 0-25-20-25-20m85-5s-40 20-60 20c-17.772 0-25-20-25-20m85-5s-40 20-60 20c-17.772 0-25-20-25-20m85-5s-40 20-60 20c-17.772 0-25-20-25-20"/><path fill="none" stroke="gray" d="M168.717 371.615s-40 20-60 20c-17.772 0-25-20-25-20m85-5s-40 20-60 20c-17.772 0-25-20-25-20m85-5s-40 20-60 20c-17.772 0-25-20-25-20m85-5s-40 20-60 20c-17.772 0-25-20-25-20"/><path fill="none" stroke="gray" d="M168.717 391.615s-40 20-60 20c-17.772 0-25-20-25-20m85-5s-40 20-60 20c-17.772 0-25-20-25-20m85-5s-40 20-60 20c-17.772 0-25-20-25-20m85-5s-40 20-60 20c-17.772 0-25-20-25-20"/><path fill="none" stroke="#b3b3b3" d="M198.717 266.615h-25l-30 40"/><path fill="none" stroke="#b3b3b3" d="M198.717 271.615h-25l-26.16 34.866"/><path fill="none" stroke="#b3b3b3" d="M198.717 276.615h-25l-22.5 29.956"/><path fill="none" stroke="#b3b3b3" d="M198.717 281.615h-25l-18.571 24.956"/><path fill="none" stroke="#b3b3b3" d="M198.717 286.615h-25l-15.09 19.866"/><path fill="none" stroke="#b3b3b3" d="M198.717 291.615h-25l-11.473 14.91"/><path fill="none" stroke="#b3b3b3" d="M198.717 296.615h-25l-8.214 10.09"/><path fill="none" stroke="#000" d="M83.717 306.615h30l40-45h-25s25-15 50-15c15 0 20 15 20 15h-25l-35 45h30m5-45v90"/><path fill="none" stroke="#b3b3b3" d="M198.717 306.615h-25l-4.999 6.034"/><path fill="none" stroke="#b3b3b3" d="M198.717 311.615h-25l-4.999 6.034"/><path fill="none" stroke="#b3b3b3" d="M198.717 316.615h-25l-4.999 6.034"/><path fill="none" stroke="#b3b3b3" d="M198.717 321.615h-25l-4.999 6.034"/><path fill="none" stroke="#b3b3b3" d="M198.717 326.615h-25l-4.999 6.034"/><path fill="none" stroke="#b3b3b3" d="M198.717 331.615h-25l-4.999 6.034"/><path fill="none" stroke="#b3b3b3" d="M198.717 336.615h-25l-4.999 6.034"/><path fill="none" stroke="#b3b3b3" d="M198.717 341.615h-25l-4.999 6.034"/><path fill="none" stroke="#b3b3b3" d="M198.717 346.615h-25l-4.999 6.034"/><path fill="none" stroke="#000" d="M128.533 163.832V50.695h139.401v81.823H149.746v24.243"/><path fill="#fff" stroke="#000" stroke-width="1.25" d="M282.076 89.081c0 8.369-6.784 15.153-15.152 15.153s-15.152-6.784-15.152-15.153 6.784-15.152 15.152-15.152 15.152 6.784 15.152 15.152z"/><text x="483.86" y="271.51" font-family="Bitstream Vera Sans" font-size="20" font-weight="400" transform="translate(-223 -175.362)"><tspan x="483.86" y="271.51">V</tspan></text><path fill="none" stroke="#000" d="M300 94c3.03-4.293 10.73-20 15-20 5 0 10 10 15 20 4.867 9.734 9.757 20 15 20 5 0 10-10 15-20 4.821-9.642 9.74-20 15-20 5 0 10 10 15 20 4.796 9.591 10.106 20 15 20 5 0 10-8.596 15-20"/><path fill="none" stroke="#000" stroke-width="3.53" d="M185.411 271.685c42.561 10.82 43.813 44.55 0 66.826l-25.329 12.878-13.007 6.613c-1.369.696 3.284.859 8.193.89 4.909.033 10.074-.066 9.732.108s-5.742-12.343-8.157-16.136l-10 15"/></svg>