<svg viewBox="0 0 454 504"><defs><filter id="a" color-interpolation-filters="sRGB"><feGaussianBlur stdDeviation="1"/></filter></defs><path d="m609.2 362.2-.3 65c0 4.2 1.7 6.7 4.3 8.1q4.2 2 10.4 1.6l33-10.7c7.4-2.7 12-.3 12 10.4l.3 119.7c.5 16.8-7.4 19.3-14.7 22.8l-109.5 46.8c-8.7 4-15.6 4.6-15.3-9.6l-.1-129c-.2-7.4 1-14.7 20-21.8l27.5-9.8c5.9-2 12.3-2.8 12.4-19.1V372" style="fill:none;stroke:#000;stroke-width:9;stroke-linecap:butt;stroke-linejoin:miter;stroke-miterlimit:4;stroke-opacity:1;stroke-dasharray:none" transform="translate(-460.01 -203.644)"/><path d="m609.3 362-.3 65q.2 6.3 4.4 8.2 4 2 10.3 1.6l33-10.8c7.4-2.7 12-.3 12 10.5l.3 119.7c.5 16.8-7.4 19.3-14.7 22.8l-109.5 46.7c-8.7 4.2-15.6 4.7-15.3-9.5v-129c-.2-7.4.8-14.8 19.9-21.8l27.5-9.8c6-2 12.3-2.8 12.4-19.2v-64.6" style="fill:none;stroke:#d70000;stroke-width:8;stroke-linecap:butt;stroke-linejoin:miter;stroke-miterlimit:4;stroke-opacity:1;stroke-dasharray:none" transform="translate(-460.01 -203.644)"/><path d="m526.9 614.2-.2-129c-.1-7.4 1-14.8 20-21.8l27.5-9.8c6-2 12.4-2.8 12.4-19.2v-64.6m34.4 65 33-10.8m12.1 10.5.3 119.7c.5 16.8-7.4 19.3-14.8 22.8l-109.5 46.7m64.5-263.6-.2 65" style="fill:none;stroke:#fff;stroke-width:2;stroke-linecap:butt;stroke-linejoin:round;stroke-miterlimit:4;stroke-opacity:1;stroke-dasharray:none;filter:url(#a)" transform="translate(-460.01 -203.644)"/><path d="m533.2 616.4-.1-129c-.2-7.3.9-14.7 20-21.8l27.4-9.8c6-2 12.4-2.8 12.4-19.1V372m18.3 63.7c9.6 6.3 24.4-1.5 24.4-1.5l8.2-2.6 11.6-3.2s10.3-4.7 10 2.6m7 5.6.3 119.7c.5 16.9-7.4 19.4-14.8 22.8l-54.7 23.4-48.8 21.5s-16.5 10.7-25.9 2.4M613 362.3l-.2 65" style="opacity:.55502391;fill:none;stroke:#000;stroke-width:2;stroke-linecap:butt;stroke-linejoin:round;stroke-miterlimit:4;stroke-opacity:1;stroke-dasharray:none;filter:url(#a)" transform="translate(-460.01 -203.644)"/><path d="m359.6 495.8 30.8-.5 14.7-15.7 1-28.3c9.6-6.6 21.8-12.7 47.5-16.6 7 2.7 17 1.1 22.7 15.1l-1 91-25.8.4-5.5 5 1 39a151 151 0 0 1-59.6 20.7c-14.7 0-20.4-10.2-25.8-20.7z" style="fill:#fff;stroke:none" transform="translate(-276.461 -189.103)"/><path d="M515 457.4s-40 20-60 20c-17.8 0-25-20-25-20m115-45v90" style="fill:none;stroke:#000;stroke-width:1px;stroke-linecap:butt;stroke-linejoin:miter;stroke-opacity:1" transform="translate(-346.283 -150.747)"/><path d="M545 452.4h-25l-5 6" style="fill:none;stroke:#b3b3b3;stroke-width:1px;stroke-linecap:butt;stroke-linejoin:miter;stroke-opacity:1" transform="translate(-346.283 -150.747)"/><path d="M430 457.4v90m85-90v90m0 0s-40 20-60 20c-17.8 0-25-20-25-20m115-45h-25l-5 5" style="fill:none;stroke:#000;stroke-width:1px;stroke-linecap:butt;stroke-linejoin:miter;stroke-opacity:1" transform="translate(-346.283 -150.747)"/><path d="M475 437.4h3m-3-5h7m-7-5h11m-11-5h16m-16-5h20" style="fill:none;stroke:#b3b3b3;stroke-width:1px;stroke-linecap:butt;stroke-linejoin:miter;stroke-opacity:1" transform="translate(-346.283 -150.747)"/><path d="M475 412.4v28" style="fill:none;stroke:#000;stroke-width:1px;stroke-linecap:butt;stroke-linejoin:miter;stroke-opacity:1" transform="translate(-346.283 -150.747)"/><g style="font-size:40px;font-style:normal;font-weight:400;fill:red;fill-opacity:1;stroke:none;font-family:Bitstream Vera Sans"><path d="M474.5 359.5V331h3.9l15 22.5V331h3.6v28.6h-3.9l-15-22.5v22.5z" style="fill:red;fill-opacity:1" transform="matrix(.45118 0 -.48352 .45118 116.889 100.128)"/></g><path d="m926.3 466.6 1.5-.1q0 .9.5 1.5.3.6 1.2 1 .8.3 1.8.3t1.6-.3q.8-.3 1-.7.4-.6.4-1 0-.6-.3-1-.4-.5-1-.8l-2.2-.6-2.4-.7q-.8-.5-1.2-1.1-.5-.7-.5-1.5 0-1 .5-1.7.6-.9 1.6-1.2 1-.5 2.2-.5a6 6 0 0 1 2.3.5 3 3 0 0 1 2.2 3.1l-1.5.2q-.1-1.2-.9-1.8-.6-.6-2-.6-1.5 0-2.2.6-.6.5-.6 1.3 0 .6.4 1t2.4.9 2.7.8q1 .4 1.6 1.2.5.7.5 1.7t-.6 1.8-1.6 1.3-2.3.5q-1.6 0-2.7-.5t-1.8-1.4a4 4 0 0 1-.6-2.2" style="font-size:16.84131241px;font-style:normal;font-weight:400;fill:#00f;fill-opacity:1;stroke:none;font-family:Bitstream Vera Sans" transform="matrix(1 0 -1 1 -346.283 -150.747)"/><path d="M489.3 433v-37" style="fill:none;stroke:#000;stroke-width:3;stroke-linecap:butt;stroke-linejoin:miter;stroke-miterlimit:4;stroke-opacity:1;stroke-dasharray:none" transform="translate(-346.283 -150.747)"/><path d="M515 462s-40 20-60 20c-17.8 0-25-20-25-20" style="fill:none;stroke:gray;stroke-width:1px;stroke-linecap:butt;stroke-linejoin:miter;stroke-opacity:1" transform="translate(-346.283 -150.747)"/><path d="M515 482.4s-40 20-60 20c-17.8 0-25-20-25-20m85-5s-40 20-60 20c-17.8 0-25-20-25-20m85-5s-40 20-60 20c-17.8 0-25-20-25-20m85-5s-40 20-60 20c-17.8 0-25-20-25-20" style="fill:none;stroke:gray;stroke-width:1px;stroke-linecap:butt;stroke-linejoin:miter;stroke-opacity:1" transform="translate(-346.283 -150.747)"/><path d="M515 502.4s-40 20-60 20c-17.8 0-25-20-25-20m85-5s-40 20-60 20c-17.8 0-25-20-25-20m85-5s-40 20-60 20c-17.8 0-25-20-25-20m85-5s-40 20-60 20c-17.8 0-25-20-25-20" style="fill:none;stroke:gray;stroke-width:1px;stroke-linecap:butt;stroke-linejoin:miter;stroke-opacity:1" transform="translate(-346.283 -150.747)"/><path d="M515 522.4s-40 20-60 20c-17.8 0-25-20-25-20m85-5s-40 20-60 20c-17.8 0-25-20-25-20m85-5s-40 20-60 20c-17.8 0-25-20-25-20m85-5s-40 20-60 20c-17.8 0-25-20-25-20" style="fill:none;stroke:gray;stroke-width:1px;stroke-linecap:butt;stroke-linejoin:miter;stroke-opacity:1" transform="translate(-346.283 -150.747)"/><path d="M515 542.4s-40 20-60 20c-17.8 0-25-20-25-20m85-5s-40 20-60 20c-17.8 0-25-20-25-20m85-5s-40 20-60 20c-17.8 0-25-20-25-20m85-5s-40 20-60 20c-17.8 0-25-20-25-20" style="fill:none;stroke:gray;stroke-width:1px;stroke-linecap:butt;stroke-linejoin:miter;stroke-opacity:1" transform="translate(-346.283 -150.747)"/><path d="M545 417.4h-25l-30 40" style="fill:none;stroke:#b3b3b3;stroke-width:1px;stroke-linecap:butt;stroke-linejoin:miter;stroke-opacity:1" transform="translate(-346.283 -150.747)"/><path d="M545 422.4h-25l-26.2 34.8" style="fill:none;stroke:#b3b3b3;stroke-width:1px;stroke-linecap:butt;stroke-linejoin:miter;stroke-opacity:1" transform="translate(-346.283 -150.747)"/><path d="M545 427.4h-25l-22.5 30" style="fill:none;stroke:#b3b3b3;stroke-width:1px;stroke-linecap:butt;stroke-linejoin:miter;stroke-opacity:1" transform="translate(-346.283 -150.747)"/><path d="M545 432.4h-25l-18.6 25" style="fill:none;stroke:#b3b3b3;stroke-width:1px;stroke-linecap:butt;stroke-linejoin:miter;stroke-opacity:1" transform="translate(-346.283 -150.747)"/><path d="M545 437.4h-25l-15 19.8" style="fill:none;stroke:#b3b3b3;stroke-width:1px;stroke-linecap:butt;stroke-linejoin:miter;stroke-opacity:1" transform="translate(-346.283 -150.747)"/><path d="M545 442.4h-25l-11.5 14.9" style="fill:none;stroke:#b3b3b3;stroke-width:1px;stroke-linecap:butt;stroke-linejoin:miter;stroke-opacity:1" transform="translate(-346.283 -150.747)"/><path d="M545 447.4h-25l-8.2 10" style="fill:none;stroke:#b3b3b3;stroke-width:1px;stroke-linecap:butt;stroke-linejoin:miter;stroke-opacity:1" transform="translate(-346.283 -150.747)"/><path d="M430 457.4h30l40-45h-25s25-15 50-15c15 0 20 15 20 15h-25l-35 45h30m5-45v90" style="fill:none;stroke:#000;stroke-width:1px;stroke-linecap:butt;stroke-linejoin:miter;stroke-opacity:1" transform="translate(-346.283 -150.747)"/><path d="M545 457.4h-25l-5 6m30-1h-25l-5 6m30-1h-25l-5 6m30-1h-25l-5 6m30-1h-25l-5 6m30-1h-25l-5 6m30-1h-25l-5 6m30-1h-25l-5 6m30-1h-25l-5 6" style="fill:none;stroke:#b3b3b3;stroke-width:1px;stroke-linecap:butt;stroke-linejoin:miter;stroke-opacity:1" transform="translate(-346.283 -150.747)"/><path d="M351.5 339.2V226H491v81.8H372.7V332" style="fill:none;stroke:#000;stroke-width:1px;stroke-linecap:butt;stroke-linejoin:miter;stroke-opacity:1" transform="translate(-223 -175.362)"/><path d="M505 264.4a15.2 15.2 0 1 1-30.2 0 15.2 15.2 0 0 1 30.3 0z" style="fill:#fff;stroke:#000;stroke-width:1.25;stroke-miterlimit:4;stroke-opacity:1;stroke-dasharray:none;stroke-dashoffset:0" transform="translate(-223 -175.362)"/><text xml:space="preserve" x="483.9" y="271.5" style="font-size:20px;font-style:normal;font-weight:400;fill:#000;fill-opacity:1;stroke:none;font-family:Bitstream Vera Sans" transform="translate(-223 -175.362)"><tspan x="483.9" y="271.5">V</tspan></text><path d="M523 269.4c3-4.3 10.7-20 15-20 5 0 10 10 15 20 4.9 9.7 9.8 20 15 20 5 0 10-10 15-20 4.8-9.7 9.7-20 15-20 5 0 10 10 15 20 4.8 9.6 10.1 20 15 20s10-8.6 15-20" style="fill:none;stroke:#000;stroke-width:1px;stroke-linecap:butt;stroke-linejoin:miter;stroke-opacity:1" transform="translate(-223 -175.362)"/><path d="M408.4 447c42.6 10.9 43.8 44.6 0 66.9l-25.3 12.9q-9.1 4.5-13 6.6c-1.4.7 3.3.8 8.2.9h9.7c-.3.2-5.7-12.3-8.2-16l-10 15" style="fill:none;stroke:#000;stroke-width:3.5339999999999998;stroke-linecap:butt;stroke-linejoin:miter;stroke-miterlimit:4;stroke-opacity:1;stroke-dasharray:none;marker-end:none" transform="translate(-223 -175.362)"/></svg>