<svg viewBox="0 0 1035.4 364.7"><g transform="translate(-14.6 -508.918)"><rect width="95.3" height="220.1" x="75.3" y="601.4" rx="39.7" ry="11.9" style="fill:#ff8080;fill-opacity:1;stroke:#000;stroke-width:1.58851254;stroke-miterlimit:4;stroke-dasharray:none"/><text xml:space="preserve" x="97.1" y="654.5" style="font-size:31.77025223px;font-style:normal;font-weight:400;text-align:center;line-height:125%;letter-spacing:0;word-spacing:0;text-anchor:middle;fill:#000;fill-opacity:1;stroke:none;font-family:Sans"><tspan x="97.1" y="654.5">+</tspan></text><text xml:space="preserve" x="155.4" y="655.6" style="font-size:31.77025223px;font-style:normal;font-weight:400;text-align:center;line-height:125%;letter-spacing:0;word-spacing:0;text-anchor:middle;fill:#000;fill-opacity:1;stroke:none;font-family:Sans"><tspan x="155.4" y="655.6">-</tspan></text><path d="M212.9 232.7c0 11-27 20-60 20-33.2 0-60-9-60-20s26.8-20 60-20c33 0 60 9 60 20z" style="fill:#d59368;fill-opacity:1;stroke:#000;stroke-width:2;stroke-miterlimit:4;stroke-dasharray:none" transform="translate(1.552 429.077)scale(.79426)"/><rect width="21.7" height="19.6" x="135.9" y="592.8" rx="9.1" ry="1.1" style="fill:#ca7740;fill-opacity:1;stroke:#000;stroke-width:1.58851253999999997;stroke-miterlimit:4;stroke-dasharray:none"/><path d="M212.9 232.7c0 11-27 20-60 20-33.2 0-60-9-60-20s26.8-20 60-20c33 0 60 9 60 20z" style="fill:#ca7740;fill-opacity:1;stroke:#000;stroke-width:14.03776360000000167;stroke-miterlimit:4;stroke-dasharray:none" transform="matrix(.18122 0 0 .07066 119.086 577.486)"/><rect width="21.7" height="19.6" x="91.7" y="592.8" rx="9.1" ry="1.1" style="fill:#ca7740;fill-opacity:1;stroke:#000;stroke-width:1.58851253999999997;stroke-miterlimit:4;stroke-dasharray:none"/><path d="M212.9 232.7c0 11-27 20-60 20-33.2 0-60-9-60-20s26.8-20 60-20c33 0 60 9 60 20z" style="fill:#ca7740;fill-opacity:1;stroke:#000;stroke-width:14.03776360000000167;stroke-miterlimit:4;stroke-dasharray:none" transform="matrix(.18122 0 0 .07066 74.835 577.486)"/></g><g transform="translate(-14.6 -508.918)"><rect width="95.3" height="220.1" x="75.3" y="601.4" rx="39.7" ry="11.9" style="fill:#deaa87;fill-opacity:1;stroke:#000;stroke-width:1.58899999000000003;stroke-miterlimit:4;stroke-dasharray:none"/><text xml:space="preserve" x="97.1" y="654.5" style="font-size:31.77025223px;font-style:normal;font-weight:400;text-align:center;line-height:125%;letter-spacing:0;word-spacing:0;text-anchor:middle;fill:#000;fill-opacity:1;stroke:none;font-family:Sans"><tspan x="97.1" y="654.5">+</tspan></text><text xml:space="preserve" x="155.4" y="655.6" style="font-size:31.77025223px;font-style:normal;font-weight:400;text-align:center;line-height:125%;letter-spacing:0;word-spacing:0;text-anchor:middle;fill:#000;fill-opacity:1;stroke:none;font-family:Sans"><tspan x="155.4" y="655.6">-</tspan></text><path d="M212.9 232.7c0 11-27 20-60 20-33.2 0-60-9-60-20s26.8-20 60-20c33 0 60 9 60 20z" style="fill:#d38d5f;fill-opacity:1;stroke:#000;stroke-width:2;stroke-miterlimit:4;stroke-dasharray:none" transform="translate(1.552 429.077)scale(.79426)"/><rect width="21.7" height="19.6" x="135.9" y="592.8" rx="9.1" ry="1.1" style="fill:#ca7740;fill-opacity:1;stroke:#000;stroke-width:1.58851253999999997;stroke-miterlimit:4;stroke-dasharray:none"/><path d="M212.9 232.7c0 11-27 20-60 20-33.2 0-60-9-60-20s26.8-20 60-20c33 0 60 9 60 20z" style="fill:#ca7740;fill-opacity:1;stroke:#000;stroke-width:14.03776360000000167;stroke-miterlimit:4;stroke-dasharray:none" transform="matrix(.18122 0 0 .07066 119.086 577.486)"/><rect width="21.7" height="19.6" x="91.7" y="592.8" rx="9.1" ry="1.1" style="fill:#ca7740;fill-opacity:1;stroke:#000;stroke-width:1.58851253999999997;stroke-miterlimit:4;stroke-dasharray:none"/><path d="M212.9 232.7c0 11-27 20-60 20-33.2 0-60-9-60-20s26.8-20 60-20c33 0 60 9 60 20z" style="fill:#ca7740;fill-opacity:1;stroke:#000;stroke-width:14.03776360000000167;stroke-miterlimit:4;stroke-dasharray:none" transform="matrix(.18122 0 0 .07066 74.835 577.486)"/><path d="M147.5 591.8v-79h101v157.8h28.3l52.6-30.3" style="fill:none;stroke:#666;stroke-width:7.94256306;stroke-linecap:butt;stroke-linejoin:round;stroke-miterlimit:4;stroke-opacity:1;stroke-dasharray:none"/><path d="M352.9 404.8a3.6 3.6 0 1 1-7.2 0 3.6 3.6 0 0 1 7.2 0z" style="fill:#4d4d4d;fill-opacity:1;stroke:#666;stroke-width:10;stroke-miterlimit:4;stroke-dasharray:none" transform="rotate(1.576 -12385.85 592.371)scale(.79426)"/><path d="M352.9 404.8a3.6 3.6 0 1 1-7.2 0 3.6 3.6 0 0 1 7.2 0z" style="fill:#4d4d4d;fill-opacity:1;stroke:#666;stroke-width:10;stroke-miterlimit:4;stroke-dasharray:none" transform="rotate(1.576 -12419.619 3046.33)scale(.79426)"/><path d="m352 672.5 43.2 1.2" style="fill:none;stroke:#666;stroke-width:7.94256306;stroke-linecap:butt;stroke-linejoin:miter;stroke-miterlimit:4;stroke-opacity:1;stroke-dasharray:none"/><path d="M101.4 592v-79.1H18.6l3 338.1H414" style="fill:none;stroke:#666;stroke-width:7.94299984;stroke-linecap:butt;stroke-linejoin:round;stroke-miterlimit:4;stroke-opacity:1;stroke-dasharray:none"/><path d="M602.9 263.4c0 82.4-68.2 149.3-152.2 149.3s-152.1-66.9-152.1-149.3S366.6 114 450.7 114 603 180.9 603 263.4z" style="fill:none;stroke:#f60;stroke-width:30;stroke-miterlimit:4;stroke-dasharray:none" transform="matrix(.70821 0 0 .72176 155.514 562.692)"/><g style="stroke:#000"><path d="M602.9 263.4c0 82.4-68.2 149.3-152.2 149.3s-152.1-66.9-152.1-149.3S366.6 114 450.7 114 603 180.9 603 263.4z" style="fill:none;stroke:#000;stroke-width:30;stroke-miterlimit:4;stroke-dasharray:none" transform="matrix(.69405 0 0 .70733 161.898 566.494)"/></g><g style="stroke:#000"><path d="M602.9 263.4c0 82.4-68.2 149.3-152.2 149.3s-152.1-66.9-152.1-149.3S366.6 114 450.7 114 603 180.9 603 263.4z" style="fill:none;stroke:#000;stroke-width:30;stroke-miterlimit:4;stroke-dasharray:none" transform="matrix(.72237 0 0 .7362 149.13 558.89)"/></g><g style="stroke:#999"><path d="M602.9 263.4c0 82.4-68.2 149.3-152.2 149.3s-152.1-66.9-152.1-149.3S366.6 114 450.7 114 603 180.9 603 263.4z" style="fill:none;stroke:#999;stroke-width:30;stroke-miterlimit:4;stroke-dasharray:none" transform="matrix(.70821 0 0 .72176 155.514 562.692)"/></g><path d="M372.2 675.9c11 .9 19.7-.4 25.7 1s11 3 12.3 4c.3 2.3-3 4.4-4.7 6.6-1.5 2-5.8 5.2-2.4 4.1 4-1.2 10.6-3.7 12.7-6.6 1-1.5 1.7-3.8 1.2-5.8q-1-2.9-3.4-4.6a36 36 0 0 0-13.7-4.8c-6.5-1.5-16-.9-27.4-.6-3.4 1.7 2.9 6-.3 6.7m11.6 49.1a55 55 0 0 0 11.6-5.2 8 8 0 0 0 2.9-3.4c.6-1.5.6-3.7-.2-5.2-1.6-3-4.2-4-7.6-5.3q-5.1-1.8-14-3.6a39 39 0 0 1-11.6-4.1c-.4-.8 2-.3 2.8-1.4 1.6-2.1 4.1-7.2 5.2-9-1.6-.7-7.7.5-10.4 1-2.7.8-5.8 2.1-7.7 3.8-2.1 1.7-2.5 4.9-2.4 6.8 0 1.9 1 3.2 2 4.1a19 19 0 0 0 7.5 3.5q4.9 1.5 13.2 3.1 8.5 1.7 12.6 3.2 1.4.3 1.7 1.1c-.6.4.5.2-2.5 1.6 1.5-3-2.5 5.4-3.1 9m-3.5 30.5c3-1.8 6.6-4.4 8.6-6.4q1.6-1.5 2.2-3.8c.4-1.6 0-3.7-1-5-2-2.8-4.8-3.4-8.4-4.1q-5.3-1-14.3-1.3a45 45 0 0 1-12.8-2c-.5-.8 1-1 1.2-2 .6-1.7 2-8.8 2.1-9.5-1.6-.3-4 1.4-6.5 2.4-2.5 1.2-5.4 3-7 5-1.8 2-1.7 5.2-1.3 7a6 6 0 0 0 2.7 3.8 19 19 0 0 0 8 2.3q5 .7 13.4 1 8.7.2 13 1l1.7.6c-1 .8 0 .4-2.2 1.5.2 0-.3 7.5 0 9.9zm13.4 26.7q1.7-1.5 2.3-4c.4-1.6-.3-3.7-1.7-5-2.6-2.4-5.9-2.8-10.1-3.2q-6.3-.5-17 0a53 53 0 0 1-14.4-1.2c-.7-.7 1.8-1.2 1.8-2.2 0-1.9-.7-6.8-.6-8.8-2.4.4-3.7 1.3-6.6 2.5-2.8 1.4-6 3.5-7.7 5.5-1.9 2.2-1.5 5.4-.9 7.2s2.2 2.9 3.5 3.5a26 26 0 0 0 9.6 1.6q6 .3 15.9-.2 10.2-.5 15.3 0 1.3 0 2 .4c-.2.6.8.3-1.6 1.6 1.8 6 2.8 7.5 3 8.5-3.5 2.8 6.5-5.4 7.2-6.2m11.5 36.2c4.5-2.7 4.2-2.8 6.3-5.2q1.7-1.7 2-4.2c.2-1.7-.8-3.7-2.5-4.8-3.2-2.2-6.9-2.2-11.7-2q-7.1.1-18.9 1.9c-7.8 1-12.8.9-16.3.5-.9-.6.8-1.6.5-2.1-.6-1.3-2.8-6.3-3.3-8-.2-.6-1.2.8-4.3 2.3-3 1.7-6.3 4.1-8 6.4s-.9 5.4 0 7.2 2.8 2.6 4.4 3c3 1 6.3.8 10.8.5q6.8-.5 17.8-2 11.3-1.7 17-1.8l2.4.1c-.4.5 1.2 0-1.4 1.5 5 5.8.2.5 5.6 6.5zm25.2 15a8 8 0 0 0 1.3-4.5 6 6 0 0 0-3.2-4.3c-3.5-1.6-7-1-11.6 0q-6.7 1.3-17.6 5c-7.3 2.3-12 3-15.5 3.2-1.7-.4-.8-.6-1.2-1.7-.4-1.5-4.8-5.6-4.7-6.3-.3-.6.6-.5-2.1 1.5a28 28 0 0 0-6.6 7.6c-1.3 2.7 0 5.6 1.2 7.2 1 1.5 3 2.1 4.6 2.3 3.2.3 6.2-.3 10.5-1.4q6.4-1.5 16.5-5 10.5-3.6 16-4.6l5.6-1.3c1.2.3.5 1.3 0 1.8 2.2 1.8 4.1 2.5 5 3.1q1-1.2 1.8-2.6m144-157.1c-8.3.2-17-.6-22.7.8a57 57 0 0 0-12.5 3.8c-.3 2.3 3 4.4 4.7 6.6 1.5 2 5.8 5.2 2.4 4.1-4-1.2-10.7-3.7-12.8-6.7a7 7 0 0 1-1.1-5.7q.9-2.9 3.4-4.6a36 36 0 0 1 13.7-4.8c6.5-1.5 14.3-1.6 25.7-1.4 3.5 1.8-1.4 3.8-.8 7.9m-8.8 48.7a55 55 0 0 1-11.7-5.2 8 8 0 0 1-2.8-3.4c-.7-1.6-.6-3.7.2-5.2 1.6-3 4.2-4 7.6-5.3q5-1.8 14-3.6a38 38 0 0 0 11.6-4.1c.4-.8-2-.3-2.8-1.4-1.6-2.1-4.1-7.2-5.2-9 1.6-.7 7.7.5 10.4 1 2.7.8 5.8 2.1 7.7 3.8s2.5 4.9 2.4 6.8c0 1.8-1 3.2-2 4.1a19 19 0 0 1-7.5 3.5q-5 1.5-13.2 3.1-8.6 1.7-12.6 3.2-1.4.3-1.7 1.1c.5.4-.5.2 2.5 1.6-1.6-3 2.4 5.4 3.1 9m3.5 30.5a45 45 0 0 1-8.6-6.4q-1.5-1.5-2.3-3.8c-.4-1.6 0-3.7 1-5 2.1-2.8 4.8-3.4 8.4-4.1q5.4-1 14.3-1.3 9-.5 12.9-2c.5-.8-1-1-1.3-2-.5-1.7-2-8.8-2-9.5 1.6-.3 4 1.4 6.5 2.4 2.5 1.2 5.4 3 7 5 1.7 2 1.6 5.2 1.3 7a6 6 0 0 1-2.7 3.8 19 19 0 0 1-8 2.3q-5 .7-13.5 1-8.5.2-13 1l-1.6.6c1 .8 0 .4 2.2 1.5-.2 0 .3 7.5 0 9.9zm-13.5 26.7q-1.7-1.5-2.3-4a6 6 0 0 1 1.7-5c2.7-2.4 6-2.8 10.2-3.2q6.3-.5 16.9 0a53 53 0 0 0 14.5-1.2c.7-.7-1.9-1.2-1.9-2.2 0-1.9.8-6.8.6-8.8 2.4.4 3.7 1.3 6.6 2.5 2.9 1.4 6 3.5 7.8 5.5 1.9 2.2 1.4 5.4.9 7.2-.6 1.8-2.2 2.9-3.6 3.5a26 26 0 0 1-9.5 1.6q-6 .3-16-.2t-15.2 0q-1.3 0-2 .4c.2.6-.9.3 1.6 1.6-1.9 6-2.8 7.5-3 8.5zm-11.5 36.2c-4.4-2.7-4.2-2.8-6.2-5.2a8 8 0 0 1-2-4.2c-.3-1.7.8-3.7 2.4-4.8 3.3-2.2 7-2.2 11.8-2q7.1.1 18.8 1.9c7.8 1 12.9.9 16.4.5.8-.6-.8-1.6-.5-2.1a74 74 0 0 0 3.2-8c.2-.6 1.2.8 4.3 2.3 3 1.7 6.3 4.1 8 6.4s1 5.4 0 7.2c-.8 1.7-2.7 2.6-4.3 3-3.1 1-6.3.8-10.8.5q-6.8-.5-17.8-2-11.3-1.7-17-1.8l-2.4.1c.4.5-1.2 0 1.4 1.5l-5.6 6.5zm-25.1 15a8 8 0 0 1-1.3-4.5 6 6 0 0 1 3.2-4.3c3.5-1.6 7-1 11.5 0q6.8 1.3 17.7 5c7.2 2.3 12 3 15.5 3.2 1.6-.4.8-.6 1.1-1.7.5-1.5 4.9-5.6 4.8-6.3.3-.6-.7-.5 2 1.5 2.6 2.2 5.4 5.1 6.6 7.6 1.3 2.7 0 5.6-1.1 7.2-1.1 1.5-3 2.1-4.7 2.3-3 .3-6-.3-10.4-1.4q-6.3-1.5-16.6-5-10.5-3.6-16-4.6l-5.5-1.3c-1.3.3-.5 1.3 0 1.8-2.2 1.8-4.2 2.5-5 3.1q-1.1-1.2-1.8-2.6" style="font-size:medium;font-style:normal;font-variant:normal;font-weight:400;font-stretch:normal;text-indent:0;text-align:start;text-decoration:none;line-height:normal;letter-spacing:normal;word-spacing:normal;text-transform:none;direction:ltr;block-progression:tb;writing-mode:lr-tb;text-anchor:start;baseline-shift:baseline;color:#000;fill:#666;fill-opacity:1;stroke:none;stroke-width:7.94299984;marker:none;visibility:visible;display:inline;overflow:visible;font-family:Sans;-inkscape-font-specification:Sans"/><path d="M800.8 572.9h248.4v187.7H800.8z" style="fill:#00d4aa;fill-opacity:1;stroke:#000;stroke-width:1.5953055599999999;stroke-linejoin:miter;stroke-miterlimit:4;stroke-dasharray:none"/><path d="M572.9 364h95.7v143H840v-74.3" style="fill:none;stroke:#666;stroke-width:7.94299984;stroke-linecap:butt;stroke-linejoin:round;stroke-miterlimit:4;stroke-opacity:1;stroke-dasharray:none" transform="translate(0 308.268)"/><path d="M1008.2 741v106H550l-11.2 8h473.4c2 0 4-1.9 4-4V741z" style="font-size:medium;font-style:normal;font-variant:normal;font-weight:400;font-stretch:normal;text-indent:0;text-align:start;text-decoration:none;line-height:normal;letter-spacing:normal;word-spacing:normal;text-transform:none;direction:ltr;block-progression:tb;writing-mode:lr-tb;text-anchor:start;baseline-shift:baseline;color:#000;fill:#666;fill-opacity:1;stroke:none;stroke-width:7.94299984;marker:none;visibility:visible;display:inline;overflow:visible;font-family:Sans;-inkscape-font-specification:Sans"/><path d="M857.1 426.4a13.6 13.6 0 1 1-27.3 0 13.6 13.6 0 0 1 27.3 0z" style="fill:#0a8;fill-opacity:1;stroke:#000;stroke-width:1.58899999000000003;stroke-linejoin:miter;stroke-miterlimit:4;stroke-dasharray:none" transform="translate(-4.046 307.258)"/><path d="M857.1 426.4a13.6 13.6 0 1 1-27.3 0 13.6 13.6 0 0 1 27.3 0z" style="fill:#0a8;fill-opacity:1;stroke:#000;stroke-width:1.58899999000000003;stroke-linejoin:miter;stroke-miterlimit:4;stroke-dasharray:none" transform="translate(169.023 307.257)"/><path d="M905.1 378a9.6 9.6 0 1 1-19.2 0 9.6 9.6 0 0 1 19.2 0z" style="fill:#0a8;fill-opacity:1;stroke:#000;stroke-width:1.58899999000000003;stroke-linejoin:miter;stroke-miterlimit:4;stroke-dasharray:none" transform="translate(29.5 353.785)"/><path d="M815.8 588.1h218.4v118.5H815.8z" style="fill:#f9f9f9;fill-opacity:1;stroke:#000;stroke-width:1.63679338000000008;stroke-linejoin:miter;stroke-miterlimit:4;stroke-dasharray:none"/><path d="M845.7 627.5s74.8-48.4 158.6 0" style="fill:none;stroke:#000;stroke-width:.99999881px;stroke-linecap:butt;stroke-linejoin:miter;stroke-opacity:1"/><g style="font-size:40px;font-style:normal;font-weight:400;text-align:center;line-height:125%;letter-spacing:0;word-spacing:0;text-anchor:middle;fill:#000;fill-opacity:1;stroke:none;font-family:Sans"><path d="m853.6 617.2 4-1.9.6 1.3-4 1.8zm8.4.5 2.6-1-3.5-8.8-2.5 1.6-.6-1.4 2.5-1.6 1.6-.7 4 10.2 2.6-1 .5 1.3-6.6 2.7zm10.3-14.4q-1.2.5-1.4 1.9-.3 1.4.5 3.8a9 9 0 0 0 1.8 3.4q1 1.1 2.3.7t1.5-1.9-.6-3.8a9 9 0 0 0-1.8-3.4q-1-1.1-2.3-.7m-.4-1.2q2-.6 3.6.6 1.5 1.2 2.5 4.2t.4 4.9a4 4 0 0 1-2.5 2.5q-2 .6-3.5-.6-1.6-1.2-2.6-4.2t-.4-4.9a4 4 0 0 1 2.5-2.5m51.6-7.4q-1.2 0-2 1.3-.5 1.4-.5 3.9 0 2.6.7 3.8.6 1.3 2 1.2 1.3 0 1.9-1.3.6-1.1.6-3.8t-.7-3.8q-.7-1.3-2-1.3m0-1.3q2.1 0 3.2 1.6t1.2 4.8q0 3-1 4.8a4 4 0 0 1-3.2 1.7q-2.1 0-3.2-1.6t-1.2-4.8q0-3 1-4.8a4 4 0 0 1 3.2-1.7m48.3 8.6-1.3 4.4 4.4 1.3-.4 1.3-4.4-1.3-1.3 4.5-1.3-.4 1.2-4.4-4.4-1.3.4-1.4 4.4 1.3 1.3-4.4zm5.6 11.5 2.6 1 3.3-9-3-.4.6-1.4 3 .5 1.5.6-3.9 10.2 2.6 1-.5 1.3-6.7-2.5zm17.3-3.6q-1.2-.6-2.3.3-1.2 1-2.2 3.2-1 2.4-1 3.8 0 1.5 1.3 2 1 .5 2.3-.4 1-1 2.1-3.2 1-2.3 1-3.8t-1.2-2m.5-1.2q1.9 1 2.3 2.9.3 2-1 4.8a9 9 0 0 1-3 3.9q-1.6 1-3.6.1t-2.2-2.8 1-4.8a9 9 0 0 1 3-3.9q1.6-1 3.5-.2" style="font-size:17px" transform="translate(0 20)"/></g><path d="M924.3 605.4V596" style="fill:none;stroke:#000;stroke-width:.84949964px;stroke-linecap:butt;stroke-linejoin:miter;stroke-opacity:1"/><path d="M920 706.4h10l-5-61.5z" style="fill:red;stroke:#000;stroke-width:1px;stroke-linecap:butt;stroke-linejoin:miter;stroke-opacity:1"/></g></svg>