<svg viewBox="0 0 1035.4 364.72"><defs><path id="a" fill="#ca7740" stroke="#000" d="M212.857 232.666c0 11.046-26.863 20-60 20s-60-8.954-60-20 26.863-20 60-20 60 8.954 60 20z"/><path id="b" fill="none" d="M602.857 263.38c0 82.448-68.117 149.286-152.143 149.286S298.571 345.828 298.571 263.38s68.117-149.286 152.143-149.286 152.143 66.838 152.143 149.286"/></defs><g transform="translate(-14.6 -508.918)"><rect width="95.31" height="220.12" x="75.3" y="601.39" fill="#ff8080" stroke="#000" stroke-width="1.59" rx="39.71" ry="11.91"/><text style="text-align:center;line-height:125%" x="97.09" y="654.49" font-family="Sans" font-size="31.77" font-weight="400" letter-spacing="0" text-anchor="middle" word-spacing="0"><tspan x="97.09" y="654.49">+</tspan></text><text style="text-align:center;line-height:125%" x="155.41" y="655.57" font-family="Sans" font-size="31.77" font-weight="400" letter-spacing="0" text-anchor="middle" word-spacing="0"><tspan x="155.41" y="655.57">-</tspan></text><path fill="#d59368" stroke="#000" stroke-width="1.59" d="M170.616 613.874c0 8.774-21.336 15.885-47.656 15.885s-47.655-7.111-47.655-15.885S96.64 597.99 122.96 597.99s47.656 7.112 47.656 15.885z"/><rect width="21.75" height="19.58" x="135.91" y="592.82" fill="#ca7740" stroke="#000" stroke-width="1.59" rx="9.06" ry="1.06"/><use stroke-width="14.04" href="#a" transform="matrix(.18122 0 0 .07066 119.086 577.486)"/><rect width="21.75" height="19.58" x="91.66" y="592.82" fill="#ca7740" stroke="#000" stroke-width="1.59" rx="9.06" ry="1.06"/><use stroke-width="14.04" href="#a" transform="matrix(.18122 0 0 .07066 74.835 577.486)"/></g><g transform="translate(-14.6 -508.918)"><rect width="95.31" height="220.12" x="75.3" y="601.39" fill="#deaa87" stroke="#000" stroke-width="1.59" rx="39.71" ry="11.91"/><text x="97.09" y="654.49" font-family="Sans" font-size="31.77" font-weight="400" letter-spacing="0" text-anchor="middle" word-spacing="0" style="text-align:center;line-height:125%"><tspan x="97.09" y="654.49">+</tspan></text><text x="155.41" y="655.57" font-family="Sans" font-size="31.77" font-weight="400" letter-spacing="0" text-anchor="middle" word-spacing="0" style="text-align:center;line-height:125%"><tspan x="155.41" y="655.57">-</tspan></text><path fill="#d38d5f" stroke="#000" stroke-width="1.59" d="M170.616 613.874c0 8.774-21.336 15.885-47.656 15.885s-47.655-7.111-47.655-15.885S96.64 597.99 122.96 597.99s47.656 7.112 47.656 15.885z"/><rect width="21.75" height="19.58" x="135.91" y="592.82" fill="#ca7740" stroke="#000" stroke-width="1.59" rx="9.06" ry="1.06"/><use stroke-width="14.04" href="#a" transform="matrix(.18122 0 0 .07066 119.086 577.486)"/><rect width="21.75" height="19.58" x="91.66" y="592.82" fill="#ca7740" stroke="#000" stroke-width="1.59" rx="9.06" ry="1.06"/><use stroke-width="14.04" href="#a" transform="matrix(.18122 0 0 .07066 74.835 577.486)"/><path fill="none" stroke="#666" stroke-linejoin="round" stroke-width="7.94" d="M147.468 591.831V512.89h100.984v157.717h28.366l52.543-30.336"/><use stroke-width="10" href="#b" transform="rotate(1.576 -12385.85 592.371) scale(.79426)"/><use stroke-width="10" href="#b" transform="rotate(1.576 -12419.619 3046.33) scale(.79426)"/><path fill="none" stroke="#666" stroke-width="7.94" d="M352.089 672.491l43.1 1.186"/><path fill="none" stroke="#666" stroke-linejoin="round" stroke-width="7.94" d="M101.401 591.947v-79.058h-82.83l3.03 338.137h392.424"/><g stroke-width="30" transform="translate(-61.769 61.84) scale(1.04316)"><path fill="none" stroke="#f60" d="M602.857 263.38c0 82.448-68.117 149.286-152.143 149.286S298.571 345.828 298.571 263.38s68.117-149.286 152.143-149.286 152.143 66.838 152.143 149.286z" transform="matrix(.6789 0 0 .6919 208.293 480.13)"/><use stroke="#000" href="#b" transform="matrix(.6653 0 0 .678 214.413 483.774)"/><use stroke="#000" href="#b" transform="matrix(.6925 0 0 .7057 202.173 476.486)"/><use stroke="#999" href="#b" transform="matrix(.6789 0 0 .6919 208.293 480.13)"/></g><path style="text-indent:0;text-align:start;line-height:normal;text-transform:none;block-progression:tb;marker:none;-inkscape-font-specification:Sans" fill="#666" d="M372.156 675.891c11.032.885 19.748-.355 25.73 1.018 5.88 1.35 10.955 3.029 12.302 4.02.302 2.299-3.078 4.416-4.701 6.568-1.51 2-5.791 5.208-2.376 4.145 3.947-1.266 10.628-3.723 12.723-6.692 1.047-1.484 1.67-3.714 1.144-5.716s-1.838-3.475-3.362-4.64c-3.049-2.329-7.19-3.316-13.726-4.816-6.535-1.5-15.918-.855-27.342-.625-3.47 1.747 2.845 5.992-.392 6.738m11.602 49.11c3.696-1.219 9.45-3.563 11.69-5.228 1.12-.833 2.157-1.84 2.827-3.381.67-1.542.578-3.692-.218-5.184-1.593-2.984-4.17-4.047-7.599-5.32-3.429-1.272-8.006-2.263-13.901-3.542-5.818-1.263-9.327-2.774-11.69-4.172-.406-.77 1.951-.268 2.818-1.416 1.584-2.097 4.122-7.127 5.208-9.05-1.584-.559-7.733.569-10.429 1.127-2.677.771-5.78 2.107-7.705 3.755-2.054 1.76-2.452 4.884-2.406 6.772.047 1.888 1.108 3.285 2.069 4.14 1.923 1.707 4.184 2.52 7.493 3.54s7.623 2.036 13.172 3.091c5.67 1.078 9.885 2.187 12.611 3.199.778.288 1.557.467 1.703 1.102-.58.371.515.156-2.492 1.551 1.526-3.046-2.487 5.39-3.151 9.016m-3.488 30.513c3.099-1.794 6.66-4.41 8.605-6.412.972-1 1.834-2.16 2.25-3.79.414-1.628-.02-3.736-1.044-5.082-2.05-2.69-4.762-3.329-8.35-4.037-3.588-.709-8.266-.956-14.29-1.277-5.944-.318-10.275-1.07-12.831-2.072-.523-.696.949-.984 1.236-1.897.55-1.75 2.036-8.87 2.077-9.587-1.654-.299-3.98 1.488-6.55 2.47-2.52 1.189-5.37 3.003-7.007 4.937-1.747 2.065-1.641 5.213-1.293 7.07.347 1.856 1.617 3.066 2.703 3.755 2.17 1.38 4.532 1.82 7.962 2.298 3.43.479 7.85.793 13.496.948 5.77.159 10.108.58 12.96 1.143.815.161 1.18.343 1.722.538-1.087.822-.075.386-2.26 1.52.232-.093-.242 7.423.048 9.832zm13.466 26.713c1.048-1.08 1.951-2.311 2.287-3.97.336-1.658-.369-3.721-1.695-4.973-2.652-2.504-5.893-2.905-10.166-3.3-4.273-.394-9.78-.235-16.873-.034-7 .2-11.431-.407-14.522-1.184-.678-.649 1.856-1.16 1.87-2.193.025-1.837-.732-6.783-.588-8.76-2.408.414-3.706 1.283-6.63 2.484-2.845 1.403-6.019 3.458-7.758 5.526-1.857 2.21-1.44 5.337-.86 7.157.579 1.819 2.18 2.914 3.517 3.507 2.674 1.186 5.483 1.42 9.55 1.6 4.066.18 9.279.11 15.913-.225 6.78-.343 11.906-.298 15.303.016.97.09 1.415.24 2.068.386-.251.598.786.328-1.67 1.647 1.846 6.029 2.806 7.491 2.964 8.476-3.426 2.846 6.51-5.363 7.29-6.16m11.508 36.15c4.457-2.651 4.179-2.811 6.249-5.203 1.035-1.197 1.89-2.524 2.059-4.21.168-1.687-.876-3.654-2.513-4.743-3.274-2.178-6.943-2.198-11.764-2.093-4.822.106-10.952.905-18.849 1.932-7.793 1.013-12.818.927-16.366.515-.837-.565.847-1.53.551-2.124-.635-1.273-2.84-6.293-3.267-7.987-.21-.604-1.196.788-4.313 2.322-3.001 1.725-6.29 4.135-7.975 6.393-1.798 2.41-.943 5.468-.069 7.208s2.8 2.64 4.366 3.074c3.133.867 6.3.772 10.864.477s10.377-.972 17.745-2.077c7.529-1.13 13.259-1.683 17.092-1.767 1.094-.025 1.61.073 2.358.143-.404.416 1.161-.114-1.417 1.483 5.046 5.788.237.504 5.565 6.468zm25.136 14.996c.791-1.353 1.389-2.804 1.273-4.495-.115-1.69-1.432-3.456-3.17-4.256-3.477-1.6-6.977-1.008-11.553-.098s-10.288 2.721-17.645 5.052c-7.26 2.3-12.062 3.055-15.51 3.242-1.649-.417-.814-.636-1.144-1.76-.428-1.46-4.814-5.587-4.749-6.278-.3-.56.638-.5-2.08 1.533-2.579 2.202-5.318 5.128-6.553 7.635-1.32 2.677-.004 5.549 1.114 7.118 1.117 1.57 3.1 2.136 4.663 2.301 3.128.331 6.13-.291 10.431-1.345 4.3-1.053 9.729-2.691 16.568-5.011 6.99-2.371 12.36-3.874 15.999-4.597 1.038-.207 3.903-1.09 5.578-1.315 1.238.318.51 1.252-.085 1.801 2.295 1.786 4.21 2.46 5.106 3.141.709-.81 1.198-1.704 1.758-2.668m143.974-157.08c-8.265.17-16.892-.579-22.65.794-5.869 1.4-11.178 2.85-12.526 3.841-.301 2.3 3.079 4.417 4.702 6.568 1.509 2 5.79 5.208 2.376 4.146-3.947-1.266-10.629-3.723-12.723-6.692-1.047-1.484-1.67-3.714-1.145-5.717.527-2.002 1.838-3.475 3.363-4.64 3.048-2.328 7.19-3.316 13.725-4.816s14.311-1.568 25.735-1.338c3.471 1.746-1.416 3.714-.857 7.854m-8.745 48.708c-3.697-1.219-9.451-3.563-11.691-5.228-1.12-.833-2.156-1.84-2.826-3.382-.67-1.541-.579-3.691.218-5.183 1.593-2.984 4.17-4.047 7.598-5.32 3.429-1.272 8.007-2.263 13.902-3.543 5.817-1.263 9.327-2.773 11.69-4.171.405-.771-1.952-.268-2.819-1.416-1.583-2.098-4.121-7.128-5.208-9.05 1.585-.56 7.734.568 10.43 1.127 2.677.771 5.78 2.106 7.704 3.754 2.055 1.76 2.453 4.885 2.406 6.773s-1.107 3.285-2.068 4.139c-1.923 1.708-4.184 2.52-7.494 3.54s-7.623 2.037-13.171 3.092c-5.67 1.078-9.886 2.187-12.612 3.198-.778.29-1.556.468-1.703 1.103.58.37-.515.155 2.493 1.551-1.527-3.046 2.487 5.39 3.151 9.016m3.487 30.512c-3.098-1.794-6.659-4.41-8.604-6.411-.973-1.001-1.834-2.16-2.25-3.79-.415-1.628.019-3.736 1.043-5.082 2.05-2.691 4.763-3.33 8.35-4.038 3.589-.708 8.266-.955 14.29-1.277 5.945-.317 10.275-1.07 12.832-2.071.523-.697-.95-.985-1.236-1.898-.55-1.75-2.037-8.87-2.077-9.586 1.653-.3 3.979 1.487 6.55 2.47 2.52 1.188 5.37 3.002 7.007 4.936 1.747 2.066 1.64 5.214 1.293 7.07-.347 1.857-1.618 3.066-2.703 3.756-2.17 1.379-4.532 1.82-7.963 2.298s-7.85.793-13.496.948c-5.77.158-10.108.58-12.96 1.143-.814.16-1.18.343-1.722.537 1.087.823.075.387 2.26 1.521-.231-.094.242 7.423-.047 9.831zm-13.466 26.714c-1.047-1.081-1.95-2.311-2.286-3.97s.368-3.722 1.694-4.974c2.653-2.503 5.893-2.904 10.166-3.299s9.78-.235 16.873-.034c7 .199 11.432-.407 14.522-1.184.678-.649-1.855-1.161-1.87-2.194-.025-1.836.732-6.782.588-8.759 2.409.414 3.707 1.283 6.631 2.484 2.844 1.403 6.018 3.457 7.757 5.526 1.858 2.21 1.441 5.337.861 7.156-.58 1.82-2.18 2.915-3.518 3.508-2.673 1.186-5.483 1.42-9.55 1.6-4.066.179-9.278.109-15.912-.226-6.78-.342-11.906-.298-15.304.016-.969.09-1.415.24-2.068.387.252.598-.785.327 1.671 1.647-1.846 6.028-2.807 7.49-2.965 8.476 3.427 2.846-6.509-5.364-7.29-6.16m-11.508 36.15c-4.457-2.652-4.178-2.812-6.248-5.204-1.036-1.196-1.89-2.523-2.06-4.21-.168-1.686.876-3.653 2.513-4.742 3.275-2.178 6.944-2.199 11.765-2.093s10.952.905 18.848 1.931c7.793 1.013 12.818.927 16.366.515.838-.565-.847-1.53-.55-2.123.634-1.274 2.84-6.293 3.266-7.987.21-.604 1.197.788 4.313 2.322 3.002 1.725 6.29 4.135 7.975 6.392 1.799 2.411.944 5.469.07 7.208-.874 1.74-2.8 2.642-4.366 3.075-3.134.866-6.301.771-10.865.476s-10.376-.972-17.744-2.077c-7.53-1.13-13.26-1.683-17.093-1.766-1.093-.025-1.61.073-2.358.142.404.416-1.16-.113 1.418 1.483-5.047 5.789-.238.505-5.566 6.468zm-25.136 14.995c-.79-1.352-1.388-2.803-1.273-4.494.116-1.691 1.433-3.456 3.17-4.256 3.478-1.6 6.977-1.008 11.554-.099 4.577.91 10.288 2.722 17.644 5.053 7.26 2.3 12.063 3.055 15.51 3.241 1.65-.417.815-.635 1.144-1.76.428-1.46 4.815-5.586 4.75-6.277.299-.56-.638-.5 2.08 1.533 2.578 2.202 5.317 5.127 6.553 7.634 1.32 2.678.004 5.55-1.114 7.118-1.118 1.57-3.1 2.137-4.664 2.302-3.128.331-6.13-.292-10.43-1.345-4.301-1.053-9.729-2.691-16.569-5.012-6.99-2.37-12.36-3.873-15.998-4.596-1.038-.207-3.903-1.09-5.578-1.315-1.239.318-.51 1.252.085 1.801-2.295 1.786-4.21 2.46-5.107 3.141-.708-.81-1.198-1.704-1.757-2.669" color="#000" font-family="Sans" font-weight="400" overflow="visible"/><path fill="#00d4aa" stroke="#000" stroke-width="1.6" d="M800.8 572.91h248.41v187.74H800.8z"/><path fill="none" stroke="#666" stroke-linejoin="round" stroke-width="7.94" d="M572.857 672.362h95.714V815.22H840v-74.287"/><path style="text-indent:0;text-align:start;line-height:normal;text-transform:none;block-progression:tb;marker:none;-inkscape-font-specification:Sans" fill="#666" d="M1008.156 740.933V847.05H550l-11.25 7.937h473.406c2.078-.002 3.967-1.89 3.969-3.968V740.933z" color="#000" font-family="Sans" font-weight="400" overflow="visible"/><use stroke-width="1.59" href="#d" transform="translate(-4.046 307.258)"/><use stroke-width="1.59" href="#d" transform="translate(169.023 307.257)"/><path fill="#0a8" stroke="#000" stroke-width="1.59" d="M934.597 731.699a9.597 9.597 0 11-19.193 0 9.597 9.597 0 0119.193 0z"/><path fill="#f9f9f9" stroke="#000" stroke-width="1.64" d="M815.82 588.1h218.36v118.52H815.82z"/><path fill="none" stroke="#000" d="M845.715 627.505s74.816-48.356 158.57 0"/><path d="M853.576 637.194l4.062-1.875.57 1.236-4.061 1.875zm8.486.47l2.545-1.013-3.497-8.784-2.548 1.657-.565-1.419 2.532-1.65 1.558-.621 4.062 10.203 2.545-1.013.522 1.31-6.632 2.641zm10.278-14.317q-1.233.4-1.461 1.818-.225 1.409.565 3.84.787 2.423 1.798 3.44 1.016 1.005 2.247.605 1.24-.402 1.463-1.81.23-1.418-.557-3.842-.79-2.432-1.806-3.437-1.01-1.016-2.25-.614m-.41-1.263q1.982-.643 3.534.59 1.557 1.222 2.526 4.206.967 2.976.427 4.889-.536 1.901-2.517 2.545-1.98.642-3.539-.58-1.552-1.232-2.518-4.209-.969-2.985-.435-4.886.54-1.911 2.522-2.555m51.587-7.342q-1.294.019-1.932 1.307-.629 1.279-.591 3.836.037 2.547.703 3.816.675 1.26 1.97 1.242 1.302-.02 1.931-1.298.637-1.289.6-3.836-.037-2.557-.712-3.817-.666-1.268-1.969-1.25m-.02-1.328q2.084-.03 3.204 1.606 1.128 1.627 1.173 4.764.045 3.129-1.034 4.797-1.071 1.66-3.155 1.69t-3.21-1.597q-1.12-1.635-1.166-4.765-.046-3.137 1.026-4.797 1.08-1.666 3.163-1.698m48.267 8.528l-1.285 4.442 4.442 1.284-.392 1.356-4.442-1.285-1.284 4.442-1.34-.387 1.285-4.442-4.442-1.284.392-1.356 4.442 1.284 1.284-4.441zm5.666 11.522l2.562.97 3.348-8.842-2.999-.497.541-1.428 2.983.49 1.568.594-3.888 10.27 2.561.97-.5 1.32-6.675-2.528zm17.264-3.608q-1.177-.538-2.306.351-1.116.885-2.18 3.21-1.06 2.318-1.003 3.75.067 1.428 1.245 1.966 1.185.542 2.302-.343 1.128-.89 2.189-3.207 1.063-2.324.995-3.753-.057-1.431-1.242-1.974m.553-1.207q1.894.867 2.204 2.824.32 1.954-.986 4.808-1.302 2.845-2.993 3.888-1.68 1.04-3.574.172-1.896-.867-2.215-2.82-.309-1.959.992-4.804 1.306-2.854 2.986-3.892 1.691-1.043 3.586-.176" font-family="Sans" font-size="17" font-weight="400" letter-spacing="0" text-anchor="middle" word-spacing="0" style="text-align:center;line-height:125%"/><path fill="none" stroke="#000" stroke-width=".85" d="M924.286 605.359v-9.279"/><path fill="red" stroke="#000" d="M920 706.362h10l-5-61.428z"/></g></svg>