<svg xmlns="http://www.w3.org/2000/svg" width="700" height="700" xmlns:xlink="http://www.w3.org/1999/xlink"><defs><g id="a"><path fill="#fff" d="M-8.4 0 0 16.9 8.4 0 0-16.9Z"/><path fill="red" d="M-8.4 0 0 16.9 8.4 0Z"/><path fill="none" stroke="#000" stroke-miterlimit="10" d="M-8.4 0 0 16.9 8.4 0 0-16.9Z"/></g></defs><g fill="none" transform="translate(350 350)"><g stroke="#b3b3b3" stroke-width="1.8" transform="rotate(-23.5)"><path d="M-260.26 0c0-53.84 49.33-99.34 116.76-100.16C-88.59-100.83-29.3-67.51-20.64-48c3.09 6.97 5.2 17.89 5.2 48s-2.11 41.03-5.2 48c-8.66 19.51-67.95 52.83-122.86 52.16C-210.93 99.34-260.26 53.84-260.26 0"/><path d="M-510.11 0c0-29.48 7.66-58.66 22.54-85.27 66.03-118.17 248.14-149.91 385.07-56.57C-70.24-119.85-22.99-75.99-15.02-48c2.26 7.97 3.77 19.03 3.77 48s-1.51 40.03-3.77 48c-7.97 27.99-55.22 71.85-87.48 93.84-136.93 93.34-319.04 61.6-385.07-56.57-14.88-26.61-22.54-55.79-22.54-85.27"/><path d="M-292.54-399.27c138.6 92.26 206.81 195.43 231.04 235.43C-57.95-157.98-15.36-87.03-9.1-48c1.39 8.62 2.28 19.88 2.28 48s-.89 39.38-2.28 48c-6.26 39.01-48.83 109.94-52.4 115.84-24.23 40-92.44 143.17-231.04 235.43"/><path d="M-97.51-485.27C-56.06-350.52-33.25-245.35-20.5-173.8-17.18-155.14-4.96-84.88-3.04-48c.46 8.94.76 20.3.76 48s-.3 39.06-.76 48C-4.96 84.88-17.17 155.13-20.5 173.8c-12.75 71.54-35.56 176.72-77.01 311.47M97.51-485.27C56.06-350.52 33.25-245.35 20.5-173.8 17.18-155.14 4.96-84.88 3.04-48c-.46 8.94-.76 20.3-.76 48s.3 39.06.76 48C4.96 84.88 17.17 155.13 20.5 173.8c12.75 71.54 35.56 176.72 77.01 311.47"/><path d="M292.54-399.27C153.94-307.01 85.73-203.84 61.5-163.84 57.95-157.98 15.36-87.03 9.1-48 7.71-39.38 6.82-28.12 6.82 0s.89 39.38 2.28 48c6.26 39.01 48.83 109.94 52.4 115.84 24.23 40 92.44 143.17 231.04 235.43"/><path d="M510.11 0c0-29.48-7.66-58.66-22.54-85.27-66.03-118.17-248.14-149.91-385.07-56.57C70.24-119.85 22.99-75.99 15.02-48c-2.26 7.97-3.77 19.03-3.77 48s1.51 40.03 3.77 48c7.97 27.99 55.22 71.85 87.48 93.84 136.93 93.34 319.04 61.6 385.07-56.57C502.45 58.66 510.11 29.48 510.11 0Z"/><path d="M260.26 0c0-53.84-49.33-99.34-116.76-100.16C88.59-100.83 29.3-67.51 20.64-48c-3.09 6.97-5.2 17.89-5.2 48s2.11 41.03 5.2 48c8.66 19.51 67.95 52.83 122.86 52.16C210.93 99.34 260.26 53.84 260.26 0Z"/><use transform="rotate(116.29 -128.018 -19.576)" href="#a"/><use transform="rotate(243.71 -128.018 19.576)" href="#a"/><use transform="rotate(243.71 128.018 -19.576)" href="#a"/><use transform="rotate(116.29 128.018 19.576)" href="#a"/><circle r="175" stroke="green" stroke-width="3" opacity="0.95"/><path d="M-30-48h60v96h-60z" fill="#fff" stroke="none"/><path d="M-30 0h60v48h-60z" fill="red" stroke="none"/><path d="M-30-48h60v96h-60z" stroke="#000" stroke-width="1.5"/><text transform="translate(0 -4)" xml:space="preserve" style="text-align:center;line-height:100%;-inkscape-font-specification:Calibri" font-size="62" font-weight="400" text-anchor="middle" fill="red" stroke="none" font-family="Calibri"><tspan x="0" y="0">S</tspan></text><text transform="translate(0 44)" xml:space="preserve" style="text-align:center;line-height:100%;-inkscape-font-specification:Calibri" font-size="62" font-weight="400" text-anchor="middle" fill="#fff" stroke="none" font-family="Calibri"><tspan x="0" y="0">N</tspan></text><path d="M0-500V500" stroke="#f0f" stroke-width="3" stroke-dasharray="24.1 6 3 6"/></g><path d="M0-500V500" stroke="#00f" stroke-width="1.9" stroke-dasharray="15.3 3.8 1.9 3.8"/><text transform="translate(-110 -170)" xml:space="preserve" style="text-align:start;line-height:100%;-inkscape-font-specification:Calibri" font-size="20.17" font-weight="400" fill="#f0f" font-family="Calibri"><tspan x="-60" y="5">地磁南极</tspan></text><text transform="translate(82 175)" xml:space="preserve" style="text-align:start;line-height:100%;-inkscape-font-specification:Calibri" font-size="20.17" font-weight="400" fill="#f0f" font-family="Calibri"><tspan x="5" y="5">地磁北极</tspan></text><text transform="translate(6 -181)" xml:space="preserve" style="text-align:start;line-height:100%;-inkscape-font-specification:Calibri" font-size="20.17" font-weight="400" fill="#00f" font-family="Calibri"><tspan x="5" y="-5">地理北极</tspan></text><text transform="translate(-25 194)" xml:space="preserve" style="text-align:start;line-height:100%;-inkscape-font-specification:Calibri" font-size="20.17" font-weight="400" fill="#00f" font-family="Calibri"><tspan x="-70" y="10">地理南极</tspan></text></g></svg>