<svg xmlns="http://www.w3.org/2000/svg" stroke-linecap="round" stroke-linejoin="round" class="tl-container tl-theme__force-sRGB tl-theme__light" data-color-mode="light" style="background-color:#f9fafb" viewBox="293 257.5 634 374.5"><path fill="none" stroke="#1d1d1d" stroke-width="3.5" d="M325 440h570"/><g transform="translate(833.048 440)"><defs><clipPath id="svg__github_work__a"><use href="#svg__github_work__a"/></clipPath></defs><g fill="none" stroke="#1d1d1d" stroke-width="3.5" pointer-events="none"><g clip-path="url(#svg__github_work__a)"><use href="#svg__github_work__c"/></g><use href="#svg__github_work__d"/></g></g><g transform="translate(607.348 440)"><defs><clipPath id="svg__github_work__b"><path d="M-100-220h240v320h-240Z"/></clipPath></defs><g fill="none" stroke="#1d1d1d" stroke-width="3.5" pointer-events="none"><g clip-path="url(#svg__github_work__b)"><path d="m0 0 40-120"/></g><path d="M32.144-113.034 40-120l2.105 10.287"/></g></g><use fill="none" stroke="#1d1d1d" stroke-dasharray="7.11 7.39" stroke-dashoffset="3.5" stroke-width="3.5" href="#svg__github_work__f" transform="translate(600 360)"/><use fill="none" stroke="#1d1d1d" stroke-dasharray="7.11 7.39" stroke-dashoffset="3.5" stroke-width="3.5" href="#svg__github_work__f" transform="translate(370 289.496)"/><g transform="translate(373.105 440)"><defs><clipPath id="svg__github_work__c"><use href="#svg__github_work__a"/></clipPath></defs><g fill="none" stroke="#1d1d1d" stroke-width="3.5" pointer-events="none"><g clip-path="url(#svg__github_work__c)"><use href="#svg__github_work__c"/></g><use href="#svg__github_work__d"/></g></g><path fill="none" stroke="#9fa8b2" stroke-width="3.5" d="m720 290 20 20m0-20-20 20m130-20.504 20 20m0-20-20 20M600 290l20 20m0-20-20 20m-132.833-20 20 20m0-20-20 20M350 289.496l20 20m0-20-20 20m370 74.171 20 20m0-20-20 20m130-20.504 20 20m0-20-20 20m-250-19.496 20 20m0-20-20 20m-132.833-20 20 20m0-20-20 20M350 383.163l20 20m0-20-20 20"/></svg>