<svg xmlns="http://www.w3.org/2000/svg" direction="ltr" width="634" height="374.5036229105997" viewBox="293 257.4963770894003 634 374.5036229105997" stroke-linecap="round" stroke-linejoin="round" data-color-mode="light" class="tl-container tl-theme__force-sRGB tl-theme__light" style="background-color: rgb(249, 250, 251);"><defs/><g transform="matrix(1, 0, 0, 1, 325, 440)" opacity="1"><path stroke-width="3.5" d="M 0 0 L 570 0" transform="scale(1)" stroke="#1d1d1d" fill="none"/></g><g transform="matrix(1, 0, 0, 1, 833.048, 440)" opacity="1"><g transform="scale(1)"><defs><clipPath id="_export_19_r1qv__shape_nFfxjqnFD9jwgk8f-2U1x_clip"><path d="M -99.0214 -100 L 150 -100 L 150 220 L -99.0214 220 Z"/></clipPath></defs><g fill="none" stroke="#1d1d1d" stroke-width="3.5" stroke-linejoin="round" stroke-linecap="round" pointer-events="none"><g style="clip-path: url(&quot;#_export_19_r1qv__shape_nFfxjqnFD9jwgk8f-2U1x_clip&quot;);"><rect x="-99.0214" y="-100" width="249.0214" height="320" opacity="0"/><path stroke-width="3.5" d="M 0.9786 0 L 50 120"/></g><path d="M 51.421272970311676 109.59663596984795 L 50 120 L 41.70105895022691 113.5674594869219"/></g></g></g><g transform="matrix(1, 0, 0, 1, 607.3477, 440)" opacity="1"><g transform="scale(1)"><defs><clipPath id="_export_19_r1qv__shape_rco4R-2az_DuxjRF8IstX_clip"><path d="M -100 -220 L 140 -220 L 140 100 L -100 100 Z"/></clipPath></defs><g fill="none" stroke="#1d1d1d" stroke-width="3.5" stroke-linejoin="round" stroke-linecap="round" pointer-events="none"><g style="clip-path: url(&quot;#_export_19_r1qv__shape_rco4R-2az_DuxjRF8IstX_clip&quot;);"><rect x="-100" y="-220" width="240" height="320" opacity="0"/><path stroke-width="3.5" d="M 0 0 L 40 -120"/></g><path d="M 32.143869258332685 -113.03356549088204 L 40 -120 L 42.105043887863076 -109.71317394770524"/></g></g></g><g transform="matrix(1, 0, 0, 1, 607.7819, 440)" opacity="1"><g stroke-width="3.5" transform="scale(1)" stroke="#1d1d1d" fill="none"><path d="M 0 0 L 120 40" stroke-dasharray="7.027283689263065 7.905694150420948" stroke-dashoffset="0"/></g></g><g transform="matrix(1, 0, 0, 1, 600, 360)" opacity="1"><g stroke-width="3.5" fill="none" stroke="#1d1d1d"><path d="M 0 120 C 0 53.7258 53.7258 0 120 0 C 186.2742 0 240 53.7258 240 120" stroke-dasharray="7.11192821972091 7.385463920479406" stroke-dashoffset="3.5"/><path d="M 240 120 C 240 186.2742 186.2742 240 120 240 C 53.7258 240 0 186.2742 0 120" stroke-dasharray="7.111928219720912 7.385463920479409" stroke-dashoffset="3.5"/></g></g><g transform="matrix(1, 0, 0, 1, 620, 443.6667)" opacity="1"><g stroke-width="3.5" transform="scale(1)" stroke="#1d1d1d" fill="none"><path d="M 0 0 L -130 -40" stroke-dasharray="7.556372504853024 8.500919067959652" stroke-dashoffset="0"/></g></g><g transform="matrix(1, 0, 0, 1, 370, 289.4964)" opacity="1"><g stroke-width="3.5" fill="none" stroke="#1d1d1d"><path d="M 0 120 C 0 53.7258 53.7258 0 120 0 C 186.2742 0 240 53.7258 240 120" stroke-dasharray="7.11192821972091 7.385463920479406" stroke-dashoffset="3.5"/><path d="M 240 120 C 240 186.2742 186.2742 240 120 240 C 53.7258 240 0 186.2742 0 120" stroke-dasharray="7.111928219720912 7.385463920479409" stroke-dashoffset="3.5"/></g></g><g transform="matrix(1, 0, 0, 1, 373.1048, 440)" opacity="1"><g transform="scale(1)"><defs><clipPath id="_export_19_r1qv__shape_ghoDeEjDgr2i45cy3_I_3_clip"><path d="M -99.0214 -100 L 150 -100 L 150 220 L -99.0214 220 Z"/></clipPath></defs><g fill="none" stroke="#1d1d1d" stroke-width="3.5" stroke-linejoin="round" stroke-linecap="round" pointer-events="none"><g style="clip-path: url(&quot;#_export_19_r1qv__shape_ghoDeEjDgr2i45cy3_I_3_clip&quot;);"><rect x="-99.0214" y="-100" width="249.0214" height="320" opacity="0"/><path stroke-width="3.5" d="M 0.9786 0 L 50 120"/></g><path d="M 51.421272970311676 109.59663596984795 L 50 120 L 41.70105895022691 113.5674594869219"/></g></g></g><g transform="matrix(1, 0, 0, 1, 377.1667, 443.6667)" opacity="1"><g stroke-width="3.5" transform="scale(1)" stroke="#1d1d1d" fill="none"><path d="M 0 -10 L 110 -40" stroke-dasharray="0.035630482034348064 7.563163653157615" stroke-dashoffset="0"/></g></g><g transform="matrix(1, 0, 0, 1, 730, 480)" opacity="1"><g stroke-width="3.5" transform="scale(1)" stroke="#1d1d1d" fill="none"><path d="M 0 0 L 100 -40" stroke-dasharray="0.03590109871423003 7.654627118712616" stroke-dashoffset="0"/></g></g><g transform="matrix(1, 0, 0, 1, 720, 290)" opacity="1"><path stroke-width="3.5" d="M 0 0 L 20 20" transform="scale(1)" stroke="#9fa8b2" fill="none"/></g><g transform="matrix(1, 0, 0, 1, 740, 290)" opacity="1"><path stroke-width="3.5" d="M 0 0 L -20 20" transform="scale(1)" stroke="#9fa8b2" fill="none"/></g><g transform="matrix(1, 0, 0, 1, 850, 289.4964)" opacity="1"><path stroke-width="3.5" d="M 0 0 L 20 20" transform="scale(1)" stroke="#9fa8b2" fill="none"/></g><g transform="matrix(1, 0, 0, 1, 870, 289.4964)" opacity="1"><path stroke-width="3.5" d="M 0 0 L -20 20" transform="scale(1)" stroke="#9fa8b2" fill="none"/></g><g transform="matrix(1, 0, 0, 1, 600, 290)" opacity="1"><path stroke-width="3.5" d="M 0 0 L 20 20" transform="scale(1)" stroke="#9fa8b2" fill="none"/></g><g transform="matrix(1, 0, 0, 1, 620, 290)" opacity="1"><path stroke-width="3.5" d="M 0 0 L -20 20" transform="scale(1)" stroke="#9fa8b2" fill="none"/></g><g transform="matrix(1, 0, 0, 1, 467.1667, 290)" opacity="1"><path stroke-width="3.5" d="M 0 0 L 20 20" transform="scale(1)" stroke="#9fa8b2" fill="none"/></g><g transform="matrix(1, 0, 0, 1, 487.1667, 290)" opacity="1"><path stroke-width="3.5" d="M 0 0 L -20 20" transform="scale(1)" stroke="#9fa8b2" fill="none"/></g><g transform="matrix(1, 0, 0, 1, 350, 289.4964)" opacity="1"><path stroke-width="3.5" d="M 0 0 L 20 20" transform="scale(1)" stroke="#9fa8b2" fill="none"/></g><g transform="matrix(1, 0, 0, 1, 370, 289.4964)" opacity="1"><path stroke-width="3.5" d="M 0 0 L -20 20" transform="scale(1)" stroke="#9fa8b2" fill="none"/></g><g transform="matrix(1, 0, 0, 1, 720, 383.6667)" opacity="1"><path stroke-width="3.5" d="M 0 0 L 20 20" transform="scale(1)" stroke="#9fa8b2" fill="none"/></g><g transform="matrix(1, 0, 0, 1, 740, 383.6667)" opacity="1"><path stroke-width="3.5" d="M 0 0 L -20 20" transform="scale(1)" stroke="#9fa8b2" fill="none"/></g><g transform="matrix(1, 0, 0, 1, 850, 383.163)" opacity="1"><path stroke-width="3.5" d="M 0 0 L 20 20" transform="scale(1)" stroke="#9fa8b2" fill="none"/></g><g transform="matrix(1, 0, 0, 1, 870, 383.163)" opacity="1"><path stroke-width="3.5" d="M 0 0 L -20 20" transform="scale(1)" stroke="#9fa8b2" fill="none"/></g><g transform="matrix(1, 0, 0, 1, 600, 383.6667)" opacity="1"><path stroke-width="3.5" d="M 0 0 L 20 20" transform="scale(1)" stroke="#9fa8b2" fill="none"/></g><g transform="matrix(1, 0, 0, 1, 620, 383.6667)" opacity="1"><path stroke-width="3.5" d="M 0 0 L -20 20" transform="scale(1)" stroke="#9fa8b2" fill="none"/></g><g transform="matrix(1, 0, 0, 1, 467.1667, 383.6667)" opacity="1"><path stroke-width="3.5" d="M 0 0 L 20 20" transform="scale(1)" stroke="#9fa8b2" fill="none"/></g><g transform="matrix(1, 0, 0, 1, 487.1667, 383.6667)" opacity="1"><path stroke-width="3.5" d="M 0 0 L -20 20" transform="scale(1)" stroke="#9fa8b2" fill="none"/></g><g transform="matrix(1, 0, 0, 1, 350, 383.163)" opacity="1"><path stroke-width="3.5" d="M 0 0 L 20 20" transform="scale(1)" stroke="#9fa8b2" fill="none"/></g><g transform="matrix(1, 0, 0, 1, 370, 383.163)" opacity="1"><path stroke-width="3.5" d="M 0 0 L -20 20" transform="scale(1)" stroke="#9fa8b2" fill="none"/></g></svg>