<svg stroke-linecap="round" stroke-linejoin="round" class="tl-container tl-theme__force-sRGB tl-theme__light" data-color-mode="light" style="background-color:#f9fafb" viewBox="293 257.5 634 374.5"><path fill="none" stroke="#1d1d1d" stroke-width="3.5" d="M325 440h570"/><g transform="translate(833.048 440)"><defs><clipPath id="a"><path d="M-99-100h249v320H-99Z"/></clipPath></defs><g fill="none" stroke="#1d1d1d" stroke-width="3.5" pointer-events="none"><path d="m1 0 49 120" style="clip-path:url(#a)"/><path d="M51.4 109.6 50 120l-8.3-6.4"/></g></g><g transform="translate(607.348 440)"><defs><clipPath id="b"><path d="M-100-220h240v320h-240Z"/></clipPath></defs><g fill="none" stroke="#1d1d1d" stroke-width="3.5" pointer-events="none"><path d="m0 0 40-120" style="clip-path:url(#b)"/><path d="m32.1-113 7.9-7 2.1 10.3"/></g></g><g fill="none" stroke="#1d1d1d" stroke-dashoffset="3.5" stroke-width="3.5"><path stroke-dasharray="7.11192821972091 7.385463920479406" d="M600 480a120 120 0 1 1 240 0"/><path stroke-dasharray="7.111928219720912 7.385463920479409" d="M840 480a120 120 0 1 1-240 0"/></g><g fill="none" stroke="#1d1d1d" stroke-dashoffset="3.5" stroke-width="3.5"><path stroke-dasharray="7.11192821972091 7.385463920479406" d="M370 409.5a120 120 0 1 1 240 0"/><path stroke-dasharray="7.111928219720912 7.385463920479409" d="M610 409.5a120 120 0 1 1-240 0"/></g><g transform="translate(373.105 440)"><defs><clipPath id="c"><path d="M-99-100h249v320H-99Z"/></clipPath></defs><g fill="none" stroke="#1d1d1d" stroke-width="3.5" pointer-events="none"><path d="m1 0 49 120" style="clip-path:url(#c)"/><path d="M51.4 109.6 50 120l-8.3-6.4"/></g></g><path fill="none" stroke="#9fa8b2" stroke-width="3.5" d="m720 290 20 20m0-20-20 20m130-20.5 20 20m0-20-20 20M600 290l20 20m0-20-20 20m-132.8-20 20 20m0-20-20 20M350 289.5l20 20m0-20-20 20m370 74.2 20 20m0-20-20 20m130-20.5 20 20m0-20-20 20m-250-19.5 20 20m0-20-20 20m-132.8-20 20 20m0-20-20 20M350 383.2l20 20m0-20-20 20"/></svg>