<svg xmlns="http://www.w3.org/2000/svg" stroke-linecap="round" stroke-linejoin="round" class="tl-container tl-theme__force-sRGB tl-theme__light" data-color-mode="light" style="background-color:#f9fafb" viewBox="1566.82 258 1455.18 364"><path fill="none" stroke="#1d1d1d" stroke-width="10" d="M1598.82 440.146a120.59 120.734 0 1 1 241.18 0 120.59 120.734 0 1 1-241.18 0m361.193.133a120.128 120.694 0 1 1 240.255 0 120.128 120.694 0 1 1-240.255 0"/><path fill="none" stroke="#1d1d1d" stroke-width="3.5" d="M2560.268 439.88h39.85m-.003 0v80.14m-29.882.005h59.77m-49.81 10.018h39.85m-29.89 10.018h19.92"/><path fill="none" stroke="#1d1d1d" stroke-width="2" d="M2070 440h20m-10-10v20m-10-10a10 10 0 1 1 20 0 10 10 0 1 1-20 0"/><g transform="translate(1870 440)"><defs><clipPath id="svg__github_work__a"><use href="#svg__github_work__a"/></clipPath></defs><g fill="none" stroke="#1d1d1d" stroke-width="3.5" pointer-events="none"><g clip-path="url(#svg__github_work__a)"><use stroke-dashoffset="none" href="#svg__github_work__b"/></g><use href="#svg__github_work__d"/></g></g><path fill="none" stroke="#1d1d1d" stroke-width="2" d="M2070 550h20m-20-220h20m20 10h20m0 20h20m-40 180h20m0-20h20m0-20h20m-10-20h20m-10-20h20m-20-20h20m-20-20h20m-30-20h20m-30-20h20m-130 160h20m-50-20h20m-40-20h20m-30-20h20m-30-20h20m-20-20h20m-20-20h20m-10-20h20m-10-20h20m0-20h20m10-20h20m10-40h20m-10-10v20m-10 270h20m-10-10v20m-150-150h20m-10-10v20m270-10h20m-10-10v20m-100-140h20m-10-10v20m-110-10h20m-10-10v20m-50 10h20m-10-10v20m170-10h20m-10-10v20m-220 20h20m-10-10v20m230-10h20m-10-10v20m-270 30h20m-10-10v20m270-10h20m-10-10v20m-290 70h20m-10-10v20m270-10h20m-10-10v20m-270 20h20m-10-10v20m230-10h20m-10-10v20m-220 30h20m-10-10v20m170-10h20m-10-10v20m-150 10h20m-10-10v20m90-10h20m-10-10v20"/><path fill="none" stroke="#1d1d1d" stroke-width="10" d="M2320.013 440.279a120.128 120.694 0 1 1 240.255 0 120.128 120.694 0 1 1-240.255 0"/><path fill="none" stroke="#1d1d1d" stroke-width="2" d="M2430 440h20m-10-10v20m-10-10a10 10 0 1 1 20 0 10 10 0 1 1-20 0m0 110h20m-20-220h20m20 10h20m0 20h20m-40 180h20m0-20h20m0-20h20m-10-20h20m-10-20h20m-20-20h20m-20-20h20m-30-20h20m-30-20h20m-130 160h20m-50-20h20m-40-20h20m-30-20h20m-30-20h20m-20-20h20m-20-20h20m-10-20h20m-10-20h20m0-20h20m10-20h20"/><path fill="none" stroke="#1d1d1d" stroke-width="10" d="M2720.013 440.279a120.128 120.694 0 1 1 240.255 0 120.128 120.694 0 1 1-240.255 0"/><path fill="none" stroke="#1d1d1d" stroke-width="2" d="M2830 300h20m-20 280h20m-160-140h20m260 0h20m-110-130h20m-120 0h20m-60 20h20m160 0h20m-230 30h20m220 0h20m-280 40h20m260 0h20m-300 80h20m260 0h20m-280 30h20m220 0h20m-230 40h20m160 0h20m-160 20h20m80 0h20"/><g transform="translate(2250 440)"><defs><clipPath id="svg__github_work__c"><use href="#svg__github_work__a"/></clipPath></defs><g fill="none" stroke="#1d1d1d" stroke-width="3.5" pointer-events="none"><g clip-path="url(#svg__github_work__c)"><use stroke-dashoffset="none" href="#svg__github_work__b"/></g><use href="#svg__github_work__d"/></g></g><g transform="translate(2630 440)"><defs><clipPath id="svg__github_work__b"><use href="#svg__github_work__a"/></clipPath></defs><g fill="none" stroke="#1d1d1d" stroke-width="3.5" pointer-events="none"><g clip-path="url(#svg__github_work__b)"><use stroke-dashoffset="none" href="#svg__github_work__b"/></g><use href="#svg__github_work__d"/></g></g></svg>