<svg stroke-linecap="round" stroke-linejoin="round" class="tl-container tl-theme__force-sRGB tl-theme__light" data-color-mode="light" style="background-color:#f9fafb" viewBox="1538 278 284 268.3"><path fill="none" stroke="#1d1d1d" stroke-width="3.5" d="M1590 400a90 90 0 1 1 180 0 90 90 0 1 1-180 0"/><g transform="translate(1580 330)"><defs><clipPath id="a"><path d="M-110-100h420v201h-420Z"/></clipPath></defs><g fill="none" stroke="#1d1d1d" stroke-width="3.5" pointer-events="none"><path stroke-dashoffset="none" d="M-10 0h220" style="clip-path:url(#a)"/><path d="m201-5.2 9 5.2-9 5.2"/></g></g><g transform="translate(1570 470)"><defs><clipPath id="b"><path d="M-100-100h420v201h-420Z"/></clipPath></defs><g fill="none" stroke="#1d1d1d" stroke-width="3.5" pointer-events="none"><path stroke-dashoffset="none" d="M0 0h220" style="clip-path:url(#b)"/><path d="m211-5.2 9 5.2-9 5.2"/></g></g><g transform="translate(1570 450)"><defs><clipPath id="c"><path d="M-100-100h420v201h-420Z"/></clipPath></defs><g fill="none" stroke="#1d1d1d" stroke-width="3.5" pointer-events="none"><path stroke-dashoffset="none" d="M0 0h220" style="clip-path:url(#c)"/><path d="m211-5.2 9 5.2-9 5.2"/></g></g><g transform="translate(1570 430)"><defs><clipPath id="d"><path d="M-100-100h420v201h-420Z"/></clipPath></defs><g fill="none" stroke="#1d1d1d" stroke-width="3.5" pointer-events="none"><path stroke-dashoffset="none" d="M0 0h220" style="clip-path:url(#d)"/><path d="m211-5.2 9 5.2-9 5.2"/></g></g><g transform="translate(1570 410)"><defs><clipPath id="e"><path d="M-100-100h420v201h-420Z"/></clipPath></defs><g fill="none" stroke="#1d1d1d" stroke-width="3.5" pointer-events="none"><path stroke-dashoffset="none" d="M0 0h220" style="clip-path:url(#e)"/><path d="m211-5.2 9 5.2-9 5.2"/></g></g><g transform="translate(1570 390)"><defs><clipPath id="f"><path d="M-100-100h420v201h-420Z"/></clipPath></defs><g fill="none" stroke="#1d1d1d" stroke-width="3.5" pointer-events="none"><path stroke-dashoffset="none" d="M0 0h220" style="clip-path:url(#f)"/><path d="m211-5.2 9 5.2-9 5.2"/></g></g><g transform="translate(1570 370)"><defs><clipPath id="g"><path d="M-100-100h420v201h-420Z"/></clipPath></defs><g fill="none" stroke="#1d1d1d" stroke-width="3.5" pointer-events="none"><path stroke-dashoffset="none" d="M0 0h220" style="clip-path:url(#g)"/><path d="m211-5.2 9 5.2-9 5.2"/></g></g><g transform="translate(1580 350)"><defs><clipPath id="h"><path d="M-110-100h420v201h-420Z"/></clipPath></defs><g fill="none" stroke="#1d1d1d" stroke-width="3.5" pointer-events="none"><path stroke-dashoffset="none" d="M-10 0h220" style="clip-path:url(#h)"/><path d="m201-5.2 9 5.2-9 5.2"/></g></g><path fill="none" stroke="#1d1d1d" stroke-width="3.5" d="M1680 400v90m0-90v7l.9 83.6"/><path fill="#1d1d1d" d="M1682.3 492.2v-.3l.6-1.6-.8-2-2.4.5.2.2-.4-.8-1 1.6 1.7.6-.4-.6-1.2-.6.4-.7a4 4 0 0 1 6.6 4.2l-1.8 2-3.3 2-3-.5-2.5-2.2-1.3-3 .2-3.1 2-3 3.2-1.8 3.7.6 2.7 2.3 1 3.1-.5 3.5-2.4 2.4-3.4.7-3-.9-2-2-1.1-2.6.2-2.7 1.8-2.5 3.1-1.2 3 .6 2.3 2.3.4 3.7-1.7 3.3-3.1 1.2-3-.6-2.3-3-.3-3.8 2.2-2.4 4-.7 3.8 2 1.6 3.2-1.4 3.2-2.9 1.7-3.3-1.2-2-3 .8-3 2.8-1.9 1.9-.3a3.6 3.6 0 0 1 .3 7"/><path fill="none" stroke="#1d1d1d" stroke-width="3.5" d="m1680 400 6.3 3.1L1760 440m-80-40 6.3 3.1 74 37.3"/><path fill="#1d1d1d" d="m1761.5 442.7-.7.1-.3-1.3-.4-.5-.5-.3 1.3-.3.8 1a4 4 0 0 1-6.4 4.6l-1.1-2.7-1-4.1 1.2-3.3 3-2.4 3.4-.3 2.6 1 2 2.4 1.1 3.4-.3 3.1-1.8 2.5-3 1.4h-3.3l-2.6-1.3-1.5-3-.2-3.5 1.6-2.6 2.6-1.5 3.2.4 3 1.6 1.8 2.6v3.5l-2.5 2.8-3.4.4-3-1.6-1.8-2.9-.2-3 1.5-2.6 3.1-1.4 3.6.5 2.7 2 1 3.2-1 3.7-3.7 2.3-4.4-.3-2.6-2.3-.6-3.2 1.7-3.2 2.8-1.6 1.2-.3a3.5 3.5 0 0 1 1.1 7"/><text fill="#f9fafb" stroke="#f9fafb" stroke-width="2" alignment-baseline="mathematical" dominant-baseline="mathematical" font-family="'tldraw_draw', sans-serif" font-size="18" transform="translate(1730 410)"><tspan x="0" y="9.5" unicode-bidi="plaintext">v=0</tspan></text><text fill="#1d1d1d" alignment-baseline="mathematical" dominant-baseline="mathematical" font-family="'tldraw_draw', sans-serif" font-size="18" transform="translate(1730 410)"><tspan x="0" y="9.5" unicode-bidi="plaintext">v=0</tspan></text><path fill="none" stroke="#1d1d1d" stroke-width="3" d="M1728.3 474.7q-1.4 1-1.8 1.5t-.7 1-.3 1 .3 1 .7.8 1.1.5 1.1.2.8-.3.5-.7.2-.9-.2-1-.7-1.4-1-1-.7-.8-.6-.3-.5 0-.6.2-.4.4-.2.7 0 .8.4.8 1 .8 1.2.4 1 .3 1 0 .6-.5.4-.8 0-1-.3-.9-.5-.7-.8-.5-.9-.3-1 0-1.1.2-.8.5-.4.5-.1.5 0 .6.7.7 1.3.8 1.1.5 1 .2.6 0 .4-.8.2-1 0-1-.3-.8-.6-.6-.9-.5-.8-.2-.9.2-.7.4-.6.7-.5 1-.2 1.1 0 1.2.4 1.2.7 1 .8.5 1 .3 1 0 1-.3 1-.6.6-.8.3-.9.1-1-.2-1-.5-.8-.8-.7-.9-.5-.9-.3-.7 0-.6.1-.7.6-.7 1-.5 1.3-.3 1-.2.6.1.6.8.6 1.4.7 1.7.3 1.5.3 1 0 .7 0 .4-.2.2-.1.1-.4-.1-1.2-.4-1.4-.4-1-.2-.9-.3-.8-.4-.9-.4-.7-.4-.7-.5-.6-.4-.3-.3-.3-.5 0-.6-.1-.6.1-.6.3-.4.4-.5.3-.5.5-.7.5-.5.7-.5.7-.4.6-.2.6 0 .5 0 .4 0 .4.3.5.3.5.3.6.4.5.5.5.5.4.7.4.5.2.5.2.4 0 .6.1.5 0 .5 0 .5-.2.4-.1.3-.3.2-.2.3-.3.2-.4.2-.5.3-.4.2-.3.2-.3.1-.4.1-.4 0-.4 0-.3 0-.3 0-.4 0-.4-.1-.3-.2-.3-.2-.3-.2-.3-.3-.3-.3-.3-.2-.2-.3-.3-.2-.2-.3-.1-.2-.2-.3-.1-.2 0 0-.1.3-.1.6-.2.5 0 .3-.2.3 0 .3.2.5.3.5.4.4.5.4.4.2.5.2.7.1.7.2.6 0 .7.1.6 0 .6 0 .4 0 .5-.1.4-.3.3-.3.2-.3.3-.3.2-.3 0-.3.2-.5 0-.5 0-.9 0h-.5" opacity="0.8"/><text fill="#f9fafb" stroke="#f9fafb" stroke-width="2" alignment-baseline="mathematical" dominant-baseline="mathematical" font-family="'tldraw_draw', sans-serif" font-size="18" transform="translate(1670 380)"><tspan x="0" y="9.5" unicode-bidi="plaintext">O</tspan></text><text fill="#1d1d1d" alignment-baseline="mathematical" dominant-baseline="mathematical" font-family="'tldraw_draw', sans-serif" font-size="18" transform="translate(1670 380)"><tspan x="0" y="9.5" unicode-bidi="plaintext">O</tspan></text><text fill="#f9fafb" stroke="#f9fafb" stroke-width="2" alignment-baseline="mathematical" dominant-baseline="mathematical" font-family="'tldraw_draw', sans-serif" font-size="18" transform="translate(1680 490)"><tspan x="0" y="9.5" unicode-bidi="plaintext">A</tspan></text><text fill="#1d1d1d" alignment-baseline="mathematical" dominant-baseline="mathematical" font-family="'tldraw_draw', sans-serif" font-size="18" transform="translate(1680 490)"><tspan x="0" y="9.5" unicode-bidi="plaintext">A</tspan></text><text fill="#f9fafb" stroke="#f9fafb" stroke-width="2" alignment-baseline="mathematical" dominant-baseline="mathematical" font-family="'tldraw_draw', sans-serif" font-size="18" transform="translate(1770 430)"><tspan x="0" y="9.5" unicode-bidi="plaintext">B</tspan></text><text fill="#1d1d1d" alignment-baseline="mathematical" dominant-baseline="mathematical" font-family="'tldraw_draw', sans-serif" font-size="18" transform="translate(1770 430)"><tspan x="0" y="9.5" unicode-bidi="plaintext">B</tspan></text><text fill="#f9fafb" stroke="#f9fafb" stroke-width="2" alignment-baseline="mathematical" dominant-baseline="mathematical" font-family="'tldraw_draw', sans-serif" font-size="18" transform="translate(1730 480)"><tspan x="0" y="9.5" unicode-bidi="plaintext">C</tspan></text><text fill="#1d1d1d" alignment-baseline="mathematical" dominant-baseline="mathematical" font-family="'tldraw_draw', sans-serif" font-size="18" transform="translate(1730 480)"><tspan x="0" y="9.5" unicode-bidi="plaintext">C</tspan></text><g transform="translate(1570 490)"><defs><clipPath id="i"><path d="M-100-100h420v201h-420Z"/></clipPath></defs><g fill="none" stroke="#1d1d1d" stroke-width="3.5" pointer-events="none"><path stroke-dashoffset="none" d="M0 0h220" style="clip-path:url(#i)"/><path d="m211-5.2 9 5.2-9 5.2"/></g></g><g transform="translate(1570 310)"><defs><clipPath id="j"><path d="M-100-100h420v201h-420Z"/></clipPath></defs><g fill="none" stroke="#1d1d1d" stroke-width="3.5" pointer-events="none"><path stroke-dashoffset="none" d="M0 0h220" style="clip-path:url(#j)"/><path d="m211-5.2 9 5.2-9 5.2"/></g></g></svg>