<svg stroke-linecap="round" stroke-linejoin="round" class="tl-container tl-theme__force-sRGB tl-theme__light" data-color-mode="light" style="background-color:#f9fafb" viewBox="1788 248 1004 304"><g transform="translate(1820 280)"><defs><clipPath id="a"><path d="M-100-100h520v201h-520Z"/></clipPath></defs><g fill="none" stroke="#1d1d1d" stroke-width="3.5" pointer-events="none"><path stroke-dashoffset="none" d="M0 0h320" style="clip-path:url(#a)"/><path d="m311-5.2 9 5.2-9 5.2"/></g></g><g transform="translate(1820 320)"><defs><clipPath id="b"><path d="M-100-100h520v201h-520Z"/></clipPath></defs><g fill="none" stroke="#1d1d1d" stroke-width="3.5" pointer-events="none"><path stroke-dashoffset="none" d="M0 0h320" style="clip-path:url(#b)"/><path d="m311-5.2 9 5.2-9 5.2"/></g></g><g transform="translate(1820 360)"><defs><clipPath id="c"><path d="M-100-100h520v201h-520Z"/></clipPath></defs><g fill="none" stroke="#1d1d1d" stroke-width="3.5" pointer-events="none"><path stroke-dashoffset="none" d="M0 0h320" style="clip-path:url(#c)"/><path d="m311-5.2 9 5.2-9 5.2"/></g></g><g transform="translate(1820 400)"><defs><clipPath id="d"><path d="M-100-100h520v201h-520Z"/></clipPath></defs><g fill="none" stroke="#1d1d1d" stroke-width="3.5" pointer-events="none"><path stroke-dashoffset="none" d="M0 0h320" style="clip-path:url(#d)"/><path d="m311-5.2 9 5.2-9 5.2"/></g></g><g transform="translate(1820 440)"><defs><clipPath id="e"><path d="M-100-100h520v201h-520Z"/></clipPath></defs><g fill="none" stroke="#1d1d1d" stroke-width="3.5" pointer-events="none"><path stroke-dashoffset="none" d="M0 0h320" style="clip-path:url(#e)"/><path d="m311-5.2 9 5.2-9 5.2"/></g></g><g transform="translate(1820 480)"><defs><clipPath id="f"><path d="M-100-100h520v201h-520Z"/></clipPath></defs><g fill="none" stroke="#1d1d1d" stroke-width="3.5" pointer-events="none"><path stroke-dashoffset="none" d="M0 0h320" style="clip-path:url(#f)"/><path d="m311-5.2 9 5.2-9 5.2"/></g></g><g transform="translate(1820 520)"><defs><clipPath id="g"><path d="M-100-100h520v201h-520Z"/></clipPath></defs><g fill="none" stroke="#1d1d1d" stroke-width="3.5" pointer-events="none"><path stroke-dashoffset="none" d="M0 0h320" style="clip-path:url(#g)"/><path d="m311-5.2 9 5.2-9 5.2"/></g></g><path fill="#fcfffe" d="M1880 300h200v200h-200Z"/><path fill="none" stroke="#1d1d1d" stroke-width="10" d="M1880 300h200v200h-200Z"/><path fill="none" stroke="#1d1d1d" stroke-width="2" d="M1850 300h20m-20 40h20m-20 40h20m-20 40h20m-20 40h20m-20 40h20m220 0h20m-10-10v20m-10-50h20m-10-10v20m-10-50h20m-10-10v20m-10-50h20m-10-10v20m-10-50h20m-10-10v20m-10-50h20m-10-10v20"/><path fill="#fcfffe" d="M2200 280h240v240h-240Z"/><path fill="none" stroke="#1d1d1d" stroke-width="10" d="M2200 280h240v240h-240Z"/><path fill="#fcfffe" d="M2520 280h240v240h-240Z"/><path fill="none" stroke="#1d1d1d" stroke-width="10" d="M2520 280h240v240h-240Z"/><path fill="none" stroke="#1d1d1d" stroke-width="2" d="M2440 450h80m-40 0v50m-30 0h60m-50 10h40m-30 10h20m-182-120a12 12 0 1 1 24 0 12 12 0 1 1-24 0m0 0h24"/><g opacity="0.8" transform="translate(2640 400)"><defs><clipPath id="h"><path d="M-220-220h320v320h-320Z"/></clipPath></defs><g fill="none" stroke="#e03131" stroke-width="3.5" pointer-events="none"><path stroke-dashoffset="none" d="m0 0-120-120" style="clip-path:url(#h)"/><path d="M-117.3-109.9-120-120l10.1 2.7"/></g></g><g opacity="0.8" transform="translate(2640 388)"><defs><clipPath id="i"><path d="M-100-208h201v320h-201Z"/></clipPath></defs><g fill="none" stroke="#e03131" stroke-width="3.5" pointer-events="none"><path stroke-dashoffset="none" d="M0 12v-120" style="clip-path:url(#i)"/><path d="m-5.2-99 5.2-9 5.2 9"/></g></g><g opacity="0.8" transform="translate(2640 400)"><defs><clipPath id="j"><path d="M-100-220h320v320h-320Z"/></clipPath></defs><g fill="none" stroke="#e03131" stroke-width="3.5" pointer-events="none"><path stroke-dashoffset="none" d="m0 0 120-120" style="clip-path:url(#j)"/><path d="M109.9-117.3 120-120l-2.7 10.1"/></g></g><g opacity="0.8" transform="translate(2640 400)"><defs><clipPath id="k"><path d="M-220-100h320v320h-320Z"/></clipPath></defs><g fill="none" stroke="#e03131" stroke-width="3.5" pointer-events="none"><path stroke-dashoffset="none" d="m0 0-120 120" style="clip-path:url(#k)"/><path d="M-109.9 117.3-120 120l2.7-10.1"/></g></g><g opacity="0.8" transform="translate(2640 400)"><defs><clipPath id="l"><path d="M-100-100h320v320h-320Z"/></clipPath></defs><g fill="none" stroke="#e03131" stroke-width="3.5" pointer-events="none"><path stroke-dashoffset="none" d="m0 0 120 120" style="clip-path:url(#l)"/><path d="M117.3 109.9 120 120l-10.1-2.7"/></g></g><g opacity="0.8" transform="translate(2640 400)"><defs><clipPath id="m"><path d="M-220-100h320v201h-320Z"/></clipPath></defs><g fill="none" stroke="#e03131" stroke-width="3.5" pointer-events="none"><path stroke-dashoffset="none" d="M0 0h-120" style="clip-path:url(#m)"/><path d="m-111 5.2-9-5.2 9-5.2"/></g></g><g opacity="0.8" transform="translate(2640 400)"><defs><clipPath id="n"><path d="M-100-100h201v320h-201Z"/></clipPath></defs><g fill="none" stroke="#e03131" stroke-width="3.5" pointer-events="none"><path stroke-dashoffset="none" d="M0 0v120" style="clip-path:url(#n)"/><path d="M5.2 111 0 120l-5.2-9"/></g></g><g opacity="0.8" transform="translate(2640 400)"><defs><clipPath id="o"><path d="M-100-100h320v201h-320Z"/></clipPath></defs><g fill="none" stroke="#e03131" stroke-width="3.5" pointer-events="none"><path stroke-dashoffset="none" d="M0 0h120" style="clip-path:url(#o)"/><path d="m111-5.2 9 5.2-9 5.2"/></g></g><path fill="#fcfffe" d="M2628 400a12 12 0 1 1 24 0 12 12 0 1 1-24 0"/><path fill="none" stroke="#1d1d1d" stroke-width="2" d="M2628 400a12 12 0 1 1 24 0 12 12 0 1 1-24 0m0 0h24m-12-12v24"/><g opacity="0.8" transform="translate(2200 520)"><defs><clipPath id="p"><path d="M-100-209.8h309.8V100H-100Z"/></clipPath></defs><g fill="none" stroke="#e03131" stroke-width="3.5" pointer-events="none"><path stroke-dashoffset="none" d="m0 0 109.8-109.8" style="clip-path:url(#p)"/><path d="m99.7-107.1 10.1-2.7-2.7 10.1"/></g></g><g opacity="0.8" transform="translate(2440 280)"><defs><clipPath id="q"><path d="M-209.8-100H100v309h-309.8Z"/></clipPath></defs><g fill="none" stroke="#e03131" stroke-width="3.5" pointer-events="none"><path stroke-dashoffset="none" d="m0 0-109.8 109" style="clip-path:url(#q)"/><path d="m-99.6 106.3-10.2 2.6 2.8-10"/></g></g><g opacity="0.8" transform="translate(2440 520)"><defs><clipPath id="r"><path d="M-209.8-209.7H100V100h-309.8Z"/></clipPath></defs><g fill="none" stroke="#e03131" stroke-width="3.5" pointer-events="none"><path stroke-dashoffset="none" d="m0 0-109.8-109.7" style="clip-path:url(#r)"/><path d="m-107-99.5-2.8-10.2 10.1 2.8"/></g></g><g opacity="0.8" transform="translate(2200 280)"><defs><clipPath id="s"><path d="M-100-100h309.8v309.3H-100Z"/></clipPath></defs><g fill="none" stroke="#e03131" stroke-width="3.5" pointer-events="none"><path stroke-dashoffset="none" d="m0 0 109.8 109.3" style="clip-path:url(#s)"/><path d="m107 99.2 2.8 10.1-10.2-2.7"/></g></g><g opacity="0.8" transform="translate(2440 400)"><defs><clipPath id="t"><path d="M-205.6-100H100v201h-305.6Z"/></clipPath></defs><g fill="none" stroke="#e03131" stroke-width="3.5" pointer-events="none"><path stroke-dashoffset="none" d="m0 0-105.6 1" style="clip-path:url(#t)"/><path d="m-96.5 6.1-9.1-5.1 9-5.4"/></g></g><g opacity="0.8" transform="translate(2200 400)"><defs><clipPath id="u"><path d="M-100-100h305.6v201H-100Z"/></clipPath></defs><g fill="none" stroke="#e03131" stroke-width="3.5" pointer-events="none"><path stroke-dashoffset="none" d="M0 0h105.6" style="clip-path:url(#u)"/><path d="m96.5-5.2 9.1 5.2-9 5.2"/></g></g><g opacity="0.8" transform="translate(2320 280)"><defs><clipPath id="v"><path d="M-100-100h201v305.7h-201Z"/></clipPath></defs><g fill="none" stroke="#e03131" stroke-width="3.5" pointer-events="none"><path stroke-dashoffset="none" d="M0 0v105.7" style="clip-path:url(#v)"/><path d="m5.2 96.6-5.2 9-5.2-9"/></g></g><g opacity="0.8" transform="translate(2320 520)"><defs><clipPath id="w"><path d="M-100-205.8h201V100h-201Z"/></clipPath></defs><g fill="none" stroke="#e03131" stroke-width="3.5" pointer-events="none"><path stroke-dashoffset="none" d="M0 0v-105.8" style="clip-path:url(#w)"/><path d="m-5.2-96.7 5.2-9 5.2 9"/></g></g></svg>