<svg xmlns="http://www.w3.org/2000/svg" width="1004" height="304" stroke-linecap="round" stroke-linejoin="round" class="tl-container tl-theme__force-sRGB tl-theme__light" data-color-mode="light" viewBox="1788 248 1004 304" style="background-color:#f9fafb"><g transform="translate(1820 280)"><defs><clipPath id="b"><use href="#a"/></clipPath></defs><g fill="none" stroke="#1d1d1d" stroke-width="3.5" pointer-events="none"><g clip-path="url(#b)"><use stroke-dashoffset="none" href="#c"/></g><use href="#d"/></g></g><g transform="translate(1820 320)"><defs><clipPath id="e"><use href="#a"/></clipPath></defs><g fill="none" stroke="#1d1d1d" stroke-width="3.5" pointer-events="none"><g clip-path="url(#e)"><use stroke-dashoffset="none" href="#c"/></g><use href="#d"/></g></g><g transform="translate(1820 360)"><defs><clipPath id="f"><use href="#a"/></clipPath></defs><g fill="none" stroke="#1d1d1d" stroke-width="3.5" pointer-events="none"><g clip-path="url(#f)"><use stroke-dashoffset="none" href="#c"/></g><use href="#d"/></g></g><g transform="translate(1820 400)"><defs><clipPath id="g"><use href="#a"/></clipPath></defs><g fill="none" stroke="#1d1d1d" stroke-width="3.5" pointer-events="none"><g clip-path="url(#g)"><use stroke-dashoffset="none" href="#c"/></g><use href="#d"/></g></g><g transform="translate(1820 440)"><defs><clipPath id="h"><use href="#a"/></clipPath></defs><g fill="none" stroke="#1d1d1d" stroke-width="3.5" pointer-events="none"><g clip-path="url(#h)"><use stroke-dashoffset="none" href="#c"/></g><use href="#d"/></g></g><g transform="translate(1820 480)"><defs><clipPath id="i"><use href="#a"/></clipPath></defs><g fill="none" stroke="#1d1d1d" stroke-width="3.5" pointer-events="none"><g clip-path="url(#i)"><use stroke-dashoffset="none" href="#c"/></g><use href="#d"/></g></g><g transform="translate(1820 520)"><defs><clipPath id="j"><use href="#a"/></clipPath></defs><g fill="none" stroke="#1d1d1d" stroke-width="3.5" pointer-events="none"><g clip-path="url(#j)"><use stroke-dashoffset="none" href="#c"/></g><use href="#d"/></g></g><path fill="#fcfffe" d="M1880 300h200v200h-200Z"/><path fill="none" stroke="#1d1d1d" stroke-width="10" d="M1880 300h200v200h-200Z"/><path fill="none" stroke="#1d1d1d" stroke-width="2" d="M1850 300h20m-20 40h20m-20 40h20m-20 40h20m-20 40h20m-20 40h20m220 0h20m-10-10v20m-10-50h20m-10-10v20m-10-50h20m-10-10v20m-10-50h20m-10-10v20m-10-50h20m-10-10v20m-10-50h20m-10-10v20"/><path fill="#fcfffe" d="M2200 280h240v240h-240Z"/><path fill="none" stroke="#1d1d1d" stroke-width="10" d="M2200 280h240v240h-240Z"/><path fill="#fcfffe" d="M2520 280h240v240h-240Z"/><path fill="none" stroke="#1d1d1d" stroke-width="10" d="M2520 280h240v240h-240Z"/><path fill="none" stroke="#1d1d1d" stroke-width="2" d="M2440 450h80m-40 0v50m-30 0h60m-50 10h40m-30 10h20m-182-120a12 12 0 1 1 24 0 12 12 0 1 1-24 0m0 0h24"/><g transform="translate(2640 400)" opacity="0.75"><defs><clipPath id="k"><path d="M-220-220h320v320h-320Z"/></clipPath></defs><g fill="none" stroke="#e03131" stroke-width="3.5" pointer-events="none"><g clip-path="url(#k)"><path stroke-dashoffset="none" d="m0 0-120-120"/></g><path d="M-117.282-109.858-120-120l10.142 2.718"/></g></g><g transform="translate(2640 388)" opacity="0.75"><defs><clipPath id="l"><path d="M-100-208h201v320h-201Z"/></clipPath></defs><g fill="none" stroke="#e03131" stroke-width="3.5" pointer-events="none"><g clip-path="url(#l)"><path stroke-dashoffset="none" d="M0 12v-120"/></g><path d="M-5.25-98.907 0-108l5.25 9.093"/></g></g><g transform="translate(2640 400)" opacity="0.75"><defs><clipPath id="m"><path d="M-100-220h320v320h-320Z"/></clipPath></defs><g fill="none" stroke="#e03131" stroke-width="3.5" pointer-events="none"><g clip-path="url(#m)"><path stroke-dashoffset="none" d="m0 0 120-120"/></g><path d="M109.858-117.282 120-120l-2.718 10.142"/></g></g><g transform="translate(2640 400)" opacity="0.75"><defs><clipPath id="n"><path d="M-220-100h320v320h-320Z"/></clipPath></defs><g fill="none" stroke="#e03131" stroke-width="3.5" pointer-events="none"><g clip-path="url(#n)"><path stroke-dashoffset="none" d="m0 0-120 120"/></g><path d="M-109.858 117.282-120 120l2.718-10.142"/></g></g><g transform="translate(2640 400)" opacity="0.75"><defs><clipPath id="o"><path d="M-100-100h320v320h-320Z"/></clipPath></defs><g fill="none" stroke="#e03131" stroke-width="3.5" pointer-events="none"><g clip-path="url(#o)"><path stroke-dashoffset="none" d="m0 0 120 120"/></g><path d="M117.282 109.858 120 120l-10.142-2.718"/></g></g><g transform="translate(2640 400)" opacity="0.75"><defs><clipPath id="p"><path d="M-220-100h320v201h-320Z"/></clipPath></defs><g fill="none" stroke="#e03131" stroke-width="3.5" pointer-events="none"><g clip-path="url(#p)"><path stroke-dashoffset="none" d="M0 0h-120"/></g><path d="M-110.907 5.25-120 0l9.093-5.25"/></g></g><g transform="translate(2640 400)" opacity="0.75"><defs><clipPath id="q"><path d="M-100-100h201v320h-201Z"/></clipPath></defs><g fill="none" stroke="#e03131" stroke-width="3.5" pointer-events="none"><g clip-path="url(#q)"><path stroke-dashoffset="none" d="M0 0v120"/></g><path d="M5.25 110.907 0 120l-5.25-9.093"/></g></g><g transform="translate(2640 400)" opacity="0.75"><defs><clipPath id="r"><path d="M-100-100h320v201h-320Z"/></clipPath></defs><g fill="none" stroke="#e03131" stroke-width="3.5" pointer-events="none"><g clip-path="url(#r)"><path stroke-dashoffset="none" d="M0 0h120"/></g><path d="M110.907-5.25 120 0l-9.093 5.25"/></g></g><path fill="#fcfffe" d="M2628 400a12 12 0 1 1 24 0 12 12 0 1 1-24 0"/><path fill="none" stroke="#1d1d1d" stroke-width="2" d="M2628 400a12 12 0 1 1 24 0 12 12 0 1 1-24 0m0 0h24m-12-12v24"/><g transform="translate(2200 520)" opacity="0.75"><defs><clipPath id="s"><path d="M-100-209.818h309.818V100H-100Z"/></clipPath></defs><g fill="none" stroke="#e03131" stroke-width="3.5" pointer-events="none"><g clip-path="url(#s)"><path stroke-dashoffset="none" d="m0 0 109.818-109.818"/></g><path d="m99.675-107.1 10.143-2.718-2.718 10.143"/></g></g><g transform="translate(2440 280)" opacity="0.75"><defs><clipPath id="t"><path d="M-209.779-100H100v308.945h-309.779Z"/></clipPath></defs><g fill="none" stroke="#e03131" stroke-width="3.5" pointer-events="none"><g clip-path="url(#t)"><path stroke-dashoffset="none" d="m0 0-109.779 108.945"/></g><path d="m-99.626 106.266-10.153 2.68 2.756-10.132"/></g></g><g transform="translate(2440 520)" opacity="0.75"><defs><clipPath id="u"><path d="M-209.81-209.651H100V100h-309.81Z"/></clipPath></defs><g fill="none" stroke="#e03131" stroke-width="3.5" pointer-events="none"><g clip-path="url(#u)"><path stroke-dashoffset="none" d="m0 0-109.81-109.651"/></g><path d="m-107.085-99.511-2.725-10.14 10.144 2.71"/></g></g><g transform="translate(2200 280)" opacity="0.75"><defs><clipPath id="v"><path d="M-100-100h309.795v309.298H-100Z"/></clipPath></defs><g fill="none" stroke="#e03131" stroke-width="3.5" pointer-events="none"><g clip-path="url(#v)"><path stroke-dashoffset="none" d="m0 0 109.795 109.298"/></g><path d="m107.054 99.162 2.74 10.136-10.148-2.694"/></g></g><g transform="translate(2440 400)" opacity="0.75"><defs><clipPath id="w"><path d="M-205.6-100H100v201h-305.6Z"/></clipPath></defs><g fill="none" stroke="#e03131" stroke-width="3.5" pointer-events="none"><g clip-path="url(#w)"><path stroke-dashoffset="none" d="m0 0-105.6.973"/></g><path d="M-96.46 6.14-105.6.972l9.044-5.333"/></g></g><g transform="translate(2200 400)" opacity="0.75"><defs><clipPath id="x"><path d="M-100-100h305.6v201H-100Z"/></clipPath></defs><g fill="none" stroke="#e03131" stroke-width="3.5" pointer-events="none"><g clip-path="url(#x)"><path stroke-dashoffset="none" d="M0 0h105.6"/></g><path d="M96.507-5.25 105.6 0l-9.093 5.25"/></g></g><g transform="translate(2320 280)" opacity="0.75"><defs><clipPath id="y"><path d="M-100-100h201v305.674h-201Z"/></clipPath></defs><g fill="none" stroke="#e03131" stroke-width="3.5" pointer-events="none"><g clip-path="url(#y)"><path stroke-dashoffset="none" d="M0 0v105.674"/></g><path d="M5.25 96.58 0 105.675l-5.25-9.093"/></g></g><g transform="translate(2320 520)" opacity="0.75"><defs><clipPath id="z"><path d="M-100-205.795h201V100h-201Z"/></clipPath></defs><g fill="none" stroke="#e03131" stroke-width="3.5" pointer-events="none"><g clip-path="url(#z)"><path stroke-dashoffset="none" d="M0 0v-105.795"/></g><path d="M-5.25-96.702 0-105.795l5.25 9.093"/></g></g></svg>