<svg xmlns="http://www.w3.org/2000/svg" direction="ltr" width="1455.17946384077" height="364" viewBox="1566.82053615923 258 1455.17946384077 364" stroke-linecap="round" stroke-linejoin="round" data-color-mode="light" class="tl-container tl-theme__force-sRGB tl-theme__light" style="background-color: rgb(249, 250, 251);"><defs/><g transform="matrix(1, 0, 0, 1, 1598.8205, 319.4114)" opacity="1"><path d="M0,120.7344676865683 a120.58973192038509,120.7344676865683,0,1,1,241.17946384077018,0a120.58973192038509,120.7344676865683,0,1,1,-241.17946384077018,0 " stroke="#1d1d1d" stroke-width="10" fill="none"/></g><g transform="matrix(1, 0, 0, 1, 1960.0128, 319.5842)" opacity="1"><path d="M0,120.69437987999521 a120.12770227817357,120.69437987999521,0,1,1,240.25540455634714,0a120.12770227817357,120.69437987999521,0,1,1,-240.25540455634714,0 " stroke="#1d1d1d" stroke-width="10" fill="none"/></g><g transform="matrix(1, 0, 0, 1, 2560.2677, 439.8801)" opacity="1"><path d="M0, 0L39.85, 0" stroke="#1d1d1d" stroke-width="3.5" fill="none" transform="scale(1)"/></g><g transform="matrix(1, 0, 0, 1, 2600.1147, 439.8801)" opacity="1"><path d="M0, 0L0, 80.14" stroke="#1d1d1d" stroke-width="3.5" fill="none" transform="scale(1)"/></g><g transform="matrix(1, 0, 0, 1, 2590.153, 520.025)" opacity="1"><path d="M-19.92, 0L39.85, 0" stroke="#1d1d1d" stroke-width="3.5" fill="none" transform="scale(1)"/></g><g transform="matrix(1, 0, 0, 1, 2590.153, 530.0431)" opacity="1"><path d="M-9.96, 0L29.89, 0" stroke="#1d1d1d" stroke-width="3.5" fill="none" transform="scale(1)"/></g><g transform="matrix(1, 0, 0, 1, 2590.153, 540.0613)" opacity="1"><path d="M0, 0L19.92, 0" stroke="#1d1d1d" stroke-width="3.5" fill="none" transform="scale(1)"/></g><g transform="matrix(1, 0, 0, 1, 2070, 440)" opacity="1"><path d="M0, 0L20, 0" stroke="#1d1d1d" stroke-width="2" fill="none" transform="scale(1)"/></g><g transform="matrix(1, 0, 0, 1, 2080, 430)" opacity="1"><path d="M0, 0L0, 20" stroke="#1d1d1d" stroke-width="2" fill="none" transform="scale(1)"/></g><g transform="matrix(1, 0, 0, 1, 2070, 430)" opacity="1"><path d="M0,10 a10,10,0,1,1,20,0a10,10,0,1,1,-20,0 " stroke="#1d1d1d" stroke-width="2" fill="none"/></g><g transform="matrix(1, 0, 0, 1, 1870, 440)" opacity="1"><g transform="scale(1)"><defs><clipPath id="_export_8_r1a5__shape_AO9xM69S1YsBDMVxG7TEa_clip"><path d="M-100,-100 h240 v201 h-240 Z"/></clipPath></defs><g fill="none" stroke="#1d1d1d" stroke-width="3.5" stroke-linejoin="round" stroke-linecap="round" pointer-events="none"><g style="clip-path: url(&quot;#_export_8_r1a5__shape_AO9xM69S1YsBDMVxG7TEa_clip&quot;);"><rect x="-100" y="-100" width="240" height="201" opacity="0"/><path d="M0,0L40,0" stroke-dasharray="none" stroke-dashoffset="none"/></g><path d="M 33.07179676972449 -3.9999999999999996 L 40 0 L 33.07179676972449 3.9999999999999996"/></g></g></g><g transform="matrix(1, 0, 0, 1, 2070, 550)" opacity="1"><path d="M0, 0L20, 0" stroke="#1d1d1d" stroke-width="2" fill="none" transform="scale(1)"/></g><g transform="matrix(1, 0, 0, 1, 2070, 330)" opacity="1"><path d="M0, 0L20, 0" stroke="#1d1d1d" stroke-width="2" fill="none" transform="scale(1)"/></g><g transform="matrix(1, 0, 0, 1, 2110, 340)" opacity="1"><path d="M0, 0L20, 0" stroke="#1d1d1d" stroke-width="2" fill="none" transform="scale(1)"/></g><g transform="matrix(1, 0, 0, 1, 2140, 360)" opacity="1"><path d="M-10, 0L10, 0" stroke="#1d1d1d" stroke-width="2" fill="none" transform="scale(1)"/></g><g transform="matrix(1, 0, 0, 1, 2110, 540)" opacity="1"><path d="M0, 0L20, 0" stroke="#1d1d1d" stroke-width="2" fill="none" transform="scale(1)"/></g><g transform="matrix(1, 0, 0, 1, 2140, 520)" opacity="1"><path d="M-10, 0L10, 0" stroke="#1d1d1d" stroke-width="2" fill="none" transform="scale(1)"/></g><g transform="matrix(1, 0, 0, 1, 2150, 500)" opacity="1"><path d="M0, 0L20, 0" stroke="#1d1d1d" stroke-width="2" fill="none" transform="scale(1)"/></g><g transform="matrix(1, 0, 0, 1, 2160, 480)" opacity="1"><path d="M0, 0L20, 0" stroke="#1d1d1d" stroke-width="2" fill="none" transform="scale(1)"/></g><g transform="matrix(1, 0, 0, 1, 2170, 460)" opacity="1"><path d="M0, 0L20, 0" stroke="#1d1d1d" stroke-width="2" fill="none" transform="scale(1)"/></g><g transform="matrix(1, 0, 0, 1, 2170, 440)" opacity="1"><path d="M0, 0L20, 0" stroke="#1d1d1d" stroke-width="2" fill="none" transform="scale(1)"/></g><g transform="matrix(1, 0, 0, 1, 2170, 420)" opacity="1"><path d="M0, 0L20, 0" stroke="#1d1d1d" stroke-width="2" fill="none" transform="scale(1)"/></g><g transform="matrix(1, 0, 0, 1, 2160, 400)" opacity="1"><path d="M0, 0L20, 0" stroke="#1d1d1d" stroke-width="2" fill="none" transform="scale(1)"/></g><g transform="matrix(1, 0, 0, 1, 2150, 380)" opacity="1"><path d="M0, 0L20, 0" stroke="#1d1d1d" stroke-width="2" fill="none" transform="scale(1)"/></g><g transform="matrix(1, 0, 0, 1, 2040, 540)" opacity="1"><path d="M0, 0L20, 0" stroke="#1d1d1d" stroke-width="2" fill="none" transform="scale(1)"/></g><g transform="matrix(1, 0, 0, 1, 2010, 520)" opacity="1"><path d="M0, 0L20, 0" stroke="#1d1d1d" stroke-width="2" fill="none" transform="scale(1)"/></g><g transform="matrix(1, 0, 0, 1, 1990, 500)" opacity="1"><path d="M0, 0L20, 0" stroke="#1d1d1d" stroke-width="2" fill="none" transform="scale(1)"/></g><g transform="matrix(1, 0, 0, 1, 1980, 480)" opacity="1"><path d="M0, 0L20, 0" stroke="#1d1d1d" stroke-width="2" fill="none" transform="scale(1)"/></g><g transform="matrix(1, 0, 0, 1, 1970, 460)" opacity="1"><path d="M0, 0L20, 0" stroke="#1d1d1d" stroke-width="2" fill="none" transform="scale(1)"/></g><g transform="matrix(1, 0, 0, 1, 1970, 440)" opacity="1"><path d="M0, 0L20, 0" stroke="#1d1d1d" stroke-width="2" fill="none" transform="scale(1)"/></g><g transform="matrix(1, 0, 0, 1, 1970, 420)" opacity="1"><path d="M0, 0L20, 0" stroke="#1d1d1d" stroke-width="2" fill="none" transform="scale(1)"/></g><g transform="matrix(1, 0, 0, 1, 1980, 400)" opacity="1"><path d="M0, 0L20, 0" stroke="#1d1d1d" stroke-width="2" fill="none" transform="scale(1)"/></g><g transform="matrix(1, 0, 0, 1, 1990, 380)" opacity="1"><path d="M0, 0L20, 0" stroke="#1d1d1d" stroke-width="2" fill="none" transform="scale(1)"/></g><g transform="matrix(1, 0, 0, 1, 2010, 360)" opacity="1"><path d="M0, 0L20, 0" stroke="#1d1d1d" stroke-width="2" fill="none" transform="scale(1)"/></g><g transform="matrix(1, 0, 0, 1, 2040, 340)" opacity="1"><path d="M0, 0L20, 0" stroke="#1d1d1d" stroke-width="2" fill="none" transform="scale(1)"/></g><g transform="matrix(1, 0, 0, 1, 2070, 300)" opacity="1"><path d="M0, 0L20, 0" stroke="#1d1d1d" stroke-width="2" fill="none" transform="scale(1)"/></g><g transform="matrix(1, 0, 0, 1, 2080, 290)" opacity="1"><path d="M0, 0L0, 20" stroke="#1d1d1d" stroke-width="2" fill="none" transform="scale(1)"/></g><g transform="matrix(1, 0, 0, 1, 2070, 580)" opacity="1"><path d="M0, 0L20, 0" stroke="#1d1d1d" stroke-width="2" fill="none" transform="scale(1)"/></g><g transform="matrix(1, 0, 0, 1, 2080, 570)" opacity="1"><path d="M0, 0L0, 20" stroke="#1d1d1d" stroke-width="2" fill="none" transform="scale(1)"/></g><g transform="matrix(1, 0, 0, 1, 1930, 440)" opacity="1"><path d="M0, 0L20, 0" stroke="#1d1d1d" stroke-width="2" fill="none" transform="scale(1)"/></g><g transform="matrix(1, 0, 0, 1, 1940, 430)" opacity="1"><path d="M0, 0L0, 20" stroke="#1d1d1d" stroke-width="2" fill="none" transform="scale(1)"/></g><g transform="matrix(1, 0, 0, 1, 2210, 440)" opacity="1"><path d="M0, 0L20, 0" stroke="#1d1d1d" stroke-width="2" fill="none" transform="scale(1)"/></g><g transform="matrix(1, 0, 0, 1, 2220, 430)" opacity="1"><path d="M0, 0L0, 20" stroke="#1d1d1d" stroke-width="2" fill="none" transform="scale(1)"/></g><g transform="matrix(1, 0, 0, 1, 2120, 310)" opacity="1"><path d="M0, 0L20, 0" stroke="#1d1d1d" stroke-width="2" fill="none" transform="scale(1)"/></g><g transform="matrix(1, 0, 0, 1, 2130, 300)" opacity="1"><path d="M0, 0L0, 20" stroke="#1d1d1d" stroke-width="2" fill="none" transform="scale(1)"/></g><g transform="matrix(1, 0, 0, 1, 2020, 310)" opacity="1"><path d="M0, 0L20, 0" stroke="#1d1d1d" stroke-width="2" fill="none" transform="scale(1)"/></g><g transform="matrix(1, 0, 0, 1, 2030, 300)" opacity="1"><path d="M0, 0L0, 20" stroke="#1d1d1d" stroke-width="2" fill="none" transform="scale(1)"/></g><g transform="matrix(1, 0, 0, 1, 1980, 330)" opacity="1"><path d="M0, 0L20, 0" stroke="#1d1d1d" stroke-width="2" fill="none" transform="scale(1)"/></g><g transform="matrix(1, 0, 0, 1, 1990, 320)" opacity="1"><path d="M0, 0L0, 20" stroke="#1d1d1d" stroke-width="2" fill="none" transform="scale(1)"/></g><g transform="matrix(1, 0, 0, 1, 2160, 330)" opacity="1"><path d="M0, 0L20, 0" stroke="#1d1d1d" stroke-width="2" fill="none" transform="scale(1)"/></g><g transform="matrix(1, 0, 0, 1, 2170, 320)" opacity="1"><path d="M0, 0L0, 20" stroke="#1d1d1d" stroke-width="2" fill="none" transform="scale(1)"/></g><g transform="matrix(1, 0, 0, 1, 1950, 360)" opacity="1"><path d="M0, 0L20, 0" stroke="#1d1d1d" stroke-width="2" fill="none" transform="scale(1)"/></g><g transform="matrix(1, 0, 0, 1, 1960, 350)" opacity="1"><path d="M0, 0L0, 20" stroke="#1d1d1d" stroke-width="2" fill="none" transform="scale(1)"/></g><g transform="matrix(1, 0, 0, 1, 2190, 360)" opacity="1"><path d="M0, 0L20, 0" stroke="#1d1d1d" stroke-width="2" fill="none" transform="scale(1)"/></g><g transform="matrix(1, 0, 0, 1, 2200, 350)" opacity="1"><path d="M0, 0L0, 20" stroke="#1d1d1d" stroke-width="2" fill="none" transform="scale(1)"/></g><g transform="matrix(1, 0, 0, 1, 1930, 400)" opacity="1"><path d="M0, 0L20, 0" stroke="#1d1d1d" stroke-width="2" fill="none" transform="scale(1)"/></g><g transform="matrix(1, 0, 0, 1, 1940, 390)" opacity="1"><path d="M0, 0L0, 20" stroke="#1d1d1d" stroke-width="2" fill="none" transform="scale(1)"/></g><g transform="matrix(1, 0, 0, 1, 2210, 400)" opacity="1"><path d="M0, 0L20, 0" stroke="#1d1d1d" stroke-width="2" fill="none" transform="scale(1)"/></g><g transform="matrix(1, 0, 0, 1, 2220, 390)" opacity="1"><path d="M0, 0L0, 20" stroke="#1d1d1d" stroke-width="2" fill="none" transform="scale(1)"/></g><g transform="matrix(1, 0, 0, 1, 1930, 480)" opacity="1"><path d="M0, 0L20, 0" stroke="#1d1d1d" stroke-width="2" fill="none" transform="scale(1)"/></g><g transform="matrix(1, 0, 0, 1, 1940, 470)" opacity="1"><path d="M0, 0L0, 20" stroke="#1d1d1d" stroke-width="2" fill="none" transform="scale(1)"/></g><g transform="matrix(1, 0, 0, 1, 2210, 480)" opacity="1"><path d="M0, 0L20, 0" stroke="#1d1d1d" stroke-width="2" fill="none" transform="scale(1)"/></g><g transform="matrix(1, 0, 0, 1, 2220, 470)" opacity="1"><path d="M0, 0L0, 20" stroke="#1d1d1d" stroke-width="2" fill="none" transform="scale(1)"/></g><g transform="matrix(1, 0, 0, 1, 1950, 510)" opacity="1"><path d="M0, 0L20, 0" stroke="#1d1d1d" stroke-width="2" fill="none" transform="scale(1)"/></g><g transform="matrix(1, 0, 0, 1, 1960, 500)" opacity="1"><path d="M0, 0L0, 20" stroke="#1d1d1d" stroke-width="2" fill="none" transform="scale(1)"/></g><g transform="matrix(1, 0, 0, 1, 2190, 510)" opacity="1"><path d="M0, 0L20, 0" stroke="#1d1d1d" stroke-width="2" fill="none" transform="scale(1)"/></g><g transform="matrix(1, 0, 0, 1, 2200, 500)" opacity="1"><path d="M0, 0L0, 20" stroke="#1d1d1d" stroke-width="2" fill="none" transform="scale(1)"/></g><g transform="matrix(1, 0, 0, 1, 1980, 550)" opacity="1"><path d="M0, 0L20, 0" stroke="#1d1d1d" stroke-width="2" fill="none" transform="scale(1)"/></g><g transform="matrix(1, 0, 0, 1, 1990, 540)" opacity="1"><path d="M0, 0L0, 20" stroke="#1d1d1d" stroke-width="2" fill="none" transform="scale(1)"/></g><g transform="matrix(1, 0, 0, 1, 2160, 550)" opacity="1"><path d="M0, 0L20, 0" stroke="#1d1d1d" stroke-width="2" fill="none" transform="scale(1)"/></g><g transform="matrix(1, 0, 0, 1, 2170, 540)" opacity="1"><path d="M0, 0L0, 20" stroke="#1d1d1d" stroke-width="2" fill="none" transform="scale(1)"/></g><g transform="matrix(1, 0, 0, 1, 2020, 570)" opacity="1"><path d="M0, 0L20, 0" stroke="#1d1d1d" stroke-width="2" fill="none" transform="scale(1)"/></g><g transform="matrix(1, 0, 0, 1, 2030, 560)" opacity="1"><path d="M0, 0L0, 20" stroke="#1d1d1d" stroke-width="2" fill="none" transform="scale(1)"/></g><g transform="matrix(1, 0, 0, 1, 2130, 570)" opacity="1"><path d="M-10, 0L10, 0" stroke="#1d1d1d" stroke-width="2" fill="none" transform="scale(1)"/></g><g transform="matrix(1, 0, 0, 1, 2140, 560)" opacity="1"><path d="M-10, 0L-10, 20" stroke="#1d1d1d" stroke-width="2" fill="none" transform="scale(1)"/></g><g transform="matrix(1, 0, 0, 1, 2320.0128, 319.5842)" opacity="1"><path d="M0,120.69437987999521 a120.12770227817357,120.69437987999521,0,1,1,240.25540455634714,0a120.12770227817357,120.69437987999521,0,1,1,-240.25540455634714,0 " stroke="#1d1d1d" stroke-width="10" fill="none"/></g><g transform="matrix(1, 0, 0, 1, 2430, 440)" opacity="1"><path d="M0, 0L20, 0" stroke="#1d1d1d" stroke-width="2" fill="none" transform="scale(1)"/></g><g transform="matrix(1, 0, 0, 1, 2440, 430)" opacity="1"><path d="M0, 0L0, 20" stroke="#1d1d1d" stroke-width="2" fill="none" transform="scale(1)"/></g><g transform="matrix(1, 0, 0, 1, 2430, 430)" opacity="1"><path d="M0,10 a10,10,0,1,1,20,0a10,10,0,1,1,-20,0 " stroke="#1d1d1d" stroke-width="2" fill="none"/></g><g transform="matrix(1, 0, 0, 1, 2430, 550)" opacity="1"><path d="M0, 0L20, 0" stroke="#1d1d1d" stroke-width="2" fill="none" transform="scale(1)"/></g><g transform="matrix(1, 0, 0, 1, 2430, 330)" opacity="1"><path d="M0, 0L20, 0" stroke="#1d1d1d" stroke-width="2" fill="none" transform="scale(1)"/></g><g transform="matrix(1, 0, 0, 1, 2470, 340)" opacity="1"><path d="M0, 0L20, 0" stroke="#1d1d1d" stroke-width="2" fill="none" transform="scale(1)"/></g><g transform="matrix(1, 0, 0, 1, 2500, 360)" opacity="1"><path d="M-10, 0L10, 0" stroke="#1d1d1d" stroke-width="2" fill="none" transform="scale(1)"/></g><g transform="matrix(1, 0, 0, 1, 2470, 540)" opacity="1"><path d="M0, 0L20, 0" stroke="#1d1d1d" stroke-width="2" fill="none" transform="scale(1)"/></g><g transform="matrix(1, 0, 0, 1, 2500, 520)" opacity="1"><path d="M-10, 0L10, 0" stroke="#1d1d1d" stroke-width="2" fill="none" transform="scale(1)"/></g><g transform="matrix(1, 0, 0, 1, 2510, 500)" opacity="1"><path d="M0, 0L20, 0" stroke="#1d1d1d" stroke-width="2" fill="none" transform="scale(1)"/></g><g transform="matrix(1, 0, 0, 1, 2520, 480)" opacity="1"><path d="M0, 0L20, 0" stroke="#1d1d1d" stroke-width="2" fill="none" transform="scale(1)"/></g><g transform="matrix(1, 0, 0, 1, 2530, 460)" opacity="1"><path d="M0, 0L20, 0" stroke="#1d1d1d" stroke-width="2" fill="none" transform="scale(1)"/></g><g transform="matrix(1, 0, 0, 1, 2530, 440)" opacity="1"><path d="M0, 0L20, 0" stroke="#1d1d1d" stroke-width="2" fill="none" transform="scale(1)"/></g><g transform="matrix(1, 0, 0, 1, 2530, 420)" opacity="1"><path d="M0, 0L20, 0" stroke="#1d1d1d" stroke-width="2" fill="none" transform="scale(1)"/></g><g transform="matrix(1, 0, 0, 1, 2520, 400)" opacity="1"><path d="M0, 0L20, 0" stroke="#1d1d1d" stroke-width="2" fill="none" transform="scale(1)"/></g><g transform="matrix(1, 0, 0, 1, 2510, 380)" opacity="1"><path d="M0, 0L20, 0" stroke="#1d1d1d" stroke-width="2" fill="none" transform="scale(1)"/></g><g transform="matrix(1, 0, 0, 1, 2400, 540)" opacity="1"><path d="M0, 0L20, 0" stroke="#1d1d1d" stroke-width="2" fill="none" transform="scale(1)"/></g><g transform="matrix(1, 0, 0, 1, 2370, 520)" opacity="1"><path d="M0, 0L20, 0" stroke="#1d1d1d" stroke-width="2" fill="none" transform="scale(1)"/></g><g transform="matrix(1, 0, 0, 1, 2350, 500)" opacity="1"><path d="M0, 0L20, 0" stroke="#1d1d1d" stroke-width="2" fill="none" transform="scale(1)"/></g><g transform="matrix(1, 0, 0, 1, 2340, 480)" opacity="1"><path d="M0, 0L20, 0" stroke="#1d1d1d" stroke-width="2" fill="none" transform="scale(1)"/></g><g transform="matrix(1, 0, 0, 1, 2330, 460)" opacity="1"><path d="M0, 0L20, 0" stroke="#1d1d1d" stroke-width="2" fill="none" transform="scale(1)"/></g><g transform="matrix(1, 0, 0, 1, 2330, 440)" opacity="1"><path d="M0, 0L20, 0" stroke="#1d1d1d" stroke-width="2" fill="none" transform="scale(1)"/></g><g transform="matrix(1, 0, 0, 1, 2330, 420)" opacity="1"><path d="M0, 0L20, 0" stroke="#1d1d1d" stroke-width="2" fill="none" transform="scale(1)"/></g><g transform="matrix(1, 0, 0, 1, 2340, 400)" opacity="1"><path d="M0, 0L20, 0" stroke="#1d1d1d" stroke-width="2" fill="none" transform="scale(1)"/></g><g transform="matrix(1, 0, 0, 1, 2350, 380)" opacity="1"><path d="M0, 0L20, 0" stroke="#1d1d1d" stroke-width="2" fill="none" transform="scale(1)"/></g><g transform="matrix(1, 0, 0, 1, 2370, 360)" opacity="1"><path d="M0, 0L20, 0" stroke="#1d1d1d" stroke-width="2" fill="none" transform="scale(1)"/></g><g transform="matrix(1, 0, 0, 1, 2400, 340)" opacity="1"><path d="M0, 0L20, 0" stroke="#1d1d1d" stroke-width="2" fill="none" transform="scale(1)"/></g><g transform="matrix(1, 0, 0, 1, 2720.0128, 319.5842)" opacity="1"><path d="M0,120.69437987999521 a120.12770227817357,120.69437987999521,0,1,1,240.25540455634714,0a120.12770227817357,120.69437987999521,0,1,1,-240.25540455634714,0 " stroke="#1d1d1d" stroke-width="10" fill="none"/></g><g transform="matrix(1, 0, 0, 1, 2830, 300)" opacity="1"><path d="M0, 0L20, 0" stroke="#1d1d1d" stroke-width="2" fill="none" transform="scale(1)"/></g><g transform="matrix(1, 0, 0, 1, 2830, 580)" opacity="1"><path d="M0, 0L20, 0" stroke="#1d1d1d" stroke-width="2" fill="none" transform="scale(1)"/></g><g transform="matrix(1, 0, 0, 1, 2690, 440)" opacity="1"><path d="M0, 0L20, 0" stroke="#1d1d1d" stroke-width="2" fill="none" transform="scale(1)"/></g><g transform="matrix(1, 0, 0, 1, 2970, 440)" opacity="1"><path d="M0, 0L20, 0" stroke="#1d1d1d" stroke-width="2" fill="none" transform="scale(1)"/></g><g transform="matrix(1, 0, 0, 1, 2880, 310)" opacity="1"><path d="M0, 0L20, 0" stroke="#1d1d1d" stroke-width="2" fill="none" transform="scale(1)"/></g><g transform="matrix(1, 0, 0, 1, 2780, 310)" opacity="1"><path d="M0, 0L20, 0" stroke="#1d1d1d" stroke-width="2" fill="none" transform="scale(1)"/></g><g transform="matrix(1, 0, 0, 1, 2740, 330)" opacity="1"><path d="M0, 0L20, 0" stroke="#1d1d1d" stroke-width="2" fill="none" transform="scale(1)"/></g><g transform="matrix(1, 0, 0, 1, 2920, 330)" opacity="1"><path d="M0, 0L20, 0" stroke="#1d1d1d" stroke-width="2" fill="none" transform="scale(1)"/></g><g transform="matrix(1, 0, 0, 1, 2710, 360)" opacity="1"><path d="M0, 0L20, 0" stroke="#1d1d1d" stroke-width="2" fill="none" transform="scale(1)"/></g><g transform="matrix(1, 0, 0, 1, 2950, 360)" opacity="1"><path d="M0, 0L20, 0" stroke="#1d1d1d" stroke-width="2" fill="none" transform="scale(1)"/></g><g transform="matrix(1, 0, 0, 1, 2690, 400)" opacity="1"><path d="M0, 0L20, 0" stroke="#1d1d1d" stroke-width="2" fill="none" transform="scale(1)"/></g><g transform="matrix(1, 0, 0, 1, 2970, 400)" opacity="1"><path d="M0, 0L20, 0" stroke="#1d1d1d" stroke-width="2" fill="none" transform="scale(1)"/></g><g transform="matrix(1, 0, 0, 1, 2690, 480)" opacity="1"><path d="M0, 0L20, 0" stroke="#1d1d1d" stroke-width="2" fill="none" transform="scale(1)"/></g><g transform="matrix(1, 0, 0, 1, 2970, 480)" opacity="1"><path d="M0, 0L20, 0" stroke="#1d1d1d" stroke-width="2" fill="none" transform="scale(1)"/></g><g transform="matrix(1, 0, 0, 1, 2710, 510)" opacity="1"><path d="M0, 0L20, 0" stroke="#1d1d1d" stroke-width="2" fill="none" transform="scale(1)"/></g><g transform="matrix(1, 0, 0, 1, 2950, 510)" opacity="1"><path d="M0, 0L20, 0" stroke="#1d1d1d" stroke-width="2" fill="none" transform="scale(1)"/></g><g transform="matrix(1, 0, 0, 1, 2740, 550)" opacity="1"><path d="M0, 0L20, 0" stroke="#1d1d1d" stroke-width="2" fill="none" transform="scale(1)"/></g><g transform="matrix(1, 0, 0, 1, 2920, 550)" opacity="1"><path d="M0, 0L20, 0" stroke="#1d1d1d" stroke-width="2" fill="none" transform="scale(1)"/></g><g transform="matrix(1, 0, 0, 1, 2780, 570)" opacity="1"><path d="M0, 0L20, 0" stroke="#1d1d1d" stroke-width="2" fill="none" transform="scale(1)"/></g><g transform="matrix(1, 0, 0, 1, 2890, 570)" opacity="1"><path d="M-10, 0L10, 0" stroke="#1d1d1d" stroke-width="2" fill="none" transform="scale(1)"/></g><g transform="matrix(1, 0, 0, 1, 2250, 440)" opacity="1"><g transform="scale(1)"><defs><clipPath id="_export_8_r1a5__shape_0zBUWc-v2ql9JEkkOyX7h_clip"><path d="M-100,-100 h240 v201 h-240 Z"/></clipPath></defs><g fill="none" stroke="#1d1d1d" stroke-width="3.5" stroke-linejoin="round" stroke-linecap="round" pointer-events="none"><g style="clip-path: url(&quot;#_export_8_r1a5__shape_0zBUWc-v2ql9JEkkOyX7h_clip&quot;);"><rect x="-100" y="-100" width="240" height="201" opacity="0"/><path d="M0,0L40,0" stroke-dasharray="none" stroke-dashoffset="none"/></g><path d="M 33.07179676972449 -3.9999999999999996 L 40 0 L 33.07179676972449 3.9999999999999996"/></g></g></g><g transform="matrix(1, 0, 0, 1, 2630, 440)" opacity="1"><g transform="scale(1)"><defs><clipPath id="_export_8_r1a5__shape_VS1zdl2I_4dOwEsWpHVWS_clip"><path d="M-100,-100 h240 v201 h-240 Z"/></clipPath></defs><g fill="none" stroke="#1d1d1d" stroke-width="3.5" stroke-linejoin="round" stroke-linecap="round" pointer-events="none"><g style="clip-path: url(&quot;#_export_8_r1a5__shape_VS1zdl2I_4dOwEsWpHVWS_clip&quot;);"><rect x="-100" y="-100" width="240" height="201" opacity="0"/><path d="M0,0L40,0" stroke-dasharray="none" stroke-dashoffset="none"/></g><path d="M 33.07179676972449 -3.9999999999999996 L 40 0 L 33.07179676972449 3.9999999999999996"/></g></g></g></svg>