<svg version="1.1" xmlns="http://www.w3.org/2000/svg" xmlns:xlink="http://www.w3.org/1999/xlink" width="1040" height="855"><defs><clipPath id="BmidzWeJsRko"><path fill="none" stroke="none" d=" M 0 0 L 1040 0 L 1040 855 L 0 855 L 0 0 Z"/></clipPath></defs><g transform="scale(1,1)" clip-path="url(#BmidzWeJsRko)"><g><rect fill="rgb(255,255,255)" stroke="none" x="0" y="0" width="1040" height="855" fill-opacity="1"/><path fill="none" stroke="rgb(37,37,37)" paint-order="fill stroke markers" d=" M 426.5 2.5 L 426.5 855.5" stroke-opacity="1" stroke-miterlimit="10"/><path fill="none" stroke="rgb(37,37,37)" paint-order="fill stroke markers" d=" M 426.5 1.5 L 422.5 5.5" stroke-opacity="1" stroke-miterlimit="10"/><path fill="none" stroke="rgb(37,37,37)" paint-order="fill stroke markers" d=" M 426.5 1.5 L 430.5 5.5" stroke-opacity="1" stroke-miterlimit="10"/><path fill="none" stroke="rgb(37,37,37)" paint-order="fill stroke markers" d=" M 0.5 635.5 L 1038.5 635.5" stroke-opacity="1" stroke-miterlimit="10"/><path fill="none" stroke="rgb(37,37,37)" paint-order="fill stroke markers" d=" M 1039.5 635.5 L 1035.5 631.5" stroke-opacity="1" stroke-miterlimit="10"/><path fill="none" stroke="rgb(37,37,37)" paint-order="fill stroke markers" d=" M 1039.5 635.5 L 1035.5 639.5" stroke-opacity="1" stroke-miterlimit="10"/><path fill="none" stroke="rgb(37,37,37)" paint-order="fill stroke markers" d=" M 85.5 635.5 L 85.5 638.5" stroke-opacity="1" stroke-miterlimit="10"/><path fill="none" stroke="rgb(37,37,37)" paint-order="fill stroke markers" d=" M 170.5 635.5 L 170.5 638.5" stroke-opacity="1" stroke-miterlimit="10"/><path fill="none" stroke="rgb(37,37,37)" paint-order="fill stroke markers" d=" M 255.5 635.5 L 255.5 638.5" stroke-opacity="1" stroke-miterlimit="10"/><path fill="none" stroke="rgb(37,37,37)" paint-order="fill stroke markers" d=" M 341.5 635.5 L 341.5 638.5" stroke-opacity="1" stroke-miterlimit="10"/><path fill="none" stroke="rgb(37,37,37)" paint-order="fill stroke markers" d=" M 426.5 635.5 L 426.5 638.5" stroke-opacity="1" stroke-miterlimit="10"/><path fill="none" stroke="rgb(37,37,37)" paint-order="fill stroke markers" d=" M 511.5 635.5 L 511.5 638.5" stroke-opacity="1" stroke-miterlimit="10"/><path fill="none" stroke="rgb(37,37,37)" paint-order="fill stroke markers" d=" M 596.5 635.5 L 596.5 638.5" stroke-opacity="1" stroke-miterlimit="10"/><path fill="none" stroke="rgb(37,37,37)" paint-order="fill stroke markers" d=" M 682.5 635.5 L 682.5 638.5" stroke-opacity="1" stroke-miterlimit="10"/><path fill="none" stroke="rgb(37,37,37)" paint-order="fill stroke markers" d=" M 767.5 635.5 L 767.5 638.5" stroke-opacity="1" stroke-miterlimit="10"/><path fill="none" stroke="rgb(37,37,37)" paint-order="fill stroke markers" d=" M 852.5 635.5 L 852.5 638.5" stroke-opacity="1" stroke-miterlimit="10"/><path fill="none" stroke="rgb(37,37,37)" paint-order="fill stroke markers" d=" M 937.5 635.5 L 937.5 638.5" stroke-opacity="1" stroke-miterlimit="10"/><path fill="none" stroke="rgb(37,37,37)" paint-order="fill stroke markers" d=" M 1023.5 635.5 L 1023.5 638.5" stroke-opacity="1" stroke-miterlimit="10"/><path fill="none" stroke="rgb(37,37,37)" paint-order="fill stroke markers" d=" M 423.5 805.5 L 426.5 805.5" stroke-opacity="1" stroke-miterlimit="10"/><path fill="none" stroke="rgb(37,37,37)" paint-order="fill stroke markers" d=" M 423.5 720.5 L 426.5 720.5" stroke-opacity="1" stroke-miterlimit="10"/><path fill="none" stroke="rgb(37,37,37)" paint-order="fill stroke markers" d=" M 423.5 549.5 L 426.5 549.5" stroke-opacity="1" stroke-miterlimit="10"/><path fill="none" stroke="rgb(37,37,37)" paint-order="fill stroke markers" d=" M 423.5 464.5 L 426.5 464.5" stroke-opacity="1" stroke-miterlimit="10"/><path fill="none" stroke="rgb(37,37,37)" paint-order="fill stroke markers" d=" M 423.5 379.5 L 426.5 379.5" stroke-opacity="1" stroke-miterlimit="10"/><path fill="none" stroke="rgb(37,37,37)" paint-order="fill stroke markers" d=" M 423.5 293.5 L 426.5 293.5" stroke-opacity="1" stroke-miterlimit="10"/><path fill="none" stroke="rgb(37,37,37)" paint-order="fill stroke markers" d=" M 423.5 208.5 L 426.5 208.5" stroke-opacity="1" stroke-miterlimit="10"/><path fill="none" stroke="rgb(37,37,37)" paint-order="fill stroke markers" d=" M 423.5 123.5 L 426.5 123.5" stroke-opacity="1" stroke-miterlimit="10"/><path fill="none" stroke="rgb(37,37,37)" paint-order="fill stroke markers" d=" M 423.5 38.5 L 426.5 38.5" stroke-opacity="1" stroke-miterlimit="10"/><path fill="none" stroke="rgb(46,125,50)" paint-order="fill stroke markers" d=" M 1 737.3487807011984 L 1 737.5893762012292 L 1 737.5893762012292 L 2 737.8311057230992 L 2 737.8311057230992 L 3 738.0739773033888 L 3 738.0739773033888 L 4 738.3179990547967 L 4 738.3179990547967 L 4.999999999999943 738.5631791670428 L 4.999999999999943 738.5631791670428 L 5.999999999999943 738.8095259077841 L 5.999999999999943 738.8095259077841 L 7 739.0570476235449 L 7 739.0570476235449 L 8 739.3057527406588 L 8 739.3057527406588 L 9 739.5556497662249 L 9 739.5556497662249 L 10 739.8067472890782 L 10 739.8067472890782 L 11 740.0590539807732 L 11 740.0590539807732 L 11.999999999999943 740.3125785965824 L 11.999999999999943 740.3125785965824 L 12.999999999999943 740.5673299765091 L 12.999999999999943 740.5673299765091 L 13.999999999999943 740.8233170463144 L 13.999999999999943 740.8233170463144 L 15 741.0805488185603 L 15 741.0805488185603 L 16 741.3390343936668 L 16 741.3390343936668 L 17 741.598782960986 L 17 741.598782960986 L 18 741.85980379989 L 18 741.85980379989 L 19 742.1221062808766 L 19 742.1221062808766 L 19.999999999999943 742.3856998666906 L 19.999999999999943 742.3856998666906 L 20.999999999999943 742.6505941134616 L 20.999999999999943 742.6505941134616 L 21.999999999999943 742.9167986718587 L 21.999999999999943 742.9167986718587 L 23 743.1843232882629 L 23 743.1843232882629 L 24 743.4531778059566 L 24 743.4531778059566 L 25 743.7233721663298 L 25 743.7233721663298 L 26 743.9949164101072 L 26 743.9949164101072 L 27 744.2678206785907 L 27 744.2678206785907 L 27.999999999999943 744.5420952149224 L 27.999999999999943 744.5420952149224 L 28.999999999999943 744.8177503653659 L 28.999999999999943 744.8177503653659 L 29.999999999999943 745.0947965806077 L 29.999999999999943 745.0947965806077 L 31 745.3732444170778 L 31 745.3732444170778 L 32 745.65310453829 L 32 745.65310453829 L 33 745.9343877162039 L 33 745.9343877162039 L 34 746.2171048326065 L 34 746.2171048326065 L 35 746.501266880516 L 35 746.501266880516 L 35.99999999999994 746.7868849656062 L 35.99999999999994 746.7868849656062 L 36.99999999999994 747.0739703076531 L 36.99999999999994 747.0739703076531 L 38 747.362534242005 L 38 747.362534242005 L 39 747.6525882210736 L 39 747.6525882210736 L 40 747.9441438158493 L 40 747.9441438158493 L 41 748.23721271744 L 41 748.23721271744 L 42 748.5318067386338 L 42 748.5318067386338 L 42.99999999999994 748.8279378154862 L 42.99999999999994 748.8279378154862 L 43.99999999999994 749.125618008932 L 43.99999999999994 749.125618008932 L 44.99999999999994 749.4248595064231 L 44.99999999999994 749.4248595064231 L 46 749.7256746235914 L 46 749.7256746235914 L 47 750.0280758059387 L 47 750.0280758059387 L 48 750.3320756305529 L 48 750.3320756305529 L 49 750.6376868078517 L 49 750.6376868078517 L 50 750.944922183354 L 50 750.944922183354 L 50.99999999999994 751.2537947394802 L 50.99999999999994 751.2537947394802 L 51.99999999999994 751.5643175973803 L 51.99999999999994 751.5643175973803 L 52.99999999999994 751.8765040187919 L 52.99999999999994 751.8765040187919 L 54 752.1903674079289 L 54 752.1903674079289 L 55 752.5059213133989 L 55 752.5059213133989 L 56 752.8231794301538 L 56 752.8231794301538 L 57 753.1421556014704 L 57 753.1421556014704 L 58 753.4628638209645 L 58 753.4628638209645 L 58.99999999999994 753.7853182346364 L 58.99999999999994 753.7853182346364 L 59.99999999999994 754.1095331429519 L 59.99999999999994 754.1095331429519 L 60.99999999999994 754.4355230029556 L 60.99999999999994 754.4355230029556 L 62 754.76330243042 L 62 754.76330243042 L 63 755.0928862020304 L 63 755.0928862020304 L 64 755.4242892576046 L 64 755.4242892576046 L 65 755.7575267023509 L 65 755.7575267023509 L 66 756.0926138091633 L 66 756.0926138091633 L 66.99999999999994 756.4295660209541 L 66.99999999999994 756.4295660209541 L 67.99999999999994 756.7683989530273 L 67.99999999999994 756.7683989530273 L 68.99999999999994 757.10912839549 L 68.99999999999994 757.10912839549 L 70 757.4517703157057 L 70 757.4517703157057 L 71 757.796340860789 L 71 757.796340860789 L 72 758.142856360141 L 72 758.142856360141 L 73 758.49133332803 L 73 758.49133332803 L 73.99999999999994 758.8417884662147 L 73.99999999999994 758.8417884662147 L 74.99999999999994 759.1942386666124 L 74.99999999999994 759.1942386666124 L 75.99999999999994 759.548701014013 L 75.99999999999994 759.548701014013 L 77 759.90519278884 L 77 759.90519278884 L 78 760.2637314699588 L 78 760.2637314699588 L 79 760.6243347375325 L 79 760.6243347375325 L 80 760.9870204759296 L 80 760.9870204759296 L 81 761.3518067766794 L 81 761.3518067766794 L 81.99999999999994 761.7187119414808 L 81.99999999999994 761.7187119414808 L 82.99999999999994 762.0877544852634 L 82.99999999999994 762.0877544852634 L 83.99999999999994 762.4589531393015 L 83.99999999999994 762.4589531393015 L 85 762.8323268543833 L 85 762.8323268543833 L 86 763.2078948040364 L 86 763.2078948040364 L 87 763.5856763878096 L 87 763.5856763878096 L 88 763.9656912346135 L 88 763.9656912346135 L 89 764.3479592061196 L 89 764.3479592061196 L 89.99999999999994 764.7325004002215 L 89.99999999999994 764.7325004002215 L 90.99999999999994 765.1193351545568 L 90.99999999999994 765.1193351545568 L 91.99999999999994 765.5084840500925 L 91.99999999999994 765.5084840500925 L 93 765.8999679147754 L 93 765.8999679147754 L 94 766.2938078272476 L 94 766.2938078272476 L 95 766.6900251206305 L 95 766.6900251206305 L 96 767.0886413863758 L 96 767.0886413863758 L 97 767.4896784781885 L 97 767.4896784781885 L 97.99999999999994 767.8931585160203 L 97.99999999999994 767.8931585160203 L 98.99999999999994 768.2991038901368 L 98.99999999999994 768.2991038901368 L 99.99999999999994 768.7075372652592 L 99.99999999999994 768.7075372652592 L 101 769.1184815847827 L 101 769.1184815847827 L 102 769.5319600750722 L 102 769.5319600750722 L 103 769.9479962498394 L 103 769.9479962498394 L 104 770.3666139145988 L 104 770.3666139145988 L 104.99999999999994 770.7878371712095 L 104.99999999999994 770.7878371712095 L 105.99999999999994 771.2116904225004 L 105.99999999999994 771.2116904225004 L 106.99999999999994 771.6381983769829 L 106.99999999999994 771.6381983769829 L 107.99999999999994 772.0673860536526 L 107.99999999999994 772.0673860536526 L 109 772.4992787868812 L 109 772.4992787868812 L 110 772.9339022314012 L 110 772.9339022314012 L 111 773.3712823673873 L 111 773.3712823673873 L 112 773.8114455056311 L 112 773.8114455056311 L 112.99999999999994 774.2544182928194 L 112.99999999999994 774.2544182928194 L 113.99999999999994 774.7002277169095 L 113.99999999999994 774.7002277169095 L 114.99999999999994 775.1489011126116 L 114.99999999999994 775.1489011126116 L 116 775.6004661669749 L 116 775.6004661669749 L 117 776.0549509250837 L 117 776.0549509250837 L 118 776.512383795863 L 118 776.512383795863 L 119 776.9727935579981 L 119 776.9727935579981 L 120 777.4362093659704 L 120 777.4362093659704 L 120.99999999999994 777.9026607562112 L 120.99999999999994 777.9026607562112 L 121.99999999999994 778.3721776533771 L 121.99999999999994 778.3721776533771 L 122.99999999999994 778.8447903767496 L 122.99999999999994 778.8447903767496 L 124 779.320529646762 L 124 779.320529646762 L 125 779.7994265916551 L 125 779.7994265916551 L 126 780.2815127542676 L 126 780.2815127542676 L 127 780.7668200989613 L 127 780.7668200989613 L 128 781.2553810186855 L 128 781.2553810186855 L 128.99999999999994 781.7472283421855 L 128.99999999999994 781.7472283421855 L 129.99999999999994 782.2423953413554 L 129.99999999999994 782.2423953413554 L 130.99999999999994 782.7409157387406 L 130.99999999999994 782.7409157387406 L 132 783.2428237151939 L 132 783.2428237151939 L 133 783.7481539176883 L 133 783.7481539176883 L 134 784.2569414672889 L 134 784.2569414672889 L 135 784.76922196729 L 135 784.76922196729 L 136 785.2850315115205 L 136 785.2850315115205 L 136.99999999999994 785.8044066928209 L 136.99999999999994 785.8044066928209 L 137.99999999999994 786.327384611697 L 137.99999999999994 786.327384611697 L 138.99999999999994 786.8540028851547 L 138.99999999999994 786.8540028851547 L 140 787.3842996557189 L 140 787.3842996557189 L 141 787.9183136006434 L 141 787.9183136006434 L 142 788.4560839413139 L 142 788.4560839413139 L 143 788.9976504528507 L 143 788.9976504528507 L 143.99999999999994 789.5430534739164 L 143.99999999999994 789.5430534739164 L 144.99999999999994 790.0923339167305 L 144.99999999999994 790.0923339167305 L 145.99999999999994 790.6455332773004 L 145.99999999999994 790.6455332773004 L 146.99999999999994 791.2026936458718 L 146.99999999999994 791.2026936458718 L 148 791.7638577176035 L 148 791.7638577176035 L 149 792.3290688034735 L 149 792.3290688034735 L 150 792.8983708414232 L 150 792.8983708414232 L 151 793.471808407742 L 151 793.471808407742 L 151.99999999999994 794.0494267287035 L 151.99999999999994 794.0494267287035 L 152.99999999999994 794.631271692455 L 152.99999999999994 794.631271692455 L 153.99999999999994 795.2173898611705 L 153.99999999999994 795.2173898611705 L 155 795.8078284834719 L 155 795.8078284834719 L 156 796.4026355071248 L 156 796.4026355071248 L 157 797.0018595920196 L 157 797.0018595920196 L 158 797.6055501234407 L 158 797.6055501234407 L 159 798.2137572256338 L 159 798.2137572256338 L 159.99999999999994 798.8265317756806 L 159.99999999999994 798.8265317756806 L 160.99999999999994 799.4439254176847 L 160.99999999999994 799.4439254176847 L 161.99999999999994 800.0659905772816 L 161.99999999999994 800.0659905772816 L 163 800.6927804764783 L 163 800.6927804764783 L 164 801.3243491488325 L 164 801.3243491488325 L 165 801.9607514549803 L 165 801.9607514549803 L 166 802.6020430985219 L 166 802.6020430985219 L 167 803.248280642275 L 167 803.248280642275 L 167.99999999999994 803.8995215249053 L 167.99999999999994 803.8995215249053 L 168.99999999999994 804.5558240779449 L 168.99999999999994 804.5558240779449 L 169.99999999999994 805.2172475432094 L 169.99999999999994 805.2172475432094 L 170.99999999999997 805.8838520906241 L 170.99999999999997 805.8838520906241 L 172 806.5556988364701 L 172 806.5556988364701 L 173 807.2328498620643 L 173 807.2328498620643 L 174 807.9153682328808 L 174 807.9153682328808 L 174.99999999999994 808.6033180181324 L 174.99999999999994 808.6033180181324 L 175.99999999999994 809.2967643108182 L 175.99999999999994 809.2967643108182 L 176.99999999999997 809.995773248255 L 176.99999999999997 809.995773248255 L 177.99999999999997 810.7004120331055 L 177.99999999999997 810.7004120331055 L 178.99999999999997 811.4107489549154 L 178.99999999999997 811.4107489549154 L 180 812.1268534121756 L 180 812.1268534121756 L 180.99999999999997 812.8487959349237 L 180.99999999999997 812.8487959349237 L 181.99999999999997 813.5766482079016 L 181.99999999999997 813.5766482079016 L 182.99999999999997 814.3104830942827 L 182.99999999999997 814.3104830942827 L 184 815.0503746599877 L 184 815.0503746599877 L 184.99999999999997 815.7963981986038 L 184.99999999999997 815.7963981986038 L 185.99999999999997 816.5486302569275 L 185.99999999999997 816.5486302569275 L 186.99999999999997 817.307148661147 L 186.99999999999997 817.307148661147 L 188 818.0720325436831 L 188 818.0720325436831 L 188.99999999999997 818.8433623707103 L 188.99999999999997 818.8433623707103 L 189.99999999999997 819.6212199703751 L 189.99999999999997 819.6212199703751 L 190.99999999999997 820.4056885617347 L 190.99999999999997 820.4056885617347 L 192 821.196852784436 L 192 821.196852784436 L 192.99999999999997 821.9947987291591 L 192.99999999999997 821.9947987291591 L 193.99999999999997 822.7996139688453 L 193.99999999999997 822.7996139688453 L 194.99999999999997 823.6113875907361 L 194.99999999999997 823.6113875907361 L 196 824.430210229247 L 196 824.430210229247 L 196.99999999999997 825.256174099701 L 196.99999999999997 825.256174099701 L 197.99999999999997 826.0893730329483 L 197.99999999999997 826.0893730329483 L 198.99999999999997 826.9299025109004 L 198.99999999999997 826.9299025109004 L 199.99999999999994 827.7778597030062 L 199.99999999999994 827.7778597030062 L 200.99999999999997 828.6333435036986 L 200.99999999999997 828.6333435036986 L 201.99999999999997 829.4964545708436 L 201.99999999999997 829.4964545708436 L 202.99999999999997 830.3672953652219 L 202.99999999999997 830.3672953652219 L 203.99999999999994 831.2459701910763 L 203.99999999999994 831.2459701910763 L 204.99999999999997 832.1325852377582 L 204.99999999999997 832.1325852377582 L 205.99999999999997 833.0272486225083 L 205.99999999999997 833.0272486225083 L 206.99999999999997 833.9300704344073 L 206.99999999999997 833.9300704344073 L 207.99999999999994 834.8411627795352 L 207.99999999999994 834.8411627795352 L 208.99999999999997 835.760639827377 L 208.99999999999997 835.760639827377 L 209.99999999999997 836.6886178585147 L 209.99999999999997 836.6886178585147 L 211 837.6252153136502 L 211 837.6252153136502 L 211.99999999999997 838.5705528439985 L 211.99999999999997 838.5705528439985 L 212.99999999999997 839.5247533630998 L 212.99999999999997 839.5247533630998 L 213.99999999999997 840.4879421000949 L 213.99999999999997 840.4879421000949 L 215 841.4602466545134 L 215 841.4602466545134 L 215.99999999999997 842.4417970526256 L 215.99999999999997 842.4417970526256 L 216.99999999999997 843.4327258054082 L 216.99999999999997 843.4327258054082 L 217.99999999999997 844.4331679681809 L 217.99999999999997 844.4331679681809 L 219 845.4432612019683 L 219 845.4432612019683 L 219.99999999999997 846.4631458366462 L 219.99999999999997 846.4631458366462 L 220.99999999999997 847.4929649359331 L 220.99999999999997 847.4929649359331 L 221.99999999999997 848.5328643642907 L 221.99999999999997 848.5328643642907 L 223 849.5829928557985 L 223 849.5829928557985 L 223.99999999999997 850.6435020850697 L 223.99999999999997 850.6435020850697 L 224.99999999999997 851.7145467402831 L 224.99999999999997 851.7145467402831 L 225.99999999999997 852.7962845983998 L 225.99999999999997 852.7962845983998 L 227 853.8888766026453 L 227 853.8888766026453 L 227.99999999999997 854.9924869423364 L 227.99999999999997 854.9924869423364 L 228.99999999999997 856.1072831351341 L 228.99999999999997 856.1072831351341 L 229.99999999999997 857.2334361118108 L 229.99999999999997 857.2334361118108 L 231 858.3711203036214 L 231 858.3711203036214 L 231.99999999999997 859.520513732373 L 231.99999999999997 859.520513732373 L 232.99999999999997 860.681798103288 L 232.99999999999997 860.681798103288 L 233.99999999999997 861.8551589007666 L 233.99999999999997 861.8551589007666 L 234.99999999999994 863.0407854871502 L 234.99999999999994 863.0407854871502 L 235.99999999999997 864.2388712046011 L 235.99999999999997 864.2388712046011 L 236.6286464185925 865.0000000000001 M 427.3614289816046 -10 L 493.95823286721713 -10 L 493.99999999999994 -9.596210147932197 L 493.99999999999994 -9.596210147932197 L 494.99999999999994 -0.21010176791173762 L 494.99999999999994 -0.21010176791173762 L 495.99999999999994 8.90659078791964 L 495.99999999999994 8.90659078791964 L 496.99999999999994 17.76530323328052 L 496.99999999999994 17.76530323328052 L 497.99999999999994 26.376833105821447 L 497.99999999999994 26.376833105821447 L 498.99999999999994 34.75138367178647 L 498.99999999999994 34.75138367178647 L 499.99999999999994 42.89860425525387 L 499.99999999999994 42.89860425525387 L 500.99999999999994 50.82762732710569 L 500.99999999999994 50.82762732710569 L 501.99999999999994 58.54710265343954 L 501.99999999999994 58.54710265343954 L 502.99999999999994 66.06522877187479 L 502.99999999999994 66.06522877187479 L 503.99999999999994 73.38978203655097 L 503.99999999999994 73.38978203655097 L 504.99999999999994 80.52814344813441 L 504.99999999999994 80.52814344813441 L 505.99999999999994 87.48732346342786 L 505.99999999999994 87.48732346342786 L 506.99999999999994 94.27398495988791 L 506.99999999999994 94.27398495988791 L 507.99999999999994 100.89446451317235 L 507.99999999999994 100.89446451317235 L 508.99999999999994 107.35479213055612 L 508.99999999999994 107.35479213055612 L 509.99999999999994 113.66070956938086 L 509.99999999999994 113.66070956938086 L 510.99999999999994 119.81768735751541 L 510.99999999999994 119.81768735751541 L 511.99999999999994 125.83094062187041 L 511.99999999999994 125.83094062187041 L 513 131.70544382123012 L 513 131.70544382123012 L 514 137.44594447087826 L 514 137.44594447087826 L 515 143.0569759386026 L 515 143.0569759386026 L 516 148.54286938456448 L 516 148.54286938456448 L 517 153.9077649111249 L 517 153.9077649111249 L 518 159.1556219829488 L 518 159.1556219829488 L 519 164.29022917250643 L 519 164.29022917250643 L 520 169.31521328137853 L 520 169.31521328137853 L 521 174.23404788351758 L 521 174.23404788351758 L 522 179.0500613327548 L 522 179.0500613327548 L 523 183.76644427334548 L 523 183.76644427334548 L 524 188.38625668916632 L 524 188.38625668916632 L 525 192.91243452429256 L 525 192.91243452429256 L 526 197.34779590505548 L 526 197.34779590505548 L 527 201.69504699128794 L 527 201.69504699128794 L 528 205.95678748228806 L 528 205.95678748228806 L 529 210.13551580103888 L 529 210.13551580103888 L 530 214.23363397840882 L 530 214.23363397840882 L 531 218.25345225739426 L 531 218.25345225739426 L 532 222.19719343595017 L 532 222.19719343595017 L 533 226.06699696556046 L 533 226.06699696556046 L 534 229.86492282142848 L 534 229.86492282142848 L 535 233.59295515899657 L 535 233.59295515899657 L 536 237.25300577043407 L 536 237.25300577043407 L 537 240.8469173537418 L 537 240.8469173537418 L 538 244.37646660622187 L 538 244.37646660622187 L 539 247.84336715322098 L 539 247.84336715322098 L 540 251.2492723222934 L 540 251.2492723222934 L 541 254.59577777221608 L 541 254.59577777221608 L 542 257.88442398564314 L 542 257.88442398564314 L 543 261.11669863357696 L 543 261.11669863357696 L 544 264.29403881928374 L 544 264.29403881928374 L 545 267.4178332087613 L 545 267.4178332087613 L 546 270.4894240543987 L 546 270.4894240543987 L 547 273.5101091180187 L 547 273.5101091180187 L 548 276.48114349909514 L 548 276.48114349909514 L 549 279.4037413735537 L 549 279.4037413735537 L 550 282.27907764821873 L 550 282.27907764821873 L 551 285.1082895356397 L 551 285.1082895356397 L 552 287.8924780537351 L 552 287.8924780537351 L 553 290.63270945440496 L 553 290.63270945440496 L 554 293.3300165850102 L 554 293.3300165850102 L 555 295.98540018636606 L 555 295.98540018636606 L 556 298.59983013068126 L 556 298.59983013068126 L 557 301.1742466026564 L 557 301.1742466026564 L 558 303.7095612267656 L 558 303.7095612267656 L 559 306.20665814355874 L 559 306.20665814355874 L 560 308.6663950376554 L 560 308.6663950376554 L 561 311.0896041199404 L 561 311.0896041199404 L 562 313.47709306632487 L 562 313.47709306632487 L 563 315.8296459152959 L 563 315.8296459152959 L 564 318.1480239263508 L 564 318.1480239263508 L 565 320.4329664012916 L 565 320.4329664012916 L 566 322.68519147023864 L 566 322.68519147023864 L 567 324.90539684412073 L 567 324.90539684412073 L 568 327.09426053529756 L 568 327.09426053529756 L 569 329.2524415478778 L 569 329.2524415478778 L 570 331.3805805392093 L 570 331.3805805392093 L 571 333.47930045393605 L 571 333.47930045393605 L 572 335.5492071319411 L 572 335.5492071319411 L 573 337.5908898914201 L 573 337.5908898914201 L 574 339.6049220882654 L 574 339.6049220882654 L 575 341.59186165287576 L 575 341.59186165287576 L 576 343.55225160544745 L 576 343.55225160544745 L 577 345.4866205507464 L 577 345.4866205507464 L 578 347.3954831533082 L 578 347.3954831533082 L 579 349.2793405939634 L 579 349.2793405939634 L 580 351.1386810085391 L 580 351.1386810085391 L 581 352.9739799095428 L 581 352.9739799095428 L 582 354.78570059159415 L 582 354.78570059159415 L 583 356.5742945213309 L 583 356.5742945213309 L 584 358.3402017124772 L 584 358.3402017124772 L 585 360.08385108673076 L 585 360.08385108673076 L 586 361.80566082108834 L 586 361.80566082108834 L 587 363.50603868220185 L 587 363.50603868220185 L 588 365.18538234832675 L 588 365.18538234832675 L 589 366.84407971939504 L 589 366.84407971939504 L 590 368.4825092157227 L 590 368.4825092157227 L 591 370.101040065833 L 591 370.101040065833 L 592 371.700032583857 L 592 371.700032583857 L 593 373.2798384369477 L 593 373.2798384369477 L 594 374.840800903126 L 594 374.840800903126 L 595 376.38325511995384 L 595 376.38325511995384 L 596 377.90752832441495 L 596 377.90752832441495 L 597 379.41394008436237 L 597 379.41394008436237 L 598 380.9028025218771 L 598 380.9028025218771 L 599 382.3744205288658 L 599 382.3744205288658 L 600 383.82909197520996 L 600 383.82909197520996 L 601 385.267107909766 L 601 385.267107909766 L 602 386.6887527545 L 602 386.6887527545 L 603 388.09430449202955 L 603 388.09430449202955 L 604 389.48403484683297 L 604 389.48403484683297 L 605 390.8582094603728 L 605 390.8582094603728 L 606 392.2170880603723 L 606 392.2170880603723 L 607 393.5609246244694 L 607 393.5609246244694 L 608 394.8899675384671 L 608 394.8899675384671 L 609 396.2044597493849 L 609 396.2044597493849 L 610 397.5046389135123 L 610 397.5046389135123 L 611 398.79073753965014 L 611 398.79073753965014 L 612 400.06298312772526 L 612 400.06298312772526 L 613 401.32159830294813 L 613 401.32159830294813 L 614 402.5668009456831 L 614 402.5668009456831 L 615 403.79880431718755 L 615 403.79880431718755 L 616 405.017817181374 L 616 405.017817181374 L 617 406.2240439227414 L 617 406.2240439227414 L 617.9999999999999 407.41768466061313 L 617.9999999999999 407.41768466061313 L 619 408.59893535981996 L 619 408.59893535981996 L 620 409.76798793795206 L 620 409.76798793795206 L 621 410.9250303693067 L 621 410.9250303693067 L 622 412.0702467856479 L 622 412.0702467856479 L 623 413.2038175738931 L 623 413.2038175738931 L 624 414.32591947083404 L 624 414.32591947083404 L 625 415.43672565499713 L 625 415.43672565499713 L 625.9999999999999 416.53640583574395 L 625.9999999999999 416.53640583574395 L 627 417.6251263397078 L 627 417.6251263397078 L 628 418.703050194658 L 628 418.703050194658 L 629 419.7703372108824 L 629 419.7703372108824 L 630 420.8271440601719 L 630 420.8271440601719 L 631 421.8736243524899 L 631 421.8736243524899 L 632 422.90992871040487 L 632 422.90992871040487 L 633 423.9362048413623 L 633 423.9362048413623 L 634 424.95259760786894 L 634 424.95259760786894 L 635 425.959249095658 L 635 425.959249095658 L 636 426.9562986799053 L 636 426.9562986799053 L 637 427.94388308955814 L 637 427.94388308955814 L 638 428.9221364698419 L 638 428.9221364698419 L 639 429.89119044300264 L 639 429.89119044300264 L 640 430.851174167344 L 640 430.851174167344 L 641 431.80221439461457 L 641 431.80221439461457 L 642 432.7444355257983 L 642 432.7444355257983 L 643 433.67795966536016 L 643 433.67795966536016 L 644 434.6029066739968 L 644 434.6029066739968 L 645 435.51939421993967 L 645 435.51939421993967 L 646 436.42753782885677 L 646 436.42753782885677 L 647 437.3274509323978 L 647 437.3274509323978 L 648 438.21924491542563 L 648 438.21924491542563 L 648.9999999999999 439.1030291619745 L 648.9999999999999 439.1030291619745 L 650 439.97891109997613 L 650 439.97891109997613 L 651 440.8469962447905 L 651 440.8469962447905 L 652 441.7073882415806 L 652 441.7073882415806 L 653 442.560188906564 L 653 442.560188906564 L 654 443.40549826717904 L 654 443.40549826717904 L 655 444.2434146011951 L 655 444.2434146011951 L 656 445.0740344748036 L 656 445.0740344748036 L 656.9999999999999 445.89745277971565 L 656.9999999999999 445.89745277971565 L 658 446.7137627693012 L 658 446.7137627693012 L 659 447.5230560937947 L 659 447.5230560937947 L 660 448.32542283459793 L 660 448.32542283459793 L 661 449.1209515377046 L 661 449.1209515377046 L 662 449.90972924627556 L 662 449.90972924627556 L 663 450.69184153238655 L 663 450.69184153238655 L 664 451.4673725279757 L 664 451.4673725279757 L 664.9999999999999 452.23640495501274 L 664.9999999999999 452.23640495501274 L 666 452.9990201549124 L 666 452.9990201549124 L 667 453.7552981172155 L 667 453.7552981172155 L 668 454.50531750755727 L 668 454.50531750755727 L 669 455.24915569494436 L 669 455.24915569494436 L 670 455.9868887783604 L 670 455.9868887783604 L 671 456.7185916127191 L 671 456.7185916127191 L 672 457.444337834183 L 672 457.444337834183 L 673 458.16419988486734 L 673 458.16419988486734 L 674 458.8782490369444 L 674 458.8782490369444 L 675 459.58655541616724 L 675 459.58655541616724 L 676 460.2891880248276 L 676 460.2891880248276 L 677 460.9862147641641 L 677 460.9862147641641 L 678 461.67770245623706 L 678 461.67770245623706 L 679 462.3637168652827 L 679 462.3637168652827 L 680 463.04432271856365 L 680 463.04432271856365 L 681 463.71958372672685 L 681 463.71958372672685 L 682 464.3895626036849 L 682 464.3895626036849 L 683 465.05432108603173 L 683 465.05432108603173 L 684 465.7139199520069 L 684 465.7139199520069 L 685 466.3684190400195 L 685 466.3684190400195 L 686 467.01787726674434 L 686 467.01787726674434 L 687 467.6623526448017 L 687 467.6623526448017 L 688 468.30190230003114 L 688 468.30190230003114 L 689 468.93658248837176 L 689 468.93658248837176 L 690 469.566448612357 L 690 469.566448612357 L 691 470.1915552372369 L 691 470.1915552372369 L 692 470.81195610673524 L 692 470.81195610673524 L 693 471.42770415845257 L 693 471.42770415845257 L 694 472.0388515389242 L 694 472.0388515389242 L 695 472.64544961834144 L 695 472.64544961834144 L 696 473.2475490049454 L 696 473.2475490049454 L 697 473.8451995591023 L 697 473.8451995591023 L 698 474.43845040706697 L 698 474.43845040706697 L 699 475.02734995444456 L 699 475.02734995444456 L 700 475.61194589935593 L 700 475.61194589935593 L 701 476.19228524531684 L 701 476.19228524531684 L 702 476.7684143138355 L 702 476.7684143138355 L 703 477.3403787567377 L 703 477.3403787567377 L 704 477.9082235682258 L 704 477.9082235682258 L 705 478.4719930966772 L 705 478.4719930966772 L 706 479.0317310561904 L 706 479.0317310561904 L 707 479.5874805378843 L 707 479.5874805378843 L 708 480.1392840209563 L 708 480.1392840209563 L 709 480.6871833835063 L 709 480.6871833835063 L 710 481.2312199131309 L 710 481.2312199131309 L 711 481.77143431729536 L 711 481.77143431729536 L 712 482.307866733487 L 712 482.307866733487 L 713 482.8405567391562 L 713 482.8405567391562 L 714 483.3695433614505 L 714 483.3695433614505 L 715 483.89486508674554 L 715 483.89486508674554 L 716 484.41655986997955 L 716 484.41655986997955 L 717 484.9346651437946 L 717 484.9346651437946 L 718 485.4492178274896 L 718 485.4492178274896 L 719 485.9602543357905 L 719 485.9602543357905 L 720 486.4678105874407 L 720 486.4678105874407 L 721 486.9719220136168 L 721 486.9719220136168 L 722 487.47262356617324 L 722 487.47262356617324 L 723 487.96994972572094 L 723 487.96994972572094 L 724 488.46393450954224 L 724 488.46393450954224 L 725 488.95461147934736 L 725 488.95461147934736 L 726 489.44201374887564 L 726 489.44201374887564 L 727 489.9261739913444 L 727 489.9261739913444 L 728 490.4071244467508 L 728 490.4071244467508 L 729 490.8848969290277 L 729 490.8848969290277 L 730 491.35952283305926 L 730 491.35952283305926 L 731 491.8310331415574 L 731 491.8310331415574 L 732 492.29945843180394 L 732 492.29945843180394 L 733 492.7648288822609 L 733 492.7648288822609 L 734 493.22717427905116 L 734 493.22717427905116 L 735 493.68652402231396 L 735 493.68652402231396 L 736 494.14290713243673 L 736 494.14290713243673 L 737 494.59635225616705 L 737 494.59635225616705 L 738 495.0468876726062 L 738 495.0468876726062 L 739 495.49454129908867 L 739 495.49454129908867 L 740 495.9393406969483 L 740 495.9393406969483 L 741 496.38131307717515 L 741 496.38131307717515 L 742 496.82048530596427 L 742 496.82048530596427 L 743 497.2568839101601 L 743 497.2568839101601 L 744 497.6905350825972 L 744 497.6905350825972 L 745 498.12146468734085 L 745 498.12146468734085 L 746 498.5496982648295 L 746 498.5496982648295 L 747 498.97526103692053 L 747 498.97526103692053 L 748 499.39817791184214 L 748 499.39817791184214 L 749 499.8184734890533 L 749 499.8184734890533 L 750 500.2361720640132 L 750 500.2361720640132 L 751 500.6512976328632 L 751 500.6512976328632 L 752 501.0638738970217 L 752 501.0638738970217 L 753 501.4739242676952 L 753 501.4739242676952 L 754 501.881471870307 L 754 501.881471870307 L 755 502.286539548844 L 755 502.286539548844 L 756 502.6891498701257 L 756 502.6891498701257 L 757 503.08932512799447 L 757 503.08932512799447 L 758 503.48708734743127 L 758 503.48708734743127 L 759 503.8824582885961 L 759 503.8824582885961 L 760 504.2754594507966 L 760 504.2754594507966 L 761 504.6661120763845 L 761 504.6661120763845 L 762 505.05443715458364 L 762 505.05443715458364 L 763 505.44045542524896 L 763 505.44045542524896 L 764 505.8241873825589 L 764 505.8241873825589 L 765 506.2056532786422 L 765 506.2056532786422 L 766 506.5848731271415 L 766 506.5848731271415 L 767 506.9618667067126 L 767 506.9618667067126 L 768 507.3366535644638 L 768 507.3366535644638 L 769 507.7092530193343 L 769 507.7092530193343 L 770 508.0796841654136 L 770 508.0796841654136 L 771 508.4479658752033 L 771 508.4479658752033 L 771.9999999999999 508.81411680282224 L 771.9999999999999 508.81411680282224 L 773 509.17815538715627 L 773 509.17815538715627 L 774 509.5400998549531 L 774 509.5400998549531 L 775 509.899968223865 L 775 509.899968223865 L 776 510.2577783054382 L 776 510.2577783054382 L 777 510.6135477080515 L 777 510.6135477080515 L 778 510.96729383980517 L 778 510.96729383980517 L 778.9999999999999 511.31903391136 L 778.9999999999999 511.31903391136 L 780 511.668784938729 L 780 511.668784938729 L 781 512.0165637460207 L 781 512.0165637460207 L 782 512.3623869681377 L 782 512.3623869681377 L 783 512.7062710534282 L 783 512.7062710534282 L 784 513.0482322662946 L 784 513.0482322662946 L 785 513.3882866897571 L 785 513.3882866897571 L 785.9999999999999 513.7264502279759 L 785.9999999999999 513.7264502279759 L 787 514.0627386087295 L 787 514.0627386087295 L 787.9999999999999 514.3971673858547 L 787.9999999999999 514.3971673858547 L 789 514.7297519416429 L 789 514.7297519416429 L 790 515.0605074892001 L 790 515.0605074892001 L 791 515.3894490747654 L 791 515.3894490747654 L 792 515.7165915799934 L 792 515.7165915799934 L 793 516.0419497241982 L 793 516.0419497241982 L 794 516.3655380665606 L 794 516.3655380665606 L 794.9999999999999 516.6873710083007 L 794.9999999999999 516.6873710083007 L 796 517.0074627948138 L 796 517.0074627948138 L 797 517.3258275177722 L 797 517.3258275177722 L 798 517.6424791171935 L 798 517.6424791171935 L 799 517.9574313834751 L 799 517.9574313834751 L 800 518.2706979593963 L 800 518.2706979593963 L 801 518.5822923420881 L 801 518.5822923420881 L 801.9999999999999 518.8922278849717 L 801.9999999999999 518.8922278849717 L 803 519.2005177996663 L 803 519.2005177996663 L 803.9999999999999 519.5071751578657 L 803.9999999999999 519.5071751578657 L 805 519.8122128931872 L 805 519.8122128931872 L 806 520.1156438029883 L 806 520.1156438029883 L 807 520.4174805501577 L 807 520.4174805501577 L 808 520.7177356648764 L 808 520.7177356648764 L 808.9999999999999 521.0164215463511 L 808.9999999999999 521.0164215463511 L 810 521.3135504645222 L 810 521.3135504645222 L 810.9999999999999 521.6091345617427 L 810.9999999999999 521.6091345617427 L 812 521.9031858544336 L 812 521.9031858544336 L 813 522.1957162347105 L 813 522.1957162347105 L 814 522.4867374719892 L 814 522.4867374719892 L 815 522.7762612145616 L 815 522.7762612145616 L 816 523.0642989911519 L 816 523.0642989911519 L 817 523.3508622124456 L 817 523.3508622124456 L 817.9999999999999 523.6359621725969 L 817.9999999999999 523.6359621725969 L 819 523.9196100507123 L 819 523.9196100507123 L 820 524.201816912312 L 820 524.201816912312 L 821 524.4825937107685 L 821 524.4825937107685 L 822 524.761951288724 L 822 524.761951288724 L 823 525.0399003794867 L 823 525.0399003794867 L 824 525.3164516084039 L 824 525.3164516084039 L 824.9999999999999 525.5916154942176 L 824.9999999999999 525.5916154942176 L 826 525.8654024503975 L 826 525.8654024503975 L 826.9999999999999 526.1378227864543 L 826.9999999999999 526.1378227864543 L 828 526.4088867092346 L 828 526.4088867092346 L 829 526.6786043241948 L 829 526.6786043241948 L 830 526.9469856366577 L 830 526.9469856366577 L 831 527.2140405530489 L 831 527.2140405530489 L 832 527.4797788821168 L 832 527.4797788821168 L 833 527.744210336132 L 833 527.744210336132 L 833.9999999999999 528.0073445320724 L 833.9999999999999 528.0073445320724 L 835 528.2691909927872 L 835 528.2691909927872 L 836 528.5297591481474 L 836 528.5297591481474 L 837 528.7890583361764 L 837 528.7890583361764 L 838 529.0470978041666 L 838 529.0470978041666 L 839 529.303886709778 L 839 529.303886709778 L 840 529.5594341221218 L 840 529.5594341221218 L 840.9999999999999 529.8137490228283 L 840.9999999999999 529.8137490228283 L 842 530.0668403070988 L 842 530.0668403070988 L 842.9999999999999 530.318716784743 L 842.9999999999999 530.318716784743 L 844 530.5693871812008 L 844 530.5693871812008 L 845 530.8188601385507 L 845 530.8188601385507 L 846 531.0671442165019 L 846 531.0671442165019 L 847 531.3142478933742 L 847 531.3142478933742 L 847.9999999999999 531.5601795670625 L 847.9999999999999 531.5601795670625 L 849 531.8049475559887 L 849 531.8049475559887 L 849.9999999999999 532.048560100039 L 849.9999999999999 532.048560100039 L 851 532.2910253614889 L 851 532.2910253614889 L 852 532.5323514259146 L 852 532.5323514259146 L 853 532.7725463030923 L 853 532.7725463030923 L 854 533.0116179278839 L 854 533.0116179278839 L 855 533.2495741611106 L 855 533.2495741611106 L 856 533.4864227904152 L 856 533.4864227904152 L 856.9999999999999 533.722171531111 L 856.9999999999999 533.722171531111 L 858 533.9568280270202 L 858 533.9568280270202 L 859 534.190399851299 L 859 534.190399851299 L 860 534.4228945072539 L 860 534.4228945072539 L 861 534.6543194291437 L 861 534.6543194291437 L 862 534.8846819829724 L 862 534.8846819829724 L 863 535.1139894672714 L 863 535.1139894672714 L 864 535.3422491138692 L 864 535.3422491138692 L 865 535.5694680886526 L 865 535.5694680886526 L 865.9999999999999 535.7956534923158 L 865.9999999999999 535.7956534923158 L 867 536.0208123611006 L 867 536.0208123611006 L 868 536.2449516675262 L 868 536.2449516675262 L 869 536.4680783211082 L 869 536.4680783211082 L 870 536.6901991690695 L 870 536.6901991690695 L 871 536.91132099704 L 871 536.91132099704 L 872 537.1314505297478 L 872 537.1314505297478 L 872.9999999999999 537.3505944317013 L 872.9999999999999 537.3505944317013 L 873.9999999999999 537.5687593078613 L 873.9999999999999 537.5687593078613 L 875 537.785951704305 L 875 537.785951704305 L 876 538.0021781088803 L 876 538.0021781088803 L 877 538.2174449518521 L 877 538.2174449518521 L 878 538.4317586065397 L 878 538.4317586065397 L 879 538.6451253899455 L 879 538.6451253899455 L 880 538.8575515633764 L 880 538.8575515633764 L 880.9999999999999 539.0690433330554 L 880.9999999999999 539.0690433330554 L 881.9999999999999 539.2796068507266 L 881.9999999999999 539.2796068507266 L 883 539.4892482142516 L 883 539.4892482142516 L 884 539.6979734681977 L 884 539.6979734681977 L 885 539.9057886044193 L 885 539.9057886044193 L 886 540.1126995626315 L 886 540.1126995626315 L 887 540.3187122309753 L 887 540.3187122309753 L 888 540.5238324465765 L 888 540.5238324465765 L 888.9999999999999 540.7280659960973 L 888.9999999999999 540.7280659960973 L 890 540.9314186162799 L 890 540.9314186162799 L 891 541.133895994484 L 891 541.133895994484 L 892 541.3355037692171 L 892 541.3355037692171 L 893 541.5362475306576 L 893 541.5362475306576 L 894 541.7361328211717 L 894 541.7361328211717 L 895 541.9351651358235 L 895 541.9351651358235 L 896 542.1333499228783 L 896 542.1333499228783 L 896.9999999999999 542.3306925843001 L 896.9999999999999 542.3306925843001 L 898 542.527198476242 L 898 542.527198476242 L 899 542.7228729095315 L 899 542.7228729095315 L 900 542.9177211501479 L 900 542.9177211501479 L 901 543.1117484196958 L 901 543.1117484196958 L 902 543.3049598958705 L 902 543.3049598958705 L 903 543.4973607129197 L 903 543.4973607129197 L 903.9999999999999 543.688955962097 L 903.9999999999999 543.688955962097 L 904.9999999999999 543.8797506921123 L 904.9999999999999 543.8797506921123 L 906 544.0697499095742 L 906 544.0697499095742 L 907 544.2589585794286 L 907 544.2589585794286 L 908 544.4473816253908 L 908 544.4473816253908 L 909 544.6350239303727 L 909 544.6350239303727 L 910 544.8218903369049 L 910 544.8218903369049 L 911 545.0079856475528 L 911 545.0079856475528 L 911.9999999999999 545.1933146253283 L 911.9999999999999 545.1933146253283 L 912.9999999999999 545.3778819940964 L 912.9999999999999 545.3778819940964 L 914 545.5616924389757 L 914 545.5616924389757 L 915 545.7447506067359 L 915 545.7447506067359 L 916 545.927061106189 L 916 545.927061106189 L 917 546.1086285085754 L 917 546.1086285085754 L 918 546.2894573479473 L 918 546.2894573479473 L 919 546.4695521215447 L 919 546.4695521215447 L 919.9999999999999 546.6489172901695 L 919.9999999999999 546.6489172901695 L 920.9999999999999 546.8275572785527 L 920.9999999999999 546.8275572785527 L 922 547.0054764757192 L 922 547.0054764757192 L 923 547.1826792353467 L 923 547.1826792353467 L 924 547.3591698761205 L 924 547.3591698761205 L 925 547.5349526820855 L 925 547.5349526820855 L 926 547.7100319029917 L 926 547.7100319029917 L 927 547.8844117546371 L 927 547.8844117546371 L 927.9999999999999 548.0580964192061 L 927.9999999999999 548.0580964192061 L 929 548.2310900456041 L 929 548.2310900456041 L 930 548.4033967497874 L 930 548.4033967497874 L 931 548.5750206150897 L 931 548.5750206150897 L 932 548.7459656925449 L 932 548.7459656925449 L 933 548.9162360012059 L 933 548.9162360012059 L 934 549.0858355284593 L 934 549.0858355284593 L 935 549.2547682303365 L 935 549.2547682303365 L 935.9999999999999 549.423038031822 L 935.9999999999999 549.423038031822 L 937 549.5906488271568 L 937 549.5906488271568 L 938 549.7576044801388 L 938 549.7576044801388 L 939 549.92390882442 L 939 549.92390882442 L 940 550.0895656637999 L 940 550.0895656637999 L 941 550.2545787725152 L 941 550.2545787725152 L 942 550.4189518955269 L 942 550.4189518955269 L 943 550.582688748803 L 943 550.582688748803 L 944 550.7457930195993 L 944 550.7457930195993 L 945 550.9082683667356 L 945 550.9082683667356 L 946 551.0701184208692 L 946 551.0701184208692 L 947 551.2313467847662 L 947 551.2313467847662 L 948 551.3919570335676 L 948 551.3919570335676 L 949 551.5519527150547 L 949 551.5519527150547 L 950 551.7113373499093 L 950 551.7113373499093 L 951 551.8701144319731 L 951 551.8701144319731 L 952 552.0282874285018 L 952 552.0282874285018 L 953 552.1858597804184 L 953 552.1858597804184 L 954 552.3428349025622 L 954 552.3428349025622 L 955 552.4992161839357 L 955 552.4992161839357 L 956 552.6550069879485 L 956 552.6550069879485 L 957 552.8102106526583 L 957 552.8102106526583 L 958 552.9648304910095 L 958 552.9648304910095 L 959 553.1188697910686 L 959 553.1188697910686 L 960 553.2723318162579 L 960 553.2723318162579 L 961 553.425219805585 L 961 553.425219805585 L 962 553.5775369738719 L 962 553.5775369738719 L 963 553.7292865119794 L 963 553.7292865119794 L 964 553.8804715870297 L 964 553.8804715870297 L 965 554.0310953426281 L 965 554.0310953426281 L 966 554.1811608990795 L 966 554.1811608990795 L 967 554.3306713536044 L 967 554.3306713536044 L 968 554.4796297805522 L 968 554.4796297805522 L 969 554.6280392316115 L 969 554.6280392316115 L 970 554.7759027360188 L 970 554.7759027360188 L 971 554.9232233007644 L 971 554.9232233007644 L 972 555.0700039107967 L 972 555.0700039107967 L 973 555.2162475292229 L 973 555.2162475292229 L 974 555.3619570975093 L 974 555.3619570975093 L 975 555.5071355356781 L 975 555.5071355356781 L 976 555.6517857425024 L 976 555.6517857425024 L 977 555.7959105956995 L 977 555.7959105956995 L 978 555.9395129521213 L 978 555.9395129521213 L 979 556.082595647943 L 979 556.082595647943 L 980 556.2251614988506 L 980 556.2251614988506 L 981 556.367213300225 L 981 556.367213300225 L 982 556.5087538273242 L 982 556.5087538273242 L 983 556.6497858354651 L 983 556.6497858354651 L 984 556.7903120602019 L 984 556.7903120602019 L 985 556.9303352175025 L 985 556.9303352175025 L 986 557.0698580039241 L 986 557.0698580039241 L 987 557.2088830967859 L 987 557.2088830967859 L 988 557.3474131543408 L 988 557.3474131543408 L 989 557.485450815944 L 989 557.485450815944 L 990 557.6229987022216 L 990 557.6229987022216 L 991 557.760059415236 L 991 557.760059415236 L 992 557.8966355386498 L 992 557.8966355386498 L 993 558.0327296378882 L 993 558.0327296378882 L 994 558.1683442603003 L 994 558.1683442603003 L 995 558.3034819353168 L 995 558.3034819353168 L 996 558.4381451746083 L 996 558.4381451746083 L 997 558.5723364722409 L 997 558.5723364722409 L 998 558.7060583048292 L 998 558.7060583048292 L 999 558.8393131316897 L 999 558.8393131316897 L 1000 558.972103394991 L 1000 558.972103394991 L 1001 559.1044315199034 L 1001 559.1044315199034 L 1002 559.2362999147462 L 1002 559.2362999147462 L 1003 559.3677109711335 L 1003 559.3677109711335 L 1004 559.4986670641199 L 1004 559.4986670641199 L 1005 559.6291705523424 L 1005 559.6291705523424 L 1006 559.7592237781628 L 1006 559.7592237781628 L 1007 559.888829067807 L 1007 559.888829067807 L 1008 560.0179887315049 L 1008 560.0179887315049 L 1009 560.1467050636265 L 1009 560.1467050636265 L 1010 560.2749803428185 L 1010 560.2749803428185 L 1011 560.4028168321383 L 1011 560.4028168321383 L 1012 560.5302167791878 L 1012 560.5302167791878 L 1013 560.6571824162438 L 1013 560.6571824162438 L 1014 560.78371596039 L 1014 560.78371596039 L 1015 560.9098196136448 L 1015 560.9098196136448 L 1016 561.0354955630897 L 1016 561.0354955630897 L 1017 561.1607459809954 L 1017 561.1607459809954 L 1018 561.2855730249472 L 1018 561.2855730249472 L 1019 561.4099788379688 L 1019 561.4099788379688 L 1020 561.5339655486447 L 1020 561.5339655486447 L 1021 561.6575352712422 L 1021 561.6575352712422 L 1022 561.7806901058308 L 1022 561.7806901058308 L 1023 561.9034321384019 L 1023 561.9034321384019 L 1024 562.0257634409861 L 1024 562.0257634409861 L 1025 562.14768607177 L 1025 562.14768607177 L 1026 562.2692020752115 L 1026 562.2692020752115 L 1027 562.3903134821543 L 1027 562.3903134821543 L 1028 562.5110223099407 L 1028 562.5110223099407 L 1029 562.6313305625239 L 1029 562.6313305625239 L 1030 562.7512402305788 L 1030 562.7512402305788 L 1031 562.8707532916119 L 1031 562.8707532916119 L 1032 562.9898717100696 L 1032 562.9898717100696 L 1033 563.1085974374464 L 1033 563.1085974374464 L 1034 563.2269324123912 L 1034 563.2269324123912 L 1035 563.3448785608127 L 1035 563.3448785608127 L 1036 563.462437795984 L 1036 563.462437795984 L 1037 563.5796120186462 L 1037 563.5796120186462 L 1038 563.6964031171107 L 1038 563.6964031171107 L 1039 563.8128129673605 L 1039 563.8128129673605 L 1040 563.9288434331509" stroke-opacity="0.8" stroke-linecap="round" stroke-linejoin="round" stroke-miterlimit="10" stroke-width="2.5"/><text fill="rgb(46,125,50)" stroke="none" font-family="geogebra-sans-serif, sans-serif" font-size="16px" font-style="normal" font-weight="normal" text-decoration="normal" x="24" y="743" text-anchor="start" dominant-baseline="alphabetic" fill-opacity="1">f</text><text fill="none" stroke="rgb(255,255,255)" font-family="geogebra-sans-serif, sans-serif" font-size="16px" font-style="normal" font-weight="normal" text-decoration="normal" x="24" y="743" text-anchor="start" dominant-baseline="alphabetic" stroke-opacity="1" stroke-linejoin="bevel" stroke-miterlimit="10" stroke-width="3">f</text><text fill="rgb(46,125,50)" stroke="none" font-family="geogebra-sans-serif, sans-serif" font-size="16px" font-style="normal" font-weight="normal" text-decoration="normal" x="24" y="743" text-anchor="start" dominant-baseline="alphabetic" fill-opacity="1">f</text><path fill="none" stroke="rgb(0,0,0)" paint-order="fill stroke markers" d=" M 127.87738940811391 379.20798870407054 L 383.68749797668033 762.9231515569202" stroke-opacity="0.6980392156862745" stroke-linecap="round" stroke-linejoin="round" stroke-miterlimit="10" stroke-width="2.5"/><path fill="none" stroke="rgb(0,0,0)" paint-order="fill stroke markers" d=" M 383.68749797668033 762.9231515569202 L 767.4026608295299 507.11304298835375" stroke-opacity="0.6980392156862745" stroke-linecap="round" stroke-linejoin="round" stroke-miterlimit="10" stroke-width="2.5"/><path fill="none" stroke="rgb(0,0,0)" paint-order="fill stroke markers" d=" M 767.4026608295299 507.11304298835375 L 511.59255226096354 123.39788013550412" stroke-opacity="0.6980392156862745" stroke-linecap="round" stroke-linejoin="round" stroke-miterlimit="10" stroke-width="2.5"/><path fill="none" stroke="rgb(0,0,0)" paint-order="fill stroke markers" d=" M 511.59255226096354 123.39788013550412 L 127.87738940811391 379.20798870407054" stroke-opacity="0.6980392156862745" stroke-linecap="round" stroke-linejoin="round" stroke-miterlimit="10" stroke-width="2.5"/><path fill="rgb(21,101,192)" stroke="none" paint-order="stroke fill markers" d=" M 132.8773894081139 379.20798870407054 C 132.8773894081139 381.9694124532245 130.6388131572679 384.20798870407054 127.87738940811391 384.20798870407054 C 125.11596565895995 384.20798870407054 122.87738940811391 381.9694124532245 122.87738940811391 379.20798870407054 C 122.87738940811391 376.4465649549166 125.11596565895995 374.20798870407054 127.87738940811391 374.20798870407054 C 130.6388131572679 374.20798870407054 132.8773894081139 376.4465649549166 132.8773894081139 379.20798870407054 Z" fill-opacity="1"/><path fill="none" stroke="rgb(0,0,0)" paint-order="fill stroke markers" d=" M 132.8773894081139 379.20798870407054 C 132.8773894081139 381.9694124532245 130.6388131572679 384.20798870407054 127.87738940811391 384.20798870407054 C 125.11596565895995 384.20798870407054 122.87738940811391 381.9694124532245 122.87738940811391 379.20798870407054 C 122.87738940811391 376.4465649549166 125.11596565895995 374.20798870407054 127.87738940811391 374.20798870407054 C 130.6388131572679 374.20798870407054 132.8773894081139 376.4465649549166 132.8773894081139 379.20798870407054 Z" stroke-opacity="1" stroke-linecap="round" stroke-linejoin="round" stroke-miterlimit="10"/><text fill="rgb(21,101,192)" stroke="none" font-family="geogebra-sans-serif, sans-serif" font-size="16px" font-style="normal" font-weight="normal" text-decoration="normal" x="132" y="369" text-anchor="start" dominant-baseline="alphabetic" fill-opacity="1">A</text><text fill="none" stroke="rgb(255,255,255)" font-family="geogebra-sans-serif, sans-serif" font-size="16px" font-style="normal" font-weight="normal" text-decoration="normal" x="132" y="369" text-anchor="start" dominant-baseline="alphabetic" stroke-opacity="1" stroke-linejoin="bevel" stroke-miterlimit="10" stroke-width="3">A</text><text fill="rgb(21,101,192)" stroke="none" font-family="geogebra-sans-serif, sans-serif" font-size="16px" font-style="normal" font-weight="normal" text-decoration="normal" x="132" y="369" text-anchor="start" dominant-baseline="alphabetic" fill-opacity="1">A</text><path fill="rgb(21,101,192)" stroke="none" paint-order="stroke fill markers" d=" M 772.4026608295299 507.11304298835375 C 772.4026608295299 509.8744667375077 770.1640845786839 512.1130429883538 767.4026608295299 512.1130429883538 C 764.6412370803758 512.1130429883538 762.4026608295299 509.8744667375077 762.4026608295299 507.11304298835375 C 762.4026608295299 504.3516192391998 764.6412370803758 502.11304298835375 767.4026608295299 502.11304298835375 C 770.1640845786839 502.11304298835375 772.4026608295299 504.3516192391998 772.4026608295299 507.11304298835375 Z" fill-opacity="1"/><path fill="none" stroke="rgb(0,0,0)" paint-order="fill stroke markers" d=" M 772.4026608295299 507.11304298835375 C 772.4026608295299 509.8744667375077 770.1640845786839 512.1130429883538 767.4026608295299 512.1130429883538 C 764.6412370803758 512.1130429883538 762.4026608295299 509.8744667375077 762.4026608295299 507.11304298835375 C 762.4026608295299 504.3516192391998 764.6412370803758 502.11304298835375 767.4026608295299 502.11304298835375 C 770.1640845786839 502.11304298835375 772.4026608295299 504.3516192391998 772.4026608295299 507.11304298835375 Z" stroke-opacity="1" stroke-linecap="round" stroke-linejoin="round" stroke-miterlimit="10"/><text fill="rgb(21,101,192)" stroke="none" font-family="geogebra-sans-serif, sans-serif" font-size="16px" font-style="normal" font-weight="normal" text-decoration="normal" x="771" y="497" text-anchor="start" dominant-baseline="alphabetic" fill-opacity="1">C</text><text fill="none" stroke="rgb(255,255,255)" font-family="geogebra-sans-serif, sans-serif" font-size="16px" font-style="normal" font-weight="normal" text-decoration="normal" x="771" y="497" text-anchor="start" dominant-baseline="alphabetic" stroke-opacity="1" stroke-linejoin="bevel" stroke-miterlimit="10" stroke-width="3">C</text><text fill="rgb(21,101,192)" stroke="none" font-family="geogebra-sans-serif, sans-serif" font-size="16px" font-style="normal" font-weight="normal" text-decoration="normal" x="771" y="497" text-anchor="start" dominant-baseline="alphabetic" fill-opacity="1">C</text><path fill="rgb(97,97,97)" stroke="none" paint-order="stroke fill markers" d=" M 516.5925522609635 123.39788013550412 C 516.5925522609635 126.15930388465809 514.3539760101175 128.39788013550412 511.59255226096354 128.39788013550412 C 508.8311285118096 128.39788013550412 506.59255226096354 126.15930388465809 506.59255226096354 123.39788013550412 C 506.59255226096354 120.63645638635016 508.8311285118096 118.39788013550412 511.59255226096354 118.39788013550412 C 514.3539760101175 118.39788013550412 516.5925522609635 120.63645638635016 516.5925522609635 123.39788013550412 Z" fill-opacity="1"/><path fill="none" stroke="rgb(0,0,0)" paint-order="fill stroke markers" d=" M 516.5925522609635 123.39788013550412 C 516.5925522609635 126.15930388465809 514.3539760101175 128.39788013550412 511.59255226096354 128.39788013550412 C 508.8311285118096 128.39788013550412 506.59255226096354 126.15930388465809 506.59255226096354 123.39788013550412 C 506.59255226096354 120.63645638635016 508.8311285118096 118.39788013550412 511.59255226096354 118.39788013550412 C 514.3539760101175 118.39788013550412 516.5925522609635 120.63645638635016 516.5925522609635 123.39788013550412 Z" stroke-opacity="1" stroke-linecap="round" stroke-linejoin="round" stroke-miterlimit="10"/><text fill="rgb(97,97,97)" stroke="none" font-family="geogebra-sans-serif, sans-serif" font-size="16px" font-style="normal" font-weight="normal" text-decoration="normal" x="516" y="113" text-anchor="start" dominant-baseline="alphabetic" fill-opacity="1">D</text><text fill="none" stroke="rgb(255,255,255)" font-family="geogebra-sans-serif, sans-serif" font-size="16px" font-style="normal" font-weight="normal" text-decoration="normal" x="516" y="113" text-anchor="start" dominant-baseline="alphabetic" stroke-opacity="1" stroke-linejoin="bevel" stroke-miterlimit="10" stroke-width="3">D</text><text fill="rgb(97,97,97)" stroke="none" font-family="geogebra-sans-serif, sans-serif" font-size="16px" font-style="normal" font-weight="normal" text-decoration="normal" x="516" y="113" text-anchor="start" dominant-baseline="alphabetic" fill-opacity="1">D</text><path fill="rgb(97,97,97)" stroke="none" paint-order="stroke fill markers" d=" M 388.68749797668033 762.9231515569202 C 388.68749797668033 765.6845753060742 386.4489217258343 767.9231515569202 383.68749797668033 767.9231515569202 C 380.9260742275264 767.9231515569202 378.68749797668033 765.6845753060742 378.68749797668033 762.9231515569202 C 378.68749797668033 760.1617278077662 380.9260742275264 757.9231515569202 383.68749797668033 757.9231515569202 C 386.4489217258343 757.9231515569202 388.68749797668033 760.1617278077662 388.68749797668033 762.9231515569202 Z" fill-opacity="1"/><path fill="none" stroke="rgb(0,0,0)" paint-order="fill stroke markers" d=" M 388.68749797668033 762.9231515569202 C 388.68749797668033 765.6845753060742 386.4489217258343 767.9231515569202 383.68749797668033 767.9231515569202 C 380.9260742275264 767.9231515569202 378.68749797668033 765.6845753060742 378.68749797668033 762.9231515569202 C 378.68749797668033 760.1617278077662 380.9260742275264 757.9231515569202 383.68749797668033 757.9231515569202 C 386.4489217258343 757.9231515569202 388.68749797668033 760.1617278077662 388.68749797668033 762.9231515569202 Z" stroke-opacity="1" stroke-linecap="round" stroke-linejoin="round" stroke-miterlimit="10"/><text fill="rgb(97,97,97)" stroke="none" font-family="geogebra-sans-serif, sans-serif" font-size="16px" font-style="normal" font-weight="normal" text-decoration="normal" x="388" y="753" text-anchor="start" dominant-baseline="alphabetic" fill-opacity="1">B</text><text fill="none" stroke="rgb(255,255,255)" font-family="geogebra-sans-serif, sans-serif" font-size="16px" font-style="normal" font-weight="normal" text-decoration="normal" x="388" y="753" text-anchor="start" dominant-baseline="alphabetic" stroke-opacity="1" stroke-linejoin="bevel" stroke-miterlimit="10" stroke-width="3">B</text><text fill="rgb(97,97,97)" stroke="none" font-family="geogebra-sans-serif, sans-serif" font-size="16px" font-style="normal" font-weight="normal" text-decoration="normal" x="388" y="753" text-anchor="start" dominant-baseline="alphabetic" fill-opacity="1">B</text></g></g></svg>