<svg xmlns="http://www.w3.org/2000/svg" direction="ltr" width="744" height="304" viewBox="1288 648 744 304" stroke-linecap="round" stroke-linejoin="round" data-color-mode="light" class="tl-container tl-theme__force-sRGB tl-theme__light" style="background-color: rgb(249, 250, 251);"><defs/><g transform="matrix(1, 0, 0, 1, 1320, 680)" opacity="1"><path d="M0, 0L0, 240" stroke="#1d1d1d" stroke-width="3.5" fill="none" transform="scale(1)"/></g><g transform="matrix(1, 0, 0, 1, 1320, 920)" opacity="1"><path d="M0, 0L320, 0" stroke="#1d1d1d" stroke-width="3.5" fill="none" transform="scale(1)"/></g><g transform="matrix(1, 0, 0, 1, 1320, 680)" opacity="1"><path d="M0, 0L320, 240" stroke="#1d1d1d" stroke-width="3.5" fill="none" transform="scale(1)"/></g><g transform="matrix(1, 0, 0, 1, 1320, 680)" opacity="1"><g transform="scale(1)"><defs><clipPath id="_export_5_rvp__shape_KGvRsYXiuQI3gWLMuKZ9H_clip"><path d="M-100,-100 h360 v201 h-360 Z"/></clipPath></defs><g fill="none" stroke="#1d1d1d" stroke-width="3.5" stroke-linejoin="round" stroke-linecap="round" pointer-events="none"><g style="clip-path: url(&quot;#_export_5_rvp__shape_KGvRsYXiuQI3gWLMuKZ9H_clip&quot;);"><rect x="-100" y="-100" width="360" height="201" opacity="0"/><path d="M0,0L160,0" stroke-dasharray="7.590909090909091 8.35" stroke-dashoffset="3.5"/></g><path d="M 150.9067332602634 -5.249999999999999 L 160 0 L 150.9067332602634 5.249999999999999"/></g></g></g><g transform="matrix(1, 0, 0, 1, 1480, 680)" opacity="1"><g transform="scale(1)"><defs><clipPath id="_export_5_rvp__shape_ZjR-QYgVLB-G1KUyn9qny_clip"><path d="M-100,-100 h201 v320 h-201 Z"/></clipPath></defs><g fill="none" stroke="#1d1d1d" stroke-width="3.5" stroke-linejoin="round" stroke-linecap="round" pointer-events="none"><g style="clip-path: url(&quot;#_export_5_rvp__shape_ZjR-QYgVLB-G1KUyn9qny_clip&quot;);"><rect x="-100" y="-100" width="201" height="320" opacity="0"/><path d="M0,0L0,120" stroke-dasharray="7.055555555555555 7.9375" stroke-dashoffset="3.5"/></g><path d="M 5.249999999999999 110.9067332602634 L 0 120 L -5.249999999999999 110.9067332602634"/></g></g></g><g transform="matrix(1, 0, 0, 1, 1640, 680)" opacity="1"><g transform="scale(1)"><defs><clipPath id="_export_5_rvp__shape_5a51sGzSRTLXMihzKc-Vd_clip"><path d="M-100,-100 h201 v440 h-201 Z"/></clipPath></defs><g fill="none" stroke="#1d1d1d" stroke-width="3.5" stroke-linejoin="round" stroke-linecap="round" pointer-events="none"><g style="clip-path: url(&quot;#_export_5_rvp__shape_5a51sGzSRTLXMihzKc-Vd_clip&quot;);"><rect x="-100" y="-100" width="201" height="440" opacity="0"/><path d="M0,0L0,240" stroke-dasharray="7.264705882352941 7.71875" stroke-dashoffset="3.5"/></g><path d="M 5.249999999999999 230.9067332602634 L 0 240 L -5.249999999999999 230.9067332602634"/></g></g></g><g transform="matrix(1, 0, 0, 1, 1400, 680)" opacity="1"><g stroke="#1d1d1d" stroke-width="3.5" transform="scale(1)"><path stroke-dasharray="0.03605551275463989 7.55268109281404" stroke-dashoffset="0" d="M0, 0 L80, 120" fill="none"/></g></g><g transform="matrix(1, 0, 0, 1, 1480, 680)" opacity="1"><g stroke="#1d1d1d" stroke-width="3.5" transform="scale(1)"><path stroke-dasharray="0.03517611000452672 7.1750470381733376" stroke-dashoffset="0" d="M0, 0 L160, 240" fill="none"/></g></g><g transform="matrix(1, 0, 0, 1, 1320, 680)" opacity="1"><g transform="scale(1)"><defs><clipPath id="_export_5_rvp__shape_mLGptKAikxVtBWlsPp6PC_clip"><path d="M60,-100 h360 v201 h-360 Z"/></clipPath></defs><g fill="none" stroke="#1d1d1d" stroke-width="3.5" stroke-linejoin="round" stroke-linecap="round" pointer-events="none"><g style="clip-path: url(&quot;#_export_5_rvp__shape_mLGptKAikxVtBWlsPp6PC_clip&quot;);"><rect x="60" y="-100" width="360" height="201" opacity="0"/><path d="M160,0L320,0" stroke-dasharray="7.590909090909091 8.35" stroke-dashoffset="3.5"/></g><path d="M 310.9067332602634 -5.249999999999999 L 320 0 L 310.9067332602634 5.249999999999999"/></g></g></g><g transform="matrix(1, 0, 0, 1, 1680, 920)" opacity="1"><path d="M0, 0L320, 0" stroke="#1d1d1d" stroke-width="3.5" fill="none" transform="scale(1)"/></g><g transform="matrix(1, 0, 0, 1, 2000, 920)" opacity="1"><path d="M0, 0L0, -240" stroke="#1d1d1d" stroke-width="3.5" fill="none" transform="scale(1)"/></g><g transform="matrix(1, 0, 0, 1, 1680, 920)" opacity="1"><path d="M0, 0L320, -240" stroke="#1d1d1d" stroke-width="3.5" fill="none" transform="scale(1)"/></g><g transform="matrix(1, 0, 0, 1, 1900, 720)" opacity="1"><g transform="scale(1)"><defs><clipPath id="_export_5_rvp__shape_hNUkbfMMVIy8T5ytuozaF_clip"><path d="M-100,-100 h201 v230 h-201 Z"/></clipPath></defs><g fill="none" stroke="#1d1d1d" stroke-width="3.5" stroke-linejoin="round" stroke-linecap="round" pointer-events="none"><g style="clip-path: url(&quot;#_export_5_rvp__shape_hNUkbfMMVIy8T5ytuozaF_clip&quot;);"><rect x="-100" y="-100" width="201" height="230" opacity="0"/><path d="M0,0L0,30" stroke-dasharray="none" stroke-dashoffset="none"/></g><path d="M 2.9999999999999996 24.803847577293368 L 0 30 L -2.9999999999999996 24.803847577293368"/></g></g></g><g transform="matrix(1, 0, 0, 1, 1840, 720)" opacity="1"><g transform="scale(1)"><defs><clipPath id="_export_5_rvp__shape_jyMH-0Oron7AO1D9cS6H3_clip"><path d="M-100,-100 h201 v280 h-201 Z"/></clipPath></defs><g fill="none" stroke="#1d1d1d" stroke-width="3.5" stroke-linejoin="round" stroke-linecap="round" pointer-events="none"><g style="clip-path: url(&quot;#_export_5_rvp__shape_jyMH-0Oron7AO1D9cS6H3_clip&quot;);"><rect x="-100" y="-100" width="201" height="280" opacity="0"/><path d="M0,0L0,80" stroke-dasharray="none" stroke-dashoffset="none"/></g><path d="M 5.249999999999999 70.9067332602634 L 0 80 L -5.249999999999999 70.9067332602634"/></g></g></g><g transform="matrix(1, 0, 0, 1, 1760, 720)" opacity="1"><g transform="scale(1)"><defs><clipPath id="_export_5_rvp__shape_ZAtUw8OKOSsfvknmly9Vu_clip"><path d="M-100,-100 h280 v201 h-280 Z"/></clipPath></defs><g fill="none" stroke="#1d1d1d" stroke-width="3.5" stroke-linejoin="round" stroke-linecap="round" pointer-events="none"><g style="clip-path: url(&quot;#_export_5_rvp__shape_ZAtUw8OKOSsfvknmly9Vu_clip&quot;);"><rect x="-100" y="-100" width="280" height="201" opacity="0"/><path d="M0,0L80,0" stroke-dasharray="none" stroke-dashoffset="none"/></g><path d="M 70.9067332602634 -5.249999999999999 L 80 0 L 70.9067332602634 5.249999999999999"/></g></g></g><g transform="matrix(1, 0, 0, 1, 1720, 800)" opacity="1"><g stroke="#1d1d1d" stroke-width="3.5" transform="scale(1)"><path stroke-dasharray="7.333333333333333 7.857142857142857" stroke-dashoffset="0" d="M20, 0 L240, 0" fill="none"/></g></g><g transform="matrix(1, 0, 0, 1, 1920, 720)" opacity="1"><g transform="scale(1)"><defs><clipPath id="_export_5_rvp__shape_wT07Ym0v4I0PQBw5uXuCd_clip"><path d="M-100,-100 h201 v280 h-201 Z"/></clipPath></defs><g fill="none" stroke="#9fa8b2" stroke-width="3.5" stroke-linejoin="round" stroke-linecap="round" pointer-events="none"><g style="clip-path: url(&quot;#_export_5_rvp__shape_wT07Ym0v4I0PQBw5uXuCd_clip&quot;);"><rect x="-100" y="-100" width="201" height="280" opacity="0"/><path d="M0,0L0,80" stroke-dasharray="none" stroke-dashoffset="none"/></g><path d="M 5.249999999999999 70.9067332602634 L 0 80 L -5.249999999999999 70.9067332602634"/></g></g></g><g transform="matrix(1, 0, 0, 1, 1760, 720)" opacity="1"><g stroke="#1d1d1d" stroke-width="3.5" transform="scale(1)"><path stroke-dasharray="7.142857142857143 8.333333333333334" stroke-dashoffset="0" d="M0, 0 L0, 100" fill="none"/></g></g><g transform="matrix(1, 0, 0, 1, 1840, 720)" opacity="1"><g transform="scale(1)"><defs><clipPath id="_export_5_rvp__shape_FlfrYxBD5eLvL3szmtJe__clip"><path d="M-40,-100 h220 v201 h-220 Z"/></clipPath></defs><g fill="none" stroke="#9fa8b2" stroke-width="3.5" stroke-linejoin="round" stroke-linecap="round" pointer-events="none"><g style="clip-path: url(&quot;#_export_5_rvp__shape_FlfrYxBD5eLvL3szmtJe__clip&quot;);"><rect x="-40" y="-100" width="220" height="201" opacity="0"/><path d="M60,0L80,0" stroke-dasharray="none" stroke-dashoffset="none"/></g><path d="M 76.53589838486225 -1.9999999999999998 L 80 0 L 76.53589838486225 1.9999999999999998"/></g></g></g><g transform="matrix(1, 0, 0, 1, 1840, 720)" opacity="1"><g transform="scale(1)"><defs><clipPath id="_export_5_rvp__shape_XNz6M1_0YTr2rIleSPI8L_clip"><path d="M-100,-100 h260 v201 h-260 Z"/></clipPath></defs><g fill="none" stroke="#1d1d1d" stroke-width="3.5" stroke-linejoin="round" stroke-linecap="round" pointer-events="none"><g style="clip-path: url(&quot;#_export_5_rvp__shape_XNz6M1_0YTr2rIleSPI8L_clip&quot;);"><rect x="-100" y="-100" width="260" height="201" opacity="0"/><path d="M0,0L60,0" stroke-dasharray="none" stroke-dashoffset="none"/></g><path d="M 50.906733260263394 -5.249999999999999 L 60 0 L 50.906733260263394 5.249999999999999"/></g></g></g><g transform="matrix(1, 0, 0, 1, 1800, 720)" opacity="1"><g stroke="#1d1d1d" stroke-width="3.5" transform="scale(1)"><path stroke-dasharray="0.037267799624996496 8.09050050040833" stroke-dashoffset="0" d="M0, 0 L40, 80" fill="none"/></g></g><g transform="matrix(1, 0, 0, 1, 1810, 720)" opacity="1"><g stroke="#1d1d1d" stroke-width="3.5" transform="scale(1)"><path stroke-dasharray="0.03648781915578899 7.866165679668843" stroke-dashoffset="0" d="M0, 0 L90, 30" fill="none"/></g></g><g transform="matrix(1, 0, 0, 1, 1790, 790)" opacity="1"><path d="M0, 0L0, 20" stroke="#1d1d1d" stroke-width="3.5" fill="none" transform="scale(1)"/></g><g transform="matrix(1, 0, 0, 1, 1800, 790)" opacity="1"><path d="M0, 0L0, 20" stroke="#1d1d1d" stroke-width="3.5" fill="none" transform="scale(1)"/></g><g transform="matrix(1, 0, 0, 1, 1880, 790)" opacity="1"><path d="M0, 0L0, 20" stroke="#1d1d1d" stroke-width="3.5" fill="none" transform="scale(1)"/></g><g transform="matrix(1, 0, 0, 1, 1890, 790)" opacity="1"><path d="M0, 0L0, 20" stroke="#1d1d1d" stroke-width="3.5" fill="none" transform="scale(1)"/></g></svg>