<?xml version="1.0" encoding="UTF-8" standalone="no"?>
<!-- Created with Inkscape (http://www.inkscape.org/) -->
<svg xmlns:svg="http://www.w3.org/2000/svg" xmlns:xlink="http://www.w3.org/1999/xlink" xmlns="http://www.w3.org/2000/svg" version="1.1" width="700" height="700" id="svg2">
  <defs>
    <g id="needle">
      <path d="M -8.4,0 L 0,16.9 L 8.4,0 L 0,-16.9 Z" fill="#ffffff" stroke="none"/>
      <path d="M -8.4,0 L 0,16.9 L 8.4,0 Z" fill="#ff0000" stroke="none"/>
      <path d="M -8.4,0 L 0,16.9 L 8.4,0 L 0,-16.9 Z" fill="none" stroke="#000000" stroke-linejoin="miter" stroke-miterlimit="10" stroke-width="1"/>
    </g>
  </defs>
  <g transform="translate(350, 350)" fill="none" style="fill:none;">
    <g transform="rotate(-23.5)" stroke-width="1.8" stroke="#b3b3b3">
      <path d="M -260.26,-0.00 C -260.26,-53.84 -210.93,-99.34 -143.50,-100.16 C -88.59,-100.83 -29.30,-67.51 -20.64,-48.00 C -17.55,-41.03 -15.44,-30.11 -15.44,0.00 C -15.44,30.11 -17.55,41.03 -20.64,48.00 C -29.30,67.51 -88.59,100.83 -143.50,100.16 C -210.93,99.34 -260.26,53.84 -260.26,0.00"/>
      <path d="M -510.11,0.00 C -510.11,-29.48 -502.45,-58.66 -487.57,-85.27 C -421.54,-203.44 -239.43,-235.18 -102.50,-141.84 C -70.24,-119.85 -22.99,-75.99 -15.02,-48.00 C -12.76,-40.03 -11.25,-28.97 -11.25,0.00 C -11.25,28.97 -12.76,40.03 -15.02,48.00 C -22.99,75.99 -70.24,119.85 -102.50,141.84 C -102.50,141.84 -102.50,141.84 -102.50,141.84 C -239.43,235.18 -421.54,203.44 -487.57,85.27 C -502.45,58.66 -510.11,29.48 -510.11,0.00"/>
      <path d="M -292.54,-399.27 C -153.94,-307.01 -85.73,-203.84 -61.50,-163.84 C -57.95,-157.98 -15.36,-87.03 -9.10,-48.00 C -7.71,-39.38 -6.82,-28.12 -6.82,-0.00 C -6.82,28.12 -7.71,39.38 -9.10,48.00 C -15.36,87.01 -57.93,157.94 -61.50,163.84 C -61.50,163.84 -61.50,163.84 -61.50,163.84 C -85.73,203.84 -153.94,307.01 -292.54,399.27"/>
      <path d="M -97.51,-485.27 C -56.06,-350.52 -33.25,-245.35 -20.50,-173.80 C -17.18,-155.14 -4.96,-84.88 -3.04,-48.00 C -2.58,-39.06 -2.28,-27.70 -2.28,-0.00 C -2.28,27.70 -2.58,39.06 -3.04,48.00 C -4.96,84.88 -17.17,155.13 -20.50,173.80 C -33.25,245.34 -56.06,350.52 -97.51,485.27"/>
      <path d="M 97.51,-485.27 C 56.06,-350.52 33.25,-245.35 20.50,-173.80 C 17.18,-155.14 4.96,-84.88 3.04,-48.00 C 2.58,-39.06 2.28,-27.70 2.28,-0.00 C 2.28,27.70 2.58,39.06 3.04,48.00 C 4.96,84.88 17.17,155.13 20.50,173.80 C 33.25,245.34 56.06,350.52 97.51,485.27"/>
      <path d="M 292.54,-399.27 C 153.94,-307.01 85.73,-203.84 61.50,-163.84 C 57.95,-157.98 15.36,-87.03 9.10,-48.00 C 7.71,-39.38 6.82,-28.12 6.82,-0.00 C 6.82,28.12 7.71,39.38 9.10,48.00 C 15.36,87.01 57.93,157.94 61.50,163.84 C 61.50,163.84 61.50,163.84 61.50,163.84 C 85.73,203.84 153.94,307.01 292.54,399.27"/>
      <path d="M 510.11,0.00 C 510.11,-29.48 502.45,-58.66 487.57,-85.27 C 421.54,-203.44 239.43,-235.18 102.50,-141.84 C 70.24,-119.85 22.99,-75.99 15.02,-48.00 C 12.76,-40.03 11.25,-28.97 11.25,-0.00 C 11.25,28.97 12.76,40.03 15.02,48.00 C 22.99,75.99 70.24,119.85 102.50,141.84 C 102.50,141.84 102.50,141.84 102.50,141.84 C 239.43,235.18 421.54,203.44 487.57,85.27 C 502.45,58.66 510.11,29.48 510.11,0.00 Z"/>
      <path d="M 260.26,0.00 C 260.26,-53.84 210.93,-99.34 143.50,-100.16 C 88.59,-100.83 29.30,-67.51 20.64,-48.00 C 17.55,-41.03 15.44,-30.11 15.44,0.00 C 15.44,30.11 17.55,41.03 20.64,48.00 C 29.30,67.51 88.59,100.83 143.50,100.16 C 210.93,99.34 260.26,53.84 260.26,0.00 Z"/>
      <use transform="translate(-202.27, 86.53) rotate(116.29)" x="0" y="0" xlink:href="#needle"/>
      <use transform="translate(-202.27, -86.53) rotate(-116.29)" x="0" y="0" xlink:href="#needle"/>
      <use transform="translate(202.27, 86.53) rotate(-116.29)" x="0" y="0" xlink:href="#needle"/>
      <use transform="translate(202.27, -86.53) rotate(116.29)" x="0" y="0" xlink:href="#needle"/>
      <circle cx="0" cy="0" r="175" style="fill:none;stroke:#008000;stroke-width:3;opacity:0.95"/>
      <rect width="60" height="96" x="-30" y="-48" style="fill:#ffffff;stroke:none;"/>
      <rect width="60" height="48" x="-30" y="0" style="fill:#ff0000;stroke:none;"/>
      <rect width="60" height="96" x="-30" y="-48" style="fill:none;stroke:black;stroke-width:1.5"/>
      <text x="0" y="0" transform="translate(0, -4)" xml:space="preserve" style="font-size:62px;font-style:normal;font-variant:normal;font-weight:normal;font-stretch:normal;text-align:center;line-height:100%;writing-mode:lr-tb;text-anchor:middle;fill:#ff0000;fill-opacity:1;stroke:none;font-family:Calibri;-inkscape-font-specification:Calibri"><tspan x="0" y="0" id="tspan3180">S</tspan></text>
      <text x="0" y="0" transform="translate(0, 44)" xml:space="preserve" style="font-size:62px;font-style:normal;font-variant:normal;font-weight:normal;font-stretch:normal;text-align:center;line-height:100%;writing-mode:lr-tb;text-anchor:middle;fill:#ffffff;fill-opacity:1;stroke:none;font-family:Calibri;-inkscape-font-specification:Calibri"><tspan x="0" y="0" id="tspan3181">N</tspan></text>
      <path d="M 0,-500 L 0,500" style="fill:none;stroke:#ff00ff;stroke-width:3;stroke-linecap:butt;stroke-dasharray:24.1,6.0,3.0,6.0;stroke-dashoffset:0;"/>
    </g>
    <path d="M 0,-500 L 0,500" style="fill:none;stroke:#0000ff;stroke-width:1.9;stroke-linecap:butt;stroke-dasharray:15.3,3.8,1.9,3.8;stroke-dashoffset:0;"/>
    
    <text x="0" y="0" transform="translate(-110,-170)" id="text3224" xml:space="preserve" style="font-size:20.1734581px;font-style:normal;font-variant:normal;font-weight:normal;font-stretch:normal;text-align:start;line-height:100%;writing-mode:lr-tb;text-anchor:start;fill:#ff00ff;fill-opacity:1;stroke:none;stroke-width:1px;stroke-linecap:butt;stroke-linejoin:miter;stroke-opacity:1;font-family:Calibri;-inkscape-font-specification:Calibri"><tspan x="-60" y="5" id="tspan3226">地磁南极</tspan></text>
    <text x="0" y="0" transform="translate(82, 175)" id="text3228" xml:space="preserve" style="font-size:20.1734581px;font-style:normal;font-variant:normal;font-weight:normal;font-stretch:normal;text-align:start;line-height:100%;writing-mode:lr-tb;text-anchor:start;fill:#ff00ff;fill-opacity:1;stroke:none;stroke-width:1px;stroke-linecap:butt;stroke-linejoin:miter;stroke-opacity:1;font-family:Calibri;-inkscape-font-specification:Calibri"><tspan x="5" y="5" id="tspan3230">地磁北极</tspan></text>
    <text x="0" y="0" transform="translate(6,-181)" id="text3232" xml:space="preserve" style="font-size:20.1734581px;font-style:normal;font-variant:normal;font-weight:normal;font-stretch:normal;text-align:start;line-height:100%;writing-mode:lr-tb;text-anchor:start;fill:#0000ff;fill-opacity:1;stroke:none;stroke-width:1px;stroke-linecap:butt;stroke-linejoin:miter;stroke-opacity:1;font-family:Calibri;-inkscape-font-specification:Calibri"><tspan x="5" y="-5" id="tspan3234">地理北极</tspan></text>
    <text x="0" y="0" transform="translate(-25,194)" id="text3236" xml:space="preserve" style="font-size:20.1734581px;font-style:normal;font-variant:normal;font-weight:normal;font-stretch:normal;text-align:start;line-height:100%;writing-mode:lr-tb;text-anchor:start;fill:#0000ff;fill-opacity:1;stroke:none;stroke-width:1px;stroke-linecap:butt;stroke-linejoin:miter;stroke-opacity:1;font-family:Calibri;-inkscape-font-specification:Calibri"><tspan x="-70" y="10" id="tspan3238">地理南极</tspan></text>

  </g>
</svg>
