<svg xmlns="http://www.w3.org/2000/svg" width="297mm" height="210mm" xmlns:xlink="http://www.w3.org/1999/xlink"><defs><marker id="i" orient="auto" refX="0" refY="0" overflow="visible"><path d="m1.154 0-1.73 1v-2z" fill-rule="evenodd" stroke="#000" stroke-width="0.27"/></marker><path fill="none" stroke="#000" d="M212.197 201.431h-42.52" id="a"/><path fill="none" stroke="#000" d="M190.937 187.258v14.173" id="b"/><path fill="none" stroke="#000" d="M205.11 208.518h-28.346m21.26 7.086H183.85" id="c"/><path fill="none" stroke="#000" d="M131.102 72.953a12.4 12.4 0 0 1-12.401 12.401 12.4 12.4 0 0 1-12.402-12.401 12.4 12.4 0 0 1 12.402-12.402 12.4 12.4 0 0 1 12.401 12.402Z" id="d"/><path fill="none" stroke="#000" d="M325.583 123.478h-7.087m63.78 0h7.086" id="e"/><path fill="none" stroke="#000" d="M339.756 123.478c14.173-28.346 14.173 28.347 28.346 0" id="f"/><path fill="none" stroke="#000" d="M98.811 293.557h14.173m35.433 0h14.174" id="g"/><path fill="none" stroke="#000" d="M112.98 286.47h35.43v14.17h-35.43z" id="h"/><path fill="none" stroke="#000" d="M368.016-571.096h21.26" id="j"/></defs><g transform="translate(-46.91 1058.139)scale(1.55873)"><text style="line-height:125%" x="141.87" y="-496.32" xml:space="preserve" font-size="30.1" font-weight="400" letter-spacing="0" word-spacing="0" font-family="Sans"><tspan x="141.87" y="-496.32">V<tspan font-size="19.57" baseline-shift="sub">1</tspan></tspan></text><text style="line-height:125%" x="222.03" y="-354.62" xml:space="preserve" font-size="30.1" font-weight="400" letter-spacing="0" word-spacing="0" font-family="Sans"><tspan x="222.03" y="-354.62">V<tspan font-size="65%" baseline-shift="sub">3</tspan></tspan></text><text style="line-height:125%" x="272.43" y="-426.65" xml:space="preserve" font-size="30.1" font-weight="400" letter-spacing="0" word-spacing="0" font-family="Sans"><tspan x="272.43" y="-426.65">V<tspan font-size="65%" baseline-shift="sub">2</tspan></tspan></text><text style="line-height:125%" x="125.32" y="-406.86" xml:space="preserve" font-size="13.27" font-weight="400" letter-spacing="0" word-spacing="0" font-family="Sans"><tspan x="125.32" y="-406.86">n</tspan></text><text style="line-height:125%" x="222.78" y="-321.98" xml:space="preserve" font-size="40" font-weight="400" letter-spacing="0" word-spacing="0" font-family="Sans"><tspan x="222.78" y="-321.98">+</tspan></text><text style="line-height:125%" x="177.93" y="-482.47" transform="scale(1.2598 .79377)" xml:space="preserve" font-size="50.39" font-weight="400" letter-spacing="0" word-spacing="0" font-family="Sans"><tspan x="177.93" y="-482.47">-</tspan></text><text style="line-height:125%" x="190.77" y="-524.64" transform="scale(1.2598 .79377)" xml:space="preserve" font-size="50.39" font-weight="400" letter-spacing="0" word-spacing="0" font-family="Sans"><tspan x="190.77" y="-524.64">-</tspan></text><text style="line-height:125%" x="290.28" y="-447.81" xml:space="preserve" font-size="40" font-weight="400" letter-spacing="0" word-spacing="0" font-family="Sans"><tspan x="290.28" y="-447.81">+</tspan></text><text style="line-height:125%" x="114.4" y="-510.78" xml:space="preserve" font-size="40" font-weight="400" letter-spacing="0" word-spacing="0" font-family="Sans"><tspan x="114.4" y="-510.78">+</tspan></text><text style="line-height:125%" x="132.24" y="-588.29" transform="scale(1.2598 .79377)" xml:space="preserve" font-size="50.39" font-weight="400" letter-spacing="0" word-spacing="0" font-family="Sans"><tspan x="132.24" y="-588.29">-</tspan></text><g transform="translate(-35.56 -625.512)"><use stroke-width="3.54" stroke-linecap="square" href="#a"/><use stroke-width="3.54" href="#b"/><use stroke-width="3.54" stroke-linecap="square" href="#c"/></g><g transform="rotate(-90 27.607 -38.014)"><use style="marker:none" transform="translate(82.613 -43.27)scale(2.28571)" color="#000" stroke-width="1.55" stroke-linejoin="round" overflow="visible" href="#d"/><use stroke-width="3.54" stroke-linecap="square" href="#e"/><use stroke-width="3.54" stroke-linecap="square" href="#f"/></g><path d="M189.1-328.903v35.433" fill="none" stroke="#000" stroke-width="3.54"/><path d="M190.85-436.45h-37.204" fill="none" stroke="#000" stroke-width="3.63"/><path d="M189.1-399.769v-35.433" fill="none" stroke="#000" stroke-width="3.54"/><g transform="rotate(150 382.446 -188.088)"><use transform="translate(82.613 -43.27)scale(2.28571)" style="marker:none" color="#000" stroke-width="1.55" stroke-linejoin="round" overflow="visible" href="#d"/><use stroke-width="3.54" stroke-linecap="square" href="#e"/><use stroke-width="3.54" stroke-linecap="square" href="#f"/></g><path d="m282.052-489.895 30.75-17.813" fill="none" stroke="#000" stroke-width="3.56"/><path d="m220.674-454.455-30.686 17.716" fill="none" stroke="#000" stroke-width="3.54"/><g transform="rotate(30 1351.894 -598.088)"><use style="marker:none" transform="translate(82.613 -43.27)scale(2.28571)" color="#000" stroke-width="1.55" stroke-linejoin="round" overflow="visible" href="#d"/><use stroke-width="3.54" stroke-linecap="square" href="#e"/><use stroke-width="3.54" stroke-linecap="square" href="#f"/></g><path d="m96.02-489.975-33.513-19.35m95.027 54.865 30.686 17.717" fill="none" stroke="#000" stroke-width="3.54"/><text x="620.48" y="-405.85" transform="scale(.9996 1.0004)" xml:space="preserve" style="line-height:125%" font-size="13.28" font-weight="400" letter-spacing="0" word-spacing="0" font-family="Sans"><tspan x="620.48" y="-405.85">n</tspan></text><text x="524.33" y="-356.52" transform="scale(.9996 1.0004)" xml:space="preserve" style="line-height:125%" font-size="30.12" font-weight="400" letter-spacing="0" word-spacing="0" font-family="Sans"><tspan x="524.33" y="-356.52">Z<tspan font-size="19.58" baseline-shift="sub">y</tspan></tspan></text><g transform="matrix(0 -1.545 1.06877 0 251.765 -163.21)" stroke-width="2.76"><use stroke-linecap="square" href="#g"/><use style="marker:none" color="#000" stroke-linecap="square" stroke-linejoin="round" overflow="visible" href="#h"/></g><path d="M565.51-413.798v-21.284m0 120.612v21.283" fill="none" stroke="#000" stroke-width="3.55"/><g transform="matrix(-1.33695 .7725 -.53439 -.92631 958.53 -300.629)" stroke-width="2.76"><use stroke-linecap="square" href="#g"/><use style="marker:none" color="#000" stroke-linecap="square" stroke-linejoin="round" overflow="visible" href="#h"/></g><path d="m584.813-447.26-18.419 10.643" fill="none" stroke="#000" stroke-width="3.55"/><path d="m670.66-496.88 17.322-10.01" fill="none" stroke="#000" stroke-width="3.54"/><g transform="matrix(1.33695 .7725 -.53439 .92631 486.228 -844.482)" stroke-width="2.76"><use stroke-linecap="square" href="#g"/><use style="marker:none" color="#000" stroke-linecap="square" stroke-linejoin="round" overflow="visible" href="#h"/></g><path d="m546.201-447.263 18.418 10.642m-104.37-60.305L441.83-507.57" fill="none" stroke="#000" stroke-width="3.55"/><g transform="matrix(-1.00037 0 0 1.00115 790.226 -625.637)"><use stroke-width="3.54" stroke-linecap="square" href="#a"/><use stroke-width="3.54" href="#b"/><use stroke-width="3.54" stroke-linecap="square" href="#c"/></g><path d="M563.733-436.357h37.218" fill="none" stroke="#000" stroke-width="3.63"/><text x="504.54" y="-485.25" transform="scale(.9996 1.0004)" xml:space="preserve" style="line-height:125%" font-size="30.12" font-weight="400" letter-spacing="0" word-spacing="0" font-family="Sans"><tspan x="504.54" y="-485.25">Z<tspan font-size="19.58" baseline-shift="sub">y</tspan></tspan></text><text x="633.33" y="-440.66" transform="scale(.9996 1.0004)" xml:space="preserve" style="line-height:125%" font-size="30.12" font-weight="400" letter-spacing="0" word-spacing="0" font-family="Sans"><tspan x="633.33" y="-440.66">Z<tspan font-size="19.58" baseline-shift="sub">y</tspan></tspan></text><path d="M187.331-294.718h379.093" fill="none" stroke="#000" stroke-width="3.56"/><path d="m311.896-507.495 130.805.127" fill="none" stroke="#000" stroke-width="3.54"/><path d="M63.291-507.787v-49.152" fill="none" stroke="#000" stroke-width="3.51"/><path d="M61.551-556.923h627.165" fill="none" stroke="#000" stroke-width="3.56"/><path d="M686.913-556.859v51.415" fill="none" stroke="#000" stroke-width="3.67"/><g transform="translate(3.5 -2)"><use stroke-width="3.54" marker-end="url(#i)" href="#j"/><text style="line-height:125%" x="346.89" y="-563.79" transform="scale(.9996 1.0004)" xml:space="preserve" font-size="30.12" font-weight="400" letter-spacing="0" word-spacing="0" font-family="Sans"><tspan x="346.89" y="-563.79">I<tspan font-size="65%" baseline-shift="sub">1</tspan></tspan></text></g><g transform="translate(3.326 85.788)"><use stroke-width="3.54" marker-end="url(#i)" href="#j"/><text style="line-height:125%" x="346.89" y="-563.79" transform="scale(.9996 1.0004)" xml:space="preserve" font-size="30.12" font-weight="400" letter-spacing="0" word-spacing="0" font-family="Sans"><tspan x="346.89" y="-563.79">I<tspan font-size="65%" baseline-shift="sub">2</tspan></tspan></text></g><g transform="translate(3.51 257.374)"><use stroke-width="3.54" marker-end="url(#i)" href="#j"/><text style="line-height:125%" x="346.89" y="-563.79" transform="scale(.9996 1.0004)" xml:space="preserve" font-size="30.12" font-weight="400" letter-spacing="0" word-spacing="0" font-family="Sans"><tspan x="346.89" y="-563.79">I<tspan font-size="65%" baseline-shift="sub">3</tspan></tspan></text></g></g></svg>