<svg width="297mm" height="210mm"><defs><marker id="a" orient="auto" refX="0" refY="0" style="overflow:visible"><path d="M5.8 0-3 5V-5z" style="fill-rule:evenodd;stroke:#000;stroke-width:1pt;marker-start:none" transform="scale(.2)"/></marker></defs><g style="display:inline"><text xml:space="preserve" x="141.9" y="-496.3" style="font-size:30.10001564px;font-style:normal;font-weight:400;line-height:125%;letter-spacing:0;word-spacing:0;fill:#000;fill-opacity:1;stroke:none;font-family:Sans" transform="translate(-46.91 1058.139)scale(1.55873)"><tspan x="141.9" y="-496.3">V<tspan style="font-size:19.56528473px;baseline-shift:sub">1</tspan></tspan></text><text xml:space="preserve" x="222" y="-354.6" style="font-size:30.10001564px;font-style:normal;font-weight:400;line-height:125%;letter-spacing:0;word-spacing:0;fill:#000;fill-opacity:1;stroke:none;display:inline;font-family:Sans" transform="translate(-46.91 1058.139)scale(1.55873)"><tspan x="222" y="-354.6">V<tspan style="font-size:65.00091553%;baseline-shift:sub">3</tspan></tspan></text><text xml:space="preserve" x="272.4" y="-426.7" style="font-size:30.10001564px;font-style:normal;font-weight:400;line-height:125%;letter-spacing:0;word-spacing:0;fill:#000;fill-opacity:1;stroke:none;display:inline;font-family:Sans" transform="translate(-46.91 1058.139)scale(1.55873)"><tspan x="272.4" y="-426.7">V<tspan style="font-size:65.00091553%;baseline-shift:sub">2</tspan></tspan></text><text xml:space="preserve" x="125.3" y="-406.9" style="font-size:13.27186108px;font-style:normal;font-weight:400;line-height:125%;letter-spacing:0;word-spacing:0;fill:#000;fill-opacity:1;stroke:none;font-family:Sans" transform="translate(-46.91 1058.139)scale(1.55873)"><tspan x="125.3" y="-406.9">n</tspan></text><text xml:space="preserve" x="222.8" y="-322" style="font-size:40px;font-style:normal;font-weight:400;line-height:125%;letter-spacing:0;word-spacing:0;fill:#000;fill-opacity:1;stroke:none;font-family:Sans" transform="translate(-46.91 1058.139)scale(1.55873)"><tspan x="222.8" y="-322">+</tspan></text><text xml:space="preserve" x="177.9" y="-482.5" style="font-size:50.39223862px;font-style:normal;font-weight:400;line-height:125%;letter-spacing:0;word-spacing:0;fill:#000;fill-opacity:1;stroke:none;display:inline;font-family:Sans" transform="matrix(1.9637 0 0 1.23728 -46.91 1058.139)"><tspan x="177.9" y="-482.5">-</tspan></text><text xml:space="preserve" x="190.8" y="-524.6" style="font-size:50.39223862px;font-style:normal;font-weight:400;line-height:125%;letter-spacing:0;word-spacing:0;fill:#000;fill-opacity:1;stroke:none;display:inline;font-family:Sans" transform="matrix(1.9637 0 0 1.23728 -46.91 1058.139)"><tspan x="190.8" y="-524.6">-</tspan></text><text xml:space="preserve" x="290.3" y="-447.8" style="font-size:40px;font-style:normal;font-weight:400;line-height:125%;letter-spacing:0;word-spacing:0;fill:#000;fill-opacity:1;stroke:none;display:inline;font-family:Sans" transform="translate(-46.91 1058.139)scale(1.55873)"><tspan x="290.3" y="-447.8">+</tspan></text><text xml:space="preserve" x="114.4" y="-510.8" style="font-size:40px;font-style:normal;font-weight:400;line-height:125%;letter-spacing:0;word-spacing:0;fill:#000;fill-opacity:1;stroke:none;display:inline;font-family:Sans" transform="translate(-46.91 1058.139)scale(1.55873)"><tspan x="114.4" y="-510.8">+</tspan></text><text xml:space="preserve" x="132.2" y="-588.3" style="font-size:50.39223862px;font-style:normal;font-weight:400;line-height:125%;letter-spacing:0;word-spacing:0;fill:#000;fill-opacity:1;stroke:none;display:inline;font-family:Sans" transform="matrix(1.9637 0 0 1.23728 -46.91 1058.139)"><tspan x="132.2" y="-588.3">-</tspan></text><path d="M212.2 201.4h-42.5" style="fill:none;stroke:#000;stroke-width:3.54330707;stroke-linecap:square;stroke-linejoin:miter;stroke-miterlimit:4;stroke-opacity:1;stroke-dasharray:none;display:inline" transform="translate(-102.337 83.135)scale(1.55873)"/><path d="M191 187.3v14.1" style="fill:none;stroke:#000;stroke-width:3.54330587;stroke-linecap:butt;stroke-linejoin:miter;stroke-miterlimit:4;stroke-opacity:1;stroke-dasharray:none;display:inline" transform="translate(-102.337 83.135)scale(1.55873)"/><path d="M205.1 208.5h-28.3m21.2 7.1h-14" style="fill:none;stroke:#000;stroke-width:3.54330707;stroke-linecap:square;stroke-linejoin:miter;stroke-miterlimit:4;stroke-opacity:1;stroke-dasharray:none;display:inline" transform="translate(-102.337 83.135)scale(1.55873)"/><path d="M131.1 73a12.4 12.4 0 0 1-12.4 12.4A12.4 12.4 0 0 1 106.3 73a12.4 12.4 0 0 1 12.4-12.4A12.4 12.4 0 0 1 131.1 73Z" style="color:#000;fill:none;stroke:#000;stroke-width:1.55019701;stroke-linecap:butt;stroke-linejoin:round;stroke-miterlimit:4;stroke-opacity:1;stroke-dasharray:none;stroke-dashoffset:0;marker:none;visibility:visible;display:inline;overflow:visible" transform="rotate(-90 450.538 462.608)scale(3.5628)"/><path d="M325.6 123.5h-7.1m63.8 0h7" style="fill:none;stroke:#000;stroke-width:3.54330707;stroke-linecap:square;stroke-linejoin:miter;stroke-miterlimit:4;stroke-opacity:1;stroke-dasharray:none" transform="rotate(-90 548.647 493.27)scale(1.55873)"/><path d="M339.8 123.5c14.1-28.4 14.1 28.3 28.3 0" style="fill:none;stroke:#000;stroke-width:3.54330587;stroke-linecap:square;stroke-linejoin:miter;stroke-miterlimit:4;stroke-opacity:1;stroke-dasharray:none;marker-end:none" transform="rotate(-90 548.647 493.27)scale(1.55873)"/><path d="M189.1-328.9v35.4" style="fill:none;stroke:#000;stroke-width:3.54330707;stroke-linecap:butt;stroke-linejoin:miter;stroke-miterlimit:4;stroke-opacity:1;stroke-dasharray:none" transform="translate(-46.91 1058.139)scale(1.55873)"/><path d="M190.9-436.5h-37.3" style="fill:none;stroke:#000;stroke-width:3.6307838;stroke-linecap:butt;stroke-linejoin:miter;stroke-miterlimit:4;stroke-opacity:1;stroke-dasharray:none" transform="translate(-46.91 1058.139)scale(1.55873)"/><path d="M189.1-399.8v-35.4" style="fill:none;stroke:#000;stroke-width:3.54330707;stroke-linecap:butt;stroke-linejoin:miter;stroke-miterlimit:4;stroke-opacity:1;stroke-dasharray:none" transform="translate(-46.91 1058.139)scale(1.55873)"/><path d="M131.1 73a12.4 12.4 0 0 1-12.4 12.4A12.4 12.4 0 0 1 106.3 73a12.4 12.4 0 0 1 12.4-12.4A12.4 12.4 0 0 1 131.1 73Z" style="color:#000;fill:none;stroke:#000;stroke-width:1.55019701;stroke-linecap:butt;stroke-linejoin:round;stroke-miterlimit:4;stroke-opacity:1;stroke-dasharray:none;stroke-dashoffset:0;marker:none;visibility:visible;display:inline;overflow:visible" transform="rotate(150 375.562 280.581)scale(3.5628)"/><path d="M325.6 123.5h-7.1m63.8 0h7" style="fill:none;stroke:#000;stroke-width:3.54330707;stroke-linecap:square;stroke-linejoin:miter;stroke-miterlimit:4;stroke-opacity:1;stroke-dasharray:none" transform="rotate(150 430.912 229.606)scale(1.55873)"/><path d="M339.8 123.5c14.1-28.4 14.1 28.3 28.3 0" style="fill:none;stroke:#000;stroke-width:3.54330587;stroke-linecap:square;stroke-linejoin:miter;stroke-miterlimit:4;stroke-opacity:1;stroke-dasharray:none;marker-end:none" transform="rotate(150 430.912 229.606)scale(1.55873)"/><path d="m282-489.9 30.8-17.8" style="fill:none;stroke:#000;stroke-width:3.55670285;stroke-linecap:butt;stroke-linejoin:miter;stroke-miterlimit:4;stroke-opacity:1;stroke-dasharray:none" transform="translate(-46.91 1058.139)scale(1.55873)"/><path d="M220.7-454.5 190-436.7" style="fill:none;stroke:#000;stroke-width:3.54330707;stroke-linecap:butt;stroke-linejoin:miter;stroke-miterlimit:4;stroke-opacity:1;stroke-dasharray:none" transform="translate(-46.91 1058.139)scale(1.55873)"/><path d="M131.1 73a12.4 12.4 0 0 1-12.4 12.4A12.4 12.4 0 0 1 106.3 73a12.4 12.4 0 0 1 12.4-12.4A12.4 12.4 0 0 1 131.1 73Z" style="color:#000;fill:none;stroke:#000;stroke-width:1.55019701;stroke-linecap:butt;stroke-linejoin:round;stroke-miterlimit:4;stroke-opacity:1;stroke-dasharray:none;stroke-dashoffset:0;marker:none;visibility:visible;display:inline;overflow:visible" transform="rotate(30 170.742 -216.708)scale(3.5628)"/><path d="M325.6 123.5h-7.1m63.8 0h7" style="fill:none;stroke:#000;stroke-width:3.54330707;stroke-linecap:square;stroke-linejoin:miter;stroke-miterlimit:4;stroke-opacity:1;stroke-dasharray:none" transform="rotate(30 109.269 -490.722)scale(1.55873)"/><path d="M339.8 123.5c14.1-28.4 14.1 28.3 28.3 0" style="fill:none;stroke:#000;stroke-width:3.54330587;stroke-linecap:square;stroke-linejoin:miter;stroke-miterlimit:4;stroke-opacity:1;stroke-dasharray:none;marker-end:none" transform="rotate(30 109.269 -490.722)scale(1.55873)"/><path d="m96-490-33.5-19.3m95 54.8 30.7 17.8" style="fill:none;stroke:#000;stroke-width:3.54330707;stroke-linecap:butt;stroke-linejoin:miter;stroke-miterlimit:4;stroke-opacity:1;stroke-dasharray:none" transform="translate(-46.91 1058.139)scale(1.55873)"/><text xml:space="preserve" x="620.5" y="-405.9" style="font-size:13.28196716px;font-style:normal;font-weight:400;line-height:125%;letter-spacing:0;word-spacing:0;fill:#000;fill-opacity:1;stroke:none;display:inline;font-family:Sans" transform="matrix(1.55812 0 0 1.55934 -46.91 1058.139)"><tspan x="620.5" y="-405.9">n</tspan></text><text xml:space="preserve" x="524.3" y="-356.5" style="font-size:30.12293625px;font-style:normal;font-weight:400;line-height:125%;letter-spacing:0;word-spacing:0;fill:#000;fill-opacity:1;stroke:none;display:inline;font-family:Sans" transform="matrix(1.55812 0 0 1.55934 -46.91 1058.139)"><tspan x="524.3" y="-356.5">Z<tspan style="font-size:19.58018494px;baseline-shift:sub">y</tspan></tspan></text><g style="stroke-width:2.75952244;stroke-miterlimit:4;stroke-dasharray:none"><path d="M98.8 293.6H113m35.4 0h14.2" style="fill:none;stroke:#000;stroke-width:2.75952244;stroke-linecap:square;stroke-linejoin:miter;stroke-miterlimit:4;stroke-opacity:1;stroke-dasharray:none" transform="matrix(0 -2.40823 1.66592 0 345.523 803.738)"/><path d="M113 286.5h35.4v14.2H113z" style="color:#000;fill:none;stroke:#000;stroke-width:2.75952244;stroke-linecap:square;stroke-linejoin:round;stroke-miterlimit:4;stroke-opacity:1;stroke-dasharray:none;stroke-dashoffset:0;marker:none;visibility:visible;display:inline;overflow:visible" transform="matrix(0 -2.40823 1.66592 0 345.523 803.738)"/></g><path d="M565.5-413.8v-21.3m0 120.6v21.3" style="fill:none;stroke:#000;stroke-width:3.54600525;stroke-linecap:butt;stroke-linejoin:miter;stroke-miterlimit:4;stroke-opacity:1;stroke-dasharray:none" transform="translate(-46.91 1058.139)scale(1.55873)"/><g style="stroke-width:2.75952244;stroke-miterlimit:4;stroke-dasharray:none"><path d="M98.8 293.6H113m35.4 0h14.2" style="fill:none;stroke:#000;stroke-width:2.75952244;stroke-linecap:square;stroke-linejoin:miter;stroke-miterlimit:4;stroke-opacity:1;stroke-dasharray:none" transform="matrix(-2.08395 1.20411 -.83296 -1.44387 1447.18 589.54)"/><path d="M113 286.5h35.4v14.2H113z" style="color:#000;fill:none;stroke:#000;stroke-width:2.75952244;stroke-linecap:square;stroke-linejoin:round;stroke-miterlimit:4;stroke-opacity:1;stroke-dasharray:none;stroke-dashoffset:0;marker:none;visibility:visible;display:inline;overflow:visible" transform="matrix(-2.08395 1.20411 -.83296 -1.44387 1447.18 589.54)"/></g><path d="m584.8-447.3-18.4 10.7" style="fill:none;stroke:#000;stroke-width:3.54600525;stroke-linecap:butt;stroke-linejoin:miter;stroke-miterlimit:4;stroke-opacity:1;stroke-dasharray:none" transform="translate(-46.91 1058.139)scale(1.55873)"/><path d="m670.7-496.9 17.3-10" style="fill:none;stroke:#000;stroke-width:3.54330707;stroke-linecap:butt;stroke-linejoin:miter;stroke-miterlimit:4;stroke-opacity:1;stroke-dasharray:none" transform="translate(-46.91 1058.139)scale(1.55873)"/><g style="stroke-width:2.75952244;stroke-miterlimit:4;stroke-dasharray:none"><path d="M98.8 293.6H113m35.4 0h14.2" style="fill:none;stroke:#000;stroke-width:2.75952244;stroke-linecap:square;stroke-linejoin:miter;stroke-miterlimit:4;stroke-opacity:1;stroke-dasharray:none" transform="matrix(2.08395 1.20411 -.83296 1.44387 710.989 -258.18)"/><path d="M113 286.5h35.4v14.2H113z" style="color:#000;fill:none;stroke:#000;stroke-width:2.75952244;stroke-linecap:square;stroke-linejoin:round;stroke-miterlimit:4;stroke-opacity:1;stroke-dasharray:none;stroke-dashoffset:0;marker:none;visibility:visible;display:inline;overflow:visible" transform="matrix(2.08395 1.20411 -.83296 1.44387 710.989 -258.18)"/></g><path d="m546.2-447.3 18.4 10.7M460.2-497l-18.4-10.6" style="fill:none;stroke:#000;stroke-width:3.54600525;stroke-linecap:butt;stroke-linejoin:miter;stroke-miterlimit:4;stroke-opacity:1;stroke-dasharray:none" transform="translate(-46.91 1058.139)scale(1.55873)"/><path d="M212.2 201.4h-42.5" style="fill:none;stroke:#000;stroke-width:3.54330707;stroke-linecap:square;stroke-linejoin:miter;stroke-miterlimit:4;stroke-opacity:1;stroke-dasharray:none;display:inline" transform="matrix(-1.5593 0 0 1.56053 1184.839 82.94)"/><path d="M191 187.3v14.1" style="fill:none;stroke:#000;stroke-width:3.54330587;stroke-linecap:butt;stroke-linejoin:miter;stroke-miterlimit:4;stroke-opacity:1;stroke-dasharray:none;display:inline" transform="matrix(-1.5593 0 0 1.56053 1184.839 82.94)"/><path d="M205.1 208.5h-28.3m21.2 7.1h-14" style="fill:none;stroke:#000;stroke-width:3.54330707;stroke-linecap:square;stroke-linejoin:miter;stroke-miterlimit:4;stroke-opacity:1;stroke-dasharray:none;display:inline" transform="matrix(-1.5593 0 0 1.56053 1184.839 82.94)"/><path d="M563.7-436.4H601" style="fill:none;stroke:#000;stroke-width:3.6335485;stroke-linecap:butt;stroke-linejoin:miter;stroke-miterlimit:4;stroke-opacity:1;stroke-dasharray:none" transform="translate(-46.91 1058.139)scale(1.55873)"/><text xml:space="preserve" x="504.5" y="-485.2" style="font-size:30.12293625px;font-style:normal;font-weight:400;line-height:125%;letter-spacing:0;word-spacing:0;fill:#000;fill-opacity:1;stroke:none;display:inline;font-family:Sans" transform="matrix(1.55812 0 0 1.55934 -46.91 1058.139)"><tspan x="504.5" y="-485.2">Z<tspan style="font-size:19.58018494px;baseline-shift:sub">y</tspan></tspan></text><text xml:space="preserve" x="633.3" y="-440.7" style="font-size:30.12293625px;font-style:normal;font-weight:400;line-height:125%;letter-spacing:0;word-spacing:0;fill:#000;fill-opacity:1;stroke:none;display:inline;font-family:Sans" transform="matrix(1.55812 0 0 1.55934 -46.91 1058.139)"><tspan x="633.3" y="-440.7">Z<tspan style="font-size:19.58018494px;baseline-shift:sub">y</tspan></tspan></text><path d="M187.3-294.7h379.1" style="fill:none;stroke:#000;stroke-width:3.5597899;stroke-linecap:butt;stroke-linejoin:miter;stroke-miterlimit:4;stroke-opacity:1;stroke-dasharray:none" transform="translate(-46.91 1058.139)scale(1.55873)"/><path d="m311.9-507.5 130.8.1" style="fill:none;stroke:#000;stroke-width:3.53879166;stroke-linecap:butt;stroke-linejoin:miter;stroke-miterlimit:4;stroke-opacity:1;stroke-dasharray:none" transform="translate(-46.91 1058.139)scale(1.55873)"/><path d="M63.3-507.8v-49.1" style="fill:none;stroke:#000;stroke-width:3.51089811;stroke-linecap:butt;stroke-linejoin:miter;stroke-miterlimit:4;stroke-opacity:1;stroke-dasharray:none" transform="translate(-46.91 1058.139)scale(1.55873)"/><path d="M61.6-557h627.1" style="fill:none;stroke:#000;stroke-width:3.56343412;stroke-linecap:butt;stroke-linejoin:miter;stroke-miterlimit:4;stroke-opacity:1;stroke-dasharray:none" transform="translate(-46.91 1058.139)scale(1.55873)"/><path d="M687-556.9v51.5" style="fill:none;stroke:#000;stroke-width:3.67247391;stroke-linecap:butt;stroke-linejoin:miter;stroke-miterlimit:4;stroke-opacity:1;stroke-dasharray:none" transform="translate(-46.91 1058.139)scale(1.55873)"/><path d="M368-571.1h21.3" style="fill:none;stroke:#000;stroke-width:3.54330587;stroke-linecap:butt;stroke-linejoin:miter;stroke-miterlimit:4;stroke-opacity:1;stroke-dasharray:none;marker-end:url(#a);display:inline" transform="translate(-41.454 1055.021)scale(1.55873)"/><text xml:space="preserve" x="346.9" y="-563.8" style="font-size:30.12293625px;font-style:normal;font-weight:400;line-height:125%;letter-spacing:0;word-spacing:0;fill:#000;fill-opacity:1;stroke:none;display:inline;font-family:Sans" transform="matrix(1.55812 0 0 1.55934 -41.454 1055.021)"><tspan x="346.9" y="-563.8">I<tspan style="font-size:65.00091553%;baseline-shift:sub">1</tspan></tspan></text><g style="display:inline"><path d="M368-571.1h21.3" style="fill:none;stroke:#000;stroke-width:3.54330587;stroke-linecap:butt;stroke-linejoin:miter;stroke-miterlimit:4;stroke-opacity:1;stroke-dasharray:none;marker-end:url(#a);display:inline" transform="translate(-41.725 1191.859)scale(1.55873)"/><text xml:space="preserve" x="346.9" y="-563.8" style="font-size:30.12293625px;font-style:normal;font-weight:400;line-height:125%;letter-spacing:0;word-spacing:0;fill:#000;fill-opacity:1;stroke:none;display:inline;font-family:Sans" transform="matrix(1.55812 0 0 1.55934 -41.725 1191.859)"><tspan x="346.9" y="-563.8">I<tspan style="font-size:65.00091553%;baseline-shift:sub">2</tspan></tspan></text></g><g style="display:inline"><path d="M368-571.1h21.3" style="fill:none;stroke:#000;stroke-width:3.54330587;stroke-linecap:butt;stroke-linejoin:miter;stroke-miterlimit:4;stroke-opacity:1;stroke-dasharray:none;marker-end:url(#a);display:inline" transform="translate(-41.44 1459.314)scale(1.55873)"/><text xml:space="preserve" x="346.9" y="-563.8" style="font-size:30.12293625px;font-style:normal;font-weight:400;line-height:125%;letter-spacing:0;word-spacing:0;fill:#000;fill-opacity:1;stroke:none;display:inline;font-family:Sans" transform="matrix(1.55812 0 0 1.55934 -41.44 1459.314)"><tspan x="346.9" y="-563.8">I<tspan style="font-size:65.00091553%;baseline-shift:sub">3</tspan></tspan></text></g></g></svg>