<svg xmlns="http://www.w3.org/2000/svg" width="297mm" height="210mm"><defs><path id="svg__github_work__a" fill="none" stroke="#000" d="M212.197 201.431h-42.52"/><path id="svg__github_work__b" fill="none" stroke="#000" d="M190.937 187.258v14.173"/><path id="svg__github_work__c" fill="none" stroke="#000" d="M205.11 208.518h-28.346m21.26 7.086H183.85"/><path id="svg__github_work__d" fill="none" stroke="#000" d="M131.102 72.953a12.4 12.4 0 0 1-12.401 12.401 12.4 12.4 0 0 1-12.402-12.401 12.4 12.4 0 0 1 12.402-12.402 12.4 12.4 0 0 1 12.401 12.402Z"/><path id="svg__github_work__e" fill="none" stroke="#000" d="M325.583 123.478h-7.087m63.78 0h7.086"/><path id="svg__github_work__f" fill="none" stroke="#000" d="M339.756 123.478c14.173-28.346 14.173 28.347 28.346 0"/><path id="svg__github_work__g" fill="none" stroke="#000" d="M98.811 293.557h14.173m35.433 0h14.174"/><path id="svg__github_work__h" fill="none" stroke="#000" d="M112.98 286.47h35.43v14.17h-35.43z"/><path id="svg__github_work__j" fill="none" stroke="#000" d="M368.016-571.096h21.26"/><marker id="svg__github_work__i" orient="auto" overflow="visible" refX="0" refY="0"><path fill-rule="evenodd" stroke="#000" stroke-width="0.27" d="m1.154 0-1.73 1v-2z"/></marker></defs><text xml:space="preserve" x="141.87" y="-496.32" font-family="Sans" font-size="30.1" font-weight="400" letter-spacing="0" style="line-height:125%" transform="translate(-46.91 1058.139)scale(1.55873)" word-spacing="0"><tspan x="141.87" y="-496.32">V<tspan baseline-shift="sub" font-size="19.57">1</tspan></tspan></text><text xml:space="preserve" x="222.03" y="-354.62" font-family="Sans" font-size="30.1" font-weight="400" letter-spacing="0" style="line-height:125%" transform="translate(-46.91 1058.139)scale(1.55873)" word-spacing="0"><tspan x="222.03" y="-354.62">V<tspan baseline-shift="sub" font-size="65%">3</tspan></tspan></text><text xml:space="preserve" x="272.43" y="-426.65" font-family="Sans" font-size="30.1" font-weight="400" letter-spacing="0" style="line-height:125%" transform="translate(-46.91 1058.139)scale(1.55873)" word-spacing="0"><tspan x="272.43" y="-426.65">V<tspan baseline-shift="sub" font-size="65%">2</tspan></tspan></text><text xml:space="preserve" x="125.32" y="-406.86" font-family="Sans" font-size="13.27" font-weight="400" letter-spacing="0" style="line-height:125%" transform="translate(-46.91 1058.139)scale(1.55873)" word-spacing="0"><tspan x="125.32" y="-406.86">n</tspan></text><text xml:space="preserve" x="222.78" y="-321.98" font-family="Sans" font-size="40" font-weight="400" letter-spacing="0" style="line-height:125%" transform="translate(-46.91 1058.139)scale(1.55873)" word-spacing="0"><tspan x="222.78" y="-321.98">+</tspan></text><text xml:space="preserve" x="177.93" y="-482.47" font-family="Sans" font-size="50.39" font-weight="400" letter-spacing="0" style="line-height:125%" transform="matrix(1.963688 0 0 1.237273 -46.91 1058.139)" word-spacing="0"><tspan x="177.93" y="-482.47">-</tspan></text><text xml:space="preserve" x="190.77" y="-524.64" font-family="Sans" font-size="50.39" font-weight="400" letter-spacing="0" style="line-height:125%" transform="matrix(1.963688 0 0 1.237273 -46.91 1058.139)" word-spacing="0"><tspan x="190.77" y="-524.64">-</tspan></text><text xml:space="preserve" x="290.28" y="-447.81" font-family="Sans" font-size="40" font-weight="400" letter-spacing="0" style="line-height:125%" transform="translate(-46.91 1058.139)scale(1.55873)" word-spacing="0"><tspan x="290.28" y="-447.81">+</tspan></text><text xml:space="preserve" x="114.4" y="-510.78" font-family="Sans" font-size="40" font-weight="400" letter-spacing="0" style="line-height:125%" transform="translate(-46.91 1058.139)scale(1.55873)" word-spacing="0"><tspan x="114.4" y="-510.78">+</tspan></text><text xml:space="preserve" x="132.24" y="-588.29" font-family="Sans" font-size="50.39" font-weight="400" letter-spacing="0" style="line-height:125%" transform="matrix(1.963688 0 0 1.237273 -46.91 1058.139)" word-spacing="0"><tspan x="132.24" y="-588.29">-</tspan></text><g stroke-width="3.54" transform="translate(-102.3384 83.1347)scale(1.55873)"><use stroke-linecap="square" href="#svg__github_work__a"/><use href="#svg__github_work__b"/><use stroke-linecap="square" href="#svg__github_work__c"/></g><g transform="rotate(-90 548.6464 493.271)scale(1.55873)"><use stroke-linejoin="round" stroke-width="1.55" color="#000" href="#svg__github_work__d" overflow="visible" style="marker:none" transform="translate(82.613 -43.27)scale(2.28571)"/><use stroke-linecap="square" stroke-width="3.54" href="#svg__github_work__e"/><use stroke-linecap="square" stroke-width="3.54" href="#svg__github_work__f"/></g><path fill="none" stroke="#000" stroke-width="3.54" d="M189.1-328.903v35.433" transform="translate(-46.91 1058.139)scale(1.55873)"/><path fill="none" stroke="#000" stroke-width="3.63" d="M190.85-436.45h-37.204" transform="translate(-46.91 1058.139)scale(1.55873)"/><path fill="none" stroke="#000" stroke-width="3.54" d="M189.1-399.769v-35.433" transform="translate(-46.91 1058.139)scale(1.55873)"/><g transform="rotate(150 430.9113 229.6063)scale(1.55873)"><use stroke-linejoin="round" stroke-width="1.55" color="#000" href="#svg__github_work__d" overflow="visible" style="marker:none" transform="translate(82.613 -43.27)scale(2.28571)"/><use stroke-linecap="square" stroke-width="3.54" href="#svg__github_work__e"/><use stroke-linecap="square" stroke-width="3.54" href="#svg__github_work__f"/></g><path fill="none" stroke="#000" stroke-width="3.56" d="m282.052-489.895 30.75-17.813" transform="translate(-46.91 1058.139)scale(1.55873)"/><path fill="none" stroke="#000" stroke-width="3.54" d="m220.674-454.455-30.686 17.716" transform="translate(-46.91 1058.139)scale(1.55873)"/><g transform="rotate(30 109.2685 -490.7235)scale(1.55873)"><use stroke-linejoin="round" stroke-width="1.55" color="#000" href="#svg__github_work__d" overflow="visible" style="marker:none" transform="translate(82.613 -43.27)scale(2.28571)"/><use stroke-linecap="square" stroke-width="3.54" href="#svg__github_work__e"/><use stroke-linecap="square" stroke-width="3.54" href="#svg__github_work__f"/></g><path fill="none" stroke="#000" stroke-width="3.54" d="m96.02-489.975-33.513-19.35m95.027 54.865 30.686 17.717" transform="translate(-46.91 1058.139)scale(1.55873)"/><text xml:space="preserve" x="620.48" y="-405.85" font-family="Sans" font-size="13.28" font-weight="400" letter-spacing="0" style="line-height:125%" transform="matrix(1.558107 0 0 1.559353 -46.91 1058.139)" word-spacing="0"><tspan x="620.48" y="-405.85">n</tspan></text><text xml:space="preserve" x="524.33" y="-356.52" font-family="Sans" font-size="30.12" font-weight="400" letter-spacing="0" style="line-height:125%" transform="matrix(1.558107 0 0 1.559353 -46.91 1058.139)" word-spacing="0"><tspan x="524.33" y="-356.52">Z<tspan baseline-shift="sub" font-size="19.58">y</tspan></tspan></text><g stroke-linecap="square" stroke-width="2.76" transform="matrix(0 -2.40824 1.66592 0 345.5237 803.7387)"><use href="#svg__github_work__g"/><use stroke-linejoin="round" color="#000" href="#svg__github_work__h" overflow="visible" style="marker:none"/></g><path fill="none" stroke="#000" stroke-width="3.55" d="M565.51-413.798v-21.284m0 120.612v21.283" transform="translate(-46.91 1058.139)scale(1.55873)"/><g stroke-linecap="square" stroke-width="2.76" transform="matrix(-2.08394 1.20412 -.83297 -1.44387 1447.1795 589.5396)"><use href="#svg__github_work__g"/><use stroke-linejoin="round" color="#000" href="#svg__github_work__h" overflow="visible" style="marker:none"/></g><path fill="none" stroke="#000" stroke-width="3.55" d="m584.813-447.26-18.419 10.643" transform="translate(-46.91 1058.139)scale(1.55873)"/><path fill="none" stroke="#000" stroke-width="3.54" d="m670.66-496.88 17.322-10.01" transform="translate(-46.91 1058.139)scale(1.55873)"/><g stroke-linecap="square" stroke-width="2.76" transform="matrix(2.08394 1.20412 -.83297 1.44387 710.9882 -258.1804)"><use href="#svg__github_work__g"/><use stroke-linejoin="round" color="#000" href="#svg__github_work__h" overflow="visible" style="marker:none"/></g><path fill="none" stroke="#000" stroke-width="3.55" d="m546.201-447.263 18.418 10.642m-104.37-60.305L441.83-507.57" transform="translate(-46.91 1058.139)scale(1.55873)"/><g stroke-width="3.54" transform="matrix(-1.5593 0 0 1.56052 1184.839 82.9398)"><use stroke-linecap="square" href="#svg__github_work__a"/><use href="#svg__github_work__b"/><use stroke-linecap="square" href="#svg__github_work__c"/></g><path fill="none" stroke="#000" stroke-width="3.63" d="M563.733-436.357h37.218" transform="translate(-46.91 1058.139)scale(1.55873)"/><text xml:space="preserve" x="504.54" y="-485.25" font-family="Sans" font-size="30.12" font-weight="400" letter-spacing="0" style="line-height:125%" transform="matrix(1.558107 0 0 1.559353 -46.91 1058.139)" word-spacing="0"><tspan x="504.54" y="-485.25">Z<tspan baseline-shift="sub" font-size="19.58">y</tspan></tspan></text><text xml:space="preserve" x="633.33" y="-440.66" font-family="Sans" font-size="30.12" font-weight="400" letter-spacing="0" style="line-height:125%" transform="matrix(1.558107 0 0 1.559353 -46.91 1058.139)" word-spacing="0"><tspan x="633.33" y="-440.66">Z<tspan baseline-shift="sub" font-size="19.58">y</tspan></tspan></text><path fill="none" stroke="#000" stroke-width="3.56" d="M187.331-294.718h379.093" transform="translate(-46.91 1058.139)scale(1.55873)"/><path fill="none" stroke="#000" stroke-width="3.54" d="m311.896-507.495 130.805.127" transform="translate(-46.91 1058.139)scale(1.55873)"/><path fill="none" stroke="#000" stroke-width="3.51" d="M63.291-507.787v-49.152" transform="translate(-46.91 1058.139)scale(1.55873)"/><path fill="none" stroke="#000" stroke-width="3.56" d="M61.551-556.923h627.165" transform="translate(-46.91 1058.139)scale(1.55873)"/><path fill="none" stroke="#000" stroke-width="3.67" d="M686.913-556.859v51.415" transform="translate(-46.91 1058.139)scale(1.55873)"/><g transform="translate(-41.4544 1055.0215)scale(1.55873)"><use stroke-width="3.54" marker-end="url(#svg__github_work__i)" href="#svg__github_work__j"/><text xml:space="preserve" x="346.89" y="-563.79" font-family="Sans" font-size="30.12" font-weight="400" letter-spacing="0" style="line-height:125%" transform="scale(.9996 1.0004)" word-spacing="0"><tspan x="346.89" y="-563.79">I<tspan baseline-shift="sub" font-size="65%">1</tspan></tspan></text></g><g transform="translate(-41.7257 1191.8593)scale(1.55873)"><use stroke-width="3.54" marker-end="url(#svg__github_work__i)" href="#svg__github_work__j"/><text xml:space="preserve" x="346.89" y="-563.79" font-family="Sans" font-size="30.12" font-weight="400" letter-spacing="0" style="line-height:125%" transform="scale(.9996 1.0004)" word-spacing="0"><tspan x="346.89" y="-563.79">I<tspan baseline-shift="sub" font-size="65%">2</tspan></tspan></text></g><g transform="translate(-41.4389 1459.3156)scale(1.55873)"><use stroke-width="3.54" marker-end="url(#svg__github_work__i)" href="#svg__github_work__j"/><text xml:space="preserve" x="346.89" y="-563.79" font-family="Sans" font-size="30.12" font-weight="400" letter-spacing="0" style="line-height:125%" transform="scale(.9996 1.0004)" word-spacing="0"><tspan x="346.89" y="-563.79">I<tspan baseline-shift="sub" font-size="65%">3</tspan></tspan></text></g></svg>