<?xml version="1.0" encoding="UTF-8"?><svg xmlns="http://www.w3.org/2000/svg" width="813.36" height="476" viewBox="0 0 610.02 357" xmlns:xlink="http://www.w3.org/1999/xlink"><defs><clipPath id="b"><path d="M419 26h22v22h-22Zm0 0"/></clipPath><clipPath id="c"><use href="#a"/></clipPath><clipPath id="d"><path d="M445 24h5v10h-5Zm0 0"/></clipPath><clipPath id="e"><use href="#a"/></clipPath><path d="M414.508 61.566h38.504V15.055l-38.504-.004Zm0 0" id="a"/></defs><path d="M389.718 1426.28v-330.02m0-93.752V672.514" transform="matrix(.14643 0 0 -.1465 0 357.698)" fill="none" stroke-width="15" stroke-linecap="round" stroke-linejoin="round" stroke="#000" stroke-miterlimit="10"/><path d="M62.34 322.352a5.271 5.271 0 1 1-10.543 0c0-2.91 2.36-5.274 5.27-5.274a5.274 5.274 0 0 1 5.273 5.274M32.664 196.277c-.062.27-.207.403-.445.403q-.03.029-.149.027-.076 0-.117-.027h-.133q-.387-.001-.386-.29v-.1c.117-.708.18-1.364.18-1.97v-.547q-.093-1.103-.497-1.902a2.9 2.9 0 0 0-1.191-1.238q-.785-.436-1.985-.438a3.6 3.6 0 0 0-1.414.305 5.3 5.3 0 0 0-1.34.816q-.68.563-1.109 1.274a5.5 5.5 0 0 0-.621 1.457 4.3 4.3 0 0 0-.164 1.023q0 .674.297 1.293.427 1.039 1.539 1.32l3.402.95a4.1 4.1 0 0 1 1.594.87q.658.598.992 1.411t.39 1.774v.257q.001.838-.237 1.715a8.5 8.5 0 0 1-.989 2.328A8.8 8.8 0 0 1 28.594 209a8.4 8.4 0 0 1-2.11 1.316 5.75 5.75 0 0 1-2.304.496q-1.701 0-2.899-.546-1.201-.547-1.777-1.38l-1.465 1.739q-.194.188-.398.188h-.09c-.246 0-.383-.094-.403-.29 0-.054.016-.109.047-.156l1.715-6.73q.09-.4.52-.418h.324c.121.004.226.05.328.144q.06.117.059.203-.001.058-.032.145a8 8 0 0 0-.265 1.926q-.001 1.424.695 2.414 1.113 1.598 3.879 1.597.696 0 1.414-.324.72-.322 1.34-.87a6.4 6.4 0 0 0 1.144-1.4 6.2 6.2 0 0 0 .692-1.59 5.7 5.7 0 0 0 .148-1.237q0-.716-.195-1.38c-.293-.738-.844-1.21-1.64-1.425l-3.36-.95a3.9 3.9 0 0 1-1.555-.796 3.9 3.9 0 0 1-1.015-1.313 4.6 4.6 0 0 1-.422-1.683v-.317c0-.48.058-.98.18-1.511a7.7 7.7 0 0 1 .988-2.196 8 8 0 0 1 1.687-1.86 8.3 8.3 0 0 1 2.082-1.241 6 6 0 0 1 2.242-.47c1.016.005 1.856.192 2.516.571q.99.57 1.438 1.344l1.418-1.71q.123-.2.386-.204h.133c.238.004.356.117.356.348v.113Zm9.77 18.063a121 121 0 0 0-3.325-.047q-1.613 0-3.32.047v-.692h.64q.305.002.575-.007c.18-.004.348-.02.512-.04.16-.023.3-.042.418-.066a.36.36 0 0 0 .242-.148.43.43 0 0 0 .097-.278v-9.074a4.6 4.6 0 0 1-1.14.309q-.678.1-1.485.101v-.683q1.116.001 2.055-.239a3.55 3.55 0 0 0 1.629-.89h.29q.303.004.304.265v10.211q0 .164.094.282a.4.4 0 0 0 .27.144c.097.024.226.043.382.067q.23.031.52.039c.199.007.386.007.574.007h.668ZM31.98 316.04q-.088.402-.445.401c-.02.02-.066.032-.148.028a.2.2 0 0 1-.117-.028h-.133c-.258 0-.387-.093-.387-.289v-.097q.18-1.067.18-1.97v-.55q-.09-1.103-.496-1.902a2.9 2.9 0 0 0-1.192-1.238q-.784-.434-1.984-.438a3.7 3.7 0 0 0-1.414.305 5.4 5.4 0 0 0-1.34.816c-.453.375-.82.8-1.11 1.274a5.6 5.6 0 0 0-.62 1.457q-.147.538-.165 1.023c0 .45.102.883.297 1.293q.43 1.037 1.54 1.324l3.406.95c.62.18 1.152.472 1.59.867q.659.599.992 1.41.332.814.39 1.773v.262q0 .833-.234 1.71a8.6 8.6 0 0 1-.992 2.329 8.6 8.6 0 0 1-1.688 2.012 8.2 8.2 0 0 1-2.11 1.316 5.7 5.7 0 0 1-2.3.496q-1.704.002-2.902-.547-1.2-.543-1.778-1.379l-1.465 1.739q-.192.187-.398.187h-.09q-.37.002-.398-.289c0-.055.015-.11.043-.156l1.718-6.73q.088-.401.516-.415h.324q.181 0 .328.141a.5.5 0 0 1 .059.203.5.5 0 0 1-.027.145 7.7 7.7 0 0 0-.27 1.925c0 .95.235 1.754.695 2.414q1.114 1.6 3.88 1.598a3.4 3.4 0 0 0 1.413-.324q.72-.322 1.34-.871a6.5 6.5 0 0 0 1.149-1.399q.464-.768.687-1.59a5.7 5.7 0 0 0 .149-1.238c0-.476-.067-.937-.192-1.379q-.444-1.106-1.644-1.421l-3.36-.95a4 4 0 0 1-1.554-.797 4 4 0 0 1-1.016-1.316 4.7 4.7 0 0 1-.422-1.684v-.316c0-.477.063-.98.18-1.512a7.8 7.8 0 0 1 .992-2.195 7.9 7.9 0 0 1 1.688-1.86 8.4 8.4 0 0 1 2.078-1.242 6 6 0 0 1 2.242-.468c1.02.004 1.855.191 2.515.574.665.375 1.141.824 1.438 1.34l1.422-1.711q.118-.199.383-.203h.132q.357.004.356.347v.114Zm10.465 18.065h-7.554v-.445q0-.046.058-.144l3.035-2.946q.54-.533 1.09-1.086c.367-.37.7-.75.989-1.136a6 6 0 0 0 .699-1.196q.258-.614.258-1.293a3.4 3.4 0 0 0-.168-1.066 2.7 2.7 0 0 0-.485-.871 2.4 2.4 0 0 0-.789-.602 2.5 2.5 0 0 0-1.094-.23q-.927-.001-1.636.496-.714.492-.946 1.09-.043.016.149.015h.16q.276.06.48.176a1 1 0 0 1 .344.32q.14.204.14.497 0 .48-.35.738c-.24.172-.5.258-.79.258q-.42 0-.781-.258-.363-.258-.363-.738.002-.68.297-1.282.298-.602.808-1.047.51-.44 1.207-.699a4.2 4.2 0 0 1 1.477-.258c.644 0 1.234.082 1.765.254.54.168.992.41 1.371.727q.57.474.887 1.101a3 3 0 0 1 .32 1.38 2.95 2.95 0 0 1-.425 1.542c-.285.47-.641.899-1.059 1.293q-.634.584-1.344 1.106-.71.52-1.285 1.012l-2.133 1.792h2.793q.585.002 1.09-.007.506-.007.86-.032.351-.024.363-.03a.6.6 0 0 0 .14-.227c.04-.114.082-.247.118-.399q.053-.229.113-.465.056-.238.101-.523h.688Zm0 0" fill-rule="evenodd"/><path d="M2969.74 2005.423V672.514" transform="matrix(.14643 0 0 -.1465 0 357.698)" fill="none" stroke-width="15" stroke-linecap="round" stroke-linejoin="round" stroke="#000" stroke-dasharray="120 60" stroke-miterlimit="10"/><path d="M1484.737 650.01H2969.74v45.009H1484.737Zm0 0" transform="matrix(.14643 0 0 -.1465 0 357.698)" fill-rule="evenodd" stroke-width="15" stroke-linecap="round" stroke-linejoin="round" stroke="#000" stroke-miterlimit="10"/><path d="M389.718 672.514h1530.007" transform="matrix(.14643 0 0 -.1465 0 357.698)" fill="none" stroke-width="15" stroke-linecap="round" stroke-linejoin="round" stroke="#000" stroke-dasharray="120 60" stroke-miterlimit="10"/><path d="m937.227 888.146 554.926-173.022" transform="matrix(.14643 0 0 -.1465 0 357.698)" fill="none" stroke-width="15" stroke-linecap="round" stroke-linejoin="round" stroke="#0000f0" stroke-miterlimit="10"/><path d="m57.395 201.54 74.609 23.265-.652 2.097-74.61-23.261a1.1 1.1 0 0 1 .652-2.102m91.042 29.538-19.011-12.832 2.558 6.55-.652 2.099-5.828 3.937Zm67.63 20.435 176.918-40.27.489 2.145-176.918 40.265a1.09 1.09 0 0 1-1.313-.828c-.137-.59.235-1.18.824-1.312m194.278-43.094-22.875-1.55 5.5 4.378.484 2.145-3.062 6.332Zm0 0" fill="#0000f0"/><path d="M3974.726 627.532v1377.89" transform="matrix(.14643 0 0 -.1465 0 357.698)" fill="none" stroke-width="15" stroke-linecap="round" stroke-linejoin="round" stroke="#000" stroke-miterlimit="10"/><path d="m402.875 208.992 161.012-36.648.488 2.144-161.016 36.649a1.1 1.1 0 0 1-.484-2.145m178.371-39.472-22.879-1.551 5.5 4.379.488 2.144-3.062 6.332Zm0 0" fill="#0000f0"/><g clip-path="url(#b)"><g clip-path="url(#c)"><path d="M440.215 33.438a.64.64 0 0 1-.192.324.48.48 0 0 1-.328.136.3.3 0 0 1-.148.028q-.176.001-.176-.028-.37 0-.398-.316v-.102q.085-.674.148-1.367.06-.532.059-.976v-.246a5.5 5.5 0 0 0-.14-1.028 1.8 1.8 0 0 0-.395-.77q-.564-.659-1.672-.78a23 23 0 0 0-2.368-.125h-3.183q-.784.005-.918.117-.075.058-.297.847l-1.836 7.016h2.043q.833 0 1.512-.07a2.3 2.3 0 0 0 1.168-.434q.446-.358.676-1.004.227-.648.449-1.484c.11-.285.297-.426.562-.414h.254q.413.001.414.37v.102l-1.851 7.118c-.059.3-.25.441-.578.433h-.235q-.417-.001-.418-.347 0-.084.047-.157a14 14 0 0 0 .281-1.48 2 2 0 0 0 .032-.305c0-.266-.063-.48-.18-.644q-.251-.346-.895-.41-.644-.066-1.445-.067h-2.129l-2.031 7.879q-.148.504-.149.75v.055c.043.043.317.066.832.074h3.387q1.319 0 2.555-.18a5.4 5.4 0 0 0 2.3-.914q.478-.344.907-.918.427-.576.812-1.273c.258-.465.5-.957.735-1.48q.346-.786.687-1.548.117-.344.516-.343h.254q.415.001.414.37v.118l-2.945 7.015a.55.55 0 0 1-.536.344h-15.39q-.223 0-.328-.129a.3.3 0 0 1-.102-.215q0-.086.027-.171l.059-.215a.62.62 0 0 1 .207-.324.57.57 0 0 1 .371-.137q.697-.001 1.305-.02c.402-.015.71-.066.914-.152.18-.098.316-.356.418-.777l4.156-16.102c.063-.21.09-.379.09-.504q.001-.171-.074-.203-.207-.128-.813-.156-.609-.028-1.304-.032c-.274.004-.414-.128-.414-.386v-.102l.058-.242q.123-.475.578-.477h14.996q.37.002.399.36v.101Zm0 0" fill-rule="evenodd"/></g></g><g clip-path="url(#d)"><g clip-path="url(#e)"><path d="M446.258 33.25q-.103.268-.36.266h-.105l-.078-.036q-.253-.054-.277-.308v-.082l1.335-7.418a1.11 1.11 0 0 1 .567-.797q.468-.275.95-.273.514.002.831.285.2.175.2.46 0 .21-.118.485Zm0 0" fill-rule="evenodd"/></g></g><path d="M589.879 30.125a.62.62 0 0 1-.195.324.46.46 0 0 1-.325.137.3.3 0 0 1-.148.027c-.117.004-.176-.008-.176-.027-.246 0-.383-.106-.402-.316v-.102q.089-.676.148-1.363.06-.535.059-.98v-.243a6 6 0 0 0-.137-1.031 1.8 1.8 0 0 0-.394-.77q-.564-.657-1.672-.781a24 24 0 0 0-2.371-.125h-3.18q-.784.006-.918.117-.074.058-.297.848l-1.836 7.015h2.043q.832.005 1.512-.07a2.34 2.34 0 0 0 1.168-.43c.297-.242.52-.574.672-1.007.156-.43.304-.922.453-1.48q.165-.43.562-.419h.25q.416 0 .414.375v.102l-1.847 7.117q-.09.446-.578.43h-.239c-.273 0-.414-.114-.414-.344q.001-.087.043-.16a13 13 0 0 0 .285-1.48q.029-.172.028-.301 0-.404-.176-.649-.253-.345-.899-.41a15 15 0 0 0-1.44-.063h-2.134l-2.027 7.88q-.148.504-.149.745v.059q.06.06.829.07h3.39q1.319.002 2.555-.18a5.35 5.35 0 0 0 2.3-.91q.476-.346.903-.921c.29-.383.559-.805.816-1.274.258-.46.5-.957.73-1.48q.353-.78.692-1.547.117-.342.516-.344h.254c.273 0 .414.125.414.375v.113l-2.945 7.016q-.166.347-.536.348h-15.394c-.149 0-.254-.043-.324-.13a.3.3 0 0 1-.106-.218.7.7 0 0 1 .032-.172l.058-.215a.61.61 0 0 1 .578-.46q.698.001 1.301-.02.607-.024.918-.153c.18-.093.316-.355.414-.777l4.16-16.101q.09-.317.09-.504.001-.17-.074-.203-.207-.126-.813-.157a33 33 0 0 0-1.304-.031c-.278.004-.414-.129-.414-.387v-.101l.058-.242c.078-.317.274-.477.578-.477h14.996q.37 0 .399.363v.098Zm0 0" fill-rule="evenodd"/><path d="m57.21 201.5 182.696 24.176-.285 2.18L56.926 203.68a1.1 1.1 0 0 1 .285-2.18m199.958 27.57-20.91-9.418 3.633 6.024-.29 2.176-5.074 4.87Zm0 0" fill="#0000f0"/><path d="m1689.106 880.36 1285.623-170.036" transform="matrix(.14643 0 0 -.1465 0 357.698)" fill="none" stroke-width="15" stroke-linecap="round" stroke-linejoin="round" stroke="#0000f0" stroke-miterlimit="10"/><path d="M382.995 241.277 2974.97 716.243" transform="matrix(.14643 0 0 -.1465 0 357.698)" fill="none" stroke-width="15" stroke-linecap="round" stroke-linejoin="round" stroke="#000" stroke-dasharray="120 60" stroke-miterlimit="10"/><path d="m434.531 251.852 65.32-11.973.395 2.16-65.32 11.977a1.1 1.1 0 0 1-.395-2.164m82.785-14.059-22.793-2.523 5.309 4.613.398 2.16-3.332 6.195Zm0 0" fill="#0000f0"/><path d="m2968.86 710.03 999.65 183.21" transform="matrix(.14643 0 0 -.1465 0 357.698)" fill="none" stroke-width="15" stroke-linecap="round" stroke-linejoin="round" stroke="#0000f0" stroke-miterlimit="10"/><path d="m382.995 241.277 1109.158 431.237" transform="matrix(.14643 0 0 -.1465 0 357.698)" fill="none" stroke-width="15" stroke-linecap="round" stroke-linejoin="round" stroke="#000" stroke-dasharray="120 60" stroke-miterlimit="10"/><path d="m382.995 1058.77 3591.731 367.51" transform="matrix(.14643 0 0 -.1465 0 357.698)" fill="none" stroke-width="15" stroke-linecap="round" stroke-linejoin="round" stroke="#0000f0" stroke-miterlimit="10"/><path d="m55.969 201.496 252.515-25.848.223 2.188-252.516 25.848a1.1 1.1 0 0 1-.222-2.188m270.09-26.543-22.52-4.32 4.93 5.015.222 2.188-3.812 5.914Zm0 0" fill="#0000f0"/><path d="M225.102 265.336c-.059.3-.243.445-.547.445-.461 0-.903.012-1.317.031q-.621.03-.902.153c-.188.078-.336.332-.445.754l-4.16 16.203q-.09.317-.09.5 0 .176.09.219.204.129.808.152.597.019 1.293.02c.277 0 .414.117.414.343a.7.7 0 0 1-.027.188l-.063.215a.55.55 0 0 1-.199.316.54.54 0 0 1-.363.129 77 77 0 0 0-7.25 0q-.387.002-.387-.371v-.117l.059-.243q.119-.473.578-.46.697-.001 1.3-.02.61-.024.907-.152.266-.146.426-.778l4.16-16.062-10.996 17.8a.73.73 0 0 1-.684.403h-.144q-.458 0-.551-.457l-1.79-17.586-3.894 15.168a1.7 1.7 0 0 0-.086.547.5.5 0 0 0 .028.16q.028.344.238.543c.176.176.414.289.71.348a5 5 0 0 0 1.005.086c.277 0 .414.117.414.343a.7.7 0 0 1-.028.188l-.058.215a.58.58 0 0 1-.203.316.56.56 0 0 1-.375.129 54 54 0 0 0-2.993-.086c-1.003 0-2.027.031-3.062.086q-.224 0-.324-.129-.106-.099-.106-.215.001-.085.032-.172l.058-.215q.117-.473.578-.46.562 0 1.059-.086a2.5 2.5 0 0 0 .926-.36q.339-.215.554-.566a3 3 0 0 0 .317-.758l3.965-15.383q.091-.316.09-.492 0-.17-.075-.2c-.137-.081-.406-.136-.804-.156a27 27 0 0 0-1.297-.03q-.4 0-.43-.387v-.102l.062-.258c.106-.289.301-.43.575-.433h4.797q.474.003.53.464l1.688 16.43 10.188-16.492c.144-.27.375-.399.68-.402h4.796q.204.004.356.144.058.116.058.215a.3.3 0 0 1-.043.16Zm220.586 10.304a.58.58 0 0 1-.578.445q-.533.001-1.036.08a2.25 2.25 0 0 0-.933.382c-.235.14-.422.332-.563.566a3 3 0 0 0-.308.754l-4.368 17.012q-.162.429-.578.43h-.34a.44.44 0 0 1-.398-.23 2899 2899 0 0 1-3.324-9.009 947 947 0 0 0-3.16-8.492l-3.817 14.856q-.088.247-.09.488.001.1.032.215a.84.84 0 0 0 .265.547q.265.258.711.347c.297.055.629.086 1.008.082.273.004.414.117.414.348a.7.7 0 0 1-.031.187l-.059.215a.54.54 0 0 1-.215.325.6.6 0 0 1-.363.12 53 53 0 0 0-6.05 0q-.224 0-.329-.128a.3.3 0 0 1-.101-.215q.002-.088.027-.176l.058-.215a.6.6 0 0 1 .211-.32.56.56 0 0 1 .368-.14c.375.003.726-.028 1.05-.083a2.6 2.6 0 0 0 .934-.363c.227-.14.41-.332.547-.566q.208-.352.324-.754l4.145-16.118c-.168-.058-.47-.093-.91-.117a39 39 0 0 0-1.399-.027q-.224.001-.324-.145a.3.3 0 0 1-.09-.214q.001-.087.043-.16l.047-.227q.164-.435.574-.434h4.633q.285.001.37.23l5.638 15.212 3.242-12.567q.088-.257.09-.52c0-.292-.094-.538-.282-.73a1.37 1.37 0 0 0-.73-.37 5.6 5.6 0 0 0-.988-.075q-.218 0-.325-.129a.32.32 0 0 1-.101-.23q.001-.087.043-.16l.043-.227c.11-.29.3-.434.578-.434a78 78 0 0 0 6.07 0q.205-.001.352.145.058.116.058.215a.27.27 0 0 1-.043.156Zm0 0" fill-rule="evenodd"/><path d="m580.242 169.992-1.097.551-2.747 1.648-10.98 6.59-1.648.551-2.747.55.551-1.1 2.196-3.845h-2.196l-4.941 1.649-12.082 2.746-19.219 3.844-12.078 3.297-43.383 9.34-12.078 3.296-12.082 2.746-4.941 1.098h-2.196l-.55.55h-1.649l-.547 9.892-2.746-.551v-8.242h-1.648l-2.747 1.101h-2.195l-4.941 1.645-7.14 1.101-6.587 1.649-1.648.547-1.098.55-11.531 6.594-1.098 1.098-2.199-.551.55-1.098 1.65-2.746.546-1.097-2.746.546-4.941 1.649-12.082 2.746-60.403 13.734-7.137 1.102-2.195.547-.55.55h-1.649 2.2l.546.547h3.844l8.238 1.102 12.629 2.195 8.238.551 66.442 9.34 20.867 2.746 4.39.55h4.395l.547-3.296 2.746.547v2.199h2.2l.546-.55h2.746l6.04-1.098 6.042-1.649 26.906-4.394 6.04-1.649 8.785-1.097 3.297-1.098-1.098-1.102-3.297-2.746 2.746-.55 5.492 1.101h4.942l5.492 1.098h4.39c1.008-.184 2.016-.368 6.04-1.098 4.027-.734 15.101-2.746 18.12-3.297l6.044-1.648 20.863-3.297 6.043-1.098 3.293-1.098h2.195Zm0 0" fill-rule="evenodd" fill="#0bc2b8" fill-opacity="0.39"/></svg>