<svg viewBox="0 0 610.02 357"><defs><clipPath id="a"><path d="M419 26h22v22h-22zm0 0"/></clipPath><clipPath id="b"><path d="M414.508 61.566h38.504V15.055l-38.504-.004zm0 0"/></clipPath><clipPath id="c"><path d="M445 24h5v10h-5zm0 0"/></clipPath><clipPath id="d"><path d="M414.508 61.566h38.504V15.055l-38.504-.004zm0 0"/></clipPath></defs><path fill="none" stroke="#000" stroke-linecap="round" stroke-linejoin="round" stroke-miterlimit="10" stroke-width="15" d="M389.718 1426.28v-330.02m0-93.751V672.514" transform="matrix(.14643 0 0 -.1465 0 357.698)"/><path fill-rule="evenodd" d="M62.34 322.352a5.271 5.271 0 11-10.543 0c0-2.91 2.36-5.274 5.27-5.274a5.274 5.274 0 015.273 5.274zM32.664 196.277c-.062.27-.207.403-.445.403-.02.02-.07.027-.149.027a.205.205 0 01-.117-.027h-.133c-.258 0-.386-.098-.386-.29v-.1c.117-.708.18-1.364.18-1.97v-.547c-.063-.734-.227-1.37-.497-1.902a2.915 2.915 0 00-1.191-1.238c-.524-.29-1.184-.438-1.985-.438a3.59 3.59 0 00-1.414.305 5.36 5.36 0 00-1.34.816 5.02 5.02 0 00-1.109 1.274 5.493 5.493 0 00-.62 1.457 4.26 4.26 0 00-.165 1.023c0 .45.098.88.297 1.293.285.692.797 1.133 1.539 1.32l3.402.95a4.075 4.075 0 011.594.87c.437.4.77.868.992 1.411.223.543.352 1.133.39 1.774v.257c0 .559-.077 1.13-.238 1.715a8.467 8.467 0 01-.988 2.328A8.8 8.8 0 0128.594 209a8.41 8.41 0 01-2.11 1.316 5.752 5.752 0 01-2.304.496c-1.133 0-2.102-.183-2.899-.546-.8-.364-1.394-.825-1.777-1.38l-1.465 1.739q-.193.188-.398.188h-.09c-.246 0-.383-.094-.402-.29a.28.28 0 01.047-.156l1.714-6.73c.059-.266.235-.406.52-.418h.324a.49.49 0 01.328.144.466.466 0 01.059.203.484.484 0 01-.031.145 7.847 7.847 0 00-.266 1.926c0 .949.23 1.754.695 2.414.742 1.066 2.035 1.597 3.88 1.597.464 0 .933-.109 1.413-.324.48-.215.926-.504 1.34-.87a6.388 6.388 0 001.145-1.4 6.177 6.177 0 00.69-1.59c.099-.44.15-.85.15-1.237 0-.477-.067-.938-.196-1.38-.293-.738-.844-1.21-1.64-1.425l-3.36-.95a3.87 3.87 0 01-1.555-.796c-.437-.367-.773-.805-1.015-1.313s-.383-1.07-.422-1.683v-.317c0-.48.058-.98.18-1.511a7.722 7.722 0 01.988-2.196 7.933 7.933 0 011.687-1.86 8.33 8.33 0 012.082-1.241 5.964 5.964 0 012.243-.47c1.015.005 1.855.192 2.515.571s1.14.828 1.438 1.344l1.418-1.711c.082-.133.21-.2.386-.203h.133c.238.004.356.117.356.348v.113zm9.77 18.063a121 121 0 00-3.325-.047c-1.074 0-2.183.016-3.32.047v-.692h.64c.204 0 .395 0 .575-.007.18-.004.348-.02.512-.04.16-.023.3-.042.418-.066a.358.358 0 00.242-.148.43.43 0 00.097-.278v-9.074a4.562 4.562 0 01-1.14.309c-.453.066-.946.101-1.485.101v-.683c.743 0 1.43-.078 2.055-.239q.943-.234 1.63-.89h.288c.203.004.305.09.305.265v10.211q0 .164.093.282a.385.385 0 00.27.144c.098.024.227.043.383.067.152.02.328.035.52.039.199.007.386.007.574.007h.668zM31.98 316.039c-.06.27-.208.402-.446.402-.02.02-.066.032-.148.028a.187.187 0 01-.117-.028h-.133c-.258 0-.387-.093-.387-.289v-.097c.121-.711.18-1.367.18-1.97v-.55c-.059-.734-.227-1.37-.496-1.902a2.893 2.893 0 00-1.192-1.238c-.523-.29-1.183-.434-1.984-.438a3.692 3.692 0 00-1.414.305 5.338 5.338 0 00-1.34.816c-.453.375-.82.8-1.11 1.274a5.5 5.5 0 00-.62 1.457 4.521 4.521 0 00-.165 1.023c0 .45.102.883.297 1.293.285.691.801 1.133 1.54 1.324l3.406.95c.62.18 1.152.472 1.59.867.44.398.769.87.992 1.41a5.52 5.52 0 01.39 1.773v.262q0 .832-.234 1.71a8.606 8.606 0 01-.992 2.329 8.628 8.628 0 01-1.688 2.012 8.233 8.233 0 01-2.11 1.316 5.734 5.734 0 01-2.3.496c-1.137 0-2.102-.18-2.902-.547-.801-.363-1.391-.82-1.778-1.379l-1.465 1.739q-.193.187-.398.187h-.09c-.246 0-.379-.093-.398-.289a.313.313 0 01.043-.156l1.718-6.73c.06-.266.23-.407.516-.415h.324q.182 0 .328.141c.04.078.059.148.059.203a.462.462 0 01-.027.145 7.68 7.68 0 00-.27 1.925c0 .95.234 1.754.695 2.415.743 1.066 2.036 1.597 3.88 1.597a3.36 3.36 0 001.413-.324 5.24 5.24 0 001.34-.871 6.52 6.52 0 001.149-1.399 6.245 6.245 0 00.687-1.59c.098-.44.149-.851.149-1.238 0-.476-.067-.937-.192-1.379-.297-.738-.844-1.21-1.644-1.421l-3.36-.95a3.998 3.998 0 01-1.554-.797 3.964 3.964 0 01-1.016-1.316 4.704 4.704 0 01-.422-1.684v-.316c0-.477.063-.98.18-1.512a7.79 7.79 0 01.992-2.195 7.847 7.847 0 011.687-1.86 8.355 8.355 0 012.079-1.242 5.995 5.995 0 012.242-.468c1.02.004 1.855.191 2.515.574.664.375 1.141.824 1.438 1.34l1.422-1.711c.078-.133.207-.2.383-.203h.132c.239.004.356.117.356.347v.114zm10.464 18.067H34.89v-.446c0-.031.02-.078.058-.144l3.035-2.946c.36-.355.723-.718 1.09-1.086.367-.37.7-.75.989-1.136.289-.387.523-.785.699-1.196.172-.41.258-.84.258-1.293a3.37 3.37 0 00-.168-1.066 2.667 2.667 0 00-.485-.871 2.397 2.397 0 00-.789-.602 2.478 2.478 0 00-1.094-.23c-.617 0-1.164.164-1.636.496-.477.328-.79.691-.946 1.09-.027.011.02.015.149.015h.16q.275.059.48.176a.997.997 0 01.344.32c.094.137.14.301.14.496q0 .481-.35.739a1.32 1.32 0 01-1.571 0q-.363-.258-.363-.738c0-.454.101-.88.297-1.282a3.35 3.35 0 01.808-1.047c.34-.293.742-.527 1.207-.699q.697-.258 1.477-.258c.644 0 1.234.082 1.765.254.54.168.993.41 1.371.727s.676.683.887 1.101a3 3 0 01.32 1.38 2.95 2.95 0 01-.425 1.542c-.285.47-.641.899-1.059 1.293-.422.39-.871.758-1.344 1.106-.472.347-.902.683-1.285 1.011l-2.133 1.793h2.793c.39 0 .754 0 1.09-.007a15.56 15.56 0 001.223-.062.593.593 0 00.14-.227 3.9 3.9 0 00.118-.399c.035-.152.074-.308.113-.465.039-.16.07-.332.102-.523h.687zm0 0"/><path fill="none" stroke="#000" stroke-dasharray="120 60" stroke-linecap="round" stroke-linejoin="round" stroke-miterlimit="10" stroke-width="15" d="M2969.74 2005.423V672.514" transform="matrix(.14643 0 0 -.1465 0 357.698)"/><path fill-rule="evenodd" stroke="#000" stroke-linecap="round" stroke-linejoin="round" stroke-miterlimit="10" stroke-width="15" d="M1484.737 650.01H2969.74v45.009H1484.737zm0 0" transform="matrix(.14643 0 0 -.1465 0 357.698)"/><path fill="none" stroke="#000" stroke-dasharray="120 60" stroke-linecap="round" stroke-linejoin="round" stroke-miterlimit="10" stroke-width="15" d="M389.718 672.514h1530.007" transform="matrix(.14643 0 0 -.1465 0 357.698)"/><path fill="none" stroke="#0000f0" stroke-linecap="round" stroke-linejoin="round" stroke-miterlimit="10" stroke-width="15" d="M937.227 888.146l554.926-173.023" transform="matrix(.14643 0 0 -.1465 0 357.698)"/><path fill="#0000f0" d="M57.395 201.539l74.609 23.266-.652 2.097-74.61-23.261c-.582-.184-.902-.801-.723-1.38s.797-.902 1.375-.722zm91.043 29.54l-19.012-12.833 2.558 6.55-.652 2.099-5.828 3.937zm67.628 20.433l176.918-40.27.489 2.145-176.918 40.265a1.091 1.091 0 01-1.313-.828c-.137-.59.235-1.18.824-1.312zm194.278-43.094l-22.875-1.55 5.5 4.378.484 2.145-3.062 6.332zm0 0"/><path fill="none" stroke="#000" stroke-linecap="round" stroke-linejoin="round" stroke-miterlimit="10" stroke-width="15" d="M3974.726 627.532v1377.89" transform="matrix(.14643 0 0 -.1465 0 357.698)"/><path fill="#0000f0" d="M402.875 208.992l161.012-36.648.488 2.144-161.016 36.649a1.1 1.1 0 01-.484-2.145zm178.371-39.472l-22.879-1.551 5.5 4.379.489 2.144-3.063 6.332zm0 0"/><g clip-path="url(#a)"><g clip-path="url(#b)"><path fill-rule="evenodd" d="M440.215 33.438a.644.644 0 01-.192.324.482.482 0 01-.328.136.325.325 0 01-.148.028c-.117 0-.176-.008-.176-.028q-.37 0-.398-.316v-.102c.058-.449.105-.906.148-1.367.04-.355.059-.68.059-.976v-.246a5.484 5.484 0 00-.14-1.028 1.805 1.805 0 00-.395-.77c-.375-.44-.934-.699-1.672-.78a22.61 22.61 0 00-2.367-.126h-3.184c-.524.004-.828.043-.918.118-.05.039-.149.32-.297.847l-1.836 7.016h2.043q.832 0 1.512-.07a2.313 2.313 0 001.168-.434c.297-.238.523-.574.675-1.004.153-.433.301-.926.45-1.484.11-.285.297-.426.562-.414h.254c.274 0 .414.125.414.37v.102l-1.851 7.118c-.059.3-.25.441-.579.433h-.234c-.277 0-.418-.117-.418-.348a.28.28 0 01.047-.156 14.06 14.06 0 00.281-1.48 1.83 1.83 0 00.032-.305c0-.266-.063-.48-.18-.644-.168-.23-.465-.368-.895-.41s-.91-.067-1.445-.067h-2.129l-2.031 7.879c-.098.336-.149.586-.149.75v.055c.043.043.317.066.832.074h3.387c.88 0 1.73-.059 2.555-.18a5.385 5.385 0 002.3-.914c.317-.23.622-.535.907-.918s.555-.809.812-1.273.5-.957.735-1.48c.23-.524.46-1.04.687-1.548.078-.23.25-.343.516-.343h.254c.277 0 .414.125.414.37v.118l-2.945 7.015a.55.55 0 01-.536.344h-15.39q-.223 0-.328-.129a.3.3 0 01-.102-.215.53.53 0 01.027-.172l.059-.214a.621.621 0 01.207-.325.574.574 0 01.371-.136c.465 0 .899-.008 1.305-.02.402-.015.71-.066.914-.152.18-.098.316-.356.418-.777l4.156-16.102c.063-.211.09-.379.09-.504 0-.113-.024-.184-.074-.203-.137-.086-.41-.137-.813-.156a33.16 33.16 0 00-1.304-.032c-.274.004-.414-.129-.414-.386v-.102l.058-.242c.082-.316.274-.477.578-.477h14.996c.246 0 .38.121.399.36v.101zm0 0"/></g></g><g clip-path="url(#c)"><g clip-path="url(#d)"><path fill-rule="evenodd" d="M446.258 33.25c-.07.18-.188.266-.36.266h-.105l-.078-.035c-.168-.036-.262-.141-.277-.31v-.081l1.336-7.418a1.11 1.11 0 01.566-.797c.312-.184.629-.273.95-.273.343 0 .62.097.831.285.133.117.2.27.2.46 0 .141-.04.301-.118.485zm0 0"/></g></g><path fill-rule="evenodd" d="M589.879 30.125a.624.624 0 01-.195.324.456.456 0 01-.325.137.29.29 0 01-.148.027c-.117.004-.176-.007-.176-.027-.246 0-.383-.105-.402-.316v-.102c.058-.45.11-.906.148-1.363.04-.356.059-.684.059-.98v-.243a5.894 5.894 0 00-.137-1.031 1.805 1.805 0 00-.394-.77c-.375-.437-.934-.699-1.672-.781a23.74 23.74 0 00-2.371-.125h-3.18c-.523.004-.828.043-.918.117-.05.04-.148.32-.297.848l-1.836 7.016h2.043q.832.005 1.512-.07a2.345 2.345 0 001.168-.43c.297-.243.52-.575.672-1.008.156-.43.304-.922.453-1.48.11-.286.297-.427.562-.419h.25c.278 0 .414.125.414.375v.102l-1.847 7.117c-.059.297-.254.441-.578.43h-.239c-.273 0-.414-.114-.414-.344 0-.059.016-.11.043-.16a13.19 13.19 0 00.285-1.48 1.8 1.8 0 00.028-.302c0-.269-.059-.484-.176-.648-.168-.23-.469-.367-.898-.41a14.51 14.51 0 00-1.442-.063h-2.133l-2.027 7.88c-.098.335-.148.585-.148.745v.059c.039.039.316.062.828.07h3.39c.88 0 1.73-.058 2.555-.18a5.348 5.348 0 002.3-.91c.317-.23.618-.539.903-.922.29-.382.559-.804.816-1.273.258-.46.5-.957.73-1.48q.353-.78.692-1.547c.079-.227.25-.344.516-.344h.254c.273 0 .414.125.414.375v.113l-2.945 7.016c-.11.23-.29.348-.535.348h-15.395c-.148 0-.254-.043-.324-.13a.315.315 0 01-.106-.218.703.703 0 01.032-.172l.058-.215a.612.612 0 01.578-.46c.465 0 .899-.005 1.301-.02.406-.016.711-.067.918-.153.18-.093.316-.355.414-.777l4.16-16.101c.059-.211.09-.38.09-.504 0-.114-.023-.18-.074-.203-.137-.082-.41-.137-.813-.157a33.16 33.16 0 00-1.304-.031c-.278.004-.414-.129-.414-.387v-.101l.058-.242c.078-.317.274-.477.578-.477h14.996q.37 0 .399.363v.098zm0 0"/><path fill="#0000f0" d="M57.211 201.5l182.695 24.176-.285 2.18L56.926 203.68a1.1 1.1 0 01.285-2.18zm199.957 27.57l-20.91-9.418 3.633 6.024-.29 2.176-5.074 4.87zm0 0"/><path fill="none" stroke="#0000f0" stroke-linecap="round" stroke-linejoin="round" stroke-miterlimit="10" stroke-width="15" d="M1689.106 880.36l1285.623-170.036" transform="matrix(.14643 0 0 -.1465 0 357.698)"/><path fill="none" stroke="#000" stroke-dasharray="120 60" stroke-linecap="round" stroke-linejoin="round" stroke-miterlimit="10" stroke-width="15" d="M382.995 241.277L2974.97 716.243" transform="matrix(.14643 0 0 -.1465 0 357.698)"/><path fill="#0000f0" d="M434.531 251.852l65.32-11.973.395 2.16-65.32 11.977a1.1 1.1 0 01-.394-2.164zm82.785-14.059l-22.793-2.524 5.309 4.614.398 2.16-3.332 6.195zm0 0"/><path fill="none" stroke="#0000f0" stroke-linecap="round" stroke-linejoin="round" stroke-miterlimit="10" stroke-width="15" d="M2968.86 710.03l999.65 183.21" transform="matrix(.14643 0 0 -.1465 0 357.698)"/><path fill="none" stroke="#000" stroke-dasharray="120 60" stroke-linecap="round" stroke-linejoin="round" stroke-miterlimit="10" stroke-width="15" d="M382.995 241.277l1109.158 431.237" transform="matrix(.14643 0 0 -.1465 0 357.698)"/><path fill="none" stroke="#0000f0" stroke-linecap="round" stroke-linejoin="round" stroke-miterlimit="10" stroke-width="15" d="M382.995 1058.77l3591.731 367.51" transform="matrix(.14643 0 0 -.1465 0 357.698)"/><path fill="#0000f0" d="M55.969 201.496l252.515-25.848.223 2.188-252.516 25.848a1.1 1.1 0 01-.222-2.188zm270.09-26.543l-22.52-4.32 4.93 5.015.222 2.188-3.812 5.914zm0 0"/><path fill-rule="evenodd" d="M225.102 265.336c-.059.3-.243.445-.547.445-.461 0-.903.012-1.317.032q-.62.029-.902.152c-.188.078-.336.332-.445.754l-4.16 16.203c-.06.21-.09.379-.09.5 0 .117.03.191.09.219q.204.129.808.152a44 44 0 001.293.02c.277 0 .414.117.414.343a.66.66 0 01-.027.188l-.063.215q-.04.187-.199.316-.152.129-.363.129a77 77 0 00-3.582-.086c-1.211 0-2.434.031-3.668.086-.258 0-.387-.121-.387-.371v-.117l.059-.243c.078-.316.273-.468.578-.46.465 0 .898-.008 1.3-.02.407-.016.708-.066.907-.152.176-.098.32-.356.426-.778l4.16-16.062-10.996 17.8a.728.728 0 01-.684.403h-.144q-.457 0-.551-.457l-1.79-17.586-3.894 15.168a1.705 1.705 0 00-.086.547.51.51 0 00.028.16c.02.23.097.41.238.543.176.176.414.289.71.348.298.058.63.085 1.005.085.277 0 .414.118.414.344a.66.66 0 01-.028.188l-.058.215a.58.58 0 01-.203.316q-.153.129-.375.129a53.985 53.985 0 00-2.993-.086c-1.003 0-2.027.031-3.062.086-.148 0-.258-.043-.324-.129-.07-.066-.106-.137-.106-.215 0-.058.012-.113.032-.172l.058-.215c.078-.316.27-.468.578-.46.375 0 .727-.028 1.059-.087a2.54 2.54 0 00.926-.359c.226-.144.41-.332.554-.566a2.88 2.88 0 00.317-.758l3.965-15.383c.062-.21.09-.375.09-.492 0-.113-.024-.18-.075-.2-.136-.081-.406-.136-.804-.156a26.5 26.5 0 00-1.297-.03c-.266 0-.41-.13-.43-.388v-.101l.062-.258c.106-.289.301-.43.575-.433h4.797c.316.003.492.156.53.464l1.688 16.43 10.188-16.492c.144-.27.375-.399.68-.402h4.796c.137.003.254.05.356.144a.482.482 0 01.058.215.317.317 0 01-.043.16zm220.585 10.305q-.046.187-.199.316a.578.578 0 01-.379.129c-.355 0-.699.027-1.035.078a2.25 2.25 0 00-.933.383c-.235.14-.422.332-.563.566a2.9 2.9 0 00-.309.754l-4.367 17.012c-.109.285-.3.43-.578.43h-.34a.437.437 0 01-.398-.23 2929.276 2929.276 0 01-3.324-9.009 947 947 0 00-3.16-8.492l-3.817 14.856c-.058.164-.09.328-.09.488 0 .066.012.14.032.215a.84.84 0 00.265.547c.176.171.414.289.711.347.297.055.629.086 1.008.082.273.004.414.118.414.348a.673.673 0 01-.031.187l-.059.215c-.031.133-.101.242-.215.324s-.234.121-.363.121a50.71 50.71 0 00-3.004-.085 53.3 53.3 0 00-3.047.086q-.222 0-.328-.13a.307.307 0 01-.101-.214c0-.059.011-.117.027-.176l.059-.215a.595.595 0 01.21-.32.56.56 0 01.368-.14 5.95 5.95 0 001.05-.083c.329-.058.637-.18.934-.363.227-.14.41-.332.547-.566.14-.235.246-.485.324-.754l4.145-16.118c-.168-.058-.47-.093-.91-.117a39 39 0 00-1.399-.027c-.148 0-.258-.047-.324-.145a.292.292 0 01-.09-.214c0-.059.016-.11.043-.16l.047-.227q.164-.434.574-.434h4.633c.191 0 .312.078.37.23l5.638 15.212 3.242-12.567c.058-.172.09-.344.09-.52 0-.292-.094-.538-.282-.73a1.365 1.365 0 00-.73-.37 5.63 5.63 0 00-.988-.075c-.145 0-.254-.043-.324-.129a.32.32 0 01-.102-.23c0-.059.016-.11.043-.16l.043-.227c.11-.29.3-.434.578-.434a78 78 0 003.035.059q1.506 0 3.035-.059c.137 0 .254.047.352.145a.48.48 0 01.058.215.27.27 0 01-.043.156zm0 0"/><path fill="#0bc2b8" fill-opacity=".392" fill-rule="evenodd" d="M580.242 169.992l-1.097.551-2.746 1.648-10.981 6.59-1.649.551-2.746.55.551-1.1 2.196-3.844h-2.196l-4.941 1.648-12.082 2.746-19.219 3.844-12.078 3.297-43.383 9.34-12.078 3.296-12.082 2.746-4.941 1.098h-2.196l-.55.55h-1.649l-.547 9.892-2.746-.551v-8.242h-1.648l-2.746 1.101h-2.196l-4.941 1.645-7.14 1.101-6.587 1.649-1.648.547-1.098.55-11.531 6.594-1.098 1.098-2.199-.551.55-1.098 1.65-2.746.546-1.097-2.746.546-4.941 1.649-12.082 2.746-60.403 13.734-7.136 1.102-2.196.547-.55.55h-1.649 2.2l.546.547h3.844l8.238 1.102 12.629 2.195 8.238.551 66.442 9.34 20.867 2.746 4.39.55h4.395l.547-3.296 2.746.547v2.199h2.2l.546-.55h2.746l6.04-1.098 6.042-1.649 26.907-4.394 6.039-1.649 8.785-1.098 3.297-1.097-1.098-1.102-3.297-2.746 2.746-.55 5.492 1.101h4.942l5.492 1.098h4.39c1.008-.184 2.016-.368 6.04-1.098 4.027-.734 15.101-2.746 18.12-3.297l6.044-1.648 20.863-3.297 6.043-1.098 3.293-1.098h2.195zm0 0"/></svg>