<svg xmlns="http://www.w3.org/2000/svg" viewBox="-2 -7 23 20"><path fill="none" fill-opacity="0" stroke="#000" stroke-width="0.1" d="M1.1-1a1.3674 1.3674 0 0 1 0 2"/><polyline fill="none" fill-opacity="0" stroke="#00f" stroke-width="0.2" points="6 -6 0 0 6 6"/><polyline fill="none" fill-opacity="0" stroke="red" stroke-width="0.1" points="21 12.5 4 4 1.4 -1.2 20.6998 8.4004"/><line x1="20.5528" x2="20.8882" y1="12.2764" y2="12.7236" fill="none" fill-opacity="0" stroke="red" stroke-width="0.1"/><line x1="20.5528" x2="21.1118" y1="12.2764" y2="12.2764" fill="none" fill-opacity="0" stroke="red" stroke-width="0.1"/><polyline fill="none" fill-opacity="0" stroke="red" stroke-width="0.1" points="20.2409 8.4513 20.7999 8.4502 20.4636 8.0037"/><polyline fill="none" fill-opacity="0" stroke="red" stroke-width="0.1" points="20.7764 3 3 3 3 -3 21 -3"/><polyline fill="none" fill-opacity="0" stroke="red" stroke-width="0.1" points="20.3882 3.25 20.8882 3 20.3882 2.75"/><line x1="20.5" x2="21" y1="-3" y2="-2.75" fill="none" fill-opacity="0" stroke="red" stroke-width="0.1"/><line x1="20.5" x2="21" y1="-3" y2="-3.25" fill="none" fill-opacity="0" stroke="red" stroke-width="0.1"/><line x1="2" x2="4" y1="4" y2="2" fill="none" fill-opacity="0" stroke="#000" stroke-dasharray="0.2" stroke-width="0.1"/><line x1="0.2" x2="2.2" y1="-2.4" y2="-0.4" fill="none" fill-opacity="0" stroke="#000" stroke-dasharray="0.2" stroke-width="0.1"/><line x1="3" x2="5" y1="5" y2="3" fill="none" fill-opacity="0" stroke="#000" stroke-dasharray="0.2" stroke-width="0.1"/><line x1="2" x2="4" y1="-4" y2="-2" fill="none" fill-opacity="0" stroke="#000" stroke-dasharray="0.2" stroke-width="0.1"/><circle cx="0.8" r="0.1"/><circle cx="0.8" r="0.1" fill="none" fill-opacity="0" stroke="#1b1b1b" stroke-width="0.1"/></svg>