<svg xmlns="http://www.w3.org/2000/svg" viewBox="0 0 208 241.7397"><defs><style>.label{font-family:sans-serif;font-size:10.91px;letter-spacing:0;word-spacing:0;stroke-linejoin:round;stroke-width:.2182;paint-order:stroke fill markers}</style></defs><g fill-rule="evenodd" transform="translate(-10.69 15.76)"><rect width="208" height="241.7" x="10.69" y="-15.76" fill="#fff" paint-order="fill markers stroke"/><path fill="#e6e6e6" d="M216.1 223.6v-97.41l-33.54-2.625-7.437 6.562-11.52 2.042-26.39-6.708-6.853 9.77-37.62-2.187-16.33-9.478-17.21 9.332-21.44-15.16-17.21 10.06-7.145-2.625v98.43" paint-order="fill markers stroke"/><path fill="#03fdfe" stroke="#000" stroke-linejoin="round" stroke-width="1.637" d="m29.78-12.7 70.38 236.3" paint-order="fill markers stroke"/></g><path fill="none" stroke="#0ff" stroke-linejoin="round" stroke-width="1.637" d="M120.3 108.7h12.77m-68.62 21.36L51.48 223.6m-11.46-45.42L26.1 223.6M152 129.43l-4.994 94.17m-22.1-67.25 91.22 61.13m-84.23-68.56-118.5-63.99m45.4 104.2 118.6-202.5m-72.22 189.4-91.75-53.32" paint-order="fill markers stroke" transform="translate(-10.69 15.76)"/><path fill="none" stroke="#00f" stroke-linejoin="round" stroke-width="1.637" d="M120.3 97.31h13.2m-62.35 29.11L13.42 7.62m65.99 146.3L13.42 48.52m76.98 142.3 125.7-125.7M96.4 210.92l-82.96-48.21" paint-order="fill markers stroke" transform="translate(-10.69 15.76)"/><g fill-rule="evenodd"><path fill="#0ff" d="m160.7 175 10.75 12.59-15.73-5.158 4.35-2.466zm-4.719-36.61-5.308 15.68-3.621-16.15 4.346 2.474zm-94.49 37.25 12.21-11.18-4.609 15.9-2.616-4.262zm36.49 1.471-11.53-11.87 16.02 4.142-4.184 2.739zm-55.97 9.895-8.944 13.93.3943-16.55 3.618 3.452zm23.22-30.02-6.617 15.17-2.24-16.4 4.121 2.834zm-26.56-14.34-11.53-11.87 16.02 4.142-4.184 2.74zm85.08 7.004-11.9-11.51 16.15 3.64-4.096 2.868zm-92.31-49.87-11.9-11.51 16.15 3.64-4.096 2.869zm63.39 19.98 11.57-11.83-3.727 16.13-2.847-4.112z" paint-order="fill markers stroke" transform="translate(-10.69 15.76)"/><path d="m76.86 95.17.2639 16.55-8.834-14 4.924.8715z" paint-order="fill markers stroke" transform="translate(-10.69 15.76)"/><path fill="#0f0" stroke="#000" stroke-linejoin="round" stroke-width="1.637" d="m68.3 81.78 4.92 16.82" paint-order="fill markers stroke" transform="translate(-10.69 15.76)"/><path fill="#00f" d="m31.66 178.5-11.53-11.87 16.02 4.142-4.184 2.739zm121.4-56.58 14.43-8.107-8.107 14.43-1.577-4.746zm43.41-43.41 14.43-8.107-8.107 14.43-1.577-4.746zm-159.8-12.9-2.945-16.29 10.99 12.38-5.001-.061zm-7.227 16.9-4.668-15.88 12.25 11.13-4.979.4735zm77.49 85.54 14.43-8.107-8.107 14.43-1.577-4.746z" paint-order="fill markers stroke" transform="translate(-10.69 15.76)"/></g><g fill="none" stroke-linejoin="round"><path stroke="#4d4d4d" stroke-opacity="0.9744" stroke-width="0.7638" d="m17.77 223.6-4.229-10.28m27.12-2.552-17.35-8.166-9.915 10.79m45.93-13.42-.7291-15.02-8.312-10.06-28.87 9.332 1.896 18.37m36.02-2.625-18.66 10.79 1.896 12.83m54.66-27.69-22-16.93-16.62 5.979.7291 15.02 18.23 18.52m35.43 5.104-1.167-6.416-9.916-7.874-24.35 9.186-.7291 5.104m46.66-36.02-17.64-8.749-8.622 17.07 4.685 13.4m9.916 7.874 14.58-13.12 23.62 12.83m-11.96-40.83-14.58 11.52 2.916 16.48m26.4 19.54-2.78-6.708 5.979-9.77 28.39 8.749 10.98-2.771m-10.98 2.771-2.579 7.728m15.6-31.5-2.042 21 12.83 10.21 7.874-2.479m-5.687-39.52-12.98 10.79-15.6-8.457-22.31 10.35-3.5 13.12m60.08-21.87-5.687-3.937-4.374-14.87m10.06-33.1-30.77 7.437 3.791 16.62 16.91 9.041 10.06-8.895m0-31.35-33.54-2.625-7.437 6.562 10.21 10.64m-5.833 31.5 2.333 11.37m-22.31 10.35-21.44-17.94m3.062-12.39 16.77-5.978m-16.77 5.978-3.062 12.39m-32.23 2.77-3.062-15.6 29.46-9.186m-52.79.7291-4.229 24.21m-61.83-.4374 8.02 5.687m28.87-9.332-2.77-17.5m116.1-25.23 11.52-2.042m14 27.27-9.624 14.87-21.58-14.58m-27.56-22.46 6.853-9.77 26.39 6.708-5.687 25.52m-16.77 5.978-8.895-9.624m-39.52-21 37.62 2.187 1.896 18.81m-29.46 9.186-13.12-17.5m-30.48-12.83 17.21-9.332 16.33 9.478-3.062 12.69-10.21 9.041-17.94-10.79m-40.97-16.19 17.21-10.06 21.44 15.16 2.333 11.08-14 13.42-27.12-13.12m-6.999-19.1 7.145 2.625-.1459 16.48-6.999 8.02" paint-order="fill markers stroke" transform="translate(-10.69 15.76)"/><path stroke="#0ff" stroke-width="2.182" d="M153.6 129.4c0 .9866-.7997 1.786-1.786 1.786s-1.786-.7997-1.786-1.786c0-.9865.7997-1.786 1.786-1.786s1.786.7997 1.786 1.786zM41.8 178.16c0 .9865-.7998 1.786-1.786 1.786-.9865 0-1.786-.7997-1.786-1.786 0-.9865.7998-1.786 1.786-1.786.9865 0 1.786.7997 1.786 1.786zm18.8 10.93c0 .9865-.7998 1.786-1.786 1.786s-1.786-.7997-1.786-1.786c0-.9865.7998-1.786 1.786-1.786s1.786.7997 1.786 1.786zm5.62-59.05c0 .9866-.7998 1.786-1.786 1.786-.9865 0-1.786-.7997-1.786-1.786 0-.9865.7998-1.786 1.786-1.786.9865 0 1.786.7997 1.786 1.786zm60.44 26.28c0 .9865-.7997 1.786-1.786 1.786s-1.786-.7997-1.786-1.786.7997-1.786 1.786-1.786 1.786.7997 1.786 1.786zm6.99-7.429c0 .9865-.7997 1.786-1.786 1.786s-1.786-.7997-1.786-1.786.7997-1.786 1.786-1.786 1.786.7997 1.786 1.786zm-11.58-40.21c0 .9866-.7997 1.786-1.786 1.786s-1.786-.7997-1.786-1.786c.0001-.9865.7998-1.786 1.786-1.786.9866 0 1.786.7997 1.786 1.786zm-15.13 67.38c0 .9865-.7997 1.786-1.786 1.786s-1.786-.7997-1.786-1.786.7998-1.786 1.786-1.786 1.786.7997 1.786 1.786z" paint-order="fill markers stroke" transform="translate(-10.69 15.76)"/><path stroke="#00f" stroke-width="2.182" d="M92.19 190.9c0 .9865-.7998 1.786-1.786 1.786s-1.786-.7998-1.786-1.786c0-.9865.7998-1.786 1.786-1.786s1.786.7997 1.786 1.786zm-19.25-64.43c0 .9865-.7998 1.786-1.786 1.786-.9865 0-1.786-.7997-1.786-1.786 0-.9865.7998-1.786 1.786-1.786.9865 0 1.786.7997 1.786 1.786zm8.258 27.54c0 .9865-.7998 1.786-1.786 1.786s-1.786-.7997-1.786-1.786c0-.9865.7998-1.786 1.786-1.786s1.786.7997 1.786 1.786zm16.97 56.98c0 .9865-.7998 1.786-1.786 1.786-.9865 0-1.786-.7997-1.786-1.786 0-.9866.7998-1.786 1.786-1.786.9865 0 1.786.7997 1.786 1.786zm23.92-113.6c0 .9865-.7997 1.786-1.786 1.786s-1.786-.7997-1.786-1.786c.0001-.9865.7998-1.786 1.786-1.786.9866 0 1.786.7997 1.786 1.786z" paint-order="fill markers stroke" transform="translate(-10.69 15.76)"/></g><g transform="translate(-10.69 15.76)"><switch class="label" text-anchor="end" transform="rotate(73.22 -19.1484 81.0723)"><text id="svg__github_work__trsvg21" systemLanguage="it"><tspan id="svg__github_work__trsvg1">Luce incidente</tspan></text><text id="svg__github_work__trsvg22" systemLanguage="pt"><tspan id="svg__github_work__trsvg2">Luz incidente</tspan></text><text id="svg__github_work__trsvg23" systemLanguage="ru"><tspan id="svg__github_work__trsvg3">Падающий свет</tspan></text><text id="svg__github_work__trsvg24-ca" systemLanguage="ca"><tspan id="svg__github_work__trsvg4-ca">Llum incident</tspan></text><text id="svg__github_work__trsvg24"><tspan id="svg__github_work__trsvg4">Incident light</tspan></text></switch><rect width="69.08" height="23.1" x="126.8" y="57.56" fill="#fff" fill-rule="evenodd" paint-order="fill markers stroke"/><switch fill="#00f" class="label" text-anchor="middle" transform="translate(169.1953 69.0234)"><text id="svg__github_work__trsvg25" systemLanguage="it"><tspan id="svg__github_work__trsvg5">Luce</tspan><tspan id="svg__github_work__trsvg6" x="0" y="10">diffusa</tspan></text><text id="svg__github_work__trsvg26" systemLanguage="pt"><tspan id="svg__github_work__trsvg7">Luz</tspan><tspan id="svg__github_work__trsvg8" x="0" y="10">difusa</tspan></text><text id="svg__github_work__trsvg27" systemLanguage="ru"><tspan id="svg__github_work__trsvg9">Рассеянный</tspan><tspan id="svg__github_work__trsvg10" x="0" y="8">свет</tspan></text><text id="svg__github_work__trsvg28-ca" systemLanguage="ca"><tspan id="svg__github_work__trsvg11-ca">Llum</tspan><tspan id="svg__github_work__trsvg12-ca" x="0" y="10">reflectida</tspan></text><text id="svg__github_work__trsvg28"><tspan id="svg__github_work__trsvg11">Scattered</tspan><tspan id="svg__github_work__trsvg12" x="0" y="10">light</tspan></text></switch><rect width="69.08" height="23.1" x="134" y="90.1" fill="#fff" fill-rule="evenodd" paint-order="fill markers stroke"/><switch fill="#00f" class="label" transform="translate(139 99.296)"><text id="svg__github_work__trsvg29" systemLanguage="it"><tspan id="svg__github_work__trsvg13">primaria</tspan></text><text id="svg__github_work__trsvg30" systemLanguage="pt"><tspan id="svg__github_work__trsvg14">primária</tspan></text><text id="svg__github_work__trsvg31" systemLanguage="ru"><tspan id="svg__github_work__trsvg15">первичный</tspan></text><text id="svg__github_work__trsvg32-ca" systemLanguage="ca"><tspan id="svg__github_work__trsvg16-ca">primària</tspan></text><text id="svg__github_work__trsvg32"><tspan id="svg__github_work__trsvg16">primary</tspan></text></switch><switch fill="#0ff" class="label" transform="translate(139 111.0502)"><text id="svg__github_work__trsvg33" systemLanguage="it"><tspan id="svg__github_work__trsvg17">secondaria</tspan></text><text id="svg__github_work__trsvg34" systemLanguage="pt"><tspan id="svg__github_work__trsvg18">secundária</tspan></text><text id="svg__github_work__trsvg35" systemLanguage="ru"><tspan id="svg__github_work__trsvg19">вторичный</tspan></text><text id="svg__github_work__trsvg36-ca" systemLanguage="ca"><tspan id="svg__github_work__trsvg20-ca">secundària</tspan></text><text id="svg__github_work__trsvg36"><tspan id="svg__github_work__trsvg20">secondary</tspan></text></switch></g><path fill="none" stroke="#00f" stroke-width="0.3273" d="M190.8 54.72h-21.54m14.52-2.165 7.888 2.165-7.888 2.165 1.444-2.165zm4.126-8.602-18.65 10.77m11.5-9.137 7.914-2.069-5.748 5.819.1675-2.597zm-.7278-9.513-10.77 18.65m5.387-13.66 5.819-5.748-2.069 7.914-1.153-2.333zm-5.387-7.875v21.54m-2.165-14.52 2.165-7.888 2.165 7.888-2.165-1.443zm-8.602-4.126 10.77 18.65m-9.137-11.5-2.069-7.914 5.819 5.748-2.597-.1675zm-9.513.7278 18.65 10.77m-13.66-5.387-5.748-5.819 7.914 2.069-2.333 1.153zm-7.875 5.387h21.54m-14.52 2.165-7.888-2.165 7.888-2.165-1.444 2.165z" paint-order="fill markers stroke" transform="translate(-10.69 15.76)"/></svg>