<svg viewBox="0 0 208 241.74"><g fill-rule="evenodd" paint-order="fill markers stroke"><path fill="#fff" d="M0 0h208v241.7H0z"/><path fill="#e6e6e6" d="M205.41 239.36v-97.41l-33.54-2.625-7.437 6.562-11.52 2.042-26.39-6.708-6.853 9.77-37.62-2.187-16.33-9.478-17.21 9.332-21.44-15.16-17.21 10.06-7.145-2.625v98.43"/><path fill="#03fdfe" stroke="#000" stroke-linejoin="round" stroke-width="1.637" d="M19.09 3.06l70.38 236.3"/></g><path fill="none" stroke="#0ff" stroke-linejoin="round" stroke-width="1.637" d="M109.61 124.46h12.77m-68.62 21.36l-12.97 93.54m-11.46-45.42l-13.92 45.42m125.9-94.17l-4.994 94.17m-22.1-67.25l91.22 61.13m-84.23-68.56l-118.5-63.99m45.4 104.2l118.6-202.5m-72.22 189.4l-91.75-53.32" paint-order="fill markers stroke"/><path fill="none" stroke="#00f" stroke-linejoin="round" stroke-width="1.637" d="M109.61 113.07h13.2m-62.35 29.11L2.73 23.38m65.99 146.3L2.73 64.28m76.98 142.3l125.7-125.7m-119.7 145.8L2.75 178.47" paint-order="fill markers stroke"/><g fill-rule="evenodd" paint-order="fill markers stroke"><path fill="#0ff" d="M150.01 190.76l10.75 12.59-15.73-5.158 4.35-2.466zm-4.719-36.61l-5.308 15.68-3.621-16.15 4.346 2.474zm-94.49 37.25l12.21-11.18-4.609 15.9-2.616-4.262zm36.49 1.471l-11.53-11.87 16.02 4.142-4.184 2.739zm-55.97 9.895l-8.944 13.93.394-16.55 3.618 3.452zm23.22-30.02l-6.617 15.17-2.24-16.4 4.121 2.834zm-26.56-14.34l-11.53-11.87 16.02 4.142-4.184 2.74zm85.08 7.004l-11.9-11.51 16.15 3.64-4.096 2.868zm-92.31-49.87l-11.9-11.51 16.15 3.64-4.096 2.869zm63.39 19.98l11.57-11.83-3.727 16.13-2.847-4.112z"/><path d="M66.17 110.93l.264 16.55-8.834-14 4.924.872z"/><path fill="#0f0" stroke="#000" stroke-linejoin="round" stroke-width="1.637" d="M57.61 97.54l4.92 16.82"/><path fill="#00f" d="M20.97 194.26L9.44 182.39l16.02 4.142-4.184 2.739zm121.4-56.58l14.43-8.107-8.107 14.43-1.577-4.746zm43.41-43.41l14.43-8.107-8.107 14.43-1.577-4.746zm-159.8-12.9l-2.945-16.29 10.99 12.38-5.001-.061zm-7.227 16.9l-4.668-15.88 12.25 11.13-4.979.474zm77.49 85.54l14.43-8.107-8.107 14.43-1.577-4.746z"/></g><g fill="none" stroke-linejoin="round" paint-order="fill markers stroke"><path stroke="#4d4d4d" stroke-opacity=".974" stroke-width=".764" d="M7.08 239.36l-4.229-10.28m27.12-2.552l-17.35-8.166-9.915 10.79m45.93-13.42l-.73-15.02-8.311-10.06-28.87 9.332 1.896 18.37m36.02-2.625l-18.66 10.79 1.896 12.83m54.66-27.69l-22-16.93-16.62 5.979.729 15.02 18.23 18.52m35.43 5.104l-1.167-6.416-9.916-7.874-24.35 9.186-.73 5.104m46.66-36.02l-17.64-8.749-8.621 17.07 4.685 13.4m9.916 7.874l14.58-13.12 23.62 12.83m-11.96-40.83l-14.58 11.52 2.916 16.48m26.4 19.54l-2.78-6.708 5.979-9.77 28.39 8.749 10.98-2.771m-10.98 2.771l-2.58 7.728m15.6-31.5l-2.041 21 12.83 10.21 7.874-2.479m-5.687-39.52l-12.98 10.79-15.6-8.457-22.31 10.35-3.5 13.12m60.08-21.87l-5.687-3.937-4.374-14.87m10.06-33.1l-30.77 7.437 3.79 16.62 16.91 9.041 10.06-8.895m0-31.35l-33.54-2.625-7.436 6.562 10.21 10.64m-5.833 31.5l2.333 11.37m-22.31 10.35l-21.44-17.94m3.062-12.39l16.77-5.978m-16.77 5.978l-3.062 12.39m-32.23 2.77l-3.062-15.6 29.46-9.186m-52.79.73l-4.23 24.21m-61.83-.438l8.02 5.687m28.87-9.332l-2.77-17.5m116.1-25.23l11.52-2.042m14 27.27l-9.623 14.87-21.58-14.58m-27.56-22.46l6.853-9.77 26.39 6.708-5.687 25.52m-16.77 5.978l-8.895-9.624m-39.52-21l37.62 2.187 1.896 18.81m-29.46 9.186l-13.12-17.5m-30.48-12.83l17.21-9.332 16.33 9.478-3.062 12.69-10.21 9.04-17.94-10.79m-40.97-16.19l17.21-10.06 21.44 15.16 2.333 11.08-14 13.42-27.12-13.12m-7-19.1l7.146 2.626-.146 16.48-6.999 8.02"/><path stroke="#0ff" stroke-width="2.182" d="M142.91 145.16a1.786 1.786 0 11-3.572 0 1.786 1.786 0 013.572 0zm-111.8 48.76a1.786 1.786 0 11-3.572 0 1.786 1.786 0 013.572 0zm18.8 10.93a1.786 1.786 0 11-3.572 0 1.786 1.786 0 013.572 0zm5.62-59.05a1.786 1.786 0 11-3.572 0 1.786 1.786 0 013.572 0zm60.44 26.28a1.786 1.786 0 11-3.572 0 1.786 1.786 0 013.572 0zm6.99-7.429a1.786 1.786 0 11-3.572 0 1.786 1.786 0 013.572 0zm-11.58-40.21a1.786 1.786 0 11-3.572 0 1.786 1.786 0 013.572 0zm-15.13 67.38a1.786 1.786 0 11-3.572 0 1.786 1.786 0 013.572 0z"/><path stroke="#00f" stroke-width="2.182" d="M81.5 206.66a1.786 1.786 0 11-3.572 0 1.786 1.786 0 013.572 0zm-19.25-64.43a1.786 1.786 0 11-3.572 0 1.786 1.786 0 013.572 0zm8.258 27.54a1.786 1.786 0 11-3.572 0 1.786 1.786 0 013.572 0zm16.97 56.98a1.786 1.786 0 11-3.572 0 1.786 1.786 0 013.572 0zm23.92-113.6a1.786 1.786 0 11-3.572 0 1.786 1.786 0 013.572 0z"/></g><path fill="#fff" fill-rule="evenodd" d="M116.11 73.32h69.08v23.1h-69.08zm7.2 32.54h69.08v23.1h-69.08z" paint-order="fill markers stroke"/><path fill="none" stroke="#00f" stroke-width=".327" d="M180.11 70.48h-21.54m14.52-2.165l7.888 2.165-7.888 2.165 1.444-2.165zm4.126-8.602l-18.65 10.77m11.5-9.137l7.914-2.069-5.748 5.819.168-2.597zm-.728-9.513l-10.77 18.65m5.387-13.66l5.82-5.748-2.07 7.914-1.153-2.333zm-5.387-7.875v21.54m-2.165-14.52l2.165-7.888 2.165 7.888-2.165-1.443zm-8.602-4.126l10.77 18.65m-9.137-11.5l-2.069-7.914 5.82 5.748-2.598-.168zm-9.513.728l18.65 10.77m-13.66-5.387l-5.748-5.82 7.914 2.07-2.333 1.153zm-7.875 5.387h21.54m-14.52 2.165l-7.888-2.165 7.888-2.165-1.444 2.165z" paint-order="fill markers stroke"/></svg>