<svg viewBox="0 0 788.1 374.5"><defs><linearGradient id="b" x1="0.7" x2="198.1" y1="141.3" y2="141.3" gradientTransform="matrix(2.15778 0 0 .32914 85.855 191.63)" gradientUnits="userSpaceOnUse"><stop stop-color="#020005"/><stop offset="0" stop-color="#020006"/><stop offset="0" stop-color="#030008"/><stop offset="0" stop-color="#04000a"/><stop offset="0.1" stop-color="#06000d"/><stop offset="0.1" stop-color="#080110"/><stop offset="0.1" stop-color="#0c0117"/><stop offset="0.1" stop-color="#11021f"/><stop offset="0.1" stop-color="#17032a"/><stop offset="0.1" stop-color="#1f053a"/><stop offset="0.1" stop-color="#25084b"/><stop offset="0.1" stop-color="#290a5c"/><stop offset="0.2" stop-color="#2b0e6f"/><stop offset="0.2" stop-color="#291380"/><stop offset="0.2" stop-color="#1f237b"/><stop offset="0.2" stop-color="#132e74"/><stop offset="0.2" stop-color="#09376c"/><stop offset="0.2" stop-color="#0a3e66"/><stop offset="0.2" stop-color="#0c4667"/><stop offset="0.3" stop-color="#0e4f6a"/><stop offset="0.3" stop-color="#10596c"/><stop offset="0.3" stop-color="#11636d"/><stop offset="0.3" stop-color="#146e6f"/><stop offset="0.3" stop-color="#177970"/><stop offset="0.3" stop-color="#178672"/><stop offset="0.3" stop-color="#1a9574"/><stop offset="0.4" stop-color="#1da375"/><stop offset="0.4" stop-color="#1db273"/><stop offset="0.4" stop-color="#20c070"/><stop offset="0.4" stop-color="#22cb6b"/><stop offset="0.4" stop-color="#21d662"/><stop offset="0.4" stop-color="#23e054"/><stop offset="0.4" stop-color="#36e842"/><stop offset="0.4" stop-color="#50ed28"/><stop offset="0.5" stop-color="#73eb22"/><stop offset="0.5" stop-color="#8fe722"/><stop offset="0.5" stop-color="#a5e221"/><stop offset="0.5" stop-color="#b9dc22"/><stop offset="0.5" stop-color="#cbd621"/><stop offset="0.5" stop-color="#dcce20"/><stop offset="0.5" stop-color="#ecc420"/><stop offset="0.6" stop-color="#f2b735"/><stop offset="0.6" stop-color="#f5ab42"/><stop offset="0.6" stop-color="#f69f49"/><stop offset="0.6" stop-color="#f7944b"/><stop offset="0.6" stop-color="#f98848"/><stop offset="0.6" stop-color="#fa7b42"/><stop offset="0.6" stop-color="#fb6c39"/><stop offset="0.6" stop-color="#fd5b2e"/><stop offset="0.7" stop-color="#fc471f"/><stop offset="0.7" stop-color="#f7300f"/><stop offset="0.7" stop-color="#ea220d"/><stop offset="0.7" stop-color="#d42215"/><stop offset="0.7" stop-color="#bf2318"/><stop offset="0.7" stop-color="#a92309"/><stop offset="0.7" stop-color="#981f07"/><stop offset="0.8" stop-color="#871b06"/><stop offset="0.8" stop-color="#771805"/><stop offset="0.8" stop-color="#671504"/><stop offset="0.8" stop-color="#591303"/><stop offset="0.8" stop-color="#4d1103"/><stop offset="0.8" stop-color="#420e02"/><stop offset="0.8" stop-color="#370c01"/><stop offset="0.9" stop-color="#2e0a01"/><stop offset="0.9" stop-color="#270801"/><stop offset="0.9" stop-color="#210600"/><stop offset="0.9" stop-color="#1e0400"/><stop offset="0.9" stop-color="#1a0300"/><stop offset="0.9" stop-color="#170200"/><stop offset="0.9" stop-color="#130100"/><stop offset="0.9" stop-color="#100100"/><stop offset="1" stop-color="#0c0100"/><stop offset="1" stop-color="#080100"/><stop offset="1" stop-color="#060100"/><stop offset="1" stop-color="#040100"/></linearGradient></defs><linearGradient id="a" x1="765.7" x2="797.2" y1="26.5" y2="26.5" gradientTransform="matrix(.38889 0 0 2.57143 .47 .47)" gradientUnits="userSpaceOnUse"><stop stop-color="#4c34a3"/><stop offset="0.1" stop-color="#5380ad"/><stop offset="0.3" stop-color="#2a8eb0"/><stop offset="0.3" stop-color="#4eabae"/><stop offset="0.4" stop-color="#4cbf35"/><stop offset="0.5" stop-color="#eef059"/><stop offset="0.6" stop-color="#f2ca61"/><stop offset="0.6" stop-color="#e48d3c"/><stop offset="0.8" stop-color="#ff5b45"/><stop offset="1" stop-color="#bf2626"/></linearGradient><path fill="#fff" d="M.5.5h787.2V374H.5z" style="display:inline;stroke:#000;stroke-width:.941775"/><path fill="#dbdbdb" d="M21.6 68.6h744v81h-744z" style="display:inline"/><path fill="url(#a)" d="M298.3 68.6h12.3v81h-12.3z" style="display:inline;fill:url(#a)"/><g fill="none" stroke="#000" style="display:inline"><path d="M61 61.6v7m53.4 0v-7m53.4 0v7m53.4 0v-7m53.4 0v7m53.5 0v-7m53.4 0v7m53.4 0v-7m53.4 0v7m53.4 0v-7m53.4 0v7m53.5 0v-7m53.4 0v7"/><path d="M185.2 68.2v81m76 0v-81m137 0v81m80.3 7v-88m26.7 0v53.4m0 16.4v11.2m26.7 7V138m0-16.4V68.2m26.7 0v81" style="display:inline" transform="translate(.47 .47)"/><path d="M51.6 149.6v7m53.5 0v-7m53.4 0v7m53.4 0v-7m53.4 0v7m53.4 0v-7m53.4 0v7m53.5 0v-7m160.2 0v7m53.4 0v-7m53.4 0v7"/><path stroke-dasharray="4.44 4" d="M87.2 238.2v-15l210.6-38.7v-35.3m214.4 89v-15L310 184.5v-35.3" style="display:inline" transform="translate(.47 .47)"/><path d="M574.6 27.5h-16.3m5.4-2.5-5.2 2.2v.7l5.2 2.2M721.1 195h16.3m-5.5-2.5 5.3 2.2v.7l-5.3 2.2" style="display:inline" transform="translate(.47 .47)"/></g><g font-family="'Liberation Serif'" font-size="14.2" style="display:inline"><text x="580.2" y="33.4" font-size="19" style="display:inline;-inkscape-font-specification:&quot;Noto Sans, Normal&quot;;font-family:&quot;Noto Sans&quot;;font-weight:400;font-style:normal;font-stretch:normal;font-variant:normal;font-size:19px;font-variant-ligatures:normal;font-variant-caps:normal;font-variant-numeric:normal;font-variant-east-asian:normal" transform="translate(.47 .47)">频率的增加 ( ν )</text><text x="51" y="58" transform="translate(.47 .47)">10<tspan dy="-6" font-size="10">24</tspan></text><text x="104.4" y="58" transform="translate(.47 .47)">10<tspan dy="-6" font-size="10">22</tspan></text><text x="157.8" y="58" transform="translate(.47 .47)">10<tspan dy="-6" font-size="10">20</tspan></text><text x="211.3" y="58" transform="translate(.47 .47)">10<tspan dy="-6" font-size="10">18</tspan></text><text x="264.7" y="58" transform="translate(.47 .47)">10<tspan dy="-6" font-size="10">16</tspan></text><text x="318.1" y="58" transform="translate(.47 .47)">10<tspan dy="-6" font-size="10">14</tspan></text><text x="371.5" y="58" transform="translate(.47 .47)">10<tspan dy="-6" font-size="10">12</tspan></text><text x="424.9" y="58" transform="translate(.47 .47)">10<tspan dy="-6" font-size="10">10</tspan></text><text x="480.8" y="58" transform="translate(.47 .47)">10<tspan dy="-6" font-size="10">8</tspan></text><text x="534.3" y="58" transform="translate(.47 .47)">10<tspan dy="-6" font-size="10">6</tspan></text><text x="587.7" y="58" transform="translate(.47 .47)">10<tspan dy="-6" font-size="10">4</tspan></text><text x="641.1" y="58" transform="translate(.47 .47)">10<tspan dy="-6" font-size="10">2</tspan></text><text x="694.5" y="58" transform="translate(.47 .47)">10<tspan dy="-6" font-size="10">0</tspan></text><text x="731" y="58" transform="translate(.47 .47)">ν (Hz)</text><text x="85.7" y="113" style="-inkscape-font-specification:&quot;Noto Sans, Normal&quot;;font-family:&quot;Noto Sans&quot;;font-weight:400;font-style:normal;font-stretch:normal;font-variant:normal;font-size:14.19999981px;font-variant-ligatures:normal;font-variant-caps:normal;font-variant-numeric:normal;font-variant-east-asian:normal" transform="translate(.47 .47)">γ射线</text><text x="206.2" y="113" style="font-style:normal;font-variant:normal;font-weight:400;font-stretch:normal;font-size:14.2px;font-family:&quot;Noto Sans&quot;;-inkscape-font-specification:&quot;Noto Sans, Normal&quot;;font-variant-ligatures:normal;font-variant-caps:normal;font-variant-numeric:normal;font-variant-east-asian:normal" transform="translate(.47 .47)">X射线</text><text x="262.1" y="108.2" style="font-style:normal;font-variant:normal;font-weight:400;font-stretch:normal;font-size:9.44776px;font-family:&quot;Noto Sans&quot;;-inkscape-font-specification:&quot;Noto Sans, Normal&quot;;font-variant-ligatures:normal;font-variant-caps:normal;font-variant-numeric:normal;font-variant-east-asian:normal;stroke-width:.665336" transform="matrix(1.00474 0 0 .99528 .47 .47)"><tspan x="262.1" y="108.2" style="stroke-width:.665336">紫外线</tspan><tspan x="262.1" y="120.2" style="stroke-width:.665336">UV</tspan></text><text x="353.5" y="113.2" style="font-style:normal;font-variant:normal;font-weight:400;font-stretch:normal;font-size:14.2px;font-family:&quot;Noto Sans&quot;;-inkscape-font-specification:&quot;Noto Sans, Normal&quot;;font-variant-ligatures:normal;font-variant-caps:normal;font-variant-numeric:normal;font-variant-east-asian:normal;text-align:center;text-anchor:middle" transform="translate(.47 .47)"><tspan x="353.5" y="113.2">红外线IR</tspan></text><text x="426.1" y="113" style="font-style:normal;font-variant:normal;font-weight:400;font-stretch:normal;font-size:14.2px;font-family:&quot;Noto Sans&quot;;-inkscape-font-specification:&quot;Noto Sans, Normal&quot;;font-variant-ligatures:normal;font-variant-caps:normal;font-variant-numeric:normal;font-variant-east-asian:normal" transform="translate(.47 .47)">微波</text><text x="482" y="113" style="-inkscape-font-specification:&quot;Noto Sans, Normal&quot;;font-family:&quot;Noto Sans&quot;;font-weight:400;font-style:normal;font-stretch:normal;font-variant:normal;font-size:14.19999981px;font-variant-ligatures:normal;font-variant-caps:normal;font-variant-numeric:normal;font-variant-east-asian:normal" transform="translate(.47 .47)">FM</text><text x="534" y="113" style="-inkscape-font-specification:&quot;Noto Sans, Normal&quot;;font-family:&quot;Noto Sans&quot;;font-weight:400;font-style:normal;font-stretch:normal;font-variant:normal;font-size:14.19999981px;font-variant-ligatures:normal;font-variant-caps:normal;font-variant-numeric:normal;font-variant-east-asian:normal" transform="translate(.47 .47)">AM</text><text x="625.2" y="113" style="font-style:normal;font-variant:normal;font-weight:400;font-stretch:normal;font-size:14.2px;font-family:&quot;Noto Sans&quot;;-inkscape-font-specification:&quot;Noto Sans, Normal&quot;;font-variant-ligatures:normal;font-variant-caps:normal;font-variant-numeric:normal;font-variant-east-asian:normal" transform="translate(.47 .47)">长波无线电</text><text x="490.1" y="135.3" style="font-style:normal;font-variant:normal;font-weight:400;font-stretch:normal;font-size:14.2px;font-family:&quot;Noto Sans&quot;;-inkscape-font-specification:&quot;Noto Sans, Normal&quot;;font-variant-ligatures:normal;font-variant-caps:normal;font-variant-numeric:normal;font-variant-east-asian:normal" transform="translate(.47 .47)">无线电波</text><text x="41.5" y="172" transform="translate(.47 .47)">10<tspan dy="-6" font-size="10">−16</tspan></text><text x="94.9" y="172" transform="translate(.47 .47)">10<tspan dy="-6" font-size="10">−14</tspan></text><text x="147.6" y="172" transform="translate(.47 .47)">10<tspan dy="-6" font-size="10">−12</tspan></text><text x="201.8" y="172" transform="translate(.47 .47)">10<tspan dy="-6" font-size="10">−10</tspan></text><text x="257.7" y="172" transform="translate(.47 .47)">10<tspan dy="-6" font-size="10">−8</tspan></text><text x="311.1" y="172" transform="translate(.47 .47)">10<tspan dy="-6" font-size="10">−6</tspan></text><text x="364.5" y="172" transform="translate(.47 .47)">10<tspan dy="-6" font-size="10">−4</tspan></text><text x="417.9" y="172" transform="translate(.47 .47)">10<tspan dy="-6" font-size="10">−2</tspan></text><text x="473.8" y="172" transform="translate(.47 .47)">10<tspan dy="-6" font-size="10">0</tspan></text><text x="527.3" y="172" style="display:inline" transform="translate(.47 .47)">10<tspan dy="-6" font-size="10">2</tspan></text><text x="580.7" y="172" transform="translate(.47 .47)">10<tspan dy="-6" font-size="10">4</tspan></text><text x="634.1" y="172" transform="translate(.47 .47)">10<tspan dy="-6" font-size="10">6</tspan></text><text x="687.5" y="172" style="display:inline" transform="translate(.47 .47)">10<tspan dy="-6" font-size="10">8</tspan></text><text x="738" y="172" style="display:inline" transform="translate(.47 .47)">λ (m)</text><text x="252" y="231.4" style="display:inline;-inkscape-font-specification:&quot;Noto Sans, Normal&quot;;font-family:&quot;Noto Sans&quot;;font-weight:400;font-style:normal;font-stretch:normal;font-variant:normal;font-size:14.2px;font-variant-ligatures:normal;font-variant-caps:normal;font-variant-numeric:normal;font-variant-east-asian:normal" transform="translate(.47 .47)">可见光波谱</text><text x="572.2" y="199.5" font-size="19" style="display:inline;-inkscape-font-specification:&quot;Noto Sans, Normal&quot;;font-family:&quot;Noto Sans&quot;;font-weight:400;font-style:normal;font-stretch:normal;font-variant:normal;font-size:19px;font-variant-ligatures:normal;font-variant-caps:normal;font-variant-numeric:normal;font-variant-east-asian:normal" transform="translate(.47 .47)">波长的增长 ( λ )</text></g><path fill="url(#a)" d="M87.6 238.6H513v64H87.6z" style="display:inline;fill:url(#b);stroke-width:.842741"/><g font-family="FreeSans" font-size="20" style="display:inline" text-anchor="middle"><text x="497" y="30.8" style="font-style:normal;font-variant:normal;font-weight:400;font-stretch:normal;font-size:18.7737px;font-family:&quot;Noto Sans&quot;;-inkscape-font-specification:&quot;Noto Sans, Normal&quot;;font-variant-ligatures:normal;font-variant-caps:normal;font-variant-numeric:normal;font-variant-east-asian:normal" transform="translate(85.855 306.469)scale(.71021)">红</text><text x="362.6" y="30.7" style="font-style:normal;font-variant:normal;font-weight:400;font-stretch:normal;font-size:18.7737px;font-family:&quot;Noto Sans&quot;;-inkscape-font-specification:&quot;Noto Sans, Normal&quot;;font-variant-ligatures:normal;font-variant-caps:normal;font-variant-numeric:normal;font-variant-east-asian:normal" transform="translate(85.855 306.469)scale(.71021)">橙</text><text x="321.3" y="30.8" style="font-style:normal;font-variant:normal;font-weight:400;font-stretch:normal;font-size:18.7737px;font-family:&quot;Noto Sans&quot;;-inkscape-font-specification:&quot;Noto Sans, Normal&quot;;font-variant-ligatures:normal;font-variant-caps:normal;font-variant-numeric:normal;font-variant-east-asian:normal" transform="translate(85.855 306.469)scale(.71021)">黄</text><text x="248.7" y="30.7" style="font-style:normal;font-variant:normal;font-weight:400;font-stretch:normal;font-size:18.7737px;font-family:&quot;Noto Sans&quot;;-inkscape-font-specification:&quot;Noto Sans, Normal&quot;;font-variant-ligatures:normal;font-variant-caps:normal;font-variant-numeric:normal;font-variant-east-asian:normal" transform="translate(85.855 306.469)scale(.71021)">绿</text><text x="152.2" y="30.8" style="font-style:normal;font-variant:normal;font-weight:400;font-stretch:normal;font-size:18.7737px;font-family:&quot;Noto Sans&quot;;-inkscape-font-specification:&quot;Noto Sans, Normal&quot;;font-variant-ligatures:normal;font-variant-caps:normal;font-variant-numeric:normal;font-variant-east-asian:normal" transform="translate(85.855 306.469)scale(.71021)">蓝</text><text x="59.4" y="30.8" style="font-style:normal;font-variant:normal;font-weight:400;font-stretch:normal;font-size:18.7737px;font-family:&quot;Noto Sans&quot;;-inkscape-font-specification:&quot;Noto Sans, Normal&quot;;font-variant-ligatures:normal;font-variant-caps:normal;font-variant-numeric:normal;font-variant-east-asian:normal" transform="translate(85.855 306.469)scale(.71021)">紫</text><g font-size="10" style="display:inline"><text x="-23.4" y="13.1" transform="rotate(-90 196.162 110.307)scale(.71021)">380</text><text x="-23.4" y="112.8" transform="rotate(-90 196.162 110.307)scale(.71021)">450</text><text x="-23.4" y="184.8" transform="rotate(-90 196.162 110.307)scale(.71021)">495</text><text x="-23.4" y="304.8" transform="rotate(-90 196.162 110.307)scale(.71021)">570</text><text x="-23.4" y="340.8" transform="rotate(-90 196.162 110.307)scale(.71021)">590</text><text x="-23.5" y="388.8" transform="rotate(-90 196.162 110.307)scale(.71021)">620</text><text x="-23.5" y="598.8" transform="rotate(-90 196.162 110.307)scale(.71021)">750</text></g><path fill="none" d="M2.7 2.2v39m113.6-.2V2.2m71.8 0v39m119.7 0v-39m35.9 0v39m47.8 0v-39m209.4 0v39" style="display:inline;fill:#fff;stroke:#000;stroke-width:.99854" transform="translate(85.855 306.469)scale(.71021)"/></g></svg>