<svg xmlns="http://www.w3.org/2000/svg" xmlns:xlink="http://www.w3.org/1999/xlink" viewBox="0 0 136 212"><defs><linearGradient id="svg__github_work__a" x1="88" x2="88" y1="66" y2="54" gradientTransform="translate(-51 -23)" gradientUnits="userSpaceOnUse"><stop offset="0" stop-color="#00f"/><stop offset="1" stop-color="#00f" stop-opacity="0"/></linearGradient></defs><rect width="136" height="212" fill="#fff"/><path fill="#aaa" stroke="#000" stroke-width="0.8" d="M134 210v-22l-4 1-2 2-1-2-2-1-3 2-1-2-2 2-3 1-1-2-2 1-2 2-1-4-5 1-1-2h-3l-1 2h-2l-2-2-1 2h-5l-1 2h-3l-1-2-1 3-3 1-1-3-3-1-1 2-2-1-3 1-1-2-4-2h-2l-1 2v4l-3-2-2-2-5 1-4-3-2 1h-3l-1 3-3-3-2 1-2-1-2 2-4-3-1 2-3 1-4-2-1-3-2 4-2 1-1-4h-2l-1 4-6-2-1 4-2-1-2-2v21"/><path fill="none" stroke="#00f" stroke-width="0.8" d="M107 44v145L72 62m25-18v144l6-119M87 44v147L54 74m23-30v145L26 98m41-54v144L91 66M57 44v145L7 123m40-79v144L43 73m-6-29v144l79-81"/><g id="svg__github_work__c"><g id="svg__github_work__b"><path fill="#00f" d="m37 43 2-2-2 6-2-6z"/><path fill="none" stroke="url(#svg__github_work__a)" d="M37 31v12"/></g><use xlink:href="#svg__github_work__b" transform="translate(10)"/><use xlink:href="#svg__github_work__b" transform="translate(20)"/><use xlink:href="#svg__github_work__b" transform="translate(30)"/></g><use xlink:href="#svg__github_work__c" transform="translate(40)"/><path fill="#00f" d="M115.7 107.3h-2.8l5.6-3-2.8 5.7zM103 69.5l-2 2 2.2-6 1.8 6zm-12-3.4-2.4 1.6 3-5.5.8 6.3zm-19-3.8-1 2.6-.3-6.3 4 5zM54 74.1l-1.2 2.6v-6.3l4 5zm-11-1-2 2 1.6-6 2.4 5.8zM26.2 98.5l-.5 2.8-1.7-6 5 3.8zm-19 24.6-.4 2.8-2-6 5.3 3.5z"/><g stroke="#fff" font-family="Arial" font-size="12" paint-order="stroke markers fill"><switch><text x="157" y="-50" systemLanguage="yue" transform="rotate(72)"><tspan>方向</tspan></text><text x="157" y="-50" transform="rotate(72)"><tspan>directions</tspan></text></switch><switch><text x="102" y="63" systemLanguage="yue" transform="rotate(53)"><tspan>反射嘅光線</tspan></text><text x="102" y="63" transform="rotate(53)"><tspan>Reflected rays</tspan></text></switch><switch><text x="122" y="29" systemLanguage="yue" transform="rotate(57)"><tspan>散開去</tspan></text><text x="122" y="29" transform="rotate(57)"><tspan>scatter</tspan></text></switch><switch><text x="-21" y="154" systemLanguage="yue" transform="rotate(-39)"><tspan>唔同</tspan></text><text x="-21" y="154" transform="rotate(-39)"><tspan>in all</tspan></text></switch><switch><text x="26" y="14" systemLanguage="yue"><tspan>光射照落</tspan><tspan x="38" y="27">去一塊表面</tspan></text><text x="26" y="14"><tspan>Light rays shining</tspan><tspan x="38" y="27">on a surface</tspan></text></switch></g></svg>