<?xml version="1.0"?><svg xmlns="http://www.w3.org/2000/svg" width="136mm" height="212mm" viewBox="0 0 136 212" xmlns:xlink="http://www.w3.org/1999/xlink"><defs><linearGradient id="a" x1="88" x2="88" y1="66" y2="54" gradientTransform="translate(-51 -23)" gradientUnits="userSpaceOnUse"><stop stop-color="#00f" offset="0"/><stop stop-color="#00f" stop-opacity="0" offset="1"/></linearGradient></defs><path fill="#fff" d="M0 0h136v212H0z"/><path d="M134 210v-22l-4 1-2 2-1-2-2-1-3 2-1-2-2 2-3 1-1-2-2 1-2 2-1-4-5 1-1-2h-3l-1 2h-2l-2-2-1 2h-5l-1 2h-3l-1-2-1 3-3 1-1-3-3-1-1 2-2-1-3 1-1-2-4-2h-2l-1 2v4l-3-2-2-2-5 1-4-3-2 1h-3l-1 3-3-3-2 1-2-1-2 2-4-3-1 2-3 1-4-2-1-3-2 4-2 1-1-4h-2l-1 4-6-2-1 4-2-1-2-2v21" fill="#aaa" stroke="#000" stroke-width="0.8"/><path d="M107 44v145L72 62m25-18v144l6-119M87 44v147L54 74m23-30v145L26 98m41-54v144L91 66M57 44v145L7 123m40-79v144L43 73m-6-29v144l79-81" fill="none" stroke="#00f" stroke-width="0.8"/><g id="d"><g id="b"><path d="m37 43 2-2-2 6-2-6z" fill="#00f"/><path d="M37 31v12" fill="none" stroke="url(#a)"/></g><use transform="translate(10)" href="#b"/><use transform="translate(20)" href="#b"/><use transform="translate(30)" href="#b"/></g><use transform="translate(40)" href="#d"/><path d="M115.7 107.3h-2.8l5.6-3-2.8 5.7zM103 69.5l-2 2 2.2-6 1.8 6zm-12-3.4-2.4 1.6 3-5.5.8 6.3zm-19-3.8-1 2.6-.3-6.3 4 5zM54 74.1l-1.2 2.6v-6.3l4 5zm-11-1-2 2 1.6-6 2.4 5.8zM26.2 98.5l-.5 2.8-1.7-6 5 3.8zm-19 24.6-.4 2.8-2-6 5.3 3.5z" fill="#00f"/><g font-family="Arial" stroke="#fff" font-size="12" paint-order="stroke markers fill"><switch><text transform="rotate(72)" x="157" y="-50" systemLanguage="yue"><tspan>方向</tspan></text><text transform="rotate(72)" x="157" y="-50"><tspan>directions</tspan></text></switch><switch><text transform="rotate(53)" x="102" y="63" systemLanguage="yue"><tspan>反射嘅光線</tspan></text><text transform="rotate(53)" x="102" y="63"><tspan>Reflected rays</tspan></text></switch><switch><text transform="rotate(57)" x="122" y="29" systemLanguage="yue"><tspan>散開去</tspan></text><text transform="rotate(57)" x="122" y="29"><tspan>scatter</tspan></text></switch><switch><text transform="rotate(-39)" x="-21" y="154" systemLanguage="yue"><tspan>唔同</tspan></text><text transform="rotate(-39)" x="-21" y="154"><tspan>in all</tspan></text></switch><switch><text x="26" y="14" systemLanguage="yue"><tspan>光射照落</tspan><tspan x="38" y="27">去一塊表面</tspan></text><text x="26" y="14"><tspan>Light rays shining</tspan><tspan x="38" y="27">on a surface</tspan></text></switch></g></svg>