<svg xmlns="http://www.w3.org/2000/svg" xmlns:xlink="http://www.w3.org/1999/xlink" viewBox="0 0 169.923 204.245"><rect width="14.275" height="183.4212" x="143.134" y="15.5828" fill="none"/><path fill="none" stroke="#000" stroke-width="0.5669" d="M143.673 107.428H11.1532"/><path fill="none" stroke="#000" d="M143.134 15.8522V199.004"/><path fill="none" stroke="#000" d="M143.134 107.293 28.7439 41.2499"/><path fill="none" stroke="#000" d="M143.269 107.293 28.977 173.28"/><path fill="none" stroke="#000" d="M125.946 117.431c-1.709-2.946-2.688-6.367-2.688-10.015"/><path fill="none" stroke="#000" d="M121.059 93.9056c-2.192 3.898-3.448 8.4254-3.448 13.2524"/><text x="23.0086" y="37.1301" font-family="Times-Bold" font-size="12">P</text><text x="17.0831" y="173.416" font-family="Times-Bold" font-size="12">Q</text><use xlink:href="#svg__github_work__a" width="169.923" height="204.245" transform="translate(0 80.6725)"/><use xlink:href="#svg__github_work__a" width="169.923" height="204.245" transform="translate(0 90.7566)"/><path fill="#fff" d="M145.289 99.0784h14.006v14.5446h-14.006z"/><text x="147.69" y="110.9771" font-family="Times-Bold" font-size="12">O</text><path d="M105.861 93.0818c0-1.6679-.523-3.2787-1.864-3.2787l-.016.2736c.539 0 .895.468.895 2.0731 0 .5807-.049 1.3875-.519 3.1947h-3.451c.245-.9528.589-2.3097 1.243-3.4565.54-.9813 1.112-1.8113 1.832-1.8113l.016-.2736c-2.289 0-4.7264 4.7872-4.7264 8.3816 0 .7523.1636 3.4523 1.8804 3.4523l.017-.274c-.507 0-.943-.435-.943-2.2302 0-1.0586.275-2.1663.55-3.2411h3.467c-.409 1.5968-.752 2.6234-1.341 3.6501-.474.8342-1.046 1.8212-1.733 1.8212l-.017.274c2.225 0 4.71-4.7698 4.71-8.5552z"/><path d="M109.317 96.967c0-.2399-.174-.5282-.425-.5282-.283 0-.581.3121-.581.7025 0 .2399.167.3918.407.3918.283 0 .599-.2517.599-.5661z"/><path d="M107.726 100.968c-.295.72-.295.742-.589 1.505-.055.163-.073.294-.073.48 0 .534.399.872.956.872 1.057 0 1.504-1.477 1.504-1.614 0-.109-.086-.141-.163-.141-.131 0-.152.076-.185.185-.251.872-.698 1.297-1.134 1.297-.131 0-.157-.051-.157-.327 0-.261.039-.458.113-.796.109-.294.218-.588.338-.883.109-.294.229-.589.338-.883.098-.251.305-.589.305-.7743 0-.5452-.47-.7143-1.068-.7143-1.058 0-1.516 1.3316-1.516 1.4556 0 .098.077.142.164.142.142 0 .152-.066.185-.174.306-1.0362.807-1.15 1.134-1.15.153 0 .28.0271.28.1792 0 .1089-.012.2615-.138.5888z"/><path d="M106.9 115.07c0-1.636-.513-3.215-1.829-3.215l-.016.268c.53 0 .878.459.878 2.033 0 .57-.048 1.361-.509 3.134h-3.384c.24-.935.577-2.266 1.219-3.391.529-.962 1.091-1.776 1.796-1.776l.016-.268c-2.245 0-4.635 4.695-4.635 8.22 0 .738.16 3.386 1.844 3.386l.016-.269c-.497 0-.924-.426-.924-2.187 0-1.038.27-2.125.539-3.179h3.401c-.401 1.566-.738 2.573-1.315 3.58-.466.818-1.027 1.786-1.701 1.786l-.016.269c2.182 0 4.62-4.678 4.62-8.391z"/><path d="M109.167 124.078c.117-.46.235-.92.342-1.39.011-.022.085-.332.096-.385.032-.096.3-.535.578-.802.342-.31.705-.187.898-.187.117 0 .31-.002.46-.038-.46.096-.499.492-.499.588 0 .236.171.523.392.523.288 0 .681-.28.681-.79 0-.385-.357-.551-1.013-.551-.727 0-1.219.351-1.443.562-.214-.77-.942-.562-1.048-.562-.385 0-.653.157-.824.369-.246.482-.363 1.027-.363 1.059 0 .096.074.139.16.139.139 0 .15-.043.225-.321.128-.524.32-.978.769-.978.278 0 .342.174.342.326 0 .192-.053.395-.139.748-.021.086-.181.717-.224.866-.171.706-.246.984-.396 1.604-.043.161-.107.428-.107.471 0 .246.204.278.343.278.374 0 .449-.275.534-.609z"/><path id="svg__github_work__a" fill="none" fill-opacity="0.75" fill-rule="evenodd" stroke="#000" stroke-linecap="butt" stroke-linejoin="miter" stroke-opacity="1" stroke-width="1" d="m143.0168 17.3034 9.084 9.0841"/><use xlink:href="#svg__github_work__a" width="169.923" height="204.245" transform="translate(0 10.084)"/><use xlink:href="#svg__github_work__a" width="169.923" height="204.245" transform="translate(0 20.1681)"/><use xlink:href="#svg__github_work__a" width="169.923" height="204.245" transform="translate(0 30.2522)"/><use xlink:href="#svg__github_work__a" width="169.923" height="204.245" transform="translate(0 40.3363)"/><use xlink:href="#svg__github_work__a" width="169.923" height="204.245" transform="translate(0 50.4203)"/><use xlink:href="#svg__github_work__a" width="169.923" height="204.245" transform="translate(0 60.5044)"/><use xlink:href="#svg__github_work__a" width="169.923" height="204.245" transform="translate(0 70.5885)"/><use xlink:href="#svg__github_work__a" width="169.923" height="204.245" transform="translate(0 100.8407)"/><use xlink:href="#svg__github_work__a" width="169.923" height="204.245" transform="translate(0 110.9247)"/><use xlink:href="#svg__github_work__a" width="169.923" height="204.245" transform="translate(0 121.0088)"/><use xlink:href="#svg__github_work__a" width="169.923" height="204.245" transform="translate(0 131.0929)"/><use xlink:href="#svg__github_work__a" width="169.923" height="204.245" transform="translate(0 141.1769)"/><use xlink:href="#svg__github_work__a" width="169.923" height="204.245" transform="translate(0 151.261)"/><use xlink:href="#svg__github_work__a" width="169.923" height="204.245" transform="translate(0 161.3451)"/><use xlink:href="#svg__github_work__a" width="169.923" height="204.245" transform="translate(0 171.4291)"/></svg>