<svg viewBox="0 0 40.83 29.11"><defs><marker id="k" orient="auto" overflow="visible" refX="0" refY="0"><use fill-rule="evenodd" stroke-width="1pt" href="#a" transform="matrix(-.4 0 0 -.4 -4 0)"/></marker><marker id="C" orient="auto" overflow="visible" refX="0" refY="0"><use fill-rule="evenodd" stroke-width="1pt" href="#a" transform="matrix(-.4 0 0 -.4 -4 0)"/></marker><marker id="t" orient="auto" overflow="visible" refX="0" refY="0"><use fill-rule="evenodd" stroke-width="1pt" href="#a" transform="matrix(-.4 0 0 -.4 -4 0)"/></marker><marker id="l" orient="auto" overflow="visible" refX="0" refY="0"><path fill="#f60" fill-rule="evenodd" stroke="#a00" stroke-width=".53" d="M-4 0l-2 2 7-2-7-2z"/></marker><marker id="v" orient="auto" overflow="visible" refX="0" refY="0"><use fill-rule="evenodd" stroke-width="1pt" href="#b" transform="matrix(-.4 0 0 -.4 -4 0)"/></marker><marker id="y" orient="auto" overflow="visible" refX="0" refY="0"><use fill-rule="evenodd" stroke-width="1pt" href="#b" transform="matrix(-.4 0 0 -.4 -4 0)"/></marker><linearGradient id="d"><stop offset="0" stop-color="#fc0"/><stop offset="1" stop-color="#de0000"/></linearGradient><linearGradient id="c"><stop offset="0" stop-color="#df5"/><stop offset="1" stop-color="green"/></linearGradient><radialGradient id="e" cx="88.44" cy="41.63" r=".42" fx="88.44" fy="41.63" gradientTransform="matrix(1.22058 .08873 -.0922 1.26813 -14.493 1.122)" gradientUnits="userSpaceOnUse" href="#c"/><radialGradient id="f" cx="88.44" cy="41.63" r=".42" fx="88.44" fy="41.63" gradientTransform="matrix(1.29178 0 0 1.29179 -21.222 7.994)" gradientUnits="userSpaceOnUse" href="#d"/><marker id="K" orient="auto" overflow="visible" refX="0" refY="0"><use fill-rule="evenodd" stroke-width="1pt" href="#b" transform="matrix(-.4 0 0 -.4 -4 0)"/></marker><marker id="A" orient="auto" overflow="visible" refX="0" refY="0"><use fill-rule="evenodd" stroke-width="1pt" href="#b" transform="matrix(-.4 0 0 -.4 -4 0)"/></marker><radialGradient id="H" cx="88.44" cy="41.63" r=".42" fx="88.44" fy="41.63" gradientTransform="translate(-57.644 -57.974) scale(1.55574)" gradientUnits="userSpaceOnUse" href="#d"/><radialGradient id="G" cx="88.44" cy="41.63" r=".42" fx="88.44" fy="41.63" gradientTransform="translate(-50.376 -52.982) scale(1.4642)" gradientUnits="userSpaceOnUse" href="#d"/><radialGradient id="L" cx="88.44" cy="41.63" r=".42" fx="88.44" fy="41.63" gradientTransform="rotate(4.158 864.01 330.443) scale(1.35978 1.41276)" gradientUnits="userSpaceOnUse" href="#c"/><radialGradient id="B" cx="88.44" cy="41.63" r=".42" fx="88.44" fy="41.63" gradientTransform="rotate(4.158 723.99 -544.67) scale(1.35977 1.41276)" gradientUnits="userSpaceOnUse" href="#c"/><radialGradient id="E" cx="88.44" cy="41.63" r=".42" fx="88.44" fy="41.63" gradientTransform="rotate(4.158 730.58 -571.469) scale(1.35978 1.41276)" gradientUnits="userSpaceOnUse" href="#c"/><radialGradient id="o" cx="88.44" cy="41.63" r=".42" fx="88.44" fy="41.63" gradientTransform="translate(-37.262 -25.616) scale(1.55574)" gradientUnits="userSpaceOnUse" href="#d"/><radialGradient id="n" cx="88.44" cy="41.63" r=".42" fx="88.44" fy="41.63" gradientTransform="translate(-29.993 -20.624) scale(1.4642)" gradientUnits="userSpaceOnUse" href="#d"/><radialGradient id="z" cx="88.44" cy="41.63" r=".42" fx="88.44" fy="41.63" gradientTransform="matrix(1.3562 .0986 -.10244 1.40904 26.805 -31.7)" gradientUnits="userSpaceOnUse" href="#c"/><radialGradient id="x" cx="88.44" cy="41.63" r=".42" fx="88.44" fy="41.63" gradientTransform="matrix(1.2055 .08763 -.09105 1.25248 39.684 -22.7)" gradientUnits="userSpaceOnUse" href="#c"/><radialGradient id="w" cx="88.44" cy="41.63" r=".42" fx="88.44" fy="41.63" gradientTransform="matrix(1.2055 .08764 -.09105 1.25248 39.687 -22.305)" gradientUnits="userSpaceOnUse" href="#c"/><radialGradient id="I" cx="88.44" cy="41.63" r=".42" fx="88.44" fy="41.63" gradientTransform="matrix(1.2055 .08764 -.09105 1.25248 39.117 -52.385)" gradientUnits="userSpaceOnUse" href="#c"/><radialGradient id="F" cx="88.44" cy="41.63" r=".42" fx="88.44" fy="41.63" gradientTransform="matrix(1.29178 0 0 1.29179 -35.425 -45.349)" gradientUnits="userSpaceOnUse" href="#d"/><radialGradient id="J" cx="88.44" cy="41.63" r=".42" fx="88.44" fy="41.63" gradientTransform="matrix(1.2055 .08764 -.09105 1.25248 39.117 -52.781)" gradientUnits="userSpaceOnUse" href="#c"/><path id="a" fill="#025" stroke="#025" d="M0 0l5-5-17.5 5L5 5z"/><path id="b" fill="#00d700" stroke="green" d="M0 0l5-5-17.5 5L5 5z"/></defs><g transform="translate(-88.506 9.415)"><rect width="40.83" height="29.11" x="88.51" y="-9.41" fill="#fff" paint-order="fill markers stroke" rx=".23" ry=".3"/><rect width="40.41" height="32.65" x="88.55" y="22.97" fill="#fff" paint-order="fill markers stroke" rx=".23" ry=".33"/><circle id="h" cx="89.76" cy="61.59" r=".45" fill="url(#e)" fill-opacity="1" stroke="#333" stroke-dasharray="none" stroke-miterlimit="4" stroke-width=".1" paint-order="fill markers stroke" stop-color="#000"/><circle id="i" cx="93.17" cy="61.59" r=".47" fill="url(#f)" fill-opacity="1" stroke="#f60" stroke-dasharray="none" stroke-miterlimit="4" stroke-width=".05" paint-order="fill markers stroke" stop-color="#000"/><g id="j" transform="translate(9.646 19.66)"><use width="100%" height="100%" href="#g" transform="translate(-.34 1.078)"/><use width="100%" height="100%" href="#h" transform="translate(-1.542 -20.251)"/><use width="100%" height="100%" href="#h" transform="translate(-.517 -20.124)"/><use width="100%" height="100%" href="#h" transform="translate(-1.122 -20.017)"/><use width="100%" height="100%" href="#h" transform="translate(-1.032 -20.548)"/><use width="100%" height="100%" href="#h" transform="translate(-.663 -19.495)"/><use width="100%" height="100%" href="#h" transform="translate(-1.175 -19.292)"/><use width="100%" height="100%" href="#h" transform="translate(-1.633 -19.718)"/><use id="g" width="100%" height="100%" x="0" y="0" href="#i" transform="translate(-3.255 -21.595)"/><use width="100%" height="100%" href="#g" transform="translate(-1.994 2.807)"/><use width="100%" height="100%" href="#g" transform="translate(.921 2.136)"/><use width="100%" height="100%" href="#g" transform="translate(-.72 2.226)"/><use width="100%" height="100%" href="#g" transform="translate(-.066 3.146)"/><use width="100%" height="100%" href="#i" transform="translate(-5.46 -21.117)"/></g><use width="100%" height="100%" href="#j" transform="rotate(-90 97.254 54.177)"/><use width="100%" height="100%" href="#j" transform="rotate(90 103.899 57.487)"/><use width="100%" height="100%" href="#j" transform="matrix(0 -1 -1 0 153.113 150.868)"/><use id="m" width="100%" height="100%" x="0" y="0" href="#i" transform="translate(1.011 -44.254)"/><path id="s" fill="none" fill-opacity="1" stroke="#025" stroke-dasharray="none" stroke-miterlimit="4" stroke-opacity="1" stroke-width=".2" marker-end="url(#k)" d="M103.65 61.59c.189 0 .377-.131.566-.142s.376.172.565.348c.188.177.376.225.565-.019s.377-.709.565-.775.377.359.565.818c.189.459.377.741.565.416.189-.326.377-1.172.565-1.498.189-.327.377.05.566.736s.376 1.407.565 1.233.377-1.212.565-1.867c.188-.656.377-.637.565.078.189.715.377 1.848.565 2.004.189.156.377-.75.566-1.63s.376-1.369.565-.861c.188.507.376 1.808.565 2.317s.377.018.565-.861c.188-.88.377-1.785.565-1.63.189.154.377 1.288.565 2.003.189.716.377.733.565.079.189-.655.377-1.693.566-1.868s.376.547.565 1.234.377 1.061.565.736c.188-.326.377-1.172.565-1.498.189-.327.377-.043.565.415.189.46.377.885.565.819.189-.066.377-.532.566-.776s.376-.195.565-.019.377.38.565.369a136 136 0 012.017-.015" opacity="1" paint-order="fill markers stroke" stop-color="#000"/><path id="p" fill="#f60" fill-opacity="1" stroke="#a00" stroke-dasharray="none" stroke-linecap="butt" stroke-linejoin="miter" stroke-miterlimit="4" stroke-opacity="1" stroke-width=".22" marker-end="url(#l)" d="M124.657 64.071l3.796-5.57"/><path id="q" fill="none" stroke="maroon" stroke-dasharray="none" stroke-linecap="butt" stroke-linejoin="miter" stroke-miterlimit="4" stroke-opacity="1" stroke-width=".22" d="M122.945 61.59h.85"/><use width="100%" height="100%" href="#h" transform="translate(5.055 -45.268)"/><use width="100%" height="100%" href="#m" transform="translate(30.187 -7.212)"/><use width="100%" height="100%" href="#i" transform="translate(13.203 -44.793)"/><use width="100%" height="100%" href="#h" transform="translate(20.09 -51.067)"/><use width="100%" height="100%" href="#i" transform="translate(17.454 -49.998)"/><use width="100%" height="100%" href="#j" transform="rotate(180 97.471 56.869)"/><use width="100%" height="100%" href="#i" opacity=".3" transform="translate(6.18 -20.985)"/><circle cx="99.67" cy="40.13" r=".54" fill="url(#n)" stroke="#f60" stroke-width=".06" opacity=".55" paint-order="fill markers stroke"/><circle cx="100.51" cy="38.93" r=".57" fill="url(#o)" stroke="#f60" stroke-width=".06" paint-order="fill markers stroke"/><use width="100%" height="100%" href="#p" transform="rotate(-.33 -4385.67 4137.243)"/><use width="100%" height="100%" href="#q" transform="translate(-21.661 -22.931)"/><use width="100%" height="100%" href="#r" transform="rotate(90 119.258 18.973)"/><use width="100%" height="100%" href="#s" transform="rotate(54.888 131.101 28.93)"/><use id="u" width="100%" height="100%" x="0" y="0" href="#h" transform="translate(30.293 -11.783)"/><path fill="none" stroke="#025" stroke-width=".07" marker-end="url(#t)" d="M117.13 49.825c-.002.06.05.121.053.181s-.076.118-.15.175c-.076.058-.098.117.001.18.1.063.29.129.317.19.026.06-.154.115-.346.17-.193.053-.312.11-.179.174.134.063.483.134.617.198.133.063-.025.119-.312.17s-.589.103-.518.165.5.134.77.202.26.128-.039.179-.771.097-.838.155.308.129.671.2c.364.07.565.136.352.19s-.755.097-.968.151c-.214.054-.012.12.352.19.363.071.737.142.671.2s-.54.104-.839.155-.308.11-.038.179.7.14.77.202-.23.113-.518.165c-.288.051-.445.107-.312.17s.483.135.617.198c.134.064.014.12-.179.175s-.371.109-.346.17c.026.06.217.126.317.189s.077.122.002.18c-.076.057-.162.115-.16.175s-.013.581-.015.641" paint-order="fill markers stroke"/><use width="100%" height="100%" href="#u" opacity=".33" transform="translate(-2.678 -.717)"/><use width="100%" height="100%" href="#u" opacity=".55" transform="translate(-1.928 -.517)"/><path fill="#00d700" stroke="green" stroke-width=".22" marker-end="url(#v)" d="M120.814 50.063l7.526 1.634"/><use width="100%" height="100%" href="#s" transform="rotate(55.446 131.928 50.47)"/><g transform="translate(-15.875)"><circle cx="142.65" cy="37.42" r=".44" fill="url(#w)" stroke="#333" stroke-width=".1" opacity=".33" paint-order="fill markers stroke"/><circle cx="142.65" cy="37.02" r=".44" fill="url(#x)" stroke="#333" stroke-width=".1" opacity=".55" paint-order="fill markers stroke"/><use id="r" width="100%" height="100%" x="0" y="0" href="#j" transform="matrix(0 1 1 0 81.53 -59.463)"/><path fill="#00d700" stroke="green" stroke-width=".22" marker-end="url(#y)" d="M142.626 34.71l-.017-8.54"/><circle cx="142.64" cy="35.49" r=".5" fill="url(#z)" stroke="#333" stroke-width=".11" paint-order="fill markers stroke"/><use stroke-width=".22" href="#A" transform="translate(22.562 -5.154)"/><use width="100%" height="100%" href="#s" transform="rotate(54.73 154.953 69.695)"/></g><g transform="translate(26.458)"><path fill="#00d700" stroke="green" stroke-width=".22" marker-end="url(#A)" d="M78.564 13.393l6.485 1.933"/><circle id="D" cx="78.25" cy="13.26" r=".5" fill="url(#B)" fill-opacity="1" stroke="#333" stroke-dasharray="none" stroke-miterlimit="4" stroke-width=".11" paint-order="fill markers stroke" stop-color="#000"/><path fill="none" stroke="#025" stroke-width=".07" marker-end="url(#C)" d="M75.279 13.197c-.002.06.05.121.052.181.003.06-.075.118-.15.176s-.097.117.002.18c.1.062.29.128.316.189.026.06-.153.115-.345.17-.193.054-.313.11-.18.174.134.064.484.134.618.198.133.064-.025.119-.312.17s-.589.103-.519.165.5.135.77.203c.27.067.261.127-.038.178s-.772.097-.838.155c-.067.058.307.13.671.2s.565.136.352.19-.755.098-.969.151c-.213.054-.011.12.352.19.364.071.738.142.672.2s-.54.104-.839.155c-.3.051-.308.111-.038.179s.7.14.77.202c.07.063-.231.114-.518.165s-.445.107-.312.17.483.135.616.199c.134.064.014.12-.178.174-.193.054-.372.11-.346.17.025.06.217.126.316.189.1.063.078.122.003.18-.076.058-.162.115-.16.175s-.013.581-.015.641" paint-order="fill markers stroke"/><use width="100%" height="100%" href="#D" opacity=".33" transform="translate(-2.678 -.751)"/><circle cx="76.32" cy="12.71" r=".5" fill="url(#E)" stroke="#333" stroke-width=".11" opacity=".55" paint-order="fill markers stroke"/><use width="100%" height="100%" href="#s" transform="rotate(54.823 146.343 -8.003)"/></g><g transform="translate(26.458)"><circle cx="78.97" cy="8.25" r=".47" fill="url(#F)" stroke="#f60" stroke-width=".05" opacity=".3" paint-order="fill markers stroke"/><circle cx="79.29" cy="7.77" r=".54" fill="url(#G)" stroke="#f60" stroke-width=".06" opacity=".55" paint-order="fill markers stroke"/><circle cx="80.13" cy="6.57" r=".57" fill="url(#H)" stroke="#f60" stroke-width=".06" paint-order="fill markers stroke"/><use width="100%" height="100%" href="#p" transform="rotate(-.33 -10010.024 7657.49)"/><use width="100%" height="100%" href="#q" transform="translate(-42.044 -55.289)"/><use width="100%" height="100%" href="#s" transform="rotate(55.017 151.947 -6.697)"/><use width="100%" height="100%" href="#j" transform="matrix(-1 0 0 1 177.304 -51.132)"/></g><g transform="translate(-21.167)"><circle cx="142.08" cy="7.34" r=".44" fill="url(#I)" stroke="#333" stroke-width=".1" opacity=".33" paint-order="fill markers stroke"/><circle cx="142.08" cy="6.95" r=".44" fill="url(#J)" stroke="#333" stroke-width=".1" opacity=".55" paint-order="fill markers stroke"/><use width="100%" height="100%" href="#j" transform="matrix(0 1 1 0 80.96 -89.54)"/><path fill="#00d700" stroke="green" stroke-width=".22" marker-end="url(#K)" d="M142.055 4.634l-.016-8.54"/><circle cx="142.07" cy="5.41" r=".5" fill="url(#L)" stroke="#333" stroke-width=".11" paint-order="fill markers stroke"/><use stroke-width=".22" href="#A" transform="translate(21.992 -35.231)"/><use width="100%" height="100%" href="#s" transform="rotate(54.706 183.625 53.98)"/></g><use width="100%" height="100%" href="#j" transform="rotate(-90 88.86 24.739)"/><use width="100%" height="100%" href="#j" transform="translate(16.793 -48.336)"/><use width="100%" height="100%" href="#j" transform="matrix(0 1 1 0 51.277 -91.78)"/><use width="100%" height="100%" href="#j" transform="translate(-1.43 -48.114)"/><text style="line-height:1.25;-inkscape-font-specification:&quot;EB Garamond, Normal&quot;;text-align:start;text-decoration-line:none;text-decoration-color:#000" x="88.94" y="58.79" fill="#333" stroke-width=".26" font-family="EB Garamond" font-size="2.82" letter-spacing="0" word-spacing="0"><tspan x="88.94" y="58.79" style="text-align:start">clone these:</tspan></text><use width="100%" height="100%" href="#i" transform="translate(4.218 -52.446)"/></g></svg>