<svg xmlns="http://www.w3.org/2000/svg" viewBox="0 0 40.83 29.11" xmlns:xlink="http://www.w3.org/1999/xlink"><defs><marker id="k" orient="auto" refX="0" refY="0" overflow="visible"><use transform="translate(-4)scale(-.4)" fill-rule="evenodd" stroke-width="1pt" href="#a"/></marker><marker id="D" orient="auto" refX="0" refY="0" overflow="visible"><use transform="translate(-4)scale(-.4)" fill-rule="evenodd" stroke-width="1pt" href="#a"/></marker><marker id="t" orient="auto" refX="0" refY="0" overflow="visible"><use transform="translate(-4)scale(-.4)" fill-rule="evenodd" stroke-width="1pt" href="#a"/></marker><marker id="l" orient="auto" refX="0" refY="0" overflow="visible"><path d="m-4 0-2 2 7-2-7-2Z" fill="#f60" fill-rule="evenodd" stroke="#a00" stroke-width="0.53"/></marker><marker id="v" orient="auto" refX="0" refY="0" overflow="visible"><use transform="translate(-4)scale(-.4)" fill-rule="evenodd" stroke-width="1pt" href="#b"/></marker><marker id="y" orient="auto" refX="0" refY="0" overflow="visible"><use transform="translate(-4)scale(-.4)" fill-rule="evenodd" stroke-width="1pt" href="#b"/></marker><linearGradient id="d"><stop offset="0" stop-color="#fc0"/><stop offset="1" stop-color="#de0000"/></linearGradient><linearGradient id="c"><stop offset="0" stop-color="#df5"/><stop offset="1" stop-color="green"/></linearGradient><radialGradient id="e" cx="88.44" cy="41.63" r="0.42" fx="88.44" fy="41.63" gradientTransform="rotate(4.158 -22.696 -199.064)scale(1.2238 1.27148)" gradientUnits="userSpaceOnUse" href="#c"/><radialGradient id="f" cx="88.44" cy="41.63" r="0.42" fx="88.44" fy="41.63" gradientTransform="matrix(1.29178 0 0 1.29179 -21.222 7.994)" gradientUnits="userSpaceOnUse" href="#d"/><marker id="L" orient="auto" refX="0" refY="0" overflow="visible"><use transform="translate(-4)scale(-.4)" fill-rule="evenodd" stroke-width="1pt" href="#b"/></marker><marker id="B" orient="auto" refX="0" refY="0" overflow="visible"><use transform="translate(-4)scale(-.4)" fill-rule="evenodd" stroke-width="1pt" href="#b"/></marker><radialGradient id="I" cx="88.44" cy="41.63" r="0.42" fx="88.44" fy="41.63" gradientTransform="translate(-57.644 -57.974)scale(1.55574)" gradientUnits="userSpaceOnUse" href="#d"/><radialGradient id="H" cx="88.44" cy="41.63" r="0.42" fx="88.44" fy="41.63" gradientTransform="translate(-50.376 -52.982)scale(1.4642)" gradientUnits="userSpaceOnUse" href="#d"/><radialGradient id="M" cx="88.44" cy="41.63" r="0.42" fx="88.44" fy="41.63" gradientTransform="rotate(4.158 864.01 330.443)scale(1.35978 1.41276)" gradientUnits="userSpaceOnUse" href="#c"/><radialGradient id="C" cx="88.44" cy="41.63" r="0.42" fx="88.44" fy="41.63" gradientTransform="rotate(4.158 723.99 -544.67)scale(1.35977 1.41276)" gradientUnits="userSpaceOnUse" href="#c"/><radialGradient id="F" cx="88.44" cy="41.63" r="0.42" fx="88.44" fy="41.63" gradientTransform="rotate(4.158 730.58 -571.469)scale(1.35978 1.41276)" gradientUnits="userSpaceOnUse" href="#c"/><radialGradient id="o" cx="88.44" cy="41.63" r="0.42" fx="88.44" fy="41.63" gradientTransform="translate(-37.262 -25.616)scale(1.55574)" gradientUnits="userSpaceOnUse" href="#d"/><radialGradient id="n" cx="88.44" cy="41.63" r="0.42" fx="88.44" fy="41.63" gradientTransform="translate(-29.993 -20.624)scale(1.4642)" gradientUnits="userSpaceOnUse" href="#d"/><radialGradient id="z" cx="88.44" cy="41.63" r="0.42" fx="88.44" fy="41.63" gradientTransform="matrix(1.3562 .0986 -.10244 1.40904 26.805 -31.7)" gradientUnits="userSpaceOnUse" href="#c"/><radialGradient id="x" cx="88.44" cy="41.63" r="0.42" fx="88.44" fy="41.63" gradientTransform="matrix(1.2055 .08763 -.09105 1.25248 39.684 -22.7)" gradientUnits="userSpaceOnUse" href="#c"/><radialGradient id="w" cx="88.44" cy="41.63" r="0.42" fx="88.44" fy="41.63" gradientTransform="rotate(4.158 327.065 535.484)scale(1.20869 1.25579)" gradientUnits="userSpaceOnUse" href="#c"/><radialGradient id="J" cx="88.44" cy="41.63" r="0.42" fx="88.44" fy="41.63" gradientTransform="rotate(4.158 741.082 512.588)scale(1.20869 1.25579)" gradientUnits="userSpaceOnUse" href="#c"/><radialGradient id="G" cx="88.44" cy="41.63" r="0.42" fx="88.44" fy="41.63" gradientTransform="matrix(1.29178 0 0 1.29179 -35.425 -45.349)" gradientUnits="userSpaceOnUse" href="#d"/><radialGradient id="K" cx="88.44" cy="41.63" r="0.42" fx="88.44" fy="41.63" gradientTransform="rotate(4.158 746.549 512.39)scale(1.20869 1.25579)" gradientUnits="userSpaceOnUse" href="#c"/><path fill="#025" stroke="#025" d="m0 0 5-5-17.5 5L5 5Z" id="a"/><path fill="#00d700" stroke="green" d="m0 0 5-5-17.5 5L5 5Z" id="b"/></defs><g transform="translate(-88.506 9.415)"><rect width="40.83" height="29.11" x="88.51" y="-9.41" rx="0.23" ry="0.3" fill="#fff" paint-order="fill markers stroke"/><rect width="40.41" height="32.65" x="88.55" y="22.97" rx="0.23" ry="0.33" fill="#fff" paint-order="fill markers stroke"/><circle id="h" cx="89.76" cy="61.59" r="0.45" fill="url(#e)" fill-opacity="1" stroke="#333" stroke-width="0.1" stroke-miterlimit="4" stroke-dasharray="none" paint-order="fill markers stroke" stop-color="#000"/><circle id="i" cx="93.17" cy="61.59" r="0.47" fill="url(#f)" fill-opacity="1" stroke="#f60" stroke-width="0.05" stroke-miterlimit="4" stroke-dasharray="none" paint-order="fill markers stroke" stop-color="#000"/><g id="j" transform="translate(9.646 19.66)"><use width="100%" height="100%" transform="translate(-.34 1.078)" href="#g"/><use width="100%" height="100%" transform="translate(-1.542 -20.251)" href="#h"/><use width="100%" height="100%" transform="translate(-.517 -20.124)" href="#h"/><use width="100%" height="100%" transform="translate(-1.122 -20.017)" href="#h"/><use width="100%" height="100%" transform="translate(-1.032 -20.548)" href="#h"/><use width="100%" height="100%" transform="translate(-.663 -19.495)" href="#h"/><use width="100%" height="100%" transform="translate(-1.175 -19.292)" href="#h"/><use width="100%" height="100%" transform="translate(-1.633 -19.718)" href="#h"/><use id="g" width="100%" height="100%" x="0" y="0" transform="translate(-3.255 -21.595)" href="#i"/><use width="100%" height="100%" transform="translate(-1.994 2.807)" href="#g"/><use width="100%" height="100%" transform="translate(.921 2.136)" href="#g"/><use width="100%" height="100%" transform="translate(-.72 2.226)" href="#g"/><use width="100%" height="100%" transform="translate(-.066 3.146)" href="#g"/><use width="100%" height="100%" transform="translate(-5.46 -21.117)" href="#i"/></g><use width="100%" height="100%" transform="rotate(-90 97.254 54.177)" href="#j"/><use width="100%" height="100%" transform="rotate(90 103.899 57.487)" href="#j"/><use width="100%" height="100%" transform="matrix(0 -1 -1 0 153.113 150.868)" href="#j"/><use id="m" width="100%" height="100%" x="0" y="0" transform="translate(1.011 -44.254)" href="#i"/><path id="s" d="M103.65 61.59c.189 0 .377-.131.566-.142s.376.172.565.348c.188.177.376.225.565-.019s.377-.709.565-.775.377.359.565.818c.189.459.377.741.565.416.189-.326.377-1.172.565-1.498.189-.327.377.05.566.736s.376 1.407.565 1.233.377-1.212.565-1.867c.188-.656.377-.637.565.078.189.715.377 1.848.565 2.004.189.156.377-.75.566-1.63s.376-1.369.565-.861c.188.507.376 1.808.565 2.317s.377.018.565-.861c.188-.88.377-1.785.565-1.63.189.154.377 1.288.565 2.003.189.716.377.733.565.079.189-.655.377-1.693.566-1.868s.376.547.565 1.234.377 1.061.565.736c.188-.326.377-1.172.565-1.498.189-.327.377-.043.565.415.189.46.377.885.565.819.189-.066.377-.532.566-.776s.376-.195.565-.019.377.38.565.369a136 136 0 0 1 2.017-.015" opacity="1" fill="none" fill-opacity="1" stroke="#025" stroke-width="0.2" stroke-miterlimit="4" stroke-dasharray="none" stroke-opacity="1" marker-end="url(#k)" paint-order="fill markers stroke" stop-color="#000"/><path id="p" d="m124.657 64.071 3.796-5.57" fill="#f60" fill-opacity="1" stroke="#a00" stroke-width="0.22" stroke-linecap="butt" stroke-linejoin="miter" stroke-miterlimit="4" stroke-dasharray="none" stroke-opacity="1" marker-end="url(#l)"/><path id="q" d="M122.945 61.59h.85" fill="none" stroke="maroon" stroke-width="0.22" stroke-linecap="butt" stroke-linejoin="miter" stroke-miterlimit="4" stroke-dasharray="none" stroke-opacity="1"/><use width="100%" height="100%" transform="translate(5.055 -45.268)" href="#h"/><use width="100%" height="100%" transform="translate(30.187 -7.212)" href="#m"/><use width="100%" height="100%" transform="translate(13.203 -44.793)" href="#i"/><use width="100%" height="100%" transform="translate(20.09 -51.067)" href="#h"/><use width="100%" height="100%" transform="translate(17.454 -49.998)" href="#i"/><use width="100%" height="100%" transform="rotate(180 97.471 56.869)" href="#j"/><use width="100%" height="100%" transform="translate(6.18 -20.985)" opacity="0.3" href="#i"/><circle cx="99.67" cy="40.13" r="0.54" opacity="0.55" fill="url(#n)" stroke="#f60" stroke-width="0.06" paint-order="fill markers stroke"/><circle cx="100.51" cy="38.93" r="0.57" fill="url(#o)" stroke="#f60" stroke-width="0.06" paint-order="fill markers stroke"/><use width="100%" height="100%" transform="rotate(-.33 -4385.67 4137.243)" href="#p"/><use width="100%" height="100%" transform="translate(-21.661 -22.931)" href="#q"/><use width="100%" height="100%" transform="rotate(90 119.258 18.973)" href="#r"/><use width="100%" height="100%" transform="rotate(54.888 131.101 28.93)" href="#s"/><use id="u" width="100%" height="100%" x="0" y="0" transform="translate(30.293 -11.783)" href="#h"/><path d="M117.13 49.825c-.002.06.05.121.053.181s-.076.118-.15.175c-.076.058-.098.117.001.18.1.063.29.129.317.19.026.06-.154.115-.346.17-.193.053-.312.11-.179.174.134.063.483.134.617.198.133.063-.025.119-.312.17s-.589.103-.518.165.5.134.77.202.26.128-.039.179-.771.097-.838.155.308.129.671.2c.364.07.565.136.352.19s-.755.097-.968.151c-.214.054-.012.12.352.19.363.071.737.142.671.2s-.54.104-.839.155-.308.11-.038.179.7.14.77.202-.23.113-.518.165c-.288.051-.445.107-.312.17s.483.135.617.198c.134.064.014.12-.179.175s-.371.109-.346.17c.026.06.217.126.317.189s.077.122.002.18c-.076.057-.162.115-.16.175s-.013.581-.015.641" fill="none" stroke="#025" stroke-width="0.07" marker-end="url(#t)" paint-order="fill markers stroke"/><use width="100%" height="100%" transform="translate(-2.678 -.717)" opacity="0.33" href="#u"/><use width="100%" height="100%" transform="translate(-1.928 -.517)" opacity="0.55" href="#u"/><path d="m120.814 50.063 7.526 1.634" fill="#00d700" stroke="green" stroke-width="0.22" marker-end="url(#v)"/><use width="100%" height="100%" transform="rotate(55.446 131.928 50.47)" href="#s"/><g transform="translate(-15.875)"><circle cx="142.65" cy="37.42" r="0.44" opacity="0.33" fill="url(#w)" stroke="#333" stroke-width="0.1" paint-order="fill markers stroke"/><circle cx="142.65" cy="37.02" r="0.44" opacity="0.55" fill="url(#x)" stroke="#333" stroke-width="0.1" paint-order="fill markers stroke"/><use id="r" width="100%" height="100%" x="0" y="0" transform="matrix(0 1 1 0 81.53 -59.463)" href="#j"/><path d="m142.626 34.71-.017-8.54" fill="#00d700" stroke="green" stroke-width="0.22" marker-end="url(#y)"/><circle cx="142.64" cy="35.49" r="0.5" fill="url(#z)" stroke="#333" stroke-width="0.11" paint-order="fill markers stroke"/><use stroke-width="0.22" transform="translate(22.562 -5.154)" href="#A"/><use width="100%" height="100%" transform="rotate(54.73 154.953 69.695)" href="#s"/></g><g transform="translate(26.458)"><path d="m78.564 13.393 6.485 1.933" fill="#00d700" stroke="green" stroke-width="0.22" marker-end="url(#B)"/><circle id="E" cx="78.25" cy="13.26" r="0.5" fill="url(#C)" fill-opacity="1" stroke="#333" stroke-width="0.11" stroke-miterlimit="4" stroke-dasharray="none" paint-order="fill markers stroke" stop-color="#000"/><path d="M75.279 13.197c-.002.06.05.121.052.181.003.06-.075.118-.15.176s-.097.117.002.18c.1.062.29.128.316.189.026.06-.153.115-.345.17-.193.054-.313.11-.18.174.134.064.484.134.618.198.133.064-.025.119-.312.17s-.589.103-.519.165.5.135.77.203c.27.067.261.127-.038.178s-.772.097-.838.155c-.067.058.307.13.671.2s.565.136.352.19-.755.098-.969.151c-.213.054-.011.12.352.19.364.071.738.142.672.2s-.54.104-.839.155c-.3.051-.308.111-.038.179s.7.14.77.202c.07.063-.231.114-.518.165s-.445.107-.312.17.483.135.616.199c.134.064.014.12-.178.174-.193.054-.372.11-.346.17.025.06.217.126.316.189.1.063.078.122.003.18-.076.058-.162.115-.16.175s-.013.581-.015.641" fill="none" stroke="#025" stroke-width="0.07" marker-end="url(#D)" paint-order="fill markers stroke"/><use width="100%" height="100%" transform="translate(-2.678 -.751)" opacity="0.33" href="#E"/><circle cx="76.32" cy="12.71" r="0.5" opacity="0.55" fill="url(#F)" stroke="#333" stroke-width="0.11" paint-order="fill markers stroke"/><use width="100%" height="100%" transform="rotate(54.823 146.343 -8.003)" href="#s"/></g><g transform="translate(26.458)"><circle cx="78.97" cy="8.25" r="0.47" opacity="0.3" fill="url(#G)" stroke="#f60" stroke-width="0.05" paint-order="fill markers stroke"/><circle cx="79.29" cy="7.77" r="0.54" opacity="0.55" fill="url(#H)" stroke="#f60" stroke-width="0.06" paint-order="fill markers stroke"/><circle cx="80.13" cy="6.57" r="0.57" fill="url(#I)" stroke="#f60" stroke-width="0.06" paint-order="fill markers stroke"/><use width="100%" height="100%" transform="rotate(-.33 -10010.024 7657.49)" href="#p"/><use width="100%" height="100%" transform="translate(-42.044 -55.289)" href="#q"/><use width="100%" height="100%" transform="rotate(55.017 151.947 -6.697)" href="#s"/><use width="100%" height="100%" transform="matrix(-1 0 0 1 177.304 -51.132)" href="#j"/></g><g transform="translate(-21.167)"><circle cx="142.08" cy="7.34" r="0.44" opacity="0.33" fill="url(#J)" stroke="#333" stroke-width="0.1" paint-order="fill markers stroke"/><circle cx="142.08" cy="6.95" r="0.44" opacity="0.55" fill="url(#K)" stroke="#333" stroke-width="0.1" paint-order="fill markers stroke"/><use width="100%" height="100%" transform="matrix(0 1 1 0 80.96 -89.54)" href="#j"/><path d="m142.055 4.634-.016-8.54" fill="#00d700" stroke="green" stroke-width="0.22" marker-end="url(#L)"/><circle cx="142.07" cy="5.41" r="0.5" fill="url(#M)" stroke="#333" stroke-width="0.11" paint-order="fill markers stroke"/><use stroke-width="0.22" transform="translate(21.992 -35.231)" href="#A"/><use width="100%" height="100%" transform="rotate(54.706 183.625 53.98)" href="#s"/></g><use width="100%" height="100%" transform="rotate(-90 88.86 24.739)" href="#j"/><use width="100%" height="100%" transform="translate(16.793 -48.336)" href="#j"/><use width="100%" height="100%" transform="matrix(0 1 1 0 51.277 -91.78)" href="#j"/><use width="100%" height="100%" transform="translate(-1.43 -48.114)" href="#j"/><text style="line-height:1.25;-inkscape-font-specification:&quot;EB Garamond, Normal&quot;;text-align:start;text-decoration-line:none;text-decoration-color:#000" x="88.94" y="58.79" xml:space="preserve" font-size="2.82" font-family="EB Garamond" letter-spacing="0" word-spacing="0" fill="#333" stroke-width="0.26"><tspan x="88.94" y="58.79" style="text-align:start">clone these:</tspan></text><use width="100%" height="100%" transform="translate(4.218 -52.446)" href="#i"/></g></svg>