<svg xmlns:xlink="http://www.w3.org/1999/xlink" viewBox="0 0 40.8 29.1"><title>light-matter interaction - schematic diagram</title><defs><radialGradient xlink:href="#a" id="c" cx="88.4" cy="41.6" r="0.4" fx="88.4" fy="41.6" gradientTransform="rotate(4.158 -22.696 -199.064)scale(1.2238 1.27148)" gradientUnits="userSpaceOnUse"/><radialGradient xlink:href="#b" id="d" cx="88.4" cy="41.6" r="0.4" fx="88.4" fy="41.6" gradientTransform="matrix(1.29178 0 0 1.29179 -21.222 7.994)" gradientUnits="userSpaceOnUse"/><radialGradient xlink:href="#b" id="F" cx="88.4" cy="41.6" r="0.4" fx="88.4" fy="41.6" gradientTransform="translate(-57.644 -57.974)scale(1.55574)" gradientUnits="userSpaceOnUse"/><radialGradient xlink:href="#b" id="E" cx="88.4" cy="41.6" r="0.4" fx="88.4" fy="41.6" gradientTransform="translate(-50.376 -52.982)scale(1.4642)" gradientUnits="userSpaceOnUse"/><radialGradient xlink:href="#a" id="J" cx="88.4" cy="41.6" r="0.4" fx="88.4" fy="41.6" gradientTransform="rotate(4.158 864.01 330.443)scale(1.35978 1.41276)" gradientUnits="userSpaceOnUse"/><radialGradient xlink:href="#a" id="z" cx="88.4" cy="41.6" r="0.4" fx="88.4" fy="41.6" gradientTransform="rotate(4.158 723.99 -544.67)scale(1.35977 1.41276)" gradientUnits="userSpaceOnUse"/><radialGradient xlink:href="#a" id="C" cx="88.4" cy="41.6" r="0.4" fx="88.4" fy="41.6" gradientTransform="rotate(4.158 730.58 -571.469)scale(1.35978 1.41276)" gradientUnits="userSpaceOnUse"/><radialGradient xlink:href="#b" id="m" cx="88.4" cy="41.6" r="0.4" fx="88.4" fy="41.6" gradientTransform="translate(-37.262 -25.616)scale(1.55574)" gradientUnits="userSpaceOnUse"/><radialGradient xlink:href="#b" id="l" cx="88.4" cy="41.6" r="0.4" fx="88.4" fy="41.6" gradientTransform="translate(-29.993 -20.624)scale(1.4642)" gradientUnits="userSpaceOnUse"/><radialGradient xlink:href="#a" id="x" cx="88.4" cy="41.6" r="0.4" fx="88.4" fy="41.6" gradientTransform="matrix(1.3562 .0986 -.10244 1.40904 26.805 -31.7)" gradientUnits="userSpaceOnUse"/><radialGradient xlink:href="#a" id="v" cx="88.4" cy="41.6" r="0.4" fx="88.4" fy="41.6" gradientTransform="matrix(1.2055 .08763 -.09105 1.25248 39.684 -22.7)" gradientUnits="userSpaceOnUse"/><radialGradient xlink:href="#a" id="u" cx="88.4" cy="41.6" r="0.4" fx="88.4" fy="41.6" gradientTransform="rotate(4.158 327.065 535.484)scale(1.20869 1.25579)" gradientUnits="userSpaceOnUse"/><radialGradient xlink:href="#a" id="G" cx="88.4" cy="41.6" r="0.4" fx="88.4" fy="41.6" gradientTransform="rotate(4.158 741.082 512.588)scale(1.20869 1.25579)" gradientUnits="userSpaceOnUse"/><radialGradient xlink:href="#b" id="D" cx="88.4" cy="41.6" r="0.4" fx="88.4" fy="41.6" gradientTransform="matrix(1.29178 0 0 1.29179 -35.425 -45.349)" gradientUnits="userSpaceOnUse"/><radialGradient xlink:href="#a" id="H" cx="88.4" cy="41.6" r="0.4" fx="88.4" fy="41.6" gradientTransform="rotate(4.158 746.549 512.39)scale(1.20869 1.25579)" gradientUnits="userSpaceOnUse"/><marker id="i" orient="auto" refX="0" refY="0" style="overflow:visible"><path d="m0 0 5-5-17.5 5L5 5Z" style="fill:#025;fill-opacity:1;fill-rule:evenodd;stroke:#025;stroke-width:1pt;stroke-opacity:1" transform="translate(-4)scale(-.4)"/></marker><marker id="A" orient="auto" refX="0" refY="0" style="overflow:visible"><path d="m0 0 5-5-17.5 5L5 5Z" style="fill:#025;fill-opacity:1;fill-rule:evenodd;stroke:#025;stroke-width:1pt;stroke-opacity:1" transform="translate(-4)scale(-.4)"/></marker><marker id="r" orient="auto" refX="0" refY="0" style="overflow:visible"><path d="m0 0 5-5-17.5 5L5 5Z" style="fill:#025;fill-opacity:1;fill-rule:evenodd;stroke:#025;stroke-width:1pt;stroke-opacity:1" transform="translate(-4)scale(-.4)"/></marker><marker id="j" orient="auto" refX="0" refY="0" style="overflow:visible"><path d="m0 0 5-5-17.5 5L5 5Z" style="fill:#f60;fill-opacity:1;fill-rule:evenodd;stroke:#a00;stroke-width:1pt;stroke-opacity:1" transform="translate(-4)scale(-.4)"/></marker><marker id="t" orient="auto" refX="0" refY="0" style="overflow:visible"><path d="m0 0 5-5-17.5 5L5 5Z" style="fill:#00d700;fill-opacity:1;fill-rule:evenodd;stroke:green;stroke-width:1pt;stroke-opacity:1" transform="translate(-4)scale(-.4)"/></marker><marker id="w" orient="auto" refX="0" refY="0" style="overflow:visible"><path d="m0 0 5-5-17.5 5L5 5Z" style="fill:#00d700;fill-opacity:1;fill-rule:evenodd;stroke:green;stroke-width:1pt;stroke-opacity:1" transform="translate(-4)scale(-.4)"/></marker><marker id="I" orient="auto" refX="0" refY="0" style="overflow:visible"><path d="m0 0 5-5-17.5 5L5 5Z" style="fill:#00d700;fill-opacity:1;fill-rule:evenodd;stroke:green;stroke-width:1pt;stroke-opacity:1" transform="translate(-4)scale(-.4)"/></marker><marker id="y" orient="auto" refX="0" refY="0" style="overflow:visible"><path d="m0 0 5-5-17.5 5L5 5Z" style="fill:#00d700;fill-opacity:1;fill-rule:evenodd;stroke:green;stroke-width:1pt;stroke-opacity:1" transform="translate(-4)scale(-.4)"/></marker><linearGradient id="b"><stop offset="0" style="stop-color:#fc0;stop-opacity:1"/><stop offset="1" style="stop-color:#de0000;stop-opacity:1"/></linearGradient><linearGradient id="a"><stop offset="0" style="stop-color:#df5;stop-opacity:1"/><stop offset="1" style="stop-color:green;stop-opacity:1"/></linearGradient></defs><g transform="translate(-88.506 9.415)"><rect width="40.8" height="29.1" x="88.5" y="-9.4" rx="0.2" ry="0.3" style="opacity:1;fill:#fff;fill-opacity:1;stroke:#fff;stroke-width:0;stroke-linejoin:miter;stroke-miterlimit:4;stroke-dasharray:none;stroke-opacity:1;paint-order:fill markers stroke;stop-color:#000"/><rect width="40.4" height="32.6" x="88.6" y="23" rx="0.2" ry="0.3" style="opacity:1;fill:#fff;fill-opacity:1;stroke:#fff;stroke-width:0;stroke-linejoin:miter;stroke-miterlimit:4;stroke-dasharray:none;stroke-opacity:1;paint-order:fill markers stroke;stop-color:#000"/><circle id="f" cx="89.8" cy="61.6" r="0.5" style="fill:url(#c);fill-opacity:1;stroke:#333;stroke-width:.0999999;stroke-miterlimit:4;stroke-dasharray:none;paint-order:fill markers stroke;stop-color:#000"/><circle id="g" cx="93.2" cy="61.6" r="0.5" style="fill:url(#d);fill-opacity:1;stroke:#f60;stroke-width:.0499999;stroke-miterlimit:4;stroke-dasharray:none;paint-order:fill markers stroke;stop-color:#000"/><g id="h" transform="translate(9.646 19.66)"><use xlink:href="#e" width="100%" height="100%" transform="translate(-.34 1.078)"/><use xlink:href="#f" width="100%" height="100%" transform="translate(-1.542 -20.251)"/><use xlink:href="#f" width="100%" height="100%" transform="translate(-.517 -20.124)"/><use xlink:href="#f" width="100%" height="100%" transform="translate(-1.122 -20.017)"/><use xlink:href="#f" width="100%" height="100%" transform="translate(-1.032 -20.548)"/><use xlink:href="#f" width="100%" height="100%" transform="translate(-.663 -19.495)"/><use xlink:href="#f" width="100%" height="100%" transform="translate(-1.175 -19.292)"/><use xlink:href="#f" width="100%" height="100%" transform="translate(-1.633 -19.718)"/><use xlink:href="#g" id="e" width="100%" height="100%" x="0" y="0" transform="translate(-3.255 -21.595)"/><use xlink:href="#e" width="100%" height="100%" transform="translate(-1.994 2.807)"/><use xlink:href="#e" width="100%" height="100%" transform="translate(.921 2.136)"/><use xlink:href="#e" width="100%" height="100%" transform="translate(-.72 2.226)"/><use xlink:href="#e" width="100%" height="100%" transform="translate(-.066 3.146)"/><use xlink:href="#g" width="100%" height="100%" transform="translate(-5.46 -21.117)"/></g><use xlink:href="#h" width="100%" height="100%" transform="rotate(-90 97.254 54.177)"/><use xlink:href="#h" width="100%" height="100%" transform="rotate(90 103.899 57.487)"/><use xlink:href="#h" width="100%" height="100%" transform="matrix(0 -1 -1 0 153.113 150.868)"/><use xlink:href="#g" id="k" width="100%" height="100%" x="0" y="0" transform="translate(1.011 -44.254)"/><path id="q" d="m103.7 61.6.5-.2q.3 0 .6.4.3.3.5 0l.6-.8q.3.1.6.8.3.9.5.4l.6-1.5q.3-.4.6.8c.2.7.3 1.4.5 1.2s.4-1.2.6-1.9q.3-1 .6.1c.2.7.3 1.9.5 2s.4-.7.6-1.6q.3-1.5.6-.9l.5 2.3c.2.6.4 0 .6-.8s.4-1.8.6-1.6l.5 2q.3 1 .6 0c.2-.6.4-1.7.6-1.8s.3.5.5 1.2q.3 1.1.6.7l.5-1.5q.3-.3.6.5.3.7.6.8c.2 0 .4-.6.5-.8q.3-.3.6 0 .3.4.6.4h2" style="opacity:1;fill:none;fill-opacity:1;stroke:#025;stroke-width:.2;stroke-miterlimit:4;stroke-dasharray:none;stroke-opacity:1;marker-end:url(#i);paint-order:fill markers stroke;stop-color:#000"/><path id="n" d="m124.7 64 3.8-5.5" style="fill:#f60;fill-opacity:1;stroke:#a00;stroke-width:.22;stroke-linecap:butt;stroke-linejoin:miter;stroke-miterlimit:4;stroke-dasharray:none;stroke-opacity:1;marker-end:url(#j)"/><path id="o" d="M123 61.6h.8" style="fill:none;stroke:maroon;stroke-width:.220001;stroke-linecap:butt;stroke-linejoin:miter;stroke-miterlimit:4;stroke-dasharray:none;stroke-opacity:1"/><use xlink:href="#f" width="100%" height="100%" transform="translate(5.055 -45.268)"/><use xlink:href="#k" width="100%" height="100%" transform="translate(30.187 -7.212)"/><use xlink:href="#g" width="100%" height="100%" transform="translate(13.203 -44.793)"/><use xlink:href="#f" width="100%" height="100%" transform="translate(20.09 -51.067)"/><use xlink:href="#g" width="100%" height="100%" transform="translate(17.454 -49.998)"/><use xlink:href="#h" width="100%" height="100%" transform="rotate(180 97.471 56.869)"/><use xlink:href="#g" width="100%" height="100%" style="opacity:.3" transform="translate(6.18 -20.985)"/><circle cx="99.7" cy="40.1" r="0.5" style="opacity:.55;fill:url(#l);fill-opacity:1;stroke:#f60;stroke-width:.0566732;stroke-miterlimit:4;stroke-dasharray:none;paint-order:fill markers stroke;stop-color:#000"/><circle cx="100.5" cy="38.9" r="0.6" style="fill:url(#m);fill-opacity:1;stroke:#f60;stroke-width:.0602166;stroke-miterlimit:4;stroke-dasharray:none;paint-order:fill markers stroke;stop-color:#000"/><use xlink:href="#n" width="100%" height="100%" transform="rotate(-.33 -4385.67 4137.243)"/><use xlink:href="#o" width="100%" height="100%" transform="translate(-21.661 -22.931)"/><use xlink:href="#p" width="100%" height="100%" transform="rotate(90 119.258 18.973)"/><use xlink:href="#q" width="100%" height="100%" transform="rotate(54.888 131.101 28.93)"/><use xlink:href="#f" id="s" width="100%" height="100%" x="0" y="0" transform="translate(30.293 -11.783)"/><path d="M117.1 49.8v.4q-.2 0 0 .2l.3.2-.4.1q-.3 0-.2.2l.6.2q.2 0-.3.2l-.5.1.8.2q.4.2 0 .2l-.9.2.7.2q.5 0 .3.2l-1 .1.4.2q.7 0 .7.2l-.9.2q-.5 0 0 .1l.8.2-.5.2q-.5 0-.4.2l.7.2-.2.1-.4.2.4.2v.2q-.2 0-.2.2v.6" style="fill:none;fill-opacity:1;stroke:#025;stroke-width:.0727221;stroke-miterlimit:4;stroke-dasharray:none;stroke-opacity:1;marker-end:url(#r);paint-order:fill markers stroke;stop-color:#000"/><use xlink:href="#s" width="100%" height="100%" style="opacity:.33" transform="translate(-2.678 -.717)"/><use xlink:href="#s" width="100%" height="100%" style="opacity:.55" transform="translate(-1.928 -.517)"/><path d="m120.8 50 7.5 1.7" style="fill:#00d700;fill-opacity:1;stroke:green;stroke-width:.22;stroke-linecap:butt;stroke-linejoin:miter;stroke-miterlimit:4;stroke-dasharray:none;stroke-opacity:1;marker-end:url(#t)"/><use xlink:href="#q" width="100%" height="100%" transform="rotate(55.446 131.928 50.47)"/><g transform="translate(-15.875)"><circle cx="142.6" cy="37.4" r="0.4" style="opacity:.33;fill:url(#u);fill-opacity:1;stroke:#333;stroke-width:.0987653;stroke-miterlimit:4;stroke-dasharray:none;paint-order:fill markers stroke;stop-color:#000"/><circle cx="142.6" cy="37" r="0.4" style="opacity:.55;fill:url(#v);fill-opacity:1;stroke:#333;stroke-width:.0987653;stroke-miterlimit:4;stroke-dasharray:none;paint-order:fill markers stroke;stop-color:#000"/><use xlink:href="#h" id="p" width="100%" height="100%" x="0" y="0" transform="matrix(0 1 1 0 81.53 -59.463)"/><path d="M142.6 34.7v-8.5" style="fill:#00d700;fill-opacity:1;stroke:green;stroke-width:.22;stroke-linecap:butt;stroke-linejoin:miter;stroke-miterlimit:4;stroke-dasharray:none;stroke-opacity:1;marker-end:url(#w)"/><circle cx="142.6" cy="35.5" r="0.5" style="fill:url(#x);fill-opacity:1;stroke:#333;stroke-width:.111111;stroke-miterlimit:4;stroke-dasharray:none;paint-order:fill markers stroke;stop-color:#000"/><path d="M120.5 40h.8m-.3.5v-.8" style="fill:none;stroke:green;stroke-width:.220001;stroke-linecap:butt;stroke-linejoin:miter;stroke-miterlimit:4;stroke-dasharray:none;stroke-opacity:1" transform="translate(22.562 -5.154)"/><use xlink:href="#q" width="100%" height="100%" transform="rotate(54.73 154.953 69.695)"/></g><g transform="translate(26.458)"><path d="m78.6 13.4 6.4 2" style="fill:#00d700;fill-opacity:1;stroke:green;stroke-width:.22;stroke-linecap:butt;stroke-linejoin:miter;stroke-miterlimit:4;stroke-dasharray:none;stroke-opacity:1;marker-end:url(#y)"/><circle id="B" cx="78.3" cy="13.3" r="0.5" style="fill:url(#z);fill-opacity:1;stroke:#333;stroke-width:.111111;stroke-miterlimit:4;stroke-dasharray:none;paint-order:fill markers stroke;stop-color:#000"/><path d="M75.3 13.2v.2l-.1.2v.1l.3.2-.3.2q-.4 0-.2.2l.6.2-.3.1q-.5 0-.5.2l.7.2q.5 0 0 .2l-.8.1.6.2.4.2-1 .2.4.2q.6 0 .6.2l-.8.1q-.5 0 0 .2l.7.2-.5.2q-.5 0-.3.1l.6.2q.1.2-.2.2t-.3.2l.3.2v.1l-.2.2v.7" style="fill:none;fill-opacity:1;stroke:#025;stroke-width:.0727221;stroke-miterlimit:4;stroke-dasharray:none;stroke-opacity:1;marker-end:url(#A);paint-order:fill markers stroke;stop-color:#000"/><use xlink:href="#B" width="100%" height="100%" style="opacity:.33" transform="translate(-2.678 -.751)"/><circle cx="76.3" cy="12.7" r="0.5" style="opacity:.55;fill:url(#C);fill-opacity:1;stroke:#333;stroke-width:.111111;stroke-miterlimit:4;stroke-dasharray:none;paint-order:fill markers stroke;stop-color:#000"/><use xlink:href="#q" width="100%" height="100%" transform="rotate(54.823 146.343 -8.003)"/></g><g transform="translate(26.458)"><circle cx="79" cy="8.2" r="0.5" style="opacity:.3;fill:url(#D);fill-opacity:1;stroke:#f60;stroke-width:.0499999;stroke-miterlimit:4;stroke-dasharray:none;paint-order:fill markers stroke;stop-color:#000"/><circle cx="79.3" cy="7.8" r="0.5" style="opacity:.55;fill:url(#E);fill-opacity:1;stroke:#f60;stroke-width:.0566732;stroke-miterlimit:4;stroke-dasharray:none;paint-order:fill markers stroke;stop-color:#000"/><circle cx="80.1" cy="6.6" r="0.6" style="fill:url(#F);fill-opacity:1;stroke:#f60;stroke-width:.0602166;stroke-miterlimit:4;stroke-dasharray:none;paint-order:fill markers stroke;stop-color:#000"/><use xlink:href="#n" width="100%" height="100%" transform="rotate(-.33 -10010.024 7657.49)"/><use xlink:href="#o" width="100%" height="100%" transform="translate(-42.044 -55.289)"/><use xlink:href="#q" width="100%" height="100%" transform="rotate(55.017 151.947 -6.697)"/><use xlink:href="#h" width="100%" height="100%" transform="matrix(-1 0 0 1 177.304 -51.132)"/></g><g transform="translate(-21.167)"><circle cx="142.1" cy="7.3" r="0.4" style="opacity:.33;fill:url(#G);fill-opacity:1;stroke:#333;stroke-width:.0987653;stroke-miterlimit:4;stroke-dasharray:none;paint-order:fill markers stroke;stop-color:#000"/><circle cx="142.1" cy="6.9" r="0.4" style="opacity:.55;fill:url(#H);fill-opacity:1;stroke:#333;stroke-width:.0987653;stroke-miterlimit:4;stroke-dasharray:none;paint-order:fill markers stroke;stop-color:#000"/><use xlink:href="#h" width="100%" height="100%" transform="matrix(0 1 1 0 80.96 -89.54)"/><path d="M142 4.6v-8.5" style="fill:#00d700;fill-opacity:1;stroke:green;stroke-width:.22;stroke-linecap:butt;stroke-linejoin:miter;stroke-miterlimit:4;stroke-dasharray:none;stroke-opacity:1;marker-end:url(#I)"/><circle cx="142.1" cy="5.4" r="0.5" style="fill:url(#J);fill-opacity:1;stroke:#333;stroke-width:.111111;stroke-miterlimit:4;stroke-dasharray:none;paint-order:fill markers stroke;stop-color:#000"/><path d="M120.5 40h.8m-.3.5v-.8" style="fill:none;stroke:green;stroke-width:.220001;stroke-linecap:butt;stroke-linejoin:miter;stroke-miterlimit:4;stroke-dasharray:none;stroke-opacity:1" transform="translate(21.992 -35.231)"/><use xlink:href="#q" width="100%" height="100%" transform="rotate(54.706 183.625 53.98)"/></g><use xlink:href="#h" width="100%" height="100%" transform="rotate(-90 88.86 24.739)"/><use xlink:href="#h" width="100%" height="100%" transform="translate(16.793 -48.336)"/><use xlink:href="#h" width="100%" height="100%" transform="matrix(0 1 1 0 51.277 -91.78)"/><use xlink:href="#h" width="100%" height="100%" transform="translate(-1.43 -48.114)"/><text xml:space="preserve" x="88.9" y="58.8" style="font-size:2.82222px;line-height:1.25;font-family:&quot;EB Garamond&quot;;-inkscape-font-specification:&quot;EB Garamond, Normal&quot;;text-align:start;text-decoration:none;text-decoration-line:none;text-decoration-color:#000;letter-spacing:0;word-spacing:0;text-anchor:start;fill:#333;stroke-width:.264583;stop-color:#000"><tspan x="88.9" y="58.8" style="font-size:2.82222px;text-align:start;text-anchor:start;stroke-width:.264583">clone these:</tspan></text><use xlink:href="#g" width="100%" height="100%" transform="translate(4.218 -52.446)"/></g></svg>