<svg viewBox="0 -480 1024 768"><defs><linearGradient id="b" x1="0%" x2="0%" y1="0%" y2="100%"><stop offset="10%" stop-color="#fee"/><stop offset="30%" stop-color="#cdf"/><stop offset="50%" stop-color="#cdf"/><stop offset="80%" stop-color="#fee"/></linearGradient><linearGradient id="c" x1="0%" x2="0%" y1="0%" y2="100%"><stop offset="10%" stop-color="#bcc"/><stop offset="99%" stop-color="#fff"/></linearGradient><linearGradient id="a" x1="0%" x2="0%" y1="0%" y2="100%"><stop offset="10%" stop-color="#fff"/><stop offset="40%" stop-color="#fff" stop-opacity=".5"/><stop offset="80%" stop-color="#fff" stop-opacity="0"/></linearGradient><mask id="e"><path fill="url(#a)" d="M0-320h640V0H0z"/></mask></defs><circle r="99999" fill="#fff"/><path fill="url(#b)" d="M0-480h1024V0H0z"/><path fill="url(#c)" d="M0 0h1024v288H0z"/><path fill="#960" d="M952.2-259c.4-2.6 1.8-5.2 3.6-7.6l-.6-1.4c4.8-4 10.4-9.4 25-3.4 3.2 1.4 6.2 4.2 7 8.4 2 11.2.2 20.6-3 24.4l-3.6-1.2c-1.8 5 0 10 3.2 14.4 1.8 2.4 4 8.8 3.8 11.6-1 23.4-8 32.2-8.6 41.8.6 14.4 15.8 21.8 3.8 42.6l-3.2 44.2.6 12c3.4 5.6 7.4 13.6 6.4 22.6-2.8 28.2-2.6 29 0 39.2.6 2.6 2.8 5.8 1.6 8-1 1.8-1.2 4-10.8 3-2.6 0-6.2.4-8.8.8-3.2.8-8 1.4-11.4 1.4-1.4 0-3.2.2-4.8.2-2.4-1-4.8-1.8-5.8-4.2l.6-1.4c6.8-.6 13-4.2 19.4-6.6 5.4-2.6 7-10 6.4-18.2-1-14.8-3.4-26.8-6.6-40.4-2.6-3-3.4-10.8-3-13.6-1.2-4.8-2.2-10.4-4-17.2-2.4-9.4-3-23.6-2.8-36.8 0-2.8-2.6-7.6-3.4-11.6-3-13.6 1.6-25-.8-40.2-6.6-19.8 2-18 9.6-35.6.4-.4 1.6-1 1.8-1.6 2-4.8-1.4-8.8-2.4-10.6-.4 0-1.4-.6-2-.4-2.4.6-5.8.6-6.2.4-1-.6-1.2-3-.8-4.4-.2-.8-.8-1.2-1.2-1.8-.2-.4 1.8-1.8.4-.8 1.8 0-.8 0-.8-.8.2-.4.4-1.2.2-1.8l-2-.8-.4-.8v-1l4-6z"/><path id="d" d="M317.5-320L550-117.5v2.5l-92.5 55L470-50 415 0H95v-25l-2.5-7.5-15-7.5L70-57.5 72.5-90v-12.5l-5-15 100-127.5-7.5-25v-2.5l25 5 32.5-42.5 5-2.5 90-7.5zm0 2.5v50l55 12.5v2.5c10 25 10 55-5 80v5c10 22.5 5 47.5-7.5 67.5h5l10 10c45-70 42.5-137.5 2.5-175-37.5-35-60-52.5-60-52.5m-5 0l-90 7.5v50l47.5 12.5v2.5h-2.5l7.5 35c12.5-17.5 2.5-45-7.5-62.5v-2.5l43.75 6.25zm-95 10l-30 40 28.75 6.25zm60 37.5l33.75 12.5v-6.25zM165-268.75l15 6.25 2.5-2.5zm20 5l-2.5 2.5L216.25-250v-6.25zm132.5 1.25v5c12.5 5 27.5 7.5 40 2.5zm-95 7.5v5l32.5 2.5zm-55 12.5L70-117.5l60 10L147.5-95c10-25 5-55-2.5-80h-2.5v-5h2.5c17.5-17.5 27.5-37.5 22.5-62.5m110 55l30 5v-2.5zM315-185v3.75l45 8.75c-12.825-10.438-32.32-11.54-45-12.5m-42.5 1.25l35 11.25v-5zm42.5 7.5v6.25c12.5 2.5 27.5 2.5 40 0zm-160-1.25l55 7.5v-5c-17.5-3.75-36.25-2.5-55-2.5m-5 2.5c18.75 10 38.75 16.25 60 17.5v-7.5zm70 2.5v3.75l25 6.25zm45 7.5l-5 7.5 7.5 20S270-155 265-165m-45 1.25v6.25h32.5zM377.5-90c20 25 43.75 32.5 72.5 20l95-47.5s-7.5-10-17.5-15c-55-31.25-107.5 15-150 42.5m-65-15v5l32.5 2.5c-10-3.75-21.25-6.25-32.5-7.5m-7.5 0l-35 2.5 35 2.5zm-35 5c-1.25 11.25-8.3 27.047-10 30v5l-45-2.5v30c35 5 50-12.5 62.5-42.5l15-2.5 2.5-10h10v-5zm42.5 2.5v2.5l16.25-1.25zM215-80v7.5l32.5 2.5zm-7.5 0L165-77.5l42.5 5zM165-72.5c0 27.5 17.5 36.25 42.5 35v-30z" opacity=".5"/><g font-weight="bold"><text y=".6ex" transform="translate(9 -156)">Object</text><g fill="#90c"><use id="f" href="#d" mask="url(#e)" transform="translate(0 -140)"/><text y=".6ex" transform="translate(9 -455)">Superior<tspan x="0" dy="1.6ex">mirage</tspan></text></g><g fill="#063"><use href="#f" transform="matrix(1 0 0 -1 0 -190)"/><text y=".6ex" transform="translate(9 220)">Inferior<tspan x="0" dy="1.6ex">mirage</tspan></text></g></g><text y=".6ex" fill="#f60" transform="translate(930 -455)">Warm air<tspan x="0" dy="1.6ex">(low ğ‘›)</tspan></text><text y=".6ex" fill="#06f" transform="translate(940 -350)">Cool air<tspan x="0" dy="1.6ex">(high ğ‘›)</tspan></text><text y=".6ex" fill="#f60" transform="translate(870 -60)">Warm air<tspan x="0" dy="1.6ex">(low ğ‘›)</tspan></text><g fill="#063"><text y=".6ex" transform="translate(660 -210)">Refracted<tspan x="0" dy="1.6ex">light ray</tspan></text><text y=".6ex" transform="translate(660 100)">Perceived<tspan x="0" dy="1.6ex">line-of-sight</tspan></text></g><g fill="none"><g stroke="#063"><path d="M320-315Q620 0 950-255"/><use href="#arrowhead" transform="translate(660 -141)"/></g><g stroke="#c0f"><path d="M320-320q300-40 630 65"/><use href="#arrowhead" transform="rotate(6 3382.982 6136.775)"/></g><use stroke="#000" href="#arrowhead" transform="rotate(6 3039.521 6154.775)"/></g></svg>