<svg xmlns="http://www.w3.org/2000/svg" stroke-width="2" font-family="&quot;Liberation Sans&quot;,Helvetica,Arial,sans-serif" font-size="40" text-anchor="middle" viewBox="0 -480 1024 768"><desc>Comparison of inferior and superior mirages due to differing refractive indices ğ‘› by CMG Lee using shapes from http://commons.wikimedia.org/wiki/file:pirate_ship.svg and http://commons.wikimedia.org/wiki/File:Female_shadow_lateral.svg .</desc><defs><linearGradient id="svg__github_work__b" x1="0%" x2="0%" y1="0%" y2="100%"><stop offset="10%" stop-color="#fee"/><stop offset="30%" stop-color="#cdf"/><stop offset="50%" stop-color="#cdf"/><stop offset="80%" stop-color="#fee"/></linearGradient><linearGradient id="svg__github_work__c" x1="0%" x2="0%" y1="0%" y2="100%"><stop offset="10%" stop-color="#bcc"/><stop offset="99%" stop-color="#fff"/></linearGradient><linearGradient id="svg__github_work__a" x1="0%" x2="0%" y1="0%" y2="100%"><stop offset="10%" stop-color="#fff"/><stop offset="40%" stop-color="#fff" stop-opacity="0.5"/><stop offset="80%" stop-color="#fff" stop-opacity="0"/></linearGradient><mask id="svg__github_work__e"><path fill="url(#svg__github_work__a)" d="M0-320h640V0H0z"/></mask></defs><circle r="99999" fill="#fff"/><path fill="url(#svg__github_work__b)" d="M0-480h1024V0H0z"/><path fill="url(#svg__github_work__c)" d="M0 0h1024v288H0z"/><path fill="#960" d="M196-305c2-13 9-26 18-38l-3-7c24-20 52-47 125-17 16 7 31 21 35 42 10 56 1 103-15 122l-18-6c-9 25 0 50 16 72 9 12 20 44 19 58-5 117-40 161-43 209 3 72 79 109 19 213l-16 221 3 60c17 28 37 68 32 113-14 141-13 145 0 196 3 13 14 29 8 40-5 9-6 20-54 15-13 0-31 2-44 4-16 4-40 7-57 7-7 0-16 1-24 1-12-5-24-9-29-21l3-7c34-3 65-21 97-33 27-13 35-50 32-91-5-74-17-134-33-202-13-15-17-54-15-68-6-24-11-52-20-86-12-47-15-118-14-184 0-14-13-38-17-58-15-68 8-125-4-201-33-99 10-90 48-178 2-2 8-5 9-8 10-24-7-44-12-53-2 0-7-3-10-2-12 3-29 3-31 2-5-3-6-15-4-22-1-4-4-6-6-9-1-2 9-9 2-4 9 0-4 0-4-4 1-2 2-6 1-9l-10-4-2-4v-5l20-30z" transform="matrix(.2 0 0 .2 913 -198)"/><path id="svg__github_work__d" d="M317.5-320 550-117.5v2.5l-92.5 55L470-50 415 0H95v-25l-2.5-7.5-15-7.5L70-57.5 72.5-90v-12.5l-5-15 100-127.5-7.5-25v-2.5l25 5 32.5-42.5 5-2.5 90-7.5zm0 2.5v50l55 12.5v2.5c10 25 10 55-5 80v5c10 22.5 5 47.5-7.5 67.5h5l10 10c45-70 42.5-137.5 2.5-175-37.5-35-60-52.5-60-52.5m-5 0-90 7.5v50l47.5 12.5v2.5h-2.5l7.5 35c12.5-17.5 2.5-45-7.5-62.5v-2.5l43.75 6.25zm-95 10-30 40 28.75 6.25zm60 37.5 33.75 12.5v-6.25zM165-268.75l15 6.25 2.5-2.5zm20 5-2.5 2.5L216.25-250v-6.25zm132.5 1.25v5c12.5 5 27.5 7.5 40 2.5zm-95 7.5v5l32.5 2.5zm-55 12.5L70-117.5l60 10L147.5-95c10-25 5-55-2.5-80h-2.5v-5h2.5c17.5-17.5 27.5-37.5 22.5-62.5m110 55 30 5v-2.5zM315-185v3.75l45 8.75c-12.825-10.438-32.32-11.54-45-12.5m-42.5 1.25 35 11.25v-5zm42.5 7.5v6.25c12.5 2.5 27.5 2.5 40 0zm-160-1.25 55 7.5v-5c-17.5-3.75-36.25-2.5-55-2.5m-5 2.5c18.75 10 38.75 16.25 60 17.5v-7.5zm70 2.5v3.75l25 6.25zm45 7.5-5 7.5 7.5 20S270-155 265-165m-45 1.25v6.25h32.5zM377.5-90c20 25 43.75 32.5 72.5 20l95-47.5s-7.5-10-17.5-15c-55-31.25-107.5 15-150 42.5m-65-15v5l32.5 2.5c-10-3.75-21.25-6.25-32.5-7.5m-7.5 0-35 2.5 35 2.5zm-35 5c-1.25 11.25-8.3 27.047-10 30v5l-45-2.5v30c35 5 50-12.5 62.5-42.5l15-2.5 2.5-10h10v-5zm42.5 2.5v2.5l16.25-1.25zM215-80v7.5l32.5 2.5zm-7.5 0L165-77.5l42.5 5zM165-72.5c0 27.5 17.5 36.25 42.5 35v-30z" opacity="0.5"/><g font-weight="bold" text-anchor="start"><text y="0.6ex" transform="translate(9 -156)">Object</text><g fill="#90c"><use id="svg__github_work__f" href="#svg__github_work__d" mask="url(#svg__github_work__e)" transform="translate(0 -140)"/><text y="0.6ex" transform="translate(9 -455)">Superior<tspan x="0" dy="1.6ex">mirage</tspan></text></g><g fill="#063"><use href="#svg__github_work__f" transform="matrix(1 0 0 -1 0 -190)"/><text y="0.6ex" transform="translate(9 220)">Inferior<tspan x="0" dy="1.6ex">mirage</tspan></text></g></g><text y="0.6ex" fill="#f60" transform="translate(930 -455)">Warm air<tspan x="0" dy="1.6ex">(low ğ‘›)</tspan></text><text y="0.6ex" fill="#06f" transform="translate(940 -350)">Cool air<tspan x="0" dy="1.6ex">(high ğ‘›)</tspan></text><text y="0.6ex" fill="#f60" transform="translate(870 -60)">Warm air<tspan x="0" dy="1.6ex">(low ğ‘›)</tspan></text><g fill="#063"><text y="0.6ex" transform="translate(660 -210)">Refracted<tspan x="0" dy="1.6ex">light ray</tspan></text><text y="0.6ex" transform="translate(660 100)">Perceived<tspan x="0" dy="1.6ex">line-of-sight</tspan></text></g><g fill="none"><g stroke="#063"><path d="M320-315Q620 0 950-255"/><use href="#svg__github_work__arrowhead" transform="translate(660 -141)"/></g><g stroke="#c0f"><path d="M320-320q300-40 630 65"/><use href="#svg__github_work__arrowhead" transform="rotate(6 3382.982 6136.775)"/></g><use stroke="#000" href="#svg__github_work__arrowhead" transform="rotate(6 3039.521 6154.775)"/></g></svg>