<svg xmlns:xlink="http://www.w3.org/1999/xlink" viewBox="0 0 1417.4 1187.8"><defs><linearGradient id="c"><stop offset="0" style="stop-color:#a6a6a6;stop-opacity:1"/><stop offset="0.5" style="stop-color:#e9e9e9;stop-opacity:.49803922"/><stop offset="1" style="stop-color:#a6a6a6;stop-opacity:1"/></linearGradient><linearGradient id="b"><stop offset="0" style="stop-color:#a6a6a6;stop-opacity:1"/><stop offset="0.5" style="stop-color:#ededed;stop-opacity:1"/><stop offset="1" style="stop-color:#a6a6a6;stop-opacity:1"/></linearGradient><linearGradient id="a"><stop offset="0" style="stop-color:#fe4040;stop-opacity:1"/><stop offset="0.4" style="stop-color:#af7373;stop-opacity:1"/><stop offset="1" style="stop-color:#515151;stop-opacity:1"/></linearGradient><linearGradient xlink:href="#a" id="e" x1="347.5" x2="535.9" y1="139" y2="379.8" gradientUnits="userSpaceOnUse" spreadMethod="reflect"/><linearGradient xlink:href="#b" id="d" x1="1640.9" x2="1910.3" y1="541.2" y2="544" gradientUnits="userSpaceOnUse"/><linearGradient xlink:href="#c" id="f" x1="1088.1" x2="1329.8" y1="936.5" y2="936.5" gradientUnits="userSpaceOnUse"/><marker id="h" orient="auto" refX="0" refY="0" style="overflow:visible"><path d="m0 0 5-5-17.5 5L5 5z" style="fill:#000;fill-opacity:1;fill-rule:evenodd;stroke:#000;stroke-width:1pt;stroke-opacity:1" transform="translate(-4)scale(-.4)"/></marker></defs><g style="display:inline" transform="translate(62.215 145.9)"><path d="M1655.7 851.9c21.7-138.7 200.6-91.3 238-224.4l10.7-357.4-240.1 51.8z" style="fill:url(#d);fill-opacity:1;stroke:#000;stroke-width:1px;stroke-linecap:butt;stroke-linejoin:miter;stroke-opacity:1" transform="translate(-593.41 -199.287)"/><rect width="1048.2" height="379.8" x="31.6" y="238.4" ry="0" style="fill:#e2e2e2;fill-opacity:1;stroke:#000;stroke-width:1.00001383;stroke-linecap:round;stroke-linejoin:round;stroke-miterlimit:4;stroke-dasharray:none;stroke-dashoffset:0;stroke-opacity:1" transform="rotate(1.92)scale(1 .99997)skewX(.427)"/><text xml:space="preserve" x="103.5" y="-12" style="font-style:normal;font-variant:normal;font-weight:400;font-stretch:normal;font-size:110px;line-height:125%;font-family:Arial;-inkscape-font-specification:Arial;text-align:start;letter-spacing:0;word-spacing:0;writing-mode:lr-tb;text-anchor:start;fill:#000;fill-opacity:1;stroke:none"><tspan x="103.5" y="-12">a</tspan></text><text xml:space="preserve" x="572.1" y="-12" style="font-style:normal;font-variant:normal;font-weight:400;font-stretch:normal;font-size:110px;line-height:125%;font-family:Arial;-inkscape-font-specification:Arial;text-align:start;letter-spacing:0;word-spacing:0;writing-mode:lr-tb;text-anchor:start;fill:#000;fill-opacity:1;stroke:none"><tspan x="572.1" y="-12">b</tspan></text><path d="m1300.7 580.2-200.5.3" style="fill:none;fill-rule:evenodd;stroke:#000;stroke-width:1px;stroke-linecap:butt;stroke-linejoin:miter;stroke-opacity:1"/></g><g style="display:inline"><path d="m177.6 274.3 109 3.6m-114 28.2 109 3.7M169 338l109 3.6m-111.9 28.2 109 3.7m-114 28.2 109 3.6m-114 28.2 109 3.7m382.4-162.8 109 3.7M642.6 306l109 3.6m-113.3 28 109 3.6m-112.6 27.9 109 3.7m-113.3 27.9 109 3.7m-112.6 27.9 109 3.6" style="display:inline;fill:none;stroke:#8b8b8b;stroke-width:5;stroke-linecap:butt;stroke-linejoin:miter;stroke-miterlimit:4;stroke-dasharray:none;stroke-dashoffset:0;stroke-opacity:1" transform="translate(62.215 145.9)"/><path d="M-173.4 271.2c-19.9-13-18.6-24.4 4.1-31.8zm-49.2 381c-19.9-13-18.5-24.4 4.2-31.8zm8.3-63.5c-20-13-18.6-24.4 4-31.8zm8.2-63.5c-20-13-18.6-24.3 4-31.8zm8.2-63.5c-19.9-13-18.6-24.3 4.1-31.8zm8.2-63.4c-19.9-13-18.6-24.4 4.1-31.8zm8.2-63.5c-19.9-13-18.5-24.4 4.2-31.8z" style="fill:red;fill-opacity:1;stroke:none" transform="translate(938.32 -8.955)"/><path d="M-218.5 620.4c22.6-7.4 24.2-18.8 4.2-31.8zm8.3-63.4c22.5-7.5 24.1-18.8 4-31.8zm8.2-63.5c22.5-7.5 24.1-18.8 4.1-31.8zm8.2-63.5c22.5-7.4 24.2-18.8 4.1-31.8zm16.4-127c22.6-7.4 24.2-18.8 4.2-31.7zm-8.2 63.5c22.6-7.4 24.2-18.8 4.1-31.8zM-239 779.4c-20-13-18.6-24.3 4-31.8zm8.2-63.4c-20-13-18.6-24.4 4-31.9zm5.8 81s-4.3-11.3-14-17.6l-2 16.2zm-1.7-112.8c22.5-7.4 24.1-18.8 4-31.8z" style="fill:red;fill-opacity:1;stroke:none" transform="translate(938.32 -8.955)"/><path d="M-235 747.7c22.6-7.5 24.2-18.8 4.2-31.8z" style="fill:red;fill-opacity:1;stroke:none" transform="translate(938.32 -8.955)"/><path d="m-241.1 795.5 71.9-555.4" style="fill:none;fill-rule:evenodd;stroke:#000;stroke-width:1px;stroke-linecap:butt;stroke-linejoin:miter;stroke-opacity:1" transform="translate(938.32 -8.955)"/><path d="M255 276.4c-26.8-13.9-25.5-25.3 4.1-31.8z" style="fill:red;fill-opacity:1;stroke:none" transform="matrix(.75703 -.03053 -.0334 .9958 602.221 155.157)"/><path d="M-516-15.6c10.2-13 21.7-13 32 0zm64 0c10.2-13 21.7-13 32 0zm64 0c10.2-13 21.7-13 32 0zm64 0c10.3-13 21.7-13 32 0zm64 0c10.3-13 21.7-13 32 0zm64 0c10.3-13 21.7-13 32 0zm-288 0c10.2 13 21.7 13 32 0zm64 0c10.2 13 21.7 13 32 0zm64 0c10.3 13 21.7 13 32 0zm64 0c10.3 13 21.7 13 32 0zm128 0c10.3 13 21.7 13 32 0zm-64 0c10.3 13 21.7 13 32 0z" style="fill:red;fill-opacity:1;stroke:none" transform="matrix(.13155 -.9913 1.63591 .21728 829.085 295.309)"/><path d="M74.6-74.8c14 8.6 15.6 20 4 31.8zm8 63.5c14.2 8.6 15.7 20 4 31.8zm-12.1-95.2c-11.5 11.8-10.2 23.2 4 31.8zm16.2 127c-11.6 11.8-10.2 23.2 4 31.8ZM78.6-43c-11.5 11.8-10.2 23.2 4 31.8z" style="fill:red;fill-opacity:1;stroke:none" transform="matrix(-1.60623 -.34064 .33694 -.95597 863.677 884.566)"/><path d="m184.3 816.6 75-571.2" style="fill:none;fill-rule:evenodd;stroke:#000;stroke-width:1.15252948px;stroke-linecap:butt;stroke-linejoin:miter;stroke-opacity:1" transform="matrix(.75703 -.03053 -.0334 .9958 602.221 155.157)"/><path d="M1072.3 275.6c13.6-126.3 208.9-57.1 242.3-210.2l-1029-39.7C217.8 132.5 100.9 44.1 25 239.4" style="display:inline;fill:url(#e);fill-opacity:1;stroke:#000;stroke-width:1px;stroke-linecap:butt;stroke-linejoin:miter;stroke-opacity:1" transform="translate(62.215 145.9)"/><path d="M-381.2 366.2c31.6 10.3 31.8 21.7 0 32zm-.1 64c31.6 10.3 31.8 21.7 0 32zm-.1 64c31.7 10.3 31.9 21.7 0 32zm0 64c31.6 10.3 31.8 21.8 0 32zm-.1 64c31.6 10.3 31.8 21.8 0 32zm-.1 64c31.6 10.3 31.9 21.8 0 32zm.3-288c-31.6 10.2-31.9 21.7 0 32zm0 64c-31.7 10.2-32 21.7 0 32zm-.1 64c-31.7 10.2-31.9 21.7 0 32zm-.1 64c-31.6 10.2-31.9 21.7 0 32zm-.1 128c-31.7 10.2-32 21.7 0 32zm0-64c-31.6 10.2-31.8 21.7 0 32zM-381-18c31.6 10.3 31.8 21.8 0 32zm-.1 64c31.6 10.3 31.8 21.8 0 32zm-.1 64c31.7 10.3 31.9 21.8 0 32zm-.1 64c31.7 10.3 31.9 21.8 0 32zm0 64c31.6 10.3 31.8 21.8 0 32zm-.1 64c31.6 10.3 31.8 21.8 0 32zm.4-288c-31.7 10.2-32 21.7-.1 32zm-.1 64c-31.7 10.3-32 21.7 0 32zm-.1 64c-31.7 10.3-31.9 21.7 0 32zm-.1 64c-31.6 10.3-31.9 21.7 0 32zm-.1 128c-31.7 10.3-32 21.8 0 32zm0-64c-31.6 10.3-31.8 21.7 0 32zm.5-416.3c31.7 10.3 31.9 21.8 0 32zm-.1 64c31.7 10.3 31.9 21.8 0 32zm.2-96c-31.7 10.2-32 21.7 0 32zm-.2 128c-31.6 10.2-31.9 21.7 0 32zm0-64c-31.6 10.2-31.8 21.7 0 32z" style="fill:red;fill-opacity:1;stroke:none" transform="rotate(-7.358 1617.884 -3359.58)scale(.76227 1)"/><path d="m-380.9-178.6-1 928.8" style="fill:none;fill-rule:evenodd;stroke:#000;stroke-width:1.14537227px;stroke-linecap:butt;stroke-linejoin:miter;stroke-opacity:1" transform="rotate(-7.358 1617.884 -3359.58)scale(.76227 1)"/><path d="M-516-15.6c10.2-13 21.7-13 32 0zm64 0c10.2-13 21.7-13 32 0zm64 0c10.2-13 21.7-13 32 0zm64 0c10.3-13 21.7-13 32 0zm64 0c10.3-13 21.7-13 32 0zm64 0c10.3-13 21.7-13 32 0zm-288 0c10.2 13 21.7 13 32 0zm64 0c10.2 13 21.7 13 32 0zm64 0c10.3 13 21.7 13 32 0zm64 0c10.3 13 21.7 13 32 0zm128 0c10.3 13 21.7 13 32 0zm-64 0c10.3 13 21.7 13 32 0z" style="fill:red;fill-opacity:1;stroke:none" transform="matrix(.12542 .9921 -1.64502 .20906 710.483 1095.151)"/><path d="M-516-15.6c10.2-13 21.7-13 32 0zm64 0c10.2-13 21.7-13 32 0zm64 0c10.2-13 21.7-13 32 0zm64 0c10.3-13 21.7-13 32 0zm64 0c10.3-13 21.7-13 32 0zm64 0c10.3-13 21.7-13 32 0zm-288 0c10.2 13 21.7 13 32 0zm64 0c10.2 13 21.7 13 32 0zm64 0c10.3 13 21.7 13 32 0zm64 0c10.3 13 21.7 13 32 0zm128 0c10.3 13 21.7 13 32 0zm-64 0c10.3 13 21.7 13 32 0z" style="fill:red;fill-opacity:1;stroke:none" transform="matrix(.12542 .9921 -1.64502 .20906 662.145 714.05)"/><path d="M74.6-74.8c14 8.6 15.6 20 4 31.8zm8 63.5c14.2 8.6 15.7 20 4 31.8zm-12.1-95.2c-11.5 11.8-10.2 23.2 4 31.8zm16.2 127c-11.6 11.8-10.2 23.2 4 31.8ZM78.6-43c-11.5 11.8-10.2 23.2 4 31.8z" style="fill:red;fill-opacity:1;stroke:none" transform="matrix(1.6477 -.0822 -.08317 1.01055 478.001 153.218)"/><path d="M-224.5-8.4v928.7" style="fill:none;fill-rule:evenodd;stroke:#000;stroke-width:1.21426606px;stroke-linecap:butt;stroke-linejoin:miter;stroke-opacity:1" transform="matrix(.6728 -.08553 .12553 .99209 755.08 28.65)"/><path d="M-381.8-1158c-28.4-10.3-28.6-21.7 0-32zm.5 384.1c-28.3-10.2-28.6-21.7 0-32zm0-64c-28.4-10.2-28.6-21.7 0-32zm-.1-64c-28.4-10.2-28.6-21.7 0-32zm0-64c-28.4-10.2-28.6-21.7 0-32zm-.1-64c-28.4-10.2-28.6-21.7 0-32zm0-64c-28.4-10.2-28.6-21.7 0-32zm.2 288c28.4-10.3 28.6-21.7 0-32zm0-64c28.3-10.3 28.5-21.8 0-32zm-.1-64c28.4-10.3 28.5-21.8 0-32zm-.1-64c28.4-10.3 28.6-21.8 0-32zm-.1-128.1c28.4-10.2 28.6-21.7 0-32zm.1 64.1c28.4-10.3 28.5-21.8 0-32zm.3 416.3c-28.4-10.2-28.6-21.7 0-32zm0-64c-28.4-10.2-28.6-21.7 0-32zm0 96c28.4-10.3 28.6-21.7 0-32zm-.1-128c28.4-10.3 28.6-21.7 0-32zm.1 64c28.4-10.3 28.5-21.7 0-32z" style="fill:red;fill-opacity:1;stroke:none" transform="rotate(7.459 -12123.081 4531.728)scale(.84616 1)"/><path d="m-381.1-613.3-.5-576" style="fill:none;fill-rule:evenodd;stroke:#000;stroke-width:1.08711278px;stroke-linecap:butt;stroke-linejoin:miter;stroke-opacity:1" transform="rotate(7.459 -12123.081 4531.728)scale(.84616 1)"/><g style="display:inline"><path d="M1088.6 945.5c41.4-171 173.4-68 238-220.9l2.7 201.2c-67.6 149.2-192.7 40.8-240.7 222.5" style="display:inline;fill:url(#f);fill-opacity:1;stroke:#000;stroke-width:1px;stroke-linecap:butt;stroke-linejoin:miter;stroke-opacity:1" transform="translate(37.143 -.623)"/><path d="M17.2 799.3c30.5-51.1 66.8-117.1 119-143" style="display:inline;fill:none;fill-rule:evenodd;stroke:#000;stroke-width:1px;stroke-linecap:butt;stroke-linejoin:miter;stroke-opacity:1" transform="translate(62.215 145.9)"/><path d="M17.2 799.3h1047.5v202H17.2z" style="display:inline;fill:#e2e2e2;fill-opacity:1;stroke:#000;stroke-width:1;stroke-linecap:round;stroke-linejoin:round;stroke-miterlimit:4;stroke-dasharray:none;stroke-dashoffset:0;stroke-opacity:1" transform="translate(62.215 145.9)"/></g><path d="M-516-15.6c10.2-13 21.7-13 32 0zm64 0c10.2-13 21.7-13 32 0zm64 0c10.2-13 21.7-13 32 0zm64 0c10.3-13 21.7-13 32 0zm64 0c10.3-13 21.7-13 32 0zm64 0c10.3-13 21.7-13 32 0zm-288 0c10.2 13 21.7 13 32 0zm64 0c10.2 13 21.7 13 32 0zm64 0c10.3 13 21.7 13 32 0zm64 0c10.3 13 21.7 13 32 0zm128 0c10.3 13 21.7 13 32 0zm-64 0c10.3 13 21.7 13 32 0z" style="fill:red;fill-opacity:1;stroke:none" transform="matrix(-.129 .99164 1.81435 .23548 236.697 904.751)"/><path d="m-381.9-601.7.4 383.4" style="fill:none;fill-rule:evenodd;stroke:#000;stroke-width:.99999994px;stroke-linecap:butt;stroke-linejoin:miter;stroke-opacity:1" transform="rotate(7.465 -7654.61 4928.636)"/><path d="M343.8 1005h48" style="fill:none;fill-rule:evenodd;stroke:#000;stroke-width:8;stroke-linecap:butt;stroke-linejoin:miter;stroke-miterlimit:4;stroke-dasharray:none;stroke-opacity:1" transform="translate(62.215 145.9)"/></g><g style="display:inline"><text xml:space="preserve" x="1206.2" y="1432.8" style="font-style:normal;font-variant:normal;font-weight:700;font-stretch:normal;font-size:48.00000381px;line-height:125%;font-family:Arial;-inkscape-font-specification:&quot;Arial, Bold&quot;;text-align:start;letter-spacing:0;word-spacing:0;writing-mode:lr-tb;text-anchor:start;fill:#fff;fill-opacity:1;stroke:none" transform="rotate(-35.808 -618.721 1553.309)"><tspan x="1206.2" y="1432.8">dark fringe</tspan></text><text xml:space="preserve" x="846.3" y="1146.2" style="font-style:normal;font-variant:normal;font-weight:700;font-stretch:normal;font-size:48.00000381px;line-height:125%;font-family:Arial;-inkscape-font-specification:&quot;Arial, Bold&quot;;text-align:start;letter-spacing:0;word-spacing:0;writing-mode:lr-tb;text-anchor:start;fill:#fff;fill-opacity:1;stroke:none" transform="rotate(-35.472 -619.792 1569.362)"><tspan x="846.3" y="1146.2">bright fringe</tspan></text><text xml:space="preserve" x="1853.3" y="548.5" style="font-style:normal;font-variant:normal;font-weight:400;font-stretch:normal;font-size:48.00000381px;line-height:110.00000238%;font-family:Arial;-inkscape-font-specification:&quot;Arial, Normal&quot;;text-align:start;letter-spacing:0;word-spacing:0;writing-mode:lr-tb;text-anchor:start;fill:#000;fill-opacity:1;stroke:none" transform="translate(-1025.733 -68.396)"><tspan x="1853.3" y="548.5">Destructive</tspan><tspan x="1853.3" y="601.3">interference</tspan></text><text xml:space="preserve" x="1855.4" y="701.6" style="font-style:normal;font-variant:normal;font-weight:400;font-stretch:normal;font-size:48.00000381px;line-height:110.00000238%;font-family:Arial;-inkscape-font-specification:&quot;Arial, Normal&quot;;text-align:start;letter-spacing:0;word-spacing:0;writing-mode:lr-tb;text-anchor:start;fill:#000;fill-opacity:1;stroke:none" transform="translate(-1025.733 -68.396)"><tspan x="1855.4" y="701.6">Reflected </tspan><tspan x="1855.4" y="754.4">waves 180° </tspan><tspan x="1855.4" y="807.2">out of phase</tspan></text><text xml:space="preserve" x="1379.8" y="545.8" style="font-style:normal;font-variant:normal;font-weight:400;font-stretch:normal;font-size:48.00000381px;line-height:110.00000238%;font-family:Arial;-inkscape-font-specification:&quot;Arial, Normal&quot;;text-align:start;letter-spacing:0;word-spacing:0;writing-mode:lr-tb;text-anchor:start;fill:#000;fill-opacity:1;stroke:none" transform="translate(-1025.733 -68.396)"><tspan x="1379.8" y="545.8">Constructive</tspan><tspan x="1379.8" y="598.6">interference</tspan></text><text xml:space="preserve" x="1378.1" y="698.4" style="font-style:normal;font-variant:normal;font-weight:400;font-stretch:normal;font-size:48.00000381px;line-height:110.00000238%;font-family:Arial;-inkscape-font-specification:&quot;Arial, Normal&quot;;text-align:start;letter-spacing:0;word-spacing:0;writing-mode:lr-tb;text-anchor:start;fill:#000;fill-opacity:1;stroke:none" transform="translate(-1025.733 -68.396)"><tspan x="1378.1" y="698.4">Reflected</tspan><tspan x="1378.1" y="751.2">waves</tspan><tspan x="1378.1" y="804">in phase</tspan></text><text xml:space="preserve" x="1846.6" y="938.7" style="font-style:normal;font-variant:normal;font-weight:400;font-stretch:normal;font-size:48px;line-height:125%;font-family:Arial;-inkscape-font-specification:Arial;text-align:start;letter-spacing:0;word-spacing:0;writing-mode:lr-tb;text-anchor:start;fill:#000;fill-opacity:1;stroke:none" transform="translate(-1025.733 -68.396)"><tspan x="1846.6" y="938.7">Path length</tspan><tspan x="1846.6" y="998.7">difference =</tspan><tspan x="1846.6" y="1058.7">even multiple</tspan><tspan x="1846.6" y="1118.7">of λ/2</tspan></text><text xml:space="preserve" x="1904.5" y="915.9" style="font-style:normal;font-variant:normal;font-weight:400;font-stretch:normal;font-size:153.5760498px;line-height:125%;font-family:Arial;-inkscape-font-specification:Arial;text-align:start;letter-spacing:0;word-spacing:0;writing-mode:lr-tb;text-anchor:start;display:inline;fill:#000;fill-opacity:1;stroke:none" transform="matrix(.93765 0 0 1.0665 -1025.733 -68.396)"><tspan x="1904.5" y="915.9">}</tspan></text><text xml:space="preserve" x="1496.6" y="860.2" style="font-style:normal;font-variant:normal;font-weight:400;font-stretch:normal;font-size:163.26177979px;line-height:125%;font-family:Arial;-inkscape-font-specification:Arial;text-align:start;letter-spacing:0;word-spacing:0;writing-mode:lr-tb;text-anchor:start;display:inline;fill:#000;fill-opacity:1;stroke:none" transform="matrix(.88202 0 0 1.13376 -1025.733 -68.396)"><tspan x="1496.6" y="860.2">}</tspan></text><text xml:space="preserve" x="1378.1" y="942" style="font-style:normal;font-variant:normal;font-weight:400;font-stretch:normal;font-size:48.00000381px;line-height:110.00000238%;font-family:Arial;-inkscape-font-specification:&quot;Arial, Normal&quot;;text-align:start;letter-spacing:0;word-spacing:0;writing-mode:lr-tb;text-anchor:start;display:inline;fill:#000;fill-opacity:1;stroke:none" transform="translate(-1025.733 -68.396)"><tspan x="1378.1" y="942">Path length</tspan><tspan x="1378.1" y="994.8">difference = </tspan><tspan x="1378.1" y="1047.6">odd multiple</tspan><tspan x="1378.1" y="1100.4">of λ/2</tspan></text><text xml:space="preserve" x="1063.9" y="1144.8" style="font-style:normal;font-variant:normal;font-weight:400;font-stretch:normal;font-size:48.00000381px;line-height:110.00000238%;font-family:Arial;-inkscape-font-specification:&quot;Arial, Normal&quot;;text-align:start;letter-spacing:0;word-spacing:0;writing-mode:lr-tb;text-anchor:start;fill:#000;fill-opacity:1;stroke:none" transform="translate(-1025.733 -68.396)"><tspan x="1063.9" y="1144.8">180° phase</tspan><tspan x="1063.9" y="1197.6">change</tspan></text><path d="m1218 1092 48.5-64.7" style="fill:none;fill-rule:evenodd;stroke:#000;stroke-width:4;stroke-linecap:butt;stroke-linejoin:miter;stroke-miterlimit:4;stroke-dasharray:none;stroke-opacity:1;marker-end:url(#h)" transform="translate(-1025.733 -68.396)"/></g></svg>