<svg xmlns="http://www.w3.org/2000/svg" width="1417.43" height="1187.84" xmlns:xlink="http://www.w3.org/1999/xlink"><defs><marker id="k" orient="auto" refX="0" refY="0" overflow="visible"><path d="m-4 0-2 2 7-2-7-2z" fill-rule="evenodd" stroke="#000" stroke-width="0.53"/></marker><linearGradient id="c"><stop offset="0" stop-color="#a6a6a6"/><stop offset="0.5" stop-color="#e9e9e9" stop-opacity="0.5"/><stop offset="1" stop-color="#a6a6a6"/></linearGradient><linearGradient id="b"><stop offset="0" stop-color="#a6a6a6"/><stop offset="0.5" stop-color="#ededed"/><stop offset="1" stop-color="#a6a6a6"/></linearGradient><linearGradient id="a"><stop offset="0" stop-color="#fe4040"/><stop offset="0.44" stop-color="#af7373"/><stop offset="1" stop-color="#515151"/></linearGradient><linearGradient id="i" x1="347.46" x2="535.9" y1="139.02" y2="379.77" gradientUnits="userSpaceOnUse" spreadMethod="reflect" href="#a"/><linearGradient id="e" x1="1640.93" x2="1910.26" y1="541.18" y2="544.04" gradientUnits="userSpaceOnUse" href="#b"/><linearGradient id="j" x1="1088.07" x2="1329.77" y1="936.48" y2="936.48" gradientUnits="userSpaceOnUse" href="#c"/><path fill="red" d="M74.554-74.777c14.135 8.555 15.672 19.927 4.044 31.79zm8.077 63.495c14.135 8.554 15.672 19.926 4.044 31.79z" id="g"/><path fill="red" d="M70.516-106.524c-11.543 11.821-10.184 23.215 4.044 31.79zM86.67 20.465c-11.543 11.821-10.184 23.215 4.044 31.79ZM78.593-43.03C67.05-31.207 68.409-19.813 82.637-11.24z" id="h"/></defs><g transform="translate(62.215 145.9)"><path d="M1655.714 851.9c21.7-138.742 200.581-91.325 238.07-224.422l10.663-357.37-240.161 51.792z" transform="translate(-593.41 -199.287)" fill="url(#e)" stroke="#000"/><rect width="1048.19" height="379.77" x="31.56" y="238.4" ry="0" transform="rotate(1.92)scale(1 .99997)skewX(.427)" fill="#e2e2e2" stroke="#000" stroke-linecap="round" stroke-linejoin="round"/><text x="103.5" y="-11.97" xml:space="preserve" style="line-height:125%;-inkscape-font-specification:Arial;text-align:start" font-weight="400" font-size="110" font-family="Arial" letter-spacing="0" word-spacing="0"><tspan x="103.5" y="-11.97">a</tspan></text><text x="572.07" y="-11.97" xml:space="preserve" style="line-height:125%;-inkscape-font-specification:Arial;text-align:start" font-weight="400" font-size="110" font-family="Arial" letter-spacing="0" word-spacing="0"><tspan x="572.07" y="-11.97">b</tspan></text><path d="m1300.68 580.203-200.52.33" fill="none" stroke="#000"/></g><g transform="translate(62.215 145.9)"><path d="m177.566 274.265 108.967 3.64m-113.967 28.214 108.967 3.64m-112.538 28.214 108.966 3.64m-111.823 28.215 108.966 3.64m-113.966 28.214 108.966 3.64m-113.966 28.214 108.966 3.64M647.53 274.43l108.967 3.64M642.56 306l108.966 3.64m-113.253 27.93 108.967 3.64m-112.552 27.93 108.966 3.64m-113.252 27.93 108.966 3.64m-112.523 27.93 108.966 3.64" fill="none" stroke="#8b8b8b" stroke-width="5"/><g transform="translate(876.105 -154.856)"><path d="M-173.387 271.162c-19.898-12.94-18.573-24.34 4.115-31.78zm-49.173 380.994c-19.899-12.94-18.573-24.34 4.114-31.78zm8.218-63.476c-19.897-12.94-18.572-24.34 4.116-31.78zm8.22-63.476c-19.898-12.94-18.573-24.34 4.115-31.781zm8.219-63.477c-19.898-12.94-18.573-24.339 4.115-31.78zm8.219-63.476c-19.898-12.94-18.573-24.339 4.115-31.78zm8.219-63.476c-19.898-12.94-18.573-24.34 4.115-31.78zm-36.986 285.643c22.535-7.43 24.157-18.79 4.115-31.78z" fill="red"/><path d="M-210.232 556.942c22.536-7.43 24.157-18.79 4.115-31.78zm8.219-63.477c22.536-7.429 24.157-18.79 4.115-31.78zm8.219-63.475c22.536-7.43 24.158-18.79 4.116-31.781zm16.439-126.953c22.535-7.43 24.157-18.79 4.115-31.78zm-8.219 63.476c22.535-7.43 24.157-18.79 4.115-31.78zm-53.476 412.889c-19.897-12.94-18.572-24.34 4.116-31.78zm8.22-63.476c-19.898-12.94-18.573-24.34 4.115-31.781zm5.74 80.982s-4.196-11.224-13.954-17.549l-2.018 16.192c6.269.648 15.973 1.357 15.973 1.357m-1.631-112.721c22.535-7.429 24.157-18.79 4.115-31.78z" fill="red"/><path d="M-234.94 747.664c22.536-7.43 24.158-18.79 4.116-31.781z" fill="red"/><path d="m-241.117 795.529 71.896-555.388" fill="none" stroke="#000"/></g><g transform="matrix(.75703 -.03053 -.0334 .9958 540.006 9.256)"><path d="M254.961 276.414c-26.794-13.869-25.498-25.272 4.167-31.773z" fill="red"/><use transform="matrix(.13003 -.99151 2.17352 .28484 306.299 150.135)" href="#f"/><g transform="matrix(-2.13973 -.40768 .40327 -.94764 378.2 744.086)"><use href="#g"/><use href="#h"/></g><path d="m184.346 816.587 74.88-571.18" fill="none" stroke="#000" stroke-width="1.15"/></g><path d="M1072.263 275.566c13.623-126.219 208.917-57.106 242.333-210.186L285.561 25.7C217.833 132.549 100.949 44.14 25.148 239.438" fill="url(#i)" stroke="#000"/><g transform="rotate(-7.358 452.222 -2948.734)scale(.76227 1)"><path d="M-381.23 366.162c31.63 10.3 31.839 21.775-.036 32.045zm-.072 64.006c31.632 10.3 31.84 21.775-.035 32.046zm-.071 64.006c31.632 10.3 31.84 21.775-.035 32.046zm-.071 64.006c31.632 10.3 31.84 21.775-.035 32.046zm-.071 64.006c31.632 10.3 31.84 21.775-.035 32.046zm-.071 64.006c31.632 10.3 31.84 21.775-.035 32.046z" fill="red"/><path d="M-381.266 398.165c-31.655 10.239-31.888 21.713-.036 32.045zm-.072 64.005c-31.654 10.24-31.888 21.714-.035 32.047zm-.071 64.007c-31.654 10.239-31.888 21.713-.035 32.046zm-.071 64.006c-31.654 10.239-31.887 21.713-.035 32.046zm-.141 128.012c-31.654 10.239-31.888 21.713-.036 32.046zm.071-64.006c-31.655 10.239-31.888 21.713-.036 32.046zm.512-672.182c31.631 10.3 31.84 21.776-.036 32.046zm-.072 64.006c31.632 10.3 31.84 21.776-.035 32.046zm-.07 64.007c31.631 10.3 31.84 21.775-.036 32.045zm-.071 64.006c31.631 10.3 31.84 21.775-.036 32.045zm-.071 64.006c31.631 10.3 31.84 21.775-.036 32.046zm-.071 64.006c31.631 10.3 31.84 21.775-.036 32.046z" fill="red"/><path d="M-381.074 14.01c-31.654 10.24-31.888 21.714-.035 32.046zm-.071 64.006c-31.654 10.24-31.888 21.714-.035 32.046zm-.071 64.007c-31.654 10.239-31.888 21.713-.035 32.045zm-.071 64.006c-31.654 10.239-31.888 21.713-.035 32.046zm-.141 128.011c-31.655 10.24-31.889 21.714-.036 32.047zm.07-64.005c-31.654 10.239-31.888 21.713-.035 32.046zm.48-416.337c31.631 10.3 31.84 21.775-.035 32.046zm-.071 64.006c31.632 10.3 31.84 21.775-.035 32.046z" fill="red"/><path d="M-380.843-178.305c-31.654 10.239-31.888 21.713-.035 32.046zm-.141 128.012c-31.655 10.239-31.888 21.713-.036 32.046zm.07-64.007c-31.654 10.24-31.888 21.714-.035 32.047z" fill="red"/><path d="m-380.873-178.607-.985 928.783" fill="none" stroke="#000" stroke-width="1.15"/></g><g transform="matrix(.6728 -.08553 .12553 .99209 692.864 -117.252)"><use transform="matrix(-.00016 1 -2.445 -.00007 -262.63 1052.362)" href="#f"/><use transform="matrix(-.00016 1 -2.445 -.00007 -262.8 668.208)" href="#f"/><g transform="matrix(2.42543 .12626 -.3087 .992 -428.36 88.63)"><use href="#g"/><use href="#h"/></g><path d="m-224.477-8.44-.106 928.784" fill="none" stroke="#000" stroke-width="1.21"/></g><g transform="rotate(7.459 -11035.044 3981.552)scale(.84616 1)"><path d="M-381.792-1158.026c-28.379-10.245-28.586-21.72-.026-32.046zm.522 384.154c-28.379-10.245-28.586-21.72-.027-32.046zm-.053-64.007c-28.378-10.244-28.586-21.718-.026-32.046zm-.052-64.006c-28.378-10.244-28.586-21.718-.026-32.046zm-.052-64.005c-28.378-10.245-28.586-21.72-.026-32.047zm-.052-64.007c-28.378-10.244-28.586-21.719-.026-32.046zm-.052-64.006c-28.378-10.244-28.586-21.719-.026-32.046z" fill="red"/><path d="M-381.297-805.876c28.362-10.295 28.55-21.77-.026-32.046zm-.052-64.006c28.362-10.295 28.55-21.77-.026-32.046zm-.051-64.006c28.36-10.295 28.55-21.77-.027-32.046zm-.053-64.006c28.362-10.295 28.55-21.77-.026-32.046zm-.104-128.012c28.361-10.295 28.55-21.77-.026-32.046zm.052 64.006c28.362-10.295 28.55-21.77-.026-32.046zm.323 416.337c-28.379-10.244-28.586-21.719-.026-32.046zm-.052-64.007c-28.379-10.243-28.586-21.718-.027-32.045zm.078 96.01c28.361-10.295 28.55-21.77-.026-32.046zm-.104-128.012c28.361-10.296 28.55-21.77-.027-32.046z" fill="red"/><path d="M-381.208-677.566c28.361-10.295 28.55-21.77-.026-32.046z" fill="red"/><path d="m-381.128-613.258-.494-576.067" fill="none" stroke="#000" stroke-width="1.09"/></g><path d="M1088.571 945.477c41.409-171.066 173.416-67.886 238.082-220.854l2.612 201.184c-67.558 149.196-192.686 40.832-240.694 222.528" transform="translate(-25.073 -146.524)" fill="url(#j)" stroke="#000"/><path d="M17.159 799.279c30.586-51.123 66.81-117.117 118.989-143.049" fill="none" stroke="#000"/><path d="M17.16 799.28h1047.52v202.03H17.16z" fill="#e2e2e2" stroke="#000" stroke-linecap="round" stroke-linejoin="round"/><g transform="rotate(7.465 -6567.426 4378.823)"><use transform="matrix(.00092 1 1.82957 -.00223 -352.942 -86.344)" href="#f"/><path d="m-381.858-601.732.34 383.403" fill="none" stroke="#000"/></g><path d="M343.785 1004.939h48" fill="none" stroke="#000" stroke-width="8"/></g><g transform="translate(-1025.733 -68.396)"><text x="1206.22" y="1432.82" transform="rotate(-35.808)" xml:space="preserve" style="line-height:125%;-inkscape-font-specification:&quot;Arial, Bold&quot;;text-align:start" font-weight="700" font-size="48" font-family="Arial" letter-spacing="0" word-spacing="0" fill="#fff"><tspan x="1206.22" y="1432.82">dark fringe</tspan></text><text x="846.26" y="1146.17" transform="rotate(-35.472)" xml:space="preserve" style="line-height:125%;-inkscape-font-specification:&quot;Arial, Bold&quot;;text-align:start" font-weight="700" font-size="48" font-family="Arial" letter-spacing="0" word-spacing="0" fill="#fff"><tspan x="846.26" y="1146.17">bright fringe</tspan></text><text x="1853.27" y="548.53" xml:space="preserve" style="line-height:110.00000238%;-inkscape-font-specification:&quot;Arial, Normal&quot;;text-align:start" font-weight="400" font-size="48" font-family="Arial" letter-spacing="0" word-spacing="0"><tspan x="1853.27" y="548.53">Destructive</tspan><tspan x="1853.27" y="601.34">interference</tspan></text><text x="1855.43" y="701.6" xml:space="preserve" style="line-height:110.00000238%;-inkscape-font-specification:&quot;Arial, Normal&quot;;text-align:start" font-weight="400" font-size="48" font-family="Arial" letter-spacing="0" word-spacing="0"><tspan x="1855.43" y="701.6">Reflected </tspan><tspan x="1855.43" y="754.4">waves 180° </tspan><tspan x="1855.43" y="807.2">out of phase</tspan></text><text x="1379.76" y="545.8" xml:space="preserve" style="line-height:110.00000238%;-inkscape-font-specification:&quot;Arial, Normal&quot;;text-align:start" font-weight="400" font-size="48" font-family="Arial" letter-spacing="0" word-spacing="0"><tspan x="1379.76" y="545.8">Constructive</tspan><tspan x="1379.76" y="598.6">interference</tspan></text><text x="1378.06" y="698.42" xml:space="preserve" style="line-height:110.00000238%;-inkscape-font-specification:&quot;Arial, Normal&quot;;text-align:start" font-weight="400" font-size="48" font-family="Arial" letter-spacing="0" word-spacing="0"><tspan x="1378.06" y="698.42">Reflected</tspan><tspan x="1378.06" y="751.23">waves</tspan><tspan x="1378.06" y="804.02">in phase</tspan></text><text x="1846.6" y="938.66" xml:space="preserve" style="line-height:125%;-inkscape-font-specification:Arial;text-align:start" font-weight="400" font-size="48" font-family="Arial" letter-spacing="0" word-spacing="0"><tspan x="1846.6" y="938.66">Path length</tspan><tspan x="1846.6" y="998.66">difference =</tspan><tspan x="1846.6" y="1058.66">even multiple</tspan><tspan x="1846.6" y="1118.66">of λ/2</tspan></text><text x="1904.46" y="915.95" transform="scale(.93765 1.0665)" xml:space="preserve" style="line-height:125%;-inkscape-font-specification:Arial;text-align:start" font-weight="400" font-size="153.58" font-family="Arial" letter-spacing="0" word-spacing="0"><tspan x="1904.46" y="915.95">}</tspan></text><text style="line-height:125%;-inkscape-font-specification:Arial;text-align:start" x="1496.57" y="860.17" transform="scale(.88202 1.13376)" xml:space="preserve" font-weight="400" font-size="163.26" font-family="Arial" letter-spacing="0" word-spacing="0"><tspan x="1496.57" y="860.17">}</tspan></text><text x="1378.1" y="941.97" xml:space="preserve" style="line-height:110.00000238%;-inkscape-font-specification:&quot;Arial, Normal&quot;;text-align:start" font-weight="400" font-size="48" font-family="Arial" letter-spacing="0" word-spacing="0"><tspan x="1378.1" y="941.97">Path length</tspan><tspan x="1378.1" y="994.77">difference = </tspan><tspan x="1378.1" y="1047.57">odd multiple</tspan><tspan x="1378.1" y="1100.37">of λ/2</tspan></text><text style="line-height:110.00000238%;-inkscape-font-specification:&quot;Arial, Normal&quot;;text-align:start" x="1063.86" y="1144.83" xml:space="preserve" font-weight="400" font-size="48" font-family="Arial" letter-spacing="0" word-spacing="0"><tspan x="1063.86" y="1144.83">180° phase</tspan><tspan x="1063.86" y="1197.63">change</tspan></text><path d="m1217.926 1092.006 48.555-64.73" fill="none" stroke="#000" stroke-width="4" marker-end="url(#k)"/></g></svg>