<svg viewBox="0 0 1417.43 1187.84"><defs><marker id="i" orient="auto" overflow="visible" refX="0" refY="0"><path fill-rule="evenodd" stroke="#000" stroke-width=".53" d="M-4 0l-2 2 7-2-7-2z"/></marker><linearGradient id="c"><stop offset="0" stop-color="#a6a6a6"/><stop offset=".5" stop-color="#e9e9e9" stop-opacity=".5"/><stop offset="1" stop-color="#a6a6a6"/></linearGradient><linearGradient id="b"><stop offset="0" stop-color="#a6a6a6"/><stop offset=".5" stop-color="#ededed"/><stop offset="1" stop-color="#a6a6a6"/></linearGradient><linearGradient id="a"><stop offset="0" stop-color="#fe4040"/><stop offset=".44" stop-color="#af7373"/><stop offset="1" stop-color="#515151"/></linearGradient><linearGradient id="g" x1="347.46" x2="535.9" y1="139.02" y2="379.77" gradientUnits="userSpaceOnUse" href="#a" spreadMethod="reflect"/><linearGradient id="d" x1="1640.93" x2="1910.26" y1="541.18" y2="544.04" gradientUnits="userSpaceOnUse" href="#b"/><linearGradient id="h" x1="1088.07" x2="1329.77" y1="936.48" y2="936.48" gradientUnits="userSpaceOnUse" href="#c"/><path id="f" fill="red" d="M74.554-74.777c14.135 8.555 15.672 19.927 4.044 31.79zm8.077 63.495c14.135 8.554 15.672 19.926 4.044 31.79z"/><path id="e" fill="red" d="M70.516-106.524c-11.543 11.821-10.184 23.215 4.044 31.79zM86.67 20.465c-11.543 11.821-10.184 23.215 4.044 31.79zM78.593-43.03C67.05-31.207 68.409-19.813 82.637-11.24z"/></defs><g transform="translate(62.215 145.9)"><path fill="url(#d)" stroke="#000" d="M1655.714 851.9c21.7-138.742 200.581-91.325 238.07-224.422l10.663-357.37-240.161 51.792z" transform="translate(-593.41 -199.287)"/><rect width="1048.19" height="379.77" x="31.56" y="238.4" fill="#e2e2e2" stroke="#000" stroke-linecap="round" stroke-linejoin="round" ry="0" transform="matrix(.99944 .0335 -.02605 .99966 0 0)"/><text x="103.5" y="-11.97" font-family="Arial" font-size="110" font-weight="400" letter-spacing="0" word-spacing="0" style="line-height:125%;-inkscape-font-specification:Arial;text-align:start"><tspan x="103.5" y="-11.97">a</tspan></text><text x="572.07" y="-11.97" font-family="Arial" font-size="110" font-weight="400" letter-spacing="0" word-spacing="0" style="line-height:125%;-inkscape-font-specification:Arial;text-align:start"><tspan x="572.07" y="-11.97">b</tspan></text><path fill="none" stroke="#000" d="M1300.68 580.203l-200.52.33"/></g><path fill="none" stroke="#8b8b8b" stroke-width="5" d="M239.781 420.165l108.967 3.64m-113.967 28.214l108.967 3.64M231.21 483.873l108.966 3.64m-111.823 28.215l108.966 3.64m-113.966 28.214l108.966 3.64m-113.966 28.214l108.966 3.64M709.745 420.33l108.967 3.64M704.775 451.9l108.966 3.64m-113.253 27.93l108.967 3.64m-112.552 27.93l108.966 3.64m-113.252 27.93l108.966 3.64M689.06 578.18l108.966 3.64"/><path fill="red" d="M764.933 262.206c-19.898-12.94-18.573-24.34 4.115-31.78zM715.76 643.2c-19.899-12.94-18.573-24.34 4.114-31.78zm8.218-63.476c-19.897-12.94-18.572-24.34 4.116-31.78zm8.22-63.476c-19.898-12.94-18.573-24.34 4.115-31.781zm8.219-63.477c-19.898-12.94-18.573-24.339 4.115-31.78zm8.219-63.476c-19.898-12.94-18.573-24.339 4.115-31.78zm8.219-63.476c-19.898-12.94-18.573-24.34 4.115-31.78zm-36.986 285.643c22.535-7.43 24.157-18.79 4.115-31.78z"/><path fill="red" d="M728.088 547.986c22.536-7.43 24.157-18.79 4.115-31.78zm8.219-63.477c22.536-7.429 24.157-18.79 4.115-31.78zm8.219-63.475c22.536-7.43 24.158-18.79 4.116-31.781zm16.439-126.953c22.535-7.43 24.157-18.79 4.115-31.78zm-8.219 63.476c22.535-7.43 24.157-18.79 4.115-31.78zM699.27 770.446c-19.897-12.94-18.572-24.34 4.116-31.78zm8.22-63.476c-19.898-12.94-18.573-24.34 4.115-31.781zm5.74 80.982s-4.196-11.224-13.954-17.549l-2.018 16.192c6.269.648 15.973 1.357 15.973 1.357M711.6 675.231c22.535-7.429 24.157-18.79 4.115-31.78z"/><path fill="red" d="M703.38 738.708c22.536-7.43 24.158-18.79 4.116-31.781z"/><path fill="none" stroke="#000" d="M697.203 786.573l71.896-555.388"/><g transform="matrix(.75703 -.03053 -.0334 .9958 602.221 155.156)"><path fill="red" d="M254.961 276.414c-26.794-13.869-25.498-25.272 4.167-31.773z"/><use href="#e" transform="matrix(.13003 -.99151 2.17352 .28484 306.299 150.135)"/><g transform="matrix(-2.13973 -.40768 .40327 -.94764 378.2 744.086)"><use href="#f"/><use href="#e"/></g><path fill="none" stroke="#000" stroke-width="1.15" d="M184.346 816.587l74.88-571.18"/></g><path fill="url(#g)" stroke="#000" d="M1072.263 275.566c13.623-126.219 208.917-57.106 242.333-210.186L285.561 25.7C217.833 132.549 100.949 44.14 25.148 239.438" transform="translate(62.215 145.9)"/><path fill="red" d="M202.266 579.897c25.231 7.127 26.859 18.488 4.077 31.785zm8.143 63.486c25.232 7.127 26.86 18.487 4.077 31.786zm8.143 63.486c25.233 7.127 26.86 18.487 4.078 31.785zm8.144 63.486c25.232 7.127 26.86 18.487 4.077 31.785zm8.143 63.486c25.233 7.127 26.86 18.487 4.078 31.785zm8.144 63.485c25.232 7.128 26.86 18.488 4.077 31.786z"/><path fill="red" d="M206.337 611.64c-22.62 13.245-21.326 24.647 4.077 31.785zm8.143 63.485c-22.619 13.246-21.326 24.648 4.078 31.787zm8.143 63.487c-22.618 13.245-21.326 24.647 4.078 31.785zm8.144 63.486c-22.619 13.245-21.326 24.647 4.078 31.785zm16.288 126.971c-22.62 13.245-21.327 24.648 4.077 31.786zm-8.144-63.486c-22.62 13.245-21.326 24.648 4.077 31.786zm-85.698-666.696c25.232 7.127 26.86 18.488 4.077 31.785zm8.143 63.486c25.232 7.127 26.86 18.488 4.077 31.785zm8.144 63.486c25.232 7.128 26.86 18.488 4.077 31.785zm8.143 63.486c25.232 7.128 26.86 18.488 4.077 31.785zm8.144 63.486c25.232 7.127 26.86 18.488 4.077 31.786zm8.143 63.486c25.232 7.127 26.86 18.487 4.077 31.786z"/><path fill="red" d="M157.284 230.63c-22.619 13.246-21.326 24.648 4.078 31.785zm8.144 63.486c-22.62 13.245-21.327 24.648 4.077 31.785zm8.143 63.486c-22.619 13.245-21.326 24.648 4.078 31.785zm8.144 63.486c-22.62 13.245-21.327 24.647 4.077 31.786zm16.287 126.97c-22.62 13.247-21.327 24.65 4.077 31.788zm-8.144-63.484c-22.619 13.245-21.326 24.647 4.078 31.786zM136.901 71.62c25.232 7.127 26.86 18.487 4.078 31.785zm8.144 63.486c25.233 7.127 26.86 18.487 4.078 31.785z"/><path fill="red" d="M132.83 39.876c-22.62 13.245-21.327 24.647 4.077 31.785zm16.287 126.971c-22.62 13.245-21.326 24.648 4.077 31.786zm-8.144-63.486c-22.62 13.246-21.327 24.648 4.077 31.786z"/><path fill="none" stroke="#000" stroke-width="1.15" d="M-380.873-178.607l-.985 928.783" transform="rotate(-7.358 1617.872 -3359.578) scale(.76227 1)"/><g transform="matrix(.6728 -.08553 .12553 .99209 755.079 28.648)"><use href="#e" transform="matrix(-.00016 1 -2.445 -.00007 -262.63 1052.362)"/><use href="#e" transform="matrix(-.00016 1 -2.445 -.00007 -262.8 668.208)"/><g transform="matrix(2.42543 .12626 -.3087 .992 -428.36 88.63)"><use href="#f"/><use href="#e"/></g><path fill="none" stroke="#000" stroke-width="1.21" d="M-224.477-8.44l-.106 928.784"/></g><path fill="red" d="M315.716 421.96c-22.48-13.276-21.164-24.676 4.138-31.778zm-49.431 380.96c-22.48-13.275-21.164-24.676 4.137-31.777zm8.264-63.47c-22.479-13.275-21.164-24.675 4.139-31.778zm8.266-63.47c-22.48-13.275-21.165-24.675 4.138-31.779zm8.265-63.47c-22.48-13.275-21.164-24.676 4.138-31.779zm8.266-63.471c-22.48-13.275-21.165-24.675 4.138-31.778zm8.265-63.47c-22.48-13.275-21.164-24.675 4.138-31.778z"/><path fill="red" d="M270.417 771.184c25.132-7.092 26.78-18.45 4.138-31.777zm8.265-63.47c25.132-7.092 26.78-18.45 4.138-31.777zm8.266-63.47c25.13-7.092 26.78-18.45 4.138-31.778zm8.265-63.47c25.132-7.092 26.78-18.45 4.138-31.778zm16.53-126.94c25.132-7.093 26.78-18.45 4.139-31.778zm-8.265 63.47c25.132-7.093 26.78-18.45 4.139-31.778zm-53.776 412.85c-22.48-13.275-21.164-24.676 4.138-31.778zm8.265-63.472c-22.48-13.273-21.164-24.674 4.138-31.777zm-12.398 95.206c25.131-7.092 26.78-18.45 4.138-31.777zm16.53-126.94c25.132-7.093 26.78-18.45 4.138-31.778z"/><path fill="red" d="M253.834 898.418c25.132-7.092 26.78-18.45 4.139-31.777z"/><path fill="none" stroke="#000" stroke-width="1.09" d="M-381.128-613.258l-.494-576.067" transform="matrix(.839 .10985 -.12982 .99154 485.708 1612.125)"/><path fill="url(#h)" stroke="#000" d="M1088.571 945.477c41.409-171.066 173.416-67.886 238.082-220.854l2.612 201.184c-67.558 149.196-192.686 40.832-240.694 222.528" transform="translate(37.142 -.624)"/><path fill="none" stroke="#000" d="M79.374 945.179c30.586-51.123 66.81-117.117 118.989-143.049"/><path fill="#e2e2e2" stroke="#000" stroke-linecap="round" stroke-linejoin="round" d="M79.375 945.18h1047.52v202.03H79.375z"/><g transform="rotate(7.465 -7654.554 4928.613)"><use href="#e" transform="matrix(.00092 1 1.82957 -.00223 -352.942 -86.344)"/><path fill="none" stroke="#000" d="M-381.858-601.732l.34 383.403"/></g><path fill="none" stroke="#000" stroke-width="8" d="M406 1150.839h48"/><text style="line-height:125%;-inkscape-font-specification:&quot;Arial, Bold&quot;;text-align:start" x="1206.22" y="1432.82" fill="#fff" font-family="Arial" font-size="48" font-weight="700" letter-spacing="0" transform="rotate(-35.808 -618.72 1553.288)" word-spacing="0"><tspan x="1206.22" y="1432.82">dark fringe</tspan></text><text style="line-height:125%;-inkscape-font-specification:&quot;Arial, Bold&quot;;text-align:start" x="846.26" y="1146.17" fill="#fff" font-family="Arial" font-size="48" font-weight="700" letter-spacing="0" transform="rotate(-35.472 -619.791 1569.346)" word-spacing="0"><tspan x="846.26" y="1146.17">bright fringe</tspan></text><text x="1853.27" y="548.53" font-family="Arial" font-size="48" font-weight="400" letter-spacing="0" transform="translate(-1025.733 -68.396)" word-spacing="0" style="line-height:110.00000238%;-inkscape-font-specification:&quot;Arial, Normal&quot;;text-align:start"><tspan x="1853.27" y="548.53">Destructive</tspan><tspan x="1853.27" y="601.34">interference</tspan></text><text x="1855.43" y="701.6" font-family="Arial" font-size="48" font-weight="400" letter-spacing="0" transform="translate(-1025.733 -68.396)" word-spacing="0" style="line-height:110.00000238%;-inkscape-font-specification:&quot;Arial, Normal&quot;;text-align:start"><tspan x="1855.43" y="701.6">Reflected </tspan><tspan x="1855.43" y="754.4">waves 180° </tspan><tspan x="1855.43" y="807.2">out of phase</tspan></text><text x="1379.76" y="545.8" font-family="Arial" font-size="48" font-weight="400" letter-spacing="0" transform="translate(-1025.733 -68.396)" word-spacing="0" style="line-height:110.00000238%;-inkscape-font-specification:&quot;Arial, Normal&quot;;text-align:start"><tspan x="1379.76" y="545.8">Constructive</tspan><tspan x="1379.76" y="598.6">interference</tspan></text><text x="1378.06" y="698.42" font-family="Arial" font-size="48" font-weight="400" letter-spacing="0" transform="translate(-1025.733 -68.396)" word-spacing="0" style="line-height:110.00000238%;-inkscape-font-specification:&quot;Arial, Normal&quot;;text-align:start"><tspan x="1378.06" y="698.42">Reflected</tspan><tspan x="1378.06" y="751.23">waves</tspan><tspan x="1378.06" y="804.02">in phase</tspan></text><text x="1846.6" y="938.66" font-family="Arial" font-size="48" font-weight="400" letter-spacing="0" transform="translate(-1025.733 -68.396)" word-spacing="0" style="line-height:125%;-inkscape-font-specification:Arial;text-align:start"><tspan x="1846.6" y="938.66">Path length</tspan><tspan x="1846.6" y="998.66">difference =</tspan><tspan x="1846.6" y="1058.66">even multiple</tspan><tspan x="1846.6" y="1118.66">of λ/2</tspan></text><text x="1904.46" y="915.95" font-family="Arial" font-size="153.58" font-weight="400" letter-spacing="0" transform="matrix(.93765 0 0 1.0665 -1025.733 -68.396)" word-spacing="0" style="line-height:125%;-inkscape-font-specification:Arial;text-align:start"><tspan x="1904.46" y="915.95">}</tspan></text><text style="line-height:125%;-inkscape-font-specification:Arial;text-align:start" x="1496.57" y="860.17" font-family="Arial" font-size="163.26" font-weight="400" letter-spacing="0" transform="matrix(.88202 0 0 1.13376 -1025.733 -68.396)" word-spacing="0"><tspan x="1496.57" y="860.17">}</tspan></text><text x="1378.1" y="941.97" font-family="Arial" font-size="48" font-weight="400" letter-spacing="0" transform="translate(-1025.733 -68.396)" word-spacing="0" style="line-height:110.00000238%;-inkscape-font-specification:&quot;Arial, Normal&quot;;text-align:start"><tspan x="1378.1" y="941.97">Path length</tspan><tspan x="1378.1" y="994.77">difference = </tspan><tspan x="1378.1" y="1047.57">odd multiple</tspan><tspan x="1378.1" y="1100.37">of λ/2</tspan></text><text style="line-height:110.00000238%;-inkscape-font-specification:&quot;Arial, Normal&quot;;text-align:start" x="1063.86" y="1144.83" font-family="Arial" font-size="48" font-weight="400" letter-spacing="0" transform="translate(-1025.733 -68.396)" word-spacing="0"><tspan x="1063.86" y="1144.83">180° phase</tspan><tspan x="1063.86" y="1197.63">change</tspan></text><path fill="none" stroke="#000" stroke-width="4" marker-end="url(#i)" d="M1217.926 1092.006l48.555-64.73" transform="translate(-1025.733 -68.396)"/></svg>