<svg xmlns="http://www.w3.org/2000/svg" enable-background="new 68.5 12.5 591.5 387.5" viewBox="68.5 12.5 591.5 387.5" xml:space="preserve"><g transform="translate(-30.143 -312.529)"><linearGradient id="a" x1="502.06" x2="503.47" y1="-154.98" y2="-12.71" gradientTransform="matrix(1 0 0 -1.0237 -138.678 533.872)" gradientUnits="userSpaceOnUse"><stop offset="0" stop-color="#83a0ff"/><stop offset="1" stop-color="#cdd6f3"/></linearGradient><path fill="url(#a)" d="m614.55 548.229-501.383.292.701 120.587c0 12.237 11.604 25.959 21.954 25.959h454.846c11.589 0 24.583-15.364 24.583-29.066z" enable-background="new" opacity="0.63"/><path fill="#ffd769" stroke="#000" d="m219.451 587.678 192.643-39.598 3.694 9.948-192.396 41z"/><path fill="#e0ac00" stroke="#000" d="M657.572 429.79 185.428 694.791l-7.857-15.715L649.714 414.79z"/><path fill="none" stroke="#ff0101" stroke-width="4" d="m177.57 679.08 113.57-130.67 117.11-65.02"/><path fill="#ff0101" d="m411 495.55 12.31-20.52-23.93-.4z"/><path fill="none" stroke="#ff0101" stroke-width="4" d="m177.57 679.08 87.57-131.23 116.38-103.38"/><path fill="#ff0101" d="m386.85 455.74 7.54-22.71-23.44 4.82z"/><g transform="rotate(-7.726 391.601 50.17)"><path fill="none" stroke="#000" stroke-width="2" d="M470.143 466.648c-1.428-17.143-3.571-60 82.143-95.714-86.428 35.714-118.571-26.429-118.571-26.429"/><path fill="none" stroke="#000" stroke-width="2" d="M458.714 372.362c-12.678 20.714-5.247 50.954 13.727 67.203"/><g transform="matrix(.96954 -.22318 .24407 .91497 -57.17 130.914)"><path fill="#7f9eff" d="M439.643 408.969c.004 12.919-3.071 23.404-6.867 23.417-3.797.014-6.879-10.449-6.883-23.368l-.001-.049c-.004-12.919 3.071-23.404 6.868-23.418s6.878 10.449 6.882 23.369z"/><path d="M436.556 408.969c.003 7.397-1.691 13.399-3.784 13.407-2.093.007-3.791-5.983-3.792-13.379l-.001-.028c-.002-7.397 1.692-13.399 3.785-13.407s3.79 5.982 3.792 13.379z"/></g></g><path fill="none" stroke="#000" stroke-linecap="round" stroke-linejoin="round" stroke-width="3" d="m151.143 676.934 12.5-15.715-6.25 7.857 6.071 7.768-12.143-15.625m57.849-90.916-6.25 7.856v7.769l.073-7.696-6.144-7.929"/><path fill="none" stroke="#000" stroke-linecap="round" stroke-linejoin="round" stroke-width="4" d="M113.867 454.416V670.57c0 12.236 11.604 25.958 21.954 25.958h454.846c11.589 0 24.583-15.364 24.583-29.066V454.123"/><path fill="none" stroke="#000" stroke-dasharray="2 2" stroke-width="2" d="M114.025 548.406h501.131"/><path fill="#d2c495" stroke="#000" d="m649.357 414.79 8.571 15.357 22.144-19.286-2.144-3.928z"/><path stroke="#000" stroke-linecap="round" stroke-linejoin="round" d="M677.929 406.934c.446 0 7.768-1.875 7.768-1.875l-5.625 5.535z"/><path fill="none" stroke="#000" stroke-dasharray="9 9" stroke-width="3" d="m219.273 588.374 72.057-40.146m-72.057 40.146 44.922-40.145"/></g></svg>