<svg xmlns="http://www.w3.org/2000/svg" viewBox="68.5 12.5 591.5 387.5"><g transform="translate(-30.143 -312.529)"><linearGradient id="a" x1="502.06" x2="503.47" y1="-154.98" y2="-12.71" gradientTransform="matrix(1 0 0 -1.0237 -138.678 533.872)" gradientUnits="userSpaceOnUse"><stop offset="0" stop-color="#83a0ff"/><stop offset="1" stop-color="#cdd6f3"/></linearGradient><path fill="url(#a)" d="m614.55 548.229-501.383.292.701 120.587c0 12.237 11.604 25.959 21.954 25.959h454.846c11.589 0 24.583-15.364 24.583-29.066z" opacity="0.63"/><path fill="#ffd769" stroke="#000" d="m219.451 587.678 192.643-39.598 3.694 9.948-192.396 41z"/><path fill="#e0ac00" stroke="#000" d="M657.572 429.79 185.428 694.791l-7.857-15.715L649.714 414.79z"/><path fill="none" stroke="#ff0101" stroke-width="4" d="m177.57 679.08 113.57-130.67 117.11-65.02"/><path fill="#ff0101" d="m411 495.55 12.31-20.52-23.93-.4z"/><path fill="none" stroke="#ff0101" stroke-width="4" d="m177.57 679.08 87.57-131.23 116.38-103.38"/><path fill="#ff0101" d="m386.85 455.74 7.54-22.71-23.44 4.82z"/><path fill="none" stroke="#000" stroke-width="2" d="M525.42 452.308c-3.72-16.795-11.605-58.975 68.53-105.888-80.843 47.01-121.048-10.249-121.048-10.249m28.517 24.244c-9.778 22.23 1.65 51.197 22.637 64.747"/><path fill="#7f9eff" d="M516.168 393.355c4.718 11.288 5.681 21.531 2.153 22.877s-10.215-6.713-14.932-18.001l-.02-.042c-4.716-11.288-5.68-21.532-2.151-22.878s10.214 6.713 14.932 18.002z"/><path d="M513.295 394.44c2.702 6.463 3.315 12.303 1.37 13.046s-5.711-3.896-8.41-10.358l-.012-.025c-2.7-6.463-3.314-12.303-1.369-13.046s5.71 3.895 8.411 10.359z"/><path fill="none" stroke="#000" stroke-linecap="round" stroke-linejoin="round" stroke-width="3" d="m151.143 676.934 12.5-15.715-6.25 7.857 6.071 7.768-12.143-15.625m57.849-90.916-6.25 7.856v7.769l.073-7.696-6.144-7.929"/><path fill="none" stroke="#000" stroke-linecap="round" stroke-linejoin="round" stroke-width="4" d="M113.867 454.416V670.57c0 12.236 11.604 25.958 21.954 25.958h454.846c11.589 0 24.583-15.364 24.583-29.066V454.123"/><path fill="none" stroke="#000" stroke-dasharray="2 2" stroke-width="2" d="M114.025 548.406h501.131"/><path fill="#d2c495" stroke="#000" d="m649.357 414.79 8.571 15.357 22.144-19.286-2.144-3.928z"/><path stroke="#000" stroke-linecap="round" stroke-linejoin="round" d="M677.929 406.934c.446 0 7.768-1.875 7.768-1.875l-5.625 5.535z"/><path fill="none" stroke="#000" stroke-dasharray="9 9" stroke-width="3" d="m219.273 588.374 72.057-40.146m-72.057 40.146 44.922-40.145"/></g></svg>