<?xml version="1.0" encoding="utf-8"?>
<!-- Generator: Adobe Illustrator 16.0.0, SVG Export Plug-In . SVG Version: 6.00 Build 0)  -->
<!DOCTYPE svg PUBLIC "-//W3C//DTD SVG 1.1//EN" "http://www.w3.org/Graphics/SVG/1.1/DTD/svg11.dtd">
<svg version="1.1"
	 id="svg2" xmlns:dc="http://purl.org/dc/elements/1.1/" xmlns:cc="http://creativecommons.org/ns#" xmlns:rdf="http://www.w3.org/1999/02/22-rdf-syntax-ns#" xmlns:svg="http://www.w3.org/2000/svg" xmlns:sodipodi="http://sodipodi.sourceforge.net/DTD/sodipodi-0.dtd" xmlns:inkscape="http://www.inkscape.org/namespaces/inkscape" inkscape:version="0.47 r22583" sodipodi:docname="Pencil_in_a_bowl_of_water.svg"
	 xmlns="http://www.w3.org/2000/svg" xmlns:xlink="http://www.w3.org/1999/xlink" x="0px" y="0px" width="591.5px"
	 height="387.499px" viewBox="68.5 12.501 591.5 387.499" enable-background="new 68.5 12.501 591.5 387.499" xml:space="preserve">
<defs>
	
	
		<inkscape:perspective  id="perspective10" inkscape:vp_z="744.09448 : 526.18109 : 1" inkscape:vp_y="0 : 1000 : 0" inkscape:vp_x="0 : 526.18109 : 1" sodipodi:type="inkscape:persp3d" inkscape:persp3d-origin="372.04724 : 350.78739 : 1">
		</inkscape:perspective>
	
		<inkscape:perspective  id="perspective2824" inkscape:vp_z="1 : 0.5 : 1" inkscape:vp_y="0 : 1000 : 0" inkscape:vp_x="0 : 0.5 : 1" sodipodi:type="inkscape:persp3d" inkscape:persp3d-origin="0.5 : 0.33333333 : 1">
		</inkscape:perspective>
	
		<inkscape:perspective  id="perspective3613" inkscape:vp_z="1 : 0.5 : 1" inkscape:vp_y="0 : 1000 : 0" inkscape:vp_x="0 : 0.5 : 1" sodipodi:type="inkscape:persp3d" inkscape:persp3d-origin="0.5 : 0.33333333 : 1">
		</inkscape:perspective>
	
		<inkscape:perspective  id="perspective3649" inkscape:vp_z="1 : 0.5 : 1" inkscape:vp_y="0 : 1000 : 0" inkscape:vp_x="0 : 0.5 : 1" sodipodi:type="inkscape:persp3d" inkscape:persp3d-origin="0.5 : 0.33333333 : 1">
		</inkscape:perspective>
	
		<inkscape:perspective  id="perspective3681" inkscape:vp_z="1 : 0.5 : 1" inkscape:vp_y="0 : 1000 : 0" inkscape:vp_x="0 : 0.5 : 1" sodipodi:type="inkscape:persp3d" inkscape:persp3d-origin="0.5 : 0.33333333 : 1">
		</inkscape:perspective>
	
		<inkscape:perspective  id="perspective5469" inkscape:vp_z="1 : 0.5 : 1" inkscape:vp_y="0 : 1000 : 0" inkscape:vp_x="0 : 0.5 : 1" sodipodi:type="inkscape:persp3d" inkscape:persp3d-origin="0.5 : 0.33333333 : 1">
		</inkscape:perspective>
	
		<inkscape:perspective  id="perspective5491" inkscape:vp_z="1 : 0.5 : 1" inkscape:vp_y="0 : 1000 : 0" inkscape:vp_x="0 : 0.5 : 1" sodipodi:type="inkscape:persp3d" inkscape:persp3d-origin="0.5 : 0.33333333 : 1">
		</inkscape:perspective>
	
		<inkscape:perspective  id="perspective5513" inkscape:vp_z="1 : 0.5 : 1" inkscape:vp_y="0 : 1000 : 0" inkscape:vp_x="0 : 0.5 : 1" sodipodi:type="inkscape:persp3d" inkscape:persp3d-origin="0.5 : 0.33333333 : 1">
		</inkscape:perspective>
	
		<inkscape:perspective  id="perspective5535" inkscape:vp_z="1 : 0.5 : 1" inkscape:vp_y="0 : 1000 : 0" inkscape:vp_x="0 : 0.5 : 1" sodipodi:type="inkscape:persp3d" inkscape:persp3d-origin="0.5 : 0.33333333 : 1">
		</inkscape:perspective>
	
		<inkscape:perspective  id="perspective5561" inkscape:vp_z="1 : 0.5 : 1" inkscape:vp_y="0 : 1000 : 0" inkscape:vp_x="0 : 0.5 : 1" sodipodi:type="inkscape:persp3d" inkscape:persp3d-origin="0.5 : 0.33333333 : 1">
		</inkscape:perspective>
</defs>
<sodipodi:namedview  showborder="true" showgrid="false" inkscape:cy="244.67532" inkscape:cx="532.12904" inkscape:zoom="0.7" borderopacity="1.0" bordercolor="#666666" pagecolor="#ffffff" id="base" inkscape:window-maximized="0" inkscape:window-y="66" inkscape:window-x="66" inkscape:window-height="838" inkscape:window-width="1373" inkscape:current-layer="layer2" inkscape:document-units="px" inkscape:pageshadow="2" inkscape:pageopacity="0.0">
	</sodipodi:namedview>
<g id="layer2" transform="translate(-30.142857,-312.529)" inkscape:label="Vectors" inkscape:groupmode="layer">
	
		<linearGradient id="path2831-1_1_" gradientUnits="userSpaceOnUse" x1="502.0638" y1="-154.982" x2="503.4724" y2="-12.7077" gradientTransform="matrix(1 0 0 -1.0237 -138.6782 533.8718)">
		<stop  offset="0" style="stop-color:#83A0FF"/>
		<stop  offset="1" style="stop-color:#CDD6F3"/>
	</linearGradient>
	<path id="path2831-1" sodipodi:nodetypes="ccssssc" opacity="0.63" fill="url(#path2831-1_1_)" enable-background="new    " d="
		M614.55,548.229l-501.383,0.292l0.701,120.587c0,12.237,11.604,25.959,21.954,25.959h454.846c11.589,0,24.583-15.364,24.583-29.066
		L614.55,548.229z"/>
	<path id="path3637" fill="#FFD769" stroke="#000000" d="M219.451,587.678l192.643-39.598l3.694,9.948l-192.396,41L219.451,587.678
		L219.451,587.678z"/>
	<path id="path3635" fill="#E0AC00" stroke="#000000" d="M657.572,429.79L185.428,694.791l-7.857-15.715L649.714,414.79
		L657.572,429.79L657.572,429.79z"/>
	<g id="path3639" sodipodi:nodetypes="ccc">
		<g>
			<polyline fill="none" stroke="#FF0101" stroke-width="4" points="177.572,679.077 291.143,548.406 408.252,483.39 			"/>
			<g>
				<polygon fill="#FF0101" points="410.999,495.552 423.309,475.03 399.382,474.626 				"/>
			</g>
		</g>
	</g>
	<g id="path3639-7" sodipodi:nodetypes="ccc">
		<g>
			<polyline fill="none" stroke="#FF0101" stroke-width="4" points="177.572,679.077 265.143,547.851 381.518,444.468 			"/>
			<g>
				<polygon fill="#FF0101" points="386.848,455.74 394.393,433.03 370.952,437.847 				"/>
			</g>
		</g>
	</g>
	<g id="g3703" transform="matrix(0.99092297,-0.1344309,0.1344309,0.99092297,-3.1898914,53.098721)">
		<g id="g3699">
			<path id="path3667" fill="none" stroke="#000000" stroke-width="2" d="M470.143,466.648c-1.428-17.143-3.571-60,82.143-95.714
				c-86.428,35.714-118.571-26.429-118.571-26.429"/>
			<path id="path3669" sodipodi:nodetypes="cs" fill="none" stroke="#000000" stroke-width="2" d="M458.714,372.362
				c-12.678,20.714-5.247,50.954,13.727,67.203"/>
		</g>
		<g id="g3695" transform="matrix(0.96953922,-0.22318028,0.24406675,0.91496959,-57.169087,130.91365)">
			
				<path id="path3671" sodipodi:ry="25.892857" sodipodi:rx="8.3928576" sodipodi:cy="406.46933" sodipodi:cx="434.28571" sodipodi:type="arc" fill="#7F9EFF" d="
				M439.643,408.969c0.004,12.919-3.071,23.404-6.867,23.417c-3.797,0.014-6.879-10.449-6.883-23.368
				c0-0.017-0.001-0.033-0.001-0.049c-0.004-12.919,3.071-23.404,6.868-23.418c3.797-0.013,6.878,10.449,6.882,23.369
				C439.643,408.937,439.643,408.952,439.643,408.969z"/>
			
				<path id="path3671-4" sodipodi:ry="25.892857" sodipodi:rx="8.3928576" sodipodi:cy="406.46933" sodipodi:cx="434.28571" sodipodi:type="arc" d="
				M436.556,408.969c0.003,7.397-1.691,13.399-3.784,13.407c-2.093,0.007-3.791-5.983-3.792-13.379
				c-0.001-0.009,0-0.019-0.001-0.028c-0.002-7.397,1.692-13.399,3.785-13.407c2.092-0.008,3.79,5.982,3.792,13.379
				C436.556,408.95,436.557,408.959,436.556,408.969z"/>
		</g>
	</g>
	
		<path id="path5551" sodipodi:nodetypes="ccccc" fill="none" stroke="#000000" stroke-width="3" stroke-linecap="round" stroke-linejoin="round" d="
		M151.143,676.934l12.5-15.715l-6.25,7.857l6.071,7.768l-12.143-15.625"/>
	
		<path id="path5551-8" sodipodi:nodetypes="ccccc" fill="none" stroke="#000000" stroke-width="3" stroke-linecap="round" stroke-linejoin="round" d="
		M209.17,570.303l-6.25,7.856v7.769l0.073-7.696l-6.144-7.929"/>
	
		<path id="path2831" sodipodi:nodetypes="cssssc" fill="none" stroke="#000000" stroke-width="4" stroke-linecap="round" stroke-linejoin="round" d="
		M113.867,454.416v216.154c0,12.236,11.604,25.958,21.954,25.958h454.846c11.589,0,24.583-15.364,24.583-29.066V454.123"/>
	<path id="path5575" sodipodi:nodetypes="cc" fill="none" stroke="#000000" stroke-width="2" stroke-dasharray="2,2" d="
		M114.025,548.406h501.131"/>
	<path id="path5589" sodipodi:nodetypes="ccccc" fill="#D2C495" stroke="#000000" d="M649.357,414.79l8.571,15.357l22.144-19.286
		l-2.144-3.928L649.357,414.79L649.357,414.79z"/>
	<path id="path5591" sodipodi:nodetypes="cccc" stroke="#000000" stroke-linecap="round" stroke-linejoin="round" d="
		M677.929,406.934c0.446,0,7.768-1.875,7.768-1.875l-5.625,5.535L677.929,406.934z"/>
	<path id="path3639_1_" sodipodi:nodetypes="ccc" fill="none" stroke="#000000" stroke-width="3" stroke-dasharray="9,9" d="
		M219.273,588.374l72.057-40.146"/>
	<path id="path3639-7_1_" sodipodi:nodetypes="ccc" fill="none" stroke="#000000" stroke-width="3" stroke-dasharray="9,9" d="
		M219.273,588.374l44.922-40.145"/>
</g>
</svg>
