<svg xml:space="preserve" viewBox="68.5 12.5 591.5 387.5"><g transform="translate(-30.143 -312.529)"><linearGradient id="a" x1="502.1" x2="503.5" y1="-155" y2="-12.7" gradientTransform="matrix(1 0 0 -1.0237 -138.678 533.872)" gradientUnits="userSpaceOnUse"><stop offset="0" style="stop-color:#83a0ff"/><stop offset="1" style="stop-color:#cdd6f3"/></linearGradient><path fill="url(#a)" d="m614.6 548.2-501.4.3.7 120.6c0 12.2 11.6 26 22 26h454.8c11.6 0 24.6-15.4 24.6-29.1z" opacity="0.6"/><path fill="#ffd769" stroke="#000" d="M219.5 587.7 412 548l3.7 10-192.4 41-4-11.4z"/><path fill="#e0ac00" stroke="#000" d="m657.6 429.8-472.2 265-7.8-15.7 472.1-264.3z"/><path fill="none" stroke="#ff0101" stroke-width="4" d="M177.6 679 291 548.5l117.2-65"/><path fill="#ff0101" d="m411 495.6 12.3-20.6-24-.4z"/><path fill="none" stroke="#ff0101" stroke-width="4" d="M177.6 679 265 548l116.4-103.4"/><path fill="#ff0101" d="m386.8 455.7 7.6-22.7-23.4 4.8z"/><g fill="none" stroke="#000" stroke-width="2"><path d="M525.4 452.3c-3.7-16.8-11.6-59 68.5-105.9-80.8 47-121-10.2-121-10.2"/><path d="M501.4 360.4c-9.8 22.2 1.7 51.2 22.7 64.8"/></g><path fill="#7f9eff" d="M516.2 393.4c4.7 11.2 5.6 21.5 2.1 22.8s-10.2-6.7-15-18c-4.7-11.3-5.6-21.5-2-22.9 3.4-1.3 10.1 6.7 14.8 18"/><path d="M513.3 394.4c2.7 6.5 3.3 12.3 1.4 13-2 .8-5.8-3.8-8.5-10.3s-3.3-12.3-1.3-13c2-.8 5.7 3.9 8.4 10.3"/><path fill="none" stroke="#000" stroke-linecap="round" stroke-linejoin="round" stroke-width="3" d="m151.1 677 12.5-15.8-6.2 7.9 6 7.7-12-15.6m57.8-90.9-6.3 7.9v7.7-7.7l-6-7.9"/><path fill="none" stroke="#000" stroke-linecap="round" stroke-linejoin="round" stroke-width="4" d="M113.9 454.4v216.2c0 12.2 11.6 26 22 26h454.8c11.6 0 24.5-15.4 24.5-29.1V454"/><path fill="none" stroke="#000" stroke-dasharray="2 2" stroke-width="2" d="M114 548.4h501.2"/><path fill="#d2c495" stroke="#000" d="m649.4 414.8 8.5 15.3 22.2-19.2-2.2-4z"/><path stroke="#000" stroke-linecap="round" stroke-linejoin="round" d="M678 407c.4 0 7.7-2 7.7-2l-5.6 5.6z"/><path fill="none" stroke="#000" stroke-dasharray="9 9" stroke-width="3" d="m219.3 588.4 72-40.2m-72 40.2 44.9-40.2"/></g></svg>