<svg xmlns:xlink="http://www.w3.org/1999/xlink" xml:space="preserve" style="fill-rule:evenodd" viewBox="0 0 600.2 400"><defs><linearGradient id="a"><stop offset="0" style="stop-color:#00121f;stop-opacity:1"/><stop offset="0" style="stop-color:#00121f;stop-opacity:1"/><stop offset="0" style="stop-color:#00121f;stop-opacity:1"/><stop offset="0" style="stop-color:#00121f;stop-opacity:1"/><stop offset="0" style="stop-color:#00121f;stop-opacity:1"/><stop offset="0" style="stop-color:#001930;stop-opacity:1"/><stop offset="0" style="stop-color:#001930;stop-opacity:1"/><stop offset="0" style="stop-color:#240036;stop-opacity:1"/><stop offset="0" style="stop-color:#24003e;stop-opacity:1"/><stop offset="0.1" style="stop-color:#1f0043;stop-opacity:1"/><stop offset="0.1" style="stop-color:#190048;stop-opacity:1"/><stop offset="0.1" style="stop-color:#330052;stop-opacity:1"/><stop offset="0.1" style="stop-color:#2c0059;stop-opacity:1"/><stop offset="0.1" style="stop-color:#240061;stop-opacity:1"/><stop offset="0.1" style="stop-color:#1f006a;stop-opacity:1"/><stop offset="0.1" style="stop-color:#2c0078;stop-opacity:1"/><stop offset="0.1" style="stop-color:#360087;stop-opacity:1"/><stop offset="0.1" style="stop-color:#390096;stop-opacity:1"/><stop offset="0.1" style="stop-color:#4c00a8;stop-opacity:1"/><stop offset="0.1" style="stop-color:#5500bc;stop-opacity:1"/><stop offset="0.1" style="stop-color:#5200cd;stop-opacity:1"/><stop offset="0.1" style="stop-color:#6100e2;stop-opacity:1"/><stop offset="0.1" style="stop-color:#6b00f8;stop-opacity:1"/><stop offset="0.1" style="stop-color:#6e00ff;stop-opacity:1"/><stop offset="0.1" style="stop-color:#7000ff;stop-opacity:1"/><stop offset="0.2" style="stop-color:#6e00ff;stop-opacity:1"/><stop offset="0.2" style="stop-color:#6c00ff;stop-opacity:1"/><stop offset="0.2" style="stop-color:#6e00ff;stop-opacity:1"/><stop offset="0.2" style="stop-color:#7000ff;stop-opacity:1"/><stop offset="0.2" style="stop-color:#6f00ff;stop-opacity:1"/><stop offset="0.2" style="stop-color:#6c00ff;stop-opacity:1"/><stop offset="0.2" style="stop-color:#6a00ff;stop-opacity:1"/><stop offset="0.2" style="stop-color:#6700ff;stop-opacity:1"/><stop offset="0.2" style="stop-color:#6700ff;stop-opacity:1"/><stop offset="0.2" style="stop-color:#6100ff;stop-opacity:1"/><stop offset="0.2" style="stop-color:#5c00ff;stop-opacity:1"/><stop offset="0.2" style="stop-color:#5700ff;stop-opacity:1"/><stop offset="0.2" style="stop-color:#5900ff;stop-opacity:1"/><stop offset="0.2" style="stop-color:#5400ff;stop-opacity:1"/><stop offset="0.2" style="stop-color:#4e00ff;stop-opacity:1"/><stop offset="0.2" style="stop-color:#4300ff;stop-opacity:1"/><stop offset="0.2" style="stop-color:#30f;stop-opacity:1"/><stop offset="0.3" style="stop-color:#1f00ff;stop-opacity:1"/><stop offset="0.3" style="stop-color:#0019ff;stop-opacity:1"/><stop offset="0.3" style="stop-color:#003cff;stop-opacity:1"/><stop offset="0.3" style="stop-color:#0050ff;stop-opacity:1"/><stop offset="0.3" style="stop-color:#0061ff;stop-opacity:1"/><stop offset="0.3" style="stop-color:#0070ff;stop-opacity:1"/><stop offset="0.3" style="stop-color:#007fff;stop-opacity:1"/><stop offset="0.3" style="stop-color:#008dff;stop-opacity:1"/><stop offset="0.3" style="stop-color:#009dff;stop-opacity:1"/><stop offset="0.3" style="stop-color:#00a3fa;stop-opacity:1"/><stop offset="0.3" style="stop-color:#00b1f5;stop-opacity:1"/><stop offset="0.3" style="stop-color:#00b6ed;stop-opacity:1"/><stop offset="0.3" style="stop-color:#00bbe6;stop-opacity:1"/><stop offset="0.3" style="stop-color:#00c4e1;stop-opacity:1"/><stop offset="0.3" style="stop-color:#00cddd;stop-opacity:1"/><stop offset="0.3" style="stop-color:#00d6da;stop-opacity:1"/><stop offset="0.3" style="stop-color:#00dfd8;stop-opacity:1"/><stop offset="0.4" style="stop-color:#00e3d5;stop-opacity:1"/><stop offset="0.4" style="stop-color:#00ebd4;stop-opacity:1"/><stop offset="0.4" style="stop-color:#00f6d5;stop-opacity:1"/><stop offset="0.4" style="stop-color:#00fdd4;stop-opacity:1"/><stop offset="0.4" style="stop-color:#00ffcf;stop-opacity:1"/><stop offset="0.4" style="stop-color:#00ffca;stop-opacity:1"/><stop offset="0.4" style="stop-color:#00ffc4;stop-opacity:1"/><stop offset="0.4" style="stop-color:#00ffbf;stop-opacity:1"/><stop offset="0.4" style="stop-color:#00ffba;stop-opacity:1"/><stop offset="0.4" style="stop-color:#00ffb5;stop-opacity:1"/><stop offset="0.4" style="stop-color:#00ffb2;stop-opacity:1"/><stop offset="0.4" style="stop-color:#00ffad;stop-opacity:1"/><stop offset="0.4" style="stop-color:#0fa;stop-opacity:1"/><stop offset="0.4" style="stop-color:#00ffa6;stop-opacity:1"/><stop offset="0.4" style="stop-color:#00ffa4;stop-opacity:1"/><stop offset="0.4" style="stop-color:#00ffa0;stop-opacity:1"/><stop offset="0.5" style="stop-color:#00ff9c;stop-opacity:1"/><stop offset="0.5" style="stop-color:#00ff97;stop-opacity:1"/><stop offset="0.5" style="stop-color:#00ff94;stop-opacity:1"/><stop offset="0.5" style="stop-color:#00ff8e;stop-opacity:1"/><stop offset="0.5" style="stop-color:#00ff8b;stop-opacity:1"/><stop offset="0.5" style="stop-color:#00ff82;stop-opacity:1"/><stop offset="0.5" style="stop-color:#00ff7e;stop-opacity:1"/><stop offset="0.5" style="stop-color:#00ff76;stop-opacity:1"/><stop offset="0.5" style="stop-color:#00ff6a;stop-opacity:1"/><stop offset="0.5" style="stop-color:#00ff5c;stop-opacity:1"/><stop offset="0.5" style="stop-color:#00ff46;stop-opacity:1"/><stop offset="0.5" style="stop-color:#00ff24;stop-opacity:1"/><stop offset="0.5" style="stop-color:#39ff00;stop-opacity:1"/><stop offset="0.5" style="stop-color:#59ff00;stop-opacity:1"/><stop offset="0.5" style="stop-color:#73ff00;stop-opacity:1"/><stop offset="0.5" style="stop-color:#8aff00;stop-opacity:1"/><stop offset="0.5" style="stop-color:#9dff00;stop-opacity:1"/><stop offset="0.6" style="stop-color:#abff00;stop-opacity:1"/><stop offset="0.6" style="stop-color:#bbfa00;stop-opacity:1"/><stop offset="0.6" style="stop-color:#c7f600;stop-opacity:1"/><stop offset="0.6" style="stop-color:#d5f100;stop-opacity:1"/><stop offset="0.6" style="stop-color:#dfec00;stop-opacity:1"/><stop offset="0.6" style="stop-color:#eae600;stop-opacity:1"/><stop offset="0.6" style="stop-color:#f3e100;stop-opacity:1"/><stop offset="0.6" style="stop-color:#fdda00;stop-opacity:1"/><stop offset="0.6" style="stop-color:#ffce00;stop-opacity:1"/><stop offset="0.6" style="stop-color:#ffc000;stop-opacity:1"/><stop offset="0.6" style="stop-color:#ffb300;stop-opacity:1"/><stop offset="0.6" style="stop-color:#ffa800;stop-opacity:1"/><stop offset="0.6" style="stop-color:#ff9c00;stop-opacity:1"/><stop offset="0.6" style="stop-color:#ff9100;stop-opacity:1"/><stop offset="0.6" style="stop-color:#ff8700;stop-opacity:1"/><stop offset="0.6" style="stop-color:#ff7c00;stop-opacity:1"/><stop offset="0.7" style="stop-color:#ff7000;stop-opacity:1"/><stop offset="0.7" style="stop-color:#ff6a00;stop-opacity:1"/><stop offset="0.7" style="stop-color:#ff5e00;stop-opacity:1"/><stop offset="0.7" style="stop-color:#f50;stop-opacity:1"/><stop offset="0.7" style="stop-color:#ff4800;stop-opacity:1"/><stop offset="0.7" style="stop-color:#ff4100;stop-opacity:1"/><stop offset="0.7" style="stop-color:#f30;stop-opacity:1"/><stop offset="0.7" style="stop-color:#ff2c00;stop-opacity:1"/><stop offset="0.7" style="stop-color:#ff1200;stop-opacity:1"/><stop offset="0.7" style="stop-color:#ff0012;stop-opacity:1"/><stop offset="0.7" style="stop-color:#ff0028;stop-opacity:1"/><stop offset="0.7" style="stop-color:#ff002c;stop-opacity:1"/><stop offset="0.7" style="stop-color:#ff0036;stop-opacity:1"/><stop offset="0.7" style="stop-color:#ff003c;stop-opacity:1"/><stop offset="0.7" style="stop-color:#ff0041;stop-opacity:1"/><stop offset="0.7" style="stop-color:#ff0041;stop-opacity:1"/><stop offset="0.7" style="stop-color:#ff0043;stop-opacity:1"/><stop offset="0.8" style="stop-color:#ff0043;stop-opacity:1"/><stop offset="0.8" style="stop-color:#ff004c;stop-opacity:1"/><stop offset="0.8" style="stop-color:#ff0048;stop-opacity:1"/><stop offset="0.8" style="stop-color:#ff004a;stop-opacity:1"/><stop offset="0.8" style="stop-color:#f7004a;stop-opacity:1"/><stop offset="0.8" style="stop-color:#f3004e;stop-opacity:1"/><stop offset="0.8" style="stop-color:#e80046;stop-opacity:1"/><stop offset="0.8" style="stop-color:#e00046;stop-opacity:1"/><stop offset="0.8" style="stop-color:#d70043;stop-opacity:1"/><stop offset="0.8" style="stop-color:#cf003e;stop-opacity:1"/><stop offset="0.8" style="stop-color:#c90043;stop-opacity:1"/><stop offset="0.8" style="stop-color:#bf003e;stop-opacity:1"/><stop offset="0.8" style="stop-color:#b50039;stop-opacity:1"/><stop offset="0.8" style="stop-color:#af0039;stop-opacity:1"/><stop offset="0.8" style="stop-color:#a9003c;stop-opacity:1"/><stop offset="0.8" style="stop-color:#9d0036;stop-opacity:1"/><stop offset="0.8" style="stop-color:#970030;stop-opacity:1"/><stop offset="0.9" style="stop-color:#8f0030;stop-opacity:1"/><stop offset="0.9" style="stop-color:#880030;stop-opacity:1"/><stop offset="0.9" style="stop-color:#800028;stop-opacity:1"/><stop offset="0.9" style="stop-color:#760028;stop-opacity:1"/><stop offset="0.9" style="stop-color:#6e001f;stop-opacity:1"/><stop offset="0.9" style="stop-color:#640019;stop-opacity:1"/><stop offset="0.9" style="stop-color:#620024;stop-opacity:1"/><stop offset="0.9" style="stop-color:#620024;stop-opacity:1"/><stop offset="0.9" style="stop-color:#570019;stop-opacity:1"/><stop offset="0.9" style="stop-color:#4a0000;stop-opacity:1"/><stop offset="0.9" style="stop-color:#550024;stop-opacity:1"/><stop offset="0.9" style="stop-color:#460019;stop-opacity:1"/><stop offset="0.9" style="stop-color:#460019;stop-opacity:1"/><stop offset="0.9" style="stop-color:#300;stop-opacity:1"/><stop offset="0.9" style="stop-color:#300;stop-opacity:1"/><stop offset="0.9" style="stop-color:#300;stop-opacity:1"/><stop offset="1" style="stop-color:#300;stop-opacity:1"/><stop offset="1" style="stop-color:#300019;stop-opacity:1"/><stop offset="1" style="stop-color:#300019;stop-opacity:1"/><stop offset="1" style="stop-color:#300019;stop-opacity:1"/><stop offset="1" style="stop-color:#300019;stop-opacity:1"/><stop offset="1" style="stop-color:#300019;stop-opacity:1"/><stop offset="1" style="stop-color:#300019;stop-opacity:1"/><stop offset="1" style="stop-color:#300019;stop-opacity:1"/><stop offset="1" style="stop-color:#300019;stop-opacity:1"/></linearGradient><linearGradient xlink:href="#a" id="b" x1="-200.5" x2="556.6" y1="383.9" y2="371.7" gradientTransform="matrix(.21862 0 0 .38954 -304.658 -224.767)" gradientUnits="userSpaceOnUse"/></defs><path d="M734 10.6H-13.5v432.5l37.3-.2" class="fil0" style="fill:none"/><path d="m81.2 19.2 9.1 21.1-.5-.3-.5-.2-.5-.3-.7-.2-.6-.3-.5-.2h-.5l-.7-.3h-.5l-.5-.2h-1.3L83 38h-3.3l-.8.3h-1l-.5.2h-.8l-.5.3h-.5l-.5.2-.7.3-.5.2-.6.3-.5.2-.7.3z" class="fil1" style="fill:#131516"/><path d="M82.7 29.7v-1.5h-3v1.5z" class="fil1" style="fill:#131516"/><path d="M76.6 277.5h3m-3-42.5h3m-3-42.4h3m-3-42.5h3m-3-42.5h3m-3-42.3h3" class="fil0 str3" style="fill:none;stroke:#131516;stroke-width:2.00067735;stroke-linecap:square;stroke-linejoin:round;stroke-miterlimit:4;stroke-dasharray:none"/><path d="M80.8 148.2h-.4l-.1.3H80v.3h-.2v.5h-.2v.7l.2.3v.2l.2.3.2.2h.1l.2.3h.2z" class="fil1" style="fill:#131516"/><path d="M575.8 148.2h-495v3h495z" class="fil1" style="fill:#131516"/><path d="m580.2 150.5-21.2 9.1.3-.5.3-.5.2-.5.3-.8.2-.5.3-.5v-.5l.2-.7v-.6l.3-.5v-1.2l.2-.5V149l-.2-.8v-1l-.3-.5v-.8l-.2-.5v-.5l-.3-.5-.2-.8-.3-.5-.2-.5-.3-.5-.3-.7z" class="fil1" style="fill:#131516;fill-rule:evenodd"/><path d="M148 154.3v-4.5m63.7 4.5v-4.5m63.6 4.5v-4.5m63.9 4.5v-4.5m63.7 4.5v-4.5m63.6 4.5v-4.5m63.7 4.5v-4.5" class="fil0 str3" style="fill:none;stroke:#131516;stroke-width:2.00067735;stroke-linecap:square;stroke-linejoin:round;stroke-miterlimit:4;stroke-dasharray:none"/><path d="m81.8 150 335.7.3 152-77" style="fill:none;stroke:red;stroke-width:3.0010159;stroke-linecap:butt;stroke-linejoin:miter;stroke-miterlimit:4;stroke-opacity:1;stroke-dasharray:none;stroke-dashoffset:0"/><g style="font-size:10.11141872px;font-style:normal;font-weight:400;line-height:125%;letter-spacing:0;word-spacing:0;fill:#000;fill-opacity:1;stroke:none;font-family:Sans"><path d="M499.7 138.3h-16.4v-2.1l12.5-16.3h-11.5v-2.3H499v2L486.5 136h13.2zm13.1 0v-10l-.2-2q-.1-.8-.6-1.3l-1-.6a5 5 0 0 0-3.2 0q-.8.4-1.3 1t-.8 1.6-.3 2v9.3h-2.7v-15.9h2.4v.4l.2 2.3.8-1.2 1.1-1 1.4-.6 1.8-.2q1.3 0 2.3.3.9.4 1.5 1t1 1.8l.2 2.5v10.6z" style="font-size:30.01015854px;font-variant:normal;font-stretch:normal;fill:red;font-family:Liberation Sans;-inkscape-font-specification:Liberation Sans" transform="matrix(1.00377 0 0 .99624 40.18 -75.403)"/></g><path d="M76.9 320.8h3M77.3 362h3" class="fil0 str3" style="fill:none;stroke:#131516;stroke-width:2.00067735;stroke-linecap:square;stroke-linejoin:round;stroke-miterlimit:4;stroke-dasharray:none"/><g style="font-size:14.00474072px;font-style:normal;font-variant:normal;font-weight:400;font-stretch:normal;text-align:start;line-height:125%;letter-spacing:0;word-spacing:0;writing-mode:lr-tb;text-anchor:start;fill:#000;fill-opacity:1;stroke:none;font-family:Liberation Sans;-inkscape-font-specification:Liberation Sans"><path d="M87.6 196.3V195l1.2-2 1.6-1.6 3-2.5 1-1.3q.3-.7.3-1.5 0-.6-.2-1a2 2 0 0 0-1.3-1.2l-1-.2-1 .2q-.5 0-.8.4l-.6.7q-.3.5-.3 1l-1.8-.1q0-.8.4-1.4l.9-1.2 1.4-.7q.8-.3 1.8-.3t1.8.2l1.4.7.8 1.2a4 4 0 0 1 0 3q0 .6-.6 1.2l-1 1-2.3 2-2 2q-.6.6-.7 1.2h7.1v1.5z" style="font-size:20.00677109px" transform="translate(55.958 -24.432)"/></g><g style="font-size:14.00474072px;font-style:normal;font-variant:normal;font-weight:400;font-stretch:normal;text-align:start;line-height:125%;letter-spacing:0;word-spacing:0;writing-mode:lr-tb;text-anchor:start;fill:#000;fill-opacity:1;stroke:none;font-family:Liberation Sans;-inkscape-font-specification:Liberation Sans"><path d="M159 193v3h-1.6v-3H151v-1.4l6.3-9.3h1.9v9.2h2v1.4zm-1.7-8.6v.2l-.6 1-3.6 5.1-.1.2-.2.3-.2.2-.1.2h4.8z" style="font-size:20.00677109px" transform="translate(55.958 -24.432)"/></g><g style="font-size:14.00474072px;font-style:normal;font-variant:normal;font-weight:400;font-stretch:normal;text-align:start;line-height:125%;letter-spacing:0;word-spacing:0;writing-mode:lr-tb;text-anchor:start;fill:#000;fill-opacity:1;stroke:none;font-family:Liberation Sans;-inkscape-font-specification:Liberation Sans"><path d="m224.2 191.7-.3 2-.8 1.4q-.6.7-1.4 1a5 5 0 0 1-2 .3q-1 0-2-.4a4 4 0 0 1-1.5-1.3q-.6-.9-1-2.2l-.2-2.8q0-1.8.3-3.2a7 7 0 0 1 1-2.4 4 4 0 0 1 3.6-1.8l1.3.1a3 3 0 0 1 2 1.4q.4.5.6 1.3l-1.7.3q-.2-.9-.8-1.3t-1.4-.4a3 3 0 0 0-2.3 1.4q-.4.6-.7 1.7l-.2 2.4q.5-.8 1.4-1.4.8-.4 2-.4 1 0 1.7.3t1.3.8l.8 1.4zm-1.8.1q0-.7-.2-1.3-.1-.5-.5-1l-.9-.6-1.2-.2-1 .2q-.5 0-.8.4l-.7.8-.2 1.3q0 .8.2 1.4l.5 1.2q.4.5 1 .7.5.3 1.1.3t1.1-.2.9-.6l.5-1q.3-.6.2-1.4" style="font-size:20.00677109px" transform="translate(55.958 -24.432)"/></g><g style="font-size:14.00474072px;font-style:normal;font-variant:normal;font-weight:400;font-stretch:normal;text-align:start;line-height:125%;letter-spacing:0;word-spacing:0;writing-mode:lr-tb;text-anchor:start;fill:#000;fill-opacity:1;stroke:none;font-family:Liberation Sans;-inkscape-font-specification:Liberation Sans"><path d="M288.9 192.4q0 .9-.3 1.6t-.9 1.3l-1.4.8q-.9.3-2.1.3t-2.1-.3q-.8-.2-1.5-.8-.6-.5-.8-1.3a5 5 0 0 1 0-3 3 3 0 0 1 1.4-1.6q.5-.3 1-.3l-1-.5a3 3 0 0 1-1.4-2.8q0-.8.3-1.4.3-.7.8-1 .6-.6 1.4-.8t1.9-.3l1.9.3 1.4.7q.5.5.8 1.2a4 4 0 0 1-.4 3.4 3 3 0 0 1-1.8 1v.1l1.1.4.9.7.6 1zm-2.2-6.5-.1-1-.5-.7-.7-.4-1.2-.2-1.2.2-.8.4-.5.8v1.8a2 2 0 0 0 1.2 1.3q.4.3 1.3.2t1.3-.2.8-.6q.3-.3.3-.7zm.4 6.3-.2-1-.5-.7q-.3-.5-.9-.6-.5-.2-1.3-.2t-1.4.2-.8.6q-.4.3-.5.8l-.2 1q0 .6.2 1.1 0 .6.5 1 .3.3.9.5.5.2 1.3.2t1.4-.2.8-.6.5-.9z" style="font-size:20.00677109px" transform="translate(55.958 -24.432)"/></g><g style="font-size:14.00474072px;font-style:normal;font-variant:normal;font-weight:400;font-stretch:normal;text-align:start;line-height:125%;letter-spacing:0;word-spacing:0;writing-mode:lr-tb;text-anchor:start;fill:#000;fill-opacity:1;stroke:none;font-family:Liberation Sans;-inkscape-font-specification:Liberation Sans"><path d="M401.2 196.3v-1.5h3.5v-10.6l-3.1 2.2v-1.7l3.2-2.2h1.7v12.3h3.3v1.5zm10.6 0V195q.5-1.2 1.2-2l1.5-1.6 3-2.5 1-1.3q.4-.7.4-1.5 0-.6-.2-1a2 2 0 0 0-1.3-1.2l-1-.2q-.6 0-1 .2-.5 0-.8.4l-.6.7q-.3.5-.3 1l-1.8-.1q0-.8.4-1.4l.9-1.2q.5-.4 1.3-.7t1.9-.3 1.8.2l1.4.7.8 1.2a4 4 0 0 1 0 3l-.6 1.2-1 1-2.3 2-2.1 2-.7 1.2h7.2v1.5z" style="font-size:20.00677109px" transform="translate(55.958 -24.432)"/></g><g style="font-size:14.00474072px;font-style:normal;font-variant:normal;font-weight:400;font-stretch:normal;text-align:start;line-height:125%;letter-spacing:0;word-spacing:0;writing-mode:lr-tb;text-anchor:start;fill:#000;fill-opacity:1;stroke:none;font-family:Liberation Sans;-inkscape-font-specification:Liberation Sans"><path d="M18 174.7q0 2-.3 3.4-.4 1.4-1 2.1-.7.9-1.6 1.2a5 5 0 0 1-3.7 0q-.9-.3-1.5-1.2-.7-.7-1-2.1t-.4-3.4.3-3.4a6 6 0 0 1 1-2.2q.7-.9 1.6-1.1a5 5 0 0 1 3.7 0q.9.3 1.6 1a6 6 0 0 1 1 2.3q.4 1.3.4 3.4m-1.8 0L16 172l-.6-1.8q-.4-.6-1-.9-.4-.2-1.2-.2t-1.3.2q-.6.3-1 1-.3.6-.5 1.7a16 16 0 0 0 .5 7.1q.4.7 1 1t1.3.3l1.2-.3q.6-.3 1-1 .3-.6.5-1.7.3-1 .3-2.7" style="font-size:20.00677109px" transform="translate(55.958 -24.432)"/></g><g style="font-size:14.00474072px;font-style:normal;font-variant:normal;font-weight:400;font-stretch:normal;text-align:start;line-height:125%;letter-spacing:0;word-spacing:0;writing-mode:lr-tb;text-anchor:start;fill:#000;fill-opacity:1;stroke:none;font-family:Liberation Sans;-inkscape-font-specification:Liberation Sans"><path d="M2.1 219.2v-1.5H7v1.5zm7.3 4.5v-1.4H13v-10.6l-3 2.2v-1.7l3-2.2h1.6v12.3H18v1.4z" style="font-size:20.00677109px" transform="translate(55.958 -24.432)"/></g><g style="font-size:14.00474072px;font-style:normal;font-variant:normal;font-weight:400;font-stretch:normal;text-align:start;line-height:125%;letter-spacing:0;word-spacing:0;writing-mode:lr-tb;text-anchor:start;fill:#000;fill-opacity:1;stroke:none;font-family:Liberation Sans;-inkscape-font-specification:Liberation Sans"><path d="M2.1 261.5v-1.6h5v1.6zM9 266v-1.2q.5-1.2 1.1-2 .7-1 1.6-1.6l3-2.6 1-1.2.3-1.5-.1-1a2 2 0 0 0-1.4-1.3l-1-.1-1 .1-.8.5-.6.7-.3 1-1.8-.2q0-.8.4-1.4.3-.6 1-1.1.4-.5 1.3-.8t1.8-.3 1.8.3 1.4.7.8 1.2a4 4 0 0 1 0 3q0 .5-.6 1.1l-1 1.1-2.3 2-2 2q-.6.5-.7 1.1H18v1.5z" style="font-size:20.00677109px" transform="translate(55.958 -24.432)"/></g><g style="font-size:14.00474072px;font-style:normal;font-variant:normal;font-weight:400;font-stretch:normal;text-align:start;line-height:125%;letter-spacing:0;word-spacing:0;writing-mode:lr-tb;text-anchor:start;fill:#000;fill-opacity:1;stroke:none;font-family:Liberation Sans;-inkscape-font-specification:Liberation Sans"><path d="M2 303.5V302h5v1.5zm16 .8q0 .9-.3 1.6t-.9 1.3l-1.4.8q-1 .3-2 .3-1.3 0-2.2-.4-.8-.3-1.4-.8l-.9-1.2q-.3-.7-.3-1.4l1.8-.1.3 1a2 2 0 0 0 1.4 1.2l1.3.2a3 3 0 0 0 2-.7q.9-.6.8-1.9 0-.8-.3-1.2-.3-.5-.9-.7l-1-.4h-2.1v-1.6h1l1-.1 1-.4.7-.7q.3-.4.3-1.2 0-1-.7-1.7t-2-.7q-1 0-1.8.6t-.8 1.7l-1.8-.1q0-1 .5-1.6t1-1.1l1.4-.7 1.6-.2 2 .3q.8.2 1.3.8.6.5.8 1.1a4 4 0 0 1 .1 2.6l-.5 1-1 .6-1.2.5q.8 0 1.4.4l1 .7q.4.4.6 1z" style="font-size:20.00677109px" transform="translate(55.958 -24.432)"/></g><g style="font-size:14.00474072px;font-style:normal;font-variant:normal;font-weight:400;font-stretch:normal;text-align:start;line-height:125%;letter-spacing:0;word-spacing:0;writing-mode:lr-tb;text-anchor:start;fill:#000;fill-opacity:1;stroke:none;font-family:Liberation Sans;-inkscape-font-specification:Liberation Sans"><path d="M1.7 345.7V344h4.9v1.6zm14.4 1.3v3.2h-1.6v-3.1H8v-1.4l6.3-9.3H16v9.3h2v1.4zm-1.6-8.7-.1.2-.6 1-3.5 5.2-.2.2-.2.2-.2.3-.1.2h4.9z" style="font-size:20.00677109px" transform="translate(55.958 -24.432)"/></g><g style="font-size:14.00474072px;font-style:normal;font-variant:normal;font-weight:400;font-stretch:normal;text-align:start;line-height:125%;letter-spacing:0;word-spacing:0;writing-mode:lr-tb;text-anchor:start;fill:#000;fill-opacity:1;stroke:none;font-family:Liberation Sans;-inkscape-font-specification:Liberation Sans"><path d="M2 387.7v-1.5h4.9v1.5zm16 .1q0 1-.3 1.9l-.9 1.5q-.7.6-1.5 1l-2.1.3q-1.2 0-2-.3t-1.3-.7-.9-1l-.4-1.3 1.7-.2.3.7.6.7.8.4q.4.3 1.2.2t1.2-.2q.6-.2 1-.6t.6-1a4 4 0 0 0 0-2.6 3 3 0 0 0-1.5-1.5l-1.3-.2-1.5.3q-.3 0-.5.3l-.5.4H9l.4-7.4h7.9v1.5H11l-.2 4.4 1.1-.7 1.7-.2q1 0 1.9.3a4 4 0 0 1 2.2 2.2q.3.8.4 1.8" style="font-size:20.00677109px" transform="translate(55.958 -24.432)"/></g><g style="font-size:14.00474072px;font-style:normal;font-variant:normal;font-weight:400;font-stretch:normal;text-align:start;line-height:125%;letter-spacing:0;word-spacing:0;writing-mode:lr-tb;text-anchor:start;fill:#000;fill-opacity:1;stroke:none;font-family:Liberation Sans;-inkscape-font-specification:Liberation Sans"><path d="M9.4 139.4V138H13v-10.5l-3 2.2V128l3.2-2.2h1.6V138h3.4v1.5z" style="font-size:20.00677109px" transform="translate(55.958 -24.432)"/></g><g style="font-size:14.00474072px;font-style:normal;font-variant:normal;font-weight:400;font-stretch:normal;text-align:start;line-height:125%;letter-spacing:0;word-spacing:0;writing-mode:lr-tb;text-anchor:start;fill:#000;fill-opacity:1;stroke:none;font-family:Liberation Sans;-inkscape-font-specification:Liberation Sans"><path d="M9 97.4v-1.2q.5-1.2 1.1-2 .7-1 1.6-1.6l3-2.6 1-1.2.3-1.5-.1-1a2 2 0 0 0-1.4-1.3l-1-.1-1 .1-.8.5-.6.7-.3 1L9 87q0-.8.4-1.4.3-.6 1-1.1.4-.5 1.3-.8t1.8-.3 1.8.3 1.4.7.8 1.2a4 4 0 0 1 0 3q0 .5-.6 1.1l-1 1.1-2.3 2-2 2q-.6.6-.7 1.1H18v1.5z" style="font-size:20.00677109px" transform="translate(55.958 -24.432)"/></g><g style="font-size:32px;font-style:normal;font-weight:400;line-height:125%;letter-spacing:0;word-spacing:0;fill:#000;fill-opacity:1;stroke:none;font-family:Sans"><path d="M328.7 34.7v-2.2q1.2-1.3 3-1.3l1.3.2 2 .7 1.2.5h.7q.8.1 1.5-.4.8-.4 1.3-1v2.3l-1.4.9q-.7.3-1.6.3l-1.2-.2q-.6 0-1.9-.7t-2-.6l-1.4.3zm0 3.9v-2.2q1.2-1.3 3-1.3l1.3.2 2 .7 1.2.4.7.1q.8 0 1.5-.4.8-.4 1.3-1v2.2q-.8.7-1.4 1-.7.3-1.6.3l-1.2-.2q-.6 0-1.9-.7t-2-.6l-1.4.3zm25.8 4h-2V30.3q-.6.7-1.7 1.3l-2 1v-1.8q1.5-.8 2.8-1.9t1.7-2h1.2zm5-7.7q0-2.9.6-4.5t1.7-2.7q1.1-.9 2.8-.9 1.3 0 2.2.5t1.6 1.5 1 2.3q.3 1.5.4 3.8 0 2.7-.6 4.4t-1.7 2.7-2.9.9q-2.2 0-3.6-1.6-1.5-2-1.5-6.4m2 0q0 3.9.9 5.1.9 1.3 2.2 1.3T367 40t.9-5.1-1-5.2-2.2-1.3-2.1 1.1q-1 1.5-1 5.4m11.2 7.7v-2.2h2.2v2.2zm11.2 0V39h-6.8v-2l7.2-10.2h1.6V37h2.1v1.8H386v3.7zm0-5.5V30l-4.9 7z" style="font-size:22px" transform="translate(53.068 78.815)scale(1.00034)"/></g><g style="font-size:32px;font-style:normal;font-weight:400;line-height:125%;letter-spacing:0;word-spacing:0;fill:#000;fill-opacity:1;stroke:none;font-family:Sans"><path d="M328.7 34.7v-2.2q1.2-1.3 3-1.3l1.3.2 2 .7 1.2.5h.7q.8.1 1.5-.4.8-.4 1.3-1v2.3l-1.4.9q-.7.3-1.6.3l-1.2-.2q-.6 0-1.9-.7t-2-.6l-1.4.3zm0 3.9v-2.2q1.2-1.3 3-1.3l1.3.2 2 .7 1.2.4.7.1q.8 0 1.5-.4.8-.4 1.3-1v2.2q-.8.7-1.4 1-.7.3-1.6.3l-1.2-.2q-.6 0-1.9-.7t-2-.6l-1.4.3zM347 38v-2h6v2zm13.8 4.6V39H354v-2l7.1-10.2h1.6V37h2.2v1.8h-2.2v3.7zm0-5.5V30l-5 7zm7.2 5.5v-2.2h2.1v2.2zm5-4.1 1.9-.3q.3 1.6 1.1 2.4t2 .7q1.3 0 2.3-1 1-.8 1-2.3a3 3 0 0 0-3.2-3l-1.3.2.2-1.7h.3a4 4 0 0 0 2.2-.6q1-.7 1-2 0-1-.7-1.8-.7-.7-1.9-.7t-1.9.7-1 2.1l-1.9-.3a5 5 0 0 1 1.7-3q1.2-1 3-1 1.4 0 2.5.5a4 4 0 0 1 2.2 3.5q0 1-.6 1.9t-1.6 1.3q1.5.4 2.2 1.3t.8 2.6q0 2-1.5 3.5-1.5 1.4-3.8 1.4a5 5 0 0 1-5-4.4" style="font-size:22px" transform="translate(-234.344 316.038)scale(1.00034)"/></g><path d="M268 95.7a4.4 4.4 0 1 1-8.8 0 4.4 4.4 0 1 1 8.9 0" style="fill:#000;fill-opacity:1;fill-rule:evenodd;stroke:none" transform="translate(154.134 54.012)scale(1.00034)"/><path d="M268 95.7a4.4 4.4 0 1 1-8.8 0 4.4 4.4 0 1 1 8.9 0" style="fill:#000;fill-opacity:1;fill-rule:evenodd;stroke:none" transform="translate(-182.638 239.995)scale(1.00034)"/><path d="M82.7 377V36h-3v341z" class="fil1" style="fill:#131516"/><g style="font-size:32px;font-style:normal;font-weight:400;line-height:125%;letter-spacing:0;word-spacing:0;fill:#000;fill-opacity:1;stroke:none;font-family:Sans"><path d="m442.8 228.4.1.3a15 15 0 0 0-3.6 3.3 10 10 0 0 0-1.8 3.5q-.6 2-.6 4 0 1.7.5 3.8.5 1.7 1.8 3.4 1.2 1.6 3.5 3.4v.3q-2.7-1.2-4.2-3.2-1.5-1.8-2.2-3.8a14 14 0 0 1 0-8q.7-2 2.2-3.7 1.7-2.1 4.3-3.3m13.9 18.3h-2.1v-13.5l-2 1.5-2.3 1v-2q1.8-.8 3.1-2a8 8 0 0 0 1.9-2.3h1.4zm5.3-8.5q0-3 .7-4.9.6-1.8 1.9-2.9t3-1q1.5 0 2.5.6t1.7 1.6 1 2.5q.5 1.5.5 4.1 0 3-.6 4.9-.6 1.8-1.9 2.9t-3.1 1q-2.5 0-4-1.8-1.6-2.2-1.6-7m2.2 0q0 4.2 1 5.6t2.5 1.4 2.4-1.4q1-1.5 1-5.6 0-4.2-1-5.6-1-1.5-2.4-1.4-1.5 0-2.4 1.2-1 1.5-1 5.8" style="font-size:24px" transform="translate(41.79 -10.533)scale(1.00034)"/><path d="M480.2 237H479v-8.7l-1.3 1-1.5.7v-1.3q1.2-.6 2-1.3t1.3-1.5h.8zm8 0v-2.6h-4.9v-1.3l5.1-7.2h1.1v7.2h1.5v1.3h-1.5v2.7zm0-3.9v-5l-3.5 5z" style="font-size:65.00091553%;baseline-shift:super" transform="translate(41.79 -10.533)scale(1.00034)"/><path d="M500.4 246.7v-17.2h2.3v7h8.9v-7h2.3v17.2h-2.3v-8.1h-9v8zm15.9 0V245l7.9-9.1h-7.4v-1.7h10.1v1.4l-6.7 8-1.3 1.4 2.6-.1h5.8v1.8zm16.3-18.3q2.6 1.3 4.3 3.3a12 12 0 0 1 2.2 11.7q-.7 2-2.2 3.8a13 13 0 0 1-4.3 3.2l-.1-.3a17 17 0 0 0 3.6-3.4q1.5-1.7 1.9-3.4.6-2.1.6-3.9a15 15 0 0 0-.6-4q-.5-1.6-1.9-3.4-1.2-1.6-3.6-3.3z" style="font-size:24px" transform="translate(41.79 -10.533)scale(1.00034)"/></g><path d="M-349-146.3h140.5v125.8H-349z" style="fill:url(#b);fill-opacity:1;fill-rule:evenodd;stroke:none" transform="scale(-1)"/><path d="M-350.1-147.4h10.6v132.1h-10.6zm138.4.6h6.4V-8.9h-6.4z" style="fill:#fff;fill-opacity:1;fill-rule:evenodd;stroke:none" transform="scale(-1)"/><path d="M492 177.4q2.1.3 3.2.7.7.3.7.8t-.7.7l-1 .3v10.2h9l1.6-1.7 2.5 1.8q.5.2.5.5 0 1-.9 1h-9.7v11.1q0 .3.2.5l.6.3a30 30 0 0 0 6.7-.3l.3-.7q.3-.9.6-4.3l1.2.2v4.4l.7.5q.4.2.4.7l-.2.5q-.4.4-1 .6-.9.3-2.3.3a37 37 0 0 1-8-.2q-.6-.2-1-.8l-.3-.9v-12h-5q0 3.1-.5 5-.3 2.2-1.4 3.7-1 1.6-2.2 2.7l-3.2 2.2q-1.5.7-3.9 1.5l-.5-1a42 42 0 0 0 5.5-3l2-2q.7-1 1.2-2.3t.6-2.8l.2-4h-5.5l-3.2.1-.7-2q1.8.4 4 .4h9.5v-9.9zm-8.7 3.3q1.5 1 2.4 2a11 11 0 0 1 2.6 3.3l.3 1.5-.2 1a1 1 0 0 1-.8.4l-.8-.3q-.3-.3-.5-1.2l-.8-2q-.4-1-1.2-2l-1.6-2zm18.3-.8q2 .5 3.1 1.1.4.3.4.6 0 .4-.7.7l-1.2.2-1 1.5a18 18 0 0 1-2.8 3.6l-2 1.5-.9-.7 2-2a25 25 0 0 0 2.7-5q.3-.4.4-1.5m21.5-1.2q1.6.3 4 .3h9l1.3-1.4q1.4.7 2.4 1.5.4.3.4.6 0 1-.7 1h-7a11 11 0 0 1-1.8 3.1h5l1.1-1.3q1.5.8 2 1.4l.3.6q0 .5-1 1.1v13.2q0 .6-.5 1l-.8.2q-1 0-1-.6v-14h-8.4v14.2q0 .6-1 .7l-.8-.2q-.5-.4-.5-1l.1-1.5q.2-.6.2-3V185l-.3-2.4 2.4 1.3h1.8l.6-2 .4-1.2h-6.5zm7 8.2q2 .1 3 .6.7 0 .7.7 0 .4-.6.7l-.6.4v3.7q0 3-.5 4.7a10 10 0 0 1-3.6 5.5q-1.7 1.3-3.2 2-2 1-4.6 1.3l-.6-1q3.5-1 5-2a12 12 0 0 0 2.6-2q1-1 1.7-2.5.5-1 .7-2.7.3-1.6.3-3.3v-.7q0-3-.2-5.4m2.6 12.6a22 22 0 0 1 5.2 3.1l1.1 1 .7 1.4q0 1.3-1 1.3-.4 0-.7-.2l-1.2-1.4a16 16 0 0 0-4.8-4.5zm-15.5-22.3q2.2.3 3.4.7.6.3.6.7 0 .6-.6.7l-1 .3v2.7h1.4l1.3-1.4q1.4.8 2.1 1.5.4.2.4.5 0 .8-.7.8h-4.6v4.4h2l1.3-1.3 2 1.4q.6.3.5.6 0 1-.7.8h-5.3v7.5q0 1.2-1.2 1.2t-1-.8v-7.9h-2.4l-3 .1-.9-2q1.5.4 3 .4V183q0-1.6-.3-2.8l2.8.6q.5.3.5.6 0 .5-.4.6l-.5.3v6h1.4zm-3 13.4q1.7.6 2.5 1.2.4.2.4.5 0 .4-.6.6l-.7.2a44 44 0 0 1-2.7 5.3l-1.5 1.8-.8-.7a51 51 0 0 0 3-6.8zm8.1.8q1.6.4 2.7 1.2.5.4.5.7 0 .8-1.7.8l-1.8 4q-.7 1.6-1.7 2.7a13 13 0 0 1-2.8 2.5q-1 1-2.3 1.7-1.6 1-4 1.5l-.4-1a15 15 0 0 0 8.8-7q1-1.6 1.5-3.3 1-1.7 1.2-3.8m33.2-14.5 2.1 1.7.6.7.1.7q0 .6-.2 1.1v-.3h9l1.6-1.7 2.5 1.8q.3.2.4.6 0 .8-.9.8h-14l1.2.2q.3.3.3.5 0 .4-.6.7l-.8.2-2 2.3-1 1q-.5.4-.8 0h1.3l3.2-.2a7 7 0 0 0 1.5-2.5q1.7.6 2.5 1.2.4.3.4.6t-.6.5-.8.2a18 18 0 0 1-3.7 3.5l-2.3 1.5a2 2 0 0 1-1.5.4l5-.3h3.2l-1.8-2.4.4-.7q2 1 3 2.1l1.2 1.7.3 1.3q0 1.2-1 1.2l-.6-.3-.5-.9-.4-1-2.8.5-5.8.8q-.3 1-.8 1.1-.4 0-1.8-3h.7a31 31 0 0 0 5-4q.2-.3.3 0-1.5.4-3.4.6-.5 1-.9 1-.3 0-.6-.5l-.6-2.3h.5a16 16 0 0 0 3.7-5h-11.9l-.7-1.9q1.7.4 4 .4h9.8q0 .2 0 0l-.5-1-1.3-2.3zm-10.6 6.4a15 15 0 0 1 4 2.8 3 3 0 0 1 .7 1.5q0 1.3-1.2 1.3h-.5l-.5-.8a10 10 0 0 0-1.7-2.6l-1.4-1.4zm5.7 6 .3 1a31 31 0 0 1-5.4 4q0 1.5-.6 1.5-.4 0-2.4-2.8a21 21 0 0 0 5.2-2.2zm18.4-3.5-1.3 1a19 19 0 0 1-3.6 1.7l-.6-.7 2.8-2.3 1-1 .7-1.4q2.8 1.6 2.8 2.2t-1 .6zm-4.6 3.4a22 22 0 0 1 6 3.7l.3.6.2.6q0 1.4-1 1.4-.4 0-.7-.2l-1-1.2-1.8-2q-.9-.9-2.7-2zm-22.4 8.6q1.6.4 3.8.4H556v-4q2 .1 3 .7.4.2.4.7t-.5.6l-.7.4v1.6h9.5l1.7-1.8 2.6 1.8q.4.3.5.7 0 .8-.9.8h-13.4v6.5q0 1-1.2 1t-1-1v-6.5h-10l-3.2.1zM21.2 227l1.3-2.2v-14.4l-1.3-1q.8-1.5 1.4-2 .3-.4.6-.4.5 0 1.1 1h6.2q.5 0 1 .5l.1.9q0 .9-.7.9H24v14.5h7q.6 0 .6 1l-.2.9q-.4.3-1 .4H29q-.7-.3-3-.3h-2.4zm4.1-2.7q.4-1.8.4-4v-5.5l-1.3-1.5 1.5-2q.1-.5.5-.5.8 0 .8.8v8.8l.1 3.2zm3.4 0q.3-1.8.3-4v-5.5l-1.3-1.5 1.4-2q.3-.5.6-.5 1 0 .8.8v8.8q0 2 .2 3.2zm3.5 8q.4-1.6.4-3.8v-21.7l-1.7-1.5 1.8-2.6q.2-.4.6-.4.8 0 .8.8v15.8h14.3l1-.1q1.2 0 1.2 1.3 0 1-.8 1h-4.6l1 2.3 1.4 5.9q1.2.3 1.2.8t-3 1.8l-.4-3.2H34.1v-.2l.1 3zm12.8-5.8-1.3-5.4H42v5.4zm-4.6 0V221H38v5.4zm-3.9 0V221h-2.4v5.4zm-.7-9 .2-3.6V208l-1.2-1.4 1.6-2.1q.3-.4.7-.4t.7.7l.5 1q3 1 4.4 2t2.2 1.7a18 18 0 0 0 3-7.3h1q.1 1.5 1.1 2-.9 2.5-1.7 4-.9 1.7-1.9 2.8l1 1 1.6 2.6q.7 1.5 1.3 3.6l-1 .3q-1-2.3-1.7-3.2l-2.3-3.1q-.6.7-1.5 1.4-1.7 1.2-3.5 1.9-1.6.7-2.8.9l.1.6zm1.7-2.4q1.2-.3 2.5-1.1a15 15 0 0 0 4-3h-.2l-2.8-1.5q-1.5-1-3.5-1.4zm-8-15.3q.4-1.6.4-4v-8.6a33 33 0 0 0-8.7 0q0-2 .3-3.2 0-.6.6-.7t.8.7l.4.7q4.1 0 6.6.5v-9.6l-2-1.8 2-2.7q.3-.4.7-.4.8 0 .8.8v12.9a44 44 0 0 0 8.8-4.2 22 22 0 0 0 5.8-6.4 11 11 0 0 0 1.5-3.3h1q0 2 1.2 2.6a15 15 0 0 1-2.9 4.2 27 27 0 0 1-9.3 6.6q-2.9 1.2-6 2v-.5q2.5.5 5.1 1.3 2.7 1 4.6 2.3 2.6 1.6 4.4 3.7 2.2 2.4 4.7 6.8l-1 .5q-1.9-3-3.5-4.8a26 26 0 0 0-8-6 24 24 0 0 0-6.4-2v8.7l.1 3zM25 166.7q.2-1.6.2-3.8V158l-1.5-1.4 1.6-2.3q.3-.4.6-.4 1 0 .8.6v8.3q0 2 .2 3zm8 1.4q.2-1.6.2-4v-7.3l-1.7-1.6 1.8-2.5q.2-.3.6-.3.8 0 .8.8v6.8a70 70 0 0 1 10 5.6l-1.2-6.2-1-3.6-1.3.6-2.2 1.3-.7-.7 2.2-2 1.8-1.1 1.5-.8 1.3-.2 1 .2q.5.4.5 1l-.4.6q-.2.3-1 .4-1 0-1.6.3.8 1.5 1.3 3l2 6.4q1 .4 1 .7 0 .6-3 1.9v-.5a93 93 0 0 0-10.2-4.5v5zm-5.3-14.3.2-3.8v-1.6h-6.7q0-1.8.3-2.7.2-.7.7-.7.6 0 .8.6l.3.6H28v-4.3l-1-1.2q.5-1.2 1-1.8.4-.4.7-.4.4 0 1.3 1a196 196 0 0 1 16.3 1.3l2 .8q.6.4 1 1t.8 2.4l-1 .4q-.3.3-.4.9-.3.5-.6 2.8l-1.3-.1q.7-3.4.7-4.3l-.2-.7q0-.3-.7-.6-.6-.4-1.8-.7l-5.3-.6-10-.4v4.6l4.5.2a34 34 0 0 1 10 2.5 13 13 0 0 1 3.5 2.6q1.8 1.5 3 3.8l-1 .6a15 15 0 0 0-6.6-5.3q-1.5-.8-4-1.3-2-.5-4.9-.7-2-.3-4.5-.3v1.6l.1 3.2zm-6.6-24.1q.4-1.8 1-3 .4-.4.6-.4.5 0 .7.7l.3 1.2 1.5 1a22 22 0 0 1 3.2 3q.3.4.1.7l-.2-2.7-.5-5.7q-.9.6-2 2l-.8-.8a15 15 0 0 1 3.7-4.3l.7-.4h.6q1.2 0 1.2 1l-.2.5-1.2.7-.9.5q1 4 1.7 9.4 1.3.7 1.3 1t-.5.7l-2.8.8v-1l-1.5-1.4a23 23 0 0 0-4.5-3zm10.3 4 1-2.3V125l-1.3-1q.8-1.5 1.4-2l.6-.3q.4 0 1.2 1.2h13q1 0 1.7.5.6.3 1 1.1.3.7.3 1.5-1 0-1.3.3l-.5.7q-.3.6-.4 2H47a17 17 0 0 0 .4-4h-4.6l.7 1 1 2.1.5 1.8q1.2.4 1.2.8t-2.2 1l1.1.2 2.2.6 1.7 1q.7.5 1.6 1.6l-.5.7-2.8-1.4a19 19 0 0 0-4.6-.8h-3.9zm11.5-2a41 41 0 0 0-1.7-6.8H40q0-.3 0 0v.8a36 36 0 0 0-1.9 5.6h.5zm-6.2-.4a26 26 0 0 1 .8-5.6q.4-1 .7-.8H34v6.4zm-12.2-20.2q.8-1.3 1.6-2.2.2-.3.5-.3 1 0 .8.6v9.3h3.2q1 0 1.2-.2l.4-.4.3-1.3a18 18 0 0 0 0-5q0-.9-.3-1.5L32 109q0-.6.3-1t1-.4q.3 0 .4.2.2.1.3.5l.3 1.8a43 43 0 0 1-.3 8.7q-.2.7-.5 1-.4.6-1 .8l-1.5.1h-9.8l.6-2.8q.3-.4.7-.4t.7.5l.2.6H26v-6zm14-.2 1.5-2.3q.3-.4.6-.4.8 0 .8.7v9.3h5.8l.1-.2.2-.6.1-2.2v-2l-.2-3q0-.4-.2-.5l-.5-.3-3.6-.6.4-1.2H47q.4-1 1.2-1l.6.2.5 1 .3 1.5.1 4v1.8q0 2-.2 2.8 0 .8-.4 1.4-.3.5-.8.7l-.8.1h-9.9l-2 .4q.2-2 .5-3.2.3-.6.7-.5.5 0 .7.5l.4.8H40v-5.9zM21 79.5l.7-.3a21 21 0 0 0 8.5 7.1 22 22 0 0 0 10.5 0q2.1-.4 4.3-2.2 2.1-1.5 4.6-4.7l.8.3a14 14 0 0 1-4.3 6 17 17 0 0 1-5.2 3 19 19 0 0 1-10.6 0q-2.7-1-5-3-2.6-2.4-4.4-6.2m19.3-18.4.7-4.5a7 7 0 0 1 3.7 2.7 8 8 0 0 1 1.3 4.5q0 4.4-2.9 6.5a10 10 0 0 1-5.7 1.6q-4 0-6.5-2.2a7 7 0 0 1-2.3-5.4q0-3.7 2.5-5.9 2.3-2 7.5-2v11q2 0 3-1t1-2.6q0-1-.5-1.7-.6-.8-1.8-1m-4.4-.3q-2 0-3 1a3 3 0 0 0-1 2.2 3 3 0 0 0 1.1 2.4 4 4 0 0 0 3 1zM45.5 47l-23 8.1v-5l17-5.8-17-5.6v-5l23 8.3zM21 27.4q1.7-3.9 4.4-6.2a15 15 0 0 1 10.3-3.8q2.6 0 5.3 1t5 3a16 16 0 0 1 4.4 6l-.8.2q-2.5-3.3-4.6-4.8-2-1.8-4.3-2.4-2.7-.7-5-.7-2.4 0-5 .7-2.2.6-4.5 2.4-2 1.5-4.5 4.8z" style="font-size:32px;font-style:normal;font-weight:700;line-height:125%;letter-spacing:0;word-spacing:0;fill:#000;fill-opacity:1;stroke:none;font-family:Sans;-inkscape-font-specification:Sans Bold"/></svg>