<svg xmlns="http://www.w3.org/2000/svg" viewBox="0 0 400 300"><defs><filter id="svg__github_work__f"><feGaussianBlur stdDeviation="1.22"/></filter><filter id="svg__github_work__e"><feGaussianBlur stdDeviation="2.55"/></filter><filter id="svg__github_work__r" width="1.06" height="1.25" x="-0.03" y="-0.12"><feGaussianBlur stdDeviation="1.03"/></filter><filter id="svg__github_work__g"><feGaussianBlur stdDeviation="1.92"/></filter><filter id="svg__github_work__i"><feGaussianBlur stdDeviation="2.05"/></filter><filter id="svg__github_work__h"><feGaussianBlur stdDeviation="2.01"/></filter><filter id="svg__github_work__j"><feGaussianBlur stdDeviation="2.1"/></filter><filter id="svg__github_work__k"><feGaussianBlur stdDeviation="0.69"/></filter><filter id="svg__github_work__n"><feGaussianBlur stdDeviation="2.32"/></filter><filter id="svg__github_work__m"><feGaussianBlur stdDeviation="2.25"/></filter><filter id="svg__github_work__q" width="1.34" height="1.4" x="-0.17" y="-0.2"><feGaussianBlur stdDeviation="14.76"/></filter><linearGradient id="svg__github_work__d"><stop offset="0" stop-color="#fff"/><stop offset="1" stop-color="#fff"/></linearGradient><linearGradient id="svg__github_work__c"><stop offset="0" stop-color="#efefef"/><stop offset="1" stop-color="#efefef" stop-opacity="0"/></linearGradient><linearGradient id="svg__github_work__b"><stop offset="0" stop-color="#efefef" stop-opacity="0"/><stop offset="1" stop-color="#efefef"/></linearGradient><linearGradient id="svg__github_work__a"><stop offset="0" stop-color="#fdffff"/><stop offset="1" stop-color="#f2f2f2"/></linearGradient><linearGradient id="svg__github_work__o" x1="-14.53" x2="191.67" y1="61.1" y2="61.1" gradientUnits="userSpaceOnUse" href="#svg__github_work__a" spreadMethod="pad"/><linearGradient id="svg__github_work__s" x1="369" x2="425" y1="150" y2="150" gradientTransform="translate(-24)" gradientUnits="userSpaceOnUse" href="#svg__github_work__b"/><linearGradient id="svg__github_work__t" x1="369" x2="425" y1="150" y2="150" gradientTransform="translate(-369 1)" gradientUnits="userSpaceOnUse" href="#svg__github_work__c"/><linearGradient id="svg__github_work__p" x1="-14.53" x2="191.67" y1="61.1" y2="61.1" gradientUnits="userSpaceOnUse" href="#svg__github_work__d" spreadMethod="pad"/><path id="svg__github_work__l" fill="#00abf8" d="m158.212 134.346.332-.666 77.61-9.418 1.915 3.2z"/></defs><path fill="#efefef" fill-rule="evenodd" d="M-.71-.52h403.05v302.64H-.71z"/><g fill-rule="evenodd"><path fill="red" stroke="#ffff82" stroke-width="6" d="m-.714 213.857 158.571-82.143" filter="url(#svg__github_work__e)" transform="translate(2.02 1.01)"/><path fill="#fb0031" stroke="#ff4e00" stroke-width="2" d="m-.714 213.857 158.571-82.143" filter="url(#svg__github_work__f)" opacity="0.08" transform="translate(2.02 1.01)"/></g><g fill-rule="evenodd" opacity="0.64"><path fill="red" d="m226.102 120.318 4.609-2.553 189.19 49.59-2.897 11.778z" filter="url(#svg__github_work__g)" opacity="1"/><path fill="#ff8500" d="m224.524 116.815 4.647-2.308 188.18 63.402-3.42 11.79z" filter="url(#svg__github_work__h)" opacity="1"/><path fill="#ff0" d="m223.028 117.746 2.714-1.993 189.892 69.942-2.328 10.365z" filter="url(#svg__github_work__i)" opacity="1"/><path fill="#00d000" d="m220.844 119.266 2.14-1.572 190.74 76.833-2.467 10.814z" filter="url(#svg__github_work__j)" opacity="1"/><use filter="url(#svg__github_work__k)" href="#svg__github_work__l" opacity="1" transform="matrix(2.19735 1.4777 -2.11747 3.09789 156.087 -529.874)"/><path fill="#000df8" d="m219.033 119.496.917-.967 190.518 96.463-3.943 12.677z" filter="url(#svg__github_work__m)" opacity="1"/><path fill="#680df8" d="m218.637 118.727.917-.967 188.382 108.526-3.542 12.09z" filter="url(#svg__github_work__n)" opacity="1"/></g><path fill="url(#svg__github_work__o)" fill-rule="evenodd" stroke="#413e3a" d="M191.168 149.948H-14.025L88.571-27.754z" transform="translate(111.429 88.903)"/><path fill="url(#svg__github_work__p)" fill-rule="evenodd" d="M191.168 149.948H-14.025L88.571-27.754z" filter="url(#svg__github_work__q)" transform="translate(135.715 105.656)scale(.7258)"/><g fill-rule="evenodd" filter="url(#svg__github_work__r)" opacity="0.26" transform="matrix(1.01216 0 0 1 -1.924 0)"><path fill="red" d="m159.375 132.321.893-1.25 70.268-16.428 1.607 3.036z"/><path fill="#ff8500" d="m159.152 132.835.957-1.201 72.183-13.965 1.446 3.116z"/><path fill="#ff0" d="m158.884 133.264.422-.845 74.11-12.773 1.482 2.639z"/><path fill="#00d000" d="m158.527 133.925.332-.666 75.843-11.376 1.536 2.759z"/><use href="#svg__github_work__l"/><path fill="#000df8" d="m158.212 134.452.079-.35 79.757-7.209 1.473 3.39z"/><path fill="#680df8" d="m158.275 134.705.08-.35 81.461-4.431 1.472 3.2z"/></g><path fill="url(#svg__github_work__s)" fill-rule="evenodd" d="M345-12h56v324h-56z"/><path fill="url(#svg__github_work__t)" fill-rule="evenodd" d="M0-11h56v324H0z"/></svg>