<svg viewBox="0 0 400 300"><defs><linearGradient id="d"><stop offset="0" stop-color="#fff"/><stop offset="1" stop-color="#fff"/></linearGradient><linearGradient id="c"><stop offset="0" stop-color="#efefef"/><stop offset="1" stop-color="#efefef" stop-opacity="0"/></linearGradient><linearGradient id="b"><stop offset="0" stop-color="#efefef" stop-opacity="0"/><stop offset="1" stop-color="#efefef"/></linearGradient><linearGradient id="a"><stop offset="0" stop-color="#fdffff"/><stop offset="1" stop-color="#f2f2f2"/></linearGradient><filter id="f"><feGaussianBlur stdDeviation="1.22"/></filter><linearGradient id="o" x1="-14.53" x2="191.67" y1="61.1" y2="61.1" gradientUnits="userSpaceOnUse" href="#a" spreadMethod="pad"/><filter id="e"><feGaussianBlur stdDeviation="2.55"/></filter><filter id="r" width="1.06" height="1.25" x="-.03" y="-.12"><feGaussianBlur stdDeviation="1.03"/></filter><filter id="g"><feGaussianBlur stdDeviation="1.92"/></filter><filter id="i"><feGaussianBlur stdDeviation="2.05"/></filter><filter id="h"><feGaussianBlur stdDeviation="2.01"/></filter><filter id="j"><feGaussianBlur stdDeviation="2.1"/></filter><filter id="k"><feGaussianBlur stdDeviation=".69"/></filter><filter id="n"><feGaussianBlur stdDeviation="2.32"/></filter><filter id="m"><feGaussianBlur stdDeviation="2.25"/></filter><linearGradient id="s" x1="369" x2="425" y1="150" y2="150" gradientTransform="translate(-24)" gradientUnits="userSpaceOnUse" href="#b"/><linearGradient id="t" x1="369" x2="425" y1="150" y2="150" gradientTransform="translate(-369 1)" gradientUnits="userSpaceOnUse" href="#c"/><linearGradient id="p" x1="-14.53" x2="191.67" y1="61.1" y2="61.1" gradientUnits="userSpaceOnUse" href="#d" spreadMethod="pad"/><filter id="q" width="1.34" height="1.4" x="-.17" y="-.2"><feGaussianBlur stdDeviation="14.76"/></filter><path id="l" fill="#00abf8" d="M158.212 134.346l.332-.666 77.61-9.418 1.915 3.2z"/></defs><path fill="#efefef" fill-rule="evenodd" d="M-.71-.52h403.05v302.64H-.71z"/><path fill="red" fill-rule="evenodd" stroke="#ffff82" stroke-width="6" d="M-.714 213.857l158.571-82.143" filter="url(#e)" transform="translate(2.02 1.01)"/><path fill="#fb0031" fill-rule="evenodd" stroke="#ff4e00" stroke-width="2" d="M-.714 213.857l158.571-82.143" filter="url(#f)" opacity=".08" transform="translate(2.02 1.01)"/><g fill-rule="evenodd" opacity=".64"><path fill="red" d="M226.102 120.318l4.609-2.553 189.19 49.59-2.897 11.778z" filter="url(#g)"/><path fill="#ff8500" d="M224.524 116.815l4.647-2.308 188.18 63.402-3.42 11.79z" filter="url(#h)"/><path fill="#ff0" d="M223.028 117.746l2.714-1.993 189.892 69.942-2.328 10.365z" filter="url(#i)"/><path fill="#00d000" d="M220.844 119.266l2.14-1.572 190.74 76.833-2.467 10.814z" filter="url(#j)"/><use filter="url(#k)" href="#l" transform="matrix(2.19735 1.4777 -2.11747 3.09789 156.087 -529.874)"/><path fill="#000df8" d="M219.033 119.496l.917-.967 190.518 96.463-3.943 12.677z" filter="url(#m)"/><path fill="#680df8" d="M218.637 118.727l.917-.967 188.382 108.526-3.542 12.09z" filter="url(#n)"/></g><path fill="url(#o)" fill-rule="evenodd" stroke="#413e3a" d="M191.168 149.948H-14.025L88.571-27.754z" transform="translate(111.429 88.903)"/><path fill="url(#p)" fill-rule="evenodd" d="M191.168 149.948H-14.025L88.571-27.754z" filter="url(#q)" transform="translate(135.715 105.656) scale(.7258)"/><g fill-rule="evenodd" filter="url(#r)" opacity=".26" transform="matrix(1.01216 0 0 1 -1.924 0)"><path fill="red" d="M159.375 132.321l.893-1.25 70.268-16.428 1.607 3.036z"/><path fill="#ff8500" d="M159.152 132.835l.957-1.201 72.183-13.965 1.446 3.116z"/><path fill="#ff0" d="M158.884 133.264l.422-.845 74.11-12.773 1.482 2.639z"/><path fill="#00d000" d="M158.527 133.925l.332-.666 75.843-11.376 1.536 2.759z"/><use href="#l"/><path fill="#000df8" d="M158.212 134.452l.079-.35 79.757-7.209 1.473 3.39z"/><path fill="#680df8" d="M158.275 134.705l.08-.35 81.461-4.431 1.472 3.2z"/></g><path fill="url(#s)" fill-rule="evenodd" d="M345-12h56v324h-56z"/><path fill="url(#t)" fill-rule="evenodd" d="M0-11h56v324H0z"/></svg>