<svg xmlns="http://www.w3.org/2000/svg" viewBox="0 0 400 300" xmlns:xlink="http://www.w3.org/1999/xlink"><defs><linearGradient id="d"><stop offset="0" stop-color="#fff"/><stop offset="1" stop-color="#fff"/></linearGradient><linearGradient id="c"><stop offset="0" stop-color="#efefef"/><stop offset="1" stop-color="#efefef" stop-opacity="0"/></linearGradient><linearGradient id="b"><stop offset="0" stop-color="#efefef" stop-opacity="0"/><stop offset="1" stop-color="#efefef"/></linearGradient><linearGradient id="a"><stop offset="0" stop-color="#fdffff"/><stop offset="1" stop-color="#f2f2f2"/></linearGradient><filter id="f"><feGaussianBlur stdDeviation="1.22"/></filter><linearGradient id="o" x1="-14.53" x2="191.67" y1="61.1" y2="61.1" gradientUnits="userSpaceOnUse" spreadMethod="pad" href="#a"/><filter id="e"><feGaussianBlur stdDeviation="2.55"/></filter><filter id="r" width="1.06" height="1.25" x="-0.03" y="-0.12"><feGaussianBlur stdDeviation="1.03"/></filter><filter id="g"><feGaussianBlur stdDeviation="1.92"/></filter><filter id="i"><feGaussianBlur stdDeviation="2.05"/></filter><filter id="h"><feGaussianBlur stdDeviation="2.01"/></filter><filter id="j"><feGaussianBlur stdDeviation="2.1"/></filter><filter id="k"><feGaussianBlur stdDeviation="0.69"/></filter><filter id="n"><feGaussianBlur stdDeviation="2.32"/></filter><filter id="m"><feGaussianBlur stdDeviation="2.25"/></filter><linearGradient id="s" x1="369" x2="425" y1="150" y2="150" gradientTransform="translate(-24)" gradientUnits="userSpaceOnUse" href="#b"/><linearGradient id="t" x1="369" x2="425" y1="150" y2="150" gradientTransform="translate(-369 1)" gradientUnits="userSpaceOnUse" href="#c"/><linearGradient id="p" x1="-14.53" x2="191.67" y1="61.1" y2="61.1" gradientUnits="userSpaceOnUse" spreadMethod="pad" href="#d"/><filter id="q" width="1.34" height="1.4" x="-0.17" y="-0.2"><feGaussianBlur stdDeviation="14.76"/></filter><path fill="#00abf8" d="m158.212 134.346.332-.666 77.61-9.418 1.915 3.2z" id="l"/></defs><path d="M-.71-.52h403.05v302.64H-.71z" fill="#efefef" fill-rule="evenodd"/><g transform="translate(2.02 1.01)"><path d="m-.714 213.857 158.571-82.143" fill="red" fill-rule="evenodd" stroke="#ffff82" stroke-width="6" filter="url(#e)"/><path d="m-.714 213.857 158.571-82.143" opacity="0.08" fill="#fb0031" fill-rule="evenodd" stroke="#ff4e00" stroke-width="2" filter="url(#f)"/></g><g opacity="0.64"><path d="m226.102 120.318 4.609-2.553 189.19 49.59-2.897 11.778z" opacity="1" fill="red" fill-rule="evenodd" filter="url(#g)"/><path d="m224.524 116.815 4.647-2.308 188.18 63.402-3.42 11.79z" opacity="1" fill="#ff8500" fill-rule="evenodd" filter="url(#h)"/><path d="m223.028 117.746 2.714-1.993 189.892 69.942-2.328 10.365z" opacity="1" fill="#ff0" fill-rule="evenodd" filter="url(#i)"/><path d="m220.844 119.266 2.14-1.572 190.74 76.833-2.467 10.814z" opacity="1" fill="#00d000" fill-rule="evenodd" filter="url(#j)"/><use transform="matrix(2.19735 1.4777 -2.11747 3.09789 156.087 -529.874)" opacity="1" fill-rule="evenodd" filter="url(#k)" href="#l"/><path d="m219.033 119.496.917-.967 190.518 96.463-3.943 12.677z" opacity="1" fill="#000df8" fill-rule="evenodd" filter="url(#m)"/><path d="m218.637 118.727.917-.967 188.382 108.526-3.542 12.09z" opacity="1" fill="#680df8" fill-rule="evenodd" filter="url(#n)"/></g><path d="M191.168 149.948H-14.025L88.571-27.754z" transform="translate(111.429 88.903)" fill="url(#o)" fill-rule="evenodd" stroke="#413e3a"/><path d="M191.168 149.948H-14.025L88.571-27.754z" transform="translate(135.715 105.656)scale(.7258)" fill="url(#p)" fill-rule="evenodd" filter="url(#q)"/><g transform="matrix(1.01216 0 0 1 -1.924 0)" opacity="0.26" filter="url(#r)"><path d="m159.375 132.321.893-1.25 70.268-16.428 1.607 3.036z" fill="red" fill-rule="evenodd"/><path d="m159.152 132.835.957-1.201 72.183-13.965 1.446 3.116z" fill="#ff8500" fill-rule="evenodd"/><path d="m158.884 133.264.422-.845 74.11-12.773 1.482 2.639z" fill="#ff0" fill-rule="evenodd"/><path d="m158.527 133.925.332-.666 75.843-11.376 1.536 2.759z" fill="#00d000" fill-rule="evenodd"/><use fill-rule="evenodd" href="#l"/><path d="m158.212 134.452.079-.35 79.757-7.209 1.473 3.39z" fill="#000df8" fill-rule="evenodd"/><path d="m158.275 134.705.08-.35 81.461-4.431 1.472 3.2z" fill="#680df8" fill-rule="evenodd"/></g><path d="M345-12h56v324h-56z" fill="url(#s)" fill-rule="evenodd"/><path d="M0-11h56v324H0z" fill="url(#t)" fill-rule="evenodd"/></svg>