<svg xmlns:xlink="http://www.w3.org/1999/xlink" viewBox="0 0 400 300"><defs><filter id="f"><feGaussianBlur stdDeviation="1.2"/></filter><filter id="e"><feGaussianBlur stdDeviation="2.6"/></filter><filter id="q" width="1.1" height="1.2" x="0" y="-0.1"><feGaussianBlur stdDeviation="1"/></filter><filter id="g"><feGaussianBlur stdDeviation="1.9"/></filter><filter id="i"><feGaussianBlur stdDeviation="2"/></filter><filter id="h"><feGaussianBlur stdDeviation="2"/></filter><filter id="j"><feGaussianBlur stdDeviation="2.1"/></filter><filter id="k"><feGaussianBlur stdDeviation="0.7"/></filter><filter id="m"><feGaussianBlur stdDeviation="2.3"/></filter><filter id="l"><feGaussianBlur stdDeviation="2.3"/></filter><filter id="p" width="1.3" height="1.4" x="-0.2" y="-0.2"><feGaussianBlur stdDeviation="14.8"/></filter><linearGradient id="d"><stop offset="0" style="stop-color:#fff;stop-opacity:1"/><stop offset="1" style="stop-color:#fff;stop-opacity:1"/></linearGradient><linearGradient id="c"><stop offset="0" style="stop-color:#efefef;stop-opacity:1"/><stop offset="1" style="stop-color:#efefef;stop-opacity:0"/></linearGradient><linearGradient id="b"><stop offset="0" style="stop-color:#efefef;stop-opacity:0"/><stop offset="1" style="stop-color:#efefef;stop-opacity:1"/></linearGradient><linearGradient id="a"><stop offset="0" style="stop-color:#fdffff;stop-opacity:1"/><stop offset="1" style="stop-color:#f2f2f2;stop-opacity:1"/></linearGradient><linearGradient xlink:href="#a" id="n" x1="-14.5" x2="191.7" y1="61.1" y2="61.1" gradientUnits="userSpaceOnUse" spreadMethod="pad"/><linearGradient xlink:href="#b" id="r" x1="369" x2="425" y1="150" y2="150" gradientTransform="translate(-24)" gradientUnits="userSpaceOnUse"/><linearGradient xlink:href="#c" id="s" x1="369" x2="425" y1="150" y2="150" gradientTransform="translate(-369 1)" gradientUnits="userSpaceOnUse"/><linearGradient xlink:href="#d" id="o" x1="-14.5" x2="191.7" y1="61.1" y2="61.1" gradientUnits="userSpaceOnUse" spreadMethod="pad"/></defs><path d="M-.7-.5h403.1v302.6H-.7z" style="opacity:1;fill:#efefef;fill-opacity:1;fill-rule:evenodd;stroke:#ff4e00;stroke-width:0;stroke-linejoin:miter;stroke-miterlimit:4;stroke-dasharray:none;stroke-dashoffset:0;stroke-opacity:1"/><path d="m-.7 213.9 158.6-82.2" style="fill:red;fill-opacity:1;fill-rule:evenodd;stroke:#ffff82;stroke-width:6;stroke-linecap:butt;stroke-linejoin:miter;stroke-miterlimit:4;stroke-dasharray:none;stroke-opacity:1;filter:url(#e)" transform="translate(2.02 1.01)"/><path d="m-.7 213.9 158.6-82.2" style="opacity:.07960199;fill:#fb0031;fill-opacity:1;fill-rule:evenodd;stroke:#ff4e00;stroke-width:2;stroke-linecap:butt;stroke-linejoin:miter;stroke-miterlimit:4;stroke-dasharray:none;stroke-opacity:1;filter:url(#f)" transform="translate(2.02 1.01)"/><g style="opacity:.64179104"><path d="m226.1 120.3 4.6-2.5L420 167.4l-3 11.6z" style="opacity:1;fill:red;fill-opacity:1;fill-rule:evenodd;stroke:#000;stroke-width:0;stroke-linecap:butt;stroke-linejoin:miter;stroke-miterlimit:4;stroke-dasharray:none;stroke-opacity:1;filter:url(#g)"/><path d="m224.5 116.8 4.7-2.3L417.4 178l-3.5 11.8z" style="opacity:1;fill:#ff8500;fill-opacity:1;fill-rule:evenodd;stroke:#000;stroke-width:0;stroke-linecap:butt;stroke-linejoin:miter;stroke-miterlimit:4;stroke-dasharray:none;stroke-opacity:1;filter:url(#h)"/><path d="m223 117.7 2.7-2 190 70-2.4 10.4z" style="opacity:1;fill:#ff0;fill-opacity:1;fill-rule:evenodd;stroke:#000;stroke-width:0;stroke-linecap:butt;stroke-linejoin:miter;stroke-miterlimit:4;stroke-dasharray:none;stroke-opacity:1;filter:url(#i)"/><path d="m220.8 119.3 2.2-1.6 190.7 76.8-2.4 10.8z" style="opacity:1;fill:#00d000;fill-opacity:1;fill-rule:evenodd;stroke:#000;stroke-width:0;stroke-linecap:butt;stroke-linejoin:miter;stroke-miterlimit:4;stroke-dasharray:none;stroke-opacity:1;filter:url(#j)"/><path d="m158.2 134.3.3-.6 77.7-9.4 1.9 3.2z" style="opacity:1;fill:#00abf8;fill-opacity:1;fill-rule:evenodd;stroke:#000;stroke-width:0;stroke-linecap:butt;stroke-linejoin:miter;stroke-miterlimit:4;stroke-dasharray:none;stroke-opacity:1;filter:url(#k)" transform="matrix(2.19735 1.4777 -2.11747 3.09789 156.087 -529.874)"/><path d="m219 119.5 1-1L410.4 215l-4 12.7z" style="opacity:1;fill:#000df8;fill-opacity:1;fill-rule:evenodd;stroke:#000;stroke-width:0;stroke-linecap:butt;stroke-linejoin:miter;stroke-miterlimit:4;stroke-dasharray:none;stroke-opacity:1;filter:url(#l)"/><path d="m218.6 118.7 1-1 188.3 108.6-3.5 12z" style="opacity:1;fill:#680df8;fill-opacity:1;fill-rule:evenodd;stroke:#000;stroke-width:0;stroke-linecap:butt;stroke-linejoin:miter;stroke-miterlimit:4;stroke-dasharray:none;stroke-opacity:1;filter:url(#m)"/></g><path d="M191.2 150H-14L88.6-27.9z" style="opacity:1;fill:url(#n);fill-opacity:1;fill-rule:evenodd;stroke:#413e3a;stroke-width:1;stroke-linejoin:miter;stroke-miterlimit:4;stroke-dasharray:none;stroke-dashoffset:0;stroke-opacity:1" transform="translate(111.429 88.903)"/><path d="M191.2 150H-14L88.6-27.9z" style="opacity:1;fill:url(#o);fill-opacity:1;fill-rule:evenodd;stroke:#413e3a;stroke-width:0;stroke-linejoin:miter;stroke-miterlimit:4;stroke-dasharray:none;stroke-dashoffset:0;stroke-opacity:.73837208;filter:url(#p)" transform="translate(135.715 105.656)scale(.7258)"/><g style="opacity:.26368159;filter:url(#q)" transform="matrix(1.01216 0 0 1 -1.924 0)"><path d="m159.4 132.3.9-1.2 70.2-16.5 1.6 3z" style="fill:red;fill-opacity:1;fill-rule:evenodd;stroke:#000;stroke-width:0;stroke-linecap:butt;stroke-linejoin:miter;stroke-miterlimit:4;stroke-dasharray:none;stroke-opacity:1"/><path d="m159.2 132.8 1-1.2 72-14 1.5 3.2z" style="fill:#ff8500;fill-opacity:1;fill-rule:evenodd;stroke:#000;stroke-width:0;stroke-linecap:butt;stroke-linejoin:miter;stroke-miterlimit:4;stroke-dasharray:none;stroke-opacity:1"/><path d="m158.9 133.3.4-.9 74.1-12.8 1.5 2.7z" style="fill:#ff0;fill-opacity:1;fill-rule:evenodd;stroke:#000;stroke-width:0;stroke-linecap:butt;stroke-linejoin:miter;stroke-miterlimit:4;stroke-dasharray:none;stroke-opacity:1"/><path d="m158.5 134 .4-.7 75.8-11.4 1.5 2.7z" style="fill:#00d000;fill-opacity:1;fill-rule:evenodd;stroke:#000;stroke-width:0;stroke-linecap:butt;stroke-linejoin:miter;stroke-miterlimit:4;stroke-dasharray:none;stroke-opacity:1"/><path d="m158.2 134.3.3-.6 77.7-9.4 1.9 3.2z" style="fill:#00abf8;fill-opacity:1;fill-rule:evenodd;stroke:#000;stroke-width:0;stroke-linecap:butt;stroke-linejoin:miter;stroke-miterlimit:4;stroke-dasharray:none;stroke-opacity:1"/><path d="M158.2 134.5v-.4l79.8-7.2 1.5 3.4z" style="fill:#000df8;fill-opacity:1;fill-rule:evenodd;stroke:#000;stroke-width:0;stroke-linecap:butt;stroke-linejoin:miter;stroke-miterlimit:4;stroke-dasharray:none;stroke-opacity:1"/><path d="M158.3 134.7v-.3l81.5-4.5 1.5 3.2z" style="fill:#680df8;fill-opacity:1;fill-rule:evenodd;stroke:#000;stroke-width:0;stroke-linecap:butt;stroke-linejoin:miter;stroke-miterlimit:4;stroke-dasharray:none;stroke-opacity:1"/></g><path d="M345-12h56v324h-56z" style="opacity:1;fill:url(#r);fill-opacity:1;fill-rule:evenodd;stroke:#413e3a;stroke-width:0;stroke-linejoin:miter;stroke-miterlimit:4;stroke-dasharray:none;stroke-dashoffset:0;stroke-opacity:.73837208"/><path d="M0-11h56v324H0z" style="opacity:1;fill:url(#s);fill-opacity:1;fill-rule:evenodd;stroke:#413e3a;stroke-width:0;stroke-linejoin:miter;stroke-miterlimit:4;stroke-dasharray:none;stroke-dashoffset:0;stroke-opacity:.73837208"/></svg>