<svg viewBox="0 0 2440.57 758.36"><defs><path id="a" fill="none" stroke="#000" d="M2069.31 648.984a133.34 133.34 0 01-115.762-66.27"/></defs><g transform="translate(-2.286 -301.005)"><path fill="#008dff" d="M2.29 678.08h2440.57v382.37H2.29z" opacity=".25"/><path fill="none" stroke="#000" stroke-dasharray="18 18" stroke-width="1.5" d="M504.429 309.755v752.857m685-752.857v756.857m739.285-752.857v756.857"/><text x="94.91" y="391.5" font-family="Tahoma" font-size="56" font-weight="400" style="line-height:0%;-inkscape-font-specification:Tahoma"><tspan x="94.91" y="391.5">空气</tspan></text><text x="83.43" y="1010.36" font-family="Tahoma" font-size="56" font-weight="400" style="line-height:0%;-inkscape-font-specification:Tahoma"><tspan x="83.43" y="1010.36">水下</tspan></text><text x="116.3" y="795.9" font-family="Tahoma" font-size="64" font-weight="400" style="line-height:0%;-inkscape-font-specification:Tahoma"><tspan x="116.3" y="795.9">n</tspan></text><text x="150.87" y="814.18" font-family="Tahoma" font-size="64" font-weight="400" style="line-height:0%;-inkscape-font-specification:Tahoma"><tspan x="150.87" y="814.18" font-size="40">1</tspan></text><text x="115.71" y="587.51" font-family="Tahoma" font-size="64" font-weight="400" style="line-height:0%;-inkscape-font-specification:Tahoma"><tspan x="115.71" y="587.51">n</tspan></text><text x="152.28" y="605.8" font-family="Tahoma" font-size="64" font-weight="400" style="line-height:0%;-inkscape-font-specification:Tahoma"><tspan x="152.28" y="605.8" font-size="40">2</tspan></text><path fill="none" stroke="#000" stroke-width="2.6" marker-end="url(#a)" marker-start="url(#a)" d="M355.204 996.834L503.695 677.2 820 353.22m97.186 649.376l272.216-322.907 453.249-1.375"/><path fill="none" stroke="#000" stroke-width="2.6" marker-end="url(#a)" marker-start="url(#a)" d="M1506.644 916.12l423.482-239.012 423.48 239.012" opacity=".99"/><text x="1189.81" y="508.03" stroke="#fff" stroke-linecap="square" stroke-linejoin="bevel" stroke-width="0" font-family="Bitstream Vera Sans" font-size="56" font-weight="400" paint-order="markers stroke fill" text-anchor="middle" style="line-height:0%;text-align:center"><tspan x="1189.81" y="508.03">临界角</tspan></text><text x="63.95" y="869.64" font-family="Bitstream Vera Sans" font-size="56" font-weight="400" text-anchor="middle" transform="rotate(-46.846)" style="line-height:0%;text-align:center"><tspan x="72.86" y="869.64" font-size="36">反射光线</tspan></text><use stroke-width="2" href="#a" opacity=".7" transform="translate(-153.462 179.818)"/><path fill="none" stroke="#000" stroke-width="2" d="M1180.012 811.823c-31.973 2.017-42.09 1.018-67.442-18.568M511.573 546.17a133.34 133.34 0 0173.904 32.529" opacity=".7"/><use stroke-width="2" href="#a" opacity=".7" transform="matrix(-1 0 0 1 4007.968 179.818)"/><path fill="none" stroke="#000" stroke-width="2" d="M494.836 859.025a133.34 133.34 0 01-64.45-10.942" opacity=".7"/><text x="60" y="595.22" font-family="Tahoma" font-size="56" font-weight="400" transform="translate(1736.563 265.014)" style="line-height:0%;-inkscape-font-specification:Tahoma"><tspan x="60" y="595.22">θ</tspan></text><text x="90.57" y="609.5" font-family="Tahoma" font-size="56" font-weight="400" transform="translate(1736.563 265.014)" style="line-height:0%;-inkscape-font-specification:Tahoma"><tspan x="90.57" y="609.5" font-size="36">1</tspan></text><text x="391.33" y="946.75" font-family="Tahoma" font-size="56" font-weight="400" transform="translate(37.466 -35.95)" style="line-height:0%;-inkscape-font-specification:Tahoma"><tspan x="391.33" y="946.75">θ</tspan></text><text x="421.9" y="961.04" font-family="Tahoma" font-size="56" font-weight="400" transform="translate(37.466 -35.95)" style="line-height:0%;-inkscape-font-specification:Tahoma"><tspan x="421.9" y="961.04" font-size="36">1</tspan></text><g font-family="Tahoma" font-size="56" font-weight="400"><text x="391.33" y="946.75" transform="translate(1615.325 -80.397)" style="line-height:0%;-inkscape-font-specification:Tahoma"><tspan x="391.33" y="946.75">θ</tspan></text><text x="421.9" y="961.04" transform="translate(1615.325 -80.397)" style="line-height:0%;-inkscape-font-specification:Tahoma"><tspan x="421.9" y="961.04" font-size="36">2</tspan></text><text x="391.33" y="946.75" transform="translate(144.583 -407.686)" style="line-height:0%;-inkscape-font-specification:Tahoma"><tspan x="391.33" y="946.75">θ</tspan></text><text x="421.9" y="961.04" transform="translate(144.583 -407.686)" style="line-height:0%;-inkscape-font-specification:Tahoma"><tspan x="421.9" y="961.04" font-size="36">2</tspan></text></g><g font-family="Tahoma" font-size="56" font-weight="400"><text x="-495.58" y="1278.08" transform="translate(1597.101 -413.788)" style="line-height:0%;-inkscape-font-specification:Tahoma"><tspan x="-495.58" y="1278.08">θ</tspan></text><text x="-465.01" y="1292.37" transform="translate(1597.101 -413.788)" style="line-height:0%;-inkscape-font-specification:Tahoma"><tspan x="-465.01" y="1292.37" font-size="36">c</tspan></text></g><text style="line-height:0%;text-align:center" x="1930.47" y="504.1" font-family="Bitstream Vera Sans" font-weight="400" text-anchor="middle"><tspan x="1930.47" y="504.1" font-size="56" style="line-height:1.25">全内反射</tspan></text><text x="-577.62" y="723.17" font-family="Bitstream Vera Sans" font-size="56" font-weight="400" text-anchor="middle" transform="rotate(-64.926)" style="line-height:0%;text-align:center"><tspan x="-568.7" y="723.17" font-size="36">入射光线</tspan></text></g></svg>