<svg xmlns="http://www.w3.org/2000/svg" viewBox="0 0 600 480"><path fill="#fff" d="M0 0h600v480H0z"/><path fill="#e0e0e0" d="M88.5 16.7H575v405.7H88.5z"/><g fill="none" stroke="#000"><path d="M88.5 422.4h9m477.5 0h-9 .01M88.5 402H93m482 0h-4.5m-482-26.9H93m482 0h-4.5m-482-13.8H93m482 0h-4.5m-482-6.5h9m477.5 0h-9 .01M88.5 334.4H93m482 0h-4.5m-482-26.9H93m482 0h-4.5m-482-13.8H93m482 0h-4.5m-482-6.5h9m477.5 0h-9 .01M88.5 266.8H93m482 0h-4.5m-482-26.9H93m482 0h-4.5m-482-13.8H93m482 0h-4.5m-482-6.5h9m477.5 0h-9 .01M88.5 199.2H93m482 0h-4.5m-482-26.9H93m482 0h-4.5m-482-13.8H93m482 0h-4.5m-482-6.6h9m477.5 0h-9 .01M88.5 131.6H93m482 0h-4.5m-482-26.9H93m482 0h-4.5m-482-13.8H93m482 0h-4.5m-482-6.6h9m477.5 0h-9 .01M88.5 64H93m482 0h-4.5m-482-26.9H93m482 0h-4.5m-482-13.8H93m482 0h-4.5m-482-6.6h9m477.5 0h-9 .01M99.2 422.4v-4.5m0-401.2v4.5m41 401.2v-4.5m0-401.2v4.5m29.1 401.2v-4.5m0-401.2v4.5m22.6 401.2v-4.5m0-401.2v4.5m18.5 401.2v-4.5m0-401.2v4.5M226 422.4v-4.5m0-401.2v4.5m13.5 401.2v-4.5m0-401.2v4.5m11.9 401.2v-4.5m0-401.2v4.5m10.7 401.2v-9m0-396.7v9h.01m70.19 396.7v-4.5m0-401.2v4.5m41 401.2v-4.5m0-401.2v4.5m29.1 401.2v-4.5m0-401.2v4.5M425 422.4v-4.5m0-401.2v4.5m18.5 401.2v-4.5m0-401.2v4.5m15.6 401.2v-4.5m0-401.2v4.5m13.5 401.2v-4.5m0-401.2v4.5m11.9 401.2v-4.5m0-401.2v4.5m10.7 401.2v-9m0-396.7v9h.01"/><path d="M565.4 422.4v-4.5m0-401.2v4.5M88.5 16.7v405.7H575V16.7zh.01"/></g><g fill="none" stroke="currentColor" stroke-width="2"><path stroke="red" d="M121.3 70.7h42.2m-75 223.2 4.9-2.9 4.9-2.8 4.9-2.9 5-2.9 4.9-2.8 4.9-2.9 4.9-2.8 4.9-2.9 4.9-2.8 4.9-2.9 5-2.8 4.9-2.9 4.9-2.8 4.9-2.9 4.9-2.8 4.9-2.9 4.9-2.8 5-2.9 4.9-2.8 4.9-2.9 4.9-2.8 4.9-2.9 4.9-2.8 4.9-2.9 5-2.8 4.9-2.9 4.9-2.8 4.9-2.9 4.9-2.8 4.9-2.9 4.9-2.8 5-2.9 4.9-2.8 4.9-2.9 4.9-2.8 4.9-2.9 4.9-2.8 4.9-2.9 5-2.8 4.9-2.9 4.9-2.8 4.9-2.9 4.9-2.8 4.9-2.9 4.9-2.8 5-2.9 4.9-2.8 4.9-2.9 4.9-2.8 4.9-2.9 4.9-2.8 4.9-2.9 4.9-2.9 5-2.8 4.9-2.9 4.9-2.8 4.9-2.9 4.9-2.8 4.9-2.9 4.9-2.8 5-2.9 4.9-2.8 4.9-2.9 4.9-2.8 4.9-2.9 4.9-2.8 4.9-2.9 5-2.8 4.9-2.9 4.9-2.8 4.9-2.9 4.9-2.8 4.9-2.9 4.9-2.8 5-2.9 4.9-2.8 4.9-2.9 4.9-2.8 4.9-2.9 4.9-2.8 4.9-2.9 5-2.8 4.9-2.9 4.9-2.8 4.9-2.9 4.9-2.8 4.9-2.9 4.9-2.8 5-2.9 4.9-2.8 4.9-2.9 4.9-2.8 4.9-2.9 4.9-2.8 4.9-2.9 5-2.8 4.9-2.9 1-.6h.01"/><path stroke="#00f" d="M121.3 34.7h42.2m-75 327.7 4.9-4.1 4.9-4.1 4.9-4.1 5-4.1 4.9-4.1 4.9-4.1 4.9-4.1 4.9-4 4.9-4.1 4.9-4 5-4 4.9-4 4.9-4 4.9-4 4.9-4 4.9-3.9 4.9-3.9 5-4 4.9-3.9 4.9-3.8 4.9-3.9 4.9-3.8 4.9-3.9 4.9-3.8 5-3.7 4.9-3.8 4.9-3.7 4.9-3.7 4.9-3.6 4.9-3.7 4.9-3.6 5-3.5 4.9-3.6 4.9-3.5 4.9-3.4 4.9-3.4 4.9-3.4 4.9-3.3 5-3.3 4.9-3.2 4.9-3.2 4.9-3.1 4.9-3.1 4.9-3 4.9-3 5-2.8 4.9-2.8 4.9-2.8 4.9-2.6 4.9-2.6 4.9-2.5 4.9-2.4 4.9-2.3 5-2.2 4.9-2.1 4.9-2 4.9-1.9 4.9-1.8 4.9-1.6 4.9-1.5 5-1.4 4.9-1.2 4.9-1.1 4.9-.9 4.9-.8 4.9-.5 4.9-.4 5-.2h4.9l4.9.2 4.9.4 4.9.7 4.9.9 4.9 1.2 5 1.5 4.9 1.7 4.9 2 4.9 2.4 4.9 2.7 4.9 3 4.9 3.4 5 3.7 4.9 4.2 4.9 4.6 4.9 5 4.9 5.5 4.9 6 4.9 6.5 5 7 4.9 7.6 4.9 8.2 4.9 8.8 4.9 9.4 4.9 10.2 4.9 10.8 5 11.6 4.9 12.4 4.9 13.2 4.9 14.1h.01"/><path stroke="green" d="M121.3 52.7h42.2m-75 242.8 4.9-2.8 4.9-2.8 4.9-2.7 5-2.8 4.9-2.8 4.9-2.7 4.9-2.7 4.9-2.8 4.9-2.7 4.9-2.7 5-2.8 4.9-2.7 4.9-2.7 4.9-2.7 4.9-2.7 4.9-2.6 4.9-2.7 5-2.7 4.9-2.6 4.9-2.7 4.9-2.6 4.9-2.6 4.9-2.6 4.9-2.6 5-2.6 4.9-2.6 4.9-2.5 4.9-2.6 4.9-2.5 4.9-2.5 4.9-2.5 5-2.5 4.9-2.4 4.9-2.4 4.9-2.4 4.9-2.4 4.9-2.4 4.9-2.3 5-2.3 4.9-2.2 4.9-2.3 4.9-2.2 4.9-2.1 4.9-2.2 4.9-2 5-2.1 4.9-2 4.9-1.9 4.9-1.9 4.9-1.8 4.9-1.8 4.9-1.7 4.9-1.7 5-1.5 4.9-1.5 4.9-1.5 4.9-1.3 4.9-1.2 4.9-1.2 4.9-1 5-1 4.9-.8 4.9-.7 4.9-.6 4.9-.4 4.9-.3 4.9-.1 5 .1 4.9.2 4.9.4 4.9.6 4.9.9 4.9 1 4.9 1.3 5 1.6 4.9 1.8 4.9 2.1 4.9 2.4 4.9 2.8 4.9 3 4.9 3.5 5 3.7 4.9 4.2 4.9 4.6 4.9 5.1 4.9 5.5 4.9 6 4.9 6.5 5 7 4.9 7.6 4.9 8.2 4.9 8.8 4.9 9.4 4.9 10.2 4.9 10.8 5 11.6 4.9 12.4 4.9 13.2 4.9 14.1h.01"/></g><path fill="none" stroke="currentColor" stroke-width="2" d="M88.5 16.7v405.7H575V16.7zh.01" color="#000"/><g font-family="Arial" font-size="16" text-anchor="end"><text transform="translate(80.2 426.9)">1e-29</text><text transform="translate(80.2 359.3)">1e-28</text><text transform="translate(80.2 291.7)">1e-27</text><text transform="translate(80.2 224.1)">1e-26</text><text transform="translate(80.2 156.4)">1e-25</text><text transform="translate(80.2 88.8)">1e-24</text><text transform="translate(80.2 21.2)">1e-23</text><g text-anchor="middle"><text transform="translate(262.1 444.9)">1e+8</text><text transform="translate(495.2 444.9)">1e+9</text></g><g text-anchor="middle"><text transform="rotate(-90 118.6 101)">光谱辐射亮度 / J m<tspan dy="-4" font-size="8pt"> -2</tspan> <tspan dy="4">sr</tspan><tspan dy="-5" font-size="8pt"> -1</tspan></text><text transform="translate(331.7 471.9)">频率 / Hz</text></g><g font-size="12" text-anchor="start"><text transform="translate(168.3 39.2)">维恩定律</text><text transform="translate(168.3 57.2)">普朗克黑体辐射定律</text><text transform="translate(168.3 75.2)">瑞利-金斯定律</text></g></g></svg>