<svg xmlns:xlink="http://www.w3.org/1999/xlink" font-family="system-ui,sans-serif" viewBox="0 0 1390 1330"><defs><linearGradient id="b" x1="45" x2="200" y1="-15" y2="250" gradientUnits="userSpaceOnUse"><stop offset="0" stop-color="#ebf"/><stop offset="1" stop-color="#a7d"/></linearGradient><linearGradient id="e" x1="45" x2="200" y1="-15" y2="250" gradientUnits="userSpaceOnUse"><stop offset="0" stop-color="#ae7"/><stop offset="1" stop-color="#6c3"/></linearGradient><linearGradient id="g" x1="45" x2="200" y1="-15" y2="250" gradientUnits="userSpaceOnUse"><stop offset="0" stop-color="#f97"/><stop offset="1" stop-color="#d54"/></linearGradient><linearGradient id="i" x1="45" x2="200" y1="-15" y2="250" gradientUnits="userSpaceOnUse"><stop offset="0" stop-color="#eee677"/><stop offset="1" stop-color="#eb3"/></linearGradient><linearGradient id="d" x1="120" x2="165" y1="60" y2="140" gradientUnits="userSpaceOnUse"><stop offset="0" stop-color="#ebf"/><stop offset="1" stop-color="#a7d"/></linearGradient><linearGradient id="f" x1="120" x2="165" y1="60" y2="140" gradientUnits="userSpaceOnUse"><stop offset="0" stop-color="#ae7"/><stop offset="1" stop-color="#6c3"/></linearGradient><linearGradient id="h" x1="120" x2="165" y1="60" y2="140" gradientUnits="userSpaceOnUse"><stop offset="0" stop-color="#f97"/><stop offset="1" stop-color="#d54"/></linearGradient><linearGradient id="j" x1="120" x2="165" y1="60" y2="140" gradientUnits="userSpaceOnUse"><stop offset="0" stop-color="#eee677"/><stop offset="1" stop-color="#eb3"/></linearGradient><g id="c"><circle cx="120" cy="100" r="50.4" class="pballglow"/><circle cx="120" cy="100" r="47.7" class="pballglow"/><circle cx="120" cy="100" r="45"/></g><g id="k"><use xlink:href="#a" stroke="url(#b)"/><use xlink:href="#c" fill="url(#d)"/></g><g id="l"><use xlink:href="#a" stroke="url(#e)"/><use xlink:href="#c" fill="url(#f)"/></g><g id="m"><use xlink:href="#a" stroke="url(#g)"/><use xlink:href="#c" fill="url(#h)"/></g><g id="n"><use xlink:href="#a" stroke="url(#i)"/><use xlink:href="#c" fill="url(#j)"/></g><rect id="a" width="230" height="230" x="5" y="5" fill="none" stroke-width="10" rx="25" ry="25"/></defs><switch style="text-anchor:middle;font-size:64px;font-weight:700"><path d="M460.2 40.7h7.8v4.8h8.8v6.2H468v19.2h12V77h-12q2.6 2.3 5.9 4.3t6.7 3.2q-1.3 1-2.8 2.8t-2.3 3q-5.4-2.4-10.1-6.6v4.7h-11.7v4.2h21V99h-49v-6.3H446v-4.2h-11.4v-4q-4.6 4-10.2 6.5l-2.3-3q-1.4-1.8-2.6-2.8 3.6-1.3 6.9-3.4t6-4.7H420V71h12.3V51.7h-8.8v-6.2h8.8v-4.9h7.7v4.9h20.2zm-20.2 11v2.7h20.2v-2.7zm0 8.1v2.8h20.2v-2.8Zm0 8.2v2.9h20.2v-3zm6 10.4h7.8v4H464q-2.5-2.4-4.6-5.3h-18.2q-2 2.9-4.5 5.4h9.2zM515.9 61h-.4q-2.2 5.9-5.1 11.3-2.9 5.3-6.3 9.9h11.8zm8.1 0v21h11.6q-3.5-4.6-6.3-10t-5-11.2zm-8-20.3h8.1V53h24.4v7.8h-16.2q3 7 7.6 13.2 4.8 6.2 10.4 10-1.5 1.2-3.3 3.2t-2.8 3.6q-1.8-1.4-3.5-3t-3.3-3.6V90H524v10.9h-8v-11h-13.5v-5.7q-3.4 4-7.2 7-1-1.4-2.7-3.2-1.6-1.9-3-3 3.8-2.5 7.1-6.3 3.4-3.8 6.2-8.3t4.8-9.4h-15.8v-8H516zm44.4 5.5 5-1.2q1.3 3.4 2.2 7.4t1.1 7l-5.4 1.4q0-2-.5-4.5l-1-5.1q-.6-2.7-1.4-5m27.8 16.3 6.5-1.7q1.1 4.3 2 9.2l1.8 9.3q.9 4.5 1.3 7.8l-7.1 2.1q-.3-3.3-1-7.9l-1.6-9.5q-.9-5-1.9-9.3m-8.8-18 6 1.3-2.5 7.9q-1.3 4-2.5 6.8l-4.3-1.2V62h8.2v7H576v1.6l2.2 2.5q1.4 1.4 2.6 3l2.4 2.8 1.5 1.9-4.7 6-1.8-3.3q-1-2-2.2-3.9v20.9h-7.2V80.9q-1.3 3.6-2.9 6.9-1.4 3.2-3.1 5.6-.5-1.8-1.6-4-1-2.3-2-4 1.7-2 3.2-4.6 1.5-2.7 2.8-5.7t2.3-6h-7.1V62h8.4V40.7h7.2v18.1l1.3-4.4 1.1-5.2zm16.7-2.6 7-1.7 1.8 5q1 2.6 1.4 4.5l-6 1.7h18v7.2h-32.9v-7.2h13.4l-1.1-4.6zm-13 48.9h20q1-4.2 2-9.5t1.8-10.6q.8-5.5 1.2-10l7.7 1.1q-.7 4.8-1.8 10l-2 10-2.3 9H620v7.6h-37Zm73.4-31.3q3-1.5 6.3-3.5t6.1-4.1h-31.5v-7.6h40l1.8-.4 5.9 4.5q-4.1 4-9.6 8t-11 7.1v4.9h25V76h-25v15.5q0 3.2-1 5-.8 1.8-3 2.7-2.4.9-5.8 1.1-3.3.3-7.7.2-.3-1.6-1.4-4-1-2.3-1.9-3.9l4.5.2h6.4q1 0 1.5-.3.4-.4.4-1.2V76.1H631v-7.7h25.5zm71.5-15h28v7.2h-28zm19.6 30.3 6.3-2.1q1.5 3.2 2.8 6.8l2.3 7.1q1 3.5 1.4 6.2l-6.9 2.5q-.3-2.7-1.2-6.2t-2.1-7.2-2.6-7M727.8 73l6.9 1.6q-1 3.7-2.3 7.5t-3 7.1q-1.4 3.3-3.1 5.8l-1.8-1.3-2.2-1.5-2-1.1q2.4-3.4 4.3-8.2 2-4.9 3.2-9.9m-2.9-13h34.8v7h-14.4v24.7q0 2.9-.6 4.6t-2.3 2.7-4.3 1.1q-2.3.3-5.6.3-.1-1.7-.8-4-.6-2.2-1.4-3.9h6.1l.8-.1q.3-.2.3-.9V67h-12.6Zm-15.8-19.3h7.6v12.7h7.5v7h-7.5v1.4l2 2.3 2.5 3 2.4 3 1.5 1.9-4 6q-.7-1.4-2-3.4l-2.4-4.1v30.3H709V74.5q-1.3 4-3 7.5-1.4 3.5-3.2 6-.5-1.6-1.7-3.8l-2.2-3.7q1.9-2.3 3.5-5.6 1.6-3.4 3-7.2 1.3-3.7 2.1-7.3h-7.4v-7.1h8.9zm61 5.7 7-3.1q1.5 2.3 3 5.1 1.7 2.8 3 5.5 1.5 2.6 2.3 4.7L778 62q-.7-2.1-2-4.8l-2.8-5.6q-1.5-3-3-5.4m.1 48.2q1.4-2.7 3-6.3l3.4-7.6 3-8.1 7.2 3.5-4.2 11.3q-2.2 5.7-4.3 10.5zM797.4 71v6h11.4v-6Zm0-6.6h11.4v-6.1h-11.4Zm9-20.6 6.6-3q1.5 2.1 3 4.7l2.4 4.4-3.4 1.8h14v6.6h-12.6v6.1h11.4V71h-11.4v6h11.3v6.5h-11.3v6.3H830v6.8h-32.6v4.2h-7.1V67.4l-2.3 2.8-2.3 2.5-1.5-1.8-2-2q-1-1.2-1.8-1.8 3.3-3 6.2-7.1 2.8-4.2 5.1-9 2.4-4.8 4-10l7 1.8-1.7 4.5q-.8 2.3-1.8 4.4h11.6l-2.1-4zm-9 39.7v6.3h11.4v-6.3zm73.4-14.4V72h17.6v-3zm0-7.7v2.8h17.6v-2.8ZM884 40.6h7.4V45h7.2v6.3h-7.2v3.6H884v-3.6h-7.4v3.6h-7.3v-3.6h-7.5V45h7.5v-4.4h7.3V45h7.4zm-20.4 15.5h32v21.2h-12.3L883 81h16v6.3h-11.2q4.4 5.3 13 7-1.3 1-2.7 3l-2.1 3.3q-5.5-1.4-9.2-4.5-3.7-3-6.1-7.4-2 4.1-6.3 7.1t-12.2 5q-.5-1.4-1.7-3.3t-2.2-2.9q6-1.2 9.4-3t5.2-4.3h-12.2V81h14.7l.3-1.8.3-2h-12.3zm-16-15.5h7.2v12h5.8v7H855V62l1.8 2.6L859 68l2.2 3.4 1.4 2.2-4.5 5.4q-1.2-3.1-3.3-7.4v29.1h-7.2v-22q-1 3.1-2.3 5.8l-2.5 4.7q-.6-1.7-1.7-4-1-2.2-2-3.8 1.7-2.3 3.3-5.6t3-7.1q1.3-3.8 2.2-7.4v-1.6h-7v-7.1h7zm99.4 3.7h7v21.8h-7zm11.7-3h7.3v27.5q0 2.6-.6 4.1t-2.4 2.4-4.3 1l-5.9.1q-.2-1.4-1-3.4-.6-1.9-1.3-3.3h7q.7 0 1-.2t.2-.8zm-27.5 8.3h-5.4v6.7h5.4zm-13.8 29.8H936v-4h-4.7V63.2h-6q-.7 4-3 7.8t-7 6.3l-1.5-1.8-1.9-2-1.7-1.6q3.6-1.8 5.4-4 1.7-2.3 2.4-4.7h-6.4v-6.8h7.2v-6.7h-5V43H943v6.7h-4.5v6.7h6v6.8h-6v11.3h5.4v5h18.6v7h-18.6v5.1h25v7.1h-58v-7H936v-5.2h-18.5z" aria-label="基本粒子标准模型" style="letter-spacing:6px"/></switch><path d="M220.8 322.6a55 55 0 0 0-55 55v250a55 55 0 0 0 55 55h500a55 55 0 0 0 55-55 195 195 0 0 1 195-195h10a55 55 0 1 0 0-110z" class="pinteract"/><path d="M220.8 312.6a65 65 0 0 0-65 65v510a65 65 0 0 0 65 65h500a65 65 0 0 0 65-65c0-107.7 82.8-195 185-195h10a65 65 0 1 0 0-130h-10a185 185 0 0 1-185-185 65 65 0 0 0-65-65z" class="pinteract"/><path d="M220.8 302.6a75 75 0 0 0-75 75v760a75 75 0 0 0 75 75h760a75 75 0 0 0 75-75v-250a75 75 0 0 0-75-75h-10a175 175 0 0 1-175-175v-260a75 75 0 0 0-75-75z" class="pinteract"/><rect width="740" height="80" x="100" y="137.6" class="columnbox" rx="30" ry="30"/><switch class="txcol" transform="translate(470 166)"><path d="M-161.4-.4h22.8v2.9h-22.8zm2 9.7h18.4v2.9h-18.4zm-3.7 10.3h26.1v3h-26zm49.5-21.1 2.1-1.4q1 .7 1.8 1.6l1.7 1.7q.8.9 1.2 1.6l-2.2 1.5-1.2-1.6-1.6-1.8zm-5.2-1.4h2.8q0 2.3.2 4.5l.3 4 8.9-1 .4 2.6-9 1.2q.5 3.7 1.3 6.5.7 2.8 1.8 4.4t2.5 1.8q.6 0 1-1.2.3-1.3.5-3.8l1.2.9 1.2.6q-.4 2.8-1 4.3t-1.2 2-1.6.6q-2.5-.2-4.2-2.2t-2.7-5.4-1.6-8.2l-6.7 1-.4-2.8 6.8-.9-.3-4.3zM-126-3l2.7.8-1.4 3-1.7 3v20.7h-2.9V7.9Q-130 9-131 10l-1.8 1.8-.5-.8-.6-1.1-.5-.9q1.7-1.4 3.2-3.3t3-4.2T-126-3m36.8-.3 2.6.5-.6 2.2-.7 2.1h11.6V3l-.5 8.7q-.2 3.5-.5 5.8T-78 21t-.8 1.8-1 1-1.2.3-1.5.1h-1.9l-.2-1.4q-.2-.8-.6-1.4l1.8.1h1.2q.6 0 1.1-.5.3-.4.6-1.5.3-1 .5-3l.5-5 .4-7.3h-.8q-.6 2.9-1.5 5.8t-2.1 5.5-2.8 4.8-3.3 3.6l-1-.9-1.4-.8q2.5-1.7 4.4-4.5 1.9-2.9 3.1-6.4 1.4-3.5 2.1-7.1h-2Q-85 6.7-86 9.3t-2.5 4.8q-1.3 2.1-3 3.6l-1-.9-1.2-.7q1.6-1.3 2.9-3.2 1.3-1.8 2.4-4.1t1.7-4.6h-2l-1.6 3q-.8 1.4-1.8 2.6l-1-.8-1.2-.9q1.9-2 3.2-5t2-6.4m-13.2 1.7 2.4.4-.2 2-.3 1.9h2v-6h2.6v6h2.8v2.7h-2.8V11l3.2-1 .3 2.6-3.5 1v11h-2.6V14.4l-4.8 1.4-.7-2.7 2.5-.6 3-.9V5.4h-2.5q-.5 2.4-1.2 4.2l-1-.7-1-.6q.7-1.9 1.2-4.5zM-57 20.3l2-1.7 3 1.2q1.7.7 3.1 1.5l2.6 1.2-2 1.9L-51 23l-3.1-1.4zm-1.7-8.4h3v2.6q0 1.2-.5 2.5-.3 1.3-1.4 2.6t-3.3 2.6-5.8 2.3l-.8-1.1-1-1 4.5-1.5q1.8-.8 2.9-1.7t1.6-1.7.6-1.6l.2-1.5zm-7.4-3.7h6.5l.3-2.6h-8.8v1.6l-.1 4q-.1 2.3-.5 4.6t-1 4.4-1.8 4q-.4-.4-1.2-.8t-1.3-.6q1-1.7 1.7-3.7l1-4 .3-4.2.1-3.7v-8.4l5.6-.3 5.6-.5q2.8-.2 5.2-.6l4.2-.7 2.3 2.2-3.8.8-4.1.5-.3 2.9h10v2.5h-10.2l-.4 2.6h8.5v10.6h-3v-8h-12v7.8h-2.8zm7-5.1.2-2.6-4.7.4-4.5.2v2zm15.6-4 1.9-.4.7 2.2.6 2.4q.3 1.2.3 2l-2 .6q0-1-.3-2l-.5-2.4zm8.9-.6 2.3.6-.8 2.4-.9 2.4-.7 2-1.8-.5.7-2.1.7-2.5zm2.4 3.5H-17v2.6h-15.3zm1.6 4.7 2.4-.6 1 4.4.8 4.5.6 3.7-2.7.8-.4-3.8-.8-4.5q-.4-2.4-1-4.5m3.5-9.5 2.6-.7.9 2.4.6 2.2-2.7.8-.6-2.3zm-16.5 9.5h4.1v-10h2.7v10h4v2.7h-4v.9l1 1.2 1.3 1.5 1.1 1.4.8.9-1.9 2.2-1-1.8-1.3-2.1v10.9h-2.7V13.9q-.7 2-1.5 3.7t-1.7 3l-.6-1.4-.8-1.4q.8-1 1.6-2.4l1.4-3 1.2-3h-3.7zm10.2 13.9h9.5l.8-3.4.8-3.7.6-4 .5-3.5 2.8.4q-.3 2.3-.9 4.9l-1 5-1 4.3h5.2v2.8h-17.3Zm32.1-15q1.8-.8 3.6-2t3.3-2.2h-16v-2.8h19l.6-.2L11.4.1l-3 2.5Q7 4 5.2 5 3.4 6.2 1.6 7v3h12v2.8h-12V21q0 1.3-.4 2-.3.6-1.3 1-1 .3-2.4.4h-3.7l-.5-1.4-.7-1.4h5.2l.7-.1q.2-.2.2-.6v-8.2h-12.3V10h12.3zm36.8 5q0-3 .8-5.7T38.3.2q1.4-2.2 3-4l2.4 1.1q-2.5 2.6-4 5.9Q38 6.5 38 10.6t1.6 7.4 4 5.9l-2.3 1q-1.7-1.7-3-3.9-1.4-2.1-2.2-4.7-.8-2.7-.8-5.7M59 15.3h2.9q-.5 2-1.4 3.5T58 21.4t-4.2 1.8-6.5 1.3q0-.5-.5-1.2-.3-.8-.7-1.2 3.6-.4 5.9-1t3.7-1.3 2.1-2q.8-1 1.1-2.5m1.7 5.3 1.4-2 3 .9 3.2 1 3 .9 2.4 1-1.5 2.1-2.4-1-3-1q-1.5-.6-3.1-1zM55.4 4h-3.9l-.3 2H55l.2-.9zM58 4l-.1 1-.1.9h4.4V4.2Zm-8.8-1.9h6.2V.4h-7.2v-2h7.2v-1.7H58v1.7h4.2v-1.7h2.7v1.7h6.4v5.8H65V6h8v.9l-.3 2.3q-.2.8-.6 1.2l-.7.5-.8.2h-2.8l-.2-1-.3-1 1.9.2h.4q.2 0 .3-.2l.2-.4q.2-.3.1-.8H65v3.2h-2.7V7.9H57Q56.4 9 55.2 10q-1.1 1-3 1.8h17.6v8h-2.9v-5.7H53.1v6h-2.7v-7.7l-1.2.4-1.2.3-.6-1.2-.8-1q2.7-.6 4.4-1.3t2.6-1.7h-5.3l.5-2.7zM58 .4v1.8h4.2V.4Zm6.9 0v1.8h3.8V.4ZM99-1.9l3.2 1.2-2.5 4-2.4 3.4-2.5-1.1 1.5-2.3L97.8.6zM78.2-.6l2.6-1.1q.9 1 1.7 2.3L84 3l1 2.2-2.8 1.3q-.3-1-1-2.2L80 1.8zm10.3-2.7h3V8h11.9v2.8h-9.8q1.3 2 3 3.8 1.8 1.8 3.7 3.4t3.9 2.5l-1.2 1.2-1 1.3q-1.9-1.2-3.7-2.8-2-1.7-3.7-3.7t-3.1-4v12h-3v-12q-1.4 2.2-3.1 4.2t-3.6 3.7-3.8 2.9l-1-1.2-1-1.1q2-1.1 3.8-2.7 2-1.6 3.7-3.5t3-3.9h-9.7V8.1h11.8zm30.2 8.9q1.7-.8 3.5-2t3.3-2.2h-16v-2.8h19.1l.6-.2 2.2 1.7-3 2.5Q127 4 125.2 5q-1.7 1.2-3.5 2v3h12v2.8h-12V21q0 1.3-.4 2-.3.6-1.3 1-1 .3-2.4.4h-3.7l-.5-1.4-.7-1.4h5.2l.7-.1q.2-.2.2-.6v-8.2h-12.3V10h12.3zm25.9 5q0 3-.8 5.7-.8 2.6-2.1 4.7-1.4 2.2-3 4l-2.3-1.1q2.4-2.6 4-5.9 1.5-3.3 1.5-7.4t-1.6-7.4-4-5.9l2.3-1q1.7 1.7 3 3.9 1.4 2.1 2.2 4.7t.8 5.7" aria-label="三代物质粒子（费米子）"/></switch><g fill="#123" font-size="40" text-anchor="middle"><text x="100" transform="translate(120 260)">I</text><text x="350" transform="translate(120 260)">II</text><text x="600" transform="translate(120 260)">III</text></g><rect width="500" height="80" x="860" y="137.6" class="columnbox" rx="30" ry="30"/><switch class="txcol" transform="translate(1110 166)"><path d="m-157.3-3.2 2.6.8L-156 1q-.7 1.6-1.6 3.1v20.5h-2.8V8.3l-1.2 1.6q-.6.8-1.3 1.4l-.4-.9-.6-1-.5-1q1.4-1.4 2.7-3.2t2.5-4zm6.1 21.6 2-1.7 1.4.8 1.3.9 2.1-2.2 1.9-2.1H-153l.9-2.7 1-3h-5.1V5.6h5.8l.9-3h-5V0h5.6l.8-3.1 2.8.4-.7 2.7h8.3v2.7h-9l-.8 3h11.2v2.6h-12l-.9 3.1h9.2l.5-.1 2 1.2-3.2 3.6-3.5 3.8 1.7 1.3 1.4 1.3-2 2-2.2-2-2.9-2.1q-1.5-1.2-3-2M-132.8-1l2.4-1.2 1.4 1.8 1.4 2 1 1.7-2.7 1.4-.9-1.8-1.3-2zm20.2-2.5 2.8.7-1 1.7-1.1 1.5h3.8v7h-6.7v2.3h8v1l-.4 4q-.3 1.4-.8 1.9-.3.4-.7.6l-1 .2h-3q0-.5-.3-1.2t-.5-1.1h2.6q.6.1.9-.2l.3-.9.2-2h-5.3v7.7h-2.8V14q-1.4 1.5-3.1 2.7-1.7 1.1-3.6 2-.3-.5-.9-1l-.9-1q2-.8 4-2 1.8-1.2 3-2.6h-5.8l.6-3.3.4-3.7h6.3V2.8h-7.4V.5h4.4l-.8-1.5q-.4-.8-1-1.5l2.3-1 1.3 1.7.8 1.6-1.3.7h4.4l1.3-2zm-9.5 13.2h4.5V7.5h-4zm7.3-7V5h4.3V2.8Zm-12.3 5v10.5l.8.6 1.2.7q1.5.9 3.5 1.1t4.5.3l3.8-.1 4-.2 3.5-.4-.6 1.5-.3 1.6h-2.1l-2.8.2h-5.5q-2.9 0-5-.2-2-.4-3.5-1.3l-1.8-1.1-1.2-.6q-.5 0-1 .6l-1.1 1.3-1.2 1.8-2-2.8q1-1.1 2.1-2 1-.8 2-1.2v-7.5h-3.8V8Zm39 .3v4.6h8.2V8.1Zm0-2.6h8.2V1.1h-8.3zm0 9.8v4.6h8.2v-4.6Zm-2.8-17h13.8v25.9H-80v-1.7h-8.2v1.8h-2.7zm-8-1.6h2.7V3h4v2.7h-4V8l1 1.1 1.3 1.5 1.3 1.5.8 1-1.7 2.3-1.2-2-1.5-2.1v13.2h-2.7V11.2q-.8 2.3-1.8 4.4t-2.1 3.5l-.7-1.3-.7-1.3q1-1.3 1.9-3 1-1.8 1.7-3.8.8-2 1.3-4h-4.2V3h4.6zm25.4 24.1h17l.7-4.4h-13.6l.9-3.4.9-4 .8-4.1.7-4h-6.4v-2.7h25.3V.9H-63l-.8 4.5h9.6l.6-.2 2.1.3-.5 4.7-.7 5.4-.8 5.2h7.1v2.8h-27.1ZM-64.4 8q-.5 3-1.2 5.7h10.2l.7-5.7zm35-11 2.8.7-.8 2-.8 2H-16v2.7h-9v3.8h8.3v2.6H-25v4h8.7v2.7H-25v7h-2.9V4.4h-1.7l-2 3.3q-1 1.5-2.1 2.7l-1-1-1.2-.9q1.4-1.4 2.6-3.2t2.2-4 1.7-4.3m-7.5-.2 2.8.8q-1.3 3.3-3 6.4v20.5h-3v-16q-.5.8-1.2 1.5l-1.2 1.4-.4-.9-.6-1.1-.6-1q1.4-1.4 2.8-3.2t2.4-4q1.2-2.2 2-4.4m26.3 2h22.4V21q0 1.2-.3 1.9t-1.2 1-2.2.4H4.6q0-.5-.3-1.3l-.6-1.4 1.9.1h2.6q.4 0 .6-.2T9 21v-5.4H1.7v8.7h-2.9v-8.7h-7q-.3 2.5-1.2 5-.9 2.3-2.5 4.2l-1-1-1.3-.9q1.3-1.3 2-3t1-3.4q.4-1.8.5-3.5l.1-3.4zm2.9 2.6v4.3h6.5V1.5ZM9 1.4H1.7v4.3H9zm-16.7 7V11l-.2 1.7h6.7V8.3ZM9 8.3H1.7v4.4H9zm26.4 2.2q0-3 .8-5.7T38.3.2q1.4-2.2 3-4l2.4 1.1q-2.5 2.6-4 5.9Q38 6.5 38 10.6t1.6 7.4 4 5.9l-2.3 1q-1.7-1.7-3-3.9-1.4-2.1-2.2-4.7-.8-2.7-.8-5.7m10.6 8 1.7-.5 2-.7V9.9h-3.2V7.2h3.2v-6h-3.5v-2.6h9.4v2.6h-3.2v6H55V10h-2.6v6.5l2.8-1 .4 2.5-4.7 1.8-4.3 1.7zM56.7 1h6.7v-4.2H66V.9h5.5l2 .4-1 3.4-1 2.9-2.4-.6.5-1.6.5-1.8h-4v4.7h4.4l1.8.6q-.8 3-2 5.5-1.2 2.4-2.8 4.3 2.8 2.2 6.5 3.2-.5.4-1 1.2t-.9 1.3q-3.8-1.3-6.6-3.7-1.5 1.3-3 2.3T59 24.6l-.7-1.3-.9-1q3.4-1.1 6.2-3.5-1.4-1.6-2.5-3.5-1.1-2-2-4.2 0 2.2-.4 4.5t-1.1 4.7q-.8 2.2-2.2 4l-1-1q-.7-.6-1.2-.8 1.2-1.5 1.8-3.2t1-3.5.5-3.6V9zm6.7 2.7h-4v4.8h4zM69 11h-7q.7 1.7 1.6 3.2t2 2.8q1.2-1.3 2-2.8 1-1.5 1.5-3.2m20-3.3h-6.4v4.6H89zm2.7 0v4.6h6.4V7.6Zm.9-6h-7.4q-1.4 1.8-3 3.4h7.4l1.5-1.5zm-7.2-5 2.5.9-.4.8-.6.9h7.5L95-1 96.8.4l-1.7 2.3-2 2.3h7.9v11h-3v-1H82.6v4.3q0 1 .2 1.4.3.5 1.1.6.9.2 2.5.2h11.1q1.5 0 2.2-.3.7-.4 1-1.4t.5-3l1.4.7 1.4.4q-.3 2.4-1 3.7-.5 1.4-1.8 2-1.2.5-3.6.5h-11q-2.6 0-4-.4-1.5-.4-2.2-1.5-.6-1-.6-2.9v-12l-1.1.9-1.1.8-.6-1-.5-1-.6-.9q1.9-1 3.6-2.6Q81.2 2 82.7.2t2.6-3.8m33.3 9q1.7-.8 3.5-2t3.3-2.2h-16v-2.8h19.1l.6-.2 2.2 1.7-3 2.5Q127 4 125.2 5q-1.7 1.2-3.5 2v3h12v2.8h-12V21q0 1.3-.4 2-.3.6-1.3 1-1 .3-2.4.4h-3.7l-.5-1.4-.7-1.4h5.2l.7-.1q.2-.2.2-.6v-8.2h-12.3V10h12.3zm25.9 5q0 3-.8 5.7-.8 2.6-2.1 4.7-1.4 2.2-3 4l-2.3-1.1q2.4-2.6 4-5.9 1.5-3.3 1.5-7.4T140.2 3t-4-5.9l2.3-1q1.7 1.7 3 3.9 1.4 2.1 2.2 4.7t.8 5.7" aria-label="传递相互作用（玻色子）"/></switch><g font-size="24" opacity="0.7" text-anchor="end" transform="translate(85 315)"><switch><path d="m-33.7-1.7 1.2-1 2.5 1 2.6 1.2 2 1-1.2 1.3-2-1.2-2.6-1.2zM-35-8.4h1.9v2.2q0 1-.3 2t-1.1 2.1-2.6 2.1-4.6 1.9l-.5-.7-.7-.7q2.2-.6 3.7-1.2 1.4-.7 2.3-1.4.9-.8 1.3-1.5t.5-1.3l.1-1.3zm-6-2.6h5.3l.3-2.4h-7.5v4.9l-.4 3.5q-.3 1.8-.8 3.5t-1.5 3.1l-.7-.5-.8-.4q.8-1.3 1.3-3 .5-1.5.8-3.2l.3-3.2v-9.7l4.5-.2 4.6-.4 4.2-.4 3.3-.6 1.5 1.4-3 .6-3.5.4-.3 2.6h8.2v1.6h-8.4l-.3 2.4h6.9v8.4h-2v-6.7h-10.3v6.6H-41zm5.7-4 .2-2.4-3.9.3-3.9.2v1.9Zm17.3-1v1.4h12V-16zm0-2.3v1.3h12v-1.3zm-1.8-1h15.5v5.7h-15.5zm-3 6.8h21.6v1.3h-21.6zm4.3 6v1.3h5.6v-1.4zm7.3 0v1.3h5.8v-1.4zM-18.5-9v1.4h5.6V-9zm7.3 0v1.4h5.8V-9zm-11.7 9h10v-1.5h-8v-1.2h8v-1.4h-7.3v-6h16.6v6h-7.6v1.4H-3v1.2h-8.2V0H-1v1.4h-21.8z" aria-label="质量" style="font-size:24px;opacity:.4225"/></switch><switch><path d="M-37.2 30.2H-43v3.5h6zm2 0v3.5h6.1v-3.5zm-2-1.7v-3.4H-43v3.4zm2 0h6.1v-3.4h-6.2zm-9.8-5.2h7.8V20h2v3.4h8v12.1h-8V38q0 1 .3 1.4t1.3.3h5.1q.7 0 1-.3.4-.4.5-1.2l.3-2.4.9.5.9.3q-.2 1.8-.5 2.9t-1 1.5-2 .5h-5.3q-1.3 0-2-.3-.8-.3-1.1-1-.4-.8-.4-2.2v-2.6H-43V37h-2zm29.4 3.4h14.4v1.7h-2.4v11.2q0 .9-.2 1.3t-.8.6l-1.7.3h-2.6l-.2-.9-.4-.8h3.6l.5-.1.1-.4V28.4h-10.3zm-2.1-1.1 1.7.5-1 1.8-1 1.7v12.3h-1.8v-10L-21 33q-.5.6-1.2 1.1l-.5-.8-.6-.7q1.7-1.3 3.1-3.2t2.5-4m2.4 5h7.6v6.8h-6V39h-1.6zm1.7 1.6v3.7h4.3V32Zm4.9-12.4H-7v2h5.6v1.6H-7v2.2h-1.8v-2.2h-6.6v2.2h-1.8v-2.2h-5.4v-1.6h5.4v-2h1.8v2h6.6z" aria-label="电荷" style="font-size:24px;opacity:.4225"/></switch><switch><path d="M-42.3 70.1v3.6h12.9V70zm0-1.7h12.9V65h-12.9zm0 7v3.5h12.9v-3.6zm5.2-15.6 2.1.3-.6 1.5-.6 1.5h8.7v18.7h-2v-1.2h-12.8v1.3H-44V63.1h6l.6-1.7zm17.2.7 1.6-.5 1 1.7.8 1.6-1.3.5h4.5v1.7h-5.3l-.1 3.1h4.4v.8l-.2 5-.1 3.5-.3 2q-.1.7-.4 1-.2.4-.6.6l-.8.2H-19l-.1-.9-.3-.8 1.2.1h1.3q.2 0 .3-.3.2-.3.3-1.2l.2-3 .2-5.3h-2.8q-.2 3.7-.9 6.7-.6 2.9-2.3 5l-.6-.8-.8-.5q1.4-1.6 2-3.8.7-2.3.8-5.2.2-2.8.2-6.2h-2.5v-1.7h4.7L-19 62zm8 10.6h1.6V73l-.2 1.8q.4 1.6 1 2.6t1.4 1.5V68.8h-4.2v-1.4l-.5.6-.7-.6-.8-.5q1.2-1.3 2.1-3.2 1-1.8 1.4-3.9l1.8.4-.4 1.4-.5 1.3H-1v1.7h-9.6l-1.5 2.6h9.8l1.1.3-.9 2.3-1 2-1.3-.6 1-2.4h-3.1V73h4.6v1.6h-4.6v5l1 .2h4.8l-.4.8-.2.8h-3.2q-1.5 0-2.7-.3T-9.4 80t-1.6-2.5q-.3 1.3-.9 2.4-.5 1.1-1.3 2l-.6-.7q-.3-.4-.6-.5 1-1 1.5-2.5.5-1.6.8-3.4.2-1.8.2-3.7" aria-label="自旋" style="font-size:24px;opacity:.4225"/></switch></g><switch style="fill:#c9f;font-size:54px;font-weight:700" transform="rotate(-90 415 345)"><path d="m113.9-27.2-1 6.7-2.7-1-2.6-1.3v25h-5.7v-12.5Q98.8-7.6 96.3-4q-2.4 3.7-3.8 8l-3-1.5q-1.9-.7-3.3-1 1.6-3.8 3.8-7.2 2.2-3.3 5-6h-3.6v-20.6h3.3q-2.2-2.3-4.2-5.3-2-2.8-3.7-6.2 1.3-.5 2.9-1.6t2.4-2.1q2 4.3 4.5 7.7t5.3 5.9v-12.2h5.7v16.2q3 1.7 6.3 2.7m-17.2-3v16.8l2.5-2 2.7-1.8V-26q-2.6-1.8-5.2-4.3m-8.8-11.4v38.8h-5.3v-25L79-29v23.2l-1-.1-1.6-.3Q71.7-7 69-8t-3.8-2.3q-1-1.1-1.3-2.4t-.5-3l-.1-3.7.1-5q1.4 0 3-.6t2.8-1.3l-.3 4.8v5l.4 1q.9 1.3 4.6 2.3v-24.5l4 1.6 4.7 1.6v-7zm-53.5 8h-5.9v23.2h5.9zm20.5 8v6.7h-4.6V1.7h-5.9v-20.6h-4.3v15.2H22.8v-9h-9.9q-1.3 0-1.7.4t-.3 1.8v5.3q0 1 .5 1.4.5.5 2 .7l4.8.3q-.7 1.1-1.5 2.9-.7 1.8-1 3.1Q11.4 3 9 2.1T5.7-.3t-1-4.3v-6.9q0-3.1.8-4.8.7-1.8 2.5-2.4 1.8-.7 4.8-.7h10v-6.2q-3.5-.4-6.4-1.4t-5.2-2.8q-2.3-2-4-5.3-2-3.4-3.2-8.7 1.4-.4 3.2-1.6 1.8-1 2.9-2.1.8 4.5 2 7.2 1.2 2.9 2.8 4.4t3.5 2.3 4.4 1v-7.2H40v14.3h4.3v-20h5.9v20z" aria-label="夸克"/></switch><g transform="translate(100 275)"><use xlink:href="#k"/><text x="120" y="120" class="psymr">u</text><text x="15" y="40" class="pmass">≈2.16 MeV/c²</text><text x="15" y="80" class="pchar">⅔</text><text x="15" y="120" class="pspin">½</text><switch transform="translate(120 200)"><path d="M-3.5-34.9H.8v12.6H16v4H.8v15.8H19v4h-38v-4h15.5z" aria-label="上" class="pname" style="font-weight:600;font-size:42px;text-anchor:middle;fill:#012"/></switch></g><g transform="translate(100 525)"><use xlink:href="#k"/><text x="120" y="120" class="psymr">d</text><text x="15" y="40" class="pmass">≈4.70 MeV/c²</text><text x="15" y="80" class="pchar">−⅓</text><text x="15" y="120" class="pspin">½</text><switch transform="translate(120 200)"><path d="M-18.7-32.4h37.5v4H1.3v7.2L2-22l3.8 2 4.1 2.2 3.8 2.3 3 2.1L14-9.7q-1.4-1.2-3.5-2.6-2-1.4-4.5-2.8-2.3-1.5-4.6-2.7V3.4H-3v-31.7h-15.7z" aria-label="下" class="pname" style="font-weight:600;font-size:42px;text-anchor:middle;fill:#012"/></switch></g><g transform="translate(350 275)"><use xlink:href="#k"/><text x="120" y="120" class="psymr">c</text><text x="15" y="40" class="pmass">≈1.2730 GeV/c²</text><text x="15" y="80" class="pchar">⅔</text><text x="15" y="120" class="pspin">½</text><switch transform="translate(120 200)"><path d="m-12.6-13.4 3.5-1.4 2 2.3q1 1.3 1.3 2.3l-1.9.8H-2v-6h4v6h3.8q1-1.3 1.9-3 1-1.5 1.5-2.8l4 1.3-1.5 2.4L10-9.4h8.6v3.5H6.3Q9-4 12.3-2.8q3.6 1.3 7.4 2-.7.5-1.4 1.6-.8 1-1.2 2-4.5-1-8.4-3-4-2.2-6.7-5v8.7h-4v-8.8q-3 2.8-6.9 5-4 2.1-8.2 3.2L-18.2 1q-.7-1-1.5-1.6 3.6-.7 7-2 3.5-1.5 6-3.3h-11.8v-3.5h8.8l-1.3-2zM1-25.3l2.3-2.5 3 1.6q1.6.8 3.1 1.8 2.4-2.2 3.9-4.9H1.5v-3.3h13.7l.7-.1 2.5 1q-1 2.8-2.4 5-1.5 2.4-3.3 4.3 2 1.2 3.6 2.4t2.8 2.3l-2.6 2.8q-1.1-1.1-2.8-2.4L9.9-20q-2 1.5-4.4 2.7-2.2 1.1-4.7 2l-.9-1.8q-.6-1-1.1-1.5 4.2-1.2 7.8-3.5-1.5-1-2.9-1.7zm-14.6-5.6 3.3.8-.5 1.2-.5 1.2h2.5v-7.8h3.6v2.5H.3v3h-5.5v2.3h2.8l.7-.1 2.4 1q-1.5 4-4.1 6.7-2.7 2.7-6.3 4.5t-7.5 2.8l-.9-1.6q-.5-1-1-1.6l4-1q2-.7 3.7-1.6l-1.5-1.3-1.7-1.3 2.2-2 2 1.4 1.8 1.5 2.4-2q1-1.1 1.9-2.4H-13q-2 2.8-4.4 4.6l-1-1.4-1.2-1.3q2-1.4 3.5-3.5 1.6-2 2.4-4.6" aria-label="粲" class="pname" style="font-weight:600;font-size:42px;text-anchor:middle;fill:#012"/></switch></g><g transform="translate(350 525)"><use xlink:href="#k"/><text x="120" y="120" class="psymr">s</text><text x="15" y="40" class="pmass">≈93.5 MeV/c²</text><text x="15" y="80" class="pchar">−⅓</text><text x="15" y="120" class="pspin">½</text><switch transform="translate(120 200)"><path d="M-18.9-19h38v3.5h-5.6V-.9q0 1.6-.5 2.5t-1.7 1.3-3.4.5q-2 .2-4.8.2l-.6-2-.9-1.8h2.9l2.3.1h1.5q.6 0 .9-.2.2-.2.2-.7v-14.5H-19Zm17-16.5h4.2l-.2 2q0 1-.3 1.8h15v3.5H1l-.1.4q2.6.8 5.5 2l5.5 2q2.6 1 4.5 2l-2.9 2.7-4-1.8-5.2-2-5.2-2q-1.8 2.2-5.3 3.6-3.4 1.5-9.3 2.3-.2-.7-.8-1.7-.5-.9-1-1.4 4.2-.5 6.9-1.3t4.4-2 2.6-2.8h-13.3v-3.5h14.5l.3-1.8zM-11-9.3v5h9.9v-5zm-3.8-3.1H2.6v11.2H-11v2.8h-3.8z" aria-label="奇" class="pname" style="font-weight:600;font-size:42px;text-anchor:middle;fill:#012"/></switch></g><g transform="translate(600 275)"><use xlink:href="#k"/><text x="120" y="120" class="psymr">t</text><text x="15" y="40" class="pmass">≈172.57 GeV/c²</text><text x="15" y="80" class="pchar">⅔</text><text x="15" y="120" class="pspin">½</text><switch transform="translate(120 200)"><path d="M6.3-20.5h4v8.2q0 2-.6 4.2Q9.2-6.1 8-4 6.6-2 4.2 0t-6.4 3.4l-1-1.6L-4.7.4q3.8-1.2 6-2.8t3.3-3.2T6-9t.3-3.3zm2.3 17L11.1-6l3.1 2 3.1 2.5Q19-.3 19.8.7l-2.7 3q-.9-1.1-2.4-2.4l-3-2.4zm-9.9-23h6l.6-1.8.4-2H-3v-3.4h22.4v3.5H9.9l-1.3 3.7h9.3v20H14v-16.3H2.4v16.4h-3.7Zm-18-6.1h15.5v3.7h-5.1v26.3q0 1.7-.4 2.6t-1.5 1.5-2.7.6q-1.6.2-4 .2l-.6-2-1-2h5.4q.5 0 .7-.2t.2-.7v-26.3h-6.5z" aria-label="顶" class="pname" style="font-weight:600;font-size:42px;text-anchor:middle;fill:#012"/></switch></g><g transform="translate(600 525)"><use xlink:href="#k"/><text x="120" y="120" class="psymr">b</text><text x="15" y="40" class="pmass">≈4.183 GeV/c²</text><text x="15" y="80" class="pchar">−⅓</text><text x="15" y="120" class="pspin">½</text><switch transform="translate(120 200)"><path d="m.2-7 3-1 1.6 3.3 1.5 3.4 1 2.8L4.1 3q-.3-1.3-1-3L1.7-3.6Q1-5.4.2-6.9m-9 10.2-.6-1.7q-.4-1-.8-1.5L-9-.8q.6-.6.6-1.8V-24l8-.4 7.7-.7 6.2-1 3 3-4.1.8-4.7.6.3 3.4q.1 1.7.4 3.3h9.5v3.5H9q.7 3.2 1.7 5.7 1 2.4 2 3.8Q14-.7 15-.7q.7 0 1-1.4t.4-4.3q.6.6 1.5 1l1.6.8q-.2 3-.8 4.7-.5 1.7-1.5 2.3-1 .7-2.4.7-2.3 0-4.2-1.9T7.3-3.9Q6-7.3 5.1-11.5h-9.8v9.2L1-3.9v3.4Q-1.7.5-3.6 1l-2.8 1-1.5.6zM4.5-15q-.4-3-.6-6.3l-4.3.3-4.3.2v5.8zm-5.7-19.5 3.7-1.2q1.4 2.1 2.2 4.4h14.5v3.5h-31.4v8.4l-.2 5.5q-.1 3-.6 6.2-.4 3-1.3 6t-2.2 5.4l-1.6-1.3q-1-.7-1.8-1 1.3-2.2 2-4.9.8-2.6 1.2-5.4t.4-5.5l.2-5v-12H.4L-.3-33z" aria-label="底" class="pname" style="font-weight:600;font-size:42px;text-anchor:middle;fill:#012"/></switch></g><switch style="fill:#5c2;font-size:54px;font-weight:700" transform="rotate(-90 670 600)"><path d="m84.7-45 1.6-.5 2.1-.8 1.8-.7q.3.9 1.4 1.5t3 1.3l2.7 1 4.7 1.3v-4.9h6v6.3l3 .6 2.9.5-1.1 6.1-2.4-.5-2.4-.5v8.4h-6v-10l-5.5-2q-2.7-.8-5.1-1.8v3h7.8v6h-7.8v4.3h-5.9v-4.3h-5.1l.7 4.5-5.6.3-1-4.8h-11v-6h10l-1.7-9.5 6.2-1.3.6 5 .9 5.9h6v-4.2l-.2-2.6q-.2-1.3-.6-1.7m26.5 21v19.3l.3 1.2-2.3 4.5q-3.4-1.4-6.4-3.5-2.9-2-5.4-4.5l-2.7 5.5q-1.4 2.7-2.6 4.3L87-1.1q1.3-1.7 3-4.7 1.8-3 3.3-6-2-2.6-3.5-5.6-1.6-2.9-2.8-5.9 1.2-.6 2.8-1.8l2.7-2.2q1.9 5.5 5.2 10.4t7.7 8.2v-15.4zm-25 0V.5h-5.9v-8.8h-10V2.9h-6v-29.7h6v12h10V-24zM39-25q1.2 2.5 2.9 5.3t3.5 5.2v-26.7h6.4v33.8l.3 1.5-3.8 5Q45-4.4 41.5-9q-3.4-4.7-6-9.3h-4v21h-6.6v-21h-13q-2.7 0-4.3-.8-1.5-.7-2.2-2.6t-1-4.8-.2-6.6q1.5-.2 3.4-1.1 2-.8 3.3-1.6l-.1 3.8v5.3q0 1 .3 1.3t1 .3h12.8v-21.5h6.6V-25z" aria-label="轻子"/></switch><g transform="translate(100 790)"><use xlink:href="#l"/><text x="120" y="120" class="psymr">e</text><text x="15" y="40" class="pmass">≈0.5110 MeV/c²</text><text x="15" y="80" class="pchar">−1</text><text x="15" y="120" class="pspin">½</text><switch transform="translate(120 200)"><path d="M-23.4-16.6H-33v5h9.5zm4.2 0v5h9.7v-5zm-4.2-3.7v-5.2H-33v5.2zm4.2 0h9.7v-5.2h-9.7zm-17.8-9h13.6v-6h4.2v6h13.7v21.7h-13.7v3.5q0 1.3.2 2 .2.5.8.8.6.2 1.8.2h8q1.2 0 1.8-.5t.8-2 .5-4q.7.5 1.9 1t2 .7q-.3 3.3-1 5.2-.5 2-1.9 2.8t-3.7.8h-8.8q-2.6 0-4-.6-1.5-.6-2-2.2-.6-1.5-.6-4.3v-3.4H-33v2.5h-4zM19.1-23q2.4-1 5-2.7 2.5-1.6 4.6-3.2H6.2v-3.9h26.9l.8-.2 3 2.3q-1.7 1.8-4 3.6L28-23.8l-4.8 3v3.8H40v4H23.3v11.6q0 1.8-.6 2.7T21 2.8t-3.5.6h-5q-.2-.8-.8-2l-1-2 4.6.1H18q.7 0 1-.3.2-.2.2-.7V-13h-17v-4h17Z" aria-label="电子" class="pname" style="font-weight:600;font-size:42px;text-anchor:middle;fill:#012"/></switch></g><g transform="translate(100 1040)"><use xlink:href="#l"/><text x="120" y="115" class="psymg">ν<tspan class="sub">e</tspan></text><text x="15" y="40" class="pmass">&lt;0.8 eV/c²</text><text x="15" y="80" class="pchar">0</text><text x="15" y="120" class="pspin">½</text><switch transform="translate(120 200)"><path d="M-65.4-16.6H-75v5h9.5zm4.2 0v5h9.7v-5zm-4.2-3.7v-5.2H-75v5.2zm4.2 0h9.7v-5.2h-9.7zm-17.8-9h13.6v-6h4.2v6h13.7v21.7h-13.7v3.5q0 1.3.2 2 .2.5.8.8.6.2 1.8.2h8q1.2 0 1.8-.5t.8-2 .5-4q.7.5 1.9 1t2 .7q-.3 3.3-1 5.2-.5 2-1.9 2.8t-3.7.8h-8.8q-2.6 0-4-.6-1.5-.6-2-2.2-.6-1.5-.6-4.3v-3.4H-75v2.5h-4zm55.8-6.1h4.2v7.3h15v20.4h-4V-10h-11V3.5h-4.2V-10h-11v2.5H-38V-28h15zm-11 21.5h11v-10.2h-11zm26.2 0v-10.2h-11V-14zM8-35.5l3.7 1.4q-1.7 2.6-4 5.3T3-24.2l-1-1.5-1-1.6q1.3-1 2.6-2.4t2.5-3Q7.3-34 8-35.4m5.7 22h11v7l3.1-1.7.4 1.5.5 1.3q-2.7 1.7-4 2.7l-2 1.5-1 1q-.1-.8-.5-1.8l-.9-1.6q.5-.2.9-.9t.4-1.8v-4H17v1.7q0 1.8-.3 4-.3 2-1.2 4.2-.8 2-2.4 3.7l-.7-1-1-1-.8-.6q1.3-1.4 2-3t.8-3.2l.2-3.1zm17.6-10-.4 1.4q.3 2.9.9 5.6.5 2.6 1.3 5 1-2.6 1.5-5.6t1-6.5zM12-19h13.9q1.6-3.2 2.5-7.5 1-4.3 1.4-9l3.6.6-.6 4q-.2 2-.7 4h8.4v3.3H39q-.6 5-1.6 9.2-1 4-2.6 7.5 1.2 2.3 2.6 4.1Q39.1-1 41 .2l-1.4 1.5-1.2 1.7q-1.7-1.3-3-3t-2.5-3.7q-2.6 4-6.8 7L25 2 23.9.8q2.4-1.6 4.2-3.5 1.8-2 3.1-4.5L30-11.7l-1-5-.7 1.2-.6 1-.7-.9-.9-1v.8H12Zm.6-13h2.6v7.1H18v-10.5h3V-25h2.4v-7h2.8v10.3H12.6Zm-3.7 5.2 3.4 1.2q-.5 1.2-1.3 2.5l-1.5 2.6v24H6v-18.8l-1.5 2-1.6 1.6-.6-1-.9-1.4-.7-1.1q2.3-2.2 4.5-5.3T9-26.8M61-23q2.4-1 5-2.7 2.5-1.6 4.6-3.2H48.2v-3.9h26.9l.8-.2 3 2.3q-1.7 1.8-4 3.6L70-23.8l-4.8 3v3.8H82v4H65.3v11.6q0 1.8-.6 2.7T63 2.8t-3.5.6h-5q-.2-.8-.8-2l-1-2 4.6.1H60q.7 0 1-.3.2-.2.2-.7V-13h-17v-4h17Z" aria-label="电中微子" class="pname" style="font-weight:600;font-size:42px;text-anchor:middle;fill:#012"/></switch></g><g transform="translate(350 790)"><use xlink:href="#l"/><text x="120" y="120" class="psymg">μ</text><text x="15" y="40" class="pmass">≈105.66 MeV/c²</text><text x="15" y="80" class="pchar">−1</text><text x="15" y="120" class="pspin">½</text><switch transform="translate(120 200)"><path d="M-16.7-3.4Q-18.3.5-22 .5q-2.6 0-3.6-1.8h-.1V9.1h-4.8V-21h4.8v12.5q0 2.2 1.1 3.6t3.1 1.4q2.1 0 3.3-1.6t1.2-4.3V-21h4.8v13.9q0 3.4 2.2 3.4.6 0 1-.2V0q-1.6.3-2.8.3-2 0-3.1-.9t-1.6-2.7zM10.7-23q2.4-1 5-2.7 2.5-1.6 4.6-3.2H-2.2v-3.9h26.8l1-.2 3 2.3-4.1 3.6-4.8 3.3-4.8 3v3.8h16.8v4H14.9v11.6q0 1.8-.6 2.7t-1.8 1.5-3.5.6H4q-.2-.8-.8-2l-1-2 4.6.1h2.7q.7 0 1-.3.2-.2.2-.7V-13h-17v-4h17Z" aria-label="μ子" class="pname" style="font-weight:600;font-size:42px;text-anchor:middle;fill:#012"/></switch></g><g transform="translate(350 1040)"><use xlink:href="#l"/><text x="120" y="115" class="psymg">ν<tspan class="sub">μ</tspan></text><text x="15" y="40" class="pmass">&lt;0.17 MeV/c²</text><text x="15" y="80" class="pchar">0</text><text x="15" y="120" class="pspin">½</text><switch transform="translate(120 200)"><path d="M-58.7-3.4Q-60.3.5-64 .5q-2.6 0-3.6-1.8h-.1V9.1h-4.8V-21h4.8v12.5q0 2.2 1.1 3.6t3.1 1.4 3.3-1.6 1.2-4.3V-21h4.8v13.9q0 3.4 2.2 3.4.6 0 1-.2V0q-1.6.3-2.8.3-2 0-3.1-.9t-1.6-2.7zm27.1-32h4.2v7.3h15v20.4h-4V-10h-11V3.5h-4.2V-10h-11v2.5h-3.9V-28h15zm-11 21.5h11v-10.2h-11zm26.2 0v-10.2h-11V-14zm16-21.6L3.4-34q-1.7 2.6-4 5.3t-4.6 4.6l-1-1.5-1.1-1.6q1.3-1 2.7-2.4 1.3-1.4 2.5-3Q-1-34-.2-35.4m5.7 22h11v7l3.1-1.7.4 1.5.5 1.3q-2.7 1.7-4 2.7l-2 1.5-1 1q-.1-.8-.5-1.8l-.9-1.6q.5-.2.9-.9t.4-1.8v-4H8.6v1.7q0 1.8-.3 4-.2 2-1 4.2-.9 2-2.5 3.7l-.7-1-1-1-.8-.6q1.3-1.4 2-3T5-5.5l.2-3.1zm17.6-10-.4 1.4q.3 2.9.9 5.6.5 2.6 1.3 5 1-2.6 1.5-5.6t1-6.5zM3.6-19h13.9q1.6-3.2 2.5-7.5 1-4.3 1.4-9l3.6.6-.6 4-.7 4h8.4v3.3h-1.4q-.6 5-1.6 9.2-1 4-2.6 7.5 1.2 2.3 2.6 4.1 1.6 1.8 3.4 3l-1.3 1.5L30 3.4q-1.7-1.3-3-3t-2.5-3.7q-2.6 4-6.8 7l-1-1.6L15.5.8q2.4-1.6 4.2-3.5 1.8-2 3.1-4.5l-1.3-4.5-1-5-.7 1.2-.6 1-.7-.9-.9-1v.8h-14Zm.6-13h2.6v7.1h2.7v-10.5h3V-25h2.4v-7h2.8v10.3H4.2ZM.5-26.8l3.4 1.2q-.5 1.2-1.3 2.5l-1.5 2.6v24h-3.6v-18.8l-1.5 2-1.6 1.6-.6-1-.9-1.4-.7-1.1q2.3-2.2 4.5-5.3t3.8-6.3M52.7-23q2.4-1 5-2.7 2.5-1.6 4.6-3.2H39.8v-3.9h26.8l1-.2 3 2.3-4.1 3.6-4.8 3.3-4.8 3v3.8h16.8v4H56.9v11.6q0 1.8-.6 2.7t-1.8 1.5-3.5.6h-5q-.2-.8-.8-2l-1-2 4.6.1h2.7q.7 0 1-.3.2-.2.2-.7V-13h-17v-4h17z" aria-label="μ中微子" class="pname" style="font-weight:600;font-size:42px;text-anchor:middle;fill:#012"/></switch></g><g transform="translate(600 790)"><use xlink:href="#l"/><text x="120" y="120" class="psymg">τ</text><text x="15" y="40" class="pmass">≈1776.93 MeV/c²</text><text x="15" y="80" class="pchar">−1</text><text x="15" y="120" class="pspin">½</text><switch transform="translate(120 200)"><path d="M-11-17.4h-7.7v11.1q0 2.6 2.3 2.6 1 0 2.2-.4v3.8q-1.7.6-3.5.6-5.8 0-5.8-6.2v-11.5H-26q-2.7 0-5.1 2v-4q1.7-1.6 5.5-1.6H-11zM9-23q2.3-1 4.9-2.7 2.5-1.6 4.6-3.2H-4v-3.9h27l.9-.2 3 2.3q-1.8 1.8-4.1 3.6L18-23.8l-5 3v3.8h17v4H13v11.6q0 1.8-.5 2.7t-1.8 1.5-3.5.6h-5l-.7-2-1-2L5-.5h2.8q.7 0 .9-.3t.2-.7V-13H-8v-4H9z" aria-label="τ子" class="pname" style="font-weight:600;font-size:42px;text-anchor:middle;fill:#012"/></switch></g><g transform="translate(600 1040)"><use xlink:href="#l"/><text x="120" y="115" class="psymg">ν<tspan class="sub">τ</tspan></text><text x="15" y="40" class="pmass">&lt;18.2 MeV/c²</text><text x="15" y="80" class="pchar">0</text><text x="15" y="120" class="pspin">½</text><switch transform="translate(120 200)"><path d="M-53-17.4h-7.7v11.1q0 2.6 2.3 2.6 1 0 2.2-.4v3.8q-1.7.6-3.5.6-5.8 0-5.8-6.2v-11.5H-68q-2.7 0-5.1 2v-4q1.7-1.6 5.5-1.6H-53zm19.6-18h4.2v7.3h15.1v20.4h-4.1V-10h-11V3.5h-4.2V-10h-11v2.5h-3.9V-28h15zm-11 21.5h11v-10.2h-11zm26.2 0v-10.2h-11V-14zm16-21.6L1.6-34q-1.6 2.6-4 5.3Q-4.7-26-7-24.1l-1-1.5-1-1.6q1.3-1 2.6-2.4t2.5-3Q-2.7-34-2-35.4m5.7 22h11.1v7l3-1.7.4 1.5.5 1.3-4 2.7-2 1.5-1 1q0-.8-.5-1.8T10-3.6q.5-.2.9-.9t.4-1.8v-4H7v1.7q0 1.8-.3 4-.3 2-1.2 4.2-.8 2-2.4 3.7l-.7-1-1-1L.6.8q1.3-1.4 2-3t.8-3.2l.2-3.1zm17.6-10-.4 1.4q.4 2.9 1 5.6t1.3 5q.9-2.6 1.5-5.6t1-6.5zM1.8-19h13.9q1.6-3.2 2.5-7.5 1-4.3 1.4-9l3.6.6-.5 4-.8 4h8.4v3.3H29q-.6 5-1.6 9.2-1 4-2.5 7.5 1.1 2.3 2.6 4.1t3.4 3l-1.4 1.5-1.2 1.7q-1.7-1.3-3-3t-2.5-3.7q-2.6 4-6.8 7l-1-1.6L13.7.8Q16.2-.8 18-2.7q1.8-2 3-4.5l-1.3-4.5-1-5-.7 1.2-.6 1-.7-.9-.8-1v.8H1.8Zm.6-13h2.7v7.1h2.6v-10.5h3V-25H13v-7h3v10.3H2.4Zm-3.7 5.2 3.5 1.2-1.3 2.5-1.5 2.6v24h-3.7v-18.8l-1.5 2-1.6 1.6-.6-1-.8-1.4-.8-1.1q2.3-2.2 4.5-5.3t3.8-6.3M50.9-23q2.4-1 5-2.7 2.5-1.6 4.6-3.2H38v-3.9h27l.9-.2 3 2.3q-1.8 1.8-4.1 3.6L60-23.8l-5 3v3.8h17v4H55v11.6q0 1.8-.5 2.7t-1.8 1.5-3.5.6h-5l-.7-2-1-2 4.5.1h2.8q.7 0 .9-.3t.2-.7V-13H34v-4h17z" aria-label="τ中微子" class="pname" style="font-weight:600;font-size:42px;text-anchor:middle;fill:#012"/></switch></g><switch style="fill:#ff6c6c;font-size:54px;font-weight:700" transform="rotate(-90 1220 50)"><path d="M288.5-24V1.2h-28.8v-6.4h23.2v-12.5h-23.2v-6.1zm1.9-15v6h-7.8v6.6h-6v-6.5h-6.5v7.2h-6.2v-7.6l-1-.1q-.7.8-2.2 2l-3 2.6-2.9 2.5-1.9 1.6-4.6-4.4 3.7-2.5 4.2-3q-4.2-1-8.3-3.1-4-2-7.2-5.4 1-.7 2.4-2t2-2.6q2.5 2.8 5.6 4.4t6.5 2.6 6.7 1.2v-7.6h6.2v8h6.5v-7h6v7zm-10.9 24.5v6h-8.6l-4.6-.2q-2.4-.2-5-.8v2.1h-13.2q-1 0-1.4.4t-.4 1.1v2.5q0 .7.6 1t2.4.6l5.1.3q-.8 1.1-1.5 2.5-.6 1.5-.8 2.5-4.1-.2-6.5-.8-2.3-.6-3.2-2t-1-4V-7q0-3.2 1.2-4.6t4.8-1.4h4.8q-3.4-2-6.4-5.1t-5.6-7.7l1.6-1.1 1.7-1.5 1.3-1.5q2.7 5.2 6 8.3 3.2 3 6.7 4.6t7 2 6.5.5zm-93-31 3.8 4.1 4.7 4.7 5 4.7-5 3.5-7-6q-3.6-3.3-6.8-6.5zm27 2.2 4.1 3.6-1.7 3.4-2 3.6-1.8 2.9-4.8-3.9 1.9-2.7 2.2-3.5zm-9.9-3.3 4.3 3.6-1.7 3.3-2 3.6-1.7 3-4.8-3.8q.8-1 1.9-2.8l2-3.5zm12 19.4V-1h-13.2q-2.3 0-3.7-.7-1.4-.5-2-2.3-.8-1.8-1-4.1v-5.5q1.3-.3 3-1 1.8-.7 3-1.4v8q.3.3.8.3h7v-12.8h-18.2q-1.4 0-2 .2t-1 1.1l-.1 2.6v10.1q0 1.5.4 2.2.6.8 2 1.1t4.1.6q-.7 1.1-1.5 3-.7 1.7-1 3.2-3.8-.5-6-1.5T183-.6t-.9-5.3v-11.3q0-3.8.8-6t2.8-3.1 5.5-.9zm16.3 11.7v6.8h-4V2.4h-6V-8.7h-4.3v-6.8h4.4v-13.1h-4.4v-6.7h4.4v-11.1h6v11.1h3.9v6.7h-4v13.1zm-66.3-12.8v11.8h7.3v6.2h-7.3v7.4l.2 1-1 4.6q-3-.7-6.3-1.7L153-.8l1.3-5.6q1 .4 2.4.7l3 .8v-5.4h-7.6v6l.2 1.1-1.5 4q-5.5-1.1-9.9-3.2-4.3-2-7.8-4.8-1.7 2.3-3 5-1.2 2.6-2 5.7-1-1-2.7-2.3l-3-2q2.1-6.4 6-11-2-2.3-3.5-5t-2.8-5.7q1.2-.5 2.8-1.6 1.5-1 2.4-1.9 2 5.6 5.5 9.9 4.8-3.8 11-6.3-3.6-.4-7.5-1.2-3.8-.7-7.4-2.1t-6.4-3.8q.6-.4 1.4-1.4.8-.8 1.5-1.8l1.2-1.6q1.5 1.2 3.3 2.1t3.7 1.6l-6-15.8 6.1-1.3 2 6.4h12.6v-5.3h6v5.3h9.5v-6h6v17.5h-6v-5.5h-9.6v4.4h-6v-4.4h-10.3l1.7 4.4-4.4.9q4 1.1 8.2 1.4t7.6.3zm-6 11.8v-5.7h-7.5v5.7zm-13.2 9.8v-10.6q-5.2 2-9.2 5.6 2 1.5 4.3 2.8t4.9 2.2M92.9-24.6v-10h-6.5v10zm0 6.3h-6.5v10H93zm11-.2v-12l-2.6-2.3-2.5-2.4V-23q2.4 2.4 5.2 4.5M114.4-31l-2.3 5.9-2.3-1.4V-14l.4 1.2-3.2 4.2-4-3q-2.1-1.8-4-3.7V-2H78.6v-6.4h1.8v-26.3H74q-1.6 0-2.5.5t-1 2-.3 4.3v18.4q0 2.6.5 4 .6 1.2 2.3 1.8t5 1L76.7.2Q76 2 75.8 3.3q-4.5-.5-7-1.7t-3.5-3.7-1-7.1v-18.6q0-5 .8-8 .8-2.8 2.9-4t6-1.2h19.7l-1.2-1.6-1.1-1.5 1.9-1 2.3-1.3q1.2-.6 2-1.2 1.9 3.2 4.5 6.3 2.7 3.2 5.8 5.8 3.1 2.7 6.5 4.5m-75.3 6q1.2 2.5 2.9 5.3t3.5 5.2v-26.7h6.4v33.8l.3 1.5-3.8 5Q45-4.4 41.5-9q-3.4-4.7-6-9.3h-4v21h-6.6v-21h-13q-2.7 0-4.3-.8-1.5-.7-2.2-2.6t-1-4.8-.2-6.6q1.5-.2 3.4-1.1 2-.8 3.3-1.6l-.1 3.8v5.3q0 1 .3 1.3t1 .3h12.8v-21.5h6.6V-25z" aria-label="规范玻色子"/></switch><g transform="translate(860 275)"><use xlink:href="#m"/><text x="120" y="120" class="psymr">g</text><text x="15" y="40" class="pmass">0</text><text x="15" y="80" class="pchar">0</text><text x="15" y="120" class="pspin">1</text><switch transform="translate(120 200)"><path d="m-11.4-23.3 2.8-2q1.3 1.2 2.7 2.8t2.6 3.1 2 2.8l-3 2.4-1.8-2.9-2.6-3.2q-1.3-1.6-2.7-3m1.7 5.7 3.7 1q-1.7 6-5.2 10.6 4 4 9.9 5.9-.7.6-1.5 1.6L-4 3.4q-5.7-2.2-9.9-6.5-4.2 4.1-10.2 6.7l-1.1-1.5-1.3-1.3q-.3 1-1.2 1.6-.8.5-2 .6l-2.9.1q0-.7-.4-1.8l-.6-1.7h3.1q.6 0 .6-.7v-9h-4.9q-.2 3.6-.9 7.3t-2 6.5l-1.5-1-1.6-.8q1.3-3 2-6.4.5-3.6.6-7.2l.2-6.7v-15h11.7v16.6q2-1.6 3.8-3.9t3-4.4l3.5 1.6q-1 1.7-2.3 3.4l-2.7 3.3 2.6-.7q.8 2.3 2 4.5t2.5 4q2.8-3.7 4.2-8.6m-24.8-12.3v6.2h4.6V-30zm0 9.7v6.4h4.6v-6.4zm8.2 3.8v15.3l-.1 1.6q5.9-2.4 10-6.5-1.7-2.2-3-4.7-1.3-2.6-2.3-5.4l-1 1-1 1-1.2-1.2zm9.2-18 3.7-1.3q1 1.1 1.8 2.6l1.3 2.6-3 1.1h11v3.7h-22.1v-3.7h10q-.3-1-1.1-2.5-.7-1.4-1.6-2.5M19.1-23q2.4-1 5-2.7 2.5-1.6 4.6-3.2H6.2v-3.9h26.9l.8-.2 3 2.3q-1.7 1.8-4 3.6L28-23.8l-4.8 3v3.8H40v4H23.3v11.6q0 1.8-.6 2.7T21 2.8t-3.5.6h-5q-.2-.8-.8-2l-1-2 4.6.1H18q.7 0 1-.3.2-.2.2-.7V-13h-17v-4h17Z" aria-label="胶子" class="pname" style="font-weight:600;font-size:42px;text-anchor:middle;fill:#012"/></switch></g><g transform="translate(860 525)"><use xlink:href="#m"/><text x="120" y="120" class="psymg">γ</text><text x="15" y="40" class="pmass">0</text><text x="15" y="80" class="pchar">0</text><text x="15" y="120" class="pspin">1</text><switch transform="translate(120 200)"><path d="m-36.5-32.2 3.6-1.3 2 3.4 1.8 3.7q.8 1.7 1.1 3.2l-3.8 1.5q-.3-1.4-1-3.2l-1.8-3.7q-.9-2-1.9-3.6m27.4-1.7 4.2 1.4-1.9 3.8-2 3.7q-1 1.8-2 3.1l-3.4-1.3 1.9-3.3q1-1.8 1.8-3.8zm-14-1.5h4v15.7h17v3.8h-11.6V-2q0 1 .3 1.4t1.4.3h5q.7 0 1-.5.5-.5.6-2 .3-1.4.3-4.4l1.8 1 1.9.7Q-1.7-2-2.3 0q-.5 1.9-1.5 2.6t-3 .8h-5.7q-2 0-3.2-.5-1.1-.4-1.6-1.6t-.4-3.3v-14h-7q-.3 3.5-1 6.5t-2.1 5.4-4 4.4q-2.5 2-6.5 3.3-.3-.8-1.1-1.9-.7-1-1.4-1.6 3.7-1 5.9-2.7t3.4-3.6 1.7-4.4q.6-2.5.8-5.3h-10.8v-3.8h16.7zM19-23q2.4-1 5-2.7 2.5-1.6 4.6-3.2H6.2v-3.9h26.9l.8-.2 3 2.3q-1.7 1.8-4 3.6L28-23.8l-4.8 3v3.8H40v4H23.3v11.6q0 1.8-.6 2.7T21 2.8t-3.5.6h-5q-.2-.8-.8-2l-1-2 4.6.1H18q.7 0 1-.3.2-.2.2-.7V-13h-17v-4h17Z" aria-label="光子" class="pname" style="font-weight:600;font-size:42px;text-anchor:middle;fill:#012"/></switch></g><g transform="translate(860 790)"><use xlink:href="#m"/><text x="120" y="120" class="psymr">Z</text><text x="15" y="40" class="pmass">≈91.1880 GeV/c²</text><text x="15" y="80" class="pchar">0</text><text x="15" y="120" class="pspin">1</text><switch transform="translate(120 200)"><path d="M-51.6-27.3-67.8-4h16v4h-22.8v-2.2l16.2-23h-15v-4.2h21.8zm2.3 22.6 2.4-.8 2.8-1V-17h-4.4v-3.7h4.4V-29H-49v-3.7h13.2v3.7h-4.6v8.4h3.7v3.7h-3.7v9.2l4-1.5.6 3.5-6.6 2.6-6 2.4zm15-24.8h9.4v-6h3.8v6h7l.6-.1 2.9.6-1.4 4.7q-.7 2.4-1.4 4.1l-3.4-.8.7-2.2.7-2.6h-5.7v6.7h5.5l.8-.1 2.4.9q-1 4.2-2.7 7.6t-4 6Q-15-1.5-10 0l-1.4 1.6q-.7 1-1.1 1.9Q-18 1.6-22-1.8q-2 1.7-4.3 3T-31 3.7L-32 2q-.6-1-1.2-1.5 4.7-1.6 8.6-4.9-1.9-2.2-3.4-4.9t-2.7-5.8q-.1 3-.6 6.3T-33-2.4q-1 3.1-3 5.6l-1.4-1.4q-1-.8-1.6-1 1.6-2.1 2.5-4.5 1-2.4 1.4-5 .5-2.6.6-5l.2-4.7zm9.4 3.7h-5.7v6.7h5.7zm7.9 10.2h-10q.9 2.4 2.2 4.6 1.3 2 3 3.9 1.5-1.8 2.7-4 1.2-2 2-4.5M10.8-20H2v6.3h9zm4 0v6.3h9V-20zm1.1-8.3H5.6q-2 2.4-4.2 4.6h10.4L14-26zm-10-7.3 3.5 1.4-.6 1.2-.8 1h10.5l.8-.2 2.6 2-2.4 3.2q-1.4 1.7-2.9 3.2h11v15.4h-3.9V-10H2v6q0 1.4.4 2t1.5 1q1.2.2 3.5.2h15.5q2 0 3-.5 1.1-.5 1.6-1.9t.7-4.1q.7.5 1.8.9l2 .5q-.4 3.4-1.3 5.3T28 2t-5 .8H7.5q-3.6 0-5.6-.6t-3-2q-.8-1.4-.8-4.1v-16.8l-1.6 1.2-1.6 1.1-.6-1.1-.8-1.5-.7-1q2.5-1.6 5-3.7Q.2-28 2.3-30.4q2-2.5 3.5-5.3M52.3-23q2.4-1 5-2.7 2.6-1.6 4.7-3.2H39.5v-3.9h26.9l.9-.2 3 2.3q-1.8 1.8-4 3.6l-4.8 3.3-5 3v3.8h17v4h-17v11.6q0 1.8-.5 2.7t-1.8 1.5-3.4.6h-5.1l-.7-2-1-2 4.5.1h2.8q.7 0 .9-.3t.2-.7V-13h-17v-4h17z" aria-label="Z玻色子" class="pname" style="font-weight:600;font-size:42px;text-anchor:middle;fill:#012"/></switch></g><g transform="translate(860 1040)"><use xlink:href="#m"/><text x="120" y="120" class="psymr">W</text><text x="15" y="40" class="pmass">≈80.3692 GeV/c²</text><text x="15" y="80" class="pchar">±1</text><text x="15" y="120" class="pspin">1</text><switch transform="translate(120 200)"><path d="m-43.2-29.4-8 29.4h-5.5l-5.6-20.6q-.4-1.3-.5-2.8l-.5 2.8L-69 0h-5.6l-8.2-29.4h5.3L-72-8q.3 1.4.4 2.9.1-1 .6-2.9l6-21.5h5l5.7 21.7q.3 1.1.4 2.6.1-1 .6-2.7l5.2-21.6zm1.8 24.7 2.5-.8 2.8-1V-17h-4.5v-3.7h4.5V-29H-41v-3.7h13.2v3.7h-4.6v8.4h3.7v3.7h-3.7v9.2l4-1.5.6 3.5-6.7 2.6-6 2.4zm15-24.8h9.4v-6h3.9v6h7l.6-.1 2.8.6-1.3 4.7q-.7 2.4-1.4 4.1L-9-21l.7-2.2.7-2.6H-13v6.7h5.5l.8-.1 2.4.9q-1 4.2-2.7 7.6t-4 6q3.9 3.1 9 4.6l-1.3 1.6q-.8 1-1.2 1.9-5.4-1.8-9.3-5.2-2 1.7-4.3 3T-23 3.7L-24 2q-.6-1-1.2-1.5 4.7-1.6 8.6-4.9-2-2.2-3.5-4.9t-2.6-5.8q-.2 3-.7 6.3T-25-2.4t-3 5.6l-1.4-1.4-1.6-1q1.6-2.1 2.5-4.5t1.4-5l.6-5 .1-4.7zm9.4 3.7h-5.6v6.7h5.6zm8 10.2h-10.1q1 2.4 2.2 4.6 1.3 2 3 3.9 1.5-1.8 2.8-4 1.2-2 2-4.5M18.7-20h-9v6.3h9zm3.9 0v6.3h9V-20zm1.2-8.3H13.5q-2 2.4-4.1 4.6h10.4l2-2.2zm-10.1-7.3 3.6 1.4-.7 1.2-.6 1h10.5l.8-.2 2.6 2q-1 1.5-2.5 3.2l-2.8 3.2h11v15.4h-4V-10H10v6q0 1.4.3 2 .5.7 1.6 1 1.2.2 3.5.2h15.5q2 0 3-.5 1.1-.5 1.5-1.9.5-1.4.7-4.1.8.5 1.9.9t2 .5q-.5 3.4-1.3 5.3T36 2t-5 .8H15.4q-3.6 0-5.7-.6-2-.5-3-2Q6-1.2 6-3.9v-16.8l-1.6 1.2L3-18.4l-.6-1.1-.8-1.5-.8-1q2.6-1.6 5-3.7 2.4-2.2 4.5-4.7t3.6-5.3M60.4-23q2.4-1 5-2.7 2.5-1.6 4.6-3.2H47.5v-3.9h26.8l1-.2 3 2.3-4.1 3.6-4.8 3.3-4.8 3v3.8h16.8v4H64.6v11.6q0 1.8-.6 2.7t-1.8 1.5-3.5.6h-5q-.2-.8-.8-2l-1-2 4.5.1h2.8q.7 0 1-.3.2-.2.2-.7V-13H43.3v-4h17z" aria-label="W玻色子" class="pname" style="font-weight:600;font-size:42px;text-anchor:middle;fill:#012"/></switch></g><switch style="fill:#eb3;font-size:54px;font-weight:700" transform="rotate(-90 940 -410)"><path d="M-7.4-23.8V0h-6.1v-23.8zM-33-7.3l1.8 5.4Q-33.9-.7-36.9.4l-6 2q-3 .9-5.2 1.2l-2.1-5.8q2.2-.3 5.2-1t6-1.8q3.3-1 6-2.3m1.6-16.6-1.3 5.8q-3.2-.7-6.3-1.8-3.2-1.2-6-2.5t-5-2.7l1.2-1.5 1.2-2 1-1.6q2.8 2 7 3.7 4 1.6 8.2 2.6m11-2.4V3.1h-6V-9.1h-20.8q-2.4 0-3.9-.5-1.4-.4-2.2-2-.9-1.5-1-3.5-.2-2-.2-4.8 1.4-.1 3.3-.6l3.3-1.2v5.1l.1.7q.2.2.7.2h20.7v-10.6ZM-4-39.7v6.5h-10.7v6.3h-6v-6.3h-1.1l-2 1.6-2.5 2.1-2.5 2.1-1.6 1.3-5.1-3.5 3-1.5 3.4-2.1h-25.6v-6.5h22q-3.3-1-6.3-2.4t-5.1-2.7l3.2-1.5 3.1-1.8q2 1.5 4.8 2.9t6 2.5 6.2 1.8v-6.3h6v7.5zm-69 6.3h-1.8V-11h1.8zm5 0h-1.8V-11h1.8zm3.3-6.3v35.3h-13.4v-35.3zm-15-6.8V2.7h-4.6v-49.2zm-14.8 12h-1.9v9.3h2zm0 15.6h-1.9v9.4h2zm5.1-15.7h-1.8v9.4h1.8zm0 15.7h-1.8v9.4h1.8zm-18.3-27.7v21.4h2v-16.6h4v16.6h1.9v-15.4H-86v37.5h-14v-15.8h-1.7v16.8h-4.1v-16.8h-2V2.8h-4.7v-49.4zm-21.6 18.3v11.8h7.3v6.2h-7.3v7.4l.2 1-1 4.6q-3-.7-6.3-1.7L-142-.8l1.3-5.6q1 .4 2.4.7l3 .8v-5.4h-7.6v6l.2 1.1-1.5 4q-5.5-1.1-9.9-3.2-4.3-2-7.8-4.8-1.7 2.3-3 5-1.2 2.6-2 5.7-1-1-2.7-2.3l-3-2q2.1-6.4 6-11-2-2.3-3.5-5t-2.8-5.7q1.2-.5 2.8-1.6 1.5-1 2.4-1.9 2 5.6 5.5 9.9 4.8-3.8 11-6.3-3.6-.4-7.5-1.2-3.8-.7-7.4-2.1t-6.4-3.8q.6-.4 1.4-1.4.8-.8 1.5-1.8l1.2-1.6q1.5 1.2 3.3 2.1t3.7 1.6l-6-15.8 6.1-1.3 2 6.4h12.6v-5.3h6v5.3h9.5v-6h6v17.5h-6v-5.5h-9.6v4.4h-6v-4.4H-157l1.7 4.4-4.4.9q4 1.1 8.2 1.4t7.6.3zm-6 11.8v-5.7h-7.5v5.7zm-13.2 9.8v-10.6q-5.2 2-9.2 5.6 2 1.5 4.3 2.8t4.9 2.2M-202-24.6v-10h-6.5v10zm0 6.3h-6.5v10h6.5zm11-.2v-12l-2.6-2.3-2.5-2.4V-23q2.4 2.4 5.2 4.5m10.3-12.5-2.3 5.9-2.3-1.4V-14l.4 1.2-3.2 4.2-4-3q-2.1-1.8-4-3.7V-2h-20.4v-6.4h1.8v-26.3h-6.4q-1.6 0-2.5.5t-1 2-.3 4.3v18.4q0 2.6.5 4 .6 1.2 2.3 1.8t5 1l-1.3 2.9q-.7 1.8-.9 3.1-4.5-.5-7-1.7t-3.5-3.7-1-7.1v-18.6q0-5 .8-8 .8-2.8 2.9-4t6-1.2h19.7l-1.2-1.6-1.1-1.5 1.9-1 2.3-1.3q1.2-.6 2-1.2 1.9 3.2 4.5 6.3 2.7 3.2 5.8 5.8 3.1 2.7 6.5 4.5m-75.3 6q1.2 2.5 2.9 5.3t3.5 5.2v-26.7h6.4v33.8l.3 1.5-3.8 5q-3.3-3.5-6.8-8.1-3.4-4.7-6-9.3h-4v21h-6.6v-21h-13q-2.7 0-4.2-.8-1.6-.7-2.3-2.6-.8-2-1-4.8t-.2-6.6q1.5-.2 3.5-1.1 1.9-.8 3.2-1.6l-.1 3.8v5.3q0 1 .3 1.3t1 .3h12.8v-21.5h6.6V-25z" aria-label="标量玻色子"/></switch><g transform="translate(1120 275)"><use xlink:href="#n"/><text x="120" y="120" class="psymr">H</text><text x="15" y="40" class="pmass">≈125.20 GeV/c²</text><text x="15" y="80" class="pchar">0</text><text x="15" y="120" class="pspin">0</text><switch transform="translate(120 200)"><path d="m-85.4-26.2 2-1.7 4.6 1.3 5 1.5 3.6-1.5q1.7-.9 3-1.8l2.5 1.5q-1.2.9-2.6 1.6l-3 1.4 3.6 1.4 3 1.3-2.2 2q-1.5-.8-3.5-1.6t-4.4-1.7l-2.8.9 1.5.4-.7 1.3-.6 1.4h14.8v2.5h-16.2l-1.2 1.7-1.3 1.7h5v-2.8h2.7v2.8h8.6v7.4q0 1-.3 1.6-.2.5-1 .8-.7.3-1.8.4t-2.8 0q0-.5-.4-1.2l-.5-1.2h3.8l.1-.5V-10h-5.7v9.6h-2.7V-10h-5.2v8h-2.8v-7.4L-85.2-8l-2 1.3q-.3-.5-1-1.1l-.9-1q2.4-1.3 4.4-3.2 2-1.8 3.5-3.9h-7.1v-2.5h8.7l1.2-2.6-3.6 1-3.5.7-.9-1.2q-.5-.8-1-1.2 2.4-.3 4.9-.9l4.8-1.2-4-1.2zm42.9 3.5-.3.5 1.3 2 1.8 2 1.7-2.1q.8-1.1 1.4-2.4zm-11.8-5.6h2.7v6.3h3.7v1.6q1.6-1.6 3-3.6 1.4-2.1 2.2-4.4l2.7.8-.5 1.3-.6 1.2h5.8l.5-.1 1.7.8q-.7 2.3-2 4.3-1.2 2-2.7 3.7 1.5 1.2 3.3 2.1t3.9 1.6l-1 1.1-.7 1.3-1-.4V-.6h-2.8v-1h-7.5v1.1h-2.6v-10l-1 .4-1 .4-.7-1.2-.9-1 .2-.1-1-1.4q-.4-.9-1-1.7V-.5h-2.7v-13q-.7 2.2-1.6 4.2T-58-6q-.1-.6-.6-1.3l-.7-1.2q1-1.3 1.8-3 1-1.9 1.7-3.9l1.2-4h-4V-22h4.2zm10.7 24.2h7.5v-5h-7.5zm-.4-7.5h8.8q-2.6-1.3-4.5-3-2 1.8-4.3 3m-.4-8.5-1.3 1.5-1.3 1.3-1-1-1.2-1h.1-2.5v1l.9 1 1 1.3 1.2 1.3.6.9-1.2 1.6q4.1-1.4 7.5-4.2-1.7-1.9-2.8-3.7m19.5 12.8 2.6.8Q-23-5-24.2-3.3t-2.3 2.6l-1-.9-1.2-.7q1.1-1 2.1-2.3t1.7-2.7m4.2 1.1 2.2-1q.8.8 1.6 2 .8 1 1.2 1.8l-2.4 1.2-1.1-2zm2-21.8h2.6v3.5h2v2.5h-2v11.8h2.2v2.5h-15v-2.5h2.7V-22h-2.4v-2.5h2.4V-28h2.6v3.5h4.9zm-5 6v2.3h5V-22zm0 4.5v2.4h5v-2.4zm0 4.7v2.6h5v-2.6zM-13-25.1q1.8-.4 3.5-1l3.3-1q1.6-.6 2.7-1.2l2.3 2q-1.9.9-4.3 1.6l-4.8 1.4v5H-1v2.6h-3V-.5h-2.6v-15.2h-3.7v1.2q0 2.8-.4 5.3-.3 2.6-1.2 5Q-13-2-14.8 0q-.3-.5-1-1l-1-.9q1.7-1.8 2.5-3.9t1-4.3.3-4.5zM1-6.3 2.7-7l2-.7v-7.5H1.5v-2.7h3.2v-6H1.2v-2.6h9.4v2.6H7.4v6H10v2.7H7.3v6.5l2.9-1 .4 2.5L6-5.3 1.6-3.6zm10.7-17.8h6.7v-4.2H21v4.2h5.5l2 .4-1 3.4-1 2.9-2.4-.6.5-1.6.5-1.8h-4v4.8H25l.5-.1 1.8.6q-.8 3-2 5.5-1.2 2.4-2.8 4.3 2.7 2.2 6.5 3.2-.5.4-1 1.2t-.9 1.3q-3.8-1.3-6.7-3.7-1.4 1.2-3 2.2T14-.4l-.7-1.2-.9-1.1q3.4-1.1 6.2-3.5-1.4-1.6-2.5-3.5-1.1-2-2-4.2 0 2.2-.4 4.5t-1.1 4.7q-.8 2.2-2.2 4l-1-1q-.7-.6-1.2-.8Q9.5-4 10.1-5.7t1-3.5.5-3.6V-16zm6.7 2.7h-4v4.8h4zm5.6 7.3h-7q.7 1.7 1.6 3.2t2 2.8q1.2-1.3 2-2.8 1-1.5 1.5-3.2m20-3.3h-6.4v4.6H44zm2.7 0v4.6h6.4v-4.6zm.8-6h-7.3q-1.4 1.8-3 3.4h7.4l1.5-1.5zm-7.1-5 2.5.9-.4.8-.6.9h7.5l.6-.2 1.8 1.4-1.7 2.3-2 2.3H56v11h-3v-1H37.6v4.3q0 1 .2 1.4.3.5 1.1.7l2.5.1h11.1q1.5 0 2.2-.3.7-.4 1-1.4t.5-3l1.4.7 1.4.4q-.3 2.4-1 3.8-.5 1.3-1.8 1.8-1.2.6-3.6.6h-11q-2.6 0-4-.4-1.5-.4-2.2-1.4-.6-1-.6-3v-12l-1.1.9-1.2.8q0-.3-.4-.8l-.5-1-.6-.9q1.8-1 3.6-2.6 1.7-1.5 3.2-3.3t2.6-3.8m33.3 9q1.7-.8 3.5-2t3.3-2.2h-16v-2.8h19.1l.6-.2 2.2 1.7-3 2.5Q82-21 80.2-20q-1.7 1.2-3.5 2v2.9h12v2.8h-12V-4q0 1.3-.4 2-.3.7-1.3 1t-2.4.4h-3.7L68.3-2l-.7-1.4h5.2l.7-.1q.2-.2.2-.6v-8.2H61.4V-15h12.3z" aria-label="希格斯玻色子" class="txcol" style="font-weight:600;font-size:30px;text-anchor:middle;fill:#012"/></switch></g></svg>