<?xml version="1.0" encoding="utf-8"?><svg id="Layer_1" xmlns="http://www.w3.org/2000/svg" x="0" y="0" viewBox="0 0 366 330" xml:space="preserve" enable-background="new 0 0 366 330" xmlns:xlink="http://www.w3.org/1999/xlink"><style>.st1{clip-path:url(#SVGID_4_)}.st2{clip-path:url(#SVGID_6_)}.st3{fill:none;stroke:#00f;stroke-width:.7349445;stroke-linecap:square;stroke-miterlimit:10}.st3,.st4,.st5{clip-path:url(#SVGID_8_)}.st4{fill-rule:evenodd;clip-rule:evenodd;fill:#fff}.st5,.st6{fill:none;stroke:#000;stroke-width:1.4698682;stroke-linecap:square;stroke-miterlimit:10}.st6{clip-path:url(#SVGID_6_);stroke-width:.7991203;stroke-linecap:round;stroke-linejoin:round;stroke-dasharray:6.3929625,3.1964812}.st7{clip-path:url(#SVGID_10_)}.st7,.st8,.st9{fill-rule:evenodd;clip-rule:evenodd}.st8{clip-path:url(#SVGID_12_)}.st9{clip-path:url(#SVGID_14_)}.st11{clip-path:url(#SVGID_16_);fill-rule:evenodd;clip-rule:evenodd}.st12,.st13{clip-path:url(#SVGID_18_)}.st12{fill-rule:evenodd;clip-rule:evenodd}.st13{fill:none;stroke:#000;stroke-width:.8566399;stroke-linecap:round;stroke-linejoin:round;stroke-miterlimit:10}.st14,.st15{clip-path:url(#SVGID_20_)}.st14{fill-rule:evenodd;clip-rule:evenodd}.st15{fill:none;stroke:#000;stroke-width:.8566654;stroke-linecap:round;stroke-linejoin:round;stroke-miterlimit:10}</style><defs><path d="M0 0h366v330H0z" id="reuse-0"/><path d="M318.107 165.53c0 23.99-19.524 43.431-43.59 43.431-24.086 0-43.558-19.442-43.558-43.43 0-24.01 19.472-43.484 43.559-43.484 24.065 0 43.59 19.473 43.59 43.483" id="reuse-1"/><path d="M274.518 165.53c0 60.012-48.76 108.641-108.923 108.641-60.122 0-108.906-48.629-108.906-108.64 0-60.041 48.784-108.667 108.906-108.667 60.164 0 108.923 48.626 108.923 108.666" id="reuse-2"/></defs><clipPath id="SVGID_2_"><use overflow="visible" href="#reuse-0"/></clipPath><defs><use id="SVGID_3_" href="#reuse-0"/></defs><clipPath id="SVGID_4_"><use overflow="visible" href="#SVGID_3_"/></clipPath><g class="st1"><defs><path id="SVGID_5_" d="M0 .01h365.61v329.63H0z"/></defs><clipPath id="SVGID_6_"><use overflow="visible" href="#SVGID_5_"/></clipPath><g class="st2"><defs><path id="SVGID_7_" d="M6.76 7.3h318.39v317.63H6.76z"/></defs><clipPath id="SVGID_8_"><use overflow="visible" href="#SVGID_7_"/></clipPath><use class="st3" href="#reuse-1"/><path class="st3" d="M314.372 137.36c0 24.01-19.493 43.483-43.58 43.483-24.033 0-43.516-19.473-43.516-43.483 0-23.978 19.483-43.431 43.517-43.431 24.086 0 43.579 19.453 43.579 43.431"/><path class="st3" d="M303.5 111.176c0 23.979-19.524 43.473-43.558 43.473-24.065 0-43.59-19.494-43.59-43.473 0-24.01 19.525-43.431 43.59-43.431 24.034 0 43.559 19.421 43.559 43.431"/><path class="st3" d="M286.184 88.682c0 24.01-19.472 43.43-43.558 43.43-24.066 0-43.538-19.42-43.538-43.43 0-23.979 19.472-43.484 43.538-43.484 24.086 0 43.558 19.505 43.558 43.484"/><path class="st3" d="M263.615 71.414c0 23.989-19.504 43.43-43.538 43.43-24.086 0-43.558-19.441-43.558-43.43 0-24.01 19.472-43.473 43.558-43.473 24.034 0 43.538 19.463 43.538 43.473"/><path class="st3" d="M237.342 60.543c0 24.01-19.472 43.483-43.559 43.483-24.034 0-43.537-19.473-43.537-43.483 0-23.989 19.503-43.431 43.537-43.431 24.087 0 43.559 19.442 43.559 43.431"/><path class="st3" d="M209.175 56.864c0 23.989-19.493 43.43-43.58 43.43-24.044 0-43.537-19.441-43.537-43.43 0-24.01 19.493-43.484 43.537-43.484 24.087 0 43.58 19.474 43.58 43.484"/><path class="st3" d="M180.976 60.543c0 24.01-19.493 43.483-43.527 43.483-24.086 0-43.59-19.473-43.59-43.483 0-23.989 19.504-43.431 43.59-43.431 24.034 0 43.527 19.442 43.527 43.431"/><path class="st3" d="M154.714 71.414c0 23.989-19.473 43.43-43.562 43.43-24.062 0-43.535-19.441-43.535-43.43 0-24.01 19.473-43.473 43.535-43.473 24.09 0 43.562 19.463 43.562 43.473"/><path class="st3" d="M132.144 88.682c0 24.01-19.472 43.43-43.533 43.43-24.087 0-43.56-19.42-43.56-43.43 0-23.979 19.473-43.484 43.56-43.484 24.061 0 43.533 19.505 43.533 43.484"/><path class="st3" d="M114.88 111.176c0 23.979-19.524 43.473-43.587 43.473-24.037 0-43.56-19.494-43.56-43.473 0-24.01 19.523-43.431 43.56-43.431 24.063 0 43.587 19.421 43.587 43.431"/><path class="st3" d="M103.951 137.36c0 24.01-19.473 43.483-43.535 43.483-24.088 0-43.561-19.473-43.561-43.483 0-23.978 19.473-43.431 43.56-43.431 24.063 0 43.536 19.453 43.536 43.431"/><path class="st3" d="M100.274 165.53c0 23.99-19.523 43.431-43.585 43.431-24.037 0-43.561-19.442-43.561-43.43 0-24.01 19.524-43.484 43.56-43.484 24.063 0 43.586 19.473 43.586 43.483"/><path class="st3" d="M103.951 193.627c0 23.979-19.473 43.477-43.535 43.477-24.088 0-43.561-19.498-43.561-43.477 0-24.01 19.473-43.431 43.56-43.431 24.063 0 43.536 19.421 43.536 43.431"/><path class="st3" d="M114.88 219.811c0 24.012-19.524 43.483-43.587 43.483-24.037 0-43.56-19.47-43.56-43.483 0-23.978 19.523-43.431 43.56-43.431 24.063 0 43.587 19.453 43.587 43.431"/><path class="st3" d="M132.144 242.352c0 23.985-19.472 43.431-43.533 43.431-24.087 0-43.56-19.446-43.56-43.43 0-24.016 19.473-43.479 43.56-43.479 24.061 0 43.533 19.463 43.533 43.478"/><path class="st3" d="M154.714 259.618c0 24.01-19.473 43.431-43.562 43.431-24.062 0-43.535-19.42-43.535-43.43 0-24.036 19.473-43.487 43.535-43.487 24.09 0 43.562 19.451 43.562 43.486"/><path class="st3" d="M180.976 270.444c0 24.01-19.493 43.481-43.527 43.481-24.086 0-43.59-19.471-43.59-43.481 0-23.985 19.504-43.431 43.59-43.431 24.034 0 43.527 19.446 43.527 43.431"/><path class="st3" d="M209.175 274.171c0 24.01-19.493 43.43-43.58 43.43-24.044 0-43.537-19.42-43.537-43.43 0-24.036 19.493-43.482 43.537-43.482 24.087 0 43.58 19.446 43.58 43.482"/><path class="st3" d="M237.342 270.444c0 24.01-19.472 43.481-43.559 43.481-24.034 0-43.537-19.471-43.537-43.481 0-23.985 19.503-43.431 43.537-43.431 24.087 0 43.559 19.446 43.559 43.431"/><path class="st3" d="M263.615 259.618c0 24.01-19.504 43.431-43.538 43.431-24.086 0-43.558-19.42-43.558-43.43 0-24.036 19.472-43.487 43.558-43.487 24.034 0 43.538 19.451 43.538 43.486"/><path class="st3" d="M286.184 242.352c0 23.985-19.472 43.431-43.558 43.431-24.066 0-43.538-19.446-43.538-43.43 0-24.016 19.472-43.479 43.538-43.479 24.086 0 43.558 19.463 43.558 43.478"/><path class="st3" d="M303.5 219.811c0 24.012-19.524 43.483-43.558 43.483-24.065 0-43.59-19.47-43.59-43.483 0-23.978 19.525-43.431 43.59-43.431 24.034 0 43.559 19.453 43.559 43.431"/><path class="st3" d="M314.372 193.627c0 23.979-19.493 43.477-43.58 43.477-24.033 0-43.516-19.498-43.516-43.477 0-24.01 19.483-43.431 43.517-43.431 24.086 0 43.579 19.421 43.579 43.431"/><use class="st3" href="#reuse-1"/><use class="st4" href="#reuse-2"/><use class="st5" href="#reuse-2"/><path class="st5" d="M318.107 165.53c0 83.997-68.262 152.072-152.512 152.072-84.21 0-152.467-68.075-152.467-152.072 0-84.019 68.257-152.15 152.467-152.15 84.25 0 152.512 68.131 152.512 152.15"/></g><path class="st6" d="M275.47 166.11h41.96"/><g class="st2"><defs><path id="SVGID_9_" d="M143.6 157.06h22.3v33.58h-22.3z"/></defs><clipPath id="SVGID_10_"><use overflow="visible" href="#SVGID_9_"/></clipPath><path class="st7" d="M159.419 167.671a3.35 3.35 0 0 0-1.067-1.427q-.71-.548-1.744-.548-1.023 0-2.036.56a7 7 0 0 0-1.81 1.447 9 9 0 0 0-1.583 2.338q-.582 1.26-.905 2.556-.376 1.414-.463 2.75a6.3 6.3 0 0 0 .323 2.552 3.64 3.64 0 0 0 1.024 1.49q.69.603 1.722.601 1.068 0 2.086-.611a8 8 0 0 0 1.825-1.511 10 10 0 0 0 1.626-2.562q.582-1.349.947-2.75.336-1.307.421-2.574v-.365a5.1 5.1 0 0 0-.366-1.946m2.176 5.271a10.6 10.6 0 0 1-1.255 2.93 11.6 11.6 0 0 1-2.18 2.58 9.9 9.9 0 0 1-2.592 1.68q-1.406.621-2.816.621-1.422 0-2.526-.626a4.84 4.84 0 0 1-1.761-1.695 5.8 5.8 0 0 1-.83-2.614 6 6 0 0 1-.043-.69q0-1.077.28-2.227.41-1.537 1.266-2.986a10.8 10.8 0 0 1 2.191-2.62 10.4 10.4 0 0 1 2.591-1.698q1.406-.644 2.838-.644 1.422 0 2.516.649a5.05 5.05 0 0 1 1.75 1.714q.721 1.183.85 2.635.022.356.022.701 0 1.12-.301 2.29"/></g><path class="st2" d="m244.83 90.927-11.159 5.668 3.804.515.827.867.333 3.823zm-79.284 74.749 71.936-68.573.827.868-71.936 68.573a.6.6 0 1 1-.827-.868"/><g class="st2"><defs><path id="SVGID_11_" d="M191.93 64.06h26.12v33.83h-26.12z"/></defs><clipPath id="SVGID_12_"><use overflow="visible" href="#SVGID_11_"/></clipPath><path class="st8" d="M207.214 77.182q-.063.293-.323.293-.021.021-.107.02a.15.15 0 0 1-.087-.02h-.097q-.28 0-.28-.21v-.072q.13-.773.13-1.434v-.397q-.065-.803-.361-1.385a2.1 2.1 0 0 0-.867-.9q-.57-.317-1.444-.319-.506.002-1.028.22a3.9 3.9 0 0 0-.975.596q-.495.408-.808.926a4 4 0 0 0-.453 1.061q-.106.388-.118.743 0 .491.216.94.312.755 1.12.963l2.477.69q.678.2 1.159.633.479.434.721 1.025.243.591.286 1.29v.19q0 .606-.173 1.244a6.2 6.2 0 0 1-.721 1.694 6.3 6.3 0 0 1-1.229 1.464 6 6 0 0 1-1.534.956q-.835.36-1.676.361-1.238 0-2.11-.397-.873-.396-1.294-1.004l-1.065 1.265a.42.42 0 0 1-.291.136h-.065q-.27 0-.29-.21a.2.2 0 0 1 .031-.114l1.25-4.894q.065-.291.377-.304h.237a.34.34 0 0 1 .237.105.34.34 0 0 1 .043.147.3.3 0 0 1-.022.104 5.6 5.6 0 0 0-.194 1.401q0 1.037.507 1.757.808 1.163 2.822 1.16.505.002 1.029-.234.522-.234.974-.633a4.7 4.7 0 0 0 1.336-2.175q.107-.48.107-.9 0-.521-.14-1.003-.322-.805-1.195-1.035l-2.445-.69a2.9 2.9 0 0 1-1.131-.58 2.85 2.85 0 0 1-.738-.957 3.3 3.3 0 0 1-.307-1.224v-.23q0-.522.13-1.099.225-.835.721-1.6.495-.762 1.228-1.348.69-.564 1.513-.905a4.3 4.3 0 0 1 1.632-.34q1.11.001 1.83.414.723.413 1.046.977l1.035-1.244q.085-.146.279-.146h.097q.258 0 .259.25v.084z"/><path class="st8" d="M214.33 90.321a86 86 0 0 0-4.838 0v-.504h.467q.225 0 .419-.005.195-.006.372-.03.175-.022.303-.047a.27.27 0 0 0 .18-.107.32.32 0 0 0 .07-.203v-6.6a3.4 3.4 0 0 1-.83.223 7 7 0 0 1-1.082.076v-.497q.811 0 1.497-.173a2.6 2.6 0 0 0 1.186-.648h.209q.223.001.223.194v7.425q0 .118.068.205.067.088.196.105a3.4 3.4 0 0 0 .658.077q.213.006.416.005h.486z"/></g><g class="st2"><defs><path id="SVGID_13_" d="M230.87.19h27.11v33.83h-27.11z"/></defs><clipPath id="SVGID_14_"><use overflow="visible" href="#SVGID_13_"/></clipPath><path class="st9" d="M246.152 13.31q-.064.293-.322.293-.021.021-.108.02a.15.15 0 0 1-.086-.02h-.097q-.28 0-.28-.21v-.072q.129-.774.128-1.433v-.398q-.064-.803-.36-1.385a2.1 2.1 0 0 0-.867-.9q-.57-.317-1.444-.319-.506.002-1.028.22a3.9 3.9 0 0 0-.975.596q-.495.409-.808.926a4 4 0 0 0-.453 1.062q-.106.387-.118.742 0 .492.216.941.312.755 1.12.962l2.478.69q.677.201 1.158.633.48.434.721 1.025.243.592.286 1.29v.19q0 .606-.173 1.244a6.2 6.2 0 0 1-.721 1.694 6.3 6.3 0 0 1-1.229 1.464 6 6 0 0 1-1.534.957q-.835.36-1.675.36-1.239 0-2.112-.397-.872-.395-1.292-1.004l-1.066 1.265a.42.42 0 0 1-.291.136h-.065q-.269 0-.29-.209a.2.2 0 0 1 .031-.115l1.25-4.894q.065-.292.377-.303h.237a.34.34 0 0 1 .237.104.34.34 0 0 1 .043.147.3.3 0 0 1-.022.104q-.194.755-.194 1.401 0 1.038.507 1.757.808 1.163 2.822 1.16.506.002 1.029-.234.522-.234.975-.632a4.7 4.7 0 0 0 1.335-2.176q.107-.48.107-.9.001-.52-.14-1.003-.322-.804-1.195-1.035l-2.445-.69a2.9 2.9 0 0 1-1.131-.58q-.474-.402-.737-.957c-.263-.555-.279-.777-.308-1.224v-.23q0-.521.13-1.099.226-.835.721-1.599.496-.763 1.228-1.349.69-.564 1.514-.904a4.3 4.3 0 0 1 1.631-.34q1.11 0 1.83.413.724.414 1.046.977l1.035-1.244q.085-.146.279-.146h.097q.26 0 .259.25v.084z"/><path class="st9" d="M253.769 26.45h-5.5v-.323q0-.034.041-.105l2.21-2.144q.391-.385.793-.79a8 8 0 0 0 .72-.826q.317-.42.507-.87.189-.445.189-.939 0-.416-.122-.776a1.9 1.9 0 0 0-.351-.632 1.7 1.7 0 0 0-.575-.44 1.8 1.8 0 0 0-.797-.167q-.675 0-1.192.36-.516.361-.686.794-.033.012.109.012h.114q.203.042.351.126a.76.76 0 0 1 .25.234q.102.15.102.36 0 .352-.257.54c-.257.187-.362.187-.574.186a.95.95 0 0 1-.567-.187.62.62 0 0 1-.264-.539q0-.492.216-.931.217-.44.588-.76.37-.323.878-.51a3.1 3.1 0 0 1 1.074-.189q.703 0 1.287.186.585.184.997.53t.645.798q.233.455.233 1.005 0 .61-.31 1.121a4.4 4.4 0 0 1-.77.94q-.46.428-.977.805t-.935.735l-1.555 1.306h2.034q.425 0 .794-.005.368-.006.624-.024c.256-.018.26-.02.263-.024a.4.4 0 0 0 .103-.163q.046-.123.087-.29c.041-.167.054-.224.081-.34a5 5 0 0 0 .075-.378h.5z"/></g><g class="st2"><defs><path id="SVGID_15_" d="M313.58 100.34h47.67v33.58h-47.67z"/></defs><clipPath id="SVGID_16_"><use overflow="visible" href="#SVGID_15_"/></clipPath><path class="st11" d="M328.314 120.412q-.119.481-.28 1.067-.16.585-.431 1.088a3.1 3.1 0 0 1-.679.867q-.408.366-1.023.366-.754 0-1.216-.386-.465-.387-.572-.796-.365.451-.98.816-.613.366-1.422.366-.731 0-1.308-.272a2.05 2.05 0 0 1-.91-.837 2.7 2.7 0 0 1-.313-1.338v-.084q.021-.762.194-1.516.173-.72.501-1.589.33-.868.63-1.684.323-.867.323-1.422 0-.47-.399-.47-.365 0-.662.21-.296.21-.538.579a4.7 4.7 0 0 0-.437.879 8 8 0 0 0-.323 1.081q-.118.284-.398.293h-.248q-.26 0-.259-.26v-.074q.15-.575.399-1.177.248-.6.625-1.092t.862-.816a1.96 1.96 0 0 1 1.109-.325q.54.002.92.231.384.23.582.612.2.381.221.862v.073q0 .45-.183.93-.312.817-.62 1.67-.306.852-.478 1.531a9 9 0 0 0-.238 1.35 2 2 0 0 0-.053.386q0 .409.14.804.096.359.355.566.259.21.614.209a1.9 1.9 0 0 0 1.24-.428q.526-.429.925-1.141.021-.083.032-.192.01-.111.032-.226l1.616-6.233q.098-.386.393-.57.297-.181.598-.182.313 0 .518.188.14.135.14.366 0 .115-.022.24l-1.615 6.232a4.5 4.5 0 0 0-.173 1.151q0 .138.021.293.054.502.506.502.454 0 .781-.774.33-.773.64-1.987.066-.27.367-.272h.247q.12 0 .238.073a.4.4 0 0 1 .044.157q0 .043-.033.105"/><path class="st11" d="m340.61 110.321-5.902 11.492h11.794zm8.875 12.83q.033.075.032.136 0 .085-.042.126-.065.126-.249.125h-15.94q-.173 0-.248-.125-.043-.042-.042-.126a.4.4 0 0 1 .031-.135l7.637-14.88q.141-.303.495-.294h.194a.54.54 0 0 1 .496.282z"/><path class="st11" d="M357.191 114.681q-.117.315-.42.314h-2.003l-1.594 6.18q-.194.672-.194 1.171 0 .139.021.262.055.502.507.502.41 0 .775-.225.367-.224.69-.6.324-.377.581-.89.259-.511.474-1.078a.28.28 0 0 1 .14-.182.46.46 0 0 1 .205-.058h.27q.14 0 .225.115.033.074.032.136v.063a8 8 0 0 1-.565 1.219q-.338.603-.78 1.082c-.443.48-.62.586-.976.794q-.532.314-1.179.314-.56 0-.97-.215a1.7 1.7 0 0 1-.656-.595 1.9 1.9 0 0 1-.29-.874 1.5 1.5 0 0 1-.022-.272q0-.355.086-.721l1.582-6.128h-2.024q-.27 0-.29-.282v-.084l.064-.178q.107-.313.399-.313h2.056l.884-3.43a.9.9 0 0 1 .392-.574q.298-.189.598-.19a.72.72 0 0 1 .518.2q.14.135.14.375 0 .116-.022.23l-.872 3.389h1.982q.28 0 .28.282v.074z"/></g><path class="st2" d="m292.55 250.873-7.96-9.657.325 3.823-.667.996-3.66 1.156zm-126.257-85.261 118.63 79.433-.667.996-118.63-79.433a.599.599 0 1 1 .667-.996"/><g class="st2"><defs><path id="SVGID_17_" d="M120.36 106.21h74.69v33.83h-74.69z"/></defs><clipPath id="SVGID_18_"><use overflow="visible" href="#SVGID_17_"/></clipPath><path class="st12" d="M136.628 118.525q.172-.626.194-1.254v-.063q0-.533-.335-.92a2.14 2.14 0 0 0-1.039-.648 5 5 0 0 0-1.405-.189h-1.433q-.549 0-.657.084-.107.085-.227.596l-1.42 5.532h2.078q.765 0 1.509-.188a4.1 4.1 0 0 0 1.41-.67q.57-.408.861-1.024t.464-1.256m2.53 8.795a4 4 0 0 1-.355.925 3.6 3.6 0 0 1-.581.822q-.345.365-.77.6a1.87 1.87 0 0 1-.921.236q-1.562 0-2.349-.826-.538-.565-.538-1.423 0-.437.14-.951l.485-1.872q.086-.355.086-.67 0-.156-.021-.323a1.7 1.7 0 0 0-.91-1.3 1.9 1.9 0 0 0-.88-.195h-2.433l-1.432 5.573q-.043.2-.043.324 0 .159.064.209.141.084.582.1.442.016.948.015.302.001.302.251a.5.5 0 0 1-.022.136l-.043.167q-.12.315-.42.314a59 59 0 0 0-5.374 0q-.29 0-.313-.271v-.084l.043-.178q.087-.344.42-.335.506.002.959-.015.452-.015.667-.11.204-.114.313-.565l3.027-11.786q.064-.228.064-.355 0-.124-.054-.147-.15-.092-.587-.114a20 20 0 0 0-.953-.02q-.302 0-.302-.283v-.084l.065-.178q.065-.312.399-.314h6.063a7 7 0 0 1 1.95.273q.927.271 1.615.898.57.504.83 1.234.162.398.171.827 0 .387-.118.763a3.3 3.3 0 0 1-.85 1.517q-.647.68-1.454 1.16a7.5 7.5 0 0 1-1.136.54q-.577.213-.825.265.614.24 1.164.942.463.607.463 1.453 0 .178-.021.356l-.206 1.882q-.085.733-.085 1.276 0 .356.043.627.075.618.645.616.517.002.948-.558.432-.559.635-1.386.12-.313.421-.304h.172q.291.002.312.272z"/><path class="st12" d="M145.007 132.47a86 86 0 0 0-4.837 0v-.504h.467q.222 0 .419-.005.195-.006.371-.03.177-.022.304-.047a.28.28 0 0 0 .18-.108.32.32 0 0 0 .07-.202v-6.6a3.4 3.4 0 0 1-.83.223q-.495.076-1.082.076v-.498q.81 0 1.497-.172a2.6 2.6 0 0 0 1.185-.648h.21q.222 0 .222.194v7.425q0 .117.068.205.067.088.196.105a3.6 3.6 0 0 0 .658.077q.214.006.416.005h.486z"/><path class="st13" d="M151.59 120.75h14.99"/><path class="st13" d="M151.59 125.25h14.99"/><path class="st12" d="M183.542 126.285q-.118.481-.28 1.066-.16.587-.43 1.088a3.1 3.1 0 0 1-.68.869q-.408.365-1.022.365-.756 0-1.217-.387-.464-.386-.572-.796-.365.453-.98.818-.613.365-1.422.365a3 3 0 0 1-1.308-.272 2.06 2.06 0 0 1-.91-.837 2.7 2.7 0 0 1-.312-1.338v-.084a7.7 7.7 0 0 1 .194-1.517q.173-.72.5-1.588.33-.868.63-1.685.323-.866.324-1.421 0-.47-.4-.471-.364 0-.661.21c-.297.21-.377.333-.538.58q-.243.372-.437.878-.194.51-.323 1.082-.119.284-.398.293h-.249q-.258.001-.259-.261v-.074q.153-.574.399-1.176.249-.6.625-1.092c.376-.492.54-.6.862-.816a1.96 1.96 0 0 1 1.11-.325q.538 0 .92.231c.382.231.45.357.582.612q.2.382.22.862v.073q0 .45-.183.93-.311.816-.619 1.669-.306.854-.48 1.532a9 9 0 0 0-.236 1.349 2 2 0 0 0-.053.387q0 .408.14.804.097.357.354.566.259.21.614.209.712 0 1.239-.429.527-.428.926-1.14.022-.083.033-.193.01-.11.032-.225l1.615-6.232a.9.9 0 0 1 .393-.57q.298-.183.598-.184a.74.74 0 0 1 .518.189q.14.136.14.365 0 .116-.022.241l-1.615 6.232a4.5 4.5 0 0 0-.173 1.15q0 .139.022.294.054.502.506.502.453 0 .78-.774.33-.773.641-1.987.066-.272.366-.272h.248q.12 0 .237.073a.4.4 0 0 1 .044.156q0 .044-.033.106"/><path class="st12" d="M191.005 120.554q-.116.314-.42.314h-2.002l-1.594 6.18q-.195.67-.194 1.17 0 .138.021.263.054.502.506.502.41 0 .776-.225t.69-.601q.322-.376.58-.889.26-.51.475-1.078a.28.28 0 0 1 .14-.182.45.45 0 0 1 .204-.058h.27a.27.27 0 0 1 .226.114q.032.075.032.137v.063q-.226.616-.565 1.219-.34.601-.781 1.082c-.441.481-.62.585-.975.794a2.3 2.3 0 0 1-1.18.314q-.558 0-.969-.215a1.7 1.7 0 0 1-.656-.596 1.9 1.9 0 0 1-.291-.873 1.6 1.6 0 0 1-.022-.272q0-.355.087-.721l1.582-6.128h-2.024q-.27 0-.291-.282v-.085l.065-.177q.107-.312.398-.314h2.057l.884-3.43a.9.9 0 0 1 .392-.574q.296-.188.599-.19.312.002.517.2.139.136.14.376 0 .116-.022.23l-.873 3.388h1.982q.28.001.28.283v.073z"/></g><g class="st2"><defs><path id="SVGID_19_" d="M76.87 198.94h145.78v34.86H76.87z"/></defs><clipPath id="SVGID_20_"><use overflow="visible" href="#SVGID_19_"/></clipPath><path class="st14" d="M93.132 211.895q.173-.625.194-1.255v-.062q.001-.533-.334-.92a2.14 2.14 0 0 0-1.04-.648 5 5 0 0 0-1.405-.189h-1.433q-.548.001-.656.085-.108.083-.227.595l-1.421 5.532h2.078q.766 0 1.51-.188a4.1 4.1 0 0 0 1.409-.67q.572-.406.862-1.024.291-.616.463-1.256m2.53 8.795a4 4 0 0 1-.354.926 3.6 3.6 0 0 1-.582.821q-.344.365-.77.6-.425.236-.92.236-1.563 0-2.35-.826-.537-.564-.537-1.423 0-.437.14-.951l.484-1.872q.087-.355.087-.67 0-.155-.022-.323a1.7 1.7 0 0 0-.91-1.3 1.9 1.9 0 0 0-.879-.196h-2.433l-1.433 5.574q-.043.2-.043.324 0 .158.065.21.14.084.581.1.442.015.948.014.302 0 .302.252a.5.5 0 0 1-.022.135l-.043.167q-.118.315-.42.315a57 57 0 0 0-5.375 0q-.29 0-.312-.273v-.083l.043-.178q.087-.345.42-.335.506.001.959-.015.453-.015.668-.11.204-.114.312-.565l3.027-11.785q.064-.23.064-.355t-.054-.147q-.15-.093-.587-.114-.435-.022-.953-.022-.302 0-.302-.282v-.084l.065-.178q.065-.312.399-.313h6.063a7 7 0 0 1 1.95.272q.927.272 1.616.899.57.503.83 1.233.161.4.171.827 0 .389-.118.763a3.3 3.3 0 0 1-.85 1.517 6.8 6.8 0 0 1-1.455 1.16 7.5 7.5 0 0 1-1.136.54q-.577.214-.824.265.614.242 1.163.942.465.607.464 1.453 0 .179-.022.355l-.205 1.883a11 11 0 0 0-.085 1.275q0 .358.042.628.076.618.646.617.517 0 .948-.559.432-.559.635-1.386.12-.314.421-.303h.172q.291 0 .312.271z"/><path class="st14" d="M102.012 225.84h-5.498v-.322a.24.24 0 0 1 .04-.106l2.21-2.143q.39-.386.793-.79a8 8 0 0 0 .72-.826q.318-.422.507-.87.19-.447.188-.94 0-.415-.121-.775a1.9 1.9 0 0 0-.352-.633 1.7 1.7 0 0 0-.573-.439 1.8 1.8 0 0 0-.797-.167q-.675 0-1.193.36-.516.36-.685.794-.034.011.107.012h.115q.204.04.352.125.148.086.25.235.1.15.1.36 0 .351-.255.539a.95.95 0 0 1-.575.186q-.303.001-.568-.186c-.265-.187-.263-.305-.263-.54q0-.49.217-.93.215-.44.587-.761a2.8 2.8 0 0 1 .878-.51 3.1 3.1 0 0 1 1.075-.188q.702.001 1.287.185.583.185.996.53.412.346.645.799t.233 1.005q0 .61-.31 1.12a4.4 4.4 0 0 1-.77.941q-.46.427-.977.805a16 16 0 0 0-.936.735l-1.553 1.306h2.033q.426 0 .793-.006.37-.006.626-.023.257-.018.263-.024a.4.4 0 0 0 .101-.164q.047-.122.089-.29l.08-.34a6 6 0 0 0 .074-.377h.5z"/><path class="st15" d="M109.09 214.12h14.99"/><path class="st15" d="M109.09 218.62h14.99"/><path class="st14" d="M141.035 219.655q-.118.481-.28 1.067-.16.585-.43 1.088a3.1 3.1 0 0 1-.68.868q-.408.364-1.022.364-.754 0-1.218-.385-.463-.388-.571-.796-.365.451-.98.817-.613.364-1.422.364-.731 0-1.308-.271a2.05 2.05 0 0 1-.91-.837 2.7 2.7 0 0 1-.313-1.338v-.084q.022-.762.195-1.516.173-.72.5-1.589.33-.868.63-1.685.323-.866.323-1.42 0-.471-.399-.472-.366 0-.661.21t-.54.58q-.24.372-.435.879a8 8 0 0 0-.323 1.081q-.119.284-.4.293h-.247q-.26 0-.259-.26v-.074q.152-.575.399-1.177.248-.6.625-1.092c.377-.492.54-.6.862-.816a1.96 1.96 0 0 1 1.11-.325q.537.001.92.231t.582.612c.199.382.207.541.22.862v.073q0 .45-.183.93-.311.817-.619 1.67-.307.852-.48 1.531a9 9 0 0 0-.236 1.35 2 2 0 0 0-.054.386q.001.409.14.804.096.358.355.566.259.21.614.209.712 0 1.24-.428.526-.429.925-1.141.022-.083.033-.192a2 2 0 0 1 .032-.226l1.615-6.233a.9.9 0 0 1 .394-.57q.296-.181.597-.182.315 0 .518.188.14.135.14.366 0 .115-.022.24l-1.616 6.232a4.5 4.5 0 0 0-.173 1.151q0 .137.023.293.053.502.506.502c.453 0 .562-.257.78-.774q.33-.773.641-1.987.065-.27.367-.272h.247q.12 0 .238.073a.4.4 0 0 1 .042.157q0 .043-.032.105"/><path class="st14" d="M159.334 213.924q-.12.315-.42.314h-2.003l-1.595 6.18q-.192.672-.193 1.171 0 .138.021.262.054.502.506.502.41 0 .776-.225.366-.224.69-.6.323-.377.581-.89.259-.511.473-1.078a.28.28 0 0 1 .14-.182.45.45 0 0 1 .205-.058h.27q.14 0 .226.115a.4.4 0 0 1 .032.136v.063a8 8 0 0 1-.566 1.219 5.8 5.8 0 0 1-.78 1.082q-.442.481-.975.794a2.3 2.3 0 0 1-1.18.313q-.56.001-.97-.214a1.7 1.7 0 0 1-.655-.595 1.9 1.9 0 0 1-.291-.874 1.5 1.5 0 0 1-.023-.272q0-.354.087-.721l1.583-6.128h-2.025q-.27 0-.29-.282v-.084l.063-.178q.11-.313.4-.313h2.057l.883-3.43a.9.9 0 0 1 .393-.575q.295-.187.598-.19a.72.72 0 0 1 .517.2.5.5 0 0 1 .14.376q0 .117-.022.23l-.872 3.389h1.982q.28 0 .28.282v.073z"/><path class="st15" d="M165.59 216.37h14.99"/><path class="st15" d="M173.09 208.87v14.99"/><path class="st14" d="m194.404 209.564-5.903 11.492h11.796zm8.876 12.83q.032.075.032.136c0 .056-.01.099-.042.126-.043.084-.118.125-.245.125h-15.94c-.118 0-.203-.041-.246-.125-.032-.027-.042-.07-.042-.126q0-.06.032-.135l7.629-14.881c.096-.201.266-.3.5-.293h.192a.54.54 0 0 1 .501.282z"/><path class="st14" d="M210.984 213.924q-.112.315-.415.314h-2.004l-1.598 6.18q-.192.672-.192 1.171.002.138.022.262c.032.335.202.502.5.502.277 0 .533-.075.778-.225.245-.149.48-.35.693-.6.213-.252.405-.547.586-.89.17-.341.32-.7.469-1.078a.26.26 0 0 1 .138-.182.45.45 0 0 1 .203-.058h.277q.128 0 .223.115a.4.4 0 0 1 .032.136v.063c-.149.411-.34.818-.564 1.219a6 6 0 0 1-.778 1.082 4.4 4.4 0 0 1-.98.794 2.27 2.27 0 0 1-1.183.313c-.373 0-.693-.07-.97-.214a1.7 1.7 0 0 1-.65-.595 1.86 1.86 0 0 1-.298-.874 2 2 0 0 1-.021-.272c0-.236.032-.477.085-.721l1.587-6.128H204.9q-.272 0-.288-.282v-.084l.064-.178c.075-.208.203-.313.394-.313h2.057l.884-3.43c.064-.258.192-.45.395-.575a1.1 1.1 0 0 1 .596-.19.73.73 0 0 1 .522.2.54.54 0 0 1 .139.376c0 .077-.01.155-.021.23l-.874 3.389h1.982c.18 0 .277.094.277.282v.073z"/><path class="st14" d="M150.63 226.594c-7.538-4.601-7.538-15.848 0-20.45h1.097c-6.854 4.602-6.854 15.849 0 20.45"/><path class="st14" d="M213.37 206.145c7.534 4.6 7.534 15.848 0 20.449h-1.097c6.852-4.601 6.852-15.848 0-20.45"/></g></g></svg>