<svg baseProfile="full" viewBox="0 0 768 580"><title>bi-elliptic_transfer</title><desc>bi-elliptic_transfer.svg https://commons.wikimedia.org/wiki/File:bi-elliptic_transfer.svg</desc><defs><marker id="b" markerHeight="18" markerWidth="18" orient="auto" refX="0" refY="0" viewBox="-1 -1 2 2"><path fill="#0000c4" d="M.3 0-.8.5q.3-.5 0-1Z"/></marker><marker id="c" markerHeight="18" markerWidth="18" orient="auto" refX="0" refY="0" viewBox="-1 -1 2 2"><path fill="#bc0d0d" d="M.3 0-.8.5q.3-.5 0-1Z"/></marker><marker id="d" markerHeight="8" markerWidth="8" orient="auto" refX="0" refY="0" viewBox="-1 -1 2 2"><path fill="#197810" d="M.3 0-.8.5q.3-.5 0-1Z"/></marker><marker id="e" markerHeight="8" markerWidth="8" orient="auto" refX="0" refY="0" viewBox="-1 -1 2 2"><path fill="#a42d0c" d="M.3 0-.8.5q.3-.5 0-1Z"/></marker><radialGradient id="a" cx="0.5" cy="0.5" r="0.5" gradientUnits="objectBoundingBox"><stop offset="0" stop-color="#dbf816"/><stop offset="1" stop-color="#f89c16"/></radialGradient></defs><path fill="#fff" d="M0 0h768v580H0z"/><g fill="none"><g stroke="#f89c16" transform="translate(559.22 290)"><path fill="#dbf816" d="M13.8 0 7 1.9l5 5-7-1.8L7 12 2 7l-2 6.8L-1.9 7l-5 5 1.8-7-6.9 2 5-5-6.8-1.9 6.8-2-5-5 7 1.8-2-6.9 5 5 2-6.8L1.9-7l5-5-1.8 7L12-7 7-2z"/><circle r="8.2" fill="url(#a)"/></g><path stroke="#0000c4" stroke-width="2.5" marker-end="url(#b)" d="M-109.6 0a109.6 109.6 0 0 0 219.2 0 109.6 109.6 0 0 0-219.2 0" transform="translate(559.22 290)"/><path stroke="#bc0d0d" stroke-width="2.5" marker-end="url(#c)" d="M-146.4 0a146.4 146.4 0 0 0 292.8 0 146.4 146.4 0 0 0-292.8 0" transform="translate(559.22 290)"/><path stroke="#00b996" stroke-dasharray="2 4" stroke-width="2" d="M22 290a323.5 242.7 0 0 0 646.8 0"/><path stroke="#ff991b" stroke-dasharray="2 4" stroke-width="2" d="M705.6 290A341.8 280.5 0 0 0 22 290"/><path stroke="#00b996" stroke-width="5" d="M668.8 290A323.5 242.7 0 0 0 22 290"/><path stroke="#ff991b" stroke-width="5" d="M22 290a341.8 280.5 0 0 0 683.6 0"/><path stroke="#197810" stroke-width="3" marker-end="url(#d)" d="M109.6 0v-160" transform="translate(559.22 290)"/><path stroke="#197810" stroke-width="3" marker-end="url(#d)" d="M-537.3 0v18.1" transform="translate(559.22 290)"/><path stroke="#a42d0c" stroke-width="3" marker-end="url(#e)" d="M146.4 0v121.6" transform="translate(559.22 290)"/><text fill="#000" font-family="Bitstream Vera Sans" font-size="48" text-anchor="middle" transform="translate(643.22 308)">1</text><text fill="#000" font-family="Bitstream Vera Sans" font-size="48" text-anchor="middle" transform="translate(51.22 308)">2</text><text fill="#000" font-family="Bitstream Vera Sans" font-size="48" text-anchor="middle" transform="translate(740.22 308)">3</text></g></svg>