<svg xmlns="http://www.w3.org/2000/svg" baseProfile="full" viewBox="0 0 768 580" xmlns:xlink="http://www.w3.org/1999/xlink"><desc>bi-elliptic_transfer.svg https://commons.wikimedia.org/wiki/File:bi-elliptic_transfer.svg</desc><defs><radialGradient id="a" cx="0.5" cy="0.5" r="0.5" gradientUnits="objectBoundingBox"><stop offset="0" stop-color="#dbf816"/><stop offset="1" stop-color="#f89c16"/></radialGradient><marker id="b" markerHeight="18" markerWidth="18" orient="auto" refX="0" refY="0" viewBox="-1 -1 2 2"><path fill="#0000c4" d="M.3 0-.8.5q.3-.5 0-1Z"/></marker><marker id="c" markerHeight="18" markerWidth="18" orient="auto" refX="0" refY="0" viewBox="-1 -1 2 2"><path fill="#bc0d0d" d="M.3 0-.8.5q.3-.5 0-1Z"/></marker><marker id="d" markerHeight="8" markerWidth="8" orient="auto" refX="0" refY="0" viewBox="-1 -1 2 2"><path fill="#197810" d="M.3 0-.8.5q.3-.5 0-1Z"/></marker><marker id="e" markerHeight="8" markerWidth="8" orient="auto" refX="0" refY="0" viewBox="-1 -1 2 2"><path fill="#a42d0c" d="M.3 0-.8.5q.3-.5 0-1Z"/></marker></defs><path fill="#fff" d="M0 0h768v580H0z"/><g fill="none" transform="translate(559.22 290)"><path fill="#dbf816" stroke="#f89c16" d="M13.8 0 6.96 1.86l4.99 5.04-6.86-1.81 1.81 6.86-5.04-4.99L0 13.8l-1.86-6.84-5.04 4.99 1.81-6.86-6.86 1.81 4.99-5.04L-13.8 0l6.84-1.86-4.99-5.04 6.86 1.81-1.81-6.86 5.04 4.99L0-13.8l1.86 6.84 5.04-4.99-1.81 6.86 6.86-1.81-4.99 5.04z"/><circle r="8.2" fill="url(#a)" stroke="#f89c16"/><path stroke="#0000c4" stroke-width="2.5" marker-end="url(#b)" d="M-109.6 0a109.6 109.6 0 0 0 219.2 0 109.6 109.6 0 0 0-219.2 0"/><path stroke="#bc0d0d" stroke-width="2.5" marker-end="url(#c)" d="M-146.4 0a146.4 146.4 0 0 0 292.8 0 146.4 146.4 0 0 0-292.8 0"/><path stroke="#00b996" stroke-dasharray="2 4" stroke-width="2" d="M-537.3 0a323.45 242.669 0 0 0 646.9 0"/><path stroke="#ff991b" stroke-dasharray="2 4" stroke-width="2" d="M146.4 0a341.85 280.465 0 0 0-683.7 0"/><path stroke="#00b996" stroke-width="5" d="M109.6 0a323.45 242.669 0 0 0-646.9 0"/><path stroke="#ff991b" stroke-width="5" d="M-537.3 0a341.85 280.465 0 0 0 683.7 0"/><path stroke="#197810" stroke-width="3" marker-end="url(#d)" d="M109.6 0v-160"/><path stroke="#197810" stroke-width="3" marker-end="url(#d)" d="M-537.3 0v18.09"/><path stroke="#a42d0c" stroke-width="3" marker-end="url(#e)" d="M146.4 0v121.58"/><text fill="#000" font-family="Bitstream Vera Sans" font-size="48" text-anchor="middle" transform="translate(84 18)">1</text><text fill="#000" font-family="Bitstream Vera Sans" font-size="48" text-anchor="middle" transform="translate(-508 18)">2</text><text fill="#000" font-family="Bitstream Vera Sans" font-size="48" text-anchor="middle" transform="translate(181 18)">3</text></g></svg>