<svg width="793.7" height="190pt"><path d="M231.4 773a20 20 0 1 1-39.9 0 20 20 0 1 1 40 0" style="color:#000;fill:red;fill-opacity:.42358081;fill-rule:evenodd;stroke:#000;stroke-width:7.7265811;stroke-linecap:round;stroke-linejoin:round;marker:none;marker-start:none;marker-mid:none;marker-end:none;stroke-miterlimit:4;stroke-dasharray:none;stroke-dashoffset:0;stroke-opacity:1;visibility:visible;display:inline;overflow:visible" transform="translate(275.822 -132.355)scale(.32356)"/><path d="M344.5 161.8c12 0 24-88 48-88s24 88 48.1 88c24 0 24-88 48-88s24 88 48.1 88c24 0 24-88 48-88s24 88 48.1 88c24 0 24-88 48-88s36 88 48.1 88m-538.1 0c4.8 0 9.6-88 19.2-88s9.6 88 19.2 88 9.5-88 19.1-88 9.6 88 19.2 88 9.6-88 19.2-88 9.6 88 19.2 88 9.6-88 19.2-88 14.4 88 19.2 88" style="fill:none;fill-opacity:.75;fill-rule:evenodd;stroke:#000;stroke-width:3.74999595;stroke-linecap:butt;stroke-linejoin:miter;stroke-miterlimit:4;stroke-dasharray:none;stroke-opacity:1"/><path d="m147.1 118.6 28.4 51.8-162.1-51.8 162.1-51.8z" style="fill:#ff5f00;fill-opacity:1;fill-rule:evenodd;stroke:#000;stroke-width:1px;stroke-linecap:butt;stroke-linejoin:miter;stroke-opacity:1"/><path d="M216.3 27.5a253 253 0 0 0 0 180.6h22a219 219 0 0 1 0-180.6zm44.3 0a185 185 0 0 0 0 180.6h25.8a151 151 0 0 1 0-180.6zm58 0a117.2 117.2 0 0 0 0 180.6h150a117.2 117.2 0 0 0 0-180.6zm212.4 0a151 151 0 0 1 0 180.6h55a185 185 0 0 0 0-180.6zm107.1 0a219 219 0 0 1 0 180.6h52.3a253 253 0 0 0 0-180.6zm-259.7 6.4h1.6a83.9 83.9 0 1 1-1.6 0M364 67.8a50 50 0 1 0 1.3 0zm-14.1 35.1h.8a14.9 14.9 0 1 1-.8 0" style="color:#000;fill:#000;fill-opacity:.20087334;fill-rule:evenodd;stroke:#000;stroke-width:2.49999714;stroke-linecap:round;stroke-linejoin:round;marker:none;marker-start:none;marker-mid:none;marker-end:none;stroke-miterlimit:4;stroke-dashoffset:0;stroke-opacity:1;visibility:visible;display:inline;overflow:visible"/></svg>