<svg width="793.7" height="190pt"><path fill="red" fill-opacity=".42" fill-rule="evenodd" stroke="#000" stroke-linecap="round" stroke-linejoin="round" stroke-width="2.501" d="M350.7 117.777a6.455 6.455 0 11-12.91 0 6.455 6.455 0 1112.91 0" color="#000" overflow="visible" style="marker:none"/><path fill="none" stroke="#000" stroke-width="3.75" d="M344.502 161.821c12.012 0 24.025-88.091 48.05-88.091s24.024 88.091 48.048 88.091 24.025-88.091 48.05-88.091 24.024 88.091 48.049 88.091 24.024-88.091 48.049-88.091 24.024 88.091 48.049 88.091S656.82 73.73 680.846 73.73s36.037 88.091 48.049 88.091m-538.119 0c4.797 0 9.594-88.091 19.188-88.091s9.593 88.091 19.187 88.091 9.594-88.091 19.187-88.091 9.594 88.091 19.188 88.091 9.594-88.091 19.187-88.091 9.594 88.091 19.188 88.091 9.594-88.091 19.187-88.091 14.39 88.091 19.188 88.091"/><path fill="#ff5f00" fill-rule="evenodd" stroke="#000" d="M147.121 118.62l28.421 51.826L13.375 118.62l162.167-51.826z"/><path fill-opacity=".2" fill-rule="evenodd" stroke="#000" stroke-linecap="round" stroke-linejoin="round" stroke-width="2.5" d="M216.315 27.494c-10.703 28.055-16.562 58.482-16.562 90.281 0 31.786 5.837 62.237 16.531 90.282h21.969c-12.458-27.531-19.375-58.114-19.375-90.282 0-32.181 6.937-62.74 19.406-90.28zm44.313 0c-14.883 26.745-23.375 57.523-23.375 90.281 0 32.747 8.47 63.544 23.344 90.282h25.843c-18.681-25.25-29.75-56.483-29.75-90.282s11.068-65.03 29.75-90.28zm57.906 0c-25.888 21.539-42.375 53.998-42.375 90.281 0 36.281 16.49 68.743 42.375 90.282h150.031c25.889-21.539 42.375-53.998 42.375-90.282 0-36.286-16.483-68.742-42.375-90.28zm212.438 0c18.682 25.251 29.75 56.482 29.75 90.281s-11.069 65.031-29.75 90.282h55.062c14.873-26.738 23.344-57.535 23.344-90.282 0-32.758-8.493-63.536-23.375-90.28zm107.125 0c12.468 27.541 19.406 58.1 19.406 90.281 0 32.168-6.917 62.75-19.375 90.282h52.25c10.693-28.045 16.562-58.496 16.562-90.282 0-31.799-5.89-62.226-16.593-90.28zm-259.688 6.438c.54-.01 1.083 0 1.625 0 46.29 0 83.875 37.553 83.875 83.843s-37.584 83.875-83.875 83.875-83.844-37.584-83.844-83.875c0-45.748 36.677-82.977 82.219-83.843m-14.531 33.843c-27.012.686-48.719 22.824-48.719 50 0 27.608 22.393 50.032 50 50.032 27.608 0 50-22.424 50-50.032s-22.392-50-50-50c-.431 0-.852-.01-1.281 0M349.784 102.9c.254-.012.524 0 .781 0 8.22 0 14.875 6.656 14.875 14.875s-6.656 14.907-14.875 14.907-14.906-6.688-14.906-14.907c0-7.962 6.262-14.476 14.125-14.875" color="#000" overflow="visible" style="marker:none"/></svg>