<svg stroke-linecap="round" stroke-linejoin="round" class="tl-container tl-theme__force-sRGB tl-theme__light" data-color-mode="light" style="background-color:#f9fafb" viewBox="1488 568 344 304"><path fill="none" stroke="#1d1d1d" stroke-width="3.5" d="M1600 760h160v80h-160Z"/><g transform="translate(1680 800)"><defs><clipPath id="a"><path d="M-220-300H76V60h-296Z"/></clipPath></defs><g fill="none" stroke="#1d1d1d" stroke-width="3.5" pointer-events="none"><path stroke-dashoffset="none" d="m-24-40-96-160" style="clip-path:url(#a)"/><path d="m-119.8-189.5-.2-10.5 9.2 5.1"/></g></g><g transform="translate(1680 800)"><defs><clipPath id="b"><path d="M-100-300h201V60h-201Z"/></clipPath></defs><g fill="none" stroke="#1d1d1d" stroke-width="3.5" pointer-events="none"><path stroke-dashoffset="none" d="M0-40v-160" style="clip-path:url(#b)"/><path d="m-5.2-191 5.2-9 5.2 9"/></g></g><g transform="translate(1680 800)"><defs><clipPath id="c"><path d="M-220-100H20v201h-240Z"/></clipPath></defs><g fill="none" stroke="#1d1d1d" stroke-width="3.5" pointer-events="none"><path stroke-dashoffset="none" d="M-80 0h-40" style="clip-path:url(#c)"/><path d="m-113 4-7-4 7-4"/></g></g><path fill="none" stroke="#1d1d1d" stroke-width="5" d="M1520 840h280"/><text fill="#f9fafb" stroke="#f9fafb" stroke-width="2" alignment-baseline="mathematical" dominant-baseline="mathematical" font-family="'tldraw_serif', serif" font-size="24" transform="translate(1650 690)"><tspan x="0" y="12.5" unicode-bidi="plaintext">φ</tspan></text><text fill="#1d1d1d" alignment-baseline="mathematical" dominant-baseline="mathematical" font-family="'tldraw_serif', serif" font-size="24" transform="translate(1650 690)"><tspan x="0" y="12.5" unicode-bidi="plaintext">φ</tspan></text><path fill="none" stroke="#1d1d1d" stroke-width="4.5" d="m1646 738 3.4-2 2-1 1.9-.8 2.5-.9 2.7-1 2-.8 1.7-.4q.7 0 1.3-.2t1-.1.8 0 .8-.2.7-.2.9-.1 1 0 .9-.1.7-.1.6-.2.7 0 .6-.1.6 0 .7 0 .5-.1.5 0 .5 0 .5 0 .8 0 1.2 0h.7"/><path fill="none" stroke="#1d1d1d" stroke-dasharray="7.5 8.571" stroke-width="3.5" d="M1560 600h120"/><path fill="none" stroke="#1d1d1d" stroke-dasharray="7.143 7.692" stroke-width="3.5" d="M1560 600v200"/><text fill="#f9fafb" stroke="#f9fafb" stroke-width="2" alignment-baseline="mathematical" dominant-baseline="mathematical" font-family="'tldraw_draw', sans-serif" font-size="24" transform="translate(1690 600)"><tspan x="0" y="12.5" unicode-bidi="plaintext">N</tspan></text><text fill="#1d1d1d" alignment-baseline="mathematical" dominant-baseline="mathematical" font-family="'tldraw_draw', sans-serif" font-size="24" transform="translate(1690 600)"><tspan x="0" y="12.5" unicode-bidi="plaintext">N</tspan></text><text fill="#f9fafb" stroke="#f9fafb" stroke-width="2" alignment-baseline="mathematical" dominant-baseline="mathematical" font-family="'tldraw_draw', sans-serif" font-size="18" transform="translate(1590 610)"><tspan x="0" y="9.5" unicode-bidi="plaintext">R</tspan></text><text fill="#1d1d1d" alignment-baseline="mathematical" dominant-baseline="mathematical" font-family="'tldraw_draw', sans-serif" font-size="18" transform="translate(1590 610)"><tspan x="0" y="9.5" unicode-bidi="plaintext">R</tspan></text><text fill="#f9fafb" stroke="#f9fafb" stroke-width="2" alignment-baseline="mathematical" dominant-baseline="mathematical" font-family="'tldraw_draw', sans-serif" font-size="24" transform="translate(1580 600)"><tspan x="0" y="12.5" unicode-bidi="plaintext">F</tspan></text><text fill="#1d1d1d" alignment-baseline="mathematical" dominant-baseline="mathematical" font-family="'tldraw_draw', sans-serif" font-size="24" transform="translate(1580 600)"><tspan x="0" y="12.5" unicode-bidi="plaintext">F</tspan></text><text fill="#f9fafb" stroke="#f9fafb" stroke-width="2" alignment-baseline="mathematical" dominant-baseline="mathematical" font-family="'tldraw_draw', sans-serif" font-size="18" transform="translate(1550 810)"><tspan x="0" y="9.5" unicode-bidi="plaintext">滑</tspan></text><text fill="#1d1d1d" alignment-baseline="mathematical" dominant-baseline="mathematical" font-family="'tldraw_draw', sans-serif" font-size="18" transform="translate(1550 810)"><tspan x="0" y="9.5" unicode-bidi="plaintext">滑</tspan></text><text fill="#f9fafb" stroke="#f9fafb" stroke-width="2" alignment-baseline="mathematical" dominant-baseline="mathematical" font-family="'tldraw_draw', sans-serif" font-size="24" transform="translate(1540 800)"><tspan x="0" y="12.5" unicode-bidi="plaintext">f</tspan></text><text fill="#1d1d1d" alignment-baseline="mathematical" dominant-baseline="mathematical" font-family="'tldraw_draw', sans-serif" font-size="24" transform="translate(1540 800)"><tspan x="0" y="12.5" unicode-bidi="plaintext">f</tspan></text></svg>