<svg stroke-linecap="round" stroke-linejoin="round" class="tl-container tl-theme__force-sRGB tl-theme__light" data-color-mode="light" style="background-color:#f9fafb" viewBox="1364.2 528 624.3 668.9"><path fill="none" stroke="#cbe7f1" stroke-width="20.2" d="m1809.5 767-.3 10.7-.1 3.6v11.2l.2 1q.2.6.1 1t0 1.5.2 2 .2 1.7 0 1.4.1 1.2 0 1 0 1 0 1.2 0 1.5.2 1.2.2.7 0 .8.1 1 0 1.5 0 1.3 0 1 0 .7 0 .6.2 1 .2 1.1.2 1.2.2 1.3.1 1 0 1 0 .7 0 1.2 0 1.4 0 1.2 0 .9 0 .6 0 .6 0 .5.2.5.2.5.2.3.5.3 1 .2 2.5.1 3.7.1 3.7 0 3.4 0 2.5 0 1.7 0 1.6-.2 1.9-.6 2.1-.3 3.1-.5 4.2-.4 4.1-.2 3.8 0 3.6-.1 4.5 0 5.4 0 4.9 0 4 0 4.8-.3 5.7-.5 5.3-.4 4-.1 3-.1 2.8 0 3 0 2.5 0 2 0 1.7 0 1.8 0 2.3 0 2.7 0 3.5.4 3.3.3 2 .1 1.3 0 1 0 1.1 0 .8 0 .8 0 .7 0 .9 0 .8-.2.8-.1 1 0 .6 0 .6 0 .5 0 .5 0 .7 0 1 0 1 0 .8 0 .5-.2.3-.4.3-.4.1-.4.2-.3.4-.5.4-1 .3-1.3.2-1.6.1-1.7.4-2.2.6-3.3.5-3.4.3-2.9.3-2.4.1-2.5.2-3 .2-2.8.3-2.2.2-2 .1-1.7.2-1.6.2-1.3 0-1.1.2-1.3.3-1.7 0-1.4 0-1 .1-1 0-.8 0-.8-.1-1.1-.4-1.1-.2-1-.3-1.2-.2-1.1-.3-1-.2-1-.2-.9-.4-.6-.6-.4-.8-.2-1-.2-1.4-.2-1.6-.2-2-.3-2-.2-1.9-.2-1.3-.1-1 0-.8-.1-.9 0-1 0-1.2 0-2.3 0-2.8 0-2.2 0-2.1 0-2.4 0-2.5 0-2 0-1.8 0-3 0-4 0-3.9 0-3.5 0-3.6 0-3.7.1-3.8.2-3 .1-2.2.2-3.7.2-4.5 0-2.8.1-2 0-1.5 0-2 0-2 0-2 .2-2 .2-2.4 0-2.2 0-1.8.1-1.8 0-1.9 0-1.9 0-2 0-2.2 0-3 0-3.6 0-3.3 0-2.5 0-2.7 0-4.1 0-4.4 0-2.9 0-1.7 0-.8.1-.4 1 .2 1.8.6 2.4.6 2.5.8 2.5 1.2 2.7 1 2.7 1 2.6.7 2.1.6 2 .5 1.8.4 1.6.3 1.4.4 1.7.5 1.8.5 2 .5 2.6.7 2.4.4 1.8.3 1.3.5 1.2.6 1.2.7 1.2 1.1 1.4 1.2 1.2.9.5.9-.3 1.6-2.6 2.3-5 2-6 1-5.4.4-4.4-.3-3.5-.6-2.1-1.3-1-1.7-.8-1.8-.6-1.9-.9-1.5-1.3-.7-1.3-.4-1-.1-.7 1 2.4 2.6 6 3 6.8 2.6 5.5 1.4 4 .7 3.3.4 2.5.3 1.7.3 1.1.7.7 1.6.2 2.9.1 4.7-.2 6-.9 5.4-1.8 3.5-2.6 1.8-2.9.3-3.4-1-4-1.7-3.6-1.8-3.5-1.6-2.8-1.5-2.5-1.4-2-1.2-2-1.5-1.6-1.7-1.2-1.8-.8-1.5-.3-1.1-.2-1.3.4-1.4 1.2-1.3 2.2-.8 3-.2 3.4 1 3.9 2 3.6 1.7 2.3 1.6 1.7 1.4 1.5 2 1.7 1.8 1.6 1 1 .8.5 1.2.6 2.5 1 3.5 1 3.8 1 3 .6 1.5.4.6.6.3 1 0 1.7-.4 1.8-.6 1.6-.4 1.2-.1-.9-.1-2.5 0-3.5 0-6.2 0-7.7.3-6.3 0-3.8 0-2.2 0-1.4-.5-1.6-.7-1.5-.4-.7 1 1 2 3.7 2.5 5.8 2.5 6 2 5 1.5 3.8.9 2.5.7 2.3.7 2.7 1 2.7 1.6 2.1 1.6 1 2.2.5 2.5-.2 2-2 .7-4.4-1.2-5.8-2.5-5.5-4.1-5.2-5-4.6-4.2-3.4-3.2-2.5-2.1-1.7-1.5-1-.9.7-.8 2.7-.6 5.9-.2 6.6 0 4.7.7 3.6 1.2 2.5 1.4 1.6 1.5 1 2.3-.3 3.5-1.5 4.8-2.2 4.2-2.6 2.4-2.9 1.1-4 .5-4.5.2-4.1 0-3.5.1-2.5-.3-1.8-.3-1.3-.2-1 0-.8 1-.7 3-.5 5.3-.1 5.2 1 3.6 1.3 1.5 1.5-.6 1.6-3 1-5 .3-5.6 0-5-.3-3.9-.5-1-.1 2.6-.1 5.5 0 9 0 11 0 8.7 0 5.6-.2 3-.3.5-.2-.7 0-.9.1-.7.2-2.7.6-4.6 1-5 1.1-6 2-6.8 2.8-6 2.8-4.6 2.6-3.1 2-1.3 1.2 1.6.6 5.3.4 9.3.2 9.3-.1 5.2-.6 2.5-1.2.9-2.4.1-3-.2-2.3-.4-1.8-.3-1.2-.2-.6-1 0-2.4 1.4-5.5 4.4-7.2 6.2-5.3 5-3.2 3.6.4 2 4.8.8 6.7-.2 6-1 3.5-1 1.6-1.3.8-1.6.6-2 1-2.3.9-2 .5-1.3.5-.7.6 0 .8 1 1 3 1.2 4 .9 3.2.6 2.4.4 1 .2-.8 0-2.5.1-3.1 0-3.1 0-1.2 0 2 0 3.2 0 3 0 1.9-1 3-2 4l-.8 1.7" opacity="0.8" pointer-events="all"/><path fill="none" stroke="#65f641" stroke-width="20.2" d="m1611.4 789.4-.3 7.8v2.5l-.1 1.3q-.1.4 0 .8t0 .6 0 .5 0 .5 0 .5 0 .6 0 .8 0 1 0 1.2 0 1.3 0 1.2 0 .8 0 .6 0 .5 0 .8 0 1 0 .9 0 .6 0 .7 0 1 0 1.2 0 1.2 0 1 0 1 0 1 0 1 0 .8 0 .7 0 .7 0 .6 0 .5 0 .7 0 .8 0 .9 0 .8 0 .6 0 .5.7.4.8.1.6 0 .8.1 1.3 0 1.5 0 1.5 0 1.3 0 1.9-.1 3-.2 3.1 0 3.2-.1 2.7 0 2.2 0 2 0 2 0 2.3 0 3.2 0 3.5 0 2.7 0 2 0 2.5-.2 3.5-.3 4.9-.4 5.9-.3 5-.2 3.7-.2 3.2-.2 4.1 0 5-.1 5.3 0 4.4 0 2.7 0 2 0 1.5 0 1.6 0 1.6 0 1 0 1 0 1.2 0 1.8 0 2 0 1.1 0 1.2 0 1.3 0 1.1 0 1.6 0 2.4 0 2.7-.2 2.1-.2 1.3 0 .8 0 1.7-.4 2.5-.4 1.6-.3.9-.4.7-.4.9-.5.8-.6.4-.6.2-.9.1-1.3 0-1.4-.4-1-.3-1.2-.1-1.5-.2-1.7-.2-1.5 0-1.2-.1-1.4 0-1.8 0-1.7 0-1.4 0-1.4 0-1.1 0-1.3 0-1.7 0-1.8 0-1.7 0-1.5 0-1.5 0-1 0-.9 0-.9 0-.8 0-.6-.3-.5-.5-.5-.5-.5-.7-.4-1.5-.1-2.5 0-3.1.4-3.7.2-3.1.1-2 0-1.2.1-1 0-1.4 0-2.7 0-3 0-2.8 0-2.8 0-2.6.2-3 .2-3 0-2.6 0-2.8.1-3.2 0-3.7 0-3.4 0-2.9 0-3 0-3.8 0-4.1 0-3.6 0-3 0-2.2 0-1.6 0-2 .1-3 .4-4 .3-4.5 0-3.6.1-2.1 0-2.3.2-3.3.3-4 .3-3.6.1-2.4 0-1.8 0-2.3 0-2.8.1-2.6 0-2 0-1.3 0-1.1 0-1 .1-.9.2-.7.1-.6.2-.3.3 0 .7 0 1.1 1.4 1 5.5.6 8 .3 7.1 0 6-.2 5-.6 4.1-.7 2.4-.4.4-.2-2.6.2-5.6 1-7.3 1.8-7.3 2.3-5 2-2.2 1.5-.7 1.4 1.7 1.7 4.1 1.3 6.1.5 9.7.2 10.4-.2 6.7-.7 2.9-1 .1-.8-3-.5-8.1-.2-12.1.4-10 1.3-5.5 1.5-2.4 1.7.6 2.2 3.4 2.4 6.1 1.6 9 .9 10.9.2 11.6-1 8.5-1.8 3.9-1.6 1.3-1.3-1.3-1.1-4.5-.8-6.5 0-9.8 1-10.5 2-7.2 2.2-4 1.7-1.6 1 .8.3 7-.1 14-.9 16.6-1.4 14.3-1.6 10-1.6 5.7-1.8 2-1.2-5.6.5-9.9 1.5-7 1.5-3.7 1 2-.5 8.5-2.1 11.5-3 10.4-2.6 7-2 3.3-1.7-.2-1.3-3.7-1-7.4-.5-8.7 0-7.3 1-5.2 1.4-2.7 1 0 .7 4.2.6 8.6.3 11 .2 9.7 0 5.3.5 1.2 1.3-.5 1.9-.7 1.9-.2 1.3.5.5 2.2-.7 3.9-1.9 4.4-2.5 2.4-1.4-1.6 2-5.1 4.5-7.6 4.7-8.6 3.6-6.4 2-3.1.8-.8 0 1.7-1.6 4.8-3.4 5.5-3.7 3.2-2.6 1.8-1.6 1-1 .8-.4 1.1-.2 1.7 0 1.6 0 1.2 0 1.4 0 2 0 1.8 0 1 0 .2.8-.5 1.4-.4 1.4-.4.9-.3.6-.2.6-.4.3-.4.3-.2.3.5.4 1.6.8 3 1.5 3.1 1.7 2.2 1.8 1.3 1.3.7.7.3.6 0 .5.1.6 0 .7 0 .7.2.7.2.7 0 .8.1.8 0 .6.2.5.2.5 0 .5.2.5.2.5.3.4.2.2.1-.1 0-.4 0-.4 0-.5-.2-.6-2.6-1.3-4-1.7l-1.7-.7" opacity="0.8" pointer-events="all"/><path fill="none" stroke="#cbe7f1" stroke-width="20.2" d="m1408.1 766.6 4.5 17q.9 3.6 1.2 5.5t.6 2.9 0 1.5-.8.3-1-.8-.9-3-.7-4.2-.3-3.5-.1-3 0-1.7 0-.7 0 .6 0 2.6.2 4.5 0 6.1-.7 7.3-1.3 6.9-1 5-.6 2.7-.3 1-.1-.4 0-2.3 0-2.7 0-2.1 0-1.6 0-1 0-.3.7.6 1.2 2.7 1.3 4 1 3.7.5 3 .3 2.5 0 3-.4 3-.2 1.9-.3.7-.3-.2-.3-.6-.2-.5 0-.5-.2.1-.3 1.2-.3 1.9-.1 2.4 0 2 .2 1 1.5 0 2.3-.7 2.2-.7 1.4-.6.9-.3-.9 0-2.2.7 0 .5 4.6 0 9.4-.8 13.2-.7 12.5-.3 7.8-.1 3.4 0-.3 0-2.8 0-4.2 0-6 0-5.7 0-3.7 0-1.4 0 2.7.2 8 .1 10.7 0 10.2 0 9.7 0 7.3 0 3.5 0 1.7-.3 1.2-.2 1.1-.2 1.5 0 1.7-.1 2.4 0 3.8-.2 4.5-.2 3.7 0 2.8-.3 2.3-.2 2.3 0 2-.2 1.8-.2 2-.1 2.4 0 2.5 0 1.8 0 1.6 0 1.9 0 1.7 0 1.5 0 1 0 .7 0 .5-.4.6-.3.3-.4.2-.4 0-.4 0-.6 0-.8 0-.9 0-1.2 0-1.4 0-1.7 0-1.7 0-1.6 0-1.7-.5-2-.5-2.2-.2-2.1-.2-2.6-.2-2.7-.1-2.4-.2-2-.2-2.3-.1-2.3 0-1.7 0-1.4 0-1.8 0-2.4.2-2.1.1-1.5.2-1.3.3-1.5.3-1.6.1-1.2.1-1 0-1 0-.8 0-.7 0-.7 0-.5 0-.6 0-.5-.1-.4-.3-.6-.3-.7-.3-.6-.3-.3-.6-.2-1-.2-1.8-.2-3.3-.1-3.5 0-3.2.2-2.8.1-2 0-1.5 0-1.4.2-2 .2-2.7 0-3 .1-2.7 0-2.8 0-2.7 0-2.2 0-2.7 0-3 0-3 0-2.8 0-2.3 0-2.6 0-2.8-.3-2.7 0-2.2-.1-2.2 0-2.9 0-3.3 0-3 0-2.6 0-2.6 0-2.6 0-4.2 0-5.8 0-5.3-.2-4.2-.4-3.2-.5-3.3-.5-3.9-.6-4-.4-3.7-.3-3.5-.4-3.2-.4-2.3-.3-1.6-.2-1 0-.8 0-.5.3-.6.7-.3.8.2.8 2.5 1 5.6.7 10.5.7 13.5.6 14.5.4 13.8.6 8.7.5 3 .5-3.9.9-10.2 1-12.4.6-11.6.8-9.6 1.2-5 .9.5.4 10 .1 17.1.1 17 0 13.2.2 7 .3 2.6.3-2 .5-8.3 1-16.9 1.3-20.8 1.2-17.5 1.1-11 .9-4.3.6 1 .5 8.8.4 21.7.2 24 0 13.4.2 5.7.6-1.5 1.1-8.9 1.7-13.4 2.3-14.4 2.7-12.1 2.6-8.5 2.6-5 2.2-2.3 1.3-1 1-.1.8 1.7.5 5.5.2 7.2 0 5-.4 2.4-1 .3-1.5-1.3-2-2.4-2-2.9-1.5-2.5-.8-1.5 0-1 1.5-.5 2.9-.4 4 .4 4 1 3.2 1.3 1.6 2.8.5 4.5-.5 4.7-1.6 3.5-2 2-1.6.6-1.2-1.6-1-5-.4-6.9.7-6.1 1.4-5.3 2.3-3.8 2.8-1.5 2.2 0 1.8 3.1 1 9.5 0 14-1.2 12.9-2 7.9-1.8 3.3-1.2 0-1-3.3-.7-6.2-.3-7.3-.1-4.8 0-.3-.5 5.4-1.4 17.6-3.9 23.2-5.6 15-4.5 7.2-3 2.6-1.6.2-.8-1.3 0-3.3 1-6.3 3-7.4 5-5 4.4-2 2.4-.3 1 2.7-1.3 4.5-3.7 4.6-4.5 4-4.4 2.3-3.8 1-2.8.6-1.6 0-.9-.3-.2-1.6.7-3.2 2.3-4.1 3.5-3 3-.7 1.3 1.5-.4 4.1-3.6 5.6-5.2 4.9-3.9 3.4-2.3 2.2-1.2 1.1-.7-1.8.7-6.2 3.2-7.6 4.6-5.7 3.8-3.6 3-1.8 2 .3.6 3-.6 5.2-1.4 7-1.7 6-1.5 3-.6.6.8-1.2 2.8-3.5 5.8-5.4 8.2-5.9 8-5 6-3.4 3.6-2 1.7-1.7.3-2.4-.9-3.1-1.1-2.3-.8-1.1-.5 2.1-1.5 6.4-3.1 7.6-3.6 6.6-3.3 4.6-2.7 2.5-1.4 1.5-.5 1.1 0 1.5 0 2-.2 2.3-.8 2-1.2 1.4-1.4.8-1.4.6-1.1.6-.8.6-.4.7 0 .4 1.3.2 2.3 0 2.9 0 2.7-.4 1.7-.4.9-.7.6-1.3.8-1.7 1-2.1.7-3.6 1.2-4.4 1.4l-1.9.6m90.5-90 1 11.3.3 3.2v1.6l.1 1v3.5l.2.8.2.6v.6l.1.7V767q0 .8.2.5t.2.6.2.9.3.6.3.4.4.4.7.5.9.3.9.1.8.1.7 0 1.2 0 2 0 3-.3 4 0 4.8 0 4.4-.1 2.8 0 1.9 0 2.5 0 3.7 0 4.4 0 4.8 0 4.7 0 4.5 0 3.4 0 2.7 0 2.5 0 2.8 0 3 0 2.5 0 1.8 0 1.5 0 1.7 0 2.4 0 3.4 0 4.4 0 3.9 0 3 0 3-.2 4.3-.2 4.4 0 2.9 0 1.6 0 1 0 .9-.1 1.2 0 1 0 1 0 1.6 0 2 0 2.2 0 2.2.1 2 .2 1.8.1 1.3 0 1 0 1-.5.7-.6 1-.6.8-.5.7-.4.6-.5.5-.5.5-.5.4-.4.4-.5.1-.6.2-1 .3-1.3 0-1.7 0-1.5 0-1.2-.5-1.3-.6-1.5-.4-1.4-.3-1-.3-1.1 0-1.1-.1-1.7-.2-1.8-.2-1.3 0-1.1-.1-1.2 0-1.2 0-1.1 0-1.4 0-1.2 0-1.3 0-1.6 0-1.3 0-1 0-.7-.2-.7-.2-.7-.2-.4-.5-.3-.7-.3-1-.2-1.3-.3-2.3-.2-2.9-.3-1.9-.2-1.5-.2-2.4-.3-3.6-.2-3.8-.1-3.6 0-3.4-.2-3-.2-2.9-.2-2.4-.3-2 0-2.2-.1-3.8 0-4.5 0-3 0-2.2 0-1.6 0-2.3.1-3.6.3-3.7.3-3 .1-2.2 0-1.6.1-1.9.1-3 .4-3.3.2-2.5.2-1.9 0-1.7.2-2.1.2-2.8.2-2.9.4-2.1.4-1.7.3-2 .4-2.3.6-2.4.5-2.2.5-2 .4-2.4.1-2.7 0-2.8.1-2.8 0-1.8 0-1.2 0-.8 0-.4.2-.4.2-.3.2-.2.3-.4.3-.4 0-.4-.8 0-1.4.5-1.2 1.7-.8 2.3-.6 2.7-.4 2.4-.1 1.7-.2 1.4-.3 1.5 0 2 0 3-.1 3.3 0 3.8 0 4.1 0 3.4 0 3 .1 3.4.2 6.5.2 8.7.4 6.9.4 4.6.3 3.4.2 3 0 4 .5 4.3 1 4.5 1.4 4.6 1.5 4.5 1.5 3.7 1.1 2.4.8 1.7.6 2 .8 2 1 1.5.7.4.6-2.8 1.3-5.7 2.1-6.7 2.1-7.6 1.7-8.3 1-7.8.4-6 0-6.1 0-6.3 0-7.2-.1-6.6 0-4 0-2.2 0-1.4-.2-1.1-.3-1.2-.5-1.4-.8-3.1-.9-3.9-.6-2.7-.3-1.9-.1-1.3 0-1.5 0-1.8.2-1.7.1-1.2.2-.7.5-.4.7-.3.7-.3.7-.1.8.3.7 2.2.7 4.6.6 6.4.6 6 .6 4.8.2 3.6-.2 2.1-.9 1.8-1.4 2-1.8 2.5-1.5 2.3-1.3 2.4-1.1 1.8-.8 1-.6.3-.5 1-.6 2.8-.6 5.2-.2 7.6-.1 6.7 0 4 .4 2 .3 2 .4 2.8.7 3 1 2.1 1.2 1.2.8 1 .6 1.5.5 3 .7 4.5.6 4.3.6 3.8.4 3 .1 2.9.1 2.1 0 1.3 0 1 0 .7.2-.8.6-3.2 1.2-5 1.5-6.2 1.1-5.7.7-3.4.2-2.5.2-3 0-4.5 0-4.7 0-3.4 0-2.9 0-2.4 0-2.3 0-2.6 0-5-.2-6.1-.5l-2.6-.2m-260.2 330.3 4.5 17q.9 3.6 1.2 5.5t.6 2.9 0 1.5-.8.3-1-.8-.9-3-.7-4.2-.3-3.5-.1-3 0-1.7 0-.7 0 .6 0 2.6.2 4.5 0 6.1-.7 7.3-1.3 6.9-1 5-.6 2.7-.3 1-.1-.4 0-2.3 0-2.7 0-2.1 0-1.6 0-1 0-.3.7.6 1.2 2.7 1.3 4 1 3.7.5 3 .3 2.5 0 3-.4 3-.2 1.9-.3.7-.3-.2-.3-.6-.2-.5 0-.5-.2.1-.3 1.2-.3 1.9-.1 2.4 0 2 .2 1 1.5 0 2.3-.7 2.2-.7 1.4-.6.9-.3-.9 0-2.2.7 0 .5 4.6 0 9.4-.8 13.2-.7 12.5-.3 7.8-.1 3.4 0-.3 0-2.8 0-4.2 0-6 0-5.7 0-3.7 0-1.4 0 2.7.2 8 .1 10.7 0 10.2 0 9.7 0 7.3 0 3.5 0 1.7-.3 1.2-.2 1.1-.2 1.5 0 1.7-.1 2.4 0 3.8-.2 4.5-.2 3.7 0 2.8-.3 2.3-.2 2.3 0 2-.2 1.8-.2 2-.1 2.4 0 2.5 0 1.8 0 1.6 0 1.9 0 1.7 0 1.5 0 1 0 .7 0 .5-.4.6-.3.3-.4.2-.4 0-.4 0-.6 0-.8 0-.9 0-1.2 0-1.4 0-1.7 0-1.7 0-1.6 0-1.7-.5-2-.5-2.2-.2-2.1-.2-2.6-.2-2.7-.1-2.4-.2-2-.2-2.3-.1-2.3 0-1.7 0-1.4 0-1.8 0-2.4.2-2.1.1-1.5.2-1.3.3-1.5.3-1.6.1-1.2.1-1 0-1 0-.8 0-.7 0-.7 0-.5 0-.6 0-.5-.1-.4-.3-.6-.3-.7-.3-.6-.3-.3-.6-.2-1-.2-1.8-.2-3.3-.1-3.5 0-3.2.2-2.8.1-2 0-1.5 0-1.4.2-2 .2-2.7 0-3 .1-2.7 0-2.8 0-2.7 0-2.2 0-2.7 0-3 0-3 0-2.8 0-2.3 0-2.6 0-2.8-.3-2.7 0-2.2-.1-2.2 0-2.9 0-3.3 0-3 0-2.6 0-2.6 0-2.6 0-4.2 0-5.8 0-5.3-.2-4.2-.4-3.2-.5-3.3-.5-3.9-.6-4-.4-3.7-.3-3.5-.4-3.2-.4-2.3-.3-1.6-.2-1 0-.8 0-.5.3-.6.7-.3.8.2.8 2.5 1 5.6.7 10.5.7 13.5.6 14.5.4 13.8.6 8.7.5 3 .5-3.9.9-10.2 1-12.4.6-11.6.8-9.6 1.2-5 .9.5.4 10 .1 17.1.1 17 0 13.2.2 7 .3 2.6.3-2 .5-8.3 1-16.9 1.3-20.8 1.2-17.5 1.1-11 .9-4.3.6 1 .5 8.8.4 21.7.2 24 0 13.4.2 5.7.6-1.5 1.1-8.9 1.7-13.4 2.3-14.4 2.7-12.1 2.6-8.5 2.6-5 2.2-2.3 1.3-1 1-.1.8 1.7.5 5.5.2 7.2 0 5-.4 2.4-1 .3-1.5-1.3-2-2.4-2-2.9-1.5-2.5-.8-1.5 0-1 1.5-.5 2.9-.4 4 .4 4 1 3.2 1.3 1.6 2.8.5 4.5-.5 4.7-1.6 3.5-2 2-1.6.6-1.2-1.6-1-5-.4-6.9.7-6.1 1.4-5.3 2.3-3.8 2.8-1.5 2.2 0 1.8 3.1 1 9.5 0 14-1.2 12.9-2 7.9-1.8 3.3-1.2 0-1-3.3-.7-6.2-.3-7.3-.1-4.8 0-.3-.5 5.4-1.4 17.6-3.9 23.2-5.6 15-4.5 7.2-3 2.6-1.6.2-.8-1.3 0-3.3 1-6.3 3-7.4 5-5 4.4-2 2.4-.3 1 2.7-1.3 4.5-3.7 4.6-4.5 4-4.4 2.3-3.8 1-2.8.6-1.6 0-.9-.3-.2-1.6.7-3.2 2.3-4.1 3.5-3 3-.7 1.3 1.5-.4 4.1-3.6 5.6-5.2 4.9-3.9 3.4-2.3 2.2-1.2 1.1-.7-1.8.7-6.2 3.2-7.6 4.6-5.7 3.8-3.6 3-1.8 2 .3.6 3-.6 5.2-1.4 7-1.7 6-1.5 3-.6.6.8-1.2 2.8-3.5 5.8-5.4 8.2-5.9 8-5 6-3.4 3.6-2 1.7-1.7.3-2.4-.9-3.1-1.1-2.3-.8-1.1-.5 2.1-1.5 6.4-3.1 7.6-3.6 6.6-3.3 4.6-2.7 2.5-1.4 1.5-.5 1.1 0 1.5 0 2-.2 2.3-.8 2-1.2 1.4-1.4.8-1.4.6-1.1.6-.8.6-.4.7 0 .4 1.3.2 2.3 0 2.9 0 2.7-.4 1.7-.4.9-.7.6-1.3.8-1.7 1-2.1.7-3.6 1.2-4.4 1.4l-1.9.6m292.4-52.2-.3 10.7-.1 3.6v11.2l.2 1q.2.6.1 1t0 1.5.2 2 .2 1.7 0 1.4.1 1.2 0 1 0 1 0 1.2 0 1.5.2 1.2.2.7 0 .8.1 1 0 1.5 0 1.3 0 1 0 .7 0 .7.2 1 .2 1 .2 1.2.2 1.3.1 1 0 1 0 .7 0 1.2 0 1.4 0 1.2 0 .9 0 .6 0 .6 0 .5.2.5.2.5.2.3.5.3 1 .2 2.5.1 3.7.1 3.7 0 3.4 0 2.5 0 1.7 0 1.6-.2 1.9-.6 2.1-.3 3.1-.5 4.2-.4 4.1-.2 3.8 0 3.6-.1 4.5 0 5.4 0 4.9 0 4 0 4.8-.3 5.7-.5 5.3-.4 4-.1 3-.1 2.8 0 3 0 2.5 0 2 0 1.7 0 1.8 0 2.3 0 2.7 0 3.5.4 3.3.3 2 .1 1.3 0 1 0 1.1 0 .8 0 .8 0 .7 0 .9 0 .8-.2.8-.1 1 0 .6 0 .6 0 .5 0 .5 0 .7 0 1 0 1 0 .8 0 .5-.2.3-.4.3-.4.1-.4.2-.3.4-.5.4-1 .3-1.3.2-1.6.1-1.7.4-2.2.6-3.3.5-3.4.3-2.9.3-2.4.1-2.5.2-3 .2-2.8.3-2.2.2-2 .1-1.7.2-1.6.2-1.3 0-1.1.2-1.3.3-1.7 0-1.4 0-1 .1-1 0-.8 0-.8-.1-1.1-.4-1.1-.2-1-.3-1.2-.2-1.1-.3-1-.2-1-.2-.9-.4-.6-.6-.4-.8-.2-1-.2-1.4-.2-1.6-.2-2-.3-2-.2-1.9-.2-1.3-.1-1 0-.8-.1-.9 0-1 0-1.2 0-2.3 0-2.8 0-2.2 0-2.1 0-2.4 0-2.5 0-2 0-1.8 0-3 0-4 0-3.9 0-3.5 0-3.6 0-3.7.1-3.8.2-3 .1-2.2.2-3.7.2-4.5 0-2.8.1-2 0-1.5 0-2 0-2 0-2 .2-2 .2-2.4 0-2.2 0-1.8.1-1.8 0-1.9 0-1.9 0-2 0-2.2 0-3 0-3.6 0-3.3 0-2.5 0-2.7 0-4.1 0-4.4 0-2.9 0-1.7 0-.8.1-.4 1 .2 1.8.6 2.4.6 2.5.8 2.5 1.2 2.7 1 2.7 1 2.6.7 2.1.6 2 .5 1.8.4 1.6.3 1.4.4 1.7.5 1.8.5 2 .5 2.6.7 2.4.4 1.8.3 1.3.5 1.2.6 1.2.7 1.2 1.1 1.4 1.2 1.2.9.5.9-.3 1.6-2.6 2.3-5 2-6 1-5.4.4-4.4-.3-3.5-.6-2.1-1.3-1-1.7-.8-1.8-.6-1.9-.9-1.5-1.3-.7-1.3-.4-1-.1-.7 1 2.4 2.6 6 3 6.8 2.6 5.5 1.4 4 .7 3.3.4 2.5.3 1.7.3 1.1.7.7 1.6.2 2.9.1 4.7-.2 6-.9 5.4-1.8 3.5-2.6 1.8-2.9.3-3.4-1-4-1.7-3.6-1.8-3.5-1.6-2.8-1.5-2.5-1.4-2-1.2-2-1.5-1.6-1.7-1.2-1.8-.8-1.5-.3-1.1-.2-1.3.4-1.4 1.2-1.3 2.2-.8 3-.2 3.4 1 3.9 2 3.6 1.7 2.3 1.6 1.7 1.4 1.5 2 1.7 1.8 1.6 1 1 .8.5 1.2.6 2.5 1 3.5 1 3.8 1 3 .6 1.5.4.6.6.3 1 0 1.7-.4 1.8-.6 1.6-.4 1.2-.1-.9-.1-2.5 0-3.5 0-6.2 0-7.7.3-6.3 0-3.8 0-2.2 0-1.4-.5-1.6-.7-1.5-.4-.7 1 1 2 3.7 2.5 5.8 2.5 6 2 5 1.5 3.8.9 2.5.7 2.3.7 2.7 1 2.7 1.6 2.1 1.6 1 2.2.5 2.5-.2 2-2 .7-4.4-1.2-5.8-2.5-5.5-4.1-5.2-5-4.6-4.2-3.4-3.2-2.5-2.1-1.7-1.5-1-.9.7-.8 2.7-.6 5.9-.2 6.6 0 4.7.7 3.6 1.2 2.5 1.4 1.6 1.5 1 2.3-.3 3.5-1.5 4.8-2.2 4.2-2.6 2.4-2.9 1.1-4 .5-4.5.2-4.1 0-3.5.1-2.5-.3-1.8-.3-1.3-.2-1 0-.8 1-.7 3-.5 5.3-.1 5.2 1 3.6 1.3 1.5 1.5-.6 1.6-3 1-5 .3-5.6 0-5-.3-3.9-.5-1-.1 2.6-.1 5.5 0 9 0 11 0 8.7 0 5.6-.2 3-.3.5-.2-.7 0-.9.1-.7.2-2.7.6-4.6 1-5 1.1-6 2-6.8 2.8-6 2.8-4.6 2.6-3.1 2-1.3 1.2 1.6.6 5.3.4 9.3.2 9.3-.1 5.2-.6 2.5-1.2.9-2.4.1-3-.2-2.3-.4-1.8-.3-1.2-.2-.6-1 0-2.4 1.4-5.5 4.4-7.2 6.2-5.3 5-3.2 3.6.4 2 4.8.8 6.7-.2 6-1 3.5-1 1.6-1.3.8-1.6.6-2 1-2.3.9-2 .5-1.3.5-.7.6 0 .8 1 1 3 1.2 4 .9 3.2.6 2.4.4 1 .2-.8 0-2.5.1-3.1 0-3.1 0-1.2 0 2 0 3.2 0 3 0 1.9-1 3-2 4l-.8 1.7" opacity="0.8" pointer-events="all"/><path fill="none" stroke="#1d1d1d" stroke-width="3.5" d="M1400 640v200m0 0h150m0 0V640"/><path fill="none" stroke="#1d1d1d" stroke-dasharray="7.5 8.333" stroke-width="3.5" d="M1400 760h150"/><path fill="none" stroke="#1d1d1d" stroke-width="3.5" d="M1400 570h70m-70-10h80m-10 10v150m10-160v160"/><path fill="none" stroke="#1d1d1d" stroke-dasharray="7.857 9.167" stroke-width="3.5" d="M1420 770h110"/><path fill="none" stroke="#1d1d1d" stroke-dasharray="7.5 8.333" stroke-width="3.5" d="M1600 780h150"/><path fill="none" stroke="#1d1d1d" stroke-width="3.5" d="M1600 570h70m-70-10h80m-10 10v250m10-260v260"/><path fill="none" stroke="#1d1d1d" stroke-dasharray="7.5 8.333" stroke-width="3.5" d="M1600 720h150"/><text fill="#f9fafb" stroke="#f9fafb" stroke-width="2" alignment-baseline="mathematical" dominant-baseline="mathematical" font-family="'tldraw_serif', serif" font-size="24" transform="translate(1700 750)"><tspan x="0" y="12.5" unicode-bidi="plaintext">H₂O</tspan></text><text fill="#1d1d1d" alignment-baseline="mathematical" dominant-baseline="mathematical" font-family="'tldraw_serif', serif" font-size="24" transform="translate(1700 750)"><tspan x="0" y="12.5" unicode-bidi="plaintext">H₂O</tspan></text><text fill="#f9fafb" stroke="#f9fafb" stroke-width="2" alignment-baseline="mathematical" dominant-baseline="mathematical" font-family="'tldraw_serif', serif" font-size="24" transform="translate(1700 810)"><tspan x="0" y="12.5" unicode-bidi="plaintext">CCl₄</tspan></text><text fill="#1d1d1d" alignment-baseline="mathematical" dominant-baseline="mathematical" font-family="'tldraw_serif', serif" font-size="24" transform="translate(1700 810)"><tspan x="0" y="12.5" unicode-bidi="plaintext">CCl₄</tspan></text><path fill="none" stroke="#1d1d1d" stroke-width="3.5" d="M1800 640v200m0 0h150m0 0V640"/><path fill="none" stroke="#1d1d1d" stroke-dasharray="7.5 8.333" stroke-width="3.5" d="M1800 760h150"/><path fill="none" stroke="#1d1d1d" stroke-width="3.5" d="M1800 570h70m-70-10h80m-10 10v70m10-80v80"/><path fill="none" stroke="#1d1d1d" stroke-width="10" d="M1860 640h30"/><path fill="none" stroke="#1d1d1d" stroke-width="3.5" d="M1860 640v40m30-40v40m-15 70a35 35 0 1 1 0-70h0a35 35 0 1 1 0 70m-5 0v30m10-30v30"/><path fill="none" stroke="#cbe7f1" stroke-width="20.2" d="m1809.5 767-.3 10.7-.1 3.6v11.2l.2 1q.2.6.1 1t0 1.5.2 2 .2 1.7 0 1.4.1 1.2 0 1 0 1 0 1.2 0 1.5.2 1.2.2.7 0 .8.1 1 0 1.5 0 1.3 0 1 0 .7 0 .6.2 1 .2 1.1.2 1.2.2 1.3.1 1 0 1 0 .7 0 1.2 0 1.4 0 1.2 0 .9 0 .6 0 .6 0 .5.2.5.2.5.2.3.5.3 1 .2 2.5.1 3.7.1 3.7 0 3.4 0 2.5 0 1.7 0 1.6-.2 1.9-.6 2.1-.3 3.1-.5 4.2-.4 4.1-.2 3.8 0 3.6-.1 4.5 0 5.4 0 4.9 0 4 0 4.8-.3 5.7-.5 5.3-.4 4-.1 3-.1 2.8 0 3 0 2.5 0 2 0 1.7 0 1.8 0 2.3 0 2.7 0 3.5.4 3.3.3 2 .1 1.3 0 1 0 1.1 0 .8 0 .8 0 .7 0 .9 0 .8-.2.8-.1 1 0 .6 0 .6 0 .5 0 .5 0 .7 0 1 0 1 0 .8 0 .5-.2.3-.4.3-.4.1-.4.2-.3.4-.5.4-1 .3-1.3.2-1.6.1-1.7.4-2.2.6-3.3.5-3.4.3-2.9.3-2.4.1-2.5.2-3 .2-2.8.3-2.2.2-2 .1-1.7.2-1.6.2-1.3 0-1.1.2-1.3.3-1.7 0-1.4 0-1 .1-1 0-.8 0-.8-.1-1.1-.4-1.1-.2-1-.3-1.2-.2-1.1-.3-1-.2-1-.2-.9-.4-.6-.6-.4-.8-.2-1-.2-1.4-.2-1.6-.2-2-.3-2-.2-1.9-.2-1.3-.1-1 0-.8-.1-.9 0-1 0-1.2 0-2.3 0-2.8 0-2.2 0-2.1 0-2.4 0-2.5 0-2 0-1.8 0-3 0-4 0-3.9 0-3.5 0-3.6 0-3.7.1-3.8.2-3 .1-2.2.2-3.7.2-4.5 0-2.8.1-2 0-1.5 0-2 0-2 0-2 .2-2 .2-2.4 0-2.2 0-1.8.1-1.8 0-1.9 0-1.9 0-2 0-2.2 0-3 0-3.6 0-3.3 0-2.5 0-2.7 0-4.1 0-4.4 0-2.9 0-1.7 0-.8.1-.4 1 .2 1.8.6 2.4.6 2.5.8 2.5 1.2 2.7 1 2.7 1 2.6.7 2.1.6 2 .5 1.8.4 1.6.3 1.4.4 1.7.5 1.8.5 2 .5 2.6.7 2.4.4 1.8.3 1.3.5 1.2.6 1.2.7 1.2 1.1 1.4 1.2 1.2.9.5.9-.3 1.6-2.6 2.3-5 2-6 1-5.4.4-4.4-.3-3.5-.6-2.1-1.3-1-1.7-.8-1.8-.6-1.9-.9-1.5-1.3-.7-1.3-.4-1-.1-.7 1 2.4 2.6 6 3 6.8 2.6 5.5 1.4 4 .7 3.3.4 2.5.3 1.7.3 1.1.7.7 1.6.2 2.9.1 4.7-.2 6-.9 5.4-1.8 3.5-2.6 1.8-2.9.3-3.4-1-4-1.7-3.6-1.8-3.5-1.6-2.8-1.5-2.5-1.4-2-1.2-2-1.5-1.6-1.7-1.2-1.8-.8-1.5-.3-1.1-.2-1.3.4-1.4 1.2-1.3 2.2-.8 3-.2 3.4 1 3.9 2 3.6 1.7 2.3 1.6 1.7 1.4 1.5 2 1.7 1.8 1.6 1 1 .8.5 1.2.6 2.5 1 3.5 1 3.8 1 3 .6 1.5.4.6.6.3 1 0 1.7-.4 1.8-.6 1.6-.4 1.2-.1-.9-.1-2.5 0-3.5 0-6.2 0-7.7.3-6.3 0-3.8 0-2.2 0-1.4-.5-1.6-.7-1.5-.4-.7 1 1 2 3.7 2.5 5.8 2.5 6 2 5 1.5 3.8.9 2.5.7 2.3.7 2.7 1 2.7 1.6 2.1 1.6 1 2.2.5 2.5-.2 2-2 .7-4.4-1.2-5.8-2.5-5.5-4.1-5.2-5-4.6-4.2-3.4-3.2-2.5-2.1-1.7-1.5-1-.9.7-.8 2.7-.6 5.9-.2 6.6 0 4.7.7 3.6 1.2 2.5 1.4 1.6 1.5 1 2.3-.3 3.5-1.5 4.8-2.2 4.2-2.6 2.4-2.9 1.1-4 .5-4.5.2-4.1 0-3.5.1-2.5-.3-1.8-.3-1.3-.2-1 0-.8 1-.7 3-.5 5.3-.1 5.2 1 3.6 1.3 1.5 1.5-.6 1.6-3 1-5 .3-5.6 0-5-.3-3.9-.5-1-.1 2.6-.1 5.5 0 9 0 11 0 8.7 0 5.6-.2 3-.3.5-.2-.7 0-.9.1-.7.2-2.7.6-4.6 1-5 1.1-6 2-6.8 2.8-6 2.8-4.6 2.6-3.1 2-1.3 1.2 1.6.6 5.3.4 9.3.2 9.3-.1 5.2-.6 2.5-1.2.9-2.4.1-3-.2-2.3-.4-1.8-.3-1.2-.2-.6-1 0-2.4 1.4-5.5 4.4-7.2 6.2-5.3 5-3.2 3.6.4 2 4.8.8 6.7-.2 6-1 3.5-1 1.6-1.3.8-1.6.6-2 1-2.3.9-2 .5-1.3.5-.7.6 0 .8 1 1 3 1.2 4 .9 3.2.6 2.4.4 1 .2-.8 0-2.5.1-3.1 0-3.1 0-1.2 0 2 0 3.2 0 3 0 1.9-1 3-2 4l-.8 1.7" opacity="0.3" pointer-events="all"/><path fill="none" stroke="#65f641" stroke-width="20.2" d="m1611.4 789.4-.3 7.8v2.5l-.1 1.3q-.1.4 0 .8t0 .6 0 .5 0 .5 0 .5 0 .6 0 .8 0 1 0 1.2 0 1.3 0 1.2 0 .8 0 .6 0 .5 0 .8 0 1 0 .9 0 .6 0 .7 0 1 0 1.2 0 1.2 0 1 0 1 0 1 0 1 0 .8 0 .7 0 .7 0 .6 0 .5 0 .7 0 .8 0 .9 0 .8 0 .6 0 .5.7.4.8.1.6 0 .8.1 1.3 0 1.5 0 1.5 0 1.3 0 1.9-.1 3-.2 3.1 0 3.2-.1 2.7 0 2.2 0 2 0 2 0 2.3 0 3.2 0 3.5 0 2.7 0 2 0 2.5-.2 3.5-.3 4.9-.4 5.9-.3 5-.2 3.7-.2 3.2-.2 4.1 0 5-.1 5.3 0 4.4 0 2.7 0 2 0 1.5 0 1.6 0 1.6 0 1 0 1 0 1.2 0 1.8 0 2 0 1.1 0 1.2 0 1.3 0 1.1 0 1.6 0 2.4 0 2.7-.2 2.1-.2 1.3 0 .8 0 1.7-.4 2.5-.4 1.6-.3.9-.4.7-.4.9-.5.8-.6.4-.6.2-.9.1-1.3 0-1.4-.4-1-.3-1.2-.1-1.5-.2-1.7-.2-1.5 0-1.2-.1-1.4 0-1.8 0-1.7 0-1.4 0-1.4 0-1.1 0-1.3 0-1.7 0-1.8 0-1.7 0-1.5 0-1.5 0-1 0-.9 0-.9 0-.8 0-.6-.3-.5-.5-.5-.5-.5-.7-.4-1.5-.1-2.5 0-3.1.4-3.7.2-3.1.1-2 0-1.2.1-1 0-1.4 0-2.7 0-3 0-2.8 0-2.8 0-2.6.2-3 .2-3 0-2.6 0-2.8.1-3.2 0-3.7 0-3.4 0-2.9 0-3 0-3.8 0-4.1 0-3.6 0-3 0-2.2 0-1.6 0-2 .1-3 .4-4 .3-4.5 0-3.6.1-2.1 0-2.3.2-3.3.3-4 .3-3.6.1-2.4 0-1.8 0-2.3 0-2.8.1-2.6 0-2 0-1.3 0-1.1 0-1 .1-.9.2-.7.1-.6.2-.3.3 0 .7 0 1.1 1.4 1 5.5.6 8 .3 7.1 0 6-.2 5-.6 4.1-.7 2.4-.4.4-.2-2.6.2-5.6 1-7.3 1.8-7.3 2.3-5 2-2.2 1.5-.7 1.4 1.7 1.7 4.1 1.3 6.1.5 9.7.2 10.4-.2 6.7-.7 2.9-1 .1-.8-3-.5-8.1-.2-12.1.4-10 1.3-5.5 1.5-2.4 1.7.6 2.2 3.4 2.4 6.1 1.6 9 .9 10.9.2 11.6-1 8.5-1.8 3.9-1.6 1.3-1.3-1.3-1.1-4.5-.8-6.5 0-9.8 1-10.5 2-7.2 2.2-4 1.7-1.6 1 .8.3 7-.1 14-.9 16.6-1.4 14.3-1.6 10-1.6 5.7-1.8 2-1.2-5.6.5-9.9 1.5-7 1.5-3.7 1 2-.5 8.5-2.1 11.5-3 10.4-2.6 7-2 3.3-1.7-.2-1.3-3.7-1-7.4-.5-8.7 0-7.3 1-5.2 1.4-2.7 1 0 .7 4.2.6 8.6.3 11 .2 9.7 0 5.3.5 1.2 1.3-.5 1.9-.7 1.9-.2 1.3.5.5 2.2-.7 3.9-1.9 4.4-2.5 2.4-1.4-1.6 2-5.1 4.5-7.6 4.7-8.6 3.6-6.4 2-3.1.8-.8 0 1.7-1.6 4.8-3.4 5.5-3.7 3.2-2.6 1.8-1.6 1-1 .8-.4 1.1-.2 1.7 0 1.6 0 1.2 0 1.4 0 2 0 1.8 0 1 0 .2.8-.5 1.4-.4 1.4-.4.9-.3.6-.2.6-.4.3-.4.3-.2.3.5.4 1.6.8 3 1.5 3.1 1.7 2.2 1.8 1.3 1.3.7.7.3.6 0 .5.1.6 0 .7 0 .7.2.7.2.7 0 .8.1.8 0 .6.2.5.2.5 0 .5.2.5.2.5.3.4.2.2.1-.1 0-.4 0-.4 0-.5-.2-.6-2.6-1.3-4-1.7l-1.7-.7" opacity="0.3" pointer-events="all"/><path fill="none" stroke="#1d1d1d" stroke-width="3.5" d="M1600 1010v150m0 0h150m0 0v-150m-150 0h40m70 0h40m-110 0v-30m70 30v-30"/><path fill="none" stroke="#1d1d1d" stroke-width="10" d="M1640 960h70v20h-70Z"/><path fill="none" stroke="#1d1d1d" stroke-width="3.5" d="M1600 890h60m-60-10h70m-10 10v130m10-140v140m10 0V920m10 100v-90m0 0h180m-190-10h200"/><path fill="none" stroke="#cbe7f1" stroke-width="20.2" d="m1408.1 766.6 4.5 17q.9 3.6 1.2 5.5t.6 2.9 0 1.5-.8.3-1-.8-.9-3-.7-4.2-.3-3.5-.1-3 0-1.7 0-.7 0 .6 0 2.6.2 4.5 0 6.1-.7 7.3-1.3 6.9-1 5-.6 2.7-.3 1-.1-.4 0-2.3 0-2.7 0-2.1 0-1.6 0-1 0-.3.7.6 1.2 2.7 1.3 4 1 3.7.5 3 .3 2.5 0 3-.4 3-.2 1.9-.3.7-.3-.2-.3-.6-.2-.5 0-.5-.2.1-.3 1.2-.3 1.9-.1 2.4 0 2 .2 1 1.5 0 2.3-.7 2.2-.7 1.4-.6.9-.3-.9 0-2.2.7 0 .5 4.6 0 9.4-.8 13.2-.7 12.5-.3 7.8-.1 3.4 0-.3 0-2.8 0-4.2 0-6 0-5.7 0-3.7 0-1.4 0 2.7.2 8 .1 10.7 0 10.2 0 9.7 0 7.3 0 3.5 0 1.7-.3 1.2-.2 1.1-.2 1.5 0 1.7-.1 2.4 0 3.8-.2 4.5-.2 3.7 0 2.8-.3 2.3-.2 2.3 0 2-.2 1.8-.2 2-.1 2.4 0 2.5 0 1.8 0 1.6 0 1.9 0 1.7 0 1.5 0 1 0 .7 0 .5-.4.6-.3.3-.4.2-.4 0-.4 0-.6 0-.8 0-.9 0-1.2 0-1.4 0-1.7 0-1.7 0-1.6 0-1.7-.5-2-.5-2.2-.2-2.1-.2-2.6-.2-2.7-.1-2.4-.2-2-.2-2.3-.1-2.3 0-1.7 0-1.4 0-1.8 0-2.4.2-2.1.1-1.5.2-1.3.3-1.5.3-1.6.1-1.2.1-1 0-1 0-.8 0-.7 0-.7 0-.5 0-.6 0-.5-.1-.4-.3-.6-.3-.7-.3-.6-.3-.3-.6-.2-1-.2-1.8-.2-3.3-.1-3.5 0-3.2.2-2.8.1-2 0-1.5 0-1.4.2-2 .2-2.7 0-3 .1-2.7 0-2.8 0-2.7 0-2.2 0-2.7 0-3 0-3 0-2.8 0-2.3 0-2.6 0-2.8-.3-2.7 0-2.2-.1-2.2 0-2.9 0-3.3 0-3 0-2.6 0-2.6 0-2.6 0-4.2 0-5.8 0-5.3-.2-4.2-.4-3.2-.5-3.3-.5-3.9-.6-4-.4-3.7-.3-3.5-.4-3.2-.4-2.3-.3-1.6-.2-1 0-.8 0-.5.3-.6.7-.3.8.2.8 2.5 1 5.6.7 10.5.7 13.5.6 14.5.4 13.8.6 8.7.5 3 .5-3.9.9-10.2 1-12.4.6-11.6.8-9.6 1.2-5 .9.5.4 10 .1 17.1.1 17 0 13.2.2 7 .3 2.6.3-2 .5-8.3 1-16.9 1.3-20.8 1.2-17.5 1.1-11 .9-4.3.6 1 .5 8.8.4 21.7.2 24 0 13.4.2 5.7.6-1.5 1.1-8.9 1.7-13.4 2.3-14.4 2.7-12.1 2.6-8.5 2.6-5 2.2-2.3 1.3-1 1-.1.8 1.7.5 5.5.2 7.2 0 5-.4 2.4-1 .3-1.5-1.3-2-2.4-2-2.9-1.5-2.5-.8-1.5 0-1 1.5-.5 2.9-.4 4 .4 4 1 3.2 1.3 1.6 2.8.5 4.5-.5 4.7-1.6 3.5-2 2-1.6.6-1.2-1.6-1-5-.4-6.9.7-6.1 1.4-5.3 2.3-3.8 2.8-1.5 2.2 0 1.8 3.1 1 9.5 0 14-1.2 12.9-2 7.9-1.8 3.3-1.2 0-1-3.3-.7-6.2-.3-7.3-.1-4.8 0-.3-.5 5.4-1.4 17.6-3.9 23.2-5.6 15-4.5 7.2-3 2.6-1.6.2-.8-1.3 0-3.3 1-6.3 3-7.4 5-5 4.4-2 2.4-.3 1 2.7-1.3 4.5-3.7 4.6-4.5 4-4.4 2.3-3.8 1-2.8.6-1.6 0-.9-.3-.2-1.6.7-3.2 2.3-4.1 3.5-3 3-.7 1.3 1.5-.4 4.1-3.6 5.6-5.2 4.9-3.9 3.4-2.3 2.2-1.2 1.1-.7-1.8.7-6.2 3.2-7.6 4.6-5.7 3.8-3.6 3-1.8 2 .3.6 3-.6 5.2-1.4 7-1.7 6-1.5 3-.6.6.8-1.2 2.8-3.5 5.8-5.4 8.2-5.9 8-5 6-3.4 3.6-2 1.7-1.7.3-2.4-.9-3.1-1.1-2.3-.8-1.1-.5 2.1-1.5 6.4-3.1 7.6-3.6 6.6-3.3 4.6-2.7 2.5-1.4 1.5-.5 1.1 0 1.5 0 2-.2 2.3-.8 2-1.2 1.4-1.4.8-1.4.6-1.1.6-.8.6-.4.7 0 .4 1.3.2 2.3 0 2.9 0 2.7-.4 1.7-.4.9-.7.6-1.3.8-1.7 1-2.1.7-3.6 1.2-4.4 1.4l-1.9.6m90.5-90 1 11.3.3 3.2v1.6l.1 1v3.5l.2.8.2.6v.6l.1.7V767q0 .8.2.5t.2.6.2.9.3.6.3.4.4.4.7.5.9.3.9.1.8.1.7 0 1.2 0 2 0 3-.3 4 0 4.8 0 4.4-.1 2.8 0 1.9 0 2.5 0 3.7 0 4.4 0 4.8 0 4.7 0 4.5 0 3.4 0 2.7 0 2.5 0 2.8 0 3 0 2.5 0 1.8 0 1.5 0 1.7 0 2.4 0 3.4 0 4.4 0 3.9 0 3 0 3-.2 4.3-.2 4.4 0 2.9 0 1.6 0 1 0 .9-.1 1.2 0 1 0 1 0 1.6 0 2 0 2.2 0 2.2.1 2 .2 1.8.1 1.3 0 1 0 1-.5.7-.6 1-.6.8-.5.7-.4.6-.5.5-.5.5-.5.4-.4.4-.5.1-.6.2-1 .3-1.3 0-1.7 0-1.5 0-1.2-.5-1.3-.6-1.5-.4-1.4-.3-1-.3-1.1 0-1.1-.1-1.7-.2-1.8-.2-1.3 0-1.1-.1-1.2 0-1.2 0-1.1 0-1.4 0-1.2 0-1.3 0-1.6 0-1.3 0-1 0-.7-.2-.7-.2-.7-.2-.4-.5-.3-.7-.3-1-.2-1.3-.3-2.3-.2-2.9-.3-1.9-.2-1.5-.2-2.4-.3-3.6-.2-3.8-.1-3.6 0-3.4-.2-3-.2-2.9-.2-2.4-.3-2 0-2.2-.1-3.8 0-4.5 0-3 0-2.2 0-1.6 0-2.3.1-3.6.3-3.7.3-3 .1-2.2 0-1.6.1-1.9.1-3 .4-3.3.2-2.5.2-1.9 0-1.7.2-2.1.2-2.8.2-2.9.4-2.1.4-1.7.3-2 .4-2.3.6-2.4.5-2.2.5-2 .4-2.4.1-2.7 0-2.8.1-2.8 0-1.8 0-1.2 0-.8 0-.4.2-.4.2-.3.2-.2.3-.4.3-.4 0-.4-.8 0-1.4.5-1.2 1.7-.8 2.3-.6 2.7-.4 2.4-.1 1.7-.2 1.4-.3 1.5 0 2 0 3-.1 3.3 0 3.8 0 4.1 0 3.4 0 3 .1 3.4.2 6.5.2 8.7.4 6.9.4 4.6.3 3.4.2 3 0 4 .5 4.3 1 4.5 1.4 4.6 1.5 4.5 1.5 3.7 1.1 2.4.8 1.7.6 2 .8 2 1 1.5.7.4.6-2.8 1.3-5.7 2.1-6.7 2.1-7.6 1.7-8.3 1-7.8.4-6 0-6.1 0-6.3 0-7.2-.1-6.6 0-4 0-2.2 0-1.4-.2-1.1-.3-1.2-.5-1.4-.8-3.1-.9-3.9-.6-2.7-.3-1.9-.1-1.3 0-1.5 0-1.8.2-1.7.1-1.2.2-.7.5-.4.7-.3.7-.3.7-.1.8.3.7 2.2.7 4.6.6 6.4.6 6 .6 4.8.2 3.6-.2 2.1-.9 1.8-1.4 2-1.8 2.5-1.5 2.3-1.3 2.4-1.1 1.8-.8 1-.6.3-.5 1-.6 2.8-.6 5.2-.2 7.6-.1 6.7 0 4 .4 2 .3 2 .4 2.8.7 3 1 2.1 1.2 1.2.8 1 .6 1.5.5 3 .7 4.5.6 4.3.6 3.8.4 3 .1 2.9.1 2.1 0 1.3 0 1 0 .7.2-.8.6-3.2 1.2-5 1.5-6.2 1.1-5.7.7-3.4.2-2.5.2-3 0-4.5 0-4.7 0-3.4 0-2.9 0-2.4 0-2.3 0-2.6 0-5-.2-6.1-.5l-2.6-.2" opacity="0.3" pointer-events="all"/><path fill="none" stroke="#1d1d1d" stroke-width="3.5" d="M1400 1010v150m0 0h150m0 0v-150m-150 0h40m70 0h40m-110 0v-30"/><path fill="none" stroke="#1d1d1d" stroke-width="10" d="M1440 960h70v20h-70Z"/><path fill="none" stroke="#1d1d1d" stroke-width="3.5" d="M1400 930h60m-60-10h70m-10 10v210m10-220v220m10 0V880m10 260V880m10 120h80m-80-10h80m-70-10v10m0 10v10"/><path fill="none" stroke="#1d1d1d" stroke-dasharray="7.5 8.333" stroke-width="3.5" d="M1400 1080h150"/><path fill="none" stroke="#cbe7f1" stroke-width="20.2" d="m1408.1 1086.6 4.5 17q.9 3.6 1.2 5.5t.6 2.9 0 1.5-.8.3-1-.8-.9-3-.7-4.2-.3-3.5-.1-3 0-1.7 0-.7 0 .6 0 2.6.2 4.5 0 6.1-.7 7.3-1.3 6.9-1 5-.6 2.7-.3 1-.1-.4 0-2.3 0-2.7 0-2.1 0-1.6 0-1 0-.3.7.6 1.2 2.7 1.3 4 1 3.7.5 3 .3 2.5 0 3-.4 3-.2 1.9-.3.7-.3-.2-.3-.6-.2-.5 0-.5-.2.1-.3 1.2-.3 1.9-.1 2.4 0 2 .2 1 1.5 0 2.3-.7 2.2-.7 1.4-.6.9-.3-.9 0-2.2.7 0 .5 4.6 0 9.4-.8 13.2-.7 12.5-.3 7.8-.1 3.4 0-.3 0-2.8 0-4.2 0-6 0-5.7 0-3.7 0-1.4 0 2.7.2 8 .1 10.7 0 10.2 0 9.7 0 7.3 0 3.5 0 1.7-.3 1.2-.2 1.1-.2 1.5 0 1.7-.1 2.4 0 3.8-.2 4.5-.2 3.7 0 2.8-.3 2.3-.2 2.3 0 2-.2 1.8-.2 2-.1 2.4 0 2.5 0 1.8 0 1.6 0 1.9 0 1.7 0 1.5 0 1 0 .7 0 .5-.4.6-.3.3-.4.2-.4 0-.4 0-.6 0-.8 0-.9 0-1.2 0-1.4 0-1.7 0-1.7 0-1.6 0-1.7-.5-2-.5-2.2-.2-2.1-.2-2.6-.2-2.7-.1-2.4-.2-2-.2-2.3-.1-2.3 0-1.7 0-1.4 0-1.8 0-2.4.2-2.1.1-1.5.2-1.3.3-1.5.3-1.6.1-1.2.1-1 0-1 0-.8 0-.7 0-.7 0-.5 0-.6 0-.5-.1-.4-.3-.6-.3-.7-.3-.6-.3-.3-.6-.2-1-.2-1.8-.2-3.3-.1-3.5 0-3.2.2-2.8.1-2 0-1.5 0-1.4.2-2 .2-2.7 0-3 .1-2.7 0-2.8 0-2.7 0-2.2 0-2.7 0-3 0-3 0-2.8 0-2.3 0-2.6 0-2.8-.3-2.7 0-2.2-.1-2.2 0-2.9 0-3.3 0-3 0-2.6 0-2.6 0-2.6 0-4.2 0-5.8 0-5.3-.2-4.2-.4-3.2-.5-3.3-.5-3.9-.6-4-.4-3.7-.3-3.5-.4-3.2-.4-2.3-.3-1.6-.2-1 0-.8 0-.5.3-.6.7-.3.8.2.8 2.5 1 5.6.7 10.5.7 13.5.6 14.5.4 13.8.6 8.7.5 3 .5-3.9.9-10.2 1-12.4.6-11.6.8-9.6 1.2-5 .9.5.4 10 .1 17.1.1 17 0 13.2.2 7 .3 2.6.3-2 .5-8.3 1-16.9 1.3-20.8 1.2-17.5 1.1-11 .9-4.3.6 1 .5 8.8.4 21.7.2 24 0 13.4.2 5.7.6-1.5 1.1-8.9 1.7-13.4 2.3-14.4 2.7-12.1 2.6-8.5 2.6-5 2.2-2.3 1.3-1 1-.1.8 1.7.5 5.5.2 7.2 0 5-.4 2.4-1 .3-1.5-1.3-2-2.4-2-2.9-1.5-2.5-.8-1.5 0-1 1.5-.5 2.9-.4 4 .4 4 1 3.2 1.3 1.6 2.8.5 4.5-.5 4.7-1.6 3.5-2 2-1.6.6-1.2-1.6-1-5-.4-6.9.7-6.1 1.4-5.3 2.3-3.8 2.8-1.5 2.2 0 1.8 3.1 1 9.5 0 14-1.2 12.9-2 7.9-1.8 3.3-1.2 0-1-3.3-.7-6.2-.3-7.3-.1-4.8 0-.3-.5 5.4-1.4 17.6-3.9 23.2-5.6 15-4.5 7.2-3 2.6-1.6.2-.8-1.3 0-3.3 1-6.3 3-7.4 5-5 4.4-2 2.4-.3 1 2.7-1.3 4.5-3.7 4.6-4.5 4-4.4 2.3-3.8 1-2.8.6-1.6 0-.9-.3-.2-1.6.7-3.2 2.3-4.1 3.5-3 3-.7 1.3 1.5-.4 4.1-3.6 5.6-5.2 4.9-3.9 3.4-2.3 2.2-1.2 1.1-.7-1.8.7-6.2 3.2-7.6 4.6-5.7 3.8-3.6 3-1.8 2 .3.6 3-.6 5.2-1.4 7-1.7 6-1.5 3-.6.6.8-1.2 2.8-3.5 5.8-5.4 8.2-5.9 8-5 6-3.4 3.6-2 1.7-1.7.3-2.4-.9-3.1-1.1-2.3-.8-1.1-.5 2.1-1.5 6.4-3.1 7.6-3.6 6.6-3.3 4.6-2.7 2.5-1.4 1.5-.5 1.1 0 1.5 0 2-.2 2.3-.8 2-1.2 1.4-1.4.8-1.4.6-1.1.6-.8.6-.4.7 0 .4 1.3.2 2.3 0 2.9 0 2.7-.4 1.7-.4.9-.7.6-1.3.8-1.7 1-2.1.7-3.6 1.2-4.4 1.4l-1.9.6" opacity="0.3" pointer-events="all"/><path fill="none" stroke="#1d1d1d" stroke-width="3.5" d="M1800 960v200m0 0h150m0 0V960"/><path fill="none" stroke="#1d1d1d" stroke-dasharray="7.5 8.333" stroke-width="3.5" d="M1800 1080h150"/><path fill="none" stroke="#1d1d1d" stroke-width="3.5" d="M1870 930v170m10-180v180"/><path fill="none" stroke="#cbe7f1" stroke-width="20.2" d="m1809.5 1087-.3 10.7-.1 3.6v11.2l.2 1q.2.6.1 1t0 1.5.2 2 .2 1.7 0 1.4.1 1.2 0 1 0 1 0 1.2 0 1.5.2 1.2.2.7 0 .8.1 1 0 1.5 0 1.3 0 1 0 .7 0 .7.2 1 .2 1 .2 1.2.2 1.3.1 1 0 1 0 .7 0 1.2 0 1.4 0 1.2 0 .9 0 .6 0 .6 0 .5.2.5.2.5.2.3.5.3 1 .2 2.5.1 3.7.1 3.7 0 3.4 0 2.5 0 1.7 0 1.6-.2 1.9-.6 2.1-.3 3.1-.5 4.2-.4 4.1-.2 3.8 0 3.6-.1 4.5 0 5.4 0 4.9 0 4 0 4.8-.3 5.7-.5 5.3-.4 4-.1 3-.1 2.8 0 3 0 2.5 0 2 0 1.7 0 1.8 0 2.3 0 2.7 0 3.5.4 3.3.3 2 .1 1.3 0 1 0 1.1 0 .8 0 .8 0 .7 0 .9 0 .8-.2.8-.1 1 0 .6 0 .6 0 .5 0 .5 0 .7 0 1 0 1 0 .8 0 .5-.2.3-.4.3-.4.1-.4.2-.3.4-.5.4-1 .3-1.3.2-1.6.1-1.7.4-2.2.6-3.3.5-3.4.3-2.9.3-2.4.1-2.5.2-3 .2-2.8.3-2.2.2-2 .1-1.7.2-1.6.2-1.3 0-1.1.2-1.3.3-1.7 0-1.4 0-1 .1-1 0-.8 0-.8-.1-1.1-.4-1.1-.2-1-.3-1.2-.2-1.1-.3-1-.2-1-.2-.9-.4-.6-.6-.4-.8-.2-1-.2-1.4-.2-1.6-.2-2-.3-2-.2-1.9-.2-1.3-.1-1 0-.8-.1-.9 0-1 0-1.2 0-2.3 0-2.8 0-2.2 0-2.1 0-2.4 0-2.5 0-2 0-1.8 0-3 0-4 0-3.9 0-3.5 0-3.6 0-3.7.1-3.8.2-3 .1-2.2.2-3.7.2-4.5 0-2.8.1-2 0-1.5 0-2 0-2 0-2 .2-2 .2-2.4 0-2.2 0-1.8.1-1.8 0-1.9 0-1.9 0-2 0-2.2 0-3 0-3.6 0-3.3 0-2.5 0-2.7 0-4.1 0-4.4 0-2.9 0-1.7 0-.8.1-.4 1 .2 1.8.6 2.4.6 2.5.8 2.5 1.2 2.7 1 2.7 1 2.6.7 2.1.6 2 .5 1.8.4 1.6.3 1.4.4 1.7.5 1.8.5 2 .5 2.6.7 2.4.4 1.8.3 1.3.5 1.2.6 1.2.7 1.2 1.1 1.4 1.2 1.2.9.5.9-.3 1.6-2.6 2.3-5 2-6 1-5.4.4-4.4-.3-3.5-.6-2.1-1.3-1-1.7-.8-1.8-.6-1.9-.9-1.5-1.3-.7-1.3-.4-1-.1-.7 1 2.4 2.6 6 3 6.8 2.6 5.5 1.4 4 .7 3.3.4 2.5.3 1.7.3 1.1.7.7 1.6.2 2.9.1 4.7-.2 6-.9 5.4-1.8 3.5-2.6 1.8-2.9.3-3.4-1-4-1.7-3.6-1.8-3.5-1.6-2.8-1.5-2.5-1.4-2-1.2-2-1.5-1.6-1.7-1.2-1.8-.8-1.5-.3-1.1-.2-1.3.4-1.4 1.2-1.3 2.2-.8 3-.2 3.4 1 3.9 2 3.6 1.7 2.3 1.6 1.7 1.4 1.5 2 1.7 1.8 1.6 1 1 .8.5 1.2.6 2.5 1 3.5 1 3.8 1 3 .6 1.5.4.6.6.3 1 0 1.7-.4 1.8-.6 1.6-.4 1.2-.1-.9-.1-2.5 0-3.5 0-6.2 0-7.7.3-6.3 0-3.8 0-2.2 0-1.4-.5-1.6-.7-1.5-.4-.7 1 1 2 3.7 2.5 5.8 2.5 6 2 5 1.5 3.8.9 2.5.7 2.3.7 2.7 1 2.7 1.6 2.1 1.6 1 2.2.5 2.5-.2 2-2 .7-4.4-1.2-5.8-2.5-5.5-4.1-5.2-5-4.6-4.2-3.4-3.2-2.5-2.1-1.7-1.5-1-.9.7-.8 2.7-.6 5.9-.2 6.6 0 4.7.7 3.6 1.2 2.5 1.4 1.6 1.5 1 2.3-.3 3.5-1.5 4.8-2.2 4.2-2.6 2.4-2.9 1.1-4 .5-4.5.2-4.1 0-3.5.1-2.5-.3-1.8-.3-1.3-.2-1 0-.8 1-.7 3-.5 5.3-.1 5.2 1 3.6 1.3 1.5 1.5-.6 1.6-3 1-5 .3-5.6 0-5-.3-3.9-.5-1-.1 2.6-.1 5.5 0 9 0 11 0 8.7 0 5.6-.2 3-.3.5-.2-.7 0-.9.1-.7.2-2.7.6-4.6 1-5 1.1-6 2-6.8 2.8-6 2.8-4.6 2.6-3.1 2-1.3 1.2 1.6.6 5.3.4 9.3.2 9.3-.1 5.2-.6 2.5-1.2.9-2.4.1-3-.2-2.3-.4-1.8-.3-1.2-.2-.6-1 0-2.4 1.4-5.5 4.4-7.2 6.2-5.3 5-3.2 3.6.4 2 4.8.8 6.7-.2 6-1 3.5-1 1.6-1.3.8-1.6.6-2 1-2.3.9-2 .5-1.3.5-.7.6 0 .8 1 1 3 1.2 4 .9 3.2.6 2.4.4 1 .2-.8 0-2.5.1-3.1 0-3.1 0-1.2 0 2 0 3.2 0 3 0 1.9-1 3-2 4l-.8 1.7" opacity="0.3" pointer-events="all"/></svg>