<svg stroke-linecap="round" stroke-linejoin="round" class="tl-container tl-theme__force-sRGB tl-theme__light" data-color-mode="light" style="background-color:#f9fafb" viewBox="1566.4 848 538.9 350.1"><path fill="none" stroke="#cbe7f1" stroke-width="20.2" d="m1609.5 1087-.3 10.7-.1 3.6v11.2l.2 1q.2.6.1 1t0 1.5.2 2 .2 1.7 0 1.4.1 1.2 0 1 0 1 0 1.2 0 1.5.2 1.2.2.7 0 .8.1 1 0 1.5 0 1.3 0 1 0 .7 0 .7.2 1 .2 1 .2 1.2.2 1.3.1 1 0 1 0 .7 0 1.2 0 1.4 0 1.2 0 .9 0 .6 0 .6 0 .5.2.5.2.5.2.3.5.3 1 .2 2.5.1 3.7.1 3.7 0 3.4 0 2.5 0 1.7 0 1.6-.2 1.9-.6 2.1-.3 3.1-.5 4.2-.4 4.1-.2 3.8 0 3.6-.1 4.5 0 5.4 0 4.9 0 4 0 4.8-.3 5.7-.5 5.3-.4 4-.1 3-.1 2.8 0 3 0 2.5 0 2 0 1.7 0 1.8 0 2.3 0 2.7 0 3.5.4 3.3.3 2 .1 1.3 0 1 0 1.1 0 .8 0 .8 0 .7 0 .9 0 .8-.2.8-.1 1 0 .6 0 .6 0 .5 0 .5 0 .7 0 1 0 1 0 .8 0 .5-.2.3-.4.3-.4.1-.4.2-.3.4-.5.4-1 .3-1.3.2-1.6.1-1.7.4-2.2.6-3.3.5-3.4.3-2.9.3-2.4.1-2.5.2-3 .2-2.8.3-2.2.2-2 .1-1.7.2-1.6.2-1.3 0-1.1.2-1.3.3-1.7 0-1.4 0-1 .1-1 0-.8 0-.8-.1-1.1-.4-1.1-.2-1-.3-1.2-.2-1.1-.3-1-.2-1-.2-.9-.4-.6-.6-.4-.8-.2-1-.2-1.4-.2-1.6-.2-2-.3-2-.2-1.9-.2-1.3-.1-1 0-.8-.1-.9 0-1 0-1.2 0-2.3 0-2.8 0-2.2 0-2.1 0-2.4 0-2.5 0-2 0-1.8 0-3 0-4 0-3.9 0-3.5 0-3.6 0-3.7.1-3.8.2-3 .1-2.2.2-3.7.2-4.5 0-2.8.1-2 0-1.5 0-2 0-2 0-2 .2-2 .2-2.4 0-2.2 0-1.8.1-1.8 0-1.9 0-1.9 0-2 0-2.2 0-3 0-3.6 0-3.3 0-2.5 0-2.7 0-4.1 0-4.4 0-2.9 0-1.7 0-.8.1-.4 1 .2 1.8.6 2.4.6 2.5.8 2.5 1.2 2.7 1 2.7 1 2.6.7 2.1.6 2 .5 1.8.4 1.6.3 1.4.4 1.7.5 1.8.5 2 .5 2.6.7 2.4.4 1.8.3 1.3.5 1.2.6 1.2.7 1.2 1.1 1.4 1.2 1.2.9.5.9-.3 1.6-2.6 2.3-5 2-6 1-5.4.4-4.4-.3-3.5-.6-2.1-1.3-1-1.7-.8-1.8-.6-1.9-.9-1.5-1.3-.7-1.3-.4-1-.1-.7 1 2.4 2.6 6 3 6.8 2.6 5.5 1.4 4 .7 3.3.4 2.5.3 1.7.3 1.1.7.7 1.6.2 2.9.1 4.7-.2 6-.9 5.4-1.8 3.5-2.6 1.8-2.9.3-3.4-1-4-1.7-3.6-1.8-3.5-1.6-2.8-1.5-2.5-1.4-2-1.2-2-1.5-1.6-1.7-1.2-1.8-.8-1.5-.3-1.1-.2-1.3.4-1.4 1.2-1.3 2.2-.8 3-.2 3.4 1 3.9 2 3.6 1.7 2.3 1.6 1.7 1.4 1.5 2 1.7 1.8 1.6 1 1 .8.5 1.2.6 2.5 1 3.5 1 3.8 1 3 .6 1.5.4.6.6.3 1 0 1.7-.4 1.8-.6 1.6-.4 1.2-.1-.9-.1-2.5 0-3.5 0-6.2 0-7.7.3-6.3 0-3.8 0-2.2 0-1.4-.5-1.6-.7-1.5-.4-.7 1 1 2 3.7 2.5 5.8 2.5 6 2 5 1.5 3.8.9 2.5.7 2.3.7 2.7 1 2.7 1.6 2.1 1.6 1 2.2.5 2.5-.2 2-2 .7-4.4-1.2-5.8-2.5-5.5-4.1-5.2-5-4.6-4.2-3.4-3.2-2.5-2.1-1.7-1.5-1-.9.7-.8 2.7-.6 5.9-.2 6.6 0 4.7.7 3.6 1.2 2.5 1.4 1.6 1.5 1 2.3-.3 3.5-1.5 4.8-2.2 4.2-2.6 2.4-2.9 1.1-4 .5-4.5.2-4.1 0-3.5.1-2.5-.3-1.8-.3-1.3-.2-1 0-.8 1-.7 3-.5 5.3-.1 5.2 1 3.6 1.3 1.5 1.5-.6 1.6-3 1-5 .3-5.6 0-5-.3-3.9-.5-1-.1 2.6-.1 5.5 0 9 0 11 0 8.7 0 5.6-.2 3-.3.5-.2-.7 0-.9.1-.7.2-2.7.6-4.6 1-5 1.1-6 2-6.8 2.8-6 2.8-4.6 2.6-3.1 2-1.3 1.2 1.6.6 5.3.4 9.3.2 9.3-.1 5.2-.6 2.5-1.2.9-2.4.1-3-.2-2.3-.4-1.8-.3-1.2-.2-.6-1 0-2.4 1.4-5.5 4.4-7.2 6.2-5.3 5-3.2 3.6.4 2 4.8.8 6.7-.2 6-1 3.5-1 1.6-1.3.8-1.6.6-2 1-2.3.9-2 .5-1.3.5-.7.6 0 .8 1 1 3 1.2 4 .9 3.2.6 2.4.4 1 .2-.8 0-2.5.1-3.1 0-3.1 0-1.2 0 2 0 3.2 0 3 0 1.9-1 3-2 4l-.8 1.7m202.4-52.3v36.9l.1 1.7.2 2v1.7l.1 1.1v1l.1 1.1.2 1.3q.1.2 0 1.6t.1 1.4 0 1 0 1.2-.3 1.2 0 1.2-.2 1.4-.2 1.2 0 1.2 0 .8 0 .7 0 .9 0 1 0 1 0 .6.2.5 0 .6.3.6.5.5.4.3.7.3.9.3 1 .3 1.1.1 1.9 0 2.1-.3 1.8-.3 1.2-.3 1.4-.6 2-.7 2.3-.7 2.8-.5 3-.4 2.8-.1 3 0 3.3 0 3-.1 2.6-.1 2.4-.3 2.1-.3 1.6 0 1.5-.1 1.8 0 2.7 0 3 0 2.7 0 2.3 0 2.3-.1 2.3-.3 1.9-.3 1.8 0 2.2-.1 2.7-.2 2.5-.1 1.6-.1 1.2 0 1.4 0 2.4 0 2.9 0 2.4 0 1.5 0 1 0 1 0 1.4 0 1.3 0 .9 0 1 0 1 0 2 0 2.6 0 1.6 0 1.2 0 2 0 2.5 0 1.8 0 1.1-.2 1-.1 1-.1.8 0 .9 0 .7 0 .5 0 .6 0 .8 0 1.1 0 1.3 0 1.2 0 1 0 1 0 .9 0 1.2.2 1.4 0 1 .1.8 0 .7 0 .6 0 .4 0 .4 0 .6-.5.6-.5.6-.3.5-.3.3-.4.4-.5.3-.6.4-1 .6-.9.4-.8.2-.7.1-1.2 0-1.4 0-1.4-.2-1.2-.3-1.4-.5-1.6-.3-1.9-.3-1.6-.3-1.5-.3-1.5-.1-1.6-.2-2-.3-1.8-.2-1.4-.1-1.6 0-1.8 0-2 0-2-.1-2.1 0-2.2.1-2.2.2-2.2 0-1.7 0-1.4.1-1.4 0-1.2 0-1.3 0-1.2 0-1.5 0-1.2 0-.7 0-.7-.1-.8-.2-.8-.2-.6-.2-.6-.2-.3-.3-.2-.4 0-.6-.2-.7-.1-.6-.1-.4 0-.5 0-.5 0-.6 0-.6 0-1 0-1.6 0-1.2 0-.8 0-.7 0-1 0-1.3 0-1.6-.2-1.8-.3-1.6-.2-.9-.1-.7 0-1 0-1 0-1.4-.1-1.3 0-.8 0-.6 0-.5 0-.5-.1-.6-.3-.5-.5-.5-.7-.5-.7-.7-.8-.7-.6-.3-.3-.2-.4 0-.5-.2-.6-.2-.6 0-.6-.1-1 0-1.3-.2-1.3-.1-1.2-.1-.9 0-.8 0-.5 0-.6-.2-.9-.3-1-.2-1-.1-1 0-.8 0-1 0-.9 0-.8 0-1 0-1.3 0-1.5 0-1.5.2-1.2 0-1 .1-1.1 0-1.3 0-1 0-.8 0-.7 0-.8 0-1 0-1 0-.7 0-.7 0-.7 0-.7 0-.6 0-.5 0-.6 0-.7 0-.6-.2-.4-.3-.3-.3-.3-.3 0-.4-.1-.4 0-.4 0-.4 0-.4 0-.3 0-.3.5-.2.5 0 .5-.1.4 0 .5-.2.9-.1.8-.1.6 0 .6 0 .7 0 .8 0 1 0 1.2 0 1 0 1 0 .9-.2.7-.3.7-.2.8-.1 1 0 .8-.2.7-.2 1 0 .9 0 .9 0 .8-.1.9 0 1 0 .9-.1.9-.2.8 0 1 0 1-.1.9 0 .7 0 .6 0 .5 0 .9 0 1 0 1.2-.1 1.4-.2 1.6 0 1.2-.1 1 0 .6 0 .7-.1.6-.2.9-.2.8-.2.7-.2.7-.3.5-.4.5-.4.5-.6.7-.8.7-.6.4-.8.3-.9.3-1 .4-1.3.4-1.2.3-1 .2-1.4.4-1.3.3-1 .3-.8.3-.5.2-.8 0-1 .1-1 0-1.3 0-1.3 0-1.2 0-1.6 0-1.6 0-1.6 0-1.5 0-1.7-.2-2.2-.2-2.4-.4-2.3-.3-2-.3-1.8-.3-1.6-.4-1.3-.2-1.2 0-1.2-.1-2-.1-2.4-.2-1.9 0-1.6-.2-1.4-.2-1.4 0-1.3-.1-1.3 0-1.2 0-1.5-.2-1.7-.1-2-.1-2 0-2 0-1.7 0-1.1 0-.9 0-.8 0-1 0-1.3 0-1.4.2-1.4.1-1.4.2-1.4.3-1.1.2-.7.1-.5.3-.7.6-1 1-1.6 1.7-1.9 2.8-1.2 3-.7 3-.3 2.7 0 1.8-.1 1.9 0 2 .6 2.5.9 2.5 1 2.2 1.1 2 1 2 .7 1 .6.9.7 1 .9 1.3.8 1.3 1 1.2 1.5 1.2 1.3 1 .9.7.7.5.8.3 1 .2 1 0 1-.3.7-.7 1-1.4.8-2.2.5-3.4 0-4.4-.6-5-1.1-4-1-2.8-.8-2-.9-1.7-.6-1.4-.4-.9-.2-.7-.3-.6-.4.6-1 3.7-1 6-.8 5.5-.5 5.2-.2 4.7 0 4-.1 3.2.1 2 .4 1.4.9 1.2 1.3 1.2 2.3.8 3.5.4 3.2 0 3-1.3 2.5-2.4 1.2-2.9.5-3.5-.3-4.7-1-4.9-1-3.7-1.2-3.3-1-2.9-.5-2.7-.2-2.7 0-2.2.5-1.9 1.3-1.5 2-1 1.7-.3 1.5.5 1.4 1.3 1 2.2.6 2.4.3 2.6-.2 2.7-1 4.5-1.6 5.6-1.4 4.7-1 3.7-.4 2.8-.2 2 0 2.2.9 2 1.2 1.7 2.1 1.7 2.7 1.2 2.5.5 2 .2 1.2 0 1-.4.9-1.4.5-3.3-.1-5.4-1.2-6.7-1.4-6-1.3-5-1.3-4.8-.7-3.4-.4-2.4-.1-1.9.2-1.2.5-1 .8-.4 1.3-.2 1.9.2 2 .9 1.4 1.1.8 2.4.5 4 .2 4.7 0 4.8.1 5 .1 4.4.3 3.3.4 2.5.4 2 .6 1.5 1 1.5 1.6 1 2.8.6 4.7.3 4.8 0 3-.6 1.3-1.9.2-2.8-1-4.4-1.6-4.7-1.5-3.6-1.6-3.4-1.5-3.2-1-3.4-.7-3-.2-2.1-.1-1.7.2-1.6.6-1.1 1.2-.8 1.4-.5 1.7-.2 2 .3 1.6.8 1.4 1.2 1.2 1.5 1.1 2.2 1 2.5.5 2 0 2.1-.1 2.8-.5 3.5-.5 3.8-.3 3.1-.2 2.3.2 1.8.4 1.2.5.7.9.6 1.2.7 1.4.7 1 .2.6.2.5 0 .6 0 .4-.7.4-2 .3-2.4.3-3.4.1-4 0-3.2 0-3.2.1-2.9 0-2.6 0-2.7.2-2.4.5-2 .7-1.5.7-1 .6-.6.6-.2 1 .4 2.2 1.4 2.9 2 1.8 2.2.9 2.5.3 3.6 0 4.8-.4 5-1 4.3-1.1 3.5-1 2.5-.6 1.6-.3 1.2-.1 1.2.2 1.6.5 1.7.8 1.2 1 .8 1.1.3 1.2-.8 1-2.5.6-3.4 0-3.7-.3-4.6-.3-5.1 0-4.8-.1-3.8 0-4.2 0-4.8v-2" opacity="0.8" pointer-events="all"/><path fill="none" stroke="#cbe7f1" stroke-width="20.2" d="M2022.6 1104.4q5.2 6.1 6.4 9.3t2 6.2 1.2 5.6.6 4.2.4 2.6.3 2 .1 3 0 3.8.4 3.3.8 2.6.6 2 .6 1.3.8-.4 1-2.4.8-4 .5-4.6.2-4.2 0-3.6-.4-3.6-.9-4.1-1.2-4.1-1-3.2-.5-2.3-.3-2.1-.3-2.2-.1-2.2 0-2.2 0-1.8.4-1.5.6-1.1.5-.8.9-.5 1.1-.2 1.5 0 1.4.5 1.5 1 1.5 1.1 1.4 1.9 1 2.1.4 2.3.2 2.3 0 3-.4 3.3-.1 2.5 0 1.8 0 1.6-.1 1.8.1 1.8.3 1.6.5 1.6 1.6 3.2 2.3 4l1 1.8m-36-100.4 2.2-10.3q.4-2 .4-2.8t0-1.5-.4-1.2-.4-1.3.3-1.4.6-2 .8-2.2.7-1.5.7-.8.8.2 1.5 1 1.6 1.4 1.3 1.3 1 1 .5.9.2.7.1.7.2 1.1.5 2.2.4 2.2.3 2 .3 2 .2 1.5 0 1.5 0 2 0 2 0 1.7 0 1.4 0 1.3 0 1 .3.7.2.7.3 1 .3 1.3.2 1.5 0 1.4 0 .9 0 .8-.1 3.2-.3 5l-.2 2" opacity="0.8" pointer-events="all"/><path fill="none" stroke="#1d1d1d" stroke-dasharray="7.5 8.333" stroke-width="3.5" d="M1600 1080h150"/><path fill="none" stroke="#cbe7f1" stroke-width="20.2" d="m1609.5 1087-.3 10.7-.1 3.6v11.2l.2 1q.2.6.1 1t0 1.5.2 2 .2 1.7 0 1.4.1 1.2 0 1 0 1 0 1.2 0 1.5.2 1.2.2.7 0 .8.1 1 0 1.5 0 1.3 0 1 0 .7 0 .7.2 1 .2 1 .2 1.2.2 1.3.1 1 0 1 0 .7 0 1.2 0 1.4 0 1.2 0 .9 0 .6 0 .6 0 .5.2.5.2.5.2.3.5.3 1 .2 2.5.1 3.7.1 3.7 0 3.4 0 2.5 0 1.7 0 1.6-.2 1.9-.6 2.1-.3 3.1-.5 4.2-.4 4.1-.2 3.8 0 3.6-.1 4.5 0 5.4 0 4.9 0 4 0 4.8-.3 5.7-.5 5.3-.4 4-.1 3-.1 2.8 0 3 0 2.5 0 2 0 1.7 0 1.8 0 2.3 0 2.7 0 3.5.4 3.3.3 2 .1 1.3 0 1 0 1.1 0 .8 0 .8 0 .7 0 .9 0 .8-.2.8-.1 1 0 .6 0 .6 0 .5 0 .5 0 .7 0 1 0 1 0 .8 0 .5-.2.3-.4.3-.4.1-.4.2-.3.4-.5.4-1 .3-1.3.2-1.6.1-1.7.4-2.2.6-3.3.5-3.4.3-2.9.3-2.4.1-2.5.2-3 .2-2.8.3-2.2.2-2 .1-1.7.2-1.6.2-1.3 0-1.1.2-1.3.3-1.7 0-1.4 0-1 .1-1 0-.8 0-.8-.1-1.1-.4-1.1-.2-1-.3-1.2-.2-1.1-.3-1-.2-1-.2-.9-.4-.6-.6-.4-.8-.2-1-.2-1.4-.2-1.6-.2-2-.3-2-.2-1.9-.2-1.3-.1-1 0-.8-.1-.9 0-1 0-1.2 0-2.3 0-2.8 0-2.2 0-2.1 0-2.4 0-2.5 0-2 0-1.8 0-3 0-4 0-3.9 0-3.5 0-3.6 0-3.7.1-3.8.2-3 .1-2.2.2-3.7.2-4.5 0-2.8.1-2 0-1.5 0-2 0-2 0-2 .2-2 .2-2.4 0-2.2 0-1.8.1-1.8 0-1.9 0-1.9 0-2 0-2.2 0-3 0-3.6 0-3.3 0-2.5 0-2.7 0-4.1 0-4.4 0-2.9 0-1.7 0-.8.1-.4 1 .2 1.8.6 2.4.6 2.5.8 2.5 1.2 2.7 1 2.7 1 2.6.7 2.1.6 2 .5 1.8.4 1.6.3 1.4.4 1.7.5 1.8.5 2 .5 2.6.7 2.4.4 1.8.3 1.3.5 1.2.6 1.2.7 1.2 1.1 1.4 1.2 1.2.9.5.9-.3 1.6-2.6 2.3-5 2-6 1-5.4.4-4.4-.3-3.5-.6-2.1-1.3-1-1.7-.8-1.8-.6-1.9-.9-1.5-1.3-.7-1.3-.4-1-.1-.7 1 2.4 2.6 6 3 6.8 2.6 5.5 1.4 4 .7 3.3.4 2.5.3 1.7.3 1.1.7.7 1.6.2 2.9.1 4.7-.2 6-.9 5.4-1.8 3.5-2.6 1.8-2.9.3-3.4-1-4-1.7-3.6-1.8-3.5-1.6-2.8-1.5-2.5-1.4-2-1.2-2-1.5-1.6-1.7-1.2-1.8-.8-1.5-.3-1.1-.2-1.3.4-1.4 1.2-1.3 2.2-.8 3-.2 3.4 1 3.9 2 3.6 1.7 2.3 1.6 1.7 1.4 1.5 2 1.7 1.8 1.6 1 1 .8.5 1.2.6 2.5 1 3.5 1 3.8 1 3 .6 1.5.4.6.6.3 1 0 1.7-.4 1.8-.6 1.6-.4 1.2-.1-.9-.1-2.5 0-3.5 0-6.2 0-7.7.3-6.3 0-3.8 0-2.2 0-1.4-.5-1.6-.7-1.5-.4-.7 1 1 2 3.7 2.5 5.8 2.5 6 2 5 1.5 3.8.9 2.5.7 2.3.7 2.7 1 2.7 1.6 2.1 1.6 1 2.2.5 2.5-.2 2-2 .7-4.4-1.2-5.8-2.5-5.5-4.1-5.2-5-4.6-4.2-3.4-3.2-2.5-2.1-1.7-1.5-1-.9.7-.8 2.7-.6 5.9-.2 6.6 0 4.7.7 3.6 1.2 2.5 1.4 1.6 1.5 1 2.3-.3 3.5-1.5 4.8-2.2 4.2-2.6 2.4-2.9 1.1-4 .5-4.5.2-4.1 0-3.5.1-2.5-.3-1.8-.3-1.3-.2-1 0-.8 1-.7 3-.5 5.3-.1 5.2 1 3.6 1.3 1.5 1.5-.6 1.6-3 1-5 .3-5.6 0-5-.3-3.9-.5-1-.1 2.6-.1 5.5 0 9 0 11 0 8.7 0 5.6-.2 3-.3.5-.2-.7 0-.9.1-.7.2-2.7.6-4.6 1-5 1.1-6 2-6.8 2.8-6 2.8-4.6 2.6-3.1 2-1.3 1.2 1.6.6 5.3.4 9.3.2 9.3-.1 5.2-.6 2.5-1.2.9-2.4.1-3-.2-2.3-.4-1.8-.3-1.2-.2-.6-1 0-2.4 1.4-5.5 4.4-7.2 6.2-5.3 5-3.2 3.6.4 2 4.8.8 6.7-.2 6-1 3.5-1 1.6-1.3.8-1.6.6-2 1-2.3.9-2 .5-1.3.5-.7.6 0 .8 1 1 3 1.2 4 .9 3.2.6 2.4.4 1 .2-.8 0-2.5.1-3.1 0-3.1 0-1.2 0 2 0 3.2 0 3 0 1.9-1 3-2 4l-.8 1.7" opacity="0.3" pointer-events="all"/><path fill="none" stroke="#1d1d1d" stroke-width="3.5" d="M1600 1010v150m0 0h150m0 0v-150m-150 0h40m70 0h40m-110 0v-30m70 30v-30"/><path fill="none" stroke="#1d1d1d" stroke-width="10" d="M1640 960h70v20h-70Z"/><path fill="none" stroke="#1d1d1d" stroke-width="3.5" d="M1600 890h60m-60-10h70m-10 10v130m10-140v140m10 120V920m10 220V930m0 0h120m-130-10h140m-30 240h50m-40-10V990m0 160-10 10m40-10V990m0 160 10 10m-30-230v70m10-80v80m-20 150h30"/><path fill="none" stroke="#1d1d1d" stroke-width="2" d="M1800 1130h10m-10-20h10m-10-20h10m-10-20h10m-10-20h10m-10-20h10m-10-20h10"/><path fill="none" stroke="#1d1d1d" stroke-width="3.5" d="M1920 1010v150m0 0h150m0 0v-150m-70-60h50m-40 10v160m0-160-10-10m40 10v160m0-160 10-10m-40 10h30"/><path fill="none" stroke="#1d1d1d" stroke-width="2" d="M2010 980h10m-10 20h10m-10 20h10m-10 20h10m-10 20h10m-10 20h10m-10 20h10"/><path fill="none" stroke="#1d1d1d" stroke-width="3.5" d="M1920 960h50m-50 10h40m0 0v170m10-180v170m-10 10h70m-60-10h50m10 10v-30m-10 20v-20"/><path fill="none" stroke="#1d1d1d" stroke-dasharray="7.5 8.333" stroke-width="3.5" d="M1920 1080h150"/><path fill="none" stroke="#cbe7f1" stroke-width="20.2" d="M1928.4 1088.8v36.9l.1 1.7.2 2v1.7l.1 1.1v1l.1 1.1.2 1.3q.1.2 0 1.6t.1 1.4 0 1 0 1.2-.3 1.2 0 1.2-.2 1.4-.2 1.2 0 1.2 0 .8 0 .7 0 .9 0 1 0 1 0 .6.2.5 0 .6.3.6.5.5.4.3.7.3.9.3 1 .3 1.1.1 1.9 0 2.1-.3 1.8-.3 1.2-.3 1.4-.6 2-.7 2.3-.7 2.8-.5 3-.4 2.8-.1 3 0 3.3 0 3-.1 2.6-.1 2.4-.3 2.1-.3 1.6 0 1.5-.1 1.8 0 2.7 0 3 0 2.7 0 2.3 0 2.3-.1 2.3-.3 1.9-.3 1.8 0 2.2-.1 2.7-.2 2.5-.1 1.6-.1 1.2 0 1.4 0 2.4 0 2.9 0 2.4 0 1.5 0 1 0 1 0 1.4 0 1.3 0 .9 0 1 0 1 0 2 0 2.6 0 1.6 0 1.2 0 2 0 2.5 0 1.8 0 1.1-.2 1-.1 1-.1.8 0 .9 0 .7 0 .5 0 .6 0 .8 0 1.1 0 1.3 0 1.2 0 1 0 1 0 .9 0 1.2.2 1.4 0 1 .1.8 0 .7 0 .6 0 .4 0 .4 0 .6-.5.6-.5.6-.3.5-.3.3-.4.4-.5.3-.6.4-1 .6-.9.4-.8.2-.7.1-1.2 0-1.4 0-1.4-.2-1.2-.3-1.4-.5-1.6-.3-1.9-.3-1.6-.3-1.5-.3-1.5-.1-1.6-.2-2-.3-1.8-.2-1.4-.1-1.6 0-1.8 0-2 0-2-.1-2.1 0-2.2.1-2.2.2-2.2 0-1.7 0-1.4.1-1.4 0-1.2 0-1.3 0-1.2 0-1.5 0-1.2 0-.7 0-.7-.1-.8-.2-.8-.2-.6-.2-.6-.2-.3-.3-.2-.4 0-.6-.2-.7-.1-.6-.1-.4 0-.5 0-.5 0-.6 0-.6 0-1 0-1.6 0-1.2 0-.8 0-.7 0-1 0-1.3 0-1.6-.2-1.8-.3-1.6-.2-.9-.1-.7 0-1 0-1 0-1.4-.1-1.3 0-.8 0-.6 0-.5 0-.5-.1-.6-.3-.5-.5-.5-.7-.5-.7-.7-.8-.7-.6-.3-.3-.2-.4 0-.5-.2-.6-.2-.6 0-.6-.1-1 0-1.3-.2-1.3-.1-1.2-.1-.9 0-.8 0-.5 0-.6-.2-.9-.3-1-.2-1-.1-1 0-.8 0-1 0-.9 0-.8 0-1 0-1.3 0-1.5 0-1.5.2-1.2 0-1 .1-1.1 0-1.3 0-1 0-.8 0-.7 0-.8 0-1 0-1 0-.7 0-.7 0-.7 0-.7 0-.6 0-.5 0-.6 0-.7 0-.6-.2-.4-.3-.3-.3-.3-.3 0-.4-.1-.4 0-.4 0-.4 0-.4 0-.3 0-.3.5-.2.5 0 .5-.1.4 0 .5-.2.9-.1.8-.1.6 0 .6 0 .7 0 .8 0 1 0 1.2 0 1 0 1 0 .9-.2.7-.3.7-.2.8-.1 1 0 .8-.2.7-.2 1 0 .9 0 .9 0 .8-.1.9 0 1 0 .9-.1.9-.2.8 0 1 0 1-.1.9 0 .7 0 .6 0 .5 0 .9 0 1 0 1.2-.1 1.4-.2 1.6 0 1.2-.1 1 0 .6 0 .7-.1.6-.2.9-.2.8-.2.7-.2.7-.3.5-.4.5-.4.5-.6.7-.8.7-.6.4-.8.3-.9.3-1 .4-1.3.4-1.2.3-1 .2-1.4.4-1.3.3-1 .3-.8.3-.5.2-.8 0-1 .1-1 0-1.3 0-1.3 0-1.2 0-1.6 0-1.6 0-1.6 0-1.5 0-1.7-.2-2.2-.2-2.4-.4-2.3-.3-2-.3-1.8-.3-1.6-.4-1.3-.2-1.2 0-1.2-.1-2-.1-2.4-.2-1.9 0-1.6-.2-1.4-.2-1.4 0-1.3-.1-1.3 0-1.2 0-1.5-.2-1.7-.1-2-.1-2 0-2 0-1.7 0-1.1 0-.9 0-.8 0-1 0-1.3 0-1.4.2-1.4.1-1.4.2-1.4.3-1.1.2-.7.1-.5.3-.7.6-1 1-1.6 1.7-1.9 2.8-1.2 3-.7 3-.3 2.7 0 1.8-.1 1.9 0 2 .6 2.5.9 2.5 1 2.2 1.1 2 1 2 .7 1 .6.9.7 1 .9 1.3.8 1.3 1 1.2 1.5 1.2 1.3 1 .9.7.7.5.8.3 1 .2 1 0 1-.3.7-.7 1-1.4.8-2.2.5-3.4 0-4.4-.6-5-1.1-4-1-2.8-.8-2-.9-1.7-.6-1.4-.4-.9-.2-.7-.3-.6-.4.6-1 3.7-1 6-.8 5.5-.5 5.2-.2 4.7 0 4-.1 3.2.1 2 .4 1.4.9 1.2 1.3 1.2 2.3.8 3.5.4 3.2 0 3-1.3 2.5-2.4 1.2-2.9.5-3.5-.3-4.7-1-4.9-1-3.7-1.2-3.3-1-2.9-.5-2.7-.2-2.7 0-2.2.5-1.9 1.3-1.5 2-1 1.7-.3 1.5.5 1.4 1.3 1 2.2.6 2.4.3 2.6-.2 2.7-1 4.5-1.6 5.6-1.4 4.7-1 3.7-.4 2.8-.2 2 0 2.2.9 2 1.2 1.7 2.1 1.7 2.7 1.2 2.5.5 2 .2 1.2 0 1-.4.9-1.4.5-3.3-.1-5.4-1.2-6.7-1.4-6-1.3-5-1.3-4.8-.7-3.4-.4-2.4-.1-1.9.2-1.2.5-1 .8-.4 1.3-.2 1.9.2 2 .9 1.4 1.1.8 2.4.5 4 .2 4.7 0 4.8.1 5 .1 4.4.3 3.3.4 2.5.4 2 .6 1.5 1 1.5 1.6 1 2.8.6 4.7.3 4.8 0 3-.6 1.3-1.9.2-2.8-1-4.4-1.6-4.7-1.5-3.6-1.6-3.4-1.5-3.2-1-3.4-.7-3-.2-2.1-.1-1.7.2-1.6.6-1.1 1.2-.8 1.4-.5 1.7-.2 2 .3 1.6.8 1.4 1.2 1.2 1.5 1.1 2.2 1 2.5.5 2 0 2.1-.1 2.8-.5 3.5-.5 3.8-.3 3.1-.2 2.3.2 1.8.4 1.2.5.7.9.6 1.2.7 1.4.7 1 .2.6.2.5 0 .6 0 .4-.7.4-2 .3-2.4.3-3.4.1-4 0-3.2 0-3.2.1-2.9 0-2.6 0-2.7.2-2.4.5-2 .7-1.5.7-1 .6-.6.6-.2 1 .4 2.2 1.4 2.9 2 1.8 2.2.9 2.5.3 3.6 0 4.8-.4 5-1 4.3-1.1 3.5-1 2.5-.6 1.6-.3 1.2-.1 1.2.2 1.6.5 1.7.8 1.2 1 .8 1.1.3 1.2-.8 1-2.5.6-3.4 0-3.7-.3-4.6-.3-5.1 0-4.8-.1-3.8 0-4.2 0-4.8v-2" opacity="0.3" pointer-events="all"/><path fill="none" stroke="#cbe7f1" stroke-width="20.2" d="M2022.6 1104.4q5.2 6.1 6.4 9.3t2 6.2 1.2 5.6.6 4.2.4 2.6.3 2 .1 3 0 3.8.4 3.3.8 2.6.6 2 .6 1.3.8-.4 1-2.4.8-4 .5-4.6.2-4.2 0-3.6-.4-3.6-.9-4.1-1.2-4.1-1-3.2-.5-2.3-.3-2.1-.3-2.2-.1-2.2 0-2.2 0-1.8.4-1.5.6-1.1.5-.8.9-.5 1.1-.2 1.5 0 1.4.5 1.5 1 1.5 1.1 1.4 1.9 1 2.1.4 2.3.2 2.3 0 3-.4 3.3-.1 2.5 0 1.8 0 1.6-.1 1.8.1 1.8.3 1.6.5 1.6 1.6 3.2 2.3 4l1 1.8m-36-100.4 2.2-10.3q.4-2 .4-2.8t0-1.5-.4-1.2-.4-1.3.3-1.4.6-2 .8-2.2.7-1.5.7-.8.8.2 1.5 1 1.6 1.4 1.3 1.3 1 1 .5.9.2.7.1.7.2 1.1.5 2.2.4 2.2.3 2 .3 2 .2 1.5 0 1.5 0 2 0 2 0 1.7 0 1.4 0 1.3 0 1 .3.7.2.7.3 1 .3 1.3.2 1.5 0 1.4 0 .9 0 .8-.1 3.2-.3 5l-.2 2" opacity="0.3" pointer-events="all"/><path fill="none" stroke="#1d1d1d" stroke-width="3.5" d="M1920 900h20m-20 10h20m0-10v-10m0 20v10m0-30h100m-100 30h100"/><path fill="none" stroke="#1d1d1d" stroke-width="2" d="M2040 890h20m-20 30h20m10-40v50m-10 0h10m-10 0v-50m0 0h10m-70 10v30"/></svg>