<svg xmlns="http://www.w3.org/2000/svg" width="538.89" height="350.1" stroke-linecap="round" stroke-linejoin="round" class="tl-container tl-theme__force-sRGB tl-theme__light" data-color-mode="light" viewBox="1566.44 848 538.89 350.1" style="background-color:#f9fafb" xmlns:xlink="http://www.w3.org/1999/xlink"><defs><path fill="none" stroke="#cbe7f1" d="M1609.48 1087.09q-.27 8.446-.328 10.65t-.082 3.547-.035 2.324-.015 1.67-.006 1.39-.003 1.273 0 1.36-.001 1.395 0 1 .135.834.192.898.082 1.063.035 1.541.15 1.883.198 1.755.085 1.427.036 1.152.015 1.034.007.982.002 1.237.002 1.48.138 1.173.197.768.084.735.035 1.132.015 1.435.007 1.292.002.957.002.677 0 .696.135.977.193 1.097.22 1.147.231 1.304.099 1.101.041.879.018.782.008 1.148.003 1.443.001 1.157.001.9 0 .655 0 .552 0 .507.136.486.192.48.217.342.5.28 1.033.254 2.482.109 3.643.045 3.727.02 3.355.008 2.516.004 1.75.001 1.561-.272 1.888-.524 2.165-.358 3.1-.425 4.177-.454 4.093-.193 3.784-.082 3.652-.035 4.413-.015 5.417-.006 4.89-.003 4.12 0 4.749-.274 5.698-.525 5.283-.358 4.016-.152 2.932-.065 2.879-.027 2.994-.012 2.5-.005 2.017-.002 1.674 0 1.801-.001 2.264 0 2.732.135 3.48.33 3.249.279 2.062.118 1.285.05 1.09.022 1.008.009.838.004.764.001.733 0 .854-.137.775-.196.875-.084.916-.035.662-.015.554-.007.506-.003.489 0 .753-.001 1.002 0 .97 0 .82 0 .486-.136.342-.327.28-.413.12-.448.188-.326.353-.411.42-.992.314-1.376.134-1.539.195-1.744.355-2.239.56-3.266.51-3.432.353-2.821.285-2.424.12-2.528.19-2.984.219-2.765.228-2.265.232-1.918.098-1.769.178-1.568.21-1.348.09-1.12.175-1.291.213-1.64.09-1.377.039-1.132.016-.89.007-.785.003-.878-.137-1.054-.33-1.13-.277-1.023-.252-1.117-.242-1.155-.242-1.038-.24-.987-.237-.828-.374-.622-.567-.4-.785-.17-1.015-.21-1.385-.227-1.679-.231-1.938-.234-2.051-.234-1.827-.235-1.32-.1-.968-.042-.82-.018-.895-.008-1.062-.003-1.13-.002-2.389 0-2.786 0-2.136 0-2.135 0-2.409 0-2.521 0-1.888 0-1.892 0-2.984 0-3.993 0-3.876 0-3.554 0-3.554 0-3.69.135-3.883.192-3.013.082-2.1.17-3.753.207-4.455.088-2.848.038-1.892.016-1.62.006-1.914.003-2.041.002-1.957.138-2.057.197-2.372.084-2.235.035-1.77.015-1.841.007-1.873.002-1.885.002-2.026 0-2.224 0-2.99 0-3.584 0-3.294 0-2.49 0-2.694 0-4.144 0-4.349 0-2.937 0-1.657 0-.84.135-.356.874.122 1.87.597 2.43.663 2.53.825 2.436 1.167 2.671 1.042 2.771.851 2.54.77 2.17.6 1.877.529 1.887.362 1.618.29 1.37.393 1.67.575 1.8.518 1.99.493 2.617.618 2.475.397 1.733.307 1.283.54 1.227.636 1.203.68 1.192 1.105 1.458 1.15 1.164.898.494.928-.333 1.622-2.594 2.325-5.053 1.94-5.96 1.094-5.393.33-4.336-.267-3.48-.66-2.16-1.236-1.052-1.75-.72-1.833-.58-1.868-.928-1.476-1.349-.765-1.254-.325-1.077-.139-.592 1.034 2.335 2.622 6.033 3.02 6.787 2.508 5.475 1.475 4.098.626 3.239.402 2.466.305 1.73.268 1.143.796.621 1.562.264 2.847.113 4.751-.226 5.97-.912 5.398-1.75 3.519-2.654 1.768-2.895.344-3.41-.944-3.902-1.764-3.7-1.84-3.48-1.597-2.843-1.496-2.432-1.317-2.124-1.241-1.857-1.482-1.609-1.72-1.227-1.82-.791-1.455-.337-1.162-.143-1.313.348-1.378 1.237-1.263 2.159-.808 2.959-.208 3.436 1.001 3.913 1.924 3.572 1.769 2.338 1.568 1.675 1.486 1.528 1.86 1.739 1.879 1.556 1.072.934.726.535 1.26.636 2.445.948 3.49 1.085 3.799 1.007 2.977.563 1.538.375.654.567.278 1.06-.017 1.679-.416 1.803-.584 1.583-.384 1.216-.163-.846-.07-2.54-.029-3.53-.012-6.133.13-7.781.19-6.303.08-3.768.035-2.148-.12-1.46-.46-1.574-.742-1.486-.315-.766.956 1.037 2.04 3.71 2.502 5.797 2.426 6.005 1.983 5.005 1.524 3.763.92 2.554.665 2.31.69 2.618 1.11 2.748 1.562 2.12 1.618 1.036 2.189.44 2.428-.221 1.983-2 .708-4.392-1.197-5.817-2.418-5.468-4.16-5.185-5.038-4.655-4.185-3.342-3.142-2.51-2.151-1.748-1.458-.88-.893.58-.787 2.699-.605 5.913-.258 6.602.026 4.712.693 3.635 1.248 2.5 1.348 1.609 1.524.956 2.28-.274 3.56-1.48 4.785-2.265 4.213-2.595 2.333-2.874 1.127-4.085.48-4.459.203-4.074.087-3.503.036-2.44-.257-1.856-.383-1.336-.162-.975.068-.823.85-.62 3.082-.537 5.261-.093 5.235.915 3.587 1.344 1.524 1.525-.58 1.6-2.971.95-5.078.404-5.562.036-5.087-.392-3.798-.44-1.07-.187 2.678-.08 5.5-.034 8.876-.014 10.99-.006 8.76-.003 5.629-.136 2.936-.33.566-.142-.711.079-.846.033-.77.15-2.645.606-4.666.94-4.979 1.218-6.066 2.015-6.666 2.763-5.964 2.81-4.714 2.557-3.096 2.042-1.316 1.14 1.623.62 5.321.399 9.346.17 9.285-.064 5.17-.573 2.471-1.198.915-2.415.116-2.933-.224-2.336-.368-1.812-.295-1.179-.26-.636-.927.003-2.438 1.364-5.533 4.392-7.118 6.225-5.34 5.098-3.224 3.53.401 2.046 4.802.732 6.673-.236 5.97-.916 3.626-1.071 1.541-1.272.79-1.63.61-1.92.94-2.314.942-2.073.54-1.29.501-.683.622-.017.81.947 1.026 2.99 1.117 3.994.884 3.333.645 2.37.41 1.009.174-.8.074-2.522.031-3.113.014-3.094.005-1.18.003 1.951 0 3.282.001 2.895 0 1.912-1.09 2.992-1.894 4.047l-.806 1.72" id="a"/><path fill="none" stroke="#cbe7f1" d="M1928.41 1088.81v36.844q0 1.001.118 1.78t.168 1.933.07 1.765.031 1.103.013 1.059.123 1.039.17 1.266.073 1.6.031 1.387.013 1.058-.112 1.154-.166 1.197-.07 1.217-.148 1.342-.18 1.277-.078 1.133-.032.835-.014.708-.006.89-.002 1.086-.002.933.118.63.168.5.071.566.266.594.467.489.434.325.656.256.868.345.958.264 1.23.113 1.816-.07 2.187-.266 1.754-.23 1.217-.335 1.342-.613 1.983-.73 2.371-.66 2.777-.516 3.066-.338 2.714-.143 3.037-.061 3.295-.026 2.932-.011 2.658-.123 2.423-.287 2.091-.24 1.596-.103 1.504-.043 1.817-.019 2.656-.007 3.012-.004 2.694-.001 2.324 0 2.281-.119 2.264-.286 1.905-.24 1.87-.101 2.21-.043 2.704-.137 2.443-.175 1.628-.075 1.163-.032 1.437-.013 2.38-.006 2.894-.002 2.405-.001 1.494 0 .989-.001 1.01 0 1.372 0 1.29 0 .902 0 .973 0 1.12 0 2.006 0 2.5 0 1.652 0 1.173 0 2.031 0 2.511 0 1.771 0 1.107-.118.942-.168.99-.071.891-.03.851-.014.715-.005.54-.003.583 0 .837 0 1.063-.001 1.277 0 1.247 0 .999 0 .896 0 .97.118 1.237.168 1.351.071 1.046.03.798.013.693.006.53.002.46.001.433-.117.537-.404.582-.525.6-.341.492-.263.326-.347.375-.502.392-.684.4-.88.523-.964.458-.763.195-.796.082-1.16.036-1.434-.103-1.316-.162-1.267-.304-1.363-.48-1.64-.32-1.877-.253-1.622-.343-1.512-.264-1.465-.112-1.565-.166-1.962-.306-1.895-.248-1.394-.105-1.533-.045-1.828-.02-1.955-.007-2.128-.004-2.083-.001-2.182.117-2.22.168-2.12.071-1.726.03-1.441.013-1.32.006-1.268.002-1.246.001-1.237 0-1.466 0-1.21 0-.749 0-.672-.117-.758-.168-.793-.19-.69-.198-.53-.202-.343-.322-.146-.372-.061-.63-.145-.739-.179-.55-.076-.47-.032-.435-.014-.538-.006-.583-.002-.6-.001-1.082 0-1.517-.001-1.231 0-.76 0-.675 0-.995 0-1.366 0-1.523-.118-1.827-.286-1.6-.24-.917-.101-.743-.043-.902-.019-1.088-.007-1.406-.004-1.304-.001-.79 0-.572-.001-.479 0-.557-.118-.59-.286-.487-.475-.442-.673-.542-.758-.702-.794-.652-.573-.394-.361-.168-.39-.072-.516-.148-.57-.18-.596-.078-.607-.032-.965-.014-1.353-.124-1.282-.17-1.135-.073-.953-.03-.76-.014-.558-.005-.59-.12-.841-.287-1.062-.24-1.037-.102-.913-.043-.86-.019-.954-.007-.877-.004-.844-.001-1.066 0-1.278-.001-1.487.118-1.454.168-1.204.07-.983.031-1.126.013-1.303.006-1.025.002-.79.001-.689 0-.764 0-1.032 0-.91 0-.74 0-.787 0-.688 0-.643 0-.624 0-.5 0-.568 0-.712 0-.656-.232-.397-.332-.286-.259-.24-.346-.102-.382-.043-.399-.019-.405-.007-.408-.004-.409-.001-.292.117-.242.404-.22.525-.094.459-.04.43-.017.537-.125.815-.17.814-.074.583-.03.6-.014.727-.005.781-.003 1.039 0 1.149-.001 1.077 0 1.048 0 .798-.118.694-.286.766-.24.797-.101.925-.043.862-.137.72-.175.895-.075.97-.032.884-.013.847-.006.831-.003.943 0 .99-.119.892-.168.851-.072.948-.03.99-.013.891-.005.733-.003.547 0 .586-.001.839 0 1.064 0 1.159-.118 1.436-.168 1.553-.072 1.25-.03.881-.013.726-.005.661-.12.635-.17.86-.19.836-.198.71-.202.655-.322.514-.372.454-.394.547-.639.704-.743.652-.67.396-.753.285-.906.358-1.093.387-1.171.4-1.206.289-1.101.24-1.293.338-1.375.38-1.056.278-.684.237-.527.218-.81.093-.931.04-1.103.016-1.294.007-1.257.004-1.242 0-1.588.001-1.618 0-1.51 0-1.582-.117-1.615-.168-2.22-.19-2.475-.315-2.23-.37-2.006-.276-1.793-.352-1.587-.386-1.382-.164-1.177-.07-1.207-.03-2.045-.13-2.281-.173-1.91-.074-1.637-.149-1.402-.181-1.422-.077-1.311-.033-1.265-.014-1.244-.006-1.47-.12-1.682-.17-2.011-.071-2.034-.03-1.925-.014-1.762-.005-1.102-.003-.822 0-.818 0-1.052-.001-1.272.118-1.366.168-1.405.071-1.423.148-1.43.299-1.079.245-.694.104-.53.28-.698.59-1 .956-1.602 1.817-1.86 2.777-1.26 2.948-.655 3.018-.278 2.694-.118 1.853-.05 1.848.096 2.082.513 2.414.925 2.556.982 2.147 1.125 2.091 1.065 1.832.685 1.132.527.835.696 1.062.885 1.273.847 1.246 1.068 1.237 1.396 1.233 1.301.995.907.659.739.516.785.337.923.143 1.097-.057.935-.26.75-.7.91-1.358.857-2.225.482-3.418.087-4.397-.67-4.93-1.11-4.1-.94-2.685-.869-2.08-.84-1.708-.593-1.314-.37-.913-.275-.741-.235-.551-.453.591-.9 3.667-1.09 5.914-.817 5.575-.465 5.196-.197 4.68-.084 3.993-.036 3.23.103 2.08.397 1.355.876 1.162 1.315 1.199 2.325.863 3.46.367 3.239-.08 3.024-1.21 2.46-2.397 1.165-2.905.494-3.471-.258-4.773-.932-4.858-1.104-3.712-1.176-3.342-.971-2.836-.531-2.737-.226-2.693.022-2.202.481-1.88 1.38-1.505 1.88-.994 1.743-.304 1.566.46 1.372 1.374 1.055 2.114.566 2.427.24 2.564-.133 2.74-1 4.463-1.603 5.665-1.389 4.645-.944 3.739-.519 2.768-.22 2.12.142 2.079.767 1.942 1.27 1.765 2.071 1.693 2.649 1.191 2.537.507 2.019.215 1.211.091.987-.432.89-1.48.497-3.22-.143-5.489-1.121-6.69-1.417-5.906-1.307-5.1-1.262-4.761-.773-3.435-.328-2.4-.14-1.845.177-1.256.547-.887.819-.495 1.288-.21 1.844.264 1.962.82 1.424 1.172.84 2.382.475 3.957.202 4.743.086 4.842.037 4.884.133 4.43.293 3.298.36 2.58.388 1.921.637 1.524.978 1.47 1.591 1.094 2.796.582 4.721.248 4.833.105 2.879-.66 1.341-1.927.217-2.823-.97-4.38-1.59-4.688-1.498-3.642-1.577-3.313-1.495-3.292-1.107-3.402-.588-2.979-.25-2.09-.107-1.712.19-1.549.671-1.13 1.11-.834 1.412-.472 1.776-.2 1.934.267 1.646.822 1.408 1.171 1.187 1.556 1.094 2.194.936 2.464.516 2.109.102 2.071-.193 2.764-.435 3.532-.54 3.738-.346 3.118-.147 2.268.173 1.79.427 1.231.535.76.817.558 1.287.709 1.37.655.935.278.634.118.505.05.568.022.477-.698.32-1.947.373-2.475.276-3.406.117-3.923.05-3.315.021-3.174.009-2.881.004-2.64.001-2.654.237-2.421.454-1.97.664-1.544.755-1.01.556-.547.59-.232.958.372 2.29 1.452 2.856 2.03 1.804 2.158.884 2.45.376 3.632.042 4.84-.454 4.884-1.018 4.43-1.14 3.415-.956 2.513-.642 1.657-.273 1.176-.116 1.207.187 1.57.55 1.726.824 1.205 1.057.748 1.039.318 1.149-.808 1.077-2.462.576-3.401.01-3.683-.35-4.626-.267-5.15-.114-4.778-.048-3.796-.02-4.204-.01-4.766l-.005-2.026" id="b"/><path fill="none" stroke="#cbe7f1" d="M2022.63 1104.38q5.18 6.124 6.4 9.308t1.972 6.188 1.192 5.574.624 4.252.384 2.632.28 1.944.12 3.063.05 3.774.376 3.255.749 2.68.671 1.963.522 1.307.808-.388 1.048-2.405.799-3.966.457-4.63.194-4.203-.035-3.67-.369-3.564-.86-4.105-1.189-4.1-.976-3.156-.533-2.284-.344-2.15-.265-2.207-.112-2.232-.048-2.128.098-1.847.395-1.492.522-1.106.575-.823.83-.468 1.176-.199 1.443.033 1.438.486 1.436.914 1.554 1.213 1.367 1.812.935 2.182.515 2.221.22 2.359-.143 3.006-.297 3.279-.126 2.451-.053 1.867-.023 1.619-.01 1.748.114 1.805.284 1.591.474 1.617 1.614 3.16 2.272 4.084l.965 1.736" id="c"/><path fill="none" stroke="#cbe7f1" d="M2016.215 1037.994q1.811-8.343 2.196-10.297t.367-2.785-.025-1.545-.373-1.2-.34-1.235.219-1.43.636-2.06.813-2.147.711-1.455.668-.8.827.204 1.438.995 1.698 1.331 1.265 1.29.9 1.092.563.826.24.714.102.665.224 1.189.458 2.138.375 2.18.34 2.012.327 1.942.138 1.55.06 1.568.024 1.936.01 2.092.005 1.613.002 1.41.001 1.324 0 .927.185.76.262.685.293 1.015.305 1.338.13 1.474.055 1.35.023.937.01.76-.177 3.224-.312 4.992l-.133 2.121" id="d"/></defs><use stroke-width="20.16" opacity="0.82" pointer-events="all" href="#a"/><use stroke-width="20.16" opacity="0.82" pointer-events="all" href="#b"/><use stroke-width="20.16" opacity="0.82" pointer-events="all" href="#c"/><use stroke-width="20.16" opacity="0.82" pointer-events="all" href="#d"/><path fill="none" stroke-dasharray="7.5 8.33" d="M1600 1080h150" stroke="#1d1d1d" stroke-width="3.5"/><use stroke-width="20.16" opacity="0.35" pointer-events="all" href="#a"/><path fill="none" stroke="#1d1d1d" stroke-width="3.5" d="M1600 1010v150m0 0h150m0 0v-150m-150 0h40m70 0h40m-110 0v-30m70 30v-30"/><path fill="none" stroke="#1d1d1d" stroke-width="10" d="M1640 960h70v20h-70Z"/><path fill="none" stroke="#1d1d1d" stroke-width="3.5" d="M1600 890h60m-60-10h70m-10 10v130m10-140v140m10 120V920m10 220V930m0 0h120m-130-10h140m-30 240h50m-40-10V990m0 160-10 10m40-10V990m0 160 10 10m-30-230v70m10-80v80m-20 150h30"/><path fill="none" stroke="#1d1d1d" stroke-width="2" d="M1800 1130h10m-10-20h10m-10-20h10m-10-20h10m-10-20h10m-10-20h10m-10-20h10"/><path fill="none" stroke="#1d1d1d" stroke-width="3.5" d="M1920 1010v150m0 0h150m0 0v-150m-70-60h50m-40 10v160m0-160-10-10m40 10v160m0-160 10-10m-40 10h30"/><path fill="none" stroke="#1d1d1d" stroke-width="2" d="M2010 980h10m-10 20h10m-10 20h10m-10 20h10m-10 20h10m-10 20h10m-10 20h10"/><path fill="none" stroke="#1d1d1d" stroke-width="3.5" d="M1920 960h50m-50 10h40m0 0v170m10-180v170m-10 10h70m-60-10h50m10 10v-30m-10 20v-20"/><path fill="none" stroke-dasharray="7.5 8.33" d="M1920 1080h150" stroke="#1d1d1d" stroke-width="3.5"/><use stroke-width="20.16" opacity="0.35" pointer-events="all" href="#b"/><use stroke-width="20.16" opacity="0.35" pointer-events="all" href="#c"/><use stroke-width="20.16" opacity="0.35" pointer-events="all" href="#d"/><path fill="none" stroke="#1d1d1d" stroke-width="3.5" d="M1920 900h20m-20 10h20m0-10v-10m0 20v10m0-30h100m-100 30h100"/><path fill="none" stroke="#1d1d1d" stroke-width="2" d="M2040 890h20m-20 30h20m10-40v50m-10 0h10m-10 0v-50m0 0h10m-70 10v30"/></svg>