<svg xmlns:xlink="http://www.w3.org/1999/xlink" viewBox="0 0 300 600"><desc>Produced by GNUPLOT 4.4 patchlevel 0</desc><g style="fill:none;color:#000;stroke:currentColor;stroke-width:1;stroke-linecap:butt;stroke-linejoin:miter"><path d="M51 100.9h8.2"/><text style="stroke:none;fill:#000;font-family:helvetica;font-size:11pt;text-anchor:end" transform="translate(43.3 105)"><tspan>0</tspan></text><path d="M227.6 100.9v8.2"/><text style="stroke:none;fill:#000;font-family:helvetica;font-size:11pt;text-anchor:middle" transform="translate(227.6 129.6)"><tspan>K</tspan></text></g><path d="M51 100.9h229.6" style="fill:none;color:gray;stroke:currentColor;stroke-width:1;stroke-linecap:butt;stroke-linejoin:miter"/><g style="fill:none;color:#000;stroke:currentColor;stroke-width:1;stroke-linecap:butt;stroke-linejoin:miter"><path d="M51 43.3v115.3m0-115.3"/><text style="stroke:none;fill:#000;font-family:helvetica;font-size:11pt;text-anchor:middle" transform="rotate(-90 62.4 38.6)"><tspan>Proliferation rate (dN/dt)</tspan></text><text style="stroke:none;fill:#000;font-family:Helvetica;font-size:15pt;text-anchor:middle" transform="translate(165.8 22.8)"><tspan>Strong Allee Effect</tspan></text></g><a xlink:title="Plot #1"><path d="m51 100.9 2.3 1.5 2.3 1.2 2.4 1.1 2.3 1 2.3.8 2.3.6 2.3.5 2.4.4 2.3.2 2.3.1h2.3l2.3-.1 2.3-.2 2.4-.4 2.3-.4 2.3-.5 2.3-.6 2.3-.7 2.4-.8 2.3-.9 2.3-.9 2.3-1 2.3-1 2.4-1.1 2.3-1.1 2.3-1.2 2.3-1.2 2.3-1.3 2.4-1.3 2.3-1.3 2.3-1.3 2.3-1.3 2.3-1.3 2.4-1.4 2.3-1.3 2.3-1.3 2.3-1.3 2.3-1.3 2.3-1.2 2.4-1.2 2.3-1.2 2.3-1.2 2.3-1.1 2.3-1 2.4-1 2.3-.9 2.3-.9 2.3-.7 2.3-.7 2.4-.7 2.3-.5 2.3-.4 2.3-.4 2.3-.2 2.4-.1h2.3l2.3.1 2.3.2 2.3.4 2.4.5 2.3.7 2.3.7 2.3 1 2.3 1.1 2.3 1.3 2.4 1.4 2.3 1.6 2.3 1.8 2.3 1.9 2.3 2.2 2.4 2.3 2.3 2.6 2.3 2.7 2.3 3 2.3 3.1 2.4 3.4 2.3 3.6 2.3 3.9 2.3 4 2.3 4.4 2.4 4.5 2.3 4.8 2.3 5.1 2.3 5.3 2.3 5.6 2.4 5.9 2.3 6.1 1.8 5" style="fill:none;color:red;stroke:currentColor;stroke-width:2;stroke-linecap:butt;stroke-linejoin:miter"/></a><g style="fill:none;color:#000;stroke:currentColor;stroke-width:1;stroke-linecap:butt;stroke-linejoin:miter"><path d="M51 43.3v115.3m0 140.3h8.2"/><text style="stroke:none;fill:#000;font-family:helvetica;font-size:11pt;text-anchor:end" transform="translate(43.3 303)"><tspan>0</tspan></text><path d="M227.6 298.9v8.2"/><text style="stroke:none;fill:#000;font-family:helvetica;font-size:11pt;text-anchor:middle" transform="translate(227.6 327.6)"><tspan>K</tspan></text></g><path d="M51 298.9h229.6" style="fill:none;color:gray;stroke:currentColor;stroke-width:1;stroke-linecap:butt;stroke-linejoin:miter"/><g style="fill:none;color:#000;stroke:currentColor;stroke-width:1;stroke-linecap:butt;stroke-linejoin:miter"><path d="M51 241.3v115.3m0-115.3"/><text style="stroke:none;fill:#000;font-family:helvetica;font-size:11pt;text-anchor:middle" transform="rotate(-90 161.4 137.6)"><tspan>Proliferation rate (dN/dt)</tspan></text><text style="stroke:none;fill:#000;font-family:Helvetica;font-size:15pt;text-anchor:middle" transform="translate(165.8 220.8)"><tspan>Weak Allee Effect</tspan></text></g><a xlink:title="Plot #1"><path d="m51 298.9 2.3-.1 2.3-.2 2.4-.1 2.3-.2 2.3-.2 2.3-.2 2.3-.2 2.4-.2 2.3-.3 2.3-.3 2.3-.4 2.3-.3 2.3-.5 2.4-.4 2.3-.5 2.3-.6 2.3-.6 2.3-.6 2.4-.7 2.3-.7 2.3-.8 2.3-.8 2.3-.9 2.4-.9 2.3-.9 2.3-1 2.3-1 2.3-1.1 2.4-1.1 2.3-1.1 2.3-1.2 2.3-1.2 2.3-1.2 2.4-1.2 2.3-1.3 2.3-1.2 2.3-1.3 2.3-1.3 2.3-1.2 2.4-1.3 2.3-1.2 2.3-1.2 2.3-1.2 2.3-1.2 2.4-1.1 2.3-1 2.3-1.1 2.3-.9 2.3-.9 2.4-.8 2.3-.7 2.3-.7 2.3-.5 2.3-.4 2.4-.3 2.3-.1 2.3-.1 2.3.2 2.3.3 2.4.5 2.3.6 2.3.9 2.3 1 2.3 1.3 2.3 1.5 2.4 1.8 2.3 2 2.3 2.3 2.3 2.5 2.3 2.9 2.4 3.1 2.3 3.5 2.3 3.9 2.3 4.2 2.3 4.5 2.4 5 2.3 5.3 2.3 5.7 2.3 6.2 2.3 6.7 2.4 7.1 2.3 7.5 2.3 8.1 2.3 8.6.8 3.2" style="fill:none;color:red;stroke:currentColor;stroke-width:2;stroke-linecap:butt;stroke-linejoin:miter"/></a><g style="fill:none;color:#000;stroke:currentColor;stroke-width:1;stroke-linecap:butt;stroke-linejoin:miter"><path d="M51 241.3v115.3m0 138.2h8.2"/><text style="stroke:none;fill:#000;font-family:helvetica;font-size:11pt;text-anchor:end" transform="translate(43.3 498.9)"><tspan>0</tspan></text><path d="M227.6 494.8v8.2"/><text style="stroke:none;fill:#000;font-family:helvetica;font-size:11pt;text-anchor:middle" transform="translate(227.6 523.5)"><tspan>K</tspan></text></g><path d="M51 494.8h229.6" style="fill:none;color:gray;stroke:currentColor;stroke-width:1;stroke-linecap:butt;stroke-linejoin:miter"/><g style="fill:none;color:#000;stroke:currentColor;stroke-width:1;stroke-linecap:butt;stroke-linejoin:miter"><path d="M51 439.2v111.2m0-111.2"/><text style="stroke:none;fill:#000;font-family:helvetica;font-size:11pt;text-anchor:middle" transform="rotate(-90 259.3 235.5)"><tspan>Proliferation rate (dN/dt)</tspan></text><text style="stroke:none;fill:#000;font-family:helvetica;font-size:11pt;text-anchor:middle" transform="translate(165.8 562.7)"><tspan>Abundance (N)</tspan></text><text style="stroke:none;fill:#000;font-family:Helvetica;font-size:15pt;text-anchor:middle" transform="translate(165.8 418.7)"><tspan>No Allee Effect</tspan></text></g><a xlink:title="Plot #1"><path d="m51 494.8 2.3-2.4 2.3-2.3 2.4-2.3 2.3-2.2 2.3-2.2 2.3-2.1 2.3-2 2.4-1.9 2.3-1.9 2.3-1.8 2.3-1.8 2.3-1.7 2.3-1.6 2.4-1.6 2.3-1.5 2.3-1.5 2.3-1.3 2.3-1.4 2.4-1.2 2.3-1.2 2.3-1.1 2.3-1.1 2.3-1 2.4-.9 2.3-.9 2.3-.8 2.3-.7 2.3-.7 2.4-.6 2.3-.5 2.3-.5 2.3-.5 2.3-.3 2.4-.3 2.3-.2 2.3-.2 2.3-.1h4.6l2.4.1 2.3.1 2.3.3 2.3.2 2.3.4 2.4.4 2.3.5 2.3.5 2.3.6 2.3.7 2.4.7 2.3.8 2.3.9 2.3.9 2.3 1 2.4 1 2.3 1.1 2.3 1.2 2.3 1.3 2.3 1.3 2.4 1.3 2.3 1.5 2.3 1.5 2.3 1.5 2.3 1.6 2.3 1.7 2.4 1.8 2.3 1.8 2.3 1.9 2.3 1.9 2.3 2 2.4 2.1 2.3 2.1 2.3 2.2 2.3 2.3 2.3 2.3 2.4 2.4 2.3 2.5 2.3 2.5 2.3 2.6 2.3 2.6 2.4 2.7 2.3 2.8 2.3 2.9 2.3 2.9 2.3 2.9 2.4 3.1 2.3 3.1 2.3 3.1 2.3 3.2 2.3 3.3 2.3 3.4 2.4 3.4 2.3 3.5 2.3 3.5 1.3 2" style="fill:none;color:red;stroke:currentColor;stroke-width:2;stroke-linecap:butt;stroke-linejoin:miter"/></a><path d="M51 439.2v111.2m0-111.2" style="fill:none;color:#000;stroke:currentColor;stroke-width:1;stroke-linecap:butt;stroke-linejoin:miter"/></svg>