<svg xmlns="http://www.w3.org/2000/svg" width="300" height="600" viewBox="0 0 300 600"><desc>Produced by GNUPLOT 4.4 patchlevel 0</desc><g fill="none" color="#000" stroke="currentColor"><path d="M51 100.9h8.2"/><text transform="translate(43.3 105)" stroke="none" fill="#000" font-family="helvetica" font-size="11pt" text-anchor="end"><tspan>0</tspan></text><path d="M227.6 100.9v8.2"/><text transform="translate(227.6 129.6)" stroke="none" fill="#000" font-family="helvetica" font-size="11pt" text-anchor="middle"><tspan>K</tspan></text></g><path d="M51 100.9h229.6" fill="none" color="gray" stroke="currentColor"/><g fill="none" color="#000" stroke="currentColor"><path d="M51 43.3v115.3m0-115.3"/><text transform="rotate(-90 62.4 38.6)" stroke="none" fill="#000" font-family="helvetica" font-size="11pt" text-anchor="middle"><tspan>Proliferation rate (dN/dt)</tspan></text><text transform="translate(165.8 22.8)" stroke="none" fill="#000" font-family="Helvetica" font-size="20" text-anchor="middle"><tspan>Strong Allee Effect</tspan></text></g><a><path d="m51 100.9 2.3 1.5 2.3 1.2 2.4 1.1 2.3 1 2.3.8 2.3.6 2.3.5 2.4.4 2.3.2 2.3.1h2.3l2.3-.1 2.3-.2 2.4-.4 2.3-.4 2.3-.5 2.3-.6 2.3-.7 2.4-.8 2.3-.9 2.3-.9 2.3-1 2.3-1 2.4-1.1 2.3-1.1 2.3-1.2 2.3-1.2 2.3-1.3 2.4-1.3 2.3-1.3 2.3-1.3 2.3-1.3 2.3-1.3 2.4-1.4 2.3-1.3 2.3-1.3 2.3-1.3 2.3-1.3 2.3-1.2 2.4-1.2 2.3-1.2 2.3-1.2 2.3-1.1 2.3-1 2.4-1 2.3-.9 2.3-.9 2.3-.7 2.3-.7 2.4-.7 2.3-.5 2.3-.4 2.3-.4 2.3-.2 2.4-.1h2.3l2.3.1 2.3.2 2.3.4 2.4.5 2.3.7 2.3.7 2.3 1 2.3 1.1 2.3 1.3 2.4 1.4 2.3 1.6 2.3 1.8 2.3 1.9 2.3 2.2 2.4 2.3 2.3 2.6 2.3 2.7 2.3 3 2.3 3.1 2.4 3.4 2.3 3.6 2.3 3.9 2.3 4 2.3 4.4 2.4 4.5 2.3 4.8 2.3 5.1 2.3 5.3 2.3 5.6 2.4 5.9 2.3 6.1 1.8 5" fill="none" color="red" stroke="currentColor" stroke-width="2"/></a><g fill="none" color="#000" stroke="currentColor"><path d="M51 43.3v115.3m0 140.3h8.2"/><text transform="translate(43.3 303)" stroke="none" fill="#000" font-family="helvetica" font-size="11pt" text-anchor="end"><tspan>0</tspan></text><path d="M227.6 298.9v8.2"/><text transform="translate(227.6 327.6)" stroke="none" fill="#000" font-family="helvetica" font-size="11pt" text-anchor="middle"><tspan>K</tspan></text></g><path d="M51 298.9h229.6" fill="none" color="gray" stroke="currentColor"/><g fill="none" color="#000" stroke="currentColor"><path d="M51 241.3v115.3m0-115.3"/><text transform="rotate(-90 161.4 137.6)" stroke="none" fill="#000" font-family="helvetica" font-size="11pt" text-anchor="middle"><tspan>Proliferation rate (dN/dt)</tspan></text><text transform="translate(165.8 220.8)" stroke="none" fill="#000" font-family="Helvetica" font-size="20" text-anchor="middle"><tspan>Weak Allee Effect</tspan></text></g><a><path d="m51 298.9 2.3-.1 2.3-.2 2.4-.1 2.3-.2 2.3-.2 2.3-.2 2.3-.2 2.4-.2 2.3-.3 2.3-.3 2.3-.4 2.3-.3 2.3-.5 2.4-.4 2.3-.5 2.3-.6 2.3-.6 2.3-.6 2.4-.7 2.3-.7 2.3-.8 2.3-.8 2.3-.9 2.4-.9 2.3-.9 2.3-1 2.3-1 2.3-1.1 2.4-1.1 2.3-1.1 2.3-1.2 2.3-1.2 2.3-1.2 2.4-1.2 2.3-1.3 2.3-1.2 2.3-1.3 2.3-1.3 2.3-1.2 2.4-1.3 2.3-1.2 2.3-1.2 2.3-1.2 2.3-1.2 2.4-1.1 2.3-1 2.3-1.1 2.3-.9 2.3-.9 2.4-.8 2.3-.7 2.3-.7 2.3-.5 2.3-.4 2.4-.3 2.3-.1 2.3-.1 2.3.2 2.3.3 2.4.5 2.3.6 2.3.9 2.3 1 2.3 1.3 2.3 1.5 2.4 1.8 2.3 2 2.3 2.3 2.3 2.5 2.3 2.9 2.4 3.1 2.3 3.5 2.3 3.9 2.3 4.2 2.3 4.5 2.4 5 2.3 5.3 2.3 5.7 2.3 6.2 2.3 6.7 2.4 7.1 2.3 7.5 2.3 8.1 2.3 8.6.8 3.2" fill="none" color="red" stroke="currentColor" stroke-width="2"/></a><g fill="none" color="#000" stroke="currentColor"><path d="M51 241.3v115.3m0 138.2h8.2"/><text transform="translate(43.3 498.9)" stroke="none" fill="#000" font-family="helvetica" font-size="11pt" text-anchor="end"><tspan>0</tspan></text><path d="M227.6 494.8v8.2"/><text transform="translate(227.6 523.5)" stroke="none" fill="#000" font-family="helvetica" font-size="11pt" text-anchor="middle"><tspan>K</tspan></text></g><path d="M51 494.8h229.6" fill="none" color="gray" stroke="currentColor"/><g fill="none" color="#000" stroke="currentColor"><path d="M51 439.2v111.2m0-111.2"/><text transform="rotate(-90 259.3 235.5)" stroke="none" fill="#000" font-family="helvetica" font-size="11pt" text-anchor="middle"><tspan>Proliferation rate (dN/dt)</tspan></text><text transform="translate(165.8 562.7)" stroke="none" fill="#000" font-family="helvetica" font-size="11pt" text-anchor="middle"><tspan>Abundance (N)</tspan></text><text transform="translate(165.8 418.7)" stroke="none" fill="#000" font-family="Helvetica" font-size="20" text-anchor="middle"><tspan>No Allee Effect</tspan></text></g><a><path d="m51 494.8 2.3-2.4 2.3-2.3 2.4-2.3 2.3-2.2 2.3-2.2 2.3-2.1 2.3-2 2.4-1.9 2.3-1.9 2.3-1.8 2.3-1.8 2.3-1.7 2.3-1.6 2.4-1.6 2.3-1.5 2.3-1.5 2.3-1.3 2.3-1.4 2.4-1.2 2.3-1.2 2.3-1.1 2.3-1.1 2.3-1 2.4-.9 2.3-.9 2.3-.8 2.3-.7 2.3-.7 2.4-.6 2.3-.5 2.3-.5 2.3-.5 2.3-.3 2.4-.3 2.3-.2 2.3-.2 2.3-.1h4.6l2.4.1 2.3.1 2.3.3 2.3.2 2.3.4 2.4.4 2.3.5 2.3.5 2.3.6 2.3.7 2.4.7 2.3.8 2.3.9 2.3.9 2.3 1 2.4 1 2.3 1.1 2.3 1.2 2.3 1.3 2.3 1.3 2.4 1.3 2.3 1.5 2.3 1.5 2.3 1.5 2.3 1.6 2.3 1.7 2.4 1.8 2.3 1.8 2.3 1.9 2.3 1.9 2.3 2 2.4 2.1 2.3 2.1 2.3 2.2 2.3 2.3 2.3 2.3 2.4 2.4 2.3 2.5 2.3 2.5 2.3 2.6 2.3 2.6 2.4 2.7 2.3 2.8 2.3 2.9 2.3 2.9 2.3 2.9 2.4 3.1 2.3 3.1 2.3 3.1 2.3 3.2 2.3 3.3 2.3 3.4 2.4 3.4 2.3 3.5 2.3 3.5 1.3 2" fill="none" color="red" stroke="currentColor" stroke-width="2"/></a><path d="M51 439.2v111.2m0-111.2" fill="none" color="#000" stroke="currentColor"/></svg>