<svg xmlns="http://www.w3.org/2000/svg" xmlns:xlink="http://www.w3.org/1999/xlink" width="290" height="236" version="1.1"><g fill="none" stroke="#231F20" stroke-width="1.64"><path id="a" d="M40.07 56.64 63.32 70.08v37.68l22.85 13.18M85.06 54.29 60.35 68.61m27.76-9.57L63.4 73.36"/><use transform="matrix(-1,0,0,-1,289.5,234.5)" xlink:href="#a"/><path id="b" d="M193.97 98.22V70.06l32.67-18.84L250.65 65.1M223.82 24.9V52.8m5.65-27.9V52.8"/><use transform="matrix(-1,0,0,-1,290,236)" xlink:href="#b"/><path d="M105.71 121.02l22.97-13.27 32.64 18.87 22.84-13.18"/></g><g fill="#231F20" font-family="'Liberation Sans', sans-serif" font-size="24"><text x="87.5" y="135.5">N</text><text x="185.4" y="116.7">N</text><text x="249.7" y="79.1">OH</text><text x="217.5" y="22.56">O</text><text x="3.24" y="173.18">HO</text><text x="3.24" y="60.17">HO</text><text x="86.7" y="60.23">O</text><text x="54" y="229.76">O</text><text x="250" y="192.3">OH</text><text x="184.6" y="192">O</text></g></svg>