<svg xmlns="http://www.w3.org/2000/svg" xmlns:ev="http://www.w3.org/2001/xml-events" xmlns:xlink="http://www.w3.org/1999/xlink" width="768" height="580" baseProfile="full" version="1.1"><title>bi-elliptic_transfer</title><desc>bi-elliptic_transfer.svg https://commons.wikimedia.org/wiki/File:bi-elliptic_transfer.svg</desc><defs><radialGradient id="grad" cx=".5" cy=".5" r=".5" gradientUnits="objectBoundingBox"><stop offset="0" stop-color="#dbf816"/><stop offset="1" stop-color="#f89c16"/></radialGradient><marker id="arrow1" markerHeight="18" markerWidth="18" orient="auto" refX="0" refY="0" viewBox="-1 -1 2 2"><path fill="#0000c4" stroke="none" d="M 0.3,0 L -0.8,0.5 Q -0.5,0 -0.8,-0.5 Z"/></marker><marker id="arrow2" markerHeight="18" markerWidth="18" orient="auto" refX="0" refY="0" viewBox="-1 -1 2 2"><path fill="#bc0d0d" stroke="none" d="M 0.3,0 L -0.8,0.5 Q -0.5,0 -0.8,-0.5 Z"/></marker><marker id="arrow3" markerHeight="8" markerWidth="8" orient="auto" refX="0" refY="0" viewBox="-1 -1 2 2"><path fill="#197810" stroke="none" d="M 0.3,0 L -0.8,0.5 Q -0.5,0 -0.8,-0.5 Z"/></marker><marker id="arrow4" markerHeight="8" markerWidth="8" orient="auto" refX="0" refY="0" viewBox="-1 -1 2 2"><path fill="#a42d0c" stroke="none" d="M 0.3,0 L -0.8,0.5 Q -0.5,0 -0.8,-0.5 Z"/></marker></defs><rect id="background" width="768" height="580" x="0" y="0" fill="#fff" stroke="none"/><g fill="none" transform="translate(559.22, 290)"><g id="sun"><polygon fill="#dbf816" stroke="#f89c16" stroke-width="1" points="13.8 0 6.955 1.863 11.951 6.9 5.091 5.091 6.9 11.951 1.863 6.955 0 13.8 -1.863 6.955 -6.9 11.951 -5.091 5.091 -11.951 6.9 -6.955 1.863 -13.8 0 -6.955 -1.863 -11.951 -6.9 -5.091 -5.091 -6.9 -11.951 -1.863 -6.955 0 -13.8 1.863 -6.955 6.9 -11.951 5.091 -5.091 11.951 -6.9 6.955 -1.863"/><circle cx="0" cy="0" r="8.2" fill="url(#grad)" stroke="#f89c16" stroke-width="1"/></g><path stroke="#0000c4" stroke-width="2.5" marker-end="url(#arrow1)" d="M -109.6,0 A 109.6,109.6 0 0 0 109.6,0 A 109.6,109.6 0 0 0 -109.6,0"/><path stroke="#bc0d0d" stroke-width="2.5" marker-end="url(#arrow2)" d="M -146.4,0 A 146.4,146.4 0 0 0 146.4,0 A 146.4,146.4 0 0 0 -146.4,0"/><path stroke="#00b996" stroke-dasharray="2 4" stroke-width="2" d="M -537.3,0 A 323.45,242.66866299545148 0 0 0 109.6,0"/><path stroke="#ff991b" stroke-dasharray="2 4" stroke-width="2" d="M 146.4,0 A 341.84999999999997,280.46518500519807 0 0 0 -537.3,0"/><path stroke="#00b996" stroke-width="5" d="M 109.6,0 A 323.45,242.66866299545148 0 0 0 -537.3,0"/><path stroke="#ff991b" stroke-width="5" d="M -537.3,0 A 341.84999999999997,280.46518500519807 0 0 0 146.4,0"/><line x1="109.6" x2="109.6" y1="0" y2="-160" stroke="#197810" stroke-width="3" marker-end="url(#arrow3)"/><line x1="-537.3" x2="-537.3" y1="0" y2="18.089" stroke="#197810" stroke-width="3" marker-end="url(#arrow3)"/><line x1="146.4" x2="146.4" y1="0" y2="121.584" stroke="#a42d0c" stroke-width="3" marker-end="url(#arrow4)"/><text fill="#000" stroke="none" font-family="Bitstream Vera Sans" font-size="48" text-anchor="middle" transform="translate(84, 18)">1</text><text fill="#000" stroke="none" font-family="Bitstream Vera Sans" font-size="48" text-anchor="middle" transform="translate(-508, 18)">2</text><text fill="#000" stroke="none" font-family="Bitstream Vera Sans" font-size="48" text-anchor="middle" transform="translate(181, 18)">3</text></g></svg>