<svg xmlns="http://www.w3.org/2000/svg" xmlns:cc="http://web.resource.org/cc/" xmlns:svg="http://www.w3.org/2000/svg" id="Layer_1" width="345.153" height="253.216" version="1.1" viewBox="0 0 345.153 253.216" style="overflow:visible;enable-background:new 0 0 345.153 253.216" xml:space="preserve"><metadata id="metadata202"/><path id="polygon3" d="M 55.882775,69.6802 L 55.075275,70.4877 L 54.267775,69.6802 L 54.267775,32.3452 L 55.882775,33.2477 L 55.882775,69.6802 z"/><path id="polygon5" d="M 55.882775,107.3952 L 55.075275,108.2027 L 54.267775,107.3952 L 54.267775,71.2952 L 55.075275,70.4877 L 55.882775,71.2952 L 55.882775,107.3952 z"/><path id="polygon7" d="M 55.882775,145.0627 L 55.075275,145.87115 L 54.267775,145.0627 L 54.267775,109.0102 L 55.075275,108.2027 L 55.882775,109.0102 L 55.882775,145.0627 z"/><g id="g9" transform="matrix(0.95,0,0,0.95,8.628825,6.3304)"><path id="path11" d="M 54.384,190.007 L 56.665,190.581 C 56.189,192.451 55.332,193.877 54.096,194.858 C 52.859,195.84 51.346,196.331 49.559,196.331 C 47.709,196.331 46.205,195.954 45.046,195.199 C 43.887,194.444 43.005,193.352 42.4,191.921 C 41.795,190.49 41.493,188.954 41.493,187.312 C 41.493,185.521 41.834,183.959 42.517,182.626 C 43.2,181.292 44.171,180.28 45.432,179.588 C 46.692,178.896 48.078,178.55 49.592,178.55 C 51.309,178.55 52.752,178.988 53.922,179.864 C 55.093,180.741 55.908,181.973 56.368,183.561 L 54.134,184.088 C 53.736,182.838 53.159,181.928 52.403,181.358 C 51.646,180.788 50.694,180.503 49.548,180.503 C 48.23,180.503 47.128,180.819 46.242,181.452 C 45.357,182.085 44.735,182.934 44.376,184.001 C 44.017,185.068 43.838,186.167 43.838,187.3 C 43.838,188.761 44.05,190.036 44.475,191.126 C 44.9,192.216 45.56,193.03 46.457,193.569 C 47.354,194.108 48.324,194.378 49.369,194.378 C 50.64,194.378 51.715,194.011 52.596,193.276 C 53.477,192.541 54.072,191.452 54.384,190.007 z"/><path id="path13" d="M 59.56,196.034 L 59.56,178.846 L 61.841,178.846 L 61.841,185.909 L 70.732,185.909 L 70.732,178.846 L 73.013,178.846 L 73.013,196.034 L 70.732,196.034 L 70.732,187.94 L 61.841,187.94 L 61.841,196.034 L 59.56,196.034 z"/></g><g id="g15" transform="matrix(0.95,0,0,0.95,8.628825,6.3304)"><path id="path17" d="M 82.923,199.019 L 82.923,200.535 L 74.392,200.535 C 74.38,200.154 74.442,199.788 74.578,199.435 C 74.796,198.855 75.145,198.285 75.626,197.723 C 76.106,197.161 76.796,196.512 77.696,195.775 C 79.092,194.623 80.038,193.712 80.536,193.042 C 81.034,192.372 81.283,191.738 81.283,191.139 C 81.283,190.513 81.058,189.985 80.608,189.555 C 80.158,189.125 79.571,188.91 78.848,188.91 C 78.082,188.91 77.471,189.139 77.012,189.598 C 76.553,190.056 76.321,190.692 76.315,191.503 L 74.69,191.331 C 74.801,190.116 75.221,189.189 75.95,188.552 C 76.678,187.915 77.656,187.597 78.884,187.597 C 80.123,187.597 81.104,187.94 81.826,188.626 C 82.548,189.312 82.909,190.161 82.909,191.176 C 82.909,191.693 82.803,192.199 82.592,192.697 C 82.381,193.195 82.029,193.719 81.539,194.271 C 81.048,194.822 80.235,195.579 79.099,196.54 C 78.148,197.337 77.537,197.878 77.266,198.161 C 76.995,198.446 76.77,198.731 76.593,199.018 L 82.923,199.018 L 82.923,199.019 z"/></g><g id="g19" transform="matrix(0.95,0,0,0.95,8.628825,6.3304)"><path id="path21" d="M 84.25,187.669 C 84.25,184.817 85.016,182.584 86.548,180.97 C 88.08,179.357 90.058,178.55 92.481,178.55 C 94.068,178.55 95.498,178.929 96.772,179.687 C 98.046,180.445 99.017,181.502 99.686,182.858 C 100.354,184.214 100.688,185.752 100.688,187.47 C 100.688,189.212 100.336,190.772 99.633,192.147 C 98.929,193.523 97.933,194.564 96.643,195.271 C 95.353,195.978 93.962,196.332 92.469,196.332 C 90.851,196.332 89.405,195.941 88.131,195.16 C 86.857,194.379 85.892,193.312 85.235,191.96 C 84.578,190.607 84.25,189.177 84.25,187.669 z M 86.594,187.698 C 86.594,189.768 87.151,191.399 88.265,192.591 C 89.379,193.783 90.777,194.378 92.457,194.378 C 94.169,194.378 95.578,193.776 96.685,192.573 C 97.791,191.37 98.344,189.663 98.344,187.452 C 98.344,186.054 98.108,184.833 97.635,183.79 C 97.162,182.747 96.47,181.938 95.559,181.364 C 94.648,180.79 93.626,180.503 92.493,180.503 C 90.883,180.503 89.497,181.056 88.336,182.161 C 87.175,183.266 86.594,185.112 86.594,187.698 z"/><path id="path23" d="M 103.699,196.034 L 103.699,178.846 L 105.98,178.846 L 105.98,185.909 L 114.871,185.909 L 114.871,178.846 L 117.152,178.846 L 117.152,196.034 L 114.871,196.034 L 114.871,187.94 L 105.98,187.94 L 105.98,196.034 L 103.699,196.034 z"/></g><path id="polygon25" d="M 55.882775,173.8002 L 54.267775,173.8002 L 54.267775,146.6777 L 55.075275,145.87115 L 55.882775,146.6777 L 55.882775,173.8002 z"/><g id="g27" transform="matrix(0.95,0,0,0.95,8.628825,6.3304)"><path id="path29" d="M 80.347,68.619 C 80.347,65.767 81.113,63.534 82.645,61.92 C 84.177,60.307 86.155,59.5 88.578,59.5 C 90.165,59.5 91.595,59.879 92.869,60.637 C 94.143,61.395 95.114,62.452 95.783,63.808 C 96.451,65.164 96.785,66.702 96.785,68.42 C 96.785,70.162 96.433,71.722 95.73,73.097 C 95.026,74.473 94.03,75.514 92.74,76.221 C 91.45,76.928 90.059,77.282 88.566,77.282 C 86.948,77.282 85.502,76.891 84.228,76.11 C 82.954,75.329 81.989,74.262 81.332,72.91 C 80.675,71.558 80.347,70.127 80.347,68.619 z M 82.69,68.648 C 82.69,70.718 83.247,72.349 84.361,73.541 C 85.475,74.733 86.873,75.328 88.553,75.328 C 90.265,75.328 91.674,74.726 92.781,73.523 C 93.887,72.32 94.44,70.613 94.44,68.402 C 94.44,67.004 94.204,65.783 93.731,64.74 C 93.258,63.697 92.566,62.888 91.655,62.314 C 90.744,61.74 89.722,61.453 88.589,61.453 C 86.979,61.453 85.593,62.006 84.432,63.111 C 83.271,64.216 82.69,66.063 82.69,68.648 z"/><path id="path31" d="M 99.796,76.984 L 99.796,59.797 L 102.077,59.797 L 102.077,66.86 L 110.968,66.86 L 110.968,59.797 L 113.249,59.797 L 113.249,76.985 L 110.968,76.985 L 110.968,68.891 L 102.077,68.891 L 102.077,76.985 L 99.796,76.985 L 99.796,76.984 z"/></g><path id="polygon33" d="M 82.767775,69.6802 L 82.767775,71.2952 L 55.882775,71.2952 L 55.075275,70.4877 L 55.882775,69.6802 L 82.767775,69.6802 z"/><g id="g35" transform="matrix(0.95,0,0,0.95,8.628825,6.3304)"><path id="path37" d="M 2.528,76.984 L 2.528,59.797 L 4.809,59.797 L 4.809,66.86 L 13.7,66.86 L 13.7,59.797 L 15.981,59.797 L 15.981,76.985 L 13.7,76.985 L 13.7,68.891 L 4.809,68.891 L 4.809,76.985 L 2.528,76.985 L 2.528,76.984 z"/></g><path id="polygon39" d="M 25.909325,71.2952 L 25.909325,69.6802 L 54.267775,69.6802 L 55.075275,70.4877 L 54.267775,71.2952 L 25.909325,71.2952 z"/><g id="g41" transform="matrix(0.95,0,0,0.95,8.628825,6.3304)"><path id="path43" d="M 80.347,108.319 C 80.347,105.467 81.113,103.234 82.645,101.62 C 84.177,100.007 86.155,99.2 88.578,99.2 C 90.165,99.2 91.595,99.579 92.869,100.337 C 94.143,101.095 95.114,102.152 95.783,103.508 C 96.451,104.864 96.785,106.402 96.785,108.12 C 96.785,109.862 96.433,111.422 95.73,112.797 C 95.026,114.173 94.03,115.214 92.74,115.921 C 91.45,116.628 90.059,116.982 88.566,116.982 C 86.948,116.982 85.502,116.591 84.228,115.81 C 82.954,115.029 81.989,113.962 81.332,112.61 C 80.675,111.258 80.347,109.827 80.347,108.319 z M 82.69,108.349 C 82.69,110.419 83.247,112.05 84.361,113.242 C 85.475,114.434 86.873,115.029 88.553,115.029 C 90.265,115.029 91.674,114.427 92.781,113.224 C 93.887,112.021 94.44,110.314 94.44,108.103 C 94.44,106.705 94.204,105.484 93.731,104.441 C 93.258,103.398 92.566,102.589 91.655,102.015 C 90.744,101.441 89.722,101.154 88.589,101.154 C 86.979,101.154 85.593,101.707 84.432,102.812 C 83.271,103.917 82.69,105.763 82.69,108.349 z"/><path id="path45" d="M 99.796,116.685 L 99.796,99.497 L 102.077,99.497 L 102.077,106.56 L 110.968,106.56 L 110.968,99.497 L 113.249,99.497 L 113.249,116.685 L 110.968,116.685 L 110.968,108.591 L 102.077,108.591 L 102.077,116.685 L 99.796,116.685 z"/></g><path id="polygon47" d="M 82.767775,107.3952 L 82.767775,109.0102 L 55.882775,109.0102 L 55.075275,108.2027 L 55.882775,107.3952 L 82.767775,107.3952 z"/><g id="g49" transform="matrix(0.95,0,0,0.95,8.628825,6.3304)"><path id="path51" d="M 2.528,116.685 L 2.528,99.497 L 4.809,99.497 L 4.809,106.56 L 13.7,106.56 L 13.7,99.497 L 15.981,99.497 L 15.981,116.685 L 13.7,116.685 L 13.7,108.591 L 4.809,108.591 L 4.809,116.685 L 2.528,116.685 z"/></g><path id="polygon53" d="M 25.909325,109.0102 L 25.909325,107.3952 L 54.267775,107.3952 L 55.075275,108.2027 L 54.267775,109.0102 L 25.909325,109.0102 z"/><g id="g55" transform="matrix(0.95,0,0,0.95,8.628825,6.3304)"><path id="path57" d="M 80.347,147.969 C 80.347,145.117 81.113,142.884 82.645,141.27 C 84.177,139.657 86.155,138.85 88.578,138.85 C 90.165,138.85 91.595,139.229 92.869,139.987 C 94.143,140.745 95.114,141.802 95.783,143.158 C 96.451,144.514 96.785,146.052 96.785,147.77 C 96.785,149.512 96.433,151.072 95.73,152.447 C 95.026,153.823 94.03,154.864 92.74,155.571 C 91.45,156.278 90.059,156.632 88.566,156.632 C 86.948,156.632 85.502,156.241 84.228,155.46 C 82.954,154.679 81.989,153.612 81.332,152.26 C 80.675,150.907 80.347,149.477 80.347,147.969 z M 82.69,147.998 C 82.69,150.068 83.247,151.699 84.361,152.891 C 85.475,154.083 86.873,154.678 88.553,154.678 C 90.265,154.678 91.674,154.076 92.781,152.873 C 93.887,151.67 94.44,149.963 94.44,147.752 C 94.44,146.354 94.204,145.133 93.731,144.09 C 93.258,143.047 92.566,142.238 91.655,141.664 C 90.744,141.09 89.722,140.803 88.589,140.803 C 86.979,140.803 85.593,141.356 84.432,142.461 C 83.271,143.566 82.69,145.412 82.69,147.998 z"/><path id="path59" d="M 99.796,156.334 L 99.796,139.146 L 102.077,139.146 L 102.077,146.209 L 110.968,146.209 L 110.968,139.146 L 113.249,139.146 L 113.249,156.334 L 110.968,156.334 L 110.968,148.24 L 102.077,148.24 L 102.077,156.334 L 99.796,156.334 z"/></g><path id="polygon61" d="M 82.767775,145.0627 L 82.767775,146.6777 L 55.882775,146.6777 L 55.075275,145.87115 L 55.882775,145.0627 L 82.767775,145.0627 z"/><g id="g63" transform="matrix(0.95,0,0,0.95,8.628825,6.3304)"><path id="path65" d="M 2.528,156.334 L 2.528,139.146 L 4.809,139.146 L 4.809,146.209 L 13.7,146.209 L 13.7,139.146 L 15.981,139.146 L 15.981,156.334 L 13.7,156.334 L 13.7,148.24 L 4.809,148.24 L 4.809,156.334 L 2.528,156.334 z"/></g><path id="polygon67" d="M 25.909325,146.6777 L 25.909325,145.0627 L 54.267775,145.0627 L 55.075275,145.87115 L 54.267775,146.6777 L 25.909325,146.6777 z"/><g id="g69" transform="matrix(0.95,0,0,0.95,8.628825,6.3304)"><path id="path71" d="M 6.347,9.119 C 6.347,6.267 7.113,4.034 8.645,2.42 C 10.177,0.807 12.154,0 14.577,0 C 16.164,0 17.594,0.379 18.868,1.137 C 20.142,1.895 21.113,2.952 21.782,4.308 C 22.45,5.664 22.784,7.202 22.784,8.92 C 22.784,10.662 22.432,12.222 21.729,13.597 C 21.025,14.973 20.029,16.014 18.739,16.721 C 17.449,17.428 16.058,17.782 14.565,17.782 C 12.947,17.782 11.501,17.391 10.227,16.61 C 8.953,15.829 7.988,14.762 7.331,13.41 C 6.675,12.058 6.347,10.627 6.347,9.119 z M 8.69,9.148 C 8.69,11.218 9.247,12.849 10.361,14.041 C 11.475,15.233 12.873,15.828 14.553,15.828 C 16.265,15.828 17.674,15.226 18.781,14.023 C 19.887,12.82 20.44,11.113 20.44,8.902 C 20.44,7.504 20.204,6.283 19.731,5.24 C 19.258,4.197 18.566,3.388 17.655,2.814 C 16.744,2.24 15.722,1.953 14.589,1.953 C 12.979,1.953 11.593,2.506 10.432,3.611 C 9.271,4.716 8.69,6.563 8.69,9.148 z"/></g><path id="polygon73" d="M 29.851825,22.4177 L 30.659325,21.0402 L 55.501825,35.3377 L 54.695275,36.7627 L 29.851825,22.4177 z"/><path id="polygon75" d="M 32.655275,17.5252 L 33.462775,16.1477 L 58.305275,30.4452 L 57.496825,31.8702 L 32.655275,17.5252 z"/><g id="g77" transform="matrix(0.95,0,0,0.95,8.628825,6.3304)"><path id="path79" d="M 76.578,17.484 L 76.578,0.297 L 78.859,0.297 L 78.859,7.36 L 87.75,7.36 L 87.75,0.297 L 90.031,0.297 L 90.031,17.485 L 87.75,17.485 L 87.75,9.391 L 78.859,9.391 L 78.859,17.485 L 76.578,17.485 L 76.578,17.484 z"/></g><path id="polygon81" d="M 77.637775,18.8552 L 78.445275,20.2327 L 55.882775,33.2477 L 54.267775,32.3452 L 77.637775,18.8552 z"/><path id="polygon83" d="M 272.48278,69.6802 L 271.67528,70.4877 L 270.86777,69.6802 L 270.86777,32.3452 L 272.48278,33.2477 L 272.48278,69.6802 z"/><path id="polygon85" d="M 272.48278,107.3952 L 271.67528,108.2027 L 270.86777,107.3952 L 270.86777,71.2952 L 271.67528,70.4877 L 272.48278,71.2952 L 272.48278,107.3952 z"/><path id="polygon87" d="M 272.48278,145.0627 L 271.67528,145.87115 L 270.86777,145.0627 L 270.86777,109.0102 L 271.67528,108.2027 L 272.48278,109.0102 L 272.48278,145.0627 z"/><g id="g89" transform="matrix(0.95,0,0,0.95,8.628825,6.3304)"><path id="path91" d="M 282.384,190.007 L 284.665,190.581 C 284.189,192.451 283.332,193.877 282.096,194.858 C 280.859,195.84 279.346,196.331 277.559,196.331 C 275.709,196.331 274.205,195.954 273.046,195.199 C 271.887,194.444 271.005,193.352 270.4,191.921 C 269.795,190.49 269.493,188.954 269.493,187.312 C 269.493,185.521 269.834,183.959 270.517,182.626 C 271.199,181.292 272.17,180.28 273.431,179.588 C 274.691,178.896 276.077,178.55 277.591,178.55 C 279.308,178.55 280.751,178.988 281.921,179.864 C 283.092,180.741 283.907,181.973 284.367,183.561 L 282.133,184.088 C 281.736,182.838 281.157,181.928 280.402,181.358 C 279.645,180.788 278.693,180.503 277.547,180.503 C 276.229,180.503 275.127,180.819 274.241,181.452 C 273.355,182.085 272.734,182.934 272.375,184.001 C 272.016,185.068 271.837,186.167 271.837,187.3 C 271.837,188.761 272.049,190.036 272.475,191.126 C 272.899,192.216 273.56,193.03 274.456,193.569 C 275.352,194.108 276.323,194.378 277.367,194.378 C 278.638,194.378 279.714,194.011 280.595,193.276 C 281.476,192.541 282.073,191.452 282.384,190.007 z"/><path id="path93" d="M 287.56,196.034 L 287.56,178.846 L 289.841,178.846 L 289.841,185.909 L 298.732,185.909 L 298.732,178.846 L 301.013,178.846 L 301.013,196.034 L 298.732,196.034 L 298.732,187.94 L 289.841,187.94 L 289.841,196.034 L 287.56,196.034 z"/></g><g id="g95" transform="matrix(0.95,0,0,0.95,8.628825,6.3304)"><path id="path97" d="M 310.922,199.019 L 310.922,200.535 L 302.391,200.535 C 302.379,200.154 302.442,199.788 302.577,199.435 C 302.796,198.855 303.145,198.285 303.626,197.723 C 304.107,197.161 304.796,196.512 305.696,195.775 C 307.091,194.623 308.038,193.712 308.536,193.042 C 309.034,192.372 309.282,191.738 309.282,191.139 C 309.282,190.513 309.057,189.985 308.607,189.555 C 308.157,189.125 307.571,188.91 306.846,188.91 C 306.08,188.91 305.469,189.139 305.01,189.598 C 304.551,190.056 304.319,190.692 304.313,191.503 L 302.688,191.331 C 302.799,190.116 303.219,189.189 303.948,188.552 C 304.677,187.915 305.655,187.597 306.882,187.597 C 308.121,187.597 309.103,187.94 309.824,188.626 C 310.546,189.312 310.907,190.161 310.907,191.176 C 310.907,191.693 310.802,192.199 310.591,192.697 C 310.379,193.195 310.028,193.719 309.538,194.271 C 309.046,194.822 308.233,195.579 307.097,196.54 C 306.147,197.337 305.536,197.878 305.265,198.161 C 304.994,198.446 304.769,198.731 304.591,199.018 L 310.922,199.018 L 310.922,199.019 z"/></g><g id="g99" transform="matrix(0.95,0,0,0.95,8.628825,6.3304)"><path id="path101" d="M 312.25,187.669 C 312.25,184.817 313.016,182.584 314.548,180.97 C 316.08,179.357 318.058,178.55 320.481,178.55 C 322.068,178.55 323.499,178.929 324.772,179.687 C 326.045,180.445 327.017,181.502 327.686,182.858 C 328.354,184.214 328.688,185.752 328.688,187.47 C 328.688,189.212 328.336,190.772 327.633,192.147 C 326.929,193.523 325.932,194.564 324.643,195.271 C 323.353,195.978 321.961,196.332 320.469,196.332 C 318.851,196.332 317.405,195.941 316.131,195.16 C 314.857,194.379 313.892,193.312 313.235,191.96 C 312.579,190.607 312.25,189.177 312.25,187.669 z M 314.594,187.698 C 314.594,189.768 315.151,191.399 316.265,192.591 C 317.379,193.783 318.777,194.378 320.457,194.378 C 322.169,194.378 323.578,193.776 324.685,192.573 C 325.792,191.37 326.344,189.663 326.344,187.452 C 326.344,186.054 326.108,184.833 325.635,183.79 C 325.161,182.747 324.469,181.938 323.559,181.364 C 322.649,180.79 321.626,180.503 320.493,180.503 C 318.883,180.503 317.497,181.056 316.336,182.161 C 315.175,183.266 314.594,185.112 314.594,187.698 z"/><path id="path103" d="M 331.7,196.034 L 331.7,178.846 L 333.981,178.846 L 333.981,185.909 L 342.872,185.909 L 342.872,178.846 L 345.153,178.846 L 345.153,196.034 L 342.872,196.034 L 342.872,187.94 L 333.981,187.94 L 333.981,196.034 L 331.7,196.034 z"/></g><path id="polygon105" d="M 272.48278,173.8002 L 270.86777,173.8002 L 270.86777,146.6777 L 271.67528,145.87115 L 272.48278,146.6777 L 272.48278,173.8002 z"/><g id="g107" transform="matrix(0.95,0,0,0.95,8.628825,6.3304)"><path id="path109" d="M 309.877,76.984 L 309.877,59.797 L 312.158,59.797 L 312.158,66.86 L 321.049,66.86 L 321.049,59.797 L 323.33,59.797 L 323.33,76.985 L 321.049,76.985 L 321.049,68.891 L 312.158,68.891 L 312.158,76.985 L 309.877,76.985 L 309.877,76.984 z"/></g><path id="polygon111" d="M 300.88778,69.6802 L 300.88778,71.2952 L 272.48278,71.2952 L 271.67528,70.4877 L 272.48278,69.6802 L 300.88778,69.6802 z"/><g id="g113" transform="matrix(0.95,0,0,0.95,8.628825,6.3304)"><path id="path115" d="M 212.528,76.984 L 212.528,59.797 L 214.809,59.797 L 214.809,66.86 L 223.7,66.86 L 223.7,59.797 L 225.981,59.797 L 225.981,76.985 L 223.7,76.985 L 223.7,68.891 L 214.809,68.891 L 214.809,76.985 L 212.528,76.985 L 212.528,76.984 z"/><path id="path117" d="M 229.079,68.619 C 229.079,65.767 229.845,63.534 231.377,61.92 C 232.909,60.307 234.887,59.5 237.31,59.5 C 238.897,59.5 240.328,59.879 241.601,60.637 C 242.874,61.395 243.846,62.452 244.515,63.808 C 245.183,65.164 245.517,66.702 245.517,68.42 C 245.517,70.162 245.165,71.722 244.462,73.097 C 243.758,74.473 242.761,75.514 241.472,76.221 C 240.182,76.928 238.79,77.282 237.298,77.282 C 235.68,77.282 234.234,76.891 232.96,76.11 C 231.686,75.329 230.721,74.262 230.064,72.91 C 229.407,71.558 229.079,70.127 229.079,68.619 z M 231.422,68.648 C 231.422,70.718 231.979,72.349 233.093,73.541 C 234.207,74.733 235.605,75.328 237.285,75.328 C 238.997,75.328 240.406,74.726 241.513,73.523 C 242.62,72.32 243.172,70.613 243.172,68.402 C 243.172,67.004 242.936,65.783 242.463,64.74 C 241.989,63.697 241.297,62.888 240.387,62.314 C 239.477,61.74 238.454,61.453 237.321,61.453 C 235.711,61.453 234.325,62.006 233.164,63.111 C 232.003,64.216 231.422,66.063 231.422,68.648 z"/></g><path id="polygon119" d="M 243.93433,71.2952 L 243.93433,69.6802 L 270.86777,69.6802 L 271.67528,70.4877 L 270.86777,71.2952 L 243.93433,71.2952 z"/><g id="g121" transform="matrix(0.95,0,0,0.95,8.628825,6.3304)"><path id="path123" d="M 309.877,116.685 L 309.877,99.497 L 312.158,99.497 L 312.158,106.56 L 321.049,106.56 L 321.049,99.497 L 323.33,99.497 L 323.33,116.685 L 321.049,116.685 L 321.049,108.591 L 312.158,108.591 L 312.158,116.685 L 309.877,116.685 z"/></g><path id="polygon125" d="M 300.88778,107.3952 L 300.88778,109.0102 L 272.48278,109.0102 L 271.67528,108.2027 L 272.48278,107.3952 L 300.88778,107.3952 z"/><g id="g127" transform="matrix(0.95,0,0,0.95,8.628825,6.3304)"><path id="path129" d="M 212.528,116.685 L 212.528,99.497 L 214.809,99.497 L 214.809,106.56 L 223.7,106.56 L 223.7,99.497 L 225.981,99.497 L 225.981,116.685 L 223.7,116.685 L 223.7,108.591 L 214.809,108.591 L 214.809,116.685 L 212.528,116.685 z"/><path id="path131" d="M 229.079,108.319 C 229.079,105.467 229.845,103.234 231.377,101.62 C 232.909,100.007 234.887,99.2 237.31,99.2 C 238.897,99.2 240.328,99.579 241.601,100.337 C 242.874,101.095 243.846,102.152 244.515,103.508 C 245.183,104.864 245.517,106.402 245.517,108.12 C 245.517,109.862 245.165,111.422 244.462,112.797 C 243.758,114.173 242.761,115.214 241.472,115.921 C 240.182,116.628 238.79,116.982 237.298,116.982 C 235.68,116.982 234.234,116.591 232.96,115.81 C 231.686,115.029 230.721,113.962 230.064,112.61 C 229.407,111.258 229.079,109.827 229.079,108.319 z M 231.422,108.349 C 231.422,110.419 231.979,112.05 233.093,113.242 C 234.207,114.434 235.605,115.029 237.285,115.029 C 238.997,115.029 240.406,114.427 241.513,113.224 C 242.62,112.021 243.172,110.314 243.172,108.103 C 243.172,106.705 242.936,105.484 242.463,104.441 C 241.989,103.398 241.297,102.589 240.387,102.015 C 239.477,101.441 238.454,101.154 237.321,101.154 C 235.711,101.154 234.325,101.707 233.164,102.812 C 232.003,103.917 231.422,105.763 231.422,108.349 z"/></g><path id="polygon133" d="M 243.93433,109.0102 L 243.93433,107.3952 L 270.86777,107.3952 L 271.67528,108.2027 L 270.86777,109.0102 L 243.93433,109.0102 z"/><g id="g135" transform="matrix(0.95,0,0,0.95,8.628825,6.3304)"><path id="path137" d="M 309.877,156.334 L 309.877,139.146 L 312.158,139.146 L 312.158,146.209 L 321.049,146.209 L 321.049,139.146 L 323.33,139.146 L 323.33,156.334 L 321.049,156.334 L 321.049,148.24 L 312.158,148.24 L 312.158,156.334 L 309.877,156.334 z"/></g><path id="polygon139" d="M 300.88778,145.0627 L 300.88778,146.6777 L 272.48278,146.6777 L 271.67528,145.87115 L 272.48278,145.0627 L 300.88778,145.0627 z"/><g id="g141" transform="matrix(0.95,0,0,0.95,8.628825,6.3304)"><path id="path143" d="M 212.528,156.334 L 212.528,139.146 L 214.809,139.146 L 214.809,146.209 L 223.7,146.209 L 223.7,139.146 L 225.981,139.146 L 225.981,156.334 L 223.7,156.334 L 223.7,148.24 L 214.809,148.24 L 214.809,156.334 L 212.528,156.334 z"/><path id="path145" d="M 229.079,147.969 C 229.079,145.117 229.845,142.884 231.377,141.27 C 232.909,139.657 234.887,138.85 237.31,138.85 C 238.897,138.85 240.328,139.229 241.601,139.987 C 242.874,140.745 243.846,141.802 244.515,143.158 C 245.183,144.514 245.517,146.052 245.517,147.77 C 245.517,149.512 245.165,151.072 244.462,152.447 C 243.758,153.823 242.761,154.864 241.472,155.571 C 240.182,156.278 238.79,156.632 237.298,156.632 C 235.68,156.632 234.234,156.241 232.96,155.46 C 231.686,154.679 230.721,153.612 230.064,152.26 C 229.407,150.907 229.079,149.477 229.079,147.969 z M 231.422,147.998 C 231.422,150.068 231.979,151.699 233.093,152.891 C 234.207,154.083 235.605,154.678 237.285,154.678 C 238.997,154.678 240.406,154.076 241.513,152.873 C 242.62,151.67 243.172,149.963 243.172,147.752 C 243.172,146.354 242.936,145.133 242.463,144.09 C 241.989,143.047 241.297,142.238 240.387,141.664 C 239.477,141.09 238.454,140.803 237.321,140.803 C 235.711,140.803 234.325,141.356 233.164,142.461 C 232.003,143.566 231.422,145.412 231.422,147.998 z"/></g><path id="polygon147" d="M 243.93433,146.6777 L 243.93433,145.0627 L 270.86777,145.0627 L 271.67528,145.87115 L 270.86777,146.6777 L 243.93433,146.6777 z"/><g id="g149" transform="matrix(0.95,0,0,0.95,8.628825,6.3304)"><path id="path151" d="M 234.346,9.119 C 234.346,6.267 235.112,4.034 236.645,2.42 C 238.176,0.807 240.155,0 242.577,0 C 244.165,0 245.595,0.379 246.868,1.137 C 248.142,1.895 249.114,2.952 249.782,4.308 C 250.45,5.664 250.784,7.202 250.784,8.92 C 250.784,10.662 250.432,12.222 249.729,13.597 C 249.026,14.973 248.029,16.014 246.739,16.721 C 245.45,17.428 244.058,17.782 242.565,17.782 C 240.948,17.782 239.501,17.391 238.227,16.61 C 236.953,15.829 235.989,14.762 235.331,13.41 C 234.674,12.058 234.346,10.627 234.346,9.119 z M 236.69,9.148 C 236.69,11.218 237.247,12.849 238.362,14.041 C 239.475,15.232 240.874,15.828 242.553,15.828 C 244.266,15.828 245.674,15.226 246.782,14.023 C 247.887,12.82 248.44,11.113 248.44,8.902 C 248.44,7.504 248.204,6.283 247.731,5.24 C 247.258,4.197 246.566,3.388 245.655,2.814 C 244.745,2.24 243.723,1.953 242.589,1.953 C 240.98,1.953 239.593,2.506 238.433,3.611 C 237.27,4.717 236.69,6.563 236.69,9.148 z"/></g><path id="polygon153" d="M 246.45183,22.4177 L 247.25933,21.0402 L 272.10182,35.3377 L 271.29528,36.7627 L 246.45183,22.4177 z"/><path id="polygon155" d="M 249.25528,17.5252 L 250.06277,16.1477 L 274.90528,30.4452 L 274.09683,31.8702 L 249.25528,17.5252 z"/><g id="g157" transform="matrix(0.95,0,0,0.95,8.628825,6.3304)"><path id="path159" d="M 304.579,17.484 L 304.579,0.297 L 306.86,0.297 L 306.86,7.36 L 315.751,7.36 L 315.751,0.297 L 318.032,0.297 L 318.032,17.485 L 315.751,17.485 L 315.751,9.391 L 306.86,9.391 L 306.86,17.485 L 304.579,17.485 L 304.579,17.484 z"/></g><path id="polygon161" d="M 294.23778,18.8552 L 295.04528,20.2327 L 272.48278,33.2477 L 270.86777,32.3452 L 294.23778,18.8552 z"/><g id="g163" transform="matrix(0.95,0,0,0.95,8.628825,6.3304)"><path id="path165" d="M 0,252.935 L 0,235.747 L 5.911,235.747 C 7.246,235.747 8.264,235.829 8.967,235.993 C 9.95,236.22 10.789,236.63 11.484,237.224 C 12.389,237.99 13.066,238.969 13.515,240.161 C 13.963,241.353 14.188,242.716 14.188,244.247 C 14.188,245.552 14.036,246.709 13.731,247.718 C 13.427,248.726 13.036,249.56 12.561,250.221 C 12.084,250.881 11.564,251.402 10.998,251.781 C 10.432,252.16 9.749,252.447 8.95,252.642 C 8.151,252.837 7.231,252.935 6.193,252.935 L 0,252.935 L 0,252.935 z M 2.281,250.903 L 5.94,250.903 C 7.07,250.903 7.956,250.798 8.599,250.587 C 9.242,250.376 9.754,250.079 10.136,249.696 C 10.674,249.157 11.093,248.432 11.393,247.522 C 11.693,246.612 11.843,245.508 11.843,244.211 C 11.843,242.414 11.549,241.033 10.96,240.068 C 10.372,239.103 9.657,238.457 8.815,238.129 C 8.207,237.895 7.229,237.777 5.881,237.777 L 2.281,237.777 L 2.281,250.903 z"/><path id="path167" d="M 16.223,247.778 L 16.223,245.653 L 22.723,245.653 L 22.723,247.778 L 16.223,247.778 z"/><path id="path169" d="M 25.355,252.935 L 25.355,235.747 L 32.969,235.747 C 34.497,235.747 35.658,235.901 36.454,236.211 C 37.249,236.52 37.885,237.065 38.36,237.848 C 38.835,238.631 39.073,239.494 39.073,240.441 C 39.073,241.662 38.679,242.69 37.892,243.527 C 37.105,244.364 35.889,244.896 34.243,245.123 C 34.845,245.412 35.301,245.696 35.614,245.977 C 36.278,246.586 36.905,247.348 37.494,248.262 L 40.463,252.936 L 37.623,252.936 L 35.354,249.364 C 34.691,248.333 34.145,247.545 33.716,246.998 C 33.287,246.452 32.903,246.069 32.564,245.851 C 32.225,245.633 31.88,245.48 31.529,245.394 C 31.271,245.339 30.85,245.312 30.266,245.312 L 27.635,245.312 L 27.635,252.937 L 25.355,252.937 L 25.355,252.935 z M 27.637,243.341 L 32.514,243.341 C 33.551,243.341 34.361,243.234 34.945,243.019 C 35.528,242.804 35.972,242.46 36.276,241.987 C 36.579,241.514 36.731,241 36.731,240.445 C 36.731,239.632 36.437,238.964 35.849,238.439 C 35.261,237.916 34.332,237.654 33.063,237.654 L 27.637,237.654 L 27.637,243.341 z"/><path id="path171" d="M 42.391,238.169 L 42.391,235.747 L 44.5,235.747 L 44.5,238.169 L 42.391,238.169 z M 42.391,252.935 L 42.391,240.482 L 44.5,240.482 L 44.5,252.935 L 42.391,252.935 z"/><path id="path173" d="M 49.66,252.935 L 47.707,252.935 L 47.707,235.747 L 49.816,235.747 L 49.816,241.876 C 50.707,240.759 51.844,240.2 53.228,240.2 C 53.994,240.2 54.719,240.354 55.403,240.663 C 56.087,240.972 56.65,241.406 57.091,241.965 C 57.533,242.525 57.879,243.198 58.129,243.987 C 58.379,244.777 58.504,245.622 58.504,246.52 C 58.504,248.654 57.976,250.303 56.921,251.468 C 55.866,252.633 54.599,253.215 53.121,253.215 C 51.651,253.215 50.498,252.602 49.661,251.375 L 49.661,252.935 L 49.66,252.935 z M 49.629,246.614 C 49.629,248.107 49.832,249.186 50.238,249.851 C 50.902,250.938 51.801,251.481 52.933,251.481 C 53.855,251.481 54.652,251.081 55.324,250.279 C 55.996,249.477 56.332,248.284 56.332,246.696 C 56.332,245.07 56.01,243.87 55.365,243.095 C 54.72,242.32 53.941,241.934 53.027,241.934 C 52.105,241.934 51.308,242.334 50.636,243.136 C 49.964,243.938 49.629,245.098 49.629,246.614 z"/><path id="path175" d="M 60.273,246.708 C 60.273,244.401 60.914,242.694 62.194,241.584 C 63.264,240.661 64.569,240.2 66.107,240.2 C 67.817,240.2 69.215,240.761 70.301,241.883 C 71.387,243.005 71.929,244.555 71.929,246.532 C 71.929,248.135 71.689,249.395 71.208,250.313 C 70.728,251.232 70.029,251.945 69.111,252.454 C 68.193,252.962 67.192,253.216 66.106,253.216 C 64.364,253.216 62.957,252.657 61.883,251.539 C 60.809,250.421 60.273,248.812 60.273,246.708 z M 62.445,246.71 C 62.445,248.305 62.792,249.498 63.486,250.292 C 64.18,251.085 65.054,251.481 66.107,251.481 C 67.152,251.481 68.022,251.083 68.716,250.286 C 69.41,249.488 69.757,248.273 69.757,246.64 C 69.757,245.101 69.408,243.934 68.71,243.14 C 68.012,242.347 67.144,241.951 66.106,241.951 C 65.053,241.951 64.179,242.346 63.485,243.135 C 62.792,243.924 62.445,245.116 62.445,246.71 z"/><path id="path177" d="M 73.559,249.216 L 75.653,248.888 C 75.77,249.726 76.096,250.367 76.631,250.813 C 77.166,251.259 77.914,251.482 78.874,251.482 C 79.842,251.482 80.561,251.285 81.029,250.89 C 81.497,250.494 81.732,250.031 81.732,249.499 C 81.732,249.022 81.526,248.646 81.114,248.373 C 80.826,248.185 80.109,247.946 78.962,247.657 C 77.418,247.266 76.345,246.928 75.747,246.643 C 75.147,246.358 74.693,245.962 74.384,245.458 C 74.075,244.954 73.92,244.396 73.92,243.787 C 73.92,243.232 74.047,242.719 74.301,242.245 C 74.555,241.772 74.901,241.38 75.338,241.066 C 75.666,240.824 76.113,240.619 76.68,240.451 C 77.247,240.283 77.854,240.199 78.502,240.199 C 79.479,240.199 80.336,240.34 81.074,240.622 C 81.812,240.904 82.357,241.286 82.709,241.768 C 83.061,242.25 83.303,242.893 83.436,243.7 L 81.373,243.981 C 81.279,243.338 81.008,242.836 80.56,242.475 C 80.112,242.115 79.478,241.934 78.659,241.934 C 77.692,241.934 77.001,242.094 76.588,242.414 C 76.174,242.735 75.968,243.11 75.968,243.541 C 75.968,243.814 76.054,244.061 76.226,244.279 C 76.397,244.507 76.666,244.694 77.033,244.842 C 77.243,244.92 77.864,245.101 78.894,245.382 C 80.383,245.78 81.423,246.107 82.013,246.361 C 82.603,246.615 83.066,246.985 83.402,247.469 C 83.738,247.953 83.906,248.556 83.906,249.275 C 83.906,249.978 83.701,250.641 83.29,251.262 C 82.879,251.884 82.287,252.365 81.513,252.704 C 80.739,253.043 79.864,253.214 78.886,253.214 C 77.268,253.214 76.034,252.878 75.186,252.205 C 74.334,251.534 73.793,250.538 73.559,249.216 z"/><path id="path179" d="M 94.91,248.919 L 97.098,249.2 C 96.754,250.472 96.118,251.46 95.188,252.162 C 94.258,252.864 93.071,253.216 91.627,253.216 C 89.807,253.216 88.364,252.655 87.298,251.533 C 86.233,250.411 85.699,248.839 85.699,246.813 C 85.699,244.718 86.238,243.092 87.315,241.935 C 88.393,240.778 89.791,240.2 91.509,240.2 C 93.172,240.2 94.531,240.766 95.586,241.9 C 96.641,243.034 97.168,244.629 97.168,246.684 C 97.168,246.809 97.164,246.997 97.156,247.247 L 87.871,247.247 C 87.949,248.616 88.336,249.663 89.03,250.391 C 89.725,251.119 90.592,251.482 91.631,251.482 C 92.403,251.482 93.064,251.279 93.61,250.871 C 94.156,250.463 94.59,249.813 94.91,248.919 z M 87.996,245.513 L 94.934,245.513 C 94.84,244.465 94.575,243.679 94.139,243.155 C 93.468,242.342 92.598,241.935 91.53,241.935 C 90.563,241.935 89.75,242.259 89.091,242.909 C 88.432,243.559 88.066,244.426 87.996,245.513 z"/></g><g id="g181" transform="matrix(0.95,0,0,0.95,8.628825,6.3304)"><path id="path183" d="M 229.907,252.935 L 229.907,235.747 L 232.188,235.747 L 232.188,250.903 L 240.626,250.903 L 240.626,252.934 L 229.907,252.934 L 229.907,252.935 z"/><path id="path185" d="M 242.239,247.778 L 242.239,245.653 L 248.739,245.653 L 248.739,247.778 L 242.239,247.778 z"/><path id="path187" d="M 251.372,252.935 L 251.372,235.747 L 258.985,235.747 C 260.513,235.747 261.674,235.901 262.47,236.211 C 263.266,236.52 263.901,237.065 264.376,237.848 C 264.851,238.631 265.09,239.494 265.09,240.441 C 265.09,241.662 264.695,242.69 263.908,243.527 C 263.121,244.364 261.904,244.896 260.26,245.123 C 260.862,245.412 261.318,245.696 261.63,245.977 C 262.293,246.586 262.92,247.348 263.51,248.262 L 266.479,252.936 L 263.639,252.936 L 261.371,249.364 C 260.707,248.333 260.162,247.545 259.732,246.998 C 259.304,246.452 258.919,246.069 258.581,245.851 C 258.243,245.633 257.896,245.48 257.547,245.394 C 257.289,245.339 256.867,245.312 256.283,245.312 L 253.652,245.312 L 253.652,252.937 L 251.372,252.937 L 251.372,252.935 z M 253.653,243.341 L 258.53,243.341 C 259.566,243.341 260.376,243.234 260.96,243.019 C 261.544,242.804 261.987,242.46 262.292,241.987 C 262.595,241.514 262.747,241 262.747,240.445 C 262.747,239.632 262.452,238.964 261.864,238.439 C 261.276,237.916 260.348,237.654 259.079,237.654 L 253.653,237.654 L 253.653,243.341 L 253.653,243.341 z"/><path id="path189" d="M 268.407,238.169 L 268.407,235.747 L 270.516,235.747 L 270.516,238.169 L 268.407,238.169 z M 268.407,252.935 L 268.407,240.482 L 270.516,240.482 L 270.516,252.935 L 268.407,252.935 z"/><path id="path191" d="M 275.676,252.935 L 273.723,252.935 L 273.723,235.747 L 275.832,235.747 L 275.832,241.876 C 276.723,240.759 277.859,240.2 279.243,240.2 C 280.01,240.2 280.734,240.354 281.418,240.663 C 282.102,240.972 282.664,241.406 283.106,241.965 C 283.548,242.525 283.895,243.198 284.145,243.987 C 284.395,244.777 284.52,245.622 284.52,246.52 C 284.52,248.654 283.992,250.303 282.936,251.468 C 281.88,252.633 280.614,253.215 279.135,253.215 C 277.666,253.215 276.512,252.602 275.676,251.375 L 275.676,252.935 z M 275.645,246.614 C 275.645,248.107 275.848,249.186 276.254,249.851 C 276.918,250.938 277.817,251.481 278.949,251.481 C 279.871,251.481 280.668,251.081 281.34,250.279 C 282.012,249.477 282.348,248.284 282.348,246.696 C 282.348,245.07 282.026,243.87 281.381,243.095 C 280.736,242.32 279.957,241.934 279.043,241.934 C 278.121,241.934 277.324,242.334 276.652,243.136 C 275.98,243.938 275.645,245.098 275.645,246.614 z"/><path id="path193" d="M 286.29,246.708 C 286.29,244.401 286.931,242.694 288.21,241.584 C 289.28,240.661 290.585,240.2 292.124,240.2 C 293.833,240.2 295.231,240.761 296.317,241.883 C 297.403,243.005 297.946,244.555 297.946,246.532 C 297.946,248.135 297.706,249.395 297.225,250.313 C 296.745,251.232 296.045,251.945 295.127,252.454 C 294.209,252.962 293.208,253.216 292.123,253.216 C 290.381,253.216 288.973,252.657 287.899,251.539 C 286.825,250.421 286.29,248.812 286.29,246.708 z M 288.461,246.71 C 288.461,248.305 288.807,249.498 289.502,250.292 C 290.195,251.085 291.069,251.481 292.123,251.481 C 293.168,251.481 294.037,251.083 294.732,250.286 C 295.425,249.488 295.773,248.273 295.773,246.64 C 295.773,245.101 295.423,243.934 294.726,243.14 C 294.027,242.347 293.16,241.951 292.122,241.951 C 291.068,241.951 290.194,242.346 289.501,243.135 C 288.807,243.924 288.461,245.116 288.461,246.71 z"/><path id="path195" d="M 299.575,249.216 L 301.669,248.888 C 301.786,249.726 302.112,250.367 302.646,250.813 C 303.181,251.259 303.929,251.482 304.89,251.482 C 305.857,251.482 306.576,251.285 307.044,250.89 C 307.513,250.494 307.747,250.031 307.747,249.499 C 307.747,249.022 307.54,248.646 307.128,248.373 C 306.841,248.185 306.124,247.946 304.977,247.657 C 303.433,247.266 302.361,246.928 301.761,246.643 C 301.161,246.358 300.708,245.962 300.398,245.458 C 300.089,244.954 299.935,244.396 299.935,243.787 C 299.935,243.232 300.062,242.719 300.316,242.245 C 300.57,241.772 300.916,241.38 301.353,241.066 C 301.681,240.824 302.128,240.619 302.695,240.451 C 303.262,240.283 303.869,240.199 304.517,240.199 C 305.494,240.199 306.351,240.34 307.089,240.622 C 307.827,240.904 308.372,241.286 308.724,241.768 C 309.076,242.25 309.318,242.893 309.451,243.7 L 307.388,243.981 C 307.294,243.338 307.023,242.836 306.574,242.475 C 306.127,242.115 305.492,241.934 304.674,241.934 C 303.706,241.934 303.016,242.094 302.602,242.414 C 302.189,242.735 301.983,243.11 301.983,243.541 C 301.983,243.814 302.069,244.061 302.241,244.279 C 302.411,244.507 302.68,244.694 303.048,244.842 C 303.259,244.92 303.878,245.101 304.909,245.382 C 306.397,245.78 307.438,246.107 308.028,246.361 C 308.618,246.615 309.081,246.985 309.417,247.469 C 309.753,247.953 309.921,248.556 309.921,249.275 C 309.921,249.978 309.716,250.641 309.305,251.262 C 308.894,251.884 308.302,252.365 307.529,252.704 C 306.755,253.044 305.879,253.214 304.902,253.214 C 303.283,253.214 302.05,252.878 301.201,252.205 C 300.35,251.534 299.809,250.538 299.575,249.216 z"/><path id="path197" d="M 320.926,248.919 L 323.114,249.2 C 322.77,250.472 322.134,251.46 321.204,252.162 C 320.274,252.864 319.087,253.216 317.643,253.216 C 315.823,253.216 314.379,252.655 313.313,251.533 C 312.249,250.411 311.715,248.839 311.715,246.813 C 311.715,244.718 312.254,243.092 313.33,241.935 C 314.408,240.778 315.807,240.2 317.525,240.2 C 319.187,240.2 320.546,240.766 321.601,241.9 C 322.656,243.034 323.183,244.629 323.183,246.684 C 323.183,246.809 323.179,246.997 323.171,247.247 L 313.886,247.247 C 313.964,248.616 314.351,249.663 315.044,250.391 C 315.739,251.119 316.607,251.482 317.646,251.482 C 318.417,251.482 319.078,251.279 319.625,250.871 C 320.172,250.463 320.606,249.813 320.926,248.919 z M 314.012,245.513 L 320.95,245.513 C 320.856,244.465 320.591,243.679 320.154,243.155 C 319.483,242.342 318.614,241.935 317.546,241.935 C 316.578,241.935 315.765,242.259 315.107,242.909 C 314.446,243.558 314.083,244.426 314.012,245.513 z"/></g></svg>