<svg xmlns="http://www.w3.org/2000/svg" xmlns:xlink="http://www.w3.org/1999/xlink" id="Ebene_1" width="192.04" height="68.05" x="0" y="0" enable-background="new 0 0 192.04 68.05" version="1.1" viewBox="0 0 192.04 68.05" xml:space="preserve"><polygon points="97.376 34.05 96.176 34.05 96.176 32.85 123.977 5 124.477 6.9"/><polygon points="68.376 63.05 67.876 61.15 94.976 34.05 96.176 34.05 96.176 35.25"/><polygon points="67.876 6.95 68.376 5.05 96.176 32.85 96.176 34.05 94.976 34.05"/><polygon points="124.477 61.1 123.977 63 96.176 35.25 96.176 34.05 97.376 34.05"/><path d="M4.999,61.304v-17.18h2.273v7.055h8.93v-7.055h2.273v17.18h-2.273v-8.098h-8.93v8.098H4.999z"/><path d="M21.569,52.937c0-2.852,0.766-5.084,2.297-6.697s3.508-2.42,5.93-2.42c1.586,0,3.016,0.379,4.289,1.137	s2.244,1.814,2.912,3.17s1.002,2.893,1.002,4.611c0,1.742-0.352,3.301-1.055,4.676s-1.699,2.416-2.988,3.123	s-2.68,1.061-4.172,1.061c-1.617,0-3.063-0.391-4.336-1.172s-2.238-1.848-2.895-3.199S21.569,54.445,21.569,52.937z M23.913,52.972	c0,2.07,0.557,3.701,1.67,4.893s2.51,1.787,4.189,1.787c1.711,0,3.119-0.602,4.225-1.805s1.658-2.91,1.658-5.121	c0-1.398-0.236-2.619-0.709-3.662s-1.164-1.852-2.074-2.426s-1.932-0.861-3.064-0.861c-1.609,0-2.994,0.553-4.154,1.658	S23.913,50.386,23.913,52.972z"/><polygon points="39.977 55.45 40.426 53.8 67.876 61.15 68.376 63.05"/><path d="M154.135,17.333c0-2.852,0.766-5.084,2.297-6.697s3.508-2.42,5.93-2.42c1.586,0,3.016,0.379,4.289,1.137	s2.244,1.814,2.912,3.17s1.002,2.893,1.002,4.611c0,1.742-0.352,3.301-1.055,4.676s-1.699,2.416-2.988,3.123	s-2.68,1.061-4.172,1.061c-1.617,0-3.063-0.391-4.336-1.172s-2.238-1.848-2.895-3.199S154.135,18.84,154.135,17.333z M156.479,17.368c0,2.07,0.557,3.701,1.67,4.893s2.51,1.787,4.189,1.787c1.711,0,3.119-0.602,4.225-1.805s1.658-2.91,1.658-5.121	c0-1.398-0.236-2.619-0.709-3.662s-1.164-1.852-2.074-2.426s-1.932-0.861-3.064-0.861c-1.609,0-2.994,0.553-4.154,1.658	S156.479,14.782,156.479,17.368z"/><path d="M173.565,25.7V8.52h2.273v7.055h8.93V8.52h2.273V25.7h-2.273v-8.098h-8.93V25.7H173.565z"/><polygon points="152.577 12.7 152.126 14.3 124.477 6.9 123.977 5"/><path d="M154.135,52.879c0-2.852,0.766-5.084,2.297-6.697s3.508-2.42,5.93-2.42c1.586,0,3.016,0.379,4.289,1.137	s2.244,1.814,2.912,3.17s1.002,2.893,1.002,4.611c0,1.742-0.352,3.301-1.055,4.676s-1.699,2.416-2.988,3.123	s-2.68,1.061-4.172,1.061c-1.617,0-3.063-0.391-4.336-1.172s-2.238-1.848-2.895-3.199S154.135,54.387,154.135,52.879z M156.479,52.915c0,2.07,0.557,3.701,1.67,4.893s2.51,1.787,4.189,1.787c1.711,0,3.119-0.602,4.225-1.805s1.658-2.91,1.658-5.121	c0-1.398-0.236-2.619-0.709-3.662s-1.164-1.852-2.074-2.426s-1.932-0.861-3.064-0.861c-1.609,0-2.994,0.553-4.154,1.658	S156.479,50.329,156.479,52.915z"/><path d="M173.565,61.247v-17.18h2.273v7.055h8.93v-7.055h2.273v17.18h-2.273v-8.098h-8.93v8.098H173.565z"/><polygon points="151.676 53.85 152.126 55.45 123.977 63 124.477 61.1"/><path d="M4.999,25.7V8.52h2.273v7.055h8.93V8.52h2.273V25.7h-2.273v-8.098h-8.93V25.7H4.999z"/><path d="M21.569,17.333c0-2.852,0.766-5.084,2.297-6.697s3.508-2.42,5.93-2.42c1.586,0,3.016,0.379,4.289,1.137	s2.244,1.814,2.912,3.17s1.002,2.893,1.002,4.611c0,1.742-0.352,3.301-1.055,4.676s-1.699,2.416-2.988,3.123	s-2.68,1.061-4.172,1.061c-1.617,0-3.063-0.391-4.336-1.172s-2.238-1.848-2.895-3.199S21.569,18.84,21.569,17.333z M23.913,17.368	c0,2.07,0.557,3.701,1.67,4.893s2.51,1.787,4.189,1.787c1.711,0,3.119-0.602,4.225-1.805s1.658-2.91,1.658-5.121	c0-1.398-0.236-2.619-0.709-3.662s-1.164-1.852-2.074-2.426s-1.932-0.861-3.064-0.861c-1.609,0-2.994,0.553-4.154,1.658	S23.913,14.782,23.913,17.368z"/><polygon points="40.027 14.4 39.577 12.75 68.376 5.05 67.876 6.95"/></svg>