<svg xmlns="http://www.w3.org/2000/svg" xmlns:xlink="http://www.w3.org/1999/xlink" width="289.815" height="175.992" enable-background="new 0 0 289.815 175.992" overflow="visible" viewBox="0 0 289.815 175.992" xml:space="preserve"><metadata><variableSets xmlns="http://ns.adobe.com/Variables/1.0/"><variableSet locked="none" varSetName="binding1"><variables/><v:sampleDataSets xmlns="http://ns.adobe.com/GenericCustomNamespace/1.0/" xmlns:v="http://ns.adobe.com/Variables/1.0/"/></variableSet></variableSets><sfw xmlns="http://ns.adobe.com/SaveForWeb/1.0/"><slices/><sliceSourceBounds width="16383" height="16383" x="-7895" y="-7772" bottomLeftOrigin="true"/></sfw></metadata><g id="Layer_1"><path fill="#FFF" d="M155.137,175.5h-54.632V0.5h54.632V175.5z"/><path fill="#E4AC7C" stroke="#E4B27C" d="M100.505,175.492H0.5V0.5h100.005V175.492z"/><path fill="#C4EAAC" d="M289.815,175.5H154.436V0.486h135.379V175.5z"/><path fill="#849E74" d="M20.255,49.303"/><path fill="none" stroke="#000" d="M20.729,48.974h23.228"/><path fill="none" stroke="#000" d="M47.875,18.284v24.067"/><path fill="none" stroke="#000" d="M52.913,18.284v24.067"/><path fill="none" stroke="#000" d="M57.763,48.974h24.44"/><path fill="none" stroke="#000" d="M96.663,48.881h24.441"/><path fill="none" stroke="#000" d="M127.82,56.53v23.508"/><path fill="none" stroke="#000" d="M121.197,87.874H96.569"/><path fill="none" stroke="#000" d="M82.11,87.874H57.67"/><path fill="none" stroke="#000" d="M44.237,87.967H21.569"/><path fill="none" stroke="#000" d="M48.048,95.43v24.067"/><path fill="none" stroke="#000" d="M52.992,95.43v24.067"/><path fill="none" stroke="#000" d="M127.806,95.43v24.067"/><path fill="none" stroke="#000" d="M134.443,126.96h25"/><path fill="none" stroke="#000" d="M173.435,126.867h26.026"/><path fill="none" stroke="#000" d="M202.9,95.43v24.067"/><path fill="none" stroke="#000" d="M208.03,119.498V95.43"/><path fill="none" stroke="#000" d="M205.899,133.68v24.533"/><path fill="none" stroke="#000" d="M211.501,126.775h25.933"/><path fill="none" stroke="#000" d="M250.591,126.681h26.865"/><g><path fill="#AC8A5C" d="M27.179,163.498c0,1.051-0.3,1.44-1.44,1.44h-1.11c-1.23,0-1.44-0.48-1.44-1.44v-0.6 c-1.41,2.07-3.66,2.37-4.68,2.37c-2.64,0-4.32-2.22-4.32-4.32c0-4.41,7.86-4.47,8.91-4.47v-1.05c0-1.771-0.48-2.761-2.1-2.761 c-1.86,0-3.36,0.66-4.65,2.011c-0.09,0.09-0.18,0.18-0.33,0.18c-0.21,0-0.36-0.15-0.39-0.33c-0.03-0.24-0.21-1.979-0.21-2.19 c0-0.329,0.15-0.42,0.78-0.689c2.01-0.84,3.51-0.96,4.92-0.96c1.5,0,6.06,0.03,6.06,4.77V163.498z M23.099,157.708 c-0.84,0.03-5.01,0.24-5.01,3.181c0,1.14,0.81,2.22,2.07,2.22c0.09,0,2.94,0,2.94-2.79V157.708z"/><path fill="#AC8A5C" d="M34.918,169.318c0,1.05-0.3,1.44-1.44,1.44h-1.2c-1.11,0-1.44-0.36-1.44-1.44v-16.68 c0-1.11,0.36-1.44,1.44-1.44h1.11c1.02,0,1.44,0.3,1.44,1.41c1.08-1.021,2.67-1.74,4.44-1.74c5.43,0,5.43,5.67,5.43,7.141 c0,1.5,0,7.26-6.36,7.26c-0.42,0-2.07,0-3.42-1.5V169.318z M34.918,161.398c0,0.54,0,0.69,0.72,1.2c0.36,0.27,0.9,0.51,1.59,0.51 c3.39,0,3.39-3.84,3.39-5.04c0-1.32-0.03-4.86-3.09-4.86c-1.29,0-2.28,0.69-2.61,0.99V161.398z"/><path fill="#AC8A5C" d="M54.991,165.268c-4.71,0-7.29-2.19-7.29-7.08c0-4.83,2.31-7.5,7.32-7.5 c4.89,0,7.29,2.58,7.29,7.5S59.701,165.268,54.991,165.268z M58.231,157.828c0-2.34,0-4.979-3.24-4.979 c-3.21,0-3.21,2.67-3.21,4.979c0,2.4,0,5.101,3.24,5.101C58.231,162.928,58.231,160.198,58.231,157.828z"/><path fill="#AC8A5C" d="M69.091,163.498c0,1.051-0.3,1.44-1.44,1.44h-1.11c-1.11,0-1.44-0.36-1.44-1.44v-17.939 c0-1.11,0.36-1.44,1.44-1.44h1.11c1.23,0,1.44,0.48,1.44,1.44V163.498z"/><path fill="#AC8A5C" d="M84.857,163.498c0,1.051-0.3,1.44-1.44,1.44h-1.11c-1.23,0-1.44-0.48-1.44-1.44v-0.6 c-1.41,2.07-3.66,2.37-4.68,2.37c-2.64,0-4.32-2.22-4.32-4.32c0-4.41,7.86-4.47,8.91-4.47v-1.05c0-1.771-0.48-2.761-2.1-2.761 c-1.86,0-3.36,0.66-4.65,2.011c-0.09,0.09-0.18,0.18-0.33,0.18c-0.21,0-0.36-0.15-0.39-0.33c-0.03-0.24-0.21-1.979-0.21-2.19 c0-0.329,0.15-0.42,0.78-0.689c2.01-0.84,3.51-0.96,4.92-0.96c1.5,0,6.06,0.03,6.06,4.77V163.498z M80.777,157.708 c-0.84,0.03-5.01,0.24-5.01,3.181c0,1.14,0.81,2.22,2.07,2.22c0.09,0,2.94,0,2.94-2.79V157.708z"/><path fill="#AC8A5C" d="M91.578,163.498c0,1.051-0.3,1.44-1.44,1.44h-1.11c-1.11,0-1.44-0.36-1.44-1.44v-11.04 c0-1.109,0.36-1.439,1.44-1.439h0.96c1.23,0,1.44,0.479,1.44,1.439v1.95h0.03c1.41-3.24,3.6-3.54,4.44-3.54 c0.54,0,0.54,0.21,0.54,0.811v1.409c0,0.78-0.06,0.78-0.6,0.811c-1.89,0.12-4.26,1.29-4.26,4.14V163.498z"/></g><g><path fill="#849E74" d="M192.383,46.879c0,1.05-0.349,1.44-1.673,1.44h-1.395c-1.29,0-1.674-0.36-1.674-1.44 V30.2c0-1.11,0.419-1.44,1.674-1.44h1.29c1.185,0,1.673,0.3,1.673,1.41c1.255-1.02,3.103-1.74,5.159-1.74 c6.31,0,6.31,5.67,6.31,7.14c0,1.5,0,7.26-7.391,7.26c-0.487,0-2.405,0-3.974-1.5V46.879z M192.383,38.959 c0,0.54,0,0.69,0.837,1.2c0.418,0.27,1.046,0.51,1.848,0.51c3.938,0,3.938-3.84,3.938-5.04c0-1.32-0.035-4.86-3.591-4.86 c-1.498,0-2.648,0.69-3.032,0.99V38.959z"/><path fill="#849E74" d="M215.707,42.83c-5.473,0-8.471-2.19-8.471-7.08c0-4.83,2.685-7.5,8.506-7.5 c5.682,0,8.471,2.58,8.471,7.5S221.18,42.83,215.707,42.83z M219.472,35.39c0-2.34,0-4.98-3.766-4.98 c-3.729,0-3.729,2.67-3.729,4.98c0,2.4,0,5.1,3.765,5.1C219.472,40.49,219.472,37.76,219.472,35.39z"/><path fill="#849E74" d="M232.09,41.06c0,1.05-0.349,1.44-1.673,1.44h-1.29c-1.29,0-1.674-0.36-1.674-1.44V23.12 c0-1.11,0.419-1.44,1.674-1.44h1.29c1.429,0,1.673,0.48,1.673,1.44V41.06z"/><path fill="#849E74" d="M250.411,41.06c0,1.05-0.349,1.44-1.674,1.44h-1.289c-1.43,0-1.674-0.48-1.674-1.44 v-0.6c-1.638,2.07-4.252,2.37-5.438,2.37c-3.067,0-5.02-2.22-5.02-4.32c0-4.41,9.133-4.47,10.353-4.47v-1.05 c0-1.77-0.558-2.76-2.439-2.76c-2.161,0-3.904,0.66-5.403,2.01c-0.104,0.09-0.209,0.18-0.384,0.18 c-0.244,0-0.418-0.15-0.453-0.33c-0.035-0.24-0.244-1.979-0.244-2.19c0-0.33,0.175-0.42,0.906-0.69 c2.336-0.84,4.079-0.96,5.717-0.96c1.743,0,7.042,0.03,7.042,4.77V41.06z M245.669,35.27c-0.976,0.03-5.821,0.24-5.821,3.18 c0,1.14,0.941,2.22,2.405,2.22c0.104,0,3.416,0,3.416-2.79V35.27z"/><path fill="#849E74" d="M258.219,41.06c0,1.05-0.349,1.44-1.674,1.44h-1.289c-1.29,0-1.674-0.36-1.674-1.44 V30.02c0-1.11,0.419-1.44,1.674-1.44h1.115c1.43,0,1.673,0.48,1.673,1.44v1.95h0.035c1.639-3.24,4.184-3.54,5.159-3.54 c0.628,0,0.628,0.21,0.628,0.81v1.41c0,0.78-0.07,0.78-0.697,0.81c-2.196,0.12-4.95,1.29-4.95,4.14V41.06z"/></g><g><path d="M14.342,54.042h-1.246l-2.632-4.438H8.252v4.438H7.048v-9.716h3.374c2.002,0,3.528,1.218,3.528,2.604 c0,1.134-0.938,2.128-2.38,2.548L14.342,54.042z M10.268,48.75c1.652,0,2.548-0.826,2.548-1.82c0-0.994-0.924-1.82-2.548-1.82 H8.252v3.64H10.268z"/></g><g><path d="M50.285,16.485c-2.282,0-4.354-2.17-4.354-5.138c0-2.912,1.988-5.194,4.368-5.194 c2.324,0,4.354,2.254,4.354,5.194S52.623,16.485,50.285,16.485z M53.406,11.137c0-2.506-1.498-4.088-3.122-4.088 c-1.568,0-3.108,1.526-3.108,4.088c0,2.688,1.47,4.438,3.122,4.438C51.895,15.575,53.406,13.867,53.406,11.137z"/></g><g><path d="M53.541,45.643c-0.588-0.378-1.26-0.728-2.366-0.728c-1.946,0-3.318,1.988-3.318,4.27 c0,2.142,1.246,4.27,3.36,4.27c0.966,0,1.596-0.14,2.604-0.854l0.084,0.966c-0.994,0.602-1.54,0.784-2.702,0.784 c-2.73,0-4.592-2.464-4.592-5.166c0-2.744,1.89-5.166,4.578-5.166c0.924,0,1.68,0.154,2.562,0.49L53.541,45.643z"/></g><g><path d="M89.728,54.175c-2.282,0-4.354-2.17-4.354-5.138c0-2.912,1.988-5.194,4.368-5.194 c2.324,0,4.354,2.254,4.354,5.194S92.065,54.175,89.728,54.175z M92.849,48.827c0-2.506-1.498-4.088-3.122-4.088 c-1.568,0-3.108,1.526-3.108,4.088c0,2.688,1.47,4.438,3.122,4.438C91.337,53.265,92.849,51.557,92.849,48.827z"/></g><g><path d="M17.861,46.508h1.125v0.522h-2.961v-0.522h1.125v-4.68c-0.45,0.189-0.882,0.207-1.179,0.216v-0.522 c0.432-0.018,1.179-0.045,1.71-0.594h0.18V46.508z"/></g><g><path d="M130.144,46.168c-0.588-0.378-1.26-0.728-2.366-0.728c-1.946,0-3.318,1.988-3.318,4.27 c0,2.142,1.246,4.27,3.36,4.27c0.966,0,1.596-0.14,2.604-0.854l0.084,0.966c-0.994,0.602-1.54,0.784-2.702,0.784 c-2.73,0-4.592-2.464-4.592-5.166c0-2.744,1.89-5.166,4.578-5.166c0.924,0,1.68,0.154,2.562,0.49L130.144,46.168z"/><path d="M139.802,54.568h-1.246v-4.62h-4.774v4.62h-1.246v-9.716h1.246v4.242h4.774v-4.242h1.246V54.568z"/></g><g><path d="M143.116,56.269c0.531-0.54,1.044-1.053,1.044-1.818c0-0.702-0.459-1.377-1.305-1.377 c-0.819,0-1.071,0.702-1.251,1.395c-0.09-0.126-0.18-0.243-0.198-0.261c-0.018-0.027-0.063-0.081-0.171-0.234 c0.216-0.774,0.72-1.476,1.746-1.476c1.188,0,1.917,0.9,1.917,1.935c0,0.765-0.486,1.242-0.891,1.647 c-0.171,0.162-0.63,0.54-0.801,0.702c-0.279,0.261-0.963,0.936-1.251,1.188h0.981c0.108,0,0.216-0.009,0.324-0.009h1.638V58.6 h-3.591v-0.576c0.252-0.243,0.864-0.864,1.116-1.116L143.116,56.269z"/></g><g><path d="M130.67,84.205c-0.588-0.378-1.26-0.728-2.366-0.728c-1.946,0-3.318,1.988-3.318,4.27 c0,2.142,1.246,4.27,3.36,4.27c0.966,0,1.596-0.14,2.604-0.854l0.084,0.967c-0.994,0.602-1.54,0.783-2.702,0.783 c-2.73,0-4.592-2.464-4.592-5.166c0-2.744,1.89-5.166,4.578-5.166c0.924,0,1.68,0.154,2.562,0.49L130.67,84.205z"/><path d="M140.328,92.605h-1.246v-4.62h-4.774v4.62h-1.246v-9.716h1.246v4.242h4.774v-4.242h1.246V92.605z"/></g><g><path d="M117.71,130.645h-1.246v-4.62h-4.774v4.62h-1.246v-9.716h1.246v4.242h4.774v-4.242h1.246V130.645z"/><path d="M130.646,122.245c-0.588-0.378-1.26-0.728-2.366-0.728c-1.946,0-3.318,1.988-3.318,4.27 c0,2.143,1.246,4.271,3.36,4.271c0.966,0,1.596-0.14,2.604-0.854l0.084,0.967c-0.994,0.602-1.54,0.783-2.702,0.783 c-2.73,0-4.592-2.464-4.592-5.166c0-2.743,1.89-5.166,4.578-5.166c0.924,0,1.68,0.154,2.562,0.49L130.646,122.245z"/></g><g><path d="M121.028,131.47c0.531-0.54,1.044-1.053,1.044-1.818c0-0.701-0.459-1.377-1.305-1.377 c-0.819,0-1.071,0.702-1.251,1.396c-0.09-0.126-0.18-0.243-0.198-0.261c-0.018-0.027-0.063-0.081-0.171-0.234 c0.216-0.774,0.72-1.477,1.746-1.477c1.188,0,1.917,0.9,1.917,1.936c0,0.765-0.486,1.242-0.891,1.646 c-0.171,0.162-0.63,0.54-0.801,0.702c-0.279,0.262-0.963,0.937-1.251,1.188h0.981c0.108,0,0.216-0.009,0.324-0.009h1.638v0.639 h-3.591v-0.576c0.252-0.243,0.864-0.864,1.116-1.116L121.028,131.47z"/></g><g><path d="M13.37,92.724h-1.246l-2.632-4.438H7.279v4.438H6.076v-9.716h3.374c2.002,0,3.528,1.218,3.528,2.604 c0,1.134-0.938,2.128-2.38,2.548L13.37,92.724z M9.295,87.432c1.652,0,2.548-0.826,2.548-1.82c0-0.994-0.924-1.82-2.548-1.82 H7.279v3.64H9.295z"/></g><g><path d="M53.712,84.851c-0.588-0.378-1.26-0.728-2.366-0.728c-1.946,0-3.318,1.988-3.318,4.27 c0,2.142,1.246,4.27,3.36,4.27c0.966,0,1.596-0.14,2.604-0.854l0.084,0.967c-0.994,0.602-1.54,0.783-2.702,0.783 c-2.73,0-4.592-2.464-4.592-5.166c0-2.744,1.89-5.166,4.578-5.166c0.924,0,1.68,0.154,2.562,0.49L53.712,84.851z"/></g><g><path d="M50.6,131.422c-2.282,0-4.354-2.17-4.354-5.138c0-2.912,1.988-5.194,4.368-5.194 c2.324,0,4.354,2.255,4.354,5.194C54.967,129.225,52.938,131.422,50.6,131.422z M53.721,126.075c0-2.506-1.498-4.088-3.122-4.088 c-1.568,0-3.108,1.526-3.108,4.088c0,2.688,1.47,4.438,3.122,4.438C52.209,130.513,53.721,128.805,53.721,126.075z"/></g><g><path d="M89.166,93.207c-2.282,0-4.354-2.17-4.354-5.138c0-2.912,1.988-5.194,4.368-5.194 c2.324,0,4.354,2.254,4.354,5.194C93.534,91.009,91.504,93.207,89.166,93.207z M92.288,87.859c0-2.506-1.498-4.088-3.122-4.088 c-1.568,0-3.108,1.526-3.108,4.088c0,2.688,1.47,4.438,3.122,4.438C90.776,92.297,92.288,90.589,92.288,87.859z"/></g><g><path d="M244.274,132.538c-2.281,0-4.354-2.17-4.354-5.138c0-2.912,1.988-5.194,4.368-5.194 c2.323,0,4.354,2.255,4.354,5.194C248.642,130.34,246.612,132.538,244.274,132.538z M247.396,127.19 c0-2.506-1.498-4.088-3.122-4.088c-1.567,0-3.107,1.526-3.107,4.088c0,2.688,1.47,4.438,3.122,4.438 C245.884,131.628,247.396,129.92,247.396,127.19z"/></g><g><path d="M166.265,132.011c-2.281,0-4.354-2.17-4.354-5.138c0-2.912,1.988-5.194,4.368-5.194 c2.323,0,4.354,2.255,4.354,5.194C170.633,129.814,168.603,132.011,166.265,132.011z M169.387,126.664 c0-2.506-1.498-4.088-3.122-4.088c-1.567,0-3.107,1.526-3.107,4.088c0,2.688,1.47,4.438,3.122,4.438 C167.875,131.102,169.387,129.394,169.387,126.664z"/></g><g><path d="M205.357,169.35c-2.281,0-4.354-2.17-4.354-5.138c0-2.912,1.988-5.194,4.368-5.194 c2.323,0,4.354,2.255,4.354,5.194C209.725,167.153,207.695,169.35,205.357,169.35z M208.479,164.002 c0-2.506-1.498-4.088-3.122-4.088c-1.567,0-3.107,1.526-3.107,4.088c0,2.688,1.47,4.438,3.122,4.438 C206.967,168.441,208.479,166.733,208.479,164.002z"/></g><g><path d="M205.181,92.743c-2.281,0-4.354-2.17-4.354-5.138c0-2.912,1.988-5.194,4.368-5.194 c2.323,0,4.354,2.254,4.354,5.194C209.549,90.545,207.519,92.743,205.181,92.743z M208.303,87.395 c0-2.506-1.498-4.088-3.122-4.088c-1.567,0-3.107,1.526-3.107,4.088c0,2.688,1.47,4.438,3.122,4.438 C206.792,91.833,208.303,90.125,208.303,87.395z"/></g><g><path d="M203.573,127.125v4.046h-1.246v-9.716h3.486c1.932,0,3.318,1.33,3.318,2.828 c0,1.567-1.484,2.842-3.221,2.842H203.573z M203.531,122.239v4.073h1.974c1.61,0,2.492-0.924,2.492-2.029 c0-1.19-0.952-2.044-2.492-2.044H203.531z"/></g><g><path d="M210.212,159.201v-0.812h2.724v0.812H210.212z"/></g><g><path d="M286.338,132.222h-1.452l-3.099-4.284l-3.016,4.284h-1.34l3.755-5.124l-3.56-4.592h1.452l2.708,3.654 l2.624-3.654h1.341l-3.364,4.592L286.338,132.222z"/></g><g><path d="M16.841,83.169c0.39-0.54,0.766-1.053,0.766-1.818c0-0.702-0.337-1.377-0.958-1.377 c-0.601,0-0.786,0.702-0.918,1.395c-0.066-0.126-0.132-0.243-0.146-0.261c-0.013-0.027-0.046-0.081-0.125-0.234 c0.159-0.774,0.529-1.476,1.282-1.476c0.872,0,1.407,0.9,1.407,1.935c0,0.765-0.357,1.242-0.654,1.647 c-0.125,0.162-0.462,0.54-0.588,0.702c-0.205,0.261-0.707,0.936-0.918,1.188h0.72c0.079,0,0.159-0.009,0.238-0.009h1.203V85.5 h-2.636v-0.576c0.185-0.243,0.634-0.864,0.819-1.116L16.841,83.169z"/></g></g></svg>