<svg xmlns="http://www.w3.org/2000/svg" viewBox="0 0 1052.3622 744.0945"><path fill="#87aade" d="M984.6903 457.2915c0 178.6365-198.316 323.45-442.9513 323.45-244.6352 0-442.9513-144.8135-442.9513-323.45 0-178.6366 198.316-323.4501 442.9513-323.4501s442.9513 144.8135 442.9513 323.45z" transform="matrix(1.10072 0 0 1.022167 -69.3755 -93.6922)"/><path fill="#3771c8" d="M683.5472 293.973c0 70.8387-94.1645 128.2648-210.3222 128.2648s-210.3222-57.426-210.3222-128.2647c0-70.8386 94.1644-128.2647 210.3222-128.2647 116.1577 0 210.3222 57.426 210.3222 128.2647z" transform="matrix(.526515 0 0 .751553 633.8808 167.1401)"/><path fill="#bcd35f" d="M683.5472 293.973c0 70.8387-94.1645 128.2648-210.3222 128.2648s-210.3222-57.426-210.3222-128.2647c0-70.8386 94.1644-128.2647 210.3222-128.2647 116.1577 0 210.3222 57.426 210.3222 128.2647z" transform="matrix(1.662879 0 0 1.832298 -375.5065 -154.5533)"/><path d="M-295.3125 353.659q-3.8437-1.0312-7.1875-3.125-3.1875-1.9686-5.375-4.8437-2.1875-2.8437-3.25-6.4062-1.125-3.5625-1.125-7.7813 0-3.1562.5625-5.625.5625-2.4375 1.8438-4.7812 1.2812-2.2813 3.1875-4.1876 1.9062-1.9061 4.7187-3.8125-3.3125 1.4689-5.7812 3.4688-2.4375 1.9688-4.2188 4.5313-1.6562 2.4375-2.5937 5.5-.875 2.9374-.875 6.25 0 3.4375 1 6.6874.9375 3.0625 2.8437 5.8438 1.8125 2.6562 4.4688 4.5 2.5312 1.7812 5.4375 2.6875 2.8125.9063 6.3437 1.0938zm16.0938-42 3.6562 11.1563h-1.0625q-1.5937-3.0624-3.1875-5.0937-1.7188-2.125-3.5-3.4688-1.8438-1.3437-3.9062-1.9375-2.125-.625-4.6563-.625-3.6875 0-6.875 1.4063-3.2187 1.4063-5.5312 3.9687-2.375 2.625-3.625 6.0625-1.3126 3.5-1.3125 7.5313 0 6.0312 2.4062 11.0937 2.375 5 6.625 7.875 4.1875 2.875 9.3125 2.875 3.5 0 6.625-1.375 3.0625-1.375 5.4688-3.9687 2.4061-2.5938 4.1875-6.5313h1.2812q-2.625 6.9375-7.9062 10.5-5.2814 3.5938-12.9063 3.5938-8.9063 0-14.75-4.8126-2.5625-2.1874-4.1875-4.75-1.75-2.6874-2.625-5.8437a23.66 23.66 0 0 1-.9062-6.5q0-6.1875 3.1562-11.375t8.6563-8.125q5.4687-2.9374 12.1875-2.9375 2.7187 0 7.4062.8125 3.0937.5938 4.625.5938.7186 0 1.3438-.125z" font-family="Academy Engraved LET" font-size="64" font-weight="400" style="line-height:100%;-inkscape-font-specification:&quot;Academy Engraved LET&quot;;text-align:start" transform="translate(1095.0177 -155.5282)"/><path d="m-311.3437 351.3466-1.2188.9062h9.125l-1.2187-.9062q-1.0626-.7813-1.3438-1.25-.3125-.4376-.3125-1.4063v-.6875q-.0313-.0937-.0312-.3437v-30.2813q0-.2499.0312-.375v-.6562q0-.875.2813-1.3438.1875-.4062 1.1562-1.1562l.2188-.1563 1.75-1.3437-1.125.0624q-2.8438.1876-5.125.1875-1.4063 0-3.8438-.0937l1.6563 1.1875q1.0312.7188 1.3437 1.1875.3125.5001.3125 1.4688.0312.3438.0312 1.0312v30.2813q0 .6874-.0312 1.0312 0 .9688-.2812 1.4063-.25.4062-1.375 1.25zm39.6562 2.5312q-1.625-.875-2.6875-1.6562-1.1564-.8438-2.4062-2.0938-1.5627-1.6563-2.5313-3.0312-1.0313-1.375-3.0625-4.7813-2.125-3.5-3.5937-5.4062-1.6563-2.0938-3.25-3.3126a15.04 15.04 0 0 0-3.5938-2.0625q1.2812 1.2501 2.0625 2.5313.5312.875 1.5625 2.9063.1875.3125.4219.75t.2656.5312q.0937.1875.625 1.3125 3.3437 6.5313 7.1875 9.9063 3.8438 3.4062 9 4.4062zm-19.7187-23.5312q2.1562-.4687 3.8437-1.3438 1.75-.9062 2.8438-2 1.1561-1.1562 1.75-2.5625.5937-1.4062.5937-3 0-3.4062-2.4375-5.9375t-6.4375-3.25q1.8437 1 3 2.3125 1.25 1.4063 1.8438 3.0313.625 1.7812.625 3.6874 0 3.4377-1.3438 5.5625-1.3439 2.1875-4.2812 3.5zm-12.1875-10.9688v10.8438H-298q4.8436 0 6.9688-1.0938 1.9374-.9999 3-3.0312 1.0624-2 1.0625-4.6876 0-2.7498-1.25-4.9375-1.2501-2.1561-3.5313-3.4062-2.3126-1.1874-5.1875-1.1875-4.3125 0-5.8125 2.6875-.8438 1.5313-.8437 4.8125zm5.4375 12.0938h-5.4375v12.8437q0 2.625.3437 4 .3438 1.3437 1.25 2.3438 1.5937 1.6875 4.9375 2.2187v.9688h-19.875v-.9688q3.3438-.5625 4.9063-2.5937 1.1874-1.5313 1.1875-5.9688v-23.5937q0-2.9062-.3125-4.125-.3438-1.3437-1.1563-2.1876-1.5-1.656-4.625-2.25v-.9687q.2813.0313.7813.0312l2.75.1563q1.6562.0939 3.8437.0937 3.4687 0 6.2813-.2813l4.375-.375q2.0624-.1874 4.0625-.1875 3.6875 0 6.5937.75 2.8749.75 4.9063 2.1563 2 1.4062 3.0937 3.4375 1.0937 2.0937 1.0938 4.5937 0 4.2188-2.875 6.5625-2.8752 2.3438-8.5625 2.7813 3.4999 1.3437 5.9375 3.75 2.4375 2.4062 5.75 7.8125 3.8748 6.1562 5.9687 8.4375 2.2187 2.4062 4.8438 3.375v.875q-3.3126-.0312-5.7813-.625-2.4375-.5625-4.7812-2-3-1.8438-5.5938-4.9688-2.6563-3.1563-4.5937-7.1562l-1.6563-3.4687q-1.125-2.3437-2.0937-3.5625-.8751-1.0937-2.1563-1.5-1.2188-.4062-3.4062-.4062z" font-family="Academy Engraved LET" font-size="64" font-weight="400" style="line-height:100%;-inkscape-font-specification:&quot;Academy Engraved LET&quot;;text-align:start" transform="translate(839.7107 -112.999)"/><path fill="#ffe680" d="M683.5472 293.973c0 70.8387-94.1645 128.2648-210.3222 128.2648s-210.3222-57.426-210.3222-128.2647c0-70.8386 94.1644-128.2647 210.3222-128.2647 116.1577 0 210.3222 57.426 210.3222 128.2647z" transform="matrix(1.07197 0 0 1.385093 -197.0513 -15.1203)"/><path fill="#89a02c" d="M683.5472 293.973c0 70.8387-94.1645 128.2648-210.3222 128.2648s-210.3222-57.426-210.3222-128.2647c0-70.8386 94.1644-128.2647 210.3222-128.2647 116.1577 0 210.3222 57.426 210.3222 128.2647z" transform="matrix(.46591 0 0 .751553 428.3386 163.1568)"/><path d="M-273.75 358.4716q-3.3126 3.9687-7.3125 3.9687-4.7813 0-13.8125-5.2812-3.7188-2.1563-4.75-2.5938-1.3438-.5625-2.4062-.5625-1.0313 0-1.7813.3125-.7813.3125-1.9062 1.1563 1.2187-.4688 1.9687-.4688 1.0625 0 2.375.625 1.2813.625 4.4063 2.8125 2.5311 1.7187 4.5312 3 1.4687.9375 3.25 1.875 3.6875 1.9062 6.6875 1.9063 2.75 0 5.0313-1.75 2.25-1.75 3.7187-5zm-12.7187-6.6563q11.4374-6.625 11.4375-19.25-.0001-4.125-1.25-7.7812-1.2189-3.5938-3.5938-6.5938-2.3437-2.875-5.4687-4.5937 6.8437 6 6.8437 18.6874 0 3.7188-.6562 7.0938-.6876 3.4062-1.875 5.9375-.7188 1.5-1.2813 2.2813-.7813 1.0937-1.6875 2-.9376 1-2.4687 2.2187zm-17.1563-.0312q-2.75-2.0625-4.5937-4.875-1.875-2.8437-2.75-6.4688-.9376-3.7187-.9375-8.0937 0-6.5311 2-11.0938 2-4.5936 6.2812-7.8125-3.7188 2.0001-6.3437 4.875-2.6876 2.9063-4.0313 6.5-1.4062 3.5939-1.4062 7.7188 0 4.0625 1.4062 7.6875 1.3437 3.625 4.0313 6.5937 2.625 2.9375 6.3437 4.9688zm-5.0937-19.4375q0 4.5937 1.0312 8.5 1 3.875 2.9688 6.6875 1.9686 2.8437 4.625 4.25 2.6874 1.4688 5.9687 1.4687 5.375 0 9.3438-4.25 2.406-2.5937 3.7812-6.9062 1.3125-4.2813 1.3125-9.7813 0-4.7499-1-8.6875-1.0313-3.875-2.9062-6.5937-1.9689-2.7812-4.5625-4.1875-2.6876-1.4687-6.0313-1.4688-3.2813.0002-5.9687 1.4688-2.6876 1.5-4.5938 4.25-1.875 2.7188-2.9375 6.6875-1.0313 3.9375-1.0312 8.5625zm5.6562 20.7812q-4.125-1.7812-7.1562-4.9062-3.0313-3.0937-4.6875-7.2188-1.6875-4.0937-1.6875-8.4375 0-4.5 1.75-8.6562 1.7187-4.0937 4.875-7.25 3.0624-3.0624 7.1875-4.8125 4.0937-1.6875 8.5937-1.6875 6.0624 0 11.2188 3 5.1249 3.0626 8.1562 8.1875 3 5.1563 3 11.2187 0 4.5-1.6875 8.5938-1.75 4.125-4.8437 7.2187t-7.2188 4.8438q-4.0938 1.7187-8.6875 1.7187-1.4063 0-2.375-.125l.1875.0937q.7812.4063 1.8438.9375l2.625 1.4063q4.1874 2.2188 6.5 3 2.3437.8438 4.375.8438 1.9374 0 3.4062-.6876 1.5-.6562 2.7813-2.125 1.3124-1.5 2.4375-3.7187l.875.3125q-1.1565 4.4063-2.75 7.25-1.5939 2.7813-3.75 4.1563-2.219 1.375-5 1.375-2.6564 0-5.3125-1.3438-2.75-1.3437-6.8125-4.5937L-298 359.5028q-2.0937-1.75-3.6875-2.6875-1.4063-.75-2.5625-.75-1.3438 0-2.4687.75-1.125.7812-2.5625 2.625l-.75-.5625q3.4687-5.4375 6.9687-5.75z" font-family="Academy Engraved LET" font-size="64" font-weight="400" style="text-align:start;line-height:100%;-inkscape-font-specification:Academy Engraved LET" transform="translate(604.3254 -74.3172)"/><text xml:space="preserve" x="256.0607" y="628.9883" stroke-width="0.861" font-family="sans-serif" font-size="34.4388" font-weight="400" letter-spacing="0" style="line-height:1.25" transform="translate(-16.4052 -304.9853)" word-spacing="0"><tspan x="256.0607" y="628.9883">Rational</tspan></text><path d="m-311.3437 351.3466-1.2188.9062h9.125l-1.2187-.9062q-1.0626-.7813-1.3438-1.25-.3125-.4376-.3125-1.4063v-.6875q-.0313-.0937-.0312-.3437v-30.2813q0-.2499.0312-.375v-.6562q0-.9687.3125-1.4063.2812-.4687 1.3438-1.25l1.7812-1.3125h-10.25l1.7813 1.3125q1.0936.8126 1.375 1.2188.2812.4063.2812 1.4374.0312.3439.0312 1.0313v30.2813q0 .6874-.0312 1.0312 0 .9687-.2812 1.4063-.25.4062-1.375 1.25zm13.875 2.5h-19.4688v-.9688q3.3438-.5625 4.9063-2.5937 1.1874-1.5313 1.1875-5.9688v-23.5937q0-2.9062-.3125-4.125-.3438-1.3437-1.1563-2.1876-1.5312-1.7185-4.625-2.25v-.9687h19.4688v.9688q-3.375.5625-4.9375 2.5937-.625.8126-.9063 2.1563t-.2812 3.8124v23.5938q0 2.5625.3437 4 .3438 1.4062 1.1563 2.3125 1.5312 1.7187 4.625 2.25z" font-family="Academy Engraved LET" font-size="64" font-weight="400" style="line-height:100%;-inkscape-font-specification:&quot;Academy Engraved LET&quot;;text-align:start" transform="translate(956.0216 29.8264)"/><path fill="#f95" d="M683.5472 293.973c0 70.8387-94.1645 128.2648-210.3222 128.2648s-210.3222-57.426-210.3222-128.2647c0-70.8386 94.1644-128.2647 210.3222-128.2647 116.1577 0 210.3222 57.426 210.3222 128.2647z" transform="matrix(.863636 0 0 .813665 -99.2594 207.0382)"/><path fill="#f55" d="M683.5472 293.973c0 70.8387-94.1645 128.2648-210.3222 128.2648s-210.3222-57.426-210.3222-128.2647c0-70.8386 94.1644-128.2647 210.3222-128.2647 116.1577 0 210.3222 57.426 210.3222 128.2647z" transform="matrix(.439394 0 0 .559006 174.7968 281.901)"/><path d="M-313.2812 352.2528h6.375q-1.2501-1.3438-1.875-2.4062-.6563-.9688-1.2188-2.5-.6563 1.6875-1.2812 2.625-.6875 1.0625-2 2.2812zm40.5312-39.875h-6q1.5.75 2.2813 1.5313.7811.7812 1.5312 2.2812.5625-1.5.9375-2.1562.4374-.75 1.25-1.6563zm-36.4375 3.9375 34.25 36.5625v-4.9062L-304.25 316.659q-2.0313-2.125-3.2187-4.2812h-6.375q2.2187 1.3125 4.6562 3.9375zm35.4375 6.0938v32.4374h-.9375L-309 318.3153l.0312 20.9688q0 3.5937.4063 5.625.4374 2.0937 1.3125 3.6562 2.0937 3.4062 6.9062 4.3125v.9688h-16.3437v-.9688q4.2187-1.5625 5.625-5.9062.4999-1.375.6875-3.1876.1874-1.75.1875-4.375v-22.375q-2.5-2.531-3.75-3.4375-1.2813-.906-3-1.4375v-.9687h12.125q.75 1.3125 1.625 2.375.1562.0938.6875.75.1875.2188.3593.4219t.2656.3593q.2188.219.3594.375.1405.1564.1719.2188l26.4063 28.2188v-21.5q-.0001-3.25-.8125-5.4063-.8126-2.0625-2.5938-3.25t-4.6875-1.5937v-.9688h14.9063v.9688q-3.3439.9063-4.4688 3-1.1563 2.0937-1.1562 7.25z" font-family="Academy Engraved LET" font-size="64" font-weight="400" style="line-height:100%;-inkscape-font-specification:&quot;Academy Engraved LET&quot;;text-align:start" transform="translate(675.2603 91.7638)"/><path d="M-307 312.409h-4l-1.0625 4.4688q1.2188-1.75 2.2813-2.6875 1.0625-.9687 2.7812-1.7812zm13.9063 39.8438h6.5l1-5.0937q-1.4376 2.0312-3.2188 3.2812-1.6875 1.1875-4.2812 1.8125zm-22.7188 0h3.75l25.2813-39.9062h-3.75zm33.75-12.3437-2.2812 13.9374h-33.2813v-1l25.6563-40.4687h-5.2813q-6.375 0-10 2.4063-3.6563 2.4375-6.0937 8.25H-314.5l2.4375-11.8438h28.75v.9688l-25.5312 40.0937h7.4062q4.5625 0 8.0313-1.0625 3.4999-1.0938 5.4062-3 2.9063-2.9062 4.6875-8.2812z" font-family="Academy Engraved LET" font-size="64" font-weight="400" style="line-height:100%;-inkscape-font-specification:&quot;Academy Engraved LET&quot;;text-align:start" transform="translate(515.372 92.577)"/><text xml:space="preserve" x="143.7247" y="796.7441" stroke-width="0.861" font-family="sans-serif" font-size="34.4388" font-weight="400" letter-spacing="0" style="line-height:1.25" transform="translate(0 -308.2677)" word-spacing="0"><tspan x="143.7247" y="796.7441">Integers</tspan></text><text xml:space="preserve" x="319.081" y="797.8035" stroke-width="0.861" font-family="sans-serif" font-size="34.4388" font-weight="400" letter-spacing="0" style="line-height:1.25" transform="translate(0 -308.2677)" word-spacing="0"><tspan x="319.081" y="797.8035">Natural</tspan></text><text xml:space="preserve" x="509.9816" y="594.4598" stroke-width="0.861" font-family="sans-serif" font-size="34.4388" font-weight="400" letter-spacing="0" style="line-height:1.25" transform="translate(0 -308.2677)" word-spacing="0"><tspan x="509.9816" y="594.4598">Real</tspan></text><text xml:space="preserve" x="570.8771" y="740.2551" stroke-width="0.861" font-family="sans-serif" font-size="34.4388" font-weight="400" letter-spacing="0" style="line-height:1.25" transform="translate(0 -308.2677)" word-spacing="0"><tspan x="570.8771" y="740.2551">Irrational</tspan></text><text xml:space="preserve" x="724.1242" y="550.8826" stroke-width="0.861" font-family="sans-serif" font-size="34.4388" font-weight="400" letter-spacing="0" style="line-height:1.25" transform="translate(0 -308.2677)" word-spacing="0"><tspan x="724.1242" y="550.8826">Complex</tspan></text><text xml:space="preserve" x="794.9595" y="705.8451" stroke-width="0.861" font-family="sans-serif" font-size="34.4388" font-weight="400" letter-spacing="0" style="line-height:1.25" transform="translate(0 -308.2677)" word-spacing="0"><tspan x="794.9595" y="705.8451">Imaginary</tspan></text></svg>