<svg xmlns="http://www.w3.org/2000/svg" viewBox="0 0 788.1 374.49"><defs><linearGradient id="svg__github_work__b" x1="0.66" x2="198.14" y1="141.28" y2="141.28" gradientTransform="matrix(2.15778 0 0 .32914 85.855 191.63)" gradientUnits="userSpaceOnUse"><stop stop-color="#020005"/><stop offset="0.01" stop-color="#020006"/><stop offset="0.03" stop-color="#030008"/><stop offset="0.04" stop-color="#04000a"/><stop offset="0.05" stop-color="#06000d"/><stop offset="0.07" stop-color="#080110"/><stop offset="0.08" stop-color="#0c0117"/><stop offset="0.1" stop-color="#11021f"/><stop offset="0.11" stop-color="#17032a"/><stop offset="0.12" stop-color="#1f053a"/><stop offset="0.14" stop-color="#25084b"/><stop offset="0.15" stop-color="#290a5c"/><stop offset="0.16" stop-color="#2b0e6f"/><stop offset="0.18" stop-color="#291380"/><stop offset="0.19" stop-color="#1f237b"/><stop offset="0.2" stop-color="#132e74"/><stop offset="0.22" stop-color="#09376c"/><stop offset="0.23" stop-color="#0a3e66"/><stop offset="0.24" stop-color="#0c4667"/><stop offset="0.26" stop-color="#0e4f6a"/><stop offset="0.27" stop-color="#10596c"/><stop offset="0.28" stop-color="#11636d"/><stop offset="0.3" stop-color="#146e6f"/><stop offset="0.31" stop-color="#177970"/><stop offset="0.32" stop-color="#178672"/><stop offset="0.34" stop-color="#1a9574"/><stop offset="0.35" stop-color="#1da375"/><stop offset="0.36" stop-color="#1db273"/><stop offset="0.38" stop-color="#20c070"/><stop offset="0.39" stop-color="#22cb6b"/><stop offset="0.41" stop-color="#21d662"/><stop offset="0.42" stop-color="#23e054"/><stop offset="0.43" stop-color="#36e842"/><stop offset="0.45" stop-color="#50ed28"/><stop offset="0.46" stop-color="#73eb22"/><stop offset="0.47" stop-color="#8fe722"/><stop offset="0.49" stop-color="#a5e221"/><stop offset="0.5" stop-color="#b9dc22"/><stop offset="0.51" stop-color="#cbd621"/><stop offset="0.53" stop-color="#dcce20"/><stop offset="0.54" stop-color="#ecc420"/><stop offset="0.55" stop-color="#f2b735"/><stop offset="0.57" stop-color="#f5ab42"/><stop offset="0.58" stop-color="#f69f49"/><stop offset="0.59" stop-color="#f7944b"/><stop offset="0.61" stop-color="#f98848"/><stop offset="0.62" stop-color="#fa7b42"/><stop offset="0.64" stop-color="#fb6c39"/><stop offset="0.65" stop-color="#fd5b2e"/><stop offset="0.66" stop-color="#fc471f"/><stop offset="0.68" stop-color="#f7300f"/><stop offset="0.69" stop-color="#ea220d"/><stop offset="0.7" stop-color="#d42215"/><stop offset="0.72" stop-color="#bf2318"/><stop offset="0.73" stop-color="#a92309"/><stop offset="0.74" stop-color="#981f07"/><stop offset="0.76" stop-color="#871b06"/><stop offset="0.77" stop-color="#771805"/><stop offset="0.78" stop-color="#671504"/><stop offset="0.8" stop-color="#591303"/><stop offset="0.81" stop-color="#4d1103"/><stop offset="0.82" stop-color="#420e02"/><stop offset="0.84" stop-color="#370c01"/><stop offset="0.85" stop-color="#2e0a01"/><stop offset="0.86" stop-color="#270801"/><stop offset="0.88" stop-color="#210600"/><stop offset="0.89" stop-color="#1e0400"/><stop offset="0.91" stop-color="#1a0300"/><stop offset="0.92" stop-color="#170200"/><stop offset="0.93" stop-color="#130100"/><stop offset="0.95" stop-color="#100100"/><stop offset="0.96" stop-color="#0c0100"/><stop offset="0.97" stop-color="#080100"/><stop offset="0.99" stop-color="#060100"/><stop offset="1" stop-color="#040100"/></linearGradient></defs><linearGradient id="svg__github_work__a" x1="765.75" x2="797.25" y1="26.51" y2="26.51" gradientTransform="matrix(.38889 0 0 2.57143 .47 .47)" gradientUnits="userSpaceOnUse"><stop stop-color="#4c34a3"/><stop offset="0.11" stop-color="#5380ad"/><stop offset="0.25" stop-color="#2a8eb0"/><stop offset="0.32" stop-color="#4eabae"/><stop offset="0.36" stop-color="#4cbf35"/><stop offset="0.51" stop-color="#eef059"/><stop offset="0.59" stop-color="#f2ca61"/><stop offset="0.64" stop-color="#e48d3c"/><stop offset="0.8" stop-color="#ff5b45"/><stop offset="1" stop-color="#bf2626"/></linearGradient><path fill="#fff" stroke="#000" stroke-width="0.94" d="M.47.47h787.16v373.54H.47z"/><path fill="#dbdbdb" d="M21.63 68.63h744v81h-744z"/><path fill="url(#svg__github_work__a)" d="M298.26 68.63h12.25v81h-12.25z"/><g fill="none" stroke="#000"><path d="M60.5 61.16v7m53.41 0v-7m53.42 0v7m53.42 0v-7m53.41 0v7m53.42 0v-7m53.42 0v7m53.41 0v-7m53.42 0v7m53.42 0v-7m53.41 0v7m53.42 0v-7m53.42 0v7m-516.34 0v81m76 0v-81m137 0v81m80.34 7v-88m26.7 0v53.42m0 16.46v11.12m26.71 7v-18.12m0-16.46V68.16m26.71 0v81m-507.46 0v7m53.42 0v-7m53.42 0v7m53.41 0v-7m53.42 0v7m53.42 0v-7m53.41 0v7m53.42 0v-7m160.25 0v7m53.42 0v-7m53.41 0v7" transform="translate(.47 .47)"/><path stroke-dasharray="4.44 4" d="M87.16 238.16v-15l210.63-38.66v-35.34m214.37 89v-15L310.04 184.5v-35.34" transform="translate(.47 .47)"/><path d="M574.57 27.53h-16.3m5.47-2.58-5.25 2.2v.76l5.25 2.2m157.361 164.934h16.3m-5.47-2.58 5.25 2.2v.76l-5.25 2.2" transform="translate(.47 .47)"/></g><g font-family="'Liberation Serif'" font-size="14.2"><text x="580.17" y="33.35" font-family="Noto Sans" font-size="19" font-weight="400" style="-inkscape-font-specification:&quot;Noto Sans, Normal&quot;;font-variant-ligatures:normal;font-variant-caps:normal;font-variant-numeric:normal;font-variant-east-asian:normal" transform="translate(.47 .47)">频率的增加 ( ν )</text><text x="51" y="58" transform="translate(.47 .47)">10<tspan dy="-6" font-size="10">24</tspan></text><text x="104.42" y="58" transform="translate(.47 .47)">10<tspan dy="-6" font-size="10">22</tspan></text><text x="157.83" y="58" transform="translate(.47 .47)">10<tspan dy="-6" font-size="10">20</tspan></text><text x="211.25" y="58" transform="translate(.47 .47)">10<tspan dy="-6" font-size="10">18</tspan></text><text x="264.67" y="58" transform="translate(.47 .47)">10<tspan dy="-6" font-size="10">16</tspan></text><text x="318.08" y="58" transform="translate(.47 .47)">10<tspan dy="-6" font-size="10">14</tspan></text><text x="371.5" y="58" transform="translate(.47 .47)">10<tspan dy="-6" font-size="10">12</tspan></text><text x="424.92" y="58" transform="translate(.47 .47)">10<tspan dy="-6" font-size="10">10</tspan></text><text x="480.83" y="58" transform="translate(.47 .47)">10<tspan dy="-6" font-size="10">8</tspan></text><text x="534.25" y="58" transform="translate(.47 .47)">10<tspan dy="-6" font-size="10">6</tspan></text><text x="587.67" y="58" transform="translate(.47 .47)">10<tspan dy="-6" font-size="10">4</tspan></text><text x="641.08" y="58" transform="translate(.47 .47)">10<tspan dy="-6" font-size="10">2</tspan></text><text x="694.5" y="58" transform="translate(.47 .47)">10<tspan dy="-6" font-size="10">0</tspan></text><text x="731" y="58" transform="translate(.47 .47)">ν (Hz)</text><text x="85.65" y="113" font-family="Noto Sans" font-weight="400" style="-inkscape-font-specification:&quot;Noto Sans, Normal&quot;;font-variant-ligatures:normal;font-variant-caps:normal;font-variant-numeric:normal;font-variant-east-asian:normal" transform="translate(.47 .47)">γ射线</text><text x="206.18" y="113" font-family="Noto Sans" font-weight="400" style="-inkscape-font-specification:&quot;Noto Sans, Normal&quot;;font-variant-ligatures:normal;font-variant-caps:normal;font-variant-numeric:normal;font-variant-east-asian:normal" transform="translate(.47 .47)">X射线</text><text x="262.11" y="108.2" stroke-width="0.67" font-family="Noto Sans" font-size="9.45" font-weight="400" style="-inkscape-font-specification:&quot;Noto Sans, Normal&quot;;font-variant-ligatures:normal;font-variant-caps:normal;font-variant-numeric:normal;font-variant-east-asian:normal" transform="matrix(1.00474 0 0 .99528 .47 .47)"><tspan x="262.11" y="108.2">紫外线</tspan><tspan x="262.11" y="120.22">UV</tspan></text><text x="353.55" y="113.16" font-family="Noto Sans" font-weight="400" style="-inkscape-font-specification:&quot;Noto Sans, Normal&quot;;font-variant-ligatures:normal;font-variant-caps:normal;font-variant-numeric:normal;font-variant-east-asian:normal;text-align:center" text-anchor="middle" transform="translate(.47 .47)"><tspan x="353.55" y="113.16">红外线IR</tspan></text><text x="426.06" y="113" font-family="Noto Sans" font-weight="400" style="-inkscape-font-specification:&quot;Noto Sans, Normal&quot;;font-variant-ligatures:normal;font-variant-caps:normal;font-variant-numeric:normal;font-variant-east-asian:normal" transform="translate(.47 .47)">微波</text><text x="482" y="113" font-family="Noto Sans" font-weight="400" style="-inkscape-font-specification:&quot;Noto Sans, Normal&quot;;font-variant-ligatures:normal;font-variant-caps:normal;font-variant-numeric:normal;font-variant-east-asian:normal" transform="translate(.47 .47)">FM</text><text x="534" y="113" font-family="Noto Sans" font-weight="400" style="-inkscape-font-specification:&quot;Noto Sans, Normal&quot;;font-variant-ligatures:normal;font-variant-caps:normal;font-variant-numeric:normal;font-variant-east-asian:normal" transform="translate(.47 .47)">AM</text><text x="625.19" y="113" font-family="Noto Sans" font-weight="400" style="-inkscape-font-specification:&quot;Noto Sans, Normal&quot;;font-variant-ligatures:normal;font-variant-caps:normal;font-variant-numeric:normal;font-variant-east-asian:normal" transform="translate(.47 .47)">长波无线电</text><text x="490.13" y="135.28" font-family="Noto Sans" font-weight="400" style="-inkscape-font-specification:&quot;Noto Sans, Normal&quot;;font-variant-ligatures:normal;font-variant-caps:normal;font-variant-numeric:normal;font-variant-east-asian:normal" transform="translate(.47 .47)">无线电波</text><text x="41.5" y="172" transform="translate(.47 .47)">10<tspan dy="-6" font-size="10">−16</tspan></text><text x="94.92" y="172" transform="translate(.47 .47)">10<tspan dy="-6" font-size="10">−14</tspan></text><text x="147.58" y="172" transform="translate(.47 .47)">10<tspan dy="-6" font-size="10">−12</tspan></text><text x="201.75" y="172" transform="translate(.47 .47)">10<tspan dy="-6" font-size="10">−10</tspan></text><text x="257.67" y="172" transform="translate(.47 .47)">10<tspan dy="-6" font-size="10">−8</tspan></text><text x="311.08" y="172" transform="translate(.47 .47)">10<tspan dy="-6" font-size="10">−6</tspan></text><text x="364.5" y="172" transform="translate(.47 .47)">10<tspan dy="-6" font-size="10">−4</tspan></text><text x="417.92" y="172" transform="translate(.47 .47)">10<tspan dy="-6" font-size="10">−2</tspan></text><text x="473.83" y="172" transform="translate(.47 .47)">10<tspan dy="-6" font-size="10">0</tspan></text><text x="527.25" y="172" transform="translate(.47 .47)">10<tspan dy="-6" font-size="10">2</tspan></text><text x="580.67" y="172" transform="translate(.47 .47)">10<tspan dy="-6" font-size="10">4</tspan></text><text x="634.08" y="172" transform="translate(.47 .47)">10<tspan dy="-6" font-size="10">6</tspan></text><text x="687.5" y="172" transform="translate(.47 .47)">10<tspan dy="-6" font-size="10">8</tspan></text><text x="738" y="172" transform="translate(.47 .47)">λ (m)</text><text x="252" y="231.4" font-family="Noto Sans" font-weight="400" style="-inkscape-font-specification:&quot;Noto Sans, Normal&quot;;font-variant-ligatures:normal;font-variant-caps:normal;font-variant-numeric:normal;font-variant-east-asian:normal" transform="translate(.47 .47)">可见光波谱</text><text x="572.18" y="199.53" font-family="Noto Sans" font-size="19" font-weight="400" style="-inkscape-font-specification:&quot;Noto Sans, Normal&quot;;font-variant-ligatures:normal;font-variant-caps:normal;font-variant-numeric:normal;font-variant-east-asian:normal" transform="translate(.47 .47)">波长的增长 ( λ )</text></g><path fill="url(#svg__github_work__b)" d="M87.63 238.63h425.42v64H87.63z"/><g font-family="FreeSans" font-size="20" text-anchor="middle"><text x="497.01" y="30.79" font-family="Noto Sans" font-size="18.77" font-weight="400" style="-inkscape-font-specification:&quot;Noto Sans, Normal&quot;;font-variant-ligatures:normal;font-variant-caps:normal;font-variant-numeric:normal;font-variant-east-asian:normal" transform="translate(85.855 306.469)scale(.71021)">红</text><text x="362.57" y="30.68" font-family="Noto Sans" font-size="18.77" font-weight="400" style="-inkscape-font-specification:&quot;Noto Sans, Normal&quot;;font-variant-ligatures:normal;font-variant-caps:normal;font-variant-numeric:normal;font-variant-east-asian:normal" transform="translate(85.855 306.469)scale(.71021)">橙</text><text x="321.28" y="30.79" font-family="Noto Sans" font-size="18.77" font-weight="400" style="-inkscape-font-specification:&quot;Noto Sans, Normal&quot;;font-variant-ligatures:normal;font-variant-caps:normal;font-variant-numeric:normal;font-variant-east-asian:normal" transform="translate(85.855 306.469)scale(.71021)">黄</text><text x="248.74" y="30.68" font-family="Noto Sans" font-size="18.77" font-weight="400" style="-inkscape-font-specification:&quot;Noto Sans, Normal&quot;;font-variant-ligatures:normal;font-variant-caps:normal;font-variant-numeric:normal;font-variant-east-asian:normal" transform="translate(85.855 306.469)scale(.71021)">绿</text><text x="152.16" y="30.79" font-family="Noto Sans" font-size="18.77" font-weight="400" style="-inkscape-font-specification:&quot;Noto Sans, Normal&quot;;font-variant-ligatures:normal;font-variant-caps:normal;font-variant-numeric:normal;font-variant-east-asian:normal" transform="translate(85.855 306.469)scale(.71021)">蓝</text><text x="59.43" y="30.79" font-family="Noto Sans" font-size="18.77" font-weight="400" style="-inkscape-font-specification:&quot;Noto Sans, Normal&quot;;font-variant-ligatures:normal;font-variant-caps:normal;font-variant-numeric:normal;font-variant-east-asian:normal" transform="translate(85.855 306.469)scale(.71021)">紫</text><g font-size="10"><text x="-23.41" y="13.09" transform="rotate(-90 196.162 110.307)scale(.71021)">380</text><text x="-23.39" y="112.77" transform="rotate(-90 196.162 110.307)scale(.71021)">450</text><text x="-23.42" y="184.77" transform="rotate(-90 196.162 110.307)scale(.71021)">495</text><text x="-23.43" y="304.77" transform="rotate(-90 196.162 110.307)scale(.71021)">570</text><text x="-23.43" y="340.77" transform="rotate(-90 196.162 110.307)scale(.71021)">590</text><text x="-23.47" y="388.77" transform="rotate(-90 196.162 110.307)scale(.71021)">620</text><text x="-23.48" y="598.77" transform="rotate(-90 196.162 110.307)scale(.71021)">750</text></g><path fill="#fff" stroke="#000" d="M2.67 2.162v39m113.668-.201V2.162m71.79 0v39m119.65 0v-39m35.895 0v39m47.86 0v-39m209.388 0v39" transform="translate(85.855 306.469)scale(.71021)"/></g></svg>