<svg xmlns="http://www.w3.org/2000/svg" viewBox="0 0 600 400"><desc>http://commons.wikimedia.org/wiki/File:mplwp_lambert_W_branches.svg Plot created with mplwp, the Matplotlib extension for Wikipedia plots.</desc><defs><path id="svg__github_work__line2d_3" fill="none" stroke="#000" d="M42.5 373.5v-355"/><path id="svg__github_work__line2d_24" fill="none" stroke="#000" d="M557.5 373.5v-355"/><path id="svg__github_work__line2d_27" fill="none" stroke="#000" d="M42.5 373.5h515"/><path id="svg__github_work__line2d_45" fill="none" stroke="#000" d="M42.5 18.5h515"/><style>*{stroke-linecap:square;stroke-linejoin:round}</style></defs><defs><clipPath id="svg__github_work__pa82c4e93f3"><path d="M42.5 18.5h515v355h-515z"/></clipPath></defs><g id="svg__github_work__figure_1"><path id="svg__github_work__patch_1" fill="#fff" d="M0 400h600V0H0z"/><g id="svg__github_work__axes_1"><path id="svg__github_work__patch_2" fill="#fff" d="M42.5 373.5h515v-355h-515z"/><path id="svg__github_work__line2d_1" fill="none" stroke="#00c" stroke-width="2.4" d="m89.006 196 .112-5.218.322-4.793.522-4.473.712-4.189.893-3.94 1.079-3.763 1.258-3.586 1.442-3.443 1.638-3.337 1.833-3.231 2.049-3.159 2.271-3.089 2.496-3.017 2.758-2.982 3.032-2.947 3.319-2.911 3.619-2.875 3.983-2.876 4.317-2.84 4.727-2.84 5.166-2.84 5.637-2.84 6.142-2.84 6.682-2.84 7.262-2.84 7.882-2.84 8.545-2.84 9.254-2.84 10.014-2.84 10.964-2.876 11.854-2.875 12.805-2.876 13.997-2.91 15.11-2.912 16.299-2.91 17.571-2.912 19.168-2.946 20.654-2.947 22.244-2.946 23.94-2.947 26.075-2.981 28.059-2.983 30.177-2.981 32.841-3.018 35.318-3.017 22.898-1.846h0" clip-path="url(#svg__github_work__pa82c4e93f3)"/><path id="svg__github_work__line2d_2" fill="none" stroke="#d0a" stroke-width="2.4" d="m110.681 373.5-1.246-16.614-1.395-15.655-1.56-15.017-1.746-14.661-1.979-14.733-2.302-15.442-2.947-18.176-5.397-33.015-1.383-10.082-.888-8.059-.54-6.887-.256-6.07-.036-3.089h0" clip-path="url(#svg__github_work__pa82c4e93f3)"/><g id="svg__github_work__matplotlib.axis_1"><g id="svg__github_work__xtick_1"><use stroke-dasharray="1 3" stroke-linecap="butt" stroke-width="0.5" clip-path="url(#svg__github_work__pa82c4e93f3)" href="#svg__github_work__line2d_3"/><g id="svg__github_work__line2d_4"><defs><path id="svg__github_work__ma222041d45" stroke="#000" stroke-linecap="butt" stroke-width="1.25" d="M0 0v-4"/></defs><use x="42.5" y="373.5" stroke="#000" stroke-linecap="butt" stroke-width="1.25" href="#svg__github_work__ma222041d45"/></g><g id="svg__github_work__line2d_5"><defs><path id="svg__github_work__mab2f347831" stroke="#000" stroke-linecap="butt" stroke-width="1.25" d="M0 0v4"/></defs><use x="42.5" y="18.5" stroke="#000" stroke-linecap="butt" stroke-width="1.25" href="#svg__github_work__mab2f347831"/></g><g id="svg__github_work__text_1"><defs><path id="svg__github_work__DejaVuSans-31" d="M12.406 8.297h16.11v55.625l-17.532-3.516v8.985l17.438 3.515h9.86V8.296H54.39V0H12.406z"/><path id="svg__github_work__DejaVuSans-2212" d="M10.594 35.5h62.594v-8.297H10.593z"/></defs><g transform="matrix(.16 0 0 -.16 32.292 392.165)"><use href="#svg__github_work__DejaVuSans-2212"/><use x="83.79" href="#svg__github_work__DejaVuSans-31"/></g></g></g><g id="svg__github_work__xtick_2"><path id="svg__github_work__line2d_6" fill="none" stroke="#000" stroke-dasharray="3 1" stroke-dashoffset="0" stroke-linecap="butt" stroke-width="0.5" d="M116.071 373.5v-355" clip-path="url(#svg__github_work__pa82c4e93f3)"/><use id="svg__github_work__line2d_7" x="116.07" y="373.5" stroke="#000" stroke-linecap="butt" stroke-width="1.25" href="#svg__github_work__ma222041d45"/><use id="svg__github_work__line2d_8" x="116.07" y="18.5" stroke="#000" stroke-linecap="butt" stroke-width="1.25" href="#svg__github_work__mab2f347831"/><g id="svg__github_work__text_2"><defs><path id="svg__github_work__DejaVuSans-30" d="M31.781 66.406q-7.61 0-11.453-7.5Q16.5 51.422 16.5 36.375q0-14.984 3.828-22.484 3.844-7.5 11.453-7.5 7.672 0 11.5 7.5 3.844 7.5 3.844 22.484 0 15.047-3.844 22.531-3.828 7.5-11.5 7.5m0 7.813q12.266 0 18.735-9.703 6.468-9.688 6.468-28.141 0-18.406-6.468-28.11-6.47-9.687-18.735-9.687-12.25 0-18.718 9.688-6.47 9.703-6.47 28.109 0 18.453 6.47 28.14Q19.53 74.22 31.78 74.22"/></defs><use href="#svg__github_work__DejaVuSans-30" transform="matrix(.16 0 0 -.16 112.04 392.375)"/></g></g><g id="svg__github_work__xtick_3"><path id="svg__github_work__line2d_9" fill="none" stroke="#000" stroke-dasharray="1 3" stroke-dashoffset="0" stroke-linecap="butt" stroke-width="0.5" d="M189.643 373.5v-355" clip-path="url(#svg__github_work__pa82c4e93f3)"/><use id="svg__github_work__line2d_10" x="189.64" y="373.5" stroke="#000" stroke-linecap="butt" stroke-width="1.25" href="#svg__github_work__ma222041d45"/><use id="svg__github_work__line2d_11" x="189.64" y="18.5" stroke="#000" stroke-linecap="butt" stroke-width="1.25" href="#svg__github_work__mab2f347831"/><use id="svg__github_work__text_3" href="#svg__github_work__DejaVuSans-31" transform="matrix(.16 0 0 -.16 186.17 392.165)"/></g><g id="svg__github_work__xtick_4"><path id="svg__github_work__line2d_12" fill="none" stroke="#000" stroke-dasharray="1 3" stroke-dashoffset="0" stroke-linecap="butt" stroke-width="0.5" d="M263.214 373.5v-355" clip-path="url(#svg__github_work__pa82c4e93f3)"/><use id="svg__github_work__line2d_13" x="263.21" y="373.5" stroke="#000" stroke-linecap="butt" stroke-width="1.25" href="#svg__github_work__ma222041d45"/><use id="svg__github_work__line2d_14" x="263.21" y="18.5" stroke="#000" stroke-linecap="butt" stroke-width="1.25" href="#svg__github_work__mab2f347831"/><g id="svg__github_work__text_4"><defs><path id="svg__github_work__DejaVuSans-32" d="M19.188 8.297h34.421V0H7.33v8.297q5.609 5.812 15.296 15.594 9.703 9.797 12.188 12.64 4.734 5.313 6.609 9 1.89 3.688 1.89 7.25 0 5.813-4.078 9.469-4.078 3.672-10.625 3.672-4.64 0-9.797-1.61-5.14-1.609-11-4.89v9.969Q13.767 71.78 18.938 73q5.188 1.219 9.485 1.219 11.328 0 18.062-5.672 6.735-5.656 6.735-15.125 0-4.5-1.688-8.531-1.672-4.016-6.125-9.485-1.218-1.422-7.765-8.187-6.532-6.766-18.453-18.922"/></defs><use href="#svg__github_work__DejaVuSans-32" transform="matrix(.16 0 0 -.16 259.512 392.375)"/></g></g><g id="svg__github_work__xtick_5"><path id="svg__github_work__line2d_15" fill="none" stroke="#000" stroke-dasharray="1 3" stroke-dashoffset="0" stroke-linecap="butt" stroke-width="0.5" d="M336.786 373.5v-355" clip-path="url(#svg__github_work__pa82c4e93f3)"/><use id="svg__github_work__line2d_16" x="336.79" y="373.5" stroke="#000" stroke-linecap="butt" stroke-width="1.25" href="#svg__github_work__ma222041d45"/><use id="svg__github_work__line2d_17" x="336.79" y="18.5" stroke="#000" stroke-linecap="butt" stroke-width="1.25" href="#svg__github_work__mab2f347831"/><g id="svg__github_work__text_5"><defs><path id="svg__github_work__DejaVuSans-33" d="M40.578 39.313Q47.656 37.797 51.625 33q3.984-4.781 3.984-11.812 0-10.782-7.422-16.704-7.421-5.906-21.093-5.906-4.578 0-9.438.906-4.86.907-10.031 2.72v9.515q4.094-2.39 8.969-3.61 4.89-1.218 10.218-1.218 9.266 0 14.125 3.656 4.86 3.656 4.86 10.64 0 6.454-4.516 10.079-4.515 3.64-12.562 3.64h-8.5v8.11h8.89q7.266 0 11.125 2.906t3.86 8.375q0 5.61-3.985 8.61-3.968 3.015-11.39 3.015-4.063 0-8.703-.89-4.641-.876-10.203-2.72v8.782q5.624 1.562 10.53 2.344 4.907.78 9.25.78 11.235 0 17.766-5.109 6.547-5.093 6.547-13.78 0-6.063-3.468-10.235-3.47-4.172-9.86-5.782"/></defs><use href="#svg__github_work__DejaVuSans-33" transform="matrix(.16 0 0 -.16 332.947 392.375)"/></g></g><g id="svg__github_work__xtick_6"><path id="svg__github_work__line2d_18" fill="none" stroke="#000" stroke-dasharray="1 3" stroke-dashoffset="0" stroke-linecap="butt" stroke-width="0.5" d="M410.357 373.5v-355" clip-path="url(#svg__github_work__pa82c4e93f3)"/><use id="svg__github_work__line2d_19" x="410.36" y="373.5" stroke="#000" stroke-linecap="butt" stroke-width="1.25" href="#svg__github_work__ma222041d45"/><use id="svg__github_work__line2d_20" x="410.36" y="18.5" stroke="#000" stroke-linecap="butt" stroke-width="1.25" href="#svg__github_work__mab2f347831"/><g id="svg__github_work__text_6"><defs><path id="svg__github_work__DejaVuSans-34" d="M37.797 64.313 12.89 25.39h24.906zm-2.594 8.593H47.61V25.391h10.407v-8.203H47.609V0h-9.812v17.188H4.89v9.515z"/></defs><use href="#svg__github_work__DejaVuSans-34" transform="matrix(.16 0 0 -.16 406.107 392.165)"/></g></g><g id="svg__github_work__xtick_7"><path id="svg__github_work__line2d_21" fill="none" stroke="#000" stroke-dasharray="1 3" stroke-dashoffset="0" stroke-linecap="butt" stroke-width="0.5" d="M483.929 373.5v-355" clip-path="url(#svg__github_work__pa82c4e93f3)"/><use id="svg__github_work__line2d_22" x="483.93" y="373.5" stroke="#000" stroke-linecap="butt" stroke-width="1.25" href="#svg__github_work__ma222041d45"/><use id="svg__github_work__line2d_23" x="483.93" y="18.5" stroke="#000" stroke-linecap="butt" stroke-width="1.25" href="#svg__github_work__mab2f347831"/><g id="svg__github_work__text_7"><defs><path id="svg__github_work__DejaVuSans-35" d="M10.797 72.906h38.719v-8.312H19.828v-17.86q2.14.735 4.281 1.094 2.157.36 4.313.36 12.203 0 19.328-6.688 7.14-6.687 7.14-18.11 0-11.765-7.328-18.296-7.328-6.516-20.656-6.516-4.593 0-9.36.781-4.75.782-9.827 2.344v9.922q4.39-2.39 9.078-3.562t9.906-1.172q8.453 0 13.375 4.437 4.938 4.438 4.938 12.063 0 7.609-4.938 12.047-4.922 4.453-13.375 4.453-3.953 0-7.89-.875-3.922-.875-8.016-2.735z"/></defs><use href="#svg__github_work__DejaVuSans-35" transform="matrix(.16 0 0 -.16 480.155 392.165)"/></g></g><g id="svg__github_work__xtick_8"><use stroke-dasharray="1 3" stroke-linecap="butt" stroke-width="0.5" clip-path="url(#svg__github_work__pa82c4e93f3)" href="#svg__github_work__line2d_24"/><use id="svg__github_work__line2d_25" x="557.5" y="373.5" stroke="#000" stroke-linecap="butt" stroke-width="1.25" href="#svg__github_work__ma222041d45"/><use id="svg__github_work__line2d_26" x="557.5" y="18.5" stroke="#000" stroke-linecap="butt" stroke-width="1.25" href="#svg__github_work__mab2f347831"/><g id="svg__github_work__text_8"><defs><path id="svg__github_work__DejaVuSans-36" d="M33.016 40.375q-6.641 0-10.532-4.547-3.875-4.531-3.875-12.437 0-7.86 3.875-12.438 3.891-4.562 10.532-4.562 6.64 0 10.515 4.562 3.875 4.578 3.875 12.438 0 7.906-3.875 12.437-3.875 4.547-10.515 4.547m19.578 30.922v-8.984q-3.719 1.75-7.5 2.671-3.782.938-7.5.938-9.766 0-14.922-6.594-5.14-6.594-5.875-19.922 2.875 4.25 7.219 6.516 4.359 2.266 9.578 2.266 10.984 0 17.36-6.672 6.374-6.657 6.374-18.125 0-11.235-6.64-18.032-6.641-6.78-17.672-6.78-12.657 0-19.344 9.687-6.688 9.703-6.688 28.109 0 17.281 8.204 27.563 8.203 10.28 22.015 10.28 3.719 0 7.5-.734t7.89-2.187"/></defs><use href="#svg__github_work__DejaVuSans-36" transform="matrix(.16 0 0 -.16 553.472 392.375)"/></g></g></g><g id="svg__github_work__matplotlib.axis_2"><g id="svg__github_work__ytick_1"><use stroke-dasharray="1 3" stroke-linecap="butt" stroke-width="0.5" clip-path="url(#svg__github_work__pa82c4e93f3)" href="#svg__github_work__line2d_27"/><g id="svg__github_work__line2d_28"><defs><path id="svg__github_work__m1eb0c910b5" stroke="#000" stroke-linecap="butt" stroke-width="1.25" d="M0 0h4"/></defs><use x="42.5" y="373.5" stroke="#000" stroke-linecap="butt" stroke-width="1.25" href="#svg__github_work__m1eb0c910b5"/></g><g id="svg__github_work__line2d_29"><defs><path id="svg__github_work__mb63a56c30e" stroke="#000" stroke-linecap="butt" stroke-width="1.25" d="M0 0h-4"/></defs><use x="557.5" y="373.5" stroke="#000" stroke-linecap="butt" stroke-width="1.25" href="#svg__github_work__mb63a56c30e"/></g><g id="svg__github_work__text_9" transform="matrix(.16 0 0 -.16 14.505 379.332)"><use href="#svg__github_work__DejaVuSans-2212"/><use x="83.79" href="#svg__github_work__DejaVuSans-34"/></g></g><g id="svg__github_work__ytick_2"><path id="svg__github_work__line2d_30" fill="none" stroke="#000" stroke-dasharray="1 3" stroke-dashoffset="0" stroke-linecap="butt" stroke-width="0.5" d="M42.5 314.333h515" clip-path="url(#svg__github_work__pa82c4e93f3)"/><use id="svg__github_work__line2d_31" x="42.5" y="314.33" stroke="#000" stroke-linecap="butt" stroke-width="1.25" href="#svg__github_work__m1eb0c910b5"/><use id="svg__github_work__line2d_32" x="557.5" y="314.33" stroke="#000" stroke-linecap="butt" stroke-width="1.25" href="#svg__github_work__mb63a56c30e"/><g id="svg__github_work__text_10" transform="matrix(.16 0 0 -.16 14.89 320.157)"><use href="#svg__github_work__DejaVuSans-2212"/><use x="83.79" href="#svg__github_work__DejaVuSans-33"/></g></g><g id="svg__github_work__ytick_3"><path id="svg__github_work__line2d_33" fill="none" stroke="#000" stroke-dasharray="1 3" stroke-dashoffset="0" stroke-linecap="butt" stroke-width="0.5" d="M42.5 255.167h515" clip-path="url(#svg__github_work__pa82c4e93f3)"/><use id="svg__github_work__line2d_34" x="42.5" y="255.17" stroke="#000" stroke-linecap="butt" stroke-width="1.25" href="#svg__github_work__m1eb0c910b5"/><use id="svg__github_work__line2d_35" x="557.5" y="255.17" stroke="#000" stroke-linecap="butt" stroke-width="1.25" href="#svg__github_work__mb63a56c30e"/><g id="svg__github_work__text_11" transform="matrix(.16 0 0 -.16 15.21 261.104)"><use href="#svg__github_work__DejaVuSans-2212"/><use x="83.79" href="#svg__github_work__DejaVuSans-32"/></g></g><g id="svg__github_work__ytick_4"><path id="svg__github_work__line2d_36" fill="none" stroke="#000" stroke-dasharray="1 3" stroke-dashoffset="0" stroke-linecap="butt" stroke-width="0.5" d="M42.5 196h515" clip-path="url(#svg__github_work__pa82c4e93f3)"/><use id="svg__github_work__line2d_37" x="42.5" y="196" stroke="#000" stroke-linecap="butt" stroke-width="1.25" href="#svg__github_work__m1eb0c910b5"/><use id="svg__github_work__line2d_38" x="557.5" y="196" stroke="#000" stroke-linecap="butt" stroke-width="1.25" href="#svg__github_work__mb63a56c30e"/><g id="svg__github_work__text_12" transform="matrix(.16 0 0 -.16 15.085 201.833)"><use href="#svg__github_work__DejaVuSans-2212"/><use x="83.79" href="#svg__github_work__DejaVuSans-31"/></g></g><g id="svg__github_work__ytick_5"><path id="svg__github_work__line2d_39" fill="none" stroke="#000" stroke-dasharray="3 1" stroke-dashoffset="0" stroke-linecap="butt" stroke-width="0.5" d="M42.5 136.833h515" clip-path="url(#svg__github_work__pa82c4e93f3)"/><use id="svg__github_work__line2d_40" x="42.5" y="136.83" stroke="#000" stroke-linecap="butt" stroke-width="1.25" href="#svg__github_work__m1eb0c910b5"/><use id="svg__github_work__line2d_41" x="557.5" y="136.83" stroke="#000" stroke-linecap="butt" stroke-width="1.25" href="#svg__github_work__mb63a56c30e"/><use id="svg__github_work__text_13" href="#svg__github_work__DejaVuSans-30" transform="matrix(.16 0 0 -.16 27.438 142.657)"/></g><g id="svg__github_work__ytick_6"><path id="svg__github_work__line2d_42" fill="none" stroke="#000" stroke-dasharray="1 3" stroke-dashoffset="0" stroke-linecap="butt" stroke-width="0.5" d="M42.5 77.667h515" clip-path="url(#svg__github_work__pa82c4e93f3)"/><use id="svg__github_work__line2d_43" x="42.5" y="77.67" stroke="#000" stroke-linecap="butt" stroke-width="1.25" href="#svg__github_work__m1eb0c910b5"/><use id="svg__github_work__line2d_44" x="557.5" y="77.67" stroke="#000" stroke-linecap="butt" stroke-width="1.25" href="#svg__github_work__mb63a56c30e"/><use id="svg__github_work__text_14" href="#svg__github_work__DejaVuSans-31" transform="matrix(.16 0 0 -.16 28.555 83.5)"/></g><g id="svg__github_work__ytick_7"><use stroke-dasharray="1 3" stroke-linecap="butt" stroke-width="0.5" clip-path="url(#svg__github_work__pa82c4e93f3)" href="#svg__github_work__line2d_45"/><use id="svg__github_work__line2d_46" x="42.5" y="18.5" stroke="#000" stroke-linecap="butt" stroke-width="1.25" href="#svg__github_work__m1eb0c910b5"/><use id="svg__github_work__line2d_47" x="557.5" y="18.5" stroke="#000" stroke-linecap="butt" stroke-width="1.25" href="#svg__github_work__mb63a56c30e"/><use id="svg__github_work__text_15" href="#svg__github_work__DejaVuSans-32" transform="matrix(.16 0 0 -.16 28.095 24.438)"/></g></g><use id="svg__github_work__patch_3" stroke-width="1.25" href="#svg__github_work__line2d_45"/><use id="svg__github_work__patch_4" stroke-width="1.25" href="#svg__github_work__line2d_24"/><use id="svg__github_work__patch_5" stroke-width="1.25" href="#svg__github_work__line2d_27"/><use id="svg__github_work__patch_6" stroke-width="1.25" href="#svg__github_work__line2d_3"/><g id="svg__github_work__legend_1"><path id="svg__github_work__patch_7" fill="#fff" stroke="#000" d="M427.132 226.698H528.7v-61.395H427.132z" opacity="0.9"/><path id="svg__github_work__line2d_48" fill="none" stroke="#00c" stroke-width="2.4" d="M440.572 180.852h26.88"/><g id="svg__github_work__text_16"><defs><path id="svg__github_work__DejaVuSans-57" d="M3.328 72.906h9.953L28.61 11.281l15.282 61.625h11.093l15.328-61.625 15.282 61.625H95.61L77.297 0H64.89L49.516 63.281 33.984 0H21.578z"/></defs><g transform="matrix(.192 0 0 -.192 488.572 191.028)"><use href="#svg__github_work__DejaVuSans-57" transform="translate(0 18.094)"/><use href="#svg__github_work__DejaVuSans-30" transform="matrix(.7 0 0 .7 98.877 1.688)"/></g></g><path id="svg__github_work__line2d_50" fill="none" stroke="#d0a" stroke-width="2.4" d="M440.572 209.034h26.88"/><g id="svg__github_work__text_17"><defs><path id="svg__github_work__DejaVuSans-2d" d="M4.89 31.39h26.313v-8H4.891z"/></defs><g transform="matrix(.192 0 0 -.192 488.572 219.018)"><use href="#svg__github_work__DejaVuSans-57" transform="translate(0 17.094)"/><use href="#svg__github_work__DejaVuSans-2d" transform="matrix(.7 0 0 .7 98.877 .688)"/><use href="#svg__github_work__DejaVuSans-31" transform="matrix(.7 0 0 .7 124.136 .688)"/></g></g></g></g></g></svg>