<svg xmlns="http://www.w3.org/2000/svg" xml:space="preserve" viewBox="0 0 334.67 403.33"><path fill="#cad8e5" d="M299.5 221.28V370.5h-260z"/><path fill="#e8cdcd" d="M194.72 38.5 299.5 221.28 39.5 370.5z"/><path fill="none" stroke="#000" stroke-miterlimit="10" d="M299.5 221.28V370.5h-260v-332h260zM39.5 370.5l260-149.22m0 0L194.72 38.5m0 0L39.5 370.5"/><path fill="none" stroke="#000" stroke-miterlimit="10" d="M39.5 38.5h24v24h-24zm236 0h24v24h-24zm0 308h24v24h-24zM58.9 329.002c15.401 7.251 26.061 22.912 26.061 41.063M266.817 212.36l20.919-11.764 11.765 20.918-20.919 11.765zM175.473 79.677C160.174 72.387 149.6 56.78 149.6 38.702"/><text x="164.51" y="400.64" font-family="Arial-BoldMT" font-size="88.79">1</text><text x="45.84" y="30.33" font-family="ArialMT" font-size="18">1 - tan α tan β</text><text x="-249.8" y="28.83" font-family="ArialMT" font-size="18" transform="rotate(-90)">tan α + tan β</text><text x="207.55" y="30.33" font-family="ArialMT" font-size="18">tan α tan β</text><text x="82.88" y="-309.33" font-family="ArialMT" font-size="18" transform="rotate(90)">tan β</text><text x="271.22" y="-309.33" font-family="ArialMT" font-size="18" transform="rotate(90)">tan α</text><text x="104.73" y="79.68" font-family="ArialMT" font-size="18">α + β</text><text x="97.93" y="357.33" font-family="ArialMT" font-size="18">α</text><text x="80.65" y="325.7" font-family="ArialMT" font-size="18">β</text><text x="-0.43" y="333.66" font-family="ArialMT" font-size="18" transform="rotate(-29.552)">1/cos α</text><text x="180.07" y="-133.64" font-family="ArialMT" font-size="18" transform="rotate(60.898)">tan β / cos α</text><path fill="none" stroke="#000" stroke-miterlimit="10" d="M275.469 179.36a45.15 45.15 0 0 1 23.993-6.857"/><text x="280.59" y="165.36" font-family="ArialMT" font-size="18">α</text><path fill="none" stroke="#000" stroke-width="4" d="M39.5 370.499h260m-260-332h260"/></svg>