<svg width="297mm" height="210mm"><defs><path id="a" fill="none" stroke="#000" d="M212.197 201.431h-42.52"/><path id="b" fill="none" stroke="#000" d="M190.937 187.258v14.173"/><path id="c" fill="none" stroke="#000" d="M205.11 208.518h-28.346m21.26 7.086H183.85"/><path id="d" fill="none" stroke="#000" d="M131.102 72.953a12.4 12.4 0 01-12.401 12.401 12.4 12.4 0 01-12.402-12.401 12.4 12.4 0 0112.402-12.402 12.4 12.4 0 0112.401 12.402z"/><path id="e" fill="none" stroke="#000" d="M325.583 123.478h-7.087m63.78 0h7.086"/><path id="f" fill="none" stroke="#000" d="M339.756 123.478c14.173-28.346 14.173 28.347 28.346 0"/><path id="g" fill="none" stroke="#000" d="M98.811 293.557h14.173m35.433 0h14.174"/><path id="h" fill="none" stroke="#000" d="M112.98 286.47h35.43v14.17h-35.43z"/><path id="j" fill="none" stroke="#000" d="M368.016-571.096h21.26"/><marker id="i" orient="auto" overflow="visible" refX="0" refY="0"><path fill-rule="evenodd" stroke="#000" stroke-width=".27" d="M1.154 0l-1.73 1v-2z"/></marker></defs><text style="line-height:125%" x="141.87" y="-496.32" font-family="Sans" font-size="30.1" font-weight="400" letter-spacing="0" transform="translate(-46.91 1058.139) scale(1.55873)" word-spacing="0"><tspan x="141.87" y="-496.32">V<tspan baseline-shift="sub" font-size="19.57">1</tspan></tspan></text><text style="line-height:125%" x="222.03" y="-354.62" font-family="Sans" font-size="30.1" font-weight="400" letter-spacing="0" transform="translate(-46.91 1058.139) scale(1.55873)" word-spacing="0"><tspan x="222.03" y="-354.62">V<tspan baseline-shift="sub" font-size="65%">3</tspan></tspan></text><text style="line-height:125%" x="272.43" y="-426.65" font-family="Sans" font-size="30.1" font-weight="400" letter-spacing="0" transform="translate(-46.91 1058.139) scale(1.55873)" word-spacing="0"><tspan x="272.43" y="-426.65">V<tspan baseline-shift="sub" font-size="65%">2</tspan></tspan></text><text style="line-height:125%" x="125.32" y="-406.86" font-family="Sans" font-size="13.27" font-weight="400" letter-spacing="0" transform="translate(-46.91 1058.139) scale(1.55873)" word-spacing="0"><tspan x="125.32" y="-406.86">n</tspan></text><text style="line-height:125%" x="222.78" y="-321.98" font-family="Sans" font-size="40" font-weight="400" letter-spacing="0" transform="translate(-46.91 1058.139) scale(1.55873)" word-spacing="0"><tspan x="222.78" y="-321.98">+</tspan></text><text style="line-height:125%" x="177.93" y="-482.47" font-family="Sans" font-size="50.39" font-weight="400" letter-spacing="0" transform="matrix(1.96369 0 0 1.23727 -46.91 1058.139)" word-spacing="0"><tspan x="177.93" y="-482.47">-</tspan></text><text style="line-height:125%" x="190.77" y="-524.64" font-family="Sans" font-size="50.39" font-weight="400" letter-spacing="0" transform="matrix(1.96369 0 0 1.23727 -46.91 1058.139)" word-spacing="0"><tspan x="190.77" y="-524.64">-</tspan></text><text style="line-height:125%" x="290.28" y="-447.81" font-family="Sans" font-size="40" font-weight="400" letter-spacing="0" transform="translate(-46.91 1058.139) scale(1.55873)" word-spacing="0"><tspan x="290.28" y="-447.81">+</tspan></text><text style="line-height:125%" x="114.4" y="-510.78" font-family="Sans" font-size="40" font-weight="400" letter-spacing="0" transform="translate(-46.91 1058.139) scale(1.55873)" word-spacing="0"><tspan x="114.4" y="-510.78">+</tspan></text><text style="line-height:125%" x="132.24" y="-588.29" font-family="Sans" font-size="50.39" font-weight="400" letter-spacing="0" transform="matrix(1.96369 0 0 1.23727 -46.91 1058.139)" word-spacing="0"><tspan x="132.24" y="-588.29">-</tspan></text><g stroke-width="3.54" transform="translate(-102.338 83.135) scale(1.55873)"><use stroke-linecap="square" href="#a"/><use href="#b"/><use stroke-linecap="square" href="#c"/></g><g transform="rotate(-90 548.646 493.271) scale(1.55873)"><use style="marker:none" stroke-linejoin="round" stroke-width="1.55" color="#000" href="#d" overflow="visible" transform="translate(82.613 -43.27) scale(2.28571)"/><use stroke-linecap="square" stroke-width="3.54" href="#e"/><use stroke-linecap="square" stroke-width="3.54" href="#f"/></g><path fill="none" stroke="#000" stroke-width="5.518" d="M247.846 545.468v55.23"/><path fill="none" stroke="#000" stroke-width="5.658" d="M250.574 377.831h-57.991"/><path fill="none" stroke="#000" stroke-width="5.518" d="M247.846 435.007v-55.23"/><g transform="rotate(150 430.911 229.606) scale(1.55873)"><use style="marker:none" stroke-linejoin="round" stroke-width="1.55" color="#000" href="#d" overflow="visible" transform="translate(82.613 -43.27) scale(2.28571)"/><use stroke-linecap="square" stroke-width="3.54" href="#e"/><use stroke-linecap="square" stroke-width="3.54" href="#f"/></g><path fill="none" stroke="#000" stroke-width="5.549" d="M392.733 294.525l47.93-27.766"/><path fill="none" stroke="#000" stroke-width="5.518" d="M297.061 349.766l-47.831 27.615"/><g transform="rotate(30 109.268 -490.723) scale(1.55873)"><use style="marker:none" stroke-linejoin="round" stroke-width="1.55" color="#000" href="#d" overflow="visible" transform="translate(82.613 -43.27) scale(2.28571)"/><use stroke-linecap="square" stroke-width="3.54" href="#e"/><use stroke-linecap="square" stroke-width="3.54" href="#f"/></g><path fill="none" stroke="#000" stroke-width="5.518" d="M102.76 294.4l-52.239-30.16m148.121 85.52l47.831 27.616"/><text style="line-height:125%" x="620.48" y="-405.85" font-family="Sans" font-size="13.28" font-weight="400" letter-spacing="0" transform="matrix(1.5581 0 0 1.55935 -46.91 1058.139)" word-spacing="0"><tspan x="620.48" y="-405.85">n</tspan></text><text style="line-height:125%" x="524.33" y="-356.52" font-family="Sans" font-size="30.12" font-weight="400" letter-spacing="0" transform="matrix(1.5581 0 0 1.55935 -46.91 1058.139)" word-spacing="0"><tspan x="524.33" y="-356.52">Z<tspan baseline-shift="sub" font-size="19.58">y</tspan></tspan></text><g stroke-linecap="square" stroke-width="2.76" transform="matrix(0 -2.40824 1.66592 0 345.524 803.739)"><use href="#g"/><use style="marker:none" stroke-linejoin="round" color="#000" href="#h" overflow="visible"/></g><path fill="none" stroke="#000" stroke-width="5.533" d="M834.567 413.14v-33.176m0 188.001v33.175"/><g stroke-linecap="square" stroke-width="2.76" transform="matrix(-2.08394 1.20412 -.83297 -1.44387 1447.18 589.54)"><use href="#g"/><use style="marker:none" stroke-linejoin="round" color="#000" href="#h" overflow="visible"/></g><path fill="none" stroke="#000" stroke-width="5.533" d="M864.656 360.981l-28.71 16.59"/><path fill="none" stroke="#000" stroke-width="5.518" d="M998.468 283.637l27-15.603"/><g stroke-linecap="square" stroke-width="2.76" transform="matrix(2.08394 1.20412 -.83297 1.44387 710.988 -258.18)"><use href="#g"/><use style="marker:none" stroke-linejoin="round" color="#000" href="#h" overflow="visible"/></g><path fill="none" stroke="#000" stroke-width="5.533" d="M804.47 360.977l28.709 16.588m-162.685-94l-28.71-16.59"/><g stroke-width="3.54" transform="matrix(-1.5593 0 0 1.56052 1184.839 82.94)"><use stroke-linecap="square" href="#a"/><use href="#b"/><use stroke-linecap="square" href="#c"/></g><path fill="none" stroke="#000" stroke-width="5.658" d="M831.798 377.976h58.012"/><text style="line-height:125%" x="504.54" y="-485.25" font-family="Sans" font-size="30.12" font-weight="400" letter-spacing="0" transform="matrix(1.5581 0 0 1.55935 -46.91 1058.139)" word-spacing="0"><tspan x="504.54" y="-485.25">Z<tspan baseline-shift="sub" font-size="19.58">y</tspan></tspan></text><text style="line-height:125%" x="633.33" y="-440.66" font-family="Sans" font-size="30.12" font-weight="400" letter-spacing="0" transform="matrix(1.5581 0 0 1.55935 -46.91 1058.139)" word-spacing="0"><tspan x="633.33" y="-440.66">Z<tspan baseline-shift="sub" font-size="19.58">y</tspan></tspan></text><path fill="none" stroke="#000" stroke-width="5.549" d="M245.088 598.753h590.904"/><path fill="none" stroke="#000" stroke-width="5.518" d="M439.252 267.091l203.89.198"/><path fill="none" stroke="#000" stroke-width="5.471" d="M51.744 266.636v-76.615"/><path fill="none" stroke="#000" stroke-width="5.549" d="M49.031 190.046h977.581"/><path fill="none" stroke="#000" stroke-width="5.721" d="M1023.802 190.146v80.142"/><g transform="translate(-41.454 1055.022) scale(1.55873)"><use stroke-width="3.54" marker-end="url(#i)" href="#j"/><text style="line-height:125%" x="346.89" y="-563.79" font-family="Sans" font-size="30.12" font-weight="400" letter-spacing="0" transform="scale(.9996 1.0004)" word-spacing="0"><tspan x="346.89" y="-563.79">I<tspan baseline-shift="sub" font-size="65%">1</tspan></tspan></text></g><g transform="translate(-41.726 1191.86) scale(1.55873)"><use stroke-width="3.54" marker-end="url(#i)" href="#j"/><text style="line-height:125%" x="346.89" y="-563.79" font-family="Sans" font-size="30.12" font-weight="400" letter-spacing="0" transform="scale(.9996 1.0004)" word-spacing="0"><tspan x="346.89" y="-563.79">I<tspan baseline-shift="sub" font-size="65%">2</tspan></tspan></text></g><g transform="translate(-41.439 1459.316) scale(1.55873)"><use stroke-width="3.54" marker-end="url(#i)" href="#j"/><text style="line-height:125%" x="346.89" y="-563.79" font-family="Sans" font-size="30.12" font-weight="400" letter-spacing="0" transform="scale(.9996 1.0004)" word-spacing="0"><tspan x="346.89" y="-563.79">I<tspan baseline-shift="sub" font-size="65%">3</tspan></tspan></text></g></svg>