<svg xmlns="http://www.w3.org/2000/svg" viewBox="0 0 610.02 357"><defs><clipPath id="svg__github_work__a"><path d="M419 26h22v22h-22Zm0 0"/></clipPath><clipPath id="svg__github_work__b"><path d="M414.5078 61.5664h38.504V15.0547l-38.504-.004Zm0 0"/></clipPath><clipPath id="svg__github_work__c"><path d="M445 24h5v10h-5Zm0 0"/></clipPath><clipPath id="svg__github_work__d"><path d="M414.5078 61.5664h38.504V15.0547l-38.504-.004Zm0 0"/></clipPath></defs><path fill="none" stroke="#000" stroke-linecap="round" stroke-linejoin="round" stroke-miterlimit="10" stroke-width="15" d="M389.7177 1426.2799v-330.0207" transform="matrix(.14643 0 0 -.146499 0 357.6984)"/><path fill="none" stroke="#000" stroke-linecap="round" stroke-linejoin="round" stroke-miterlimit="10" stroke-width="15" d="M389.7177 1002.5085v-329.994" transform="matrix(.14643 0 0 -.146499 0 357.6984)"/><path fill-rule="evenodd" d="M62.3398 322.3516c0 2.914-2.3593 5.2734-5.2734 5.2734-2.9102 0-5.2695-2.3594-5.2695-5.2734 0-2.9102 2.3593-5.2735 5.2695-5.2735 2.914 0 5.2734 2.3633 5.2734 5.2735Zm0 0"/><path fill-rule="evenodd" d="M32.664 196.2773c-.0624.2696-.207.4024-.4453.4024-.0195.0195-.0703.0273-.1484.0273-.0508 0-.0898-.0078-.1172-.0273h-.1328c-.2578 0-.3867-.0977-.3867-.289v-.1016c.1172-.707.1797-1.3633.1797-1.9688v-.5469c-.0625-.7343-.2266-1.371-.4961-1.9023-.2735-.5313-.668-.9453-1.1914-1.2383-.5235-.289-1.1836-.4375-1.9844-.4375-.4648 0-.9375.1016-1.414.3047-.4766.1992-.9258.4727-1.3399.8164-.4531.375-.8242.8008-1.1094 1.2734-.2851.4766-.4922.957-.621 1.457a4.26 4.26 0 0 0-.1641 1.0235c0 .4492.0976.879.2968 1.293.2852.6914.797 1.1328 1.5391 1.3203l3.4023.9492c.625.1836 1.1524.4766 1.5938.8711.4375.3984.7695.8672.9922 1.4102.2226.543.3515 1.1328.3906 1.7734v.2578c0 .5586-.0781 1.129-.2383 1.7149-.203.8046-.5351 1.582-.9883 2.328A8.8 8.8 0 0 1 28.5939 209c-.6446.5469-1.3438.9844-2.1094 1.3164-.7657.332-1.5352.4961-2.3047.4961-1.1328 0-2.1016-.1836-2.8985-.5469-.8007-.3633-1.3945-.8242-1.7773-1.3789l-1.4648 1.7383q-.1935.1875-.3985.1875h-.0898c-.2461 0-.3828-.0937-.4024-.289a.28.28 0 0 1 .047-.1563l1.7148-6.7305c.0586-.2656.2343-.4062.5195-.418h.3242c.1211.004.2266.0508.3281.1446.039.0781.0586.1445.0586.2031 0 .039-.0117.086-.0312.1445-.1758.6914-.2657 1.332-.2657 1.9258 0 .9492.2305 1.754.6954 2.414.7421 1.0665 2.0351 1.5977 3.8789 1.5977.4648 0 .9336-.1093 1.414-.3242.4805-.2148.9258-.5039 1.3399-.871.4531-.418.836-.8868 1.1445-1.3985.3125-.5156.543-1.043.6914-1.5899.0977-.4414.1485-.8515.1485-1.2382 0-.4766-.0665-.9375-.1954-1.379-.293-.7382-.8437-1.2109-1.6406-1.4257l-3.3594-.9492c-.6054-.1602-1.121-.4258-1.5546-.797-.4376-.3671-.7735-.8046-1.0157-1.3124s-.3828-1.0703-.4218-1.6836v-.3164c0-.4805.0585-.9805.1796-1.5117.207-.7657.5352-1.4961.9883-2.1953.457-.7032 1.0195-1.3204 1.6875-1.8594a8.33 8.33 0 0 1 2.082-1.2422c.754-.3086 1.5-.4649 2.2422-.4688 1.0157.004 1.8555.1914 2.5157.5703s1.1406.8282 1.4375 1.3438l1.418-1.711c.082-.1327.2109-.1992.3867-.203h.1328c.2382.0038.3554.1171.3554.3476v.1133Zm0 0"/><path fill-rule="evenodd" d="M42.4336 214.3398a121 121 0 0 0-3.3242-.0468c-1.0742 0-2.1836.0156-3.3203.0468v-.6914h.6406c.2031 0 .3945 0 .5742-.0078.1797-.0039.3477-.0195.5117-.039.1602-.0235.3008-.043.418-.0664.0977-.0157.1797-.0625.2422-.1485a.43.43 0 0 0 .0976-.2773v-9.0742c-.3086.1367-.6875.2382-1.1406.3085-.4531.0665-.9453.1016-1.4844.1016v-.6836c.7422 0 1.4297-.0781 2.0547-.2383q.9434-.2343 1.629-.8906h.289c.2031.004.3047.0899.3047.2656v10.211q0 .164.0937.2812c.0625.082.1524.129.2696.1446.0976.0234.2265.043.3828.0664.1523.0195.3281.0351.5195.039.1992.0078.3867.0078.5742.0078h.668Zm0 0"/><path fill-rule="evenodd" d="M31.9805 316.039c-.0586.2696-.207.4024-.4453.4024-.0196.0195-.0664.0313-.1485.0274a.187.187 0 0 1-.1172-.0274h-.1328c-.2578 0-.3867-.0937-.3867-.289v-.0977c.121-.711.1797-1.3672.1797-1.9688v-.5507c-.0586-.7344-.2266-1.3711-.4961-1.9024-.2695-.5312-.668-.9453-1.1914-1.2383-.5235-.289-1.1836-.4336-1.9844-.4375-.461.004-.9336.1016-1.414.3047-.4766.1992-.922.4727-1.3399.8164-.4531.375-.8203.8008-1.1094 1.2735-.2851.4765-.4922.9609-.621 1.457-.0977.3594-.1524.6992-.1641 1.0234 0 .4493.1015.8828.2968 1.293.2852.6914.8008 1.1328 1.5391 1.3242l3.4063.9492c.621.1797 1.1523.4727 1.5898.8672.4414.3985.7695.8711.9922 1.4102.2227.543.3516 1.1328.3906 1.7734v.2617q0 .832-.2344 1.711c-.207.8047-.539 1.582-.9921 2.3281-.4532.75-1.0157 1.418-1.6875 2.0117-.6407.5469-1.3438.9883-2.1094 1.3164-.7656.332-1.5313.4961-2.3008.4961-1.1367 0-2.1016-.1797-2.9023-.5469-.8008-.3632-1.3907-.8203-1.7774-1.3789l-1.4648 1.7383q-.1934.1875-.3985.1875h-.0898c-.2461 0-.379-.0937-.3985-.289a.313.313 0 0 1 .043-.1563l1.7188-6.7305c.0586-.2656.2304-.4062.5156-.414h.3242q.1817 0 .3281.1406c.0391.0781.0586.1484.0586.2031 0 .039-.0078.086-.0273.1446-.1797.6914-.2695 1.332-.2695 1.9257 0 .9493.2343 1.754.6953 2.4141.7422 1.0664 2.0351 1.5977 3.8789 1.5977.4648 0 .9375-.1055 1.414-.3243.4805-.2148.9258-.5039 1.3399-.871a6.52 6.52 0 0 0 1.1484-1.3985c.3086-.5117.539-1.043.6875-1.5898.0977-.4414.1485-.8516.1485-1.2383 0-.4766-.0664-.9375-.1914-1.379-.297-.7382-.8438-1.2109-1.6446-1.4218l-3.3594-.9492c-.6015-.164-1.121-.4297-1.5546-.7969-.4336-.371-.7735-.8086-1.0157-1.3164-.2383-.5078-.3789-1.0703-.4218-1.6836v-.3164c0-.4766.0625-.9805.1796-1.5117.207-.7617.5391-1.4961.9922-2.1953.4532-.6993 1.0157-1.3203 1.6875-1.8594.629-.5156 1.3242-.9258 2.0782-1.2422.7578-.3086 1.5039-.4648 2.2421-.4687 1.0196.0039 1.8555.1914 2.5157.5742.664.375 1.1406.8242 1.4375 1.3398l1.4218-1.711c.0782-.1327.207-.1991.3829-.203h.1328c.2383.0039.3554.1171.3554.3476v.1133Zm0 0"/><path fill-rule="evenodd" d="M42.4453 334.1055h-7.5547v-.4453c0-.0313.0196-.0782.0586-.1446l3.0352-2.9453c.3593-.3555.7226-.7187 1.0898-1.086.3672-.371.6992-.75.9883-1.1366.289-.3868.5234-.7852.6992-1.1954.1719-.4101.2578-.8398.2578-1.293 0-.3788-.0586-.7382-.168-1.0663-.1132-.332-.2734-.6211-.4843-.8711-.211-.2461-.4727-.4492-.789-.6016-.3126-.1523-.6798-.2305-1.0938-.2305-.6172 0-1.164.1641-1.6367.4961-.4766.3282-.7891.6914-.9454 1.0899-.0273.0117.0196.0156.1485.0156h.1601q.2754.0586.4805.1758c.1367.0781.254.1836.3438.3203.0937.1367.1406.3008.1406.496q0 .4806-.3516.7384c-.2383.1719-.5.2578-.789.2578-.2813 0-.5391-.086-.7813-.2578q-.3633-.2578-.3633-.7383c0-.4531.1016-.879.2969-1.2813.1992-.4023.4688-.75.8086-1.0468.3398-.293.7422-.5274 1.207-.6993q.6973-.2577 1.4766-.2578c.6445 0 1.2344.082 1.7656.254.539.168.9922.4101 1.3711.7265s.6758.6836.8867 1.1016c.211.414.3203.875.3203 1.3789 0 .5586-.1445 1.0742-.4257 1.543-.2852.4687-.6407.8984-1.0586 1.293-.422.3905-.8711.7577-1.3438 1.1054-.4726.3476-.9023.6836-1.2851 1.0117l-2.1329 1.793h2.793c.3906 0 .754 0 1.0899-.0078.3359-.004.625-.0157.8593-.0313.2344-.0156.3555-.0273.3633-.0312.0469-.0391.0938-.1133.1406-.2266a3.9 3.9 0 0 0 .1172-.3984c.0352-.1524.0742-.3086.1133-.4649.039-.1601.0703-.332.1016-.5234h.6875Zm0 0"/><path fill="none" stroke="#000" stroke-dasharray="120 60" stroke-linecap="round" stroke-linejoin="round" stroke-miterlimit="10" stroke-width="15" d="M2969.7404 2005.4226V672.5145" transform="matrix(.14643 0 0 -.146499 0 357.6984)"/><path fill-rule="evenodd" stroke="#000" stroke-linecap="round" stroke-linejoin="round" stroke-miterlimit="10" stroke-width="15" d="M1484.7368 650.01h1485.0036v45.0089H1484.7368Zm0 0" transform="matrix(.14643 0 0 -.146499 0 357.6984)"/><path fill="none" stroke="#000" stroke-dasharray="120 60" stroke-linecap="round" stroke-linejoin="round" stroke-miterlimit="10" stroke-width="15" d="M389.7177 672.5145h1530.007" transform="matrix(.14643 0 0 -.146499 0 357.6984)"/><path fill="none" stroke="#0000f0" stroke-linecap="round" stroke-linejoin="round" stroke-miterlimit="10" stroke-width="15" d="m937.2273 888.1465 554.9256-173.023" transform="matrix(.14643 0 0 -.146499 0 357.6984)"/><path fill="#0000f0" d="m57.3945 201.539 74.6094 23.2657-.6523 2.0976-74.6094-23.2617c-.582-.1836-.9024-.8008-.7227-1.3789s.797-.9023 1.375-.7226Zm91.043 29.5391-19.0117-12.832 2.5586 6.5508-.6524 2.0976-5.828 3.9375Zm0 0"/><path fill="#0000f0" d="m216.0664 251.5117 176.918-40.2695.4883 2.1445-176.918 40.2656a1.0914 1.0914 0 0 1-1.3125-.828c-.1367-.59.2344-1.1798.8242-1.3126Zm194.2774-43.0937-22.875-1.5508 5.5 4.3789.4843 2.1445-3.0625 6.332Zm0 0"/><path fill="none" stroke="#000" stroke-linecap="round" stroke-linejoin="round" stroke-miterlimit="10" stroke-width="15" d="M3974.726 627.5322v1377.8904" transform="matrix(.14643 0 0 -.146499 0 357.6984)"/><path fill="#0000f0" d="m402.875 208.9922 161.0117-36.6484.4883 2.1445-161.0156 36.6484c-.5899.1328-1.1797-.2383-1.3125-.8281-.1367-.5899.2344-1.1797.8281-1.3164Zm178.371-39.4727-22.8788-1.5507 5.5 4.3789.4883 2.1445-3.0625 6.332Zm0 0"/><g clip-path="url(#svg__github_work__a)"><g clip-path="url(#svg__github_work__b)"><path fill-rule="evenodd" d="M440.2148 33.4375a.644.644 0 0 1-.1914.3242c-.1015.0899-.207.1367-.328.1367-.0392.0196-.086.0274-.1485.0274-.1172 0-.1758-.0078-.1758-.0274q-.3692 0-.3984-.3164v-.1015c.0586-.4492.1054-.9063.1484-1.3672.039-.3555.0586-.6797.0586-.9766v-.246c-.0195-.3829-.0664-.7266-.1406-1.0274-.0743-.3008-.207-.5547-.3946-.7695-.375-.4415-.9336-.6993-1.6718-.7813-.7422-.082-1.5313-.121-2.3672-.125h-3.1836c-.5235.004-.8281.043-.918.1172-.0508.039-.1484.3203-.2969.8476l-1.836 7.0157h2.043q.8322 0 1.5118-.0703c.4531-.047.8437-.1915 1.168-.4336.2968-.2383.5234-.5743.6757-1.004.1524-.4335.3008-.9257.4493-1.4843.1093-.2852.2968-.4258.5625-.414h.2539c.2734 0 .414.125.414.371v.1016l-1.8515 7.1172c-.0586.3007-.25.4414-.5782.4336h-.2343c-.2774 0-.418-.1172-.418-.3477a.28.28 0 0 1 .0469-.1562c.1289-.5352.2226-1.0313.2812-1.4805.0195-.1172.0313-.2149.0313-.3047 0-.2656-.0625-.4805-.1797-.6445-.168-.2305-.4649-.3672-.8946-.4102s-.9101-.0664-1.4453-.0664h-2.1289l-2.0312 7.879c-.0977.3358-.1485.5858-.1485.75v.0546c.043.043.3164.0664.832.0742h3.3868c.8789 0 1.7305-.0586 2.5547-.1797.8242-.121 1.5937-.4258 2.3008-.914.3164-.2305.621-.5352.9062-.918s.5547-.8086.8125-1.2734.5-.957.7344-1.4805c.2305-.5234.461-1.039.6875-1.5469.0781-.2305.25-.3437.5156-.3437h.254c.2773 0 .414.125.414.371v.1172l-2.9453 7.0157c-.1094.2304-.2852.3437-.5352.3437h-15.3906q-.2227 0-.3281-.1289c-.0664-.0664-.1016-.1367-.1016-.2148a.53.53 0 0 1 .0273-.172l.0586-.2148c.0313-.125.1016-.2343.207-.3242.1094-.0898.2344-.1367.3712-.1367.4648 0 .8984-.0078 1.3046-.0195.4024-.0156.711-.0664.9141-.1524.1797-.0976.3164-.3554.418-.7773l4.1562-16.1016c.0625-.211.0899-.3789.0899-.5039 0-.1133-.0235-.1836-.0743-.2031-.1367-.086-.4101-.1367-.8125-.1562-.4062-.0196-.8398-.0274-1.3046-.0313-.2735.004-.4141-.129-.4141-.3867v-.1016l.0586-.2422c.082-.3164.2734-.4765.5781-.4765h14.9961c.2461 0 .379.121.3985.3593v.1016Zm0 0"/></g></g><g clip-path="url(#svg__github_work__c)"><g clip-path="url(#svg__github_work__d)"><path fill-rule="evenodd" d="M446.2578 33.25c-.0703.1797-.1875.2656-.3594.2656h-.1054l-.0782-.0351c-.168-.0352-.2617-.1407-.2773-.3086v-.082l1.336-7.418c.0663-.3516.2538-.6211.5663-.7969.3125-.1836.629-.2734.9493-.2734.3437 0 .621.0976.832.2851.1328.1172.1992.2695.1992.461 0 .1406-.039.3007-.1172.4843Zm0 0"/></g></g><path fill-rule="evenodd" d="M589.879 30.125c-.0313.125-.0938.2344-.1954.3242-.0977.0938-.207.1367-.3242.1367a.29.29 0 0 1-.1485.0274c-.1172.0039-.1757-.0078-.1757-.0274-.2461 0-.3829-.1054-.4024-.3164v-.1015c.0586-.4492.1094-.9063.1485-1.3633.039-.3555.0585-.6836.0585-.9805v-.2422c-.0195-.3867-.0664-.7265-.1367-1.0312-.0742-.3008-.207-.5547-.3945-.7695-.375-.4376-.9336-.6993-1.6719-.7813-.7422-.0781-1.5312-.121-2.371-.125h-3.1798c-.5234.004-.828.043-.918.1172-.0507.039-.1484.3203-.2968.8476l-1.836 7.0157h2.043q.832.0058 1.5117-.0703c.4532-.047.8438-.1915 1.168-.4297.2969-.2422.5195-.5742.6719-1.0078.1562-.4297.3047-.922.4531-1.4805.1094-.2852.2969-.4258.5625-.418h.25c.2774 0 .414.125.414.375v.1016l-1.8476 7.1172c-.0586.2968-.2539.4414-.5781.4297h-.2383c-.2734 0-.414-.1133-.414-.3438 0-.0586.0156-.1094.043-.1602.1327-.5351.2265-1.0273.285-1.4804a1.8 1.8 0 0 0 .0274-.3008c0-.2695-.0586-.4844-.1758-.6484-.168-.2305-.4687-.3672-.8984-.4102-.4258-.043-.9062-.0625-1.4414-.0625h-2.1328l-2.0274 7.879c-.0976.3359-.1484.5859-.1484.746v.0586c.039.039.3164.0625.8281.0703h3.3907c.8789 0 1.7304-.0586 2.5546-.1797.8243-.1172 1.5899-.4218 2.3008-.9101.3164-.2305.6172-.539.9024-.922.289-.3827.5586-.8046.8164-1.2733.2578-.461.5-.957.7304-1.4805q.3516-.7793.6914-1.5469c.0782-.2266.25-.3437.5157-.3437h.2539c.2734 0 .414.125.414.375v.1132l-2.9453 7.0157c-.1093.2304-.289.3476-.5351.3476h-15.3946c-.1484 0-.2539-.043-.3242-.1289-.0703-.0664-.1015-.1406-.1055-.2187.004-.0547.0118-.1133.0313-.172l.0586-.2148c.0312-.125.0977-.2304.207-.3242.1094-.0898.2344-.1367.3711-.1367.4649 0 .8985-.0039 1.3008-.0195.4063-.0156.711-.0664.918-.1524.1797-.0937.3164-.3554.414-.7773l4.1602-16.1016c.0586-.211.0898-.3789.0898-.5039 0-.1133-.0234-.1797-.0742-.2031-.1367-.082-.4101-.1367-.8125-.1562-.4062-.0196-.8398-.0274-1.3047-.0313-.2773.004-.414-.129-.414-.3867v-.1016l.0586-.2422c.078-.3164.2734-.4765.578-.4765h14.9962q.369 0 .3984.3633v.0976Zm0 0"/><path fill="#0000f0" d="m57.211 201.5 182.6952 24.1758-.2851 2.1797-182.6953-24.1758c-.6016-.082-1.0274-.6328-.9453-1.2344.078-.6016.6328-1.0234 1.2304-.9453Zm199.957 27.5703-20.9102-9.418 3.6328 6.0235-.289 2.1758-5.0743 4.871Zm0 0"/><path fill="none" stroke="#0000f0" stroke-linecap="round" stroke-linejoin="round" stroke-miterlimit="10" stroke-width="15" d="m1689.1059 880.3606 1285.623-170.0366" transform="matrix(.14643 0 0 -.146499 0 357.6984)"/><path fill="none" stroke="#000" stroke-dasharray="120 60" stroke-linecap="round" stroke-linejoin="round" stroke-miterlimit="10" stroke-width="15" d="M382.9952 241.2771 2974.969 716.2435" transform="matrix(.14643 0 0 -.146499 0 357.6984)"/><path fill="#0000f0" d="m434.5313 251.8516 65.3203-11.9727.3945 2.1602-65.3203 11.9765c-.5938.1094-1.168-.289-1.2774-.8828-.1093-.5976.2852-1.1719.8829-1.2812Zm82.7851-14.0586-22.793-2.5235 5.3086 4.6133.3985 2.1602-3.332 6.1953Zm0 0"/><path fill="none" stroke="#0000f0" stroke-linecap="round" stroke-linejoin="round" stroke-miterlimit="10" stroke-width="15" d="m2968.86 710.0307 999.6505 183.2086" transform="matrix(.14643 0 0 -.146499 0 357.6984)"/><path fill="none" stroke="#000" stroke-dasharray="120 60" stroke-linecap="round" stroke-linejoin="round" stroke-miterlimit="10" stroke-width="15" d="M382.9952 241.2771 1492.153 672.5145" transform="matrix(.14643 0 0 -.146499 0 357.6984)"/><path fill="none" stroke="#0000f0" stroke-linecap="round" stroke-linejoin="round" stroke-miterlimit="10" stroke-width="15" d="m382.9952 1058.7696 3591.7309 367.5103" transform="matrix(.14643 0 0 -.146499 0 357.6984)"/><path fill="#0000f0" d="m55.9688 201.496 252.5156-25.8476.2226 2.1875-252.5156 25.8477c-.6016.0625-1.1406-.379-1.2031-.9844-.0625-.6015.375-1.1406.9804-1.2031Zm270.0898-26.5429-22.5195-4.3203 4.9296 5.0156.2227 2.1875-3.8125 5.9141Zm0 0"/><path fill-rule="evenodd" d="M225.1016 265.336c-.0586.3007-.2422.4452-.547.4452-.4608 0-.9023.0118-1.3163.0313q-.621.0293-.9024.1523c-.1875.0782-.3359.332-.4453.754l-4.1601 16.203c-.0586.211-.0899.379-.0899.5 0 .1173.0313.1915.0899.2188q.205.129.8086.1524a44 44 0 0 0 1.293.0195c.2773 0 .414.1172.414.3438a.66.66 0 0 1-.0274.1875l-.0625.2148q-.041.1875-.1992.3164-.1523.129-.3632.129a77 77 0 0 0-3.582-.086c-1.211 0-2.4337.0312-3.668.086-.2579 0-.3868-.1212-.3868-.3712v-.1172l.0586-.2422c.0781-.3164.2735-.4687.5781-.4609.4649 0 .8985-.0078 1.3008-.0195.4063-.0157.707-.0664.9063-.1524.1758-.0976.3203-.3554.4258-.7773l4.1601-16.0625-10.996 17.8008c-.1485.2695-.375.4023-.6837.4023h-.1445q-.457 0-.5508-.457l-1.789-17.586-3.8946 15.168c-.0586.1758-.086.3555-.086.5469a.51.51 0 0 0 .0274.1601c.0196.2305.0977.4102.2383.543.1758.1758.414.289.711.3477.2968.0586.6289.0859 1.0039.0859.2773 0 .414.1172.414.3438a.66.66 0 0 1-.0273.1875l-.0586.2148c-.0313.125-.0977.2305-.2031.3164q-.1524.129-.375.129c-.9883-.0548-1.9844-.086-2.9922-.086-1.004 0-2.0274.0312-3.0625.086-.1485 0-.2578-.043-.3243-.129-.0703-.0664-.1054-.1367-.1054-.2148 0-.0586.0117-.1133.0312-.172l.0586-.2148c.0781-.3164.2696-.4687.5781-.4609.375 0 .7266-.0273 1.0586-.086a2.54 2.54 0 0 0 .9258-.3593c.2266-.1445.4102-.332.5547-.5664a2.88 2.88 0 0 0 .3164-.7578l3.9649-15.3828c.0625-.211.0898-.375.0898-.4922 0-.1133-.0234-.1797-.0742-.1993-.1367-.082-.4063-.1367-.8047-.1562a26.5 26.5 0 0 0-1.2969-.0312c-.2656 0-.4101-.129-.4297-.3868v-.1015l.0625-.2578c.1055-.2891.3008-.4297.5743-.4336h4.7968c.3164.0039.4922.1562.5313.4648l1.6875 16.4297 10.1875-16.4922c.1445-.2695.375-.3984.6797-.4023h4.7968c.1368.0039.254.0507.3555.1445.039.0781.0586.1484.0586.2148a.317.317 0 0 1-.043.1602Zm0 0"/><path fill-rule="evenodd" d="M445.6875 275.6406q-.0469.1875-.1992.3164c-.1055.086-.2305.129-.379.129-.3554 0-.6991.0273-1.035.078-.336.0548-.6485.1837-.9337.3829-.2344.1406-.4219.332-.5625.5664a2.9 2.9 0 0 0-.3086.7539l-4.3672 17.0117c-.1093.2852-.3007.4297-.578.4297h-.34c-.1757 0-.3085-.0781-.3984-.2305-1.1171-3.0078-2.2226-6.0117-3.3242-9.0078a947 947 0 0 0-3.1601-8.4922l-3.8164 14.8555c-.0586.164-.0899.3281-.0899.4883 0 .0664.0117.1406.0313.2148.0273.2305.1171.414.2656.5469.1758.1719.414.289.711.3476.2968.0547.6288.086 1.0077.082.2735.004.4141.1173.4141.3477 0 .0586-.0117.1211-.0312.1875l-.0586.2149c-.0313.1328-.1016.2422-.2149.3242s-.2344.121-.3633.121c-.9843-.0585-1.9882-.0858-3.0039-.0858a53.3 53.3 0 0 0-3.0469.0859q-.2226 0-.328-.129c-.0665-.0663-.1016-.1405-.1016-.2148 0-.0586.0117-.1171.0273-.1757l.0586-.2149c.0313-.125.1016-.2305.211-.3203.1054-.0937.2304-.1367.3671-.1406a5.95 5.95 0 0 0 1.0508-.082c.3281-.0586.6367-.1797.9336-.3633.2266-.1407.4102-.332.5469-.5664.1406-.2344.246-.4844.3242-.754l4.1445-16.1171c-.168-.0586-.4687-.0938-.9101-.1172a39 39 0 0 0-1.3985-.0274c-.1484 0-.2578-.0468-.3242-.1445-.0586-.0586-.0898-.1289-.0898-.2148 0-.0586.0156-.1094.043-.1602l.0468-.2266q.1641-.4336.5742-.4336h4.6328c.1914 0 .3125.0782.3711.2305l5.6368 15.211 3.2421-12.5664c.0586-.172.0899-.3438.0899-.5196 0-.293-.0938-.539-.2813-.7305-.207-.1992-.453-.3242-.7304-.371-.2813-.0508-.6094-.0743-.9883-.0743-.1445 0-.254-.043-.3242-.1289-.0664-.0664-.1016-.1445-.1016-.2304 0-.0586.0156-.1094.043-.1602l.043-.2266c.1093-.289.3007-.4336.578-.4336a78 78 0 0 0 3.0352.0586q1.5059 0 3.0352-.0586c.1367 0 .2539.047.3515.1446.0391.0781.0586.1484.0586.2148 0 .0586-.0117.1094-.043.1563Zm0 0"/><path fill="#0bc2b8" fill-opacity="0.3922" fill-rule="evenodd" d="m580.2422 169.9922-1.0977.5508-2.746 1.6484-10.9805 6.5899-1.6485.5507-2.746.5508.5507-1.1016 2.1953-3.8437h-2.1953l-4.9414 1.6484-12.082 2.7461-19.2188 3.8438-12.078 3.2969-43.383 9.3398-12.078 3.2969-12.082 2.746-4.9415 1.0977h-2.1953l-.5508.5508h-1.6484l-.5469 9.8906-2.746-.5507v-8.2422h-1.6485l-2.7461 1.1015h-2.1953l-4.9414 1.6446-7.1406 1.1015-6.586 1.6485-1.6484.5468-1.0977.5508-11.5312 6.5938-1.0977 1.0976-2.1992-.5508.5508-1.0976 1.6484-2.7461.5469-1.0977-2.7461.547-4.9414 1.6483c-2.0117.457 0 0-12.082 2.7461-12.0782 2.7461-50.332 11.4453-60.4024 13.7344l-7.1367 1.1016-2.1953.5469-.5508.5507h-1.6484 2.1992l.5469.547h3.8437l8.2383 1.1015 12.6289 2.1953 8.2383.5508 66.4414 9.3398 20.8672 2.7461 4.3906.5508h4.3945l.547-3.2969 2.746.5469v2.1992h2.1992l.5469-.5508h2.746l6.0392-1.0976 6.043-1.6485 26.9062-4.3945 6.039-1.6484 8.7852-1.0977 3.2969-1.0977-1.0977-1.1015-3.2969-2.7461 2.7461-.5508 5.4922 1.1016h4.9414l5.4922 1.0976h4.3906c1.0078-.1836 2.0157-.3672 6.039-1.0976 4.0274-.7344 15.1017-2.7461 18.1212-3.297l6.043-1.6483 20.8632-3.297 6.043-1.0976 3.293-1.0976h2.1953Zm0 0"/></svg>