<?xml version="1.0" encoding="UTF-8"?><svg xmlns="http://www.w3.org/2000/svg" width="23" height="20" viewBox="-2 -7 23 20"><path d="M1.1-1a1.367 1.367 0 0 1 0 2" fill="none" stroke-width="0.1" stroke="#000"/><path d="M6-6 0 0l6 6" fill="none" stroke-width="0.2" stroke="#00f"/><path d="M21 12.5 4 4 1.4-1.2l19.3 9.6m-.15 3.88.34.44m-.34-.44h.56" fill="none" stroke-width="0.1" stroke="red"/><path d="M20.24 8.45h.56L20.46 8m.32-5H3v-6h18" fill="none" stroke-width="0.1" stroke="red"/><path d="m20.39 3.25.5-.25-.5-.25M20.5-3l.5.25M20.5-3l.5-.25" fill="none" stroke-width="0.1" stroke="red"/><path d="m2 4 2-2M.2-2.4l2 2M3 5l2-2M2-4l2 2" fill="none" stroke-width="0.1" stroke-dasharray="0.2" stroke="#000"/><circle cx="0.8" r="0.1"/><circle cx="0.8" r="0.1" fill="none" stroke-width="0.1" stroke="#1b1b1b"/></svg>