<svg viewBox="-2 -7 23 20"><path fill="none" stroke="#000" stroke-width=".1" d="M1.1-1a1.367 1.367 0 010 2"/><path fill="none" stroke="#00f" stroke-width=".2" d="M6-6L0 0l6 6"/><path fill="none" stroke="red" stroke-width=".1" d="M21 12.5L4 4 1.4-1.2l19.3 9.6m-.147 3.876l.335.448m-.335-.448h.559"/><path fill="none" stroke="red" stroke-width=".1" d="M20.241 8.451l.559-.001-.336-.446M20.776 3H3v-6h18"/><path fill="none" stroke="red" stroke-width=".1" d="M20.388 3.25l.5-.25-.5-.25M20.5-3l.5.25M20.5-3l.5-.25"/><path fill="none" stroke="#000" stroke-dasharray=".2" stroke-width=".1" d="M2 4l2-2M.2-2.4l2 2M3 5l2-2M2-4l2 2"/><circle cx=".8" r=".1"/><circle cx=".8" r=".1" fill="none" stroke="#1b1b1b" stroke-width=".1"/></svg>