<?xml version="1.0" encoding="UTF-8"?>
<svg xmlns="http://www.w3.org/2000/svg" width="23" height="20" viewBox="-2 -7 23 20">
  <path style="fill: none; fill-opacity:0; stroke-width: 0.1; stroke: #000000" d="M 1.1,-1 A 1.36739,1.36739 0 0 1 1.1,1"/>
  <polyline style="fill: none; fill-opacity:0; stroke-width: 0.2; stroke: #0000ff" points="6,-6 0,0 6,6 "/>
  <polyline style="fill: none; fill-opacity:0; stroke-width: 0.1; stroke: #ff0000" points="21,12.5 4,4 1.4,-1.2 20.6998,8.40041 "/>
  <line style="fill: none; fill-opacity:0; stroke-width: 0.1; stroke: #ff0000" x1="20.5528" y1="12.2764" x2="20.8882" y2="12.7236"/>
  <line style="fill: none; fill-opacity:0; stroke-width: 0.1; stroke: #ff0000" x1="20.5528" y1="12.2764" x2="21.1118" y2="12.2764"/>
  <polyline style="fill: none; fill-opacity:0; stroke-width: 0.1; stroke: #ff0000" points="20.2409,8.45135 20.7999,8.45021 20.4636,8.00368 "/>
  <polyline style="fill: none; fill-opacity:0; stroke-width: 0.1; stroke: #ff0000" points="20.7764,3 3,3 3,-3 21,-3 "/>
  <polyline style="fill: none; fill-opacity:0; stroke-width: 0.1; stroke: #ff0000" points="20.3882,3.25 20.8882,3 20.3882,2.75 "/>
  <line style="fill: none; fill-opacity:0; stroke-width: 0.1; stroke: #ff0000" x1="20.5" y1="-3" x2="21" y2="-2.75"/>
  <line style="fill: none; fill-opacity:0; stroke-width: 0.1; stroke: #ff0000" x1="20.5" y1="-3" x2="21" y2="-3.25"/>
  <line style="fill: none; fill-opacity:0; stroke-width: 0.1; stroke-dasharray: 0.2; stroke: #000000" x1="2" y1="4" x2="4" y2="2"/>
  <line style="fill: none; fill-opacity:0; stroke-width: 0.1; stroke-dasharray: 0.2; stroke: #000000" x1="0.2" y1="-2.4" x2="2.2" y2="-0.4"/>
  <line style="fill: none; fill-opacity:0; stroke-width: 0.1; stroke-dasharray: 0.2; stroke: #000000" x1="3" y1="5" x2="5" y2="3"/>
  <line style="fill: none; fill-opacity:0; stroke-width: 0.1; stroke-dasharray: 0.2; stroke: #000000" x1="2" y1="-4" x2="4" y2="-2"/>
  <ellipse style="fill: #000000" cx="0.8" cy="0" rx="0.1" ry="0.1"/>
  <ellipse style="fill: none; fill-opacity:0; stroke-width: 0.1; stroke: #1b1b1b" cx="0.8" cy="0" rx="0.1" ry="0.1"/>
</svg>
