<?xml version="1.0" encoding="UTF-8" standalone="yes"?><svg xmlns="http://www.w3.org/2000/svg" height="204.25" width="169.92"><path d="M143.13 15.58h14.28V199h-14.28z" fill="none"/><path d="M143.673 107.428H11.153" fill="none" stroke="#000" stroke-width="0.57"/><path d="M143.134 15.852v183.152m0-91.711L28.744 41.25m114.525 66.043L28.977 173.28m96.969-55.849a19.9 19.9 0 0 1-2.688-10.015m-2.199-13.51a26.97 26.97 0 0 0-3.448 13.252" fill="none" stroke="#000"/><text y="37.13" x="23.01" font-size="12" font-family="Times-Bold">P</text><text y="173.42" x="17.08" font-size="12" font-family="Times-Bold">Q</text><use height="204.25" width="169.92" transform="translate(0 80.673)" href="#a"/><use height="204.25" width="169.92" transform="translate(0 90.757)" href="#a"/><path d="M145.289 99.078h14.006v14.545h-14.006z" fill="#fff"/><text y="110.98" x="147.69" font-size="12" font-family="Times-Bold">O</text><path d="M105.861 93.082c0-1.668-.523-3.279-1.864-3.279l-.016.274c.539 0 .895.468.895 2.073 0 .58-.049 1.387-.519 3.194h-3.451c.245-.952.589-2.31 1.243-3.456.54-.981 1.112-1.811 1.832-1.811l.016-.274c-2.289 0-4.726 4.787-4.726 8.382 0 .752.163 3.452 1.88 3.452l.017-.274c-.507 0-.943-.435-.943-2.23 0-1.059.275-2.166.55-3.241h3.467c-.409 1.597-.752 2.623-1.341 3.65-.474.834-1.046 1.821-1.733 1.821l-.017.274c2.225 0 4.71-4.77 4.71-8.555m3.456 3.885c0-.24-.174-.528-.425-.528-.283 0-.581.312-.581.702 0 .24.167.392.407.392.283 0 .599-.252.599-.566m-1.591 4.001c-.295.72-.295.742-.589 1.505a1.4 1.4 0 0 0-.073.48c0 .534.399.872.956.872 1.057 0 1.504-1.477 1.504-1.614 0-.109-.086-.141-.163-.141-.131 0-.152.076-.185.185-.251.872-.698 1.297-1.134 1.297-.131 0-.157-.051-.157-.327 0-.261.039-.458.113-.796.109-.294.218-.588.338-.883.109-.294.229-.589.338-.883.098-.251.305-.589.305-.774 0-.545-.47-.715-1.068-.715-1.058 0-1.516 1.332-1.516 1.456 0 .098.077.142.164.142.142 0 .152-.066.185-.174.306-1.036.807-1.15 1.134-1.15.153 0 .28.027.28.18 0 .108-.012.26-.138.588zm-.826 14.102c0-1.636-.513-3.215-1.829-3.215l-.016.268c.53 0 .878.459.878 2.033 0 .57-.048 1.361-.509 3.134h-3.384c.24-.935.577-2.266 1.219-3.391.529-.962 1.091-1.776 1.796-1.776l.016-.268c-2.245 0-4.635 4.695-4.635 8.22 0 .738.16 3.386 1.844 3.386l.016-.269c-.497 0-.924-.426-.924-2.187 0-1.038.27-2.125.539-3.179h3.401c-.401 1.566-.738 2.573-1.315 3.58-.466.818-1.027 1.786-1.701 1.786l-.016.269c2.182 0 4.62-4.678 4.62-8.391m2.267 9.008c.117-.46.235-.92.342-1.39.011-.022.085-.332.096-.385.032-.096.3-.535.578-.802.342-.31.705-.187.898-.187.117 0 .31-.002.46-.038a.594.594 0 0 0-.499.588c0 .236.171.523.392.523.288 0 .681-.28.681-.79 0-.385-.357-.551-1.013-.551-.727 0-1.219.351-1.443.562-.214-.77-.942-.562-1.048-.562-.385 0-.653.157-.824.369a4.3 4.3 0 0 0-.363 1.059c0 .096.074.139.16.139.139 0 .15-.043.225-.321.128-.524.32-.978.769-.978.278 0 .342.174.342.326 0 .192-.053.395-.139.748-.021.086-.181.717-.224.866-.171.706-.246.984-.396 1.604a5 5 0 0 0-.107.471c0 .246.204.278.343.278.374 0 .449-.275.534-.609z"/><use height="204.25" width="169.92" transform="translate(0 10.084)" href="#a"/><use height="204.25" width="169.92" transform="translate(0 20.168)" href="#a"/><use height="204.25" width="169.92" transform="translate(0 30.252)" href="#a"/><use height="204.25" width="169.92" transform="translate(0 40.336)" href="#a"/><use height="204.25" width="169.92" transform="translate(0 50.42)" href="#a"/><use height="204.25" width="169.92" transform="translate(0 60.504)" href="#a"/><use height="204.25" width="169.92" transform="translate(0 70.588)" href="#a"/><use height="204.25" width="169.92" transform="translate(0 100.84)" href="#a"/><use height="204.25" width="169.92" transform="translate(0 110.925)" href="#a"/><use height="204.25" width="169.92" transform="translate(0 121.009)" href="#a"/><use height="204.25" width="169.92" transform="translate(0 131.093)" href="#a"/><use height="204.25" width="169.92" transform="translate(0 141.177)" href="#a"/><use height="204.25" width="169.92" transform="translate(0 151.261)" href="#a"/><use height="204.25" width="169.92" transform="translate(0 161.345)" href="#a"/><use height="204.25" width="169.92" transform="translate(0 171.43)" href="#a"/></svg>