<?xml version="1.0"?>
<svg xmlns="http://www.w3.org/2000/svg" xmlns:xlink="http://www.w3.org/1999/xlink" width="136mm" height="212mm" version="1.1" viewBox="0 0 136 212"><defs><linearGradient id="b" x1="88" x2="88" y1="66" y2="54" gradientTransform="translate(-51-23)" gradientUnits="userSpaceOnUse"><stop stop-color="#00f" offset="0"/><stop stop-color="#00f" stop-opacity="0" offset="1"/></linearGradient></defs>
 <rect y="7.411e-15" width="136" height="212" fill="#fff"/><path d="m134 210v-22l-4 1-2 2-1-2-2-1-3 2-1-2-2 2-3 1-1-2-2 1-2 2-1-4-5 1-1-2h-3l-1 2h-2l-2-2-1 2h-5l-1 2h-3l-1-2-1 3-3 1-1-3-3-1-1 2-2-1-3 1-1-2-4-2h-2l-1 2v4l-3-2-2-2-5 1-4-3-2 1h-3l-1 3-3-3-2 1-2-1-2 2-4-3-1 2-3 1-4-2-1-3-2 4-2 1-1-4h-2l-1 4-6-2-1 4-2-1-2-2v21" fill="#aaa" stroke="#000" stroke-width=".8"/><path d="m107 44v145l-35-127m25-18v144l6-119m-16-25v147l-33-117m23-30v145l-51-91m41-54v144l24-122m-34-22v145l-50-66m40-79v144l-4-115m-6-29v144l79-81" fill="none" stroke="#00f" stroke-width=".8"/>
 <g id="c">
 <g id="a"><path d="m37 43 2-2-2 6-2-6z" fill="#00f"/><path d="m37 31v12" fill="none" stroke="url(#b)"/></g>
 <use transform="translate(10)" xlink:href="#a"/><use transform="translate(20)" xlink:href="#a"/><use transform="translate(30)" xlink:href="#a"/></g>
 <use transform="translate(40)" xlink:href="#c"/><path d="m115.7 107.3h-2.8l5.6-3-2.8 5.7zm-12.7-37.8l-2 2 2.2-6 1.8 6zm-12-3.4-2.4 1.6 3-5.5.8 6.3zm-19-3.8-1 2.6-.3-6.3 4 5zm-18 11.8-1.2 2.6 0-6.3 4 5zm-11-1-2 2 1.6-6 2.4 5.8zm-16.8 25.4-.5 2.8-1.7-6 5 3.8zm-19 24.6-.4 2.8-2-6 5.3 3.5z" fill="#00f"/>
 <g font-family="Arial" stroke="#fff" style="paint-order:stroke markers fill" font-size="12px"><switch><text transform="rotate(72)" x="157" y="-50" id="trsvg7-yue" systemLanguage="yue"><tspan id="trsvg1-yue">&#x65B9;&#x5411;</tspan></text><text transform="rotate(72)" x="157" y="-50" id="trsvg7"><tspan id="trsvg1">directions</tspan></text></switch><switch><text transform="rotate(53)" x="102" y="63" id="trsvg8-yue" systemLanguage="yue"><tspan id="trsvg2-yue">&#x53CD;&#x5C04;&#x5605;&#x5149;&#x7DDA;</tspan></text><text transform="rotate(53)" x="102" y="63" id="trsvg8"><tspan id="trsvg2">Reflected rays</tspan></text></switch><switch><text transform="rotate(57)" x="122" y="29" id="trsvg9-yue" systemLanguage="yue"><tspan id="trsvg3-yue">&#x6563;&#x958B;&#x53BB;</tspan></text><text transform="rotate(57)" x="122" y="29" id="trsvg9"><tspan id="trsvg3">scatter</tspan></text></switch><switch><text transform="rotate(-39)" x="-21" y="154" id="trsvg10-yue" systemLanguage="yue"><tspan id="trsvg4-yue">&#x5514;&#x540C;</tspan></text><text transform="rotate(-39)" x="-21" y="154" id="trsvg10"><tspan id="trsvg4">in all</tspan></text></switch><switch><text x="26" y="14" id="trsvg11-yue" systemLanguage="yue"><tspan id="trsvg5-yue">&#x5149;&#x5C04;&#x7167;&#x843D;</tspan><tspan x="38" y="27" id="trsvg6-yue">&#x53BB;&#x4E00;&#x584A;&#x8868;&#x9762;</tspan></text><text x="26" y="14" id="trsvg11"><tspan id="trsvg5">Light rays shining</tspan><tspan x="38" y="27" id="trsvg6">on a surface</tspan></text></switch></g></svg>
