<svg xmlns="http://www.w3.org/2000/svg" xmlns:svg="http://www.w3.org/2000/svg" xmlns:xlink="http://www.w3.org/1999/xlink" id="svg2" width="591.5" height="387.499" x="0" y="0" enable-background="new 68.5 12.501 591.5 387.499" version="1.1" viewBox="68.5 12.501 591.5 387.499" xml:space="preserve"><g id="layer2" transform="translate(-30.142857,-312.529)"><linearGradient id="path2831-1_1_" x1="502.064" x2="503.472" y1="-154.982" y2="-12.708" gradientTransform="matrix(1 0 0 -1.0237 -138.6782 533.8718)" gradientUnits="userSpaceOnUse"><stop offset="0" style="stop-color:#83a0ff"/><stop offset="1" style="stop-color:#cdd6f3"/></linearGradient><path id="path2831-1" fill="url(#path2831-1_1_)" d="M614.55,548.229l-501.383,0.292l0.701,120.587c0,12.237,11.604,25.959,21.954,25.959h454.846c11.589,0,24.583-15.364,24.583-29.066 L614.55,548.229z" enable-background="new" opacity=".63"/><path id="path3637" fill="#FFD769" stroke="#000" d="M219.451,587.678l192.643-39.598l3.694,9.948l-192.396,41L219.451,587.678 L219.451,587.678z"/><path id="path3635" fill="#E0AC00" stroke="#000" d="M657.572,429.79L185.428,694.791l-7.857-15.715L649.714,414.79 L657.572,429.79L657.572,429.79z"/><g id="path3639"><g><polyline fill="none" stroke="#FF0101" stroke-width="4" points="177.572 679.077 291.143 548.406 408.252 483.39"/><g><polygon fill="#FF0101" points="410.999 495.552 423.309 475.03 399.382 474.626"/></g></g></g><g id="path3639-7"><g><polyline fill="none" stroke="#FF0101" stroke-width="4" points="177.572 679.077 265.143 547.851 381.518 444.468"/><g><polygon fill="#FF0101" points="386.848 455.74 394.393 433.03 370.952 437.847"/></g></g></g><g id="g3703" transform="matrix(0.99092297,-0.1344309,0.1344309,0.99092297,-3.1898914,53.098721)"><g id="g3699"><path id="path3667" fill="none" stroke="#000" stroke-width="2" d="M470.143,466.648c-1.428-17.143-3.571-60,82.143-95.714 c-86.428,35.714-118.571-26.429-118.571-26.429"/><path id="path3669" fill="none" stroke="#000" stroke-width="2" d="M458.714,372.362 c-12.678,20.714-5.247,50.954,13.727,67.203"/></g><g id="g3695" transform="matrix(0.96953922,-0.22318028,0.24406675,0.91496959,-57.169087,130.91365)"><path id="path3671" fill="#7F9EFF" d="M439.643,408.969c0.004,12.919-3.071,23.404-6.867,23.417c-3.797,0.014-6.879-10.449-6.883-23.368 c0-0.017-0.001-0.033-0.001-0.049c-0.004-12.919,3.071-23.404,6.868-23.418c3.797-0.013,6.878,10.449,6.882,23.369 C439.643,408.937,439.643,408.952,439.643,408.969z"/><path id="path3671-4" d="M436.556,408.969c0.003,7.397-1.691,13.399-3.784,13.407c-2.093,0.007-3.791-5.983-3.792-13.379 c-0.001-0.009,0-0.019-0.001-0.028c-0.002-7.397,1.692-13.399,3.785-13.407c2.092-0.008,3.79,5.982,3.792,13.379 C436.556,408.95,436.557,408.959,436.556,408.969z"/></g></g><path id="path5551" fill="none" stroke="#000" stroke-linecap="round" stroke-linejoin="round" stroke-width="3" d="M151.143,676.934l12.5-15.715l-6.25,7.857l6.071,7.768l-12.143-15.625"/><path id="path5551-8" fill="none" stroke="#000" stroke-linecap="round" stroke-linejoin="round" stroke-width="3" d="M209.17,570.303l-6.25,7.856v7.769l0.073-7.696l-6.144-7.929"/><path id="path2831" fill="none" stroke="#000" stroke-linecap="round" stroke-linejoin="round" stroke-width="4" d="M113.867,454.416v216.154c0,12.236,11.604,25.958,21.954,25.958h454.846c11.589,0,24.583-15.364,24.583-29.066V454.123"/><path id="path5575" fill="none" stroke="#000" stroke-dasharray="2 2" stroke-width="2" d="M114.025,548.406h501.131"/><path id="path5589" fill="#D2C495" stroke="#000" d="M649.357,414.79l8.571,15.357l22.144-19.286 l-2.144-3.928L649.357,414.79L649.357,414.79z"/><path id="path5591" stroke="#000" stroke-linecap="round" stroke-linejoin="round" d="M677.929,406.934c0.446,0,7.768-1.875,7.768-1.875l-5.625,5.535L677.929,406.934z"/><path id="path3639_1_" fill="none" stroke="#000" stroke-dasharray="9 9" stroke-width="3" d="M219.273,588.374l72.057-40.146"/><path id="path3639-7_1_" fill="none" stroke="#000" stroke-dasharray="9 9" stroke-width="3" d="M219.273,588.374l44.922-40.145"/></g></svg>