<svg xmlns="http://www.w3.org/2000/svg" width="2440.57" height="758.36" xmlns:xlink="http://www.w3.org/1999/xlink"><defs><path fill="none" stroke="#000" d="M2069.31 648.984a133.34 133.34 0 0 1-115.762-66.27" id="b"/></defs><g transform="translate(-2.286 -301.005)"><path d="M2.29 678.08h2440.57v382.37H2.29z" opacity="0.25" fill="#008dff"/><path d="M504.429 309.755v752.857m685-752.857v756.857m739.285-752.857v756.857" fill="none" stroke="#000" stroke-width="1.5" stroke-dasharray="18 18"/><text x="94.91" y="391.5" xml:space="preserve" style="line-height:0%;-inkscape-font-specification:Tahoma" font-weight="400" font-size="56" font-family="Tahoma"><tspan x="94.91" y="391.5">空气</tspan></text><text x="83.43" y="1010.36" xml:space="preserve" style="line-height:0%;-inkscape-font-specification:Tahoma" font-weight="400" font-size="56" font-family="Tahoma"><tspan x="83.43" y="1010.36">水下</tspan></text><text x="116.3" y="795.9" xml:space="preserve" style="line-height:0%;-inkscape-font-specification:Tahoma" font-weight="400" font-size="64" font-family="Tahoma"><tspan x="116.3" y="795.9">n</tspan></text><text x="150.87" y="814.18" xml:space="preserve" style="line-height:0%;-inkscape-font-specification:Tahoma" font-weight="400" font-size="64" font-family="Tahoma"><tspan x="150.87" y="814.18" font-size="40">1</tspan></text><text x="115.71" y="587.51" xml:space="preserve" style="line-height:0%;-inkscape-font-specification:Tahoma" font-weight="400" font-size="64" font-family="Tahoma"><tspan x="115.71" y="587.51">n</tspan></text><text x="152.28" y="605.8" xml:space="preserve" style="line-height:0%;-inkscape-font-specification:Tahoma" font-weight="400" font-size="64" font-family="Tahoma"><tspan x="152.28" y="605.8" font-size="40">2</tspan></text><path d="M355.204 996.834 503.695 677.2 820 353.22" fill="none" stroke="#000" stroke-width="2.6" marker-start="url(#a)" marker-end="url(#a)"/><path d="m917.186 1002.596 272.216-322.907 453.249-1.375" fill="none" stroke="#000" stroke-width="2.6" marker-start="url(#a)" marker-end="url(#a)"/><path d="m1506.644 916.12 423.482-239.012 423.48 239.012" opacity="0.99" fill="none" stroke="#000" stroke-width="2.6" marker-start="url(#a)" marker-end="url(#a)"/><text x="1189.81" y="508.03" xml:space="preserve" style="line-height:0%;text-align:center" font-weight="400" font-size="56" font-family="Bitstream Vera Sans" text-anchor="middle" stroke="#fff" stroke-width="0" stroke-linejoin="bevel" stroke-linecap="square" paint-order="markers stroke fill"><tspan x="1189.81" y="508.03">临界角</tspan></text><text x="63.95" y="869.64" transform="rotate(-46.846)" xml:space="preserve" style="line-height:0%;text-align:center" font-weight="400" font-size="56" font-family="Bitstream Vera Sans" text-anchor="middle"><tspan x="72.86" y="869.64" font-size="36">反射光线</tspan></text><use transform="translate(-153.462 179.818)" opacity="0.7" stroke-width="2" href="#b"/><path d="M1180.012 811.823c-31.973 2.017-42.09 1.018-67.442-18.568M511.573 546.17a133.34 133.34 0 0 1 73.904 32.529" opacity="0.7" fill="none" stroke="#000" stroke-width="2"/><use transform="matrix(-1 0 0 1 4007.968 179.818)" opacity="0.7" stroke-width="2" href="#b"/><path d="M494.836 859.025a133.34 133.34 0 0 1-64.45-10.942" opacity="0.7" fill="none" stroke="#000" stroke-width="2"/><g transform="translate(-772.615 89.268)"><g transform="translate(2509.178 175.746)"><text x="60" y="595.22" xml:space="preserve" style="line-height:0%;-inkscape-font-specification:Tahoma" font-weight="400" font-size="56" font-family="Tahoma"><tspan x="60" y="595.22">θ</tspan></text><text x="90.57" y="609.5" xml:space="preserve" style="line-height:0%;-inkscape-font-specification:Tahoma" font-weight="400" font-size="56" font-family="Tahoma"><tspan x="90.57" y="609.5" font-size="36">1</tspan></text></g><g transform="translate(810.081 -125.218)"><text x="391.33" y="946.75" xml:space="preserve" style="line-height:0%;-inkscape-font-specification:Tahoma" font-weight="400" font-size="56" font-family="Tahoma"><tspan x="391.33" y="946.75">θ</tspan></text><text x="421.9" y="961.04" xml:space="preserve" style="line-height:0%;-inkscape-font-specification:Tahoma" font-weight="400" font-size="56" font-family="Tahoma"><tspan x="421.9" y="961.04" font-size="36">1</tspan></text></g><g transform="translate(-10.162 -343.411)"><g transform="translate(2398.102 173.746)"><text x="391.33" y="946.75" xml:space="preserve" style="line-height:0%;-inkscape-font-specification:Tahoma" font-weight="400" font-size="56" font-family="Tahoma"><tspan x="391.33" y="946.75">θ</tspan></text><text x="421.9" y="961.04" xml:space="preserve" style="line-height:0%;-inkscape-font-specification:Tahoma" font-weight="400" font-size="56" font-family="Tahoma"><tspan x="421.9" y="961.04" font-size="36">2</tspan></text></g><g transform="translate(927.36 -153.543)"><text x="391.33" y="946.75" xml:space="preserve" style="line-height:0%;-inkscape-font-specification:Tahoma" font-weight="400" font-size="56" font-family="Tahoma"><tspan x="391.33" y="946.75">θ</tspan></text><text x="421.9" y="961.04" xml:space="preserve" style="line-height:0%;-inkscape-font-specification:Tahoma" font-weight="400" font-size="56" font-family="Tahoma"><tspan x="421.9" y="961.04" font-size="36">2</tspan></text></g></g><g transform="translate(2369.716 -503.056)"><text x="-495.58" y="1278.08" xml:space="preserve" style="line-height:0%;-inkscape-font-specification:Tahoma" font-weight="400" font-size="56" font-family="Tahoma"><tspan x="-495.58" y="1278.08">θ</tspan></text><text x="-465.01" y="1292.37" xml:space="preserve" style="line-height:0%;-inkscape-font-specification:Tahoma" font-weight="400" font-size="56" font-family="Tahoma"><tspan x="-465.01" y="1292.37" font-size="36">c</tspan></text></g></g><text style="line-height:0%;text-align:center" x="1930.47" y="504.1" xml:space="preserve" font-weight="400" font-family="Bitstream Vera Sans" text-anchor="middle"><tspan x="1930.47" y="504.1" style="line-height:1.25" font-size="56">全内反射</tspan></text><text x="-577.62" y="723.17" transform="rotate(-64.926)" xml:space="preserve" style="line-height:0%;text-align:center" font-weight="400" font-size="56" font-family="Bitstream Vera Sans" text-anchor="middle"><tspan x="-568.7" y="723.17" font-size="36">入射光线</tspan></text></g></svg>