<svg font-family="system-ui,sans-serif" viewBox="0 0 1390 1330"><defs><linearGradient id="a" x1="45" x2="200" y1="-15" y2="250" gradientUnits="userSpaceOnUse"><stop offset="0" stop-color="#ebf"/><stop offset="1" stop-color="#a7d"/></linearGradient><linearGradient id="e" x1="45" x2="200" y1="-15" y2="250" gradientUnits="userSpaceOnUse"><stop offset="0" stop-color="#ae7"/><stop offset="1" stop-color="#6c3"/></linearGradient><linearGradient id="g" x1="45" x2="200" y1="-15" y2="250" gradientUnits="userSpaceOnUse"><stop offset="0" stop-color="#f97"/><stop offset="1" stop-color="#d54"/></linearGradient><linearGradient id="i" x1="45" x2="200" y1="-15" y2="250" gradientUnits="userSpaceOnUse"><stop offset="0" stop-color="#eee677"/><stop offset="1" stop-color="#eb3"/></linearGradient><linearGradient id="c" x1="120" x2="165" y1="60" y2="140" gradientUnits="userSpaceOnUse"><stop offset="0" stop-color="#ebf"/><stop offset="1" stop-color="#a7d"/></linearGradient><linearGradient id="f" x1="120" x2="165" y1="60" y2="140" gradientUnits="userSpaceOnUse"><stop offset="0" stop-color="#ae7"/><stop offset="1" stop-color="#6c3"/></linearGradient><linearGradient id="h" x1="120" x2="165" y1="60" y2="140" gradientUnits="userSpaceOnUse"><stop offset="0" stop-color="#f97"/><stop offset="1" stop-color="#d54"/></linearGradient><linearGradient id="j" x1="120" x2="165" y1="60" y2="140" gradientUnits="userSpaceOnUse"><stop offset="0" stop-color="#eee677"/><stop offset="1" stop-color="#eb3"/></linearGradient><rect id="b" width="230" height="230" x="5" y="5" fill="none" stroke-width="10" rx="25" ry="25"/><circle id="d" cx="120" cy="100" r="45"/><g id="k"><use stroke="url(#a)" href="#b"/><use fill="url(#c)" href="#d"/></g><g id="l"><use stroke="url(#e)" href="#b"/><use fill="url(#f)" href="#d"/></g><g id="m"><use stroke="url(#g)" href="#b"/><use fill="url(#h)" href="#d"/></g><g id="n"><use stroke="url(#i)" href="#b"/><use fill="url(#j)" href="#d"/></g></defs><switch font-size="64" font-weight="700" text-anchor="middle"><path d="M460.176 40.664h7.872v4.8h8.768v6.208h-8.768v19.2h11.904v6.272h-11.84q2.624 2.304 5.888 4.288 3.264 1.92 6.656 3.136-1.216 1.024-2.752 2.816-1.472 1.728-2.304 3.072-5.44-2.496-10.112-6.656v4.736h-11.712v4.16h21.056v6.272h-49.024v-6.272h20.16v-4.16H434.64V84.44q-4.672 4.096-10.24 6.592-.832-1.28-2.304-3.008-1.408-1.792-2.624-2.816 3.584-1.28 6.912-3.392 3.392-2.112 6.016-4.672h-12.352v-6.272h12.288v-19.2h-8.832v-6.208h8.832V40.6h7.68v4.864h20.16zm-20.16 11.008v2.752h20.16v-2.752zm0 8.128v2.816h20.16V59.8zm0 8.192v2.88h20.16v-2.88zm5.952 10.432h7.808v4.032h10.304q-2.496-2.432-4.608-5.312h-18.176q-1.92 2.816-4.544 5.312h9.216zm69.936-17.536h-.448q-2.176 5.888-5.056 11.264t-6.336 9.92h11.84zm8.128 0v21.184h11.52q-3.456-4.544-6.272-9.92-2.816-5.44-4.992-11.264zm-8.128-20.224h8.128V53.08h24.32v7.808H532.16q3.008 7.04 7.68 13.248 4.736 6.208 10.368 9.984-1.472 1.216-3.264 3.2-1.792 1.92-2.816 3.584-1.792-1.408-3.52-3.072-1.664-1.664-3.264-3.52v5.568h-13.312v10.88h-8.128V89.88H502.4v-5.76q-3.392 4.032-7.232 7.04-1.024-1.472-2.688-3.264-1.6-1.856-2.944-2.944 3.776-2.56 7.104-6.336 3.392-3.776 6.144-8.32 2.816-4.544 4.8-9.408h-15.808V53.08h24.128zm44.4 5.568l5.056-1.28q1.28 3.456 2.112 7.488.896 3.968 1.152 6.976l-5.44 1.344q-.064-1.984-.512-4.48-.384-2.496-1.024-5.12-.576-2.688-1.344-4.928m27.84 16.256l6.464-1.664q1.088 4.288 2.048 9.152 1.024 4.8 1.792 9.344.832 4.48 1.216 7.744l-7.104 2.176q-.256-3.328-.96-7.936t-1.6-9.536-1.856-9.28m-8.832-17.984l6.016 1.28q-1.216 3.776-2.56 7.872-1.28 4.096-2.432 6.848l-4.352-1.216v2.688h8.192v7.168h-8.192v1.6q.96.96 2.24 2.432 1.344 1.472 2.624 3.008 1.344 1.536 2.368 2.816t1.472 1.856l-4.736 6.08q-.64-1.408-1.728-3.328-1.024-1.92-2.24-3.904v20.864h-7.168V80.92q-1.344 3.584-2.88 6.848-1.472 3.2-3.136 5.632-.512-1.792-1.6-4.032-1.024-2.304-1.92-3.904 1.6-1.984 3.072-4.672 1.536-2.688 2.816-5.696 1.344-3.072 2.304-5.952h-7.104v-7.168h8.448V40.728h7.168V58.84q.64-1.984 1.28-4.48.64-2.56 1.152-5.12.576-2.56.896-4.736m16.64-2.56l7.04-1.792q.896 2.304 1.792 4.992.96 2.624 1.408 4.544l-6.08 1.728h18.048v7.168h-32.832v-7.168h13.376q-.384-1.984-1.152-4.608-.768-2.688-1.6-4.864m-12.928 48.832h19.968q1.088-4.224 2.048-9.472t1.728-10.624q.832-5.44 1.216-10.048l7.744 1.216q-.768 4.8-1.792 9.984-.96 5.12-2.112 10.048-1.088 4.864-2.176 8.896h10.24v7.616h-36.864zm73.328-31.296q3.072-1.472 6.336-3.456 3.328-2.048 6.144-4.16H637.28v-7.552h40.064l1.728-.448 5.888 4.544q-4.096 3.968-9.6 8.064-5.504 4.032-11.008 7.04v4.864h24.96v7.744h-24.96v15.488q0 3.2-.896 4.992-.832 1.792-3.136 2.688-2.368.896-5.696 1.152t-7.744.192q-.32-1.664-1.344-4.032-.96-2.304-1.92-3.904 2.24.128 4.48.192t3.968.064q1.728-.064 2.432-.064 1.088-.064 1.472-.32.384-.32.384-1.152V76.12H630.88v-7.744h25.472zm71.536-14.912h28.224v7.168h-28.224zm19.584 30.272l6.336-2.176q1.472 3.2 2.752 6.848 1.344 3.648 2.368 7.104t1.408 6.144l-6.912 2.496q-.32-2.624-1.216-6.144t-2.112-7.232q-1.216-3.776-2.624-7.04m-19.712-1.92l6.912 1.6q-.896 3.712-2.24 7.488t-2.944 7.104q-1.536 3.328-3.2 5.824-.64-.576-1.792-1.344-1.088-.768-2.24-1.472-1.152-.768-1.984-1.152 2.432-3.328 4.352-8.192 1.984-4.864 3.136-9.856m-2.816-13.056h34.752v7.168h-14.4v24.704q0 2.816-.576 4.544-.512 1.728-2.368 2.688-1.792.96-4.224 1.152-2.368.256-5.632.256-.128-1.664-.768-3.968-.64-2.24-1.408-3.904 1.92.064 3.648.064h2.432q.64 0 .832-.192.256-.192.256-.832V67.032h-12.544zM709.072 40.6h7.616v12.672h7.488v7.104h-7.488v1.344q.704.768 1.92 2.24 1.216 1.408 2.56 3.072 1.344 1.6 2.432 2.944t1.536 1.92l-4.096 6.08q-.64-1.472-1.856-3.52t-2.496-4.096v30.336h-7.616v-26.24q-1.28 3.968-2.88 7.552-1.536 3.52-3.264 6.016-.512-1.6-1.728-3.776-1.152-2.24-2.176-3.712 1.856-2.304 3.456-5.632 1.664-3.392 2.944-7.168 1.344-3.776 2.176-7.36h-7.424v-7.104h8.896zm61.104 5.696l6.912-3.136q1.472 2.368 3.072 5.184 1.6 2.752 3.008 5.44 1.408 2.624 2.24 4.672l-7.488 3.648q-.704-2.112-2.048-4.8-1.28-2.752-2.816-5.632-1.472-2.88-2.88-5.376m.064 48.192q1.408-2.688 3.008-6.272 1.664-3.584 3.328-7.616 1.664-4.096 3.072-8.128l7.104 3.52q-1.984 5.632-4.16 11.328-2.176 5.632-4.288 10.496zM797.376 71v5.952h11.456V71zm0-6.592h11.456v-6.144h-11.456zM806.4 43.8l6.592-3.008q1.536 2.112 3.008 4.736 1.536 2.56 2.368 4.416l-3.392 1.792h14.016v6.528h-12.608v6.144h11.392V71h-11.392v5.952h11.328v6.592h-11.328v6.208h13.632V96.6h-32.64v4.224h-7.104V67.352q-1.088 1.472-2.24 2.816t-2.304 2.56q-.576-.768-1.536-1.792-.96-1.088-1.984-2.112-1.024-1.088-1.856-1.728 3.328-3.008 6.208-7.104 2.88-4.16 5.184-8.96 2.368-4.864 3.904-9.984l7.04 1.792q-.768 2.24-1.664 4.48-.832 2.24-1.792 4.416h11.52q-.832-1.856-2.048-3.968-1.216-2.176-2.304-3.968m-9.024 39.744v6.208h11.456v-6.208zm73.392-14.4v2.816h17.6v-2.816zm0-7.744v2.752h17.6V61.4zm13.312-20.8h7.424v4.416h7.232v6.272h-7.232v3.648h-7.424v-3.648h-7.424v3.648h-7.296v-3.648h-7.488v-6.272h7.488V40.6h7.296v4.416h7.424zm-20.416 15.488h32.128v21.184H883.44l-.448 3.712h16v6.336h-11.2q4.416 5.248 12.928 6.976-1.216 1.088-2.624 2.944-1.344 1.92-2.112 3.392-5.44-1.472-9.152-4.544-3.712-3.008-6.144-7.424-1.984 4.16-6.272 7.168t-12.224 4.928q-.448-1.408-1.664-3.264-1.152-1.792-2.24-2.88 6.016-1.216 9.408-3.008 3.456-1.792 5.248-4.288H860.72v-6.336h14.72l.256-1.792q.192-.96.256-1.92h-12.288zm-16-15.488h7.232v11.968h5.824v7.104h-5.824v2.24q.704.896 1.792 2.56 1.152 1.664 2.368 3.52 1.28 1.856 2.24 3.392 1.024 1.536 1.408 2.24L858.16 79q-1.152-3.136-3.264-7.36v29.056h-7.232V78.744q-1.024 3.072-2.304 5.76-1.216 2.624-2.496 4.672-.576-1.664-1.664-3.904-1.088-2.304-2.048-3.84 1.792-2.304 3.392-5.632t2.88-7.104q1.344-3.776 2.24-7.424v-1.6h-6.976v-7.104h6.976zm99.44 3.712h7.04v21.76h-7.04zm11.712-2.944h7.296v27.456q0 2.624-.64 4.096-.576 1.472-2.368 2.368-1.792.768-4.288.96t-5.888.192q-.256-1.472-.96-3.392-.64-1.92-1.344-3.328 2.24.064 4.288.064t2.688-.064q.704 0 .96-.192t.256-.832zm-27.52 8.256h-5.44v6.72h5.44zm-13.824 29.824h18.56V75.48h-4.736V63.128h-5.952q-.768 3.968-3.072 7.744-2.24 3.712-7.04 6.336-.512-.768-1.472-1.792-.896-1.088-1.856-2.048-.96-1.024-1.664-1.536 3.52-1.856 5.312-4.096t2.496-4.608h-6.464v-6.784h7.232v-6.72h-5.056v-6.72h29.248v6.72h-4.544v6.72h5.952v6.784h-5.952v11.264h5.44v5.056h18.56v6.976h-18.56v5.12h24.96v7.104h-57.92v-7.104h25.088v-5.12h-18.56z" aria-label="基本粒子标准模型" letter-spacing="6"/></switch><g fill="#123" font-size="40" text-anchor="middle"><text x="100" transform="translate(120 260)">I</text><text x="350" transform="translate(120 260)">II</text><text x="600" transform="translate(120 260)">III</text></g><g font-size="24" opacity=".65" text-anchor="end" transform="translate(85 315)"><switch><path d="M-33.744-1.656l1.272-1.104q1.2.456 2.52 1.056 1.32.576 2.52 1.176 1.224.6 2.064 1.08l-1.272 1.224q-.816-.528-2.04-1.152Q-29.88 0-31.2-.6q-1.32-.624-2.544-1.056m-1.248-6.696h1.848v2.184q0 .912-.264 1.968t-1.128 2.136q-.84 1.08-2.568 2.088-1.704 1.008-4.608 1.872-.168-.288-.528-.72-.336-.408-.672-.672 2.232-.576 3.672-1.248 1.464-.672 2.328-1.392t1.272-1.416q.408-.72.528-1.392t.12-1.248zm-6.024-2.688h5.352l.264-2.352h-7.464v1.704q0 1.464-.096 3.192t-.384 3.528q-.264 1.8-.792 3.504-.528 1.68-1.416 3.096-.24-.216-.744-.504t-.84-.408q.864-1.368 1.344-2.952.504-1.584.744-3.24.264-1.656.336-3.24.072-1.608.072-2.976v-6.696q2.184-.096 4.488-.24 2.328-.144 4.56-.336 2.232-.216 4.176-.48 1.944-.288 3.36-.6l1.44 1.44q-1.392.312-3.048.552t-3.48.432L-33.408-15h8.208v1.608h-8.376l-.336 2.352h6.888v8.4h-1.872v-6.696h-10.32v6.6h-1.8zm5.76-3.96l.192-2.424q-1.92.168-3.912.312t-3.888.216V-15zM-18-15.96v1.32h11.928v-1.32zm0-2.352v1.296h11.928v-1.296zm-1.752-1.08h15.48v5.832h-15.48zm-3 6.864h21.528v1.368h-21.528zm4.272 5.976v1.392h5.568v-1.392zm7.32 0v1.392h5.808v-1.392zm-7.32-2.4v1.344h5.568v-1.344zm7.32 0v1.344h5.808v-1.344zm-11.712 8.88h9.96v-1.392h-7.944v-1.272h7.944v-1.32h-7.272v-6.024h16.608v6.024h-7.584v1.32h8.112v1.272h-8.112v1.392h10.08V1.32h-21.792z" aria-label="质量" opacity=".42"/></switch><switch><path d="M-37.152 30.208h-5.952v3.456h5.952zm1.896 0v3.456h6.168v-3.456zm-1.896-1.68v-3.432h-5.952v3.432zm1.896 0h6.168v-3.432h-6.168zm-9.72-5.208h7.824v-3.432h1.896v3.432h8.016v12.096h-8.016v2.592q0 1.032.312 1.368.312.312 1.392.312h5.088q.672 0 1.008-.312.36-.336.504-1.176.168-.864.24-2.424.36.24.864.48.528.216.936.336-.144 1.824-.48 2.904-.312 1.08-1.008 1.536-.672.48-1.968.48h-5.304q-1.344 0-2.112-.312-.744-.288-1.056-1.08-.312-.768-.312-2.16v-2.544h-5.952v1.488h-1.872zm29.4 3.408h14.4v1.68h-2.376V39.64q0 .816-.24 1.224-.216.432-.816.648-.6.192-1.656.24-1.032.048-2.592.048-.072-.36-.264-.864-.192-.48-.384-.84 1.224.024 2.256.024 1.032.024 1.344.024.336-.024.456-.144.144-.096.144-.384V28.408h-10.272zm-2.136-1.176l1.728.552q-.432.888-.936 1.776-.504.864-1.08 1.704v12.312h-1.776V31.864q-.576.672-1.176 1.272-.576.576-1.2 1.08-.168-.264-.552-.768-.36-.504-.624-.792 1.68-1.296 3.168-3.168t2.448-3.936m2.424 5.088h7.632v6.792h-5.952v1.44h-1.68zm1.68 1.512v3.768h4.296v-3.768zm4.872-12.312h1.8v1.92h5.592v1.656h-5.592v2.208h-1.8v-2.208h-6.576v2.208h-1.752v-2.208h-5.448V21.76h5.448v-1.92h1.752v1.92h6.576z" aria-label="电荷" opacity=".42"/></switch><switch><path d="M-42.264 70.136v3.528h12.84v-3.528zm0-1.704h12.84v-3.576h-12.84zm0 6.912v3.552h12.84v-3.552zm5.184-15.552l2.088.288q-.288.768-.6 1.56-.288.792-.6 1.488h8.664v18.696h-1.896V80.6h-12.84v1.344h-1.824V63.128h6.072q.264-.792.528-1.704t.408-1.632m17.136.696l1.632-.528q.528.792 1.032 1.728.528.936.792 1.608l-1.272.456h4.416v1.704h-5.304l-.072 3.144h4.392v.816q-.072 3-.144 5.064-.048 2.064-.144 3.384-.096 1.296-.264 2.016-.144.696-.384 1.008-.264.408-.6.576-.312.168-.792.216-.408.048-1.056.048t-1.392-.024q-.024-.384-.144-.864-.096-.456-.288-.792.696.072 1.272.072.576.024.816.024.264 0 .432-.072.168-.048.288-.24.192-.288.312-1.248.144-.984.24-2.976t.168-5.328h-2.784q-.168 3.768-.864 6.696-.672 2.928-2.376 4.944-.216-.312-.6-.672-.384-.336-.72-.552 1.368-1.56 1.992-3.816t.792-5.136q.192-2.88.216-6.288h-2.592v-1.704h4.704q-.264-.696-.744-1.608t-.96-1.656m8.088 10.584h1.584q-.024.96-.096 1.896-.048.936-.168 1.824.408 1.584 1.008 2.568.624.96 1.392 1.512V68.768h-4.176v-1.344l-.48.6q-.24-.24-.696-.6-.432-.36-.768-.552 1.2-1.272 2.088-3.144t1.416-3.912l1.752.36q-.168.696-.408 1.392-.216.696-.48 1.368h8.88v1.656h-9.6q-.672 1.44-1.512 2.592h9.528l.264-.072 1.176.384q-.456 1.104-.936 2.28-.48 1.152-.936 1.968l-1.392-.528q.528-1.032 1.056-2.448h-3.144v4.224h4.584v1.584h-4.584v5.016q.48.12 1.008.168.552.048 1.104.048h2.856q.528-.024.792-.024-.168.312-.336.816-.144.504-.216.84h-3.192q-1.464 0-2.688-.312t-2.184-1.152q-.936-.864-1.656-2.472-.312 1.296-.864 2.4-.528 1.104-1.368 1.944-.168-.264-.504-.648-.336-.36-.648-.528 1.008-1.008 1.512-2.52.528-1.512.744-3.336t.288-3.744" aria-label="自旋" opacity=".42"/></switch></g><switch fill="#c9f" font-size="54" font-weight="700" transform="rotate(-90 415 345)"><path d="M113.9-27.238l-1.08 6.696q-1.35-.486-2.646-1.026t-2.592-1.188V2.138h-5.67v-12.42q-3.132 2.646-5.616 6.318-2.43 3.672-3.78 7.992-1.188-.756-3.078-1.512-1.836-.702-3.24-1.026 1.566-3.78 3.78-7.182 2.268-3.348 4.968-6.048h-3.51v-20.52h3.294q-2.214-2.376-4.212-5.292-1.944-2.862-3.672-6.264 1.242-.486 2.808-1.62 1.62-1.134 2.484-2.106 1.998 4.374 4.482 7.722 2.484 3.402 5.292 5.886v-12.15h5.67v16.146q3.078 1.728 6.318 2.7m-17.226-3.024v16.902q1.242-1.08 2.538-2.052 1.35-.972 2.7-1.782v-8.856q-2.646-1.782-5.238-4.212m-8.748-11.34v38.826H82.58v-25.056l-3.456-1.134V-5.8l-1.026-.108q-.972-.108-1.62-.27-4.806-.864-7.506-1.89-2.646-.972-3.78-2.322-.972-1.134-1.296-2.43-.378-1.242-.486-2.97-.108-1.404-.108-3.726t.108-4.968q1.35-.054 2.97-.594t2.808-1.35q-.216 2.43-.27 4.86-.054 2.484-.054 3.564 0 .864.054 1.404.108.54.432 1.08.81 1.188 4.59 2.214v-24.516q1.782.81 4.05 1.62 2.268.864 4.59 1.566v-6.966zM34.38-33.556h-5.832v23.166h5.832zM54.9-25.51v6.588h-4.644V1.706h-5.832v-20.628h-4.32v15.228H22.77v-9.018h-9.828q-1.35 0-1.728.378-.324.432-.324 1.836v5.346q0 .918.486 1.35.54.486 2.106.702t4.752.324q-.756 1.08-1.512 2.862-.702 1.782-1.026 3.132Q11.376 2.894 9 2.084 6.624 1.328 5.706-.292q-.918-1.566-.918-4.266v-6.912q0-3.132.756-4.86.702-1.728 2.484-2.376t4.806-.648h9.936v-6.21q-3.456-.432-6.372-1.404-2.862-.918-5.184-2.862-2.322-1.89-4.104-5.292-1.836-3.348-3.078-8.64 1.35-.486 3.186-1.62 1.782-1.08 2.862-2.16.81 4.536 1.998 7.29 1.242 2.808 2.808 4.374t3.51 2.268q1.998.702 4.374 1.026v-7.236h17.334v14.31h4.32v-19.98h5.832v19.98z" aria-label="夸克"/></switch><use href="#k" transform="translate(100 275)"/><use href="#k" transform="translate(100 525)"/><use href="#k" transform="translate(350 275)"/><use href="#k" transform="translate(350 525)"/><use href="#k" transform="translate(600 275)"/><use href="#k" transform="translate(600 525)"/><switch fill="#5c2" font-size="54" font-weight="700" transform="rotate(-90 670 600)"><path d="M84.74-45.058q.594-.162 1.566-.486 1.026-.324 2.106-.756 1.08-.378 1.836-.702.27.864 1.35 1.458 1.08.648 2.916 1.35.864.324 2.808.972 1.998.648 4.644 1.35v-4.914h6.048v6.318q1.458.324 2.916.54 1.512.27 2.97.486l-1.134 6.156q-1.188-.216-2.376-.486l-2.376-.54v8.37h-6.048v-10.044q-2.808-.864-5.508-1.836-2.7-.918-5.076-1.89v3.078h7.776v5.94h-7.776v4.266H85.55v-4.266h-5.184l.702 4.482-5.616.324-.864-4.806H63.464v-5.94h10.044l-1.728-9.558 6.21-1.296q.27 2.214.648 4.968.432 2.808.864 5.886h6.048v-4.212q0-1.296-.216-2.592t-.594-1.62m26.46 21.006V-4.72l.27 1.188-2.268 4.536Q105.8-.4 102.83-2.452q-2.916-1.998-5.4-4.536-1.35 2.808-2.754 5.454t-2.592 4.32l-5.13-3.888q1.35-1.728 3.078-4.698t3.294-5.994q-1.944-2.646-3.51-5.562t-2.808-5.94q1.242-.594 2.808-1.782 1.62-1.188 2.646-2.214 1.89 5.508 5.238 10.422 3.402 4.968 7.668 8.154v-15.336zm-25.002 0V.626h-5.886V-8.23h-9.936V2.948h-5.994v-29.7h5.994v11.988h9.936v-9.288zM38.97-25.078q1.242 2.592 2.916 5.346 1.728 2.808 3.51 5.184V-41.17h6.372v33.804l.378 1.458L48.312-.94q-3.348-3.456-6.804-8.1-3.402-4.644-5.94-9.288h-4.104v21.06H24.93v-21.06H11.862q-2.7 0-4.212-.756-1.512-.702-2.268-2.646-.756-1.998-.972-4.806t-.162-6.534q1.404-.27 3.402-1.134 1.944-.81 3.294-1.62-.108 1.89-.162 3.78t-.054 3.348q.054 1.458.054 2.052.054.918.27 1.242.27.324.972.324H24.93V-46.57h6.534v21.492z" aria-label="轻子"/></switch><use href="#l" transform="translate(100 790)"/><use href="#l" transform="translate(100 1040)"/><use href="#l" transform="translate(350 790)"/><use href="#l" transform="translate(350 1040)"/><use href="#l" transform="translate(600 790)"/><use href="#l" transform="translate(600 1040)"/><switch fill="#ff6c6c" font-size="54" font-weight="700" transform="rotate(-90 1220 50)"><path d="M288.47-23.944V1.112h-28.782v-6.426h23.166v-12.474h-23.166v-6.156zm1.89-15.12v6.156h-7.776v6.534h-5.994v-6.534h-3.456l-3.078-.054v7.236H263.9v-7.614l-.972-.108q-.756.81-2.214 2.052-1.404 1.242-2.97 2.592t-2.916 2.484q-1.296 1.134-1.89 1.62l-4.644-4.428q1.566-.918 3.726-2.43 2.214-1.512 4.212-3.078-4.266-1.026-8.316-3.078-3.996-1.998-7.236-5.346.972-.702 2.376-2.106 1.35-1.35 2.106-2.484 2.43 2.754 5.508 4.374 3.078 1.674 6.48 2.538 3.402.918 6.75 1.242v-7.614h6.156v7.992l3.078.054h3.456v-6.966h5.994v6.966zm-10.854 24.57V-8.5h-8.586q-2.16 0-4.59-.216t-4.968-.81v2.16h-13.284q-1.026 0-1.404.378t-.378 1.134v2.484q0 .702.648 1.026.648.378 2.376.54 1.782.216 5.076.324-.81 1.08-1.458 2.484-.594 1.458-.864 2.538-4.104-.27-6.48-.864-2.322-.54-3.24-1.944-.972-1.35-.972-4.05v-3.726q0-3.186 1.242-4.59t4.752-1.404h4.86q-3.402-1.944-6.48-5.076-3.078-3.078-5.508-7.668.648-.378 1.566-1.134.864-.702 1.728-1.512t1.296-1.458q2.7 5.184 5.94 8.262t6.696 4.59q3.51 1.566 6.966 2.052t6.588.486zM186.54-45.49q1.566 1.836 3.726 4.104 2.214 2.268 4.752 4.698t5.022 4.644l-4.968 3.564q-3.456-2.862-7.074-6.102-3.564-3.186-6.75-6.372zm26.892 2.214l4.212 3.618q-.756 1.512-1.782 3.348t-2.052 3.564q-.972 1.782-1.728 2.916l-4.752-3.834q.81-1.08 1.836-2.754 1.08-1.674 2.214-3.51t2.052-3.348m-9.828-3.294l4.32 3.564q-.756 1.512-1.728 3.348t-1.944 3.564q-.972 1.782-1.728 2.916l-4.806-3.726q.81-1.026 1.836-2.754 1.026-1.674 2.106-3.51t1.944-3.402m12.042 19.386v26.082h-13.284q-2.268 0-3.672-.648-1.35-.594-2.052-2.322-.702-1.782-.864-4.158-.162-2.322-.162-5.454 1.404-.27 3.132-.972t2.97-1.458l-.108 2.97v4.32q0 .702.162.918.216.27.702.27h7.02v-12.798h-18.198q-1.35 0-2.052.27-.648.27-.864 1.08-.216.864-.216 2.538v10.152q0 1.458.486 2.214.54.756 1.944 1.08 1.404.378 4.158.594-.756 1.134-1.512 2.916-.702 1.836-.972 3.24-3.888-.432-6.102-1.404T183.03-.616t-.918-5.238v-11.34q0-3.834.81-6.048.756-2.16 2.754-3.078 1.944-.864 5.508-.864zM231.9-15.466v6.75h-3.942V2.408h-5.994V-8.716h-4.374v-6.75h4.374v-13.176h-4.374v-6.642h4.374v-11.124h5.994v11.124h3.942v6.642h-3.942v13.176zm-66.344-12.798v11.772h7.344v6.21h-7.344v7.344l.216.972-.918 4.644q-3.132-.702-6.372-1.674-3.186-.918-5.454-1.836l1.242-5.562q1.08.378 2.43.702 1.404.378 2.916.756v-5.346h-7.56v6.048l.216 1.08-1.458 3.996q-5.508-1.188-9.882-3.24-4.374-1.998-7.83-4.806-1.674 2.268-2.97 4.914-1.242 2.7-2.052 5.778-.972-1.026-2.646-2.268-1.728-1.242-3.078-1.944 2.16-6.426 6.102-11.07-1.998-2.322-3.564-5.022t-2.754-5.67q1.188-.54 2.754-1.566 1.512-1.026 2.43-1.944 1.89 5.616 5.454 9.882 4.806-3.834 11.07-6.318-3.672-.324-7.56-1.134-3.834-.756-7.398-2.16t-6.426-3.726q.594-.486 1.404-1.404.81-.864 1.566-1.836.756-.918 1.134-1.62 1.566 1.242 3.348 2.16t3.672 1.566l-5.994-15.768 6.102-1.296q.81 2.7 2.052 6.318h12.528v-5.238h5.94v5.238h9.558v-5.886h5.994v17.442h-5.994v-5.562h-9.558v4.482h-5.94v-4.482h-10.368l1.674 4.482-4.428.81q4.05 1.188 8.208 1.458 4.158.324 7.668.324zm-5.94 11.772v-5.67h-7.56v5.67zm-13.23 9.828v-10.638q-5.184 2.052-9.18 5.562 2.052 1.566 4.32 2.862t4.86 2.214M92.894-24.592V-34.69h-6.48v10.098zm0 6.318h-6.48v9.882h6.48zm11.07-.216v-12.096q-1.35-1.08-2.646-2.214-1.242-1.134-2.484-2.376v12.15q2.322 2.43 5.13 4.536m10.314-12.474l-2.268 5.832-2.322-1.35v12.474l.378 1.242-3.132 4.212q-1.998-1.404-4.104-3.132-2.052-1.728-3.996-3.564v13.23H78.476v-6.372h1.782V-34.69H73.94q-1.674 0-2.538.486-.81.486-1.08 1.944t-.27 4.374v18.36q0 2.646.54 3.942.594 1.296 2.322 1.89t5.076.918q-.702 1.242-1.404 2.97-.648 1.782-.864 3.132-4.482-.54-7.02-1.728-2.484-1.188-3.51-3.726-1.026-2.484-1.026-7.074v-18.576q0-5.022.81-7.938.81-2.862 2.916-4.05t5.994-1.188h19.71l-1.188-1.62q-.594-.756-1.134-1.566.756-.27 1.89-.918 1.188-.594 2.376-1.296 1.188-.648 1.89-1.242 1.944 3.24 4.59 6.318 2.646 3.132 5.778 5.778 3.132 2.7 6.48 4.536M38.97-25.078q1.242 2.592 2.916 5.346 1.728 2.808 3.51 5.184V-41.17h6.372v33.804l.378 1.458L48.312-.94q-3.348-3.456-6.804-8.1-3.402-4.644-5.94-9.288h-4.104v21.06H24.93v-21.06H11.862q-2.7 0-4.212-.756-1.512-.702-2.268-2.646-.756-1.998-.972-4.806t-.162-6.534q1.404-.27 3.402-1.134 1.944-.81 3.294-1.62-.108 1.89-.162 3.78t-.054 3.348q.054 1.458.054 2.052.054.918.27 1.242.27.324.972.324H24.93V-46.57h6.534v21.492z" aria-label="规范玻色子"/></switch><use href="#m" transform="translate(860 275)"/><use href="#m" transform="translate(860 525)"/><use href="#m" transform="translate(860 790)"/><use href="#m" transform="translate(860 1040)"/><switch fill="#eb3" font-size="54" font-weight="700" transform="rotate(-90 940 -410)"><path d="M-7.448-23.782V.032h-6.048v-23.814zM-32.99-7.258l1.836 5.346Q-33.854-.67-36.932.41q-3.078 1.134-5.994 1.998t-5.184 1.188l-2.106-5.832q2.214-.27 5.184-1.026t6.102-1.782q3.186-1.026 5.94-2.214m1.62-16.632l-1.35 5.832q-3.132-.756-6.318-1.89t-5.994-2.484q-2.808-1.296-4.914-2.7.486-.54 1.134-1.512.648-.918 1.242-1.89.648-.972.972-1.674 2.808 2.052 6.912 3.672 4.104 1.674 8.316 2.646m11.016-2.376V3.056h-6.048v-12.15h-20.844q-2.376 0-3.834-.486-1.458-.432-2.268-1.998-.81-1.512-.972-3.564-.216-1.998-.216-4.752 1.404-.108 3.348-.648 1.89-.54 3.294-1.188-.054 1.62-.054 3.078v2.052q0 .54.162.702.162.216.702.216h20.682v-10.584zM-4.1-39.658v6.426h-10.692v6.318h-5.994v-6.318h-1.134q-.648.594-1.89 1.62-1.188 1.026-2.592 2.16-1.35 1.134-2.484 2.052t-1.62 1.296l-5.13-3.456q1.242-.54 2.97-1.566t3.456-2.106h-25.596v-6.426h22.14q-3.348-1.08-6.372-2.43-2.97-1.296-5.076-2.754 1.35-.432 3.186-1.458 1.89-.972 3.132-1.836 1.944 1.566 4.752 2.916 2.862 1.404 6.048 2.484 3.186 1.134 6.21 1.836v-6.264h5.994v7.506zm-68.936 6.21h-1.836v22.464h1.836zm4.968 0h-1.836v22.464h1.836zm3.294-6.21V-4.45h-13.392v-35.208zm-15.012-6.858V2.678h-4.644v-49.194zm-14.796 11.934h-1.89v9.396h1.89zm0 15.66h-1.89v9.45h1.89zm5.13-15.66h-1.89v9.396h1.89zm0 15.66h-1.89v9.45h1.89zm-18.36-27.702v21.438h1.998v-16.578h4.104v16.578h1.782V-40.63h13.878V-3.1h-13.878v-15.822h-1.782v16.848h-4.104v-16.848h-1.998V2.786h-4.698v-49.41zm-21.632 18.36v11.772h7.344v6.21h-7.344v7.344l.216.972-.918 4.644q-3.132-.702-6.372-1.674-3.186-.918-5.454-1.836l1.242-5.562q1.08.378 2.43.702 1.404.378 2.916.756v-5.346h-7.56v6.048l.216 1.08-1.458 3.996q-5.508-1.188-9.882-3.24-4.374-1.998-7.83-4.806-1.674 2.268-2.97 4.914-1.242 2.7-2.052 5.778-.972-1.026-2.646-2.268-1.728-1.242-3.078-1.944 2.16-6.426 6.102-11.07-1.998-2.322-3.564-5.022t-2.754-5.67q1.188-.54 2.754-1.566 1.512-1.026 2.43-1.944 1.89 5.616 5.454 9.882 4.806-3.834 11.07-6.318-3.672-.324-7.56-1.134-3.834-.756-7.398-2.16t-6.426-3.726q.594-.486 1.404-1.404.81-.864 1.566-1.836.756-.918 1.134-1.62 1.566 1.242 3.348 2.16t3.672 1.566l-5.994-15.768 6.102-1.296q.81 2.7 2.052 6.318h12.528v-5.238h5.94v5.238h9.558v-5.886h5.994v17.442h-5.994v-5.562h-9.558v4.482h-5.94v-4.482h-10.368l1.674 4.482-4.428.81q4.05 1.188 8.208 1.458 4.158.324 7.668.324zm-5.94 11.772v-5.67h-7.56v5.67zm-13.23 9.828v-10.638q-5.184 2.052-9.18 5.562 2.052 1.566 4.32 2.862t4.86 2.214m-53.492-17.928V-34.69h-6.48v10.098zm0 6.318h-6.48v9.882h6.48zm11.07-.216v-12.096q-1.35-1.08-2.646-2.214-1.242-1.134-2.484-2.376v12.15q2.322 2.43 5.13 4.536m10.314-12.474l-2.268 5.832-2.322-1.35v12.474l.378 1.242-3.132 4.212q-1.998-1.404-4.104-3.132-2.052-1.728-3.996-3.564v13.23h-20.358v-6.372h1.782V-34.69h-6.318q-1.674 0-2.538.486-.81.486-1.08 1.944t-.27 4.374v18.36q0 2.646.54 3.942.594 1.296 2.322 1.89t5.076.918q-.702 1.242-1.404 2.97-.648 1.782-.864 3.132-4.482-.54-7.02-1.728-2.484-1.188-3.51-3.726-1.026-2.484-1.026-7.074v-18.576q0-5.022.81-7.938.81-2.862 2.916-4.05t5.994-1.188h19.71l-1.188-1.62q-.594-.756-1.134-1.566.756-.27 1.89-.918 1.188-.594 2.376-1.296 1.188-.648 1.89-1.242 1.944 3.24 4.59 6.318 2.646 3.132 5.778 5.778 3.132 2.7 6.48 4.536m-75.308 5.886q1.242 2.592 2.916 5.346 1.728 2.808 3.51 5.184V-41.17h6.372v33.804l.378 1.458-3.834 4.968q-3.348-3.456-6.804-8.1-3.402-4.644-5.94-9.288h-4.104v21.06h-6.534v-21.06h-13.068q-2.7 0-4.212-.756-1.512-.702-2.268-2.646-.756-1.998-.972-4.806t-.162-6.534q1.404-.27 3.402-1.134 1.944-.81 3.294-1.62-.108 1.89-.162 3.78t-.054 3.348q.054 1.458.054 2.052.054.918.27 1.242.27.324.972.324h12.906V-46.57h6.534v21.492z" aria-label="标量玻色子"/></switch><use href="#n" transform="translate(1120 275)"/></svg>