<svg xmlns="http://www.w3.org/2000/svg" viewBox="0 0 720 600"><path fill="#fff" d="M0 0h720v600H0z"/><path fill="#e0e0e0" d="M114 19.5h536.8v513.3H114z"/><path fill="none" stroke="#000" stroke-width="2" d="M114 532.8h15m521.8 0h-15M114 424.7h15m521.8 0h-15M114 316.7h15m521.8 0h-15M114 208.6h15m521.8 0h-15M114 100.5h15m521.8 0h-15M114 505.8h7.5m529.3 0h-7.5m-529.3-27h7.5m529.3 0h-7.5m-529.3-27h7.5m529.3 0h-7.5M114 397.7h7.5m529.3 0h-7.5m-529.3-27h7.5m529.3 0h-7.5m-529.3-27h7.5m529.3 0h-7.5m-529.3-54h7.5m529.3 0h-7.5M114 262.6h7.5m529.3 0h-7.5m-529.3-27h7.5m529.3 0h-7.5m-529.3-54h7.5m529.3 0h-7.5m-529.3-27h7.5m529.3 0h-7.5m-529.3-27h7.5m529.3 0h-7.5M114 73.5h7.5m529.3 0h-7.5M114 46.5h7.5m529.3 0h-7.5M114 19.5h7.5m529.3 0h-7.5M114 532.8v-15m0-498.3v15m134.2 498.3v-15m0-498.3v15m134.2 498.3v-15m0-498.3v15m134.2 498.3v-15m0-498.3v15m134.2 498.3v-15m0-498.3v15m-510 498.3v-7.5m0-505.8V27m26.9 505.8v-7.5m0-505.8V27m26.8 505.8v-7.5m0-505.8V27m26.9 505.8v-7.5m0-505.8V27M275 532.8v-7.5m0-505.8V27m26.9 505.8v-7.5m0-505.8V27m26.8 505.8v-7.5m0-505.8V27m26.9 505.8v-7.5m0-505.8V27m53.6 505.8v-7.5m0-505.8V27m26.9 505.8v-7.5m0-505.8V27m26.8 505.8v-7.5m0-505.8V27m26.9 505.8v-7.5m0-505.8V27m53.6 505.8v-7.5m0-505.8V27m26.9 505.8v-7.5m0-505.8V27m26.8 505.8v-7.5m0-505.8V27M624 532.8v-7.5m0-505.8V27m-510-7.5h536.8v513.3H114z"/><g fill="none" stroke-width="3"><path stroke="#900" d="M89.4 532.8h54.2l5.5-.1 5.4-.2 5.4-.4 5.4-.7 5.5-.9 5.4-1.3 5.4-1.6 5.4-2 5.4-2.4 5.5-2.5 5.4-2.9 5.4-2.9 5.4-3 5.5-3.1 5.4-2.9 5.4-2.9 5.4-2.7 5.4-2.6 5.5-2.3 5.4-2.1 5.4-1.9 5.4-1.7 5.5-1.4 5.4-1.2 5.4-1 5.4-.7 5.4-.6 5.5-.4 5.4-.2 5.4-.1 5.4.1 5.5.2 5.4.3 5.4.4 5.4.5 5.4.5 5.5.7 5.4.7 5.4.7 5.4.8 5.5.8 5.4.9 5.4.8 5.4.9 5.4.9 5.5.9 5.4.9 5.4.9 5.4.9 5.5.9 5.4.9 5.4.8 5.4.9 5.4.8 5.5.9 5.4.8 5.4.8 5.4.8 5.5.7 5.4.8 5.4.7 5.4.7 5.4.7 5.5.7 5.4.7 5.4.6 5.4.6 5.5.6 5.4.6 5.4.6 5.4.6 5.4.5 5.5.5 5.4.6 5.4.5 5.4.4 5.5.5 5.4.5 5.4.4 5.4.4 5.4.4 5.5.4 5.4.4 5.4.4 5.4.4 5.5.3 5.4.4 5.4.3h.01" transform="translate(30)"/><path stroke="red" d="M89.4 532.8h43.4l5.4-.1 5.4-.4 5.5-.7 5.4-1.2 5.4-2.1 5.4-2.9 5.5-3.8 5.4-4.8 5.4-5.5 5.4-6.1 5.4-6.5 5.5-6.7 5.4-6.7 5.4-6.6 5.4-6.3 5.5-5.9 5.4-5.4 5.4-4.8 5.4-4.3 5.4-3.6 5.5-3.1 5.4-2.5 5.4-1.9 5.4-1.4 5.5-1 5.4-.5 5.4-.2 5.4.3 5.4.5 5.5.8 5.4 1 5.4 1.3 5.4 1.4 5.5 1.5 5.4 1.7 5.4 1.8 5.4 1.9 5.4 1.9 5.5 1.9 5.4 2 5.4 2 5.4 2 5.5 2 5.4 2 5.4 2 5.4 1.9 5.4 1.9 5.5 1.9 5.4 1.8 5.4 1.8 5.4 1.8 5.5 1.7 5.4 1.7 5.4 1.6 5.4 1.6 5.4 1.6 5.5 1.5 5.4 1.4 5.4 1.4 5.4 1.4 5.5 1.3 5.4 1.3 5.4 1.2 5.4 1.2 5.4 1.2 5.5 1.1 5.4 1.1 5.4 1.1 5.4 1 5.5.9 5.4 1 5.4.9 5.4.9 5.4.8 5.5.8 5.4.8 5.4.8 5.4.7 5.5.8 5.4.6 5.4.7 5.4.7 5.4.6 5.5.6 5.4.6 5.4.5 5.4.6 5.5.5 5.4.5 5.4.5h.01" transform="translate(30)"/><path stroke="#f60" d="M89.4 532.8H122l5.4-.1 5.4-.2 5.4-.8 5.4-1.7 5.5-3.2 5.4-5.1 5.4-7.2 5.4-9.3 5.5-11.1 5.4-12.4 5.4-13.3 5.4-13.7 5.4-13.6 5.5-13 5.4-12.2 5.4-11.1 5.4-9.9 5.5-8.5 5.4-7.2 5.4-5.8 5.4-4.6 5.4-3.3 5.5-2.3 5.4-1.2 5.4-.3 5.4.5 5.5 1.1 5.4 1.8 5.4 2.3 5.4 2.7 5.4 3.1 5.5 3.4 5.4 3.6 5.4 3.7 5.4 3.9 5.5 4 5.4 4 5.4 4.1 5.4 4.1 5.4 4 5.5 4 5.4 3.9 5.4 3.9 5.4 3.8 5.5 3.7 5.4 3.6 5.4 3.5 5.4 3.4 5.4 3.4 5.5 3.2 5.4 3.1 5.4 3 5.4 2.9 5.5 2.8 5.4 2.7 5.4 2.6 5.4 2.5 5.4 2.5 5.5 2.3 5.4 2.2 5.4 2.2 5.4 2.1 5.5 2 5.4 1.9 5.4 1.9 5.4 1.8 5.4 1.7 5.5 1.6 5.4 1.6 5.4 1.5 5.4 1.5 5.5 1.4 5.4 1.3 5.4 1.3 5.4 1.3 5.4 1.2 5.5 1.2 5.4 1.1 5.4 1 5.4 1.1 5.5 1 5.4.9 5.4.9 5.4.9 5.4.9 5.5.8 5.4.8 5.4.8 5.4.7 5.5.7 5.4.7 5.4.6h.01" transform="translate(30)"/><path stroke="#fc0" d="M89.4 532.8h27.1l5.5-.1 5.4-.4 5.4-1.3 5.4-3.4 5.4-6.6 5.5-10.7 5.4-15.1 5.4-19.2 5.4-22.5 5.5-24.7 5.4-25.7 5.4-25.5 5.4-24.5 5.4-22.6 5.5-20.3 5.4-17.6 5.4-14.8 5.4-12 5.5-9.2 5.4-6.7 5.4-4.3 5.4-2.2 5.4-.3 5.5 1.3 5.4 2.6 5.4 3.9 5.4 4.8 5.5 5.6 5.4 6.3 5.4 6.7 5.4 7.1 5.4 7.4 5.5 7.5 5.4 7.6 5.4 7.7 5.4 7.6 5.5 7.5 5.4 7.4 5.4 7.3 5.4 7.1 5.4 7 5.5 6.7 5.4 6.6 5.4 6.3 5.4 6.1 5.5 6 5.4 5.6 5.4 5.5 5.4 5.3 5.4 5.1 5.5 4.8 5.4 4.7 5.4 4.5 5.4 4.3 5.5 4.1 5.4 3.9 5.4 3.8 5.4 3.6 5.4 3.5 5.5 3.3 5.4 3.2 5.4 3 5.4 2.9 5.5 2.8 5.4 2.7 5.4 2.5 5.4 2.5 5.4 2.3 5.5 2.2 5.4 2.2 5.4 2 5.4 2 5.5 1.9 5.4 1.8 5.4 1.7 5.4 1.7 5.4 1.6 5.5 1.5 5.4 1.5 5.4 1.4 5.4 1.4 5.5 1.3 5.4 1.2 5.4 1.2 5.4 1.2 5.4 1.1 5.5 1 5.4 1 5.4 1 5.4 1 5.5.9 5.4.8 5.4.9h.01" transform="translate(30)"/><path stroke="#0c0" d="M89.4 532.8h27.1l5.5-.4 5.4-1.9 5.4-5.4 5.4-11.4 5.4-19.3 5.5-27.9 5.4-35.6 5.4-41.4 5.4-44.8 5.5-45.5 5.4-44.2 5.4-41 5.4-36.6 5.4-31.4 5.5-26 5.4-20.5 5.4-15.1 5.4-10.4 5.5-5.9 5.4-2 5.4 1.3 5.4 4.2 5.4 6.5 5.5 8.5 5.4 10 5.4 11.2 5.4 12.1 5.5 12.7 5.4 13.2 5.4 13.5 5.4 13.5 5.4 13.5 5.5 13.4 5.4 13.1 5.4 12.9 5.4 12.6 5.5 12.2 5.4 11.9 5.4 11.4 5.4 11 5.4 10.6 5.5 10.2 5.4 9.8 5.4 9.3 5.4 9 5.5 8.5 5.4 8.2 5.4 7.8 5.4 7.5 5.4 7.1 5.5 6.8 5.4 6.5 5.4 6.2 5.4 5.8 5.5 5.7 5.4 5.3 5.4 5.1 5.4 4.9 5.4 4.6 5.5 4.4 5.4 4.2 5.4 4 5.4 3.9 5.5 3.6 5.4 3.5 5.4 3.3 5.4 3.2 5.4 3 5.5 2.9 5.4 2.8 5.4 2.6 5.4 2.5 5.5 2.4 5.4 2.3 5.4 2.2 5.4 2.2 5.4 2 5.5 1.9 5.4 1.8 5.4 1.8 5.4 1.7 5.5 1.6 5.4 1.6 5.4 1.5 5.4 1.4 5.4 1.4 5.5 1.3 5.4 1.3 5.4 1.2 5.4 1.1 5.5 1.2 5.4 1 5.4 1.1h.01" transform="translate(30)"/></g><path fill="none" stroke="#000" stroke-width="3" d="M114 19.5h536.8v513.3H114z"/><g font-family="Arial" font-size="14pt"><g text-anchor="end"><switch><text transform="translate(104.3 538)"><tspan>0</tspan></text></switch><switch><text transform="translate(104.3 429.9)"><tspan>2E+11</tspan></text></switch><switch><text transform="translate(104.3 321.9)"><tspan>4E+11</tspan></text></switch><switch><text transform="translate(104.3 213.8)"><tspan>6E+11</tspan></text></switch><switch><text transform="translate(104.3 105.7)"><tspan>8E+11</tspan></text></switch></g><g text-anchor="middle"><switch><text transform="translate(114 559)"><tspan>0</tspan></text></switch><switch><text transform="translate(248.2 559)"><tspan>500</tspan></text></switch><switch><text transform="translate(382.4 559)"><tspan>1000</tspan></text></switch><switch><text transform="translate(516.6 559)"><tspan>1500</tspan></text></switch><switch><text transform="translate(650.8 559)"><tspan>2000</tspan></text></switch></g><g text-anchor="middle"><switch><text transform="rotate(-90 153.35 122.85)"><tspan>光谱能量密度 / kJ/m</tspan><tspan dy="-5" font-size="13.33">3</tspan> <tspan dy="5">nm</tspan></text></switch><switch><text transform="translate(382.4 590.5)"><tspan>波长 / nm</tspan></text></switch></g></g><g font-family="Arial" font-size="14pt" text-anchor="middle"><switch><text x="336.3" y="479.1"><tspan>3500K</tspan></text></switch><switch><text x="309.2" y="432.8"><tspan>4000K</tspan></text></switch><switch><text x="287.5" y="356.7"><tspan>4500K</tspan></text></switch><switch><text x="271.2" y="238.1"><tspan>5000K</tspan></text></switch><switch><text x="260.4" y="62.4"><tspan>5500K</tspan></text></switch></g></svg>