<svg xml:space="preserve" style="overflow:visible" viewBox="0 0 297.9 148.4"><path d="m77.6 41.9 2.2.5a7 7 0 0 1-2.5 4A7 7 0 0 1 73 48q-2.7 0-4.3-1-1.6-1.1-2.5-3.2a11 11 0 0 1 .1-8.8 7 7 0 0 1 2.8-3 8 8 0 0 1 4-1q2.5 0 4 1.3 1.8 1.3 2.4 3.5l-2.2.6a5 5 0 0 0-1.6-2.6q-1-.9-2.7-.9-2 0-3.1 1-1.4.8-1.8 2.4-.6 1.5-.5 3.1 0 2.1.6 3.6t1.9 2.4 2.7.7q1.9 0 3-1 1.4-1.1 1.8-3.1m4.2-2.3q0-4.2 2.1-6.4a7 7 0 0 1 5.7-2.3q2.2 0 4 1a7 7 0 0 1 2.8 3q1 2 1 4.5 0 2.4-1 4.4a7 7 0 0 1-2.9 3 8 8 0 0 1-8-.1 7 7 0 0 1-2.8-3q-1-2-1-4.1m2.2 0q0 3 1.6 4.6 1.6 1.8 4 1.7 2.5 0 4-1.7a7 7 0 0 0 1.5-4.9q0-2-.6-3.4a5 5 0 0 0-5-3.2q-2.2 0-3.9 1.6-1.5 1.5-1.6 5.3m15.6 0q0-4.2 2.2-6.4a7 7 0 0 1 5.6-2.3q2.3 0 4 1a7 7 0 0 1 2.9 3q1 2 1 4.5 0 2.4-1 4.4a7 7 0 0 1-3 3 8 8 0 0 1-8-.1 7 7 0 0 1-2.8-3q-.9-2-.9-4.1m2.2 0q0 3 1.6 4.6 1.5 1.8 4 1.7 2.5 0 4-1.7a7 7 0 0 0 1.6-4.9q0-2-.7-3.4a5 5 0 0 0-4.9-3.2q-2.2 0-4 1.6-1.5 1.5-1.6 5.3m16.3 7.9V31.3h2.1V38h8.5v-6.7h2.2v16.3h-2.2v-7.7H120v7.7zm-40.4 32 2.2.5a7 7 0 0 1-2.5 4.1 7 7 0 0 1-4.3 1.4q-2.7 0-4.3-1-1.6-1.1-2.5-3.2a11 11 0 0 1 .1-8.8 7 7 0 0 1 2.8-3 8 8 0 0 1 4-.9q2.5 0 4 1.3 1.8 1.2 2.4 3.5l-2.2.5a5 5 0 0 0-1.6-2.6q-1-.8-2.7-.8-2 0-3.1.9-1.4.9-1.8 2.4-.6 1.5-.5 3.1 0 2 .6 3.7.6 1.5 1.9 2.3t2.7.7q1.9 0 3-1 1.4-1 1.8-3.1m-6-29.6h1.6v16.5h-1.6zm30.9 45V78.8h2.1v6.7h8.5v-6.7h2.2v16.4H113v-7.7h-8.5V95zm-2.6-15-2 7-1.4-.7 1.7-6.5zm-5.3-.6-1.4 5.4-1.5-.7 1.3-4.9zm-5.2-.5-1 3.7-1.5-.7.9-3.2zm-5.3-.5-.5 2-1.5-.6.4-1.6zM7.4 104.1V87.8h2.2v6.7h8.5v-6.7h2.1v16.3h-2.1v-7.7H9.6v7.7zm14.7 1.1 1.5-.2q.3 1.2 1 1.8.5.6 1.4.6 1.2 0 1.8-.8.8-.7.8-1.8 0-1-.7-1.7t-1.7-.7l-1.1.2.2-1.3h.2q1 0 1.7-.5.9-.5.8-1.6 0-.8-.5-1.3a2 2 0 0 0-1.5-.6 2 2 0 0 0-1.5.6q-.6.6-.7 1.7l-1.5-.3q.3-1.5 1.2-2.4 1-.8 2.5-.8a4 4 0 0 1 1.8.4 3 3 0 0 1 1.8 2.8q0 .8-.5 1.4a3 3 0 0 1-1.2 1q1 .3 1.7 1.1t.6 2q0 1.6-1.2 2.7-1.2 1-3 1.1-1.6 0-2.6-1a4 4 0 0 1-1.3-2.4m21.5-6.8 2.2.5a7 7 0 0 1-2.5 4.1 7 7 0 0 1-4.3 1.4q-2.7 0-4.3-1-1.6-1.1-2.5-3.2a11 11 0 0 1 .1-8.8 7 7 0 0 1 2.8-2.9 8 8 0 0 1 4-1q2.5 0 4 1.3 1.8 1.2 2.4 3.5l-2.2.5a5 5 0 0 0-1.6-2.6q-1-.8-2.7-.8-1.9 0-3.2.9-1.2.9-1.7 2.4t-.5 3.1q0 2 .6 3.7.6 1.5 1.9 2.3t2.7.8q1.8 0 3-1.1 1.4-1 1.8-3.1m5.2-7.5-.8-1.4 15.2-8.8.8 1.4zm25.5 22.9q0-4.2 2.2-6.4a7 7 0 0 1 5.6-2.3q2.3 0 4.1 1a7 7 0 0 1 2.8 3q1 2 1 4.5 0 2.4-1 4.4a7 7 0 0 1-3 3 8 8 0 0 1-8-.1 7 7 0 0 1-2.7-3q-1-2-1-4.1m2.2 0q0 3 1.6 4.6 1.6 1.8 4 1.7 2.4 0 4-1.7a7 7 0 0 0 1.6-4.9q0-2-.7-3.4a5 5 0 0 0-4.8-3.2q-2.4 0-4 1.6-1.7 1.5-1.7 5.3m16.3 7.9v-16.3H95v6.7h8.4v-6.7h2.2v16.3h-2.2V114H95v7.7zm-9.7-19.5-7 2-1.5-16.6 1.6-.4z" style="fill:#231f20"/><path d="M148.2 144.7V3.7" style="fill:none;stroke:#231f20;stroke-width:1.35000002;stroke-dasharray:4.25"/><path d="M167.1 47.6V31.3h2.2V38h8.4v-6.7h2.2v16.3h-2.2v-7.7h-8.4v7.7zm15.7-7.9q0-4.2 2.2-6.4a7 7 0 0 1 5.7-2.3q2.2 0 4 1a7 7 0 0 1 2.8 3q1 2 1 4.5 0 2.4-1 4.4a7 7 0 0 1-2.9 3 8 8 0 0 1-8-.1 7 7 0 0 1-2.8-3q-1-2-1-4.1m2.3 0q0 3 1.6 4.6 1.5 1.8 4 1.7 2.4 0 4-1.7a7 7 0 0 0 1.5-4.9q0-2-.6-3.4a5 5 0 0 0-5-3.2q-2.2 0-3.9 1.6-1.6 1.5-1.6 5.3m15.5 0q0-4.2 2.2-6.4a7 7 0 0 1 5.6-2.3q2.3 0 4 1a7 7 0 0 1 2.8 3q1 2 1 4.5 0 2.4-1 4.4a7 7 0 0 1-2.9 3 8 8 0 0 1-8-.1 7 7 0 0 1-2.8-3q-1-2-1-4.1m2.2 0q0 3 1.6 4.6 1.5 1.8 4 1.7 2.4 0 4-1.7a7 7 0 0 0 1.6-4.9q0-2-.7-3.4a5 5 0 0 0-4.9-3.2q-2.2 0-4 1.6-1.6 1.5-1.6 5.3m27.9 2.2 2.2.5a7 7 0 0 1-2.5 4A7 7 0 0 1 226 48q-2.6 0-4.3-1-1.6-1.1-2.5-3.2a11 11 0 0 1 .1-8.8 7 7 0 0 1 2.8-3 8 8 0 0 1 4-1q2.4 0 4 1.3 1.8 1.3 2.4 3.5l-2.1.6a5 5 0 0 0-1.7-2.6q-1-.9-2.7-.9t-3.1 1q-1.3.8-1.8 2.4t-.5 3.1q0 2.1.6 3.6t1.9 2.4 2.7.7q1.8 0 3.1-1 1.2-1.1 1.7-3.1m0 37.6 2.2.5a7 7 0 0 1-2.5 4.1 7 7 0 0 1-4.3 1.4q-2.7 0-4.3-1-1.6-1.1-2.5-3.2a11 11 0 0 1 .1-8.8 7 7 0 0 1 2.8-3 8 8 0 0 1 4-.9q2.4 0 4 1.3 1.8 1.2 2.4 3.5l-2.2.5a5 5 0 0 0-1.6-2.6q-1-.8-2.7-.8-1.9 0-3.2.9-1.2.9-1.7 2.4t-.5 3.1q0 2 .6 3.7.6 1.5 1.9 2.3t2.7.7q1.8 0 3-1 1.4-1 1.8-3.1m-6-29.6h1.6v16.5h-1.6zm-42 45V78.8h2.2v6.7h8.4v-6.7h2.2v16.4h-2.2v-7.7h-8.4V95zm17.3-8-1.9-7.1 1.6-.2 1.8 6.6zm4.9-2.3-1.4-5.4 1.6-.1 1.4 4.8zm5-2.2-1-3.7 1.7-.2.8 3.2zm5-2.2-.5-2.1 1.6-.2.4 1.6zm48.4 18.1 2.1.5a7 7 0 0 1-2.4 4.1 7 7 0 0 1-4.3 1.4q-2.7 0-4.3-1-1.7-1.1-2.5-3.2a11 11 0 0 1 .1-8.8 7 7 0 0 1 2.8-2.9 8 8 0 0 1 4-1q2.4 0 4 1.3 1.7 1.2 2.4 3.5l-2.2.5a5 5 0 0 0-1.6-2.6q-1-.8-2.7-.8-1.9 0-3.2.9-1.2.9-1.7 2.4t-.6 3.1q0 2 .7 3.7.6 1.5 1.8 2.3t2.8.8q1.8 0 3-1.1 1.4-1 1.8-3.1m4.8 5.7V87.8h2.3v6.7h8.4v-6.7h2.2v16.3h-2.2v-7.7h-8.4v7.7zm14.4 1.1 1.5-.2q.2 1.2.9 1.8t1.5.6q1 0 1.8-.8.7-.7.7-1.8a2.3 2.3 0 0 0-2.4-2.4l-1 .2.1-1.3h.3q1 0 1.7-.5.8-.5.8-1.6 0-.8-.6-1.3a2 2 0 0 0-1.4-.6 2 2 0 0 0-1.5.6q-.6.6-.8 1.7l-1.5-.3q.3-1.5 1.3-2.4t2.4-.8a4 4 0 0 1 1.9.4 3 3 0 0 1 1.7 2.8q0 .8-.4 1.4a3 3 0 0 1-1.3 1q1 .3 1.7 1.1t.6 2q0 1.6-1.2 2.7-1 1-3 1.1-1.5 0-2.6-1a4 4 0 0 1-1.2-2.4m-32.1-15.4-.8 1.4-15.2-8.7.9-1.5zm-58.1 31.9v-16.3h2.2v6.7h8.4v-6.7h2.2v16.3h-2.2V114h-8.4v7.7zm15.8-7.9q0-4.2 2.1-6.4a7 7 0 0 1 5.6-2.3q2.3 0 4.1 1a7 7 0 0 1 2.8 3q1 2 1 4.5 0 2.4-1 4.4a7 7 0 0 1-3 3 8 8 0 0 1-8-.1 7 7 0 0 1-2.7-3q-1-2-1-4.1m2.1 0q0 3 1.6 4.6 1.6 1.8 4 1.7 2.5 0 4-1.7a7 7 0 0 0 1.6-4.9q0-2-.7-3.4a5 5 0 0 0-4.8-3.2q-2.4 0-4 1.6-1.7 1.5-1.7 5.3m11.7-9.7-7-1.9 7-15.1 1.5.4z" style="fill:#231f20"/></svg>