<svg xmlns="http://www.w3.org/2000/svg" viewBox="0 0 325 345"><path d="M118 63v32m94-32v32m62 34h-32m-124 30v32m94-32v32m-63-62h32m-63 124v32m94-32v32M86 129H54m220 94h-32m-93 0h32m-95 0H54" stroke="#000" stroke-width="4"/><g font-family="Arial" font-size="48"><text x="100" y="46">H</text><text x="194" y="46">H</text><text x="286" y="145">H</text><text x="286" y="239">H</text><text x="100" y="145">C</text><text x="194" y="145">C</text><text x="100" y="239">C</text><text x="194" y="239">C</text><text x="100" y="335">H</text><text x="194" y="335">H</text><text x="6" y="145">H</text><text x="6" y="239">H</text></g></svg>