<svg xmlns="http://www.w3.org/2000/svg" width="2988" height="282" overflow="hidden" xml:space="preserve" xmlns:xlink="http://www.w3.org/1999/xlink"><defs><clipPath id="a"/><clipPath id="b"/><clipPath id="c"/><clipPath id="d"/></defs><g clip-path="url(#a)" transform="translate(-706 -1100)"><g clip-path="url(#b)"><g clip-path="url(#c)"><g clip-path="url(#d)"><text font-family="Times New Roman,Times New Roman_MSFontService,sans-serif" font-size="18" font-weight="400" transform="matrix(3.13635 0 0 3.1325 1090.57 1268)">H</text><text font-family="Times New Roman,Times New Roman_MSFontService,sans-serif" font-size="18" font-weight="400" transform="matrix(3.13635 0 0 3.1325 848.873 1267)">H</text><text font-family="Times New Roman,Times New Roman_MSFontService,sans-serif" font-size="11" font-weight="400" transform="matrix(3.13635 0 0 3.1325 889.646 1267)">3</text><text font-family="Times New Roman,Times New Roman_MSFontService,sans-serif" font-size="18" font-weight="400" transform="matrix(3.13635 0 0 3.1325 908.464 1267)">C</text><text font-family="Times New Roman,Times New Roman_MSFontService,sans-serif" font-size="18" font-weight="400" transform="matrix(3.13635 0 0 3.1325 998.071 1176)">O</text><text font-family="Times New Roman,Times New Roman_MSFontService,sans-serif" font-size="18" font-weight="400" transform="matrix(3.13635 0 0 3.1325 999.681 1268)">C</text><path d="M1041.454 1245.885h45.415v3.694h-45.415v-1.847Zm-45.472 3.694h-46.988v-3.694h46.988v1.847Zm15.329-28.033-.016-39.969 1.85-.001 1.849-.001.016 39.97-1.85.001Zm11.095-.004-.015-39.97h1.849l1.849-.001.016 39.97h-1.85Z"/><text font-family="Times New Roman,Times New Roman_MSFontService,sans-serif" font-size="18" font-weight="400" transform="matrix(3.13635 0 0 3.1325 1280.64 1242)">H</text><text font-family="Times New Roman,Times New Roman_MSFontService,sans-serif" font-size="18" font-weight="400" transform="matrix(3.13635 0 0 3.1325 1374.68 1241)">C</text><text font-family="Times New Roman,Times New Roman_MSFontService,sans-serif" font-size="18" font-weight="400" transform="matrix(3.13635 0 0 3.1325 1412.31 1241)">H</text><text font-family="Times New Roman,Times New Roman_MSFontService,sans-serif" font-size="11" font-weight="400" transform="matrix(3.13635 0 0 3.1325 1453.08 1241)">2</text><text font-family="Times New Roman,Times New Roman_MSFontService,sans-serif" font-size="18" font-weight="400" transform="matrix(3.13635 0 0 3.1325 1471.9 1241)">C</text><text font-family="Times New Roman,Times New Roman_MSFontService,sans-serif" font-size="18" font-weight="400" transform="matrix(3.13635 0 0 3.1325 1509.54 1241)">H</text><text font-family="Times New Roman,Times New Roman_MSFontService,sans-serif" font-size="18" font-weight="400" transform="matrix(3.13635 0 0 3.1325 1550.31 1241)">O</text><path d="M1325.563 1219.988h45.414v3.694h-45.414v-1.847Z"/><text font-family="Times New Roman,Times New Roman_MSFontService,sans-serif" font-size="18" font-weight="400" transform="matrix(3.13635 0 0 3.1325 1189.13 1248)">+</text><text font-family="Times New Roman,Times New Roman_MSFontService,sans-serif" font-size="18" font-weight="400" transform="matrix(3.13635 0 0 3.1325 2104.3 1242)">C</text><text font-family="Times New Roman,Times New Roman_MSFontService,sans-serif" font-size="18" font-weight="400" transform="matrix(3.13635 0 0 3.1325 2196.76 1241)">C</text><text font-family="Times New Roman,Times New Roman_MSFontService,sans-serif" font-size="18" font-weight="400" transform="matrix(3.13635 0 0 3.1325 2234.39 1241)">H</text><text font-family="Times New Roman,Times New Roman_MSFontService,sans-serif" font-size="11" font-weight="400" transform="matrix(3.13635 0 0 3.1325 2275.17 1241)">2</text><text font-family="Times New Roman,Times New Roman_MSFontService,sans-serif" font-size="18" font-weight="400" transform="matrix(3.13635 0 0 3.1325 2293.98 1241)">C</text><text font-family="Times New Roman,Times New Roman_MSFontService,sans-serif" font-size="18" font-weight="400" transform="matrix(3.13635 0 0 3.1325 2331.62 1241)">H</text><text font-family="Times New Roman,Times New Roman_MSFontService,sans-serif" font-size="18" font-weight="400" transform="matrix(3.13635 0 0 3.1325 2372.39 1241)">O</text><text font-family="Times New Roman,Times New Roman_MSFontService,sans-serif" font-size="18" font-weight="400" transform="matrix(3.13635 0 0 3.1325 2102.7 1150)">O</text><text font-family="Times New Roman,Times New Roman_MSFontService,sans-serif" font-size="18" font-weight="400" transform="matrix(3.13635 0 0 3.1325 2143.47 1150)">H</text><text font-family="Times New Roman,Times New Roman_MSFontService,sans-serif" font-size="18" font-weight="400" transform="matrix(3.13635 0 0 3.1325 1953.49 1241)">H</text><text font-family="Times New Roman,Times New Roman_MSFontService,sans-serif" font-size="11" font-weight="400" transform="matrix(3.13635 0 0 3.1325 1994.26 1241)">3</text><text font-family="Times New Roman,Times New Roman_MSFontService,sans-serif" font-size="18" font-weight="400" transform="matrix(3.13635 0 0 3.1325 2013.08 1241)">C</text><path d="M2053.615 1219.988h46.988v3.694h-46.988v-1.847Zm92.454 0h46.987v3.694h-46.987v-1.847Zm-24.591-24.341-.01-39.97 1.853-.001h1.842l.01 39.969-1.842.001Zm3.715 52.376.01 39.97h-1.852l-1.843.001-.01-39.97h1.843Z"/><text font-family="Times New Roman,Times New Roman_MSFontService,sans-serif" font-size="18" font-weight="400" transform="matrix(3.13635 0 0 3.1325 2102.75 1335)">H</text><path fill="none" stroke="#000" stroke-width="3.69" d="M700.272 203.075h205.389" transform="matrix(1.00123 0 0 1 956.357 1018.76)"/><path d="m1894.569 1221.835-36.985-9.235 5.548 9.235-5.548 9.235Z"/><path fill="none" stroke="#000" stroke-width="3.69" d="M1518.09 203.075h205.39" transform="matrix(1.00123 0 0 1 956.357 1018.76)"/><path d="m2713.385 1221.835-36.985-9.235 5.557 9.235-5.557 9.235Z"/><text font-family="Times New Roman,Times New Roman_MSFontService,sans-serif" font-size="18" font-weight="400" transform="matrix(3.13635 0 0 3.1325 2812.52 1243)">H</text><text font-family="Times New Roman,Times New Roman_MSFontService,sans-serif" font-size="11" font-weight="400" transform="matrix(3.13635 0 0 3.1325 2853.29 1243)">3</text><text font-family="Times New Roman,Times New Roman_MSFontService,sans-serif" font-size="18" font-weight="400" transform="matrix(3.13635 0 0 3.1325 2872.11 1243)">C</text><path d="M2912.64 1222.419h46.988v3.694h-46.988v-1.847Z"/><text font-family="Times New Roman,Times New Roman_MSFontService,sans-serif" font-size="18" font-weight="400" transform="matrix(3.13635 0 0 3.1325 2963.32 1200)">H</text><text font-family="Times New Roman,Times New Roman_MSFontService,sans-serif" font-size="18" font-weight="400" transform="matrix(3.13635 0 0 3.1325 2963.32 1250)">C</text><path d="M3005.104 1211.337h46.988v3.694h-46.988v-1.847Zm0 11.082h46.988v3.694h-46.988v-1.847Z"/><text font-family="Times New Roman,Times New Roman_MSFontService,sans-serif" font-size="18" font-weight="400" transform="matrix(3.13635 0 0 3.1325 3055.79 1200)">H</text><text font-family="Times New Roman,Times New Roman_MSFontService,sans-serif" font-size="18" font-weight="400" transform="matrix(3.13635 0 0 3.1325 3055.79 1250)">C</text><path d="M3097.557 1222.419h46.988v3.694h-46.988v-1.847Z"/><text font-family="Times New Roman,Times New Roman_MSFontService,sans-serif" font-size="18" font-weight="400" transform="matrix(3.13635 0 0 3.1325 3148.25 1245)">C</text><text font-family="Times New Roman,Times New Roman_MSFontService,sans-serif" font-size="18" font-weight="400" transform="matrix(3.13635 0 0 3.1325 3185.88 1245)">H</text><text font-family="Times New Roman,Times New Roman_MSFontService,sans-serif" font-size="18" font-weight="400" transform="matrix(3.13635 0 0 3.1325 3226.66 1245)">O</text><text font-family="Times New Roman,Times New Roman_MSFontService,sans-serif" font-size="18" font-weight="400" transform="matrix(3.13635 0 0 3.1325 3442.16 1226)">H</text><text font-family="Times New Roman,Times New Roman_MSFontService,sans-serif" font-size="11" font-weight="400" transform="matrix(3.13635 0 0 3.1325 3482.93 1226)">2</text><text font-family="Times New Roman,Times New Roman_MSFontService,sans-serif" font-size="18" font-weight="400" transform="matrix(3.13635 0 0 3.1325 3501.75 1226)">O</text><text font-family="Times New Roman,Times New Roman_MSFontService,sans-serif" font-size="18" font-weight="400" transform="matrix(3.13635 0 0 3.1325 3339.21 1230)">+</text></g></g></g><text font-family="Cambria Math,Cambria Math_MSFontService,sans-serif" font-size="32" font-weight="400" transform="translate(1384.32 1295)">𝛼</text><text font-family="Cambria Math,Cambria Math_MSFontService,sans-serif" font-size="32" font-weight="400" transform="translate(1254.78 1295)">𝛼</text><text font-family="Cambria Math,Cambria Math_MSFontService,sans-serif" font-size="32" font-weight="400" transform="translate(1282.35 1295)">−</text><text font-family="Cambria Math,Cambria Math_MSFontService,sans-serif" font-size="32" font-weight="400" transform="translate(1313.54 1295)">𝐻</text><text font-family="Cambria Math,Cambria Math_MSFontService,sans-serif" font-size="28" font-weight="400" transform="translate(977.328 1302)">𝛿</text><text font-family="Cambria Math,Cambria Math_MSFontService,sans-serif" font-size="20" font-weight="400" transform="translate(993.828 1292)">+</text><text font-family="Cambria Math,Cambria Math_MSFontService,sans-serif" font-size="28" font-weight="400" transform="translate(977.329 1149)">𝛿</text><text font-family="Cambria Math,Cambria Math_MSFontService,sans-serif" font-size="20" font-weight="400" transform="translate(993.829 1139)">−</text><path fill="#172c51" d="m1312.55 1191.537.224-9.164-2.292-.055-.223 9.163Zm.355-16.075-.083-9.166-2.29.02.082 9.167Zm-.33-16.115-.742-9.137-2.285.186.743 9.136Zm-1.702-16.037-.326-1.96-1.549-6.31-.285-.826-2.166.748.268.775-.03-.1 1.525 6.216-.017-.084.32 1.918Zm-4.606-15.649-1.966-4.146-2.554-3.975-1.929 1.239 2.515 3.913-.071-.128 1.935 4.08Zm-8.978-13.555-.268-.31-4.761-4.042-2.44-1.497-1.199 1.954 2.365 1.45-.142-.103 4.627 3.929-.123-.123.21.243Zm-13.699-9.095-3.365-1.437-5.454-1.513-.612 2.209 5.38 1.492-.144-.05 3.295 1.407Zm-15.789-4.224-4.264-.324-4.956-.084-.04 2.29 4.923.085-.067-.003 4.23.322Zm-16.183-.242-6.504.4-2.671.238.203 2.283 2.656-.237-.032.003 6.488-.4Zm-16.043 1.304-5.14.573-3.982.52.296 2.272 3.972-.518-.02.003 5.128-.573Zm-15.956 2.049-9.06 1.387.346 2.265 9.061-1.387Zm-15.875 2.48-9.027 1.596.399 2.257 9.027-1.596Zm-15.816 2.804-8.996 1.755.439 2.25 8.997-1.755Zm-15.745 3.071-1.626.317-7.365 1.544.47 2.243 7.357-1.542-.015.003 1.619-.316Zm-15.72 3.27-3.687.773-5.285 1.17.496 2.237 5.278-1.168-.013.003 3.68-.771Zm-15.684 3.429-5.3 1.173-3.653.844.516 2.233 3.648-.843-.01.002 5.294-1.172Zm-15.651 3.565-6.03 1.394-2.904.69.53 2.23 2.9-.69-.007.002 6.027-1.393Zm-15.625 3.68-5.446 1.315-3.466.849.545 2.226 3.464-.849-.004.001 5.444-1.314Zm-15.59 3.81-3.123.775-5.774 1.45.559 2.223 5.767-1.45 3.122-.774Zm-15.565 3.922-3.2.822-3.864 1.001-1.815.475.58 2.217 1.81-.474 3.859-1 3.2-.82Zm1.98-12.277-16.025 17.124 22.415 6.9a1.146 1.146 0 1 0 .674-2.19l-20.662-6.36.5 1.877 14.771-15.786a1.146 1.146 0 1 0-1.673-1.565"/><text font-family="Cambria Math,Cambria Math_MSFontService,sans-serif" font-size="28" font-weight="400" transform="translate(1361.19 1207)">𝛿</text><text font-family="Cambria Math,Cambria Math_MSFontService,sans-serif" font-size="20" font-weight="400" transform="translate(1377.69 1197)">−</text><text font-family="Cambria Math,Cambria Math_MSFontService,sans-serif" font-size="28" font-weight="400" transform="translate(1264.42 1202)">𝛿</text><text font-family="Cambria Math,Cambria Math_MSFontService,sans-serif" font-size="20" font-weight="400" transform="translate(1280.92 1192)">+</text><path fill="#172c51" d="m1388.97 1252.6-4.82 7.8-1.95-1.21 4.83-7.79Zm-8.44 13.64-4.82 7.8-1.95-1.21 4.82-7.79Zm-8.53 13.61-4.98 7.7-1.93-1.25 4.98-7.69Zm-8.72 13.47-3.29 5.09-1.78 2.58-1.89-1.3 1.77-2.57-.01.03 3.28-5.07Zm-8.97 13.34-1.78 2.58-3.57 4.89-1.86-1.35 3.57-4.88-.02.03 1.77-2.57Zm-9.43 13.06-5.66 7.21-1.8-1.41 5.65-7.22Zm-10.05 12.56-5.65 6.6-.37.4-1.66-1.58.35-.37-.04.04 5.63-6.58Zm-10.75 11.99-3.09 3.26-3.46 3.23-1.57-1.67 3.44-3.21-.05.05 3.07-3.24Zm-11.65 11.24-7.13 5.75-1.44-1.78 7.14-5.76Zm-12.81 9.78-4.89 3.31-2.97 1.61-1.09-2.02 2.92-1.58-.09.06 4.84-3.27Zm-13.9 8.2-.39.21-8.19 3.34-.87-2.12 8.14-3.32-.12.05.34-.18Zm-15.28 5.6-5.05 1.39-4.03.57-.33-2.26 3.96-.57-.14.03 4.98-1.37Zm-16.02 2.91-5.23.13-4.03-.25.14-2.28 3.98.24h-.1l5.17-.14Zm-16.17-.92-1.21-.16-6.48-1.31-1.42-.36.56-2.22 1.4.36-.06-.02 6.42 1.29-.07-.01 1.17.16Zm-15.81-3.61-5.56-1.7-3.21-1.17.79-2.16 3.18 1.17-.06-.02 5.53 1.68Zm-15.22-5.24-4.76-1.74-3.82-1.66.91-2.1 3.79 1.64-.06-.02 4.73 1.73Zm-14.89-6.13-4.86-2.11-3.52-1.72 1-2.06 3.5 1.71-.04-.02 4.83 2.09Zm-14.56-6.84-5.64-2.75-2.59-1.38 1.07-2.02 2.58 1.37-.03-.02 5.61 2.74Zm-14.3-7.35-6.81-3.62-1.3-.73 1.13-2 1.28.73-.02-.02 6.79 3.61Zm-14.09-7.74-7.97-4.53 1.13-1.99 7.97 4.52Zm-13.9-8.06-7.87-4.69 1.17-1.97 7.88 4.69Zm-13.75-8.3-7.79-4.83 1.21-1.95 7.79 4.83Zm-13.62-8.51-7.72-4.93 1.23-1.93 7.73 4.93Zm-13.51-8.66-7.68-5.01 1.26-1.92 7.67 5.01Zm-13.43-8.79-7.65-5.04 1.26-1.92 7.65 5.05Zm-13.39-8.84-.36-.24-5.05-3.33-2.24-1.47 1.26-1.91 2.24 1.47 5.05 3.33.37.24Zm-13.4-8.78-.89-.58v.01l-3.79-2.41.02.01-1.48-.91 1.2-1.95 1.48.91 3.81 2.41.89.58Zm3.05 15.01-10.44-21 23.46-.18c.63 0 1.15.51 1.15 1.14s-.5 1.15-1.14 1.15l-21.62.17 1.02-1.66 9.62 19.36c.28.57.05 1.26-.51 1.54-.57.28-1.26.05-1.54-.52"/><text font-family="Source Han Serif SC Medium,Source Han Serif SC Medium_MSFontService,sans-serif" font-size="28" font-weight="500" transform="translate(1707.73 1202)">一定条件</text><text font-family="Cambria Math,Cambria Math_MSFontService,sans-serif" font-size="48" font-weight="400" transform="translate(2569.58 1206)">Δ</text><text font-family="Cambria Math,Cambria Math_MSFontService,sans-serif" font-size="32" font-weight="400" transform="translate(2085.54 1262)">𝛽</text><text font-family="Cambria Math,Cambria Math_MSFontService,sans-serif" font-size="32" font-weight="400" transform="translate(2189.41 1267)">𝛼</text></g></svg>