<svg xml:space="preserve" overflow="hidden" viewBox="0 0 2988 282"><defs><clipPath id="a"/><clipPath id="b"/><clipPath id="c"/><clipPath id="d"/></defs><g clip-path="url(#a)" transform="translate(-706 -1100)"><g clip-path="url(#b)"><g clip-path="url(#c)"><g clip-path="url(#d)"><text font-family="Times New Roman,Times New Roman_MSFontService,sans-serif" font-size="18" font-weight="400" transform="matrix(3.13635 0 0 3.1325 1090.57 1268)">H</text><text font-family="Times New Roman,Times New Roman_MSFontService,sans-serif" font-size="18" font-weight="400" transform="matrix(3.13635 0 0 3.1325 848.873 1267)">H</text><text font-family="Times New Roman,Times New Roman_MSFontService,sans-serif" font-size="11" font-weight="400" transform="matrix(3.13635 0 0 3.1325 889.646 1267)">3</text><text font-family="Times New Roman,Times New Roman_MSFontService,sans-serif" font-size="18" font-weight="400" transform="matrix(3.13635 0 0 3.1325 908.464 1267)">C</text><text font-family="Times New Roman,Times New Roman_MSFontService,sans-serif" font-size="18" font-weight="400" transform="matrix(3.13635 0 0 3.1325 998.071 1176)">O</text><text font-family="Times New Roman,Times New Roman_MSFontService,sans-serif" font-size="18" font-weight="400" transform="matrix(3.13635 0 0 3.1325 999.681 1268)">C</text><path d="M1041.5 1245.9h45.4v3.7h-45.4v-1.9Zm-45.5 3.7h-47v-3.7h47v1.8Zm15.3-28.1v-40h3.7v40h-1.8Zm11.1 0v-40h3.7v40h-1.8Z"/><text font-family="Times New Roman,Times New Roman_MSFontService,sans-serif" font-size="18" font-weight="400" transform="matrix(3.13635 0 0 3.1325 1280.64 1242)">H</text><text font-family="Times New Roman,Times New Roman_MSFontService,sans-serif" font-size="18" font-weight="400" transform="matrix(3.13635 0 0 3.1325 1374.68 1241)">C</text><text font-family="Times New Roman,Times New Roman_MSFontService,sans-serif" font-size="18" font-weight="400" transform="matrix(3.13635 0 0 3.1325 1412.31 1241)">H</text><text font-family="Times New Roman,Times New Roman_MSFontService,sans-serif" font-size="11" font-weight="400" transform="matrix(3.13635 0 0 3.1325 1453.08 1241)">2</text><text font-family="Times New Roman,Times New Roman_MSFontService,sans-serif" font-size="18" font-weight="400" transform="matrix(3.13635 0 0 3.1325 1471.9 1241)">C</text><text font-family="Times New Roman,Times New Roman_MSFontService,sans-serif" font-size="18" font-weight="400" transform="matrix(3.13635 0 0 3.1325 1509.54 1241)">H</text><text font-family="Times New Roman,Times New Roman_MSFontService,sans-serif" font-size="18" font-weight="400" transform="matrix(3.13635 0 0 3.1325 1550.31 1241)">O</text><path d="M1325.6 1220h45.4v3.7h-45.4v-1.9Z"/><text font-family="Times New Roman,Times New Roman_MSFontService,sans-serif" font-size="18" font-weight="400" transform="matrix(3.13635 0 0 3.1325 1189.13 1248)">+</text><text font-family="Times New Roman,Times New Roman_MSFontService,sans-serif" font-size="18" font-weight="400" transform="matrix(3.13635 0 0 3.1325 2104.3 1242)">C</text><text font-family="Times New Roman,Times New Roman_MSFontService,sans-serif" font-size="18" font-weight="400" transform="matrix(3.13635 0 0 3.1325 2196.76 1241)">C</text><text font-family="Times New Roman,Times New Roman_MSFontService,sans-serif" font-size="18" font-weight="400" transform="matrix(3.13635 0 0 3.1325 2234.39 1241)">H</text><text font-family="Times New Roman,Times New Roman_MSFontService,sans-serif" font-size="11" font-weight="400" transform="matrix(3.13635 0 0 3.1325 2275.17 1241)">2</text><text font-family="Times New Roman,Times New Roman_MSFontService,sans-serif" font-size="18" font-weight="400" transform="matrix(3.13635 0 0 3.1325 2293.98 1241)">C</text><text font-family="Times New Roman,Times New Roman_MSFontService,sans-serif" font-size="18" font-weight="400" transform="matrix(3.13635 0 0 3.1325 2331.62 1241)">H</text><text font-family="Times New Roman,Times New Roman_MSFontService,sans-serif" font-size="18" font-weight="400" transform="matrix(3.13635 0 0 3.1325 2372.39 1241)">O</text><text font-family="Times New Roman,Times New Roman_MSFontService,sans-serif" font-size="18" font-weight="400" transform="matrix(3.13635 0 0 3.1325 2102.7 1150)">O</text><text font-family="Times New Roman,Times New Roman_MSFontService,sans-serif" font-size="18" font-weight="400" transform="matrix(3.13635 0 0 3.1325 2143.47 1150)">H</text><text font-family="Times New Roman,Times New Roman_MSFontService,sans-serif" font-size="18" font-weight="400" transform="matrix(3.13635 0 0 3.1325 1953.49 1241)">H</text><text font-family="Times New Roman,Times New Roman_MSFontService,sans-serif" font-size="11" font-weight="400" transform="matrix(3.13635 0 0 3.1325 1994.26 1241)">3</text><text font-family="Times New Roman,Times New Roman_MSFontService,sans-serif" font-size="18" font-weight="400" transform="matrix(3.13635 0 0 3.1325 2013.08 1241)">C</text><path d="M2053.6 1220h47v3.7h-47v-1.9Zm92.4 0h47v3.7h-47v-1.9Zm-24.5-24.4v-40h3.7v40h-1.9Zm3.7 52.4v40h-3.7v-40h1.8Z"/><text font-family="Times New Roman,Times New Roman_MSFontService,sans-serif" font-size="18" font-weight="400" transform="matrix(3.13635 0 0 3.1325 2102.75 1335)">H</text><path fill="none" stroke="#000" stroke-width="3.7" d="M700.3 203h205.4" transform="matrix(1.00123 0 0 1 956.357 1018.76)"/><path d="m1894.6 1221.8-37-9.2 5.5 9.2-5.5 9.3Z"/><path fill="none" stroke="#000" stroke-width="3.7" d="M1518 203h205.5" transform="matrix(1.00123 0 0 1 956.357 1018.76)"/><path d="m2713.4 1221.8-37-9.2 5.6 9.2-5.6 9.3Z"/><text font-family="Times New Roman,Times New Roman_MSFontService,sans-serif" font-size="18" font-weight="400" transform="matrix(3.13635 0 0 3.1325 2812.52 1243)">H</text><text font-family="Times New Roman,Times New Roman_MSFontService,sans-serif" font-size="11" font-weight="400" transform="matrix(3.13635 0 0 3.1325 2853.29 1243)">3</text><text font-family="Times New Roman,Times New Roman_MSFontService,sans-serif" font-size="18" font-weight="400" transform="matrix(3.13635 0 0 3.1325 2872.11 1243)">C</text><path d="M2912.6 1222.4h47v3.7h-47v-1.8Z"/><text font-family="Times New Roman,Times New Roman_MSFontService,sans-serif" font-size="18" font-weight="400" transform="matrix(3.13635 0 0 3.1325 2963.32 1200)">H</text><text font-family="Times New Roman,Times New Roman_MSFontService,sans-serif" font-size="18" font-weight="400" transform="matrix(3.13635 0 0 3.1325 2963.32 1250)">C</text><path d="M3005.1 1211.3h47v3.7h-47v-1.8Zm0 11.1h47v3.7h-47v-1.8Z"/><text font-family="Times New Roman,Times New Roman_MSFontService,sans-serif" font-size="18" font-weight="400" transform="matrix(3.13635 0 0 3.1325 3055.79 1200)">H</text><text font-family="Times New Roman,Times New Roman_MSFontService,sans-serif" font-size="18" font-weight="400" transform="matrix(3.13635 0 0 3.1325 3055.79 1250)">C</text><path d="M3097.6 1222.4h47v3.7h-47v-1.8Z"/><text font-family="Times New Roman,Times New Roman_MSFontService,sans-serif" font-size="18" font-weight="400" transform="matrix(3.13635 0 0 3.1325 3148.25 1245)">C</text><text font-family="Times New Roman,Times New Roman_MSFontService,sans-serif" font-size="18" font-weight="400" transform="matrix(3.13635 0 0 3.1325 3185.88 1245)">H</text><text font-family="Times New Roman,Times New Roman_MSFontService,sans-serif" font-size="18" font-weight="400" transform="matrix(3.13635 0 0 3.1325 3226.66 1245)">O</text><text font-family="Times New Roman,Times New Roman_MSFontService,sans-serif" font-size="18" font-weight="400" transform="matrix(3.13635 0 0 3.1325 3442.16 1226)">H</text><text font-family="Times New Roman,Times New Roman_MSFontService,sans-serif" font-size="11" font-weight="400" transform="matrix(3.13635 0 0 3.1325 3482.93 1226)">2</text><text font-family="Times New Roman,Times New Roman_MSFontService,sans-serif" font-size="18" font-weight="400" transform="matrix(3.13635 0 0 3.1325 3501.75 1226)">O</text><text font-family="Times New Roman,Times New Roman_MSFontService,sans-serif" font-size="18" font-weight="400" transform="matrix(3.13635 0 0 3.1325 3339.21 1230)">+</text></g></g></g><text font-family="Cambria Math,Cambria Math_MSFontService,sans-serif" font-size="32" font-weight="400" transform="translate(1384.32 1295)">𝛼</text><text font-family="Cambria Math,Cambria Math_MSFontService,sans-serif" font-size="32" font-weight="400" transform="translate(1254.78 1295)">𝛼</text><text font-family="Cambria Math,Cambria Math_MSFontService,sans-serif" font-size="32" font-weight="400" transform="translate(1282.35 1295)">−</text><text font-family="Cambria Math,Cambria Math_MSFontService,sans-serif" font-size="32" font-weight="400" transform="translate(1313.54 1295)">𝐻</text><text font-family="Cambria Math,Cambria Math_MSFontService,sans-serif" font-size="28" font-weight="400" transform="translate(977.328 1302)">𝛿</text><text font-family="Cambria Math,Cambria Math_MSFontService,sans-serif" font-size="20" font-weight="400" transform="translate(993.828 1292)">+</text><text font-family="Cambria Math,Cambria Math_MSFontService,sans-serif" font-size="28" font-weight="400" transform="translate(977.329 1149)">𝛿</text><text font-family="Cambria Math,Cambria Math_MSFontService,sans-serif" font-size="20" font-weight="400" transform="translate(993.829 1139)">−</text><path fill="#172c51" d="m1312.6 1191.5.2-9.1h-2.3l-.2 9Zm.3-16v-9.2h-2.4l.1 9.2Zm-.3-16.2-.8-9-2.3.1.8 9.1Zm-1.7-16-.4-2-1.5-6.3-.3-.8-2.2.8.3.7 1.5 6.2v-.1l.3 1.9Zm-4.6-15.6-2-4.2-2.6-4-1.9 1.3 2.5 3.9v-.1l1.9 4Zm-9-13.6-.3-.3-4.7-4-2.5-1.5-1.2 2 2.4 1.4-.2-.1 4.7 3.9-.2-.1.3.2Zm-13.7-9-3.4-1.5-5.4-1.5-.6 2.2 5.3 1.5h-.1l3.3 1.3Zm-15.8-4.3-4.3-.3-5-.1v2.3h5-.1l4.2.4Zm-16.2-.3-6.5.4-2.7.3.2 2.3 2.7-.3 6.5-.4Zm-16 1.3-5.2.6-4 .5.3 2.3 4-.5 5.1-.6Zm-16 2.1-9 1.4.3 2.3 9-1.4Zm-15.9 2.5-9 1.6.4 2.2 9-1.6Zm-15.8 2.8-9 1.7.5 2.3 9-1.8Zm-15.7 3-1.6.4-7.4 1.5.5 2.3 7.3-1.6 1.6-.3Zm-15.7 3.3-3.7.8-5.3 1.2.5 2.2 5.3-1.2 3.6-.7Zm-15.7 3.5-5.3 1.1-3.7.9.5 2.2 3.7-.8 5.3-1.2Zm-15.7 3.5-6 1.4-3 .7.6 2.2 3-.7 6-1.3Zm-15.6 3.7-5.4 1.3-3.5.9.5 2.2 3.5-.9 5.4-1.3Zm-15.6 3.8-3.1.8-5.8 1.4.6 2.3 5.7-1.5 3.2-.8Zm-15.6 4-3.2.8-3.8 1-1.8.4.5 2.2 1.9-.4 3.8-1 3.2-.9Zm2-12.3-16 17 22.4 7a1.1 1.1 0 1 0 .7-2.2l-20.7-6.4.5 1.9 14.8-15.8a1.1 1.1 0 1 0-1.7-1.5"/><text font-family="Cambria Math,Cambria Math_MSFontService,sans-serif" font-size="28" font-weight="400" transform="translate(1361.19 1207)">𝛿</text><text font-family="Cambria Math,Cambria Math_MSFontService,sans-serif" font-size="20" font-weight="400" transform="translate(1377.69 1197)">−</text><text font-family="Cambria Math,Cambria Math_MSFontService,sans-serif" font-size="28" font-weight="400" transform="translate(1264.42 1202)">𝛿</text><text font-family="Cambria Math,Cambria Math_MSFontService,sans-serif" font-size="20" font-weight="400" transform="translate(1280.92 1192)">+</text><path fill="#172c51" d="m1389 1252.6-4.8 7.8-2-1.2 4.8-7.8Zm-8.5 13.6-4.8 7.8-2-1.2 4.9-7.8Zm-8.5 13.6-5 7.8-2-1.3 5-7.7Zm-8.7 13.5-3.3 5.1-1.8 2.6-1.9-1.3 1.8-2.6 3.3-5Zm-9 13.4-1.8 2.5-3.5 5-1.9-1.4 3.6-4.9 1.7-2.5Zm-9.4 13-5.7 7.2-1.8-1.4 5.7-7.2Zm-10 12.6-5.7 6.6-.4.4-1.6-1.6.3-.4 5.6-6.5Zm-10.8 12-3.1 3.2-3.5 3.3-1.5-1.7 3.4-3.2 3-3.2Zm-11.7 11.2-7.1 5.8-1.4-1.8 7.1-5.8Zm-12.8 9.8-4.9 3.3-3 1.6-1-2 2.9-1.6h-.1l4.8-3.2Zm-13.9 8.2-.4.2-8.2 3.3-.8-2 8.1-3.4h-.1l.3-.1Zm-15.3 5.6-5 1.4-4 .5-.4-2.2 4-.6h-.2l5-1.3Zm-16 2.9-5.2.1-4-.2.1-2.3 4 .2h-.1l5.1-.1Zm-16.2-1h-1.2l-6.4-1.4-1.5-.3.6-2.3 1.4.4 6.4 1.3h-.1l1.2.1Zm-15.8-3.5-5.5-1.7-3.2-1.2.8-2.2 3.1 1.2 5.5 1.7Zm-15.2-5.3-4.7-1.7-3.9-1.7 1-2 3.7 1.6 4.7 1.7Zm-14.9-6.1-4.8-2.1-3.5-1.7 1-2 3.5 1.6 4.7 2Zm-14.5-6.8-5.7-2.8-2.6-1.4 1.1-2 2.6 1.4 5.6 2.7Zm-14.3-7.4-6.8-3.6-1.3-.7 1-2 1.4.7 6.7 3.6Zm-14.1-7.7-8-4.6 1.1-2 8 4.6Zm-14-8-7.8-4.8 1.2-2 7.9 4.7Zm-13.7-8.4-7.8-4.8 1.3-2 7.7 4.9Zm-13.6-8.5-7.7-5 1.2-1.9 7.8 5Zm-13.5-8.7-7.7-5 1.3-1.9 7.6 5Zm-13.4-8.7-7.7-5 1.3-2 7.6 5Zm-13.4-8.9-.4-.2-5-3.4-2.3-1.4 1.3-2 2.2 1.5 5 3.4.5.2Zm-13.4-8.8-1-.5-3.7-2.5-1.5-.9 1.2-1.9 1.5 1 3.8 2.3 1 .6Zm3 15-10.4-21 23.5-.1q1 .1 1.1 1.1-.1 1-1.1 1.1l-21.7.2 1-1.6 9.7 19.3q.3 1-.5 1.6-1 .3-1.6-.6"/><text font-family="Source Han Serif SC Medium,Source Han Serif SC Medium_MSFontService,sans-serif" font-size="28" font-weight="500" transform="translate(1707.73 1202)">一定条件</text><text font-family="Cambria Math,Cambria Math_MSFontService,sans-serif" font-size="48" font-weight="400" transform="translate(2569.58 1206)">Δ</text><text font-family="Cambria Math,Cambria Math_MSFontService,sans-serif" font-size="32" font-weight="400" transform="translate(2085.54 1262)">𝛽</text><text font-family="Cambria Math,Cambria Math_MSFontService,sans-serif" font-size="32" font-weight="400" transform="translate(2189.41 1267)">𝛼</text></g></svg>