<svg viewBox="0 0 351.7 67.2"><path d="M24.4 41.4V16.8l.5.3.5.3v23.4l-.5.3zM28 39l19.3 11.1-.2.5-.3.4-19.3-11.1.3-.5z"/><path d="M25.4 40.8l20.5 11.8-.3.5-.2.4-21-12.1.5-.3zm-1-24l21-12.1.2.4.3.5-20.5 11.8-.5-.3zm3.1 1.5L46.8 7.2l.3.4.2.5L28 19.2l-.2-.4zm72.4 22.8V16.8l.6.3.5.3v23.7h-.5z"/><path d="M99.9 16.8l16-9.2.3.4.3.5-15.5 8.9-.5-.3zm137.1 0l21.3-12.3v1.3l-20.2 11.6-.6-.3zm42.6.6v24l-.6-.3-.5-.3V17.4l.5-.3zm-21.3 36.3L237 41.4l.5-.3.6-.3 20.2 11.6v.7z"/><path d="M237 41.4V16.8l.5.3.6.3v23.4l-.6.3zm2.9-2V18.8h1v20.6h-.5zm18.4-34.9l20.7 12v.6l-.5.3-20.2-11.6v-.7zm21.3 36.9l-21.3 12.3v-1.3l20.2-11.6.5.3zm-.6-24.9l15.5-9 .3.5.3.5-15.5 8.9-.6-.3zm-47.2 12.6l-10.7-2.7 1.6 2.7-1.6 2.7zM102.9 39.4V18.8h1v20.6h-.5z"/></svg>