<svg xml:space="preserve" viewBox="0 0 351.7 67.2"><path d="M24.4 41.4V16.8l.5.3.5.3v23.4l-.5.3zM28 39l19.3 11.1-.2.5-.3.4-19.3-11.1.3-.5z"/><path d="m25.4 40.8 20.5 11.8-.3.5-.2.4-21-12.1.5-.3zm-1-24 21-12.1.2.4.3.5-20.5 11.8-.5-.3zm3.1 1.5L46.8 7.2l.3.4.2.5L28 19.2l-.2-.4zm72.4 22.8V16.8l.6.3.5.3v23.7h-.5z"/><path d="m99.9 16.8 16-9.2.3.4.3.5-15.5 8.9-.5-.3z"/><text class="st0 st1" transform="translate(117.276 9.766)">C</text><text class="st0 st1" transform="translate(125.13 9.766)">O</text><text class="st0 st1" transform="translate(133.633 9.766)">O</text><text class="st0 st1" transform="translate(142.136 9.766)">H</text><path d="m237 16.8 21.3-12.3v1.3l-20.2 11.6-.6-.3zm42.6.6v24l-.6-.3-.5-.3V17.4l.5-.3zm-21.3 36.3L237 41.4l.5-.3.6-.3 20.2 11.6v.7z"/><path d="M237 41.4V16.8l.5.3.6.3v23.4l-.6.3zm2.9-2V18.8h1v20.6h-.5zm18.4-34.9 20.7 12v.6l-.5.3-20.2-11.6v-.7zm21.3 36.9-21.3 12.3v-1.3l20.2-11.6.5.3zm-.6-24.9 15.5-9 .3.5.3.5-15.5 8.9-.6-.3z"/><text class="st2 st1" transform="translate(295.852 9.758)">C</text><text class="st2 st1" transform="translate(303.705 9.758)">O</text><text class="st2 st1" transform="translate(312.208 9.758)">O</text><text class="st2 st1" transform="translate(320.711 9.758)">H</text><path d="M163.4 29.1h59.3" style="fill:none;stroke:#000;stroke-width:1.068;stroke-miterlimit:3.6229"/><path d="m231.8 29.1-10.7-2.7 1.6 2.7-1.6 2.7z"/><text class="st2 st1" transform="translate(72.968 33.15)">+</text><text class="st1" style="font-family:&quot;AdobeSongStd-Light-GBpc-EUC-H&quot;" transform="translate(194.059 27.339)">△</text><path d="M102.9 39.4V18.8h1v20.6h-.5z"/></svg>