<svg viewBox="11.02 134.41 105.52 75.18"><text x="44.65" y="143.16" lengthAdjust="spacingAndGlyphs" textLength="13.29"><tspan baseline-shift="0" font-family="Times New Roman" font-size="13">H</tspan><tspan baseline-shift="-2" font-family="Times New Roman" font-size="8">2</tspan></text><text x="44.65" y="157.36" lengthAdjust="spacingAndGlyphs" textLength="8.67"><tspan baseline-shift="0" font-family="Times New Roman" font-size="13">C</tspan></text><path d="M54.5 153.04l15.43-.03v1.18l-15.43.03v-.59z"/><text x="71.11" y="143.11" lengthAdjust="spacingAndGlyphs" textLength="13.29"><tspan baseline-shift="0" font-family="Times New Roman" font-size="13">H</tspan><tspan baseline-shift="-2" font-family="Times New Roman" font-size="8">2</tspan></text><text x="71.11" y="157.31" lengthAdjust="spacingAndGlyphs" textLength="8.67"><tspan baseline-shift="0" font-family="Times New Roman" font-size="13">C</tspan></text><path d="M47.46 160.27l-3.96 12.27-.56-.18-.56-.18 3.96-12.27.56.18z"/><text x="36.52" y="183.93" lengthAdjust="spacingAndGlyphs" textLength="8.67"><tspan baseline-shift="0" font-family="Times New Roman" font-size="13">C</tspan></text><path d="M78.11 159.85l4 12.25-.55.18-.56.19-4.01-12.25.56-.18z"/><text x="79.33" y="183.85" lengthAdjust="spacingAndGlyphs" textLength="8.67"><tspan baseline-shift="0" font-family="Times New Roman" font-size="13">C</tspan></text><path d="M46.72 182.33l10.04 7.27-.34.47-.35.48-10.05-7.27.35-.48z"/><text x="57.6" y="199.44" lengthAdjust="spacingAndGlyphs" textLength="9.39"><tspan baseline-shift="0" font-family="Times New Roman" font-size="13">O</tspan></text><path d="M36.02 182.69l-13.76 4.5-.18-.56-.19-.57 13.76-4.5.19.57zm-.99-3.02l-13.76 4.5-.18-.56-.18-.56 13.76-4.5.18.56z"/><text x="11.02" y="192.15" lengthAdjust="spacingAndGlyphs" textLength="9.39"><tspan baseline-shift="0" font-family="Times New Roman" font-size="13">O</tspan></text><path d="M89.85 178.44l13.79 4.46-.18.56-.18.56-13.8-4.46.19-.56zm-.98 3.02l13.79 4.46-.18.56-.18.56-13.79-4.45.18-.56z"/><text x="104.15" y="191.98" lengthAdjust="spacingAndGlyphs" textLength="9.39"><tspan baseline-shift="0" font-family="Times New Roman" font-size="13">O</tspan></text><path d="M78.5 183.23l-9.99 7.29-.35-.48-.35-.48 9.99-7.28.35.48z"/></svg>