<svg viewBox="11 134.4 105.5 75.2"><text xml:space="preserve" x="44.6" y="143.2" lengthAdjust="spacingAndGlyphs" textLength="13.3"><tspan baseline-shift="0" font-family="Times New Roman" font-size="13">H</tspan><tspan baseline-shift="-2" font-family="Times New Roman" font-size="8">2</tspan></text><text xml:space="preserve" x="44.6" y="157.4" lengthAdjust="spacingAndGlyphs" textLength="8.7"><tspan baseline-shift="0" font-family="Times New Roman" font-size="13">C</tspan></text><path d="M54.5 153h15.4v1.2H54.5v-.6z" style="fill:#000;fill-opacity:1"/><text xml:space="preserve" x="71.1" y="143.1" lengthAdjust="spacingAndGlyphs" textLength="13.3"><tspan baseline-shift="0" font-family="Times New Roman" font-size="13">H</tspan><tspan baseline-shift="-2" font-family="Times New Roman" font-size="8">2</tspan></text><text xml:space="preserve" x="71.1" y="157.3" lengthAdjust="spacingAndGlyphs" textLength="8.7"><tspan baseline-shift="0" font-family="Times New Roman" font-size="13">C</tspan></text><path d="m47.5 160.3-4 12.2-.6-.1-.5-.2 4-12.3.5.2z" style="fill:#000;fill-opacity:1"/><text xml:space="preserve" x="36.5" y="183.9" lengthAdjust="spacingAndGlyphs" textLength="8.7"><tspan baseline-shift="0" font-family="Times New Roman" font-size="13">C</tspan></text><path d="m78.1 159.9 4 12.2-.5.2-.6.2-4-12.3.6-.2z" style="fill:#000;fill-opacity:1"/><text xml:space="preserve" x="79.3" y="183.8" lengthAdjust="spacingAndGlyphs" textLength="8.7"><tspan baseline-shift="0" font-family="Times New Roman" font-size="13">C</tspan></text><path d="m46.7 182.3 10 7.3-.3.5-.3.5-10-7.3.3-.5z" style="fill:#000;fill-opacity:1"/><text xml:space="preserve" x="57.6" y="199.4" lengthAdjust="spacingAndGlyphs" textLength="9.4"><tspan baseline-shift="0" font-family="Times New Roman" font-size="13">O</tspan></text><path d="m36 182.7-13.7 4.5-.2-.6-.2-.5 13.8-4.5.1.5zm-1-3-13.7 4.5-.2-.6-.2-.6 13.8-4.5.1.6z" style="fill:#000;fill-opacity:1"/><text xml:space="preserve" x="11" y="192.2" lengthAdjust="spacingAndGlyphs" textLength="9.4"><tspan baseline-shift="0" font-family="Times New Roman" font-size="13">O</tspan></text><path d="m89.8 178.4 13.8 4.5-.1.6-.2.5-13.8-4.4.2-.6zm-.9 3.1 13.8 4.4-.2.6-.2.5-13.8-4.4.2-.6z" style="fill:#000;fill-opacity:1"/><text xml:space="preserve" x="104.1" y="192" lengthAdjust="spacingAndGlyphs" textLength="9.4"><tspan baseline-shift="0" font-family="Times New Roman" font-size="13">O</tspan></text><path d="m78.5 183.2-10 7.3-.3-.5-.4-.4 10-7.3.4.5z" style="fill:#000;fill-opacity:1"/></svg>