<svg xmlns="http://www.w3.org/2000/svg" xmlns:xlink="http://www.w3.org/1999/xlink" width="112.52" height="68.18" version="1.1" viewBox="11.02 134.41 105.52 75.18"><text x="44.65" y="143.159" lengthAdjust="spacingAndGlyphs" textLength="13.287" xml:space="preserve"><tspan fill="#000" baseline-shift="0" font-family="Times New Roman" font-size="13" font-weight="normal">H</tspan><tspan fill="#000" baseline-shift="-2" font-family="Times New Roman" font-size="8" font-weight="normal">2</tspan></text><text x="44.65" y="157.361" lengthAdjust="spacingAndGlyphs" textLength="8.67" xml:space="preserve"><tspan fill="#000" baseline-shift="0" font-family="Times New Roman" font-size="13" font-weight="normal">C</tspan></text><polygon points="54.498 153.037 69.927 153.008 69.928 153.598 69.929 154.187 54.501 154.216 54.5 153.626" style="fill:#000;fill-opacity:1"/><text x="71.107" y="143.109" lengthAdjust="spacingAndGlyphs" textLength="13.287" xml:space="preserve"><tspan fill="#000" baseline-shift="0" font-family="Times New Roman" font-size="13" font-weight="normal">H</tspan><tspan fill="#000" baseline-shift="-2" font-family="Times New Roman" font-size="8" font-weight="normal">2</tspan></text><text x="71.107" y="157.312" lengthAdjust="spacingAndGlyphs" textLength="8.67" xml:space="preserve"><tspan fill="#000" baseline-shift="0" font-family="Times New Roman" font-size="13" font-weight="normal">C</tspan></text><polygon points="47.463 160.269 43.501 172.543 42.94 172.362 42.379 172.181 46.341 159.907 46.902 160.088" style="fill:#000;fill-opacity:1"/><text x="36.522" y="183.928" lengthAdjust="spacingAndGlyphs" textLength="8.67" xml:space="preserve"><tspan fill="#000" baseline-shift="0" font-family="Times New Roman" font-size="13" font-weight="normal">C</tspan></text><polygon points="78.112 159.855 82.115 172.099 81.555 172.282 80.995 172.466 76.991 160.222 77.551 160.039" style="fill:#000;fill-opacity:1"/><text x="79.33" y="183.848" lengthAdjust="spacingAndGlyphs" textLength="8.67" xml:space="preserve"><tspan fill="#000" baseline-shift="0" font-family="Times New Roman" font-size="13" font-weight="normal">C</tspan></text><polygon points="46.717 182.327 56.763 189.597 56.417 190.075 56.072 190.552 46.025 183.282 46.371 182.804" style="fill:#000;fill-opacity:1"/><text x="57.596" y="199.439" lengthAdjust="spacingAndGlyphs" textLength="9.387" xml:space="preserve"><tspan fill="#000" baseline-shift="0" font-family="Times New Roman" font-size="13" font-weight="normal">O</tspan></text><polygon points="36.019 182.686 22.259 187.185 22.076 186.625 21.893 186.064 35.653 181.565 35.836 182.126" style="fill:#000;fill-opacity:1"/><polygon points="35.032 179.668 21.273 184.168 21.089 183.607 20.906 183.047 34.666 178.548 34.849 179.108" style="fill:#000;fill-opacity:1"/><text x="11.017" y="192.15" lengthAdjust="spacingAndGlyphs" textLength="9.387" xml:space="preserve"><tspan fill="#000" baseline-shift="0" font-family="Times New Roman" font-size="13" font-weight="normal">O</tspan></text><polygon points="89.848 178.443 103.638 182.895 103.457 183.456 103.276 184.017 89.485 179.565 89.666 179.004" style="fill:#000;fill-opacity:1"/><polygon points="88.872 181.464 102.662 185.916 102.481 186.477 102.3 187.038 88.51 182.586 88.691 182.025" style="fill:#000;fill-opacity:1"/><text x="104.148" y="191.977" lengthAdjust="spacingAndGlyphs" textLength="9.387" xml:space="preserve"><tspan fill="#000" baseline-shift="0" font-family="Times New Roman" font-size="13" font-weight="normal">O</tspan></text><polygon points="78.498 183.232 68.51 190.518 68.162 190.041 67.815 189.565 77.803 182.28 78.15 182.756" style="fill:#000;fill-opacity:1"/></svg>