<svg xmlns="http://www.w3.org/2000/svg" viewBox="11.02 134.41 105.52 75.18"><text xml:space="preserve" x="44.65" y="143.16" lengthAdjust="spacingAndGlyphs" textLength="13.29"><tspan baseline-shift="0" font-family="Times New Roman" font-size="13">H</tspan><tspan baseline-shift="-2" font-family="Times New Roman" font-size="8">2</tspan></text><text xml:space="preserve" x="44.65" y="157.36" lengthAdjust="spacingAndGlyphs" textLength="8.67"><tspan baseline-shift="0" font-family="Times New Roman" font-size="13">C</tspan></text><path d="m54.5 153.04 15.43-.03v1.18l-15.43.03v-.59z"/><text xml:space="preserve" x="71.11" y="143.11" lengthAdjust="spacingAndGlyphs" textLength="13.29"><tspan baseline-shift="0" font-family="Times New Roman" font-size="13">H</tspan><tspan baseline-shift="-2" font-family="Times New Roman" font-size="8">2</tspan></text><text xml:space="preserve" x="71.11" y="157.31" lengthAdjust="spacingAndGlyphs" textLength="8.67"><tspan baseline-shift="0" font-family="Times New Roman" font-size="13">C</tspan></text><path d="m47.46 160.27-3.96 12.27-.56-.18-.56-.18 3.96-12.27.56.18z"/><text xml:space="preserve" x="36.52" y="183.93" lengthAdjust="spacingAndGlyphs" textLength="8.67"><tspan baseline-shift="0" font-family="Times New Roman" font-size="13">C</tspan></text><path d="m78.11 159.85 4 12.25-.55.18-.56.19-4.01-12.25.56-.18z"/><text xml:space="preserve" x="79.33" y="183.85" lengthAdjust="spacingAndGlyphs" textLength="8.67"><tspan baseline-shift="0" font-family="Times New Roman" font-size="13">C</tspan></text><path d="m46.72 182.33 10.04 7.27-.34.47-.35.48-10.05-7.27.35-.48z"/><text xml:space="preserve" x="57.6" y="199.44" lengthAdjust="spacingAndGlyphs" textLength="9.39"><tspan baseline-shift="0" font-family="Times New Roman" font-size="13">O</tspan></text><path d="m36.02 182.69-13.76 4.5-.18-.56-.19-.57 13.76-4.5.19.57zm-.99-3.02-13.76 4.5-.18-.56-.18-.56 13.76-4.5.18.56z"/><text xml:space="preserve" x="11.02" y="192.15" lengthAdjust="spacingAndGlyphs" textLength="9.39"><tspan baseline-shift="0" font-family="Times New Roman" font-size="13">O</tspan></text><path d="m89.85 178.44 13.79 4.46-.18.56-.18.56-13.8-4.46.19-.56zm-.98 3.02 13.79 4.46-.18.56-.18.56-13.79-4.45.18-.56z"/><text xml:space="preserve" x="104.15" y="191.98" lengthAdjust="spacingAndGlyphs" textLength="9.39"><tspan baseline-shift="0" font-family="Times New Roman" font-size="13">O</tspan></text><path d="m78.5 183.23-9.99 7.29-.35-.48-.35-.48 9.99-7.28.35.48z"/></svg>