<svg xml:space="preserve" viewBox="0 0 462.5 419"><path d="m67 356-17 13 76.5-132.5 4 1 2 5z"/><path d="m193 320 4 3v4L50 369l17-13zm141.5 37.5 4 9.5L197 327v-4l4-3z"/><path d="m400 244.5 8.5-7 4 1.5-74 128-4-9.5z"/><path d="M270 281.5V273l134.5-38.5 4 3-8.5 7zm-137.5-39-2-5 4-3L181 248v8zM270 273v8.5l-57-16V257z"/><path d="m126.5 90.5 8 6v138l-4 3-4-1zM193 178l8 2v140l-4 3-4-3zm211.5-81.5 8-6V239l-4-1.5-4-3z"/><path d="M269 50v4l-8.5 6.5-126 36-8-6zm143.5 40.5-8 6L271 59l-2-5v-4z"/><path d="M260.5 60.5 269 54l2 5-70 121-8-2z"/></svg>