<?xml version="1.0" encoding="UTF-8" standalone="no"?>
<!-- Created with Inkscape (http://www.inkscape.org/) -->
<svg
   xmlns:svg="http://www.w3.org/2000/svg"
   xmlns="http://www.w3.org/2000/svg"
   version="1.0"
   width="954.00403"
   height="680.49799"
   viewBox="0 0 954.004 680.498"
   id="svg2"
   xml:space="preserve"><defs
   id="defs80" />
	
		<g
   transform="translate(49.99998,50)"
   id="レイヤー_1">
			<g
   id="g7">
				<polygon
   points="8.003,501.494 0,506.494 0,357.51 8.003,362.51 8.003,501.494 "
   id="polygon9" />
				<polygon
   points="128.501,571.494 128.501,580.498 0,506.494 8.003,501.494 128.501,571.494 "
   id="polygon11" />
				<polygon
   points="249.004,501.494 253.003,503.994 253.003,508.506 128.501,580.498 128.501,571.494 249.004,501.494 "
   id="polygon13" />
				<polygon
   points="249.004,362.51 253.003,360.01 257.002,362.51 257.002,501.494 253.003,503.994 249.004,501.494 249.004,362.51 "
   id="polygon15" />
				<polygon
   points="128.501,292.5 128.501,283.501 248.501,352.998 253.003,360.01 249.004,362.51 128.501,292.5 "
   id="polygon17" />
				<polygon
   points="8.003,362.51 0,357.51 128.501,283.501 128.501,292.5 8.003,362.51 "
   id="polygon19" />
				<polygon
   points="378.003,571.494 378.003,580.498 253.003,508.506 253.003,503.994 257.002,501.494 378.003,571.494 "
   id="polygon21" />
				<polygon
   points="498.496,501.494 506.504,506.494 378.003,580.498 378.003,571.494 498.496,501.494 "
   id="polygon23" />
				<polygon
   points="498.496,362.51 502.5,360.01 506.504,362.51 506.504,506.494 498.496,501.494 498.496,362.51 "
   id="polygon25" />
				<polygon
   points="378.003,292.5 378.003,288.003 382.002,285.503 497.5,352.51 502.5,360.01 498.496,362.51 378.003,292.5 "
   id="polygon27" />
				<polygon
   points="257.002,362.51 253.003,360.01 258.003,352.998 374.004,285.503 378.003,288.003 378.003,292.5 257.002,362.51 "
   id="polygon29" />
				<polygon
   points="623.496,285.503 627.5,288.003 628.008,292.5 506.504,362.51 502.5,360.01 507.5,352.51 623.496,285.503 "
   id="polygon31" />
				<polygon
   points="623.496,146.499 627.5,143.999 631.504,147.002 631.504,285 627.5,288.003 623.496,285.503 623.496,146.499 "
   id="polygon33" />
				<polygon
   points="502.5,76.499 502.5,67.5 623.008,137.002 627.5,143.999 623.496,146.499 502.5,76.499 "
   id="polygon35" />
				<polygon
   points="382.002,146.499 374.004,141.499 502.5,67.5 502.5,76.499 382.002,146.499 "
   id="polygon37" />
				<polygon
   points="382.002,285.503 378.003,288.003 374.004,285.503 374.004,141.499 382.002,146.499 382.002,285.503 "
   id="polygon39" />
				<polygon
   points="763.008,327.998 765.996,337.002 628.008,292.5 627.5,288.003 631.504,285 763.008,327.998 "
   id="polygon41" />
				<polygon
   points="844.004,216.001 854.004,216.001 765.996,337.002 763.008,327.998 844.004,216.001 "
   id="polygon43" />
				<polygon
   points="763.008,103.999 765.996,95 854.004,216.001 844.004,216.001 763.008,103.999 "
   id="polygon45" />
				<polygon
   points="631.504,147.002 627.5,143.999 631.992,138.501 765.996,95 763.008,103.999 631.504,147.002 "
   id="polygon47" />
				<polygon
   points="238.003,216.001 253.003,216.001 268.003,216.001 258.003,352.998 253.003,360.01 248.501,352.998 238.003,216.001 "
   id="polygon49" />
				<text
   transform="translate(466.5068,255.0073)"
   id="text51"><tspan
     x="0"
     y="0"
     style="font-size:100px;font-family:ArialMT"
     id="tspan53">H</tspan></text>

				<polygon
   points="487.5,271.001 517.5,271.001 507.5,352.51 502.5,360.01 497.5,352.51 487.5,271.001 "
   id="polygon55" />
				<polygon
   points="612.5,0 627.5,0 642.5,0 631.992,138.501 627.5,143.999 623.008,137.002 612.5,0 "
   id="polygon57" />
				<text
   transform="translate(341.9985,471.0068)"
   id="text59"><tspan
     x="0"
     y="0"
     style="font-size:100px;font-family:ArialMT"
     id="tspan61">H</tspan></text>

				<polygon
   points="393.003,383.994 363.003,383.994 364.004,376.006 391.504,376.006 393.003,383.994 "
   id="polygon63" />
				<polygon
   points="388.003,352.51 368.003,352.51 369.004,344.502 387.002,344.502 388.003,352.51 "
   id="polygon65" />
				<polygon
   points="383.003,321.006 372.5,321.006 374.004,312.998 382.002,312.998 383.003,321.006 "
   id="polygon67" />
				<text
   transform="translate(591.5068,471.0068)"
   id="text69"><tspan
     x="0"
     y="0"
     style="font-size:100px;font-family:ArialMT"
     id="tspan71">H</tspan></text>

				<polygon
   points="642.5,383.994 612.5,383.994 613.496,376.006 640.996,376.006 642.5,383.994 "
   id="polygon73" />
				<polygon
   points="637.5,352.51 616.992,352.51 618.496,344.502 635.996,344.502 637.5,352.51 "
   id="polygon75" />
				<polygon
   points="632.5,321.006 622.012,321.006 623.496,312.998 631.504,312.998 632.5,321.006 "
   id="polygon77" />
			</g>
		</g>
	</svg>