<svg xml:space="preserve" viewBox="0 0 954 680.5"><path d="m58 551.5-8 5v-149l8 5z"/><path d="M178.5 621.5v9L50 556.5l8-5zm120.5-70 4 2.5v4.5l-124.5 72v-9z"/><path d="m299 412.5 4-2.5 4 2.5v139l-4 2.5-4-2.5z"/><path d="M178.5 342.5v-9l120 69.5 4.5 7-4 2.5zM58 412.5l-8-5 128.5-74v9zm370 209v9l-125-72V554l4-2.5zm120.5-70 8 5-128.5 74v-9z"/><path d="m548.5 412.5 4-2.5 4 2.5v144l-8-5z"/><path d="M428 342.5V338l4-2.5 115.5 67 5 7.5-4 2.5zm-121 70-4-2.5 5-7 116-67.5 4 2.5v4.5zm366.5-77 4 2.5.5 4.5-121.5 70-4-2.5 5-7.5z"/><path d="m673.5 196.5 4-2.5 4 3v138l-4 3-4-2.5z"/><path d="M552.5 126.5v-9L673 187l4.5 7-4 2.5zm-120.5 70-8-5 128.5-74v9z"/><path d="m432 335.5-4 2.5-4-2.5v-144l8 5zM813 378l3 9-138-44.5-.5-4.5 4-3z"/><path d="M894 266h10l-88 121-3-9zm-81-112 3-9 88 121h-10z"/><path d="m681.5 197-4-3 4.5-5.5L816 145l-3 9zM288 266h30l-10 137-5 7-4.5-7z"/><text transform="translate(516.507 305.007)"><tspan x="0" y="0" style="font-size:100px;font-family:ArialMT">H</tspan></text><path d="M537.5 321h30l-10 81.5-5 7.5-5-7.5zm125-271h30L682 188.5l-4.5 5.5-4.5-7z"/><text transform="translate(391.998 521.007)"><tspan x="0" y="0" style="font-size:100px;font-family:ArialMT">H</tspan></text><path d="M443 434h-30l1-8h27.5zm-5-31.5h-20l1-8h18zm-5-31.5h-10.5l1.5-8h8z"/><text transform="translate(641.507 521.007)"><tspan x="0" y="0" style="font-size:100px;font-family:ArialMT">H</tspan></text><path d="M692.5 434h-30l1-8H691zm-5-31.5H667l1.5-8H686zm-5-31.5H672l1.5-8h8z"/></svg>