<svg xmlns="http://www.w3.org/2000/svg" width="954" height="680.5" viewBox="0 0 954 680.5" xml:space="preserve"><g transform="translate(50 50)"><path d="m8 501.49-8 5V357.51l8 5z"/><path d="M128.5 571.49v9.01L0 506.49l8-5zm120.5-70 4 2.5v4.52L128.5 580.5v-9.01z"/><path d="m249 362.51 4-2.5 4 2.5v138.98l-4 2.5-4-2.5z"/><path d="M128.5 292.5v-9l120 69.5 4.5 7.01-4 2.5zM8 362.51l-8-5 128.5-74.01v9zm370 208.98v9.01l-125-71.99v-4.52l4-2.5zm120.5-70 8 5L378 580.5v-9.01z"/><path d="m498.5 362.51 4-2.5 4 2.5v143.98l-8-5z"/><path d="M378 292.5V288l4-2.5 115.5 67.01 5 7.5-4 2.5zm-121 70.01-4-2.5 5-7.01 116-67.5 4 2.5v4.5zm366.5-77.01 4 2.5.51 4.5-121.51 70.01-4-2.5 5-7.5z"/><path d="m623.5 146.5 4-2.5 4 3v138l-4 3-4-2.5z"/><path d="M502.5 76.5v-9L623.01 137l4.49 7-4 2.5zm-120.5 70-8-5 128.5-74v9z"/><path d="m382 285.5-4 2.5-4-2.5v-144l8 5zM763.01 328l2.99 9-137.99-44.5-.51-4.5 4-3z"/><path d="M844 216h10l-88 121-2.99-9zm-80.99-112 2.99-9 88 121h-10z"/><path d="m631.5 147-4-3 4.49-5.5L766 95l-2.99 9zM238 216h30l-10 137-5 7.01-4.5-7.01z"/><text transform="translate(466.507 255.007)"><tspan x="0" y="0" font-size="100" font-family="ArialMT">H</tspan></text><path d="M487.5 271h30l-10 81.51-5 7.5-5-7.5zm125-271h30l-10.51 138.5-4.49 5.5-4.49-7z"/><text transform="translate(341.998 471.007)"><tspan x="0" y="0" font-size="100" font-family="ArialMT">H</tspan></text><path d="M393 383.99h-30l1-7.98h27.5zm-5-31.48h-20l1-8.01h18zm-5-31.5h-10.5L374 313h8z"/><text transform="translate(591.507 471.007)"><tspan x="0" y="0" font-size="100" font-family="ArialMT">H</tspan></text><path d="M642.5 383.99h-30l1-7.98H641zm-5-31.48h-20.51l1.51-8.01H636zm-5-31.5h-10.49l1.49-8.01h8z"/></g></svg>