<svg viewBox="0 0 620 352.4"><path d="m215.5 713.3 5.3-14.4 3.8-10.3 3-.2h3l3.7 10.3 5.3 14.3 1.5 4.3h-5.7l-1.1-3.2-1.1-3.2H222l-1 3.2-1.1 3.2h-6zm15.6-7.8-1.7-5.3-1.8-5-1.7 5c-1 2.6-1.7 5-1.7 5.2s1.5.4 3.4.4c2 0 3.5-.2 3.5-.3m435.1-4q-1-.4-1.7-1.1c-.7-.7-.7-.8.3-1.6s1.2-.8 2-.1a2 2 0 0 0 3-.3q.5-.8 0-3c-.8-2.9-.5-4.3 1.2-6 2.2-2 5.4-1.5 7.7 1.3 2 2.4 4.7 1.4 4-1.6-1-5-.5-6.5 2.2-7.8q3-1.6 6.4 1.8c1.4 1.3 2 1.6 3 1.4q2-.8 1.1-3.7-1.2-3.5.8-5.8 1.3-1.2 2.2-1.4c2.6-.2 3.6 0 5.4 1.9q3 3 4.3.5c.4-.9.4-1.5-.1-2.7-1.4-3.3.8-7.1 4-7.1 2.3 0 4.5 1.2 4.5 2.5 0 .8-1.8 1.2-3 .6-2.1-1.1-4 .8-3 2.9.7 1.1.7 4.4 0 5.6s-2.8 2.3-4.5 2.3q-1.4 0-3.5-2c-1.5-1.4-2.3-1.8-3.3-1.6q-1.5-.2-1.2 1.7c0 .9.2 2.4.4 3.5.2 1.5.1 2-.8 3.4-2 2.9-5.4 3-8 .3-1.8-2-2.7-2.3-4-1.2-.9.7-1 1-.4 2.6 1 3.2.7 4.7-1 6.4-2.4 2.4-5.4 2-7.6-.8q-2-2.5-3.8-.8-.9 1-.6 2c.6 2 .8 4.3.5 5.5-.6 2.3-4.3 3.7-6.5 2.5M562.7 697a12 12 0 0 1-7-6.2c-1-2.3-1.2-3.1-1.2-7 0-3.8.1-4.6 1.3-7 2.8-5.6 8.5-8 14.8-6 4.9 1.4 7.9 5.6 8.3 11.7.7 8.5-3.9 14.5-11.4 15a15 15 0 0 1-4.8-.5m9-4.3q3.1-2.4 3.6-7.5c.5-5.2-1.5-9.4-5.1-11a8.3 8.3 0 0 0-11.6 5.2c-2.4 8.3 1.7 15.3 8.6 14.9 2.1-.1 3-.5 4.4-1.6m106-26-8.4-14.6-1.5-2.6 1-.7 1.2-.8 8 14 8.4 14.6q.6.9-.4 1.5l-1.1.7c-.2 0-3.4-5.4-7.2-12m-99.1 4.6c-.6-.5.7-3 10.4-19.9l11.2-19.3-1.8-.1c-1.4-.1-1.9-.4-2.6-1.7q-.8-1.5-1.1-1.4c-.2.1-5.3 8.8-11.3 19.3s-11.2 19-11.5 19q-.5 0-1.2-.5c-.7-.5.6-2.9 11-20.8l11.6-20.1-1.1-2c-14.5-24.7-15.8-27-15-27.7q.7-.5 1.2-.5c.2 0 4.8 7.5 10.1 16.7l9.7 16.8H644v2.8h-40.8l-11.5 20c-6.3 11-11.7 20-12 20zm69-39.9V618h3.9l6.8 10.2 6.8 10.2V618h3.6v26.7h-3.9l-6.8-10.3-6.7-10.2v20.5h-3.7zM295 631v-13.4h3.9l6.8 10.3 6.7 10.2v-20.5h3.7v26.7h-3.9l-6.8-10.2-6.7-10.3v20.5H295zm24.8-1v-1.3H366l9.2-16c5-8.7 9.4-16.2 9.7-16.5q.3-.8 1.4.2c1 .8 1 .8-9 17.9l-9.9 17.1h-47.6zm-134.2-1.2q-1-.7-.5-1.2c.6-.7.6-2.3 0-3-1-.8-2-.7-4.4.6-2.5 1.4-3.4 1.4-5.3.4-2.7-1.3-3.2-4.8-1.3-7.6 1.2-1.7 1.1-3.5-.2-4.1-1-.4-1.5-.3-3.2.7q-4.2 2.5-6.7-.2-2.9-2.9-.2-7c1-1.5 1.1-2 .7-2.9-.6-1.4-2.4-1.5-4.2-.3-2.8 2-6.2 1.4-7.6-1.2-1-2-.9-3.2.4-5.4q2-3 .6-4.2-1.2-1.3-3.5.3c-3.9 2.8-8.3.9-8.3-3.6 0-2.3.9-3.6 2-3 .7.5 1 1 1 2.5 0 2.9 1 3.3 3.8 1.7a10 10 0 0 1 3.5-1.3c4.2 0 6.1 4.2 3.7 8-1.4 2.4-1.4 3.3 0 4.3 1 .6 1.2.6 3.1-.5 2.7-1.6 5.3-1.6 7 0 1.8 1.8 2 3.6.5 6.3-1.3 2.5-1.4 3.6-.6 4.4q1.2 1.2 3.5-.3 4-2.8 7.2.2 2.3 2.6 0 6.9c-1.2 2-1.2 2-.5 3.2 1 1.4 1.7 1.4 3.8 0 4.2-2.8 9-.1 8.2 4.5q-.6 3.2-2.5 1.8m134.2-8v-1.3h41.4v2.7h-41.4zm347.9-7c-1-.8-2.2 1.4 9.9-19.5l9.6-16.6-14.9-25.8-14.8-25.7h-29.7l-29.6.2-10.3 17.8c-9.8 17-10.3 17.8-11.3 17.3l-1.1-.7c-.1 0 3.8-7 8.7-15.4l8.8-15.8c0-.3-4.9-9-10.9-19.3-9.8-17.1-10.8-19-10-19.4q.8-.6 1.2-.5c.2.1 5.1 8.3 10.8 18.2s10.5 18 10.7 18q.4-.1 1-1.4c.7-1.2 1-1.4 2.7-1.4q2 0 1.6-.5l-10.6-18.5c-10-17.3-10.3-18-9.4-18.6q.8-.6 1.4-.1c.3.2 5.3 8.8 11.2 19l10.7 18.5 27 .1 27 .1 10.1-17.4c5.5-9.6 10.3-17.7 10.6-18.1.5-.7.6-.7 1.5 0 1 .8 1 1-9.3 18.5-5.7 9.8-10.3 18-10.3 18.2 0 .3 6.7 12.1 15 26.4a950 950 0 0 1 14.9 26.3c0 .6-20.8 36.7-21.2 36.7zM294 612.3 274.8 579c-.2-.3-10.1-2.6-22.1-5.1l-21.9-4.8.2-1.3.3-1.2 21.1 4.6 21.9 4.5c.4 0 6.1-9.5 15.2-25.1L304 525c0-.2-5.7-6.7-12.8-14.6-12.5-13.9-12.8-14.3-12-15 .9-.8 1-.8 1.8-.1l13 14.3 12.1 13.6H366l7.3-12.8c13.3-23 11.9-20.8 13-20l1.1.9-9.3 16a465 465 0 0 0-9.5 17c0 .4 3.8 7.7 9.8 18l9.9 17.6c0 .4-1 1-1.8 1-.2 0-5-7.9-10.4-17.5L366 526.1h-59.4L292.2 551l-14.8 25.6c-.3.6 2 5 9.7 18.4 9.4 16.2 10.2 17.7 9.4 18.3-1.1.8-1.3.7-2.4-1m-122.5-8c-.6-.8.3-1.8 13.6-13.7 13.2-12 14.2-12.8 14.9-12l.6 1.2c0 .4-27.5 25.2-28 25.2q-.4 0-1-.8m214.9-26v-13.3h3.9l6.7 10.3 6.8 10.2V565h3.7v26.7h-3.9l-6.8-10.3-6.8-10.2v20.5h-3.6zm109 0v-13.3h3.6V576H513v-11h3.7v26.7H513v-12.4h-14v12.4h-3.7zm60.6 0v-13.3h4l6.7 10.3 6.8 10.2V565h3.6v26.7h-3.9l-6.7-10.3-6.8-10.2v20.5H556zm-350.8-12.8V552h4l6.7 10.3 6.8 10.2V552h3.7v27h-4l-6.7-10.2-6.8-10.2V579h-3.7zm218.4 12V576h6.4v2.7h-6.4zm12.4 0V576h6.4v2.7h-6.4zm12.4 0V576h6.5v2.7h-6.5zm12.4 0V576h6.5v2.7H461zm12.4 0V576h6.5v2.7h-6.5zm12.5 0V576h6.4v2.7h-6.4zm34 0V576H553v2.7h-33.1zm-108.5-.3c0-1.1 0-1.1 3.2-1.1 3.1 0 3.2 0 3.2 1.1s0 1.2-3.2 1.2c-3.1 0-3.2 0-3.2-1.2M286 577c-1-.8-.9-1 11.5-22.3a649 649 0 0 1 12.7-21.5l1.2.6c.8.6 0 2-11.5 22l-12.6 21.7q-.4.3-1.3-.5m378.6-20.5-12.3-21.8q0-.4.9-1t1.2 0l12.7 21.8c10.8 18.7 12.1 21.2 11.5 21.7l-1.2.6c-.3 0-6-9.6-12.8-21.3m-295.1-6.4c-8.1-14-9-15.8-8.3-16.3l1.2-.6c.5 0 18 30.1 18 31q-.1.4-1 1c-.8.5-1.4-.3-10-15.1M214 545.7l-3.2-22.9a294 294 0 0 1-2.4-19.4c.3-.3 38.4-17.3 39.6-17.7q.8-.1 1.2 1c.5 1 .5 1-18.9 9.7-17.4 7.7-19.4 8.7-19.2 9.6l5.9 42c.2 1.4.1 1.5-1.1 1.5-1.4 0-1.4 0-2-3.8m5.2-35.9c-.5-1-.4-1.1 16.2-8.5 9.2-4.2 16.8-7.5 17-7.4l.6 1.2c.5 1-.2 1.2-15.7 8.2-9 4-16.5 7.3-17 7.4q-.6.2-1.1-.9m513-16.4a7 7 0 0 1-2.3-2.6c-.7-1.4-.7-1.6-.1-2q1.5-1.1 2.3 1 .9 2.3 3.6 2.2c2.8 0 4.6-3 3.3-5.5-.6-1-3.3-2-4.4-1.6q-.8.5-.6-.7.1-1 2-1.6 4.1-1.7 1.6-4.4c-1.7-1.7-5.2-.6-6 1.8q-.3.6-1.3.3-2-.7.9-3.6a6 6 0 0 1 7.3-.7c2.5 1.7 3 5 1 6.7-.9.7-.9.8.7 2.2 4.8 4.6-2.2 12-8 8.5m-477.8-12.9v-13.3h4l6.7 10.2 6.8 10.3v-20.5h3.7v26.7h-4l-6.7-10.3-6.8-10.2v20.5h-3.7zm308.2 5.8a12 12 0 0 1-7-6.1c-1-2.4-1.2-3.2-1.2-7 0-3.9.1-4.7 1.3-7 2.8-5.7 8.5-8 14.8-6.1 4.9 1.4 7.9 5.7 8.3 11.8.7 8.5-3.9 14.4-11.4 14.9a15 15 0 0 1-4.8-.5m9-4.2q3.1-2.6 3.6-7.5c.5-5.3-1.5-9.5-5.1-11.1a8.3 8.3 0 0 0-11.6 5.3c-2.4 8.2 1.7 15.3 8.6 14.8 2.1-.1 3-.4 4.4-1.5m113 4.2c-3-1-4.4-2.6-6.2-6.2-1-2.2-1.2-3.1-1.3-7 0-4.8 1-7.7 3.4-10.2 2.7-2.9 7.8-4.2 12-3a11 11 0 0 1 6.2 5.6l.7 1.7-1.7.4q-1.6.5-1.8.2c-.5-1.4-2.2-3.5-3.5-4.3-3.3-2-8.4-.4-10.4 3.2-1 1.8-1.2 2.7-1.2 6.5s.2 4.6 1.2 6.4a8 8 0 0 0 7.5 4c2.7-.2 4.3-1.4 5.8-4.2 1.1-2 1.2-2.1 2.8-1.8l1.7.4c.5.5-2.2 5.1-3.6 6.4-3 2.5-7.7 3.3-11.6 1.9m-298.2-13.1v-13.4h3.9l6.7 10.3 6.8 10.2v-20.5h3.7v26.7h-3.9l-6.8-10.2-6.8-10.3v20.5h-3.6zm60.6 0v-13.4h3.7V471h13.8v-11.1h3.7v26.7h-3.7v-12.4h-13.8v12.4h-3.7zm257.5 0v-13.4h3.7V471h14v-11.1h3.6v26.7H722v-12.4h-13.8v12.4h-3.7zm-220.7-1V471h6.5v2.7h-6.5zm12 0V471h6.4v2.7h-6zm12 0V471h6.8v2.7h-6.9zm12.3 0V471h6.5v2.7h-6.5zm12 0V471h6.4v2.7h-6.4zm12 0V471h6.4v2.7H544zm-133-.2v-1h32.2v2.3H411zm60.8 0c0-1 0-1.1 3.2-1.1 3.1 0 3.2 0 3.2 1.1s0 1.2-3.2 1.2c-3.1 0-3.2 0-3.2-1.2m-90.5-24.3-4.8-8.5q0-.6.8-1.2c1-.7 1.2-.4 5.9 7.8 2.7 4.7 4.9 8.7 4.9 9s-1 .9-1.8.9a72 72 0 0 1-5-8M356 420.3V407h3.7v11h13.8v-11h3.7v26.6h-3.7v-12.4h-13.8v12.4H356zm362.3-18.4v-12h-8.2v-5h22v5.1h-8.3v23.9h-5.5z" style="fill:#000" transform="translate(-131.883 -374.902)"/></svg>