<svg xmlns="http://www.w3.org/2000/svg" width="620" height="352.39"><path d="M83.647 338.365a4695 4695 0 0 1 5.239-14.367l3.787-10.344 3.028-.136c1.665-.074 3.027-.06 3.027.034 0 .093 1.674 4.706 3.72 10.25a4843 4843 0 0 1 5.267 14.333l1.547 4.253h-5.793l-1.096-3.218-1.095-3.219H90.174l-1.036 3.219-1.037 3.218h-5.906zm15.546-7.815c.004-.19-.767-2.554-1.711-5.253l-1.717-4.908-1.737 4.871c-.955 2.68-1.736 5.044-1.736 5.253s1.551.381 3.448.381c1.896 0 3.45-.155 3.453-.344m435.13-3.872a12 12 0 0 1-1.71-1.194c-.742-.641-.72-.741.344-1.578 1.048-.825 1.193-.836 1.883-.146.904.904 2.429.753 3.093-.307.347-.554.32-1.423-.093-3.037-.71-2.772-.387-4.216 1.306-5.838 2.18-2.09 5.356-1.594 7.71 1.204 2.002 2.38 4.645 1.368 4.044-1.549-1.023-4.966-.618-6.496 2.07-7.813 2.13-1.046 4.143-.494 6.462 1.77 1.38 1.348 1.944 1.617 2.892 1.379 1.404-.353 1.904-1.857 1.218-3.663-.866-2.277-.593-4.305.779-5.782.695-.75 1.678-1.397 2.183-1.44 2.662-.223 3.595.102 5.417 1.888 2.115 2.073 3.438 2.228 4.295.501.429-.863.4-1.425-.14-2.718-1.375-3.29.834-7.09 4.123-7.09 2.19 0 4.431 1.252 4.458 2.49.018.88-1.793 1.246-3.018.61-2.135-1.107-4.101.822-2.977 2.921.62 1.16.627 4.44.012 5.59-.632 1.181-2.83 2.273-4.572 2.273-1.012 0-1.986-.53-3.443-1.872-1.553-1.43-2.335-1.837-3.323-1.724-1.156.133-1.285.317-1.226 1.757.035.885.208 2.437.384 3.448.261 1.506.123 2.128-.763 3.434-1.951 2.874-5.385 3.006-7.937.305-1.876-1.986-2.751-2.259-4-1.247-.954.772-.991.977-.483 2.674.952 3.177.72 4.642-1.012 6.374-2.369 2.368-5.347 2.056-7.582-.794-1.296-1.652-2.656-1.933-3.804-.785-.63.63-.833 1.246-.632 1.92.587 1.965.816 4.407.523 5.576-.566 2.256-4.298 3.674-6.48 2.463m-103.534-4.697c-2.928-.957-5.438-3.202-6.892-6.162-1.137-2.316-1.289-3.138-1.289-6.992 0-3.858.151-4.675 1.294-7.001 2.766-5.634 8.506-8 14.829-6.114 4.871 1.453 7.872 5.712 8.335 11.83.641 8.48-3.94 14.44-11.449 14.896-1.698.103-3.694-.086-4.828-.457m8.937-4.247c2.224-1.773 3.368-4.111 3.677-7.515.473-5.219-1.47-9.433-5.11-11.086-4.753-2.158-10.07.27-11.558 5.277-2.45 8.248 1.648 15.313 8.624 14.87 2.088-.132 2.996-.453 4.367-1.546m106.09-25.98a5642 5642 0 0 1-8.399-14.64l-1.503-2.65 1.083-.709 1.084-.71 7.98 13.869c4.389 7.627 8.198 14.243 8.465 14.7.38.655.294.975-.407 1.495-.491.364-1.008.656-1.15.65-.141-.008-3.36-5.41-7.153-12.005m-99.103 4.531c-.63-.489.696-3.013 10.435-19.869l11.157-19.308-1.756-.139c-1.46-.115-1.897-.401-2.594-1.696-.462-.856-.976-1.473-1.142-1.37-.167.103-5.247 8.775-11.29 19.27-6.041 10.496-11.204 19.088-11.472 19.094-.268.005-.82-.249-1.229-.565-.657-.509.592-2.883 10.924-20.757l11.667-20.183-1.101-1.884c-14.466-24.758-15.774-27.171-15.044-27.744.403-.316.952-.574 1.22-.573.267 0 4.83 7.548 10.14 16.77l9.655 16.77 22.872.009 22.871.01v2.758l-20.343.018-20.343.018-11.493 19.978c-6.322 10.987-11.7 19.972-11.953 19.965-.253-.006-.785-.264-1.181-.572m68.991-39.867v-13.332l1.954.011 1.954.012 6.78 10.217 6.78 10.218v-10.23l.002-10.228h3.678v26.664l-1.954-.012-1.954-.011-6.78-10.218-6.78-10.217v10.23l-.002 10.228h-3.678zm-352.614-.46v-13.332l1.954.012 1.954.011 6.78 10.218 6.78 10.217v-10.229l.002-10.229h3.678v26.664l-1.954-.011-1.954-.012-6.78-10.217-6.78-10.218v10.23l-.002 10.228h-3.678zm24.826-.92v-1.378h46.219l9.186-15.924c5.053-8.758 9.394-16.2 9.647-16.536.376-.502.636-.47 1.432.177.97.789.947.837-8.951 17.916l-9.925 17.125h-47.608zM53.72 253.823c-.748-.524-.901-.87-.543-1.228.663-.663.634-2.294-.053-2.981-.827-.827-1.926-.675-4.32.598-2.52 1.34-3.402 1.41-5.302.429-2.648-1.37-3.215-4.817-1.253-7.626 1.214-1.738 1.11-3.51-.244-4.127-.91-.414-1.446-.295-3.144.7-2.835 1.66-4.948 1.594-6.758-.215-1.858-1.859-1.927-4.267-.196-6.882 1.037-1.568 1.14-2.01.7-2.979-.636-1.395-2.385-1.515-4.146-.285-2.809 1.962-6.256 1.395-7.626-1.253-1-1.933-.9-3.208.417-5.346 1.25-2.03 1.45-3.435.61-4.276-.81-.81-2.122-.674-3.591.372-3.853 2.743-8.27.832-8.27-3.578 0-2.345.915-3.628 2.11-2.959.647.363.878 1 .878 2.423 0 2.864 1.003 3.304 3.864 1.696 1.237-.695 2.777-1.264 3.423-1.264 4.22 0 6.159 4.15 3.759 8.045-1.436 2.33-1.444 3.242-.04 4.163 1.058.693 1.24.667 3.144-.45 2.724-1.595 5.311-1.596 6.906-.001 1.834 1.834 1.998 3.553.597 6.254-1.319 2.542-1.472 3.595-.643 4.424.795.795 2.113.68 3.515-.307 2.64-1.86 5.133-1.769 7.163.261 1.593 1.593 1.588 4.11-.014 6.845-1.136 1.938-1.16 2.101-.45 3.185.943 1.437 1.722 1.436 3.847-.008 4.11-2.792 9.046-.052 8.184 4.544-.407 2.17-1.207 2.748-2.524 1.826m134.197-7.979v-1.38h41.376v2.76h-41.376zm347.865-7.103c-1.022-.774-2.161 1.461 9.893-19.403l9.603-16.622-14.844-25.775-14.845-25.775-29.648.102-29.649.101-10.274 17.81c-9.789 16.968-10.32 17.784-11.267 17.292-.547-.284-1.063-.575-1.148-.647s3.827-7.026 8.694-15.454c4.866-8.427 8.848-15.53 8.848-15.782s-4.898-8.942-10.884-19.31c-9.88-17.108-10.811-18.902-10.092-19.429.436-.32.997-.513 1.246-.43.25.083 5.12 8.253 10.822 18.155 5.703 9.901 10.519 18.008 10.702 18.014s.654-.61 1.046-1.368c.616-1.19.97-1.38 2.59-1.38 1.318 0 1.807-.17 1.644-.574-.127-.316-4.894-8.632-10.593-18.481-10.013-17.304-10.331-17.929-9.433-18.558.65-.456 1.073-.505 1.413-.165.267.266 5.302 8.824 11.188 19.017l10.704 18.532 27.046.112 27.045.112 10.039-17.433c5.521-9.588 10.28-17.752 10.574-18.142.48-.636.635-.627 1.501.08.962.788.92.87-9.302 18.49-5.648 9.736-10.272 17.917-10.276 18.181-.004.265 6.716 12.122 14.934 26.35S558 202.455 558 202.729c0 .606-20.802 36.685-21.14 36.664-.13-.008-.616-.301-1.078-.652m-373.516-1.287c-.496-.822-4.96-8.528-9.92-17.125s-9.181-15.881-9.381-16.188-10.17-2.638-22.157-5.182-21.819-4.672-21.85-4.73c-.031-.057.06-.64.202-1.295l.259-1.19 21.147 4.509c11.631 2.48 21.458 4.512 21.838 4.515.43.004 6.135-9.44 15.17-25.11 7.965-13.814 14.542-25.264 14.614-25.444s-5.655-6.748-12.728-14.597c-12.526-13.899-12.838-14.291-11.97-15.076.822-.744.953-.749 1.714-.06.454.41 6.298 6.85 12.988 14.31l12.163 13.565 29.882.01 29.883.01 7.344-12.755c13.239-22.992 11.836-20.845 13.03-19.943l1.038.782-9.285 16.076c-5.106 8.841-9.379 16.434-9.494 16.873-.124.476 3.808 7.763 9.728 18.03 5.464 9.476 9.936 17.422 9.936 17.656 0 .409-1.062.984-1.816.984-.199 0-4.888-7.857-10.421-17.461l-10.06-17.461-29.72-.009-29.719-.008-14.374 24.94c-7.906 13.717-14.57 25.259-14.81 25.647-.328.534 2.07 5.048 9.757 18.376 9.319 16.155 10.122 17.718 9.386 18.256-1.153.844-1.37.762-2.374-.905m-122.501-8.045c-.672-.75.254-1.682 13.518-13.612 13.26-11.927 14.284-12.75 14.887-11.953.356.47.654.989.662 1.154.019.386-27.561 25.215-28.009 25.215-.185 0-.662-.362-1.058-.804m214.813-25.86v-13.332l1.954.011 1.954.012 6.78 10.217 6.78 10.218v-10.23l.002-10.228h3.677v26.664l-1.953-.012-1.954-.011-6.78-10.218-6.78-10.217-.001 10.23-.001 10.228h-3.678zm108.956 0v-13.332h3.678v11.033h13.792v-11.032h3.678v26.664h-3.678v-12.414h-13.792v12.413h-3.678zm60.685 0v-13.332l1.953.011 1.954.012 6.78 10.217 6.78 10.218.001-10.23.001-10.228h3.678v26.664l-1.954-.012-1.954-.011-6.78-10.218-6.78-10.217v10.23l-.002 10.228h-3.677zM73.444 190.676v-13.332l1.954.012 1.954.012 6.78 10.217 6.78 10.217v-10.229l.002-10.229h3.678v26.665l-1.954-.012-1.954-.012-6.78-10.217-6.78-10.217-.001 10.229-.001 10.229h-3.678zm218.372 11.953v-1.379h6.436v2.759h-6.436zm12.413 0v-1.379h6.436v2.759h-6.436zm12.413 0v-1.379h6.436v2.759h-6.436zm12.412 0v-1.379h6.436v2.759h-6.436zm12.413 0v-1.379h6.436v2.759h-6.436zm12.413 0v-1.379h6.436v2.759h-6.436zm34.02 0v-1.379H421v2.759h-33.1zm-108.497-.23c0-1.116.092-1.149 3.218-1.149s3.219.033 3.219 1.15-.092 1.149-3.219 1.149-3.218-.033-3.218-1.15m-125.382-.096c-.937-.818-.863-.962 11.509-22.315 6.848-11.821 12.579-21.493 12.734-21.493s.666.28 1.135.624c.799.584.081 1.96-11.444 21.952-6.763 11.73-12.452 21.492-12.644 21.692-.191.2-.772-.007-1.29-.46m378.58-20.554c-6.765-11.726-12.299-21.498-12.299-21.716 0-.219.404-.65.898-.958.708-.442.976-.441 1.265.003.201.31 5.883 10.081 12.625 21.713 10.837 18.695 12.174 21.216 11.52 21.724-.406.316-.958.57-1.225.564-.268-.005-6.021-9.604-12.785-21.33m-295.125-6.393c-8.072-14.004-8.974-15.774-8.302-16.286.415-.316.973-.567 1.24-.557.485.018 17.957 30.117 17.957 30.934 0 .235-.413.696-.919 1.024-.87.564-1.41-.253-9.976-15.115m-155.27-4.563c-.289-2.086-1.736-12.378-3.215-22.872-1.48-10.493-2.557-19.213-2.394-19.377.323-.327 38.467-17.377 39.629-17.714.439-.128.915.227 1.229.916.511 1.122.485 1.135-18.916 9.747-17.423 7.735-19.41 8.725-19.266 9.596.089.535 1.4 9.868 2.912 20.74 1.513 10.873 2.864 20.441 3.002 21.263.236 1.404.17 1.494-1.101 1.494-1.345 0-1.355-.021-1.88-3.793m5.163-35.864c-.497-1.091-.343-1.172 16.265-8.58 9.222-4.114 16.828-7.408 16.902-7.32s.365.6.645 1.14c.489.94-.155 1.278-15.683 8.217-8.907 3.98-16.516 7.328-16.91 7.44-.434.124-.915-.23-1.219-.897M600.403 118.5c-.825-.503-1.851-1.652-2.281-2.554-.68-1.425-.694-1.695-.11-2.065 1.143-.722 1.689-.494 2.29.957.682 1.647 1.7 2.281 3.661 2.281 2.709 0 4.524-3.094 3.231-5.51-.55-1.026-3.227-1.99-4.341-1.563-.635.244-.768.094-.645-.723.11-.726.685-1.21 1.948-1.643 2.726-.933 3.373-2.635 1.655-4.352-1.71-1.711-5.22-.66-6.044 1.81q-.204.609-1.236.282c-1.306-.414-.994-1.754.848-3.65 1.827-1.88 5.104-2.18 7.316-.667 2.538 1.734 3.01 4.94.982 6.676-.839.718-.816.79.702 2.222 4.845 4.57-2.167 12.04-7.976 8.5m-477.769-12.874V92.295l1.954.012 1.954.011 6.78 10.218 6.78 10.217v-10.229l.002-10.229h3.678v26.664l-1.954-.011-1.954-.012-6.78-10.217-6.78-10.218v10.23l-.002 10.228h-3.678zm308.155 5.798c-2.928-.957-5.438-3.202-6.892-6.162-1.137-2.315-1.289-3.138-1.289-6.991 0-3.858.151-4.675 1.294-7.002 2.766-5.634 8.506-8 14.829-6.114 4.871 1.453 7.872 5.712 8.335 11.83.641 8.48-3.94 14.44-11.449 14.896-1.698.103-3.694-.086-4.828-.457m8.937-4.247c2.224-1.773 3.368-4.111 3.677-7.515.473-5.219-1.47-9.432-5.11-11.086-4.753-2.158-10.07.27-11.558 5.277-2.45 8.248 1.648 15.313 8.624 14.87 2.088-.131 2.996-.453 4.367-1.546m113.07 4.22c-2.895-1.033-4.408-2.555-6.194-6.23-1.065-2.193-1.23-3.11-1.237-6.896-.01-4.828.937-7.729 3.35-10.272 2.743-2.89 7.837-4.2 11.98-3.08 2.4.65 5.29 3.248 6.26 5.63l.693 1.703-1.721.476c-.947.262-1.774.323-1.838.136-.467-1.359-2.19-3.487-3.442-4.25-3.326-2.028-8.418-.46-10.463 3.22-1 1.8-1.15 2.636-1.15 6.437 0 3.8.15 4.636 1.15 6.436 1.535 2.763 4.376 4.278 7.505 4.002 2.764-.244 4.35-1.38 5.827-4.173 1.106-2.092 1.21-2.163 2.758-1.88.885.162 1.676.359 1.756.438.487.478-2.166 5.11-3.656 6.386-2.941 2.517-7.689 3.303-11.577 1.916m-298.22-13.126V84.938l1.955.012 1.954.012 6.78 10.217 6.78 10.217V95.168l.002-10.229h3.677v26.665l-1.953-.012-1.954-.012-6.78-10.217-6.78-10.217-.001 10.229-.001 10.229h-3.678zm60.685 0V84.938h3.678v11.034h13.792V84.938h3.678v26.665h-3.678V99.19H318.94v12.413h-3.678zm257.45 0V84.938h3.677v11.034h13.792V84.938h3.678v26.665h-3.678V99.19h-13.792v12.413h-3.678zm-220.671-.92v-1.38h6.436v2.76h-6.436zm11.953 0v-1.38h6.436v2.76h-6.436zm11.953 0v-1.38h6.896v2.76h-6.896zm12.413 0v-1.38h6.436v2.76h-6.436zm11.953 0v-1.38h6.436v2.76h-6.436zm11.953 0v-1.38h6.436v2.76h-6.436zm-132.863-.23v-1.15h32.181v2.3h-32.18zm60.685 0c0-1.116.092-1.15 3.218-1.15s3.218.034 3.218 1.15c0 1.117-.092 1.15-3.218 1.15s-3.218-.033-3.218-1.15m-90.508-24.33c-2.548-4.405-4.69-8.25-4.76-8.542-.07-.293.306-.83.834-1.192.927-.636 1.133-.361 5.862 7.849 2.695 4.68 4.9 8.694 4.9 8.922 0 .403-1.071.973-1.828.973-.206 0-2.46-3.605-5.008-8.01m-25.344-27.39V32.069h3.677v11.034h13.792V32.068h3.678v26.665h-3.678V46.32h-13.792v12.413h-3.678zm362.268-18.389V15.059h-8.276v-5.057h22.067v5.057h-8.275v23.906h-5.516z"/></svg>