<svg viewBox="0 0 620 369.4"><path d="M347 705.2v-13.6h3.8V703h14v-11.3h3.8V719h-3.8v-12.7h-14V719H347zm20.4-17.7-1-.8 5.2-9c2.9-5 5.4-9 5.5-9l1.1.6c.9.7.7 1-4.1 9.5l-5.4 9.2q-.3.2-1.3-.5m-153.5-1.7c-5-1.6-7.7-4.4-9.2-9.4-2.6-8.5 1.4-17.6 8.7-19.8 6.5-1.9 14.1.4 16.4 5 1.4 2.6 1.4 3.2 0 3.4l-2.8.6c-1.3.2-1.6 0-2.4-1.3-2.3-4-9.6-4.2-13-.5-2.8 3.2-2.8 10.8 0 14.5 2.3 3 7.6 3.8 12 1.6 1.7-.9 1.8-1.1 1.8-2.8v-2h-7V670H231v12l-2 1.3a20 20 0 0 1-15.2 2.5m449.3-16.2c-2-1.3-2.2-1.7-.8-2.6 1-.7 1.2-.7 1.9 0q1.2 1.3 2.7 0c.9-.6.9-1.7 0-5-.4-2 .9-4.4 2.8-5.3q3.5-1.5 6.7 1.8c1.7 1.8 2.6 2 3.7.9q.9-.7.5-2.5c-.6-2.7-.5-5.5.2-6.4a7 7 0 0 1 2.3-1.5q3-1.2 6.2 2c1.8 1.9 2.8 2 4 .7.7-.8.7-1.2.3-2.7-.9-2.9-.7-4.6.6-6.1 2.2-2.6 5.5-2.4 8.2.6 2.8 3 5.2 1.2 4-3-.7-2-.7-2.4-.1-3.9 1.2-3 4.7-3.8 7.7-2q2 1.4.2 2.4-1 .7-2 0c-2.1-1.4-4 .4-3.2 2.7.9 2.4.6 5.4-.7 6.6q-3.5 3.6-7.9-.7c-2-2-2.5-2.2-3.8-1.2q-1 .5-.6 2.2c.9 4.7.9 4.8-.2 6.5a5 5 0 0 1-5.4 2.2c-.6-.2-2-1.2-3-2.2s-2.2-1.9-2.5-1.9c-1.3 0-2.3 1.5-2 2.8l.6 3.4c.2 2 .1 2.3-1.2 3.8-1.2 1.3-1.7 1.5-3.5 1.5s-2.4-.2-4.2-2c-1.2-1-2.4-2-2.7-2-1 0-2.4 2-2.1 2.8.7 1.6.8 4.8.2 6.1-.5 1.4-2.9 2.9-4.5 2.9q-.9 0-2.4-1M558 665q-4.6-1.6-7-6.2c-1.2-2.4-1.3-3.3-1.3-7.2s.1-4.8 1.3-7.1c2.8-5.8 8.7-8.2 15.1-6.3q7.6 2.4 8.6 12.1c.6 8.7-4 14.7-11.7 15.2-1.8.1-3.8 0-5-.5m9.2-4.3q3.3-2.6 3.7-7.7c.5-5.3-1.5-9.6-5.2-11.3a8.5 8.5 0 0 0-11.8 5.4c-2.5 8.4 1.7 15.6 8.8 15.2 2.1-.1 3-.5 4.5-1.6m-189.2-9V638h4l7 10.5 6.9 10.4V638h3.7v27.2h-4l-6.9-10.4-6.9-10.5v20.9H378zm62 0V638h3.8v11.3h14V638h3.8v27.2H458v-12.7h-14.1v12.7H440zm49.8-1v-1.4h6.6v2.8h-6.6zm12.2 0v-1.4h6.6v2.8H502zm12.2 0v-1.4h6.6v2.8h-6.6zm12.7 0v-1.4h6.6v2.8h-6.6zm12.2 0v-1.4h6.6v2.8H539zm-136.2-.3v-1.1h33.8v2.3H403zm62 0c0-1.1.1-1.1 3.3-1.1s3.3 0 3.3 1.1-.1 1.2-3.3 1.2-3.3 0-3.3-1.2m12.2 0c0-1.1.1-1.1 3.5-1.1 3.5 0 3.6 0 3.6 1.1s-.1 1.2-3.6 1.2c-3.4 0-3.5 0-3.5-1.2m197-18.7-8.4-15.1q0-.4 1-1c.9-.6 1.2 0 9.4 14.2l8.6 15c0 .4-1.5 1.6-1.9 1.6zm-99.9 7.1c-.6-.5.6-3 10.7-20.3l11.5-20q-.1-.4-1.8-.4c-1.6 0-2-.3-2.8-1.5q-1-1.5-1.4-.8l-11.6 20-11.1 19.3-1.2-.7q-1-.7-1-1c1.4-2.2 22.9-39.6 23.3-40.3.4-.8-.8-3.1-8.1-15.7-8.2-14.2-8.5-14.8-7.6-15.3l1.2-.6c.2 0 4.7 7.7 10.1 17l9.9 17.2H641v2.4h-41.2l-12 20.6a349 349 0 0 1-12.3 20.7q-.6 0-1.3-.6m-197-5.9-10.4-18-9.7-16.8H310v-2.8h47.2l8.5-14.7c4.6-8 9-15.7 9.9-17 1.4-2.5 1.4-2.6 2.4-1.8l1.1.9-9.5 16.4c-5.2 9-9.5 16.8-9.7 17.2 0 .5 4 8 10 18.4 5.6 9.7 10.1 17.8 10.1 18q0 .6-1 1-.8.9-1.7-.8m267.6-34.8v-13.6h4l6.9 10.4 7 10.5v-20.9h3.7v27.2h-4l-7-10.5-6.9-10.4v20.9h-3.7zm-360.2-.5V584h4l7 10.4 6.8 10.5V584h3.8v27.2h-4l-7-10.4-6.9-10.5v20.9h-3.8zM173 595.3q-1.2-.9-.6-1.2c.7-.4.7-2.3 0-3-.9-.8-2.7-.7-4 .3-2 1.4-3.3 1.6-5 1-3.2-1-4.2-4.9-2.3-8q1.8-2.8.5-4-1.2-1.5-4 .5c-5.3 3.6-10.6-2-7-7.3q1.3-1.7 1-2.7c-.6-1.8-1.7-2-4.7-.5-2.8 1.4-3.6 1.4-5.8.3-1.3-.6-2.5-2.6-2.4-4.2 0-.6.5-2 1.1-3a8 8 0 0 0 1.2-2.8c0-2.1-2.3-2.7-4.4-1.1-2.5 2-6 1.6-7.6-.8a7 7 0 0 1-.1-5.5c.4-1.1.6-1.2 1.5-.5q1 .6 1 2.6c0 2.9 1 3.3 4 1.7 3.4-2 6.4-1.5 7.7 1.1 1 2 .9 3.5-.6 6.1-1 1.8-1.2 2.5-.8 3.1.8 1.2 2.8 1.3 4.4.2 3.2-2.3 7.5-.9 8.3 2.8q.4 1.3-1 3.8c-1.3 2.6-1.4 3.7-.6 4.5q1.4 1.3 3.7-.4c5.5-3.9 10.7 1.4 7.3 7.3q-2 3.1.3 4c.7.4 1.3.3 3-.7 4.7-2.7 9.4-.2 8.5 4.7q-.6 3.3-2.6 1.7m137-8V586h42.3v2.8H310zm355.3-7.3q-1-.8-.4-1.5l10.4-18.1 10-17.3L670 517l-15-26.3h-60.6l-10.3 18c-5.7 10-10.6 18-10.8 18q-.6 0-1.3-.5c-.7-.6.3-2.5 9.7-18.7l10.4-18-5.2-9-9.9-17.2-4.8-8.3 1.1-.5 1.3-.5 10 17.1 9.8 17.1 31.2.2 31.1.1 15.5 26.8c8.5 14.7 15.6 27.1 15.7 27.5.2.7-20.9 38-21.4 38q-.4 0-1.2-.7m-381.4-1.3L264 544.5c-.2-.3-43.5-9.7-44.6-9.7q-.3-.2 0-1.4 0-1.5.9-1.2c2.2.6 43.8 9.3 43.9 9.1l29.8-51.6c0-.2-5.8-7-13-15L267.6 460l1-.9c1-.8 1-.8 14.2 13.9l13.2 14.7 27.9-.1 27.8-.1 11-18.9 11.1-19.2c.4-.4 2.3.3 2.3.8 0 .3-4.8 8.8-10.6 18.8L355 487.6q.2.2 1.8.2c1.6 0 2 .2 2.8 1.7l1 1.7 9.2-16.1c13.6-23.7 12.3-21.7 13.6-20.8l1.1.7-11.2 19.4L362 494l9 15.4c4.9 8.5 9 15.7 9 16s-1.1 1-2 1c-.1 0-5-8-10.6-17.8l-10.3-17.8h-60.7L281.7 516c-8 14-14.9 25.8-15 26.2-.4.5 2.3 5.6 9.9 18.7 9.6 16.7 10.3 18 9.5 18.7-1.2.9-1.3.8-2.3-1m-125.2-8.2c-.7-.8 0-1.6 13.6-13.8A303 303 0 0 1 187 544q.5 0 1 .9c.4.6.3 1-.6 2a1556 1556 0 0 1-27.7 24.6q-.4-.1-1.1-.8M378 544.2v-13.6h4l7 10.4 6.9 10.5v-20.9h3.7v27.2h-4l-6.9-10.5-6.9-10.4v20.9H378zm62 0v-13.6h3.8v11.2h14v-11.2h3.8v27.2H458V545h-14.1v12.7H440zm111.3 0v-13.6h4l7 10.4 6.9 10.5v-20.9h3.8v27.2h-4l-7-10.5-7-10.4v20.9h-3.7zM193 531v-13.6h4l7 10.5 6.9 10.4v-20.9h3.8v27.2h-4l-7-10.4-7-10.5v20.9H193zm297.3 12.2v-1.4h6.5v2.8h-6.5zm12.6 0v-1.4h6.6v2.8H503zm12.7 0v-1.4h6.6v2.8h-6.6zm12.7 0v-1.4h6.6v2.8h-6.6zm12.7 0v-1.4h6.6v2.8H541zm-137.6-.2v-1.2h33.3v2.4h-33.3zm61.5 0c0-1.1.1-1.2 3.3-1.2s3.3 0 3.3 1.2-.1 1.2-3.3 1.2-3.3 0-3.3-1.2m12.7 0c0-1.1 0-1.2 3.3-1.2s3.3 0 3.3 1.2-.1 1.2-3.3 1.2-3.3 0-3.3-1.2m-202.3-.1c-1-.8-1-1 11.7-22.7 7-12 13-21.9 13.3-22q.5 0 1.2.6c.4.6-1.6 4.4-12 22.5a759 759 0 0 1-12.9 22q-.4.3-1.3-.4m386.8-20.8-12.6-22.3c-.1-.7 2-2 2.2-1.4 0 .3 5.8 10.3 12.7 22.3 11.3 19.4 12.6 21.9 11.9 22.4l-1.2.6c-.3 0-6.1-9.7-13-21.6m-82 8.8c-1-.6-.7-1 8-16l9.4-16.2c.4-.6 2.2 0 2.2 1 0 .5-18 31.8-18.3 31.8zM202.4 514l-3.2-23.4a535 535 0 0 1-3-23c.4-.4 40.4-18.3 41-18.3q.3.1.8 1.1c.5 1 0 1.3-19.4 10-15.6 6.9-19.8 9-19.7 9.5a1960 1960 0 0 1 6.2 43.2c.2 1.4.2 1.5-1.2 1.5q-1.4 0-1.5-.6m5-39.8q-.3-1 0-1.4c.4-.4 33-15 33.5-15q.4.1.8 1c.5 1.2.3 1.3-16.5 8.8L208 475q-.2 0-.6-1m35.9-30v-13.7h4l6.9 10.5 7 10.4v-20.9h3.7v27.3h-4l-7-10.5L247 437v20.9h-3.7zm141 5.4a12 12 0 0 1-7-6.3c-1.2-2.4-1.4-3.2-1.4-7.1 0-4 .2-4.8 1.3-7.2 2.9-5.7 8.7-8.2 15.2-6.2 5 1.5 8 5.8 8.5 12 .7 8.7-4 14.8-11.7 15.3-1.7 0-3.8-.1-5-.5m9.1-4.3q3.4-2.6 3.8-7.7c.4-5.3-1.5-9.6-5.3-11.3a8.5 8.5 0 0 0-11.8 5.4c-2.5 8.4 1.7 15.6 8.8 15.1a6 6 0 0 0 4.5-1.5m96-8.7V423h3.7v11.3h14V423h3.8v27.3H507v-12.7h-14v12.7h-3.8zm62.4 0V423h4l6.9 10.5 7 10.4V423h3.7v27.3h-4l-7-10.5-6.9-10.4v20.9h-3.8zm-122.1-.9v-1.4h6.6v2.8h-6.6zm12.7 0v-1.4h6.5v2.8h-6.5zm12.2 0v-1.4h6.6v2.8h-6.6zm12.7 0v-1.4h6.5v2.8h-6.5zm12.2 0v-1.4h6.5v2.8h-6.5zm34.7 0v-1.4h33.4v2.8h-33.4zm-109.4-.2c0-1.2.1-1.2 3.3-1.2s3.3 0 3.3 1.2-.1 1.1-3.3 1.1-3.3 0-3.3-1.1m12.7 0c0-1.2 0-1.2 3.3-1.2s3.3 0 3.3 1.2-.1 1.1-3.3 1.1-3.3 0-3.3-1.1m294-9.4c-5-1.6-8.4-6.4-8.8-12.7-.8-9.4 4.2-16 12.5-16.6 5.6-.4 10.1 2 12.2 6.3.5 1.2 1 2.3.8 2.4 0 0-1.3.4-2.7.6q-2.6.6-2.7 0l-1.3-1.8c-3.1-3.7-9.9-2.9-12.3 1.5-.6 1.1-.8 2.6-.8 6 0 4.8.7 6.7 3.1 8.5a8 8 0 0 0 7.5.5 10 10 0 0 0 3.8-5c.2-.3 4.5 1 5.2 1.6.6.5-.9 3.5-2.5 5.4-.9 1-2.4 2.1-3.4 2.7a17 17 0 0 1-10.7.6m-139.6-7.4c-.7-.6-.2-1.6 4.4-9.6 4.9-8.4 5.3-9 6.2-8.5l1.2.6c.3.3-10 18-10.5 18q-.6 0-1.3-.5m10.9-35.6v-13.6h3.7v11.3h14.1v-11.3h3.8v27.2h-3.8V384h-14v12.7h-3.8z" style="fill:#000" transform="translate(-118.24 -359.489)"/></svg>