<svg stroke="#000" stroke-linecap="square" stroke-miterlimit="10" color-interpolation="auto" font-family="'Dialog'" font-size="12" viewBox="0 0 1200 890"><defs><clipPath id="a" clipPathUnits="userSpaceOnUse"><path d="M-895.5-324.5h1200v890h-1200z"/></clipPath><clipPath id="b" clipPathUnits="userSpaceOnUse"><path d="M-624-645.7H576v890H-624z"/></clipPath><clipPath id="c" clipPathUnits="userSpaceOnUse"><path d="M-383-645.7H817v890H-383z"/></clipPath><clipPath id="d" clipPathUnits="userSpaceOnUse"><path d="M-503.6-437h1200v890h-1200z"/></clipPath><clipPath id="e" clipPathUnits="userSpaceOnUse"><path d="M932.6 336.2c11 0 19.9 8.9 19.9 19.9v39.8c0 11-9 19.9-20 19.9h-10c-11 0-20-9-20-20v-39.7c0-11 9-20 20-20Zm-392 112.5c11 0 20 9 20 20v39.7c0 11-9 20-20 20h-10.1c-11 0-20-9-20-20v-39.8c0-11 9-19.9 20-19.9ZM420.2 657.4c11 0 19.9 9 19.9 19.9v39.8c0 11-9 20-20 20H410c-11 0-20-9-20-20v-39.8c0-11 9-19.9 20-19.9Zm241 0c11 0 19.8 9 19.8 20V717c0 11-8.9 20-19.9 20H651c-11 0-20-9-20-20v-39.8c0-11 9-19.9 20-19.9ZM0 0v890h1200V0Z"/></clipPath></defs><text xml:space="preserve" y="84" stroke="none" clip-path="url(#a)" font-family="'Arial'" font-size="89" text-rendering="geometricPrecision" transform="translate(895.485 324.481)">H</text><text xml:space="preserve" y="84" stroke="none" clip-path="url(#b)" font-family="'Arial'" font-size="89" text-rendering="geometricPrecision" transform="translate(624.047 645.715)">H</text><text xml:space="preserve" y="84" stroke="none" clip-path="url(#c)" font-family="'Arial'" font-size="89" text-rendering="geometricPrecision" transform="translate(383.079 645.713)">H</text><text xml:space="preserve" y="84" stroke="none" clip-path="url(#d)" font-family="'Arial'" font-size="89" text-rendering="geometricPrecision" transform="translate(503.564 437.033)">H</text><path stroke="none" d="M172.6 555.5 52.1 625a3 3 0 1 0 3 5.3l120.5-69.6a3 3 0 1 0-3-5.2" clip-path="url(#e)" font-family="'Arial'" font-size="89" text-rendering="geometricPrecision"/><path stroke="none" d="M50.6 627.6v139.2a3 3 0 1 0 6 0V627.6a3 3 0 1 0-6 0" clip-path="url(#e)" font-family="'Arial'" font-size="89" text-rendering="geometricPrecision"/><path stroke="none" d="m52.1 769.4 120.5 69.5a3 3 0 1 0 3-5.2L55.1 764.2a3 3 0 1 0-3 5.2" clip-path="url(#e)" font-family="'Arial'" font-size="89" text-rendering="geometricPrecision"/><path stroke="none" d="m175.6 839 120.5-69.6a3 3 0 1 0-3-5.2l-120.5 69.5a3 3 0 1 0 3 5.2" clip-path="url(#e)" font-family="'Arial'" font-size="89" text-rendering="geometricPrecision"/><path stroke="none" d="M297.6 766.8V627.6a3 3 0 1 0-6 0v139.2a3 3 0 1 0 6 0" clip-path="url(#e)" font-family="'Arial'" font-size="89" text-rendering="geometricPrecision"/><path stroke="none" d="m172.6 560.7 120.5 69.6a3 3 0 1 0 3-5.3l-120.5-69.5a3 3 0 1 0-3 5.2" clip-path="url(#e)" font-family="'Arial'" font-size="89" text-rendering="geometricPrecision"/><path stroke="none" d="M416.6 839 537 769.3a3 3 0 1 0-3-5.2l-120.5 69.5a3 3 0 1 0 3 5.2" clip-path="url(#e)" font-family="'Arial'" font-size="89" text-rendering="geometricPrecision"/><path stroke="none" d="M538.6 766.8V627.7a3 3 0 1 0-6 0v139a3 3 0 1 0 6 0" clip-path="url(#e)" font-family="'Arial'" font-size="89" text-rendering="geometricPrecision"/><path stroke="none" d="m537 625-120.4-69.5a3 3 0 1 0-3 5.2L534 630.3a3 3 0 1 0 3-5.3" clip-path="url(#e)" font-family="'Arial'" font-size="89" text-rendering="geometricPrecision"/><path stroke="none" d="m293 769.4 120.6 69.5a3 3 0 1 0 3-5.2L296 764.2a3 3 0 1 0-3 5.2" clip-path="url(#e)" font-family="'Arial'" font-size="89" text-rendering="geometricPrecision"/><path stroke="none" d="m296.1 630.3 120.5-69.6a3 3 0 1 0-3-5.2L293 625a3 3 0 1 0 3 5.3" clip-path="url(#e)" font-family="'Arial'" font-size="89" text-rendering="geometricPrecision"/><path stroke="none" d="M416.6 421.6 537 352a3 3 0 1 0-3-5.2l-120.5 69.6a3 3 0 1 0 3 5.2" clip-path="url(#e)" font-family="'Arial'" font-size="89" text-rendering="geometricPrecision"/><path stroke="none" d="m534 352 120.5 69.6a3 3 0 1 0 3-5.2l-120.4-69.6a3 3 0 1 0-3 5.2" clip-path="url(#e)" font-family="'Arial'" font-size="89" text-rendering="geometricPrecision"/><path stroke="none" d="M653 419v139a3 3 0 1 0 6 0V419a3 3 0 1 0-6 0" clip-path="url(#e)" font-family="'Arial'" font-size="89" text-rendering="geometricPrecision"/><path stroke="none" d="m537 630.3 120.6-69.6a3 3 0 1 0-3-5.2L534 625a3 3 0 1 0 3 5.3" clip-path="url(#e)" font-family="'Arial'" font-size="89" text-rendering="geometricPrecision"/><path stroke="none" d="M418 558V419a3 3 0 1 0-6 0v139a3 3 0 1 0 6 0" clip-path="url(#e)" font-family="'Arial'" font-size="89" text-rendering="geometricPrecision"/><path stroke="none" d="m790.8 602.9 81.8-112.6a3 3 0 1 0-5-3.5L786 599.3a3 3 0 1 0 4.9 3.6" clip-path="url(#e)" font-family="'Arial'" font-size="89" text-rendering="geometricPrecision"/><path stroke="none" d="m872.6 486.8-81.8-112.6a3 3 0 1 0-4.9 3.6l81.8 112.5a3 3 0 1 0 4.9-3.5" clip-path="url(#e)" font-family="'Arial'" font-size="89" text-rendering="geometricPrecision"/><path stroke="none" d="m657 421.8 132.3-43a3 3 0 1 0-1.9-5.7l-132.3 43a3 3 0 1 0 1.9 5.7" clip-path="url(#e)" font-family="'Arial'" font-size="89" text-rendering="geometricPrecision"/><path stroke="none" d="m655.1 561 132.3 43a3 3 0 1 0 1.9-5.8l-132.3-43a3 3 0 1 0-1.9 5.8" clip-path="url(#e)" font-family="'Arial'" font-size="89" text-rendering="geometricPrecision"/><path stroke="none" d="m791.2 377 43-132.4a3 3 0 1 0-5.7-1.9l-43 132.4a3 3 0 1 0 5.7 1.8" clip-path="url(#e)" font-family="'Arial'" font-size="89" text-rendering="geometricPrecision"/><path stroke="none" d="m827.5 244.3 1.6 1.4 2.3-2 2.2-2-1.2-1.8zm-14.7-13 4.5 4 7.1-6.5-3.5-5zM798 218.1l4.6 4 10.4-9.4-3.5-5zM783.3 205l4.5 4 13.8-12.3-3.6-5zm-14.8-13 4.6 4 17-15.4-3.5-5zm-14.7-13 4.5 4 20.4-18.3-3.6-5zM739 166l4.6 4 23.6-21.3-3.5-5zm-14.7-13.1 4.5 4 27-24.3-3.5-5-14 12.7z" clip-path="url(#e)" font-family="'Arial'" font-size="89" text-rendering="geometricPrecision"/><path stroke="none" d="m832 246.6 136-29a3 3 0 1 0-1.2-5.8l-136 29a3 3 0 1 0 1.2 5.8" clip-path="url(#e)" font-family="'Arial'" font-size="89" text-rendering="geometricPrecision"/><path stroke="none" d="m970.3 215.7 43-132.3a3 3 0 1 0-5.7-1.9l-43 132.3a3 3 0 1 0 5.7 1.9" clip-path="url(#e)" font-family="'Arial'" font-size="89" text-rendering="geometricPrecision"/><path stroke="none" d="m1011 85.4 136.1-29a3 3 0 1 0-1.2-5.8l-136 28.9a3 3 0 1 0 1.2 5.9" clip-path="url(#e)" font-family="'Arial'" font-size="89" text-rendering="geometricPrecision"/><path stroke="none" d="m792.6 372.3-4.2.7v6l4.2.6zm19.6-3-6 1v11.4l6 1zm19.5-3-6 .9v17.6l6 1zm19.6-3-6 .9v23.6l6 1zm19.6-3.1-6 1v29.6l6 1zm19.6-3-6 .9v35.8l6 .9z" clip-path="url(#e)" font-family="'Arial'" font-size="89" text-rendering="geometricPrecision"/><path stroke="none" d="m660.7 567-1.1-6h-7.1l-1 6zm3.5 19.6-1-6H649l-1.1 6zm3.6 19.6-1.1-6h-21.3l-1 6zm3.5 19.6-1-6h-28.4l-1.1 6zm3.6 19.6-1.1-6h-35.5l-1 6z" clip-path="url(#e)" font-family="'Arial'" font-size="89" text-rendering="geometricPrecision"/><path stroke="none" d="m419.7 567-1-6h-7.2l-1 6zm3.6 19.6-1.1-6H408l-1.1 6zm3.5 19.6-1-6h-21.4l-1 6zm3.6 19.6-1.1-6h-28.4l-1.1 6zm3.5 19.6-1-6h-35.6l-1 6z" clip-path="url(#e)" font-family="'Arial'" font-size="89" text-rendering="geometricPrecision"/><path stroke="none" d="M294.6 627.6h3l15.8-139h-37.6l15.8 139Z" clip-path="url(#e)" font-family="'Arial'" font-size="89" text-rendering="geometricPrecision"/><path stroke="none" d="M535.6 627.7h3l15.8-87.3h-37.7l15.9 87.3Z" clip-path="url(#e)" font-family="'Arial'" font-size="89" text-rendering="geometricPrecision"/><path stroke="none" d="M656 419h3l16-139.2h-37.7L653 419Z" clip-path="url(#e)" font-family="'Arial'" font-size="89" text-rendering="geometricPrecision"/></svg>