<svg xmlns="http://www.w3.org/2000/svg" xmlns:xlink="http://www.w3.org/1999/xlink" width="805" height="445" fill="#000" fill-opacity="1" stroke="#000" stroke-dasharray="none" stroke-dashoffset="0" stroke-linecap="square" stroke-linejoin="miter" stroke-miterlimit="10" stroke-opacity="1" stroke-width="1" color-interpolation="auto" color-rendering="auto" font-family="'Dialog'" font-size="12" font-style="normal" font-weight="normal" image-rendering="auto" shape-rendering="auto" text-rendering="auto"><g><defs id="927878051230-defs1"><clipPath id="927878051591-clipPath1" clipPathUnits="userSpaceOnUse"><path d="M0 0 L805 0 L805 445 L0 445 L0 0 Z"/></clipPath><clipPath id="927878051863-clipPath1" clipPathUnits="userSpaceOnUse"><path d="M-282.3981 -278.0446 L522.6019 -278.0446 L522.6019 166.9554 L-282.3981 166.9554 L-282.3981 -278.0446 Z"/></clipPath><clipPath id="927878051395-clipPath1" clipPathUnits="userSpaceOnUse"><path d="M-343.6624 -171.9349 L461.3376 -171.9349 L461.3376 273.0651 L-343.6624 273.0651 L-343.6624 -171.9349 Z"/></clipPath><clipPath id="927878051448-clipPath1" clipPathUnits="userSpaceOnUse"><path d="M-404.9253 -278.0453 L400.0747 -278.0453 L400.0747 166.9546 L-404.9253 166.9546 L-404.9253 -278.0453 Z"/></clipPath><clipPath id="92787805159-clipPath1" clipPathUnits="userSpaceOnUse"><path d="M-221.1339 -384.1543 L583.8661 -384.1543 L583.8661 60.8457 L-221.1339 60.8457 L-221.1339 -384.1543 Z"/></clipPath><clipPath id="927878051967-clipPath1" clipPathUnits="userSpaceOnUse"><path d="M-7.321 -348.7835 L797.679 -348.7835 L797.679 96.2165 L-7.321 96.2165 L-7.321 -348.7835 Z"/></clipPath><clipPath id="927878051230-clipPath1" clipPathUnits="userSpaceOnUse"><path d="M-341.1546 -30.4501 L463.8454 -30.4501 L463.8454 414.5499 L-341.1546 414.5499 L-341.1546 -30.4501 Z"/></clipPath><clipPath id="927878051294-clipPath1" clipPathUnits="userSpaceOnUse"><path d="M-542.8487 -118.4072 L262.1513 -118.4072 L262.1513 326.5928 L-542.8487 326.5928 L-542.8487 -118.4072 Z"/></clipPath><clipPath id="92787805192-clipPath1" clipPathUnits="userSpaceOnUse"><path d="M-724.6165 -123.1606 L80.3835 -123.1606 L80.3835 321.8394 L-724.6165 321.8394 L-724.6165 -123.1606 Z"/></clipPath><clipPath id="927878051248-clipPath1" clipPathUnits="userSpaceOnUse"><path d="M-402.4175 -348.7878 L402.5825 -348.7878 L402.5825 96.2122 L-402.4175 96.2122 L-402.4175 -348.7878 Z"/></clipPath><clipPath id="927878051947-clipPath1" clipPathUnits="userSpaceOnUse"><path d="M-700.1458 -3.3106 L104.8542 -3.3106 L104.8542 441.6895 L-700.1458 441.6895 L-700.1458 -3.3106 Z"/></clipPath></defs><g text-rendering="geometricPrecision"><path stroke="none" d="M176.5085 235.2255 L115.2455 270.5967 C114.6521 270.9394 114.4488 271.6979 114.7915 272.2913 C115.1341 272.8848 115.8927 273.088 116.4861 272.7454 L177.749 237.3742 C178.3425 237.0315 178.5457 236.273 178.2031 235.6796 C177.8604 235.0861 177.1019 234.8829 176.5085 235.2255 Z" clip-path="url(#927878051591-clipPath1)"/></g><g text-rendering="geometricPrecision"><path stroke="none" d="M114.6253 271.6711 L114.6253 342.4135 C114.6253 343.0987 115.1806 343.654 115.8658 343.654 C116.5511 343.654 117.1064 343.0987 117.1064 342.4135 L117.1064 271.6711 C117.1064 270.9858 116.5511 270.4305 115.8658 270.4305 C115.1806 270.4305 114.6253 270.9858 114.6253 271.6711 Z" clip-path="url(#927878051591-clipPath1)"/></g><g text-rendering="geometricPrecision"><path stroke="none" d="M115.2455 343.4878 L176.5085 378.859 C177.1019 379.2016 177.8604 378.9984 178.2031 378.4049 C178.5457 377.8115 178.3425 377.0529 177.749 376.7103 L116.4861 341.3391 C115.8927 340.9965 115.1341 341.1997 114.7915 341.7932 C114.4488 342.3866 114.6521 343.1451 115.2455 343.4878 Z" clip-path="url(#927878051591-clipPath1)"/></g><g text-rendering="geometricPrecision"><path stroke="none" d="M177.749 378.859 L239.0119 343.4878 C239.6054 343.1451 239.8086 342.3866 239.466 341.7932 C239.1234 341.1997 238.3648 340.9965 237.7714 341.3391 L176.5085 376.7103 C175.915 377.0529 175.7118 377.8115 176.0544 378.4049 C176.397 378.9984 177.1556 379.2016 177.749 378.859 Z" clip-path="url(#927878051591-clipPath1)"/></g><g text-rendering="geometricPrecision"><path stroke="none" d="M239.6322 342.4135 L239.6322 271.6711 C239.6322 270.9858 239.0769 270.4305 238.3917 270.4305 C237.7064 270.4305 237.1511 270.9858 237.1511 271.6711 L237.1511 342.4135 C237.1511 343.0987 237.7064 343.654 238.3917 343.654 C239.0769 343.654 239.6322 343.0987 239.6322 342.4135 Z" clip-path="url(#927878051591-clipPath1)"/></g><g text-rendering="geometricPrecision"><path stroke="none" d="M176.5085 237.3742 L237.7714 272.7454 C238.3648 273.088 239.1234 272.8848 239.466 272.2913 C239.8086 271.6979 239.6054 270.9394 239.0119 270.5967 L177.749 235.2255 C177.1556 234.8829 176.397 235.0861 176.0544 235.6796 C175.7118 236.273 175.915 237.0315 176.5085 237.3742 Z" clip-path="url(#927878051591-clipPath1)"/></g><g text-rendering="geometricPrecision"><path stroke="none" d="M300.2762 378.8598 L361.5404 343.4909 C362.1339 343.1483 362.3372 342.3898 361.9946 341.7963 C361.6519 341.2029 360.8934 340.9996 360.3 341.3422 L299.0357 376.7111 C298.4422 377.0537 298.239 377.8122 298.5816 378.4057 C298.9242 378.9991 299.6827 379.2024 300.2762 378.8598 Z" clip-path="url(#927878051591-clipPath1)"/></g><g text-rendering="geometricPrecision"><path stroke="none" d="M362.1607 342.4166 L362.1607 271.6757 C362.1607 270.9904 361.6055 270.4352 360.9202 270.4352 C360.2349 270.4352 359.6797 270.9904 359.6797 271.6757 L359.6797 342.4166 C359.6797 343.1018 360.2349 343.6571 360.9202 343.6571 C361.6055 343.6571 362.1607 343.1018 362.1607 342.4166 Z" clip-path="url(#927878051591-clipPath1)"/></g><g text-rendering="geometricPrecision"><path stroke="none" d="M361.5405 270.6014 L300.2762 235.2294 C299.6827 234.8868 298.9242 235.09 298.5816 235.6835 C298.239 236.2769 298.4422 237.0354 299.0356 237.3781 L360.2999 272.7501 C360.8934 273.0927 361.6519 272.8895 361.9945 272.296 C362.3372 271.7025 362.1339 270.944 361.5405 270.6014 Z" clip-path="url(#927878051591-clipPath1)"/></g><g text-rendering="geometricPrecision"><path stroke="none" d="M237.7714 343.4878 L299.0356 378.8598 C299.6291 379.2024 300.3876 378.9992 300.7303 378.4057 C301.0729 377.8123 300.8697 377.0537 300.2762 376.7111 L239.0119 341.3391 C238.4185 340.9965 237.66 341.1997 237.3173 341.7932 C236.9747 342.3866 237.1779 343.1451 237.7714 343.4878 Z" clip-path="url(#927878051591-clipPath1)"/></g><g text-rendering="geometricPrecision"><path stroke="none" d="M239.0119 272.7454 L300.2762 237.3781 C300.8696 237.0355 301.0729 236.277 300.7303 235.6835 C300.3877 235.09 299.6292 234.8867 299.0357 235.2294 L237.7714 270.5967 C237.178 270.9393 236.9747 271.6978 237.3173 272.2913 C237.6599 272.8847 238.4184 273.088 239.0119 272.7454 Z" clip-path="url(#927878051591-clipPath1)"/></g><g text-rendering="geometricPrecision"><path stroke="none" d="M300.2776 166.6365 L361.5405 131.2653 C362.1339 130.9226 362.3372 130.1641 361.9945 129.5706 C361.6519 128.9772 360.8934 128.7739 360.2999 129.1166 L299.037 164.4878 C298.4435 164.8304 298.2403 165.5889 298.5829 166.1824 C298.9256 166.7759 299.6841 166.9791 300.2776 166.6365 Z" clip-path="url(#927878051591-clipPath1)"/></g><g text-rendering="geometricPrecision"><path stroke="none" d="M360.2999 131.2653 L421.5628 166.6365 C422.1563 166.9791 422.9148 166.7759 423.2574 166.1824 C423.6001 165.5889 423.3969 164.8304 422.8034 164.4878 L361.5405 129.1166 C360.947 128.7739 360.1885 128.9772 359.8459 129.5706 C359.5032 130.1641 359.7065 130.9226 360.2999 131.2653 Z" clip-path="url(#927878051591-clipPath1)"/></g><g text-rendering="geometricPrecision"><path stroke="none" d="M420.9426 165.5621 L420.9426 236.3045 C420.9426 236.9898 421.4978 237.5451 422.1831 237.5451 C422.8684 237.5451 423.4236 236.9898 423.4236 236.3045 L423.4236 165.5621 C423.4236 164.8768 422.8684 164.3216 422.1831 164.3216 C421.4978 164.3216 420.9426 164.8768 420.9426 165.5621 Z" clip-path="url(#927878051591-clipPath1)"/></g><g text-rendering="geometricPrecision"><path stroke="none" d="M361.5405 272.7501 L422.8034 237.3788 C423.3969 237.0362 423.6001 236.2777 423.2574 235.6842 C422.9148 235.0908 422.1563 234.8875 421.5628 235.2302 L360.2999 270.6014 C359.7065 270.944 359.5032 271.7025 359.8459 272.296 C360.1885 272.8895 360.947 273.0927 361.5405 272.7501 Z" clip-path="url(#927878051591-clipPath1)"/></g><g text-rendering="geometricPrecision"><path stroke="none" d="M300.8965 236.3038 L300.8978 165.5621 C300.8978 164.8769 300.3426 164.3216 299.6573 164.3216 C298.972 164.3215 298.4167 164.8768 298.4167 165.5621 L298.4154 236.3037 C298.4154 236.989 298.9706 237.5443 299.6559 237.5443 C300.3412 237.5443 300.8965 236.989 300.8965 236.3038 Z" clip-path="url(#927878051591-clipPath1)"/></g><g text-rendering="geometricPrecision"><path stroke="none" d="M490.4612 258.8925 L532.0431 201.6626 C532.4459 201.1082 532.3231 200.3326 531.7687 199.9298 C531.2143 199.527 530.4387 199.6498 530.0358 200.2042 L488.4539 257.4341 C488.0511 257.9885 488.174 258.7641 488.7284 259.1669 C489.2827 259.5697 490.0584 259.4469 490.4612 258.8925 Z" clip-path="url(#927878051591-clipPath1)"/></g><g text-rendering="geometricPrecision"><path stroke="none" d="M532.0431 200.2042 L490.4662 142.9758 C490.0635 142.4214 489.2878 142.2985 488.7335 142.7013 C488.179 143.1041 488.0562 143.8797 488.459 144.4341 L530.0358 201.6625 C530.4386 202.2169 531.2142 202.3398 531.7686 201.937 C532.323 201.5342 532.4459 200.7586 532.0431 200.2042 Z" clip-path="url(#927878051591-clipPath1)"/></g><g text-rendering="geometricPrecision"><path stroke="none" d="M422.5664 166.742 L489.8459 144.8848 C490.4977 144.6731 490.8542 143.9734 490.6425 143.3216 C490.4307 142.6699 489.731 142.3134 489.0793 142.5251 L421.7998 164.3823 C421.1481 164.594 420.7915 165.2937 421.0033 165.9454 C421.215 166.5972 421.9147 166.9537 422.5664 166.742 Z" clip-path="url(#927878051591-clipPath1)"/></g><g text-rendering="geometricPrecision"><path stroke="none" d="M421.7997 237.4843 L489.0742 259.3431 C489.726 259.5549 490.4256 259.1984 490.6374 258.5466 C490.8492 257.8949 490.4926 257.1952 489.8409 256.9835 L422.5665 235.1247 C421.9147 234.9129 421.215 235.2694 421.0033 235.9212 C420.7915 236.5729 421.148 237.2726 421.7997 237.4843 Z" clip-path="url(#927878051591-clipPath1)"/></g><g text-rendering="geometricPrecision"><path stroke="none" d="M302.8882 250.3855 L302.5372 247.9044 L302.5372 247.9044 L296.7746 247.9044 L296.7746 247.9044 L296.4237 250.3855 L296.4237 250.3855 L302.8882 250.3855 ZM304.9937 265.272 L304.6428 262.791 L304.6428 262.791 L294.6691 262.791 L294.6691 262.791 L294.3182 265.272 L304.9937 265.272 ZM307.0992 280.1586 L306.7483 277.6775 L292.5636 277.6775 L292.2126 280.1586 L299.6559 280.1586 L307.0992 280.1586 Z" clip-path="url(#927878051591-clipPath1)"/></g><g text-rendering="geometricPrecision"><path stroke="none" d="M360.9202 271.6757 L362.1607 271.6757 L368.3635 227.8209 L360.9202 227.8209 L353.4769 227.8209 L359.6797 271.6757 Z" clip-path="url(#927878051591-clipPath1)"/></g><g text-rendering="geometricPrecision"><path stroke="none" d="M422.1831 165.5621 L423.4236 165.5621 L429.6264 94.8213 L422.1831 94.8213 L414.7398 94.8213 L420.9426 165.5621 Z" clip-path="url(#927878051591-clipPath1)"/></g><g text-rendering="geometricPrecision"><path stroke="none" d="M425.4153 250.3863 L425.0644 247.9052 L425.0644 247.9052 L419.3018 247.9052 L419.3018 247.9052 L418.9509 250.3863 L418.9509 250.3863 L425.4153 250.3863 ZM427.5209 265.2728 L427.17 262.7917 L427.17 262.7917 L417.1963 262.7917 L416.8454 265.2728 L416.8454 265.2728 L427.5209 265.2728 ZM429.6264 280.1594 L429.2755 277.6783 L415.0908 277.6783 L415.0908 277.6783 L414.7398 280.1594 L414.7398 280.1594 L422.1831 280.1594 L429.6264 280.1594 Z" clip-path="url(#927878051591-clipPath1)"/></g><g text-rendering="geometricPrecision"><path stroke="none" d="M238.3917 271.6711 L239.6322 271.6711 L245.8349 200.9302 L238.3917 200.9302 L230.9484 200.9302 L237.1511 271.6711 Z" clip-path="url(#927878051591-clipPath1)"/></g><g text-rendering="geometricPrecision"><path stroke="none" d="M238.3917 342.4135 L237.1511 342.4135 L230.9484 386.2683 L238.3917 386.2683 L245.8349 386.2683 L239.6322 342.4135 Z" clip-path="url(#927878051591-clipPath1)"/></g><g text-rendering="geometricPrecision"><path stroke="none" d="M108.5279 349.8961 L110.4836 348.3213 L108.0583 344.1206 L108.0583 344.1206 L105.7166 345.0268 L105.7166 345.0268 L108.5279 349.8961 ZM96.7937 359.345 L98.7494 357.7702 L94.0082 349.558 L94.0082 349.558 L91.6665 350.4643 L91.6665 350.4643 L96.7937 359.345 ZM85.0595 368.7939 L87.0152 367.2191 L79.958 354.9955 L77.6163 355.9018 L81.3379 362.3478 L85.0595 368.7939 Z" clip-path="url(#927878051591-clipPath1)"/></g><g text-rendering="geometricPrecision"><path stroke="none" d="M357.7921 117.1678 L358.1517 119.6488 L363.6887 119.6488 L364.0482 117.1678 L364.0482 117.1678 L357.7921 117.1678 ZM355.6345 102.2812 L355.9941 104.7623 L355.9941 104.7623 L365.8463 104.7623 L365.8463 104.7623 L366.2059 102.2812 L355.6345 102.2812 ZM353.4769 87.3947 L353.8365 89.8758 L368.0039 89.8758 L368.3635 87.3947 L368.3635 87.3947 L360.9202 87.3947 L353.4769 87.3947 Z" clip-path="url(#927878051591-clipPath1)"/></g><g text-rendering="geometricPrecision"><path stroke="none" d="M490.6424 144.0883 L512.5048 76.8105 C512.7166 76.1588 512.3601 75.4591 511.7084 75.2473 C511.0566 75.0355 510.357 75.392 510.1452 76.0437 L488.2828 143.3216 C488.071 143.9733 488.4275 144.673 489.0792 144.8848 C489.7309 145.0965 490.4306 144.7401 490.6424 144.0883 Z" clip-path="url(#927878051591-clipPath1)"/></g><g text-rendering="geometricPrecision"><path stroke="none" d="M502.1832 69.5945 L504.0049 71.2928 L506.9844 68.6102 L505.486 66.6208 L505.486 66.6208 L502.1832 69.5945 ZM491.2524 59.4046 L493.0742 61.1029 L493.0742 61.1029 L497.9938 56.6736 L497.9938 56.6736 L496.4953 54.6842 L496.4953 54.6842 L491.2524 59.4046 ZM480.3217 49.2148 L482.1435 50.9131 L489.0032 44.7371 L489.0032 44.7371 L487.5047 42.7477 L487.5047 42.7477 L480.3217 49.2148 ZM469.391 39.025 L471.2128 40.7233 L480.0125 32.8005 L480.0125 32.8005 L478.5141 30.8111 L469.391 39.025 ZM458.4603 28.8352 L460.2821 30.5335 L471.0219 20.864 L469.5235 18.8745 L463.9919 23.8549 L458.4603 28.8352 Z" clip-path="url(#927878051591-clipPath1)"/></g><g text-rendering="geometricPrecision"><path stroke="none" d="M511.5829 77.6406 L580.7783 62.9351 C581.4487 62.7926 581.8763 62.134 581.7339 61.4637 C581.5914 60.7934 580.9329 60.3657 580.2626 60.5082 L511.0671 75.2137 C510.3968 75.3561 509.9691 76.0147 510.1115 76.685 C510.254 77.3553 510.9126 77.783 511.5829 77.6406 Z" clip-path="url(#927878051591-clipPath1)"/></g><g text-rendering="geometricPrecision"><path stroke="none" d="M496.514 141.9956 L494.0207 142.1635 L493.8346 145.7144 L496.2967 146.142 L496.2967 146.142 L496.514 141.9956 ZM511.4738 140.9881 L508.9805 141.156 L508.9805 141.156 L508.6071 148.2801 L511.0692 148.7077 L511.0692 148.7077 L511.4738 140.9881 ZM526.4335 139.9805 L523.9402 140.1485 L523.9402 140.1485 L523.3796 150.8458 L525.8417 151.2735 L526.4335 139.9805 ZM541.3933 138.973 L538.9 139.1409 L538.9 139.1409 L538.1521 153.4116 L538.1521 153.4116 L540.6142 153.8392 L541.0038 146.4061 L541.3933 138.973 Z" clip-path="url(#927878051591-clipPath1)"/></g><g text-rendering="geometricPrecision"><path stroke="none" d="M579.5985 62.5517 L626.9316 115.1239 C627.3901 115.6332 628.1744 115.6743 628.6836 115.2158 C629.1929 114.7573 629.234 113.9731 628.7755 113.4638 L581.4424 60.8916 C580.9839 60.3823 580.1996 60.3412 579.6904 60.7997 C579.1812 61.2582 579.14 62.0424 579.5985 62.5517 Z" clip-path="url(#927878051591-clipPath1)"/></g><g text-rendering="geometricPrecision"><path stroke="none" d="M628.1115 115.5073 L697.3069 100.8018 C697.9772 100.6594 698.405 100.0008 698.2625 99.3305 C698.1201 98.6602 697.4615 98.2325 696.7911 98.3749 L627.5957 113.0804 C626.9254 113.2229 626.4977 113.8815 626.6401 114.5518 C626.7826 115.2221 627.4412 115.6498 628.1115 115.5073 Z" clip-path="url(#927878051591-clipPath1)"/></g><g text-rendering="geometricPrecision"><path stroke="none" d="M696.1271 100.4184 L725.1276 132.6288 C725.5861 133.1381 726.3702 133.1792 726.8795 132.7207 C727.3888 132.2622 727.4299 131.478 726.9714 130.9687 L697.9709 98.7583 C697.5125 98.249 696.7283 98.2079 696.219 98.6664 C695.7097 99.1249 695.6686 99.9091 696.1271 100.4184 Z" clip-path="url(#927878051591-clipPath1)"/></g><g text-rendering="geometricPrecision"><path stroke="none" d="M361.7765 341.4382 L361.5405 341.3422 L360.9202 342.4166 L360.2999 343.4909 L360.501 343.6472 L360.501 343.6472 L361.7765 341.4382 ZM375.6965 347.1012 L373.3765 346.1573 L370.3877 351.3339 L370.3877 351.3339 L372.3651 352.8712 L372.3651 352.8712 L375.6965 347.1012 ZM389.6165 352.7641 L387.2965 351.8203 L387.2965 351.8203 L382.2517 360.5578 L384.2291 362.0951 L389.6165 352.7641 ZM403.5365 358.427 L401.2165 357.4832 L394.1158 369.7817 L396.0931 371.3191 L399.8148 364.873 L403.5365 358.427 Z" clip-path="url(#927878051591-clipPath1)"/></g><g text-rendering="geometricPrecision"><path stroke="none" d="M688.6056 100.7486 C688.3938 101.4004 688.7503 102.1001 689.402 102.3119 C690.0537 102.5236 690.7534 102.1672 690.9652 101.5154 L705.2159 57.6614 C705.4277 57.0097 705.0712 56.31 704.4194 56.0982 C703.7677 55.8864 703.0681 56.2429 702.8563 56.8946 ZM700.8379 104.7236 C700.6261 105.3754 700.9826 106.0751 701.6343 106.2868 C702.2861 106.4986 702.9858 106.1421 703.1976 105.4904 L717.4482 61.6364 C717.66 60.9847 717.3035 60.285 716.6518 60.0732 C716.0001 59.8614 715.3004 60.2179 715.0886 60.8696 Z" clip-path="url(#927878051591-clipPath1)"/></g><g font-family="'Arial'" font-size="49" text-rendering="geometricPrecision"><text x="0" y="48" stroke="none" clip-path="url(#927878051863-clipPath1)" transform="translate(282.3981,278.0446)" xml:space="preserve">H</text></g><g font-family="'Arial'" font-size="49" text-rendering="geometricPrecision"><text x="0" y="48" stroke="none" clip-path="url(#927878051395-clipPath1)" transform="translate(343.6624,171.9349)" xml:space="preserve">H</text></g><g font-family="'Arial'" font-size="49" text-rendering="geometricPrecision"><text x="0" y="48" stroke="none" clip-path="url(#927878051448-clipPath1)" transform="translate(404.9253,278.0454)" xml:space="preserve">H</text></g><g font-family="'Arial'" font-size="49" text-rendering="geometricPrecision"><text x="0" y="48" stroke="none" clip-path="url(#92787805159-clipPath1)" transform="translate(221.1338,384.1543)" xml:space="preserve">H</text></g><g font-family="'Arial'" font-size="49" text-rendering="geometricPrecision"><text x="0" y="48" stroke="none" clip-path="url(#927878051967-clipPath1)" transform="translate(7.321,348.7835)" xml:space="preserve">HO</text></g><g font-family="'Arial'" font-size="49" text-rendering="geometricPrecision"><text x="0" y="48" stroke="none" clip-path="url(#927878051230-clipPath1)" transform="translate(341.1546,30.4501)" xml:space="preserve">OH</text></g><g font-family="'Arial'" font-size="49" text-rendering="geometricPrecision"><text x="0" y="48" stroke="none" clip-path="url(#927878051294-clipPath1)" transform="translate(542.8487,118.4072)" xml:space="preserve">H</text></g><g font-family="'Arial'" font-size="49" text-rendering="geometricPrecision"><text x="0" y="48" stroke="none" clip-path="url(#92787805192-clipPath1)" transform="translate(724.6165,123.1606)" xml:space="preserve">OH</text></g><g font-family="'Arial'" font-size="49" text-rendering="geometricPrecision"><text x="0" y="48" stroke="none" clip-path="url(#927878051248-clipPath1)" transform="translate(402.4175,348.7878)" xml:space="preserve">OH</text></g><g font-family="'Arial'" font-size="49" text-rendering="geometricPrecision"><text x="0" y="48" stroke="none" clip-path="url(#927878051947-clipPath1)" transform="translate(700.1458,3.3106)" xml:space="preserve">O</text></g></g></svg>