<svg xmlns="http://www.w3.org/2000/svg" width="613.4" height="389.62" viewBox="0 0 614 390"><g stroke-linecap="round" font-family="Helvetica" font-size="16"><path stroke="#000" stroke-width="2.27" d="M271.76 339.98v-52.96m-91.74 52.96v-52.96m137.59-79.53-45.89-26.44m96.25 10.06 31.14 42.86m-79.91 33.2h-3.18m3.64 6.7h-4.09m4.54 6.71h-4.99m5.44 6.71h-5.9m6.36 6.71h-6.81m3.4-86.51 50.36-16.38m-96.21 95.91 45.85-26.56m-137.59 26.56-45.89-26.49m260.32-115.27h52.97m105.93-91.75L526.87 7.66m-158.9 269.18-50.36-16.38M134.13 366.43l45.89-26.45"/><path stroke="#000" d="m316.48 207.49-2.27-52.96h6.81l-2.27 52.96z"/><path stroke="#000" stroke-width="2.27" d="m271.72 181.05-45.85 26.52m164.04-67.34 2.46-1.42m-6.01-4.17 2.95-1.71m-6.51-3.89 3.44-1.98m-7-3.61 3.94-2.27m-7.49-3.33 4.42-2.55m-7.98-3.04 4.92-2.84m-8.47-2.76 5.4-3.12m-8.96-2.47 5.9-3.4m76.5 47.59 26.48-45.89M180.02 339.98l45.85 26.45m-38.44-31.35 38.97 22.48M553.35 53.51h52.96m-207.2 180.46-31.14 42.87"/><path stroke="#000" d="m178.88 287.02-2.27-53.01h6.81l-2.27 53.01z"/><path stroke="#000" stroke-width="2.27" d="m225.87 366.43 45.89-26.45m-183.52 0 45.89 26.45m137.63-79.41-45.89-26.49m301-161.16 26.48-45.86M473.9 99.37h52.97"/><path stroke="#000" d="M270.63 287.02 268.36 247h6.81l-2.27 40.02zM88.8 340.96l-30.1 20-3.4-5.9L87.67 339z"/><path d="M227.46 267.23h-3.18m3.63 6.69h-4.08m4.54 6.69h-5m5.45 6.7h-5.9m6.35 6.69h-6.8m-134.23-6.98v52.96m137.63-79.45-45.85 26.49m45.85-79.45v52.96m148.6-70.93v3.02m6.51-3.4V193m6.5-4.16v4.54m6.51-4.92v5.3m6.5-5.68v6.06m6.51-6.43v6.81m-272.87 66.01-45.89 26.49m229.37-26.56v-52.97" stroke="#000" stroke-width="2.27"/><text x="336.44" y="381.5" font-family="Arial" font-size="32" transform="translate(-122 -59)">H</text><text x="381.95" y="302.01" font-family="Arial" font-size="32" transform="translate(-122 -59)">H</text><text x="428.28" y="381.42" font-family="Arial" font-size="32" transform="translate(-122 -59)">H</text><text x="532" y="261.96" font-family="Arial" font-size="32" transform="translate(-122 -59)">H</text><text x="128.74" y="434.52" transform="translate(-122 -59)" xml:space="preserve" style="-inkscape-font-specification:&quot;Arial, Normal&quot;" font-size="17.82" font-family="Arial" fill="#00f" stroke="#000" stroke-width="0.25" stroke-linejoin="round" paint-order="fill markers stroke"><tspan x="128.74" y="434.52" style="-inkscape-font-specification:&quot;Arial, Normal&quot;;font-variant-ligatures:normal;font-variant-caps:normal;font-variant-numeric:normal;font-variant-east-asian:normal" font-weight="400" font-size="32" fill="#000">HO</tspan></text></g></svg>