<svg xmlns="http://www.w3.org/2000/svg" xmlns:xlink="http://www.w3.org/1999/xlink" width="1200" height="890" fill="#000" fill-opacity="1" stroke="#000" stroke-dasharray="none" stroke-dashoffset="0" stroke-linecap="square" stroke-linejoin="miter" stroke-miterlimit="10" stroke-opacity="1" stroke-width="1" color-interpolation="auto" color-rendering="auto" font-family="'Dialog'" font-size="12" font-style="normal" font-weight="normal" image-rendering="auto" shape-rendering="auto" text-rendering="auto"><g><defs id="870312752475-defs1"><clipPath id="870312752492-clipPath1" clipPathUnits="userSpaceOnUse"><path d="M-895.4848 -324.4812 L304.5152 -324.4812 L304.5152 565.5188 L-895.4848 565.5188 L-895.4848 -324.4812 Z"/></clipPath><clipPath id="87031275270-clipPath1" clipPathUnits="userSpaceOnUse"><path d="M-624.0471 -645.7147 L575.9529 -645.7147 L575.9529 244.2853 L-624.0471 244.2853 L-624.0471 -645.7147 Z"/></clipPath><clipPath id="870312752694-clipPath1" clipPathUnits="userSpaceOnUse"><path d="M-383.0789 -645.7131 L816.9211 -645.7131 L816.9211 244.2868 L-383.0789 244.2868 L-383.0789 -645.7131 Z"/></clipPath><clipPath id="870312752552-clipPath1" clipPathUnits="userSpaceOnUse"><path d="M-503.5643 -437.0324 L696.4357 -437.0324 L696.4357 452.9676 L-503.5643 452.9676 L-503.5643 -437.0324 Z"/></clipPath><clipPath id="870312752213-clipPath1" clipPathUnits="userSpaceOnUse"><path d="M932.5638 336.1637 C943.5591 336.1637 952.4726 345.0771 952.4726 356.0724 L952.4726 395.89 C952.4726 406.8853 943.5591 415.7987 932.5638 415.7987 L922.4058 415.7987 C911.4105 415.7987 902.497 406.8853 902.497 395.89 L902.497 356.0724 C902.497 345.0771 911.4105 336.1637 922.4058 336.1637 ZM540.6434 448.7149 C551.6387 448.7149 560.5521 457.6284 560.5521 468.6237 L560.5521 508.4412 C560.5521 519.4365 551.6387 528.35 540.6434 528.35 L530.4853 528.35 C519.49 528.35 510.5765 519.4365 510.5765 508.4412 L510.5765 468.6237 C510.5765 457.6284 519.49 448.7149 530.4853 448.7149 ZM420.158 657.3956 C431.1533 657.3956 440.0667 666.3091 440.0667 677.3044 L440.0667 717.1219 C440.0667 728.1172 431.1533 737.0306 420.158 737.0306 L409.9999 737.0306 C399.0046 737.0306 390.0911 728.1172 390.0911 717.1219 L390.0911 677.3044 C390.0911 666.3091 399.0046 657.3956 409.9999 657.3956 ZM661.1261 657.3972 C672.1214 657.3972 681.0349 666.3106 681.0349 677.3059 L681.0349 717.1234 C681.0349 728.1187 672.1214 737.0322 661.1261 737.0322 L650.968 737.0322 C639.9727 737.0322 631.0593 728.1187 631.0593 717.1234 L631.0593 677.3059 C631.0593 666.3106 639.9727 657.3972 650.968 657.3972 ZM0 0 L0 890 L1200 890 L1200 0 Z"/></clipPath><clipPath id="870312752934-clipPath1" clipPathUnits="userSpaceOnUse"><path d="M0 0 L1200 0 L1200 890 L0 890 L0 0 Z"/></clipPath></defs><g font-family="'Arial'" font-size="89" text-rendering="geometricPrecision"><text x="0" y="84" stroke="none" clip-path="url(#870312752492-clipPath1)" transform="translate(895.4848,324.4812)" xml:space="preserve">H</text></g><g font-family="'Arial'" font-size="89" text-rendering="geometricPrecision"><text x="0" y="84" stroke="none" clip-path="url(#87031275270-clipPath1)" transform="translate(624.047,645.7147)" xml:space="preserve">H</text></g><g font-family="'Arial'" font-size="89" text-rendering="geometricPrecision"><text x="0" y="84" stroke="none" clip-path="url(#870312752694-clipPath1)" transform="translate(383.0789,645.7131)" xml:space="preserve">H</text></g><g font-family="'Arial'" font-size="89" text-rendering="geometricPrecision"><text x="0" y="84" stroke="none" clip-path="url(#870312752552-clipPath1)" transform="translate(503.5643,437.0325)" xml:space="preserve">H</text></g><g font-family="'Arial'" font-size="89" text-rendering="geometricPrecision"><path stroke="none" d="M172.6051 555.4752 L52.1224 625.038 C50.6818 625.8697 50.1885 627.7109 51.0202 629.1514 C51.852 630.592 53.6932 631.0853 55.1337 630.2536 L175.6165 560.6908 C177.057 559.8591 177.5503 558.0179 176.7186 556.5773 C175.8869 555.1368 174.0457 554.6434 172.6051 555.4752 Z" clip-path="url(#870312752213-clipPath1)"/></g><g font-family="'Arial'" font-size="89" text-rendering="geometricPrecision"><path stroke="none" d="M50.6168 627.6458 L50.6168 766.7714 C50.6168 768.4348 51.9646 769.7826 53.628 769.7826 C55.2915 769.7826 56.6393 768.4348 56.6393 766.7714 L56.6393 627.6458 C56.6393 625.9824 55.2915 624.6345 53.628 624.6345 C51.9646 624.6345 50.6168 625.9824 50.6168 627.6458 Z" clip-path="url(#870312752213-clipPath1)"/></g><g font-family="'Arial'" font-size="89" text-rendering="geometricPrecision"><path stroke="none" d="M52.1224 769.3792 L172.6051 838.942 C174.0457 839.7737 175.8869 839.2803 176.7186 837.8398 C177.5503 836.3992 177.057 834.558 175.6165 833.7263 L55.1337 764.1635 C53.6932 763.3318 51.8519 763.8251 51.0202 765.2657 C50.1885 766.7062 50.6818 768.5474 52.1224 769.3792 Z" clip-path="url(#870312752213-clipPath1)"/></g><g font-family="'Arial'" font-size="89" text-rendering="geometricPrecision"><path stroke="none" d="M175.6165 838.942 L296.0992 769.3792 C297.5397 768.5474 298.0331 766.7062 297.2014 765.2657 C296.3696 763.8251 294.5284 763.3318 293.0879 764.1635 L172.6051 833.7263 C171.1646 834.558 170.6712 836.3992 171.503 837.8398 C172.3347 839.2803 174.1759 839.7737 175.6165 838.942 Z" clip-path="url(#870312752213-clipPath1)"/></g><g font-family="'Arial'" font-size="89" text-rendering="geometricPrecision"><path stroke="none" d="M297.6048 766.7714 L297.6048 627.6458 C297.6048 625.9824 296.2569 624.6345 294.5935 624.6345 C292.9301 624.6345 291.5822 625.9824 291.5822 627.6458 L291.5822 766.7714 C291.5822 768.4348 292.9301 769.7826 294.5935 769.7826 C296.2569 769.7826 297.6048 768.4348 297.6048 766.7714 Z" clip-path="url(#870312752213-clipPath1)"/></g><g font-family="'Arial'" font-size="89" text-rendering="geometricPrecision"><path stroke="none" d="M172.6051 560.6908 L293.0879 630.2536 C294.5284 631.0853 296.3696 630.592 297.2014 629.1514 C298.0331 627.7109 297.5397 625.8697 296.0992 625.038 L175.6165 555.4752 C174.1759 554.6434 172.3347 555.1368 171.503 556.5773 C170.6712 558.0179 171.1646 559.8591 172.6051 560.6908 Z" clip-path="url(#870312752213-clipPath1)"/></g><g font-family="'Arial'" font-size="89" text-rendering="geometricPrecision"><path stroke="none" d="M416.5845 838.9435 L537.0699 769.3854 C538.5104 768.5536 539.0038 766.7125 538.1722 765.2719 C537.3405 763.8313 535.4993 763.3379 534.0587 764.1696 L413.5733 833.7278 C412.1328 834.5594 411.6394 836.4006 412.471 837.8412 C413.3027 839.2818 415.1439 839.7752 416.5845 838.9435 Z" clip-path="url(#870312752213-clipPath1)"/></g><g font-family="'Arial'" font-size="89" text-rendering="geometricPrecision"><path stroke="none" d="M538.5756 766.7775 L538.5756 627.655 C538.5756 625.9915 537.2277 624.6437 535.5643 624.6437 C533.9009 624.6437 532.553 625.9915 532.553 627.655 L532.553 766.7775 C532.553 768.4409 533.9009 769.7888 535.5643 769.7888 C537.2277 769.7888 538.5756 768.4409 538.5756 766.7775 Z" clip-path="url(#870312752213-clipPath1)"/></g><g font-family="'Arial'" font-size="89" text-rendering="geometricPrecision"><path stroke="none" d="M537.07 625.0471 L416.5846 555.4828 C415.144 554.6511 413.3028 555.1444 412.4711 556.585 C411.6394 558.0255 412.1327 559.8668 413.5732 560.6985 L534.0587 630.2628 C535.4992 631.0945 537.3404 630.6012 538.1721 629.1606 C539.0038 627.7201 538.5105 625.8788 537.07 625.0471 Z" clip-path="url(#870312752213-clipPath1)"/></g><g font-family="'Arial'" font-size="89" text-rendering="geometricPrecision"><path stroke="none" d="M293.0879 769.3792 L413.5732 838.9435 C415.0138 839.7752 416.855 839.2819 417.6867 837.8413 C418.5185 836.4008 418.0251 834.5596 416.5846 833.7278 L296.0992 764.1635 C294.6587 763.3318 292.8174 763.8251 291.9857 765.2657 C291.154 766.7062 291.6473 768.5474 293.0879 769.3792 Z" clip-path="url(#870312752213-clipPath1)"/></g><g font-family="'Arial'" font-size="89" text-rendering="geometricPrecision"><path stroke="none" d="M296.0991 630.2537 L416.5844 560.6985 C418.025 559.8669 418.5185 558.0257 417.6868 556.5851 C416.8552 555.1445 415.014 554.6511 413.5734 555.4827 L293.088 625.0378 C291.6474 625.8695 291.154 627.7107 291.9856 629.1513 C292.8173 630.5919 294.6584 631.0853 296.0991 630.2537 Z" clip-path="url(#870312752213-clipPath1)"/></g><g font-family="'Arial'" font-size="89" text-rendering="geometricPrecision"><path stroke="none" d="M416.5872 421.5744 L537.0699 352.0117 C538.5105 351.1799 539.0038 349.3387 538.1721 347.8982 C537.3404 346.4576 535.4992 345.9643 534.0587 346.796 L413.5759 416.3588 C412.1353 417.1905 411.642 419.0317 412.4737 420.4723 C413.3055 421.9128 415.1467 422.4062 416.5872 421.5744 Z" clip-path="url(#870312752213-clipPath1)"/></g><g font-family="'Arial'" font-size="89" text-rendering="geometricPrecision"><path stroke="none" d="M534.0587 352.0117 L654.5414 421.5744 C655.9819 422.4062 657.8231 421.9128 658.6548 420.4723 C659.4866 419.0317 658.9933 417.1905 657.5527 416.3588 L537.07 346.796 C535.6295 345.9643 533.7882 346.4576 532.9565 347.8982 C532.1248 349.3387 532.6181 351.1799 534.0587 352.0117 Z" clip-path="url(#870312752213-clipPath1)"/></g><g font-family="'Arial'" font-size="89" text-rendering="geometricPrecision"><path stroke="none" d="M653.0358 418.9666 L653.0358 558.0922 C653.0358 559.7556 654.3836 561.1035 656.0471 561.1035 C657.7104 561.1035 659.0583 559.7556 659.0583 558.0922 L659.0583 418.9666 C659.0583 417.3032 657.7104 415.9553 656.0471 415.9553 C654.3836 415.9553 653.0358 417.3032 653.0358 418.9666 Z" clip-path="url(#870312752213-clipPath1)"/></g><g font-family="'Arial'" font-size="89" text-rendering="geometricPrecision"><path stroke="none" d="M537.07 630.2628 L657.5527 560.7 C658.9933 559.8683 659.4866 558.027 658.6548 556.5865 C657.8231 555.1459 655.9819 554.6526 654.5414 555.4844 L534.0587 625.0471 C532.6181 625.8788 532.1248 627.7201 532.9565 629.1606 C533.7882 630.6012 535.6295 631.0945 537.07 630.2628 Z" clip-path="url(#870312752213-clipPath1)"/></g><g font-family="'Arial'" font-size="89" text-rendering="geometricPrecision"><path stroke="none" d="M418.0902 558.0907 L418.0928 418.9667 C418.0929 417.3033 416.745 415.9554 415.0816 415.9553 C413.4182 415.9553 412.0703 417.3031 412.0703 418.9666 L412.0676 558.0906 C412.0676 559.754 413.4154 561.1019 415.0789 561.1019 C416.7423 561.1019 418.0901 559.7541 418.0902 558.0907 Z" clip-path="url(#870312752213-clipPath1)"/></g><g font-family="'Arial'" font-size="89" text-rendering="geometricPrecision"><path stroke="none" d="M790.7885 602.8508 L872.5656 490.2995 C873.5433 488.9538 873.2452 487.0711 871.8995 486.0934 C870.5538 485.1156 868.671 485.4138 867.6933 486.7595 L785.9163 599.3107 C784.9385 600.6564 785.2366 602.5391 786.5823 603.5169 C787.928 604.4946 789.8108 604.1965 790.7885 602.8508 Z" clip-path="url(#870312752213-clipPath1)"/></g><g font-family="'Arial'" font-size="89" text-rendering="geometricPrecision"><path stroke="none" d="M872.5657 486.7596 L790.7985 374.2113 C789.8208 372.8655 787.9381 372.5673 786.5923 373.545 C785.2466 374.5227 784.9484 376.4054 785.9261 377.7511 L867.6932 490.2994 C868.6709 491.6452 870.5536 491.9434 871.8994 490.9657 C873.2451 489.988 873.5433 488.1053 872.5657 486.7596 Z" clip-path="url(#870312752213-clipPath1)"/></g><g font-family="'Arial'" font-size="89" text-rendering="geometricPrecision"><path stroke="none" d="M656.9775 421.8305 L789.2927 378.8451 C790.8748 378.3312 791.7402 376.6328 791.2262 375.0508 C790.7123 373.4688 789.0139 372.6033 787.4319 373.1172 L655.1166 416.1027 C653.5346 416.6166 652.6691 418.315 653.1831 419.897 C653.6971 421.479 655.3954 422.3445 656.9775 421.8305 Z" clip-path="url(#870312752213-clipPath1)"/></g><g font-family="'Arial'" font-size="89" text-rendering="geometricPrecision"><path stroke="none" d="M655.1165 560.9561 L787.4219 603.9446 C789.0038 604.4587 790.7023 603.5933 791.2163 602.0113 C791.7303 600.4293 790.8649 598.7308 789.2829 598.2169 L656.9776 555.2283 C655.3956 554.7142 653.6971 555.5797 653.1832 557.1616 C652.6691 558.7437 653.5345 560.4421 655.1165 560.9561 Z" clip-path="url(#870312752213-clipPath1)"/></g><g font-family="'Arial'" font-size="89" text-rendering="geometricPrecision"><path stroke="none" d="M791.2261 376.9118 L834.2218 244.5999 C834.7359 243.0179 833.8705 241.3195 832.2886 240.8054 C830.7066 240.2913 829.0082 241.1566 828.4941 242.7386 L785.4984 375.0506 C784.9844 376.6325 785.8497 378.331 787.4316 378.8451 C789.0137 379.3591 790.7121 378.4938 791.2261 376.9118 Z" clip-path="url(#870312752213-clipPath1)"/></g><g font-family="'Arial'" font-size="89" text-rendering="geometricPrecision"><path stroke="none" d="M827.5313 244.2776 L829.1201 245.6841 L831.358 243.6693 L833.5958 241.6544 L832.3632 239.9272 L832.3632 239.9272 L827.5313 244.2776 ZM812.7816 231.2195 L817.3199 235.2374 L817.3199 235.2374 L824.4406 228.8263 L824.4406 228.8263 L820.9195 223.8926 L820.9195 223.8926 L812.7816 231.2195 ZM798.0319 218.1614 L802.5703 222.1793 L802.5703 222.1793 L812.9969 212.7917 L809.4758 207.858 L798.0319 218.1614 ZM783.2822 205.1033 L787.8206 209.1212 L801.5532 196.7571 L798.032 191.8234 L798.032 191.8234 L783.2822 205.1033 ZM768.5325 192.0453 L773.0708 196.0631 L790.1094 180.7225 L790.1094 180.7225 L786.5883 175.7888 L768.5325 192.0453 ZM753.7828 178.9872 L758.3211 183.005 L758.3211 183.005 L778.6658 164.6879 L778.6658 164.6879 L775.1447 159.7542 L775.1447 159.7542 L753.7828 178.9872 ZM739.0331 165.9291 L743.5714 169.9469 L767.222 148.6533 L763.7009 143.7196 L763.7009 143.7196 L739.0331 165.9291 ZM724.2834 152.871 L728.8217 156.8889 L755.7783 132.6186 L755.7783 132.6186 L752.2572 127.685 L738.2703 140.278 L724.2834 152.871 Z" clip-path="url(#870312752213-clipPath1)"/></g><g font-family="'Arial'" font-size="89" text-rendering="geometricPrecision"><path stroke="none" d="M831.9839 246.6148 L968.0673 217.6941 C969.6943 217.3483 970.7325 215.7497 970.3867 214.1227 C970.041 212.4956 968.4424 211.4574 966.8152 211.8031 L830.732 240.7238 C829.1049 241.0696 828.0667 242.6682 828.4125 244.2952 C828.7582 245.9223 830.3569 246.9606 831.9839 246.6148 Z" clip-path="url(#870312752213-clipPath1)"/></g><g font-family="'Arial'" font-size="89" text-rendering="geometricPrecision"><path stroke="none" d="M970.3051 215.6793 L1013.3008 83.3674 C1013.8149 81.7854 1012.9495 80.0869 1011.3676 79.5729 C1009.7856 79.0588 1008.0871 79.9241 1007.5731 81.5061 L964.5774 213.818 C964.0633 215.4 964.9286 217.0984 966.5106 217.6125 C968.0926 218.1266 969.7911 217.2612 970.3051 215.6793 Z" clip-path="url(#870312752213-clipPath1)"/></g><g font-family="'Arial'" font-size="89" text-rendering="geometricPrecision"><path stroke="none" d="M1011.0629 85.3822 L1147.1462 56.4616 C1148.7733 56.1158 1149.8115 54.5172 1149.4657 52.8901 C1149.1199 51.263 1147.5214 50.2248 1145.8943 50.5706 L1009.8109 79.4912 C1008.1838 79.837 1007.1456 81.4356 1007.4914 83.0627 C1007.8372 84.6898 1009.4359 85.728 1011.0629 85.3822 Z" clip-path="url(#870312752213-clipPath1)"/></g><g font-family="'Arial'" font-size="89" text-rendering="geometricPrecision"><path stroke="none" d="M792.5846 372.316 L788.3623 372.9699 L788.3623 375.9812 L788.3623 378.9925 L792.5846 379.6463 L792.5846 372.316 ZM812.1581 369.2849 L806.1355 370.2176 L806.1355 381.7448 L806.1355 381.7448 L812.1581 382.6774 L812.1581 369.2849 ZM831.7315 366.2538 L825.709 367.1865 L825.709 367.1865 L825.709 384.7759 L831.7315 385.7086 L831.7315 385.7086 L831.7315 366.2538 ZM851.305 363.2227 L845.2824 364.1554 L845.2824 364.1554 L845.2824 387.807 L851.305 388.7397 L851.305 363.2227 ZM870.8784 360.1916 L864.8559 361.1243 L864.8559 361.1243 L864.8559 390.8381 L864.8559 390.8381 L870.8784 391.7708 L870.8784 360.1916 ZM890.4519 357.1605 L884.4293 358.0931 L884.4293 358.0931 L884.4293 393.8692 L884.4293 393.8692 L890.4519 394.8019 L890.4519 375.9812 L890.4519 357.1605 Z" clip-path="url(#870312752213-clipPath1)"/></g><g font-family="'Arial'" font-size="89" text-rendering="geometricPrecision"><path stroke="none" d="M660.6827 567.0582 L659.5916 561.0357 L652.5024 561.0357 L652.5024 561.0357 L651.4113 567.0582 L651.4113 567.0582 L660.6827 567.0582 ZM664.229 586.6317 L663.1379 580.6091 L663.1379 580.6091 L648.9562 580.6091 L647.8651 586.6317 L647.8651 586.6317 L664.229 586.6317 ZM667.7753 606.2051 L666.6841 600.1826 L666.6841 600.1826 L645.41 600.1826 L645.41 600.1826 L644.3188 606.2051 L644.3188 606.2051 L667.7753 606.2051 ZM671.3215 625.7786 L670.2303 619.756 L641.8638 619.756 L641.8638 619.756 L640.7726 625.7786 L640.7726 625.7786 L671.3215 625.7786 ZM674.8677 645.3521 L673.7766 639.3295 L638.3175 639.3295 L638.3175 639.3295 L637.2264 645.3521 L656.0471 645.3521 L674.8677 645.3521 Z" clip-path="url(#870312752213-clipPath1)"/></g><g font-family="'Arial'" font-size="89" text-rendering="geometricPrecision"><path stroke="none" d="M419.7146 567.0567 L418.6235 561.0342 L411.5343 561.0342 L411.5343 561.0342 L410.4432 567.0567 L419.7146 567.0567 ZM423.2609 586.6302 L422.1697 580.6076 L407.9881 580.6076 L406.8969 586.6302 L423.2609 586.6302 ZM426.8071 606.2036 L425.716 600.181 L404.4419 600.181 L403.3507 606.2036 L426.8071 606.2036 ZM430.3534 625.7771 L429.2622 619.7545 L400.8956 619.7545 L400.8956 619.7545 L399.8045 625.7771 L399.8045 625.7771 L430.3534 625.7771 ZM433.8996 645.3505 L432.8084 639.3279 L432.8084 639.3279 L397.3494 639.3279 L396.2582 645.3505 L415.0789 645.3505 L433.8996 645.3505 Z" clip-path="url(#870312752213-clipPath1)"/></g><g font-family="'Arial'" font-size="89" text-rendering="geometricPrecision"><path stroke="none" d="M294.5935 627.6458 L297.6048 627.6458 L313.4142 488.5233 L294.5935 488.5233 L275.7728 488.5233 L291.5822 627.6458 Z" clip-path="url(#870312752213-clipPath1)"/></g><g font-family="'Arial'" font-size="89" text-rendering="geometricPrecision"><path stroke="none" d="M535.5643 627.655 L538.5756 627.655 L554.385 540.3951 L535.5643 540.3951 L516.7436 540.3951 L532.553 627.655 Z" clip-path="url(#870312752213-clipPath1)"/></g><g font-family="'Arial'" font-size="89" text-rendering="geometricPrecision"><path stroke="none" d="M656.0471 418.9666 L659.0583 418.9666 L674.8677 279.8441 L656.0471 279.8441 L637.2264 279.8441 L653.0358 418.9666 Z" clip-path="url(#870312752213-clipPath1)"/></g></g></svg>