<svg xmlns="http://www.w3.org/2000/svg" stroke="#000" stroke-linecap="square" stroke-miterlimit="10" color-interpolation="auto" font-family="'Dialog'" font-size="12" viewBox="0 0 1200 890" xmlns:xlink="http://www.w3.org/1999/xlink"><defs><clipPath id="a" clipPathUnits="userSpaceOnUse"><path d="M-895.485-324.481h1200v890h-1200z"/></clipPath><clipPath id="b" clipPathUnits="userSpaceOnUse"><path d="M-624.047-645.715h1200v890h-1200z"/></clipPath><clipPath id="c" clipPathUnits="userSpaceOnUse"><path d="M-383.079-645.713h1200v890h-1200z"/></clipPath><clipPath id="d" clipPathUnits="userSpaceOnUse"><path d="M-503.564-437.032h1200v890h-1200z"/></clipPath><clipPath id="e" clipPathUnits="userSpaceOnUse"><path d="M932.564 336.164c10.995 0 19.909 8.913 19.909 19.908v39.818c0 10.995-8.914 19.909-19.91 19.909h-10.157c-10.995 0-19.909-8.914-19.909-19.909v-39.818c0-10.995 8.914-19.908 19.909-19.908Zm-391.92 112.55c10.995 0 19.908 8.914 19.908 19.91v39.817c0 10.996-8.913 19.909-19.909 19.909h-10.158c-10.995 0-19.909-8.913-19.909-19.909v-39.817c0-10.996 8.914-19.91 19.91-19.91ZM420.157 657.397c10.995 0 19.909 8.913 19.909 19.908v39.818c0 10.995-8.914 19.909-19.909 19.909H410c-10.995 0-19.909-8.914-19.909-19.91v-39.817c0-10.995 8.914-19.908 19.909-19.908Zm240.968.001c10.995 0 19.909 8.914 19.909 19.909v39.817c0 10.996-8.914 19.91-19.909 19.91h-10.158c-10.995 0-19.909-8.914-19.909-19.91v-39.817c0-10.995 8.914-19.909 19.909-19.909ZM0 0v890h1200V0Z"/></clipPath></defs><text y="84" stroke="none" clip-path="url(#a)" transform="translate(895.485 324.481)" xml:space="preserve" font-family="'Arial'" font-size="89" text-rendering="geometricPrecision">H</text><text y="84" stroke="none" clip-path="url(#b)" transform="translate(624.047 645.715)" xml:space="preserve" font-family="'Arial'" font-size="89" text-rendering="geometricPrecision">H</text><text y="84" stroke="none" clip-path="url(#c)" transform="translate(383.079 645.713)" xml:space="preserve" font-family="'Arial'" font-size="89" text-rendering="geometricPrecision">H</text><text y="84" stroke="none" clip-path="url(#d)" transform="translate(503.564 437.033)" xml:space="preserve" font-family="'Arial'" font-size="89" text-rendering="geometricPrecision">H</text><path d="M172.605 555.475 52.122 625.038a3.01 3.01 0 1 0 3.012 5.216l120.482-69.563a3.01 3.01 0 1 0-3.01-5.216" clip-path="url(#e)" font-family="'Arial'" font-size="89" text-rendering="geometricPrecision" stroke="none"/><path d="M50.617 627.646V766.77a3.01 3.01 0 1 0 6.022 0V627.646a3.01 3.01 0 1 0-6.022 0" clip-path="url(#e)" font-family="'Arial'" font-size="89" text-rendering="geometricPrecision" stroke="none"/><path d="m52.122 769.38 120.483 69.562a3.01 3.01 0 1 0 3.012-5.216L55.134 764.164a3.01 3.01 0 1 0-3.012 5.215" clip-path="url(#e)" font-family="'Arial'" font-size="89" text-rendering="geometricPrecision" stroke="none"/><path d="m175.617 838.942 120.482-69.563a3.011 3.011 0 1 0-3.011-5.216l-120.483 69.563a3.01 3.01 0 1 0 3.012 5.216" clip-path="url(#e)" font-family="'Arial'" font-size="89" text-rendering="geometricPrecision" stroke="none"/><path d="M297.605 766.771V627.646a3.01 3.01 0 1 0-6.023 0V766.77a3.01 3.01 0 1 0 6.023 0" clip-path="url(#e)" font-family="'Arial'" font-size="89" text-rendering="geometricPrecision" stroke="none"/><path d="m172.605 560.69 120.483 69.564a3.01 3.01 0 1 0 3.011-5.216l-120.482-69.563a3.01 3.01 0 1 0-3.012 5.216" clip-path="url(#e)" font-family="'Arial'" font-size="89" text-rendering="geometricPrecision" stroke="none"/><path d="m416.585 838.944 120.485-69.559a3.011 3.011 0 1 0-3.011-5.215l-120.486 69.558a3.01 3.01 0 1 0 3.012 5.216" clip-path="url(#e)" font-family="'Arial'" font-size="89" text-rendering="geometricPrecision" stroke="none"/><path d="M538.576 766.778V627.655a3.01 3.01 0 1 0-6.023 0v139.123a3.01 3.01 0 1 0 6.023 0" clip-path="url(#e)" font-family="'Arial'" font-size="89" text-rendering="geometricPrecision" stroke="none"/><path d="m537.07 625.047-120.485-69.564a3.01 3.01 0 1 0-3.012 5.216l120.486 69.564a3.01 3.01 0 1 0 3.011-5.216" clip-path="url(#e)" font-family="'Arial'" font-size="89" text-rendering="geometricPrecision" stroke="none"/><path d="m293.088 769.38 120.485 69.563a3.01 3.01 0 1 0 3.012-5.215l-120.486-69.564a3.01 3.01 0 1 0-3.011 5.215" clip-path="url(#e)" font-family="'Arial'" font-size="89" text-rendering="geometricPrecision" stroke="none"/><path d="m296.1 630.254 120.484-69.556a3.01 3.01 0 1 0-3.01-5.215l-120.486 69.555a3.011 3.011 0 1 0 3.011 5.216" clip-path="url(#e)" font-family="'Arial'" font-size="89" text-rendering="geometricPrecision" stroke="none"/><path d="m416.587 421.574 120.483-69.562a3.01 3.01 0 1 0-3.011-5.216l-120.483 69.563a3.01 3.01 0 1 0 3.011 5.215" clip-path="url(#e)" font-family="'Arial'" font-size="89" text-rendering="geometricPrecision" stroke="none"/><path d="m534.059 352.012 120.482 69.562a3.01 3.01 0 1 0 3.012-5.215L537.07 346.796a3.01 3.01 0 1 0-3.011 5.216" clip-path="url(#e)" font-family="'Arial'" font-size="89" text-rendering="geometricPrecision" stroke="none"/><path d="M653.036 418.967v139.125a3.01 3.01 0 1 0 6.022 0V418.967a3.01 3.01 0 1 0-6.022 0" clip-path="url(#e)" font-family="'Arial'" font-size="89" text-rendering="geometricPrecision" stroke="none"/><path d="M537.07 630.263 657.553 560.7a3.01 3.01 0 1 0-3.012-5.216L534.06 625.047a3.01 3.01 0 1 0 3.011 5.216" clip-path="url(#e)" font-family="'Arial'" font-size="89" text-rendering="geometricPrecision" stroke="none"/><path d="m418.09 558.09.003-139.123a3.01 3.01 0 1 0-6.023 0l-.002 139.124a3.01 3.01 0 1 0 6.022 0" clip-path="url(#e)" font-family="'Arial'" font-size="89" text-rendering="geometricPrecision" stroke="none"/><path d="m790.789 602.85 81.777-112.55a3.01 3.01 0 1 0-4.873-3.54l-81.777 112.55a3.01 3.01 0 1 0 4.872 3.54" clip-path="url(#e)" font-family="'Arial'" font-size="89" text-rendering="geometricPrecision" stroke="none"/><path d="m872.566 486.76-81.768-112.55a3.01 3.01 0 1 0-4.872 3.54l81.767 112.55a3.01 3.01 0 1 0 4.873-3.54" clip-path="url(#e)" font-family="'Arial'" font-size="89" text-rendering="geometricPrecision" stroke="none"/><path d="m656.978 421.83 132.315-42.985a3.01 3.01 0 1 0-1.861-5.728l-132.315 42.986a3.01 3.01 0 1 0 1.86 5.727" clip-path="url(#e)" font-family="'Arial'" font-size="89" text-rendering="geometricPrecision" stroke="none"/><path d="m655.117 560.956 132.305 42.989a3.01 3.01 0 1 0 1.86-5.728l-132.304-42.989a3.01 3.01 0 1 0-1.861 5.728" clip-path="url(#e)" font-family="'Arial'" font-size="89" text-rendering="geometricPrecision" stroke="none"/><path d="M791.226 376.912 834.222 244.6a3.01 3.01 0 1 0-5.728-1.861L785.498 375.05a3.011 3.011 0 1 0 5.728 1.86" clip-path="url(#e)" font-family="'Arial'" font-size="89" text-rendering="geometricPrecision" stroke="none"/><path d="m827.531 244.278 1.59 1.406 2.237-2.015 2.238-2.015-1.233-1.727zm-14.75-13.058 4.539 4.017 7.12-6.41-3.52-4.934zm-14.75-13.059 4.54 4.018 10.426-9.387-3.521-4.934zm-14.749-13.058 4.539 4.018 13.732-12.364-3.521-4.934zm-14.75-13.058 4.539 4.018 17.038-15.34-3.52-4.934zm-14.75-13.058 4.54 4.018 20.344-18.317-3.521-4.934zm-14.749-13.058 4.538 4.018 23.651-21.294-3.521-4.933zm-14.75-13.058 4.539 4.018 26.956-24.27-3.52-4.934-13.988 12.593z" clip-path="url(#e)" font-family="'Arial'" font-size="89" text-rendering="geometricPrecision" stroke="none"/><path d="m831.984 246.615 136.083-28.92a3.01 3.01 0 1 0-1.252-5.892l-136.083 28.92a3.01 3.01 0 1 0 1.252 5.892" clip-path="url(#e)" font-family="'Arial'" font-size="89" text-rendering="geometricPrecision" stroke="none"/><path d="m970.305 215.68 42.996-132.313a3.01 3.01 0 1 0-5.728-1.86l-42.996 132.311a3.01 3.01 0 1 0 5.728 1.861" clip-path="url(#e)" font-family="'Arial'" font-size="89" text-rendering="geometricPrecision" stroke="none"/><path d="m1011.063 85.382 136.083-28.92a3.01 3.01 0 1 0-1.252-5.891l-136.083 28.92a3.01 3.01 0 1 0 1.252 5.891" clip-path="url(#e)" font-family="'Arial'" font-size="89" text-rendering="geometricPrecision" stroke="none"/><path d="m792.585 372.316-4.223.654v6.023l4.223.653zm19.573-3.031-6.023.933v11.527l6.023.932zm19.573-3.031-6.022.933v17.589l6.023.933zm19.574-3.031-6.023.932v23.652l6.023.933zm19.573-3.031-6.022.932v29.714l6.022.933zm19.574-3.031-6.023.932v35.776l6.023.933z" clip-path="url(#e)" font-family="'Arial'" font-size="89" text-rendering="geometricPrecision" stroke="none"/><path d="m660.683 567.058-1.091-6.022h-7.09l-1.09 6.022zm3.546 19.574-1.091-6.023h-14.182l-1.09 6.023zm3.546 19.573-1.09-6.022H645.41l-1.091 6.022zm3.547 19.574-1.092-6.023h-28.366l-1.091 6.023zm3.546 19.573-1.091-6.022h-35.46l-1.09 6.022z" clip-path="url(#e)" font-family="'Arial'" font-size="89" text-rendering="geometricPrecision" stroke="none"/><path d="m419.715 567.057-1.091-6.023h-7.09l-1.09 6.023zm3.546 19.573-1.091-6.022h-14.182l-1.091 6.022zm3.546 19.574-1.091-6.023h-21.274l-1.091 6.023zm3.546 19.573-1.09-6.023h-28.367l-1.091 6.023zm3.547 19.573-1.092-6.022H397.35l-1.09 6.023z" clip-path="url(#e)" font-family="'Arial'" font-size="89" text-rendering="geometricPrecision" stroke="none"/><path d="M294.594 627.646h3.01l15.81-139.123h-37.641l15.81 139.123Z" clip-path="url(#e)" font-family="'Arial'" font-size="89" text-rendering="geometricPrecision" stroke="none"/><path d="M535.564 627.655h3.012l15.809-87.26h-37.641l15.809 87.26Z" clip-path="url(#e)" font-family="'Arial'" font-size="89" text-rendering="geometricPrecision" stroke="none"/><path d="M656.047 418.967h3.011l15.81-139.123h-37.642l15.81 139.123Z" clip-path="url(#e)" font-family="'Arial'" font-size="89" text-rendering="geometricPrecision" stroke="none"/></svg>