<svg stroke="#000" stroke-linecap="square" stroke-miterlimit="10" color-interpolation="auto" font-family="'Dialog'" font-size="12" viewBox="0 0 805 445"><defs><clipPath id="a" clipPathUnits="userSpaceOnUse"><path d="M0 0h805v445H0z"/></clipPath><clipPath id="b" clipPathUnits="userSpaceOnUse"><path d="M-282.4-278h805v445h-805z"/></clipPath><clipPath id="c" clipPathUnits="userSpaceOnUse"><path d="M-343.7-172h805v445h-805z"/></clipPath><clipPath id="d" clipPathUnits="userSpaceOnUse"><path d="M-405-278h805v445h-805z"/></clipPath><clipPath id="e" clipPathUnits="userSpaceOnUse"><path d="M-221.1-384.2h805v445h-805z"/></clipPath><clipPath id="f" clipPathUnits="userSpaceOnUse"><path d="M-7.3-348.8h805v445h-805z"/></clipPath><clipPath id="g" clipPathUnits="userSpaceOnUse"><path d="M-341.2-30.5h805v445h-805z"/></clipPath><clipPath id="h" clipPathUnits="userSpaceOnUse"><path d="M-542.8-118.4h805v445h-805z"/></clipPath><clipPath id="i" clipPathUnits="userSpaceOnUse"><path d="M-724.6-123.2h805v445h-805z"/></clipPath><clipPath id="j" clipPathUnits="userSpaceOnUse"><path d="M-402.4-348.8h805v445h-805z"/></clipPath><clipPath id="k" clipPathUnits="userSpaceOnUse"><path d="M-700.1-3.3h805v445h-805z"/></clipPath></defs><path stroke="none" d="m176.5 235.2-61.3 35.4a1.2 1.2 0 1 0 1.3 2.1l61.2-35.3a1.2 1.2 0 1 0-1.2-2.2" clip-path="url(#a)" text-rendering="geometricPrecision"/><path stroke="none" d="M114.6 271.7v70.7a1.2 1.2 0 1 0 2.5 0v-70.7a1.2 1.2 0 1 0-2.5 0" clip-path="url(#a)" text-rendering="geometricPrecision"/><path stroke="none" d="m115.2 343.5 61.3 35.4a1.2 1.2 0 1 0 1.2-2.2l-61.2-35.4a1.2 1.2 0 1 0-1.3 2.2" clip-path="url(#a)" text-rendering="geometricPrecision"/><path stroke="none" d="m177.7 378.9 61.3-35.4a1.2 1.2 0 1 0-1.2-2.2l-61.3 35.4a1.2 1.2 0 1 0 1.2 2.2" clip-path="url(#a)" text-rendering="geometricPrecision"/><path stroke="none" d="M239.6 342.4v-70.7a1.2 1.2 0 1 0-2.4 0v70.7a1.2 1.2 0 1 0 2.4 0" clip-path="url(#a)" text-rendering="geometricPrecision"/><path stroke="none" d="m176.5 237.4 61.3 35.3a1.2 1.2 0 1 0 1.2-2.1l-61.3-35.4a1.2 1.2 0 1 0-1.2 2.2" clip-path="url(#a)" text-rendering="geometricPrecision"/><path stroke="none" d="m300.3 378.9 61.2-35.4a1.2 1.2 0 1 0-1.2-2.2L299 376.7a1.2 1.2 0 1 0 1.3 2.2" clip-path="url(#a)" text-rendering="geometricPrecision"/><path stroke="none" d="M362.2 342.4v-70.7a1.2 1.2 0 1 0-2.5 0v70.7a1.2 1.2 0 1 0 2.5 0" clip-path="url(#a)" text-rendering="geometricPrecision"/><path stroke="none" d="m361.5 270.6-61.2-35.4a1.2 1.2 0 1 0-1.3 2.2l61.3 35.4a1.2 1.2 0 1 0 1.2-2.2" clip-path="url(#a)" text-rendering="geometricPrecision"/><path stroke="none" d="m237.8 343.5 61.2 35.4a1.2 1.2 0 1 0 1.3-2.2L239 341.3a1.2 1.2 0 1 0-1.2 2.2" clip-path="url(#a)" text-rendering="geometricPrecision"/><path stroke="none" d="m239 272.7 61.3-35.3a1.2 1.2 0 1 0-1.3-2.2l-61.2 35.4a1.2 1.2 0 1 0 1.2 2.1" clip-path="url(#a)" text-rendering="geometricPrecision"/><path stroke="none" d="m300.3 166.6 61.2-35.3a1.2 1.2 0 1 0-1.2-2.2L299 164.5a1.2 1.2 0 1 0 1.3 2.1" clip-path="url(#a)" text-rendering="geometricPrecision"/><path stroke="none" d="m360.3 131.3 61.3 35.3a1.2 1.2 0 1 0 1.2-2.1L361.5 129a1.2 1.2 0 1 0-1.2 2.2" clip-path="url(#a)" text-rendering="geometricPrecision"/><path stroke="none" d="M421 165.6v70.7a1.2 1.2 0 1 0 2.4 0v-70.7a1.2 1.2 0 1 0-2.5 0" clip-path="url(#a)" text-rendering="geometricPrecision"/><path stroke="none" d="m361.5 272.8 61.3-35.4a1.2 1.2 0 1 0-1.2-2.2l-61.3 35.4a1.2 1.2 0 1 0 1.2 2.2" clip-path="url(#a)" text-rendering="geometricPrecision"/><path stroke="none" d="M300.9 236.3v-70.7a1.2 1.2 0 1 0-2.5 0v70.7a1.2 1.2 0 1 0 2.5 0" clip-path="url(#a)" text-rendering="geometricPrecision"/><path stroke="none" d="m490.5 258.9 41.5-57.2a1.2 1.2 0 1 0-2-1.5l-41.5 57.2a1.2 1.2 0 1 0 2 1.5" clip-path="url(#a)" text-rendering="geometricPrecision"/><path stroke="none" d="M532 200.2 490.5 143a1.2 1.2 0 1 0-2 1.4l41.5 57.3a1.2 1.2 0 1 0 2-1.5" clip-path="url(#a)" text-rendering="geometricPrecision"/><path stroke="none" d="m422.6 166.7 67.2-21.8a1.2 1.2 0 1 0-.7-2.4l-67.3 21.9a1.2 1.2 0 1 0 .8 2.3" clip-path="url(#a)" text-rendering="geometricPrecision"/><path stroke="none" d="m421.8 237.5 67.3 21.8a1.2 1.2 0 1 0 .7-2.3l-67.2-22a1.2 1.2 0 1 0-.8 2.4" clip-path="url(#a)" text-rendering="geometricPrecision"/><path stroke="none" d="m302.9 250.4-.4-2.5h-5.7l-.4 2.5zm2 14.9-.3-2.5h-10l-.3 2.5zm2.2 14.9-.4-2.5h-14.1l-.4 2.5z" clip-path="url(#a)" text-rendering="geometricPrecision"/><path stroke="none" d="M361 271.7h1.2l6.2-43.9h-14.9l6.2 43.9Z" clip-path="url(#a)" text-rendering="geometricPrecision"/><path stroke="none" d="M422.2 165.6h1.2l6.2-70.8h-14.9l6.2 70.8Z" clip-path="url(#a)" text-rendering="geometricPrecision"/><path stroke="none" d="m425.4 250.4-.3-2.5h-5.8l-.3 2.5zm2.1 14.9-.3-2.5h-10l-.4 2.5zm2.1 14.9-.3-2.5H415l-.4 2.5h14.9" clip-path="url(#a)" text-rendering="geometricPrecision"/><path stroke="none" d="M238.4 271.7h1.2l6.2-70.8H231l6.3 70.8Z" clip-path="url(#a)" text-rendering="geometricPrecision"/><path stroke="none" d="M238.4 342.4h-1.2l-6.3 43.9h14.9l-6.2-43.9Z" clip-path="url(#a)" text-rendering="geometricPrecision"/><path stroke="none" d="m108.5 349.9 2-1.6-2.4-4.2-2.4 1zm-11.7 9.4 2-1.5-4.8-8.2-2.3.9zM85 368.8l2-1.6-7-12.2-2.4.9 3.7 6.4z" clip-path="url(#a)" text-rendering="geometricPrecision"/><path stroke="none" d="m357.8 117.2.4 2.4h5.5l.3-2.4zm-2.2-15 .4 2.6h9.8l.4-2.5zm-2.1-14.8.3 2.5H368l.4-2.5z" clip-path="url(#a)" text-rendering="geometricPrecision"/><path stroke="none" d="m490.6 144 21.9-67.2a1.2 1.2 0 1 0-2.4-.8l-21.8 67.3a1.2 1.2 0 1 0 2.3.8" clip-path="url(#a)" text-rendering="geometricPrecision"/><path stroke="none" d="m502.2 69.6 1.8 1.7 3-2.7-1.5-2zm-11-10.2 1.9 1.7 4.9-4.4-1.5-2zm-10.9-10.2 1.8 1.7 6.9-6.2-1.5-2zm-11-10.2 2 1.7 8.7-7.9-1.5-2zm-10.8-10.2 1.8 1.7L471 21l-1.5-2-5.5 5z" clip-path="url(#a)" text-rendering="geometricPrecision"/><path stroke="none" d="M511.6 77.6 580.8 63a1.2 1.2 0 1 0-.5-2.4L511 75.2a1.2 1.2 0 1 0 .5 2.4" clip-path="url(#a)" text-rendering="geometricPrecision"/><path stroke="none" d="m496.5 142-2.5.2-.2 3.5 2.5.4zm15-1-2.5.2-.4 7 2.5.5zm15-1-2.6.1-.5 10.7 2.4.5zm14.9-1-2.5.1-.7 14.3 2.4.4.4-7.4z" clip-path="url(#a)" text-rendering="geometricPrecision"/><path stroke="none" d="m579.6 62.6 47.3 52.5a1.2 1.2 0 1 0 1.9-1.6l-47.4-52.6a1.2 1.2 0 1 0-1.8 1.7" clip-path="url(#a)" text-rendering="geometricPrecision"/><path stroke="none" d="m628.1 115.5 69.2-14.7a1.2 1.2 0 1 0-.5-2.4L627.6 113a1.2 1.2 0 1 0 .5 2.4" clip-path="url(#a)" text-rendering="geometricPrecision"/><path stroke="none" d="m696.1 100.4 29 32.2a1.2 1.2 0 1 0 1.9-1.6l-29-32.2a1.2 1.2 0 1 0-1.9 1.6" clip-path="url(#a)" text-rendering="geometricPrecision"/><path stroke="none" d="M361.8 341.4h-.3l-.6 1-.6 1 .2.2zm13.9 5.7-2.3-1-3 5.2 2 1.6zm14 5.7-2.4-1-5 8.8 2 1.5zm13.8 5.6-2.3-1-7 12.4 1.9 1.5 3.7-6.4z" clip-path="url(#a)" text-rendering="geometricPrecision"/><path stroke="none" d="M688.6 100.7a1.2 1.2 0 1 0 2.4.8l14.2-43.8a1.2 1.2 0 1 0-2.3-.8Zm12.2 4a1.2 1.2 0 1 0 2.4.8l14.2-43.9a1.2 1.2 0 1 0-2.3-.7Z" clip-path="url(#a)" text-rendering="geometricPrecision"/><text xml:space="preserve" y="48" stroke="none" clip-path="url(#b)" font-family="'Arial'" font-size="49" text-rendering="geometricPrecision" transform="translate(282.398 278.045)">H</text><text xml:space="preserve" y="48" stroke="none" clip-path="url(#c)" font-family="'Arial'" font-size="49" text-rendering="geometricPrecision" transform="translate(343.662 171.935)">H</text><text xml:space="preserve" y="48" stroke="none" clip-path="url(#d)" font-family="'Arial'" font-size="49" text-rendering="geometricPrecision" transform="translate(404.925 278.045)">H</text><text xml:space="preserve" y="48" stroke="none" clip-path="url(#e)" font-family="'Arial'" font-size="49" text-rendering="geometricPrecision" transform="translate(221.134 384.154)">H</text><text xml:space="preserve" y="48" stroke="none" clip-path="url(#f)" font-family="'Arial'" font-size="49" text-rendering="geometricPrecision" transform="translate(7.321 348.784)">HO</text><text xml:space="preserve" y="48" stroke="none" clip-path="url(#g)" font-family="'Arial'" font-size="49" text-rendering="geometricPrecision" transform="translate(341.155 30.45)">OH</text><text xml:space="preserve" y="48" stroke="none" clip-path="url(#h)" font-family="'Arial'" font-size="49" text-rendering="geometricPrecision" transform="translate(542.849 118.407)">H</text><text xml:space="preserve" y="48" stroke="none" clip-path="url(#i)" font-family="'Arial'" font-size="49" text-rendering="geometricPrecision" transform="translate(724.616 123.16)">OH</text><text xml:space="preserve" y="48" stroke="none" clip-path="url(#j)" font-family="'Arial'" font-size="49" text-rendering="geometricPrecision" transform="translate(402.418 348.788)">OH</text><text xml:space="preserve" y="48" stroke="none" clip-path="url(#k)" font-family="'Arial'" font-size="49" text-rendering="geometricPrecision" transform="translate(700.146 3.31)">O</text></svg>