<svg viewBox="0 0 614 390"><g stroke-linecap="round" font-family="Helvetica" font-size="16"><path stroke="#000" stroke-width="2.3" d="M271.8 340v-53M180 340v-53m137.6-79.5L271.7 181m96.3 10 31 43m-79.8 33.2H316m3.7 6.7h-4.1m4.5 6.7h-5m5.5 6.7h-6m6.4 6.7h-6.8m3.4-86.5L368 191m-96.2 96 45.8-26.6M180 287l-45.9-26.5m260.4-115.2h53m105.9-91.8L526.9 7.7m-159 269.1-50.3-16.3m-183.5 106 46-26.5"/><path stroke="#000" d="m316.5 207.5-2.3-53h6.8l-2.2 53z"/><path stroke="#000" stroke-width="2.3" d="M271.7 181 226 207.7m164-67.5 2.4-1.4m-6-4.2 3-1.7m-6.6-3.9 3.4-2m-7-3.5 4-2.3m-7.5-3.4 4.4-2.5m-8-3 5-2.9m-8.5-2.7 5.4-3.2m-9-2.4 6-3.4m76.4 47.6 26.5-46M180 340l45.9 26.4m-38.5-31.3 39 22.5m327-304.1h53M399 234l-31 42.8"/><path stroke="#000" d="m178.9 287-2.3-53h6.8l-2.3 53z"/><path stroke="#000" stroke-width="2.3" d="m225.9 366.4 45.9-26.4m-183.6 0 46 26.4M271.7 287l-46-26.5m301-161.1 26.6-45.9m-79.5 45.9h53"/><path stroke="#000" d="m270.6 287-2.2-40h6.8l-2.3 40zM88.8 341l-30.1 20-3.4-6 32.4-16z"/><path stroke="#000" stroke-width="2.3" d="M227.5 267.2h-3.2m3.6 6.7h-4m4.5 6.7h-5m5.4 6.7H223m6.4 6.7h-6.8m-134.4-7v53M226 260.5 180 287m45.9-79.4v53m148.6-71v3m6.5-3.4v3.8m6.5-4.2v4.6m6.5-5v5.4m6.5-5.7v6m6.5-6.4v6.8m-272.9 66L88.2 287m229.4-26.5v-53"/><text x="336.4" y="381.5" font-family="Arial" font-size="32" transform="translate(-122 -59)">H</text><text x="382" y="302" font-family="Arial" font-size="32" transform="translate(-122 -59)">H</text><text x="428.3" y="381.4" font-family="Arial" font-size="32" transform="translate(-122 -59)">H</text><text x="532" y="262" font-family="Arial" font-size="32" transform="translate(-122 -59)">H</text><text xml:space="preserve" x="128.7" y="434.5" style="font-size:17.8208px;font-family:Arial;-inkscape-font-specification:&quot;Arial, Normal&quot;;fill:#00f;stroke:#000;stroke-width:.249245;stroke-linecap:round;stroke-linejoin:round;paint-order:fill markers stroke" transform="translate(-122 -59)"><tspan x="128.7" y="434.5" style="font-style:normal;font-variant:normal;font-weight:400;font-stretch:normal;font-size:32px;font-family:Arial;-inkscape-font-specification:&quot;Arial, Normal&quot;;font-variant-ligatures:normal;font-variant-caps:normal;font-variant-numeric:normal;font-variant-east-asian:normal;fill:#000;fill-opacity:1;stroke-width:.249245">HO</tspan></text></g></svg>