<svg viewBox="0 0 1371.26 1096.65"><path style="marker:none" fill="#fc0" stroke="#000" stroke-linecap="round" stroke-width="2" d="M879.2 473.4v-.032l10.97-9.28-11.22-9.813-57.655-3.282c-6.767.271-27.344 17.875-27.344 17.875z" color="#000" overflow="visible"/><path style="marker:none" fill="#06f" stroke="#000" stroke-linecap="round" stroke-width="2" d="M878.826 849.087c-.972-.669-1.783-1.393-2.438-2.156a9.9 9.9 0 01-1.53-2.375 9.4 9.4 0 01-.72-2.531 10.3 10.3 0 01-.062-2.563c.09-.85.295-1.687.563-2.5s.589-1.6 1-2.344a13.9 13.9 0 013.094-3.812l-60.97-3.844-23.28 17.313z" color="#000" overflow="visible"/><path style="marker:none" fill="#0a0" stroke="#000" stroke-linecap="round" stroke-width="2" d="M878.826 937.868l36.656.875 16.781-17.593-53.53-.407a11.8 11.8 0 00-2.407 1.844 10.8 10.8 0 00-1.719 2.219c-.457.79-.804 1.627-1.031 2.469a9.6 9.6 0 00-.313 2.53c0 .841.111 1.681.344 2.47a8 8 0 001.031 2.218c.464.685 1.055 1.283 1.75 1.813s1.511.989 2.438 1.312zm0-187.968l16.906.187 22.188-15.719-38.938-.656a8 8 0 00-1.5 1.5 9.8 9.8 0 00-1.125 1.875c-.627 1.36-.992 2.905-1.062 4.469-.035.782 0 1.571.125 2.344.12.772.339 1.527.625 2.25a9 9 0 001.093 2.03 8.7 8.7 0 001.688 1.72z" color="#000" overflow="visible"/><path style="marker:none" fill="#0055d4" stroke="#000" stroke-linecap="round" stroke-width="2" d="M878.7 560.775l19.72-.157 16.53-14.625-36.124-.375a11 11 0 00-2.688 2.907 10.3 10.3 0 00-1.5 3.937 8 8 0 00-.062 2.156 7.5 7.5 0 00.594 2.157c.314.71.762 1.391 1.344 2.062s1.299 1.334 2.187 1.938z" color="#000" overflow="visible"/><path style="marker:none" fill="#06f" stroke="#000" stroke-linecap="round" stroke-width="2" d="M878.826 339.43l40.844-.75 45.625-.843 23.53-18.406-110.124 3.406a16 16 0 012.187 1.875 12 12 0 011.594 2q.654 1.04 1 2.125c.23.724.354 1.483.375 2.219a7.6 7.6 0 01-.25 2.187 8.8 8.8 0 01-.906 2.188c-.416.71-.95 1.392-1.594 2.062a15.4 15.4 0 01-2.281 1.938z" color="#000" overflow="visible"/><path style="marker:none" fill="#3771c8" stroke="#000" stroke-linecap="round" stroke-width="2" d="M878.107 430.743l27.094 4.563s6.219-4.899 6.219-9.5c0-4.602-3.782-7.844-3.782-7.844l-19.78-.531-6.626 3.187c.153-.073.346.386.469 1.157.123.77.182 1.848.062 3s-.427 2.398-1 3.468a5.7 5.7 0 01-1.063 1.438c-.44.428-.974.799-1.593 1.062z" color="#000" overflow="visible"/><path style="marker:none" fill="green" stroke="#000" stroke-linecap="round" stroke-width="2" d="M878.107 430.743a5.2 5.2 0 001.594-1.062c.44-.429.776-.902 1.062-1.438.574-1.07.881-2.317 1-3.468.12-1.152.06-2.23-.062-3s-.316-1.23-.468-1.157l-16.375 7.907z" color="#000" overflow="visible"/><path style="marker:none" fill="#0a0" stroke="#000" stroke-linecap="round" stroke-width="2" d="M878.888 158.837l14.407-2.875 38.156-22.469-52.531 9.875c-1.048.997-2.026 2.037-2.782 3.157-.755 1.119-1.313 2.323-1.5 3.593-.093.636-.1 1.29 0 1.97.101.678.327 1.368.657 2.093s.781 1.474 1.375 2.25a19.5 19.5 0 002.218 2.406z" color="#000" overflow="visible"/><path style="marker:none" fill="#fc0" stroke="#000" stroke-linecap="round" stroke-width="2" d="M878.357 705.556c30.15.836 60.289 1.81 90.438 2.562 5.954 0 26.812-17.843 26.812-17.843l-116.875-.97-9.156 8.47z" color="#000" overflow="visible"/><path style="marker:none" fill="#374845" stroke="#000" stroke-linecap="round" stroke-linejoin="round" stroke-width="2" d="M801.525 42.01s-48.18 36.811-24.902 73.08c23.278 36.27 37.353 56.3 127.756 104.479l90.404 48.18s21.112 7.578 21.653 25.983-1.083 24.36 0 33.022-1.624 20.03-15.699 32.48c-14.074 12.451-104.478 56.84-104.478 56.84S787.45 459.383 770.127 495.11c0 0-1.483 2.349-1.496 6.1-.015 4.1 1.725 9.876 9.075 16.095 14.075 11.91 146.161 89.862 146.161 89.862l63.878 36.27s28.15 10.827 29.232 31.94c0 0-.155 3.443-1.304 7.27-1.148 3.828-1.148 17.226 0 21.054 1.149 3.828 2.68 13.78-3.062 19.904s-24.498 23.733-41.723 32.154c-17.226 8.422-154.215 73.782-154.215 73.782s-41.627 33.254-46.7 43.255c0 0 4.929 17.32 16.413 26.125s67.752 35.981 67.752 35.981 8.422 4.21 3.445 8.804l-29.857 20.67s-5.742 5.36-14.928.383c-9.187-4.976-63.543-41.627-63.543-66.891 0-16.412 3.733-20.862 3.733-20.862s-4.115-14.45-4.115-24.402 11.1-28.71 22.201-38.661c5.982-5.363 23.755-17.149 42.703-28.568 16.216-9.772 33.291-19.276 44.572-24.257 24.458-10.798 113.374-57.1 129.447-64.745 0 0-10.401-17.936-50.976-38.606s-71.581-38.279-71.581-38.279-114.8-54.356-115.218-86.51c-.383-29.33.766-31.005.766-31.005s-2.68-19.139-2.68-24.498 8.421-30.24 39.044-53.207 128.233-66.604 128.233-66.604 68.518-34.45 77.705-43.638c0 0-8.421-16.46-101.82-60.097-93.4-43.637-122.109-85.743-129.382-107.562s-6.507-46.7-6.507-46.7-2.68-54.355 14.546-77.322c0 0 5.646-7.273 10.718-1.149 3.284 3.967 14.163 20.67 20.88 20.814" color="#000" overflow="visible"/><path style="marker:none" fill="#0a0" stroke="#000" stroke-linecap="round" stroke-width="2" d="M878.7 618.712q1.351-.708 2.313-1.469a9.4 9.4 0 001.563-1.562 7.13 7.13 0 001.469-3.281c.192-1.113.146-2.22 0-3.313-.147-1.093-.388-2.153-.563-3.156l-20.25 9.906zm-.593-240.594l27.906-14.562-27.062 4.062c-.448 1.046-1.42 1.921-1.906 3.407-.244.742-.388 1.63-.25 2.78.137 1.151.534 2.557 1.312 4.313z" color="#000" overflow="visible"/><path style="marker:none" fill="#06f" stroke="#000" stroke-linecap="round" stroke-width="2" d="M878.013 219.68c-.507-.434-1.08-.833-1.437-1.374-.56-.847-.94-1.806-1.188-2.875s-.341-2.257-.343-3.5a30 30 0 01.25-3.906c.125-.97.407-2.05.593-3.063l-17.25 10-5.406 8.656 17.031 6.25z" color="#000" overflow="visible"/><path style="marker:none" fill="#0a0" stroke="#000" stroke-linecap="round" stroke-width="2" d="M878.013 219.68l21.75-28.53-23.875 13.812c-.186 1.013-.468 2.093-.593 3.063a30 30 0 00-.25 3.906c0 1.243.095 2.431.343 3.5s.627 2.028 1.188 2.875c.358.54.93.94 1.437 1.375z" color="#000" overflow="visible"/><path style="marker:none" fill="#06f" stroke="#000" stroke-linecap="round" stroke-width="2" d="M878.888 158.837a19.5 19.5 0 01-2.218-2.406 11.7 11.7 0 01-1.375-2.25c-.33-.725-.556-1.415-.657-2.094a6.7 6.7 0 010-1.969c.187-1.27.745-2.474 1.5-3.593.756-1.12 1.734-2.16 2.782-3.157L798.826 158.4s-6.92 3.724-4.594 8.375c2.436 4.872 7.293 6.78 9.188 6.78 1.586 0 55.341-10.7 75.468-14.718zm-.188 459.875l25.126 4.688s6.25-1.889 7.875-7.032-2.719-9.187-2.719-9.187l-20.312-3.813-5.188 2.532v.03c.175 1.004.416 2.064.563 3.157s.192 2.2 0 3.313a7.13 7.13 0 01-1.47 3.28 9.4 9.4 0 01-1.562 1.563q-.961.76-2.312 1.469z" color="#000" overflow="visible"/><path style="marker:none" fill="#374845" stroke="#000" stroke-linecap="round" stroke-width="2" d="M975.48 80.91s4.212-16.459 19.523-11.483 26.03 16.077 26.03 21.053c0 4.977-4.594 10.718-4.211 19.14.382 8.42 4.593 14.163 4.593 18.756s-2.68 11.484-13.397 17.225-130.147 54.738-179.143 89.955-60.672 62.968-60.672 62.968 12.824 39.618 73.686 73.303 131.678 74.26 137.037 78.853c5.359 4.594 36.364 20.288 35.982 34.45-.383 14.164-2.297 18.375 0 26.413 2.296 8.038 2.296 17.99-9.953 31.388s-38.66 30.623-114.835 62.777-111.39 60.48-121.343 80.767c0 0 1.149 16.843 27.178 31.389 26.03 14.545 142.396 83.447 142.396 83.447l47.848 29.857s31.77 10.718 32.154 29.474c.382 18.757-3.828 16.077-2.68 24.498 1.149 8.422 2.297 25.647-4.976 34.451s-31.005 30.24-73.494 45.934c0 0-8.039 4.21-11.867-.383-5.052-6.062-13.78-25.646-13.78-25.646s-2.68-8.422 5.742-12.25c8.42-3.827 68.9-34.833 74.643-40.574 0 0-32.154-32.154-63.16-47.083s-111.007-61.82-111.007-61.82-81.916-29.665-66.605-85.552c0 0-3.062-18.756-2.68-30.24.384-11.483 19.523-36.747 48.232-56.27 28.709-19.521 90.72-48.23 90.72-48.23s94.93-45.168 97.227-47.848c0 0-6.125-21.436-68.136-51.293s-122.108-63.925-140.864-85.744c-18.757-21.818-27.944-34.067-22.202-65.456 0 0 .383-17.608-.383-27.943-.765-10.335 3.445-33.685 16.46-47.465s49.762-43.638 66.987-53.207c17.226-9.57 111.773-54.356 111.773-54.356l22.45-7.385z" color="#000" overflow="visible"/><path style="marker:none" fill="#06f" stroke="#000" stroke-linecap="round" stroke-width="2" d="M878.107 378.118c-.778-1.756-1.175-3.162-1.312-4.312-.138-1.15.01-2.039.25-2.781.486-1.486 1.458-2.361 1.906-3.407l-54.156 8.125s-6.76 2.723-6.22 8.407c.542 5.684 5.97 9.187 5.97 9.187l32.187-4.062z" color="#000" overflow="visible"/><path style="marker:none" fill="#374845" d="M787.151 424.268c30.623-22.967 128.233-66.604 128.233-66.604l15.278 41.781m.775-1.047c-19.4 9.93-35.178 17.677-35.178 17.677s-22.909 9.118-49.376 22.438l-58.868-13.895m60.019 389.954a119385 119385 0 0070.15-33.517M847.8 814.799l-34.024-29.424c16.216-9.772 33.291-19.276 44.572-24.257 3.584-1.582 8.55-3.926 15.009-6.687L918.6 781.76" color="#000" overflow="visible"/><path style="marker:none" fill="none" stroke="#000" stroke-linecap="round" stroke-width="2" d="M751.217 692.17s5.311-17.944 29.044-37.466m-11.244 31.246s-33.925 34.593 26.173 76.317m196.362 124.811s27.344-29.486-5.173-55.887m-233.391 45.815s10.43-20.957 29.57-35.12m-12.584 30.862s-32.872 36.508 25.598 75.935m-9.569-485.753s-32.877 26.89-35.221 39.043m18.378-4.21s-34.45 39.427 26.412 76.174M753.466 307.52s7.656-36.365 66.222-71.964m-51.293 62.776s-29.092 56.652 48.996 100.29m171.87-72.729s28.798-11.101 26.884-35.216m-23.439 23.733s24.228-33.866-3.333-49.56M755.571 109.428s.957-39.618 30.815-64.499m184.119 71.964s39.005-17.993 39.427-26.795c.382-7.992-1.532-8.804-1.532-8.804" color="#000" overflow="visible"/><path style="marker:none" fill="#0a0" stroke="#000" stroke-linecap="round" stroke-width="2" d="M878.826 849.087l95.375 5.469s4.344-4.326 4.344-8.656-6.5-9.22-6.5-9.22l-93.313-5.874a13.9 13.9 0 00-3.094 3.812c-.41.744-.732 1.531-1 2.344-.267.813-.473 1.65-.562 2.5s-.062 1.71.062 2.563.347 1.706.719 2.53a9.9 9.9 0 001.53 2.376 12.7 12.7 0 002.438 2.156zm0-509.657a15.4 15.4 0 002.281-1.937c.644-.67 1.178-1.353 1.594-2.062a8.8 8.8 0 00.906-2.188 7.6 7.6 0 00.25-2.187 8 8 0 00-.375-2.219 9.4 9.4 0 00-1-2.125 12 12 0 00-1.594-2 16 16 0 00-2.187-1.875l-108.844 3.375s-3.26 4.075-2.719 7.594c.271 1.76 1.418 3.639 2.5 5.094a23 23 0 002.125 2.468z" color="#000" overflow="visible"/><path style="marker:none" fill="none" stroke="#000" stroke-linecap="round" stroke-width="2" d="M984.392 510.004s38.132-25.51-1.255-56.441" color="#000" overflow="visible"/><path style="marker:none" fill="#374845" stroke="#000" stroke-linecap="round" stroke-width="2" d="M787.151 424.268c30.623-22.967 128.233-66.604 128.233-66.604m16.053 40.734c-19.4 9.93-35.178 17.677-35.178 17.677s-22.909 9.118-49.376 22.438" color="#000" overflow="visible"/><path style="marker:none" fill="#06f" stroke="#000" stroke-linecap="round" stroke-width="2" d="M878.826 749.9a8.7 8.7 0 01-1.688-1.72 9 9 0 01-1.093-2.03 10.5 10.5 0 01-.625-2.25c-.12-.773-.16-1.562-.125-2.344.07-1.564.435-3.11 1.062-4.469a9.8 9.8 0 011.125-1.875 8 8 0 011.5-1.5l-88.281-1.5s-4.875 3.242-4.875 7.031c0 3.79 3.25 9.75 3.25 9.75zm0 187.968v-.25a8.8 8.8 0 01-2.438-1.312c-.695-.53-1.286-1.128-1.75-1.813a8 8 0 01-1.03-2.218 8.8 8.8 0 01-.345-2.47c0-.84.085-1.69.313-2.53a10.3 10.3 0 011.031-2.47c.457-.79 1.033-1.53 1.719-2.218a11.8 11.8 0 012.406-1.844l-87.5-.687s-4.594 2.43-4.594 7.031 3.25 8.688 3.25 8.688z" color="#000" overflow="visible"/><path style="marker:none" fill="#0a0" stroke="#000" stroke-linecap="round" stroke-width="2" d="M878.7 560.775c1.822-2.276 9.582-7.573.125-15.157l-88.656-.968s-4.625 4.585-4.625 8.375 4.344 8.406 4.344 8.406z" color="#000" overflow="visible"/><path style="marker:none" fill="none" stroke="#000" stroke-linecap="round" stroke-width="2" d="M987.57 696.176s38.394-30.045-11.75-59.52" color="#000" overflow="visible"/><path style="marker:none" fill="#fc0" stroke="#000" stroke-linecap="round" stroke-width="2" d="M986.914 696.766s3.537-2.344 7.01-7.122h0l-14.227.47" color="#000" overflow="visible"/><path style="marker:none" fill="#d40000" stroke="#000" stroke-linecap="round" stroke-width="2" d="M883.107 114.65l-10.406-8.813 10.375-9.625L769.982 94.4s-4.186 7.297-1.344 17.312zm-4.219 179.718l-10.937-8.5 12.125-8.343-92.906-7.063c-5.414 2.436-14.063 16.219-14.063 16.219zm-.531 411.188l-8.781-7.781 9.156-8.47-111.719-.937c-1.975 2.677-4.905 7.47-6.468 13.875 39.263 1.248 78.537 2.224 117.812 3.313zM766.91 688.528c-2.039 2.796-5.033 7.756-6.522 14.355" color="#000" overflow="visible"/><path style="marker:none" fill="#d40000" stroke="#000" stroke-width="2" d="M791.39 688.572l-24.365-.201c-1.974 2.676-4.925 7.47-6.488 13.876q14.499.461 29 .906" color="#000" overflow="visible"/><path style="marker:none" fill="#d40000" stroke="#000" stroke-linecap="round" stroke-width="2" d="M878.857 806.337l26.594 3.844s7.594-1.638 7.594-5.969c0-4.33-4.344-9.187-4.344-9.187l-14.781-2.344-8.157 3.906zm-.031 86.531l99.344 2.532c7.053-4.007 12.283-7.221 13.78-8.72 0 0 2.89-2.724 5.063-7.437l-118.187-3.375 8.281 8.72-8.281 8.218zM768.045 499.087c-5.437 7.573-7.125 15.031-7.125 15.031l47.812 1.344 30.188.844v.062l39.78 1.157v-.032l-10.75-8.406 11.22-7.625-7.438-.156-32.844-.688-19-.406zM879.2 230.493l11.282 12.47-10.687 6.312 58.156 19.812s9.48.278 11.375-4.594-3.813-10-3.813-10zm0 242.907l93.126 4.937s3.781-4.076 3.781-9.219-7.312-9.75-7.312-9.75l-89.844-5.093 11.219 9.812-10.97 9.281zm-.562 187.937l93.938 5.094s4.344-3.513 4.344-7.844c0-4.33-5.688-8.656-5.688-8.656l-92.344-5.688 8.407 8.813z" color="#000" overflow="visible"/><path style="marker:none" fill="none" stroke="#000" stroke-linecap="round" stroke-linejoin="round" stroke-width="2" d="M873.358 754.103c-6.458 2.761-11.425 5.433-15.01 7.015-11.28 4.98-28.355 14.485-44.57 24.257m34.256 29.197a119385 119385 0 0070.15-33.517" color="#000" overflow="visible"/><path style="marker:none" fill="#fc0" stroke="#000" stroke-linecap="round" stroke-width="2" d="M878.888 294.368l110.75 8.032s3.532-4.055 3.532-8.657c0-4.601-3-7.875-3-7.875l-110.094-8.343-12.125 8.343zm-.25 366.969l8.657-8.281-8.407-8.813-61.656-3.78c-2.977.27-23.562 16.25-23.562 16.25zm.219 145l6.906-9.75-17.25 8.25zm.906-557.062h.031l10.688-6.313-11.281-12.469-28.688-10.375-18.937 12.72zm-.593 252.187l-11.22 7.625 10.75 8.406v.032l23.22.656 31.5.906 31.5.906c6.886-3.136 11.448-5.33 14.78-7.156.557-.305 1.101-.586 1.595-.875 1.971-1.153 3.467-2.198 4.843-3.312a45 45 0 003.032-2.72c.68-.661 1.376-1.367 2.156-2.155l-38.094-.813-38.125-.781-.03.031zm-.344 391.406v-.062l8.281-8.219-8.281-8.719-108.844-3.125s-5.93 6.56-8.281 17.125zm4.281-778.218l87.406 2.25s21.742-10.037 32.938-18.782l-120.375-1.906-10.375 9.625zM479.2 473.4v-.032l10.97-9.28-11.22-9.813-57.655-3.282c-6.767.271-27.344 17.875-27.344 17.875z" color="#000" overflow="visible"/><path style="marker:none" fill="#06f" stroke="#000" stroke-linecap="round" stroke-width="2" d="M478.826 339.43l40.844-.75 45.625-.843 23.53-18.406-110.124 3.406zm-.093 491.284l-60.97-3.752-23.28 17.313 82.374 4.72z" color="#000" overflow="visible"/><path style="marker:none" fill="#0a0" stroke="#000" stroke-linecap="round" stroke-width="2" d="M478.826 749.9l16.906.187 22.188-15.719-38.938-.656a8 8 0 00-1.5 1.5 9.8 9.8 0 00-1.125 1.875c-.627 1.36-.992 2.905-1.062 4.469-.035.782 0 1.571.125 2.344.12.772.339 1.527.625 2.25a9 9 0 001.093 2.03 8.7 8.7 0 001.688 1.72z" color="#000" overflow="visible"/><path style="marker:none" fill="green" stroke="#000" stroke-linecap="round" stroke-width="2" d="M478.107 430.743a5.2 5.2 0 001.594-1.062c.44-.429.776-.902 1.062-1.438.574-1.07.881-2.317 1-3.468.12-1.152.06-2.23-.062-3s-.316-1.23-.468-1.157l-16.375 7.907z" color="#000" overflow="visible"/><path style="marker:none" fill="#fc0" stroke="#000" stroke-linecap="round" stroke-width="2" d="M478.357 705.556c30.15.836 60.289 1.81 90.438 2.562 5.954 0 26.812-17.843 26.812-17.843l-116.875-.97-9.156 8.47z" color="#000" overflow="visible"/><path style="marker:none" fill="#6f918a" stroke="#000" stroke-linecap="round" stroke-linejoin="round" stroke-width="2" d="M401.525 42.01s-48.18 36.811-24.902 73.08c23.278 36.27 37.353 56.3 127.756 104.479l90.404 48.18s21.112 7.578 21.653 25.983-1.082 24.36 0 33.022-1.624 20.03-15.699 32.48c-14.074 12.451-104.478 56.84-104.478 56.84S387.45 459.383 370.127 495.11c0 0-1.483 2.349-1.496 6.1-.015 4.1 1.725 9.876 9.075 16.095 14.075 11.91 146.161 89.862 146.161 89.862l63.878 36.27s28.15 10.827 29.233 31.94c0 0-.156 3.443-1.305 7.27-1.148 3.828-1.148 17.226 0 21.054 1.149 3.828 2.68 13.78-3.062 19.904s-24.498 23.733-41.723 32.154c-17.226 8.422-154.215 73.782-154.215 73.782s-41.627 33.254-46.7 43.255c0 0 4.929 17.32 16.413 26.125s67.752 35.981 67.752 35.981 8.422 4.21 3.445 8.804l-29.857 20.67s-5.742 5.36-14.928.383c-9.187-4.976-63.543-41.627-63.543-66.891 0-16.412 3.733-20.862 3.733-20.862s-4.115-14.45-4.115-24.402 11.1-28.71 22.201-38.661c5.982-5.363 23.755-17.149 42.703-28.568 16.216-9.772 33.291-19.276 44.572-24.257 24.458-10.798 113.374-57.1 129.447-64.745 0 0-10.401-17.936-50.976-38.606s-71.581-38.279-71.581-38.279-114.8-54.356-115.218-86.51c-.383-29.33.766-31.005.766-31.005s-2.68-19.139-2.68-24.498 8.421-30.24 39.044-53.207 128.233-66.604 128.233-66.604 68.518-34.45 77.705-43.638c0 0-8.421-16.46-101.82-60.097-93.4-43.637-122.109-85.743-129.382-107.562s-6.507-46.7-6.507-46.7-2.68-54.355 14.546-77.322c0 0 5.646-7.273 10.718-1.149 3.284 3.967 14.163 20.67 20.88 20.814" color="#000" overflow="visible"/><path style="marker:none" fill="#0a0" stroke="#000" stroke-linecap="round" stroke-width="2" d="M478.107 378.118l27.906-14.562-27.062 4.062c-.448 1.046-1.42 1.921-1.906 3.407-.244.742-.388 1.63-.25 2.78.137 1.151.534 2.557 1.312 4.313z" color="#000" overflow="visible"/><path style="marker:none" fill="#06f" stroke="#000" stroke-linecap="round" stroke-width="2" d="M480.844 158.472l-3.391-15.47-78.627 15.398s-6.92 3.724-4.594 8.375c2.436 4.872 7.293 6.78 9.188 6.78 1.586 0 57.297-11.066 77.424-15.083z" color="#000" overflow="visible"/><path style="marker:none" fill="#6f918a" d="M387.151 424.268c30.623-22.967 128.233-66.604 128.233-66.604l15.278 41.781m.775-1.047c-19.4 9.93-35.178 17.677-35.178 17.677s-22.909 9.118-49.376 22.438l-58.868-13.895m60.019 389.954a119385 119385 0 0070.15-33.517M447.8 814.799l-34.024-29.424c16.216-9.772 33.291-19.276 44.572-24.257 3.584-1.582 8.55-3.926 15.009-6.687L518.6 781.76" color="#000" overflow="visible"/><path style="marker:none" fill="none" stroke="#000" stroke-linecap="round" stroke-width="2" d="M352.988 877.006s10.43-20.957 29.57-35.12m-12.584 30.862s-32.872 36.508 25.598 75.935m-9.569-485.753s-32.877 26.89-35.221 39.043m18.378-4.21s-34.45 39.427 26.412 76.174m193.689-248.044s28.798-11.101 26.884-35.216m-23.439 23.733s24.228-33.866-3.333-49.56M355.571 109.428s.957-39.618 30.815-64.499" color="#000" overflow="visible"/><path style="marker:none" fill="#6f918a" stroke="#000" stroke-linecap="round" stroke-width="2" d="M387.151 424.268c30.623-22.967 128.233-66.604 128.233-66.604m16.053 40.734c-19.4 9.93-35.178 17.677-35.178 17.677s-22.909 9.118-49.376 22.438" color="#000" overflow="visible"/><path style="marker:none" fill="#06f" stroke="#000" stroke-linecap="round" stroke-width="2" d="M478.826 937.868l-.094-17.125-87.5-.687s-4.594 2.43-4.594 7.031 3.25 8.688 3.25 8.688z" color="#000" overflow="visible"/><path style="marker:none" fill="#0a0" stroke="#000" stroke-linecap="round" stroke-width="2" d="M478.7 560.775l.125-15.157-88.656-.968s-4.625 4.585-4.625 8.375 4.344 8.406 4.344 8.406z" color="#000" overflow="visible"/><path style="marker:none" fill="none" stroke="#000" stroke-linecap="round" stroke-width="2" d="M587.57 696.176s38.394-30.045-11.75-59.52" color="#000" overflow="visible"/><path style="marker:none" fill="#fc0" stroke="#000" stroke-linecap="round" stroke-width="2" d="M586.914 696.766s3.537-2.344 7.01-7.122h0l-14.227.47" color="#000" overflow="visible"/><path style="marker:none" fill="#f60" stroke="#000" stroke-linecap="round" stroke-width="2" d="M483.107 114.65l-10.406-8.813 10.375-9.625L369.982 94.4s-4.186 7.297-1.344 17.312zM368.045 499.087c-5.437 7.573-7.125 15.031-7.125 15.031l47.812 1.344 30.188.844v.062l39.78 1.157v-.032l-10.75-8.406 11.22-7.625-7.438-.156-32.844-.688-19-.406zM479.2 230.493l11.282 12.47-10.687 6.312 58.156 19.812s9.48.278 11.375-4.594-3.813-10-3.813-10zm-.562 430.844l93.938 5.094s4.344-3.513 4.344-7.844c0-4.33-5.688-8.656-5.688-8.656l-92.344-5.688 8.407 8.813z" color="#000" overflow="visible"/><path style="marker:none" fill="none" stroke="#000" stroke-linecap="round" stroke-linejoin="round" stroke-width="2" d="M473.358 754.103c-6.458 2.761-11.425 5.433-15.01 7.015-11.28 4.98-28.355 14.485-44.57 24.257m34.256 29.197a119385 119385 0 0070.15-33.517" color="#000" overflow="visible"/><path style="marker:none" fill="#fc0" stroke="#000" stroke-linecap="round" stroke-width="2" d="M478.888 294.368l110.75 8.032s3.532-4.055 3.532-8.657c0-4.601-3-7.875-3-7.875l-110.094-8.343-12.125 8.343zm-.031 511.969l6.906-9.75-17.25 8.25zm-.031 86.531l8.281-8.28-8.281-8.72-108.844-3.125s-5.93 6.56-8.281 17.125z" color="#000" overflow="visible"/><path style="marker:none" fill="#06f" stroke="#000" stroke-linecap="square" stroke-width="2" d="M484.639 929.344a4.053 8.67 0 11-8.107 0 4.053 8.67 0 118.107 0zm-1.926-88.651a4.061 9.232 9.616 11-7.968-1.59 4.061 9.232 9.616 117.968 1.59z" color="#000" overflow="visible"/><path style="marker:none" fill="#06f" stroke="#000" stroke-linecap="round" stroke-width="2" d="M476.806 601.976l-5.028 15.343 34.641 6.08s5.167-3.964 5.646-7.723-3.247-8.888-3.247-8.888z" color="#000" overflow="visible"/><path style="marker:none" fill="#06f" stroke="#000" stroke-linecap="square" stroke-width="2" d="M479.31 607.658a5.907 8.042 15.1 11-12.123 3.547 5.907 8.042 15.1 1112.123-3.547z" color="#000" overflow="visible"/><path style="marker:none" fill="#0a0" stroke="#000" stroke-linecap="square" stroke-width="2" d="M483.891 553.362a4.06 7.613 1.857 11-8.113-.353 4.06 7.613 1.857 118.113.353z" color="#000" overflow="visible"/><path style="marker:none" fill="#06f" stroke="#000" stroke-linecap="round" stroke-width="2" d="M493.265 210.04l-5.49-15.183-31.035 16.546s-1.629 6.306.31 9.562c1.938 3.257 8.032 5.002 8.032 5.002l28.182-15.926z" color="#000" overflow="visible"/><path style="marker:none" fill="#06f" stroke="#000" stroke-linecap="square" stroke-width="2" d="M487.792 207.107a8.042 5.907 67.08 117.365-10.261 8.042 5.907 67.08 11-7.365 10.261zm-10.555-51.296a7.946 4.231 80.237 115.14-10.403 7.946 4.231 80.237 11-5.14 10.403zm5.208 171.759a8.35 5.908 88.25 11-10.547 7.217 8.35 5.908 88.25 1110.547-7.217z" color="#000" overflow="visible"/><text x="475.5" y="1032.25" font-family="Sans-Serif" font-size="32" font-weight="700" text-anchor="middle" style="text-align:center;line-height:125%"><tspan x="475.5" y="1032.25">RNA</tspan></text><text x="875.51" y="1036.17" font-family="Sans-Serif" font-size="32" font-weight="700" text-anchor="middle" style="text-align:center;line-height:125%"><tspan x="875.51" y="1036.17">DNA</tspan></text><text x="645.38" y="476.26" font-family="Sans-Serif" font-size="28" font-weight="400" text-anchor="middle" style="text-align:center;line-height:125%"><tspan x="645.38" y="476.26" font-family="Microsoft YaHei" font-size="36" style="-inkscape-font-specification:Microsoft YaHei">碱基对</tspan></text><path fill="#91bdff" d="M1189.207 171.58l29.1-16.5 29.1 16.755v33.346l-28.711 17.064-29.434-17.064z"/><path d="M1241.73 179.38v-14.316h1.943l7.52 11.24v-11.24h1.816v14.317h-1.943l-7.52-11.25v11.25zm-29.1 50.4v-14.316h1.943l7.52 11.24v-11.24h1.816v14.317h-1.943l-7.52-11.25v11.25zm0-100.8v-14.316h1.943l7.52 11.24v-11.24h1.816v14.317h-1.943l-7.52-11.25v11.25zm14.778 0v-14.316h1.895v5.88h7.441v-5.88h1.895v14.317h-1.895v-6.748h-7.441v6.748zm20.65 3.734v1.267h-7.097q-.015-.477.154-.916.27-.725.868-1.428.596-.703 1.724-1.626 1.75-1.435 2.366-2.274.615-.84.615-1.586 0-.783-.56-1.322-.56-.538-1.461-.538-.952 0-1.524.571-.57.57-.578 1.582l-1.355-.14q.14-1.515 1.047-2.31.909-.795 2.44-.795 1.545 0 2.445.857.901.858.901 2.124 0 .645-.263 1.267-.264.624-.876 1.312-.611.688-2.032 1.89-1.187.995-1.523 1.35-.337.355-.557.715zm-35.35 113.645v-14.317h1.895v5.88h7.441v-5.88h1.895v14.317h-1.895v-6.748h-7.441v6.748zm56.966-23.551q0-3.565 1.914-5.581t4.94-2.017q1.984 0 3.575.948a6.2 6.2 0 012.427 2.641q.835 1.694.835 3.843 0 2.177-.879 3.897-.879 1.718-2.49 2.602a7.1 7.1 0 01-3.477.884q-2.021 0-3.613-.977a6.3 6.3 0 01-2.412-2.666 8.1 8.1 0 01-.82-3.574m1.953.03q0 2.588 1.391 4.076 1.392 1.49 3.491 1.49 2.14 0 3.52-1.504 1.383-1.504 1.383-4.268 0-1.747-.591-3.052-.59-1.303-1.729-2.021-1.138-.717-2.553-.718-2.011 0-3.462 1.382-1.45 1.382-1.45 4.614"/><path fill="none" stroke="#000" stroke-linecap="round" stroke-miterlimit="10" stroke-width="1.5" d="M1247.407 205.18v-23.1m-29.1-27l19.8 11.4m-19.2-5.7l19.2 11.1m-10.2 44.7l19.5-11.4m-58.2-33.6l29.1-16.5m-28.8 50.1l19.5 11.4m-19.5-11.4l-.3-33.6m5.1 30.3l-.3-27m24.3-19.8v-23.4m27.9 75.6l20.4 11.7m-18-15.9l18 10.5"/><path fill="#06f" fill-rule="evenodd" stroke="#100000" stroke-linecap="round" stroke-miterlimit="10" stroke-width="2.1" d="M1319.047 74.682h33.49v39.982h-33.49z"/><path d="M1340.73 96.76l6.203 1.874q-.625 2.61-1.969 4.36a8.55 8.55 0 01-3.336 2.64q-1.992.89-5.07.89-3.735 0-6.102-1.085-2.367-1.086-4.086-3.82t-1.719-7q0-5.688 3.024-8.742t8.555-3.055q4.328 0 6.804 1.75t3.68 5.375l-6.25 1.39q-.328-1.046-.688-1.53a4.1 4.1 0 00-1.453-1.25q-.859-.438-1.922-.438-2.406 0-3.687 1.937-.969 1.438-.969 4.516 0 3.812 1.156 5.226 1.157 1.414 3.25 1.414 2.032 0 3.07-1.14 1.04-1.14 1.509-3.313"/><path fill="#91ff91" d="M1150.46 418.817l27.346 19.772 26.954-20.072 31.909 7.992 22.991-24.792-9.598-31.412-33.002-8.188-22.8 24.6-32.62-.023z"/><path d="M1171.784 446.117V431.8h1.943l7.52 11.24V431.8h1.816v14.316h-1.943l-7.52-11.25v11.25zm-.167 16.8V448.6h1.895v5.878h7.441V448.6h1.895v14.316h-1.895v-6.748h-7.441v6.748zm-16.633-68.4V380.2h1.943l7.52 11.24V380.2h1.816v14.316h-1.943l-7.52-11.25v11.25zm89.1-17.1V363.1h1.943l7.52 11.24V363.1h1.816v14.316h-1.943l-7.52-11.25v11.25zm14.778 0V363.1h1.894v5.878h7.442V363.1h1.894v14.316h-1.894v-6.748h-7.442v6.748zm-27.678 56.4V419.5h1.943l7.52 11.24V419.5h1.816v14.316h-1.943l-7.52-11.25v11.25zm55.5-17.1V402.4h1.943l7.52 11.24V402.4h1.816v14.316h-1.943l-7.52-11.25v11.25zm14.778 0V402.4h1.894v5.878h7.442V402.4h1.894v14.316h-1.894v-6.748h-7.442v6.748zm20.65 3.733v1.267h-7.098q-.015-.476.154-.916.27-.725.868-1.428.597-.703 1.725-1.626 1.75-1.435 2.366-2.274.615-.839.615-1.586 0-.783-.56-1.322-.56-.538-1.462-.538-.951 0-1.523.571t-.579 1.582l-1.355-.139q.14-1.515 1.048-2.31t2.439-.795q1.545 0 2.446.857.9.856.9 2.124 0 .645-.263 1.267-.264.623-.875 1.31-.611.69-2.033 1.89-1.185.996-1.523 1.352t-.557.714zm-121.785-89.606q0-3.564 1.914-5.58t4.941-2.017q1.982 0 3.575.947a6.2 6.2 0 012.426 2.641q.835 1.695.835 3.843 0 2.177-.879 3.897-.878 1.719-2.49 2.602a7.1 7.1 0 01-3.476.884q-2.021 0-3.614-.976a6.3 6.3 0 01-2.412-2.667 8.1 8.1 0 01-.82-3.574m1.953.03q0 2.587 1.392 4.077t3.49 1.489q2.14 0 3.521-1.504 1.383-1.504 1.382-4.268 0-1.748-.59-3.051t-1.73-2.022-2.553-.718q-2.01 0-3.462 1.382-1.45 1.383-1.45 4.615"/><path fill="#00d400" fill-rule="evenodd" stroke="#100000" stroke-linecap="round" stroke-miterlimit="10" stroke-width="2.1" d="M1319.047 283.44h33.49v39.98h-33.49z"/><path d="M1336.519 306.586v-4.765h10.937v9.765q-3.14 2.141-5.554 2.914t-5.727.774q-4.078 0-6.648-1.39-2.57-1.392-3.985-4.141-1.414-2.75-1.414-6.313 0-3.75 1.547-6.523 1.547-2.774 4.531-4.211 2.327-1.11 6.266-1.11 3.796 0 5.68.688 1.882.687 3.125 2.133 1.242 1.444 1.867 3.664l-6.828 1.218q-.423-1.296-1.43-1.984-1.008-.687-2.57-.687-2.33 0-3.711 1.617-1.383 1.617-1.383 5.117 0 3.72 1.398 5.312 1.399 1.594 3.899 1.594 1.187 0 2.265-.344t2.469-1.171v-2.157z"/><path fill="#ffe991" d="M1181.503 627.286l27.346 19.772 26.954-20.072 31.909 7.993 22.991-24.793-9.598-31.411-33.002-8.189-22.8 24.6-32.619-.022z"/><path d="M1202.634 654.794v-14.316h1.944l7.52 11.24v-11.24h1.816v14.316h-1.944l-7.52-11.25v11.25zm.078 16.8v-14.316h1.895v5.878h7.441v-5.878h1.895v14.316h-1.895v-6.748h-7.441v6.748zm-16.878-68.4v-14.316h1.944l7.52 11.24v-11.24h1.816v14.316h-1.944l-7.52-11.25v11.25zm89.1-17.1v-14.316h1.944l7.52 11.24v-11.24h1.816v14.316h-1.944l-7.52-11.25v11.25zm-12.9 56.4v-14.316h1.944l7.52 11.24v-11.24h1.816v14.316h-1.944l-7.52-11.25v11.25zm-29.7-96v-14.316h1.944l7.52 11.24v-11.24h1.816v14.316h-1.944l-7.52-11.25v11.25zm-23.022 0v-14.316h1.895v5.878h7.441v-5.878h1.895v14.316h-1.895v-6.748h-7.441v6.748zm20.65 3.733v1.267h-7.097q-.015-.476.154-.916.27-.724.868-1.428.597-.703 1.725-1.626 1.75-1.435 2.365-2.274t.615-1.586q0-.783-.56-1.322-.56-.538-1.461-.538-.953 0-1.523.571-.571.572-.58 1.582l-1.354-.139q.14-1.515 1.047-2.31.909-.795 2.44-.795 1.545 0 2.445.857.901.856.901 2.124 0 .645-.263 1.267-.264.623-.875 1.31-.612.69-2.033 1.89-1.187.997-1.523 1.352-.337.356-.557.714z"/><path fill="#fc0" stroke="#100000" stroke-linecap="round" stroke-miterlimit="10" stroke-width="2.1" d="M1319.047 492.196h33.49v39.982h-33.49z"/><path d="M1339.73 519.859h-8.063l-1.11 3.78h-7.234l8.61-22.905h7.718l8.61 22.906h-7.406zm-1.485-4.954l-2.531-8.234-2.516 8.234z"/><path fill="#ff9191" d="M1217.836 797.894l29.1-16.5 29.1 16.755v33.345l-28.711 17.065-29.434-17.065z"/><path d="M1270.104 805.87v-14.317h1.944l7.52 11.24v-11.24h1.816v14.316h-1.944l-7.52-11.25v11.25zm14.779 0v-14.317h1.894v5.879h7.441v-5.88h1.895v14.317h-1.894v-6.748h-7.442v6.748zm-43.579 50.1v-14.317h1.944l7.52 11.24v-11.24h1.816v14.316h-1.944l-7.52-11.25v11.25zm.079 16.8v-14.317h1.894v5.879h7.441v-5.88h1.895v14.317h-1.894v-6.748h-7.442v6.748zm-1.235-124.273q0-3.565 1.914-5.582t4.941-2.016q1.983 0 3.574.947a6.2 6.2 0 012.427 2.642q.835 1.694.835 3.842 0 2.178-.879 3.897t-2.49 2.603a7.1 7.1 0 01-3.476.883q-2.022 0-3.614-.976a6.3 6.3 0 01-2.412-2.666 8.1 8.1 0 01-.82-3.575m1.953.029q0 2.587 1.391 4.077t3.492 1.49q2.138 0 3.52-1.505t1.382-4.267q0-1.749-.59-3.052-.591-1.304-1.73-2.022-1.137-.717-2.553-.717-2.011 0-3.462 1.382-1.45 1.38-1.45 4.614m55.947 100.472q0-3.565 1.914-5.582t4.941-2.016q1.983 0 3.574.947a6.2 6.2 0 012.427 2.642q.835 1.694.835 3.842 0 2.178-.879 3.897t-2.49 2.603a7.1 7.1 0 01-3.476.883q-2.022 0-3.614-.976a6.3 6.3 0 01-2.412-2.666 8.1 8.1 0 01-.82-3.575m1.953.029q0 2.587 1.392 4.077t3.49 1.49q2.14 0 3.521-1.505 1.382-1.504 1.382-4.267 0-1.749-.59-3.052-.591-1.304-1.73-2.022-1.137-.717-2.553-.717-2.011 0-3.462 1.382-1.45 1.38-1.45 4.614m-106.662-64.975l1.894.478q-.595 2.334-2.143 3.56t-3.784 1.225q-2.314 0-3.765-.942-1.45-.942-2.207-2.73-.757-1.787-.757-3.837 0-2.237.855-3.902t2.431-2.53q1.578-.863 3.472-.863 2.149 0 3.613 1.093 1.465 1.095 2.041 3.077l-1.865.439q-.498-1.563-1.445-2.275-.948-.714-2.383-.713-1.65 0-2.759.79a4.18 4.18 0 00-1.558 2.125 8.6 8.6 0 00-.449 2.749q0 1.826.532 3.188.533 1.362 1.656 2.036t2.431.674q1.592 0 2.696-.918 1.102-.918 1.494-2.724m-33.256 5.02v-14.317h1.894v5.879h7.441v-5.88h1.895v14.317h-1.894v-6.748h-7.442v6.748zm13.727 2.165l1.32-.176q.226 1.12.772 1.615t1.33.494a2.13 2.13 0 001.57-.644q.642-.645.641-1.597 0-.908-.593-1.498t-1.509-.59q-.373 0-.93.147l.146-1.157q.133.015.213.015.842 0 1.516-.44.675-.44.674-1.355 0-.725-.49-1.201-.492-.476-1.268-.476-.77 0-1.282.483-.512.484-.659 1.45l-1.318-.234q.24-1.326 1.098-2.054.857-.73 2.132-.73.879 0 1.618.378t1.132 1.03.392 1.383q0 .697-.374 1.267-.373.572-1.106.909.952.219 1.48.912.527.691.527 1.732 0 1.406-1.025 2.384-1.026.978-2.593.978-1.413 0-2.347-.843-.934-.842-1.066-2.182"/><path fill="none" stroke="#000" stroke-linecap="round" stroke-miterlimit="10" stroke-width="1.5" d="M1276.081 831.67v-23.1m-29.1-27.3l19.5 11.4m-9.9 50.1l19.5-11.1m-58.2-33.6l29.1-16.8m-29.1 50.4l19.8 11.4m-19.8-11.4v-33.6m4.8 30.3v-27m26.7-20.1v-23.1m-4.8 23.1v-23.1m30.3 75.6l20.1 11.7m-17.7-15.9l17.7 10.2m-77.1-41.7l-19.5-11.4"/><path fill="#d40000" stroke="#100000" stroke-linecap="round" stroke-miterlimit="10" stroke-width="2.1" d="M1319.047 700.952h33.49v39.982h-33.49z"/><path d="M1325.034 709.49h21.516v5.656h-7.219v17.25h-7.078v-17.25h-7.219z"/><path fill="#ffbd91" d="M114.51 797.81l29.1-16.5 29.1 16.755v33.345L144 848.475l-29.435-17.065z"/><path d="M166.68 805.879v-14.316h1.943l7.52 11.24v-11.24h1.816v14.316h-1.944l-7.52-11.25v11.25zm14.778 0v-14.316h1.894v5.878h7.442v-5.878h1.894v14.316h-1.894v-6.748h-7.442v6.748zm-43.878 50.1v-14.316h1.943l7.52 11.24v-11.24h1.816v14.316h-1.944l-7.52-11.25v11.25zm.078 16.8v-14.316h1.894v5.878h7.442v-5.878h1.894v14.316h-1.894v-6.748h-7.442v6.748zm-1.235-124.273q0-3.564 1.914-5.58t4.941-2.017q1.983 0 3.575.947a6.2 6.2 0 012.426 2.641q.835 1.695.835 3.843 0 2.177-.879 3.897t-2.49 2.602a7.1 7.1 0 01-3.476.884q-2.022 0-3.614-.976a6.3 6.3 0 01-2.412-2.667 8.1 8.1 0 01-.82-3.574m1.953.03q0 2.587 1.392 4.077t3.49 1.489q2.14 0 3.521-1.504 1.382-1.504 1.382-4.268 0-1.748-.59-3.051-.591-1.304-1.73-2.022-1.137-.717-2.553-.718-2.012 0-3.462 1.382-1.45 1.383-1.45 4.615m56.247 100.47q0-3.564 1.914-5.58t4.941-2.017q1.983 0 3.575.947a6.2 6.2 0 012.426 2.641q.835 1.695.835 3.843 0 2.177-.879 3.897t-2.49 2.602a7.1 7.1 0 01-3.476.884q-2.022 0-3.614-.976a6.3 6.3 0 01-2.412-2.667 8.1 8.1 0 01-.82-3.574m1.953.03q0 2.587 1.392 4.077t3.49 1.489q2.14 0 3.521-1.504 1.382-1.504 1.382-4.268 0-1.748-.59-3.051-.591-1.304-1.73-2.022-1.137-.717-2.553-.718-2.012 0-3.462 1.382-1.45 1.383-1.45 4.615"/><path fill="none" stroke="#000" stroke-linecap="round" stroke-miterlimit="10" stroke-width="1.5" d="M172.356 831.679v-23.1m-28.8-27.3l19.5 11.4m-10.2 50.4l19.5-11.4m-57.9-33.6l29.1-16.8m-29.1 50.4l19.5 11.1m-19.5-11.1v-33.6m4.8 30.3v-27m26.7-20.1v-23.1m-4.8 23.1v-23.1m30 75.6l20.4 11.7m-18-15.9l18 10.2"/><text x="15.47" y="730.79" font-family="Sans-Serif" font-size="28" font-weight="400" style="text-align:start;line-height:125%"><tspan x="15.47" y="730.79" font-family="Microsoft YaHei" style="-inkscape-font-specification:Microsoft YaHei">尿嘧啶</tspan></text><path fill="#f60" stroke="#100000" stroke-linecap="round" stroke-miterlimit="10" stroke-width="2.1" d="M244.147 700.952h33.49v39.982h-33.49z"/><path d="M264.805 709.287h7.063v13.656a11.5 11.5 0 01-.633 3.836 8.3 8.3 0 01-1.984 3.156q-1.352 1.352-2.836 1.899-2.062.765-4.953.766-1.672 0-3.649-.235-1.976-.234-3.304-.93-1.329-.695-2.43-1.976t-1.508-2.64q-.656-2.188-.656-3.876v-13.656h7.062v13.984q0 1.875 1.04 2.93 1.038 1.055 2.882 1.055 1.829 0 2.867-1.04 1.04-1.038 1.04-2.945z"/><path fill="#91bdff" d="M114.306 171.979l29.1-16.5 29.1 16.754v33.346l-28.71 17.064-29.434-17.064z"/><path d="M166.83 179.779v-14.317h1.943l7.52 11.24v-11.24h1.816v14.317h-1.944l-7.52-11.25v11.25zm-29.1 50.4v-14.317h1.943l7.52 11.24v-11.24h1.816v14.317h-1.944l-7.52-11.25v11.25zm0-100.8v-14.317h1.943l7.52 11.24v-11.24h1.816v14.317h-1.944l-7.52-11.25v11.25zm14.778 0v-14.317h1.894v5.88h7.442v-5.88h1.894v14.317h-1.894v-6.748h-7.442v6.748zm20.649 3.733v1.267h-7.097q-.014-.476.154-.916.27-.725.868-1.428.597-.703 1.725-1.626 1.75-1.435 2.365-2.274.615-.84.616-1.586 0-.783-.56-1.322-.56-.538-1.462-.538-.952 0-1.523.571t-.579 1.582l-1.355-.139q.14-1.515 1.048-2.31t2.438-.795q1.545 0 2.447.857.9.856.9 2.124 0 .645-.263 1.267-.264.623-.875 1.31-.611.69-2.033 1.89-1.186.996-1.523 1.352-.337.355-.557.714zm-35.472 112.956V231.75h1.895v5.879h7.441v-5.879h1.895v14.317h-1.895v-6.749h-7.441v6.749zm57.088-22.862q0-3.564 1.914-5.58t4.941-2.017q1.983 0 3.575.947a6.2 6.2 0 012.426 2.641q.835 1.694.835 3.843 0 2.177-.879 3.897t-2.49 2.602a7.1 7.1 0 01-3.476.884q-2.022 0-3.614-.977a6.3 6.3 0 01-2.412-2.666 8.1 8.1 0 01-.82-3.574m1.953.03q0 2.587 1.392 4.077t3.49 1.489q2.14 0 3.521-1.504 1.382-1.504 1.382-4.268 0-1.747-.59-3.051-.591-1.304-1.73-2.022-1.137-.718-2.553-.718-2.011 0-3.462 1.382-1.45 1.383-1.45 4.615"/><path fill="none" stroke="#000" stroke-linecap="round" stroke-miterlimit="10" stroke-width="1.5" d="M172.506 205.579v-23.1m-29.1-27l19.8 11.4m-19.2-5.7l19.2 11.1m-10.2 44.7l19.5-11.4m-58.2-33.6l29.1-16.5m-28.8 50.1l19.5 11.4m-19.5-11.4l-.3-33.6m5.1 30.3l-.3-27m24.3-19.8v-23.4m27.9 75.6l20.4 11.7m-18-15.9l18 10.5"/><text x="16.28" y="102.12" font-family="Sans-Serif" font-size="28" font-weight="400" style="text-align:start;line-height:125%"><tspan x="16.28" y="102.12" font-family="Microsoft YaHei" style="-inkscape-font-specification:Microsoft YaHei">胞嘧啶</tspan></text><path fill="#06f" fill-rule="evenodd" stroke="#100000" stroke-linecap="round" stroke-miterlimit="10" stroke-width="2.1" d="M243.941 74.682h33.9v40.38h-33.9z"/><path d="M265.829 96.958l6.203 1.875q-.625 2.61-1.969 4.36a8.54 8.54 0 01-3.336 2.64q-1.992.891-5.07.891-3.734 0-6.102-1.086-2.367-1.086-4.086-3.82-1.718-2.734-1.718-7 0-5.688 3.023-8.742t8.555-3.055q4.327 0 6.805 1.75 2.475 1.75 3.68 5.375l-6.25 1.39q-.33-1.046-.688-1.53a4.1 4.1 0 00-1.453-1.25q-.86-.438-1.922-.438-2.406 0-3.688 1.937-.969 1.438-.969 4.516 0 3.813 1.157 5.226 1.156 1.415 3.25 1.415 2.03 0 3.07-1.141 1.039-1.14 1.508-3.313"/><path fill="#91ff91" d="M75.56 419.906l27.345 19.771 26.955-20.071 31.908 7.992 22.991-24.792-9.598-31.412-33.002-8.188-22.8 24.6-32.619-.023z"/><path d="M96.883 447.206v-14.317h1.943l7.52 11.24v-11.24h1.816v14.317h-1.943l-7.52-11.25v11.25zm.078 16.8v-14.317h1.895v5.88h7.441v-5.88h1.895v14.317h-1.895v-6.748h-7.441v6.748zm-16.878-68.4v-14.317h1.943l7.52 11.24v-11.24h1.816v14.317H89.42l-7.52-11.25v11.25zm89.1-17.1v-14.317h1.943l7.52 11.24v-11.24h1.816v14.317h-1.943l-7.52-11.25v11.25zm14.778 0v-14.317h1.895v5.88h7.441v-5.88h1.895v14.317h-1.895v-6.748h-7.441v6.748zm-27.678 56.4v-14.317h1.943l7.52 11.24v-11.24h1.816v14.317h-1.943l-7.52-11.25v11.25zm55.5-17.1v-14.317h1.943l7.52 11.24v-11.24h1.816v14.317h-1.943l-7.52-11.25v11.25zm14.778 0v-14.317h1.895v5.88h7.441v-5.88h1.895v14.317h-1.895v-6.748h-7.441v6.748zm20.649 3.733v1.267h-7.096q-.015-.477.153-.916.271-.725.868-1.428t1.725-1.626q1.75-1.435 2.366-2.274.615-.84.615-1.586 0-.783-.56-1.322-.56-.538-1.461-.538-.953 0-1.524.571t-.578 1.582l-1.355-.139q.139-1.516 1.047-2.31.907-.795 2.439-.795 1.546 0 2.446.856.9.858.901 2.124 0 .645-.264 1.268-.263.623-.875 1.31-.612.69-2.032 1.89-1.187.996-1.524 1.352-.336.354-.556.714zm-121.784-89.606q0-3.565 1.914-5.58 1.915-2.018 4.942-2.018 1.982 0 3.574.948a6.2 6.2 0 012.427 2.641q.834 1.694.835 3.843 0 2.177-.88 3.897-.877 1.718-2.49 2.602a7.1 7.1 0 01-3.476.884q-2.022 0-3.613-.977a6.3 6.3 0 01-2.412-2.666 8.1 8.1 0 01-.82-3.574m1.953.03q0 2.588 1.392 4.077t3.491 1.489q2.14 0 3.52-1.504 1.383-1.504 1.383-4.268 0-1.748-.591-3.051-.59-1.304-1.729-2.022-1.138-.717-2.553-.718-2.013 0-3.462 1.382t-1.45 4.614"/><text x="16.18" y="313.45" font-family="Sans-Serif" font-size="28" font-weight="400" style="text-align:start;line-height:125%"><tspan x="16.18" y="313.45" font-family="Microsoft YaHei" style="-inkscape-font-specification:Microsoft YaHei">鸟嘌呤</tspan></text><path fill="#00d400" fill-rule="evenodd" stroke="#100000" stroke-linecap="round" stroke-miterlimit="10" stroke-width="2.1" d="M244.147 283.44h33.49v39.98h-33.49z"/><path d="M261.618 306.586v-4.765h10.937v9.765q-3.14 2.141-5.554 2.914t-5.727.774q-4.079 0-6.648-1.39-2.57-1.392-3.985-4.141-1.413-2.75-1.414-6.313 0-3.75 1.547-6.523 1.547-2.774 4.531-4.211 2.328-1.11 6.266-1.11 3.797 0 5.68.688t3.125 2.133 1.867 3.664l-6.828 1.218q-.422-1.296-1.43-1.984t-2.57-.687q-2.329 0-3.711 1.617-1.383 1.617-1.383 5.117 0 3.72 1.398 5.312 1.399 1.594 3.899 1.594 1.188 0 2.266-.344 1.077-.344 2.468-1.171v-2.157z"/><path fill="#ffe991" d="M106.603 627.286l27.345 19.772 26.955-20.072 31.908 7.993 22.992-24.793-9.598-31.411-33.002-8.189-22.8 24.6-32.62-.022z"/><path d="M127.734 654.794v-14.316h1.943l7.52 11.24v-11.24h1.816v14.316h-1.944l-7.519-11.25v11.25zm.078 16.8v-14.316h1.894v5.878h7.442v-5.878h1.894v14.316h-1.894v-6.748h-7.442v6.748zm-16.878-68.4v-14.316h1.943l7.52 11.24v-11.24h1.816v14.316h-1.943l-7.52-11.25v11.25zm89.1-17.1v-14.316h1.943l7.52 11.24v-11.24h1.816v14.316h-1.943l-7.52-11.25v11.25zm-12.9 56.4v-14.316h1.943l7.52 11.24v-11.24h1.816v14.316h-1.944l-7.519-11.25v11.25zm-29.7-96v-14.316h1.943l7.52 11.24v-11.24h1.816v14.316h-1.943l-7.52-11.25v11.25zm-23.022 0v-14.316h1.894v5.878h7.442v-5.878h1.894v14.316h-1.894v-6.748h-7.442v6.748zm20.649 3.733v1.267h-7.097q-.014-.476.154-.916.27-.724.868-1.428.597-.703 1.725-1.626 1.75-1.435 2.366-2.274.615-.839.615-1.586 0-.783-.56-1.322-.56-.538-1.462-.538-.951 0-1.523.571-.572.572-.579 1.582l-1.355-.139q.14-1.515 1.048-2.31t2.439-.795q1.545 0 2.446.857.9.856.9 2.124 0 .645-.263 1.267-.263.623-.875 1.31-.611.69-2.033 1.89-1.185.997-1.523 1.352t-.557.714z"/><text x="17.71" y="522.04" font-family="Sans-Serif" font-size="28" font-weight="400" style="text-align:start;line-height:125%"><tspan x="17.71" y="522.04" font-family="Microsoft YaHei" style="-inkscape-font-specification:Microsoft YaHei">腺嘌呤</tspan></text><path fill="#fc0" stroke="#100000" stroke-linecap="round" stroke-miterlimit="10" stroke-width="2.1" d="M244.147 492.196h33.49v39.982h-33.49z"/><path d="M264.829 519.859h-8.063l-1.109 3.78h-7.234l8.609-22.905h7.719l8.61 22.906h-7.407zm-1.485-4.954l-2.53-8.234-2.516 8.234z"/><text x="624.47" y="845.1" font-family="Sans-Serif" font-size="28" font-weight="400" text-anchor="middle" style="text-align:center;line-height:125%"><tspan x="624.47" y="845.1" font-family="Microsoft YaHei" font-size="36" style="-inkscape-font-specification:Microsoft YaHei">糖-磷酸螺旋</tspan></text><text x="161.35" y="950.11" font-family="Sans-Serif" font-size="28" font-weight="400" text-anchor="middle" style="text-align:center;line-height:125%"><tspan x="161.35" y="950.11" font-family="Microsoft YaHei" style="-inkscape-font-specification:Microsoft YaHei">RNA的碱基</tspan></text><text x="1231.39" y="961.05" font-family="Sans-Serif" font-size="28" font-weight="400" text-anchor="middle" style="text-align:center;line-height:125%"><tspan x="1231.39" y="961.05" font-family="Microsoft YaHei" style="-inkscape-font-specification:Microsoft YaHei">DNA的碱基</tspan></text><text x="1107.35" y="730.32" font-family="Sans-Serif" font-size="28" font-weight="400" style="text-align:start;line-height:125%"><tspan x="1107.35" y="730.32" font-family="Microsoft YaHei" style="-inkscape-font-specification:Microsoft YaHei">胸腺嘧啶</tspan></text><text x="1102.8" y="515.13" font-family="Sans-Serif" font-size="28" font-weight="400" style="text-align:start;line-height:125%"><tspan x="1102.8" y="515.13" font-family="Microsoft YaHei" style="-inkscape-font-specification:Microsoft YaHei">腺嘌呤</tspan></text><text x="1091.84" y="106.82" font-family="Sans-Serif" font-size="28" font-weight="400" style="text-align:start;line-height:125%"><tspan x="1091.84" y="106.82" font-family="Microsoft YaHei" style="-inkscape-font-specification:Microsoft YaHei">胞嘧啶</tspan></text><text x="1086.09" y="313.24" font-family="Sans-Serif" font-size="28" font-weight="400" style="text-align:start;line-height:125%"><tspan x="1086.09" y="313.24" font-family="Microsoft YaHei" style="-inkscape-font-specification:Microsoft YaHei">鸟嘌呤</tspan></text><text style="line-height:125%" x="394.96" y="1073.36" font-family="Sans" font-size="40" font-weight="400" letter-spacing="0" word-spacing="0"><tspan x="394.96" y="1073.36" font-family="Microsoft YaHei" style="-inkscape-font-specification:Microsoft YaHei">核糖核酸</tspan></text><text style="line-height:125%" x="759.02" y="1076.42" font-family="Sans" font-size="40" font-weight="400" letter-spacing="0" word-spacing="0"><tspan x="759.02" y="1076.42" font-family="Microsoft YaHei" style="-inkscape-font-specification:Microsoft YaHei">脱氧核糖核酸</tspan></text><text x="574.51" y="140.41" font-family="Sans-Serif" font-size="28" font-weight="400" text-anchor="middle" style="text-align:center;line-height:125%"><tspan x="574.51" y="140.41" font-family="Microsoft YaHei" font-size="36" style="-inkscape-font-specification:Microsoft YaHei">碱基</tspan></text></svg>