<svg viewBox="0 0 1371.3 1096.7"><defs><marker id="a" orient="auto" refX="0" refY="0" style="overflow:visible"><path d="m8.7 4-11-4 11-4a7 7 0 0 0 0 8" style="font-size:12px;fill-rule:evenodd;stroke-width:.625;stroke-linejoin:round" transform="scale(-.6)"/></marker></defs><path d="M879.2 473.4h0l11-9.3-11.2-9.8-57.7-3.3c-6.8.3-27.3 17.9-27.3 17.9z" style="color:#000;fill:#fc0;fill-opacity:1;fill-rule:nonzero;stroke:#000;stroke-width:2;stroke-linecap:round;stroke-linejoin:miter;stroke-miterlimit:4;stroke-opacity:1;stroke-dasharray:none;stroke-dashoffset:0;marker:none;visibility:visible;display:inline;overflow:visible"/><path d="M878.8 849q-1.5-1-2.4-2a10 10 0 0 1-2.3-5 10 10 0 0 1 .5-5 14 14 0 0 1 4.1-6.2l-61-3.8-23.2 17.3z" style="color:#000;fill:#06f;fill-opacity:1;fill-rule:nonzero;stroke:#000;stroke-width:2;stroke-linecap:round;stroke-linejoin:miter;stroke-miterlimit:4;stroke-opacity:1;stroke-dasharray:none;stroke-dashoffset:0;marker:none;visibility:visible;display:inline;overflow:visible"/><path d="m878.8 937.9 36.7.8 16.8-17.6-53.6-.4a12 12 0 0 0-4 4.1 10 10 0 0 0-1.4 5 9 9 0 0 0 1.3 4.7q.7 1 1.8 1.8 1 .8 2.4 1.3zm0-188 17 .2 22.1-15.7-39-.7-1.4 1.5q-.7.9-1.1 1.9a12 12 0 0 0-.4 9l1.1 2q.7 1 1.7 1.8z" style="color:#000;fill:#0a0;fill-opacity:1;fill-rule:nonzero;stroke:#000;stroke-width:2;stroke-linecap:round;stroke-linejoin:miter;stroke-miterlimit:4;stroke-opacity:1;stroke-dasharray:none;stroke-dashoffset:0;marker:none;visibility:visible;display:inline;overflow:visible"/><path d="m878.7 560.8 19.7-.2L915 546l-36.2-.4a11 11 0 0 0-4.2 6.9v2.1a8 8 0 0 0 2 4.2q.8 1 2.1 2z" style="color:#000;fill:#0055d4;fill-opacity:1;fill-rule:nonzero;stroke:#000;stroke-width:2;stroke-linecap:round;stroke-linejoin:miter;stroke-miterlimit:4;stroke-opacity:1;stroke-dasharray:none;stroke-dashoffset:0;marker:none;visibility:visible;display:inline;overflow:visible"/><path d="m878.8 339.4 40.9-.7 45.6-.9 23.5-18.4-110.1 3.4a16 16 0 0 1 3.8 4l1 2a8 8 0 0 1-.8 6.6q-.6 1-1.6 2-1 1.1-2.3 2z" style="color:#000;fill:#06f;fill-opacity:1;fill-rule:nonzero;stroke:#000;stroke-width:2;stroke-linecap:round;stroke-linejoin:miter;stroke-miterlimit:4;stroke-opacity:1;stroke-dasharray:none;stroke-dashoffset:0;marker:none;visibility:visible;display:inline;overflow:visible"/><path d="m878.1 430.7 27.1 4.6s6.2-4.9 6.2-9.5-3.8-7.8-3.8-7.8l-19.7-.6-6.7 3.2q.3 0 .5 1.2t0 3a10 10 0 0 1-1 3.4q-.4.8-1 1.5t-1.6 1z" style="color:#000;fill:#3771c8;fill-opacity:1;fill-rule:nonzero;stroke:#000;stroke-width:2;stroke-linecap:round;stroke-linejoin:miter;stroke-miterlimit:4;stroke-opacity:1;stroke-dasharray:none;stroke-dashoffset:0;marker:none;visibility:visible;display:inline;overflow:visible"/><path d="M878.1 430.7a5 5 0 0 0 2.7-2.5q.7-1.6 1-3.4l-.1-3q-.2-1.3-.5-1.2l-16.3 8z" style="color:#000;fill:green;fill-opacity:1;fill-rule:nonzero;stroke:#000;stroke-width:2;stroke-linecap:round;stroke-linejoin:miter;stroke-miterlimit:4;stroke-opacity:1;stroke-dasharray:none;stroke-dashoffset:0;marker:none;visibility:visible;display:inline;overflow:visible"/><path d="m878.9 158.8 14.4-2.8 38.2-22.5-52.6 9.9c-1 1-2 2-2.8 3.1a9 9 0 0 0-1.5 3.6 7 7 0 0 0 .7 4q.5 1.2 1.4 2.3.9 1.2 2.2 2.4z" style="color:#000;fill:#0a0;fill-opacity:1;fill-rule:nonzero;stroke:#000;stroke-width:2;stroke-linecap:round;stroke-linejoin:miter;stroke-miterlimit:4;stroke-opacity:1;stroke-dasharray:none;stroke-dashoffset:0;marker:none;visibility:visible;display:inline;overflow:visible"/><path d="m878.4 705.6 90.4 2.5c6 0 26.8-17.8 26.8-17.8l-116.9-1-9.1 8.5z" style="color:#000;fill:#fc0;fill-opacity:1;fill-rule:nonzero;stroke:#000;stroke-width:2;stroke-linecap:round;stroke-linejoin:miter;stroke-miterlimit:4;stroke-opacity:1;stroke-dasharray:none;stroke-dashoffset:0;marker:none;visibility:visible;display:inline;overflow:visible"/><path d="M801.5 42s-48.2 36.8-24.9 73c23.3 36.4 37.4 56.4 127.8 104.6l90.4 48.1s21 7.6 21.6 26-1 24.4 0 33c1.1 8.7-1.6 20-15.7 32.5s-104.4 56.9-104.4 56.9-108.8 43.3-126.2 79c0 0-1.5 2.4-1.5 6.1 0 4.1 1.8 9.9 9.1 16.1 14 12 146.2 89.9 146.2 89.9l63.8 36.2s28.2 10.9 29.3 32c0 0-.2 3.4-1.3 7.2a65 65 0 0 0 0 21.1c1.1 3.8 2.7 13.8-3 20a175 175 0 0 1-41.8 32c-17.2 8.5-154.2 73.8-154.2 73.8S775 862.8 770 872.8c0 0 4.9 17.3 16.4 26.1s67.7 36 67.7 36 8.5 4.2 3.5 8.8l-29.9 20.7s-5.7 5.3-14.9.4c-9.2-5-63.5-41.7-63.5-67 0-16.3 3.7-20.8 3.7-20.8s-4.1-14.4-4.1-24.4 11-28.7 22.2-38.7c6-5.3 23.7-17.1 42.7-28.5a460 460 0 0 1 44.5-24.3c24.5-10.8 113.4-57 129.5-64.7 0 0-10.4-18-51-38.6a1995 1995 0 0 1-71.6-38.3S750.4 565 750 533c-.4-29.4.8-31 .8-31s-2.7-19.2-2.7-24.5 8.4-30.3 39-53.2 128.3-66.6 128.3-66.6 68.5-34.5 77.7-43.7c0 0-8.4-16.4-101.8-60-93.4-43.7-122.1-85.8-129.4-107.6-7.3-21.9-6.5-46.7-6.5-46.7s-2.7-54.4 14.5-77.4c0 0 5.7-7.2 10.7-1.1 3.3 4 14.2 20.7 21 20.8" style="color:#000;fill:#374845;fill-opacity:1;fill-rule:nonzero;stroke:#000;stroke-width:2;stroke-linecap:round;stroke-linejoin:round;stroke-miterlimit:4;stroke-opacity:1;stroke-dasharray:none;stroke-dashoffset:0;marker:none;visibility:visible;display:inline;overflow:visible"/><path d="m878.7 618.7 2.3-1.5q1-.7 1.6-1.5 1.2-1.6 1.4-3.3.3-1.7 0-3.3l-.5-3.2-20.3 10zm-.6-240.6 28-14.5-27.1 4c-.5 1-1.5 2-2 3.4q-.3 1.2-.2 2.8.1 1.8 1.3 4.3z" style="color:#000;fill:#0a0;fill-opacity:1;fill-rule:nonzero;stroke:#000;stroke-width:2;stroke-linecap:round;stroke-linejoin:miter;stroke-miterlimit:4;stroke-opacity:1;stroke-dasharray:none;stroke-dashoffset:0;marker:none;visibility:visible;display:inline;overflow:visible"/><path d="m878 219.7-1.4-1.4q-.9-1.2-1.2-2.9-.4-1.5-.4-3.5l.3-3.9.6-3-17.3 10-5.4 8.6 17 6.3z" style="color:#000;fill:#06f;fill-opacity:1;fill-rule:nonzero;stroke:#000;stroke-width:2;stroke-linecap:round;stroke-linejoin:miter;stroke-miterlimit:4;stroke-opacity:1;stroke-dasharray:none;stroke-dashoffset:0;marker:none;visibility:visible;display:inline;overflow:visible"/><path d="m878 219.7 21.8-28.6-24 13.9-.5 3a30 30 0 0 0 0 7.4q.4 1.6 1.3 3z" style="color:#000;fill:#0a0;fill-opacity:1;fill-rule:nonzero;stroke:#000;stroke-width:2;stroke-linecap:round;stroke-linejoin:miter;stroke-miterlimit:4;stroke-opacity:1;stroke-dasharray:none;stroke-dashoffset:0;marker:none;visibility:visible;display:inline;overflow:visible"/><path d="M878.9 158.8q-1.3-1.2-2.2-2.4t-1.4-2.2-.7-2.1v-2q.4-2 1.5-3.6l2.8-3.1-80 15s-7 3.7-4.7 8.4c2.5 4.8 7.3 6.8 9.2 6.8 1.6 0 55.4-10.7 75.5-14.8zm-.2 459.9 25.1 4.7s6.3-1.9 7.9-7c1.6-5.2-2.7-9.2-2.7-9.2l-20.3-3.8-5.2 2.5h0l.5 3.2q.3 1.6 0 3.3a7 7 0 0 1-1.4 3.3l-1.6 1.5z" style="color:#000;fill:#06f;fill-opacity:1;fill-rule:nonzero;stroke:#000;stroke-width:2;stroke-linecap:round;stroke-linejoin:miter;stroke-miterlimit:4;stroke-opacity:1;stroke-dasharray:none;stroke-dashoffset:0;marker:none;visibility:visible;display:inline;overflow:visible"/><path d="M975.5 81s4.2-16.5 19.5-11.6 26 16.1 26 21c0 5-4.6 10.8-4.2 19.2s4.6 14.2 4.6 18.8-2.7 11.5-13.4 17.2-130.1 54.7-179.1 90-60.7 63-60.7 63 12.8 39.5 73.7 73.2 131.7 74.3 137 78.9 36.4 20.3 36 34.4c-.4 14.2-2.3 18.4 0 26.4s2.3 18-10 31.4c-12.2 13.4-38.6 30.7-114.8 62.8-76.2 32.2-111.4 60.5-121.3 80.8 0 0 1.1 16.8 27.2 31.4s142.4 83.4 142.4 83.4l47.8 29.9s31.8 10.7 32.2 29.4c.3 18.8-3.9 16.1-2.7 24.5 1.1 8.5 2.3 25.7-5 34.5s-31 30.2-73.5 46c0 0-8 4.1-11.9-.5a172 172 0 0 1-13.7-25.6s-2.7-8.4 5.7-12.3c8.4-3.8 68.9-34.8 74.6-40.5 0 0-32.1-32.2-63.1-47.1-31-15-111-61.8-111-61.8s-82-29.7-66.6-85.6c0 0-3-18.7-2.7-30.2.4-11.5 19.5-36.8 48.2-56.3s90.7-48.2 90.7-48.2 95-45.2 97.3-47.9c0 0-6.2-21.4-68.2-51.3s-122-63.9-140.8-85.7-28-34-22.2-65.5c0 0 .3-17.6-.4-28a72 72 0 0 1 16.4-47.4c13-13.8 49.8-43.6 67-53.2 17.3-9.5 111.8-54.3 111.8-54.3l22.5-7.4z" style="color:#000;fill:#374845;fill-opacity:1;fill-rule:nonzero;stroke:#000;stroke-width:2;stroke-linecap:round;stroke-linejoin:miter;stroke-miterlimit:4;stroke-opacity:1;stroke-dasharray:none;stroke-dashoffset:0;marker:none;visibility:visible;display:inline;overflow:visible"/><path d="M878.1 378.1q-1.2-2.5-1.3-4.3-.1-1.6.2-2.8c.5-1.5 1.5-2.3 2-3.4l-54.2 8.1s-6.8 2.8-6.2 8.4 6 9.2 6 9.2l32.1-4z" style="color:#000;fill:#06f;fill-opacity:1;fill-rule:nonzero;stroke:#000;stroke-width:2;stroke-linecap:round;stroke-linejoin:miter;stroke-miterlimit:4;stroke-opacity:1;stroke-dasharray:none;stroke-dashoffset:0;marker:none;visibility:visible;display:inline;overflow:visible"/><path d="M787.2 424.3c30.6-23 128.2-66.6 128.2-66.6l15.3 41.7m.7-1c-19.4 10-35.1 17.7-35.1 17.7s-23 9-49.4 22.4L788 424.6m60 390 70.2-33.5m-70.4 33.7-34-29.4a460 460 0 0 1 44.5-24.3l15-6.7 45.3 27.4" style="color:#000;fill:#374845;fill-opacity:1;fill-rule:nonzero;stroke:none;stroke-width:2;marker:none;visibility:visible;display:inline;overflow:visible"/><path d="M751.2 692.2s5.3-18 29-37.5M769 686s-34 34.5 26.2 76.3M991.6 887s27.3-29.4-5.2-55.8M753 877s10.4-21 29.6-35.1M770 872.7s-32.9 36.6 25.6 76M786 463s-32.9 26.8-35.2 39m18.4-4.2s-34.5 39.4 26.4 76.1m-42.1-266.4s7.6-36.3 66.2-72m-51.3 62.8s-29.1 56.7 49 100.3m171.9-72.7s28.8-11.1 26.8-35.2m-23.4 23.7s24.2-33.9-3.3-49.5M755.6 109.4s1-39.6 30.8-64.5m184.1 72s39-18 39.4-26.8c.4-8-1.5-8.8-1.5-8.8" style="color:#000;fill:none;stroke:#000;stroke-width:2;stroke-linecap:round;stroke-linejoin:miter;stroke-miterlimit:4;stroke-opacity:1;stroke-dasharray:none;stroke-dashoffset:0;marker:none;visibility:visible;display:inline;overflow:visible"/><path d="m878.8 849 95.4 5.6s4.3-4.4 4.3-8.7-6.5-9.2-6.5-9.2l-93.3-5.9a14 14 0 0 0-4.6 8.7 10 10 0 0 0 .8 5q.5 1.4 1.5 2.4 1 1.2 2.4 2.2zm0-509.6a15 15 0 0 0 3.9-4 9 9 0 0 0 1.2-4.3 8 8 0 0 0-1.4-4.4l-1.6-2-2.2-1.9-108.8 3.4s-3.3 4-2.8 7.6c.3 1.8 1.5 3.6 2.5 5.1 1.1 1.5 2.2 2.5 2.2 2.5z" style="color:#000;fill:#0a0;fill-opacity:1;fill-rule:nonzero;stroke:#000;stroke-width:2;stroke-linecap:round;stroke-linejoin:miter;stroke-miterlimit:4;stroke-opacity:1;stroke-dasharray:none;stroke-dashoffset:0;marker:none;visibility:visible;display:inline;overflow:visible"/><path d="M984.4 510s38.1-25.5-1.3-56.4" style="color:#000;fill:none;stroke:#000;stroke-width:2;stroke-linecap:round;stroke-linejoin:miter;stroke-miterlimit:4;stroke-opacity:1;stroke-dasharray:none;stroke-dashoffset:0;marker:none;visibility:visible;display:inline;overflow:visible"/><path d="M787.2 424.3c30.6-23 128.2-66.6 128.2-66.6m16 40.7c-19.4 10-35.1 17.7-35.1 17.7s-23 9-49.4 22.4" style="color:#000;fill:#374845;fill-opacity:1;fill-rule:nonzero;stroke:#000;stroke-width:2;stroke-linecap:round;stroke-linejoin:miter;stroke-miterlimit:4;stroke-opacity:1;stroke-dasharray:none;stroke-dashoffset:0;marker:none;visibility:visible;display:inline;overflow:visible"/><path d="M878.8 749.9a9 9 0 0 1-2.8-3.8 11 11 0 0 1-.7-4.5 12 12 0 0 1 2.2-6.4l1.5-1.5-88.3-1.5s-4.9 3.3-4.9 7 3.3 9.8 3.3 9.8zm0 188v-.3a9 9 0 0 1-4.2-3.1 8 8 0 0 1-1.3-4.7 10 10 0 0 1 1.3-5 11 11 0 0 1 4.1-4l-87.5-.7s-4.6 2.4-4.6 7a16 16 0 0 0 3.3 8.7z" style="color:#000;fill:#06f;fill-opacity:1;fill-rule:nonzero;stroke:#000;stroke-width:2;stroke-linecap:round;stroke-linejoin:miter;stroke-miterlimit:4;stroke-opacity:1;stroke-dasharray:none;stroke-dashoffset:0;marker:none;visibility:visible;display:inline;overflow:visible"/><path d="M878.7 560.8c1.8-2.3 9.6-7.6.1-15.2l-88.6-1s-4.7 4.6-4.7 8.4 4.4 8.4 4.4 8.4z" style="color:#000;fill:#0a0;fill-opacity:1;fill-rule:nonzero;stroke:#000;stroke-width:2;stroke-linecap:round;stroke-linejoin:miter;stroke-miterlimit:4;stroke-opacity:1;stroke-dasharray:none;stroke-dashoffset:0;marker:none;visibility:visible;display:inline;overflow:visible"/><path d="M987.6 696.2s38.4-30-11.8-59.5" style="color:#000;fill:none;stroke:#000;stroke-width:2;stroke-linecap:round;stroke-linejoin:miter;stroke-miterlimit:4;stroke-opacity:1;stroke-dasharray:none;stroke-dashoffset:0;marker:none;visibility:visible;display:inline;overflow:visible"/><path d="M987 696.8s3.5-2.4 7-7.2h0l-14.3.5" style="color:#000;fill:#fc0;fill-opacity:1;fill-rule:nonzero;stroke:#000;stroke-width:2;stroke-linecap:round;stroke-linejoin:miter;stroke-miterlimit:4;stroke-opacity:1;stroke-dasharray:none;stroke-dashoffset:0;marker:none;visibility:visible;display:inline;overflow:visible"/><path d="m883.1 114.6-10.4-8.8 10.4-9.6L770 94.4s-4.2 7.3-1.4 17.3zm-4.2 179.8-11-8.5 12.2-8.4-93-7c-5.3 2.4-14 16.2-14 16.2zm-.5 411.2-8.8-7.8 9.1-8.5-111.7-1c-2 2.7-4.9 7.5-6.5 14z" style="color:#000;fill:#d40000;fill-opacity:1;fill-rule:nonzero;stroke:#000;stroke-width:2;stroke-linecap:round;stroke-linejoin:miter;stroke-miterlimit:4;stroke-opacity:1;stroke-dasharray:none;stroke-dashoffset:0;marker:none;visibility:visible;display:inline;overflow:visible"/><path d="M767 688.5a39 39 0 0 0-6.6 14.4" style="color:#000;fill:#d40000;stroke:#000;stroke-width:2;stroke-linecap:round;stroke-linejoin:miter;stroke-miterlimit:4;stroke-opacity:1;stroke-dasharray:none;stroke-dashoffset:0;marker:none;visibility:visible;display:inline;overflow:visible"/><path d="m791.4 688.6-24.4-.2c-2 2.6-4.9 7.4-6.5 13.8l29 1" style="color:#000;fill:#d40000;fill-opacity:1;fill-rule:nonzero;stroke:#000;stroke-width:2;stroke-linecap:butt;stroke-linejoin:miter;stroke-miterlimit:4;stroke-opacity:1;stroke-dasharray:none;stroke-dashoffset:0;marker:none;visibility:visible;display:inline;overflow:visible"/><path d="m878.9 806.3 26.6 3.9s7.5-1.7 7.5-6-4.3-9.2-4.3-9.2l-14.8-2.3-8.1 3.9zm-.1 86.6 99.4 2.5c7-4 12.3-7.2 13.8-8.7 0 0 2.8-2.7 5-7.5L878.8 876l8.3 8.7zM768 499c-5.4 7.7-7 15.1-7 15.1l47.7 1.4 30.2.8h0l39.8 1.2h0L868 509l11.2-7.6-7.5-.2-32.8-.7-19-.4zm111.2-268.5 11.3 12.5-10.7 6.3L938 269s9.4.3 11.3-4.6-3.8-10-3.8-10zm0 242.9 93.1 5s3.8-4.1 3.8-9.3c0-5.1-7.3-9.7-7.3-9.7l-89.8-5.1 11.2 9.8zm-.6 187.9 94 5.1s4.3-3.5 4.3-7.8-5.7-8.7-5.7-8.7l-92.3-5.7 8.4 8.9z" style="color:#000;fill:#d40000;fill-opacity:1;fill-rule:nonzero;stroke:#000;stroke-width:2;stroke-linecap:round;stroke-linejoin:miter;stroke-miterlimit:4;stroke-opacity:1;stroke-dasharray:none;stroke-dashoffset:0;marker:none;visibility:visible;display:inline;overflow:visible"/><path d="M873.4 754.1c-6.5 2.8-11.5 5.4-15 7-11.3 5-28.4 14.5-44.6 24.3m34.2 29.2 70.2-33.5" style="color:#000;fill:none;stroke:#000;stroke-width:2;stroke-linecap:round;stroke-linejoin:round;stroke-miterlimit:4;stroke-opacity:1;stroke-dasharray:none;stroke-dashoffset:0;marker:none;visibility:visible;display:inline;overflow:visible"/><path d="m878.9 294.4 110.7 8s3.6-4 3.6-8.7-3-7.8-3-7.8L880 277.5l-12 8.5zm-.3 366.9 8.7-8.2-8.4-8.9-61.7-3.7c-3 .2-23.5 16.2-23.5 16.2zm.3 145 6.9-9.7-17.3 8.2zm.9-557h0l10.7-6.3-11.3-12.5-28.7-10.4-19 12.7zm-.6 252.2L868 509l10.7 8.4h0l23.2.7 31.5.9 31.5.9c7-3.1 11.5-5.3 14.8-7.2l1.6-.8a38 38 0 0 0 7.9-6l2.1-2.2-38-.8-38.2-.8h0zm-.4 391.4h0l8.3-8.3-8.3-8.7-108.8-3.2s-6 6.6-8.3 17.2zm4.3-778.3 87.4 2.3s21.8-10 33-18.8L883 96.2l-10.4 9.6zM479.2 473.4h0l11-9.3-11.2-9.8-57.7-3.3c-6.8.3-27.3 17.9-27.3 17.9z" style="color:#000;fill:#fc0;fill-opacity:1;fill-rule:nonzero;stroke:#000;stroke-width:2;stroke-linecap:round;stroke-linejoin:miter;stroke-miterlimit:4;stroke-opacity:1;stroke-dasharray:none;stroke-dashoffset:0;marker:none;visibility:visible;display:inline;overflow:visible"/><path d="m478.8 339.4 40.9-.7 45.6-.9 23.5-18.4-110.1 3.4zm-.1 491.3-61-3.7-23.2 17.3 82.4 4.7z" style="color:#000;fill:#06f;fill-opacity:1;fill-rule:nonzero;stroke:#000;stroke-width:2;stroke-linecap:round;stroke-linejoin:miter;stroke-miterlimit:4;stroke-opacity:1;stroke-dasharray:none;stroke-dashoffset:0;marker:none;visibility:visible;display:inline;overflow:visible"/><path d="m478.8 749.9 17 .2 22.1-15.7-39-.7-1.4 1.5q-.7.9-1.1 1.9a12 12 0 0 0-.4 9l1.1 2q.7 1 1.7 1.8z" style="color:#000;fill:#0a0;fill-opacity:1;fill-rule:nonzero;stroke:#000;stroke-width:2;stroke-linecap:round;stroke-linejoin:miter;stroke-miterlimit:4;stroke-opacity:1;stroke-dasharray:none;stroke-dashoffset:0;marker:none;visibility:visible;display:inline;overflow:visible"/><path d="M478.1 430.7a5 5 0 0 0 2.7-2.5q.7-1.6 1-3.4l-.1-3q-.2-1.3-.5-1.2l-16.3 8z" style="color:#000;fill:green;fill-opacity:1;fill-rule:nonzero;stroke:#000;stroke-width:2;stroke-linecap:round;stroke-linejoin:miter;stroke-miterlimit:4;stroke-opacity:1;stroke-dasharray:none;stroke-dashoffset:0;marker:none;visibility:visible;display:inline;overflow:visible"/><path d="m478.4 705.6 90.4 2.5c6 0 26.8-17.8 26.8-17.8l-116.9-1-9.1 8.5z" style="color:#000;fill:#fc0;fill-opacity:1;fill-rule:nonzero;stroke:#000;stroke-width:2;stroke-linecap:round;stroke-linejoin:miter;stroke-miterlimit:4;stroke-opacity:1;stroke-dasharray:none;stroke-dashoffset:0;marker:none;visibility:visible;display:inline;overflow:visible"/><path d="M401.5 42s-48.2 36.8-24.9 73c23.3 36.4 37.4 56.4 127.8 104.6l90.4 48.1s21 7.6 21.6 26-1 24.4 0 33c1.1 8.7-1.6 20-15.7 32.5s-104.4 56.9-104.4 56.9-108.8 43.3-126.2 79c0 0-1.5 2.4-1.5 6.1 0 4.1 1.8 9.9 9.1 16.1 14 12 146.2 89.9 146.2 89.9l63.8 36.2s28.2 10.9 29.3 32c0 0-.2 3.4-1.3 7.2a65 65 0 0 0 0 21.1c1.1 3.8 2.7 13.8-3 20a175 175 0 0 1-41.8 32c-17.2 8.5-154.2 73.8-154.2 73.8S375 862.8 370 872.8c0 0 4.9 17.3 16.4 26.1s67.7 36 67.7 36 8.5 4.2 3.5 8.8l-29.9 20.7s-5.7 5.3-14.9.4c-9.2-5-63.5-41.7-63.5-67 0-16.3 3.7-20.8 3.7-20.8s-4.1-14.4-4.1-24.4 11-28.7 22.2-38.7c6-5.3 23.7-17.1 42.7-28.5a460 460 0 0 1 44.5-24.3c24.5-10.8 113.4-57 129.5-64.7 0 0-10.4-18-51-38.6a1995 1995 0 0 1-71.6-38.3S350.4 565 350 533c-.4-29.4.8-31 .8-31s-2.7-19.2-2.7-24.5 8.4-30.3 39-53.2 128.3-66.6 128.3-66.6 68.5-34.5 77.7-43.7c0 0-8.4-16.4-101.8-60-93.4-43.7-122.1-85.8-129.4-107.6-7.3-21.9-6.5-46.7-6.5-46.7s-2.7-54.4 14.5-77.4c0 0 5.7-7.2 10.7-1.1 3.3 4 14.2 20.7 21 20.8" style="color:#000;fill:#6f918a;fill-opacity:1;fill-rule:nonzero;stroke:#000;stroke-width:2;stroke-linecap:round;stroke-linejoin:round;stroke-miterlimit:4;stroke-opacity:1;stroke-dasharray:none;stroke-dashoffset:0;marker:none;visibility:visible;display:inline;overflow:visible"/><path d="m478.1 378.1 28-14.5-27.1 4c-.5 1-1.5 2-2 3.4q-.3 1.2-.2 2.8.1 1.8 1.3 4.3z" style="color:#000;fill:#0a0;fill-opacity:1;fill-rule:nonzero;stroke:#000;stroke-width:2;stroke-linecap:round;stroke-linejoin:miter;stroke-miterlimit:4;stroke-opacity:1;stroke-dasharray:none;stroke-dashoffset:0;marker:none;visibility:visible;display:inline;overflow:visible"/><path d="m480.8 158.5-3.3-15.5-78.7 15.4s-6.9 3.7-4.6 8.4c2.5 4.8 7.3 6.8 9.2 6.8 1.6 0 57.3-11.1 77.4-15.1z" style="color:#000;fill:#06f;fill-opacity:1;fill-rule:nonzero;stroke:#000;stroke-width:2;stroke-linecap:round;stroke-linejoin:miter;stroke-miterlimit:4;stroke-opacity:1;stroke-dasharray:none;stroke-dashoffset:0;marker:none;visibility:visible;display:inline;overflow:visible"/><path d="M387.2 424.3c30.6-23 128.2-66.6 128.2-66.6l15.3 41.7m.7-1c-19.4 10-35.1 17.7-35.1 17.7s-23 9-49.4 22.4L388 424.6m60 390 70.2-33.5m-70.4 33.7-34-29.4a460 460 0 0 1 44.5-24.3l15-6.7 45.3 27.4" style="color:#000;fill:#6f918a;fill-opacity:1;fill-rule:nonzero;stroke:none;stroke-width:2;marker:none;visibility:visible;display:inline;overflow:visible"/><path d="M353 877s10.4-21 29.6-35.1M370 872.7s-32.9 36.6 25.6 76M386 463s-32.9 26.8-35.2 39m18.4-4.2s-34.5 39.4 26.4 76.1m193.7-248s28.8-11.1 26.8-35.2m-23.4 23.7s24.2-33.9-3.3-49.5M355.6 109.4s1-39.6 30.8-64.5" style="color:#000;fill:none;stroke:#000;stroke-width:2;stroke-linecap:round;stroke-linejoin:miter;stroke-miterlimit:4;stroke-opacity:1;stroke-dasharray:none;stroke-dashoffset:0;marker:none;visibility:visible;display:inline;overflow:visible"/><path d="M387.2 424.3c30.6-23 128.2-66.6 128.2-66.6m16 40.7c-19.4 10-35.1 17.7-35.1 17.7s-23 9-49.4 22.4" style="color:#000;fill:#6f918a;fill-opacity:1;fill-rule:nonzero;stroke:#000;stroke-width:2;stroke-linecap:round;stroke-linejoin:miter;stroke-miterlimit:4;stroke-opacity:1;stroke-dasharray:none;stroke-dashoffset:0;marker:none;visibility:visible;display:inline;overflow:visible"/><path d="M478.8 937.9v-17.2l-87.6-.6s-4.6 2.4-4.6 7a16 16 0 0 0 3.3 8.7z" style="color:#000;fill:#06f;fill-opacity:1;fill-rule:nonzero;stroke:#000;stroke-width:2;stroke-linecap:round;stroke-linejoin:miter;stroke-miterlimit:4;stroke-opacity:1;stroke-dasharray:none;stroke-dashoffset:0;marker:none;visibility:visible;display:inline;overflow:visible"/><path d="m478.7 560.8.1-15.2-88.6-1s-4.7 4.6-4.7 8.4 4.4 8.4 4.4 8.4z" style="color:#000;fill:#0a0;fill-opacity:1;fill-rule:nonzero;stroke:#000;stroke-width:2;stroke-linecap:round;stroke-linejoin:miter;stroke-miterlimit:4;stroke-opacity:1;stroke-dasharray:none;stroke-dashoffset:0;marker:none;visibility:visible;display:inline;overflow:visible"/><path d="M587.6 696.2s38.4-30-11.8-59.5" style="color:#000;fill:none;stroke:#000;stroke-width:2;stroke-linecap:round;stroke-linejoin:miter;stroke-miterlimit:4;stroke-opacity:1;stroke-dasharray:none;stroke-dashoffset:0;marker:none;visibility:visible;display:inline;overflow:visible"/><path d="M587 696.8s3.5-2.4 7-7.2h0l-14.3.5" style="color:#000;fill:#fc0;fill-opacity:1;fill-rule:nonzero;stroke:#000;stroke-width:2;stroke-linecap:round;stroke-linejoin:miter;stroke-miterlimit:4;stroke-opacity:1;stroke-dasharray:none;stroke-dashoffset:0;marker:none;visibility:visible;display:inline;overflow:visible"/><path d="m483.1 114.6-10.4-8.8 10.4-9.6L370 94.4s-4.2 7.3-1.4 17.3zM368 499c-5.4 7.7-7 15.1-7 15.1l47.7 1.4 30.2.8h0l39.8 1.2h0L468 509l11.2-7.6-7.5-.2-32.8-.7-19-.4zm111.2-268.5 11.3 12.5-10.7 6.3L538 269s9.4.3 11.3-4.6-3.8-10-3.8-10zm-.6 430.8 94 5.1s4.3-3.5 4.3-7.8-5.7-8.7-5.7-8.7l-92.3-5.7 8.4 8.9z" style="color:#000;fill:#f60;fill-opacity:1;fill-rule:nonzero;stroke:#000;stroke-width:2;stroke-linecap:round;stroke-linejoin:miter;stroke-miterlimit:4;stroke-opacity:1;stroke-dasharray:none;stroke-dashoffset:0;marker:none;visibility:visible;display:inline;overflow:visible"/><path d="M473.4 754.1c-6.5 2.8-11.5 5.4-15 7-11.3 5-28.4 14.5-44.6 24.3m34.2 29.2 70.2-33.5" style="color:#000;fill:none;stroke:#000;stroke-width:2;stroke-linecap:round;stroke-linejoin:round;stroke-miterlimit:4;stroke-opacity:1;stroke-dasharray:none;stroke-dashoffset:0;marker:none;visibility:visible;display:inline;overflow:visible"/><path d="m478.9 294.4 110.7 8s3.6-4 3.6-8.7-3-7.8-3-7.8L480 277.5l-12 8.5zm0 511.9 6.9-9.7-17.3 8.2zm-.1 86.6 8.3-8.3-8.3-8.7-108.8-3.2s-6 6.6-8.3 17.2z" style="color:#000;fill:#fc0;fill-opacity:1;fill-rule:nonzero;stroke:#000;stroke-width:2;stroke-linecap:round;stroke-linejoin:miter;stroke-miterlimit:4;stroke-opacity:1;stroke-dasharray:none;stroke-dashoffset:0;marker:none;visibility:visible;display:inline;overflow:visible"/><path d="M484.6 929.3a4 8.7 0 1 1-8 0 4 8.7 0 1 1 8 0zm-1.9-88.6a4 9.2 9.6 1 1-8-1.6 4 9.2 9.6 1 1 8 1.6z" style="color:#000;fill:#06f;fill-opacity:1;stroke:#000;stroke-width:2;stroke-linecap:square;stroke-linejoin:miter;stroke-miterlimit:4;stroke-opacity:1;stroke-dasharray:none;stroke-dashoffset:0;marker:none;visibility:visible;display:inline;overflow:visible"/><path d="m476.8 602-5 15.3 34.6 6.1s5.2-4 5.7-7.7-3.3-9-3.3-9z" style="color:#000;fill:#06f;fill-opacity:1;fill-rule:nonzero;stroke:#000;stroke-width:2;stroke-linecap:round;stroke-linejoin:miter;stroke-miterlimit:4;stroke-opacity:1;stroke-dasharray:none;stroke-dashoffset:0;marker:none;visibility:visible;display:inline;overflow:visible"/><path d="M479.3 607.7a6 8 15.1 1 1-12.1 3.5 6 8 15.1 1 1 12.1-3.5z" style="color:#000;fill:#06f;fill-opacity:1;stroke:#000;stroke-width:1.99999988;stroke-linecap:square;stroke-linejoin:miter;stroke-miterlimit:4;stroke-opacity:1;stroke-dasharray:none;stroke-dashoffset:0;marker:none;visibility:visible;display:inline;overflow:visible"/><path d="M483.9 553.4a4 7.6 1.9 1 1-8.1-.4 4 7.6 1.9 1 1 8 .4z" style="color:#000;fill:#0a0;fill-opacity:1;stroke:#000;stroke-width:2.00000024;stroke-linecap:square;stroke-linejoin:miter;stroke-miterlimit:4;stroke-opacity:1;stroke-dasharray:none;stroke-dashoffset:0;marker:none;visibility:visible;display:inline;overflow:visible"/><path d="m493.3 210-5.5-15.1-31 16.5s-1.7 6.3.2 9.6c2 3.2 8 5 8 5z" style="color:#000;fill:#06f;fill-opacity:1;fill-rule:nonzero;stroke:#000;stroke-width:2;stroke-linecap:round;stroke-linejoin:miter;stroke-miterlimit:4;stroke-opacity:1;stroke-dasharray:none;stroke-dashoffset:0;marker:none;visibility:visible;display:inline;overflow:visible"/><path d="M487.8 207.1a8 6 67 1 1 7.4-10.3 8 6 67 1 1-7.4 10.3z" style="color:#000;fill:#06f;fill-opacity:1;stroke:#000;stroke-width:2;stroke-linecap:square;stroke-linejoin:miter;stroke-miterlimit:4;stroke-opacity:1;stroke-dasharray:none;stroke-dashoffset:0;marker:none;visibility:visible;display:inline;overflow:visible"/><path d="M477.2 155.8a8 4.2 80.2 1 1 5.2-10.4 8 4.2 80.2 1 1-5.2 10.4z" style="color:#000;fill:#06f;fill-opacity:1;stroke:#000;stroke-width:1.99999976;stroke-linecap:square;stroke-linejoin:miter;stroke-miterlimit:4;stroke-opacity:1;stroke-dasharray:none;stroke-dashoffset:0;marker:none;visibility:visible;display:inline;overflow:visible"/><path d="M482.4 327.6a8.4 6 88.3 1 1-10.5 7.2 8.4 6 88.3 1 1 10.5-7.2z" style="color:#000;fill:#06f;fill-opacity:1;stroke:#000;stroke-width:1.99999988;stroke-linecap:square;stroke-linejoin:miter;stroke-miterlimit:4;stroke-opacity:1;stroke-dasharray:none;stroke-dashoffset:0;marker:none;visibility:visible;display:inline;overflow:visible"/><text xml:space="preserve" x="475.5" y="1032.3" style="font-size:32px;font-style:normal;font-variant:normal;font-weight:700;font-stretch:normal;text-align:center;line-height:125%;writing-mode:lr-tb;text-anchor:middle;fill:#000;fill-opacity:1;stroke:none;font-family:Sans-Serif"><tspan x="475.5" y="1032.3">RNA</tspan></text><text xml:space="preserve" x="875.5" y="1036.2" style="font-size:32px;font-style:normal;font-variant:normal;font-weight:700;font-stretch:normal;text-align:center;line-height:125%;writing-mode:lr-tb;text-anchor:middle;fill:#000;fill-opacity:1;stroke:none;font-family:Sans-Serif"><tspan x="875.5" y="1036.2">DNA</tspan></text><text xml:space="preserve" x="645.4" y="476.3" style="font-size:28px;font-style:normal;font-variant:normal;font-weight:400;font-stretch:normal;text-align:center;line-height:125%;writing-mode:lr-tb;text-anchor:middle;fill:#000;fill-opacity:1;stroke:none;font-family:Sans-Serif"><tspan x="645.4" y="476.3" style="font-size:36px;font-style:normal;font-variant:normal;font-weight:400;font-stretch:normal;font-family:Microsoft YaHei;-inkscape-font-specification:Microsoft YaHei">碱基对</tspan></text><path d="m1189.2 171.6 29.1-16.5 29.1 16.7v33.4l-28.7 17-29.4-17z" style="fill:#91bdff;fill-opacity:1;stroke:none"/><path d="M1241.7 179.4V165h2l7.5 11.2V165h1.8v14.3h-2l-7.5-11.3v11.3zm-29.1 50.4v-14.3h2l7.5 11.2v-11.2h1.8v14.3h-2l-7.5-11.3v11.3zm0-100.8v-14.3h2l7.5 11.2v-11.2h1.8V129h-2l-7.5-11.3V129zm14.8 0v-14.3h1.9v5.8h7.4v-5.8h2V129h-2v-6.8h-7.4v6.8zm20.6 3.7v1.3h-7l.1-1 .9-1.4 1.7-1.6q1.8-1.4 2.4-2.3t.6-1.5-.6-1.4a2 2 0 0 0-1.4-.5 2 2 0 0 0-1.6.6q-.5.5-.5 1.5l-1.4-.1q.2-1.5 1-2.3 1-.8 2.5-.8t2.4.9 1 2q0 .8-.3 1.3l-.9 1.4-2 1.8-2.1 2.1zm-35.3 113.7V232h1.9v6h7.4v-6h2v14.4h-2v-6.8h-7.4v6.8zm57-23.6q0-3.6 1.9-5.6 2-2 5-2 1.9 0 3.5 1t2.4 2.6.9 3.8-1 4a6 6 0 0 1-2.4 2.5 7 7 0 0 1-7 0q-1.8-1-2.5-2.7a8 8 0 0 1-.8-3.6m2 0q0 2.7 1.3 4.1 1.4 1.5 3.5 1.5t3.5-1.5a6 6 0 0 0 1.4-4.3q0-1.7-.6-3a5 5 0 0 0-4.3-2.8q-2 0-3.4 1.4-1.5 1.5-1.5 4.6"/><path d="M1247.4 205.2V182m-29.1-27 19.8 11.5m-19.1-5.7 19.1 11m-10.1 44.8 19.4-11.4m-58.2-33.6 29.1-16.5m-28.8 50.1 19.5 11.4m-19.5-11.4-.3-33.6m5.1 30.3-.3-27m24.3-19.9v-23.3m27.9 75.6 20.4 11.7m-18-16 18 10.6" style="fill:none;stroke:#000;stroke-width:1.5;stroke-linecap:round;stroke-linejoin:miter;stroke-miterlimit:10;stroke-opacity:1;stroke-dasharray:none"/><path d="M1319 74.7h33.5v40H1319z" style="fill:#06f;fill-opacity:1;fill-rule:evenodd;stroke:#100000;stroke-width:2.0999999;stroke-linecap:round;stroke-linejoin:miter;stroke-miterlimit:10;stroke-opacity:1;stroke-dasharray:none"/><path d="m1340.7 96.8 6.2 1.8q-.6 2.6-2 4.4t-3.3 2.6q-2 1-5 1-3.8 0-6.1-1.2-2.4-1-4.1-3.8a13 13 0 0 1-1.7-7q0-5.7 3-8.7t8.5-3q4.5 0 6.8 1.7 2.6 1.8 3.7 5.3l-6.2 1.4-.7-1.5a4 4 0 0 0-3.4-1.7q-2.4 0-3.7 2-1 1.4-1 4.5 0 3.8 1.2 5.2a4 4 0 0 0 3.3 1.4q2 0 3-1.1a7 7 0 0 0 1.5-3.3" style="fill:#000;fill-opacity:1;stroke:none"/><path d="m1150.5 418.8 27.3 19.8 27-20 31.9 8 23-24.9-9.6-31.4-33-8.2-22.8 24.6h-32.7z" style="fill:#91ff91;fill-opacity:1;stroke:none"/><path d="M1171.8 446.1v-14.3h2l7.4 11.2v-11.2h1.9v14.3h-2l-7.5-11.2V446zm-.2 16.9v-14.4h2v5.9h7.4v-5.9h1.8v14.3h-1.8v-6.7h-7.5v6.7zm-16.6-68.5v-14.3h2l7.4 11.2v-11.2h1.9v14.3h-2l-7.5-11.2v11.2zm89-17.1v-14.3h2l7.5 11.2v-11.2h1.9v14.3h-2l-7.5-11.2v11.2zm14.9 0v-14.3h1.9v5.9h7.4v-6h1.9v14.3h-1.9v-6.7h-7.4v6.7zm-27.7 56.4v-14.3h2l7.4 11.2v-11.2h1.9v14.3h-2l-7.5-11.2v11.2zm55.5-17.1v-14.3h2l7.4 11.2v-11.2h1.9v14.3h-2l-7.5-11.2v11.2zm14.8 0v-14.3h1.9v5.9h7.4v-5.9h1.9v14.3h-1.9V410h-7.4v6.7zm20.6 3.7v1.3h-7v-.9q.3-.8 1-1.4.5-.7 1.7-1.7l2.3-2.2q.6-.9.6-1.6t-.5-1.3a2 2 0 0 0-1.5-.6 2 2 0 0 0-1.5.6q-.6.6-.6 1.6l-1.3-.2q0-1.5 1-2.3t2.4-.8 2.5.9.9 2.1q0 .6-.3 1.3l-.8 1.3-2 1.9-2.2 2zm-121.8-89.6q0-3.5 2-5.5 1.9-2 4.9-2 2 0 3.6.9 1.5 1 2.4 2.6t.8 3.9q0 2.1-.9 3.9a6 6 0 0 1-2.5 2.6 7 7 0 0 1-7-.1q-1.7-1-2.5-2.7a8 8 0 0 1-.8-3.6m2 0q0 2.7 1.4 4.2 1.3 1.4 3.5 1.4 2.1 0 3.5-1.5a6 6 0 0 0 1.4-4.2q0-1.8-.6-3a5 5 0 0 0-4.3-2.8q-2 0-3.5 1.4t-1.4 4.6"/><path d="M1319 283.4h33.5v40H1319z" style="fill:#00d400;fill-opacity:1;fill-rule:evenodd;stroke:#100000;stroke-width:2.0999999;stroke-linecap:round;stroke-linejoin:miter;stroke-miterlimit:10;stroke-opacity:1;stroke-dasharray:none"/><path d="M1336.5 306.6v-4.8h11v9.8q-3.2 2.1-5.6 2.9a19 19 0 0 1-12.4-.6q-2.5-1.4-4-4.2-1.4-2.7-1.4-6.3 0-3.7 1.6-6.5a10 10 0 0 1 4.5-4.2q2.3-1 6.3-1.1 3.8 0 5.7.7 1.8.6 3 2.1 1.3 1.5 2 3.7l-6.9 1.2q-.4-1.3-1.4-2t-2.6-.7q-2.3 0-3.7 1.6t-1.4 5.2 1.4 5.3a5 5 0 0 0 4 1.6q1.1 0 2.2-.4 1-.3 2.5-1.2v-2.1z" style="fill:#000;fill-opacity:1;stroke:none"/><path d="m1181.5 627.3 27.3 19.8 27-20.1 32 8 22.9-24.8-9.6-31.4-33-8.2-22.8 24.6h-32.6z" style="fill:#ffe991;fill-opacity:1;stroke:none"/><path d="M1202.6 654.8v-14.3h2l7.5 11.2v-11.2h1.8v14.3h-2l-7.4-11.3v11.3zm.1 16.8v-14.3h2v5.9h7.3v-6h2v14.4h-2v-6.8h-7.4v6.8zm-16.9-68.4v-14.3h2l7.5 11.2V589h1.8v14.3h-2l-7.4-11.3v11.3zM1275 586v-14.2h1.9l7.5 11.2v-11.2h1.8V586h-2l-7.4-11.3V586zm-13 56.5v-14.3h2l7.5 11.2v-11.2h1.8v14.3h-2l-7.4-11.3v11.3zm-29.7-96v-14.3h2l7.5 11.2v-11.2h1.8v14.3h-2l-7.4-11.3v11.3zm-23 0v-14.3h2v5.9h7.3v-6h2v14.4h-2v-6.8h-7.4v6.8zm20.7 3.7v1.3h-7.1l.1-1 .9-1.3 1.7-1.7 2.4-2.2q.6-.9.6-1.6 0-.9-.6-1.4a2 2 0 0 0-1.4-.5 2 2 0 0 0-1.6.6q-.5.6-.5 1.6l-1.4-.2q.2-1.5 1-2.3 1-.8 2.5-.8t2.4.9 1 2q0 .8-.3 1.4l-.9 1.3-2 1.9-2.1 2z"/><path d="M1319 492.2h33.5v40H1319z" style="fill:#fc0;stroke:#100000;stroke-width:2.0999999;stroke-linecap:round;stroke-linejoin:miter;stroke-miterlimit:10;stroke-opacity:1;stroke-dasharray:none"/><path d="M1339.7 519.9h-8l-1.1 3.7h-7.3l8.6-22.9h7.8l8.6 23h-7.4zm-1.5-5-2.5-8.2-2.5 8.2z" style="fill:#000;fill-opacity:1;stroke:none"/><path d="m1217.8 797.9 29.1-16.5L1276 798v33.4l-28.7 17-29.4-17z" style="fill:#ff9191;fill-opacity:1;stroke:none"/><path d="M1270.1 805.9v-14.3h2l7.5 11.2v-11.2h1.8v14.3h-2l-7.5-11.3V806zm14.8 0v-14.3h1.9v5.8h7.4v-5.8h2v14.3h-2V799h-7.4v6.8zm-43.6 50.1v-14.3h2l7.5 11.2v-11.2h1.8V856h-2l-7.5-11.3V856zm.1 16.8v-14.3h1.9v5.8h7.4v-5.8h2v14.3h-2V866h-7.4v6.8zm-1.3-124.3q0-3.5 2-5.6 1.8-2 4.9-2 2 0 3.6 1 1.5 1 2.4 2.6t.8 3.8-.8 4a6 6 0 0 1-2.5 2.5 7 7 0 0 1-7.1 0q-1.6-1-2.4-2.7a8 8 0 0 1-.9-3.6m2 0q0 2.6 1.4 4.1t3.5 1.5 3.5-1.5a6 6 0 0 0 1.4-4.3q0-1.7-.6-3a5 5 0 0 0-4.3-2.8q-2 0-3.4 1.4-1.5 1.5-1.5 4.6M1298 849q0-3.5 2-5.6 1.9-2 4.9-2 2 0 3.6 1 1.5 1 2.4 2.6t.8 3.8-.8 4a6 6 0 0 1-2.5 2.5 7 7 0 0 1-7.1 0q-1.6-1-2.4-2.7a8 8 0 0 1-.9-3.6m2 0q0 2.6 1.4 4.1t3.5 1.5 3.5-1.5a6 6 0 0 0 1.4-4.3q0-1.7-.6-3a5 5 0 0 0-4.3-2.8q-2 0-3.4 1.4-1.5 1.5-1.5 4.6m-106.7-65 2 .5a6 6 0 0 1-2.2 3.6 6 6 0 0 1-3.8 1.2q-2.3 0-3.8-1t-2.2-2.7a10 10 0 0 1 .1-7.7q.9-1.7 2.5-2.5t3.4-.9q2.3 0 3.6 1.1 1.5 1.1 2 3l-1.8.5q-.5-1.5-1.4-2.3-1-.7-2.4-.7-1.6 0-2.8.8-1 .8-1.5 2.1t-.5 2.8q0 1.8.6 3.2a4 4 0 0 0 1.6 2q1.2.7 2.4.7 1.6 0 2.7-1 1.2-.7 1.5-2.7m-33.3 5v-14.2h2v5.8h7.4v-5.8h2V789h-2v-6.8h-7.4v6.8zm13.8 2.2 1.3-.1q.3 1 .8 1.6.6.5 1.3.5 1 0 1.6-.7t.6-1.6a2 2 0 0 0-2-2h-1l.2-1h.2q.7 0 1.5-.5.7-.4.7-1.4 0-.6-.5-1.2-.6-.4-1.3-.4t-1.3.5-.6 1.4l-1.4-.2q.3-1.5 1.1-2 .9-.8 2.2-.8.9 0 1.6.4a3 3 0 0 1 1.5 2.4q0 .7-.4 1.2-.3.6-1 1 .8.1 1.4.9.5.6.5 1.7 0 1.4-1 2.4t-2.6 1-2.3-.9q-1-.8-1-2.2"/><path d="M1276 831.7v-23.1m-29-27.3 19.5 11.4m-9.9 50.1 19.5-11.1m-58.2-33.7 29-16.7m-29 50.4 19.8 11.4m-19.8-11.4V798m4.8 30.4v-27m26.7-20.1v-23.1m-4.8 23.1v-23.1m30.3 75.6 20 11.7m-17.6-15.9 17.7 10.2m-77.1-41.8-19.5-11.3" style="fill:none;stroke:#000;stroke-width:1.5;stroke-linecap:round;stroke-linejoin:miter;stroke-miterlimit:10;stroke-opacity:1;stroke-dasharray:none"/><path d="M1319 701h33.5v40H1319z" style="fill:#d40000;stroke:#100000;stroke-width:2.0999999;stroke-linecap:round;stroke-linejoin:miter;stroke-miterlimit:10;stroke-opacity:1;stroke-dasharray:none"/><path d="M1325 709.5h21.5v5.6h-7.2v17.3h-7v-17.3h-7.3z" style="fill:#000;fill-opacity:1;stroke:none"/><path d="m114.5 797.8 29.1-16.5 29.1 16.8v33.3l-28.7 17-29.4-17z" style="fill:#ffbd91;fill-opacity:1;stroke:none"/><path d="M166.7 805.9v-14.3h2l7.4 11.2v-11.2h1.9v14.3h-2l-7.5-11.3V806zm14.8 0v-14.3h1.9v5.8h7.4v-5.8h1.9v14.3h-2V799h-7.3v6.8zM137.6 856v-14.3h2l7.4 11.2v-11.2h1.9V856h-2l-7.5-11.3V856zm.1 16.8v-14.3h1.9v5.8h7.4v-5.8h1.9v14.3h-2V866h-7.3v6.8zm-1.3-124.3q0-3.6 2-5.6 1.8-2 4.9-2 2 0 3.6 1 1.5 1 2.4 2.6t.8 3.8-.9 4a6 6 0 0 1-2.5 2.5 7 7 0 0 1-7 0q-1.7-1-2.5-2.7a8 8 0 0 1-.8-3.6m2 0q0 2.6 1.4 4.1t3.5 1.5 3.5-1.5a6 6 0 0 0 1.4-4.3q0-1.7-.6-3a5 5 0 0 0-4.3-2.8q-2 0-3.5 1.4-1.4 1.5-1.4 4.6M194.6 849q0-3.6 2-5.6 1.8-2 4.9-2 2 0 3.6 1 1.5 1 2.4 2.6t.8 3.8-.9 4a6 6 0 0 1-2.5 2.5 7 7 0 0 1-7 0q-1.7-1-2.5-2.7a8 8 0 0 1-.8-3.6m2 0q0 2.6 1.4 4.1t3.5 1.5 3.5-1.5a6 6 0 0 0 1.4-4.3q0-1.7-.6-3a5 5 0 0 0-4.3-2.8q-2 0-3.5 1.4-1.5 1.5-1.4 4.6"/><path d="M172.4 831.7v-23.1m-28.8-27.3 19.5 11.4M152.9 843l19.5-11.3M114.5 798l29-16.7m-29 50.4 19.5 11m-19.5-11V798m4.8 30.4v-27m26.7-20.1v-23.1m-4.8 23.1v-23.1m30 75.6 20.4 11.7m-18-15.9 18 10.2" style="fill:none;stroke:#000;stroke-width:1.5;stroke-linecap:round;stroke-linejoin:miter;stroke-miterlimit:10;stroke-opacity:1;stroke-dasharray:none"/><text xml:space="preserve" x="15.5" y="730.8" style="font-size:28px;font-style:normal;font-variant:normal;font-weight:400;font-stretch:normal;text-align:start;line-height:125%;writing-mode:lr-tb;text-anchor:start;fill:#000;fill-opacity:1;stroke:none;font-family:Sans-Serif"><tspan x="15.5" y="730.8" style="-inkscape-font-specification:Microsoft YaHei;font-family:Microsoft YaHei;font-weight:400;font-style:normal;font-stretch:normal;font-variant:normal">尿嘧啶</tspan></text><path d="M244.1 701h33.5v40h-33.5z" style="fill:#f60;stroke:#100000;stroke-width:2.0999999;stroke-linecap:round;stroke-linejoin:miter;stroke-miterlimit:10;stroke-opacity:1;stroke-dasharray:none"/><path d="M264.8 709.3h7v13.6q0 2.1-.6 3.9t-2 3.1a8 8 0 0 1-2.8 2q-2 .7-5 .7l-3.6-.2a10 10 0 0 1-3.3-1 8 8 0 0 1-4-4.6q-.6-2.1-.6-3.9v-13.6h7v14a4 4 0 0 0 1.1 2.9q1 1 2.9 1t2.9-1 1-3z" style="fill:#000;fill-opacity:1;stroke:none"/><path d="m114.3 172 29.1-16.5 29.1 16.7v33.4l-28.7 17-29.4-17z" style="fill:#91bdff;fill-opacity:1;stroke:none"/><path d="M166.8 179.8v-14.3h2l7.5 11.2v-11.2h1.8v14.3h-2l-7.5-11.3v11.3zm-29.1 50.4v-14.3h2l7.5 11.2v-11.2h1.8v14.3h-2l-7.5-11.3v11.3zm0-100.8V115h2l7.5 11.2V115h1.8v14.3h-2l-7.5-11.3v11.3zm14.8 0V115h1.9v5.8h7.4V115h2v14.3h-2v-6.8h-7.4v6.8zm20.7 3.7v1.3H166l.1-1 .9-1.4 1.7-1.6q1.8-1.4 2.4-2.3.6-.7.6-1.6 0-.8-.6-1.3a2 2 0 0 0-1.4-.5 2 2 0 0 0-1.6.6q-.5.5-.5 1.5l-1.4-.1q.2-1.5 1-2.3 1-.8 2.5-.8t2.4.9 1 2q0 .8-.3 1.3l-.9 1.4-2 1.8-2.1 2.1zM137.7 246v-14.2h1.9v5.8h7.4v-5.8h2V246h-2v-6.8h-7.4v6.8zm57.1-22.8q0-3.5 1.9-5.6 2-2 5-2 1.8 0 3.5 1t2.4 2.6q.9 1.7.9 3.8 0 2.2-1 4a6 6 0 0 1-2.4 2.5 7 7 0 0 1-7 0q-1.8-1-2.5-2.7a8 8 0 0 1-.8-3.6m2 0q0 2.7 1.3 4.1 1.4 1.5 3.5 1.5t3.5-1.5a6 6 0 0 0 1.4-4.3q0-1.7-.6-3a5 5 0 0 0-4.3-2.8q-2 0-3.4 1.4-1.5 1.5-1.5 4.6"/><path d="M172.5 205.6v-23.1m-29.1-27 19.8 11.4m-19.2-5.7 19.2 11M153 217l19.5-11.4M114.3 172l29.1-16.5m-28.8 50.1 19.5 11.4m-19.5-11.4-.3-33.6m5.1 30.3-.3-27m24.3-19.8V132m27.9 75.7 20.4 11.7m-18-15.9 18 10.5" style="fill:none;stroke:#000;stroke-width:1.5;stroke-linecap:round;stroke-linejoin:miter;stroke-miterlimit:10;stroke-opacity:1;stroke-dasharray:none"/><text xml:space="preserve" x="16.3" y="102.1" style="font-size:28px;font-style:normal;font-variant:normal;font-weight:400;font-stretch:normal;text-align:start;line-height:125%;writing-mode:lr-tb;text-anchor:start;fill:#000;fill-opacity:1;stroke:none;font-family:Sans-Serif"><tspan x="16.3" y="102.1" style="-inkscape-font-specification:Microsoft YaHei;font-family:Microsoft YaHei;font-weight:400;font-style:normal;font-stretch:normal;font-variant:normal">胞嘧啶</tspan></text><path d="M244 74.7h33.8V115H244z" style="fill:#06f;fill-opacity:1;fill-rule:evenodd;stroke:#100000;stroke-width:2.0999999;stroke-linecap:round;stroke-linejoin:miter;stroke-miterlimit:10;stroke-opacity:1;stroke-dasharray:none"/><path d="m265.8 97 6.2 1.8q-.5 2.7-2 4.4-1.3 1.8-3.3 2.6-2 1-5 1-3.8 0-6.1-1.2-2.4-1-4.1-3.8a13 13 0 0 1-1.7-7q0-5.7 3-8.7t8.5-3q4.4 0 6.8 1.7 2.6 1.8 3.7 5.3l-6.2 1.4-.7-1.5a4 4 0 0 0-3.4-1.7q-2.4 0-3.7 2-1 1.4-1 4.5 0 3.8 1.2 5.2a4 4 0 0 0 3.3 1.4q2 0 3-1.1a7 7 0 0 0 1.5-3.3" style="fill:#000;fill-opacity:1;stroke:none"/><path d="m75.6 420 27.3 19.7 27-20 31.9 7.9 23-24.8-9.6-31.4-33-8.2-22.8 24.6H86.7z" style="fill:#91ff91;fill-opacity:1;stroke:none"/><path d="M96.9 447.2V433h2l7.4 11.2V433h1.9v14.3h-2L98.7 436v11.2zM97 464v-14.3h1.9v5.9h7.4v-6h1.9V464h-1.9v-6.7h-7.4v6.7zm-17-68.4v-14.3h2l7.5 11.2v-11.2h1.9v14.3h-2L82 384.4v11.2zm89.2-17.1v-14.3h2l7.4 11.2v-11.2h1.9v14.3h-2l-7.5-11.2v11.2zm14.8 0v-14.3h1.9v5.9h7.4v-6h1.9v14.4h-1.9v-6.7h-7.4v6.7zM156.3 435v-14.4h2l7.4 11.2v-11.2h1.9v14.3h-2l-7.5-11.2v11.2zm55.5-17.2v-14.3h2l7.4 11.2v-11.2h1.9v14.3h-2l-7.5-11.2v11.2zm14.8 0v-14.3h1.9v5.9h7.4v-6h1.9v14.4h-1.9v-6.7h-7.4v6.7zm20.6 3.7v1.3h-7v-1q.3-.6 1-1.3t1.7-1.7l2.3-2.2q.6-.9.6-1.6t-.5-1.3a2 2 0 0 0-1.5-.6 2 2 0 0 0-1.5.6q-.6.6-.6 1.6l-1.3-.2q0-1.5 1-2.3t2.4-.8 2.5.9.9 2.1q0 .6-.3 1.3l-.8 1.3-2 1.9-2.2 2zM125.4 332q0-3.6 2-5.6 1.8-2 4.9-2 2 0 3.6.9 1.5 1 2.4 2.6t.8 3.9q0 2.1-.9 3.9a6 6 0 0 1-2.5 2.6 7 7 0 0 1-7-.1q-1.7-1-2.5-2.7a8 8 0 0 1-.8-3.6m2 0q0 2.5 1.4 4t3.5 1.5 3.5-1.5a6 6 0 0 0 1.4-4.2q0-1.8-.6-3a5 5 0 0 0-4.3-2.8q-2 0-3.5 1.3-1.4 1.4-1.4 4.7"/><path d="M93.3 432.5 75.6 420m7.2-21.7L75.6 420m12-21.7-6 18.6m48.3 2.7-17.7 13m7.2-44.8h-24m89.4 15-6.6-21.6m-36-18 23.4 5.4m6 48.6 13.2-14.4m-19.2 13.8L179 402m-59.6-14.2 22.8-24.6m-12.3 56.4 22.8 5.4m-22.8-5.4-10.5-31.8m14.1 27.6-8.4-25.8m59.7 13.2 23.4 5.4m-63.6-45.6-6.3-21m1.7 22.5-6.8-22.5" style="fill:none;stroke:#000;stroke-width:1.5;stroke-linecap:round;stroke-linejoin:miter;stroke-miterlimit:10;stroke-opacity:1;stroke-dasharray:none"/><text xml:space="preserve" x="16.2" y="313.5" style="font-size:28px;font-style:normal;font-variant:normal;font-weight:400;font-stretch:normal;text-align:start;line-height:125%;writing-mode:lr-tb;text-anchor:start;fill:#000;fill-opacity:1;stroke:none;font-family:Sans-Serif"><tspan x="16.2" y="313.5" style="-inkscape-font-specification:Microsoft YaHei;font-family:Microsoft YaHei;font-weight:400;font-style:normal;font-stretch:normal;font-variant:normal">鸟嘌呤</tspan></text><path d="M244.1 283.4h33.5v40h-33.5z" style="fill:#00d400;fill-opacity:1;fill-rule:evenodd;stroke:#100000;stroke-width:2.0999999;stroke-linecap:round;stroke-linejoin:miter;stroke-miterlimit:10;stroke-opacity:1;stroke-dasharray:none"/><path d="M261.6 306.6v-4.8h11v9.8q-3.2 2.1-5.6 2.9a19 19 0 0 1-12.4-.6q-2.5-1.4-4-4.2-1.4-2.7-1.4-6.3 0-3.7 1.6-6.5a10 10 0 0 1 4.5-4.2q2.3-1 6.3-1.1 3.8 0 5.7.7 1.8.6 3 2.1 1.3 1.5 2 3.7l-6.9 1.2q-.4-1.3-1.4-2t-2.6-.7q-2.3 0-3.7 1.6t-1.4 5.2 1.4 5.3a5 5 0 0 0 4 1.6q1.1 0 2.2-.4 1-.3 2.5-1.2v-2.1z" style="fill:#000;fill-opacity:1;stroke:none"/><path d="m106.6 627.3 27.3 19.8 27-20.1 32 8 22.9-24.8-9.6-31.4-33-8.2-22.8 24.6h-32.6z" style="fill:#ffe991;fill-opacity:1;stroke:none"/><path d="M127.7 654.8v-14.3h2l7.5 11.2v-11.2h1.8v14.3h-2l-7.5-11.3v11.3zm.1 16.8v-14.3h2v5.9h7.3v-6h2v14.4h-2v-6.8h-7.4v6.8zM111 603.2v-14.3h1.9l7.5 11.2V589h1.8v14.3h-2l-7.5-11.3v11.3zm89-17.2v-14.2h2l7.5 11.2v-11.2h1.8V586h-2l-7.5-11.3V586zm-12.9 56.5v-14.3h2l7.5 11.2v-11.2h1.8v14.3h-2l-7.5-11.3v11.3zm-29.7-96v-14.3h2l7.5 11.2v-11.2h1.8v14.3h-2l-7.5-11.3v11.3zm-23 0v-14.3h2v5.9h7.3v-6h2v14.4h-2v-6.8h-7.4v6.8zm20.6 3.7v1.3h-7l.1-1 .9-1.3 1.7-1.7 2.4-2.2q.6-.9.6-1.6 0-.9-.6-1.4a2 2 0 0 0-1.4-.5 2 2 0 0 0-1.6.6q-.5.6-.5 1.6l-1.4-.2q.2-1.5 1-2.3 1-.8 2.5-.8t2.4.9 1 2q0 .8-.3 1.4l-.9 1.3-2 1.9-2.1 2z"/><text xml:space="preserve" x="17.7" y="522" style="font-size:28px;font-style:normal;font-variant:normal;font-weight:400;font-stretch:normal;text-align:start;line-height:125%;writing-mode:lr-tb;text-anchor:start;fill:#000;fill-opacity:1;stroke:none;font-family:Sans-Serif"><tspan x="17.7" y="522" style="-inkscape-font-specification:Microsoft YaHei;font-family:Microsoft YaHei;font-weight:400;font-style:normal;font-stretch:normal;font-variant:normal">腺嘌呤</tspan></text><path d="M244.1 492.2h33.5v40h-33.5z" style="fill:#fc0;stroke:#100000;stroke-width:2.0999999;stroke-linecap:round;stroke-linejoin:miter;stroke-miterlimit:10;stroke-opacity:1;stroke-dasharray:none"/><path d="M264.8 519.9h-8l-1.1 3.7h-7.3l8.6-22.9h7.8l8.6 23H266zm-1.5-5-2.5-8.2-2.5 8.2z" style="fill:#000;fill-opacity:1;stroke:none"/><text xml:space="preserve" x="624.5" y="845.1" style="font-size:28px;font-style:normal;font-variant:normal;font-weight:400;font-stretch:normal;text-align:center;line-height:125%;writing-mode:lr-tb;text-anchor:middle;fill:#000;fill-opacity:1;stroke:none;font-family:Sans-Serif"><tspan x="624.5" y="845.1" style="font-style:normal;font-variant:normal;font-weight:400;font-stretch:normal;font-family:Microsoft YaHei;-inkscape-font-specification:Microsoft YaHei;font-size:36px">糖-磷酸螺旋</tspan></text><path d="M689.4 447.7 874 332.3" style="fill:none;stroke:#000;stroke-width:2.12598419;stroke-linecap:butt;stroke-linejoin:miter;stroke-miterlimit:4;stroke-opacity:1;stroke-dasharray:none;marker-end:url(#a)"/><text xml:space="preserve" x="161.4" y="950.1" style="font-size:28px;font-style:normal;font-variant:normal;font-weight:400;font-stretch:normal;text-align:center;line-height:125%;writing-mode:lr-tb;text-anchor:middle;fill:#000;fill-opacity:1;stroke:none;font-family:Sans-Serif"><tspan x="161.4" y="950.1" style="-inkscape-font-specification:Microsoft YaHei;font-family:Microsoft YaHei;font-weight:400;font-style:normal;font-stretch:normal;font-variant:normal">RNA的碱基</tspan></text><text xml:space="preserve" x="1231.4" y="961.1" style="font-size:28px;font-style:normal;font-variant:normal;font-weight:400;font-stretch:normal;text-align:center;line-height:125%;writing-mode:lr-tb;text-anchor:middle;fill:#000;fill-opacity:1;stroke:none;font-family:Sans-Serif"><tspan x="1231.4" y="961.1" style="font-style:normal;font-variant:normal;font-weight:400;font-stretch:normal;font-family:Microsoft YaHei;-inkscape-font-specification:Microsoft YaHei">DNA的碱基</tspan></text><text xml:space="preserve" x="1107.3" y="730.3" style="font-size:28px;font-style:normal;font-variant:normal;font-weight:400;font-stretch:normal;text-align:start;line-height:125%;writing-mode:lr-tb;text-anchor:start;fill:#000;fill-opacity:1;stroke:none;font-family:Sans-Serif"><tspan x="1107.3" y="730.3" style="font-style:normal;font-variant:normal;font-weight:400;font-stretch:normal;font-family:Microsoft YaHei;-inkscape-font-specification:Microsoft YaHei">胸腺嘧啶</tspan></text><text xml:space="preserve" x="1102.8" y="515.1" style="font-size:28px;font-style:normal;font-variant:normal;font-weight:400;font-stretch:normal;text-align:start;line-height:125%;writing-mode:lr-tb;text-anchor:start;fill:#000;fill-opacity:1;stroke:none;font-family:Sans-Serif"><tspan x="1102.8" y="515.1" style="font-style:normal;font-variant:normal;font-weight:400;font-stretch:normal;font-family:Microsoft YaHei;-inkscape-font-specification:Microsoft YaHei">腺嘌呤</tspan></text><text xml:space="preserve" x="1091.8" y="106.8" style="font-size:28px;font-style:normal;font-variant:normal;font-weight:400;font-stretch:normal;text-align:start;line-height:125%;writing-mode:lr-tb;text-anchor:start;fill:#000;fill-opacity:1;stroke:none;font-family:Sans-Serif"><tspan x="1091.8" y="106.8" style="font-style:normal;font-variant:normal;font-weight:400;font-stretch:normal;font-family:Microsoft YaHei;-inkscape-font-specification:Microsoft YaHei">胞嘧啶</tspan></text><text xml:space="preserve" x="1086.1" y="313.2" style="font-size:28px;font-style:normal;font-variant:normal;font-weight:400;font-stretch:normal;text-align:start;line-height:125%;writing-mode:lr-tb;text-anchor:start;fill:#000;fill-opacity:1;stroke:none;font-family:Sans-Serif"><tspan x="1086.1" y="313.2" style="font-style:normal;font-variant:normal;font-weight:400;font-stretch:normal;font-family:Microsoft YaHei;-inkscape-font-specification:Microsoft YaHei">鸟嘌呤</tspan></text><text xml:space="preserve" x="395" y="1073.4" style="font-size:40px;font-style:normal;font-weight:400;line-height:125%;letter-spacing:0;word-spacing:0;fill:#000;fill-opacity:1;stroke:none;font-family:Sans"><tspan x="395" y="1073.4" style="font-style:normal;font-variant:normal;font-weight:400;font-stretch:normal;font-family:Microsoft YaHei;-inkscape-font-specification:Microsoft YaHei">核糖核酸</tspan></text><text xml:space="preserve" x="759" y="1076.4" style="font-size:40px;font-style:normal;font-weight:400;line-height:125%;letter-spacing:0;word-spacing:0;fill:#000;fill-opacity:1;stroke:none;font-family:Sans"><tspan x="759" y="1076.4" style="font-style:normal;font-variant:normal;font-weight:400;font-stretch:normal;font-family:Microsoft YaHei;-inkscape-font-specification:Microsoft YaHei">脱氧核糖核酸</tspan></text><text xml:space="preserve" x="574.5" y="140.4" style="font-size:28px;font-style:normal;font-variant:normal;font-weight:400;font-stretch:normal;text-align:center;line-height:125%;writing-mode:lr-tb;text-anchor:middle;fill:#000;fill-opacity:1;stroke:none;font-family:Sans-Serif"><tspan x="574.5" y="140.4" style="font-size:36px;font-style:normal;font-variant:normal;font-weight:400;font-stretch:normal;font-family:Microsoft YaHei;-inkscape-font-specification:Microsoft YaHei">碱基</tspan></text></svg>