<svg xml:space="preserve" style="overflow:visible" viewBox="0 0 361.8 253.2"><path d="m72.1 69.7-.8.8-.8-.8V32.3l1.6 1zm0 37.7-.8.8-.8-.8V71.3l.8-.8.8.8z"/><path d="m72.1 145-.8.9-.8-.8v-36l.8-.9.8.8zm4.5 41.8 2.1.6a7 7 0 0 1-2.4 4 7 7 0 0 1-4.3 1.4q-2.7 0-4.3-1-1.7-1.1-2.5-3.1a11 11 0 0 1 0-8.9A7 7 0 0 1 68 177a8 8 0 0 1 4-1q2.4 0 4.1 1.3 1.7 1.2 2.3 3.5l-2 .5a5 5 0 0 0-1.7-2.6q-1.1-.8-2.7-.8-1.9 0-3.2 1-1.2.8-1.8 2.3-.5 1.4-.5 3.2 0 2.1.6 3.6t2 2.3 2.7.8q1.8 0 3-1 1.4-1.2 1.8-3.2m4.9 5.7v-16.4h2.1v6.7h8.5v-6.7h2.1v16.4h-2.1v-7.7h-8.5v7.7zm22.2 2.8v1.4h-8.1l.1-1q.3-.9 1-1.6.7-.9 2-1.9 2-1.6 2.7-2.6a3 3 0 0 0 .7-1.8 2 2 0 0 0-.6-1.5q-.7-.6-1.7-.6t-1.8.6q-.6.7-.6 1.9l-1.6-.2q.1-1.7 1.2-2.6a4 4 0 0 1 2.8-1q1.8 0 2.8 1t1 2.4q0 .8-.3 1.5t-1 1.5L100 193l-2.3 2.4zm1.3-10.8q0-4 2.1-6.3a7 7 0 0 1 5.6-2.3q2.4 0 4.1 1a7 7 0 0 1 2.8 3q1 2 1 4.4t-1 4.5a7 7 0 0 1-2.9 3 8 8 0 0 1-8-.2 7 7 0 0 1-2.8-3q-1-2-1-4m2.2 0q0 3 1.5 4.7 1.6 1.7 4 1.7 2.5 0 4-1.7a7 7 0 0 0 1.6-4.9q0-2-.7-3.5a5 5 0 0 0-4.8-3q-2.4 0-4 1.5-1.6 1.6-1.6 5.2m16.3 7.9v-16.4h2.2v6.7h8.4v-6.7h2.2v16.4H134v-7.7h-8.4v7.7zm-51.3-18.8h-1.6v-27.1l.8-.8.8.8zm30.6-94.3V63h2.1v6.7h8.5V63h2.2v16.4h-2.2v-7.7h-8.5v7.7zm-2.2-9.8v1.6H72.1l-.8-.8.8-.8zm-90.3 9.8V63h2.2v6.7h8.4V63H23v16.4h-2.2v-7.7h-8.4v7.7zm15.8-8q0-4 2.1-6.3a7 7 0 0 1 5.6-2.3q2.3 0 4.1 1a7 7 0 0 1 2.8 3q1 2 1 4.4t-1 4.5a7 7 0 0 1-3 3 8 8 0 0 1-8-.2 7 7 0 0 1-2.8-3q-.9-2-.9-4m2.1 0q0 3 1.6 4.7t4 1.7 4-1.7a7 7 0 0 0 1.6-4.9q0-2-.7-3.5a5 5 0 0 0-4.9-3q-2.2 0-4 1.5-1.6 1.5-1.6 5.2m15.6-.3v-1.6h27l.7.8-.8.8zm57.6 37.9q0-4 2.2-6.3a7 7 0 0 1 5.6-2.3q2.3 0 4.1 1a7 7 0 0 1 2.8 3q1 2 1 4.4 0 2.6-1 4.5a7 7 0 0 1-3 3 8 8 0 0 1-8-.2 7 7 0 0 1-2.7-3q-1-2-1-4m2.2 0q0 3 1.6 4.7t4 1.7 4-1.7a7 7 0 0 0 1.6-4.9q0-2-.7-3.5a5 5 0 0 0-4.9-3q-2.2 0-3.9 1.5t-1.7 5.3m16.3 7.8v-16.3h2.2v6.7h8.4v-6.7h2.2v16.3h-2.2v-7.7H122v7.7z"/><path d="M99 107.4v1.6H72.1l-.8-.8.8-.8zm-71.7 9.8v-16.3h2.2v6.7h8.4v-6.7h2.2v16.3h-2.2v-7.7h-8.4v7.7zm14.9-8.2v-1.6h28.3l.8.8-.8.8zm59 37.9q0-4 2.2-6.4a7 7 0 0 1 5.6-2.3q2.3 0 4.1 1.1a7 7 0 0 1 2.8 3q1 2 1 4.4t-1 4.5a7 7 0 0 1-3 3 8 8 0 0 1-8-.2 7 7 0 0 1-2.7-3q-1-2-1-4.1m2.2 0q0 3 1.6 4.7t4 1.7 4-1.7a7 7 0 0 0 1.6-5q0-1.9-.7-3.4a5 5 0 0 0-4.9-3.1q-2.2 0-3.9 1.6t-1.7 5.2m16.3 7.9v-16.3h2.2v6.7h8.4v-6.7h2.2v16.3h-2.2v-7.6H122v7.6zM99 145v1.7H72.1l-.8-.8.8-.8zm-71.7 9.8v-16.3h2.2v6.7h8.4v-6.7h2.2v16.3h-2.2v-7.6h-8.4v7.6zm14.9-8.1V145h28.3l.8.8-.8.8zM31 15q0-4 2.1-6.4a7 7 0 0 1 5.6-2.3q2.3 0 4.1 1.1a7 7 0 0 1 2.8 3q1 2 1 4.4t-1 4.4a7 7 0 0 1-3 3 8 8 0 0 1-8 0 7 7 0 0 1-2.7-3.1q-1-2-1-4.1m2.1 0q0 3 1.6 4.7 1.5 1.7 4 1.7t4-1.7a7 7 0 0 0 1.6-5q0-1.8-.7-3.4a5 5 0 0 0-4.9-3.1q-2.2 0-3.9 1.6Q33 11.3 33 15m13.1 7.4L47 21l24.9 14.3-.8 1.5zm2.9-4.9.7-1.4 24.9 14.3-.8 1.5zM97.6 23V6.5h2.2v6.7h8.4V6.6h2.2V23h-2.2v-7.6h-8.4V23z"/><path d="m93.9 18.9.8 1.3-22.6 13-1.6-.9zm194.8 50.8-.8.8-.8-.8V32.3l1.6 1zm0 37.7-.8.8-.8-.8V71.3l.8-.8.8.8zm0 37.6-.8.9-.8-.8v-36l.8-.9.8.8zm4.5 41.8 2.1.6a7 7 0 0 1-2.4 4 7 7 0 0 1-4.3 1.4q-2.7 0-4.3-1-1.7-1.1-2.5-3.1a11 11 0 0 1 0-8.9 7 7 0 0 1 2.8-2.9 8 8 0 0 1 4-1q2.4 0 4.1 1.3 1.7 1.2 2.3 3.5l-2 .5a5 5 0 0 0-1.7-2.6q-1.1-.8-2.7-.8-1.9 0-3.2 1-1.2.8-1.8 2.3-.5 1.4-.5 3.2 0 2.1.6 3.6t2 2.3 2.7.8q1.8 0 3-1 1.3-1.2 1.8-3.2m4.8 5.8v-16.4h2.2v6.7h8.5v-6.7h2.1v16.4h-2.1v-7.7h-8.5v7.7zm22.3 2.8v1.4h-8.1l.1-1q.4-.9 1-1.6.7-.9 2-1.9 2-1.6 2.7-2.6a3 3 0 0 0 .7-1.8 2 2 0 0 0-.6-1.5q-.7-.6-1.7-.6t-1.8.6q-.6.7-.6 1.9l-1.6-.2q.2-1.7 1.2-2.6a4 4 0 0 1 2.8-1q1.8 0 2.8 1t1 2.4q0 .8-.3 1.5t-1 1.5l-2.3 2.1-2.4 2.4zm1.2-10.8q0-4 2.2-6.3a7 7 0 0 1 5.6-2.3q2.4 0 4.1 1a7 7 0 0 1 2.8 3q1 2 1 4.4t-1 4.5a7 7 0 0 1-2.9 3 8 8 0 0 1-8-.2 7 7 0 0 1-2.8-3q-1-2-1-4m2.3 0q0 3 1.5 4.7 1.6 1.7 4 1.7 2.5 0 4-1.7a7 7 0 0 0 1.6-4.9q0-2-.7-3.5a5 5 0 0 0-4.8-3q-2.4 0-4 1.5-1.6 1.6-1.6 5.2m16.2 7.9v-16.4h2.2v6.7h8.4v-6.7h2.2v16.4h-2.2v-7.7h-8.4v7.7zm-51.3-18.8h-1.6v-27.1l.8-.8.8.8zm29.1-102.3q0-4 2.2-6.3a7 7 0 0 1 5.6-2.3q2.3 0 4.1 1a7 7 0 0 1 2.8 3q1 2 1 4.4t-1 4.5a7 7 0 0 1-3 3 8 8 0 0 1-8-.2 7 7 0 0 1-2.7-3q-1-2-1-4m2.2 0q0 3 1.6 4.7 1.5 1.7 4 1.7t4-1.7a7 7 0 0 0 1.6-4.9q0-2-.7-3.5a5 5 0 0 0-4.9-3q-2.3 0-3.9 1.5t-1.7 5.2m16.3 7.9V63h2.2v6.7h8.4V63h2.2v16.4h-2.2v-7.7h-8.4v7.7zm-20.7-9.8v1.6h-26.9l-.8-.8.8-.8zm-71.7 9.8V63h2.2v6.7h8.4V63h2.2v16.4h-2.2v-7.7h-8.4v7.7zm14.9-8.2v-1.6H287l.8.8-.8.8zm60.5 45.9v-16.3h2.1v6.7h8.5v-6.7h2.2v16.3h-2.2v-7.7h-8.5v7.7zm-2.2-9.8v1.6h-28.4l-.8-.8.8-.8zm-90.3 9.8v-16.3h2.2v6.7h8.4v-6.7h2.2v16.3h-2.2v-7.7H229v7.7zm15.7-8q0-4 2.2-6.3a7 7 0 0 1 5.6-2.3q2.3 0 4.1 1a7 7 0 0 1 2.8 3q1 2 1 4.4 0 2.6-1 4.5a7 7 0 0 1-3 3 8 8 0 0 1-8-.2 7 7 0 0 1-2.8-3q-.9-2-.9-4m2.2 0q0 3 1.6 4.7 1.5 1.7 4 1.7t4-1.7a7 7 0 0 0 1.6-4.9q0-2-.7-3.5a5 5 0 0 0-4.9-3q-2.2 0-4 1.5-1.5 1.5-1.6 5.3"/><path d="M260.2 109v-1.6h27l.7.8-.8.8zm59.1 45.8v-16.3h2.1v6.7h8.5v-6.7h2.2v16.3h-2.2v-7.6h-8.5v7.6zm-2.2-9.8v1.7h-28.4l-.8-.8.8-.8zm-90.3 9.8v-16.3h2.2v6.7h8.4v-6.7h2.2v16.3h-2.2v-7.6H229v7.6zm15.7-7.9q0-4 2.2-6.4a7 7 0 0 1 5.6-2.3q2.3 0 4.1 1.1a7 7 0 0 1 2.8 3q1 2 1 4.4t-1 4.5a7 7 0 0 1-3 3 8 8 0 0 1-8-.2 7 7 0 0 1-2.8-3q-.9-2-.9-4.1m2.2 0q0 3 1.6 4.7 1.5 1.7 4 1.7t4-1.7a7 7 0 0 0 1.6-5q0-1.9-.7-3.4a5 5 0 0 0-4.9-3.1q-2.2 0-4 1.6-1.5 1.6-1.6 5.2m15.5-.2V145h27l.7.8-.8.8zM247.5 15q0-4 2.2-6.4a7 7 0 0 1 5.6-2.3q2.3 0 4.1 1.1a7 7 0 0 1 2.8 3q1 2 1 4.4t-1 4.4a7 7 0 0 1-3 3 8 8 0 0 1-8 0 7 7 0 0 1-2.7-3.1q-1-2-1-4.1m2.2 0q0 3 1.6 4.7 1.5 1.7 4 1.7 2.4 0 4-1.7a7 7 0 0 0 1.6-5q0-1.8-.7-3.4a5 5 0 0 0-4.9-3.1q-2.2 0-3.9 1.6-1.7 1.5-1.7 5.2m13 7.4.8-1.4 24.9 14.3-.8 1.5zm2.8-4.9.8-1.4 24.9 14.3-.8 1.5zm48.7 5.5V6.5h2.2v6.7h8.5V6.6h2.1V23h-2v-7.6h-8.5V23z"/><path d="m310.5 18.9.8 1.3-22.6 13-1.6-.9zM9 246.6v-16.3h5.7q1.8 0 2.9.2 1.3.3 2.4 1.2 1.3 1.1 1.9 2.8t.6 3.9q0 1.8-.4 3.3A8 8 0 0 1 21 244l-1.5 1.5-2 .8q-1 .3-2.6.3zm2.2-2h3.5q1.6 0 2.5-.2t1.5-.9q.8-.8 1.2-2 .4-1.4.4-3.2 0-2.5-.8-4-1-1.2-2-1.7t-2.9-.4h-3.4zm13.3-2.9v-2h6.1v2zm6.8 4.9 6.3-16.3h2.3l6.7 16.3H44l-1.9-5h-6.8l-1.8 5zM36 240h5.5l-1.7-4.5-1.1-3.4-.9 3.1zm12 6.6v-11.8h1.8v1.8q.8-1.3 1.3-1.7t1.3-.4a4 4 0 0 1 2 .7l-.6 1.8q-.7-.4-1.5-.4-.6 0-1.2.4t-.7 1q-.4 1.2-.4 2.4v6.2zm15.4-1.4q-1.2.9-2.2 1.3t-2.2.4q-2 0-3-1t-1-2.4a3 3 0 0 1 1.4-2.7q.6-.5 1.4-.7l1.8-.3q2.4-.3 3.6-.7v-.5q0-1.2-.6-1.7-.7-.7-2.3-.7-1.4 0-2 .5t-1 1.7l-2-.2q.3-1.4.9-2 .6-.9 1.8-1.3 1-.3 2.6-.4 1.5 0 2.5.4.9.3 1.4.9.5.5.6 1.3l.1 1.9v2.7l.1 3.5.5 1.4h-2q-.4-.6-.4-1.4m-.2-4.5q-1 .4-3.3.7l-1.7.4a1.7 1.7 0 0 0-.5 3q.6.5 1.8.5 1.1 0 2-.5t1.4-1.4q.3-.6.3-2zm7 5.9h-1.9v-16.3h2v5.8a4 4 0 0 1 3.3-1.6 5 5 0 0 1 2 .5q1 .4 1.6 1.2a6 6 0 0 1 1 2q.4 1 .4 2.3 0 3-1.5 4.7a5 5 0 0 1-3.6 1.7q-2.1 0-3.3-1.8zm0-6q0 2.2.5 3 1 1.6 2.6 1.6 1.3 0 2.3-1.1t1-3.4-1-3.4a2.8 2.8 0 0 0-4.5 0q-1 1.2-1 3.3m10.9-8v-2.3h2v2.3zm0 14v-11.8h2v11.8zm5 0v-11.8h2v1.7q1.2-2 3.7-2a5 5 0 0 1 2 .4 3 3 0 0 1 2 2.5v9.2h-2v-7.2q0-1.2-.2-1.8a2 2 0 0 0-.8-1q-.6-.3-1.4-.3-1.2 0-2.2.8t-1 3v6.5zm12-5.9q0-3.3 1.8-4.9 1.5-1.3 3.7-1.3 2.5 0 4 1.6a6 6 0 0 1 1.6 4.4q0 2.4-.7 3.6-.7 1.4-2 2-1.3.8-2.9.8-2.4 0-4-1.6-1.5-1.6-1.5-4.6m2 0q0 2.3 1 3.4t2.5 1.1 2.5-1.1 1-3.5q0-2.1-1-3.3a3 3 0 0 0-2.5-1.1q-1.5 0-2.4 1.1-1 1.2-1 3.4m10.5 2.3 2-.2q.1 1.2 1 1.8.7.6 2 .6 1.5 0 2.1-.5t.7-1.3q0-.8-.6-1.1l-2-.7q-2.2-.6-3.1-1a3 3 0 0 1-1.7-2.7q0-.8.3-1.4.4-.7 1-1.2.4-.3 1.3-.5l1.7-.3q1.5 0 2.5.4t1.5 1.1.7 1.8l-2 .3q0-.8-.7-1.4t-1.8-.5q-1.4 0-2 .4t-.6 1 .3.8.7.5l1.8.5 3 1q.8.3 1.3 1t.5 1.7-.6 2q-.6.8-1.7 1.3t-2.5.5q-2.3 0-3.5-1a4 4 0 0 1-1.6-2.8m20.4-.3 2 .3a5 5 0 0 1-1.8 2.8q-1.4 1-3.4 1-2.6 0-4.1-1.6t-1.5-4.5 1.5-4.6 4-1.7a5 5 0 0 1 3.8 1.6q1.6 1.6 1.6 4.6v.5h-8.9q.1 2 1.1 3t2.5 1a3 3 0 0 0 1.9-.5q.8-.6 1.2-1.9m-6.7-3.2h6.6a4 4 0 0 0-.7-2.3 3 3 0 0 0-2.5-1.1q-1.5 0-2.3.9-1 .9-1 2.5m103.2 7v-16.3h2.1v14.4h8v2zm11.7-4.9v-2h6.1v2zm6.8 4.9 6.3-16.3h2.3l6.7 16.3h-2.5l-1.9-5h-6.8l-1.8 5zm4.7-6.7h5.6l-1.7-4.5q-.9-2-1.2-3.4l-.9 3.1zm12 6.7v-11.8h1.8v1.8q.8-1.3 1.3-1.7t1.3-.4a4 4 0 0 1 2 .7l-.6 1.8q-.7-.4-1.5-.4-.6 0-1.2.4t-.7 1l-.4 2.4v6.2zm15.3-1.4q-1 .9-2 1.3-1.1.4-2.3.4-2 0-3-1t-1-2.4a3 3 0 0 1 1.4-2.7q.7-.5 1.5-.7l1.7-.3q2.4-.3 3.6-.7v-.5q0-1.2-.6-1.7-.7-.7-2.2-.7t-2.1.5-1 1.7l-2-.2q.3-1.4.9-2 .6-.9 1.8-1.3 1-.3 2.7-.4 1.5 0 2.4.4 1 .3 1.4.9.5.5.6 1.3l.1 1.9v2.7q0 2.7.2 3.5 0 .8.5 1.4h-2.1q-.4-.6-.4-1.4m0-4.5q-1.2.4-3.4.7l-1.7.4q-.6.3-.8.7t-.3 1q0 .8.6 1.3t1.8.5 2-.5q1-.5 1.4-1.4.3-.6.3-2zm6.8 5.9H283v-16.3h2v5.8a4 4 0 0 1 3.3-1.6 5 5 0 0 1 2 .5q1 .4 1.6 1.2a6 6 0 0 1 1 2q.4 1 .4 2.3 0 3-1.5 4.7a5 5 0 0 1-3.6 1.7q-2.1 0-3.3-1.8zm0-6q0 2.2.5 3 1 1.6 2.6 1.6 1.3 0 2.3-1.1t1-3.4-1-3.4a2.8 2.8 0 0 0-4.5 0q-1 1.2-1 3.3m10.9-8v-2.3h2v2.3zm0 14v-11.8h2v11.8zm5.1 0v-11.8h1.8v1.7q1.3-2 3.7-2a5 5 0 0 1 2 .4 3 3 0 0 1 2 2.5v9.2h-2v-7.2q0-1.2-.2-1.8a2 2 0 0 0-.8-1q-.6-.3-1.4-.3-1.3 0-2.2.8t-1 3v6.5zm11.9-5.9q0-3.3 1.8-4.9 1.5-1.3 3.8-1.3 2.5 0 4 1.6a6 6 0 0 1 1.5 4.4q0 2.4-.7 3.6-.7 1.4-2 2-1.3.8-2.8.8-2.5 0-4-1.6-1.6-1.6-1.6-4.6m2 0q0 2.3 1 3.4t2.6 1.1 2.4-1.1 1-3.5q0-2.1-1-3.3a3 3 0 0 0-2.4-1.1q-1.6 0-2.5 1.1-1 1.2-1 3.4m10.5 2.3 2-.2q.1 1.2 1 1.8t2 .6q1.5 0 2.1-.5t.7-1.3-.6-1.1l-2-.7q-2.2-.6-3-1a3 3 0 0 1-1.8-2.7q0-.8.3-1.4.4-.7 1-1.2l1.3-.5 1.7-.3q1.5 0 2.5.4t1.5 1.1.7 1.8l-2 .3q0-.8-.7-1.4t-1.8-.5q-1.5 0-2 .4t-.6 1q0 .6.3.8t.7.5l1.8.5 3 1q.8.3 1.3 1t.5 1.7-.6 2q-.6.8-1.7 1.3t-2.5.5q-2.3 0-3.5-1a5 5 0 0 1-1.6-2.8m20.3-.3 2.1.3a5 5 0 0 1-1.8 2.8q-1.3 1-3.4 1-2.6 0-4.1-1.6t-1.5-4.5 1.5-4.6q1.6-1.7 4-1.7a5 5 0 0 1 3.9 1.6q1.5 1.6 1.5 4.6v.5h-8.9q.2 2 1.1 3t2.5 1a3 3 0 0 0 1.9-.5q.8-.6 1.2-1.9m-6.5-3.2h6.5a4 4 0 0 0-.7-2.3 3 3 0 0 0-2.5-1.1q-1.4 0-2.3.9-1 .9-1 2.5"/></svg>