<svg xmlns="http://www.w3.org/2000/svg" viewBox="0 0 361.83 253.22" xml:space="preserve" overflow="visible" enable-background="new 0 0 361.83 253.22"><path d="m72.14 69.68-.807.808-.807-.808V32.345l1.615.903z"/><path d="m72.14 107.395-.807.808-.807-.808v-36.1l.807-.807.808.807zm0 37.668-.807.808-.807-.808V109.01l.807-.807.808.807zm4.413 41.774 2.167.545q-.68 2.665-2.44 4.063-1.764 1.4-4.31 1.4-2.637 0-4.288-1.076t-2.514-3.114-.861-4.379q0-2.551.972-4.451t2.77-2.886 3.952-.986q2.446 0 4.113 1.248 1.668 1.25 2.324 3.512l-2.123.5q-.567-1.78-1.644-2.593-1.08-.812-2.712-.812-1.878 0-3.14.901t-1.774 2.422a9.8 9.8 0 0 0-.51 3.134q0 2.081.604 3.635t1.883 2.32a5.27 5.27 0 0 0 2.767.77q1.81 0 3.065-1.048t1.699-3.105m4.916 5.725v-16.328h2.167v6.71h8.447v-6.71h2.167v16.328h-2.167v-7.689h-8.447v7.69zm22.195 2.836v1.44h-8.105q-.016-.541.177-1.044.31-.826.996-1.627.684-.8 1.966-1.85 1.989-1.642 2.698-2.597.71-.954.71-1.808a2 2 0 0 0-.641-1.504q-.642-.613-1.672-.613-1.091 0-1.745.654-.654.653-.662 1.81l-1.544-.164q.159-1.732 1.197-2.64 1.038-.907 2.788-.907 1.766 0 2.795.977t1.028 2.423q0 .735-.3 1.445-.303.708-1.001 1.495-.7.785-2.318 2.155-1.355 1.137-1.741 1.54-.388.406-.64.814zm1.261-10.782q0-4.065 2.183-6.365 2.183-2.298 5.636-2.298 2.261 0 4.077 1.08 1.814 1.08 2.768 3.012.952 1.933.952 4.382 0 2.483-1.002 4.443-1.004 1.96-2.84 2.967a8.1 8.1 0 0 1-3.966 1.008q-2.306 0-4.121-1.113a7.16 7.16 0 0 1-2.752-3.04 9.2 9.2 0 0 1-.935-4.076m2.227.027q0 2.95 1.587 4.648t3.982 1.698q2.44 0 4.017-1.715t1.576-4.865q0-1.992-.674-3.478t-1.972-2.305-2.912-.818q-2.295 0-3.95 1.575t-1.654 5.26m16.25 7.92v-16.33h2.167v6.71h8.447v-6.71h2.167v16.33h-2.167v-7.69h-8.447v7.69zM72.14 173.8h-1.614v-27.122l.807-.807.808.807zm30.531-94.335V63.138h2.167v6.71h8.446v-6.71h2.167v16.328h-2.167v-7.69h-8.446v7.69zm-2.125-9.786v1.615H72.14l-.808-.807.808-.808zm-90.357 9.786V63.137h2.167v6.71h8.446v-6.71h2.167v16.329h-2.167v-7.69h-8.446v7.69zm15.723-7.947q0-4.064 2.183-6.364t5.637-2.299q2.26 0 4.076 1.08t2.768 3.013.952 4.381q0 2.483-1.002 4.443t-2.84 2.968a8.1 8.1 0 0 1-3.966 1.008q-2.305 0-4.12-1.114a7.16 7.16 0 0 1-2.752-3.04 9.2 9.2 0 0 1-.936-4.076m2.227.028q0 2.95 1.588 4.648t3.982 1.698q2.44 0 4.017-1.715t1.576-4.865q0-1.992-.674-3.479t-1.972-2.305-2.913-.818q-2.294 0-3.949 1.575t-1.655 5.26"/><path d="M43.593 71.295V69.68h26.933l.807.808-.807.807zm57.624 37.938q0-4.064 2.183-6.364t5.636-2.299q2.261 0 4.077 1.08 1.814 1.08 2.768 3.013.952 1.933.952 4.381 0 2.483-1.002 4.443t-2.84 2.968a8.1 8.1 0 0 1-3.966 1.008q-2.306 0-4.121-1.114a7.16 7.16 0 0 1-2.751-3.04 9.2 9.2 0 0 1-.936-4.076m2.227.029q0 2.95 1.587 4.648t3.983 1.698q2.44 0 4.016-1.715t1.576-4.865q0-1.992-.673-3.48-.675-1.486-1.973-2.304t-2.912-.818q-2.295 0-3.95 1.575t-1.654 5.26m16.25 7.92v-16.329h2.166v6.71h8.447v-6.71h2.167v16.329h-2.167v-7.69h-8.447v7.69zm-20.668-9.786v1.615H72.14l-.808-.807.808-.808zm-71.737 9.786v-16.328h2.166v6.71h8.447v-6.71h2.167v16.328h-2.167v-7.69h-8.446v7.69z"/><path d="M42.168 109.01v-1.615h28.358l.807.808-.807.807zm59.049 37.89q0-4.064 2.183-6.363t5.636-2.3q2.261 0 4.077 1.08 1.814 1.08 2.768 3.013.952 1.932.952 4.382 0 2.483-1.002 4.443t-2.84 2.967a8.1 8.1 0 0 1-3.966 1.008q-2.306 0-4.121-1.113a7.16 7.16 0 0 1-2.751-3.04 9.2 9.2 0 0 1-.936-4.076m2.227.027q0 2.95 1.587 4.648t3.983 1.698q2.44 0 4.016-1.715t1.576-4.865q0-1.992-.673-3.478-.675-1.487-1.973-2.305t-2.912-.818q-2.295 0-3.95 1.575t-1.654 5.26m16.25 7.92v-16.33h2.166v6.71h8.447v-6.71h2.167v16.33h-2.167v-7.69h-8.447v7.69zm-20.668-9.785v1.615H72.14l-.808-.807.808-.808zm-71.737 9.785v-16.329h2.166v6.71h8.447v-6.71h2.167v16.329h-2.167v-7.69h-8.446v7.69z"/><path d="M42.168 146.678v-1.615h28.358l.807.808-.807.807zM30.917 14.993q0-4.063 2.183-6.364 2.183-2.298 5.635-2.299 2.261 0 4.077 1.08a7.06 7.06 0 0 1 2.768 3.013q.952 1.933.952 4.381 0 2.483-1.002 4.444-1.004 1.96-2.841 2.967a8.1 8.1 0 0 1-3.965 1.008q-2.306 0-4.121-1.113a7.17 7.17 0 0 1-2.752-3.04 9.2 9.2 0 0 1-.934-4.077m2.226.028q0 2.95 1.588 4.648 1.587 1.699 3.982 1.698 2.44 0 4.017-1.715 1.575-1.714 1.576-4.865 0-1.992-.674-3.479-.673-1.486-1.972-2.304-1.297-.819-2.913-.818-2.294 0-3.949 1.575-1.655 1.576-1.655 5.26m12.967 7.397.808-1.378 24.843 14.298-.808 1.425zm2.803-4.893.808-1.377 24.842 14.297-.807 1.425zm48.723 5.415V6.613h2.167v6.71h8.446v-6.71h2.167V22.94h-2.167v-7.69h-8.446v7.69z"/><path d="m93.896 18.855.807 1.378-22.562 13.015-1.615-.903zM288.74 69.68l-.807.808-.807-.808V32.345l1.615.903z"/><path d="m288.74 107.395-.807.808-.807-.808v-36.1l.807-.807.808.807zm0 37.668-.807.808-.807-.808V109.01l.807-.807.808.807zm4.413 41.774 2.167.545q-.68 2.665-2.44 4.063-1.764 1.4-4.31 1.4-2.637 0-4.288-1.076-1.652-1.075-2.514-3.114t-.861-4.379q0-2.551.972-4.451t2.769-2.886 3.952-.986q2.446 0 4.113 1.248 1.668 1.25 2.324 3.512l-2.122.5q-.568-1.78-1.645-2.593-1.08-.812-2.712-.812-1.878 0-3.14.901t-1.774 2.422a9.8 9.8 0 0 0-.51 3.134q0 2.081.605 3.635t1.882 2.32a5.27 5.27 0 0 0 2.766.77q1.81 0 3.066-1.048 1.255-1.047 1.7-3.105m4.916 5.725v-16.328h2.167v6.71h8.447v-6.71h2.167v16.328h-2.167v-7.689h-8.447v7.69zm22.195 2.836v1.44h-8.105q-.016-.541.177-1.044.312-.826.997-1.627.684-.8 1.966-1.85 1.988-1.642 2.698-2.597.71-.954.709-1.808a2 2 0 0 0-.641-1.504q-.642-.613-1.673-.613-1.092 0-1.745.654-.654.653-.662 1.81l-1.544-.164q.159-1.732 1.198-2.64 1.038-.907 2.787-.907 1.767 0 2.795.977t1.029 2.423q0 .735-.3 1.445-.303.708-1.001 1.495-.7.785-2.319 2.155-1.354 1.137-1.74 1.54a5 5 0 0 0-.64.814zm1.262-10.782q0-4.065 2.183-6.365 2.183-2.298 5.636-2.298 2.262 0 4.077 1.08a7.07 7.07 0 0 1 2.768 3.012q.952 1.933.952 4.382 0 2.483-1.002 4.443-1.004 1.96-2.84 2.967a8.1 8.1 0 0 1-3.966 1.008q-2.306 0-4.121-1.113a7.16 7.16 0 0 1-2.752-3.04 9.2 9.2 0 0 1-.935-4.076m2.227.027q0 2.95 1.587 4.648t3.982 1.698q2.44 0 4.017-1.715t1.576-4.865q0-1.992-.674-3.478-.675-1.487-1.972-2.305t-2.912-.818q-2.295 0-3.95 1.575t-1.654 5.26m16.25 7.92v-16.33h2.166v6.71h8.447v-6.71h2.167v16.33h-2.167v-7.69h-8.447v7.69zM288.74 173.8h-1.614v-27.122l.807-.807.808.807zm29.076-102.282q0-4.064 2.184-6.364 2.183-2.299 5.635-2.299 2.263 0 4.077 1.08a7.06 7.06 0 0 1 2.768 3.013q.952 1.933.952 4.381 0 2.483-1.002 4.443t-2.84 2.968a8.1 8.1 0 0 1-3.966 1.008q-2.305 0-4.121-1.114a7.17 7.17 0 0 1-2.751-3.04 9.2 9.2 0 0 1-.936-4.076m2.227.028q0 2.95 1.588 4.648t3.982 1.698q2.44 0 4.017-1.715 1.575-1.714 1.575-4.865 0-1.992-.673-3.479-.675-1.487-1.972-2.305t-2.913-.818q-2.294 0-3.948 1.575-1.657 1.577-1.656 5.26m16.25 7.92V63.137h2.167v6.71h8.447v-6.71h2.167v16.329h-2.167v-7.69h-8.447v7.69z"/><path d="M315.626 69.68v1.615H288.74l-.808-.807.808-.808zm-71.737 9.785V63.138h2.166v6.71h8.447v-6.71h2.167v16.328h-2.167v-7.69h-8.447v7.69z"/><path d="M258.767 71.295V69.68h28.359l.807.808-.807.807zm60.504 45.886v-16.328h2.167v6.71h8.446v-6.71h2.167v16.328h-2.167v-7.69h-8.446v7.69zm-2.125-9.786v1.615H288.74l-.808-.807.808-.808zm-90.357 9.785v-16.328h2.167v6.71h8.446v-6.71h2.167v16.329h-2.167v-7.69h-8.446v7.69zm15.723-7.947q0-4.064 2.183-6.364t5.637-2.299q2.262 0 4.076 1.08a7.07 7.07 0 0 1 2.768 3.013q.952 1.933.952 4.381 0 2.483-1.002 4.443t-2.84 2.968a8.1 8.1 0 0 1-3.966 1.008q-2.305 0-4.12-1.114a7.16 7.16 0 0 1-2.752-3.04 9.2 9.2 0 0 1-.936-4.076m2.227.029q0 2.95 1.588 4.648t3.982 1.698q2.44 0 4.017-1.715t1.576-4.865q0-1.992-.674-3.48-.675-1.486-1.972-2.304t-2.913-.818q-2.294 0-3.949 1.575t-1.655 5.26"/><path d="M260.192 109.01v-1.615h26.934l.807.808-.807.807zm59.079 45.838v-16.329h2.167v6.71h8.446v-6.71h2.167v16.329h-2.167v-7.69h-8.446v7.69zm-2.125-9.785v1.615H288.74l-.808-.807.808-.808zm-90.357 9.784V138.52h2.167v6.71h8.446v-6.71h2.167v16.328h-2.167v-7.689h-8.446v7.69zm15.723-7.946q0-4.065 2.183-6.365 2.183-2.298 5.637-2.298 2.262 0 4.076 1.08a7.07 7.07 0 0 1 2.768 3.012q.952 1.932.952 4.382 0 2.483-1.002 4.443t-2.84 2.967a8.1 8.1 0 0 1-3.966 1.008q-2.305 0-4.12-1.113a7.16 7.16 0 0 1-2.752-3.04 9.2 9.2 0 0 1-.936-4.076m2.227.027q0 2.95 1.588 4.648t3.982 1.698q2.44 0 4.017-1.715t1.576-4.865q0-1.992-.674-3.478-.675-1.487-1.972-2.305t-2.913-.818q-2.294 0-3.949 1.575t-1.655 5.26"/><path d="M260.192 146.678v-1.615h26.934l.807.808-.807.807zM247.516 14.993q0-4.063 2.184-6.364 2.182-2.298 5.635-2.299 2.263 0 4.077 1.08a7.05 7.05 0 0 1 2.768 3.013q.952 1.933.952 4.381 0 2.483-1.002 4.444t-2.841 2.967a8.1 8.1 0 0 1-3.965 1.008q-2.305 0-4.121-1.113a7.17 7.17 0 0 1-2.752-3.04 9.2 9.2 0 0 1-.935-4.077m2.226.028q0 2.95 1.589 4.648 1.587 1.698 3.981 1.698 2.44 0 4.018-1.715 1.575-1.714 1.575-4.865 0-1.992-.674-3.479-.673-1.486-1.972-2.304-1.296-.819-2.912-.818-2.296 0-3.949 1.575-1.657 1.576-1.656 5.26m12.968 7.397.807-1.378 24.844 14.298-.808 1.425zm2.803-4.893.808-1.377 24.842 14.297-.808 1.425zm48.724 5.415V6.613h2.167v6.71h8.446v-6.71h2.167V22.94h-2.167v-7.69h-8.446v7.69z"/><path d="m310.496 18.855.807 1.378-22.562 13.015-1.615-.903zM9.046 246.618V230.29h5.615q1.902 0 2.904.233 1.4.323 2.39 1.17 1.29 1.091 1.93 2.79t.64 3.882q0 1.859-.435 3.297-.434 1.437-1.111 2.378-.68.94-1.485 1.482-.807.54-1.945.818-1.14.278-2.62.278zm2.167-1.93h3.476q1.61 0 2.526-.3.916-.301 1.46-.847.767-.768 1.194-2.065t.428-3.146q0-2.56-.839-3.935-.838-1.375-2.038-1.842-.866-.335-2.787-.335h-3.42zm13.245-2.969V239.7h6.175v2.02zm6.842 4.9 6.265-16.33h2.33l6.683 16.33h-2.46l-1.89-4.944h-6.852l-1.783 4.943zm4.708-6.71h5.532l-1.697-4.513q-.783-2.058-1.166-3.385a20.4 20.4 0 0 1-.88 3.114zm12.021 6.71v-11.831h1.797v1.8q.691-1.263 1.277-1.664a2.22 2.22 0 0 1 1.29-.403q1.015 0 2.064.648l-.701 1.855q-.734-.425-1.466-.424-.656 0-1.177.395t-.745 1.096a7.8 7.8 0 0 0-.334 2.338v6.19zm15.327-1.456q-1.119.944-2.147 1.333a6.2 6.2 0 0 1-2.206.388q-1.945 0-2.99-.953t-1.045-2.434q0-.868.394-1.588.395-.719 1.034-1.153a4.9 4.9 0 0 1 1.44-.658q.588-.155 1.778-.3 2.422-.29 3.567-.691.011-.412.011-.523 0-1.223-.567-1.723-.767-.678-2.277-.678-1.412 0-2.083.494t-.995 1.748l-1.96-.267q.268-1.257.879-2.03.613-.774 1.769-1.19 1.157-.418 2.68-.417 1.513 0 2.46.356.944.356 1.389.895.445.54.623 1.363.1.512.1 1.849v2.673q0 2.796.13 3.54.127.741.508 1.421h-2.091q-.313-.623-.401-1.455m-.164-4.482q-1.09.445-3.27.757-1.235.179-1.748.4a1.715 1.715 0 0 0-1.068 1.604q0 .802.606 1.336.606.535 1.771.535 1.156 0 2.054-.506a3.14 3.14 0 0 0 1.323-1.387q.322-.68.322-2.003zm6.98 5.937h-1.855V230.29h2.004v5.822q1.27-1.592 3.241-1.592 1.092 0 2.067.44a4.2 4.2 0 0 1 1.603 1.237q.63.798.986 1.92.357 1.126.357 2.407 0 3.04-1.504 4.7t-3.61 1.66q-2.095 0-3.287-1.748v1.482zm-.029-6.005q0 2.128.579 3.075.946 1.549 2.56 1.549 1.314 0 2.272-1.142t.957-3.404q0-2.317-.918-3.42t-2.222-1.104q-1.313 0-2.271 1.142-.957 1.143-.957 3.304m10.87-8.022v-2.301h2.003v2.3zm0 14.027v-11.83h2.003v11.83zm5.05 0v-11.83h1.796v1.681q1.303-1.947 3.765-1.948 1.069 0 1.965.384.897.385 1.343 1.009t.624 1.482q.111.557.111 1.95v7.273h-2.005v-7.197q0-1.224-.233-1.833a1.93 1.93 0 0 0-.829-.97q-.595-.361-1.396-.361-1.28 0-2.209.813-.928.812-.929 3.085v6.462zM98 240.703q0-3.287 1.825-4.868 1.526-1.315 3.717-1.315 2.437 0 3.985 1.599t1.546 4.416q0 2.284-.685 3.592a4.85 4.85 0 0 1-1.992 2.034 5.8 5.8 0 0 1-2.855.724q-2.482 0-4.011-1.593Q98 243.7 98 240.702m2.064.002q0 2.273.989 3.403t2.49 1.13q1.49 0 2.478-1.135.989-1.137.989-3.464 0-2.194-.995-3.325t-2.473-1.13q-1.501 0-2.49 1.125t-.988 3.396m10.557 2.381 1.99-.311q.165 1.194.928 1.828t2.131.636q1.38 0 2.047-.562.667-.565.668-1.322 0-.68-.587-1.07-.41-.268-2.044-.68-2.201-.558-3.055-.963-.855-.407-1.294-1.126a3 3 0 0 1-.441-1.587q0-.79.362-1.465.362-.674.985-1.12.467-.345 1.275-.585a6 6 0 0 1 1.73-.239q1.393 0 2.444.402t1.553 1.089.691 1.835l-1.96.267q-.134-.917-.772-1.43-.639-.514-1.806-.515-1.379 0-1.968.456-.589.457-.589 1.071 0 .39.246.701.244.324.766.535.3.112 1.768.513 2.122.568 2.963.93t1.32 1.053.479 1.715q0 1.003-.586 1.888t-1.688 1.37-2.495.484q-2.306 0-3.515-.958-1.213-.956-1.546-2.84m20.283-.282 2.079.267q-.49 1.813-1.815 2.814-1.325 1-3.383 1.001-2.593 0-4.112-1.599-1.518-1.598-1.52-4.484 0-2.985 1.536-4.634 1.536-1.648 3.984-1.648 2.37 0 3.874 1.615 1.502 1.616 1.502 4.545 0 .178-.01.535h-8.822q.111 1.95 1.101 2.986t2.471 1.037q1.101 0 1.88-.58t1.235-1.855m-6.568-3.236h6.591q-.134-1.493-.755-2.24-.957-1.159-2.479-1.159-1.377 0-2.317.926t-1.04 2.473m103.121 7.051V230.29h2.167v14.398h8.016v1.93zm11.715-4.899V239.7h6.175v2.02zm6.843 4.9 6.265-16.33h2.33l6.683 16.33h-2.46l-1.89-4.944h-6.852l-1.783 4.943zm4.707-6.71h5.532l-1.697-4.513q-.782-2.058-1.165-3.385a20 20 0 0 1-.88 3.114zm12.022 6.71v-11.831h1.797v1.8q.691-1.263 1.278-1.664a2.22 2.22 0 0 1 1.289-.403q1.014 0 2.064.648l-.701 1.855q-.731-.425-1.466-.424-.655 0-1.177.395t-.745 1.096a7.8 7.8 0 0 0-.334 2.338v6.19zm15.327-1.456q-1.118.944-2.147 1.333a6.2 6.2 0 0 1-2.206.388q-1.945 0-2.989-.953-1.045-.952-1.045-2.434 0-.868.394-1.588.396-.719 1.034-1.153a4.9 4.9 0 0 1 1.44-.658q.588-.155 1.778-.3 2.422-.29 3.567-.691.011-.412.011-.523 0-1.223-.567-1.723-.766-.678-2.277-.678-1.412 0-2.083.494t-.995 1.748l-1.96-.267q.268-1.257.879-2.03.613-.774 1.769-1.19 1.157-.418 2.68-.417 1.513 0 2.46.356.945.356 1.39.895.445.54.622 1.363.1.512.1 1.849v2.673q0 2.796.13 3.54.128.741.509 1.421h-2.093q-.313-.623-.401-1.455m-.164-4.482q-1.091.445-3.27.757-1.235.178-1.748.4a1.75 1.75 0 0 0-.789.652 1.7 1.7 0 0 0-.278.952q0 .802.605 1.336.606.535 1.772.535 1.155 0 2.053-.506.901-.508 1.323-1.387.322-.68.322-2.003zm6.98 5.937h-1.855V230.29h2.003v5.822q1.27-1.592 3.242-1.592 1.091 0 2.065.44a4.2 4.2 0 0 1 1.604 1.237q.63.798.986 1.92.356 1.126.356 2.407 0 3.04-1.505 4.7t-3.61 1.66q-2.095 0-3.287-1.748zm-.03-6.005q0 2.128.58 3.075.945 1.549 2.56 1.549 1.313 0 2.27-1.142t.958-3.404q0-2.317-.918-3.42t-2.221-1.104q-1.314 0-2.272 1.142-.957 1.143-.956 3.304m10.87-8.022v-2.301h2.003v2.3zm0 14.027v-11.83h2.003v11.83zm5.05 0v-11.83h1.796v1.681q1.303-1.947 3.765-1.948 1.068 0 1.966.384.896.385 1.342 1.009.445.624.623 1.482.111.557.111 1.95v7.273h-2.003v-7.197q0-1.224-.234-1.833a1.93 1.93 0 0 0-.828-.97q-.596-.361-1.397-.361-1.28 0-2.209.813-.928.812-.929 3.085v6.462zm11.937-5.915q0-3.287 1.825-4.868 1.525-1.315 3.718-1.315 2.436 0 3.983 1.599t1.548 4.416q0 2.284-.685 3.592a4.85 4.85 0 0 1-1.993 2.034 5.8 5.8 0 0 1-2.854.724q-2.482 0-4.012-1.593t-1.53-4.59m2.064.002q0 2.273.989 3.403t2.49 1.13q1.49 0 2.478-1.135.988-1.137.99-3.464 0-2.194-.995-3.325t-2.474-1.13q-1.501 0-2.49 1.125t-.988 3.396m10.558 2.381 1.99-.311q.166 1.194.928 1.828t2.131.636q1.38 0 2.047-.562.667-.565.667-1.322 0-.68-.587-1.07-.41-.268-2.043-.68-2.201-.558-3.055-.963-.855-.407-1.295-1.126a3 3 0 0 1-.44-1.587q0-.79.361-1.465.362-.674.985-1.12.468-.345 1.275-.585a6 6 0 0 1 1.731-.239q1.392 0 2.443.402t1.554 1.089.69 1.835l-1.96.267q-.134-.917-.772-1.43-.638-.514-1.806-.515-1.378 0-1.967.456-.59.457-.59 1.071 0 .39.246.701.244.324.766.535.3.112 1.768.513 2.123.568 2.963.93t1.32 1.053.479 1.715q0 1.003-.584 1.888-.587.886-1.689 1.37t-2.495.484q-2.307 0-3.515-.958-1.21-.958-1.546-2.84m20.284-.282 2.078.267q-.49 1.813-1.814 2.814-1.324 1-3.383 1.001-2.594 0-4.113-1.599-1.518-1.598-1.519-4.484 0-2.985 1.535-4.634 1.536-1.648 3.985-1.648 2.37 0 3.872 1.615 1.503 1.616 1.503 4.545 0 .178-.012.535h-8.82q.11 1.95 1.1 2.986t2.472 1.037q1.1 0 1.88-.58t1.236-1.855m-6.569-3.236h6.591q-.134-1.493-.755-2.24-.957-1.159-2.478-1.159-1.378 0-2.318.926t-1.04 2.473"/></svg>