<?xml version="1.0" encoding="UTF-8" standalone="no"?>
<!-- Generator: Adobe Illustrator 12.0.1, SVG Export Plug-In . SVG Version: 6.00 Build 51448)  -->
<svg
   xmlns:dc="http://purl.org/dc/elements/1.1/"
   xmlns:cc="http://web.resource.org/cc/"
   xmlns:rdf="http://www.w3.org/1999/02/22-rdf-syntax-ns#"
   xmlns:svg="http://www.w3.org/2000/svg"
   xmlns="http://www.w3.org/2000/svg"
   xmlns:sodipodi="http://sodipodi.sourceforge.net/DTD/sodipodi-0.dtd"
   xmlns:inkscape="http://www.inkscape.org/namespaces/inkscape"
   version="1.1"
   id="Layer_1"
   width="361.828"
   height="253.216"
   viewBox="0 0 361.828 253.216"
   style="overflow:visible;enable-background:new 0 0 361.828 253.216;"
   xml:space="preserve"
   sodipodi:version="0.32"
   inkscape:version="0.44.1"
   sodipodi:docname="DL-Arabinose.svg"
   sodipodi:docbase="E:\Eigene Dateien"><metadata
   id="metadata214"><rdf:RDF><cc:Work
       rdf:about=""><dc:format>image/svg+xml</dc:format><dc:type
         rdf:resource="http://purl.org/dc/dcmitype/StillImage" /></cc:Work></rdf:RDF></metadata><defs
   id="defs212" /><sodipodi:namedview
   inkscape:window-height="573"
   inkscape:window-width="925"
   inkscape:pageshadow="2"
   inkscape:pageopacity="0.0"
   guidetolerance="10.0"
   gridtolerance="10.0"
   objecttolerance="10.0"
   borderopacity="1.0"
   bordercolor="#666666"
   pagecolor="#ffffff"
   id="base"
   inkscape:zoom="1.4927966"
   inkscape:cx="180.914"
   inkscape:cy="126.608"
   inkscape:window-x="66"
   inkscape:window-y="66"
   inkscape:current-layer="Layer_1" />
<path
   d="M 72.1409,69.6802 L 71.3334,70.4877 L 70.5259,69.6802 L 70.5259,32.3452 L 72.1409,33.2477 L 72.1409,69.6802 z "
   id="polygon3" />
<path
   d="M 72.1409,107.3952 L 71.3334,108.2027 L 70.5259,107.3952 L 70.5259,71.2952 L 71.3334,70.4877 L 72.1409,71.2952 L 72.1409,107.3952 z "
   id="polygon5" />
<path
   d="M 72.1409,145.0627 L 71.3334,145.87115 L 70.5259,145.0627 L 70.5259,109.0102 L 71.3334,108.2027 L 72.1409,109.0102 L 72.1409,145.0627 z "
   id="polygon7" />
<g
   id="g9"
   transform="matrix(0.95,0,0,0.95,9.0457,6.3304)">
	<path
   d="M 71.06,190.007 L 73.341,190.581 C 72.865,192.451 72.008,193.877 70.772,194.858 C 69.535,195.84 68.022,196.331 66.235,196.331 C 64.385,196.331 62.881,195.954 61.722,195.199 C 60.563,194.444 59.681,193.352 59.076,191.921 C 58.471,190.49 58.169,188.954 58.169,187.312 C 58.169,185.521 58.51,183.959 59.193,182.626 C 59.876,181.292 60.847,180.28 62.108,179.588 C 63.368,178.896 64.754,178.55 66.268,178.55 C 67.985,178.55 69.428,178.988 70.598,179.864 C 71.769,180.741 72.584,181.973 73.044,183.561 L 70.81,184.088 C 70.412,182.838 69.835,181.928 69.079,181.358 C 68.322,180.788 67.37,180.503 66.224,180.503 C 64.906,180.503 63.804,180.819 62.918,181.452 C 62.033,182.085 61.411,182.934 61.052,184.001 C 60.693,185.068 60.514,186.167 60.514,187.3 C 60.514,188.761 60.726,190.036 61.151,191.126 C 61.576,192.216 62.236,193.03 63.133,193.569 C 64.03,194.108 65,194.378 66.045,194.378 C 67.316,194.378 68.391,194.011 69.272,193.276 C 70.153,192.541 70.748,191.452 71.06,190.007 z "
   id="path11" />
	<path
   d="M 76.235,196.034 L 76.235,178.846 L 78.516,178.846 L 78.516,185.909 L 87.407,185.909 L 87.407,178.846 L 89.688,178.846 L 89.688,196.034 L 87.407,196.034 L 87.407,187.94 L 78.516,187.94 L 78.516,196.034 L 76.235,196.034 z "
   id="path13" />
</g>
<g
   id="g15"
   transform="matrix(0.95,0,0,0.95,9.0457,6.3304)">
	<path
   d="M 99.598,199.019 L 99.598,200.535 L 91.067,200.535 C 91.055,200.154 91.117,199.788 91.253,199.435 C 91.471,198.855 91.82,198.285 92.301,197.723 C 92.781,197.161 93.471,196.512 94.371,195.775 C 95.767,194.623 96.713,193.712 97.211,193.042 C 97.709,192.372 97.958,191.738 97.958,191.139 C 97.958,190.513 97.733,189.985 97.283,189.555 C 96.833,189.125 96.246,188.91 95.523,188.91 C 94.757,188.91 94.146,189.139 93.687,189.598 C 93.228,190.056 92.996,190.692 92.99,191.503 L 91.365,191.331 C 91.476,190.116 91.896,189.189 92.625,188.552 C 93.353,187.915 94.331,187.597 95.559,187.597 C 96.798,187.597 97.779,187.94 98.501,188.626 C 99.223,189.312 99.584,190.161 99.584,191.176 C 99.584,191.693 99.478,192.199 99.267,192.697 C 99.056,193.195 98.704,193.719 98.214,194.271 C 97.723,194.822 96.91,195.579 95.774,196.54 C 94.823,197.337 94.212,197.878 93.941,198.161 C 93.67,198.446 93.445,198.731 93.268,199.018 L 99.598,199.018 L 99.598,199.019 z "
   id="path17" />
</g>
<g
   id="g19"
   transform="matrix(0.95,0,0,0.95,9.0457,6.3304)">
	<path
   d="M 100.925,187.669 C 100.925,184.817 101.691,182.584 103.223,180.97 C 104.755,179.357 106.733,178.55 109.156,178.55 C 110.743,178.55 112.173,178.929 113.447,179.687 C 114.721,180.445 115.692,181.502 116.361,182.858 C 117.029,184.214 117.363,185.752 117.363,187.47 C 117.363,189.212 117.011,190.772 116.308,192.147 C 115.604,193.523 114.608,194.564 113.318,195.271 C 112.028,195.978 110.637,196.332 109.144,196.332 C 107.526,196.332 106.08,195.941 104.806,195.16 C 103.532,194.379 102.567,193.312 101.91,191.96 C 101.253,190.607 100.925,189.177 100.925,187.669 z M 103.269,187.698 C 103.269,189.768 103.826,191.399 104.94,192.591 C 106.054,193.783 107.452,194.378 109.132,194.378 C 110.844,194.378 112.253,193.776 113.36,192.573 C 114.466,191.37 115.019,189.663 115.019,187.452 C 115.019,186.054 114.783,184.833 114.31,183.79 C 113.837,182.747 113.145,181.938 112.234,181.364 C 111.323,180.79 110.301,180.503 109.168,180.503 C 107.558,180.503 106.172,181.056 105.011,182.161 C 103.85,183.266 103.269,185.112 103.269,187.698 z "
   id="path21" />
	<path
   d="M 120.375,196.034 L 120.375,178.846 L 122.656,178.846 L 122.656,185.909 L 131.547,185.909 L 131.547,178.846 L 133.828,178.846 L 133.828,196.034 L 131.547,196.034 L 131.547,187.94 L 122.656,187.94 L 122.656,196.034 L 120.375,196.034 z "
   id="path23" />
</g>
<path
   d="M 72.1409,173.8002 L 70.5259,173.8002 L 70.5259,146.6777 L 71.3334,145.87115 L 72.1409,146.6777 L 72.1409,173.8002 z "
   id="polygon25" />
<g
   id="g27"
   transform="matrix(0.95,0,0,0.95,9.0457,6.3304)">
	<path
   d="M 98.553,76.984 L 98.553,59.797 L 100.834,59.797 L 100.834,66.86 L 109.725,66.86 L 109.725,59.797 L 112.006,59.797 L 112.006,76.985 L 109.725,76.985 L 109.725,68.891 L 100.834,68.891 L 100.834,76.985 L 98.553,76.985 L 98.553,76.984 z "
   id="path29" />
</g>
<path
   d="M 100.5459,69.6802 L 100.5459,71.2952 L 72.1409,71.2952 L 71.3334,70.4877 L 72.1409,69.6802 L 100.5459,69.6802 z "
   id="polygon31" />
<g
   id="g33"
   transform="matrix(0.95,0,0,0.95,9.0457,6.3304)">
	<path
   d="M 1.203,76.984 L 1.203,59.797 L 3.484,59.797 L 3.484,66.86 L 12.375,66.86 L 12.375,59.797 L 14.656,59.797 L 14.656,76.985 L 12.375,76.985 L 12.375,68.891 L 3.484,68.891 L 3.484,76.985 L 1.203,76.985 L 1.203,76.984 z "
   id="path35" />
	<path
   d="M 17.754,68.619 C 17.754,65.767 18.52,63.534 20.052,61.92 C 21.584,60.307 23.562,59.5 25.985,59.5 C 27.572,59.5 29.002,59.879 30.276,60.637 C 31.55,61.395 32.521,62.452 33.19,63.808 C 33.858,65.164 34.192,66.702 34.192,68.42 C 34.192,70.162 33.84,71.722 33.137,73.097 C 32.433,74.473 31.437,75.514 30.147,76.221 C 28.857,76.928 27.466,77.282 25.973,77.282 C 24.355,77.282 22.909,76.891 21.635,76.11 C 20.361,75.329 19.396,74.262 18.739,72.91 C 18.082,71.558 17.754,70.127 17.754,68.619 z M 20.098,68.648 C 20.098,70.718 20.655,72.349 21.769,73.541 C 22.883,74.733 24.281,75.328 25.961,75.328 C 27.673,75.328 29.082,74.726 30.189,73.523 C 31.295,72.32 31.848,70.613 31.848,68.402 C 31.848,67.004 31.612,65.783 31.139,64.74 C 30.666,63.697 29.974,62.888 29.063,62.314 C 28.152,61.74 27.13,61.453 25.997,61.453 C 24.387,61.453 23.001,62.006 21.84,63.111 C 20.679,64.216 20.098,66.063 20.098,68.648 z "
   id="path37" />
</g>
<path
   d="M 43.5934,71.2952 L 43.5934,69.6802 L 70.5259,69.6802 L 71.3334,70.4877 L 70.5259,71.2952 L 43.5934,71.2952 z "
   id="polygon39" />
<g
   id="g41"
   transform="matrix(0.95,0,0,0.95,9.0457,6.3304)">
	<path
   d="M 97.022,108.319 C 97.022,105.467 97.788,103.234 99.32,101.62 C 100.852,100.007 102.83,99.2 105.253,99.2 C 106.84,99.2 108.27,99.579 109.544,100.337 C 110.818,101.095 111.789,102.152 112.458,103.508 C 113.126,104.864 113.46,106.402 113.46,108.12 C 113.46,109.862 113.108,111.422 112.405,112.797 C 111.701,114.173 110.705,115.214 109.415,115.921 C 108.125,116.628 106.734,116.982 105.241,116.982 C 103.623,116.982 102.177,116.591 100.903,115.81 C 99.629,115.029 98.664,113.962 98.007,112.61 C 97.35,111.258 97.022,109.827 97.022,108.319 z M 99.366,108.349 C 99.366,110.419 99.923,112.05 101.037,113.242 C 102.151,114.434 103.549,115.029 105.229,115.029 C 106.941,115.029 108.35,114.427 109.457,113.224 C 110.563,112.021 111.116,110.314 111.116,108.103 C 111.116,106.705 110.88,105.484 110.407,104.441 C 109.934,103.398 109.242,102.589 108.331,102.015 C 107.42,101.441 106.398,101.154 105.265,101.154 C 103.655,101.154 102.269,101.707 101.108,102.812 C 99.947,103.917 99.366,105.763 99.366,108.349 z "
   id="path43" />
	<path
   d="M 116.471,116.685 L 116.471,99.497 L 118.752,99.497 L 118.752,106.56 L 127.643,106.56 L 127.643,99.497 L 129.924,99.497 L 129.924,116.685 L 127.643,116.685 L 127.643,108.591 L 118.752,108.591 L 118.752,116.685 L 116.471,116.685 z "
   id="path45" />
</g>
<path
   d="M 99.0259,107.3952 L 99.0259,109.0102 L 72.1409,109.0102 L 71.3334,108.2027 L 72.1409,107.3952 L 99.0259,107.3952 z "
   id="polygon47" />
<g
   id="g49"
   transform="matrix(0.95,0,0,0.95,9.0457,6.3304)">
	<path
   d="M 19.203,116.685 L 19.203,99.497 L 21.484,99.497 L 21.484,106.56 L 30.375,106.56 L 30.375,99.497 L 32.656,99.497 L 32.656,116.685 L 30.375,116.685 L 30.375,108.591 L 21.484,108.591 L 21.484,116.685 L 19.203,116.685 z "
   id="path51" />
</g>
<path
   d="M 42.1684,109.0102 L 42.1684,107.3952 L 70.5259,107.3952 L 71.3334,108.2027 L 70.5259,109.0102 L 42.1684,109.0102 z "
   id="polygon53" />
<g
   id="g55"
   transform="matrix(0.95,0,0,0.95,9.0457,6.3304)">
	<path
   d="M 97.022,147.969 C 97.022,145.117 97.788,142.884 99.32,141.27 C 100.852,139.657 102.83,138.85 105.253,138.85 C 106.84,138.85 108.27,139.229 109.544,139.987 C 110.818,140.745 111.789,141.802 112.458,143.158 C 113.126,144.514 113.46,146.052 113.46,147.77 C 113.46,149.512 113.108,151.072 112.405,152.447 C 111.701,153.823 110.705,154.864 109.415,155.571 C 108.125,156.278 106.734,156.632 105.241,156.632 C 103.623,156.632 102.177,156.241 100.903,155.46 C 99.629,154.679 98.664,153.612 98.007,152.26 C 97.35,150.907 97.022,149.477 97.022,147.969 z M 99.366,147.998 C 99.366,150.068 99.923,151.699 101.037,152.891 C 102.151,154.083 103.549,154.678 105.229,154.678 C 106.941,154.678 108.35,154.076 109.457,152.873 C 110.563,151.67 111.116,149.963 111.116,147.752 C 111.116,146.354 110.88,145.133 110.407,144.09 C 109.934,143.047 109.242,142.238 108.331,141.664 C 107.42,141.09 106.398,140.803 105.265,140.803 C 103.655,140.803 102.269,141.356 101.108,142.461 C 99.947,143.566 99.366,145.412 99.366,147.998 z "
   id="path57" />
	<path
   d="M 116.471,156.334 L 116.471,139.146 L 118.752,139.146 L 118.752,146.209 L 127.643,146.209 L 127.643,139.146 L 129.924,139.146 L 129.924,156.334 L 127.643,156.334 L 127.643,148.24 L 118.752,148.24 L 118.752,156.334 L 116.471,156.334 z "
   id="path59" />
</g>
<path
   d="M 99.0259,145.0627 L 99.0259,146.6777 L 72.1409,146.6777 L 71.3334,145.87115 L 72.1409,145.0627 L 99.0259,145.0627 z "
   id="polygon61" />
<g
   id="g63"
   transform="matrix(0.95,0,0,0.95,9.0457,6.3304)">
	<path
   d="M 19.203,156.334 L 19.203,139.146 L 21.484,139.146 L 21.484,146.209 L 30.375,146.209 L 30.375,139.146 L 32.656,139.146 L 32.656,156.334 L 30.375,156.334 L 30.375,148.24 L 21.484,148.24 L 21.484,156.334 L 19.203,156.334 z "
   id="path65" />
</g>
<path
   d="M 42.1684,146.6777 L 42.1684,145.0627 L 70.5259,145.0627 L 71.3334,145.87115 L 70.5259,146.6777 L 42.1684,146.6777 z "
   id="polygon67" />
<g
   id="g69"
   transform="matrix(0.95,0,0,0.95,9.0457,6.3304)">
	<path
   d="M 23.022,9.119 C 23.022,6.267 23.788,4.034 25.32,2.42 C 26.852,0.807 28.83,0 31.252,0 C 32.839,0 34.269,0.379 35.543,1.137 C 36.817,1.895 37.788,2.952 38.457,4.308 C 39.125,5.664 39.459,7.202 39.459,8.92 C 39.459,10.662 39.107,12.222 38.404,13.597 C 37.7,14.973 36.704,16.014 35.414,16.721 C 34.124,17.428 32.733,17.782 31.24,17.782 C 29.622,17.782 28.176,17.391 26.902,16.61 C 25.628,15.829 24.663,14.762 24.006,13.41 C 23.35,12.058 23.022,10.627 23.022,9.119 z M 25.366,9.148 C 25.366,11.218 25.923,12.849 27.037,14.041 C 28.151,15.233 29.549,15.828 31.229,15.828 C 32.941,15.828 34.35,15.226 35.457,14.023 C 36.563,12.82 37.116,11.113 37.116,8.902 C 37.116,7.504 36.88,6.283 36.407,5.24 C 35.934,4.197 35.242,3.388 34.331,2.814 C 33.42,2.24 32.398,1.953 31.265,1.953 C 29.655,1.953 28.269,2.506 27.108,3.611 C 25.947,4.716 25.366,6.563 25.366,9.148 z "
   id="path71" />
</g>
<path
   d="M 46.1109,22.4177 L 46.9184,21.0402 L 71.7609,35.3377 L 70.9534,36.7627 L 46.1109,22.4177 z "
   id="polygon73" />
<path
   d="M 48.9134,17.5252 L 49.7209,16.1477 L 74.5634,30.4452 L 73.7559,31.8702 L 48.9134,17.5252 z "
   id="polygon75" />
<g
   id="g77"
   transform="matrix(0.95,0,0,0.95,9.0457,6.3304)">
	<path
   d="M 93.253,17.484 L 93.253,0.297 L 95.534,0.297 L 95.534,7.36 L 104.425,7.36 L 104.425,0.297 L 106.706,0.297 L 106.706,17.485 L 104.425,17.485 L 104.425,9.391 L 95.534,9.391 L 95.534,17.485 L 93.253,17.485 L 93.253,17.484 z "
   id="path79" />
</g>
<path
   d="M 93.8959,18.8552 L 94.7034,20.2327 L 72.1409,33.2477 L 70.5259,32.3452 L 93.8959,18.8552 z "
   id="polygon81" />
<path
   d="M 288.7409,69.6802 L 287.9334,70.4877 L 287.1259,69.6802 L 287.1259,32.3452 L 288.7409,33.2477 L 288.7409,69.6802 z "
   id="polygon83" />
<path
   d="M 288.7409,107.3952 L 287.9334,108.2027 L 287.1259,107.3952 L 287.1259,71.2952 L 287.9334,70.4877 L 288.7409,71.2952 L 288.7409,107.3952 z "
   id="polygon85" />
<path
   d="M 288.7409,145.0627 L 287.9334,145.87115 L 287.1259,145.0627 L 287.1259,109.0102 L 287.9334,108.2027 L 288.7409,109.0102 L 288.7409,145.0627 z "
   id="polygon87" />
<g
   id="g89"
   transform="matrix(0.95,0,0,0.95,9.0457,6.3304)">
	<path
   d="M 299.06,190.007 L 301.341,190.581 C 300.865,192.451 300.008,193.877 298.772,194.858 C 297.535,195.84 296.022,196.331 294.235,196.331 C 292.385,196.331 290.881,195.954 289.722,195.199 C 288.563,194.444 287.681,193.352 287.076,191.921 C 286.471,190.49 286.169,188.954 286.169,187.312 C 286.169,185.521 286.51,183.959 287.193,182.626 C 287.875,181.292 288.846,180.28 290.107,179.588 C 291.367,178.896 292.753,178.55 294.267,178.55 C 295.984,178.55 297.427,178.988 298.597,179.864 C 299.768,180.741 300.583,181.973 301.043,183.561 L 298.809,184.088 C 298.412,182.838 297.833,181.928 297.078,181.358 C 296.321,180.788 295.369,180.503 294.223,180.503 C 292.905,180.503 291.803,180.819 290.917,181.452 C 290.031,182.085 289.41,182.934 289.051,184.001 C 288.692,185.068 288.513,186.167 288.513,187.3 C 288.513,188.761 288.725,190.036 289.151,191.126 C 289.575,192.216 290.236,193.03 291.132,193.569 C 292.028,194.108 292.999,194.378 294.043,194.378 C 295.314,194.378 296.39,194.011 297.271,193.276 C 298.152,192.541 298.748,191.452 299.06,190.007 z "
   id="path91" />
	<path
   d="M 304.235,196.034 L 304.235,178.846 L 306.516,178.846 L 306.516,185.909 L 315.407,185.909 L 315.407,178.846 L 317.688,178.846 L 317.688,196.034 L 315.407,196.034 L 315.407,187.94 L 306.516,187.94 L 306.516,196.034 L 304.235,196.034 z "
   id="path93" />
</g>
<g
   id="g95"
   transform="matrix(0.95,0,0,0.95,9.0457,6.3304)">
	<path
   d="M 327.598,199.019 L 327.598,200.535 L 319.067,200.535 C 319.055,200.154 319.118,199.788 319.253,199.435 C 319.472,198.855 319.821,198.285 320.302,197.723 C 320.783,197.161 321.472,196.512 322.372,195.775 C 323.767,194.623 324.714,193.712 325.212,193.042 C 325.71,192.372 325.958,191.738 325.958,191.139 C 325.958,190.513 325.733,189.985 325.283,189.555 C 324.833,189.125 324.247,188.91 323.522,188.91 C 322.756,188.91 322.145,189.139 321.686,189.598 C 321.227,190.056 320.995,190.692 320.989,191.503 L 319.364,191.331 C 319.475,190.116 319.895,189.189 320.624,188.552 C 321.353,187.915 322.331,187.597 323.558,187.597 C 324.797,187.597 325.779,187.94 326.5,188.626 C 327.222,189.312 327.583,190.161 327.583,191.176 C 327.583,191.693 327.478,192.199 327.267,192.697 C 327.055,193.195 326.704,193.719 326.214,194.271 C 325.722,194.822 324.909,195.579 323.773,196.54 C 322.823,197.337 322.212,197.878 321.941,198.161 C 321.67,198.446 321.445,198.731 321.267,199.018 L 327.598,199.018 L 327.598,199.019 z "
   id="path97" />
</g>
<g
   id="g99"
   transform="matrix(0.95,0,0,0.95,9.0457,6.3304)">
	<path
   d="M 328.926,187.669 C 328.926,184.817 329.692,182.584 331.224,180.97 C 332.756,179.357 334.734,178.55 337.157,178.55 C 338.744,178.55 340.175,178.929 341.448,179.687 C 342.721,180.445 343.693,181.502 344.362,182.858 C 345.03,184.214 345.364,185.752 345.364,187.47 C 345.364,189.212 345.012,190.772 344.309,192.147 C 343.605,193.523 342.608,194.564 341.319,195.271 C 340.029,195.978 338.637,196.332 337.145,196.332 C 335.527,196.332 334.081,195.941 332.807,195.16 C 331.533,194.379 330.568,193.312 329.911,191.96 C 329.254,190.607 328.926,189.177 328.926,187.669 z M 331.27,187.698 C 331.27,189.768 331.827,191.399 332.941,192.591 C 334.055,193.783 335.453,194.378 337.133,194.378 C 338.845,194.378 340.254,193.776 341.361,192.573 C 342.468,191.37 343.02,189.663 343.02,187.452 C 343.02,186.054 342.784,184.833 342.311,183.79 C 341.837,182.747 341.145,181.938 340.235,181.364 C 339.325,180.79 338.302,180.503 337.169,180.503 C 335.559,180.503 334.173,181.056 333.012,182.161 C 331.851,183.266 331.27,185.112 331.27,187.698 z "
   id="path101" />
	<path
   d="M 348.375,196.034 L 348.375,178.846 L 350.656,178.846 L 350.656,185.909 L 359.547,185.909 L 359.547,178.846 L 361.828,178.846 L 361.828,196.034 L 359.547,196.034 L 359.547,187.94 L 350.656,187.94 L 350.656,196.034 L 348.375,196.034 z "
   id="path103" />
</g>
<path
   d="M 288.7409,173.8002 L 287.1259,173.8002 L 287.1259,146.6777 L 287.9334,145.87115 L 288.7409,146.6777 L 288.7409,173.8002 z "
   id="polygon105" />
<g
   id="g107"
   transform="matrix(0.95,0,0,0.95,9.0457,6.3304)">
	<path
   d="M 325.021,68.619 C 325.021,65.767 325.787,63.534 327.32,61.92 C 328.851,60.307 330.83,59.5 333.252,59.5 C 334.84,59.5 336.27,59.879 337.543,60.637 C 338.817,61.395 339.789,62.452 340.457,63.808 C 341.125,65.164 341.459,66.702 341.459,68.42 C 341.459,70.162 341.107,71.722 340.404,73.097 C 339.701,74.473 338.704,75.514 337.414,76.221 C 336.125,76.928 334.733,77.282 333.24,77.282 C 331.623,77.282 330.176,76.891 328.902,76.11 C 327.628,75.329 326.664,74.262 326.006,72.91 C 325.35,71.558 325.021,70.127 325.021,68.619 z M 327.365,68.648 C 327.365,70.718 327.922,72.349 329.037,73.541 C 330.15,74.732 331.549,75.328 333.228,75.328 C 334.941,75.328 336.349,74.726 337.457,73.523 C 338.562,72.32 339.115,70.613 339.115,68.402 C 339.115,67.004 338.879,65.783 338.406,64.74 C 337.933,63.697 337.241,62.888 336.33,62.314 C 335.42,61.74 334.398,61.453 333.264,61.453 C 331.655,61.453 330.268,62.006 329.108,63.111 C 327.945,64.217 327.365,66.063 327.365,68.648 z "
   id="path109" />
	<path
   d="M 344.471,76.984 L 344.471,59.797 L 346.752,59.797 L 346.752,66.86 L 355.643,66.86 L 355.643,59.797 L 357.924,59.797 L 357.924,76.985 L 355.643,76.985 L 355.643,68.891 L 346.752,68.891 L 346.752,76.985 L 344.471,76.985 L 344.471,76.984 z "
   id="path111" />
</g>
<path
   d="M 315.6259,69.6802 L 315.6259,71.2952 L 288.7409,71.2952 L 287.9334,70.4877 L 288.7409,69.6802 L 315.6259,69.6802 z "
   id="polygon113" />
<g
   id="g115"
   transform="matrix(0.95,0,0,0.95,9.0457,6.3304)">
	<path
   d="M 247.203,76.984 L 247.203,59.797 L 249.484,59.797 L 249.484,66.86 L 258.375,66.86 L 258.375,59.797 L 260.656,59.797 L 260.656,76.985 L 258.375,76.985 L 258.375,68.891 L 249.484,68.891 L 249.484,76.985 L 247.203,76.985 L 247.203,76.984 z "
   id="path117" />
</g>
<path
   d="M 258.76745,71.2952 L 258.76745,69.6802 L 287.1259,69.6802 L 287.9334,70.4877 L 287.1259,71.2952 L 258.76745,71.2952 z "
   id="polygon119" />
<g
   id="g121"
   transform="matrix(0.95,0,0,0.95,9.0457,6.3304)">
	<path
   d="M 326.553,116.685 L 326.553,99.497 L 328.834,99.497 L 328.834,106.56 L 337.725,106.56 L 337.725,99.497 L 340.006,99.497 L 340.006,116.685 L 337.725,116.685 L 337.725,108.591 L 328.834,108.591 L 328.834,116.685 L 326.553,116.685 z "
   id="path123" />
</g>
<path
   d="M 317.1459,107.3952 L 317.1459,109.0102 L 288.7409,109.0102 L 287.9334,108.2027 L 288.7409,107.3952 L 317.1459,107.3952 z "
   id="polygon125" />
<g
   id="g127"
   transform="matrix(0.95,0,0,0.95,9.0457,6.3304)">
	<path
   d="M 229.203,116.685 L 229.203,99.497 L 231.484,99.497 L 231.484,106.56 L 240.375,106.56 L 240.375,99.497 L 242.656,99.497 L 242.656,116.685 L 240.375,116.685 L 240.375,108.591 L 231.484,108.591 L 231.484,116.685 L 229.203,116.685 z "
   id="path129" />
	<path
   d="M 245.754,108.319 C 245.754,105.467 246.52,103.234 248.052,101.62 C 249.584,100.007 251.562,99.2 253.985,99.2 C 255.572,99.2 257.003,99.579 258.276,100.337 C 259.549,101.095 260.521,102.152 261.19,103.508 C 261.858,104.864 262.192,106.402 262.192,108.12 C 262.192,109.862 261.84,111.422 261.137,112.797 C 260.433,114.173 259.436,115.214 258.147,115.921 C 256.857,116.628 255.465,116.982 253.973,116.982 C 252.355,116.982 250.909,116.591 249.635,115.81 C 248.361,115.029 247.396,113.962 246.739,112.61 C 246.082,111.258 245.754,109.827 245.754,108.319 z M 248.098,108.349 C 248.098,110.419 248.655,112.05 249.769,113.242 C 250.883,114.434 252.281,115.029 253.961,115.029 C 255.673,115.029 257.082,114.427 258.189,113.224 C 259.296,112.021 259.848,110.314 259.848,108.103 C 259.848,106.705 259.612,105.484 259.139,104.441 C 258.665,103.398 257.973,102.589 257.063,102.015 C 256.153,101.441 255.13,101.154 253.997,101.154 C 252.387,101.154 251.001,101.707 249.84,102.812 C 248.679,103.917 248.098,105.763 248.098,108.349 z "
   id="path131" />
</g>
<path
   d="M 260.19245,109.0102 L 260.19245,107.3952 L 287.1259,107.3952 L 287.9334,108.2027 L 287.1259,109.0102 L 260.19245,109.0102 z "
   id="polygon133" />
<g
   id="g135"
   transform="matrix(0.95,0,0,0.95,9.0457,6.3304)">
	<path
   d="M 326.553,156.334 L 326.553,139.146 L 328.834,139.146 L 328.834,146.209 L 337.725,146.209 L 337.725,139.146 L 340.006,139.146 L 340.006,156.334 L 337.725,156.334 L 337.725,148.24 L 328.834,148.24 L 328.834,156.334 L 326.553,156.334 z "
   id="path137" />
</g>
<path
   d="M 317.1459,145.0627 L 317.1459,146.6777 L 288.7409,146.6777 L 287.9334,145.87115 L 288.7409,145.0627 L 317.1459,145.0627 z "
   id="polygon139" />
<g
   id="g141"
   transform="matrix(0.95,0,0,0.95,9.0457,6.3304)">
	<path
   d="M 229.203,156.334 L 229.203,139.146 L 231.484,139.146 L 231.484,146.209 L 240.375,146.209 L 240.375,139.146 L 242.656,139.146 L 242.656,156.334 L 240.375,156.334 L 240.375,148.24 L 231.484,148.24 L 231.484,156.334 L 229.203,156.334 z "
   id="path143" />
	<path
   d="M 245.754,147.969 C 245.754,145.117 246.52,142.884 248.052,141.27 C 249.584,139.657 251.562,138.85 253.985,138.85 C 255.572,138.85 257.003,139.229 258.276,139.987 C 259.549,140.745 260.521,141.802 261.19,143.158 C 261.858,144.514 262.192,146.052 262.192,147.77 C 262.192,149.512 261.84,151.072 261.137,152.447 C 260.433,153.823 259.436,154.864 258.147,155.571 C 256.857,156.278 255.465,156.632 253.973,156.632 C 252.355,156.632 250.909,156.241 249.635,155.46 C 248.361,154.679 247.396,153.612 246.739,152.26 C 246.082,150.907 245.754,149.477 245.754,147.969 z M 248.098,147.998 C 248.098,150.068 248.655,151.699 249.769,152.891 C 250.883,154.083 252.281,154.678 253.961,154.678 C 255.673,154.678 257.082,154.076 258.189,152.873 C 259.296,151.67 259.848,149.963 259.848,147.752 C 259.848,146.354 259.612,145.133 259.139,144.09 C 258.665,143.047 257.973,142.238 257.063,141.664 C 256.153,141.09 255.13,140.803 253.997,140.803 C 252.387,140.803 251.001,141.356 249.84,142.461 C 248.679,143.566 248.098,145.412 248.098,147.998 z "
   id="path145" />
</g>
<path
   d="M 260.19245,146.6777 L 260.19245,145.0627 L 287.1259,145.0627 L 287.9334,145.87115 L 287.1259,146.6777 L 260.19245,146.6777 z "
   id="polygon147" />
<g
   id="g149"
   transform="matrix(0.95,0,0,0.95,9.0457,6.3304)">
	<path
   d="M 251.021,9.119 C 251.021,6.267 251.787,4.034 253.32,2.42 C 254.851,0.807 256.83,0 259.252,0 C 260.84,0 262.27,0.379 263.543,1.137 C 264.817,1.895 265.789,2.952 266.457,4.308 C 267.125,5.664 267.459,7.202 267.459,8.92 C 267.459,10.662 267.107,12.222 266.404,13.597 C 265.701,14.973 264.704,16.014 263.414,16.721 C 262.125,17.428 260.733,17.782 259.24,17.782 C 257.623,17.782 256.176,17.391 254.902,16.61 C 253.628,15.829 252.664,14.762 252.006,13.41 C 251.35,12.058 251.021,10.627 251.021,9.119 z M 253.365,9.148 C 253.365,11.218 253.922,12.849 255.037,14.041 C 256.15,15.232 257.549,15.828 259.228,15.828 C 260.941,15.828 262.349,15.226 263.457,14.023 C 264.562,12.82 265.115,11.113 265.115,8.902 C 265.115,7.504 264.879,6.283 264.406,5.24 C 263.933,4.197 263.241,3.388 262.33,2.814 C 261.42,2.24 260.398,1.953 259.264,1.953 C 257.655,1.953 256.268,2.506 255.108,3.611 C 253.945,4.717 253.365,6.563 253.365,9.148 z "
   id="path151" />
</g>
<path
   d="M 262.7109,22.4177 L 263.51745,21.0402 L 288.3609,35.3377 L 287.5534,36.7627 L 262.7109,22.4177 z "
   id="polygon153" />
<path
   d="M 265.5134,17.5252 L 266.3209,16.1477 L 291.1634,30.4452 L 290.35495,31.8702 L 265.5134,17.5252 z "
   id="polygon155" />
<g
   id="g157"
   transform="matrix(0.95,0,0,0.95,9.0457,6.3304)">
	<path
   d="M 321.254,17.484 L 321.254,0.297 L 323.535,0.297 L 323.535,7.36 L 332.426,7.36 L 332.426,0.297 L 334.707,0.297 L 334.707,17.485 L 332.426,17.485 L 332.426,9.391 L 323.535,9.391 L 323.535,17.485 L 321.254,17.485 L 321.254,17.484 z "
   id="path159" />
</g>
<path
   d="M 310.4959,18.8552 L 311.3034,20.2327 L 288.7409,33.2477 L 287.1259,32.3452 L 310.4959,18.8552 z "
   id="polygon161" />
<g
   id="g163"
   transform="matrix(0.95,0,0,0.95,9.0457,6.3304)">
	<path
   d="M 0,252.935 L 0,235.747 L 5.911,235.747 C 7.246,235.747 8.264,235.829 8.967,235.993 C 9.95,236.22 10.789,236.63 11.484,237.224 C 12.389,237.99 13.066,238.969 13.515,240.161 C 13.963,241.353 14.188,242.716 14.188,244.247 C 14.188,245.552 14.036,246.709 13.731,247.718 C 13.427,248.726 13.036,249.56 12.561,250.221 C 12.084,250.881 11.564,251.402 10.998,251.781 C 10.432,252.16 9.749,252.447 8.95,252.642 C 8.151,252.837 7.231,252.935 6.193,252.935 L 0,252.935 L 0,252.935 z M 2.281,250.903 L 5.94,250.903 C 7.07,250.903 7.956,250.798 8.599,250.587 C 9.242,250.376 9.754,250.079 10.136,249.696 C 10.674,249.157 11.093,248.432 11.393,247.522 C 11.693,246.612 11.843,245.508 11.843,244.211 C 11.843,242.414 11.549,241.033 10.96,240.068 C 10.372,239.103 9.657,238.457 8.815,238.129 C 8.207,237.895 7.229,237.777 5.881,237.777 L 2.281,237.777 L 2.281,250.903 z "
   id="path165" />
	<path
   d="M 16.223,247.778 L 16.223,245.653 L 22.723,245.653 L 22.723,247.778 L 16.223,247.778 z "
   id="path167" />
	<path
   d="M 23.425,252.935 L 30.02,235.747 L 32.472,235.747 L 39.507,252.935 L 36.917,252.935 L 34.929,247.732 L 27.716,247.732 L 25.839,252.935 L 23.425,252.935 z M 28.381,245.872 L 34.204,245.872 L 32.418,241.122 C 31.869,239.678 31.46,238.49 31.191,237.559 C 30.974,238.66 30.665,239.752 30.265,240.837 L 28.381,245.872 z "
   id="path169" />
	<path
   d="M 41.035,252.935 L 41.035,240.482 L 42.926,240.482 L 42.926,242.377 C 43.411,241.491 43.86,240.906 44.271,240.625 C 44.682,240.342 45.134,240.201 45.628,240.201 C 46.34,240.201 47.065,240.429 47.801,240.883 L 47.063,242.836 C 46.548,242.537 46.034,242.389 45.52,242.389 C 45.06,242.389 44.647,242.528 44.281,242.805 C 43.915,243.082 43.653,243.467 43.497,243.959 C 43.263,244.709 43.145,245.529 43.145,246.42 L 43.145,252.936 L 41.035,252.936 L 41.035,252.935 z "
   id="path171" />
	<path
   d="M 57.168,251.403 C 56.383,252.065 55.63,252.534 54.908,252.806 C 54.187,253.078 53.413,253.215 52.586,253.215 C 51.221,253.215 50.172,252.881 49.439,252.212 C 48.706,251.543 48.339,250.69 48.339,249.649 C 48.339,249.04 48.478,248.483 48.754,247.978 C 49.031,247.473 49.394,247.069 49.842,246.764 C 50.29,246.459 50.796,246.228 51.357,246.072 C 51.77,245.963 52.394,245.857 53.229,245.756 C 54.929,245.553 56.181,245.31 56.984,245.028 C 56.992,244.739 56.996,244.556 56.996,244.478 C 56.996,243.62 56.797,243.015 56.399,242.664 C 55.861,242.188 55.062,241.95 54.002,241.95 C 53.011,241.95 52.28,242.124 51.809,242.47 C 51.337,242.817 50.988,243.43 50.762,244.31 L 48.699,244.029 C 48.887,243.147 49.195,242.435 49.624,241.892 C 50.054,241.35 50.674,240.932 51.486,240.64 C 52.298,240.347 53.238,240.201 54.308,240.201 C 55.37,240.201 56.232,240.326 56.896,240.576 C 57.559,240.826 58.047,241.14 58.359,241.518 C 58.671,241.897 58.89,242.375 59.015,242.953 C 59.085,243.312 59.12,243.961 59.12,244.899 L 59.12,247.713 C 59.12,249.675 59.165,250.917 59.256,251.438 C 59.346,251.959 59.525,252.458 59.792,252.935 L 57.59,252.935 C 57.371,252.498 57.23,251.987 57.168,251.403 z M 56.996,246.685 C 56.231,246.998 55.083,247.263 53.553,247.482 C 52.687,247.607 52.074,247.748 51.714,247.904 C 51.355,248.06 51.078,248.289 50.883,248.59 C 50.688,248.891 50.59,249.225 50.59,249.592 C 50.59,250.155 50.802,250.623 51.227,250.998 C 51.652,251.373 52.274,251.561 53.092,251.561 C 53.903,251.561 54.623,251.383 55.254,251.028 C 55.886,250.672 56.349,250.185 56.646,249.568 C 56.872,249.091 56.985,248.389 56.985,247.46 L 56.996,246.685 z "
   id="path173" />
	<path
   d="M 64.344,252.935 L 62.391,252.935 L 62.391,235.747 L 64.5,235.747 L 64.5,241.876 C 65.391,240.759 66.528,240.2 67.912,240.2 C 68.678,240.2 69.403,240.354 70.087,240.663 C 70.771,240.972 71.334,241.406 71.775,241.965 C 72.217,242.525 72.563,243.198 72.813,243.987 C 73.063,244.777 73.188,245.622 73.188,246.52 C 73.188,248.654 72.66,250.303 71.605,251.468 C 70.55,252.633 69.283,253.215 67.805,253.215 C 66.335,253.215 65.182,252.602 64.345,251.375 L 64.345,252.935 L 64.344,252.935 z M 64.313,246.614 C 64.313,248.107 64.516,249.186 64.922,249.851 C 65.586,250.938 66.485,251.481 67.617,251.481 C 68.539,251.481 69.336,251.081 70.008,250.279 C 70.68,249.477 71.016,248.284 71.016,246.696 C 71.016,245.07 70.694,243.87 70.049,243.095 C 69.404,242.32 68.625,241.934 67.711,241.934 C 66.789,241.934 65.992,242.334 65.32,243.136 C 64.648,243.938 64.313,245.098 64.313,246.614 z "
   id="path175" />
	<path
   d="M 75.754,238.169 L 75.754,235.747 L 77.863,235.747 L 77.863,238.169 L 75.754,238.169 z M 75.754,252.935 L 75.754,240.482 L 77.863,240.482 L 77.863,252.935 L 75.754,252.935 z "
   id="path177" />
	<path
   d="M 81.07,252.935 L 81.07,240.482 L 82.961,240.482 L 82.961,242.252 C 83.876,240.885 85.196,240.201 86.924,240.201 C 87.674,240.201 88.364,240.336 88.993,240.605 C 89.622,240.875 90.093,241.229 90.406,241.667 C 90.719,242.105 90.938,242.625 91.063,243.227 C 91.141,243.618 91.18,244.302 91.18,245.279 L 91.18,252.936 L 89.07,252.936 L 89.07,245.36 C 89.07,244.501 88.988,243.858 88.824,243.431 C 88.66,243.005 88.369,242.664 87.952,242.41 C 87.534,242.156 87.044,242.029 86.482,242.029 C 85.584,242.029 84.809,242.314 84.157,242.885 C 83.506,243.455 83.179,244.538 83.179,246.133 L 83.179,252.935 L 81.07,252.935 L 81.07,252.935 z "
   id="path179" />
	<path
   d="M 93.637,246.708 C 93.637,244.401 94.278,242.694 95.558,241.584 C 96.628,240.661 97.933,240.2 99.471,240.2 C 101.181,240.2 102.579,240.761 103.665,241.883 C 104.751,243.005 105.293,244.555 105.293,246.532 C 105.293,248.135 105.053,249.395 104.572,250.313 C 104.092,251.232 103.393,251.945 102.475,252.454 C 101.557,252.962 100.556,253.216 99.47,253.216 C 97.728,253.216 96.321,252.657 95.247,251.539 C 94.173,250.421 93.637,248.812 93.637,246.708 z M 95.809,246.71 C 95.809,248.305 96.156,249.498 96.85,250.292 C 97.544,251.085 98.418,251.481 99.471,251.481 C 100.516,251.481 101.386,251.083 102.08,250.286 C 102.774,249.488 103.121,248.273 103.121,246.64 C 103.121,245.101 102.772,243.934 102.074,243.14 C 101.376,242.347 100.508,241.951 99.47,241.951 C 98.417,241.951 97.543,242.346 96.849,243.135 C 96.155,243.924 95.809,245.116 95.809,246.71 z "
   id="path181" />
	<path
   d="M 106.922,249.216 L 109.016,248.888 C 109.133,249.726 109.459,250.367 109.994,250.813 C 110.529,251.259 111.277,251.482 112.237,251.482 C 113.205,251.482 113.924,251.285 114.392,250.89 C 114.86,250.494 115.095,250.031 115.095,249.499 C 115.095,249.022 114.889,248.646 114.477,248.373 C 114.189,248.185 113.472,247.946 112.325,247.657 C 110.781,247.266 109.708,246.928 109.11,246.643 C 108.51,246.358 108.056,245.962 107.747,245.458 C 107.438,244.954 107.283,244.396 107.283,243.787 C 107.283,243.232 107.41,242.719 107.664,242.245 C 107.918,241.772 108.264,241.38 108.701,241.066 C 109.029,240.824 109.476,240.619 110.043,240.451 C 110.61,240.283 111.217,240.199 111.865,240.199 C 112.842,240.199 113.699,240.34 114.437,240.622 C 115.175,240.904 115.72,241.286 116.072,241.768 C 116.424,242.25 116.666,242.893 116.799,243.7 L 114.736,243.981 C 114.642,243.338 114.371,242.836 113.923,242.475 C 113.475,242.115 112.841,241.934 112.022,241.934 C 111.055,241.934 110.364,242.094 109.951,242.414 C 109.537,242.735 109.331,243.11 109.331,243.541 C 109.331,243.814 109.417,244.061 109.589,244.279 C 109.76,244.507 110.029,244.694 110.396,244.842 C 110.606,244.92 111.227,245.101 112.257,245.382 C 113.746,245.78 114.786,246.107 115.376,246.361 C 115.966,246.615 116.429,246.985 116.765,247.469 C 117.101,247.953 117.269,248.556 117.269,249.275 C 117.269,249.978 117.064,250.641 116.653,251.262 C 116.242,251.884 115.65,252.365 114.876,252.704 C 114.102,253.043 113.227,253.214 112.249,253.214 C 110.631,253.214 109.397,252.878 108.549,252.205 C 107.698,251.534 107.156,250.538 106.922,249.216 z "
   id="path183" />
	<path
   d="M 128.273,248.919 L 130.461,249.2 C 130.117,250.472 129.481,251.46 128.551,252.162 C 127.621,252.864 126.434,253.216 124.99,253.216 C 123.17,253.216 121.727,252.655 120.661,251.533 C 119.596,250.411 119.062,248.839 119.062,246.813 C 119.062,244.718 119.601,243.092 120.678,241.935 C 121.756,240.778 123.154,240.2 124.872,240.2 C 126.535,240.2 127.894,240.766 128.949,241.9 C 130.004,243.034 130.531,244.629 130.531,246.684 C 130.531,246.809 130.527,246.997 130.519,247.247 L 121.234,247.247 C 121.312,248.616 121.699,249.663 122.393,250.391 C 123.088,251.119 123.955,251.482 124.994,251.482 C 125.766,251.482 126.427,251.279 126.973,250.871 C 127.52,250.463 127.953,249.813 128.273,248.919 z M 121.359,245.513 L 128.297,245.513 C 128.203,244.465 127.938,243.679 127.502,243.155 C 126.831,242.342 125.961,241.935 124.893,241.935 C 123.926,241.935 123.113,242.259 122.454,242.909 C 121.795,243.559 121.43,244.426 121.359,245.513 z "
   id="path185" />
</g>
<g
   id="g187"
   transform="matrix(0.95,0,0,0.95,9.0457,6.3304)">
	<path
   d="M 229.906,252.935 L 229.906,235.747 L 232.187,235.747 L 232.187,250.903 L 240.625,250.903 L 240.625,252.934 L 229.906,252.934 L 229.906,252.935 z "
   id="path189" />
	<path
   d="M 242.238,247.778 L 242.238,245.653 L 248.738,245.653 L 248.738,247.778 L 242.238,247.778 z "
   id="path191" />
	<path
   d="M 249.441,252.935 L 256.036,235.747 L 258.488,235.747 L 265.523,252.935 L 262.933,252.935 L 260.945,247.732 L 253.732,247.732 L 251.855,252.935 L 249.441,252.935 z M 254.396,245.872 L 260.219,245.872 L 258.433,241.122 C 257.884,239.678 257.475,238.49 257.206,237.559 C 256.989,238.66 256.681,239.752 256.28,240.837 L 254.396,245.872 z "
   id="path193" />
	<path
   d="M 267.051,252.935 L 267.051,240.482 L 268.942,240.482 L 268.942,242.377 C 269.427,241.491 269.876,240.906 270.287,240.625 C 270.698,240.342 271.15,240.201 271.644,240.201 C 272.356,240.201 273.081,240.429 273.817,240.883 L 273.079,242.836 C 272.565,242.537 272.051,242.389 271.536,242.389 C 271.076,242.389 270.663,242.528 270.297,242.805 C 269.931,243.082 269.669,243.467 269.513,243.959 C 269.279,244.709 269.161,245.529 269.161,246.42 L 269.161,252.936 L 267.051,252.936 L 267.051,252.935 z "
   id="path195" />
	<path
   d="M 283.184,251.403 C 282.399,252.065 281.646,252.534 280.924,252.806 C 280.203,253.078 279.429,253.215 278.602,253.215 C 277.238,253.215 276.188,252.881 275.456,252.212 C 274.723,251.543 274.356,250.69 274.356,249.649 C 274.356,249.04 274.495,248.483 274.771,247.978 C 275.048,247.473 275.411,247.069 275.859,246.764 C 276.307,246.459 276.813,246.228 277.374,246.072 C 277.788,245.963 278.411,245.857 279.246,245.756 C 280.946,245.553 282.198,245.31 283.001,245.028 C 283.009,244.739 283.013,244.556 283.013,244.478 C 283.013,243.62 282.814,243.015 282.416,242.664 C 281.878,242.188 281.079,241.95 280.019,241.95 C 279.029,241.95 278.297,242.124 277.826,242.47 C 277.354,242.817 277.006,243.43 276.779,244.31 L 274.716,244.029 C 274.904,243.147 275.212,242.435 275.641,241.892 C 276.071,241.35 276.691,240.932 277.503,240.64 C 278.315,240.347 279.255,240.201 280.325,240.201 C 281.387,240.201 282.249,240.326 282.913,240.576 C 283.576,240.826 284.064,241.14 284.376,241.518 C 284.689,241.897 284.907,242.375 285.032,242.953 C 285.102,243.312 285.137,243.961 285.137,244.899 L 285.137,247.713 C 285.137,249.675 285.182,250.917 285.273,251.438 C 285.363,251.959 285.542,252.458 285.809,252.935 L 283.606,252.935 C 283.387,252.498 283.246,251.987 283.184,251.403 z M 283.012,246.685 C 282.246,246.998 281.099,247.263 279.569,247.482 C 278.703,247.607 278.09,247.748 277.73,247.904 C 277.372,248.06 277.094,248.289 276.899,248.59 C 276.704,248.891 276.606,249.225 276.606,249.592 C 276.606,250.155 276.818,250.623 277.243,250.998 C 277.668,251.373 278.29,251.561 279.108,251.561 C 279.919,251.561 280.639,251.383 281.27,251.028 C 281.902,250.672 282.366,250.185 282.662,249.568 C 282.888,249.091 283.001,248.389 283.001,247.46 L 283.012,246.685 z "
   id="path197" />
	<path
   d="M 290.359,252.935 L 288.406,252.935 L 288.406,235.747 L 290.515,235.747 L 290.515,241.876 C 291.406,240.759 292.543,240.2 293.927,240.2 C 294.693,240.2 295.417,240.354 296.101,240.663 C 296.786,240.972 297.348,241.406 297.789,241.965 C 298.231,242.525 298.577,243.198 298.827,243.987 C 299.077,244.777 299.202,245.622 299.202,246.52 C 299.202,248.654 298.675,250.303 297.618,251.468 C 296.563,252.633 295.296,253.215 293.818,253.215 C 292.348,253.215 291.195,252.602 290.358,251.375 L 290.358,252.935 L 290.359,252.935 z M 290.328,246.614 C 290.328,248.107 290.531,249.186 290.937,249.851 C 291.601,250.938 292.5,251.481 293.632,251.481 C 294.554,251.481 295.351,251.081 296.023,250.279 C 296.695,249.477 297.031,248.284 297.031,246.696 C 297.031,245.07 296.709,243.87 296.064,243.095 C 295.419,242.32 294.64,241.934 293.726,241.934 C 292.804,241.934 292.007,242.334 291.335,243.136 C 290.663,243.938 290.328,245.098 290.328,246.614 z "
   id="path199" />
	<path
   d="M 301.77,238.169 L 301.77,235.747 L 303.879,235.747 L 303.879,238.169 L 301.77,238.169 z M 301.77,252.935 L 301.77,240.482 L 303.879,240.482 L 303.879,252.935 L 301.77,252.935 z "
   id="path201" />
	<path
   d="M 307.086,252.935 L 307.086,240.482 L 308.977,240.482 L 308.977,242.252 C 309.891,240.885 311.212,240.201 312.94,240.201 C 313.69,240.201 314.379,240.336 315.009,240.605 C 315.638,240.875 316.11,241.229 316.422,241.667 C 316.734,242.105 316.953,242.625 317.078,243.227 C 317.156,243.618 317.195,244.302 317.195,245.279 L 317.195,252.936 L 315.086,252.936 L 315.086,245.36 C 315.086,244.501 315.004,243.858 314.84,243.431 C 314.676,243.005 314.385,242.664 313.968,242.41 C 313.55,242.156 313.06,242.029 312.498,242.029 C 311.6,242.029 310.825,242.314 310.173,242.885 C 309.522,243.455 309.195,244.538 309.195,246.133 L 309.195,252.935 L 307.086,252.935 L 307.086,252.935 z "
   id="path203" />
	<path
   d="M 319.652,246.708 C 319.652,244.401 320.293,242.694 321.573,241.584 C 322.643,240.661 323.947,240.2 325.486,240.2 C 327.196,240.2 328.594,240.761 329.679,241.883 C 330.765,243.005 331.308,244.555 331.308,246.532 C 331.308,248.135 331.068,249.395 330.587,250.313 C 330.107,251.232 329.407,251.945 328.49,252.454 C 327.572,252.962 326.571,253.216 325.485,253.216 C 323.743,253.216 322.336,252.657 321.262,251.539 C 320.189,250.421 319.652,248.812 319.652,246.708 z M 321.824,246.71 C 321.824,248.305 322.171,249.498 322.865,250.292 C 323.559,251.085 324.433,251.481 325.486,251.481 C 326.531,251.481 327.401,251.083 328.095,250.286 C 328.788,249.488 329.136,248.273 329.136,246.64 C 329.136,245.101 328.786,243.934 328.089,243.14 C 327.391,242.347 326.523,241.951 325.485,241.951 C 324.432,241.951 323.558,242.346 322.864,243.135 C 322.171,243.924 321.824,245.116 321.824,246.71 z "
   id="path205" />
	<path
   d="M 332.938,249.216 L 335.032,248.888 C 335.149,249.726 335.475,250.367 336.01,250.813 C 336.545,251.259 337.292,251.482 338.253,251.482 C 339.221,251.482 339.94,251.285 340.407,250.89 C 340.876,250.494 341.11,250.031 341.11,249.499 C 341.11,249.022 340.904,248.646 340.492,248.373 C 340.204,248.185 339.487,247.946 338.341,247.657 C 336.796,247.266 335.724,246.928 335.125,246.643 C 334.525,246.358 334.071,245.962 333.762,245.458 C 333.453,244.954 333.298,244.396 333.298,243.787 C 333.298,243.232 333.425,242.719 333.679,242.245 C 333.933,241.772 334.279,241.38 334.716,241.066 C 335.044,240.824 335.491,240.619 336.058,240.451 C 336.625,240.283 337.232,240.199 337.88,240.199 C 338.857,240.199 339.714,240.34 340.452,240.622 C 341.19,240.904 341.735,241.286 342.087,241.768 C 342.439,242.25 342.681,242.893 342.814,243.7 L 340.751,243.981 C 340.657,243.338 340.386,242.836 339.938,242.475 C 339.49,242.115 338.856,241.934 338.037,241.934 C 337.07,241.934 336.379,242.094 335.966,242.414 C 335.553,242.735 335.346,243.11 335.346,243.541 C 335.346,243.814 335.432,244.061 335.604,244.279 C 335.775,244.507 336.044,244.694 336.411,244.842 C 336.622,244.92 337.242,245.101 338.272,245.382 C 339.761,245.78 340.801,246.107 341.391,246.361 C 341.981,246.615 342.444,246.985 342.78,247.469 C 343.116,247.953 343.284,248.556 343.284,249.275 C 343.284,249.978 343.079,250.641 342.669,251.262 C 342.258,251.884 341.665,252.365 340.892,252.704 C 340.119,253.043 339.243,253.214 338.265,253.214 C 336.647,253.214 335.413,252.878 334.565,252.205 C 333.717,251.532 333.172,250.538 332.938,249.216 z "
   id="path207" />
	<path
   d="M 354.289,248.919 L 356.477,249.2 C 356.133,250.472 355.497,251.46 354.567,252.162 C 353.638,252.864 352.451,253.216 351.006,253.216 C 349.186,253.216 347.743,252.655 346.677,251.533 C 345.612,250.411 345.078,248.839 345.078,246.813 C 345.078,244.718 345.617,243.092 346.694,241.935 C 347.772,240.778 349.17,240.2 350.888,240.2 C 352.551,240.2 353.91,240.766 354.964,241.9 C 356.019,243.034 356.546,244.629 356.546,246.684 C 356.546,246.809 356.542,246.997 356.534,247.247 L 347.249,247.247 C 347.327,248.616 347.714,249.663 348.408,250.391 C 349.103,251.119 349.97,251.482 351.009,251.482 C 351.781,251.482 352.442,251.279 352.988,250.871 C 353.535,250.463 353.969,249.813 354.289,248.919 z M 347.375,245.513 L 354.313,245.513 C 354.219,244.465 353.954,243.679 353.518,243.155 C 352.846,242.342 351.977,241.935 350.909,241.935 C 349.942,241.935 349.129,242.259 348.47,242.909 C 347.811,243.559 347.445,244.426 347.375,245.513 z "
   id="path209" />
</g>
</svg>