<svg xmlns="http://www.w3.org/2000/svg" width="360.63" height="273.42" xml:space="preserve"><path d="M70.812 6.844c-1.437 0-2.74.311-3.937.968-1.198.658-2.132 1.64-2.781 2.907-.65 1.266-.969 2.736-.969 4.437 0 1.56.3 3.016.875 4.375s1.399 2.408 2.5 3.125 2.524 1.063 4.281 1.063c1.698 0 3.138-.474 4.313-1.407q1.76-1.397 2.437-4.062l-2.156-.531c-.296 1.372-.85 2.395-1.688 3.093s-1.855 1.063-3.062 1.063c-.993 0-1.93-.27-2.781-.781s-1.472-1.277-1.875-2.313-.594-2.237-.594-3.625c0-1.076.159-2.142.5-3.156s.94-1.805 1.781-2.406c.842-.602 1.873-.906 3.125-.906 1.089 0 2 .27 2.719.812s1.278 1.406 1.656 2.594l2.094-.5c-.437-1.509-1.2-2.667-2.313-3.5-1.111-.832-2.493-1.25-4.125-1.25m40.75 0c-2.301 0-4.17.749-5.625 2.281s-2.187 3.666-2.187 6.375c0 1.433.313 2.778.937 4.063s1.54 2.32 2.75 3.062 2.588 1.094 4.125 1.094c1.419 0 2.744-.329 3.97-1s2.174-1.662 2.843-2.969q1.001-1.958 1-4.437c0-1.633-.334-3.087-.969-4.376-.635-1.288-1.54-2.31-2.75-3.03s-2.586-1.063-4.094-1.063m175.875 0c-1.438 0-2.771.311-3.968.968-1.198.658-2.102 1.64-2.75 2.907-.65 1.266-1 2.736-1 4.437 0 1.56.3 3.016.875 4.375s1.399 2.408 2.5 3.125 2.555 1.063 4.312 1.063c1.698 0 3.138-.474 4.313-1.407q1.76-1.397 2.437-4.062l-2.187-.531c-.296 1.372-.85 2.395-1.688 3.093s-1.855 1.063-3.062 1.063c-.992 0-1.93-.27-2.782-.781s-1.472-1.277-1.875-2.313c-.404-1.035-.593-2.237-.593-3.625 0-1.076.159-2.142.5-3.156s.94-1.805 1.781-2.406 1.873-.906 3.125-.906c1.089 0 2 .27 2.719.812.717.542 1.279 1.406 1.656 2.594l2.125-.5c-.437-1.509-1.231-2.667-2.344-3.5-1.111-.832-2.462-1.25-4.094-1.25m40.75 0c-2.301 0-4.2.749-5.656 2.281s-2.187 3.666-2.187 6.375c0 1.433.313 2.778.937 4.063s1.54 2.32 2.75 3.062 2.588 1.094 4.125 1.094a8.1 8.1 0 0 0 3.969-1q1.839-1.008 2.844-2.969 1.001-1.958 1-4.437c0-1.633-.303-3.087-.938-4.376-.635-1.288-1.572-2.31-2.781-3.03s-2.555-1.063-4.063-1.063m-247.906.281v16.313h2.188V15.75h8.437v7.688h2.156V7.125h-2.156v6.688H82.47V7.125zm41.938 0v16.313h2.187V15.75h8.438v7.688H135V7.125h-2.156v6.688h-8.438V7.125zm174.687 0v16.313h2.156V15.75h8.438v7.688h2.187V7.125H307.5v6.688h-8.438V7.125zm41.938 0v16.313H341V15.75h8.437v7.688h2.157V7.125h-2.157v6.688H341V7.125zm-227.25 1.563c1.076 0 2.04.267 2.906.812.865.545 1.52 1.322 1.969 2.313.45.99.687 2.14.687 3.468 0 2.1-.543 3.732-1.594 4.875s-2.373 1.719-4 1.719c-1.596 0-2.941-.555-4-1.687-1.058-1.133-1.593-2.69-1.593-4.657 0-2.456.553-4.2 1.656-5.25s2.44-1.594 3.969-1.594m216.593 0c1.077 0 2.042.267 2.907.812s1.518 1.322 1.968 2.313c.45.99.688 2.14.688 3.468 0 2.1-.542 3.732-1.594 4.875-1.051 1.143-2.373 1.719-4 1.719-1.596 0-2.941-.555-4-1.687s-1.562-2.69-1.562-4.657c0-2.456.522-4.2 1.625-5.25s2.439-1.594 3.968-1.594m-229.53 6.75c-1.167 0-2.09.3-2.782.906-.693.605-1.113 1.47-1.219 2.625l1.563.187c.005-.77.22-1.377.656-1.812s1.022-.657 1.75-.657c.687 0 1.229.186 1.656.594.428.409.656.906.656 1.5 0 .57-.245 1.176-.718 1.813-.473.636-1.362 1.5-2.688 2.593-.855.7-1.513 1.342-1.969 1.875q-.686.8-1 1.625c-.129.336-.198.67-.187 1.032h8.125V26.28h-6.031a5 5 0 0 1 .656-.812c.257-.27.815-.774 1.719-1.532 1.079-.912 1.877-1.632 2.343-2.156s.8-1.027 1-1.5.282-.946.282-1.437c0-.965-.346-1.786-1.032-2.438s-1.604-.968-2.78-.968m216.593 0c-1.166 0-2.089.3-2.781.906-.693.605-1.082 1.47-1.188 2.625l1.531.187c.006-.77.22-1.377.657-1.812.436-.436 1.022-.657 1.75-.657.688 0 1.26.186 1.687.594s.625.906.625 1.5c0 .57-.245 1.176-.719 1.813-.473.636-1.362 1.5-2.687 2.593-.855.7-1.512 1.342-1.969 1.875s-.792 1.074-1 1.625A2.6 2.6 0 0 0 311 27.72h8.094v-1.44h-6.032c.17-.272.4-.541.657-.812.257-.27.847-.774 1.75-1.532 1.079-.912 1.845-1.632 2.312-2.156s.799-1.027 1-1.5.281-.946.281-1.437c0-.965-.314-1.786-1-2.438-.684-.651-1.635-.968-2.812-.968M69.344 25.874v63.219H42.406v1.625h26.938v36.031H41v1.625h28.344v36.094H41v1.625h28.344v27.125h1.625v-27.125h26.875v-1.625H70.969v-36.094h26.875v-1.625H70.969v-36.03h28.406v-1.625H70.969v-33.25h26.875v-1.625H70.969v-4.032h26.875v-1.624H70.969V25.875zm216.593 0v63.219h-28.343v1.625h28.343v36.031h-26.906v1.625h26.906v36.094h-26.906v1.625h26.906v27.125h1.625v-27.125h28.407v-1.625h-28.407v-36.094h28.407v-1.625h-28.407v-36.03h26.875v-1.625h-26.875v-33.25h26.875v-1.625h-26.875v-4.032h26.875v-1.624h-26.875V25.875zM107.875 44.563c-2.302 0-4.2.748-5.656 2.28-1.456 1.534-2.188 3.666-2.188 6.376 0 1.432.314 2.778.938 4.062s1.54 2.32 2.75 3.063c1.21.742 2.588 1.093 4.125 1.093a8.1 8.1 0 0 0 3.968-1q1.84-1.007 2.844-2.968c.668-1.307 1-2.783 1-4.438 0-1.632-.303-3.087-.937-4.375-.636-1.288-1.571-2.31-2.782-3.031s-2.554-1.062-4.062-1.062m216.594 0c-2.301 0-4.202.748-5.657 2.28-1.456 1.534-2.156 3.666-2.156 6.376 0 1.432.314 2.778.938 4.062.625 1.285 1.54 2.32 2.75 3.063s2.557 1.093 4.093 1.093a8.1 8.1 0 0 0 3.97-1q1.84-1.007 2.843-2.968c.668-1.307 1-2.783 1-4.438 0-1.632-.303-3.087-.938-4.375a7.13 7.13 0 0 0-2.78-3.031c-1.21-.72-2.555-1.062-4.063-1.062m-216.594 1.843c1.076 0 2.04.267 2.906.813s1.52 1.321 1.969 2.312.687 2.14.687 3.469c0 2.1-.543 3.732-1.593 4.875-1.052 1.143-2.374 1.719-4 1.719-1.596 0-2.942-.587-4-1.719s-1.563-2.658-1.563-4.625c0-2.457.554-4.231 1.656-5.281 1.103-1.05 2.408-1.563 3.938-1.563m216.594 0c1.077 0 2.041.267 2.906.813s1.52 1.321 1.969 2.312.687 2.14.687 3.469c0 2.1-.513 3.732-1.562 4.875-1.053 1.143-2.404 1.719-4.032 1.719-1.595 0-2.91-.588-3.968-1.719-1.06-1.132-1.594-2.658-1.594-4.625 0-2.457.551-4.231 1.656-5.281 1.102-1.05 2.41-1.563 3.938-1.563M32.562 82.281c-2.301 0-4.17.75-5.625 2.281-1.455 1.534-2.187 3.666-2.187 6.376A9.16 9.16 0 0 0 25.687 95c.625 1.284 1.54 2.29 2.75 3.031s2.588 1.125 4.125 1.125c1.419 0 2.712-.328 3.938-1s2.175-1.661 2.844-2.969c.668-1.306 1-2.782 1-4.437 0-1.632-.303-3.118-.938-4.406s-1.57-2.28-2.781-3-2.555-1.063-4.063-1.063m291.907 0c-2.301 0-4.202.75-5.657 2.281-1.456 1.534-2.156 3.666-2.156 6.376a9.16 9.16 0 0 0 .938 4.062c.625 1.284 1.54 2.29 2.75 3.031s2.557 1.125 4.093 1.125a8.1 8.1 0 0 0 3.97-1q1.84-1.007 2.843-2.969c.668-1.306 1-2.782 1-4.437 0-1.632-.303-3.118-.938-4.406a7.05 7.05 0 0 0-2.78-3c-1.21-.72-2.555-1.063-4.063-1.063M9.03 82.562v16.313h2.156v-7.687h8.438v7.687h2.156V82.563h-2.156v6.687h-8.438v-6.687zm92.469 0v16.313h2.156v-7.687h8.469v7.687h2.156V82.563h-2.156v6.687h-8.469v-6.687zm141.219 0v16.313h2.156v-7.687h8.469v7.687h2.156V82.563h-2.156v6.687h-8.469v-6.687zm92.406 0v16.313h2.156v-7.687h8.438v7.687h2.187V82.563h-2.187v6.687h-8.438v-6.687zM32.562 84.126c1.077 0 2.041.267 2.907.813s1.55 1.321 2 2.312.656 2.14.656 3.469c0 2.1-.512 3.732-1.563 4.875s-2.404 1.719-4.03 1.719c-1.597 0-2.911-.587-3.97-1.72s-1.593-2.658-1.593-4.624c0-2.457.553-4.232 1.656-5.281s2.408-1.563 3.937-1.563m291.907 0c1.077 0 2.041.267 2.906.813s1.52 1.321 1.969 2.312.687 2.14.687 3.469c0 2.1-.513 3.732-1.562 4.875-1.053 1.143-2.404 1.719-4.032 1.719-1.595 0-2.91-.588-3.968-1.72-1.06-1.132-1.594-2.658-1.594-4.624 0-2.457.551-4.232 1.656-5.281 1.102-1.05 2.41-1.563 3.938-1.563m-216.594 35.813c-2.302 0-4.2.748-5.656 2.28-1.456 1.534-2.188 3.666-2.188 6.376 0 1.432.314 2.808.938 4.094a7.14 7.14 0 0 0 2.75 3.03c1.21.743 2.588 1.095 4.125 1.095a8.1 8.1 0 0 0 3.968-1q1.84-1.008 2.844-2.97 1.001-1.956 1-4.437c0-1.632-.303-3.087-.937-4.375-.636-1.288-1.571-2.31-2.782-3.031s-2.554-1.062-4.062-1.062m141.281 0c-2.302 0-4.17.748-5.625 2.28-1.455 1.534-2.187 3.666-2.187 6.376 0 1.432.313 2.808.937 4.094.624 1.284 1.54 2.289 2.75 3.03s2.588 1.095 4.125 1.095a8.1 8.1 0 0 0 3.969-1c1.225-.672 2.144-1.662 2.812-2.97.668-1.305 1.032-2.782 1.032-4.437 0-1.632-.334-3.087-.969-4.375-.636-1.288-1.54-2.31-2.75-3.031s-2.586-1.062-4.094-1.062m-223.031.28v16.313h2.156v-7.687h8.438v7.687h2.187V120.22H36.72v6.719h-8.44v-6.72zm92.406 0v16.313h2.156v-7.687h8.438v7.687h2.187V120.22h-2.187v6.719h-8.438v-6.72zm107.094 0v16.313h2.156v-7.687h8.438v7.687h2.187V120.22h-2.187v6.719h-8.438v-6.72zm92.469 0v16.313h2.156v-7.687h8.469v7.687h2.156V120.22h-2.156v6.719h-8.469v-6.72zm-210.219 1.563c1.076 0 2.04.267 2.906.813s1.52 1.321 1.969 2.312.687 2.14.687 3.469c0 2.1-.543 3.732-1.593 4.875-1.052 1.143-2.374 1.719-4 1.719-1.596 0-2.942-.555-4-1.688s-1.563-2.69-1.563-4.656c0-2.457.554-4.2 1.656-5.25 1.103-1.05 2.408-1.594 3.938-1.594m141.281 0c1.077 0 2.073.267 2.938.813s1.518 1.321 1.968 2.312.657 2.14.657 3.469c0 2.1-.511 3.732-1.563 4.875-1.051 1.143-2.405 1.719-4.031 1.719-1.596 0-2.91-.555-3.969-1.688s-1.594-2.69-1.594-4.656c0-2.457.554-4.2 1.657-5.25s2.408-1.594 3.937-1.594m-141.281 35.875c-2.302 0-4.2.75-5.656 2.281-1.456 1.534-2.188 3.666-2.188 6.375 0 1.433.314 2.779.938 4.063s1.54 2.32 2.75 3.063c1.21.741 2.588 1.093 4.125 1.093a8.1 8.1 0 0 0 3.968-1q1.84-1.007 2.844-2.969c.668-1.306 1-2.782 1-4.437 0-1.632-.303-3.087-.937-4.375-.636-1.288-1.571-2.311-2.782-3.031s-2.554-1.063-4.062-1.063m141.281 0c-2.302 0-4.17.75-5.625 2.281-1.455 1.534-2.187 3.666-2.187 6.375 0 1.433.313 2.779.937 4.063s1.54 2.32 2.75 3.063 2.588 1.093 4.125 1.093a8.1 8.1 0 0 0 3.969-1c1.225-.671 2.144-1.661 2.812-2.969.668-1.306 1.032-2.782 1.032-4.437 0-1.632-.334-3.087-.969-4.375-.636-1.288-1.54-2.311-2.75-3.031s-2.586-1.063-4.094-1.063m-223.031.281v16.313h2.156v-7.687h8.438v7.687h2.187v-16.312H36.72v6.687h-8.44v-6.687zm92.406 0v16.313h2.156v-7.687h8.438v7.687h2.187v-16.312h-2.187v6.687h-8.438v-6.687zm107.094 0v16.313h2.156v-7.687h8.438v7.687h2.187v-16.312h-2.187v6.687h-8.438v-6.687zm92.469 0v16.313h2.156v-7.687h8.469v7.687h2.156v-16.312h-2.156v6.687h-8.469v-6.687zM107.875 159.5c1.076 0 2.04.267 2.906.813s1.52 1.321 1.969 2.312.687 2.14.687 3.469c0 2.1-.543 3.732-1.593 4.875-1.052 1.143-2.374 1.719-4 1.719-1.596 0-2.942-.556-4-1.688s-1.563-2.69-1.563-4.656c0-2.456.554-4.2 1.656-5.25 1.103-1.05 2.408-1.594 3.938-1.594m141.281 0c1.077 0 2.073.267 2.938.813s1.518 1.321 1.968 2.312.657 2.14.657 3.469c0 2.1-.511 3.732-1.563 4.875-1.051 1.143-2.405 1.719-4.031 1.719-1.596 0-2.91-.556-3.969-1.688s-1.594-2.69-1.594-4.656c0-2.456.554-4.2 1.657-5.25s2.408-1.594 3.937-1.594M70.812 195.375c-1.438 0-2.74.311-3.937.969-1.198.657-2.132 1.639-2.781 2.906-.65 1.266-.969 2.736-.969 4.438 0 1.56.3 3.015.875 4.375s1.399 2.407 2.5 3.125 2.524 1.062 4.281 1.062c1.698 0 3.138-.473 4.313-1.406q1.76-1.398 2.437-4.063l-2.156-.531c-.296 1.374-.85 2.396-1.688 3.094s-1.855 1.062-3.062 1.062c-.993 0-1.93-.269-2.781-.781s-1.472-1.277-1.875-2.312-.594-2.238-.594-3.625c0-1.077.159-2.143.5-3.157s.94-1.805 1.781-2.406c.842-.601 1.873-.906 3.125-.906 1.089 0 2 .27 2.719.812s1.278 1.406 1.656 2.594l2.094-.5c-.437-1.509-1.2-2.667-2.313-3.5-1.111-.832-2.493-1.25-4.125-1.25m40.75 0c-2.301 0-4.17.749-5.625 2.281-1.455 1.534-2.187 3.666-2.187 6.375 0 1.433.313 2.778.937 4.063s1.54 2.32 2.75 3.062 2.588 1.094 4.125 1.094c1.419 0 2.744-.328 3.97-1s2.174-1.662 2.843-2.969c.668-1.306 1-2.782 1-4.437 0-1.632-.334-3.087-.969-4.375s-1.54-2.311-2.75-3.031-2.586-1.063-4.094-1.063m175.875 0c-1.438 0-2.771.311-3.968.969s-2.102 1.639-2.75 2.906c-.65 1.266-1 2.736-1 4.438 0 1.56.3 3.015.875 4.375s1.399 2.407 2.5 3.125 2.555 1.062 4.312 1.062c1.698 0 3.138-.473 4.313-1.406q1.76-1.398 2.437-4.063l-2.187-.531c-.296 1.374-.85 2.396-1.688 3.094s-1.855 1.062-3.062 1.062c-.992 0-1.93-.269-2.782-.781s-1.472-1.277-1.875-2.312c-.404-1.036-.593-2.238-.593-3.625 0-1.077.159-2.143.5-3.157s.94-1.805 1.781-2.406 1.873-.906 3.125-.906c1.089 0 2 .27 2.719.812.717.542 1.279 1.406 1.656 2.594l2.125-.5c-.437-1.509-1.231-2.667-2.344-3.5-1.111-.832-2.462-1.25-4.094-1.25m40.75 0c-2.301 0-4.2.749-5.656 2.281-1.455 1.534-2.187 3.666-2.187 6.375 0 1.433.313 2.778.937 4.063s1.54 2.32 2.75 3.062 2.588 1.094 4.125 1.094a8.1 8.1 0 0 0 3.969-1q1.839-1.008 2.844-2.969c.668-1.306 1-2.782 1-4.437 0-1.632-.303-3.087-.938-4.375s-1.572-2.311-2.781-3.031-2.555-1.063-4.063-1.063m-247.906.281v16.313h2.188v-7.688h8.437v7.688h2.156v-16.313h-2.156v6.688H82.47v-6.688zm41.938 0v16.313h2.187v-7.688h8.438v7.688H135v-16.313h-2.156v6.688h-8.438v-6.688zm174.687 0v16.313h2.156v-7.688h8.438v7.688h2.187v-16.313H307.5v6.688h-8.438v-6.688zm41.938 0v16.313H341v-7.688h8.437v7.688h2.157v-16.313h-2.157v6.688H341v-6.688zm-227.25 1.563c1.076 0 2.04.267 2.906.812.865.546 1.52 1.322 1.969 2.313.45.99.687 2.14.687 3.469 0 2.1-.543 3.732-1.594 4.875s-2.373 1.718-4 1.718c-1.596 0-2.941-.586-4-1.719-1.058-1.132-1.593-2.658-1.593-4.625 0-2.456.553-4.231 1.656-5.28s2.44-1.563 3.969-1.563m216.593 0c1.077 0 2.042.267 2.907.812s1.518 1.322 1.968 2.313c.45.99.688 2.14.688 3.469 0 2.1-.542 3.732-1.594 4.875-1.051 1.142-2.373 1.718-4 1.718-1.596 0-2.941-.586-4-1.719s-1.562-2.658-1.562-4.625c0-2.456.522-4.231 1.625-5.28s2.439-1.563 3.968-1.563m-229.53 6.75c-1.167 0-2.09.3-2.782.906-.693.605-1.113 1.47-1.219 2.625l1.563.156c.005-.77.22-1.377.656-1.812s1.022-.625 1.75-.625c.687 0 1.229.185 1.656.594.428.408.656.905.656 1.5 0 .569-.245 1.176-.718 1.812s-1.362 1.5-2.688 2.594c-.855.7-1.513 1.31-1.969 1.844a5.6 5.6 0 0 0-1 1.656c-.129.335-.198.67-.187 1.031h8.125v-1.437h-6.031a5 5 0 0 1 .656-.813c.257-.269.815-.774 1.719-1.531 1.079-.913 1.877-1.633 2.343-2.156q.7-.789 1-1.5c.3-.711.282-.978.282-1.47 0-.963-.346-1.754-1.032-2.405s-1.604-.97-2.78-.97m216.593 0c-1.166 0-2.089.3-2.781.906-.693.605-1.082 1.47-1.188 2.625l1.531.156c.006-.77.22-1.377.657-1.812.436-.436 1.022-.625 1.75-.625.688 0 1.26.185 1.687.594s.625.905.625 1.5c0 .569-.245 1.176-.719 1.812-.473.637-1.362 1.5-2.687 2.594-.855.7-1.512 1.31-1.969 1.844s-.792 1.105-1 1.656a2.6 2.6 0 0 0-.156 1.031h8.094v-1.437h-6.032c.17-.273.4-.542.657-.813.257-.269.847-.774 1.75-1.531 1.079-.913 1.845-1.633 2.312-2.156q.699-.789 1-1.5c.2-.474.281-.978.281-1.47 0-.963-.314-1.754-1-2.405-.684-.652-1.635-.97-2.812-.97M14.875 250v16.313h5.875c.986 0 1.866-.096 2.625-.282s1.4-.452 1.937-.812 1.047-.842 1.5-1.469c.452-.628.837-1.449 1.125-2.406.29-.959.407-2.042.407-3.281 0-1.455-.2-2.743-.625-3.875-.427-1.133-1.078-2.085-1.938-2.813-.66-.564-1.44-.94-2.375-1.156-.668-.156-1.638-.219-2.906-.219zm24.156 0v16.313h2.188v-7.407h7.625v-1.937h-7.625v-5.063h8.812V250zm194.25 0v16.313h10.188v-1.938h-8V250zm20.469 0v16.313h2.187v-7.407h7.625v-1.937h-7.625v-5.063h8.813V250zm-167.094.344-2 1.219v2.906h-1.5v1.562h1.5v6.813c0 1.203.056 2 .219 2.375s.442.675.844.906.99.344 1.718.344c.447 0 .935-.038 1.5-.156l-.28-1.782a6 6 0 0 1-.876.063c-.295 0-.529-.03-.687-.125s-.274-.242-.344-.406-.094-.521-.094-1.094v-6.938h2v-1.562h-2zm214.688 0-2 1.219v2.906h-1.469v1.562h1.469v6.813c0 1.203.086 2 .25 2.375s.442.675.843.906c.402.23.99.344 1.72.344.446 0 .934-.038 1.5-.156l-.282-1.782a6 6 0 0 1-.875.063c-.295 0-.529-.03-.688-.125s-.273-.242-.343-.406-.125-.521-.125-1.094v-6.938h2.031v-1.562h-2.031zM17.03 251.906h3.438c1.28 0 2.203.122 2.781.344.8.312 1.473.927 2.031 1.844.56.917.844 2.23.844 3.937 0 1.232-.153 2.292-.438 3.156s-.676 1.55-1.187 2.063c-.363.364-.827.643-1.438.844s-1.457.281-2.53.281h-3.5zm39.906 2.313c-.469 0-.89.137-1.28.406-.391.267-.821.815-1.282 1.656v-1.812h-1.781v11.844h2v-6.188c0-.846.09-1.631.312-2.344.148-.467.403-.83.75-1.094s.75-.406 1.188-.406c.488 0 .98.154 1.468.438l.688-1.844c-.7-.431-1.386-.656-2.063-.656m20.72 0a5.8 5.8 0 0 0-2.845.719c-.864.48-1.483 1.198-1.906 2.156s-.656 2.066-.656 3.344c0 1.976.516 3.504 1.5 4.562s2.287 1.594 3.906 1.594c1.291 0 2.363-.389 3.25-1.156q1.332-1.151 1.656-3.188l-1.968-.281c-.142 1.004-.474 1.767-1 2.25-.527.483-1.182.719-1.969.719-.98 0-1.766-.373-2.375-1.094-.608-.72-.938-1.879-.938-3.469 0-1.567.338-2.713.97-3.437s1.427-1.063 2.437-1.063c.668 0 1.247.194 1.718.594s.815.989 1 1.781l1.938-.281c-.23-1.195-.746-2.133-1.563-2.781s-1.871-.97-3.156-.97m17.75 0q-2.194-.002-3.72 1.312c-1.216 1.055-1.812 2.684-1.812 4.875q0 3 1.531 4.594c1.531 1.594 2.345 1.594 4 1.594a5.8 5.8 0 0 0 2.844-.75 4.86 4.86 0 0 0 2-2.031q.686-1.31.687-3.594c0-1.878-.53-3.34-1.562-4.406s-2.344-1.594-3.969-1.594m11.78 0c-.615 0-1.21.09-1.75.25-.538.16-.938.332-1.25.562a3.3 3.3 0 0 0-1 1.125c-.24.45-.375.942-.375 1.469 0 .579.176 1.115.47 1.594s.71.854 1.28 1.125c.569.27 1.596.597 3.063.969 1.09.274 1.758.477 2.031.656.392.26.594.64.594 1.094 0 .505-.212.936-.656 1.312-.445.375-1.143.563-2.063.563-.912 0-1.616-.202-2.125-.625-.508-.424-.826-1.048-.937-1.844l-2 .312c.222 1.256.754 2.207 1.562 2.844.806.64 1.963.969 3.5.969.93 0 1.765-.178 2.5-.5s1.297-.784 1.688-1.375c.39-.59.593-1.207.593-1.875 0-.683-.15-1.26-.468-1.719-.32-.46-.784-.821-1.344-1.062s-1.523-.56-2.938-.938c-.978-.267-1.581-.426-1.78-.5-.35-.14-.588-.315-.75-.531a1.16 1.16 0 0 1-.25-.719c0-.41.2-.758.593-1.062s1.05-.438 1.969-.438c.778 0 1.355.158 1.781.5.426.343.692.827.781 1.438l1.969-.282c-.126-.766-.353-1.354-.688-1.812s-.86-.826-1.562-1.094c-.701-.268-1.51-.406-2.438-.406m12.344 0c-1.632 0-2.944.557-3.969 1.656-1.023 1.1-1.53 2.635-1.53 4.625 0 1.925.487 3.403 1.5 4.469s2.395 1.625 4.124 1.625c1.372 0 2.492-.333 3.375-1s1.486-1.636 1.813-2.844l-2.063-.25c-.304.85-.731 1.456-1.25 1.844s-1.141.594-1.875.594c-.987 0-1.808-.34-2.469-1.032-.659-.691-1.02-1.7-1.093-3h8.812c.008-.237 0-.412 0-.531 0-1.952-.498-3.454-1.5-4.531s-2.295-1.625-3.875-1.625m152.125 0a2.2 2.2 0 0 0-1.281.406c-.39.267-.82.815-1.281 1.656v-1.812h-1.813v11.844h2.031v-6.188c0-.846.09-1.631.313-2.344.148-.467.402-.83.75-1.094s.75-.406 1.187-.406c.49 0 .98.154 1.47.438l.687-1.844c-.7-.431-1.386-.656-2.063-.656m20.719 0a5.8 5.8 0 0 0-2.844.719c-.864.48-1.483 1.198-1.906 2.156s-.656 2.066-.656 3.344c0 1.976.485 3.504 1.468 4.562.985 1.058 2.289 1.594 3.907 1.594 1.29 0 2.394-.389 3.281-1.156q1.331-1.151 1.656-3.188l-1.969-.281c-.14 1.004-.473 1.767-1 2.25-.526.483-1.182.719-1.968.719-.98 0-1.798-.373-2.407-1.094-.608-.72-.906-1.879-.906-3.469 0-1.567.338-2.713.969-3.437.63-.725 1.428-1.063 2.437-1.063.668 0 1.248.194 1.72.594.47.4.783.989.968 1.781l1.969-.281c-.23-1.195-.778-2.133-1.594-2.781-.816-.65-1.84-.97-3.125-.97m17.75 0q-2.193-.002-3.719 1.312c-1.216 1.055-1.844 2.684-1.844 4.875q.001 3 1.532 4.594c1.02 1.062 2.376 1.594 4.031 1.594a5.8 5.8 0 0 0 2.844-.75 4.87 4.87 0 0 0 2-2.031q.686-1.31.687-3.594c0-1.878-.53-3.34-1.562-4.406-1.031-1.066-2.345-1.594-3.969-1.594m11.781 0c-.615 0-1.211.09-1.75.25s-.97.332-1.281.562a3.2 3.2 0 0 0-.969 1.125 3.1 3.1 0 0 0-.375 1.469 3 3 0 0 0 .438 1.594c.293.479.742.854 1.312 1.125.57.27 1.595.597 3.063.969 1.088.274 1.757.477 2.031.656.391.26.594.64.594 1.094 0 .505-.242.936-.688 1.312-.443.375-1.111.563-2.031.563-.913 0-1.617-.202-2.125-.625-.508-.424-.826-1.048-.938-1.844l-2 .312c.224 1.256.757 2.205 1.563 2.844s1.963.969 3.5.969c.93 0 1.766-.178 2.5-.5s1.297-.784 1.687-1.375c.39-.59.594-1.207.594-1.875 0-.683-.15-1.26-.469-1.719s-.783-.821-1.343-1.062-1.554-.56-2.969-.938c-.979-.267-1.55-.426-1.75-.5-.349-.14-.619-.315-.781-.531-.164-.207-.219-.46-.219-.719 0-.41.17-.758.562-1.062.393-.304 1.05-.438 1.97-.438.777 0 1.386.158 1.812.5.425.343.692.827.781 1.438l1.969-.282c-.127-.766-.385-1.354-.719-1.812s-.83-.826-1.531-1.094-1.51-.406-2.438-.406m12.344 0c-1.632 0-2.945.557-3.969 1.656-1.023 1.1-1.562 2.635-1.562 4.625 0 1.925.52 3.403 1.531 4.469 1.013 1.066 2.396 1.625 4.125 1.625 1.373 0 2.492-.333 3.375-1s1.486-1.636 1.812-2.844l-2.093-.25c-.304.85-.7 1.456-1.219 1.844-.519.387-1.142.594-1.875.594-.987 0-1.809-.34-2.469-1.032-.66-.691-1.05-1.7-1.125-3h8.844c.008-.237 0-.412 0-.531 0-1.952-.498-3.454-1.5-4.531-1.001-1.078-2.295-1.625-3.875-1.625m-274.094.25v7.344q.002 1.283.125 1.875c.119.586.3 1.064.594 1.468.294.406.739.765 1.344 1.031s1.271.407 1.968.407q2.37 0 3.75-2v1.719h1.782v-11.844h-2v6.344c0 1.01-.094 1.781-.313 2.312-.22.531-.598.973-1.125 1.281a3.26 3.26 0 0 1-1.687.438c-.603 0-1.123-.138-1.532-.438-.408-.302-.654-.722-.78-1.25-.082-.364-.126-1.077-.126-2.125v-6.562zm214.719 0v7.344c0 .855.012 1.481.094 1.875.118.586.331 1.064.625 1.468.293.406.738.765 1.343 1.031a4.9 4.9 0 0 0 1.97.407q2.37 0 3.75-2v1.719h1.78v-11.844h-2v6.344c0 1.01-.094 1.781-.312 2.312-.22.531-.598.973-1.125 1.281a3.26 3.26 0 0 1-1.688.438c-.602 0-1.121-.138-1.53-.438-.41-.302-.656-.722-.782-1.25-.082-.364-.125-1.077-.125-2.125v-6.562zm-179.469 1.406c.986 0 1.806.372 2.469 1.125.663.754 1 1.882 1 3.344 0 1.551-.34 2.71-1 3.469-.66.757-1.476 1.125-2.469 1.125-1 0-1.84-.372-2.5-1.125-.66-.755-.969-1.891-.969-3.407 0-1.514.31-2.656.97-3.406s1.499-1.125 2.5-1.125m24.156 0c1.015 0 1.832.384 2.47 1.156.413.498.66 1.223.75 2.219h-6.595c.068-1.033.437-1.851 1.063-2.469s1.394-.906 2.312-.906m190.563 0c.986 0 1.806.372 2.469 1.125.662.754 1 1.882 1 3.344 0 1.551-.342 2.71-1 3.469-.66.757-1.476 1.125-2.469 1.125-1 0-1.84-.372-2.5-1.125-.66-.755-1-1.891-1-3.407 0-1.514.342-2.656 1-3.406.66-.75 1.5-1.125 2.5-1.125m24.156 0c1.015 0 1.83.384 2.469 1.156.414.498.66 1.223.75 2.219h-6.594c.067-1.033.437-1.851 1.063-2.469s1.394-.906 2.312-.906m-304 3.531v2h6.188v-2zm214.719 0v2h6.187v-2z"/></svg>