<svg xmlns:rdf="http://www.w3.org/1999/02/22-rdf-syntax-ns#" xmlns="http://www.w3.org/2000/svg" xml:space="preserve" height="273.41599" width="360.625" version="1.1" xmlns:cc="http://creativecommons.org/ns#" xmlns:dc="http://purl.org/dc/elements/1.1/"><metadata><rdf:RDF><cc:Work rdf:about=""><dc:format>image/svg+xml</dc:format><dc:type rdf:resource="http://purl.org/dc/dcmitype/StillImage"/><dc:title/></cc:Work></rdf:RDF></metadata><path fill="#000" d="M70.8125,6.84375c-1.43735,0-2.7405,0.31135-3.9375,0.96875-1.19795,0.6574-2.1324,1.6389501-2.78125,2.90625-0.64885,1.26635-0.96875,2.73605-0.96875,4.4375,0,1.5599,0.30025,3.01555,0.875,4.375s1.39895,2.40775,2.5,3.125,2.52375,1.0625,4.28125,1.0625c1.69765,0,3.13735-0.47335,4.3125-1.40625,1.1742-0.93195,1.9853-2.286,2.4375-4.0625l-2.15625-0.53125c-0.2964,1.37275-0.85055,2.3955-1.6875,3.09375s-1.85505,1.0625-3.0625,1.0625c-0.99275,0-1.9291-0.2692-2.78125-0.78125s-1.47125-1.277-1.875-2.3125-0.59375-2.23705-0.59375-3.625c0-1.07635,0.15895-2.1426,0.5-3.15625s0.9405-1.8049,1.78125-2.40625c0.8417-0.60135,1.8729-0.90625,3.125-0.90625,1.0887,0,1.9996,0.271,2.71875,0.8125,0.7182,0.5415,1.27815,1.40625,1.65625,2.59375l2.09375-0.5c-0.437-1.5086-1.20005-2.66685-2.3125-3.5-1.1115-0.8322-2.49385-1.25-4.125-1.25zm40.75,0c-2.30185,0-4.16959,0.7489001-5.625,2.28125-1.45539,1.5333-2.1875,3.6656-2.1875,6.375,0,1.4326,0.31336,2.7781,0.9375,4.0625,0.62416,1.2844,1.5397,2.32055,2.75,3.0625s2.5879,1.09375,4.125,1.09375c1.41836,0,2.74325-0.32835,3.96875-1s2.17494-1.66155,2.84375-2.96875c0.66785-1.30625,1-2.7826,1-4.4375,0-1.6321-0.33415-3.0868-0.96875-4.375-0.63554-1.2881999-1.53969-2.31115-2.75-3.03125-1.2103-0.7201-2.5861-1.0625-4.09375-1.0625zm175.875,0c-1.4383,0-2.77175,0.31135-3.96875,0.96875-1.19795,0.6574-2.1021,1.6389501-2.75,2.90625-0.64885,1.26635-1,2.73605-1,4.4375,0,1.5599,0.30025,3.01555,0.875,4.375s1.39895,2.40775,2.5,3.125,2.55499,1.0625,4.3125,1.0625c1.69764,0,3.13735-0.47335,4.3125-1.40625,1.1742-0.93195,1.98529-2.286,2.4375-4.0625l-2.1875-0.53125c-0.29545,1.37275-0.85055,2.3955-1.6875,3.09375s-1.85505,1.0625-3.0625,1.0625c-0.9918,0-1.93005-0.2692-2.78125-0.78125s-1.4722-1.277-1.875-2.3125c-0.4047-1.0355-0.59375-2.23705-0.59375-3.625,0-1.07635,0.15895-2.1426,0.5-3.15625s0.93955-1.8049,1.78125-2.40625,1.8729-0.90625,3.125-0.90625c1.0887,0,1.99959,0.271,2.71875,0.8125,0.71724,0.5415,1.27909,1.40625,1.65625,2.59375l2.125-0.5c-0.437-1.5086-1.23129-2.66685-2.34375-3.5-1.11149-0.8322-2.4626-1.25-4.09375-1.25zm40.75,0c-2.30185,0-4.20085,0.7489001-5.65625,2.28125-1.4554,1.5333-2.1875,3.6656-2.1875,6.375,0,1.4326,0.31335,2.7781,0.9375,4.0625s1.5397,2.32055,2.75,3.0625,2.5879,1.09375,4.125,1.09375c1.4174,0,2.74325-0.32835,3.96875-1,1.22455-0.67165,2.17495-1.66155,2.84375-2.96875,0.66786-1.30625,1-2.7826,1-4.4375,0-1.6321-0.3029-3.0868-0.9375-4.375-0.63555-1.2881999-1.5719-2.31115-2.78125-3.03125s-2.55485-1.0625-4.0625-1.0625zm-247.90625,0.28125,0,16.3125,2.1875,0,0-7.6875,8.4375,0,0,7.6875,2.15625,0,0-16.3125-2.15625,0,0,6.6875-8.4375,0,0-6.6875-2.1875,0zm41.9375,0,0,16.3125,2.1875,0,0-7.6875,8.4375,0,0,7.6875,2.15625,0,0-16.3125-2.15625,0,0,6.6875-8.4375,0,0-6.6875-2.1875,0zm174.6875,0,0,16.3125,2.15625,0,0-7.6875,8.4375,0,0,7.6875,2.1875,0,0-16.3125-2.1875,0,0,6.6875-8.4375,0,0-6.6875-2.15625,0zm41.9375,0,0,16.3125,2.15625,0,0-7.6875,8.4375,0,0,7.6875,2.15625,0,0-16.3125-2.15625,0,0,6.6875-8.4375,0,0-6.6875-2.15625,0zm-227.25,1.5625c1.07634,0,2.0408,0.2672,2.90625,0.8125,0.86544,0.5453,1.51939,1.32165,1.96875,2.3125,0.44934,0.99085,0.6875,2.14065,0.6875,3.46875,0,2.10045-0.54304,3.73215-1.59375,4.875-1.05165,1.14285-2.3736,1.71875-4,1.71875-1.59601,0-2.9417-0.5551-4-1.6875-1.05829-1.1324-1.59375-2.68975-1.59375-4.65625,0-2.45575,0.55331-4.20025,1.65625-5.25,1.10295-1.0497499,2.43925-1.59375,3.96875-1.59375zm216.59375,0c1.07635,0,2.04175,0.2672,2.90625,0.8125s1.51845,1.32165,1.96875,2.3125c0.44935,0.99085,0.6875,2.14065,0.6875,3.46875,0,2.10045-0.54209,3.73215-1.59375,4.875-1.05165,1.14285-2.37359,1.71875-4,1.71875-1.59599,0-2.9417-0.5551-4-1.6875s-1.5625-2.68975-1.5625-4.65625c0-2.45575,0.52205-4.20025,1.625-5.25,1.10295-1.0497499,2.43925-1.59375,3.96875-1.59375zm-229.53125,6.75c-1.1666,0-2.08965,0.3011-2.78125,0.90625-0.69255,0.60515-1.1133,1.47075-1.21875,2.625l1.5625,0.1875c0.0057-0.77045,0.2202-1.3774,0.65625-1.8125,0.43605-0.43605,1.0223-0.65625,1.75-0.65625,0.68685,0,1.228755,0.18525,1.65625,0.59375,0.4275,0.4085,0.65625,0.9053,0.65625,1.5,0,0.56905-0.24564,1.176-0.71875,1.8125-0.473095,0.6365-1.3613,1.49935-2.6875,2.59375-0.855,0.70015-1.51275,1.3411-1.96875,1.875-0.45695,0.5339-0.7929,1.074-1,1.625-0.1292,0.33535-0.1989,0.6693-0.1875,1.03125h8.125v-1.4375h-6.03125c0.16815-0.27265,0.3988-0.54175,0.65625-0.8125,0.25745-0.26885,0.8153-0.7741,1.71875-1.53125,1.0792-0.91295,1.8773-1.6328,2.34375-2.15625,0.46551-0.5244,0.79955-1.0269,1-1.5s0.28125-0.94635,0.28125-1.4375c0-0.96425-0.34535-1.7858-1.03125-2.4375s-1.6042-0.96875-2.78125-0.96875zm216.59375,0c-1.16566,0-2.0887,0.3011-2.78125,0.90625-0.69254,0.60515-1.08205,1.47075-1.1875,2.625l1.53125,0.1875c0.0057-0.77045,0.2202-1.3774,0.65625-1.8125,0.43605-0.43605,1.02229-0.65625,1.75-0.65625,0.68874,0,1.26,0.18525,1.6875,0.59375s0.625,0.9053,0.625,1.5c0,0.56905-0.24565,1.176-0.71875,1.8125-0.47311,0.6365-1.36224,1.49935-2.6875,2.59375-0.855,0.70015-1.5118,1.3411-1.96875,1.875s-0.79195,1.074-1,1.625c-0.12825,0.33535-0.16765,0.6693-0.15625,1.03125h8.09375v-1.4375h-6.03125c0.16909-0.27265,0.3988-0.54175,0.65625-0.8125,0.25745-0.26885,0.8475-0.7741,1.75-1.53125,1.0792-0.91295,1.8451-1.6328,2.3125-2.15625,0.4655-0.5244,0.79859-1.0269,1-1.5,0.20044-0.4731,0.28125-0.94635,0.28125-1.4375,0-0.96425-0.3141-1.7858-1-2.4375-0.68495-0.6517-1.63546-0.96875-2.8125-0.96875zm-245.90625,10.4375,0,26.3125,0,36.90625-26.9375,0,0,1.625,26.9375,0,0,36.03125-28.34375,0,0,1.625,28.34375,0,0,36.09375-28.34375,0,0,1.625,28.34375,0,0,27.125,1.625,0,0-27.125,26.875,0,0-1.625-26.875,0,0-36.09375,26.875,0,0-1.625-26.875,0,0-36.03125,28.40625,0,0-1.625-28.40625,0,0-33.25,26.875,0,0-1.625-26.875,0,0-2.03125,0-2,26.875,0,0-1.625-26.875,0,0-22.6875-1.625,0zm216.59375,0,0,26.3125,0,36.90625-28.34375,0,0,1.625,28.34375,0,0,36.03125-26.90625,0,0,1.625,26.90625,0,0,36.09375-26.90625,0,0,1.625,26.90625,0,0,27.125,1.625,0,0-27.125,28.40625,0,0-1.625-28.40625,0,0-36.09375,28.40625,0,0-1.625-28.40625,0,0-36.03125,26.875,0,0-1.625-26.875,0,0-33.25,26.875,0,0-1.625-26.875,0,0-2.03125,0-2,26.875,0,0-1.625-26.875,0,0-22.6875-1.625,0zm-178.0625,18.6875c-2.30185,0-4.20085,0.7489-5.65625,2.28125-1.45541,1.5333-2.1875,3.6656-2.1875,6.375,0,1.4326,0.31336,2.7781,0.9375,4.0625,0.62415,1.2844,1.5397,2.32055,2.75,3.0625,1.21029,0.74195,2.5879,1.09375,4.125,1.09375,1.41836,0,2.74324-0.32835,3.96875-1,1.22549-0.67165,2.17496-1.66155,2.84375-2.96875,0.66785-1.30625,1-2.7826,1-4.4375,0-1.6321-0.3029-3.0868-0.9375-4.375-0.63555-1.2882-1.57095-2.31115-2.78125-3.03125s-2.55485-1.0625-4.0625-1.0625zm216.59375,0c-2.3009,0-4.2018,0.7489-5.65625,2.28125-1.45635,1.5333-2.15625,3.6656-2.15625,6.375,0,1.4326,0.31335,2.7781,0.9375,4.0625,0.6251,1.2844,1.5397,2.32055,2.75,3.0625s2.5576,1.09375,4.09375,1.09375c1.41835,0,2.74421-0.32835,3.96875-1,1.2255-0.67165,2.1759-1.66155,2.84375-2.96875,0.66785-1.30625,1-2.7826,1-4.4375,0-1.6321-0.30289-3.0868-0.9375-4.375-0.6346-1.2882-1.57095-2.31115-2.78125-3.03125-1.20935-0.7201-2.5539-1.0625-4.0625-1.0625zm-216.59375,1.84375c1.07635,0,2.0408,0.2672,2.90625,0.8125,0.86546,0.5453,1.5194,1.32165,1.96875,2.3125,0.44936,0.99085,0.6875,2.14065,0.6875,3.46875,0,2.10045-0.54306,3.73215-1.59375,4.875-1.05166,1.14285-2.3736,1.71875-4,1.71875-1.59599,0-2.9417-0.58635-4-1.71875s-1.5625-2.6585-1.5625-4.625c0-2.4567,0.55329-4.2315,1.65625-5.28125,1.10294-1.04975,2.408-1.5625,3.9375-1.5625zm216.59375,0c1.0773,0,2.04175,0.2672,2.90625,0.8125,0.86546,0.5453,1.51941,1.32165,1.96875,2.3125,0.44935,0.99085,0.6875,2.14065,0.6875,3.46875,0,2.10045-0.51275,3.73215-1.5625,4.875-1.0526,1.14285-2.4039,1.71875-4.03125,1.71875-1.59505,0-2.9114-0.5873-3.96875-1.71875-1.05925-1.1324-1.59375-2.6585-1.59375-4.625,0-2.4567,0.5514-4.2315,1.65625-5.28125,1.102-1.04975,2.40895-1.5625,3.9375-1.5625zm-291.90625,35.875c-2.30185,0-4.1696,0.7489-5.625,2.28125-1.4554,1.5333-2.1875,3.6656-2.1875,6.375,0,1.43165,0.31335,2.77715,0.9375,4.0625,0.62415,1.2844,1.5397,2.2893,2.75,3.03125s2.5879,1.125,4.125,1.125c1.41835,0,2.712-0.32835,3.9375-1s2.17495-1.66155,2.84375-2.96875c0.66785-1.30625,1-2.7826,1-4.4375,0-1.6321-0.3029-3.11805-0.9375-4.40625-0.63555-1.2882-1.57095-2.2799-2.78125-3s-2.55485-1.0625-4.0625-1.0625zm291.90625,0c-2.3009,0-4.2018,0.7489-5.65625,2.28125-1.45635,1.5333-2.15625,3.6656-2.15625,6.375,0,1.43165,0.31335,2.77715,0.9375,4.0625,0.6251,1.2844,1.5397,2.2893,2.75,3.03125s2.5576,1.125,4.09375,1.125c1.41835,0,2.74421-0.32835,3.96875-1,1.2255-0.67165,2.1759-1.66155,2.84375-2.96875,0.66785-1.30625,1-2.7826,1-4.4375,0-1.6321-0.30289-3.11805-0.9375-4.40625-0.6346-1.2882-1.57095-2.2799-2.78125-3-1.20935-0.7201-2.5539-1.0625-4.0625-1.0625zm-315.4375,0.28125,0,16.3125,2.15625,0,0-7.6875,8.4375,0,0,7.6875,2.15625,0,0-16.3125-2.15625,0,0,6.6875-8.4375,0,0-6.6875-2.15625,0zm92.46875,0,0,16.3125,2.15625,0,0-7.6875,8.46875,0,0,7.6875,2.15625,0,0-16.3125-2.15625,0,0,6.6875-8.46875,0,0-6.6875-2.15625,0zm141.21875,0,0,16.3125,2.15625,0,0-7.6875,8.46875,0,0,7.6875,2.15625,0,0-16.3125-2.15625,0,0,6.6875-8.46875,0,0-6.6875-2.15625,0zm92.40625,0,0,16.3125,2.15625,0,0-7.6875,8.4375,0,0,7.6875,2.1875,0,0-16.3125-2.1875,0,0,6.6875-8.4375,0,0-6.6875-2.15625,0zm-302.5625,1.5625c1.07635,0,2.0408,0.2672,2.90625,0.8125s1.55065,1.32165,2,2.3125,0.65625,2.14065,0.65625,3.46875c0,2.10045-0.5118,3.73215-1.5625,4.875-1.05165,1.14285-2.40485,1.71875-4.03125,1.71875-1.596,0-2.91045-0.58635-3.96875-1.71875s-1.59375-2.6585-1.59375-4.625c0-2.4567,0.5533-4.2315,1.65625-5.28125s2.408-1.5625,3.9375-1.5625zm291.90625,0c1.0773,0,2.04175,0.2672,2.90625,0.8125,0.86546,0.5453,1.51941,1.32165,1.96875,2.3125,0.44935,0.99085,0.6875,2.14065,0.6875,3.46875,0,2.10045-0.51275,3.73215-1.5625,4.875-1.0526,1.14285-2.4039,1.71875-4.03125,1.71875-1.59505,0-2.9114-0.5873-3.96875-1.71875-1.05925-1.1324-1.59375-2.6585-1.59375-4.625,0-2.4567,0.5514-4.2315,1.65625-5.28125,1.102-1.04975,2.40895-1.5625,3.9375-1.5625zm-216.59375,35.8125c-2.30185,0-4.20085,0.7489-5.65625,2.28125-1.45541,1.5333-2.1875,3.6656-2.1875,6.375,0,1.4326,0.31336,2.8084,0.9375,4.09375,0.62415,1.2844,1.5397,2.2893,2.75,3.03125,1.21029,0.74195,2.5879,1.09375,4.125,1.09375,1.41836,0,2.74324-0.32835,3.96875-1,1.22549-0.67165,2.17496-1.66155,2.84375-2.96875,0.66785-1.30625,1-2.7826,1-4.4375,0-1.6321-0.3029-3.0868-0.9375-4.375-0.63555-1.2882-1.57095-2.31115-2.78125-3.03125s-2.55485-1.0625-4.0625-1.0625zm141.28125,0c-2.30185,0-4.1696,0.7489-5.625,2.28125-1.4554,1.5333-2.1875,3.6656-2.1875,6.375,0,1.4326,0.31335,2.8084,0.9375,4.09375,0.62415,1.2844,1.5397,2.2893,2.75,3.03125s2.5879,1.09375,4.125,1.09375c1.4174,0,2.74325-0.32835,3.96875-1,1.22455-0.67165,2.1437-1.66155,2.8125-2.96875,0.66784-1.30625,1.03125-2.7826,1.03125-4.4375,0-1.6321-0.33416-3.0868-0.96875-4.375-0.63556-1.2882-1.54065-2.31115-2.75-3.03125s-2.5861-1.0625-4.09375-1.0625zm-223.03125,0.28125,0,16.3125,2.15625,0,0-7.6875,8.4375,0,0,7.6875,2.1875,0,0-16.3125-2.1875,0,0,6.71875-8.4375,0,0-6.71875-2.15625,0zm92.40625,0,0,16.3125,2.15625,0,0-7.6875,8.4375,0,0,7.6875,2.1875,0,0-16.3125-2.1875,0,0,6.71875-8.4375,0,0-6.71875-2.15625,0zm107.09375,0,0,16.3125,2.15625,0,0-7.6875,8.4375,0,0,7.6875,2.1875,0,0-16.3125-2.1875,0,0,6.71875-8.4375,0,0-6.71875-2.15625,0zm92.46875,0,0,16.3125,2.15625,0,0-7.6875,8.46875,0,0,7.6875,2.15625,0,0-16.3125-2.15625,0,0,6.71875-8.46875,0,0-6.71875-2.15625,0zm-210.21875,1.5625c1.07635,0,2.0408,0.2672,2.90625,0.8125,0.86546,0.5453,1.5194,1.32165,1.96875,2.3125,0.44936,0.99085,0.6875,2.14065,0.6875,3.46875,0,2.10045-0.54306,3.73215-1.59375,4.875-1.05166,1.14285-2.3736,1.71875-4,1.71875-1.59599,0-2.9417-0.5551-4-1.6875s-1.5625-2.68975-1.5625-4.65625c0-2.4567,0.55329-4.20025,1.65625-5.25,1.10294-1.04975,2.408-1.59375,3.9375-1.59375zm141.28125,0c1.07635,0,2.073,0.2672,2.9375,0.8125s1.51845,1.32165,1.96875,2.3125c0.44935,0.99085,0.65625,2.14065,0.65625,3.46875,0,2.10045-0.51084,3.73215-1.5625,4.875-1.05165,1.14285-2.40485,1.71875-4.03125,1.71875-1.596,0-2.91045-0.5551-3.96875-1.6875s-1.59375-2.68975-1.59375-4.65625c0-2.4567,0.5533-4.20025,1.65625-5.25s2.408-1.59375,3.9375-1.59375zm-141.28125,35.875c-2.30185,0-4.20085,0.7489-5.65625,2.28125-1.45541,1.5333-2.1875,3.6656-2.1875,6.375,0,1.4326,0.31336,2.7781,0.9375,4.0625,0.62415,1.2844,1.5397,2.32055,2.75,3.0625,1.21029,0.74195,2.5879,1.09375,4.125,1.09375,1.41836,0,2.74324-0.32835,3.96875-1,1.22549-0.67165,2.17496-1.66155,2.84375-2.96875,0.66785-1.30625,1-2.7826,1-4.4375,0-1.6321-0.3029-3.0868-0.9375-4.375-0.63555-1.2882-1.57095-2.31115-2.78125-3.03125s-2.55485-1.0625-4.0625-1.0625zm141.28125,0c-2.30185,0-4.1696,0.7489-5.625,2.28125-1.4554,1.5333-2.1875,3.6656-2.1875,6.375,0,1.4326,0.31335,2.7781,0.9375,4.0625s1.5397,2.32055,2.75,3.0625,2.5879,1.09375,4.125,1.09375c1.4174,0,2.74325-0.32835,3.96875-1,1.22455-0.67165,2.1437-1.66155,2.8125-2.96875,0.66784-1.30625,1.03125-2.7826,1.03125-4.4375,0-1.6321-0.33416-3.0868-0.96875-4.375-0.63556-1.2882-1.54065-2.31115-2.75-3.03125s-2.5861-1.0625-4.09375-1.0625zm-223.03125,0.28125,0,16.3125,2.15625,0,0-7.6875,8.4375,0,0,7.6875,2.1875,0,0-16.3125-2.1875,0,0,6.6875-8.4375,0,0-6.6875-2.15625,0zm92.40625,0,0,16.3125,2.15625,0,0-7.6875,8.4375,0,0,7.6875,2.1875,0,0-16.3125-2.1875,0,0,6.6875-8.4375,0,0-6.6875-2.15625,0zm107.09375,0,0,16.3125,2.15625,0,0-7.6875,8.4375,0,0,7.6875,2.1875,0,0-16.3125-2.1875,0,0,6.6875-8.4375,0,0-6.6875-2.15625,0zm92.46875,0,0,16.3125,2.15625,0,0-7.6875,8.46875,0,0,7.6875,2.15625,0,0-16.3125-2.15625,0,0,6.6875-8.46875,0,0-6.6875-2.15625,0zm-210.21875,1.5625c1.07635,0,2.0408,0.2672,2.90625,0.8125,0.86546,0.5453,1.5194,1.32165,1.96875,2.3125,0.44936,0.99085,0.6875,2.14065,0.6875,3.46875,0,2.10045-0.54306,3.73215-1.59375,4.875-1.05166,1.14285-2.3736,1.71875-4,1.71875-1.59599,0-2.9417-0.5551-4-1.6875s-1.5625-2.68975-1.5625-4.65625c0-2.45575,0.55329-4.20025,1.65625-5.25,1.10294-1.04975,2.408-1.59375,3.9375-1.59375zm141.28125,0c1.07635,0,2.073,0.2672,2.9375,0.8125s1.51845,1.32165,1.96875,2.3125c0.44935,0.99085,0.65625,2.14065,0.65625,3.46875,0,2.10045-0.51084,3.73215-1.5625,4.875-1.05165,1.14285-2.40485,1.71875-4.03125,1.71875-1.596,0-2.91045-0.5551-3.96875-1.6875s-1.59375-2.68975-1.59375-4.65625c0-2.45575,0.5533-4.20025,1.65625-5.25s2.408-1.59375,3.9375-1.59375zm-178.34375,35.875c-1.4383,0-2.7405,0.31135-3.9375,0.96875-1.19795,0.6574-2.1324,1.63895-2.78125,2.90625-0.64885,1.26635-0.96875,2.73605-0.96875,4.4375,0,1.5599,0.30025,3.01555,0.875,4.375s1.39895,2.40775,2.5,3.125,2.52375,1.0625,4.28125,1.0625c1.69765,0,3.13735-0.47335,4.3125-1.40625,1.1742-0.93195,1.9853-2.286,2.4375-4.0625l-2.15625-0.53125c-0.2964,1.3737-0.85055,2.3955-1.6875,3.09375s-1.85505,1.0625-3.0625,1.0625c-0.99275,0-1.9291-0.2692-2.78125-0.78125s-1.47125-1.277-1.875-2.3125-0.59375-2.23705-0.59375-3.625c0-1.07635,0.15895-2.1426,0.5-3.15625s0.9405-1.8049,1.78125-2.40625c0.8417-0.60135,1.8729-0.90625,3.125-0.90625,1.0887,0,1.9996,0.271,2.71875,0.8125,0.7182,0.5415,1.27815,1.40625,1.65625,2.59375l2.09375-0.5c-0.437-1.5086-1.20005-2.66685-2.3125-3.5-1.1115-0.8322-2.49385-1.25-4.125-1.25zm40.75,0c-2.30185,0-4.16959,0.7489-5.625,2.28125-1.45539,1.5333-2.1875,3.6656-2.1875,6.375,0,1.4326,0.31336,2.7781,0.9375,4.0625,0.62416,1.2844,1.5397,2.32055,2.75,3.0625s2.5879,1.09375,4.125,1.09375c1.41836,0,2.74325-0.32835,3.96875-1s2.17494-1.66155,2.84375-2.96875c0.66785-1.30625,1-2.7826,1-4.4375,0-1.6321-0.33415-3.0868-0.96875-4.375-0.63554-1.2882-1.53969-2.31115-2.75-3.03125-1.2103-0.7201-2.5861-1.0625-4.09375-1.0625zm175.875,0c-1.4383,0-2.77175,0.31135-3.96875,0.96875-1.19795,0.6574-2.1021,1.63895-2.75,2.90625-0.64885,1.26635-1,2.73605-1,4.4375,0,1.5599,0.30025,3.01555,0.875,4.375s1.39895,2.40775,2.5,3.125,2.55499,1.0625,4.3125,1.0625c1.69764,0,3.13735-0.47335,4.3125-1.40625,1.1742-0.93195,1.98529-2.286,2.4375-4.0625l-2.1875-0.53125c-0.29545,1.3737-0.85055,2.3955-1.6875,3.09375s-1.85505,1.0625-3.0625,1.0625c-0.9918,0-1.93005-0.2692-2.78125-0.78125s-1.4722-1.277-1.875-2.3125c-0.4047-1.0355-0.59375-2.23705-0.59375-3.625,0-1.07635,0.15895-2.1426,0.5-3.15625s0.93955-1.8049,1.78125-2.40625,1.8729-0.90625,3.125-0.90625c1.0887,0,1.99959,0.271,2.71875,0.8125,0.71724,0.5415,1.27909,1.40625,1.65625,2.59375l2.125-0.5c-0.437-1.5086-1.23129-2.66685-2.34375-3.5-1.11149-0.8322-2.4626-1.25-4.09375-1.25zm40.75,0c-2.30185,0-4.20085,0.7489-5.65625,2.28125-1.4554,1.5333-2.1875,3.6656-2.1875,6.375,0,1.4326,0.31335,2.7781,0.9375,4.0625s1.5397,2.32055,2.75,3.0625,2.5879,1.09375,4.125,1.09375c1.4174,0,2.74325-0.32835,3.96875-1,1.22455-0.67165,2.17495-1.66155,2.84375-2.96875,0.66786-1.30625,1-2.7826,1-4.4375,0-1.6321-0.3029-3.0868-0.9375-4.375-0.63555-1.2882-1.5719-2.31115-2.78125-3.03125s-2.55485-1.0625-4.0625-1.0625zm-247.90625,0.28125,0,16.3125,2.1875,0,0-7.6875,8.4375,0,0,7.6875,2.15625,0,0-16.3125-2.15625,0,0,6.6875-8.4375,0,0-6.6875-2.1875,0zm41.9375,0,0,16.3125,2.1875,0,0-7.6875,8.4375,0,0,7.6875,2.15625,0,0-16.3125-2.15625,0,0,6.6875-8.4375,0,0-6.6875-2.1875,0zm174.6875,0,0,16.3125,2.15625,0,0-7.6875,8.4375,0,0,7.6875,2.1875,0,0-16.3125-2.1875,0,0,6.6875-8.4375,0,0-6.6875-2.15625,0zm41.9375,0,0,16.3125,2.15625,0,0-7.6875,8.4375,0,0,7.6875,2.15625,0,0-16.3125-2.15625,0,0,6.6875-8.4375,0,0-6.6875-2.15625,0zm-227.25,1.5625c1.07634,0,2.0408,0.2672,2.90625,0.8125,0.86544,0.5453,1.51939,1.32165,1.96875,2.3125,0.44934,0.99085,0.6875,2.14065,0.6875,3.46875,0,2.10045-0.54304,3.73215-1.59375,4.875-1.05165,1.14285-2.3736,1.71875-4,1.71875-1.59601,0-2.9417-0.58635-4-1.71875-1.05829-1.1324-1.59375-2.6585-1.59375-4.625,0-2.4567,0.55331-4.2315,1.65625-5.28125,1.10295-1.04975,2.43925-1.5625,3.96875-1.5625zm216.59375,0c1.07635,0,2.04175,0.2672,2.90625,0.8125s1.51845,1.32165,1.96875,2.3125c0.44935,0.99085,0.6875,2.14065,0.6875,3.46875,0,2.10045-0.54209,3.73215-1.59375,4.875-1.05165,1.14285-2.37359,1.71875-4,1.71875-1.59599,0-2.9417-0.58635-4-1.71875s-1.5625-2.6585-1.5625-4.625c0-2.4567,0.52205-4.2315,1.625-5.28125s2.43925-1.5625,3.96875-1.5625zm-229.53125,6.75c-1.1666,0-2.08965,0.3011-2.78125,0.90625-0.69255,0.60515-1.1133,1.47075-1.21875,2.625l1.5625,0.15625c0.0057-0.77045,0.2202-1.3774,0.65625-1.8125,0.43605-0.43605,1.0223-0.625,1.75-0.625,0.68685,0,1.228755,0.18525,1.65625,0.59375,0.4275,0.4085,0.65625,0.9053,0.65625,1.5,0,0.56905-0.24564,1.176-0.71875,1.8125-0.473095,0.6365-1.3613,1.49935-2.6875,2.59375-0.855,0.70015-1.51275,1.30985-1.96875,1.84375-0.45695,0.5339-0.7929,1.10525-1,1.65625-0.1292,0.33535-0.1989,0.6693-0.1875,1.03125h8.125v-1.4375h-6.03125c0.16815-0.27265,0.3988-0.54175,0.65625-0.8125,0.25745-0.26885,0.8153-0.7741,1.71875-1.53125,1.0792-0.91295,1.8773-1.6328,2.34375-2.15625,0.46551-0.5244,0.79955-1.0269,1-1.5s0.28125-0.9776,0.28125-1.46875c0-0.96425-0.34535-1.75455-1.03125-2.40625s-1.6042-0.96875-2.78125-0.96875zm216.59375,0c-1.16566,0-2.0887,0.3011-2.78125,0.90625-0.69254,0.60515-1.08205,1.47075-1.1875,2.625l1.53125,0.15625c0.0057-0.77045,0.2202-1.3774,0.65625-1.8125,0.43605-0.43605,1.02229-0.625,1.75-0.625,0.68874,0,1.26,0.18525,1.6875,0.59375s0.625,0.9053,0.625,1.5c0,0.56905-0.24565,1.176-0.71875,1.8125-0.47311,0.6365-1.36224,1.49935-2.6875,2.59375-0.855,0.70015-1.5118,1.30985-1.96875,1.84375s-0.79195,1.10525-1,1.65625c-0.12825,0.33535-0.16765,0.6693-0.15625,1.03125h8.09375v-1.4375h-6.03125c0.16909-0.27265,0.3988-0.54175,0.65625-0.8125,0.25745-0.26885,0.8475-0.7741,1.75-1.53125,1.0792-0.91295,1.8451-1.6328,2.3125-2.15625,0.4655-0.5244,0.79859-1.0269,1-1.5,0.20044-0.4731,0.28125-0.9776,0.28125-1.46875,0-0.96425-0.3141-1.75455-1-2.40625-0.68495-0.6517-1.63546-0.96875-2.8125-0.96875zm-300.375,46.03125,0,16.3125,5.875,0c0.9861,0,1.86595-0.096,2.625-0.28125s1.3998-0.45245,1.9375-0.8125,1.04685-0.84175,1.5-1.46875c0.45125-0.62795,0.8362-1.44865,1.125-2.40625,0.28975-0.95855,0.40625-2.0415,0.40625-3.28125,0-1.45445-0.1994-2.7426-0.625-3.875-0.42655-1.1324-1.07775-2.0848-1.9375-2.8125-0.66025-0.5643-1.44115-0.9406-2.375-1.15625-0.66785-0.1558-1.638-0.21875-2.90625-0.21875h-5.625zm24.15625,0,0,16.3125,2.1875,0,0-7.40625,7.625,0,0-1.9375-7.625,0,0-5.0625,8.8125,0,0-1.90625-11,0zm194.25,0,0,16.3125,10.1875,0,0-1.9375-8,0,0-14.375-2.1875,0zm20.46875,0,0,16.3125,2.1875,0,0-7.40625,7.625,0,0-1.9375-7.625,0,0-5.0625,8.8125,0,0-1.90625-11,0zm-167.09375,0.34375-2,1.21875,0,2.90625-1.5,0,0,1.5625,1.5,0,0,6.8125c0,1.20365,0.05535,1.99975,0.21875,2.375s0.4419,0.6754,0.84375,0.90625c0.40185,0.2299,0.9901,0.34375,1.71875,0.34375,0.4465,0,0.93475-0.0375,1.5-0.15625l-0.28125-1.78125c-0.36195,0.05225-0.6527,0.0625-0.875,0.0625-0.29545,0-0.52885-0.02905-0.6875-0.125s-0.27345-0.2419-0.34375-0.40625c-0.06935-0.1634-0.09375-0.5209-0.09375-1.09375v-6.9375h2v-1.5625h-2v-4.125zm214.6875,0-2,1.21875,0,2.90625-1.46875,0,0,1.5625,1.46875,0,0,6.8125c0,1.20365,0.08659,1.99975,0.25,2.375,0.16434,0.37525,0.4419,0.6754,0.84375,0.90625,0.40185,0.2299,0.9901,0.34375,1.71875,0.34375,0.4465,0,0.93475-0.0375,1.5-0.15625l-0.28125-1.78125c-0.36195,0.05225-0.6527,0.0625-0.875,0.0625-0.29545,0-0.52885-0.02905-0.6875-0.125s-0.27345-0.2419-0.34375-0.40625c-0.06935-0.1634-0.125-0.5209-0.125-1.09375v-6.9375h2.03125v-1.5625h-2.03125v-4.125zm-284.3125,1.5625,3.4375,0c1.2806,0,2.20365,0.12145,2.78125,0.34375,0.7999,0.3116,1.47265,0.927,2.03125,1.84375,0.55955,0.91675,0.84375,2.23035,0.84375,3.9375,0,1.23215-0.1525,2.29175-0.4375,3.15625s-0.6764,1.55045-1.1875,2.0625c-0.3629,0.36385-0.82665,0.6433-1.4375,0.84375s-1.45775,0.28125-2.53125,0.28125h-3.5v-12.46875zm39.90625,2.3125c-0.4693,0-0.8908,0.1374-1.28125,0.40625-0.39045,0.26695-0.8205,0.81455-1.28125,1.65625v-1.8125h-1.78125v11.84375h2v-6.1875c0-0.84645,0.0902-1.63125,0.3125-2.34375,0.1482-0.4674,0.4023-0.8306,0.75-1.09375s0.7505-0.40625,1.1875-0.40625c0.4883,0,0.9795,0.15345,1.46875,0.4375l0.6875-1.84375c-0.6992-0.4313-1.3861-0.65625-2.0625-0.65625zm20.71875,0c-1.01745,0-1.97925,0.23995-2.84375,0.71875-0.8645,0.47975-1.4835,1.19865-1.90625,2.15625s-0.65625,2.066-0.65625,3.34375c0,1.976,0.5158,3.5042,1.5,4.5625s2.28745,1.59375,3.90625,1.59375c1.29105,0,2.3627-0.38865,3.25-1.15625,0.8873-0.76665,1.4406-1.8309,1.65625-3.1875l-1.96875-0.28125c-0.14155,1.00415-0.4737,1.7674-1,2.25-0.5263,0.48355-1.18215,0.71875-1.96875,0.71875-0.97945,0-1.76605-0.3727-2.375-1.09375-0.608-0.7201-0.9375-1.87845-0.9375-3.46875,0-1.56655,0.33795-2.71265,0.96875-3.4375s1.42765-1.0625,2.4375-1.0625c0.66785,0,1.24755,0.1938,1.71875,0.59375s0.81475,0.98895,1,1.78125l1.9375-0.28125c-0.2299-1.1951-0.74645-2.1324-1.5625-2.78125s-1.87185-0.96875-3.15625-0.96875zm17.75,0c-1.4611,0-2.70225,0.43565-3.71875,1.3125-1.216,1.0545-1.8125,2.68335-1.8125,4.875,0,1.9988,0.51095,3.53165,1.53125,4.59375s2.3451,1.59375,4,1.59375c1.0317,0,1.97165-0.2674,2.84375-0.75,0.8721-0.48355,1.543995-1.1582,2-2.03125,0.45694-0.8721,0.6875-2.0709,0.6875-3.59375,0-1.87815-0.53081-3.34035-1.5625-4.40625-1.0317-1.0659-2.34425-1.59375-3.96875-1.59375zm11.78125,0c-0.6156,0-1.21135,0.0904-1.75,0.25-0.53864,0.1596-0.9384,0.3326-1.25,0.5625-0.41515,0.2983-0.75871,0.67565-1,1.125-0.24131,0.4503-0.375,0.9415-0.375,1.46875,0,0.57855,0.1752,1.11495,0.46875,1.59375s0.71124,0.85425,1.28125,1.125c0.5681,0.27075,1.5957,0.5973,3.0625,0.96875,1.08965,0.27455,1.75765,0.47765,2.03125,0.65625,0.3914,0.25935,0.59375,0.6406,0.59375,1.09375,0,0.5054-0.21165,0.9363-0.65625,1.3125-0.4446,0.37525-1.1429,0.5625-2.0625,0.5625-0.91199,0-1.61674-0.2013-2.125-0.625-0.50824-0.4237-0.82634-1.04765-0.9375-1.84375l-2,0.3125c0.2223,1.2559,0.75405,2.2063,1.5625,2.84375,0.8056,0.63935,1.9629,0.96875,3.5,0.96875,0.9291,0,1.7647-0.17795,2.5-0.5s1.29705-0.7841,1.6875-1.375c0.39045-0.58995,0.59375-1.20715,0.59375-1.875,0-0.68305-0.14956-1.25895-0.46875-1.71875-0.3192-0.4598-0.78325-0.8212-1.34375-1.0625-0.56049-0.2413-1.52295-0.5594-2.9375-0.9375-0.9785-0.26695-1.58175-0.4259-1.78125-0.5-0.34866-0.1406-0.58756-0.31465-0.75-0.53125-0.1634-0.2071-0.25-0.4594-0.25-0.71875,0-0.40945,0.20045-0.75755,0.59375-1.0625,0.39235-0.304,1.0501-0.4375,1.96875-0.4375,0.77805,0,1.35564,0.158,1.78125,0.5,0.42559,0.34295,0.69195,0.82665,0.78125,1.4375l1.96875-0.28125c-0.12635-0.76665-0.35311-1.3546-0.6875-1.8125-0.3344-0.4579-0.8614-0.82585-1.5625-1.09375-0.70109-0.2679-1.50935-0.40625-2.4375-0.40625zm12.34375,0c-1.63211,0-2.94464,0.5571-3.96875,1.65625-1.02315,1.09915-1.53125,2.63475-1.53125,4.625,0,1.9247,0.48825,3.40285,1.5,4.46875,1.01269,1.0659,2.396,1.625,4.125,1.625,1.37179,0,2.4915-0.3331,3.375-1s1.48569-1.63535,1.8125-2.84375l-2.0625-0.25c-0.30399,0.8493-0.7313,1.45615-1.25,1.84375s-1.1416,0.59375-1.875,0.59375c-0.98704,0-1.8085-0.33965-2.46875-1.03125-0.6593-0.6916-1.01965-1.69945-1.09375-3h8.8125c0.0076-0.2375,0-0.4125,0-0.53125,0-1.95225-0.49775-3.45395-1.5-4.53125s-2.29516-1.625-3.875-1.625zm152.125,0c-0.46931,0-0.8908,0.1374-1.28125,0.40625-0.39045,0.26695-0.8205,0.81455-1.28125,1.65625v-1.8125h-1.8125v11.84375h2.03125v-6.1875c0-0.84645,0.0902-1.63125,0.3125-2.34375,0.1482-0.4674,0.4023-0.8306,0.75-1.09375s0.7505-0.40625,1.1875-0.40625c0.48925,0,0.98044,0.15345,1.46875,0.4375l0.6875-1.84375c-0.69921-0.4313-1.38611-0.65625-2.0625-0.65625zm20.71875,0c-1.01746,0-1.97924,0.23995-2.84375,0.71875-0.8645,0.47975-1.4835,1.19865-1.90625,2.15625s-0.65625,2.066-0.65625,3.34375c0,1.976,0.48551,3.5042,1.46875,4.5625,0.9842,1.0583,2.2884,1.59375,3.90625,1.59375,1.29105,0,2.39395-0.38865,3.28125-1.15625,0.8873-0.76665,1.4406-1.8309,1.65625-3.1875l-1.96875-0.28125c-0.14061,1.00415-0.4737,1.7674-1,2.25-0.52629,0.48355-1.18215,0.71875-1.96875,0.71875-0.97945,0-1.79731-0.3727-2.40625-1.09375-0.60801-0.7201-0.90625-1.87845-0.90625-3.46875,0-1.56655,0.33794-2.71265,0.96875-3.4375,0.63079-0.72485,1.42765-1.0625,2.4375-1.0625,0.66786,0,1.24754,0.1938,1.71875,0.59375,0.47119,0.39995,0.7835,0.98895,0.96875,1.78125l1.96875-0.28125c-0.22991-1.1951-0.77769-2.1324-1.59375-2.78125-0.81605-0.64885-1.84061-0.96875-3.125-0.96875zm17.75,0c-1.46205,0-2.70225,0.43565-3.71875,1.3125-1.216,1.0545-1.84375,2.68335-1.84375,4.875,0,1.9988,0.5119,3.53165,1.53125,4.59375,1.0203,1.0621,2.37636,1.59375,4.03125,1.59375,1.0317,0,1.97165-0.2674,2.84375-0.75,0.87115-0.48355,1.54399-1.1582,2-2.03125,0.45694-0.8721,0.6875-2.0709,0.6875-3.59375,0-1.87815-0.5308-3.34035-1.5625-4.40625-1.03074-1.0659-2.34425-1.59375-3.96875-1.59375zm11.78125,0c-0.61559,0-1.21135,0.0904-1.75,0.25s-0.96965,0.3326-1.28125,0.5625c-0.41515,0.2983-0.72745,0.67565-0.96875,1.125-0.2413,0.4503-0.375,0.9415-0.375,1.46875,0,0.57855,0.14395,1.11495,0.4375,1.59375,0.29356,0.4788,0.7425,0.85425,1.3125,1.125,0.56905,0.27075,1.59475,0.5973,3.0625,0.96875,1.08871,0.27455,1.75765,0.47765,2.03125,0.65625,0.3914,0.25935,0.59375,0.6406,0.59375,1.09375,0,0.5054-0.24195,0.9363-0.6875,1.3125-0.44365,0.37525-1.11165,0.5625-2.03125,0.5625-0.91295,0-1.61675-0.2013-2.125-0.625-0.50824-0.4237-0.82635-1.04765-0.9375-1.84375l-2,0.3125c0.22325,1.2559,0.7569,2.2044,1.5625,2.84375s1.9629,0.96875,3.5,0.96875c0.9291,0,1.76565-0.17795,2.5-0.5s1.29705-0.7841,1.6875-1.375c0.3895-0.58995,0.59375-1.20715,0.59375-1.875,0-0.68305-0.14956-1.25895-0.46875-1.71875-0.31921-0.4598-0.78325-0.8212-1.34375-1.0625s-1.5542-0.5594-2.96875-0.9375c-0.9785-0.26695-1.54955-0.4259-1.75-0.5-0.34865-0.1406-0.6188-0.31465-0.78125-0.53125-0.1634-0.2071-0.21875-0.4594-0.21875-0.71875,0-0.40945,0.17015-0.75755,0.5625-1.0625,0.39235-0.304,1.0501-0.4375,1.96875-0.4375,0.77805,0,1.3869,0.158,1.8125,0.5,0.4256,0.34295,0.69195,0.82665,0.78125,1.4375l1.96875-0.28125c-0.12635-0.76665-0.38435-1.3546-0.71875-1.8125s-0.83015-0.82585-1.53125-1.09375-1.50934-0.40625-2.4375-0.40625zm12.34375,0c-1.6321,0-2.94465,0.5571-3.96875,1.65625-1.02315,1.09915-1.5625,2.63475-1.5625,4.625,0,1.9247,0.5195,3.40285,1.53125,4.46875,1.01271,1.0659,2.396,1.625,4.125,1.625,1.37275,0,2.49245-0.3331,3.375-1,0.8835-0.6669,1.4857-1.63535,1.8125-2.84375l-2.09375-0.25c-0.30399,0.8493-0.6991,1.45615-1.21875,1.84375-0.5187,0.3876-1.1416,0.59375-1.875,0.59375-0.98705,0-1.8085-0.33965-2.46875-1.03125-0.6593-0.6916-1.0509-1.69945-1.125-3h8.84375c0.00759-0.2375,0-0.4125,0-0.53125,0-1.95225-0.49775-3.45395-1.5-4.53125-1.0013-1.0773-2.29515-1.625-3.875-1.625zm-274.09375,0.25,0,7.34375c0,0.855,0.0433,1.4817,0.125,1.875,0.11875,0.58615,0.3002,1.06405,0.59375,1.46875,0.29355,0.40565,0.7386,0.7643,1.34375,1.03125s1.27145,0.40625,1.96875,0.40625c1.5808,0,2.82945-0.66715,3.75-2v1.71875h1.78125v-11.84375h-2v6.34375c0,1.0108-0.094,1.78145-0.3125,2.3125-0.21945,0.53105-0.59775,0.9725-1.125,1.28125-0.52725,0.3078-1.08615,0.4375-1.6875,0.4375-0.6023,0-1.12275-0.1373-1.53125-0.4375-0.4085-0.3021-0.6549-0.7218-0.78125-1.25-0.0817-0.36385-0.125-1.07715-0.125-2.125v-6.5625h-2zm214.71875,0,0,7.34375c0,0.855,0.01205,1.4817,0.09375,1.875,0.11875,0.58615,0.33145,1.06405,0.625,1.46875,0.29355,0.40565,0.73861,0.7643,1.34375,1.03125,0.60515,0.26695,1.27145,0.40625,1.96875,0.40625,1.5808,0,2.82945-0.66715,3.75-2v1.71875h1.78125v-11.84375h-2v6.34375c0,1.0108-0.094,1.78145-0.3125,2.3125-0.21945,0.53105-0.59775,0.9725-1.125,1.28125-0.52725,0.3078-1.08615,0.4375-1.6875,0.4375-0.6023,0-1.1218-0.1373-1.53125-0.4375-0.4085-0.3021-0.6549-0.7218-0.78125-1.25-0.0817-0.36385-0.125-1.07715-0.125-2.125v-6.5625h-2zm-179.46875,1.40625c0.9861,0,1.80565,0.37165,2.46875,1.125,0.6631,0.7543,1,1.8817,1,3.34375,0,1.55135-0.3407,2.71065-1,3.46875-0.6593,0.75715-1.476,1.125-2.46875,1.125-1.00035,0-1.8407-0.37165-2.5-1.125-0.6593-0.7543-0.96875-1.891-0.96875-3.40625,0-1.5143,0.3104-2.6567,0.96875-3.40625,0.6593-0.74955,1.49965-1.125,2.5-1.125zm24.15625,0c1.0146,0,1.83131,0.3839,2.46875,1.15625,0.41421,0.4978,0.66071,1.22315,0.75,2.21875h-6.59375c0.06745-1.03265,0.43645-1.85125,1.0625-2.46875s1.39385-0.90625,2.3125-0.90625zm190.5625,0c0.9861,0,1.80565,0.37165,2.46875,1.125,0.66215,0.7543,1,1.8817,1,3.34375,0,1.55135-0.34165,2.71065-1,3.46875-0.6593,0.75715-1.476,1.125-2.46875,1.125-1.00035,0-1.8407-0.37165-2.5-1.125-0.65929-0.7543-1-1.891-1-3.40625,0-1.5143,0.34166-2.6567,1-3.40625,0.65931-0.74955,1.49965-1.125,2.5-1.125zm24.15625,0c1.01459,0,1.83035,0.3839,2.46875,1.15625,0.4142,0.4978,0.66071,1.22315,0.75,2.21875h-6.59375c0.0665-1.03265,0.43646-1.85125,1.0625-2.46875,0.62605-0.6175,1.39384-0.90625,2.3125-0.90625zm-304,3.53125,0,2,6.1875,0,0-2-6.1875,0zm214.71875,0,0,2,6.1875,0,0-2-6.1875,0z" transform="translate(-9.8213643e-6,0)"/></svg>
