<svg xml:space="preserve" viewBox="0 0 360.6 273.4"><path d="M70.8 6.8a8 8 0 0 0-4 1 7 7 0 0 0-2.7 3q-1 1.8-1 4.4 0 2.3.9 4.3c.9 2 1.4 2.4 2.5 3.2s2.5 1 4.3 1q2.5 0 4.3-1.4 1.8-1.5 2.4-4l-2.1-.6q-.5 2-1.7 3.1c-1.2 1.1-1.9 1-3 1q-1.5 0-2.9-.7c-1.4-.7-1.4-1.3-1.8-2.3s-.6-2.3-.6-3.6q0-1.7.5-3.2c.5-1.5 1-1.8 1.8-2.4q1.2-1 3-1 1.7 0 2.8.9a5 5 0 0 1 1.7 2.6l2-.5A6 6 0 0 0 75 8a7 7 0 0 0-4-1.3m40.8 0q-3.5 0-5.7 2.3a9 9 0 0 0-2.2 6.4q0 2.1 1 4 .9 2 2.7 3.1a6 6 0 0 0 4.2 1.1q2 0 4-1c2-1 2.1-1.6 2.8-3q1-1.9 1-4.4 0-2.3-1-4.4a7 7 0 0 0-2.7-3q-1.9-1-4.1-1m175.8 0q-2 0-4 1a7 7 0 0 0-2.7 3q-1 1.8-1 4.4 0 2.3.9 4.3c.9 2 1.4 2.4 2.5 3.2s2.5 1 4.3 1q2.5 0 4.3-1.4 1.8-1.5 2.5-4l-2.2-.6q-.5 2-1.7 3.1c-1.2 1.1-1.9 1-3 1q-1.5 0-2.9-.7c-1.4-.7-1.4-1.3-1.8-2.3a10 10 0 0 1-.6-3.6q0-1.7.5-3.2c.5-1.5 1-1.8 1.7-2.4s2-1 3.2-1q1.6 0 2.7.9a5 5 0 0 1 1.6 2.6l2.2-.5a7 7 0 0 0-2.4-3.5 7 7 0 0 0-4-1.3m40.8 0q-3.4 0-5.7 2.3a9 9 0 0 0-2.2 6.4q0 2.1 1 4c1 2 1.5 2.4 2.7 3.1s2.6 1.1 4.2 1.1q2 0 4-1a7 7 0 0 0 2.8-3q1-1.9 1-4.4 0-2.3-1-4.4-.9-2-2.8-3c-1.9-1-2.5-1-4-1m-248 .3v16.3h2.3v-7.6h8.4v7.6h2.2V7.1h-2.2v6.7h-8.4V7.1zm42 0v16.3h2.2v-7.6h8.4v7.6h2.2V7.1h-2.2v6.7h-8.4V7.1zm174.7 0v16.3h2.2v-7.6h8.4v7.6h2.2V7.1h-2.2v6.7h-8.4V7.1zm42 0v16.3h2.1v-7.6h8.4v7.6h2.2V7.1h-2.2v6.7H341V7.1zM111.5 8.7q1.5 0 2.9.8t2 2.3q.7 1.5.7 3.5a7 7 0 0 1-1.6 4.9 5 5 0 0 1-4 1.7q-2.4 0-4-1.7a7 7 0 0 1-1.6-4.7q0-3.6 1.6-5.2 1.7-1.5 4-1.6m216.6 0q1.5 0 2.9.8c1.4.8 1.5 1.3 2 2.3q.6 1.5.6 3.5a7 7 0 0 1-1.5 4.9 5 5 0 0 1-4 1.7q-2.5 0-4-1.7c-1.5-1.7-1.6-2.7-1.6-4.7q0-3.6 1.6-5.2 1.7-1.5 4-1.6M98.7 15.4a4 4 0 0 0-2.8 1q-1 .8-1.2 2.6l1.5.2q0-1.2.7-1.9t1.7-.6 1.7.6.6 1.5-.7 1.8q-.7 1-2.7 2.6l-2 1.9-1 1.6-.1 1h8.1v-1.4h-6l.6-.8 1.7-1.6 2.4-2.1q.7-.7 1-1.5c.3-.8.3-1 .3-1.5q0-1.4-1-2.4c-1-1-1.7-1-2.8-1m216.5 0a4 4 0 0 0-2.7 1q-1 .8-1.2 2.6l1.5.2q0-1.2.7-1.9t1.7-.6 1.7.6c.7.6.6.9.6 1.5q0 .9-.7 1.8t-2.7 2.6l-2 1.9-1 1.6-.1 1h8v-1.4h-6l.7-.8 1.8-1.6 2.3-2.1q.6-.7 1-1.5l.3-1.5q0-1.4-1-2.4a4 4 0 0 0-2.9-1M69.3 26v63H42.4v1.6h27v36H41v1.7h28.3v36H41v1.7h28.3v27.1H71V166h26.8v-1.6H71v-36.1h26.8v-1.7H71v-36h28.4V89H71V55.8h26.8v-1.6H71v-4h26.8v-1.6H71V25.9zm216.6 0v63h-28.3v1.6h28.3v36H259v1.7h27v36h-27v1.7h27v27.1h1.6V166H316v-1.6h-28.4v-36.1H316v-1.7h-28.4v-36h26.8V89h-26.8V55.8h26.8v-1.6h-26.8v-4h26.8v-1.6h-26.8V25.9zM108 44.6q-3.5 0-5.7 2.2a9 9 0 0 0-2.2 6.4q0 2.2 1 4a7 7 0 0 0 2.7 3.1q1.8 1.1 4.1 1.1t4-1a7 7 0 0 0 2.9-3q1-1.8 1-4.4 0-2.4-1-4.3-1-2-2.8-3a7 7 0 0 0-4-1.1m216.6 0q-3.4 0-5.7 2.2a9 9 0 0 0-2.1 6.4q0 2.2.9 4a7 7 0 0 0 6.8 4.2q2.2 0 4-1a7 7 0 0 0 2.8-3q1-1.8 1-4.4 0-2.4-.9-4.3a7 7 0 0 0-2.8-3q-1.8-1.1-4-1.1M108 46.4q1.5 0 2.9.8 1.2.8 2 2.3.6 1.5.6 3.5a7 7 0 0 1-1.6 4.9 5 5 0 0 1-4 1.7q-2.4 0-4-1.7c-1.6-1.7-1.5-2.7-1.5-4.6q0-3.8 1.6-5.3 1.6-1.6 4-1.6m216.6 0q1.5 0 2.9.8 1.2.8 2 2.3.6 1.5.6 3.5 0 3.1-1.5 4.9a5 5 0 0 1-4 1.7q-2.5 0-4-1.7a7 7 0 0 1-1.6-4.6q0-3.8 1.6-5.3 1.6-1.6 4-1.6m-292 35.9q-3.3 0-5.6 2.3a9 9 0 0 0-2.2 6.3q0 2.2 1 4.1.9 2 2.7 3a7 7 0 0 0 4.2 1.2q2.1 0 3.9-1c1.8-1 2.2-1.7 2.8-3q1-2 1-4.5 0-2.3-.9-4.4-1-1.8-2.8-3c-1.8-1.2-2.5-1-4-1m292 0q-3.4 0-5.7 2.3a9 9 0 0 0-2.1 6.3q0 2.2.9 4.1.9 2 2.7 3a7 7 0 0 0 4.1 1.2q2.2 0 4-1a7 7 0 0 0 2.8-3q1-2 1-4.5 0-2.3-.9-4.4a7 7 0 0 0-2.8-3q-1.8-1-4-1M9 82.6v16.3h2.2v-7.7h8.4v7.7h2.2V82.6h-2.2v6.7h-8.4v-6.7zm92.5 0v16.3h2.2v-7.7h8.4v7.7h2.2V82.6H112v6.7h-8.4v-6.7zm141.2 0v16.3h2.2v-7.7h8.4v7.7h2.2V82.6h-2.2v6.7H245v-6.7zm92.4 0v16.3h2.2v-7.7h8.4v7.7h2.2V82.6h-2.2v6.7h-8.4v-6.7zM32.6 84a5 5 0 0 1 4.9 3.2q.6 1.4.6 3.4 0 3.2-1.5 4.9a5 5 0 0 1-4 1.7q-2.5 0-4-1.7C27 93.9 27 92.9 27 91q0-3.8 1.6-5.3c1.6-1.5 2.4-1.6 4-1.6m291.9 0q1.5 0 2.9.8 1.2 1 2 2.3.6 1.5.6 3.5 0 3.2-1.5 4.9a5 5 0 0 1-4 1.7q-2.5 0-4-1.7a7 7 0 0 1-1.6-4.6q0-3.8 1.6-5.3t4-1.6M107.9 120q-3.5 0-5.7 2.3a9 9 0 0 0-2.2 6.4q0 2.2 1 4a7 7 0 0 0 2.7 3.1q1.8 1.1 4.1 1.1t4-1a7 7 0 0 0 2.9-3q1-1.9 1-4.4 0-2.3-1-4.4-1-2-2.8-3c-1.8-1-2.5-1-4-1m141.3 0q-3.4 0-5.7 2.3a9 9 0 0 0-2.2 6.4q0 2.2 1 4 .9 2 2.7 3.1a6 6 0 0 0 4.2 1.1q2 0 4-1a7 7 0 0 0 2.7-3q1-1.9 1-4.4 0-2.3-.9-4.4-.9-2-2.8-3a7 7 0 0 0-4-1m-223 .3v16.3h2v-7.7h8.5v7.7H39v-16.3h-2.2v6.7h-8.4v-6.7zm92.3 0v16.3h2.2v-7.7h8.4v7.7h2.2v-16.3h-2.2v6.7h-8.4v-6.7zm107.1 0v16.3h2.2v-7.7h8.4v7.7h2.2v-16.3h-2.2v6.7h-8.4v-6.7zm92.5 0v16.3h2.1v-7.7h8.5v7.7h2.2v-16.3h-2.2v6.7h-8.5v-6.7zm-210.2 1.6q1.5 0 2.9.8 1.2.8 2 2.3.6 1.4.6 3.5a7 7 0 0 1-1.6 4.8 5 5 0 0 1-4 1.8q-2.4 0-4-1.7c-1.6-1.7-1.5-2.7-1.5-4.7q0-3.7 1.6-5.2t4-1.6m141.3 0q1.5 0 2.9.8c1.4.8 1.5 1.3 2 2.3q.6 1.4.6 3.5 0 3-1.5 4.8a5 5 0 0 1-4 1.8q-2.5 0-4-1.7c-1.5-1.7-1.6-2.7-1.6-4.7q0-3.7 1.6-5.2c1.6-1.5 2.4-1.6 4-1.6M107.9 158q-3.5 0-5.7 2.2a9 9 0 0 0-2.2 6.4q0 2.2 1 4a7 7 0 0 0 2.7 3.1q1.8 1.2 4.1 1.1t4-1a7 7 0 0 0 2.9-3q1-1.8 1-4.4 0-2.4-1-4.3-1-2-2.8-3a7 7 0 0 0-4-1.1m141.3 0q-3.4 0-5.7 2.2a9 9 0 0 0-2.2 6.4q0 2.2 1 4c1 1.9 1.5 2.4 2.7 3.1s2.6 1.1 4.2 1.1q2 0 4-1a7 7 0 0 0 2.7-3q1-1.8 1-4.4 0-2.4-.9-4.3-.9-2-2.8-3a7 7 0 0 0-4-1.1m-223 .2v16.3h2v-7.6h8.5v7.7H39v-16.4h-2.2v6.7h-8.4V158zm92.3 0v16.3h2.2v-7.6h8.4v7.7h2.2v-16.4h-2.2v6.7h-8.4V158zm107.1 0v16.3h2.2v-7.6h8.4v7.7h2.2v-16.4h-2.2v6.7h-8.4V158zm92.5 0v16.3h2.1v-7.6h8.5v7.7h2.2v-16.4h-2.2v6.7h-8.5V158zm-210.2 1.6q1.5 0 2.9.8 1.2.8 2 2.3.6 1.5.6 3.5a7 7 0 0 1-1.6 4.9 5 5 0 0 1-4 1.7q-2.4 0-4-1.7c-1.6-1.7-1.5-2.7-1.5-4.7q0-3.7 1.6-5.2t4-1.6m141.3 0q1.5 0 2.9.8c1.4.8 1.5 1.3 2 2.3q.6 1.5.6 3.5 0 3-1.5 4.9a5 5 0 0 1-4 1.7q-2.5 0-4-1.7c-1.5-1.7-1.6-2.7-1.6-4.7q0-3.7 1.6-5.2c1.6-1.5 2.4-1.6 4-1.6M70.8 195.4a8 8 0 0 0-4 1 7 7 0 0 0-2.7 2.8q-1 2-1 4.5 0 2.3.9 4.4c.9 2 1.4 2.4 2.5 3s2.5 1.2 4.3 1.2q2.5 0 4.3-1.5 1.8-1.3 2.4-4l-2.1-.6q-.5 2-1.7 3.1c-1.2 1.1-1.9 1.1-3 1.1q-1.5 0-2.9-.8c-1.4-.8-1.4-1.3-1.8-2.3s-.6-2.2-.6-3.6q0-1.6.5-3.2c.5-1.6 1-1.8 1.8-2.4q1.2-.9 3-.9 1.7 0 2.8.8a5 5 0 0 1 1.7 2.6l2-.5a6 6 0 0 0-2.3-3.5 7 7 0 0 0-4-1.2m40.8 0q-3.5 0-5.7 2.3a9 9 0 0 0-2.2 6.3q0 2.2 1 4 .9 2 2.7 3.2c1.8 1.2 2.6 1 4.2 1q2 0 4-1c2-1 2.1-1.6 2.8-3q1-1.8 1-4.4 0-2.4-1-4.3a7 7 0 0 0-2.7-3q-1.9-1.2-4.1-1.1m175.8 0q-2 0-4 1a7 7 0 0 0-2.7 2.8q-1 2-1 4.5 0 2.3.9 4.4c.9 2 1.4 2.4 2.5 3s2.5 1.2 4.3 1.2q2.5 0 4.3-1.5 1.8-1.3 2.5-4l-2.2-.6q-.5 2-1.7 3.1c-1.2 1.1-1.9 1.1-3 1.1q-1.5 0-2.9-.8c-1.4-.8-1.4-1.3-1.8-2.3a10 10 0 0 1-.6-3.6q0-1.6.5-3.2c.5-1.6 1-1.8 1.7-2.4s2-.9 3.2-.9q1.6 0 2.7.8a5 5 0 0 1 1.6 2.6l2.2-.5a7 7 0 0 0-2.4-3.5 7 7 0 0 0-4-1.2m40.8 0q-3.4 0-5.7 2.3a9 9 0 0 0-2.2 6.3q0 2.2 1 4c1 1.9 1.5 2.4 2.7 3.2s2.6 1 4.2 1q2 0 4-1a7 7 0 0 0 2.8-3q1-1.8 1-4.4 0-2.4-1-4.3-.9-2-2.8-3c-1.9-1-2.5-1.1-4-1.1m-248 .3V212h2.3v-7.7h8.4v7.7h2.2v-16.3h-2.2v6.6h-8.4v-6.6zm42 0V212h2.2v-7.7h8.4v7.7h2.2v-16.3H133v6.6h-8.4v-6.6zm174.7 0V212h2.2v-7.7h8.4v7.7h2.2v-16.3h-2.2v6.6h-8.4v-6.6zm42 0V212h2.1v-7.7h8.4v7.7h2.2v-16.3h-2.2v6.6H341v-6.6zm-227.3 1.5q1.5 0 2.9.8 1.3 1 2 2.3.7 1.5.7 3.5a7 7 0 0 1-1.6 4.9 5 5 0 0 1-4 1.7q-2.4 0-4-1.7a7 7 0 0 1-1.6-4.6q0-3.8 1.6-5.3t4-1.6m216.6 0q1.5 0 2.9.8c1.4.8 1.5 1.4 2 2.3q.6 1.5.6 3.5a7 7 0 0 1-1.5 4.9 5 5 0 0 1-4 1.7q-2.5 0-4-1.7c-1.5-1.7-1.6-2.7-1.6-4.6q0-3.8 1.6-5.3c1.6-1.5 2.5-1.6 4-1.6M98.7 204a4 4 0 0 0-2.8.9q-1 .8-1.2 2.6l1.5.2q0-1.2.7-1.9t1.7-.6 1.7.6.6 1.5-.7 1.8q-.7 1-2.7 2.6l-2 1.9-1 1.6-.1 1h8.1v-1.4h-6l.6-.8 1.7-1.5 2.4-2.2q.7-.7 1-1.5c.3-.8.3-1 .3-1.5q0-1.4-1-2.4c-1-1-1.7-1-2.8-1m216.5 0a4 4 0 0 0-2.7.9q-1 .8-1.2 2.6l1.5.2q0-1.2.7-1.9t1.7-.6 1.7.6c.7.6.6 1 .6 1.5q0 .9-.7 1.8t-2.7 2.6l-2 1.9-1 1.6-.1 1h8v-1.4h-6l.7-.8 1.8-1.5 2.3-2.2q.6-.7 1-1.5l.3-1.5q0-1.4-1-2.4a4 4 0 0 0-2.9-1M15 250v16.3h5.8q1.6 0 2.7-.3c1-.3 1.4-.4 2-.8s1-.8 1.4-1.4q.7-1 1.1-2.5.4-1.4.4-3.2a11 11 0 0 0-.6-4q-.5-1.6-2-2.7-1-.9-2.3-1.2l-2.9-.2zm24.1 0v16.3h2.2V259h7.6v-2h-7.6v-5H50v-2zm194.3 0v16.3h10.2v-2h-8V250zm20.4 0v16.3h2.2V259h7.7v-2H256v-5h8.8v-2zm-167 .3-2 1.3v2.9h-1.5v1.5h1.5v6.8q0 1.8.2 2.4.3.7.8 1t1.7.3q.8 0 1.5-.2l-.2-1.8H87q-.3-.1-.4-.4V256h2v-1.5h-2zm214.6 0-2 1.3v2.9H298v1.5h1.4v6.8q0 1.8.3 2.4t.8 1 1.8.3l1.5-.2-.3-1.8h-1.6q-.3-.1-.3-.4l-.2-1.1v-7h2v-1.5h-2zM17 252h3.5q1.9 0 2.7.3 1.2.6 2 1.9 1 1.4 1 4 0 1.8-.5 3c-.5 1.3-.7 1.6-1.2 2.1q-.5.6-1.4.9c-1 .3-1.5.3-2.6.3H17zm40 2.3q-.8 0-1.3.4t-1.3 1.7v-1.8h-1.8v11.8h2v-6.2q0-1.2.3-2.3.3-.7.8-1.1t1.1-.4 1.5.4l.7-1.8a4 4 0 0 0-2-.7m20.7 0q-1.5 0-2.9.7t-1.9 2.2a7 7 0 0 0-.7 3.3q0 3 1.5 4.6c1.5 1.6 2.3 1.6 4 1.6a5 5 0 0 0 4.9-4.4l-2-.2q-.2 1.5-1 2.2t-2 .7a3 3 0 0 1-2.4-1q-.9-1.2-.9-3.5 0-2.4 1-3.5c1-1 1.4-1 2.4-1q1 0 1.7.6 1 .8 1 1.8l2-.3q-.4-1.8-1.6-2.8c-1.2-1-1.9-1-3.1-1m17.7 0q-2.2 0-3.7 1.3-1.8 1.5-1.8 5 0 3 1.5 4.5c1.5 1.5 2.4 1.6 4 1.6q1.5 0 2.8-.8 1.4-.6 2-2t.7-3.6a6 6 0 0 0-1.5-4.4q-1.6-1.5-4-1.6m11.8 0-1.8.3-1.2.5q-.7.4-1 1.2l-.4 1.4a3 3 0 0 0 1.8 2.7q.8.4 3 1 1.7.4 2 .7.6.4.6 1 0 .9-.6 1.4t-2 .5-2.2-.6-1-1.8l-2 .3q.4 1.8 1.6 2.8t3.5 1q1.5 0 2.5-.5 1.3-.6 1.7-1.4a3 3 0 0 0 .1-3.6q-.4-.6-1.3-1l-3-1-1.7-.5-.8-.5-.2-.7q0-.6.6-1 .6-.6 2-.5 1 0 1.7.5t.8 1.4l2-.3-.7-1.8q-.5-.7-1.6-1-1-.5-2.4-.5m12.3 0q-2.4 0-4 1.7a7 7 0 0 0-1.5 4.6q0 3 1.5 4.5 1.5 1.6 4.2 1.6 2 0 3.3-1c1.3-1 1.5-1.6 1.8-2.9l-2-.2q-.5 1.3-1.3 1.8c-.8.5-1.1.6-1.8.6q-1.6 0-2.5-1-1-1-1.1-3h8.8v-.5q0-3-1.5-4.6c-1.5-1.6-2.3-1.6-3.9-1.6m152.2 0q-.8 0-1.3.4t-1.3 1.7v-1.8h-1.8v11.8h2v-6.2q0-1.2.3-2.3.2-.7.8-1.1c.6-.4.7-.4 1.2-.4q.8 0 1.4.4l.7-1.8a4 4 0 0 0-2-.7m20.7 0q-1.5 0-2.9.7-1.2.7-1.9 2.2c-.7 1.5-.6 2-.6 3.3q0 3 1.4 4.6a5 5 0 0 0 4 1.6q1.8 0 3.2-1.2t1.7-3.1l-2-.3q-.2 1.5-1 2.2t-2 .7a3 3 0 0 1-2.4-1q-.9-1.2-.9-3.5 0-2.4 1-3.5a3 3 0 0 1 2.4-1q1 0 1.8.6.6.6 1 1.8l1.9-.3a5 5 0 0 0-1.6-2.8q-1.2-1-3.1-1m17.7 0q-2.1 0-3.7 1.3-1.8 1.5-1.8 5 0 3 1.5 4.5 1.5 1.6 4 1.6 1.5 0 2.9-.8 1.2-.6 2-2 .6-1.3.7-3.6a6 6 0 0 0-1.6-4.4q-1.5-1.5-4-1.6m11.8 0a6 6 0 0 0-3 .8 3 3 0 0 0-1.4 2.6q0 .9.5 1.6t1.3 1.1l3 1q1.7.4 2 .7.7.4.7 1 0 .9-.7 1.4t-2 .5q-1.5 0-2.2-.6t-1-1.8l-2 .3q.4 1.8 1.6 2.8c1.2 1 2 1 3.5 1q1.5 0 2.5-.5 1.3-.6 1.7-1.4a3 3 0 0 0 .2-3.6q-.6-.6-1.4-1c-.8-.4-1.5-.6-3-1l-1.7-.5-.8-.5-.2-.7q0-.6.6-1 .5-.6 2-.5 1 0 1.7.5t.8 1.4l2-.3q-.2-1-.7-1.8c-.5-.8-.9-.8-1.6-1s-1.5-.5-2.4-.5m12.3 0q-2.4 0-4 1.7a7 7 0 0 0-1.5 4.6q0 3 1.5 4.5 1.5 1.6 4.2 1.6 2 0 3.3-1 1.4-1 1.9-2.9l-2.1-.2q-.4 1.3-1.3 1.8a3 3 0 0 1-1.8.6q-1.5 0-2.5-1t-1.1-3h8.8v-.5q0-3-1.5-4.6a5 5 0 0 0-3.9-1.6m-274 .3v9.2l.7 1.5q.4.6 1.3 1c1 .4 1.3.4 2 .4q2.4 0 3.7-2v1.7h1.8v-11.8h-2v6.3q0 1.5-.3 2.3-.3.9-1.1 1.3t-1.7.4-1.5-.4a2 2 0 0 1-.8-1.2l-.1-2.2v-6.5zm214.7 0v9.2l.7 1.5q.4.6 1.3 1t2 .4q2.4 0 3.8-2v1.7h1.7v-11.8h-2v6.3q0 1.5-.3 2.3-.3.9-1.1 1.3-.7.4-1.7.4-.9.1-1.5-.4a2 2 0 0 1-.8-1.2l-.1-2.2v-6.5zM95.4 256q1.5 0 2.5 1.1t1 3.3q0 2.4-1 3.5t-2.5 1.1-2.5-1-1-3.5 1-3.4q1-1 2.5-1.1m24.2 0q1.5 0 2.4 1.1.6.8.8 2.3h-6.6q0-1.5 1-2.5c1-1 1.4-1 2.4-1m190.5 0q1.5 0 2.5 1.1t1 3.3q0 2.4-1 3.5T310 265t-2.5-1-1-3.5 1-3.4 2.5-1.1m24.2 0q1.5 0 2.4 1.1.7.8.8 2.3h-6.6q0-1.5 1-2.5t2.4-1m-304 3.5v2h6.2v-2zm214.7 0v2h6.2v-2z"/></svg>