<svg xml:space="preserve" viewBox="0 0 360.6 293.2"><path d="M37.6 7.3q-3.5 0-5.7 2.3a9 9 0 0 0-2.2 6.4q0 2.1 1 4 .9 2 2.7 3.1a6 6 0 0 0 4.2 1.1q2 0 4-1c2-1 2-1.6 2.7-3q1-1.9 1-4.4 0-2.3-.9-4.4-1-2-2.8-3c-1.8-1-2.5-1-4-1m216.6 0q-3.4 0-5.7 2.3a9 9 0 0 0-2.2 6.4q0 2.1 1 4a7 7 0 0 0 6.9 4.2q2 0 4-1a7 7 0 0 0 2.8-3q1-1.9 1-4.4 0-2.3-1-4.4a7 7 0 0 0-2.8-3q-1.8-1-4-1m-157.7.3V24h2.1v-7.6h8.5V24h2.1V7.6h-2.1v6.7h-8.5V7.6zm216.6 0V24h2.1v-7.6h8.5V24h2.1V7.6h-2.1v6.7h-8.5V7.6zM37.6 9.2q1.5 0 2.9.8c1.4.8 1.5 1.3 2 2.3s.6 2.2.6 3.5q0 3-1.5 4.9a5 5 0 0 1-4 1.7q-2.5 0-4-1.7C32 19 32 18 32 16q0-3.6 1.6-5.2c1.6-1.7 2.4-1.6 4-1.6m216.6 0q1.5 0 2.9.8t2 2.3c.7 1.5.6 2.2.6 3.5q0 3-1.5 4.9a5 5 0 0 1-4 1.7q-2.5 0-4-1.7a7 7 0 0 1-1.6-4.7q0-3.6 1.6-5.2t4-1.6m-205.6 8-.8 1.3 23.6 13.7-2 1.1v2.3L45.7 22l-.8 1.4 24.3 14.1v33.2H41v1.6h28.3v36.1H42.4v1.6h27v36H41v1.7h28.3v36H41v1.7h28.3v27.1H71v-27h26.8v-1.7H71v-36.1h26.8V146H71v-36h28.4v-1.6H71V72.3h26.8v-1.6H71V34.3l22.5-13-.8-1.5L73 31.2zm216.6 0-.8 1.3L288 32.2l-2 1.1v2.3L262.3 22l-.8 1.4 24.3 14.1v33.2H259v1.6h27v36.1h-28.4v1.6h28.3v36H259v1.7h27v36h-27v1.7h27v27.1h1.6v-27H316v-1.7h-28.4v-36.1H316V146h-28.4v-36h26.8v-1.6h-26.8V72.3H316v-1.6h-28.4V34.3l22.5-13-.8-1.5-19.7 11.4zM107.9 63.8q-3.5 0-5.7 2.4a9 9 0 0 0-2.2 6.3q0 2.2 1 4a7 7 0 0 0 2.7 3.1q1.8 1.2 4.1 1.2t4-1a7 7 0 0 0 2.9-3q1-2 1-4.5 0-2.3-1-4.4-1-1.9-2.8-3c-1.8-1-2.5-1-4-1m141.3 0q-3.4 0-5.7 2.4a9 9 0 0 0-2.2 6.3q0 2.2 1 4c1 1.9 1.5 2.4 2.7 3.1a8 8 0 0 0 8.1.2 7 7 0 0 0 2.8-3q1-2 1-4.5 0-2.3-.9-4.4-.9-1.9-2.8-3c-1.9-1-2.5-1-4-1m-223 .3v16.4h2V73h8.5v7.7H39V64h-2.2v6.7h-8.4V64zm92.3 0v16.4h2.2V73h8.4v7.7h2.2V64h-2.2v6.7h-8.4V64zm107.1 0v16.4h2.2V73h8.4v7.7h2.2V64h-2.2v6.7h-8.4V64zm92.5 0v16.4h2.1V73h8.5v7.7h2.2V64h-2.2v6.7h-8.5V64zm-210.2 1.6q1.5 0 2.9.8 1.2 1 2 2.3.6 1.5.6 3.5a7 7 0 0 1-1.6 4.9 5 5 0 0 1-4 1.7q-2.4 0-4-1.7c-1.6-1.7-1.5-2.7-1.5-4.7q0-3.7 1.6-5.2t4-1.6m141.3 0q1.5 0 2.9.8c1.4.8 1.5 1.4 2 2.3q.6 1.5.6 3.5 0 3.1-1.5 4.9a5 5 0 0 1-4 1.7q-2.5 0-4-1.7c-1.5-1.7-1.6-2.7-1.6-4.7q0-3.7 1.6-5.2c1.6-1.5 2.4-1.6 4-1.6M32.6 101.6q-3.4 0-5.7 2.3a9 9 0 0 0-2.2 6.3q0 2.2 1 4.1c1 2 1.5 2.3 2.7 3a8 8 0 0 0 8.1.2 7 7 0 0 0 2.8-3q1-2 1-4.5 0-2.4-.9-4.3-1-2-2.8-3a7 7 0 0 0-4-1.1m291.9 0q-3.4 0-5.7 2.3a9 9 0 0 0-2.1 6.3q0 2.2.9 4.1.9 2 2.7 3a7 7 0 0 0 4.1 1.2q2.2 0 4-1a7 7 0 0 0 2.8-3q1-2 1-4.5 0-2.4-.9-4.3a7 7 0 0 0-2.8-3q-1.8-1.1-4-1.1M9 101.8v16.4h2.2v-7.7h8.4v7.7h2.2v-16.4h-2.2v6.8h-8.4v-6.8zm92.5 0v16.4h2.2v-7.7h8.4v7.7h2.2v-16.4H112v6.8h-8.4v-6.8zm141.2 0v16.4h2.2v-7.7h8.4v7.7h2.2v-16.4h-2.2v6.8H245v-6.8zm92.4 0v16.4h2.2v-7.7h8.4v7.7h2.2v-16.4h-2.2v6.8h-8.4v-6.8zM32 103.4h.6a5 5 0 0 1 4.9 3.2q.6 1.5.6 3.4 0 3.2-1.5 5a5 5 0 0 1-4 1.6q-2.5 0-4-1.7c-1.5-1.7-1.6-2.7-1.6-4.7q0-3.7 1.6-5.2 1.5-1.4 3.4-1.6m292 0h.5q1.5 0 2.9.8 1.2.9 2 2.4.6 1.5.6 3.4 0 3.2-1.5 5a5 5 0 0 1-4 1.6q-2.5 0-4-1.7a7 7 0 0 1-1.6-4.7q0-3.7 1.6-5.2 1.5-1.4 3.4-1.6m-216.1 35.8q-3.5 0-5.7 2.3a9 9 0 0 0-2.2 6.4q0 2.2 1 4a7 7 0 0 0 2.7 3.1q1.8 1.1 4.1 1.1t4-1a7 7 0 0 0 2.9-3q1-1.8 1-4.4 0-2.3-1-4.4-1-1.9-2.8-3c-1.8-1-2.5-1-4-1m141.3 0q-3.4 0-5.7 2.3a9 9 0 0 0-2.2 6.4q0 2.2 1 4 .9 2 2.7 3.1a6 6 0 0 0 4.2 1.1q2 0 4-1a7 7 0 0 0 2.7-3q1-1.8 1-4.4 0-2.3-.9-4.4-.9-1.9-2.8-3c-1.9-1-2.5-1-4-1m-223 .3V156h2v-7.6h8.5v7.6H39v-16.3h-2.2v6.7h-8.4v-6.7zm92.3 0V156h2.2v-7.6h8.4v7.6h2.2v-16.3H129v6.7h-8.4v-6.7zm107.1 0V156h2.2v-7.6h8.4v7.6h2.2v-16.3h-2.2v6.7h-8.4v-6.7zm92.5 0V156h2.1v-7.6h8.5v7.6h2.2v-16.3h-2.2v6.7h-8.5v-6.7zm-210.2 1.6q1.5 0 2.9.8 1.2.8 2 2.3.6 1.5.6 3.5a7 7 0 0 1-1.6 4.9 5 5 0 0 1-4 1.7q-2.4 0-4-1.7c-1.6-1.7-1.5-2.7-1.5-4.7q0-3.7 1.6-5.2t4-1.6m141.3 0q1.5 0 2.9.8c1.4.8 1.5 1.3 2 2.3q.6 1.5.6 3.5 0 3-1.5 4.9a5 5 0 0 1-4 1.7q-2.5 0-4-1.7c-1.5-1.7-1.6-2.7-1.6-4.7q0-3.7 1.6-5.2c1.6-1.5 2.4-1.6 4-1.6M107.9 177q-3.5 0-5.7 2.3a9 9 0 0 0-2.2 6.3q0 2.2 1 4a7 7 0 0 0 2.7 3.1q1.8 1.2 4.1 1.1t4-1a7 7 0 0 0 2.9-3q1-1.8 1-4.4 0-2.3-1-4.4-1-1.9-2.8-3c-1.8-1-2.5-1-4-1m141.3 0q-3.4 0-5.7 2.3a9 9 0 0 0-2.2 6.3q0 2.2 1 4 .9 2 2.7 3.1a6 6 0 0 0 4.2 1.1q2 0 4-1a7 7 0 0 0 2.7-3q1-1.8 1-4.4 0-2.3-.9-4.4-.9-1.9-2.8-3c-1.9-1-2.5-1-4-1m-223 .3v16.3h2v-7.7h8.5v7.7H39v-16.3h-2.2v6.6h-8.4v-6.7zm92.3 0v16.3h2.2v-7.7h8.4v7.7h2.2v-16.3h-2.2v6.6h-8.4v-6.7zm107.1 0v16.3h2.2v-7.7h8.4v7.7h2.2v-16.3h-2.2v6.6h-8.4v-6.7zm92.5 0v16.3h2.1v-7.7h8.5v7.7h2.2v-16.3h-2.2v6.6h-8.5v-6.7zm-210.2 1.5q1.5 0 2.9.8 1.2.9 2 2.3.6 1.5.6 3.5a7 7 0 0 1-1.6 4.9 5 5 0 0 1-4 1.7q-2.4 0-4-1.7c-1.6-1.7-1.5-2.7-1.5-4.6q0-3.8 1.6-5.3t4-1.6m141.3 0q1.5 0 2.9.8c1.4.8 1.5 1.3 2 2.3q.6 1.5.6 3.5 0 3.1-1.5 4.9a5 5 0 0 1-4 1.7q-2.5 0-4-1.7c-1.5-1.7-1.6-2.7-1.6-4.6q0-3.8 1.6-5.3c1.6-1.5 2.4-1.6 4-1.6M70.8 214.7a8 8 0 0 0-4 1 7 7 0 0 0-2.7 2.8q-1 2-1 4.5 0 2.3.9 4.4c.9 2 1.4 2.4 2.5 3.1s2.5 1 4.3 1q2.5 0 4.3-1.3 1.8-1.5 2.4-4.1l-2.1-.5q-.5 2-1.7 3a4 4 0 0 1-3 1.1q-1.5 0-2.9-.8c-1.4-.8-1.4-1.2-1.8-2.3a10 10 0 0 1-.1-6.8q.5-1.5 1.8-2.4 1.2-.9 3-.9 1.7 0 2.8.8a5 5 0 0 1 1.7 2.6l2-.5A7 7 0 0 0 75 216a7 7 0 0 0-4-1.2m40.8 0q-3.5 0-5.7 2.3a9 9 0 0 0-2.2 6.3q0 2.2 1 4.1.9 2 2.7 3a7 7 0 0 0 4.2 1.2q2 0 4-1c2-1 2.1-1.7 2.8-3q1-2 1-4.4 0-2.6-1-4.4a7 7 0 0 0-2.7-3q-1.9-1.2-4.1-1.1m175.8 0q-2 0-4 1a7 7 0 0 0-2.7 2.8q-1 2-1 4.5 0 2.3.9 4.4c.9 2 1.4 2.4 2.5 3.1s2.5 1 4.3 1q2.5 0 4.3-1.3 1.8-1.5 2.5-4.1l-2.2-.5q-.5 2-1.7 3a4 4 0 0 1-3 1.1q-1.5 0-2.9-.8c-1.4-.8-1.4-1.2-1.8-2.3a10 10 0 0 1-.6-3.6q0-1.6.5-3.2c.5-1.6 1-1.8 1.7-2.4s2-.9 3.2-.9q1.6 0 2.7.8a5 5 0 0 1 1.6 2.6l2.2-.5a7 7 0 0 0-2.4-3.5 7 7 0 0 0-4-1.2m40.8 0q-3.4 0-5.7 2.3a9 9 0 0 0-2.2 6.3q0 2.2 1 4.1c1 2 1.5 2.3 2.7 3a8 8 0 0 0 8.1.2 7 7 0 0 0 2.9-3q1-2 1-4.4 0-2.6-1-4.4-.9-2-2.8-3a7 7 0 0 0-4-1.1m-248 .2v16.4h2.3v-7.7h8.4v7.7h2.2V215h-2.2v6.8h-8.4V215zm42 0v16.4h2.2v-7.7h8.4v7.7h2.2V215h-2.2v6.8h-8.4V215zm174.7 0v16.4h2.2v-7.7h8.4v7.7h2.2V215h-2.2v6.8h-8.4V215zm42 0v16.4h2.1v-7.7h8.4v7.7h2.2V215h-2.2v6.8H341V215zm-227.3 1.6q1.5 0 2.9.8t2 2.4q.7 1.5.7 3.4a7 7 0 0 1-1.6 4.9 5 5 0 0 1-4 1.7q-2.4 0-4-1.7a7 7 0 0 1-1.6-4.7q0-3.6 1.6-5.2 1.7-1.5 4-1.6m216.6 0q1.5 0 2.9.8c1.4.8 1.5 1.4 2 2.4q.6 1.5.6 3.4a7 7 0 0 1-1.5 4.9 5 5 0 0 1-4 1.7q-2.5 0-4-1.7c-1.5-1.7-1.6-2.7-1.6-4.7q0-3.6 1.6-5.2c1.6-1.6 2.5-1.6 4-1.6M99 223.4a4 4 0 0 0-2.8.9q-1 1-1.2 2.6l1.5.2q0-1.2.7-1.8t1.7-.7 1.7.6.6 1.5-.7 1.8q-.7 1-2.7 2.6l-2 1.9-1 1.6-.1 1h8.1v-1.4h-6l.6-.8 1.7-1.6q1.7-1.3 2.4-2.1.7-.7 1-1.5c.3-.8.3-1 .3-1.4q0-1.5-1-2.4c-1-1-1.7-1-2.8-1m216.5 0a4 4 0 0 0-2.7.9q-1 1-1.2 2.6l1.5.2q0-1.2.7-1.8t1.7-.7 1.7.6c.7.6.6 1 .6 1.5q0 .9-.7 1.8t-2.7 2.6l-2 1.9-1 1.6-.1 1h8v-1.4h-6l.7-.8 1.8-1.6 2.3-2.1q.6-.7 1-1.5l.3-1.4q0-1.5-1-2.4a4 4 0 0 0-2.9-1M49.1 269q-2.5 0-4.3 1c-1.8 1-2.2 1.7-2.9 3s-1 3-1 4.5q0 2.4 1 4.4t3 3c2 1 2.7 1 4.3 1q1.8 0 3.5-.6c1.7-.7 2.2-1.1 3.3-2v-6h-7v2h5v3l-2 1.1q-1.4.6-2.8.6-1.5 0-3-.7-1.5-.8-2.2-2.2a8 8 0 0 1-.8-3.7q0-1.8.6-3.3l1-1.6q.8-.7 1.8-1.2 1.3-.6 2.6-.4 1.3 0 2.2.4t1.6 1.1q.7.9 1 2l1.8-.5q-.3-1.6-1.2-2.7-.8-1-2.2-1.6c-1.4-.6-2-.6-3.2-.6m214.7 0a9 9 0 0 0-4.3 1q-1.9 1-2.9 3c-1 2-1 3-1 4.5q0 2.4 1 4.4t3 3c2 1 2.8 1 4.4 1q1.8 0 3.4-.6a10 10 0 0 0 3.3-2v-6h-6.9v2h4.8v3q-.7.5-2 1.1t-2.8.6-3-.7q-1.5-.8-2.2-2.2a8 8 0 0 1-.8-3.7q0-1.8.7-3.3.4-.9 1-1.6t1.7-1.2 2.6-.4q1.3 0 2.2.4t1.6 1.1a6 6 0 0 1 .9 2l2-.5q-.4-1.6-1.3-2.7-.7-1-2.2-1.6c-1.5-.6-2-.6-3.2-.6m-246.4.3v16.3h5.9q1.5 0 2.6-.3c1.1-.3 1.4-.4 2-.8s1-.8 1.4-1.5a8 8 0 0 0 1.1-2.3q.5-1.4.5-3.3 0-2.2-.7-4-.6-1.6-1.9-2.7-1-.9-2.4-1.2l-2.9-.2zm41.5 0v16.3h2v-16.3zm177 0v16.3h10v-2h-8v-14.3zm37.7 0v16.3h2v-16.3zm-254 2H23q2 0 2.8.3 1.2.4 2 1.8t.9 4q0 1.8-.5 3c-.5 1.3-.7 1.6-1.2 2.1q-.5.6-1.4.9c-1 .3-1.5.3-2.6.3h-3.4zm61.8 2.2q-1.5 0-2.8.8-1.2.6-2 2.1c-.7 1.5-.5 2-.5 3.4q0 3 1.4 4.5c1.4 1.5 2.3 1.6 4 1.6q1.8 0 3.2-1.1t1.7-3.2l-2-.3q-.3 1.5-1 2.2-.8.8-2 .8a3 3 0 0 1-2.4-1.1q-.9-1.2-.9-3.5 0-2.4 1-3.4c1-1 1.4-1.1 2.4-1.1q1 0 1.7.6.9.8 1 1.8l2-.4q-.4-1.6-1.6-2.7c-1.2-1.1-1.9-1-3.2-1m11.5 0q-2.2 0-3.7 1.3-2 1.6-1.9 5 0 3 1.5 4.5c1.5 1.5 2.4 1.6 4 1.6q1.6 0 3-.7 1.2-.8 2-2 .6-1.4.6-3.7 0-2.7-1.6-4.4c-1.6-1.7-2.3-1.6-4-1.6m11.8 0q-1 0-1.8.3l-1.3.5a3 3 0 0 0-1.3 2.6q0 1 .4 1.6.5.8 1.3 1.2l3 .9q1.8.4 2.1.7.6.4.6 1 0 .8-.7 1.4t-2 .6-2.1-.7-1-1.8l-2 .3q.4 1.8 1.6 2.8t3.5 1q1.5 0 2.5-.5t1.7-1.4a3 3 0 0 0 .1-3.6q-.5-.6-1.3-1l-3-1-1.8-.5q-.5-.2-.7-.5-.3-.3-.3-.7 0-.6.6-1t2-.5q1.2 0 1.8.5t.8 1.4l2-.3q-.3-1-.8-1.8c-.5-.8-.8-.8-1.5-1s-1.5-.5-2.4-.5m11.7 0q-2 .2-3.4 1.7a7 7 0 0 0-1.5 4.6q0 3 1.5 4.5 1.5 1.6 4.1 1.6 2 0 3.4-1a5 5 0 0 0 1.8-2.8l-2-.3q-.6 1.3-1.3 1.9-.9.8-1.9.6-1.5 0-2.4-1.1-1-1-1.2-3h8.9v-.5q0-3-1.5-4.6c-1.5-1.6-2.3-1.6-3.9-1.6zm179.8 0q-1.5 0-2.9.8-1.2.6-1.9 2.1-.6 1.4-.6 3.4 0 3 1.4 4.5a5 5 0 0 0 4 1.6q1.9 0 3.2-1.1a5 5 0 0 0 1.7-3.2l-2-.3q-.2 1.5-1 2.2t-2 .8a3 3 0 0 1-2.4-1.1q-.9-1.2-.9-3.5 0-2.4 1-3.4c1-1 1.4-1.1 2.4-1.1q1 0 1.8.6c.8.6.8 1 1 1.8l1.9-.4q-.4-1.6-1.6-2.7c-1.2-1.1-1.9-1-3.1-1m11.4 0q-2.2 0-3.7 1.3-1.8 1.6-1.9 5 0 3 1.6 4.5 1.5 1.6 4 1.6 1.6 0 2.8-.7 1.5-.8 2-2 .7-1.4.7-3.7a6 6 0 0 0-1.5-4.4q-1.5-1.6-4-1.6m11.7 0-1.7.3-1.3.5a3 3 0 0 0-1.3 2.6q0 1 .4 1.6.5.8 1.3 1.2l3 .9q1.8.4 2.1.7.6.4.6 1 0 .8-.7 1.4-.5.6-2 .6-1.4 0-2.1-.7a3 3 0 0 1-1-1.8l-2 .3q.4 1.8 1.6 2.8c1.2 1 2 1 3.5 1q1.5 0 2.5-.5 1.3-.6 1.7-1.4.6-.9.6-1.8t-.5-1.8c-.5-.8-.8-.8-1.3-1a29 29 0 0 0-4.7-1.5q-.6-.2-.8-.5t-.3-.7q0-.6.6-1t2-.5q1.2 0 1.8.5t.8 1.4l2-.3q-.2-1-.8-1.8c-.6-.8-.8-.8-1.5-1s-1.5-.5-2.5-.5m11.8 0q-2 .2-3.4 1.7a7 7 0 0 0-1.5 4.6q0 3 1.5 4.5 1.5 1.6 4.1 1.6 2 0 3.4-1a5 5 0 0 0 1.8-2.8l-2-.3q-.6 1.3-1.3 1.9a3 3 0 0 1-1.9.6q-1.5 0-2.5-1.1-1-1-1-3h8.8v-.5q0-3-1.5-4.6a5 5 0 0 0-3.9-1.6zm-267.2.3v7.3q0 1.3.2 1.9 0 .8.6 1.5.4.6 1.3 1c1 .4 1.3.4 2 .4q2.3 0 3.7-2v1.7h1.8v-11.8h-2v6.3q0 1.5-.3 2.3-.3.9-1.1 1.3t-1.7.5-1.5-.5-.8-1.2l-.2-2.2v-6.5zm214.8 0v9.2l.7 1.5q.4.6 1.3 1c1 .4 1.3.4 2 .4q2.4 0 3.7-2v1.7h1.8v-11.8h-2v6.3q0 1.5-.3 2.3-.3.9-1.1 1.3t-1.7.5-1.5-.5-.8-1.2l-.1-2.2v-6.5zM117 275.2q1.6 0 2.5 1.1.7.8.7 2.3h-6.5q0-1.5 1-2.5t2.3-1m214.7 0q1.5 0 2.5 1.1.6.8.8 2.3h-6.6q0-1.5 1-2.5c1-1 1.4-1 2.3-1m-238.8 0q1.5 0 2.4 1.1 1 1.2 1 3.3 0 2.4-1 3.5t-2.4 1.1q-1.6 0-2.5-1.1-1-1.2-1-3.4t1-3.4c1-1.2 1.5-1.1 2.5-1.1m214.7 0q1.5 0 2.5 1.1t1 3.3q0 2.4-1 3.5t-2.5 1.1-2.5-1.1-1-3.4 1-3.4q1-1 2.5-1.1m-274.8 3.5v2H39v-2zm214.7 0v2h6.2v-2z"/></svg>