<svg xml:space="preserve" style="overflow:visible" viewBox="0 0 361.8 293.2"><path d="m72.1 70.7-.8.8-.8-.8V33.3l1.6 1zm0 37.7-.8.8-.8-.8V72.3l.8-.8.8.8z"/><path d="m72.1 146-.8.9-.8-.8v-36l.8-.9.8.8zm0 37.8-.8.8-.8-.8v-36.1l.8-.8.8.8zm4.4 41.8 2.2.5a7 7 0 0 1-2.4 4 7 7 0 0 1-4.4 1.5q-2.5 0-4.2-1.1t-2.6-3.1a11 11 0 0 1 .2-8.9 7 7 0 0 1 2.7-2.8 8 8 0 0 1 4-1q2.4 0 4 1.2 1.8 1.2 2.4 3.5l-2.1.5a5 5 0 0 0-1.7-2.6q-1-.8-2.7-.8t-3.1 1q-1.2.8-1.8 2.3-.5 1.5-.5 3.2 0 2.1.6 3.6T69 229t2.8.8q1.8 0 3-1 1.3-1.1 1.7-3.1m4.9 5.6v-16.4h2.2v6.8h8.5v-6.8h2.1v16.4h-2.1v-7.7h-8.5v7.7zm22.2 2.8v1.5h-8l.1-1q.3-1 1-1.7.7-.9 2-1.9 2-1.6 2.7-2.6a3 3 0 0 0 .7-1.8 2 2 0 0 0-.7-1.5q-.7-.6-1.6-.6-1.1 0-1.8.7t-.6 1.8l-1.6-.2q.1-1.7 1.2-2.6a4 4 0 0 1 2.8-1q1.8 0 2.8 1t1 2.5q0 .8-.3 1.4-.3.8-1 1.5l-2.3 2.2-2.4 2.3zm1.3-10.8q0-4 2.2-6.3a7 7 0 0 1 5.6-2.3q2.3 0 4.1 1a7 7 0 0 1 2.8 3q1 2 1 4.4t-1 4.5a7 7 0 0 1-3 3 8 8 0 0 1-8-.2 7 7 0 0 1-2.8-3q-.9-2-.9-4m2.2 0q0 3 1.6 4.7 1.5 1.7 4 1.7 2.4 0 4-1.7a7 7 0 0 0 1.6-4.9q0-2-.7-3.5a5 5 0 0 0-4.9-3q-2.2 0-4 1.5-1.5 1.5-1.6 5.3m16.3 7.8v-16.4h2.1v6.8h8.5v-6.8h2.2v16.4H134v-7.7h-8.5v7.7z"/><path d="M72.1 212.5h-1.6v-27.1l.8-.8.8.8zm29.1-140q0-4 2.2-6.3a7 7 0 0 1 5.6-2.3q2.3 0 4 1a7 7 0 0 1 2.9 3q1 2 1 4.4t-1 4.5a7 7 0 0 1-3 3 8 8 0 0 1-8-.2 7 7 0 0 1-2.8-3q-1-2-1-4m2.2 0q0 3 1.6 4.7t4 1.7 4-1.7a7 7 0 0 0 1.6-4.9q0-2-.7-3.5a5 5 0 0 0-4.9-3q-2.2 0-4 1.5-1.6 1.5-1.6 5.2m16.4 7.9V64h2.1v6.7h8.5V64h2.1v16.4h-2.1v-7.7h-8.5v7.7zM99 70.7v1.6H72.1l-.8-.8.8-.8zm-71.7 9.8V64h2.1v6.7H38V64h2v16.4h-2v-7.7h-8.5v7.7zm14.8-8.2v-1.6h28.4l.8.8-.8.8zm60.5 45.9v-16.3h2.2v6.7h8.5v-6.7h2.1v16.3h-2.1v-7.7h-8.5v7.7zm-2.1-9.8v1.6H72.1l-.8-.8.8-.8zm-90.3 9.8v-16.3h2.1v6.7h8.5v-6.7h2.1v16.3h-2.1v-7.7h-8.5v7.7zm15.7-8q0-4 2.2-6.3a7 7 0 0 1 5.6-2.3q2.3 0 4 1a7 7 0 0 1 2.9 3q.9 2 .9 4.4t-1 4.5a7 7 0 0 1-2.8 3 8 8 0 0 1-8.1-.1 7 7 0 0 1-2.8-3q-1-2-1-4.2m2.2 0q0 3 1.6 4.7t4 1.7q2.5 0 4-1.7a7 7 0 0 0 1.6-4.9q0-2-.7-3.5a5 5 0 0 0-4.9-3q-2.2 0-4 1.5-1.5 1.5-1.6 5.3m15.6-.3v-1.6h26.9l.8.8-.8.8zm59 45.8v-16.3h2.2v6.7h8.5v-6.7h2.1v16.3h-2.1v-7.6h-8.5v7.6zm-2.1-9.8v1.7H72.1l-.8-.8.8-.8zm-90.3 9.8v-16.3h2.1v6.7h8.5v-6.7h2.1v16.3h-2.1v-7.6h-8.5v7.6zm15.7-7.9q0-4 2.2-6.4a7 7 0 0 1 5.6-2.3q2.3 0 4 1.1a7 7 0 0 1 2.9 3q.9 2 .9 4.4t-1 4.5a7 7 0 0 1-2.8 3 8 8 0 0 1-8.1-.2 7 7 0 0 1-2.8-3q-1-2-1-4.1m2.2 0q0 3 1.6 4.7t4 1.7q2.5 0 4-1.7a7 7 0 0 0 1.6-4.9q0-2-.7-3.5a5 5 0 0 0-4.9-3.1q-2.2 0-4 1.6-1.5 1.6-1.6 5.2m15.6-.2V146h26.9l.8.8-.8.8zm57.6 37.9q0-4 2.2-6.3a7 7 0 0 1 5.6-2.3q2.3 0 4 1a7 7 0 0 1 2.9 3q1 2 1 4.4t-1 4.5a7 7 0 0 1-3 3 8 8 0 0 1-8-.2 7 7 0 0 1-2.8-3q-1-2-1-4m2.2 0q0 3 1.6 4.7t4 1.7 4-1.7a7 7 0 0 0 1.6-4.9q0-2-.7-3.5a5 5 0 0 0-4.9-3q-2.2 0-4 1.5-1.6 1.6-1.6 5.2m16.4 7.9v-16.4h2.1v6.7h8.5v-6.7h2.1v16.4h-2.1v-7.7h-8.5v7.7z"/><path d="M99 183.8v1.6H72.1l-.8-.8.8-.8zm-71.7 9.8v-16.4h2.1v6.7H38v-6.7h2v16.4h-2v-7.7h-8.5v7.7zm14.8-8.2v-1.6h28.4l.8.8-.8.8zM30.9 16q0-4 2.2-6.4a7 7 0 0 1 5.6-2.3q2.3 0 4 1.1a7 7 0 0 1 2.9 3q1 2 1 4.4t-1 4.4a7 7 0 0 1-3 3 8 8 0 0 1-8 0 7 7 0 0 1-2.8-3.1q-1-2-1-4.1m2.2 0q0 3 1.6 4.7 1.5 1.7 4 1.7 2.4 0 4-1.7a7 7 0 0 0 1.6-5q0-1.8-.7-3.4a5 5 0 0 0-4.9-3.1q-2.2 0-4 1.6Q33 12.4 33 16m13.1 7.4L47 22l24.8 14.3-.8 1.5zm2.9-4.9.7-1.4 24.8 14.3-.8 1.5zM97.6 24V7.5h2.2v6.7h8.4V7.6h2.2V24h-2.2v-7.6h-8.4V24z"/><path d="m93.9 19.9.8 1.3-22.6 13-1.6-.9zm194.8 50.8-.8.8-.8-.8V33.3l1.6 1zm0 37.7-.8.8-.8-.8V72.3l.8-.8.8.8zm0 37.6-.8.9-.8-.8v-36l.8-.9.8.8zm0 37.8-.8.8-.8-.8v-36.1l.8-.8.8.8zm4.4 41.8 2.2.5a7 7 0 0 1-2.4 4 7 7 0 0 1-4.4 1.5q-2.6 0-4.2-1.1t-2.6-3.1a11 11 0 0 1 .2-8.9 7 7 0 0 1 2.7-2.8 8 8 0 0 1 4-1q2.5 0 4 1.2 1.8 1.2 2.4 3.5l-2.1.5a5 5 0 0 0-1.7-2.6q-1-.8-2.7-.8-1.9 0-3.1 1-1.3.8-1.8 2.3t-.5 3.2q0 2.1.6 3.6t1.9 2.3 2.8.8q1.8 0 3-1 1.3-1.1 1.7-3.1m4.9 5.7v-16.4h2.2v6.8h8.5v-6.8h2.1v16.4h-2.1v-7.7h-8.5v7.7zm22.2 2.8v1.5h-8l.1-1q.4-1 1-1.7.7-.9 2-1.9 2-1.6 2.7-2.6a3 3 0 0 0 .7-1.8 2 2 0 0 0-.7-1.5q-.6-.6-1.6-.6-1.1 0-1.8.7t-.6 1.8l-1.6-.2q.2-1.7 1.2-2.6a4 4 0 0 1 2.8-1q1.8 0 2.8 1t1 2.5q0 .8-.3 1.4-.3.8-1 1.5l-2.3 2.2-2.4 2.3zm1.3-10.8q0-4 2.2-6.3a7 7 0 0 1 5.6-2.3q2.3 0 4.1 1a7 7 0 0 1 2.8 3q1 2 1 4.4t-1 4.5a7 7 0 0 1-3 3 8 8 0 0 1-8-.2 7 7 0 0 1-2.8-3q-.9-2-.9-4m2.2 0q0 3 1.6 4.7 1.5 1.7 4 1.7t4-1.7a7 7 0 0 0 1.6-4.9q0-2-.7-3.5a5 5 0 0 0-4.9-3q-2.2 0-4 1.5-1.6 1.5-1.6 5.3m16.3 7.8v-16.4h2.1v6.8h8.5v-6.8h2.2v16.4h-2.2v-7.7H342v7.7z"/><path d="M288.7 212.5h-1.6v-27.1l.8-.8.8.8zm30.5-132V64h2.2v6.7h8.5V64h2.1v16.4h-2v-7.7h-8.5v7.7zm-2.1-9.8v1.6h-28.4l-.8-.8.8-.8zm-90.3 9.8V64h2.1v6.7h8.5V64h2.1v16.4h-2.1v-7.7h-8.5v7.7zm15.7-8q0-4 2.2-6.3a7 7 0 0 1 5.6-2.3q2.3 0 4 1a7 7 0 0 1 2.9 3q.9 2 .9 4.4t-1 4.5a7 7 0 0 1-2.8 3 8 8 0 0 1-8.1-.2 7 7 0 0 1-2.8-3q-1-2-1-4m2.2 0q0 3 1.6 4.7 1.5 1.7 4 1.7 2.4 0 4-1.7a7 7 0 0 0 1.6-4.9q0-2-.7-3.5a5 5 0 0 0-4.9-3q-2.2 0-4 1.5-1.6 1.5-1.6 5.2m15.6-.3v-1.6H287l.8.8-.8.8zm57.6 37.9q0-4 2.2-6.3a7 7 0 0 1 5.6-2.3q2.3 0 4 1a7 7 0 0 1 2.9 3q1 2 1 4.4t-1 4.5a7 7 0 0 1-3 3 8 8 0 0 1-8-.1 7 7 0 0 1-2.8-3q-1-2-1-4.2m2.2 0q0 3 1.6 4.7 1.5 1.7 4 1.7 2.4 0 4-1.7a7 7 0 0 0 1.6-4.9q0-2-.7-3.5a5 5 0 0 0-4.9-3q-2.2 0-4 1.5-1.6 1.5-1.6 5.3m16.4 7.9v-16.3h2.1v6.7h8.5v-6.7h2.1v16.3h-2v-7.7h-8.5v7.7zm-20.7-9.8v1.6h-26.9l-.8-.8.8-.8zm-71.7 9.8v-16.3h2.1v6.7h8.5v-6.7h2.1v16.3h-2.1v-7.7H246v7.7zm14.8-8.2v-1.6h28.4l.8.8-.8.8zm59.1 37.9q0-4 2.2-6.4a7 7 0 0 1 5.6-2.3q2.3 0 4 1.1a7 7 0 0 1 2.9 3q1 2 1 4.4t-1 4.5a7 7 0 0 1-3 3 8 8 0 0 1-8-.2 7 7 0 0 1-2.8-3q-1-2-1-4.1m2.2 0q0 3 1.6 4.7 1.5 1.7 4 1.7 2.4 0 4-1.7a7 7 0 0 0 1.6-4.9q0-2-.7-3.5a5 5 0 0 0-4.9-3.1q-2.2 0-4 1.6-1.6 1.6-1.6 5.2m16.4 7.9v-16.3h2.1v6.7h8.5v-6.7h2.1v16.3h-2v-7.6h-8.5v7.6zm-20.7-9.8v1.7h-26.9l-.8-.8.8-.8zm-71.7 9.8v-16.3h2.1v6.7h8.5v-6.7h2.1v16.3h-2.1v-7.6H246v7.6zm14.8-8.1V146h28.4l.8.8-.8.8zm60.5 45.9v-16.4h2.2v6.7h8.5v-6.7h2.1v16.4h-2v-7.7h-8.5v7.7zm-2.1-9.8v1.6h-28.4l-.8-.8.8-.8zm-90.3 9.8v-16.4h2.1v6.7h8.5v-6.7h2.1v16.4h-2.1v-7.7h-8.5v7.7zm15.7-8q0-4 2.2-6.3a7 7 0 0 1 5.6-2.3q2.3 0 4 1a7 7 0 0 1 2.9 3q.9 2 .9 4.4t-1 4.5a7 7 0 0 1-2.8 3 8 8 0 0 1-8.1-.2 7 7 0 0 1-2.8-3q-1-2-1-4m2.2 0q0 3 1.6 4.7 1.5 1.7 4 1.7 2.4 0 4-1.7a7 7 0 0 0 1.6-4.9q0-2-.7-3.5a5 5 0 0 0-4.9-3q-2.2 0-4 1.5-1.6 1.6-1.6 5.2m15.6-.3v-1.6H287l.8.8-.8.8zM247.5 16q0-4 2.2-6.4a7 7 0 0 1 5.6-2.3q2.3 0 4 1.1a7 7 0 0 1 2.9 3q1 2 1 4.4t-1 4.4a7 7 0 0 1-3 3 8 8 0 0 1-8 0 7 7 0 0 1-2.8-3.1q-1-2-1-4.1m2.2 0q0 3 1.6 4.7t4 1.7q2.5 0 4-1.7a7 7 0 0 0 1.6-5q0-1.8-.7-3.4a5 5 0 0 0-4.9-3.1q-2.2 0-4 1.6-1.5 1.6-1.6 5.2m13.1 7.4.8-1.4 24.8 14.3-.8 1.5zm2.8-4.9.8-1.4 24.8 14.3-.8 1.5zm48.7 5.5V7.5h2.2v6.7h8.4V7.6h2.2V24h-2.2v-7.6h-8.4V24z"/><path d="m310.5 19.9.8 1.3-22.6 13-1.6-.9zM9 285.6v-16.3h5.7q1.8 0 2.9.2 1.3.3 2.4 1.2 1.3 1.1 1.9 2.8t.6 3.9q0 1.8-.4 3.3A8 8 0 0 1 21 283l-1.5 1.5-2 .8q-1 .3-2.6.3zm2.2-2h3.5q1.6 0 2.5-.2t1.5-.9q.8-.8 1.2-2 .4-1.4.4-3.2 0-2.6-.8-3.9-1-1.4-2-1.8t-2.9-.4h-3.4zm13.3-2.9v-2h6.1v2zm16.2-1.5v-2h7v6.1q-1.7 1.3-3.3 2a10 10 0 0 1-7.9-.4 7 7 0 0 1-3-3q-1-2-1-4.4t1-4.4a7 7 0 0 1 3-3 9 9 0 0 1 4.2-1q1.8 0 3.2.5t2.3 1.6 1.2 2.7l-2 .5a6 6 0 0 0-.9-2q-.5-.6-1.5-1.1-1-.4-2.3-.4-1.5 0-2.5.4t-1.8 1.2-1 1.6q-.6 1.5-.6 3.3a8 8 0 0 0 .7 3.7q.8 1.5 2.2 2.1 1.5.8 3 .8 1.6 0 2.8-.6 1.4-.5 2-1.1v-3zm17.6 5q-1.2.9-2.2 1.3t-2.2.4q-2 0-3-1t-1-2.4a3 3 0 0 1 1.4-2.7q.8-.5 1.5-.7l1.7-.3q2.5-.3 3.6-.7v-.5q0-1.2-.5-1.7-.8-.7-2.3-.7t-2.1.5-1 1.7l-2-.2q.3-1.4 1-2 .5-.9 1.7-1.3 1.2-.3 2.7-.4 1.5 0 2.4.4 1 .3 1.4.9.4.5.6 1.3l.1 1.9v2.7q0 2.7.2 3.5 0 .8.5 1.4h-2.1q-.3-.6-.4-1.4m-.2-4.5q-1 .4-3.2.7l-1.8.4a1.7 1.7 0 0 0-.5 3q.6.5 1.8.5t2-.5q1-.5 1.4-1.4.3-.6.3-2zm5.1 5.9v-16.3h2v16.3zm12.8-1.4q-1 .9-2.1 1.3-1 .4-2.2.4-2 0-3-1t-1-2.4a3 3 0 0 1 1.4-2.7q.6-.5 1.4-.7l1.8-.3q2.4-.3 3.6-.7v-.5q0-1.2-.6-1.7-.8-.7-2.3-.7t-2 .5-1 1.7l-2-.2q.3-1.4.9-2 .6-.9 1.7-1.3 1.2-.3 2.7-.4 1.5 0 2.5.4.8.3 1.4.9.4.5.6 1.3v4.6q0 2.7.2 3.5l.5 1.4h-2q-.4-.6-.5-1.4m-.1-4.5q-1.1.4-3.3.7l-1.7.4a1.7 1.7 0 0 0-.5 3q.6.5 1.8.5 1 0 2-.5t1.3-1.4q.4-.6.4-2zm12.8 1.6 2 .3a5 5 0 0 1-1.7 3.1q-1.4 1.2-3.2 1.2a5 5 0 0 1-4-1.6q-1.5-1.6-1.4-4.6 0-1.8.6-3.3t2-2.2 2.8-.7a5 5 0 0 1 3.1 1q1.3 1 1.6 2.8l-2 .3q-.2-1.2-1-1.8-.7-.6-1.6-.6-1.6 0-2.5 1-1 1.2-1 3.5 0 2.4 1 3.5a3 3 0 0 0 2.3 1q1.2 0 2-.7t1-2.2m8.1 2.5.3 1.8-1.5.2q-1.2 0-1.7-.4a2 2 0 0 1-.9-.9q-.2-.5-.2-2.3v-6.9h-1.5v-1.5h1.5v-3l2-1.1v4h2v1.6h-2v8l.4.5.7.1zm1.2-4.1q0-3.3 1.8-4.9 1.6-1.3 3.7-1.3 2.5 0 4 1.6a6 6 0 0 1 1.6 4.4q0 2.4-.7 3.6-.7 1.4-2 2-1.3.8-2.9.8-2.4 0-4-1.6-1.5-1.6-1.5-4.6m2 0q0 2.3 1 3.4t2.5 1.1 2.5-1.1 1-3.5q0-2.1-1-3.3a3 3 0 0 0-2.5-1.1q-1.5 0-2.5 1.1t-1 3.4m10.6 2.3 2-.2q.1 1.2 1 1.8.6.6 2 .6 1.5 0 2.1-.5t.7-1.3q0-.8-.6-1.1l-2-.7q-2.2-.6-3.1-1a3 3 0 0 1-1.7-2.7q0-.8.3-1.4.4-.7 1-1.2.4-.3 1.3-.5l1.7-.3q1.4 0 2.4.4 1.1.5 1.6 1.1t.7 1.8l-2 .3q0-.9-.7-1.4t-1.8-.5q-1.4 0-2 .4t-.6 1q0 .5.2.8l.8.5 1.8.5 3 1q.8.4 1.3 1t.4 1.7-.5 2-1.7 1.3-2.5.5q-2.3 0-3.5-1a4 4 0 0 1-1.6-2.8m20.3-.3 2 .3a5 5 0 0 1-1.7 2.8q-1.4 1-3.4 1-2.6 0-4.1-1.6-1.6-1.6-1.6-4.5 0-3 1.6-4.6 1.5-1.7 4-1.7a5 5 0 0 1 3.8 1.6q1.5 1.6 1.5 4.6v.5h-8.8q0 2 1.1 3 1 1 2.5 1a3 3 0 0 0 1.9-.5q.8-.6 1.2-1.9m-6.6-3.2h6.6a4 4 0 0 0-.7-2.3 3 3 0 0 0-2.5-1.1q-1.5 0-2.3.9-1 .9-1 2.5m103.1 7v-16.3h2.1v14.4h8v2zm11.7-4.9v-2h6.1v2zm16.2-1.5v-2h7v6.1q-1.6 1.3-3.3 2a10 10 0 0 1-7.9-.4 7 7 0 0 1-3-3q-1-2-1-4.4t1-4.4a7 7 0 0 1 3-3 9 9 0 0 1 4.2-1q1.8 0 3.2.5t2.3 1.6 1.2 2.7l-2 .5-.8-2q-.6-.6-1.6-1.1-1-.4-2.3-.4-1.5 0-2.5.4t-1.8 1.2l-1 1.6q-.6 1.5-.6 3.3a8 8 0 0 0 .7 3.7q.8 1.5 2.2 2.1 1.5.8 3 .8 1.6 0 2.8-.6 1.5-.5 2-1.1v-3zm17.6 5q-1.1.9-2.1 1.3-1.1.4-2.2.4-2 0-3-1t-1-2.4a3 3 0 0 1 1.3-2.7q.8-.5 1.5-.7l1.8-.3q2.4-.3 3.5-.7v-.5q0-1.2-.5-1.7-.8-.7-2.3-.7t-2 .5q-.8.5-1 1.7l-2-.2q.2-1.4.8-2 .6-.9 1.8-1.3 1.2-.3 2.7-.4 1.5 0 2.4.4 1 .3 1.4.9.4.5.7 1.3v4.6q0 2.7.2 3.5 0 .8.5 1.4h-2q-.4-.6-.5-1.4m-.2-4.5q-1 .4-3.2.7l-1.8.4-.8.7q-.2.4-.2 1 0 .8.6 1.3t1.7.5 2-.5 1.4-1.4q.3-.6.3-2zm5.2 5.9v-16.3h2v16.3zm12.7-1.4q-1 .9-2.1 1.3-1 .4-2.2.4-2 0-3-1t-1-2.4a3 3 0 0 1 1.4-2.7q.6-.5 1.4-.7l1.8-.3q2.4-.3 3.6-.7v-.5q0-1.2-.6-1.7-.8-.7-2.3-.7t-2 .5-1 1.7l-2-.2q.3-1.4.9-2 .6-.9 1.8-1.3 1-.3 2.6-.4 1.6 0 2.5.4.9.3 1.4.9.4.5.6 1.3l.1 1.9v2.7l.1 3.5.5 1.4h-2q-.4-.6-.5-1.4m-.1-4.5q-1 .4-3.3.7l-1.7.4q-.5.3-.8.7t-.3 1q0 .8.6 1.3t1.8.5q1 0 2-.5t1.4-1.4q.3-.6.3-2zm12.8 1.6 2 .3a5 5 0 0 1-1.6 3.1q-1.4 1.2-3.3 1.2a5 5 0 0 1-4-1.6q-1.4-1.6-1.4-4.6 0-1.8.6-3.3t2-2.2 2.8-.7a5 5 0 0 1 3.1 1q1.3 1 1.6 2.8l-2 .3q-.1-1.2-1-1.8-.6-.6-1.6-.6-1.6 0-2.5 1-1 1.2-1 3.5 0 2.4 1 3.5a3 3 0 0 0 2.4 1q1 0 2-.7.7-.7 1-2.2m8 2.5.3 1.8-1.5.2q-1.2 0-1.7-.4a2 2 0 0 1-.9-.9q-.2-.5-.2-2.3v-6.9H306v-1.5h1.5v-3l2-1.1v4h2v1.6h-2v8l.4.5.7.1zm1.2-4.1q0-3.3 1.8-4.9 1.6-1.3 3.7-1.3 2.5 0 4 1.6a6 6 0 0 1 1.6 4.4q0 2.4-.7 3.6-.7 1.4-2 2-1.3.8-2.9.8-2.5 0-4-1.6t-1.5-4.6m2 0q0 2.3 1 3.4t2.5 1.1 2.5-1.1 1-3.5q0-2.1-1-3.3a3 3 0 0 0-2.5-1.1q-1.5 0-2.4 1.1-1 1.2-1 3.4m10.5 2.3 2-.2q.1 1.2 1 1.8t2 .6q1.5 0 2.1-.5t.7-1.3-.6-1.1l-2-.7q-2.2-.6-3.1-1a3 3 0 0 1-1.7-2.7q0-.8.3-1.4.4-.7 1-1.2l1.3-.5 1.7-.3q1.5 0 2.5.4t1.5 1.1.7 1.8l-2 .3q0-.9-.7-1.4t-1.8-.5q-1.5 0-2 .4t-.6 1q0 .5.3.8t.7.5l1.8.5 3 1q.8.4 1.3 1t.5 1.7-.6 2-1.7 1.3-2.5.5q-2.4 0-3.5-1a4 4 0 0 1-1.6-2.8m20.3-.3 2 .3a5 5 0 0 1-1.7 2.8q-1.4 1-3.4 1-2.6 0-4.1-1.6t-1.5-4.5q0-3 1.5-4.6 1.5-1.7 4-1.7a5 5 0 0 1 3.8 1.6q1.5 1.6 1.6 4.6v.5h-8.9q.1 2 1.1 3t2.5 1a3 3 0 0 0 1.9-.5q.8-.6 1.2-1.9m-6.6-3.2h6.6a4 4 0 0 0-.7-2.3 3 3 0 0 0-2.5-1.1q-1.4 0-2.3.9-1 .9-1 2.5"/></svg>