<?xml version="1.0" encoding="UTF-8" standalone="no"?>
<!-- Generator: Adobe Illustrator 12.0.1, SVG Export Plug-In . SVG Version: 6.00 Build 51448)  -->
<svg
   xmlns:dc="http://purl.org/dc/elements/1.1/"
   xmlns:cc="http://web.resource.org/cc/"
   xmlns:rdf="http://www.w3.org/1999/02/22-rdf-syntax-ns#"
   xmlns:svg="http://www.w3.org/2000/svg"
   xmlns="http://www.w3.org/2000/svg"
   xmlns:sodipodi="http://sodipodi.sourceforge.net/DTD/sodipodi-0.dtd"
   xmlns:inkscape="http://www.inkscape.org/namespaces/inkscape"
   version="1.1"
   id="Layer_1"
   width="361.803"
   height="293.231"
   viewBox="0 0 361.803 293.231"
   style="overflow:visible;enable-background:new 0 0 361.803 293.231;"
   xml:space="preserve"
   sodipodi:version="0.32"
   inkscape:version="0.44.1"
   sodipodi:docname="DL-Galactose.svg"
   sodipodi:docbase="E:\Eigene Dateien"><metadata
   id="metadata246"><rdf:RDF><cc:Work
       rdf:about=""><dc:format>image/svg+xml</dc:format><dc:type
         rdf:resource="http://purl.org/dc/dcmitype/StillImage" /></cc:Work></rdf:RDF></metadata><defs
   id="defs244" /><sodipodi:namedview
   inkscape:window-height="573"
   inkscape:window-width="925"
   inkscape:pageshadow="2"
   inkscape:pageopacity="0.0"
   guidetolerance="10.0"
   gridtolerance="10.0"
   objecttolerance="10.0"
   borderopacity="1.0"
   bordercolor="#666666"
   pagecolor="#ffffff"
   id="base"
   inkscape:zoom="1.2890861"
   inkscape:cx="180.9015"
   inkscape:cy="146.61549"
   inkscape:window-x="66"
   inkscape:window-y="66"
   inkscape:current-layer="Layer_1" />
<path
   d="M 72.116525,70.68155 L 71.309025,71.4881 L 70.500575,70.68155 L 70.500575,33.3456 L 72.116525,34.2481 L 72.116525,70.68155 z "
   id="polygon3" />
<path
   d="M 72.116525,108.3956 L 71.309025,109.2031 L 70.500575,108.3956 L 70.500575,72.2956 L 71.309025,71.4881 L 72.116525,72.2956 L 72.116525,108.3956 z "
   id="polygon5" />
<path
   d="M 72.116525,146.0631 L 71.309025,146.8706 L 70.500575,146.0631 L 70.500575,110.0106 L 71.309025,109.2031 L 72.116525,110.0106 L 72.116525,146.0631 z "
   id="polygon7" />
<path
   d="M 72.116525,183.7781 L 71.309025,184.5856 L 70.500575,183.7781 L 70.500575,147.6781 L 71.309025,146.8706 L 72.116525,147.6781 L 72.116525,183.7781 z "
   id="polygon9" />
<g
   id="g11"
   transform="matrix(0.95,0,0,0.95,9.045075,7.3308)">
	<path
   d="M 71.034,229.707 L 73.315,230.281 C 72.839,232.151 71.982,233.577 70.746,234.558 C 69.509,235.54 67.996,236.031 66.209,236.031 C 64.359,236.031 62.855,235.654 61.696,234.899 C 60.537,234.144 59.655,233.052 59.05,231.621 C 58.445,230.19 58.143,228.654 58.143,227.012 C 58.143,225.221 58.484,223.659 59.167,222.326 C 59.85,220.992 60.821,219.98 62.082,219.288 C 63.342,218.596 64.728,218.25 66.242,218.25 C 67.959,218.25 69.402,218.688 70.572,219.564 C 71.743,220.441 72.558,221.673 73.018,223.261 L 70.784,223.788 C 70.386,222.538 69.809,221.628 69.053,221.058 C 68.296,220.488 67.344,220.203 66.198,220.203 C 64.88,220.203 63.778,220.519 62.892,221.152 C 62.007,221.785 61.385,222.634 61.026,223.701 C 60.667,224.768 60.488,225.867 60.488,227 C 60.488,228.461 60.7,229.736 61.125,230.826 C 61.55,231.916 62.21,232.73 63.107,233.269 C 64.004,233.808 64.974,234.078 66.019,234.078 C 67.29,234.078 68.365,233.711 69.246,232.976 C 70.127,232.241 70.722,231.152 71.034,229.707 z "
   id="path13" />
	<path
   d="M 76.21,235.734 L 76.21,218.546 L 78.491,218.546 L 78.491,225.609 L 87.382,225.609 L 87.382,218.546 L 89.663,218.546 L 89.663,235.734 L 87.382,235.734 L 87.382,227.64 L 78.491,227.64 L 78.491,235.734 L 76.21,235.734 z "
   id="path15" />
</g>
<g
   id="g17"
   transform="matrix(0.95,0,0,0.95,9.045075,7.3308)">
	<path
   d="M 99.573,238.719 L 99.573,240.235 L 91.042,240.235 C 91.03,239.854 91.092,239.488 91.228,239.135 C 91.446,238.555 91.795,237.985 92.276,237.423 C 92.756,236.861 93.446,236.212 94.346,235.475 C 95.742,234.323 96.688,233.412 97.186,232.742 C 97.684,232.072 97.933,231.438 97.933,230.839 C 97.933,230.213 97.708,229.685 97.258,229.255 C 96.808,228.825 96.221,228.61 95.498,228.61 C 94.732,228.61 94.121,228.839 93.662,229.298 C 93.203,229.756 92.971,230.392 92.965,231.203 L 91.34,231.031 C 91.451,229.816 91.871,228.889 92.6,228.252 C 93.328,227.615 94.306,227.297 95.534,227.297 C 96.773,227.297 97.754,227.64 98.476,228.326 C 99.198,229.012 99.559,229.861 99.559,230.876 C 99.559,231.393 99.453,231.899 99.242,232.397 C 99.031,232.895 98.679,233.419 98.189,233.971 C 97.698,234.522 96.885,235.279 95.749,236.24 C 94.798,237.037 94.187,237.578 93.916,237.861 C 93.645,238.146 93.42,238.431 93.243,238.718 L 99.573,238.718 L 99.573,238.719 z "
   id="path19" />
</g>
<g
   id="g21"
   transform="matrix(0.95,0,0,0.95,9.045075,7.3308)">
	<path
   d="M 100.9,227.369 C 100.9,224.517 101.666,222.284 103.198,220.67 C 104.73,219.057 106.708,218.25 109.131,218.25 C 110.718,218.25 112.148,218.629 113.422,219.387 C 114.696,220.145 115.667,221.202 116.336,222.558 C 117.004,223.914 117.338,225.452 117.338,227.17 C 117.338,228.912 116.986,230.472 116.283,231.847 C 115.579,233.223 114.583,234.264 113.293,234.971 C 112.003,235.678 110.612,236.032 109.119,236.032 C 107.501,236.032 106.055,235.641 104.781,234.86 C 103.507,234.079 102.542,233.012 101.885,231.66 C 101.228,230.308 100.9,228.877 100.9,227.369 z M 103.244,227.398 C 103.244,229.468 103.801,231.099 104.915,232.291 C 106.029,233.483 107.427,234.078 109.107,234.078 C 110.819,234.078 112.228,233.476 113.335,232.273 C 114.441,231.07 114.994,229.363 114.994,227.152 C 114.994,225.754 114.758,224.533 114.285,223.49 C 113.812,222.447 113.12,221.638 112.209,221.064 C 111.298,220.49 110.276,220.203 109.143,220.203 C 107.533,220.203 106.147,220.756 104.986,221.861 C 103.825,222.966 103.244,224.813 103.244,227.398 z "
   id="path23" />
	<path
   d="M 120.349,235.734 L 120.349,218.546 L 122.63,218.546 L 122.63,225.609 L 131.521,225.609 L 131.521,218.546 L 133.802,218.546 L 133.802,235.734 L 131.521,235.734 L 131.521,227.64 L 122.63,227.64 L 122.63,235.734 L 120.349,235.734 z "
   id="path25" />
</g>
<path
   d="M 72.116525,212.5156 L 70.500575,212.5156 L 70.500575,185.39405 L 71.309025,184.5856 L 72.116525,185.39405 L 72.116525,212.5156 z "
   id="polygon27" />
<g
   id="g29"
   transform="matrix(0.95,0,0,0.95,9.045075,7.3308)">
	<path
   d="M 96.997,68.619 C 96.997,65.767 97.763,63.534 99.295,61.92 C 100.827,60.307 102.805,59.5 105.228,59.5 C 106.815,59.5 108.245,59.879 109.519,60.637 C 110.793,61.395 111.764,62.452 112.433,63.808 C 113.101,65.164 113.435,66.702 113.435,68.42 C 113.435,70.162 113.083,71.722 112.38,73.097 C 111.676,74.473 110.68,75.514 109.39,76.221 C 108.1,76.928 106.709,77.282 105.216,77.282 C 103.598,77.282 102.152,76.891 100.878,76.11 C 99.604,75.329 98.639,74.262 97.982,72.91 C 97.325,71.557 96.997,70.126 96.997,68.619 z M 99.34,68.648 C 99.34,70.718 99.897,72.349 101.011,73.541 C 102.125,74.733 103.523,75.328 105.203,75.328 C 106.915,75.328 108.324,74.726 109.431,73.523 C 110.537,72.32 111.09,70.613 111.09,68.402 C 111.09,67.004 110.854,65.783 110.381,64.74 C 109.908,63.697 109.216,62.888 108.305,62.314 C 107.394,61.74 106.372,61.453 105.239,61.453 C 103.629,61.453 102.243,62.006 101.082,63.111 C 99.921,64.216 99.34,66.062 99.34,68.648 z "
   id="path31" />
	<path
   d="M 116.446,76.984 L 116.446,59.796 L 118.727,59.796 L 118.727,66.859 L 127.618,66.859 L 127.618,59.796 L 129.899,59.796 L 129.899,76.984 L 127.618,76.984 L 127.618,68.89 L 118.727,68.89 L 118.727,76.984 L 116.446,76.984 z "
   id="path33" />
</g>
<path
   d="M 99.000575,70.68155 L 99.000575,72.2956 L 72.116525,72.2956 L 71.309025,71.4881 L 72.116525,70.68155 L 99.000575,70.68155 z "
   id="polygon35" />
<g
   id="g37"
   transform="matrix(0.95,0,0,0.95,9.045075,7.3308)">
	<path
   d="M 19.178,76.984 L 19.178,59.796 L 21.459,59.796 L 21.459,66.859 L 30.35,66.859 L 30.35,59.796 L 32.631,59.796 L 32.631,76.984 L 30.35,76.984 L 30.35,68.89 L 21.459,68.89 L 21.459,76.984 L 19.178,76.984 z "
   id="path39" />
</g>
<path
   d="M 42.143075,72.2956 L 42.143075,70.68155 L 70.500575,70.68155 L 71.309025,71.4881 L 70.500575,72.2956 L 42.143075,72.2956 z "
   id="polygon41" />
<g
   id="g43"
   transform="matrix(0.95,0,0,0.95,9.045075,7.3308)">
	<path
   d="M 98.528,116.684 L 98.528,99.497 L 100.809,99.497 L 100.809,106.56 L 109.7,106.56 L 109.7,99.497 L 111.981,99.497 L 111.981,116.685 L 109.7,116.685 L 109.7,108.591 L 100.809,108.591 L 100.809,116.685 L 98.528,116.685 L 98.528,116.684 z "
   id="path45" />
</g>
<path
   d="M 100.52153,108.3956 L 100.52153,110.0106 L 72.116525,110.0106 L 71.309025,109.2031 L 72.116525,108.3956 L 100.52153,108.3956 z "
   id="polygon47" />
<g
   id="g49"
   transform="matrix(0.95,0,0,0.95,9.045075,7.3308)">
	<path
   d="M 1.178,116.684 L 1.178,99.497 L 3.459,99.497 L 3.459,106.56 L 12.35,106.56 L 12.35,99.497 L 14.631,99.497 L 14.631,116.685 L 12.35,116.685 L 12.35,108.591 L 3.459,108.591 L 3.459,116.685 L 1.178,116.685 L 1.178,116.684 z "
   id="path51" />
	<path
   d="M 17.729,108.319 C 17.729,105.467 18.495,103.234 20.027,101.62 C 21.559,100.007 23.537,99.2 25.96,99.2 C 27.547,99.2 28.977,99.579 30.251,100.337 C 31.525,101.095 32.496,102.152 33.165,103.508 C 33.833,104.864 34.167,106.402 34.167,108.12 C 34.167,109.862 33.815,111.422 33.112,112.797 C 32.408,114.173 31.412,115.214 30.122,115.921 C 28.832,116.628 27.441,116.982 25.948,116.982 C 24.33,116.982 22.884,116.591 21.61,115.81 C 20.336,115.029 19.371,113.962 18.714,112.61 C 18.057,111.257 17.729,109.827 17.729,108.319 z M 20.072,108.348 C 20.072,110.418 20.629,112.049 21.743,113.241 C 22.857,114.433 24.255,115.028 25.935,115.028 C 27.647,115.028 29.056,114.426 30.163,113.223 C 31.269,112.02 31.822,110.313 31.822,108.102 C 31.822,106.704 31.586,105.483 31.113,104.44 C 30.64,103.397 29.948,102.588 29.037,102.014 C 28.126,101.44 27.104,101.153 25.971,101.153 C 24.361,101.153 22.975,101.706 21.814,102.811 C 20.653,103.916 20.072,105.762 20.072,108.348 z "
   id="path53" />
</g>
<path
   d="M 43.568075,110.0106 L 43.568075,108.3956 L 70.500575,108.3956 L 71.309025,109.2031 L 70.500575,110.0106 L 43.568075,110.0106 z "
   id="polygon55" />
<g
   id="g57"
   transform="matrix(0.95,0,0,0.95,9.045075,7.3308)">
	<path
   d="M 98.528,156.334 L 98.528,139.146 L 100.809,139.146 L 100.809,146.209 L 109.7,146.209 L 109.7,139.146 L 111.981,139.146 L 111.981,156.334 L 109.7,156.334 L 109.7,148.24 L 100.809,148.24 L 100.809,156.334 L 98.528,156.334 z "
   id="path59" />
</g>
<path
   d="M 100.52153,146.0631 L 100.52153,147.6781 L 72.116525,147.6781 L 71.309025,146.8706 L 72.116525,146.0631 L 100.52153,146.0631 z "
   id="polygon61" />
<g
   id="g63"
   transform="matrix(0.95,0,0,0.95,9.045075,7.3308)">
	<path
   d="M 1.178,156.334 L 1.178,139.146 L 3.459,139.146 L 3.459,146.209 L 12.35,146.209 L 12.35,139.146 L 14.631,139.146 L 14.631,156.334 L 12.35,156.334 L 12.35,148.24 L 3.459,148.24 L 3.459,156.334 L 1.178,156.334 z "
   id="path65" />
	<path
   d="M 17.729,147.969 C 17.729,145.117 18.495,142.884 20.027,141.27 C 21.559,139.657 23.537,138.85 25.96,138.85 C 27.547,138.85 28.977,139.229 30.251,139.987 C 31.525,140.745 32.496,141.802 33.165,143.158 C 33.833,144.514 34.167,146.052 34.167,147.77 C 34.167,149.512 33.815,151.072 33.112,152.447 C 32.408,153.823 31.412,154.864 30.122,155.571 C 28.832,156.278 27.441,156.632 25.948,156.632 C 24.33,156.632 22.884,156.241 21.61,155.46 C 20.336,154.679 19.371,153.612 18.714,152.26 C 18.057,150.907 17.729,149.477 17.729,147.969 z M 20.072,147.998 C 20.072,150.068 20.629,151.699 21.743,152.891 C 22.857,154.083 24.255,154.678 25.935,154.678 C 27.647,154.678 29.056,154.076 30.163,152.873 C 31.269,151.67 31.822,149.963 31.822,147.752 C 31.822,146.354 31.586,145.133 31.113,144.09 C 30.64,143.047 29.948,142.238 29.037,141.664 C 28.126,141.09 27.104,140.803 25.971,140.803 C 24.361,140.803 22.975,141.356 21.814,142.461 C 20.653,143.566 20.072,145.412 20.072,147.998 z "
   id="path67" />
</g>
<path
   d="M 43.568075,147.6781 L 43.568075,146.0631 L 70.500575,146.0631 L 71.309025,146.8706 L 70.500575,147.6781 L 43.568075,147.6781 z "
   id="polygon69" />
<g
   id="g71"
   transform="matrix(0.95,0,0,0.95,9.045075,7.3308)">
	<path
   d="M 96.997,187.669 C 96.997,184.817 97.763,182.584 99.295,180.97 C 100.827,179.357 102.805,178.55 105.228,178.55 C 106.815,178.55 108.245,178.929 109.519,179.687 C 110.793,180.445 111.764,181.502 112.433,182.858 C 113.101,184.214 113.435,185.752 113.435,187.47 C 113.435,189.212 113.083,190.772 112.38,192.147 C 111.676,193.523 110.68,194.564 109.39,195.271 C 108.1,195.978 106.709,196.332 105.216,196.332 C 103.598,196.332 102.152,195.941 100.878,195.16 C 99.604,194.379 98.639,193.312 97.982,191.96 C 97.325,190.607 96.997,189.177 96.997,187.669 z M 99.34,187.698 C 99.34,189.768 99.897,191.399 101.011,192.591 C 102.125,193.783 103.523,194.378 105.203,194.378 C 106.915,194.378 108.324,193.776 109.431,192.573 C 110.537,191.37 111.09,189.663 111.09,187.452 C 111.09,186.054 110.854,184.833 110.381,183.79 C 109.908,182.747 109.216,181.938 108.305,181.364 C 107.394,180.79 106.372,180.503 105.239,180.503 C 103.629,180.503 102.243,181.056 101.082,182.161 C 99.921,183.266 99.34,185.112 99.34,187.698 z "
   id="path73" />
	<path
   d="M 116.446,196.034 L 116.446,178.846 L 118.727,178.846 L 118.727,185.909 L 127.618,185.909 L 127.618,178.846 L 129.899,178.846 L 129.899,196.034 L 127.618,196.034 L 127.618,187.94 L 118.727,187.94 L 118.727,196.034 L 116.446,196.034 z "
   id="path75" />
</g>
<path
   d="M 99.000575,183.7781 L 99.000575,185.39405 L 72.116525,185.39405 L 71.309025,184.5856 L 72.116525,183.7781 L 99.000575,183.7781 z "
   id="polygon77" />
<g
   id="g79"
   transform="matrix(0.95,0,0,0.95,9.045075,7.3308)">
	<path
   d="M 19.178,196.034 L 19.178,178.846 L 21.459,178.846 L 21.459,185.909 L 30.35,185.909 L 30.35,178.846 L 32.631,178.846 L 32.631,196.034 L 30.35,196.034 L 30.35,187.94 L 21.459,187.94 L 21.459,196.034 L 19.178,196.034 z "
   id="path81" />
</g>
<path
   d="M 42.143075,185.39405 L 42.143075,183.7781 L 70.500575,183.7781 L 71.309025,184.5856 L 70.500575,185.39405 L 42.143075,185.39405 z "
   id="polygon83" />
<g
   id="g85"
   transform="matrix(0.95,0,0,0.95,9.045075,7.3308)">
	<path
   d="M 22.997,9.119 C 22.997,6.267 23.763,4.034 25.295,2.42 C 26.827,0.807 28.804,0 31.227,0 C 32.814,0 34.244,0.379 35.518,1.137 C 36.792,1.895 37.763,2.952 38.432,4.308 C 39.1,5.664 39.434,7.202 39.434,8.92 C 39.434,10.662 39.082,12.222 38.379,13.597 C 37.675,14.973 36.679,16.014 35.389,16.721 C 34.099,17.428 32.708,17.782 31.215,17.782 C 29.597,17.782 28.151,17.391 26.877,16.61 C 25.603,15.829 24.638,14.762 23.981,13.41 C 23.325,12.058 22.997,10.627 22.997,9.119 z M 25.34,9.148 C 25.34,11.218 25.897,12.849 27.011,14.041 C 28.125,15.233 29.523,15.828 31.203,15.828 C 32.915,15.828 34.324,15.226 35.431,14.023 C 36.537,12.82 37.09,11.113 37.09,8.902 C 37.09,7.504 36.854,6.283 36.381,5.24 C 35.908,4.197 35.216,3.388 34.305,2.814 C 33.394,2.24 32.372,1.953 31.239,1.953 C 29.629,1.953 28.243,2.506 27.082,3.611 C 25.921,4.716 25.34,6.563 25.34,9.148 z "
   id="path87" />
</g>
<path
   d="M 46.134025,23.41905 L 46.941525,22.0406 L 71.735575,36.3381 L 70.929025,37.7631 L 46.134025,23.41905 z "
   id="polygon89" />
<path
   d="M 48.935575,18.5256 L 49.743075,17.1481 L 74.538075,31.4456 L 73.730575,32.8706 L 48.935575,18.5256 z "
   id="polygon91" />
<g
   id="g93"
   transform="matrix(0.95,0,0,0.95,9.045075,7.3308)">
	<path
   d="M 93.228,17.484 L 93.228,0.297 L 95.509,0.297 L 95.509,7.36 L 104.4,7.36 L 104.4,0.297 L 106.681,0.297 L 106.681,17.485 L 104.4,17.485 L 104.4,9.391 L 95.509,9.391 L 95.509,17.485 L 93.228,17.485 L 93.228,17.484 z "
   id="path95" />
</g>
<path
   d="M 93.871525,19.85655 L 94.679025,21.2331 L 72.116525,34.2481 L 70.500575,33.3456 L 93.871525,19.85655 z "
   id="polygon97" />
<path
   d="M 288.71652,70.68155 L 287.90902,71.4881 L 287.10057,70.68155 L 287.10057,33.3456 L 288.71652,34.2481 L 288.71652,70.68155 z "
   id="polygon99" />
<path
   d="M 288.71652,108.3956 L 287.90902,109.2031 L 287.10057,108.3956 L 287.10057,72.2956 L 287.90902,71.4881 L 288.71652,72.2956 L 288.71652,108.3956 z "
   id="polygon101" />
<path
   d="M 288.71652,146.0631 L 287.90902,146.8706 L 287.10057,146.0631 L 287.10057,110.0106 L 287.90902,109.2031 L 288.71652,110.0106 L 288.71652,146.0631 z "
   id="polygon103" />
<path
   d="M 288.71652,183.7781 L 287.90902,184.5856 L 287.10057,183.7781 L 287.10057,147.6781 L 287.90902,146.8706 L 288.71652,147.6781 L 288.71652,183.7781 z "
   id="polygon105" />
<g
   id="g107"
   transform="matrix(0.95,0,0,0.95,9.045075,7.3308)">
	<path
   d="M 299.034,229.707 L 301.315,230.281 C 300.839,232.151 299.982,233.577 298.746,234.558 C 297.509,235.54 295.996,236.031 294.209,236.031 C 292.359,236.031 290.855,235.654 289.696,234.899 C 288.537,234.144 287.655,233.052 287.05,231.621 C 286.445,230.19 286.143,228.654 286.143,227.012 C 286.143,225.221 286.484,223.659 287.167,222.326 C 287.849,220.992 288.82,219.98 290.081,219.288 C 291.341,218.596 292.727,218.25 294.241,218.25 C 295.958,218.25 297.401,218.688 298.571,219.564 C 299.742,220.441 300.557,221.673 301.017,223.261 L 298.783,223.788 C 298.386,222.538 297.807,221.628 297.052,221.058 C 296.295,220.488 295.343,220.203 294.197,220.203 C 292.879,220.203 291.777,220.519 290.891,221.152 C 290.005,221.785 289.384,222.634 289.025,223.701 C 288.666,224.768 288.487,225.867 288.487,227 C 288.487,228.461 288.699,229.736 289.125,230.826 C 289.549,231.916 290.21,232.73 291.106,233.269 C 292.002,233.808 292.973,234.078 294.017,234.078 C 295.288,234.078 296.364,233.711 297.245,232.976 C 298.126,232.241 298.723,231.152 299.034,229.707 z "
   id="path109" />
	<path
   d="M 304.21,235.734 L 304.21,218.546 L 306.491,218.546 L 306.491,225.609 L 315.382,225.609 L 315.382,218.546 L 317.663,218.546 L 317.663,235.734 L 315.382,235.734 L 315.382,227.64 L 306.491,227.64 L 306.491,235.734 L 304.21,235.734 z "
   id="path111" />
</g>
<g
   id="g113"
   transform="matrix(0.95,0,0,0.95,9.045075,7.3308)">
	<path
   d="M 327.572,238.719 L 327.572,240.235 L 319.041,240.235 C 319.029,239.854 319.092,239.488 319.227,239.135 C 319.446,238.555 319.795,237.985 320.276,237.423 C 320.757,236.861 321.446,236.212 322.346,235.475 C 323.741,234.323 324.688,233.412 325.186,232.742 C 325.684,232.072 325.932,231.438 325.932,230.839 C 325.932,230.213 325.707,229.685 325.257,229.255 C 324.807,228.825 324.221,228.61 323.496,228.61 C 322.73,228.61 322.119,228.839 321.66,229.298 C 321.201,229.756 320.969,230.392 320.963,231.203 L 319.338,231.031 C 319.449,229.816 319.869,228.889 320.598,228.252 C 321.327,227.615 322.305,227.297 323.532,227.297 C 324.771,227.297 325.753,227.64 326.474,228.326 C 327.196,229.012 327.557,229.861 327.557,230.876 C 327.557,231.393 327.452,231.899 327.241,232.397 C 327.029,232.895 326.678,233.419 326.188,233.971 C 325.696,234.522 324.883,235.279 323.747,236.24 C 322.797,237.037 322.186,237.578 321.915,237.861 C 321.644,238.146 321.419,238.431 321.241,238.718 L 327.572,238.718 L 327.572,238.719 z "
   id="path115" />
</g>
<g
   id="g117"
   transform="matrix(0.95,0,0,0.95,9.045075,7.3308)">
	<path
   d="M 328.9,227.369 C 328.9,224.517 329.666,222.284 331.198,220.67 C 332.73,219.057 334.708,218.25 337.131,218.25 C 338.718,218.25 340.149,218.629 341.422,219.387 C 342.695,220.145 343.667,221.202 344.336,222.558 C 345.004,223.914 345.338,225.452 345.338,227.17 C 345.338,228.912 344.986,230.472 344.283,231.847 C 343.579,233.223 342.582,234.264 341.293,234.971 C 340.003,235.678 338.611,236.032 337.119,236.032 C 335.501,236.032 334.055,235.641 332.781,234.86 C 331.507,234.079 330.542,233.012 329.885,231.66 C 329.229,230.308 328.9,228.877 328.9,227.369 z M 331.244,227.398 C 331.244,229.468 331.801,231.099 332.915,232.291 C 334.029,233.483 335.427,234.078 337.107,234.078 C 338.819,234.078 340.228,233.476 341.335,232.273 C 342.442,231.07 342.994,229.363 342.994,227.152 C 342.994,225.754 342.758,224.533 342.285,223.49 C 341.811,222.447 341.119,221.638 340.209,221.064 C 339.299,220.49 338.276,220.203 337.143,220.203 C 335.533,220.203 334.147,220.756 332.986,221.861 C 331.825,222.966 331.244,224.813 331.244,227.398 z "
   id="path119" />
	<path
   d="M 348.35,235.734 L 348.35,218.546 L 350.631,218.546 L 350.631,225.609 L 359.522,225.609 L 359.522,218.546 L 361.803,218.546 L 361.803,235.734 L 359.522,235.734 L 359.522,227.64 L 350.631,227.64 L 350.631,235.734 L 348.35,235.734 z "
   id="path121" />
</g>
<path
   d="M 288.71652,212.5156 L 287.10057,212.5156 L 287.10057,185.39405 L 287.90902,184.5856 L 288.71652,185.39405 L 288.71652,212.5156 z "
   id="polygon123" />
<g
   id="g125"
   transform="matrix(0.95,0,0,0.95,9.045075,7.3308)">
	<path
   d="M 326.527,76.984 L 326.527,59.796 L 328.808,59.796 L 328.808,66.859 L 337.699,66.859 L 337.699,59.796 L 339.98,59.796 L 339.98,76.984 L 337.699,76.984 L 337.699,68.89 L 328.808,68.89 L 328.808,76.984 L 326.527,76.984 z "
   id="path127" />
</g>
<path
   d="M 317.12153,70.68155 L 317.12153,72.2956 L 288.71652,72.2956 L 287.90902,71.4881 L 288.71652,70.68155 L 317.12153,70.68155 z "
   id="polygon129" />
<g
   id="g131"
   transform="matrix(0.95,0,0,0.95,9.045075,7.3308)">
	<path
   d="M 229.178,76.984 L 229.178,59.796 L 231.459,59.796 L 231.459,66.859 L 240.35,66.859 L 240.35,59.796 L 242.631,59.796 L 242.631,76.984 L 240.35,76.984 L 240.35,68.89 L 231.459,68.89 L 231.459,76.984 L 229.178,76.984 z "
   id="path133" />
	<path
   d="M 245.729,68.619 C 245.729,65.767 246.495,63.534 248.027,61.92 C 249.559,60.307 251.537,59.5 253.96,59.5 C 255.547,59.5 256.978,59.879 258.251,60.637 C 259.524,61.395 260.496,62.452 261.165,63.808 C 261.833,65.164 262.167,66.702 262.167,68.42 C 262.167,70.162 261.815,71.722 261.112,73.097 C 260.408,74.473 259.411,75.514 258.122,76.221 C 256.832,76.928 255.44,77.282 253.948,77.282 C 252.33,77.282 250.884,76.891 249.61,76.11 C 248.336,75.329 247.371,74.262 246.714,72.91 C 246.057,71.557 245.729,70.126 245.729,68.619 z M 248.072,68.648 C 248.072,70.718 248.629,72.349 249.743,73.541 C 250.857,74.733 252.255,75.328 253.935,75.328 C 255.647,75.328 257.056,74.726 258.163,73.523 C 259.27,72.32 259.822,70.613 259.822,68.402 C 259.822,67.004 259.586,65.783 259.113,64.74 C 258.639,63.697 257.947,62.888 257.037,62.314 C 256.127,61.74 255.104,61.453 253.971,61.453 C 252.361,61.453 250.975,62.006 249.814,63.111 C 248.653,64.216 248.072,66.062 248.072,68.648 z "
   id="path135" />
</g>
<path
   d="M 260.16807,72.2956 L 260.16807,70.68155 L 287.10057,70.68155 L 287.90902,71.4881 L 287.10057,72.2956 L 260.16807,72.2956 z "
   id="polygon137" />
<g
   id="g139"
   transform="matrix(0.95,0,0,0.95,9.045075,7.3308)">
	<path
   d="M 324.996,108.319 C 324.996,105.467 325.762,103.234 327.295,101.62 C 328.826,100.007 330.805,99.2 333.227,99.2 C 334.815,99.2 336.245,99.579 337.518,100.337 C 338.792,101.095 339.764,102.152 340.432,103.508 C 341.1,104.864 341.434,106.402 341.434,108.12 C 341.434,109.862 341.082,111.422 340.379,112.797 C 339.676,114.173 338.679,115.214 337.389,115.921 C 336.1,116.628 334.708,116.982 333.215,116.982 C 331.598,116.982 330.151,116.591 328.877,115.81 C 327.603,115.029 326.639,113.962 325.981,112.61 C 325.324,111.257 324.996,109.827 324.996,108.319 z M 327.34,108.348 C 327.34,110.418 327.897,112.049 329.012,113.241 C 330.125,114.432 331.524,115.028 333.203,115.028 C 334.916,115.028 336.324,114.426 337.432,113.223 C 338.537,112.02 339.09,110.313 339.09,108.102 C 339.09,106.704 338.854,105.483 338.381,104.44 C 337.908,103.397 337.216,102.588 336.305,102.014 C 335.395,101.44 334.373,101.153 333.239,101.153 C 331.63,101.153 330.243,101.706 329.083,102.811 C 327.92,103.917 327.34,105.762 327.34,108.348 z "
   id="path141" />
	<path
   d="M 344.445,116.684 L 344.445,99.497 L 346.726,99.497 L 346.726,106.56 L 355.617,106.56 L 355.617,99.497 L 357.898,99.497 L 357.898,116.685 L 355.617,116.685 L 355.617,108.591 L 346.726,108.591 L 346.726,116.685 L 344.445,116.685 L 344.445,116.684 z "
   id="path143" />
</g>
<path
   d="M 315.60057,108.3956 L 315.60057,110.0106 L 288.71652,110.0106 L 287.90902,109.2031 L 288.71652,108.3956 L 315.60057,108.3956 z "
   id="polygon145" />
<g
   id="g147"
   transform="matrix(0.95,0,0,0.95,9.045075,7.3308)">
	<path
   d="M 247.178,116.684 L 247.178,99.497 L 249.459,99.497 L 249.459,106.56 L 258.35,106.56 L 258.35,99.497 L 260.631,99.497 L 260.631,116.685 L 258.35,116.685 L 258.35,108.591 L 249.459,108.591 L 249.459,116.685 L 247.178,116.685 L 247.178,116.684 z "
   id="path149" />
</g>
<path
   d="M 258.74307,110.0106 L 258.74307,108.3956 L 287.10057,108.3956 L 287.90902,109.2031 L 287.10057,110.0106 L 258.74307,110.0106 z "
   id="polygon151" />
<g
   id="g153"
   transform="matrix(0.95,0,0,0.95,9.045075,7.3308)">
	<path
   d="M 324.996,147.969 C 324.996,145.117 325.762,142.884 327.295,141.27 C 328.826,139.657 330.805,138.85 333.227,138.85 C 334.815,138.85 336.245,139.229 337.518,139.987 C 338.792,140.745 339.764,141.802 340.432,143.158 C 341.1,144.514 341.434,146.052 341.434,147.77 C 341.434,149.512 341.082,151.072 340.379,152.447 C 339.676,153.823 338.679,154.864 337.389,155.571 C 336.1,156.278 334.708,156.632 333.215,156.632 C 331.598,156.632 330.151,156.241 328.877,155.46 C 327.603,154.679 326.639,153.612 325.981,152.26 C 325.324,150.907 324.996,149.477 324.996,147.969 z M 327.34,147.998 C 327.34,150.068 327.897,151.699 329.012,152.891 C 330.125,154.082 331.524,154.678 333.203,154.678 C 334.916,154.678 336.324,154.076 337.432,152.873 C 338.537,151.67 339.09,149.963 339.09,147.752 C 339.09,146.354 338.854,145.133 338.381,144.09 C 337.908,143.047 337.216,142.238 336.305,141.664 C 335.395,141.09 334.373,140.803 333.239,140.803 C 331.63,140.803 330.243,141.356 329.083,142.461 C 327.92,143.566 327.34,145.412 327.34,147.998 z "
   id="path155" />
	<path
   d="M 344.445,156.334 L 344.445,139.146 L 346.726,139.146 L 346.726,146.209 L 355.617,146.209 L 355.617,139.146 L 357.898,139.146 L 357.898,156.334 L 355.617,156.334 L 355.617,148.24 L 346.726,148.24 L 346.726,156.334 L 344.445,156.334 z "
   id="path157" />
</g>
<path
   d="M 315.60057,146.0631 L 315.60057,147.6781 L 288.71652,147.6781 L 287.90902,146.8706 L 288.71652,146.0631 L 315.60057,146.0631 z "
   id="polygon159" />
<g
   id="g161"
   transform="matrix(0.95,0,0,0.95,9.045075,7.3308)">
	<path
   d="M 247.178,156.334 L 247.178,139.146 L 249.459,139.146 L 249.459,146.209 L 258.35,146.209 L 258.35,139.146 L 260.631,139.146 L 260.631,156.334 L 258.35,156.334 L 258.35,148.24 L 249.459,148.24 L 249.459,156.334 L 247.178,156.334 z "
   id="path163" />
</g>
<path
   d="M 258.74307,147.6781 L 258.74307,146.0631 L 287.10057,146.0631 L 287.90902,146.8706 L 287.10057,147.6781 L 258.74307,147.6781 z "
   id="polygon165" />
<g
   id="g167"
   transform="matrix(0.95,0,0,0.95,9.045075,7.3308)">
	<path
   d="M 326.527,196.034 L 326.527,178.846 L 328.808,178.846 L 328.808,185.909 L 337.699,185.909 L 337.699,178.846 L 339.98,178.846 L 339.98,196.034 L 337.699,196.034 L 337.699,187.94 L 328.808,187.94 L 328.808,196.034 L 326.527,196.034 z "
   id="path169" />
</g>
<path
   d="M 317.12153,183.7781 L 317.12153,185.39405 L 288.71652,185.39405 L 287.90902,184.5856 L 288.71652,183.7781 L 317.12153,183.7781 z "
   id="polygon171" />
<g
   id="g173"
   transform="matrix(0.95,0,0,0.95,9.045075,7.3308)">
	<path
   d="M 229.178,196.034 L 229.178,178.846 L 231.459,178.846 L 231.459,185.909 L 240.35,185.909 L 240.35,178.846 L 242.631,178.846 L 242.631,196.034 L 240.35,196.034 L 240.35,187.94 L 231.459,187.94 L 231.459,196.034 L 229.178,196.034 z "
   id="path175" />
	<path
   d="M 245.729,187.669 C 245.729,184.817 246.495,182.584 248.027,180.97 C 249.559,179.357 251.537,178.55 253.96,178.55 C 255.547,178.55 256.978,178.929 258.251,179.687 C 259.524,180.445 260.496,181.502 261.165,182.858 C 261.833,184.214 262.167,185.752 262.167,187.47 C 262.167,189.212 261.815,190.772 261.112,192.147 C 260.408,193.523 259.411,194.564 258.122,195.271 C 256.832,195.978 255.44,196.332 253.948,196.332 C 252.33,196.332 250.884,195.941 249.61,195.16 C 248.336,194.379 247.371,193.312 246.714,191.96 C 246.057,190.607 245.729,189.177 245.729,187.669 z M 248.072,187.698 C 248.072,189.768 248.629,191.399 249.743,192.591 C 250.857,193.783 252.255,194.378 253.935,194.378 C 255.647,194.378 257.056,193.776 258.163,192.573 C 259.27,191.37 259.822,189.663 259.822,187.452 C 259.822,186.054 259.586,184.833 259.113,183.79 C 258.639,182.747 257.947,181.938 257.037,181.364 C 256.127,180.79 255.104,180.503 253.971,180.503 C 252.361,180.503 250.975,181.056 249.814,182.161 C 248.653,183.266 248.072,185.112 248.072,187.698 z "
   id="path177" />
</g>
<path
   d="M 260.16807,185.39405 L 260.16807,183.7781 L 287.10057,183.7781 L 287.90902,184.5856 L 287.10057,185.39405 L 260.16807,185.39405 z "
   id="polygon179" />
<g
   id="g181"
   transform="matrix(0.95,0,0,0.95,9.045075,7.3308)">
	<path
   d="M 250.996,9.119 C 250.996,6.267 251.762,4.034 253.295,2.42 C 254.826,0.807 256.805,0 259.227,0 C 260.815,0 262.245,0.379 263.518,1.137 C 264.792,1.895 265.764,2.952 266.432,4.308 C 267.1,5.664 267.434,7.202 267.434,8.92 C 267.434,10.662 267.082,12.222 266.379,13.597 C 265.676,14.973 264.679,16.014 263.389,16.721 C 262.1,17.428 260.708,17.782 259.215,17.782 C 257.598,17.782 256.151,17.391 254.877,16.61 C 253.603,15.829 252.639,14.762 251.981,13.41 C 251.324,12.058 250.996,10.627 250.996,9.119 z M 253.34,9.148 C 253.34,11.218 253.897,12.849 255.012,14.041 C 256.125,15.232 257.524,15.828 259.203,15.828 C 260.916,15.828 262.324,15.226 263.432,14.023 C 264.537,12.82 265.09,11.113 265.09,8.902 C 265.09,7.504 264.854,6.283 264.381,5.24 C 263.908,4.197 263.216,3.388 262.305,2.814 C 261.395,2.24 260.373,1.953 259.239,1.953 C 257.63,1.953 256.243,2.506 255.083,3.611 C 253.92,4.717 253.34,6.563 253.34,9.148 z "
   id="path183" />
</g>
<path
   d="M 262.73402,23.41905 L 263.54153,22.0406 L 288.33558,36.3381 L 287.52902,37.7631 L 262.73402,23.41905 z "
   id="polygon185" />
<path
   d="M 265.53557,18.5256 L 266.34308,17.1481 L 291.13808,31.4456 L 290.33057,32.8706 L 265.53557,18.5256 z "
   id="polygon187" />
<g
   id="g189"
   transform="matrix(0.95,0,0,0.95,9.045075,7.3308)">
	<path
   d="M 321.229,17.484 L 321.229,0.297 L 323.51,0.297 L 323.51,7.36 L 332.401,7.36 L 332.401,0.297 L 334.682,0.297 L 334.682,17.485 L 332.4,17.485 L 332.4,9.391 L 323.509,9.391 L 323.509,17.485 L 321.229,17.485 L 321.229,17.484 z "
   id="path191" />
</g>
<path
   d="M 310.47152,19.85655 L 311.27902,21.2331 L 288.71652,34.2481 L 287.10057,33.3456 L 310.47152,19.85655 z "
   id="polygon193" />
<g
   id="g195"
   transform="matrix(0.95,0,0,0.95,9.045075,7.3308)">
	<path
   d="M 0,292.935 L 0,275.747 L 5.911,275.747 C 7.246,275.747 8.264,275.829 8.967,275.993 C 9.95,276.22 10.789,276.63 11.484,277.223 C 12.389,277.989 13.066,278.969 13.515,280.161 C 13.963,281.352 14.188,282.716 14.188,284.247 C 14.188,285.552 14.036,286.708 13.731,287.718 C 13.427,288.726 13.036,289.56 12.561,290.22 C 12.084,290.88 11.564,291.402 10.998,291.781 C 10.432,292.16 9.749,292.447 8.95,292.642 C 8.151,292.837 7.231,292.935 6.193,292.935 L 0,292.935 z M 2.281,290.903 L 5.94,290.903 C 7.07,290.903 7.956,290.798 8.599,290.587 C 9.242,290.376 9.754,290.079 10.136,289.696 C 10.674,289.157 11.093,288.432 11.393,287.522 C 11.693,286.612 11.843,285.508 11.843,284.211 C 11.843,282.414 11.549,281.033 10.96,280.068 C 10.372,279.103 9.657,278.457 8.815,278.129 C 8.207,277.895 7.229,277.777 5.881,277.777 L 2.281,277.777 L 2.281,290.903 z "
   id="path197" />
	<path
   d="M 16.223,287.778 L 16.223,285.653 L 22.723,285.653 L 22.723,287.778 L 16.223,287.778 z "
   id="path199" />
	<path
   d="M 33.355,286.2 L 33.355,284.169 L 40.636,284.169 L 40.636,290.546 C 39.519,291.437 38.366,292.109 37.179,292.558 C 35.992,293.007 34.773,293.232 33.523,293.232 C 31.835,293.232 30.302,292.871 28.923,292.146 C 27.544,291.423 26.503,290.378 25.8,289.009 C 25.097,287.64 24.745,286.113 24.745,284.423 C 24.745,282.749 25.095,281.187 25.794,279.737 C 26.493,278.286 27.499,277.21 28.811,276.505 C 30.124,275.802 31.635,275.45 33.346,275.45 C 34.588,275.45 35.711,275.651 36.715,276.054 C 37.719,276.458 38.506,277.019 39.076,277.74 C 39.646,278.461 40.08,279.4 40.377,280.558 L 38.319,281.121 C 38.061,280.246 37.741,279.557 37.359,279.057 C 36.977,278.557 36.43,278.157 35.72,277.856 C 35.009,277.555 34.221,277.405 33.354,277.405 C 32.315,277.405 31.418,277.563 30.661,277.88 C 29.904,278.197 29.292,278.612 28.828,279.13 C 28.363,279.646 28.002,280.212 27.745,280.829 C 27.308,281.893 27.089,283.046 27.089,284.29 C 27.089,285.823 27.353,287.104 27.88,288.138 C 28.407,289.169 29.174,289.935 30.181,290.437 C 31.188,290.937 32.257,291.187 33.389,291.187 C 34.373,291.187 35.333,290.998 36.27,290.619 C 37.207,290.238 37.917,289.834 38.401,289.404 L 38.401,286.2 L 33.355,286.2 z "
   id="path201" />
	<path
   d="M 51.836,291.403 C 51.051,292.065 50.298,292.534 49.576,292.805 C 48.855,293.078 48.081,293.215 47.254,293.215 C 45.889,293.215 44.84,292.881 44.107,292.211 C 43.374,291.543 43.007,290.69 43.007,289.648 C 43.007,289.039 43.146,288.482 43.422,287.976 C 43.699,287.472 44.062,287.068 44.51,286.763 C 44.958,286.458 45.464,286.226 46.025,286.07 C 46.438,285.961 47.062,285.855 47.897,285.754 C 49.597,285.551 50.849,285.309 51.652,285.027 C 51.66,284.738 51.664,284.554 51.664,284.476 C 51.664,283.619 51.465,283.013 51.067,282.662 C 50.529,282.187 49.73,281.949 48.67,281.949 C 47.679,281.949 46.948,282.123 46.477,282.469 C 46.006,282.815 45.656,283.428 45.43,284.309 L 43.367,284.028 C 43.555,283.145 43.863,282.434 44.292,281.891 C 44.722,281.348 45.342,280.93 46.154,280.639 C 46.966,280.346 47.906,280.2 48.976,280.2 C 50.038,280.2 50.9,280.325 51.564,280.575 C 52.227,280.825 52.715,281.139 53.027,281.516 C 53.339,281.895 53.558,282.373 53.683,282.952 C 53.753,283.311 53.788,283.96 53.788,284.897 L 53.788,287.711 C 53.788,289.674 53.833,290.916 53.924,291.436 C 54.014,291.957 54.193,292.456 54.46,292.934 L 52.257,292.934 C 52.039,292.497 51.898,291.987 51.836,291.403 z M 51.664,286.685 C 50.899,286.998 49.751,287.263 48.221,287.482 C 47.355,287.607 46.742,287.748 46.382,287.904 C 46.023,288.06 45.746,288.289 45.551,288.59 C 45.356,288.891 45.258,289.225 45.258,289.592 C 45.258,290.155 45.47,290.623 45.895,290.998 C 46.32,291.373 46.942,291.561 47.76,291.561 C 48.571,291.561 49.291,291.383 49.922,291.028 C 50.554,290.671 51.017,290.184 51.314,289.567 C 51.54,289.09 51.653,288.389 51.653,287.46 L 51.664,286.685 z "
   id="path203" />
	<path
   d="M 57.012,292.935 L 57.012,275.747 L 59.121,275.747 L 59.121,292.935 L 57.012,292.935 z "
   id="path205" />
	<path
   d="M 70.516,291.403 C 69.731,292.065 68.978,292.534 68.256,292.805 C 67.535,293.078 66.761,293.215 65.934,293.215 C 64.569,293.215 63.52,292.881 62.787,292.211 C 62.054,291.543 61.687,290.69 61.687,289.648 C 61.687,289.039 61.826,288.482 62.102,287.976 C 62.379,287.472 62.742,287.068 63.19,286.763 C 63.638,286.458 64.144,286.226 64.705,286.07 C 65.118,285.961 65.742,285.855 66.577,285.754 C 68.277,285.551 69.529,285.309 70.332,285.027 C 70.34,284.738 70.344,284.554 70.344,284.476 C 70.344,283.619 70.145,283.013 69.747,282.662 C 69.209,282.187 68.41,281.949 67.35,281.949 C 66.359,281.949 65.628,282.123 65.157,282.469 C 64.686,282.815 64.336,283.428 64.11,284.309 L 62.047,284.028 C 62.235,283.145 62.543,282.434 62.972,281.891 C 63.402,281.348 64.022,280.93 64.834,280.639 C 65.646,280.346 66.586,280.2 67.656,280.2 C 68.718,280.2 69.58,280.325 70.244,280.575 C 70.907,280.825 71.395,281.139 71.707,281.516 C 72.019,281.895 72.238,282.373 72.363,282.952 C 72.433,283.311 72.468,283.96 72.468,284.897 L 72.468,287.711 C 72.468,289.674 72.513,290.916 72.604,291.436 C 72.694,291.957 72.873,292.456 73.14,292.934 L 70.937,292.934 C 70.719,292.497 70.578,291.987 70.516,291.403 z M 70.344,286.685 C 69.579,286.998 68.431,287.263 66.901,287.482 C 66.035,287.607 65.422,287.748 65.062,287.904 C 64.703,288.06 64.426,288.289 64.231,288.59 C 64.036,288.891 63.938,289.225 63.938,289.592 C 63.938,290.155 64.15,290.623 64.575,290.998 C 65,291.373 65.622,291.561 66.44,291.561 C 67.251,291.561 67.971,291.383 68.602,291.028 C 69.234,290.671 69.697,290.184 69.994,289.567 C 70.22,289.09 70.333,288.389 70.333,287.46 L 70.344,286.685 z "
   id="path207" />
	<path
   d="M 83.863,288.372 L 85.941,288.653 C 85.714,290.081 85.134,291.198 84.2,292.005 C 83.266,292.812 82.119,293.216 80.76,293.216 C 79.056,293.216 77.687,292.659 76.651,291.544 C 75.615,290.431 75.098,288.835 75.098,286.755 C 75.098,285.409 75.321,284.234 75.766,283.226 C 76.211,282.218 76.889,281.46 77.799,280.956 C 78.709,280.452 79.699,280.2 80.77,280.2 C 82.122,280.2 83.227,280.542 84.086,281.225 C 84.945,281.908 85.496,282.879 85.738,284.137 L 83.691,284.45 C 83.496,283.616 83.15,282.987 82.654,282.565 C 82.158,282.145 81.558,281.934 80.855,281.934 C 79.792,281.934 78.929,282.315 78.265,283.077 C 77.601,283.841 77.269,285.046 77.269,286.696 C 77.269,288.37 77.589,289.585 78.229,290.342 C 78.87,291.102 79.705,291.481 80.736,291.481 C 81.564,291.481 82.255,291.227 82.809,290.717 C 83.363,290.21 83.715,289.429 83.863,288.372 z "
   id="path209" />
	<path
   d="M 92.348,291.056 L 92.661,292.919 C 92.066,293.044 91.534,293.107 91.064,293.107 C 90.297,293.107 89.703,292.986 89.28,292.744 C 88.857,292.5 88.56,292.181 88.388,291.787 C 88.216,291.393 88.13,290.56 88.13,289.293 L 88.13,282.123 L 86.567,282.123 L 86.567,280.482 L 88.13,280.482 L 88.13,277.4 L 90.239,276.134 L 90.239,280.482 L 92.348,280.482 L 92.348,282.123 L 90.239,282.123 L 90.239,289.412 C 90.239,290.016 90.276,290.402 90.349,290.574 C 90.423,290.748 90.543,290.885 90.71,290.986 C 90.877,291.087 91.116,291.138 91.427,291.138 C 91.66,291.138 91.967,291.11 92.348,291.056 z "
   id="path211" />
	<path
   d="M 93.625,286.708 C 93.625,284.401 94.266,282.694 95.546,281.583 C 96.616,280.661 97.921,280.2 99.459,280.2 C 101.169,280.2 102.567,280.761 103.653,281.882 C 104.738,283.005 105.281,284.554 105.281,286.532 C 105.281,288.134 105.041,289.395 104.56,290.313 C 104.079,291.231 103.381,291.944 102.463,292.454 C 101.545,292.962 100.544,293.216 99.458,293.216 C 97.716,293.216 96.309,292.657 95.235,291.538 C 94.162,290.421 93.625,288.812 93.625,286.708 z M 95.797,286.71 C 95.797,288.304 96.144,289.497 96.838,290.292 C 97.532,291.085 98.406,291.481 99.459,291.481 C 100.504,291.481 101.374,291.083 102.068,290.286 C 102.762,289.487 103.109,288.272 103.109,286.64 C 103.109,285.101 102.76,283.933 102.062,283.14 C 101.364,282.347 100.496,281.951 99.458,281.951 C 98.405,281.951 97.531,282.346 96.837,283.135 C 96.143,283.924 95.797,285.116 95.797,286.71 z "
   id="path213" />
	<path
   d="M 106.91,289.216 L 109.004,288.888 C 109.121,289.726 109.447,290.367 109.982,290.812 C 110.517,291.259 111.265,291.482 112.225,291.482 C 113.193,291.482 113.912,291.285 114.38,290.89 C 114.848,290.494 115.083,290.031 115.083,289.499 C 115.083,289.022 114.877,288.645 114.465,288.372 C 114.177,288.184 113.46,287.946 112.313,287.657 C 110.769,287.266 109.696,286.928 109.098,286.643 C 108.498,286.358 108.044,285.961 107.735,285.457 C 107.426,284.953 107.271,284.396 107.271,283.787 C 107.271,283.232 107.398,282.719 107.652,282.244 C 107.906,281.771 108.252,281.379 108.689,281.066 C 109.017,280.824 109.464,280.619 110.031,280.451 C 110.598,280.283 111.205,280.199 111.853,280.199 C 112.83,280.199 113.687,280.34 114.425,280.621 C 115.163,280.904 115.708,281.285 116.06,281.767 C 116.412,282.247 116.654,282.892 116.787,283.699 L 114.724,283.98 C 114.63,283.337 114.359,282.835 113.911,282.474 C 113.463,282.113 112.829,281.933 112.01,281.933 C 111.043,281.933 110.352,282.093 109.939,282.413 C 109.526,282.733 109.319,283.108 109.319,283.54 C 109.319,283.813 109.405,284.06 109.577,284.278 C 109.748,284.505 110.017,284.692 110.384,284.841 C 110.594,284.919 111.215,285.101 112.245,285.382 C 113.734,285.78 114.774,286.107 115.364,286.361 C 115.954,286.615 116.417,286.984 116.753,287.468 C 117.089,287.952 117.257,288.556 117.257,289.275 C 117.257,289.978 117.052,290.64 116.641,291.261 C 116.23,291.884 115.638,292.365 114.864,292.704 C 114.09,293.043 113.215,293.214 112.237,293.214 C 110.619,293.214 109.385,292.878 108.537,292.204 C 107.686,291.534 107.145,290.538 106.91,289.216 z "
   id="path215" />
	<path
   d="M 128.262,288.919 L 130.45,289.2 C 130.106,290.471 129.47,291.46 128.54,292.161 C 127.611,292.864 126.423,293.216 124.979,293.216 C 123.159,293.216 121.716,292.655 120.65,291.532 C 119.585,290.411 119.051,288.839 119.051,286.813 C 119.051,284.717 119.59,283.092 120.667,281.934 C 121.745,280.778 123.143,280.2 124.861,280.2 C 126.524,280.2 127.883,280.766 128.938,281.899 C 129.992,283.034 130.52,284.628 130.52,286.684 C 130.52,286.809 130.516,286.997 130.508,287.247 L 121.223,287.247 C 121.301,288.616 121.688,289.663 122.382,290.39 C 123.077,291.119 123.944,291.482 124.983,291.482 C 125.755,291.482 126.416,291.279 126.962,290.871 C 127.508,290.462 127.941,289.812 128.262,288.919 z M 121.348,285.513 L 128.286,285.513 C 128.192,284.464 127.927,283.679 127.491,283.154 C 126.82,282.341 125.95,281.935 124.882,281.935 C 123.915,281.935 123.102,282.259 122.443,282.908 C 121.782,283.558 121.418,284.425 121.348,285.513 z "
   id="path217" />
</g>
<g
   id="g219"
   transform="matrix(0.95,0,0,0.95,9.045075,7.3308)">
	<path
   d="M 229.906,292.935 L 229.906,275.747 L 232.187,275.747 L 232.187,290.903 L 240.625,290.903 L 240.625,292.934 L 229.906,292.934 L 229.906,292.935 z "
   id="path221" />
	<path
   d="M 242.238,287.778 L 242.238,285.653 L 248.738,285.653 L 248.738,287.778 L 242.238,287.778 z "
   id="path223" />
	<path
   d="M 259.371,286.2 L 259.371,284.169 L 266.652,284.169 L 266.652,290.546 C 265.535,291.437 264.382,292.109 263.195,292.558 C 262.008,293.007 260.789,293.232 259.539,293.232 C 257.851,293.232 256.318,292.871 254.939,292.146 C 253.56,291.423 252.519,290.378 251.816,289.009 C 251.113,287.64 250.761,286.113 250.761,284.423 C 250.761,282.749 251.111,281.187 251.81,279.737 C 252.509,278.286 253.515,277.21 254.828,276.505 C 256.141,275.802 257.652,275.45 259.363,275.45 C 260.604,275.45 261.727,275.651 262.731,276.054 C 263.735,276.458 264.522,277.019 265.092,277.74 C 265.662,278.461 266.096,279.4 266.393,280.558 L 264.335,281.121 C 264.077,280.246 263.757,279.557 263.374,279.057 C 262.992,278.557 262.445,278.157 261.735,277.856 C 261.024,277.555 260.236,277.405 259.37,277.405 C 258.331,277.405 257.433,277.563 256.677,277.88 C 255.919,278.196 255.308,278.612 254.844,279.13 C 254.379,279.646 254.018,280.212 253.761,280.829 C 253.323,281.893 253.105,283.046 253.105,284.29 C 253.105,285.823 253.369,287.104 253.896,288.138 C 254.422,289.169 255.189,289.935 256.197,290.437 C 257.204,290.937 258.273,291.187 259.406,291.187 C 260.389,291.187 261.349,290.998 262.287,290.619 C 263.224,290.238 263.933,289.834 264.418,289.404 L 264.418,286.2 L 259.371,286.2 z "
   id="path225" />
	<path
   d="M 277.852,291.403 C 277.067,292.065 276.314,292.534 275.592,292.805 C 274.871,293.078 274.097,293.215 273.27,293.215 C 271.906,293.215 270.856,292.881 270.124,292.211 C 269.391,291.543 269.024,290.69 269.024,289.648 C 269.024,289.039 269.163,288.482 269.439,287.976 C 269.716,287.472 270.079,287.068 270.527,286.763 C 270.975,286.458 271.481,286.226 272.042,286.07 C 272.456,285.961 273.079,285.855 273.914,285.754 C 275.614,285.551 276.866,285.309 277.669,285.027 C 277.677,284.738 277.681,284.554 277.681,284.476 C 277.681,283.619 277.482,283.013 277.084,282.662 C 276.546,282.187 275.747,281.949 274.687,281.949 C 273.697,281.949 272.965,282.123 272.494,282.469 C 272.023,282.815 271.674,283.428 271.447,284.309 L 269.384,284.028 C 269.572,283.145 269.88,282.434 270.309,281.891 C 270.739,281.348 271.359,280.93 272.171,280.639 C 272.983,280.346 273.923,280.2 274.993,280.2 C 276.055,280.2 276.917,280.325 277.581,280.575 C 278.244,280.825 278.732,281.139 279.044,281.516 C 279.357,281.895 279.575,282.373 279.7,282.952 C 279.77,283.311 279.805,283.96 279.805,284.897 L 279.805,287.711 C 279.805,289.674 279.85,290.916 279.941,291.436 C 280.031,291.957 280.21,292.456 280.477,292.934 L 278.274,292.934 C 278.055,292.497 277.914,291.987 277.852,291.403 z M 277.68,286.685 C 276.914,286.998 275.767,287.263 274.237,287.482 C 273.371,287.607 272.758,287.748 272.398,287.904 C 272.04,288.06 271.762,288.289 271.567,288.59 C 271.372,288.891 271.274,289.225 271.274,289.592 C 271.274,290.155 271.486,290.623 271.911,290.998 C 272.336,291.373 272.958,291.561 273.776,291.561 C 274.587,291.561 275.307,291.383 275.938,291.028 C 276.57,290.671 277.034,290.184 277.33,289.567 C 277.556,289.09 277.669,288.389 277.669,287.46 L 277.68,286.685 z "
   id="path227" />
	<path
   d="M 283.027,292.935 L 283.027,275.747 L 285.136,275.747 L 285.136,292.935 L 283.027,292.935 z "
   id="path229" />
	<path
   d="M 296.531,291.403 C 295.746,292.065 294.993,292.534 294.271,292.805 C 293.55,293.078 292.776,293.215 291.949,293.215 C 290.585,293.215 289.535,292.881 288.803,292.211 C 288.07,291.543 287.703,290.69 287.703,289.648 C 287.703,289.039 287.842,288.482 288.118,287.976 C 288.395,287.472 288.758,287.068 289.206,286.763 C 289.654,286.458 290.16,286.226 290.721,286.07 C 291.135,285.961 291.758,285.855 292.593,285.754 C 294.293,285.551 295.545,285.309 296.348,285.027 C 296.356,284.738 296.36,284.554 296.36,284.476 C 296.36,283.619 296.161,283.013 295.763,282.662 C 295.225,282.187 294.426,281.949 293.366,281.949 C 292.376,281.949 291.644,282.123 291.173,282.469 C 290.702,282.815 290.353,283.428 290.126,284.309 L 288.063,284.028 C 288.251,283.145 288.559,282.434 288.988,281.891 C 289.418,281.348 290.038,280.93 290.85,280.639 C 291.662,280.346 292.602,280.2 293.672,280.2 C 294.734,280.2 295.596,280.325 296.26,280.575 C 296.923,280.825 297.411,281.139 297.723,281.516 C 298.036,281.895 298.254,282.373 298.379,282.952 C 298.449,283.311 298.484,283.96 298.484,284.897 L 298.484,287.711 C 298.484,289.674 298.529,290.916 298.62,291.436 C 298.71,291.957 298.889,292.456 299.156,292.934 L 296.953,292.934 C 296.734,292.497 296.594,291.987 296.531,291.403 z M 296.359,286.685 C 295.593,286.998 294.446,287.263 292.916,287.482 C 292.05,287.607 291.437,287.748 291.077,287.904 C 290.719,288.06 290.441,288.289 290.246,288.59 C 290.051,288.891 289.953,289.225 289.953,289.592 C 289.953,290.155 290.165,290.623 290.59,290.998 C 291.015,291.373 291.637,291.561 292.455,291.561 C 293.266,291.561 293.986,291.383 294.617,291.028 C 295.249,290.671 295.713,290.184 296.009,289.567 C 296.235,289.09 296.348,288.389 296.348,287.46 L 296.359,286.685 z "
   id="path231" />
	<path
   d="M 309.879,288.372 L 311.957,288.653 C 311.73,290.081 311.15,291.198 310.216,292.005 C 309.282,292.812 308.135,293.216 306.776,293.216 C 305.073,293.216 303.703,292.659 302.667,291.544 C 301.632,290.431 301.114,288.835 301.114,286.755 C 301.114,285.409 301.337,284.234 301.782,283.226 C 302.227,282.218 302.905,281.46 303.815,280.956 C 304.725,280.452 305.715,280.2 306.786,280.2 C 308.138,280.2 309.243,280.542 310.102,281.225 C 310.961,281.908 311.512,282.879 311.754,284.137 L 309.707,284.45 C 309.512,283.616 309.166,282.987 308.67,282.565 C 308.174,282.145 307.574,281.934 306.871,281.934 C 305.808,281.934 304.945,282.315 304.281,283.077 C 303.617,283.841 303.285,285.046 303.285,286.696 C 303.285,288.37 303.605,289.585 304.245,290.342 C 304.886,291.102 305.721,291.481 306.752,291.481 C 307.58,291.481 308.271,291.227 308.825,290.717 C 309.379,290.21 309.73,289.429 309.879,288.372 z "
   id="path233" />
	<path
   d="M 318.363,291.056 L 318.676,292.919 C 318.081,293.044 317.549,293.107 317.079,293.107 C 316.312,293.107 315.718,292.986 315.295,292.744 C 314.872,292.5 314.575,292.181 314.402,291.787 C 314.23,291.392 314.144,290.56 314.144,289.293 L 314.144,282.123 L 312.581,282.123 L 312.581,280.482 L 314.144,280.482 L 314.144,277.4 L 316.253,276.134 L 316.253,280.482 L 318.362,280.482 L 318.362,282.123 L 316.253,282.123 L 316.253,289.412 C 316.253,290.016 316.29,290.402 316.363,290.574 C 316.437,290.748 316.557,290.885 316.724,290.986 C 316.891,291.087 317.13,291.138 317.441,291.138 C 317.676,291.138 317.982,291.11 318.363,291.056 z "
   id="path235" />
	<path
   d="M 319.641,286.708 C 319.641,284.401 320.282,282.694 321.562,281.583 C 322.632,280.661 323.936,280.2 325.475,280.2 C 327.185,280.2 328.583,280.761 329.668,281.882 C 330.754,283.005 331.297,284.554 331.297,286.532 C 331.297,288.134 331.057,289.395 330.576,290.313 C 330.095,291.231 329.396,291.944 328.479,292.454 C 327.561,292.962 326.56,293.216 325.474,293.216 C 323.732,293.216 322.325,292.657 321.251,291.538 C 320.178,290.421 319.641,288.812 319.641,286.708 z M 321.813,286.71 C 321.813,288.304 322.16,289.497 322.854,290.292 C 323.548,291.085 324.422,291.481 325.475,291.481 C 326.52,291.481 327.39,291.083 328.084,290.286 C 328.777,289.487 329.125,288.272 329.125,286.64 C 329.125,285.101 328.775,283.933 328.078,283.14 C 327.38,282.347 326.512,281.951 325.474,281.951 C 324.421,281.951 323.547,282.346 322.853,283.135 C 322.159,283.924 321.813,285.116 321.813,286.71 z "
   id="path237" />
	<path
   d="M 332.926,289.216 L 335.02,288.888 C 335.137,289.726 335.463,290.367 335.998,290.812 C 336.533,291.259 337.28,291.482 338.241,291.482 C 339.209,291.482 339.928,291.285 340.395,290.89 C 340.864,290.494 341.098,290.031 341.098,289.499 C 341.098,289.022 340.892,288.645 340.48,288.372 C 340.192,288.184 339.475,287.946 338.329,287.657 C 336.784,287.266 335.712,286.928 335.113,286.643 C 334.513,286.358 334.059,285.961 333.75,285.457 C 333.441,284.953 333.286,284.396 333.286,283.787 C 333.286,283.232 333.413,282.719 333.667,282.244 C 333.921,281.771 334.267,281.379 334.704,281.066 C 335.032,280.824 335.479,280.619 336.046,280.451 C 336.613,280.283 337.22,280.199 337.868,280.199 C 338.845,280.199 339.702,280.34 340.44,280.621 C 341.178,280.904 341.723,281.285 342.075,281.767 C 342.427,282.247 342.669,282.892 342.802,283.699 L 340.739,283.98 C 340.645,283.337 340.374,282.835 339.926,282.474 C 339.478,282.113 338.844,281.933 338.025,281.933 C 337.058,281.933 336.367,282.093 335.954,282.413 C 335.541,282.733 335.334,283.108 335.334,283.54 C 335.334,283.813 335.42,284.06 335.592,284.278 C 335.763,284.505 336.032,284.692 336.399,284.841 C 336.61,284.919 337.23,285.101 338.26,285.382 C 339.749,285.78 340.789,286.107 341.379,286.361 C 341.969,286.615 342.432,286.984 342.768,287.468 C 343.104,287.952 343.272,288.556 343.272,289.275 C 343.272,289.978 343.067,290.64 342.657,291.261 C 342.246,291.884 341.653,292.365 340.88,292.704 C 340.107,293.043 339.231,293.214 338.253,293.214 C 336.635,293.214 335.401,292.878 334.553,292.204 C 333.701,291.534 333.16,290.538 332.926,289.216 z "
   id="path239" />
	<path
   d="M 354.277,288.919 L 356.465,289.2 C 356.121,290.471 355.485,291.46 354.555,292.161 C 353.626,292.864 352.439,293.216 350.994,293.216 C 349.174,293.216 347.731,292.655 346.665,291.532 C 345.6,290.411 345.066,288.839 345.066,286.813 C 345.066,284.717 345.605,283.092 346.682,281.934 C 347.76,280.778 349.158,280.2 350.876,280.2 C 352.539,280.2 353.898,280.766 354.952,281.899 C 356.007,283.034 356.534,284.628 356.534,286.684 C 356.534,286.809 356.53,286.997 356.522,287.247 L 347.237,287.247 C 347.315,288.616 347.702,289.663 348.396,290.39 C 349.091,291.119 349.958,291.482 350.997,291.482 C 351.769,291.482 352.43,291.279 352.976,290.871 C 353.523,290.462 353.957,289.812 354.277,288.919 z M 347.363,285.513 L 354.301,285.513 C 354.207,284.464 353.942,283.679 353.506,283.154 C 352.834,282.341 351.965,281.935 350.897,281.935 C 349.93,281.935 349.117,282.259 348.458,282.908 C 347.798,283.558 347.434,284.425 347.363,285.513 z "
   id="path241" />
</g>
</svg>