<svg xml:space="preserve" style="overflow:visible" viewBox="0 0 360.6 258"><path d="m71 69.8-.8.8-.8-.8V32.5l1.6.9zm0 37.7-.8.8-.8-.8v-36l.8-.9.8.8z"/><path d="m71 145.2-.8.8-.8-.8v-36l.8-.9.8.8zm4.4 41.8 2.1.5a7 7 0 0 1-2.4 4 7 7 0 0 1-4.3 1.5q-2.7 0-4.3-1.1t-2.5-3.1a11 11 0 0 1 .1-8.9 7 7 0 0 1 2.8-2.8 8 8 0 0 1 4-1q2.4 0 4 1.2 1.8 1.3 2.4 3.5l-2.2.5a5 5 0 0 0-1.6-2.6q-1-.8-2.7-.8-1.9 0-3.2 1-1.2.8-1.7 2.4t-.5 3q0 2.2.6 3.7t1.8 2.3 2.8.8q1.8 0 3-1 1.4-1.1 1.8-3.1m4.9 5.7v-16.3h2.2v6.7h8.4v-6.7h2.2v16.3h-2.2V185h-8.4v7.7zm22.2 2.8v1.5h-8.1q0-.7.2-1 .3-1 1-1.7.6-.8 2-1.9 2-1.6 2.6-2.6a3 3 0 0 0 .7-1.8 2 2 0 0 0-.6-1.5q-.6-.6-1.7-.6-1 0-1.7.7t-.7 1.8l-1.5-.2q0-1.7 1.2-2.6a4 4 0 0 1 2.8-1q1.6 0 2.7 1 1 1 1 2.5 0 .8-.2 1.4-.3.8-1 1.5l-2.3 2.2-2.4 2.3zm1.3-10.8q0-4 2.1-6.3a7 7 0 0 1 5.7-2.3q2.2 0 4 1a7 7 0 0 1 2.8 3q1 2 1 4.4 0 2.6-1 4.5a7 7 0 0 1-2.9 3 8 8 0 0 1-8-.1 7 7 0 0 1-2.8-3q-1-2-1-4.2m2.2 0q0 3 1.6 4.7t4 1.7 4-1.7a7 7 0 0 0 1.5-4.9q0-2-.6-3.4a5 5 0 0 0-5-3.2q-2.2 0-3.9 1.6-1.5 1.5-1.6 5.3m16.3 7.9v-16.3h2.2v6.7h8.4v-6.7h2.2v16.3h-2.2V185h-8.4v7.7zM71 174h-1.6v-27.2l.8-.8.8.8zm30.5-94.4V63.3h2.2V70h8.4v-6.7h2.2v16.3H112v-7.7h-8.4v7.7zm-2.1-9.8v1.6H71l-.8-.8.8-.8zM9 79.6V63.3h2.2V70h8.4v-6.7h2.2v16.3h-2.2v-7.7h-8.4v7.7zm15.7-8q0-4 2.2-6.3a7 7 0 0 1 5.7-2.3q2.2 0 4 1a7 7 0 0 1 2.8 3q1 2 1 4.4t-1 4.5a7 7 0 0 1-2.9 3 8 8 0 0 1-8-.1 7 7 0 0 1-2.8-3q-1-2-1-4.2m2.3 0q0 3 1.6 4.7 1.5 1.7 4 1.7 2.4 0 4-1.7a7 7 0 0 0 1.5-4.9q0-2-.6-3.4a5 5 0 0 0-5-3.2q-2.2 0-3.9 1.6-1.6 1.5-1.6 5.3m15.4-.3v-1.6h27l.8.8-.8.8zm59.1 45.9V101h2.2v6.7h8.4V101h2.2v16.3H112v-7.7h-8.4v7.7z"/><path d="M99.4 107.5v1.6H71l-.8-.8.8-.8zM9 117.3V101h2.2v6.7h8.4V101h2.2v16.3h-2.2v-7.7h-8.4v7.7zm15.7-7.9q0-4.2 2.2-6.4a7 7 0 0 1 5.7-2.3q2.2 0 4 1a7 7 0 0 1 2.8 3q1 2 1 4.5 0 2.4-1 4.4a7 7 0 0 1-2.9 3 8 8 0 0 1-8-.1 7 7 0 0 1-2.8-3q-1-2-1-4.1m2.3 0q0 3 1.6 4.6 1.5 1.8 4 1.7 2.4 0 4-1.7a7 7 0 0 0 1.5-4.9q0-2-.6-3.4a5 5 0 0 0-5-3.2q-2.2 0-3.9 1.6-1.6 1.5-1.6 5.3m15.4-.3v-1.6h27l.8.8-.8.8zM100 147q0-4 2.2-6.3a7 7 0 0 1 5.7-2.3q2.2 0 4 1a7 7 0 0 1 2.8 3q1 2 1 4.4t-1 4.5a7 7 0 0 1-2.9 3 8 8 0 0 1-8-.2 7 7 0 0 1-2.8-3q-1-2-1-4m2.3 0q0 3 1.6 4.7 1.5 1.7 4 1.7 2.4 0 4-1.7a7 7 0 0 0 1.5-4.9q0-2-.6-3.5a5 5 0 0 0-5-3q-2.2 0-3.9 1.5-1.6 1.6-1.6 5.2m16.2 7.9v-16.4h2.2v6.7h8.4v-6.7h2.2V155h-2.2v-7.7h-8.4v7.7zm-20.6-9.8v1.6h-27l-.7-.8.8-.8zM26.1 155v-16.4h2.2v6.7h8.4v-6.7H39V155h-2.2v-7.7h-8.4v7.7zm14.9-8.2v-1.6h28.4l.8.8-.8.8zM29.7 15.1q0-4 2.2-6.4a7 7 0 0 1 5.7-2.3q2.2 0 4 1.1a7 7 0 0 1 2.8 3q1 2 1 4.4 0 2.6-1 4.5a7 7 0 0 1-2.9 3 8 8 0 0 1-8-.2 7 7 0 0 1-2.8-3q-1-2-1-4m2.3 0q0 3 1.6 4.7 1.5 1.7 4 1.7t4-1.7a7 7 0 0 0 1.5-4.9q0-2-.6-3.5a5 5 0 0 0-5-3.1q-2.2 0-3.9 1.6-1.5 1.5-1.6 5.2m13 7.3.7-1.3 24.9 14.3-.8 1.4zm2.7-4.9.8-1.3 24.9 14.3-.8 1.4zM96.5 23V6.8h2.1v6.7h8.5V6.7h2.1v16.4h-2.1v-7.7h-8.5V23z"/><path d="m92.7 19 .8 1.4-22.5 13-1.6-1zm194.9 50.8-.8.8-.8-.8V32.5l1.6.9zm0 37.7-.8.8-.8-.8v-36l.8-.9.8.8z"/><path d="m287.6 145.2-.8.8-.8-.8v-36l.8-.9.8.8zM292 187l2.1.5a7 7 0 0 1-2.4 4 7 7 0 0 1-4.3 1.5q-2.7 0-4.3-1.1t-2.5-3.1a11 11 0 0 1 .1-8.9 7 7 0 0 1 2.8-2.8 8 8 0 0 1 4-1q2.4 0 4 1.2 1.8 1.3 2.4 3.5l-2.2.5a5 5 0 0 0-1.6-2.6q-1-.8-2.7-.8-1.9 0-3.2 1-1.2.8-1.7 2.4t-.5 3q0 2.2.6 3.7t1.8 2.3 2.8.8q1.8 0 3-1 1.4-1.1 1.8-3.1m4.9 5.7v-16.3h2.2v6.7h8.4v-6.7h2.2v16.3h-2.2V185h-8.4v7.7zm22.1 2.8v1.5h-8q0-.7.2-1 .3-1 1-1.7.5-.8 2-1.9 2-1.6 2.6-2.6a3 3 0 0 0 .7-1.8 2 2 0 0 0-.6-1.5q-.6-.6-1.7-.6-1 0-1.7.7t-.7 1.8l-1.5-.2q0-1.7 1.2-2.6a4 4 0 0 1 2.8-1q1.6 0 2.7 1 1 1 1 2.5 0 .8-.2 1.4-.4.8-1 1.5l-2.3 2.2-2.4 2.3zm1.4-10.8q0-4 2.1-6.3a7 7 0 0 1 5.7-2.3q2.2 0 4 1a7 7 0 0 1 2.8 3q1 2 1 4.4 0 2.6-1 4.5a7 7 0 0 1-2.9 3 8 8 0 0 1-8-.1 7 7 0 0 1-2.8-3q-1-2-1-4.2m2.2 0q0 3 1.6 4.7t4 1.7 4-1.7a7 7 0 0 0 1.5-4.9q0-2-.6-3.4a5 5 0 0 0-5-3.2q-2.2 0-3.9 1.6-1.6 1.5-1.6 5.3m16.3 7.9v-16.3h2.2v6.7h8.4v-6.7h2.2v16.3h-2.2V185H341v7.7zM287.6 174H286v-27.2l.8-.8.8.8zm29-102.4q0-4 2.2-6.3a7 7 0 0 1 5.7-2.3q2.2 0 4 1a7 7 0 0 1 2.8 3q1 2 1 4.4t-1 4.5a7 7 0 0 1-2.9 3 8 8 0 0 1-8-.1 7 7 0 0 1-2.8-3q-1-2-1-4.2m2.3 0q0 3 1.6 4.7 1.5 1.7 4 1.7 2.4 0 4-1.7a7 7 0 0 0 1.5-4.9q0-2-.6-3.4a5 5 0 0 0-5-3.2q-2.2 0-3.9 1.6-1.6 1.5-1.6 5.3m16.2 7.9V63.3h2.2V70h8.4v-6.7h2.2v16.3h-2.2v-7.7h-8.4v7.7zm-20.6-9.8v1.6h-27l-.7-.8.8-.8zm-71.8 9.8V63.3h2.2V70h8.4v-6.7h2.2v16.3h-2.2v-7.7H245v7.7zm14.9-8.2v-1.6H286l.8.8-.8.8zm59 38q0-4.2 2.2-6.4a7 7 0 0 1 5.7-2.3q2.2 0 4 1a7 7 0 0 1 2.8 3q1 2 1 4.5 0 2.4-1 4.4a7 7 0 0 1-2.9 3 8 8 0 0 1-8-.1 7 7 0 0 1-2.8-3q-1-2-1-4.1m2.3 0q0 3 1.6 4.6 1.5 1.8 4 1.7 2.4 0 4-1.7a7 7 0 0 0 1.5-4.9q0-2-.6-3.4a5 5 0 0 0-5-3.2q-2.2 0-3.9 1.6-1.6 1.5-1.6 5.3m16.2 7.9V101h2.2v6.7h8.4V101h2.2v16.3h-2.2v-7.7h-8.4v7.7z"/><path d="M314.5 107.5v1.6h-27l-.7-.8.8-.8zm-71.8 9.8V101h2.2v6.7h8.4V101h2.2v16.3h-2.2v-7.7H245v7.7zm14.9-8.2v-1.6H286l.8.8-.8.8zm60.5 45.9v-16.4h2.2v6.7h8.4v-6.7h2.2V155h-2.2v-7.7h-8.4v7.7zm-2.1-9.8v1.6h-28.4l-.8-.8.8-.8zm-90.4 9.8v-16.4h2.2v6.7h8.4v-6.7h2.2V155h-2.2v-7.7h-8.4v7.7zm15.7-8q0-4 2.2-6.3a7 7 0 0 1 5.7-2.3q2.2 0 4 1a7 7 0 0 1 2.8 3q1 2 1 4.4t-1 4.5a7 7 0 0 1-2.9 3 8 8 0 0 1-8-.2 7 7 0 0 1-2.8-3q-1-2-1-4m2.3 0q0 3 1.6 4.7 1.5 1.7 4 1.7 2.4 0 4-1.7a7 7 0 0 0 1.5-4.9q0-2-.6-3.5a5 5 0 0 0-5-3q-2.3 0-3.9 1.5-1.5 1.6-1.6 5.2m15.4-.3v-1.6h27l.8.8-.8.8zM246.3 15.1q0-4 2.2-6.4a7 7 0 0 1 5.7-2.3q2.2 0 4 1.1a7 7 0 0 1 2.8 3q1 2 1 4.4 0 2.6-1 4.5a7 7 0 0 1-2.9 3 8 8 0 0 1-8-.2 7 7 0 0 1-2.8-3q-1-2-1-4m2.3 0q0 3 1.6 4.7 1.5 1.7 4 1.7 2.4 0 4-1.7a7 7 0 0 0 1.5-4.9q0-2-.6-3.5a5 5 0 0 0-5-3.1q-2.2 0-3.9 1.6-1.5 1.5-1.6 5.2m12.9 7.3.8-1.3 24.9 14.3-.8 1.4zm2.8-4.9.8-1.3L290 30.6l-.8 1.4zM313 23V6.8h2.2v6.7h8.5V6.7h2.1v16.4h-2.1v-7.7h-8.5V23z"/><path d="m309.3 19 .8 1.4-22.5 13-1.6-1zM23.1 246.7v-16.3h5.6q1.9 0 3 .2 1.2.4 2.3 1.2 1.3 1.1 2 2.8t.6 3.9q0 1.8-.5 3.3a8 8 0 0 1-1 2.4l-1.6 1.4-1.9.9-2.6.2zm2.2-1.9h3.4q1.7 0 2.6-.3.8-.3 1.4-.8.8-.8 1.2-2.1t.4-3.2q0-2.5-.8-3.9t-2-1.8q-.9-.4-2.8-.4h-3.4zm13.2-3v-2h6.2v2zm8.5 4.9v-16.3h2.2v14.4h8v2zm12.5 4.6-.2-1.9 1.1.2q.7 0 1-.2.5-.3.7-.7l.8-2-4.5-11.8h2.2l2.4 6.8.9 2.8.8-2.7 2.6-6.9h2l-4.5 12-1.1 2.7a4 4 0 0 1-1.3 1.5 3 3 0 0 1-1.6.4zm10.1-4.6 4.4-6-4-5.8h2.4l1.9 2.8.8 1.3 1-1.3L78 235h2.4l-4 5.7 4.3 6.1h-2.4l-2.5-3.6-.6-1-3.1 4.6zm12-5.9q0-3.3 1.9-4.8 1.5-1.4 3.7-1.4 2.5 0 4 1.6a6 6 0 0 1 1.5 4.5q0 2.3-.7 3.5-.6 1.5-2 2-1.2.9-2.8.8-2.5 0-4-1.6-1.5-1.5-1.6-4.6m2 0q0 2.3 1 3.4t2.6 1.2 2.4-1.2 1-3.4q0-2.2-1-3.4a3 3 0 0 0-2.4-1.1q-1.6 0-2.5 1.1-1 1.3-1 3.4m10.5 2.4 2-.3q.2 1.2 1 1.8t2.1.7 2-.6.7-1.3-.6-1.1q-.4-.3-2-.7-2.3-.5-3-1a3 3 0 0 1-1.8-2.7q0-.8.4-1.4.3-.7 1-1.1.4-.5 1.2-.6l1.7-.3q1.5 0 2.5.4t1.5 1.1.7 1.9l-2 .2q0-.9-.7-1.4t-1.8-.5q-1.4 0-2 .4t-.6 1.1q0 .4.3.7t.7.5l1.8.6q2.1.5 3 .9.8.3 1.3 1t.5 1.8-.6 1.8-1.7 1.4-2.5.5q-2.3 0-3.5-1a4 4 0 0 1-1.6-2.8m20.3-.2 2.1.2a5 5 0 0 1-1.8 2.8q-1.3 1-3.4 1-2.5 0-4.1-1.6t-1.5-4.5 1.5-4.6 4-1.7a5 5 0 0 1 3.9 1.7q1.5 1.5 1.5 4.5v.5h-8.9q.2 2 1.1 3t2.5 1a3 3 0 0 0 1.9-.5q.8-.6 1.2-1.9m-6.5-3.3h6.6a4 4 0 0 0-.8-2.3 3 3 0 0 0-2.5-1.1q-1.4 0-2.3 1-1 .8-1 2.4m133.5 7.1v-16.3h2.2v14.4h8v2zm11.7-4.9v-2h6.2v2zm8.6 4.9v-16.3h2.1v14.4h8v2zm12.4 4.6-.2-1.9 1.1.2q.7 0 1-.2.6-.3.7-.7l.8-2-4.5-11.8h2.2l2.5 6.8.8 2.8.9-2.7 2.5-6.9h2l-4.5 12-1.1 2.7a4 4 0 0 1-1.3 1.5 3 3 0 0 1-1.6.4zm10.1-4.6 4.4-6-4-5.8h2.4l1.9 2.8.8 1.3 1-1.3 2-2.8h2.4l-4 5.7 4.2 6.1H293l-2.5-3.6-.5-1-3.2 4.6zm12-5.9q0-3.3 1.9-4.8 1.5-1.4 3.7-1.4 2.5 0 4 1.6a6 6 0 0 1 1.5 4.5q0 2.3-.7 3.5-.5 1.5-2 2-1.2.9-2.8.8-2.5 0-4-1.6-1.6-1.5-1.6-4.6m2.1 0q0 2.3 1 3.4t2.5 1.2 2.5-1.2 1-3.4-1-3.4a3 3 0 0 0-2.5-1.1q-1.5 0-2.5 1.1-1 1.3-1 3.4m10.6 2.4 2-.3q0 1.2.9 1.8t2.1.7q1.4 0 2-.6t.7-1.3-.6-1.1q-.4-.3-2-.7-2.3-.5-3-1a3 3 0 0 1-1.8-2.7q0-.8.4-1.4.3-.7 1-1.1.5-.5 1.2-.6l1.8-.3q1.3 0 2.4.4t1.6 1.1.6 1.9l-2 .2q0-.9-.7-1.4t-1.8-.5q-1.5 0-2 .4t-.6 1.1q0 .4.3.7t.8.5l1.7.6q2.1.5 3 .9.9.3 1.3 1t.5 1.8-.6 1.8-1.7 1.4-2.5.5q-2.3 0-3.5-1a5 5 0 0 1-1.5-2.8m20.2-.2 2.1.2a5 5 0 0 1-1.8 2.8q-1.3 1-3.4 1-2.5 0-4-1.6-1.6-1.6-1.6-4.5 0-3 1.5-4.6 1.5-1.7 4-1.7a5 5 0 0 1 3.9 1.7q1.5 1.5 1.5 4.5v.5h-8.8q0 2 1 3t2.5 1a3 3 0 0 0 2-.5q.6-.6 1.1-1.9m-6.5-3.3h6.6a4 4 0 0 0-.8-2.3 3 3 0 0 0-2.5-1.1q-1.4 0-2.3 1-1 .8-1 2.4"/></svg>