<svg xmlns="http://www.w3.org/2000/svg" xmlns:cc="http://web.resource.org/cc/" xmlns:svg="http://www.w3.org/2000/svg" id="Layer_1" width="360.625" height="257.981" version="1.1" viewBox="0 0 360.625 257.981" style="overflow:visible;enable-background:new 0 0 360.625 257.981" xml:space="preserve"><metadata id="metadata202"/><path id="polygon3" d="M 70.967975,69.800275 L 70.160475,70.606825 L 69.352975,69.800275 L 69.352975,32.464325 L 70.967975,33.366825 L 70.967975,69.800275 z"/><path id="polygon5" d="M 70.967975,107.51433 L 70.160475,108.32183 L 69.352975,107.51433 L 69.352975,71.414325 L 70.160475,70.606825 L 70.967975,71.414325 L 70.967975,107.51433 z"/><path id="polygon7" d="M 70.967975,145.18183 L 70.160475,145.98933 L 69.352975,145.18183 L 69.352975,109.12933 L 70.160475,108.32183 L 70.967975,109.12933 L 70.967975,145.18183 z"/><g id="g9" transform="matrix(0.95,0,0,0.95,9.015625,6.449525)"><path id="path11" d="M 69.856,190.007 L 72.137,190.581 C 71.661,192.451 70.804,193.877 69.568,194.858 C 68.331,195.84 66.818,196.331 65.031,196.331 C 63.181,196.331 61.677,195.954 60.518,195.199 C 59.359,194.444 58.477,193.352 57.872,191.921 C 57.267,190.49 56.965,188.954 56.965,187.312 C 56.965,185.521 57.306,183.959 57.989,182.626 C 58.672,181.292 59.643,180.28 60.904,179.588 C 62.164,178.896 63.55,178.55 65.064,178.55 C 66.781,178.55 68.224,178.988 69.394,179.864 C 70.565,180.741 71.38,181.973 71.84,183.561 L 69.606,184.088 C 69.208,182.838 68.631,181.928 67.875,181.358 C 67.118,180.788 66.166,180.503 65.02,180.503 C 63.702,180.503 62.6,180.819 61.714,181.452 C 60.829,182.085 60.207,182.934 59.848,184.001 C 59.489,185.068 59.31,186.167 59.31,187.3 C 59.31,188.761 59.522,190.036 59.947,191.126 C 60.372,192.216 61.032,193.03 61.929,193.569 C 62.826,194.108 63.796,194.378 64.841,194.378 C 66.112,194.378 67.187,194.011 68.068,193.276 C 68.949,192.541 69.544,191.452 69.856,190.007 z"/><path id="path13" d="M 75.032,196.034 L 75.032,178.846 L 77.313,178.846 L 77.313,185.909 L 86.204,185.909 L 86.204,178.846 L 88.485,178.846 L 88.485,196.034 L 86.204,196.034 L 86.204,187.94 L 77.313,187.94 L 77.313,196.034 L 75.032,196.034 z"/></g><g id="g15" transform="matrix(0.95,0,0,0.95,9.015625,6.449525)"><path id="path17" d="M 98.395,199.019 L 98.395,200.535 L 89.864,200.535 C 89.852,200.154 89.914,199.788 90.05,199.435 C 90.268,198.855 90.617,198.285 91.098,197.723 C 91.578,197.161 92.268,196.512 93.168,195.775 C 94.564,194.623 95.51,193.712 96.008,193.042 C 96.506,192.372 96.755,191.738 96.755,191.139 C 96.755,190.513 96.53,189.985 96.08,189.555 C 95.63,189.125 95.043,188.91 94.32,188.91 C 93.554,188.91 92.943,189.139 92.484,189.598 C 92.025,190.056 91.793,190.692 91.787,191.503 L 90.162,191.331 C 90.273,190.116 90.693,189.189 91.422,188.552 C 92.15,187.915 93.128,187.597 94.356,187.597 C 95.595,187.597 96.576,187.94 97.298,188.626 C 98.02,189.312 98.381,190.161 98.381,191.176 C 98.381,191.693 98.275,192.199 98.064,192.697 C 97.853,193.195 97.501,193.719 97.011,194.271 C 96.52,194.822 95.707,195.579 94.571,196.54 C 93.62,197.337 93.009,197.878 92.738,198.161 C 92.467,198.446 92.242,198.731 92.065,199.018 L 98.395,199.018 L 98.395,199.019 z"/></g><g id="g19" transform="matrix(0.95,0,0,0.95,9.015625,6.449525)"><path id="path21" d="M 99.722,187.669 C 99.722,184.817 100.488,182.584 102.02,180.97 C 103.552,179.357 105.53,178.55 107.953,178.55 C 109.54,178.55 110.97,178.929 112.244,179.687 C 113.518,180.445 114.489,181.502 115.158,182.858 C 115.826,184.214 116.16,185.752 116.16,187.47 C 116.16,189.212 115.808,190.772 115.105,192.147 C 114.401,193.523 113.405,194.564 112.115,195.271 C 110.825,195.978 109.434,196.332 107.941,196.332 C 106.323,196.332 104.877,195.941 103.603,195.16 C 102.329,194.379 101.364,193.312 100.707,191.96 C 100.05,190.607 99.722,189.177 99.722,187.669 z M 102.066,187.698 C 102.066,189.768 102.623,191.399 103.737,192.591 C 104.851,193.783 106.249,194.378 107.929,194.378 C 109.641,194.378 111.05,193.776 112.157,192.573 C 113.263,191.37 113.816,189.663 113.816,187.452 C 113.816,186.054 113.58,184.833 113.107,183.79 C 112.634,182.747 111.942,181.938 111.031,181.364 C 110.12,180.79 109.098,180.503 107.965,180.503 C 106.355,180.503 104.969,181.056 103.808,182.161 C 102.647,183.266 102.066,185.112 102.066,187.698 z"/><path id="path23" d="M 119.171,196.034 L 119.171,178.846 L 121.452,178.846 L 121.452,185.909 L 130.343,185.909 L 130.343,178.846 L 132.624,178.846 L 132.624,196.034 L 130.343,196.034 L 130.343,187.94 L 121.452,187.94 L 121.452,196.034 L 119.171,196.034 z"/></g><path id="polygon25" d="M 70.967975,173.91932 L 69.352975,173.91932 L 69.352975,146.79683 L 70.160475,145.98933 L 70.967975,146.79683 L 70.967975,173.91932 z"/><g id="g27" transform="matrix(0.95,0,0,0.95,9.015625,6.449525)"><path id="path29" d="M 97.35,76.984 L 97.35,59.797 L 99.631,59.797 L 99.631,66.86 L 108.522,66.86 L 108.522,59.797 L 110.803,59.797 L 110.803,76.985 L 108.522,76.985 L 108.522,68.891 L 99.631,68.891 L 99.631,76.985 L 97.35,76.985 L 97.35,76.984 z"/></g><path id="polygon31" d="M 99.372975,69.800275 L 99.372975,71.414325 L 70.967975,71.414325 L 70.160475,70.606825 L 70.967975,69.800275 L 99.372975,69.800275 z"/><g id="g33" transform="matrix(0.95,0,0,0.95,9.015625,6.449525)"><path id="path35" d="M 0,76.984 L 0,59.797 L 2.281,59.797 L 2.281,66.86 L 11.172,66.86 L 11.172,59.797 L 13.453,59.797 L 13.453,76.985 L 11.172,76.985 L 11.172,68.891 L 2.281,68.891 L 2.281,76.985 L 0,76.985 L 0,76.984 z"/><path id="path37" d="M 16.551,68.619 C 16.551,65.767 17.317,63.534 18.849,61.92 C 20.381,60.307 22.359,59.5 24.782,59.5 C 26.369,59.5 27.799,59.879 29.073,60.637 C 30.347,61.395 31.318,62.452 31.987,63.808 C 32.655,65.164 32.989,66.702 32.989,68.42 C 32.989,70.162 32.637,71.722 31.934,73.097 C 31.23,74.473 30.234,75.514 28.944,76.221 C 27.654,76.928 26.263,77.282 24.77,77.282 C 23.152,77.282 21.706,76.891 20.432,76.11 C 19.158,75.329 18.193,74.262 17.536,72.91 C 16.879,71.558 16.551,70.127 16.551,68.619 z M 18.895,68.648 C 18.895,70.718 19.452,72.349 20.566,73.541 C 21.68,74.733 23.078,75.328 24.758,75.328 C 26.47,75.328 27.879,74.726 28.986,73.523 C 30.092,72.32 30.645,70.613 30.645,68.402 C 30.645,67.004 30.409,65.783 29.936,64.74 C 29.463,63.697 28.771,62.888 27.86,62.314 C 26.949,61.74 25.927,61.453 24.794,61.453 C 23.184,61.453 21.798,62.006 20.637,63.111 C 19.476,64.216 18.895,66.063 18.895,68.648 z"/></g><path id="polygon39" d="M 42.420475,71.414325 L 42.420475,69.800275 L 69.352975,69.800275 L 70.160475,70.606825 L 69.352975,71.414325 L 42.420475,71.414325 z"/><g id="g41" transform="matrix(0.95,0,0,0.95,9.015625,6.449525)"><path id="path43" d="M 97.35,116.685 L 97.35,99.497 L 99.631,99.497 L 99.631,106.56 L 108.522,106.56 L 108.522,99.497 L 110.803,99.497 L 110.803,116.685 L 108.522,116.685 L 108.522,108.591 L 99.631,108.591 L 99.631,116.685 L 97.35,116.685 z"/></g><path id="polygon45" d="M 99.372975,107.51433 L 99.372975,109.12933 L 70.967975,109.12933 L 70.160475,108.32183 L 70.967975,107.51433 L 99.372975,107.51433 z"/><g id="g47" transform="matrix(0.95,0,0,0.95,9.015625,6.449525)"><path id="path49" d="M 0,116.685 L 0,99.497 L 2.281,99.497 L 2.281,106.56 L 11.172,106.56 L 11.172,99.497 L 13.453,99.497 L 13.453,116.685 L 11.172,116.685 L 11.172,108.591 L 2.281,108.591 L 2.281,116.685 L 0,116.685 z"/><path id="path51" d="M 16.551,108.319 C 16.551,105.467 17.317,103.234 18.849,101.62 C 20.381,100.007 22.359,99.2 24.782,99.2 C 26.369,99.2 27.799,99.579 29.073,100.337 C 30.347,101.095 31.318,102.152 31.987,103.508 C 32.655,104.864 32.989,106.402 32.989,108.12 C 32.989,109.862 32.637,111.422 31.934,112.797 C 31.23,114.173 30.234,115.214 28.944,115.921 C 27.654,116.628 26.263,116.982 24.77,116.982 C 23.152,116.982 21.706,116.591 20.432,115.81 C 19.158,115.029 18.193,113.962 17.536,112.61 C 16.879,111.258 16.551,109.827 16.551,108.319 z M 18.895,108.349 C 18.895,110.419 19.452,112.05 20.566,113.242 C 21.68,114.434 23.078,115.029 24.758,115.029 C 26.47,115.029 27.879,114.427 28.986,113.224 C 30.092,112.021 30.645,110.314 30.645,108.103 C 30.645,106.705 30.409,105.484 29.936,104.441 C 29.463,103.398 28.771,102.589 27.86,102.015 C 26.949,101.441 25.927,101.154 24.794,101.154 C 23.184,101.154 21.798,101.707 20.637,102.812 C 19.476,103.917 18.895,105.763 18.895,108.349 z"/></g><path id="polygon53" d="M 42.420475,109.12933 L 42.420475,107.51433 L 69.352975,107.51433 L 70.160475,108.32183 L 69.352975,109.12933 L 42.420475,109.12933 z"/><g id="g55" transform="matrix(0.95,0,0,0.95,9.015625,6.449525)"><path id="path57" d="M 95.819,147.969 C 95.819,145.117 96.585,142.884 98.117,141.27 C 99.649,139.657 101.627,138.85 104.05,138.85 C 105.637,138.85 107.067,139.229 108.341,139.987 C 109.615,140.745 110.586,141.802 111.255,143.158 C 111.923,144.514 112.257,146.052 112.257,147.77 C 112.257,149.512 111.905,151.072 111.202,152.447 C 110.498,153.823 109.502,154.864 108.212,155.571 C 106.922,156.278 105.531,156.632 104.038,156.632 C 102.42,156.632 100.974,156.241 99.7,155.46 C 98.426,154.679 97.461,153.612 96.804,152.26 C 96.147,150.907 95.819,149.477 95.819,147.969 z M 98.163,147.998 C 98.163,150.068 98.72,151.699 99.834,152.891 C 100.948,154.083 102.346,154.678 104.026,154.678 C 105.738,154.678 107.147,154.076 108.254,152.873 C 109.36,151.67 109.913,149.963 109.913,147.752 C 109.913,146.354 109.677,145.133 109.204,144.09 C 108.731,143.047 108.039,142.238 107.128,141.664 C 106.217,141.09 105.195,140.803 104.062,140.803 C 102.452,140.803 101.066,141.356 99.905,142.461 C 98.744,143.566 98.163,145.412 98.163,147.998 z"/><path id="path59" d="M 115.268,156.334 L 115.268,139.146 L 117.549,139.146 L 117.549,146.209 L 126.44,146.209 L 126.44,139.146 L 128.721,139.146 L 128.721,156.334 L 126.44,156.334 L 126.44,148.24 L 117.549,148.24 L 117.549,156.334 L 115.268,156.334 z"/></g><path id="polygon61" d="M 97.852975,145.18183 L 97.852975,146.79683 L 70.967975,146.79683 L 70.160475,145.98933 L 70.967975,145.18183 L 97.852975,145.18183 z"/><g id="g63" transform="matrix(0.95,0,0,0.95,9.015625,6.449525)"><path id="path65" d="M 18,156.334 L 18,139.146 L 20.281,139.146 L 20.281,146.209 L 29.172,146.209 L 29.172,139.146 L 31.453,139.146 L 31.453,156.334 L 29.172,156.334 L 29.172,148.24 L 20.281,148.24 L 20.281,156.334 L 18,156.334 z"/></g><path id="polygon67" d="M 40.995475,146.79683 L 40.995475,145.18183 L 69.352975,145.18183 L 70.160475,145.98933 L 69.352975,146.79683 L 40.995475,146.79683 z"/><g id="g69" transform="matrix(0.95,0,0,0.95,9.015625,6.449525)"><path id="path71" d="M 21.819,9.119 C 21.819,6.267 22.585,4.034 24.117,2.42 C 25.649,0.807 27.626,0 30.049,0 C 31.636,0 33.066,0.379 34.34,1.137 C 35.614,1.895 36.585,2.952 37.254,4.308 C 37.922,5.664 38.256,7.202 38.256,8.92 C 38.256,10.662 37.904,12.222 37.201,13.597 C 36.497,14.973 35.501,16.014 34.211,16.721 C 32.921,17.428 31.53,17.782 30.037,17.782 C 28.419,17.782 26.973,17.391 25.699,16.61 C 24.425,15.829 23.46,14.762 22.803,13.41 C 22.147,12.058 21.819,10.627 21.819,9.119 z M 24.163,9.148 C 24.163,11.218 24.72,12.849 25.834,14.041 C 26.948,15.233 28.346,15.828 30.026,15.828 C 31.738,15.828 33.147,15.226 34.254,14.023 C 35.36,12.82 35.913,11.113 35.913,8.902 C 35.913,7.504 35.677,6.283 35.204,5.24 C 34.731,4.197 34.039,3.388 33.128,2.814 C 32.217,2.24 31.195,1.953 30.062,1.953 C 28.452,1.953 27.066,2.506 25.905,3.611 C 24.744,4.716 24.163,6.563 24.163,9.148 z"/></g><path id="polygon73" d="M 44.937975,22.537775 L 45.745475,21.159325 L 70.587975,35.456825 L 69.780475,36.881825 L 44.937975,22.537775 z"/><path id="polygon75" d="M 47.740475,17.644325 L 48.547975,16.266825 L 73.390475,30.564325 L 72.582975,31.989325 L 47.740475,17.644325 z"/><g id="g77" transform="matrix(0.95,0,0,0.95,9.015625,6.449525)"><path id="path79" d="M 92.05,17.484 L 92.05,0.297 L 94.331,0.297 L 94.331,7.36 L 103.222,7.36 L 103.222,0.297 L 105.503,0.297 L 105.503,17.485 L 103.222,17.485 L 103.222,9.391 L 94.331,9.391 L 94.331,17.485 L 92.05,17.485 L 92.05,17.484 z"/></g><path id="polygon81" d="M 92.722975,18.975275 L 93.530475,20.351825 L 70.967975,33.366825 L 69.352975,32.464325 L 92.722975,18.975275 z"/><path id="polygon83" d="M 287.56797,69.800275 L 286.76047,70.606825 L 285.95297,69.800275 L 285.95297,32.464325 L 287.56797,33.366825 L 287.56797,69.800275 z"/><path id="polygon85" d="M 287.56797,107.51433 L 286.76047,108.32183 L 285.95297,107.51433 L 285.95297,71.414325 L 286.76047,70.606825 L 287.56797,71.414325 L 287.56797,107.51433 z"/><path id="polygon87" d="M 287.56797,145.18183 L 286.76047,145.98933 L 285.95297,145.18183 L 285.95297,109.12933 L 286.76047,108.32183 L 287.56797,109.12933 L 287.56797,145.18183 z"/><g id="g89" transform="matrix(0.95,0,0,0.95,9.015625,6.449525)"><path id="path91" d="M 297.856,190.007 L 300.137,190.581 C 299.661,192.451 298.804,193.877 297.568,194.858 C 296.331,195.84 294.818,196.331 293.031,196.331 C 291.181,196.331 289.677,195.954 288.518,195.199 C 287.359,194.444 286.477,193.352 285.872,191.921 C 285.267,190.49 284.965,188.954 284.965,187.312 C 284.965,185.521 285.306,183.959 285.989,182.626 C 286.671,181.292 287.642,180.28 288.903,179.588 C 290.163,178.896 291.549,178.55 293.063,178.55 C 294.78,178.55 296.223,178.988 297.393,179.864 C 298.564,180.741 299.379,181.973 299.839,183.561 L 297.605,184.088 C 297.208,182.838 296.629,181.928 295.874,181.358 C 295.117,180.788 294.165,180.503 293.019,180.503 C 291.701,180.503 290.599,180.819 289.713,181.452 C 288.827,182.085 288.206,182.934 287.847,184.001 C 287.488,185.068 287.309,186.167 287.309,187.3 C 287.309,188.761 287.521,190.036 287.947,191.126 C 288.371,192.216 289.032,193.03 289.928,193.569 C 290.824,194.108 291.795,194.378 292.839,194.378 C 294.11,194.378 295.186,194.011 296.067,193.276 C 296.948,192.541 297.545,191.452 297.856,190.007 z"/><path id="path93" d="M 303.032,196.034 L 303.032,178.846 L 305.313,178.846 L 305.313,185.909 L 314.204,185.909 L 314.204,178.846 L 316.485,178.846 L 316.485,196.034 L 314.204,196.034 L 314.204,187.94 L 305.313,187.94 L 305.313,196.034 L 303.032,196.034 z"/></g><g id="g95" transform="matrix(0.95,0,0,0.95,9.015625,6.449525)"><path id="path97" d="M 326.395,199.019 L 326.395,200.535 L 317.864,200.535 C 317.852,200.154 317.915,199.788 318.05,199.435 C 318.269,198.855 318.618,198.285 319.099,197.723 C 319.58,197.161 320.269,196.512 321.169,195.775 C 322.564,194.623 323.511,193.712 324.009,193.042 C 324.507,192.372 324.755,191.738 324.755,191.139 C 324.755,190.513 324.53,189.985 324.08,189.555 C 323.63,189.125 323.044,188.91 322.319,188.91 C 321.553,188.91 320.942,189.139 320.483,189.598 C 320.024,190.056 319.792,190.692 319.786,191.503 L 318.161,191.331 C 318.272,190.116 318.692,189.189 319.421,188.552 C 320.15,187.915 321.128,187.597 322.355,187.597 C 323.594,187.597 324.576,187.94 325.297,188.626 C 326.019,189.312 326.38,190.161 326.38,191.176 C 326.38,191.693 326.275,192.199 326.064,192.697 C 325.852,193.195 325.501,193.719 325.011,194.271 C 324.519,194.822 323.706,195.579 322.57,196.54 C 321.62,197.337 321.009,197.878 320.738,198.161 C 320.467,198.446 320.242,198.731 320.064,199.018 L 326.395,199.018 L 326.395,199.019 z"/></g><g id="g99" transform="matrix(0.95,0,0,0.95,9.015625,6.449525)"><path id="path101" d="M 327.723,187.669 C 327.723,184.817 328.489,182.584 330.021,180.97 C 331.553,179.357 333.531,178.55 335.954,178.55 C 337.541,178.55 338.972,178.929 340.245,179.687 C 341.518,180.445 342.49,181.502 343.159,182.858 C 343.827,184.214 344.161,185.752 344.161,187.47 C 344.161,189.212 343.809,190.772 343.106,192.147 C 342.402,193.523 341.405,194.564 340.116,195.271 C 338.826,195.978 337.434,196.332 335.942,196.332 C 334.324,196.332 332.878,195.941 331.604,195.16 C 330.33,194.379 329.365,193.312 328.708,191.96 C 328.051,190.607 327.723,189.177 327.723,187.669 z M 330.066,187.698 C 330.066,189.768 330.623,191.399 331.737,192.591 C 332.851,193.783 334.249,194.378 335.929,194.378 C 337.641,194.378 339.05,193.776 340.157,192.573 C 341.264,191.37 341.816,189.663 341.816,187.452 C 341.816,186.054 341.58,184.833 341.107,183.79 C 340.633,182.747 339.941,181.938 339.031,181.364 C 338.121,180.79 337.098,180.503 335.965,180.503 C 334.355,180.503 332.969,181.056 331.808,182.161 C 330.647,183.266 330.066,185.112 330.066,187.698 z"/><path id="path103" d="M 347.172,196.034 L 347.172,178.846 L 349.453,178.846 L 349.453,185.909 L 358.344,185.909 L 358.344,178.846 L 360.625,178.846 L 360.625,196.034 L 358.344,196.034 L 358.344,187.94 L 349.453,187.94 L 349.453,196.034 L 347.172,196.034 z"/></g><path id="polygon105" d="M 287.56797,173.91932 L 285.95297,173.91932 L 285.95297,146.79683 L 286.76047,145.98933 L 287.56797,146.79683 L 287.56797,173.91932 z"/><g id="g107" transform="matrix(0.95,0,0,0.95,9.015625,6.449525)"><path id="path109" d="M 323.818,68.619 C 323.818,65.767 324.584,63.534 326.117,61.92 C 327.648,60.307 329.627,59.5 332.049,59.5 C 333.637,59.5 335.067,59.879 336.34,60.637 C 337.614,61.395 338.586,62.452 339.254,63.808 C 339.922,65.164 340.256,66.702 340.256,68.42 C 340.256,70.162 339.904,71.722 339.201,73.097 C 338.498,74.473 337.501,75.514 336.211,76.221 C 334.922,76.928 333.53,77.282 332.037,77.282 C 330.42,77.282 328.973,76.891 327.699,76.11 C 326.425,75.329 325.461,74.262 324.803,72.91 C 324.146,71.558 323.818,70.127 323.818,68.619 z M 326.162,68.648 C 326.162,70.718 326.719,72.349 327.834,73.541 C 328.947,74.732 330.346,75.328 332.025,75.328 C 333.738,75.328 335.146,74.726 336.254,73.523 C 337.359,72.32 337.912,70.613 337.912,68.402 C 337.912,67.004 337.676,65.783 337.203,64.74 C 336.73,63.697 336.038,62.888 335.127,62.314 C 334.217,61.74 333.195,61.453 332.061,61.453 C 330.452,61.453 329.065,62.006 327.905,63.111 C 326.742,64.217 326.162,66.063 326.162,68.648 z"/><path id="path111" d="M 343.268,76.984 L 343.268,59.797 L 345.549,59.797 L 345.549,66.86 L 354.44,66.86 L 354.44,59.797 L 356.721,59.797 L 356.721,76.985 L 354.44,76.985 L 354.44,68.891 L 345.549,68.891 L 345.549,76.985 L 343.268,76.985 L 343.268,76.984 z"/></g><path id="polygon113" d="M 314.45297,69.800275 L 314.45297,71.414325 L 287.56797,71.414325 L 286.76047,70.606825 L 287.56797,69.800275 L 314.45297,69.800275 z"/><g id="g115" transform="matrix(0.95,0,0,0.95,9.015625,6.449525)"><path id="path117" d="M 246,76.984 L 246,59.797 L 248.281,59.797 L 248.281,66.86 L 257.172,66.86 L 257.172,59.797 L 259.453,59.797 L 259.453,76.985 L 257.172,76.985 L 257.172,68.891 L 248.281,68.891 L 248.281,76.985 L 246,76.985 L 246,76.984 z"/></g><path id="polygon119" d="M 257.59452,71.414325 L 257.59452,69.800275 L 285.95297,69.800275 L 286.76047,70.606825 L 285.95297,71.414325 L 257.59452,71.414325 z"/><g id="g121" transform="matrix(0.95,0,0,0.95,9.015625,6.449525)"><path id="path123" d="M 323.818,108.319 C 323.818,105.467 324.584,103.234 326.117,101.62 C 327.648,100.007 329.627,99.2 332.049,99.2 C 333.637,99.2 335.067,99.579 336.34,100.337 C 337.614,101.095 338.586,102.152 339.254,103.508 C 339.922,104.864 340.256,106.402 340.256,108.12 C 340.256,109.862 339.904,111.422 339.201,112.797 C 338.498,114.173 337.501,115.214 336.211,115.921 C 334.922,116.628 333.53,116.982 332.037,116.982 C 330.42,116.982 328.973,116.591 327.699,115.81 C 326.425,115.029 325.461,113.962 324.803,112.61 C 324.146,111.258 323.818,109.827 323.818,108.319 z M 326.162,108.349 C 326.162,110.419 326.719,112.05 327.834,113.242 C 328.947,114.433 330.346,115.029 332.025,115.029 C 333.738,115.029 335.146,114.427 336.254,113.224 C 337.359,112.021 337.912,110.314 337.912,108.103 C 337.912,106.705 337.676,105.484 337.203,104.441 C 336.73,103.398 336.038,102.589 335.127,102.015 C 334.217,101.441 333.195,101.154 332.061,101.154 C 330.452,101.154 329.065,101.707 327.905,102.812 C 326.742,103.917 326.162,105.763 326.162,108.349 z"/><path id="path125" d="M 343.268,116.685 L 343.268,99.497 L 345.549,99.497 L 345.549,106.56 L 354.44,106.56 L 354.44,99.497 L 356.721,99.497 L 356.721,116.685 L 354.44,116.685 L 354.44,108.591 L 345.549,108.591 L 345.549,116.685 L 343.268,116.685 z"/></g><path id="polygon127" d="M 314.45297,107.51433 L 314.45297,109.12933 L 287.56797,109.12933 L 286.76047,108.32183 L 287.56797,107.51433 L 314.45297,107.51433 z"/><g id="g129" transform="matrix(0.95,0,0,0.95,9.015625,6.449525)"><path id="path131" d="M 246,116.685 L 246,99.497 L 248.281,99.497 L 248.281,106.56 L 257.172,106.56 L 257.172,99.497 L 259.453,99.497 L 259.453,116.685 L 257.172,116.685 L 257.172,108.591 L 248.281,108.591 L 248.281,116.685 L 246,116.685 z"/></g><path id="polygon133" d="M 257.59452,109.12933 L 257.59452,107.51433 L 285.95297,107.51433 L 286.76047,108.32183 L 285.95297,109.12933 L 257.59452,109.12933 z"/><g id="g135" transform="matrix(0.95,0,0,0.95,9.015625,6.449525)"><path id="path137" d="M 325.35,156.334 L 325.35,139.146 L 327.631,139.146 L 327.631,146.209 L 336.522,146.209 L 336.522,139.146 L 338.803,139.146 L 338.803,156.334 L 336.522,156.334 L 336.522,148.24 L 327.631,148.24 L 327.631,156.334 L 325.35,156.334 z"/></g><path id="polygon139" d="M 315.97297,145.18183 L 315.97297,146.79683 L 287.56797,146.79683 L 286.76047,145.98933 L 287.56797,145.18183 L 315.97297,145.18183 z"/><g id="g141" transform="matrix(0.95,0,0,0.95,9.015625,6.449525)"><path id="path143" d="M 228,156.334 L 228,139.146 L 230.281,139.146 L 230.281,146.209 L 239.172,146.209 L 239.172,139.146 L 241.453,139.146 L 241.453,156.334 L 239.172,156.334 L 239.172,148.24 L 230.281,148.24 L 230.281,156.334 L 228,156.334 z"/><path id="path145" d="M 244.551,147.969 C 244.551,145.117 245.317,142.884 246.849,141.27 C 248.381,139.657 250.359,138.85 252.782,138.85 C 254.369,138.85 255.8,139.229 257.073,139.987 C 258.346,140.745 259.318,141.802 259.987,143.158 C 260.655,144.514 260.989,146.052 260.989,147.77 C 260.989,149.512 260.637,151.072 259.934,152.447 C 259.23,153.823 258.233,154.864 256.944,155.571 C 255.654,156.278 254.262,156.632 252.77,156.632 C 251.152,156.632 249.706,156.241 248.432,155.46 C 247.158,154.679 246.193,153.612 245.536,152.26 C 244.879,150.907 244.551,149.477 244.551,147.969 z M 246.895,147.998 C 246.895,150.068 247.452,151.699 248.566,152.891 C 249.68,154.083 251.078,154.678 252.758,154.678 C 254.47,154.678 255.879,154.076 256.986,152.873 C 258.093,151.67 258.645,149.963 258.645,147.752 C 258.645,146.354 258.409,145.133 257.936,144.09 C 257.462,143.047 256.77,142.238 255.86,141.664 C 254.95,141.09 253.927,140.803 252.794,140.803 C 251.184,140.803 249.798,141.356 248.637,142.461 C 247.476,143.566 246.895,145.412 246.895,147.998 z"/></g><path id="polygon147" d="M 259.01952,146.79683 L 259.01952,145.18183 L 285.95297,145.18183 L 286.76047,145.98933 L 285.95297,146.79683 L 259.01952,146.79683 z"/><g id="g149" transform="matrix(0.95,0,0,0.95,9.015625,6.449525)"><path id="path151" d="M 249.818,9.119 C 249.818,6.267 250.584,4.034 252.117,2.42 C 253.648,0.807 255.627,0 258.049,0 C 259.637,0 261.067,0.379 262.34,1.137 C 263.614,1.895 264.586,2.952 265.254,4.308 C 265.922,5.664 266.256,7.202 266.256,8.92 C 266.256,10.662 265.904,12.222 265.201,13.597 C 264.498,14.973 263.501,16.014 262.211,16.721 C 260.922,17.428 259.53,17.782 258.037,17.782 C 256.42,17.782 254.973,17.391 253.699,16.61 C 252.425,15.829 251.461,14.762 250.803,13.41 C 250.146,12.058 249.818,10.627 249.818,9.119 z M 252.162,9.148 C 252.162,11.218 252.719,12.849 253.834,14.041 C 254.947,15.232 256.346,15.828 258.025,15.828 C 259.738,15.828 261.146,15.226 262.254,14.023 C 263.359,12.82 263.912,11.113 263.912,8.902 C 263.912,7.504 263.676,6.283 263.203,5.24 C 262.73,4.197 262.038,3.388 261.127,2.814 C 260.217,2.24 259.195,1.953 258.061,1.953 C 256.452,1.953 255.065,2.506 253.905,3.611 C 252.742,4.717 252.162,6.563 252.162,9.148 z"/></g><path id="polygon153" d="M 261.53797,22.537775 L 262.34452,21.159325 L 287.18797,35.456825 L 286.38047,36.881825 L 261.53797,22.537775 z"/><path id="polygon155" d="M 264.34047,17.644325 L 265.14797,16.266825 L 289.99047,30.564325 L 289.18202,31.989325 L 264.34047,17.644325 z"/><g id="g157" transform="matrix(0.95,0,0,0.95,9.015625,6.449525)"><path id="path159" d="M 320.051,17.484 L 320.051,0.297 L 322.332,0.297 L 322.332,7.36 L 331.223,7.36 L 331.223,0.297 L 333.504,0.297 L 333.504,17.485 L 331.223,17.485 L 331.223,9.391 L 322.332,9.391 L 322.332,17.485 L 320.051,17.485 L 320.051,17.484 z"/></g><path id="polygon161" d="M 309.32297,18.975275 L 310.13047,20.351825 L 287.56797,33.366825 L 285.95297,32.464325 L 309.32297,18.975275 z"/><g id="g163" transform="matrix(0.95,0,0,0.95,9.015625,6.449525)"><path id="path165" d="M 14.822,252.935 L 14.822,235.747 L 20.733,235.747 C 22.068,235.747 23.086,235.829 23.789,235.993 C 24.772,236.22 25.611,236.63 26.306,237.224 C 27.211,237.99 27.888,238.969 28.337,240.161 C 28.785,241.353 29.01,242.716 29.01,244.247 C 29.01,245.552 28.858,246.709 28.553,247.718 C 28.249,248.726 27.858,249.56 27.383,250.221 C 26.906,250.881 26.386,251.402 25.82,251.781 C 25.254,252.16 24.571,252.447 23.772,252.642 C 22.973,252.837 22.053,252.935 21.015,252.935 L 14.822,252.935 L 14.822,252.935 z M 17.104,250.903 L 20.763,250.903 C 21.893,250.903 22.779,250.798 23.422,250.587 C 24.065,250.376 24.577,250.079 24.959,249.696 C 25.497,249.157 25.916,248.432 26.216,247.522 C 26.516,246.612 26.666,245.508 26.666,244.211 C 26.666,242.414 26.372,241.033 25.783,240.068 C 25.195,239.103 24.48,238.457 23.638,238.129 C 23.03,237.895 22.052,237.777 20.704,237.777 L 17.103,237.777 L 17.103,250.903 L 17.104,250.903 z"/><path id="path167" d="M 31.045,247.778 L 31.045,245.653 L 37.545,245.653 L 37.545,247.778 L 31.045,247.778 z"/><path id="path169" d="M 40.053,252.935 L 40.053,235.747 L 42.334,235.747 L 42.334,250.903 L 50.772,250.903 L 50.772,252.934 L 40.053,252.934 L 40.053,252.935 z"/><path id="path171" d="M 53.119,257.724 L 52.885,255.747 C 53.346,255.872 53.749,255.935 54.093,255.935 C 54.563,255.935 54.938,255.857 55.219,255.701 C 55.501,255.545 55.732,255.326 55.911,255.045 C 56.044,254.833 56.259,254.31 56.557,253.474 C 56.596,253.357 56.659,253.184 56.745,252.957 L 52.011,240.482 L 54.266,240.482 L 56.867,247.679 C 57.205,248.592 57.507,249.552 57.773,250.558 C 58.023,249.603 58.316,248.663 58.653,247.743 L 61.308,240.482 L 63.417,240.482 L 58.7,253.152 C 58.191,254.517 57.795,255.456 57.514,255.97 C 57.138,256.664 56.707,257.173 56.222,257.496 C 55.736,257.819 55.157,257.981 54.483,257.981 C 54.074,257.981 53.62,257.896 53.119,257.724 z"/><path id="path173" d="M 63.807,252.935 L 68.369,246.489 L 64.151,240.482 L 66.756,240.482 L 68.703,243.404 C 69.064,243.957 69.354,244.418 69.574,244.786 C 69.924,244.291 70.241,243.842 70.526,243.44 L 72.619,240.482 L 75.18,240.482 L 70.947,246.477 L 75.463,252.935 L 72.896,252.935 L 70.314,249.068 L 69.718,248.137 L 66.387,252.935 L 63.807,252.935 z"/><path id="path175" d="M 76.432,246.708 C 76.432,244.401 77.073,242.694 78.353,241.584 C 79.423,240.661 80.728,240.2 82.266,240.2 C 83.976,240.2 85.374,240.761 86.46,241.883 C 87.546,243.005 88.088,244.555 88.088,246.532 C 88.088,248.135 87.848,249.395 87.367,250.313 C 86.887,251.232 86.188,251.945 85.27,252.454 C 84.352,252.962 83.351,253.216 82.265,253.216 C 80.523,253.216 79.116,252.657 78.042,251.539 C 76.968,250.421 76.432,248.812 76.432,246.708 z M 78.604,246.71 C 78.604,248.305 78.951,249.498 79.645,250.292 C 80.339,251.085 81.213,251.481 82.266,251.481 C 83.311,251.481 84.181,251.083 84.875,250.286 C 85.569,249.488 85.916,248.273 85.916,246.64 C 85.916,245.101 85.567,243.934 84.869,243.14 C 84.171,242.347 83.303,241.951 82.265,241.951 C 81.212,241.951 80.338,242.346 79.644,243.135 C 78.95,243.924 78.604,245.116 78.604,246.71 z"/><path id="path177" d="M 89.717,249.216 L 91.811,248.888 C 91.928,249.726 92.254,250.367 92.789,250.813 C 93.324,251.259 94.072,251.482 95.032,251.482 C 96,251.482 96.719,251.285 97.187,250.89 C 97.655,250.494 97.89,250.031 97.89,249.499 C 97.89,249.022 97.684,248.646 97.272,248.373 C 96.984,248.185 96.267,247.946 95.12,247.657 C 93.576,247.266 92.503,246.928 91.905,246.643 C 91.305,246.358 90.851,245.962 90.542,245.458 C 90.233,244.954 90.078,244.396 90.078,243.787 C 90.078,243.232 90.205,242.719 90.459,242.245 C 90.713,241.772 91.059,241.38 91.496,241.066 C 91.824,240.824 92.271,240.619 92.838,240.451 C 93.405,240.283 94.012,240.199 94.66,240.199 C 95.637,240.199 96.494,240.34 97.232,240.622 C 97.97,240.904 98.515,241.286 98.867,241.768 C 99.219,242.25 99.461,242.893 99.594,243.7 L 97.531,243.981 C 97.437,243.338 97.166,242.836 96.718,242.475 C 96.27,242.115 95.636,241.934 94.817,241.934 C 93.85,241.934 93.159,242.094 92.746,242.414 C 92.332,242.735 92.126,243.11 92.126,243.541 C 92.126,243.814 92.212,244.061 92.384,244.279 C 92.555,244.507 92.824,244.694 93.191,244.842 C 93.401,244.92 94.022,245.101 95.052,245.382 C 96.541,245.78 97.581,246.107 98.171,246.361 C 98.761,246.615 99.224,246.985 99.56,247.469 C 99.896,247.953 100.064,248.556 100.064,249.275 C 100.064,249.978 99.859,250.641 99.448,251.262 C 99.037,251.884 98.445,252.365 97.671,252.704 C 96.897,253.043 96.022,253.214 95.044,253.214 C 93.426,253.214 92.192,252.878 91.344,252.205 C 90.493,251.534 89.951,250.538 89.717,249.216 z"/><path id="path179" d="M 111.068,248.919 L 113.256,249.2 C 112.912,250.472 112.276,251.46 111.346,252.162 C 110.416,252.864 109.229,253.216 107.785,253.216 C 105.965,253.216 104.522,252.655 103.456,251.533 C 102.391,250.411 101.857,248.839 101.857,246.813 C 101.857,244.718 102.396,243.092 103.473,241.935 C 104.551,240.778 105.949,240.2 107.667,240.2 C 109.33,240.2 110.689,240.766 111.744,241.9 C 112.799,243.034 113.326,244.629 113.326,246.684 C 113.326,246.809 113.322,246.997 113.314,247.247 L 104.029,247.247 C 104.107,248.616 104.494,249.663 105.188,250.391 C 105.883,251.119 106.75,251.482 107.789,251.482 C 108.561,251.482 109.222,251.279 109.768,250.871 C 110.314,250.463 110.748,249.813 111.068,248.919 z M 104.154,245.513 L 111.092,245.513 C 110.998,244.465 110.733,243.679 110.297,243.155 C 109.626,242.342 108.756,241.935 107.688,241.935 C 106.721,241.935 105.908,242.259 105.249,242.909 C 104.59,243.559 104.225,244.426 104.154,245.513 z"/></g><g id="g181" transform="matrix(0.95,0,0,0.95,9.015625,6.449525)"><path id="path183" d="M 244.729,252.935 L 244.729,235.747 L 247.01,235.747 L 247.01,250.903 L 255.448,250.903 L 255.448,252.934 L 244.729,252.934 L 244.729,252.935 z"/><path id="path185" d="M 257.061,247.778 L 257.061,245.653 L 263.561,245.653 L 263.561,247.778 L 257.061,247.778 z"/><path id="path187" d="M 266.068,252.935 L 266.068,235.747 L 268.349,235.747 L 268.349,250.903 L 276.787,250.903 L 276.787,252.934 L 266.068,252.934 L 266.068,252.935 z"/><path id="path189" d="M 279.135,257.724 L 278.901,255.747 C 279.362,255.872 279.765,255.935 280.109,255.935 C 280.579,255.935 280.954,255.857 281.235,255.701 C 281.516,255.545 281.748,255.326 281.927,255.045 C 282.06,254.833 282.275,254.31 282.573,253.474 C 282.612,253.357 282.675,253.184 282.761,252.957 L 278.027,240.482 L 280.282,240.482 L 282.883,247.679 C 283.221,248.592 283.523,249.552 283.789,250.558 C 284.039,249.603 284.332,248.663 284.669,247.743 L 287.324,240.482 L 289.433,240.482 L 284.716,253.152 C 284.206,254.517 283.811,255.456 283.529,255.97 C 283.153,256.664 282.721,257.173 282.237,257.496 C 281.751,257.819 281.172,257.981 280.498,257.981 C 280.09,257.981 279.636,257.896 279.135,257.724 z"/><path id="path191" d="M 289.822,252.935 L 294.385,246.489 L 290.166,240.482 L 292.771,240.482 L 294.718,243.404 C 295.079,243.957 295.369,244.418 295.589,244.786 C 295.939,244.291 296.256,243.842 296.541,243.44 L 298.634,240.482 L 301.195,240.482 L 296.963,246.477 L 301.479,252.935 L 298.913,252.935 L 296.331,249.068 L 295.734,248.137 L 292.403,252.935 L 289.822,252.935 z"/><path id="path193" d="M 302.447,246.708 C 302.447,244.401 303.088,242.694 304.368,241.584 C 305.438,240.661 306.742,240.2 308.281,240.2 C 309.991,240.2 311.389,240.761 312.474,241.883 C 313.56,243.005 314.103,244.555 314.103,246.532 C 314.103,248.135 313.863,249.395 313.382,250.313 C 312.902,251.232 312.202,251.945 311.285,252.454 C 310.367,252.962 309.366,253.216 308.28,253.216 C 306.538,253.216 305.131,252.657 304.057,251.539 C 302.984,250.421 302.447,248.812 302.447,246.708 z M 304.619,246.71 C 304.619,248.305 304.966,249.498 305.66,250.292 C 306.354,251.085 307.228,251.481 308.281,251.481 C 309.326,251.481 310.196,251.083 310.89,250.286 C 311.583,249.488 311.931,248.273 311.931,246.64 C 311.931,245.101 311.581,243.934 310.884,243.14 C 310.186,242.347 309.318,241.951 308.28,241.951 C 307.227,241.951 306.353,242.346 305.659,243.135 C 304.966,243.924 304.619,245.116 304.619,246.71 z"/><path id="path195" d="M 315.732,249.216 L 317.826,248.888 C 317.943,249.726 318.269,250.367 318.804,250.813 C 319.339,251.259 320.086,251.482 321.047,251.482 C 322.015,251.482 322.734,251.285 323.201,250.89 C 323.67,250.494 323.904,250.031 323.904,249.499 C 323.904,249.022 323.698,248.646 323.286,248.373 C 322.998,248.185 322.281,247.946 321.135,247.657 C 319.59,247.266 318.518,246.928 317.919,246.643 C 317.319,246.358 316.865,245.962 316.556,245.458 C 316.247,244.954 316.092,244.396 316.092,243.787 C 316.092,243.232 316.219,242.719 316.473,242.245 C 316.727,241.772 317.073,241.38 317.51,241.066 C 317.838,240.824 318.285,240.619 318.852,240.451 C 319.419,240.283 320.026,240.199 320.674,240.199 C 321.651,240.199 322.508,240.34 323.246,240.622 C 323.984,240.904 324.529,241.286 324.881,241.768 C 325.233,242.25 325.475,242.893 325.608,243.7 L 323.545,243.981 C 323.451,243.338 323.18,242.836 322.732,242.475 C 322.284,242.115 321.65,241.934 320.831,241.934 C 319.864,241.934 319.173,242.094 318.76,242.414 C 318.347,242.735 318.14,243.11 318.14,243.541 C 318.14,243.814 318.226,244.061 318.398,244.279 C 318.569,244.507 318.838,244.694 319.205,244.842 C 319.416,244.92 320.036,245.101 321.066,245.382 C 322.555,245.78 323.595,246.107 324.185,246.361 C 324.775,246.615 325.238,246.985 325.574,247.469 C 325.91,247.953 326.078,248.556 326.078,249.275 C 326.078,249.978 325.873,250.641 325.463,251.262 C 325.052,251.884 324.459,252.365 323.686,252.704 C 322.913,253.043 322.037,253.214 321.059,253.214 C 319.441,253.214 318.207,252.878 317.359,252.205 C 316.511,251.532 315.967,250.538 315.732,249.216 z"/><path id="path197" d="M 337.084,248.919 L 339.272,249.2 C 338.928,250.472 338.292,251.46 337.362,252.162 C 336.433,252.864 335.246,253.216 333.801,253.216 C 331.981,253.216 330.538,252.655 329.472,251.533 C 328.407,250.411 327.873,248.839 327.873,246.813 C 327.873,244.718 328.412,243.092 329.489,241.935 C 330.567,240.778 331.965,240.2 333.683,240.2 C 335.346,240.2 336.705,240.766 337.759,241.9 C 338.814,243.034 339.341,244.629 339.341,246.684 C 339.341,246.809 339.337,246.997 339.329,247.247 L 330.044,247.247 C 330.122,248.616 330.509,249.663 331.203,250.391 C 331.898,251.119 332.765,251.482 333.804,251.482 C 334.576,251.482 335.237,251.279 335.783,250.871 C 336.33,250.463 336.764,249.813 337.084,248.919 z M 330.17,245.513 L 337.108,245.513 C 337.014,244.465 336.749,243.679 336.313,243.155 C 335.641,242.342 334.772,241.935 333.704,241.935 C 332.737,241.935 331.924,242.259 331.265,242.909 C 330.606,243.559 330.24,244.426 330.17,245.513 z"/></g></svg>