<svg xml:space="preserve" style="overflow:visible" viewBox="0 0 345.2 253.2"><path d="m55.9 69.7-.8.8-.8-.8V32.3l1.6 1zm0 37.7-.8.8-.8-.8V71.3l.8-.8.8.8z"/><path d="m55.9 145-.8.9-.8-.8v-36l.8-.9.8.8zm4.4 41.8 2.2.6a7 7 0 0 1-2.5 4 7 7 0 0 1-4.3 1.4q-2.6 0-4.3-1-1.6-1.1-2.5-3.1a11 11 0 0 1 .1-8.9 7 7 0 0 1 2.8-2.9 8 8 0 0 1 4-1q2.5 0 4 1.3 1.8 1.2 2.4 3.5l-2.1.5a5 5 0 0 0-1.7-2.6q-1-.8-2.7-.8-2 0-3.1 1-1.3.8-1.8 2.3t-.5 3.2q0 2.1.6 3.6t1.9 2.3 2.7.8q1.9 0 3.1-1 1.2-1.2 1.7-3.2m4.9 5.8v-16.4h2.2v6.7h8.4v-6.7H78v16.4h-2.2v-7.7h-8.4v7.7zm22.2 2.8v1.4h-8.1l.2-1q.3-.9 1-1.6.6-.9 2-1.9 2-1.6 2.6-2.6a3 3 0 0 0 .7-1.8 2 2 0 0 0-.6-1.5q-.6-.6-1.7-.6-1 0-1.7.6t-.7 1.9l-1.5-.2q0-1.7 1.2-2.6a4 4 0 0 1 2.8-1q1.6 0 2.8 1 1 1 1 2.4l-.3 1.5q-.3.7-1 1.5l-2.3 2.1-2.4 2.4zm1.3-10.8q0-4 2.1-6.3a7 7 0 0 1 5.7-2.3q2.3 0 4 1a7 7 0 0 1 2.8 3q1 2 1 4.4t-1 4.5a7 7 0 0 1-2.9 3 8 8 0 0 1-8-.2 7 7 0 0 1-2.8-3q-1-2-1-4m2.2 0q0 3 1.6 4.7t4 1.7 4-1.7a7 7 0 0 0 1.6-4.9q0-2-.7-3.5a5 5 0 0 0-4.9-3q-2.2 0-4 1.5-1.6 1.6-1.6 5.2m16.3 7.9v-16.4h2.2v6.7h8.5v-6.7h2.1v16.4h-2.1v-7.7h-8.5v7.7zm-51.2-18.8h-1.6v-27.1l.8-.8.8.8zM85 71.5q0-4 2.1-6.3a7 7 0 0 1 5.7-2.3q2.2 0 4 1a7 7 0 0 1 2.8 3q1 2 1 4.4t-1 4.5a7 7 0 0 1-2.9 3 8 8 0 0 1-8-.2 7 7 0 0 1-2.8-3q-1-2-1-4m2.2 0q0 3 1.6 4.7t4 1.7 4-1.7a7 7 0 0 0 1.5-4.9q0-2-.6-3.5a5 5 0 0 0-5-3q-2.2 0-3.9 1.5t-1.6 5.2m16.3 7.9V63h2.2v6.7h8.4V63h2.2v16.4H114v-7.7h-8.4v7.7zm-20.6-9.8v1.6h-27l-.7-.8.8-.8zM11 79.5V63h2.2v6.7h8.4V63h2.2v16.4h-2.2v-7.7h-8.4v7.7zm15-8.2v-1.6h28.3l.8.8-.8.8zm59 37.9q0-4 2.1-6.3a7 7 0 0 1 5.7-2.3q2.2 0 4 1a7 7 0 0 1 2.8 3q1 2 1 4.4 0 2.6-1 4.5a7 7 0 0 1-2.9 3 8 8 0 0 1-8-.2 7 7 0 0 1-2.8-3q-1-2-1-4m2.2 0q0 3 1.6 4.7t4 1.7 4-1.7a7 7 0 0 0 1.5-4.9q0-2-.6-3.5a5 5 0 0 0-5-3q-2.2 0-3.9 1.5t-1.6 5.3m16.3 7.8v-16.3h2.2v6.7h8.4v-6.7h2.2v16.3H114v-7.7h-8.4v7.7z"/><path d="M82.8 107.4v1.6h-27l-.7-.8.8-.8zM11 117.2v-16.3h2.2v6.7h8.4v-6.7h2.2v16.3h-2.2v-7.7h-8.4v7.7zm15-8.2v-1.6h28.3l.8.8-.8.8zm59 37.9q0-4 2.1-6.4a7 7 0 0 1 5.7-2.3q2.2 0 4 1.1a7 7 0 0 1 2.8 3q1 2 1 4.4t-1 4.5a7 7 0 0 1-2.9 3 8 8 0 0 1-8-.2 7 7 0 0 1-2.8-3q-1-2-1-4.1m2.2 0q0 3 1.6 4.7t4 1.7 4-1.7a7 7 0 0 0 1.5-5q0-1.9-.6-3.4a5 5 0 0 0-5-3.1q-2.2 0-3.9 1.6t-1.6 5.2m16.3 7.9v-16.3h2.2v6.7h8.4v-6.7h2.2v16.3H114v-7.6h-8.4v7.6zM82.8 145v1.7h-27l-.7-.8.8-.8zM11 154.8v-16.3h2.2v6.7h8.4v-6.7h2.2v16.3h-2.2v-7.6h-8.4v7.6zm15-8.1V145h28.3l.8.8-.8.8zM14.7 15q0-4 2.1-6.4a7 7 0 0 1 5.7-2.3q2.2 0 4 1.1a7 7 0 0 1 2.8 3q1 2 1 4.4t-1 4.4a7 7 0 0 1-2.9 3 8 8 0 0 1-8 0 7 7 0 0 1-2.8-3.1q-1-2-1-4.1m2.2 0q0 3 1.6 4.7 1.5 1.7 4 1.7t4-1.7a7 7 0 0 0 1.5-5q0-1.8-.6-3.4a5 5 0 0 0-5-3.1q-2.2 0-3.9 1.6Q17 11.3 17 15m12.9 7.4.8-1.4 24.8 14.3-.8 1.5zm2.8-4.9.8-1.4 24.8 14.3-.8 1.5zM81.4 23V6.5h2.1v6.7H92V6.6h2.2V23H92v-7.6h-8.5V23z"/><path d="m77.6 18.9.8 1.3-22.5 13-1.6-.9zm194.9 50.8-.8.8-.8-.8V32.3l1.6 1zm0 37.7-.8.8-.8-.8V71.3l.8-.8.8.8z"/><path d="m272.5 145-.8.9-.8-.8v-36l.8-.9.8.8zm4.4 41.8 2.2.6a7 7 0 0 1-2.5 4 7 7 0 0 1-4.3 1.4q-2.6 0-4.3-1-1.6-1.1-2.5-3.1a11 11 0 0 1 .1-8.9 7 7 0 0 1 2.8-2.9 8 8 0 0 1 4-1q2.5 0 4 1.3 1.8 1.2 2.4 3.5l-2.1.5a5 5 0 0 0-1.7-2.6q-1-.8-2.7-.8-2 0-3.1 1-1.3.8-1.8 2.3t-.5 3.2q0 2.1.6 3.6t1.9 2.3 2.7.8q1.9 0 3-1 1.4-1.2 1.8-3.2m4.9 5.8v-16.4h2.2v6.7h8.4v-6.7h2.2v16.4h-2.2v-7.7H284v7.7zm22.2 2.8v1.4h-8.1l.2-1q.3-.9 1-1.6.5-.9 2-1.9 2-1.6 2.6-2.6a3 3 0 0 0 .7-1.8 2 2 0 0 0-.6-1.5q-.6-.6-1.7-.6-1 0-1.7.6t-.7 1.9l-1.5-.2q0-1.7 1.2-2.6a4 4 0 0 1 2.8-1q1.6 0 2.8 1 1 1 1 2.4l-.3 1.5q-.3.7-1 1.5l-2.3 2.1-2.4 2.4zm1.3-10.8q0-4 2.1-6.3a7 7 0 0 1 5.7-2.3q2.3 0 4 1a7 7 0 0 1 2.8 3q1 2 1 4.4t-1 4.5a7 7 0 0 1-2.9 3 8 8 0 0 1-8-.2 7 7 0 0 1-2.8-3q-1-2-1-4m2.2 0q0 3 1.6 4.7 1.5 1.7 4 1.7 2.4 0 4-1.7a7 7 0 0 0 1.6-4.9q0-2-.7-3.5a5 5 0 0 0-4.9-3q-2.2 0-4 1.5-1.6 1.6-1.6 5.2m16.3 7.9v-16.4h2.2v6.7h8.5v-6.7h2.1v16.4h-2.1v-7.7h-8.5v7.7zm-51.2-18.8h-1.6v-27.1l.8-.8.8.8zM303 79.5V63h2.2v6.7h8.4V63h2.2v16.4h-2.2v-7.7h-8.4v7.7zm-2.1-9.8v1.6h-28.4l-.8-.8.8-.8zm-90.4 9.8V63h2.2v6.7h8.4V63h2.2v16.4h-2.2v-7.7h-8.4v7.7zm15.8-8q0-4 2.1-6.3a7 7 0 0 1 5.7-2.3q2.2 0 4 1a7 7 0 0 1 2.8 3q1 2 1 4.4t-1 4.5a7 7 0 0 1-2.9 3 8 8 0 0 1-8-.2 7 7 0 0 1-2.8-3q-1-2-1-4m2.2 0q0 3 1.6 4.7 1.5 1.7 4 1.7 2.4 0 4-1.7a7 7 0 0 0 1.5-4.9q0-2-.6-3.5a5 5 0 0 0-5-3q-2.2 0-3.9 1.5t-1.6 5.2m15.6-.3v-1.6h26.9l.8.8-.8.8zm59 45.9v-16.3h2.2v6.7h8.4v-6.7h2.2v16.3h-2.2v-7.7h-8.4v7.7z"/><path d="M300.9 107.4v1.6h-28.4l-.8-.8.8-.8zm-90.4 9.8v-16.3h2.2v6.7h8.4v-6.7h2.2v16.3h-2.2v-7.7h-8.4v7.7zm15.8-8q0-4 2.1-6.3a7 7 0 0 1 5.7-2.3q2.2 0 4 1a7 7 0 0 1 2.8 3q1 2 1 4.4 0 2.6-1 4.5a7 7 0 0 1-2.9 3 8 8 0 0 1-8-.2 7 7 0 0 1-2.8-3q-1-2-1-4m2.2 0q0 3 1.6 4.7 1.5 1.7 4 1.7 2.4 0 4-1.7a7 7 0 0 0 1.5-4.9q0-2-.6-3.5a5 5 0 0 0-5-3q-2.2 0-3.9 1.5t-1.6 5.3m15.6-.4v-1.6h26.9l.8.8-.8.8zm59 45.8v-16.3h2.2v6.7h8.4v-6.7h2.2v16.3h-2.2v-7.6h-8.4v7.6zm-2.1-9.8v1.7h-28.4l-.8-.8.8-.8zm-90.4 9.8v-16.3h2.2v6.7h8.4v-6.7h2.2v16.3h-2.2v-7.6h-8.4v7.6zm15.8-7.9q0-4 2.1-6.4a7 7 0 0 1 5.7-2.3q2.2 0 4 1.1a7 7 0 0 1 2.8 3q1 2 1 4.4t-1 4.5a7 7 0 0 1-2.9 3 8 8 0 0 1-8-.2 7 7 0 0 1-2.8-3q-1-2-1-4.1m2.2 0q0 3 1.6 4.7 1.5 1.7 4 1.7 2.4 0 4-1.7a7 7 0 0 0 1.5-5q0-1.9-.6-3.4a5 5 0 0 0-5-3.1q-2.2 0-3.9 1.6t-1.6 5.2m15.6-.2V145h26.9l.8.8-.8.8zM231.3 15q0-4 2.1-6.4a7 7 0 0 1 5.7-2.3q2.2 0 4 1.1a7 7 0 0 1 2.8 3q1 2 1 4.4t-1 4.4a7 7 0 0 1-2.9 3 8 8 0 0 1-8 0 7 7 0 0 1-2.8-3.1q-1-2-1-4.1m2.2 0q0 3 1.6 4.7t4 1.7 4-1.7a7 7 0 0 0 1.5-5q0-1.8-.6-3.4a5 5 0 0 0-5-3.1q-2.2 0-3.9 1.6-1.5 1.5-1.6 5.2m13.1 7.4.8-1.4L272 35.3l-.8 1.5zm2.8-4.9.8-1.4 24.8 14.3-.8 1.5zM298 23V6.5h2.1v6.7h8.5V6.6h2.2V23h-2.2v-7.6H300V23z"/><path d="m294.2 18.9.8 1.3-22.5 13-1.6-.9zM8.6 246.6v-16.3h5.6q2 0 3 .2 1.4.3 2.3 1.2 1.3 1.1 2 2.8t.6 3.9q0 1.8-.4 3.3a8 8 0 0 1-1.1 2.3l-1.5 1.5-2 .8q-1 .3-2.6.3zm2.2-2h3.5q1.5 0 2.5-.2t1.5-.9q.7-.8 1.2-2 .3-1.4.4-3.2 0-2.5-.9-4-.8-1.2-2-1.7-.9-.4-2.8-.4h-3.4zm13.2-2.9v-2h6.2v2zm8.7 4.9v-16.3H40q2.2 0 3.4.4 1 .4 1.8 1.6.6 1 .6 2.4 0 1.8-1 3-1.2 1.2-3.5 1.5l1.3.8 1.7 2.2 2.9 4.4h-2.7l-2.2-3.4-1.5-2.2-1.1-1.1-1-.4-1.2-.1H35v7.2zm2.2-9.1h4.6l2.3-.3q.9-.3 1.3-1t.4-1.4q0-1.2-.8-2-.9-.6-2.7-.7h-5zm14-4.9v-2.3h2v2.3zm0 14v-11.8h2v11.8zm6.9 0H54v-16.3h2v5.8a4 4 0 0 1 3.2-1.6 5 5 0 0 1 2 .5q1 .4 1.7 1.2a6 6 0 0 1 1 2q.3 1 .3 2.3 0 3-1.5 4.7a5 5 0 0 1-3.6 1.7q-2.1 0-3.3-1.8zm0-6q0 2.2.6 3 .9 1.6 2.5 1.6 1.3 0 2.3-1.1t1-3.4-1-3.4a2.8 2.8 0 0 0-4.5 0q-1 1.2-1 3.3m10.2.1q0-3.3 1.8-4.9 1.5-1.3 3.7-1.3 2.5 0 4 1.6a6 6 0 0 1 1.6 4.4q0 2.4-.7 3.6-.7 1.4-2 2-1.3.8-2.9.8-2.5 0-4-1.6t-1.5-4.6m2 0q0 2.3 1 3.4t2.5 1.1 2.5-1.1 1-3.5q0-2.1-1-3.3a3 3 0 0 0-2.5-1.1q-1.5 0-2.5 1.1t-1 3.4m10.6 2.3 2-.2q.1 1.2 1 1.8.6.6 2 .6 1.5 0 2.1-.5t.7-1.3q0-.8-.6-1.1l-2-.7q-2.2-.6-3.1-1a3 3 0 0 1-1.7-2.7q0-.8.3-1.4.4-.7 1-1.2.4-.3 1.3-.5l1.7-.3q1.4 0 2.4.4 1.2.5 1.6 1.1t.7 1.8l-2 .3q0-.8-.7-1.4t-1.8-.5q-1.4 0-2 .4t-.6 1 .2.8l.8.5 1.8.5 3 1q.8.3 1.3 1t.4 1.7-.5 2q-.6.8-1.7 1.3t-2.5.5q-2.3 0-3.5-1a4 4 0 0 1-1.6-2.8m20.3-.3 2 .3a5 5 0 0 1-1.7 2.8q-1.4 1-3.4 1-2.7 0-4.1-1.6-1.5-1.6-1.6-4.5 0-3 1.6-4.6 1.5-1.7 4-1.7a5 5 0 0 1 3.8 1.6q1.5 1.6 1.5 4.6v.5h-8.8q0 2 1.1 3 1 1 2.5 1a3 3 0 0 0 1.9-.5q.8-.6 1.2-1.9m-6.6-3.2h6.6a4 4 0 0 0-.7-2.3 3 3 0 0 0-2.5-1.1q-1.4 0-2.3.9-1 .9-1 2.5m134.7 7v-16.3h2.2v14.4h8v2zm11.8-4.9v-2h6.1v2zm8.6 4.9v-16.3h7.3q2.1 0 3.3.4 1 .4 1.8 1.6.6 1 .7 2.4 0 1.8-1.2 3t-3.4 1.5l1.3.8q.9.9 1.8 2.2l2.8 4.4H259l-2.2-3.4-1.5-2.2-1.1-1.1-1-.4-1.2-.1h-2.5v7.2zm2.2-9.1h4.6l2.3-.3q.9-.3 1.3-1t.4-1.4q0-1.2-.8-2-.9-.6-2.6-.7h-5.2zm14-4.9v-2.3h2v2.3zm0 14v-11.8h2v11.8zm6.9 0h-1.8v-16.3h2v5.8a4 4 0 0 1 3.2-1.6 5 5 0 0 1 2 .5q1 .4 1.7 1.2a6 6 0 0 1 1 2q.3 1 .3 2.3 0 3-1.5 4.7a5 5 0 0 1-3.6 1.7q-2.1 0-3.3-1.8zm0-6q0 2.2.6 3 1 1.6 2.5 1.6 1.4 0 2.3-1.1 1-1.2 1-3.4 0-2.4-1-3.4a2.8 2.8 0 0 0-4.5 0q-1 1.2-1 3.3m10.2.1q0-3.3 1.8-4.9 1.6-1.3 3.7-1.3 2.5 0 4 1.6a6 6 0 0 1 1.6 4.4q0 2.4-.7 3.6-.7 1.4-2 2-1.3.8-2.9.8-2.5 0-4-1.6t-1.5-4.6m2 0q0 2.3 1 3.4t2.5 1.1 2.5-1.1 1-3.5q0-2.1-1-3.3a3 3 0 0 0-2.5-1.1q-1.5 0-2.4 1.1-1 1.2-1 3.4m10.5 2.3 2-.2q.1 1.2 1 1.8t2 .6q1.5 0 2.1-.5t.7-1.3-.6-1.1l-2-.7q-2.2-.6-3.1-1a3 3 0 0 1-1.3-1 3 3 0 0 1-.4-1.7q0-.8.3-1.4.4-.7 1-1.2l1.3-.5 1.7-.3q1.5 0 2.5.4t1.5 1.1.7 1.8l-2 .3q0-.8-.7-1.4t-1.8-.5q-1.5 0-2 .4t-.6 1q0 .6.3.8t.7.5l1.8.5 3 1q.8.3 1.3 1t.5 1.7-.6 2q-.6.8-1.7 1.3t-2.5.5q-2.4 0-3.5-1a4 4 0 0 1-1.6-2.8m20.3-.3 2 .3a5 5 0 0 1-1.7 2.8q-1.4 1-3.4 1-2.6 0-4.1-1.6t-1.5-4.5 1.5-4.6 4-1.7a5 5 0 0 1 3.8 1.6q1.6 1.6 1.6 4.6v.5h-8.9q.1 2 1.1 3t2.5 1a3 3 0 0 0 1.9-.5q.8-.6 1.2-1.9m-6.6-3.2h6.6a4 4 0 0 0-.7-2.3 3 3 0 0 0-2.5-1.1q-1.4 0-2.3.9-1 .9-1 2.5"/></svg>