<svg overflow="visible" viewBox="0 0 345.15 253.22"><path d="M55.883 69.68l-.808.808-.807-.808V32.345l1.615.903z"/><path d="M55.883 107.395l-.808.808-.807-.808v-36.1l.807-.807.808.807zm0 37.668l-.808.808-.807-.808V109.01l.807-.807.808.807zm4.411 41.774l2.167.545q-.679 2.665-2.44 4.063-1.764 1.4-4.311 1.4-2.636 0-4.287-1.076t-2.514-3.114-.862-4.379q0-2.551.973-4.451t2.77-2.886 3.951-.986q2.447 0 4.114 1.248 1.668 1.25 2.324 3.512l-2.123.5q-.567-1.78-1.644-2.593-1.08-.812-2.712-.812-1.879 0-3.141.901t-1.773 2.422a9.8 9.8 0 00-.51 3.134q0 2.081.604 3.635t1.883 2.32a5.27 5.27 0 002.767.77q1.81 0 3.065-1.048t1.699-3.105m4.917 5.725v-16.328h2.167v6.71h8.446v-6.71h2.167v16.328h-2.167v-7.689h-8.446v7.69zm22.195 2.836v1.44H79.3q-.016-.541.177-1.044.31-.826.996-1.627.684-.8 1.966-1.85 1.989-1.642 2.698-2.597.71-.954.71-1.808a2 2 0 00-.642-1.504q-.641-.613-1.672-.613-1.09 0-1.744.654-.654.653-.662 1.81l-1.544-.164q.159-1.732 1.197-2.64 1.038-.907 2.788-.907 1.766 0 2.795.977t1.028 2.423q0 .735-.3 1.445-.302.708-1.001 1.495-.7.785-2.318 2.155-1.356 1.137-1.741 1.54-.387.406-.64.814zm1.261-10.782q0-4.065 2.183-6.365 2.183-2.298 5.636-2.298 2.26 0 4.076 1.08t2.769 3.012.952 4.382q0 2.483-1.003 4.443t-2.84 2.967a8.1 8.1 0 01-3.965 1.008q-2.306 0-4.122-1.113a7.16 7.16 0 01-2.75-3.04 9.2 9.2 0 01-.937-4.076m2.227.027q0 2.95 1.588 4.648t3.982 1.698q2.44 0 4.017-1.715t1.576-4.865q0-1.992-.674-3.478t-1.972-2.305-2.913-.818q-2.294 0-3.949 1.575t-1.655 5.26m16.25 7.92v-16.33h2.167v6.71h8.446v-6.71h2.167v16.33h-2.167v-7.69h-8.446v7.69zM55.883 173.8h-1.615v-27.122l.807-.807.808.807zM84.959 71.518q0-4.064 2.183-6.364t5.636-2.299q2.261 0 4.077 1.08 1.814 1.08 2.768 3.013.952 1.933.952 4.381 0 2.483-1.003 4.443t-2.84 2.968a8.1 8.1 0 01-3.965 1.008q-2.306 0-4.121-1.114a7.16 7.16 0 01-2.752-3.04 9.2 9.2 0 01-.935-4.076m2.225.028q0 2.95 1.588 4.648t3.982 1.698q2.44 0 4.017-1.715t1.576-4.865q0-1.992-.674-3.479t-1.972-2.305-2.912-.818q-2.295 0-3.95 1.575t-1.655 5.26m16.251 7.92V63.137h2.167v6.71h8.447v-6.71h2.167v16.329h-2.167v-7.69h-8.447v7.69z"/><path d="M82.768 69.68v1.615H55.883l-.808-.807.808-.808zM11.03 79.465V63.138h2.167v6.71h8.447v-6.71h2.167v16.328h-2.167v-7.69h-8.447v7.69zm14.88-8.171V69.68h28.358l.807.808-.807.807zm59.049 37.939q0-4.064 2.183-6.364t5.636-2.299q2.261 0 4.077 1.08 1.814 1.08 2.768 3.013.952 1.933.952 4.381 0 2.483-1.003 4.443t-2.84 2.968a8.1 8.1 0 01-3.965 1.008q-2.306 0-4.121-1.114a7.16 7.16 0 01-2.752-3.04 9.2 9.2 0 01-.935-4.076m2.225.029q0 2.95 1.588 4.648t3.982 1.698q2.44 0 4.017-1.715t1.576-4.865q0-1.992-.674-3.48-.674-1.486-1.972-2.304t-2.912-.818q-2.295 0-3.95 1.575t-1.655 5.26m16.251 7.92v-16.329h2.167v6.71h8.447v-6.71h2.167v16.329h-2.167v-7.69h-8.447v7.69zm-20.667-9.786v1.615H55.883l-.808-.807.808-.808zm-71.738 9.786v-16.328h2.167v6.71h8.447v-6.71h2.167v16.328h-2.167v-7.69h-8.447v7.69zm14.88-8.171v-1.615h28.358l.807.808-.807.807zm59.049 37.89q0-4.064 2.183-6.363t5.636-2.3q2.261 0 4.077 1.08 1.814 1.08 2.768 3.013.952 1.932.952 4.382 0 2.483-1.003 4.443t-2.84 2.967a8.1 8.1 0 01-3.965 1.008q-2.306 0-4.121-1.113a7.16 7.16 0 01-2.752-3.04 9.2 9.2 0 01-.935-4.076m2.225.027q0 2.95 1.588 4.648t3.982 1.698q2.44 0 4.017-1.715t1.576-4.865q0-1.992-.674-3.478t-1.972-2.305-2.912-.818q-2.295 0-3.95 1.575t-1.655 5.26m16.251 7.92v-16.33h2.167v6.71h8.447v-6.71h2.167v16.33h-2.167v-7.69h-8.447v7.69zm-20.667-9.785v1.615H55.883l-.808-.807.808-.808zm-71.738 9.785v-16.329h2.167v6.71h8.447v-6.71h2.167v16.329h-2.167v-7.69h-8.447v7.69zm14.88-8.17v-1.615h28.358l.807.808-.807.807zM14.658 14.993q0-4.063 2.184-6.364 2.182-2.298 5.635-2.299 2.262 0 4.076 1.08a7.06 7.06 0 012.769 3.013q.951 1.933.952 4.381 0 2.483-1.003 4.444t-2.84 2.967a8.1 8.1 0 01-3.965 1.008q-2.306 0-4.122-1.113a7.17 7.17 0 01-2.75-3.04 9.2 9.2 0 01-.936-4.077m2.226.028q0 2.95 1.588 4.648 1.587 1.699 3.982 1.698 2.44 0 4.017-1.715 1.575-1.714 1.576-4.865 0-1.992-.674-3.479-.674-1.486-1.972-2.304-1.297-.819-2.913-.818-2.295 0-3.949 1.575-1.655 1.576-1.655 5.26m12.968 7.397l.807-1.378 24.843 14.298-.807 1.425zm2.803-4.893l.808-1.377 24.842 14.297-.808 1.425zm48.723 5.415V6.613h2.167v6.71h8.446v-6.71h2.167V22.94h-2.167v-7.69h-8.446v7.69z"/><path d="M77.638 18.855l.807 1.378-22.562 13.015-1.615-.903zM272.483 69.68l-.808.808-.807-.808V32.345l1.615.903z"/><path d="M272.483 107.395l-.808.808-.807-.808v-36.1l.807-.807.808.807zm0 37.668l-.808.808-.807-.808V109.01l.807-.807.808.807zm4.411 41.774l2.167.545q-.679 2.665-2.44 4.063-1.764 1.4-4.31 1.4-2.637 0-4.288-1.076t-2.514-3.114-.862-4.379q0-2.551.973-4.451.972-1.9 2.768-2.886t3.952-.986q2.447 0 4.114 1.248 1.668 1.25 2.324 3.512l-2.123.5q-.567-1.78-1.644-2.593-1.08-.812-2.712-.812-1.878 0-3.141.901t-1.773 2.422a9.8 9.8 0 00-.51 3.134q0 2.081.605 3.635.604 1.553 1.882 2.32a5.27 5.27 0 002.766.77q1.81 0 3.066-1.048t1.7-3.105m4.917 5.725v-16.328h2.167v6.71h8.446v-6.71h2.167v16.328h-2.167v-7.689h-8.446v7.69zm22.194 2.836v1.44H295.9q-.016-.541.177-1.044.312-.826.997-1.627.684-.8 1.966-1.85 1.988-1.642 2.698-2.597.71-.954.709-1.808a2 2 0 00-.642-1.504q-.64-.613-1.672-.613-1.091 0-1.745.654-.654.653-.662 1.81l-1.544-.164q.159-1.732 1.197-2.64 1.04-.907 2.788-.907 1.767 0 2.795.977t1.028 2.423q0 .735-.3 1.445-.302.708-1 1.495-.7.785-2.319 2.155-1.355 1.137-1.74 1.54a5 5 0 00-.64.814zm1.262-10.782q0-4.065 2.183-6.365 2.183-2.298 5.636-2.298 2.262 0 4.076 1.08a7.07 7.07 0 012.769 3.012q.952 1.933.952 4.382 0 2.483-1.003 4.443t-2.84 2.967a8.1 8.1 0 01-3.965 1.008q-2.306 0-4.122-1.113a7.16 7.16 0 01-2.75-3.04 9.2 9.2 0 01-.936-4.076m2.226.027q0 2.95 1.588 4.648t3.982 1.698q2.44 0 4.017-1.715t1.576-4.865q0-1.992-.674-3.478-.675-1.487-1.972-2.305t-2.913-.818q-2.294 0-3.949 1.575t-1.655 5.26m16.251 7.92v-16.33h2.167v6.71h8.446v-6.71h2.167v16.33h-2.167v-7.69h-8.446v7.69zM272.483 173.8h-1.615v-27.122l.807-.807.808.807zm30.529-94.335V63.138h2.167v6.71h8.446v-6.71h2.167v16.328h-2.167v-7.69h-8.446v7.69zm-2.124-9.786v1.615h-28.405l-.808-.807.808-.808zm-90.358 9.786V63.137h2.168v6.71h8.446v-6.71h2.167v16.329h-2.167v-7.69h-8.446v7.69zm15.724-7.947q0-4.064 2.183-6.364t5.636-2.299q2.262 0 4.077 1.08a7.07 7.07 0 012.768 3.013q.952 1.933.952 4.381 0 2.483-1.002 4.443t-2.84 2.968a8.1 8.1 0 01-3.966 1.008q-2.306 0-4.121-1.114a7.16 7.16 0 01-2.751-3.04 9.2 9.2 0 01-.936-4.076m2.226.028q0 2.95 1.587 4.648t3.983 1.698q2.44 0 4.016-1.715t1.576-4.865q0-1.992-.673-3.479-.676-1.487-1.972-2.305t-2.913-.818q-2.294 0-3.95 1.575t-1.654 5.26"/><path d="M243.934 71.295V69.68h26.934l.807.808-.807.807zm59.078 45.886v-16.328h2.167v6.71h8.446v-6.71h2.167v16.328h-2.167v-7.69h-8.446v7.69zm-2.124-9.786v1.615h-28.405l-.808-.807.808-.808zm-90.358 9.785v-16.328h2.168v6.71h8.446v-6.71h2.167v16.329h-2.167v-7.69h-8.446v7.69zm15.724-7.947q0-4.064 2.183-6.364t5.636-2.299q2.262 0 4.077 1.08a7.07 7.07 0 012.768 3.013q.952 1.933.952 4.381 0 2.483-1.002 4.443t-2.84 2.968a8.1 8.1 0 01-3.966 1.008q-2.306 0-4.121-1.114a7.16 7.16 0 01-2.751-3.04 9.2 9.2 0 01-.936-4.076m2.226.029q0 2.95 1.587 4.648t3.983 1.698q2.44 0 4.016-1.715t1.576-4.865q0-1.992-.673-3.48-.676-1.486-1.972-2.304t-2.913-.818q-2.294 0-3.95 1.575t-1.654 5.26"/><path d="M243.934 109.01v-1.615h26.934l.807.808-.807.807zm59.078 45.838v-16.329h2.167v6.71h8.446v-6.71h2.167v16.329h-2.167v-7.69h-8.446v7.69zm-2.124-9.785v1.615h-28.405l-.808-.807.808-.808zm-90.358 9.784V138.52h2.168v6.71h8.446v-6.71h2.167v16.328h-2.167v-7.689h-8.446v7.69zm15.724-7.946q0-4.065 2.183-6.365 2.183-2.298 5.636-2.298 2.262 0 4.077 1.08a7.07 7.07 0 012.768 3.012q.952 1.932.952 4.382 0 2.483-1.002 4.443t-2.84 2.967a8.1 8.1 0 01-3.966 1.008q-2.306 0-4.121-1.113a7.16 7.16 0 01-2.751-3.04 9.2 9.2 0 01-.936-4.076m2.226.027q0 2.95 1.587 4.648t3.983 1.698q2.44 0 4.016-1.715t1.576-4.865q0-1.992-.673-3.478-.676-1.487-1.972-2.305t-2.913-.818q-2.294 0-3.95 1.575t-1.654 5.26"/><path d="M243.934 146.678v-1.615h26.934l.807.808-.807.807zM231.258 14.993q0-4.063 2.184-6.364 2.182-2.298 5.635-2.299 2.263 0 4.076 1.08a7.05 7.05 0 012.769 3.013q.951 1.933.952 4.381 0 2.483-1.003 4.444t-2.84 2.967a8.1 8.1 0 01-3.965 1.008q-2.306 0-4.122-1.113a7.17 7.17 0 01-2.75-3.04 9.2 9.2 0 01-.936-4.077m2.226.028q0 2.95 1.589 4.648 1.587 1.698 3.981 1.698 2.44 0 4.018-1.715 1.575-1.714 1.575-4.865 0-1.992-.674-3.479-.674-1.486-1.972-2.304-1.296-.819-2.913-.818-2.293 0-3.948 1.575-1.657 1.576-1.656 5.26m12.968 7.397l.807-1.378 24.843 14.298-.807 1.425zm2.803-4.893l.808-1.377 24.842 14.297-.808 1.425zm48.724 5.415V6.613h2.167v6.71h8.446v-6.71h2.167V22.94h-2.167v-7.69h-8.446v7.69z"/><path d="M294.238 18.855l.807 1.378-22.562 13.015-1.615-.903zM8.629 246.618V230.29h5.615q1.902 0 2.904.233 1.4.323 2.39 1.17 1.29 1.091 1.93 2.79t.64 3.882q0 1.859-.435 3.297-.434 1.437-1.111 2.378-.68.94-1.485 1.482-.807.54-1.946.818-1.14.278-2.619.278zm2.167-1.93h3.476q1.61 0 2.526-.3.916-.301 1.46-.847.767-.768 1.194-2.065t.428-3.146q0-2.56-.839-3.935-.838-1.375-2.038-1.842-.866-.335-2.787-.335h-3.42zm13.245-2.969V239.7h6.175v2.02zm8.675 4.9v-16.33h7.234q2.176 0 3.31.441 1.134.44 1.811 1.556a4.66 4.66 0 01.677 2.463q0 1.74-1.122 2.932-1.12 1.192-3.466 1.516.857.411 1.302.811.946.868 1.786 2.17l2.82 4.441h-2.697l-2.156-3.393q-.945-1.469-1.556-2.248t-1.094-1.09a3.2 3.2 0 00-.983-.434q-.368-.078-1.2-.078h-2.5v7.244zm2.168-9.115h4.633q1.478 0 2.31-.306.831-.306 1.264-.98t.432-1.465q0-1.158-.837-1.906-.838-.746-2.647-.746h-5.155zm14.016-4.913v-2.301h2.004v2.3zm0 14.027v-11.83h2.004v11.83zm6.906 0h-1.855V230.29h2.003v5.822q1.27-1.592 3.242-1.592 1.091 0 2.066.44a4.2 4.2 0 011.603 1.237q.63.798.987 1.92.356 1.126.356 2.407 0 3.04-1.504 4.7t-3.61 1.66q-2.095 0-3.287-1.748zm-.03-6.005q0 2.128.58 3.075.946 1.549 2.56 1.549 1.313 0 2.27-1.142t.958-3.404q0-2.317-.918-3.42t-2.221-1.104q-1.314 0-2.272 1.142-.957 1.143-.956 3.304m10.111.09q0-3.287 1.825-4.868 1.525-1.315 3.718-1.315 2.436 0 3.984 1.599t1.547 4.416q0 2.284-.685 3.592a4.85 4.85 0 01-1.993 2.034 5.8 5.8 0 01-2.854.724q-2.482 0-4.012-1.593t-1.53-4.59m2.064.002q0 2.273.989 3.403t2.49 1.13q1.49 0 2.478-1.135.99-1.137.99-3.464 0-2.194-.995-3.325t-2.474-1.13q-1.501 0-2.49 1.125t-.988 3.396m10.558 2.381l1.99-.311q.167 1.194.928 1.828.763.636 2.131.636 1.38 0 2.048-.562.667-.565.667-1.322 0-.68-.587-1.07-.41-.268-2.044-.68-2.201-.558-3.054-.963-.855-.407-1.295-1.126a3 3 0 01-.441-1.587q0-.79.362-1.465.362-.674.985-1.12.468-.345 1.275-.585a6 6 0 011.73-.239q1.393 0 2.444.402t1.554 1.089.69 1.835l-1.96.267q-.134-.917-.772-1.43-.638-.514-1.806-.515-1.378 0-1.967.456-.59.457-.59 1.071 0 .39.246.701.244.324.766.535.3.112 1.768.513 2.123.568 2.963.93t1.32 1.053.479 1.715q0 1.003-.585 1.888t-1.689 1.37q-1.102.484-2.495.484-2.306 0-3.515-.958-1.213-.956-1.546-2.84m20.283-.282l2.08.267q-.491 1.813-1.815 2.814-1.326 1-3.383 1.001-2.594 0-4.113-1.599-1.518-1.598-1.519-4.484 0-2.985 1.535-4.634 1.536-1.648 3.985-1.648 2.369 0 3.873 1.615 1.503 1.616 1.503 4.545 0 .178-.012.535h-8.82q.11 1.95 1.1 2.986t2.471 1.037q1.102 0 1.88-.58t1.235-1.855m-6.568-3.236h6.591q-.134-1.493-.755-2.24-.957-1.159-2.479-1.159-1.377 0-2.317.926t-1.04 2.473m134.815 7.051V230.29h2.168v14.398h8.016v1.93zm11.716-4.899V239.7h6.175v2.02zm8.676 4.9v-16.33h7.233q2.177 0 3.31.441 1.135.44 1.811 1.556.678 1.114.679 2.463 0 1.74-1.123 2.932t-3.466 1.516q.857.411 1.301.811.946.868 1.786 2.17l2.821 4.441h-2.698l-2.155-3.393q-.945-1.469-1.557-2.248-.61-.779-1.093-1.09a3.2 3.2 0 00-.982-.434q-.368-.078-1.201-.078h-2.5v7.244zm2.167-9.115h4.634q1.476 0 2.308-.306t1.265-.98.433-1.465q0-1.158-.84-1.906-.837-.746-2.645-.746H249.6zm14.017-4.913v-2.301h2.003v2.3zm0 14.027v-11.83h2.003v11.83zm6.905 0h-1.855V230.29h2.003v5.822q1.27-1.592 3.24-1.592 1.093 0 2.067.44a4.2 4.2 0 011.604 1.237q.63.798.987 1.92.356 1.126.356 2.407 0 3.04-1.505 4.7t-3.61 1.66q-2.095 0-3.287-1.748zm-.03-6.005q0 2.128.58 3.075.946 1.549 2.56 1.549 1.313 0 2.271-1.142t.958-3.404q0-2.317-.919-3.42t-2.221-1.104q-1.314 0-2.272 1.142-.957 1.143-.956 3.304m10.113.09q0-3.287 1.824-4.868 1.524-1.315 3.718-1.315 2.436 0 3.983 1.599t1.548 4.416q0 2.284-.685 3.592a4.85 4.85 0 01-1.993 2.034 5.8 5.8 0 01-2.854.724q-2.483 0-4.013-1.593t-1.529-4.59m2.063.002q0 2.273.989 3.403t2.49 1.13q1.488 0 2.478-1.135.988-1.137.99-3.464 0-2.194-.995-3.325-.996-1.13-2.474-1.13-1.502 0-2.49 1.125t-.988 3.396m10.558 2.381l1.99-.311q.167 1.194.928 1.828.763.636 2.132.636 1.378 0 2.046-.562.668-.565.668-1.322 0-.68-.588-1.07-.409-.268-2.044-.68-2.2-.558-3.055-.963-.854-.407-1.295-1.126a3 3 0 01-.44-1.587q0-.79.362-1.465.362-.674.985-1.12.468-.345 1.275-.585a6 6 0 011.731-.239q1.392 0 2.444.402t1.553 1.089.69 1.835l-1.96.267q-.132-.917-.773-1.43-.638-.514-1.805-.515-1.38 0-1.968.456-.59.457-.588 1.071 0 .39.245.701.242.324.767.535.3.112 1.768.513 2.12.568 2.963.93.84.362 1.32 1.053t.478 1.715q0 1.003-.585 1.888-.586.886-1.687 1.37-1.103.484-2.496.484-2.307 0-3.516-.958-1.212-.956-1.545-2.84m20.284-.282l2.078.267q-.49 1.813-1.814 2.814-1.325 1-3.383 1.001-2.594 0-4.114-1.599-1.517-1.598-1.518-4.484 0-2.985 1.534-4.634 1.538-1.648 3.986-1.648 2.368 0 3.872 1.615 1.503 1.616 1.503 4.545 0 .178-.012.535h-8.82q.112 1.95 1.1 2.986.99 1.038 2.472 1.037 1.1 0 1.88-.58.779-.581 1.236-1.855m-6.569-3.236h6.592q-.133-1.493-.757-2.24-.955-1.159-2.477-1.159-1.38 0-2.317.926-.94.925-1.04 2.473"/></svg>