<svg xml:space="preserve" style="overflow:visible" viewBox="0 0 360.6 273.4"><path d="m75.4 17.7 2.1.6a7 7 0 0 1-2.4 4 7 7 0 0 1-4.3 1.4q-2.7 0-4.3-1-1.6-1.2-2.5-3.2a11 11 0 0 1 .1-8.8A7 7 0 0 1 67 7.8a8 8 0 0 1 4-1q2.4 0 4 1.3 1.8 1.2 2.4 3.5l-2.2.5a5 5 0 0 0-1.6-2.6q-1-.8-2.7-.8-1.9 0-3.2.9-1.2.9-1.7 2.4t-.5 3.1q0 2 .6 3.7.6 1.5 1.8 2.3t2.8.8q1.8 0 3-1 1.4-1.2 1.8-3.2m4.8 5.7V7.1h2.2v6.7h8.4V7.1h2.2v16.3h-2.2v-7.6h-8.4v7.6zm22.2 2.9v1.4h-8.1l.2-1q.3-.9 1-1.6.6-.9 2-1.9 2-1.6 2.6-2.6a3 3 0 0 0 .7-1.8 2 2 0 0 0-.6-1.5q-.6-.6-1.7-.6-1 0-1.7.6t-.7 1.8l-1.5-.1q0-1.7 1.2-2.7a4 4 0 0 1 2.8-.9q1.6 0 2.7 1 1 1 1 2.4 0 .8-.2 1.5l-1 1.5-2.3 2.1-2.4 2.4zm1.3-10.8q0-4 2.1-6.4a7 7 0 0 1 5.7-2.3q2.2 0 4 1.1a7 7 0 0 1 2.8 3q1 2 1 4.4t-1 4.5a7 7 0 0 1-2.9 3 8 8 0 0 1-8-.2 7 7 0 0 1-2.8-3q-1-2-1-4.1m2.2 0q0 3 1.6 4.7t4 1.7 4-1.7a7 7 0 0 0 1.5-5q0-1.9-.6-3.4a5 5 0 0 0-5-3.1q-2.2 0-3.9 1.6-1.5 1.6-1.6 5.2m16.3 7.9V7.1h2.2v6.7h8.4V7.1h2.2v16.3h-2.2v-7.6h-8.4v7.6zm-52.8 2.5H71v26.3h-1.6z"/><path d="m71 89-.8.9-.8-.8V52H71z"/><path d="m71 126.8-.8.8-.8-.8v-36l.8-.9.8.8zm0 37.7-.8.8-.8-.8v-36.1l.8-.8.8.8zm4.4 41.7 2.1.6a7 7 0 0 1-2.4 4 7 7 0 0 1-4.3 1.5q-2.7 0-4.3-1.1T64 208a11 11 0 0 1 .1-8.9 7 7 0 0 1 2.8-2.9 8 8 0 0 1 4-1q2.4 0 4 1.3 1.8 1.2 2.4 3.5l-2.2.5a5 5 0 0 0-1.6-2.6q-1-.8-2.7-.8-1.9 0-3.2 1-1.2.8-1.7 2.3t-.5 3.2q0 2.1.6 3.6t1.8 2.3 2.8.8q1.8 0 3-1 1.4-1 1.8-3.2m4.9 5.9v-16.4h2.2v6.8h8.4v-6.8h2.2V212h-2.2v-7.7h-8.4v7.7zm22.2 2.8v1.4h-8.1l.2-1q.3-.7 1-1.6t2-1.9q2-1.6 2.6-2.6a3 3 0 0 0 .7-1.8 2 2 0 0 0-.6-1.5q-.6-.6-1.7-.6-1 0-1.7.7t-.7 1.8l-1.5-.2q0-1.7 1.2-2.6a4 4 0 0 1 2.8-1q1.6 0 2.7 1 1 1 1 2.5l-.2 1.4q-.2.7-1 1.5l-2.3 2.2-2.4 2.3zm1.3-10.8q0-4 2.1-6.3a7 7 0 0 1 5.7-2.3q2.2 0 4 1a7 7 0 0 1 2.8 3q1 2 1 4.4t-1 4.5a7 7 0 0 1-2.9 3 8 8 0 0 1-8-.2 7 7 0 0 1-2.8-3q-1-2-1-4m2.2 0q0 3 1.6 4.7t4 1.7 4-1.7a7 7 0 0 0 1.5-4.9q0-2-.6-3.5a5 5 0 0 0-5-3q-2.2 0-3.9 1.5-1.5 1.5-1.6 5.3m16.3 7.8v-16.4h2.2v6.8h8.4v-6.8h2.2V212h-2.2v-7.7h-8.4v7.7z"/><path d="M71 193.2h-1.6v-27.1l.8-.8.8.8zm29-140q0-4 2.2-6.4a7 7 0 0 1 5.7-2.2q2.2 0 4 1a7 7 0 0 1 2.8 3q1 2 1 4.4 0 2.6-1 4.5a7 7 0 0 1-2.9 3 8 8 0 0 1-8-.2 7 7 0 0 1-2.8-3q-1-2-1-4m2.3 0q0 3 1.6 4.7 1.5 1.7 4 1.7 2.4 0 4-1.7a7 7 0 0 0 1.5-4.9q0-2-.6-3.5a5 5 0 0 0-5-3q-2.2 0-3.9 1.5t-1.6 5.2m-32.1-4.7h27.7v1.6H70.2zm0 5.6h27.7v1.6H70.2zM100 91q0-4.2 2.2-6.4a7 7 0 0 1 5.7-2.3q2.2 0 4 1a7 7 0 0 1 2.8 3q1 2 1 4.4t-1 4.5a7 7 0 0 1-2.9 3 8 8 0 0 1-8-.2 7 7 0 0 1-2.8-3q-1-2-1-4m2.3 0q0 3 1.6 4.6 1.5 1.7 4 1.7 2.4 0 4-1.7a7 7 0 0 0 1.5-4.9q0-2-.6-3.5a5 5 0 0 0-5-3q-2.2 0-3.9 1.5t-1.6 5.3m16.2 7.9V82.5h2.2v6.8h8.4v-6.8h2.2V99h-2.2v-7.7h-8.4V99zM97.9 89v1.7h-27l-.7-.8.8-.8zm-71.8 9.9V82.5h2.2v6.8h8.4v-6.8H39V99h-2.2v-7.7h-8.4V99zM41 90.7v-1.6h28.4l.8.8-.8.8zm60.5 45.8v-16.3h2.2v6.7h8.4v-6.7h2.2v16.3H112V129h-8.4v7.6zm-2.1-9.7v1.6H71l-.8-.8.8-.8zM9 136.5v-16.3h2.2v6.7h8.4v-6.7h2.2v16.3h-2.2V129h-8.4v7.6zm15.7-7.9q0-4 2.2-6.4a7 7 0 0 1 5.7-2.3q2.2 0 4 1.1a7 7 0 0 1 2.8 3q1 2 1 4.4t-1 4.5a7 7 0 0 1-2.9 3 8 8 0 0 1-8-.2 7 7 0 0 1-2.8-3q-1-2-1-4.1m2.3 0q0 3 1.6 4.7 1.5 1.7 4 1.7 2.4 0 4-1.7a7 7 0 0 0 1.5-5q0-1.8-.6-3.4a5 5 0 0 0-5-3.1q-2.2 0-3.9 1.6-1.6 1.5-1.6 5.2m15.4-.2v-1.6h27l.8.8-.8.8zm57.6 37.9q0-4 2.2-6.4a7 7 0 0 1 5.7-2.3q2.2 0 4 1.1a7 7 0 0 1 2.8 3q1 2 1 4.4t-1 4.5a7 7 0 0 1-2.9 3 8 8 0 0 1-8-.2 7 7 0 0 1-2.8-3q-1-2-1-4m2.3 0q0 3 1.6 4.7 1.5 1.7 4 1.7 2.4 0 4-1.7a7 7 0 0 0 1.5-4.9q0-2-.6-3.5a5 5 0 0 0-5-3.1q-2.2 0-3.9 1.6t-1.6 5.2m16.2 7.9v-16.4h2.2v6.7h8.4V158h2.2v16.4h-2.2v-7.7h-8.4v7.7z"/><path d="M97.9 164.5v1.6h-27l-.7-.8.8-.8zm-71.8 9.8v-16.4h2.2v6.7h8.4V158H39v16.4h-2.2v-7.7h-8.4v7.7zM41 166v-1.5h28.4l.8.8-.8.8zM292 17.7l2.1.6a7 7 0 0 1-2.4 4 7 7 0 0 1-4.3 1.4q-2.7 0-4.3-1-1.6-1.2-2.5-3.2a11 11 0 0 1 .1-8.8 7 7 0 0 1 2.8-2.9 8 8 0 0 1 4-1q2.4 0 4 1.3 1.8 1.2 2.4 3.5l-2.2.5a5 5 0 0 0-1.6-2.6q-1-.8-2.7-.8-1.9 0-3.2.9-1.2.9-1.7 2.4t-.5 3.1q0 2 .6 3.7.6 1.5 1.8 2.3t2.8.8q1.8 0 3-1 1.4-1.2 1.8-3.2m4.9 5.7V7.1h2.2v6.7h8.4V7.1h2.2v16.3h-2.2v-7.6h-8.4v7.6zm22.1 2.9v1.4h-8l.2-1q.3-.9 1-1.6.5-.9 2-1.9 2-1.6 2.6-2.6a3 3 0 0 0 .7-1.8 2 2 0 0 0-.6-1.5q-.6-.6-1.7-.6-1 0-1.7.6t-.7 1.8l-1.5-.1q0-1.7 1.2-2.7a4 4 0 0 1 2.8-.9q1.6 0 2.7 1 1 1 1 2.4 0 .8-.2 1.5l-1 1.5-2.3 2.1-2.4 2.4zm1.4-10.8q0-4 2.1-6.4a7 7 0 0 1 5.7-2.3q2.2 0 4 1.1a7 7 0 0 1 2.8 3q1 2 1 4.4t-1 4.5a7 7 0 0 1-2.9 3 8 8 0 0 1-8-.2 7 7 0 0 1-2.8-3q-1-2-1-4.1m2.2 0q0 3 1.6 4.7t4 1.7 4-1.7a7 7 0 0 0 1.5-5q0-1.9-.6-3.4a5 5 0 0 0-5-3.1q-2.2 0-3.9 1.6t-1.6 5.2m16.3 7.9V7.1h2.2v6.7h8.4V7.1h2.2v16.3h-2.2v-7.6H341v7.6zM286 25.9h1.6v26.3H286z"/><path d="m287.6 89-.8.9-.8-.8V52h1.6z"/><path d="m287.6 126.8-.8.8-.8-.8v-36l.8-.9.8.8zm0 37.7-.8.8-.8-.8v-36.1l.8-.8.8.8zm4.4 41.7 2.1.6a7 7 0 0 1-2.4 4 7 7 0 0 1-4.3 1.5q-2.7 0-4.3-1.1t-2.5-3.1a11 11 0 0 1 .1-8.9 7 7 0 0 1 2.8-2.9 8 8 0 0 1 4-1q2.4 0 4 1.3 1.8 1.2 2.4 3.5l-2.2.5a5 5 0 0 0-1.6-2.6q-1-.8-2.7-.8-1.9 0-3.2 1-1.2.8-1.7 2.3t-.5 3.2q0 2.1.6 3.6t1.8 2.3 2.8.8q1.8 0 3-1 1.4-1 1.8-3.2m4.9 5.8v-16.4h2.2v6.8h8.4v-6.8h2.2V212h-2.2v-7.7h-8.4v7.7zm22.1 2.8v1.4h-8l.2-1q.3-.7 1-1.6.5-.9 2-1.9 2-1.6 2.6-2.6a3 3 0 0 0 .7-1.8 2 2 0 0 0-.6-1.5q-.6-.6-1.7-.6-1 0-1.7.7t-.7 1.8l-1.5-.2q0-1.7 1.2-2.6a4 4 0 0 1 2.8-1q1.6 0 2.7 1 1 1 1 2.5l-.2 1.4-1 1.5-2.3 2.2-2.4 2.3zm1.4-10.8q0-4 2.1-6.3a7 7 0 0 1 5.7-2.3q2.2 0 4 1a7 7 0 0 1 2.8 3q1 2 1 4.4t-1 4.5a7 7 0 0 1-2.9 3 8 8 0 0 1-8-.2 7 7 0 0 1-2.8-3q-1-2-1-4m2.2 0q0 3 1.6 4.7t4 1.7 4-1.7a7 7 0 0 0 1.5-4.9q0-2-.6-3.5a5 5 0 0 0-5-3q-2.2 0-3.9 1.5t-1.6 5.3m16.3 7.8v-16.4h2.2v6.8h8.4v-6.8h2.2V212h-2.2v-7.7H341v7.7z"/><path d="M287.6 193.2H286v-27.1l.8-.8.8.8zm29-140q0-4 2.2-6.4a7 7 0 0 1 5.7-2.2q2.2 0 4 1a7 7 0 0 1 2.8 3q1 2 1 4.4 0 2.6-1 4.5a7 7 0 0 1-2.9 3 8 8 0 0 1-8-.2 7 7 0 0 1-2.8-3q-1-2-1-4m2.3 0q0 3 1.6 4.7 1.5 1.7 4 1.7 2.4 0 4-1.7a7 7 0 0 0 1.5-5q0-2-.6-3.5a5 5 0 0 0-5-3q-2.2 0-3.9 1.5t-1.6 5.2m-32.1-4.6h27.7v1.6h-27.7zm0 5.6h27.7v1.6h-27.7zm31.3 44.7V82.5h2.2v6.8h8.4v-6.8h2.2V99h-2.2v-7.7h-8.4V99zM316 89v1.7h-28.4l-.8-.8.8-.8zm-90.4 9.9V82.5h2.2v6.8h8.4v-6.8h2.2V99h-2.2v-7.7h-8.4V99zm15.7-7.9q0-4.2 2.2-6.4a7 7 0 0 1 5.7-2.3q2.2 0 4 1a7 7 0 0 1 2.8 3q1 2 1 4.4t-1 4.5a7 7 0 0 1-2.9 3 8 8 0 0 1-8-.2 7 7 0 0 1-2.8-3q-1-2-1-4m2.3 0q0 3 1.6 4.6 1.5 1.7 4 1.7 2.4 0 4-1.7a7 7 0 0 0 1.5-4.9q0-2-.6-3.5a5 5 0 0 0-5-3q-2.3 0-3.9 1.5-1.5 1.5-1.6 5.3m15.4-.3v-1.6h27l.8.8-.8.8zm57.6 37.9q0-4 2.2-6.4a7 7 0 0 1 5.7-2.3q2.2 0 4 1.1a7 7 0 0 1 2.8 3q1 2 1 4.4t-1 4.5a7 7 0 0 1-2.9 3 8 8 0 0 1-8-.2 7 7 0 0 1-2.8-3q-1-2-1-4.1m2.3 0q0 3 1.6 4.7 1.5 1.7 4 1.7 2.4 0 4-1.7a7 7 0 0 0 1.5-5q0-1.8-.6-3.4a5 5 0 0 0-5-3.1q-2.2 0-3.9 1.6-1.6 1.5-1.6 5.2m16.2 7.9v-16.3h2.2v6.7h8.4v-6.7h2.2v16.3h-2.2V129h-8.4v7.6zm-20.6-9.7v1.6h-27l-.7-.8.8-.8zm-71.8 9.7v-16.3h2.2v6.7h8.4v-6.7h2.2v16.3h-2.2V129H245v7.6zm14.9-8.1v-1.6H286l.8.8-.8.8zm60.5 45.9v-16.4h2.2v6.7h8.4V158h2.2v16.4h-2.2v-7.7h-8.4v7.7z"/><path d="M316 164.5v1.6h-28.4l-.8-.8.8-.8zm-90.4 9.8v-16.4h2.2v6.7h8.4V158h2.2v16.4h-2.2v-7.7h-8.4v7.7zm15.7-8q0-4 2.2-6.4a7 7 0 0 1 5.7-2.3q2.2 0 4 1.1a7 7 0 0 1 2.8 3q1 2 1 4.4t-1 4.5a7 7 0 0 1-2.9 3 8 8 0 0 1-8-.2 7 7 0 0 1-2.8-3q-1-2-1-4m2.3 0q0 3 1.6 4.7 1.5 1.7 4 1.7 2.4 0 4-1.7a7 7 0 0 0 1.5-4.9q0-2-.6-3.5a5 5 0 0 0-5-3.1q-2.3 0-3.9 1.6-1.5 1.6-1.6 5.2m15.4-.4v-1.5h27l.8.8-.8.8zM16.8 266.3V250h5.6q1.8 0 2.9.2 1.4.3 2.4 1.2 1.3 1 1.9 2.8t.6 3.9q0 1.8-.4 3.3a8 8 0 0 1-1.1 2.3l-1.5 1.5-2 .8q-1 .3-2.6.3zm2.1-2h3.5q1.6 0 2.5-.2t1.5-.9q.8-.8 1.2-2 .4-1.4.4-3.2 0-2.5-.8-4-1-1.2-2-1.8-1-.3-2.9-.3H19zm13.3-2.9v-2h6.1v2zm7.8-.4 2.1-.1q.1 1.2.7 2t1.6 1.3q1.2.5 2.5.5a6 6 0 0 0 2.2-.4 3 3 0 0 0 1.4-1q.5-.7.5-1.4 0-.8-.5-1.4t-1.4-1l-3-.7q-2.3-.6-3-1-1.4-.6-1.8-1.6-.6-.8-.6-2t.7-2.3 2-1.6q1.5-.6 3-.6 1.9 0 3.2.6a5 5 0 0 1 3 4.3l-2.1.1q-.2-1.5-1.1-2.3t-2.9-.8-2.8.7-1 1.8q0 .8.7 1.4t3.3 1.2 3.6 1a5 5 0 0 1 2 1.7q.8 1 .8 2.3t-.8 2.5a5 5 0 0 1-2.1 1.8q-1.5.6-3.2.6-2.2 0-3.7-.7T41 264t-1-3m15-.6q0-3.3 1.8-4.9 1.5-1.3 3.8-1.3 2.4 0 4 1.6a6 6 0 0 1 1.5 4.4q0 2.4-.7 3.6-.7 1.4-2 2-1.3.8-2.8.8-2.5 0-4-1.6t-1.6-4.6m2 0q0 2.2 1 3.4t2.6 1.1 2.4-1.1q1-1.2 1-3.5 0-2.1-1-3.3a3 3 0 0 0-2.4-1.1q-1.6 0-2.5 1.1-1 1.2-1 3.4m11.3 5.9v-11.8h1.8v1.8q.7-1.3 1.3-1.7t1.3-.4a4 4 0 0 1 2 .7l-.7 1.8q-.7-.4-1.4-.4t-1.2.4-.7 1q-.4 1.2-.4 2.4v6.2zm9.5 0H76V250h2v5.8a4 4 0 0 1 3.3-1.6 5 5 0 0 1 2 .5q1 .4 1.6 1.2a6 6 0 0 1 1 2q.4 1 .4 2.3 0 3-1.5 4.7a5 5 0 0 1-3.6 1.7q-2.1 0-3.3-1.8zm0-6q0 2.2.5 3 1 1.6 2.6 1.6 1.3 0 2.3-1.1t1-3.4q0-2.4-1-3.4a2.8 2.8 0 0 0-4.5 0q-1 1.2-1 3.3m10.2.1q0-3.3 1.8-4.9 1.5-1.3 3.7-1.3 2.4 0 4 1.6a6 6 0 0 1 1.5 4.4q0 2.4-.6 3.6-.8 1.4-2 2-1.4.8-2.9.8-2.4 0-4-1.6-1.5-1.6-1.5-4.6m2 0q0 2.2 1 3.4t2.5 1.1 2.5-1.1q1-1.2 1-3.5 0-2.1-1-3.3a3 3 0 0 0-2.5-1.1q-1.5 0-2.5 1.1t-1 3.4m10.6 2.4 2-.3q0 1.2.9 1.8t2.1.6q1.5 0 2-.5.7-.5.7-1.4 0-.6-.5-1l-2-.7q-2.3-.6-3.1-1a3 3 0 0 1-1.8-2.7q0-.8.4-1.4.3-.7 1-1.2.4-.3 1.3-.5l1.7-.3q1.4 0 2.4.4t1.6 1.1q.4.7.7 1.8l-2 .3q0-.9-.8-1.4-.6-.6-1.8-.5t-2 .4q-.5.5-.5 1t.2.8l.8.5 1.8.5 3 1q.8.4 1.2 1 .6.7.5 1.7t-.6 2q-.6.8-1.7 1.3-1 .5-2.5.5-2.3 0-3.5-1a4 4 0 0 1-1.5-2.8m20.3-.3 2 .3a5 5 0 0 1-1.8 2.8q-1.3 1-3.3 1-2.6 0-4.2-1.6-1.5-1.6-1.5-4.5 0-3 1.6-4.6 1.5-1.7 4-1.7a5 5 0 0 1 3.8 1.6q1.5 1.6 1.5 4.6v.5h-8.8q0 2 1 3t2.6 1a3 3 0 0 0 1.8-.5q.9-.6 1.3-1.9m-6.6-3.2h6.6a4 4 0 0 0-.8-2.3 3 3 0 0 0-2.4-1.1q-1.4 0-2.4.9t-1 2.5m120.9 7V250h2.1v14.4h8v2zm11.7-4.9v-2h6.2v2zm7.9-.4 2-.1q.2 1.2.7 2 .6.8 1.7 1.3 1 .5 2.5.5l2.1-.4a3 3 0 0 0 1.4-1q.5-.7.5-1.4 0-.8-.4-1.4t-1.5-1l-3-.7q-2.3-.6-3-1-1.3-.6-1.8-1.6-.6-.8-.6-2t.7-2.3 2-1.6q1.5-.6 3-.6 1.9 0 3.3.6a5 5 0 0 1 2.9 4.3l-2 .1q-.3-1.5-1.2-2.3-1-.8-2.9-.8-2 0-2.8.7-1 .7-1 1.8 0 .8.7 1.4t3.3 1.2 3.6 1a5 5 0 0 1 2.1 1.7q.7 1 .7 2.3t-.8 2.5a5 5 0 0 1-2.1 1.8q-1.5.6-3.1.6-2.3 0-3.8-.7-1.4-.6-2.3-1.9t-.9-3m14.9-.6q0-3.3 1.9-4.9 1.5-1.3 3.7-1.3 2.5 0 4 1.6a6 6 0 0 1 1.5 4.4q0 2.4-.7 3.6-.6 1.4-2 2-1.2.8-2.8.8-2.5 0-4-1.6-1.6-1.6-1.6-4.6m2 0q0 2.2 1 3.4t2.6 1.1 2.4-1.1q1-1.2 1-3.5 0-2.1-1-3.3a3 3 0 0 0-2.4-1.1q-1.5 0-2.5 1.1t-1 3.4m11.3 5.9v-11.8h1.8v1.8q.8-1.3 1.3-1.7t1.3-.4a4 4 0 0 1 2 .7l-.6 1.8q-.7-.4-1.5-.4-.6 0-1.2.4t-.7 1q-.4 1.2-.4 2.4v6.2zm9.5 0h-1.9V250h2v5.8a4 4 0 0 1 3.3-1.6 5 5 0 0 1 2 .5q1 .4 1.7 1.2a6 6 0 0 1 1 2q.3 1 .3 2.3 0 3-1.5 4.7a5 5 0 0 1-3.6 1.7q-2.1 0-3.3-1.8zm0-6q0 2.2.5 3 1 1.6 2.6 1.6 1.3 0 2.3-1.1t1-3.4q0-2.4-1-3.4a2.8 2.8 0 0 0-4.5 0q-1 1.2-1 3.3m10.2.1q0-3.3 1.8-4.9 1.6-1.3 3.7-1.3 2.5 0 4 1.6a6 6 0 0 1 1.6 4.4q0 2.4-.7 3.6-.8 1.4-2 2-1.3.8-2.9.8-2.5 0-4-1.6t-1.5-4.6m2 0q0 2.2 1 3.4t2.5 1.1 2.5-1.1q1-1.2 1-3.5 0-2.1-1-3.3a3 3 0 0 0-2.5-1.1q-1.5 0-2.5 1.1t-1 3.4m10.6 2.4 2-.3q.1 1.2 1 1.8.6.6 2 .6 1.5 0 2.1-.5t.7-1.4q0-.6-.6-1l-2-.7q-2.3-.6-3.1-1a3 3 0 0 1-1.8-2.7q0-.8.4-1.4.4-.7 1-1.2.4-.3 1.3-.5l1.7-.3q1.4 0 2.4.4 1.1.4 1.6 1.1t.7 1.8l-2 .3q0-.9-.8-1.4-.6-.6-1.8-.5t-2 .4q-.5.5-.5 1t.2.8l.8.5 1.8.5 3 1q.8.4 1.2 1 .5.7.5 1.7t-.6 2-1.6 1.3-2.5.5q-2.4 0-3.6-1a4 4 0 0 1-1.5-2.8m20.3-.3 2 .3a5 5 0 0 1-1.8 2.8q-1.3 1-3.3 1-2.6 0-4.1-1.6-1.6-1.6-1.6-4.5 0-3 1.6-4.6 1.5-1.7 4-1.7a5 5 0 0 1 3.8 1.6q1.5 1.6 1.5 4.6v.5H329q0 2 1.1 3 1 1 2.5 1a3 3 0 0 0 1.8-.5q.9-.6 1.3-1.9m-6.6-3.2h6.6a4 4 0 0 0-.7-2.3 3 3 0 0 0-2.5-1.1q-1.4 0-2.3.9-1 .9-1 2.5"/></svg>