<svg xmlns="http://www.w3.org/2000/svg" xmlns:cc="http://web.resource.org/cc/" xmlns:svg="http://www.w3.org/2000/svg" id="Layer_1" width="360.625" height="273.432" version="1.1" viewBox="0 0 360.625 273.432" style="overflow:visible;enable-background:new 0 0 360.625 273.432" xml:space="preserve"><metadata id="metadata230"/><g id="g3" transform="matrix(0.95,0,0,0.95,9.015625,6.8357)"><path id="path5" d="M 69.856,11.457 L 72.137,12.031 C 71.661,13.901 70.804,15.327 69.568,16.308 C 68.331,17.29 66.818,17.781 65.031,17.781 C 63.181,17.781 61.677,17.404 60.518,16.649 C 59.359,15.894 58.477,14.802 57.872,13.371 C 57.267,11.94 56.965,10.404 56.965,8.762 C 56.965,6.971 57.306,5.409 57.989,4.076 C 58.672,2.742 59.643,1.73 60.904,1.038 C 62.164,0.346 63.551,0 65.064,0 C 66.781,0 68.224,0.438 69.394,1.314 C 70.565,2.191 71.38,3.423 71.84,5.011 L 69.606,5.538 C 69.208,4.288 68.631,3.378 67.875,2.808 C 67.118,2.238 66.166,1.953 65.02,1.953 C 63.702,1.953 62.6,2.269 61.714,2.902 C 60.829,3.535 60.207,4.384 59.848,5.451 C 59.489,6.518 59.31,7.617 59.31,8.75 C 59.31,10.211 59.522,11.486 59.947,12.576 C 60.372,13.666 61.032,14.48 61.929,15.019 C 62.826,15.558 63.796,15.828 64.841,15.828 C 66.112,15.828 67.187,15.461 68.068,14.726 C 68.949,13.991 69.544,12.902 69.856,11.457 z"/><path id="path7" d="M 75.032,17.484 L 75.032,0.297 L 77.313,0.297 L 77.313,7.36 L 86.204,7.36 L 86.204,0.297 L 88.485,0.297 L 88.485,17.485 L 86.204,17.485 L 86.204,9.391 L 77.313,9.391 L 77.313,17.485 L 75.032,17.485 L 75.032,17.484 z"/></g><g id="g9" transform="matrix(0.95,0,0,0.95,9.015625,6.8357)"><path id="path11" d="M 98.395,20.469 L 98.395,21.985 L 89.864,21.985 C 89.852,21.604 89.914,21.238 90.05,20.885 C 90.268,20.305 90.617,19.735 91.098,19.173 C 91.578,18.611 92.268,17.962 93.168,17.225 C 94.564,16.073 95.51,15.162 96.008,14.492 C 96.506,13.822 96.755,13.188 96.755,12.589 C 96.755,11.963 96.53,11.435 96.08,11.005 C 95.63,10.575 95.043,10.36 94.32,10.36 C 93.554,10.36 92.943,10.589 92.484,11.048 C 92.025,11.506 91.793,12.142 91.787,12.953 L 90.162,12.781 C 90.273,11.566 90.693,10.639 91.422,10.002 C 92.15,9.365 93.128,9.047 94.356,9.047 C 95.595,9.047 96.576,9.39 97.298,10.076 C 98.02,10.762 98.381,11.611 98.381,12.626 C 98.381,13.143 98.275,13.649 98.064,14.147 C 97.853,14.645 97.501,15.169 97.011,15.721 C 96.52,16.272 95.707,17.029 94.571,17.99 C 93.62,18.787 93.009,19.328 92.738,19.611 C 92.467,19.896 92.242,20.181 92.065,20.468 L 98.395,20.468 L 98.395,20.469 z"/></g><g id="g13" transform="matrix(0.95,0,0,0.95,9.015625,6.8357)"><path id="path15" d="M 99.722,9.119 C 99.722,6.267 100.488,4.034 102.02,2.42 C 103.552,0.807 105.53,0 107.953,0 C 109.54,0 110.97,0.379 112.244,1.137 C 113.518,1.895 114.489,2.952 115.158,4.308 C 115.826,5.664 116.16,7.202 116.16,8.92 C 116.16,10.662 115.808,12.222 115.105,13.597 C 114.401,14.973 113.405,16.014 112.115,16.721 C 110.825,17.428 109.434,17.782 107.941,17.782 C 106.323,17.782 104.877,17.391 103.603,16.61 C 102.329,15.829 101.364,14.762 100.707,13.41 C 100.05,12.058 99.722,10.627 99.722,9.119 z M 102.066,9.148 C 102.066,11.218 102.623,12.849 103.737,14.041 C 104.851,15.233 106.249,15.828 107.929,15.828 C 109.641,15.828 111.05,15.226 112.157,14.023 C 113.263,12.82 113.816,11.113 113.816,8.902 C 113.816,7.504 113.58,6.283 113.107,5.24 C 112.634,4.197 111.942,3.388 111.031,2.814 C 110.12,2.24 109.098,1.953 107.965,1.953 C 106.355,1.953 104.969,2.506 103.808,3.611 C 102.647,4.716 102.066,6.563 102.066,9.148 z"/><path id="path17" d="M 119.171,17.484 L 119.171,0.297 L 121.452,0.297 L 121.452,7.36 L 130.343,7.36 L 130.343,0.297 L 132.624,0.297 L 132.624,17.485 L 130.343,17.485 L 130.343,9.391 L 121.452,9.391 L 121.452,17.485 L 119.171,17.485 L 119.171,17.484 z"/></g><path id="rect19" d="M 69.352975,25.868 L 70.967976,25.868 L 70.967976,52.183001 L 69.352975,52.183001 L 69.352975,25.868 z"/><path id="polygon21" d="M 70.967975,89.0905 L 70.160475,89.89895 L 69.352975,89.0905 L 69.352975,52.183 L 70.967975,52.183 L 70.967975,89.0905 z"/><path id="polygon23" d="M 70.967975,126.758 L 70.160475,127.5655 L 69.352975,126.758 L 69.352975,90.7055 L 70.160475,89.89895 L 70.967975,90.7055 L 70.967975,126.758 z"/><path id="polygon25" d="M 70.967975,164.47395 L 70.160475,165.2805 L 69.352975,164.47395 L 69.352975,128.37395 L 70.160475,127.5655 L 70.967975,128.37395 L 70.967975,164.47395 z"/><g id="g27" transform="matrix(0.95,0,0,0.95,9.015625,6.8357)"><path id="path29" d="M 69.856,209.907 L 72.137,210.481 C 71.661,212.351 70.804,213.777 69.568,214.758 C 68.331,215.74 66.818,216.231 65.031,216.231 C 63.181,216.231 61.677,215.854 60.518,215.099 C 59.359,214.344 58.477,213.252 57.872,211.821 C 57.267,210.39 56.965,208.854 56.965,207.212 C 56.965,205.421 57.306,203.859 57.989,202.526 C 58.672,201.192 59.643,200.18 60.904,199.488 C 62.164,198.796 63.55,198.45 65.064,198.45 C 66.781,198.45 68.224,198.888 69.394,199.764 C 70.565,200.641 71.38,201.873 71.84,203.461 L 69.606,203.988 C 69.208,202.738 68.631,201.828 67.875,201.258 C 67.118,200.688 66.166,200.403 65.02,200.403 C 63.702,200.403 62.6,200.719 61.714,201.352 C 60.829,201.985 60.207,202.834 59.848,203.901 C 59.489,204.968 59.31,206.067 59.31,207.2 C 59.31,208.661 59.522,209.936 59.947,211.026 C 60.372,212.116 61.032,212.93 61.929,213.469 C 62.826,214.008 63.796,214.278 64.841,214.278 C 66.112,214.278 67.187,213.911 68.068,213.176 C 68.949,212.441 69.544,211.353 69.856,209.907 z"/><path id="path31" d="M 75.032,215.935 L 75.032,198.747 L 77.313,198.747 L 77.313,205.81 L 86.204,205.81 L 86.204,198.747 L 88.485,198.747 L 88.485,215.935 L 86.204,215.935 L 86.204,207.841 L 77.313,207.841 L 77.313,215.935 L 75.032,215.935 z"/></g><g id="g33" transform="matrix(0.95,0,0,0.95,9.015625,6.8357)"><path id="path35" d="M 98.395,218.919 L 98.395,220.435 L 89.864,220.435 C 89.852,220.054 89.914,219.688 90.05,219.335 C 90.268,218.755 90.617,218.185 91.098,217.623 C 91.578,217.061 92.268,216.412 93.168,215.675 C 94.564,214.523 95.51,213.612 96.008,212.942 C 96.506,212.272 96.755,211.638 96.755,211.039 C 96.755,210.413 96.53,209.885 96.08,209.455 C 95.63,209.025 95.043,208.81 94.32,208.81 C 93.554,208.81 92.943,209.039 92.484,209.498 C 92.025,209.956 91.793,210.592 91.787,211.403 L 90.162,211.231 C 90.273,210.016 90.693,209.089 91.422,208.452 C 92.15,207.815 93.128,207.497 94.356,207.497 C 95.595,207.497 96.576,207.84 97.298,208.526 C 98.02,209.212 98.381,210.061 98.381,211.076 C 98.381,211.593 98.275,212.099 98.064,212.597 C 97.853,213.095 97.501,213.619 97.011,214.171 C 96.52,214.722 95.707,215.479 94.571,216.44 C 93.62,217.237 93.009,217.778 92.738,218.061 C 92.467,218.346 92.242,218.631 92.065,218.918 L 98.395,218.918 L 98.395,218.919 z"/></g><g id="g37" transform="matrix(0.95,0,0,0.95,9.015625,6.8357)"><path id="path39" d="M 99.722,207.569 C 99.722,204.717 100.488,202.484 102.02,200.87 C 103.552,199.257 105.53,198.45 107.953,198.45 C 109.54,198.45 110.97,198.829 112.244,199.587 C 113.518,200.345 114.489,201.402 115.158,202.758 C 115.826,204.114 116.16,205.652 116.16,207.37 C 116.16,209.112 115.808,210.672 115.105,212.047 C 114.401,213.423 113.405,214.464 112.115,215.171 C 110.825,215.878 109.434,216.232 107.941,216.232 C 106.323,216.232 104.877,215.841 103.603,215.06 C 102.329,214.279 101.364,213.212 100.707,211.86 C 100.05,210.508 99.722,209.077 99.722,207.569 z M 102.066,207.599 C 102.066,209.669 102.623,211.3 103.737,212.492 C 104.851,213.684 106.249,214.279 107.929,214.279 C 109.641,214.279 111.05,213.677 112.157,212.474 C 113.263,211.271 113.816,209.564 113.816,207.353 C 113.816,205.955 113.58,204.734 113.107,203.691 C 112.634,202.648 111.942,201.839 111.031,201.265 C 110.12,200.691 109.098,200.404 107.965,200.404 C 106.355,200.404 104.969,200.957 103.808,202.062 C 102.647,203.167 102.066,205.013 102.066,207.599 z"/><path id="path41" d="M 119.171,215.935 L 119.171,198.747 L 121.452,198.747 L 121.452,205.81 L 130.343,205.81 L 130.343,198.747 L 132.624,198.747 L 132.624,215.935 L 130.343,215.935 L 130.343,207.841 L 121.452,207.841 L 121.452,215.935 L 119.171,215.935 z"/></g><path id="polygon43" d="M 70.967975,193.21145 L 69.352975,193.21145 L 69.352975,166.08895 L 70.160475,165.2805 L 70.967975,166.08895 L 70.967975,193.21145 z"/><g id="g45" transform="matrix(0.95,0,0,0.95,9.015625,6.8357)"><path id="path47" d="M 95.819,48.819 C 95.819,45.967 96.585,43.734 98.117,42.12 C 99.649,40.507 101.627,39.7 104.05,39.7 C 105.637,39.7 107.067,40.079 108.341,40.837 C 109.615,41.595 110.586,42.652 111.255,44.008 C 111.923,45.364 112.257,46.902 112.257,48.62 C 112.257,50.362 111.905,51.922 111.202,53.297 C 110.498,54.673 109.502,55.714 108.212,56.421 C 106.922,57.128 105.531,57.482 104.038,57.482 C 102.42,57.482 100.974,57.091 99.7,56.31 C 98.426,55.529 97.461,54.462 96.804,53.11 C 96.147,51.758 95.819,50.327 95.819,48.819 z M 98.163,48.849 C 98.163,50.919 98.72,52.55 99.834,53.742 C 100.948,54.934 102.346,55.529 104.026,55.529 C 105.738,55.529 107.147,54.927 108.254,53.724 C 109.36,52.521 109.913,50.814 109.913,48.603 C 109.913,47.205 109.677,45.984 109.204,44.941 C 108.731,43.898 108.039,43.089 107.128,42.515 C 106.217,41.941 105.195,41.654 104.062,41.654 C 102.452,41.654 101.066,42.207 99.905,43.312 C 98.744,44.417 98.163,46.263 98.163,48.849 z"/></g><path id="rect49" d="M 70.160474,48.573951 L 97.852974,48.573951 L 97.852974,50.188951 L 70.160474,50.188951 L 70.160474,48.573951 z"/><path id="rect51" d="M 70.160474,54.226448 L 97.852974,54.226448 L 97.852974,55.840498 L 70.160474,55.840498 L 70.160474,54.226448 z"/><g id="g53" transform="matrix(0.95,0,0,0.95,9.015625,6.8357)"><path id="path55" d="M 95.819,88.52 C 95.819,85.668 96.585,83.435 98.117,81.821 C 99.649,80.208 101.627,79.401 104.05,79.401 C 105.637,79.401 107.067,79.78 108.341,80.538 C 109.615,81.296 110.586,82.353 111.255,83.709 C 111.923,85.065 112.257,86.603 112.257,88.321 C 112.257,90.063 111.905,91.623 111.202,92.998 C 110.498,94.374 109.502,95.415 108.212,96.122 C 106.922,96.829 105.531,97.183 104.038,97.183 C 102.42,97.183 100.974,96.792 99.7,96.011 C 98.426,95.23 97.461,94.163 96.804,92.811 C 96.147,91.458 95.819,90.027 95.819,88.52 z M 98.163,88.549 C 98.163,90.619 98.72,92.25 99.834,93.442 C 100.948,94.634 102.346,95.229 104.026,95.229 C 105.738,95.229 107.147,94.627 108.254,93.424 C 109.36,92.221 109.913,90.514 109.913,88.303 C 109.913,86.905 109.677,85.684 109.204,84.641 C 108.731,83.598 108.039,82.789 107.128,82.215 C 106.217,81.641 105.195,81.354 104.062,81.354 C 102.452,81.354 101.066,81.907 99.905,83.012 C 98.744,84.117 98.163,85.963 98.163,88.549 z"/><path id="path57" d="M 115.268,96.885 L 115.268,79.697 L 117.549,79.697 L 117.549,86.76 L 126.44,86.76 L 126.44,79.697 L 128.721,79.697 L 128.721,96.885 L 126.44,96.885 L 126.44,88.791 L 117.549,88.791 L 117.549,96.885 L 115.268,96.885 z"/></g><path id="polygon59" d="M 97.852975,89.0905 L 97.852975,90.7055 L 70.967975,90.7055 L 70.160475,89.89895 L 70.967975,89.0905 L 97.852975,89.0905 z"/><g id="g61" transform="matrix(0.95,0,0,0.95,9.015625,6.8357)"><path id="path63" d="M 18,96.885 L 18,79.697 L 20.281,79.697 L 20.281,86.76 L 29.172,86.76 L 29.172,79.697 L 31.453,79.697 L 31.453,96.885 L 29.172,96.885 L 29.172,88.791 L 20.281,88.791 L 20.281,96.885 L 18,96.885 z"/></g><path id="polygon65" d="M 40.995475,90.7055 L 40.995475,89.0905 L 69.352975,89.0905 L 70.160475,89.89895 L 69.352975,90.7055 L 40.995475,90.7055 z"/><g id="g67" transform="matrix(0.95,0,0,0.95,9.015625,6.8357)"><path id="path69" d="M 97.35,136.534 L 97.35,119.346 L 99.631,119.346 L 99.631,126.409 L 108.522,126.409 L 108.522,119.346 L 110.803,119.346 L 110.803,136.534 L 108.522,136.534 L 108.522,128.44 L 99.631,128.44 L 99.631,136.534 L 97.35,136.534 z"/></g><path id="polygon71" d="M 99.372975,126.758 L 99.372975,128.37395 L 70.967975,128.37395 L 70.160475,127.5655 L 70.967975,126.758 L 99.372975,126.758 z"/><g id="g73" transform="matrix(0.95,0,0,0.95,9.015625,6.8357)"><path id="path75" d="M 0,136.534 L 0,119.346 L 2.281,119.346 L 2.281,126.409 L 11.172,126.409 L 11.172,119.346 L 13.453,119.346 L 13.453,136.534 L 11.172,136.534 L 11.172,128.44 L 2.281,128.44 L 2.281,136.534 L 0,136.534 z"/><path id="path77" d="M 16.551,128.169 C 16.551,125.317 17.317,123.084 18.849,121.47 C 20.381,119.857 22.359,119.05 24.782,119.05 C 26.369,119.05 27.799,119.429 29.073,120.187 C 30.347,120.945 31.318,122.002 31.987,123.358 C 32.655,124.714 32.989,126.252 32.989,127.97 C 32.989,129.712 32.637,131.272 31.934,132.647 C 31.23,134.023 30.234,135.064 28.944,135.771 C 27.654,136.478 26.263,136.832 24.77,136.832 C 23.152,136.832 21.706,136.441 20.432,135.66 C 19.158,134.879 18.193,133.812 17.536,132.46 C 16.879,131.107 16.551,129.677 16.551,128.169 z M 18.895,128.198 C 18.895,130.268 19.452,131.899 20.566,133.091 C 21.68,134.283 23.078,134.878 24.758,134.878 C 26.47,134.878 27.879,134.276 28.986,133.073 C 30.092,131.87 30.645,130.163 30.645,127.952 C 30.645,126.554 30.409,125.333 29.936,124.29 C 29.463,123.247 28.771,122.438 27.86,121.864 C 26.949,121.29 25.927,121.003 24.794,121.003 C 23.184,121.003 21.798,121.556 20.637,122.661 C 19.476,123.766 18.895,125.612 18.895,128.198 z"/></g><path id="polygon79" d="M 42.420475,128.37395 L 42.420475,126.758 L 69.352975,126.758 L 70.160475,127.5655 L 69.352975,128.37395 L 42.420475,128.37395 z"/><g id="g81" transform="matrix(0.95,0,0,0.95,9.015625,6.8357)"><path id="path83" d="M 95.819,167.869 C 95.819,165.017 96.585,162.784 98.117,161.17 C 99.649,159.557 101.627,158.75 104.05,158.75 C 105.637,158.75 107.067,159.129 108.341,159.887 C 109.615,160.645 110.586,161.702 111.255,163.058 C 111.923,164.414 112.257,165.952 112.257,167.67 C 112.257,169.412 111.905,170.972 111.202,172.347 C 110.498,173.723 109.502,174.764 108.212,175.471 C 106.922,176.178 105.531,176.532 104.038,176.532 C 102.42,176.532 100.974,176.141 99.7,175.36 C 98.426,174.579 97.461,173.512 96.804,172.16 C 96.147,170.808 95.819,169.377 95.819,167.869 z M 98.163,167.898 C 98.163,169.968 98.72,171.599 99.834,172.791 C 100.948,173.983 102.346,174.578 104.026,174.578 C 105.738,174.578 107.147,173.976 108.254,172.773 C 109.36,171.57 109.913,169.863 109.913,167.652 C 109.913,166.254 109.677,165.033 109.204,163.99 C 108.731,162.947 108.039,162.138 107.128,161.564 C 106.217,160.99 105.195,160.703 104.062,160.703 C 102.452,160.703 101.066,161.256 99.905,162.361 C 98.744,163.466 98.163,165.313 98.163,167.898 z"/><path id="path85" d="M 115.268,176.234 L 115.268,159.046 L 117.549,159.046 L 117.549,166.109 L 126.44,166.109 L 126.44,159.046 L 128.721,159.046 L 128.721,176.234 L 126.44,176.234 L 126.44,168.14 L 117.549,168.14 L 117.549,176.234 L 115.268,176.234 z"/></g><path id="polygon87" d="M 97.852975,164.47395 L 97.852975,166.08895 L 70.967975,166.08895 L 70.160475,165.2805 L 70.967975,164.47395 L 97.852975,164.47395 z"/><g id="g89" transform="matrix(0.95,0,0,0.95,9.015625,6.8357)"><path id="path91" d="M 18,176.234 L 18,159.046 L 20.281,159.046 L 20.281,166.109 L 29.172,166.109 L 29.172,159.046 L 31.453,159.046 L 31.453,176.234 L 29.172,176.234 L 29.172,168.14 L 20.281,168.14 L 20.281,176.234 L 18,176.234 z"/></g><path id="polygon93" d="M 40.995475,166.08895 L 40.995475,164.47395 L 69.352975,164.47395 L 70.160475,165.2805 L 69.352975,166.08895 L 40.995475,166.08895 z"/><g id="g95" transform="matrix(0.95,0,0,0.95,9.015625,6.8357)"><path id="path97" d="M 297.856,11.457 L 300.137,12.031 C 299.661,13.901 298.804,15.327 297.568,16.308 C 296.331,17.29 294.818,17.781 293.031,17.781 C 291.181,17.781 289.677,17.404 288.518,16.649 C 287.359,15.894 286.477,14.802 285.872,13.371 C 285.267,11.94 284.965,10.404 284.965,8.762 C 284.965,6.971 285.306,5.409 285.989,4.076 C 286.671,2.742 287.642,1.73 288.903,1.038 C 290.163,0.346 291.549,-2.8865799e-015 293.063,-2.8865799e-015 C 294.78,-2.8865799e-015 296.223,0.438 297.393,1.314 C 298.564,2.191 299.379,3.423 299.839,5.011 L 297.605,5.538 C 297.208,4.288 296.629,3.378 295.874,2.808 C 295.117,2.238 294.165,1.953 293.019,1.953 C 291.701,1.953 290.599,2.269 289.713,2.902 C 288.827,3.535 288.206,4.384 287.847,5.451 C 287.488,6.518 287.309,7.617 287.309,8.75 C 287.309,10.211 287.521,11.486 287.947,12.576 C 288.371,13.666 289.032,14.48 289.928,15.019 C 290.824,15.558 291.795,15.828 292.839,15.828 C 294.11,15.828 295.186,15.461 296.067,14.726 C 296.948,13.991 297.545,12.902 297.856,11.457 z"/><path id="path99" d="M 303.032,17.484 L 303.032,0.297 L 305.313,0.297 L 305.313,7.36 L 314.204,7.36 L 314.204,0.297 L 316.485,0.297 L 316.485,17.485 L 314.204,17.485 L 314.204,9.391 L 305.313,9.391 L 305.313,17.485 L 303.032,17.485 L 303.032,17.484 z"/></g><g id="g101" transform="matrix(0.95,0,0,0.95,9.015625,6.8357)"><path id="path103" d="M 326.395,20.469 L 326.395,21.985 L 317.864,21.985 C 317.852,21.604 317.915,21.238 318.05,20.885 C 318.269,20.305 318.618,19.735 319.099,19.173 C 319.58,18.611 320.269,17.962 321.169,17.225 C 322.564,16.073 323.511,15.162 324.009,14.492 C 324.507,13.822 324.755,13.188 324.755,12.589 C 324.755,11.963 324.53,11.435 324.08,11.005 C 323.63,10.575 323.044,10.36 322.319,10.36 C 321.553,10.36 320.942,10.589 320.483,11.048 C 320.024,11.506 319.792,12.142 319.786,12.953 L 318.161,12.781 C 318.272,11.566 318.692,10.639 319.421,10.002 C 320.15,9.365 321.128,9.047 322.355,9.047 C 323.594,9.047 324.576,9.39 325.297,10.076 C 326.019,10.762 326.38,11.611 326.38,12.626 C 326.38,13.143 326.275,13.649 326.064,14.147 C 325.852,14.645 325.501,15.169 325.011,15.721 C 324.519,16.272 323.706,17.029 322.57,17.99 C 321.62,18.787 321.009,19.328 320.738,19.611 C 320.467,19.896 320.242,20.181 320.064,20.468 L 326.395,20.468 L 326.395,20.469 z"/></g><g id="g105" transform="matrix(0.95,0,0,0.95,9.015625,6.8357)"><path id="path107" d="M 327.723,9.119 C 327.723,6.267 328.489,4.034 330.021,2.42 C 331.553,0.807 333.531,0 335.954,0 C 337.541,0 338.972,0.379 340.245,1.137 C 341.518,1.895 342.49,2.952 343.159,4.308 C 343.827,5.664 344.161,7.202 344.161,8.92 C 344.161,10.662 343.809,12.222 343.106,13.597 C 342.402,14.973 341.405,16.014 340.116,16.721 C 338.826,17.428 337.434,17.782 335.942,17.782 C 334.324,17.782 332.878,17.391 331.604,16.61 C 330.33,15.829 329.365,14.762 328.708,13.41 C 328.051,12.058 327.723,10.627 327.723,9.119 z M 330.066,9.148 C 330.066,11.218 330.623,12.849 331.737,14.041 C 332.851,15.233 334.249,15.828 335.929,15.828 C 337.641,15.828 339.05,15.226 340.157,14.023 C 341.264,12.82 341.816,11.113 341.816,8.902 C 341.816,7.504 341.58,6.283 341.107,5.24 C 340.633,4.197 339.941,3.388 339.031,2.814 C 338.121,2.24 337.098,1.953 335.965,1.953 C 334.355,1.953 332.969,2.506 331.808,3.611 C 330.647,4.716 330.066,6.563 330.066,9.148 z"/><path id="path109" d="M 347.172,17.484 L 347.172,0.297 L 349.453,0.297 L 349.453,7.36 L 358.344,7.36 L 358.344,0.297 L 360.625,0.297 L 360.625,17.485 L 358.344,17.485 L 358.344,9.391 L 349.453,9.391 L 349.453,17.485 L 347.172,17.485 L 347.172,17.484 z"/></g><path id="rect111" d="M 285.95297,25.868 L 287.56797,25.868 L 287.56797,52.183001 L 285.95297,52.183001 L 285.95297,25.868 z"/><path id="polygon113" d="M 287.56797,89.0905 L 286.76047,89.89895 L 285.95297,89.0905 L 285.95297,52.183 L 287.56797,52.183 L 287.56797,89.0905 z"/><path id="polygon115" d="M 287.56797,126.758 L 286.76047,127.5655 L 285.95297,126.758 L 285.95297,90.7055 L 286.76047,89.89895 L 287.56797,90.7055 L 287.56797,126.758 z"/><path id="polygon117" d="M 287.56797,164.47395 L 286.76047,165.2805 L 285.95297,164.47395 L 285.95297,128.37395 L 286.76047,127.5655 L 287.56797,128.37395 L 287.56797,164.47395 z"/><g id="g119" transform="matrix(0.95,0,0,0.95,9.015625,6.8357)"><path id="path121" d="M 297.856,209.907 L 300.137,210.481 C 299.661,212.351 298.804,213.777 297.568,214.758 C 296.331,215.74 294.818,216.231 293.031,216.231 C 291.181,216.231 289.677,215.854 288.518,215.099 C 287.359,214.344 286.477,213.252 285.872,211.821 C 285.267,210.39 284.965,208.854 284.965,207.212 C 284.965,205.421 285.306,203.859 285.989,202.526 C 286.671,201.192 287.642,200.18 288.903,199.488 C 290.163,198.796 291.549,198.45 293.063,198.45 C 294.78,198.45 296.223,198.888 297.393,199.764 C 298.564,200.641 299.379,201.873 299.839,203.461 L 297.605,203.988 C 297.208,202.738 296.629,201.828 295.874,201.258 C 295.117,200.688 294.165,200.403 293.019,200.403 C 291.701,200.403 290.599,200.719 289.713,201.352 C 288.827,201.985 288.206,202.834 287.847,203.901 C 287.488,204.968 287.309,206.067 287.309,207.2 C 287.309,208.661 287.521,209.936 287.947,211.026 C 288.371,212.116 289.032,212.93 289.928,213.469 C 290.824,214.008 291.795,214.278 292.839,214.278 C 294.11,214.278 295.186,213.911 296.067,213.176 C 296.948,212.441 297.545,211.353 297.856,209.907 z"/><path id="path123" d="M 303.032,215.935 L 303.032,198.747 L 305.313,198.747 L 305.313,205.81 L 314.204,205.81 L 314.204,198.747 L 316.485,198.747 L 316.485,215.935 L 314.204,215.935 L 314.204,207.841 L 305.313,207.841 L 305.313,215.935 L 303.032,215.935 z"/></g><g id="g125" transform="matrix(0.95,0,0,0.95,9.015625,6.8357)"><path id="path127" d="M 326.395,218.919 L 326.395,220.435 L 317.864,220.435 C 317.852,220.054 317.915,219.688 318.05,219.335 C 318.269,218.755 318.618,218.185 319.099,217.623 C 319.58,217.061 320.269,216.412 321.169,215.675 C 322.564,214.523 323.511,213.612 324.009,212.942 C 324.507,212.272 324.755,211.638 324.755,211.039 C 324.755,210.413 324.53,209.885 324.08,209.455 C 323.63,209.025 323.044,208.81 322.319,208.81 C 321.553,208.81 320.942,209.039 320.483,209.498 C 320.024,209.956 319.792,210.592 319.786,211.403 L 318.161,211.231 C 318.272,210.016 318.692,209.089 319.421,208.452 C 320.15,207.815 321.128,207.497 322.355,207.497 C 323.594,207.497 324.576,207.84 325.297,208.526 C 326.019,209.212 326.38,210.061 326.38,211.076 C 326.38,211.593 326.275,212.099 326.064,212.597 C 325.852,213.095 325.501,213.619 325.011,214.171 C 324.519,214.722 323.706,215.479 322.57,216.44 C 321.62,217.237 321.009,217.778 320.738,218.061 C 320.467,218.346 320.242,218.631 320.064,218.918 L 326.395,218.918 L 326.395,218.919 z"/></g><g id="g129" transform="matrix(0.95,0,0,0.95,9.015625,6.8357)"><path id="path131" d="M 327.723,207.569 C 327.723,204.717 328.489,202.484 330.021,200.87 C 331.553,199.257 333.531,198.45 335.954,198.45 C 337.541,198.45 338.972,198.829 340.245,199.587 C 341.518,200.345 342.49,201.402 343.159,202.758 C 343.827,204.114 344.161,205.652 344.161,207.37 C 344.161,209.112 343.809,210.672 343.106,212.047 C 342.402,213.423 341.405,214.464 340.116,215.171 C 338.826,215.878 337.434,216.232 335.942,216.232 C 334.324,216.232 332.878,215.841 331.604,215.06 C 330.33,214.279 329.365,213.212 328.708,211.86 C 328.051,210.508 327.723,209.077 327.723,207.569 z M 330.066,207.599 C 330.066,209.669 330.623,211.3 331.737,212.492 C 332.851,213.684 334.249,214.279 335.929,214.279 C 337.641,214.279 339.05,213.677 340.157,212.474 C 341.264,211.271 341.816,209.564 341.816,207.353 C 341.816,205.955 341.58,204.734 341.107,203.691 C 340.633,202.648 339.941,201.839 339.031,201.265 C 338.121,200.691 337.098,200.404 335.965,200.404 C 334.355,200.404 332.969,200.957 331.808,202.062 C 330.647,203.167 330.066,205.013 330.066,207.599 z"/><path id="path133" d="M 347.172,215.935 L 347.172,198.747 L 349.453,198.747 L 349.453,205.81 L 358.344,205.81 L 358.344,198.747 L 360.625,198.747 L 360.625,215.935 L 358.344,215.935 L 358.344,207.841 L 349.453,207.841 L 349.453,215.935 L 347.172,215.935 z"/></g><path id="polygon135" d="M 287.56797,193.21145 L 285.95297,193.21145 L 285.95297,166.08895 L 286.76047,165.2805 L 287.56797,166.08895 L 287.56797,193.21145 z"/><g id="g137" transform="matrix(0.95,0,0,0.95,9.015625,6.8357)"><path id="path139" d="M 323.818,48.819 C 323.818,45.967 324.584,43.734 326.117,42.12 C 327.648,40.507 329.627,39.7 332.049,39.7 C 333.637,39.7 335.067,40.079 336.34,40.837 C 337.614,41.595 338.586,42.652 339.254,44.008 C 339.922,45.364 340.256,46.902 340.256,48.62 C 340.256,50.362 339.904,51.922 339.201,53.297 C 338.498,54.673 337.501,55.714 336.211,56.421 C 334.922,57.128 333.53,57.482 332.037,57.482 C 330.42,57.482 328.973,57.091 327.699,56.31 C 326.425,55.529 325.461,54.462 324.803,53.11 C 324.146,51.758 323.818,50.327 323.818,48.819 z M 326.162,48.849 C 326.162,50.919 326.719,52.55 327.834,53.742 C 328.947,54.933 330.346,55.529 332.025,55.529 C 333.738,55.529 335.146,54.927 336.254,53.724 C 337.359,52.521 337.912,50.814 337.912,48.603 C 337.912,47.205 337.676,45.984 337.203,44.941 C 336.73,43.898 336.038,43.089 335.127,42.515 C 334.217,41.941 333.195,41.654 332.061,41.654 C 330.452,41.654 329.065,42.207 327.905,43.312 C 326.742,44.417 326.162,46.263 326.162,48.849 z"/></g><path id="rect141" d="M 286.76048,48.573951 L 314.45203,48.573951 L 314.45203,50.188951 L 286.76048,50.188951 L 286.76048,48.573951 z"/><path id="rect143" d="M 286.76048,54.226448 L 314.45203,54.226448 L 314.45203,55.840498 L 286.76048,55.840498 L 286.76048,54.226448 z"/><g id="g145" transform="matrix(0.95,0,0,0.95,9.015625,6.8357)"><path id="path147" d="M 325.35,96.885 L 325.35,79.697 L 327.631,79.697 L 327.631,86.76 L 336.522,86.76 L 336.522,79.697 L 338.803,79.697 L 338.803,96.885 L 336.522,96.885 L 336.522,88.791 L 327.631,88.791 L 327.631,96.885 L 325.35,96.885 z"/></g><path id="polygon149" d="M 315.97297,89.0905 L 315.97297,90.7055 L 287.56797,90.7055 L 286.76047,89.89895 L 287.56797,89.0905 L 315.97297,89.0905 z"/><g id="g151" transform="matrix(0.95,0,0,0.95,9.015625,6.8357)"><path id="path153" d="M 228,96.885 L 228,79.697 L 230.281,79.697 L 230.281,86.76 L 239.172,86.76 L 239.172,79.697 L 241.453,79.697 L 241.453,96.885 L 239.172,96.885 L 239.172,88.791 L 230.281,88.791 L 230.281,96.885 L 228,96.885 z"/><path id="path155" d="M 244.551,88.52 C 244.551,85.668 245.317,83.435 246.849,81.821 C 248.381,80.208 250.359,79.401 252.782,79.401 C 254.369,79.401 255.8,79.78 257.073,80.538 C 258.346,81.296 259.318,82.353 259.987,83.709 C 260.655,85.065 260.989,86.603 260.989,88.321 C 260.989,90.063 260.637,91.623 259.934,92.998 C 259.23,94.374 258.233,95.415 256.944,96.122 C 255.654,96.829 254.262,97.183 252.77,97.183 C 251.152,97.183 249.706,96.792 248.432,96.011 C 247.158,95.23 246.193,94.163 245.536,92.811 C 244.879,91.458 244.551,90.027 244.551,88.52 z M 246.895,88.549 C 246.895,90.619 247.452,92.25 248.566,93.442 C 249.68,94.634 251.078,95.229 252.758,95.229 C 254.47,95.229 255.879,94.627 256.986,93.424 C 258.093,92.221 258.645,90.514 258.645,88.303 C 258.645,86.905 258.409,85.684 257.936,84.641 C 257.462,83.598 256.77,82.789 255.86,82.215 C 254.95,81.641 253.927,81.354 252.794,81.354 C 251.184,81.354 249.798,81.907 248.637,83.012 C 247.476,84.117 246.895,85.963 246.895,88.549 z"/></g><path id="polygon157" d="M 259.01952,90.7055 L 259.01952,89.0905 L 285.95297,89.0905 L 286.76047,89.89895 L 285.95297,90.7055 L 259.01952,90.7055 z"/><g id="g159" transform="matrix(0.95,0,0,0.95,9.015625,6.8357)"><path id="path161" d="M 323.818,128.169 C 323.818,125.317 324.584,123.084 326.117,121.47 C 327.648,119.857 329.627,119.05 332.049,119.05 C 333.637,119.05 335.067,119.429 336.34,120.187 C 337.614,120.945 338.586,122.002 339.254,123.358 C 339.922,124.714 340.256,126.252 340.256,127.97 C 340.256,129.712 339.904,131.272 339.201,132.647 C 338.498,134.023 337.501,135.064 336.211,135.771 C 334.922,136.478 333.53,136.832 332.037,136.832 C 330.42,136.832 328.973,136.441 327.699,135.66 C 326.425,134.879 325.461,133.812 324.803,132.46 C 324.146,131.107 323.818,129.677 323.818,128.169 z M 326.162,128.198 C 326.162,130.268 326.719,131.899 327.834,133.091 C 328.947,134.282 330.346,134.878 332.025,134.878 C 333.738,134.878 335.146,134.276 336.254,133.073 C 337.359,131.87 337.912,130.163 337.912,127.952 C 337.912,126.554 337.676,125.333 337.203,124.29 C 336.73,123.247 336.038,122.438 335.127,121.864 C 334.217,121.29 333.195,121.003 332.061,121.003 C 330.452,121.003 329.065,121.556 327.905,122.661 C 326.742,123.767 326.162,125.612 326.162,128.198 z"/><path id="path163" d="M 343.268,136.534 L 343.268,119.346 L 345.549,119.346 L 345.549,126.409 L 354.44,126.409 L 354.44,119.346 L 356.721,119.346 L 356.721,136.534 L 354.44,136.534 L 354.44,128.44 L 345.549,128.44 L 345.549,136.534 L 343.268,136.534 z"/></g><path id="polygon165" d="M 314.45297,126.758 L 314.45297,128.37395 L 287.56797,128.37395 L 286.76047,127.5655 L 287.56797,126.758 L 314.45297,126.758 z"/><g id="g167" transform="matrix(0.95,0,0,0.95,9.015625,6.8357)"><path id="path169" d="M 246,136.534 L 246,119.346 L 248.281,119.346 L 248.281,126.409 L 257.172,126.409 L 257.172,119.346 L 259.453,119.346 L 259.453,136.534 L 257.172,136.534 L 257.172,128.44 L 248.281,128.44 L 248.281,136.534 L 246,136.534 z"/></g><path id="polygon171" d="M 257.59452,128.37395 L 257.59452,126.758 L 285.95297,126.758 L 286.76047,127.5655 L 285.95297,128.37395 L 257.59452,128.37395 z"/><g id="g173" transform="matrix(0.95,0,0,0.95,9.015625,6.8357)"><path id="path175" d="M 325.35,176.234 L 325.35,159.046 L 327.631,159.046 L 327.631,166.109 L 336.522,166.109 L 336.522,159.046 L 338.803,159.046 L 338.803,176.234 L 336.522,176.234 L 336.522,168.14 L 327.631,168.14 L 327.631,176.234 L 325.35,176.234 z"/></g><path id="polygon177" d="M 315.97297,164.47395 L 315.97297,166.08895 L 287.56797,166.08895 L 286.76047,165.2805 L 287.56797,164.47395 L 315.97297,164.47395 z"/><g id="g179" transform="matrix(0.95,0,0,0.95,9.015625,6.8357)"><path id="path181" d="M 228,176.234 L 228,159.046 L 230.281,159.046 L 230.281,166.109 L 239.172,166.109 L 239.172,159.046 L 241.453,159.046 L 241.453,176.234 L 239.172,176.234 L 239.172,168.14 L 230.281,168.14 L 230.281,176.234 L 228,176.234 z"/><path id="path183" d="M 244.551,167.869 C 244.551,165.017 245.317,162.784 246.849,161.17 C 248.381,159.557 250.359,158.75 252.782,158.75 C 254.369,158.75 255.8,159.129 257.073,159.887 C 258.346,160.645 259.318,161.702 259.987,163.058 C 260.655,164.414 260.989,165.952 260.989,167.67 C 260.989,169.412 260.637,170.972 259.934,172.347 C 259.23,173.723 258.233,174.764 256.944,175.471 C 255.654,176.178 254.262,176.532 252.77,176.532 C 251.152,176.532 249.706,176.141 248.432,175.36 C 247.158,174.579 246.193,173.512 245.536,172.16 C 244.879,170.808 244.551,169.377 244.551,167.869 z M 246.895,167.898 C 246.895,169.968 247.452,171.599 248.566,172.791 C 249.68,173.983 251.078,174.578 252.758,174.578 C 254.47,174.578 255.879,173.976 256.986,172.773 C 258.093,171.57 258.645,169.863 258.645,167.652 C 258.645,166.254 258.409,165.033 257.936,163.99 C 257.462,162.947 256.77,162.138 255.86,161.564 C 254.95,160.99 253.927,160.703 252.794,160.703 C 251.184,160.703 249.798,161.256 248.637,162.361 C 247.476,163.466 246.895,165.313 246.895,167.898 z"/></g><path id="polygon185" d="M 259.01952,166.08895 L 259.01952,164.47395 L 285.95297,164.47395 L 286.76047,165.2805 L 285.95297,166.08895 L 259.01952,166.08895 z"/><g id="g187" transform="matrix(0.95,0,0,0.95,9.015625,6.8357)"><path id="path189" d="M 8.147,273.135 L 8.147,255.947 L 14.058,255.947 C 15.393,255.947 16.411,256.029 17.114,256.193 C 18.097,256.42 18.936,256.83 19.631,257.424 C 20.536,258.19 21.213,259.169 21.662,260.361 C 22.11,261.553 22.335,262.916 22.335,264.447 C 22.335,265.752 22.183,266.909 21.878,267.918 C 21.574,268.926 21.183,269.76 20.708,270.421 C 20.231,271.081 19.711,271.602 19.145,271.981 C 18.579,272.36 17.896,272.647 17.097,272.842 C 16.298,273.037 15.378,273.135 14.34,273.135 L 8.147,273.135 z M 10.428,271.104 L 14.087,271.104 C 15.217,271.104 16.103,270.999 16.746,270.788 C 17.389,270.577 17.901,270.28 18.283,269.897 C 18.821,269.358 19.24,268.633 19.54,267.723 C 19.84,266.813 19.99,265.709 19.99,264.412 C 19.99,262.615 19.696,261.234 19.107,260.269 C 18.519,259.304 17.804,258.658 16.962,258.33 C 16.354,258.096 15.376,257.978 14.028,257.978 L 10.427,257.978 L 10.427,271.104 L 10.428,271.104 z"/><path id="path191" d="M 24.37,267.979 L 24.37,265.854 L 30.87,265.854 L 30.87,267.979 L 24.37,267.979 z"/><path id="path193" d="M 32.706,267.619 L 34.847,267.431 C 34.949,268.292 35.185,268.998 35.556,269.55 C 35.927,270.103 36.504,270.548 37.285,270.889 C 38.066,271.23 38.946,271.4 39.923,271.4 C 40.791,271.4 41.557,271.271 42.221,271.012 C 42.885,270.754 43.38,270.4 43.704,269.949 C 44.028,269.499 44.19,269.008 44.19,268.475 C 44.19,267.935 44.032,267.463 43.715,267.06 C 43.398,266.657 42.88,266.319 42.161,266.044 C 41.7,265.864 40.679,265.584 39.099,265.205 C 37.519,264.825 36.413,264.467 35.781,264.131 C 34.961,263.7 34.35,263.167 33.948,262.529 C 33.546,261.891 33.345,261.177 33.345,260.388 C 33.345,259.519 33.591,258.708 34.084,257.953 C 34.576,257.198 35.296,256.625 36.242,256.234 C 37.188,255.842 38.24,255.647 39.397,255.647 C 40.671,255.647 41.795,255.852 42.769,256.263 C 43.743,256.674 44.492,257.279 45.015,258.076 C 45.539,258.874 45.821,259.777 45.86,260.787 L 43.672,260.959 C 43.555,259.867 43.157,259.041 42.482,258.483 C 41.805,257.925 40.806,257.646 39.485,257.646 C 38.109,257.646 37.105,257.899 36.476,258.404 C 35.846,258.909 35.532,259.517 35.532,260.229 C 35.532,260.848 35.755,261.357 36.201,261.755 C 36.639,262.154 37.782,262.564 39.632,262.983 C 41.482,263.402 42.751,263.767 43.44,264.08 C 44.442,264.542 45.182,265.127 45.66,265.834 C 46.138,266.541 46.377,267.356 46.377,268.279 C 46.377,269.194 46.115,270.056 45.592,270.865 C 45.069,271.675 44.317,272.303 43.337,272.754 C 42.357,273.203 41.253,273.428 40.027,273.428 C 38.472,273.428 37.17,273.201 36.12,272.748 C 35.069,272.295 34.245,271.613 33.648,270.703 C 33.051,269.797 32.737,268.768 32.706,267.619 z"/><path id="path195" d="M 48.417,266.908 C 48.417,264.601 49.058,262.894 50.338,261.784 C 51.408,260.861 52.713,260.4 54.251,260.4 C 55.961,260.4 57.359,260.961 58.445,262.083 C 59.531,263.205 60.073,264.755 60.073,266.732 C 60.073,268.335 59.833,269.595 59.352,270.513 C 58.872,271.432 58.173,272.145 57.255,272.654 C 56.337,273.162 55.336,273.416 54.25,273.416 C 52.508,273.416 51.101,272.857 50.027,271.739 C 48.953,270.621 48.417,269.012 48.417,266.908 z M 50.588,266.91 C 50.588,268.505 50.935,269.698 51.629,270.492 C 52.323,271.285 53.197,271.681 54.25,271.681 C 55.295,271.681 56.165,271.283 56.859,270.486 C 57.553,269.688 57.9,268.473 57.9,266.84 C 57.9,265.301 57.551,264.134 56.853,263.34 C 56.155,262.547 55.287,262.151 54.249,262.151 C 53.196,262.151 52.322,262.546 51.628,263.335 C 50.935,264.124 50.588,265.316 50.588,266.91 z"/><path id="path197" d="M 62.53,273.135 L 62.53,260.682 L 64.421,260.682 L 64.421,262.577 C 64.906,261.691 65.355,261.106 65.766,260.825 C 66.177,260.542 66.629,260.401 67.123,260.401 C 67.835,260.401 68.56,260.629 69.296,261.083 L 68.558,263.036 C 68.043,262.737 67.529,262.589 67.015,262.589 C 66.555,262.589 66.142,262.728 65.776,263.005 C 65.41,263.282 65.148,263.667 64.992,264.159 C 64.758,264.909 64.64,265.729 64.64,266.62 L 64.64,273.136 L 62.53,273.136 L 62.53,273.135 z"/><path id="path199" d="M 72.491,273.135 L 70.538,273.135 L 70.538,255.947 L 72.647,255.947 L 72.647,262.076 C 73.538,260.959 74.675,260.4 76.059,260.4 C 76.825,260.4 77.55,260.554 78.234,260.863 C 78.918,261.172 79.481,261.606 79.922,262.165 C 80.364,262.725 80.71,263.398 80.96,264.187 C 81.21,264.977 81.335,265.822 81.335,266.72 C 81.335,268.854 80.807,270.503 79.752,271.668 C 78.697,272.833 77.43,273.415 75.952,273.415 C 74.482,273.415 73.329,272.802 72.492,271.575 L 72.492,273.135 L 72.491,273.135 z M 72.459,266.814 C 72.459,268.307 72.662,269.386 73.068,270.051 C 73.732,271.138 74.631,271.681 75.763,271.681 C 76.685,271.681 77.482,271.281 78.154,270.479 C 78.826,269.677 79.162,268.484 79.162,266.896 C 79.162,265.27 78.84,264.07 78.195,263.295 C 77.55,262.52 76.771,262.134 75.857,262.134 C 74.935,262.134 74.138,262.534 73.466,263.336 C 72.794,264.138 72.459,265.298 72.459,266.814 z"/><path id="path201" d="M 83.104,266.908 C 83.104,264.601 83.745,262.894 85.025,261.784 C 86.095,260.861 87.4,260.4 88.938,260.4 C 90.648,260.4 92.046,260.961 93.132,262.083 C 94.218,263.205 94.76,264.755 94.76,266.732 C 94.76,268.335 94.52,269.595 94.039,270.513 C 93.559,271.432 92.86,272.145 91.942,272.654 C 91.024,273.162 90.023,273.416 88.937,273.416 C 87.195,273.416 85.788,272.857 84.714,271.739 C 83.64,270.621 83.104,269.012 83.104,266.908 z M 85.276,266.91 C 85.276,268.505 85.623,269.698 86.317,270.492 C 87.011,271.285 87.885,271.681 88.938,271.681 C 89.983,271.681 90.853,271.283 91.547,270.486 C 92.241,269.688 92.588,268.473 92.588,266.84 C 92.588,265.301 92.239,264.134 91.541,263.34 C 90.843,262.547 89.975,262.151 88.937,262.151 C 87.884,262.151 87.01,262.546 86.316,263.335 C 85.623,264.124 85.276,265.316 85.276,266.91 z"/><path id="path203" d="M 96.389,269.416 L 98.483,269.088 C 98.6,269.926 98.926,270.567 99.461,271.013 C 99.996,271.459 100.744,271.682 101.704,271.682 C 102.672,271.682 103.391,271.485 103.859,271.09 C 104.327,270.694 104.562,270.231 104.562,269.699 C 104.562,269.222 104.356,268.846 103.944,268.573 C 103.656,268.385 102.939,268.146 101.792,267.857 C 100.248,267.466 99.175,267.128 98.577,266.843 C 97.977,266.558 97.523,266.162 97.214,265.658 C 96.905,265.154 96.75,264.596 96.75,263.987 C 96.75,263.432 96.877,262.919 97.131,262.445 C 97.385,261.972 97.731,261.58 98.168,261.266 C 98.496,261.024 98.943,260.819 99.51,260.651 C 100.077,260.483 100.684,260.399 101.332,260.399 C 102.309,260.399 103.166,260.54 103.904,260.822 C 104.642,261.104 105.187,261.486 105.539,261.968 C 105.891,262.45 106.133,263.093 106.266,263.9 L 104.203,264.181 C 104.109,263.538 103.838,263.036 103.39,262.675 C 102.942,262.315 102.308,262.134 101.489,262.134 C 100.522,262.134 99.831,262.294 99.418,262.614 C 99.004,262.935 98.798,263.31 98.798,263.741 C 98.798,264.014 98.884,264.261 99.056,264.479 C 99.227,264.707 99.496,264.894 99.863,265.042 C 100.073,265.12 100.694,265.301 101.724,265.582 C 103.213,265.98 104.253,266.307 104.843,266.561 C 105.433,266.815 105.896,267.185 106.232,267.669 C 106.568,268.153 106.736,268.756 106.736,269.475 C 106.736,270.178 106.531,270.841 106.12,271.462 C 105.709,272.084 105.117,272.565 104.343,272.904 C 103.569,273.243 102.694,273.414 101.716,273.414 C 100.098,273.414 98.864,273.078 98.016,272.405 C 97.165,271.734 96.624,270.738 96.389,269.416 z"/><path id="path205" d="M 117.741,269.119 L 119.929,269.4 C 119.585,270.672 118.949,271.66 118.019,272.362 C 117.089,273.064 115.902,273.416 114.458,273.416 C 112.638,273.416 111.195,272.855 110.129,271.733 C 109.064,270.611 108.53,269.039 108.53,267.013 C 108.53,264.918 109.069,263.292 110.146,262.135 C 111.224,260.978 112.622,260.4 114.34,260.4 C 116.003,260.4 117.362,260.966 118.417,262.1 C 119.472,263.234 119.999,264.829 119.999,266.884 C 119.999,267.009 119.995,267.197 119.987,267.447 L 110.702,267.447 C 110.78,268.816 111.167,269.863 111.861,270.591 C 112.556,271.319 113.423,271.682 114.462,271.682 C 115.234,271.682 115.895,271.479 116.441,271.071 C 116.987,270.663 117.42,270.013 117.741,269.119 z M 110.827,265.713 L 117.765,265.713 C 117.671,264.665 117.406,263.879 116.97,263.355 C 116.299,262.542 115.429,262.135 114.361,262.135 C 113.394,262.135 112.581,262.459 111.922,263.109 C 111.263,263.759 110.897,264.626 110.827,265.713 z"/></g><g id="g207" transform="matrix(0.95,0,0,0.95,9.015625,6.8357)"><path id="path209" d="M 238.053,273.135 L 238.053,255.947 L 240.334,255.947 L 240.334,271.103 L 248.772,271.103 L 248.772,273.134 L 238.053,273.134 L 238.053,273.135 z"/><path id="path211" d="M 250.385,267.979 L 250.385,265.854 L 256.885,265.854 L 256.885,267.979 L 250.385,267.979 z"/><path id="path213" d="M 258.721,267.619 L 260.862,267.431 C 260.964,268.292 261.2,268.998 261.571,269.55 C 261.942,270.103 262.519,270.548 263.301,270.889 C 264.082,271.23 264.961,271.4 265.938,271.4 C 266.806,271.4 267.573,271.271 268.237,271.012 C 268.901,270.754 269.395,270.4 269.719,269.949 C 270.043,269.498 270.205,269.008 270.205,268.475 C 270.205,267.935 270.047,267.463 269.73,267.06 C 269.413,266.657 268.896,266.319 268.176,266.044 C 267.714,265.864 266.695,265.584 265.114,265.205 C 263.534,264.825 262.428,264.467 261.796,264.131 C 260.977,263.7 260.366,263.167 259.964,262.529 C 259.562,261.891 259.36,261.177 259.36,260.388 C 259.36,259.519 259.606,258.708 260.1,257.953 C 260.592,257.198 261.311,256.625 262.258,256.234 C 263.203,255.842 264.256,255.647 265.412,255.647 C 266.687,255.647 267.81,255.852 268.785,256.263 C 269.758,256.674 270.508,257.279 271.031,258.076 C 271.554,258.873 271.836,259.777 271.875,260.787 L 269.687,260.959 C 269.57,259.867 269.173,259.041 268.498,258.483 C 267.82,257.925 266.822,257.646 265.5,257.646 C 264.124,257.646 263.121,257.899 262.492,258.404 C 261.861,258.909 261.547,259.517 261.547,260.229 C 261.547,260.848 261.77,261.357 262.217,261.755 C 262.655,262.154 263.797,262.564 265.647,262.983 C 267.497,263.402 268.766,263.767 269.456,264.08 C 270.458,264.542 271.198,265.127 271.675,265.834 C 272.154,266.541 272.392,267.356 272.392,268.279 C 272.392,269.194 272.13,270.056 271.607,270.865 C 271.084,271.675 270.333,272.303 269.353,272.754 C 268.373,273.203 267.269,273.428 266.042,273.428 C 264.487,273.428 263.186,273.201 262.136,272.748 C 261.085,272.295 260.261,271.613 259.663,270.703 C 259.065,269.793 258.752,268.768 258.721,267.619 z"/><path id="path215" d="M 274.432,266.908 C 274.432,264.601 275.073,262.894 276.354,261.784 C 277.424,260.861 278.728,260.4 280.266,260.4 C 281.977,260.4 283.375,260.961 284.46,262.083 C 285.545,263.205 286.088,264.755 286.088,266.732 C 286.088,268.335 285.848,269.595 285.367,270.513 C 284.887,271.432 284.188,272.145 283.271,272.654 C 282.353,273.162 281.351,273.416 280.265,273.416 C 278.524,273.416 277.117,272.857 276.042,271.739 C 274.967,270.621 274.432,269.012 274.432,266.908 z M 276.604,266.91 C 276.604,268.505 276.952,269.698 277.645,270.492 C 278.34,271.285 279.213,271.681 280.266,271.681 C 281.311,271.681 282.182,271.283 282.875,270.486 C 283.569,269.688 283.916,268.473 283.916,266.84 C 283.916,265.301 283.567,264.134 282.869,263.34 C 282.172,262.547 281.303,262.151 280.265,262.151 C 279.212,262.151 278.339,262.546 277.644,263.335 C 276.951,264.124 276.604,265.316 276.604,266.91 z"/><path id="path217" d="M 288.545,273.135 L 288.545,260.682 L 290.436,260.682 L 290.436,262.577 C 290.922,261.691 291.37,261.106 291.782,260.825 C 292.192,260.542 292.645,260.401 293.139,260.401 C 293.85,260.401 294.575,260.629 295.311,261.083 L 294.574,263.036 C 294.059,262.737 293.546,262.589 293.03,262.589 C 292.571,262.589 292.157,262.728 291.792,263.005 C 291.425,263.282 291.163,263.667 291.007,264.159 C 290.773,264.909 290.655,265.729 290.655,266.62 L 290.655,273.136 L 288.545,273.136 L 288.545,273.135 z"/><path id="path219" d="M 298.506,273.135 L 296.553,273.135 L 296.553,255.947 L 298.662,255.947 L 298.662,262.076 C 299.553,260.959 300.691,260.4 302.074,260.4 C 302.84,260.4 303.564,260.554 304.249,260.863 C 304.934,261.172 305.496,261.606 305.937,262.165 C 306.378,262.725 306.724,263.398 306.974,264.187 C 307.224,264.977 307.349,265.822 307.349,266.72 C 307.349,268.854 306.822,270.503 305.766,271.668 C 304.71,272.833 303.444,273.415 301.966,273.415 C 300.495,273.415 299.343,272.802 298.505,271.575 L 298.505,273.135 L 298.506,273.135 z M 298.475,266.814 C 298.475,268.307 298.678,269.386 299.084,270.051 C 299.748,271.138 300.647,271.681 301.779,271.681 C 302.701,271.681 303.498,271.281 304.17,270.479 C 304.842,269.677 305.178,268.484 305.178,266.896 C 305.178,265.27 304.856,264.07 304.211,263.295 C 303.566,262.52 302.787,262.134 301.873,262.134 C 300.951,262.134 300.154,262.534 299.482,263.336 C 298.81,264.138 298.475,265.298 298.475,266.814 z"/><path id="path221" d="M 309.119,266.908 C 309.119,264.601 309.76,262.894 311.041,261.784 C 312.111,260.861 313.415,260.4 314.953,260.4 C 316.664,260.4 318.062,260.961 319.147,262.083 C 320.232,263.205 320.775,264.755 320.775,266.732 C 320.775,268.335 320.535,269.595 320.054,270.513 C 319.574,271.432 318.875,272.145 317.958,272.654 C 317.04,273.162 316.038,273.416 314.952,273.416 C 313.211,273.416 311.804,272.857 310.729,271.739 C 309.654,270.621 309.119,269.012 309.119,266.908 z M 311.291,266.91 C 311.291,268.505 311.639,269.698 312.332,270.492 C 313.027,271.285 313.9,271.681 314.953,271.681 C 315.998,271.681 316.869,271.283 317.562,270.486 C 318.256,269.688 318.603,268.473 318.603,266.84 C 318.603,265.301 318.254,264.134 317.556,263.34 C 316.859,262.547 315.99,262.151 314.952,262.151 C 313.899,262.151 313.026,262.546 312.331,263.335 C 311.639,264.124 311.291,265.316 311.291,266.91 z"/><path id="path223" d="M 322.404,269.416 L 324.498,269.088 C 324.615,269.926 324.941,270.567 325.477,271.013 C 326.013,271.459 326.759,271.682 327.719,271.682 C 328.688,271.682 329.407,271.485 329.874,271.09 C 330.342,270.694 330.576,270.231 330.576,269.699 C 330.576,269.222 330.371,268.846 329.959,268.573 C 329.67,268.385 328.953,268.146 327.807,267.857 C 326.262,267.466 325.19,267.128 324.592,266.843 C 323.992,266.558 323.537,266.162 323.229,265.658 C 322.918,265.154 322.764,264.596 322.764,263.987 C 322.764,263.432 322.891,262.919 323.145,262.445 C 323.399,261.972 323.745,261.58 324.182,261.266 C 324.51,261.024 324.957,260.819 325.524,260.651 C 326.091,260.483 326.698,260.399 327.346,260.399 C 328.323,260.399 329.18,260.54 329.918,260.822 C 330.656,261.104 331.201,261.486 331.553,261.968 C 331.905,262.45 332.147,263.093 332.28,263.9 L 330.217,264.181 C 330.123,263.538 329.853,263.036 329.404,262.675 C 328.955,262.315 328.322,262.134 327.502,262.134 C 326.535,262.134 325.845,262.294 325.432,262.614 C 325.018,262.935 324.811,263.31 324.811,263.741 C 324.811,264.014 324.897,264.261 325.069,264.479 C 325.241,264.707 325.51,264.894 325.877,265.042 C 326.087,265.12 326.708,265.301 327.737,265.582 C 329.227,265.98 330.266,266.307 330.856,266.561 C 331.446,266.815 331.909,267.185 332.245,267.669 C 332.581,268.153 332.749,268.756 332.749,269.475 C 332.749,270.178 332.544,270.841 332.134,271.462 C 331.724,272.084 331.131,272.565 330.357,272.904 C 329.584,273.244 328.709,273.414 327.73,273.414 C 326.113,273.414 324.878,273.078 324.031,272.405 C 323.181,271.734 322.639,270.738 322.404,269.416 z"/><path id="path225" d="M 343.756,269.119 L 345.944,269.4 C 345.6,270.672 344.964,271.66 344.035,272.362 C 343.106,273.064 341.919,273.416 340.473,273.416 C 338.653,273.416 337.211,272.855 336.145,271.733 C 335.079,270.611 334.545,269.039 334.545,267.013 C 334.545,264.918 335.084,263.292 336.162,262.135 C 337.24,260.978 338.638,260.4 340.355,260.4 C 342.019,260.4 343.378,260.966 344.432,262.1 C 345.486,263.234 346.013,264.829 346.013,266.884 C 346.013,267.009 346.009,267.197 346.001,267.447 L 336.716,267.447 C 336.794,268.816 337.181,269.863 337.876,270.591 C 338.571,271.319 339.437,271.682 340.476,271.682 C 341.249,271.682 341.91,271.479 342.456,271.071 C 343.002,270.663 343.436,270.013 343.756,269.119 z M 336.842,265.713 L 343.78,265.713 C 343.686,264.665 343.422,263.879 342.985,263.355 C 342.314,262.542 341.444,262.135 340.376,262.135 C 339.409,262.135 338.597,262.459 337.937,263.109 C 337.277,263.758 336.912,264.626 336.842,265.713 z"/></g></svg>