<svg xmlns="http://www.w3.org/2000/svg" viewBox="0 0 360.63 273.43" xml:space="preserve" overflow="visible" enable-background="new 0 0 360.63 273.43"><path d="m75.38 17.72 2.166.545q-.68 2.665-2.44 4.064-1.764 1.399-4.31 1.399-2.637 0-4.288-1.075-1.652-1.076-2.514-3.115t-.861-4.378q0-2.552.973-4.452t2.769-2.886q1.795-.986 3.952-.986 2.446 0 4.113 1.248 1.668 1.25 2.324 3.512l-2.122.501q-.567-1.781-1.645-2.593t-2.712-.813q-1.878 0-3.14.902t-1.773 2.421a9.8 9.8 0 0 0-.511 3.135q0 2.081.605 3.634t1.883 2.321a5.27 5.27 0 0 0 2.766.769q1.81 0 3.066-1.047t1.698-3.106m4.917 5.726V7.118h2.167v6.71h8.447v-6.71h2.167v16.329H90.91v-7.69h-8.447v7.69zm22.194 2.835v1.44h-8.104q-.017-.543.177-1.045.31-.825.996-1.626.684-.8 1.966-1.85 1.989-1.642 2.698-2.597.71-.954.71-1.808a2 2 0 0 0-.641-1.505q-.642-.612-1.672-.612-1.091 0-1.745.653-.654.654-.662 1.81l-1.543-.163q.157-1.732 1.197-2.64 1.036-.908 2.787-.908 1.766 0 2.795.978 1.029.977 1.029 2.422 0 .737-.302 1.445-.3.709-1 1.496-.7.785-2.318 2.155-1.355 1.136-1.741 1.54-.387.406-.64.814zm1.262-10.781q0-4.065 2.183-6.365t5.636-2.299q2.261 0 4.077 1.08 1.814 1.08 2.768 3.013.952 1.932.952 4.381 0 2.483-1.002 4.443t-2.84 2.968a8.1 8.1 0 0 1-3.966 1.008q-2.306 0-4.121-1.113a7.16 7.16 0 0 1-2.751-3.04 9.2 9.2 0 0 1-.936-4.077m2.227.028q0 2.95 1.587 4.648t3.983 1.698q2.44 0 4.016-1.715t1.576-4.865q0-1.992-.673-3.479-.675-1.487-1.973-2.305t-2.912-.818q-2.295 0-3.95 1.575t-1.654 5.26m16.25 7.92V7.118h2.166v6.71h8.447v-6.71h2.167v16.329h-2.167v-7.69h-8.447v7.69zm-52.876 2.422h1.615v26.315h-1.615zm1.615 63.222-.808.809-.807-.808V52.183h1.615zm0 37.668-.808.808-.807-.808V90.706l.807-.807.808.806z"/><path d="m70.968 164.474-.808.806-.807-.806v-36.1l.807-.808.808.808zm4.412 41.774 2.166.545q-.68 2.665-2.44 4.063-1.764 1.4-4.31 1.4-2.637 0-4.288-1.076-1.652-1.075-2.514-3.114t-.861-4.379q0-2.551.973-4.451t2.769-2.886q1.795-.986 3.952-.986 2.446 0 4.113 1.248 1.668 1.25 2.324 3.512l-2.122.5q-.567-1.78-1.645-2.593t-2.712-.812q-1.878 0-3.14.901t-1.773 2.422a9.8 9.8 0 0 0-.511 3.134q0 2.081.605 3.635t1.883 2.32a5.27 5.27 0 0 0 2.766.77q1.81 0 3.066-1.048 1.254-1.046 1.698-3.105m4.917 5.726v-16.328h2.167v6.71h8.447v-6.71h2.167v16.328H90.91v-7.689h-8.447v7.69zm22.194 2.835v1.44h-8.104q-.017-.543.177-1.045.31-.826.996-1.626.684-.8 1.966-1.851 1.989-1.641 2.698-2.596.71-.956.71-1.808a2 2 0 0 0-.641-1.505q-.642-.613-1.672-.613-1.091 0-1.745.654t-.662 1.81l-1.543-.164q.157-1.732 1.197-2.64 1.036-.907 2.787-.907 1.766 0 2.795.977t1.029 2.423q0 .736-.302 1.445-.3.708-1 1.495-.7.786-2.318 2.156-1.355 1.135-1.741 1.54t-.64.814zm1.262-10.782q0-4.065 2.183-6.365t5.636-2.299q2.261 0 4.077 1.08 1.814 1.08 2.768 3.013.952 1.932.952 4.382 0 2.483-1.002 4.443t-2.84 2.967a8.1 8.1 0 0 1-3.966 1.008q-2.306 0-4.121-1.113a7.16 7.16 0 0 1-2.751-3.04 9.2 9.2 0 0 1-.936-4.076m2.227.028q0 2.95 1.587 4.648t3.983 1.698q2.44 0 4.016-1.715t1.576-4.865q0-1.992-.673-3.479-.675-1.486-1.973-2.304t-2.912-.818q-2.295 0-3.95 1.575t-1.654 5.26m16.25 7.92v-16.33h2.166v6.71h8.447v-6.71h2.167v16.33h-2.167v-7.69h-8.447v7.69zm-51.261-18.764h-1.615V166.09l.807-.809.808.809zm29.076-139.997q0-4.065 2.183-6.364 2.183-2.3 5.636-2.3 2.261 0 4.077 1.08a7.06 7.06 0 0 1 2.768 3.013q.951 1.933.952 4.382 0 2.483-1.002 4.443-1.004 1.96-2.841 2.968a8.1 8.1 0 0 1-3.965 1.008q-2.306 0-4.121-1.114a7.17 7.17 0 0 1-2.752-3.04 9.2 9.2 0 0 1-.935-4.076m2.226.028q0 2.95 1.588 4.649 1.588 1.697 3.982 1.697 2.44 0 4.017-1.715 1.575-1.714 1.576-4.864 0-1.993-.674-3.48-.673-1.486-1.972-2.304t-2.912-.818q-2.295 0-3.95 1.575t-1.655 5.26m-32.11-4.668h27.693v1.615H70.16zm0 5.652h27.693v1.614H70.16zm29.884 36.704q0-4.064 2.183-6.364t5.636-2.3q2.261 0 4.077 1.081 1.814 1.08 2.768 3.013.952 1.933.952 4.38 0 2.484-1.002 4.444t-2.84 2.968a8.1 8.1 0 0 1-3.966 1.008q-2.306 0-4.121-1.114a7.16 7.16 0 0 1-2.751-3.04 9.2 9.2 0 0 1-.936-4.076m2.227.028q0 2.95 1.587 4.648t3.983 1.698q2.44 0 4.016-1.715t1.576-4.865q0-1.992-.673-3.48-.675-1.486-1.972-2.304t-2.913-.818q-2.294 0-3.95 1.575t-1.654 5.26m16.25 7.92V82.548h2.167v6.71h8.446v-6.71h2.167v16.329h-2.167v-7.69h-8.446v7.69z"/><path d="M97.853 89.09v1.615H70.968l-.808-.806.808-.808zm-71.737 9.786V82.548h2.167v6.71h8.446v-6.71h2.167v16.328h-2.167v-7.689h-8.446v7.69zm14.879-8.17V89.09h28.358l.807.808-.807.806zm60.503 45.837v-16.329h2.167v6.71h8.447v-6.71h2.166v16.329h-2.166v-7.69h-8.447v7.69zm-2.125-9.785v1.616H70.968l-.808-.808.808-.808zm-90.357 9.785v-16.328h2.167v6.71h8.446v-6.71h2.167v16.328H19.63v-7.689h-8.446v7.69zm15.723-7.946q0-4.065 2.184-6.365 2.183-2.298 5.636-2.298 2.26 0 4.076 1.08t2.769 3.012.952 4.382q0 2.483-1.003 4.443t-2.84 2.967a8.1 8.1 0 0 1-3.965 1.008q-2.306 0-4.122-1.113a7.16 7.16 0 0 1-2.75-3.04 9.2 9.2 0 0 1-.937-4.076m2.227.027q0 2.95 1.588 4.648t3.982 1.698q2.44 0 4.017-1.715t1.576-4.865q0-1.992-.674-3.478t-1.972-2.305-2.913-.818q-2.294 0-3.949 1.575t-1.655 5.26"/><path d="M42.42 128.374v-1.616h26.933l.807.808-.807.808zm57.624 37.938q0-4.065 2.183-6.365 2.183-2.298 5.636-2.298 2.261 0 4.077 1.08 1.814 1.08 2.768 3.012.952 1.933.952 4.382 0 2.483-1.002 4.443t-2.84 2.967a8.1 8.1 0 0 1-3.966 1.008q-2.306 0-4.121-1.113a7.16 7.16 0 0 1-2.751-3.04 9.2 9.2 0 0 1-.936-4.076m2.227.027q0 2.95 1.587 4.648t3.983 1.698q2.44 0 4.016-1.715t1.576-4.865q0-1.992-.673-3.478-.675-1.487-1.972-2.305t-2.913-.818q-2.294 0-3.95 1.575t-1.654 5.26m16.25 7.92v-16.33h2.167v6.71h8.446v-6.71h2.167v16.33h-2.167v-7.69h-8.446v7.69zm-20.668-9.785v1.615H70.968l-.808-.809.808-.806zm-71.737 9.784v-16.329h2.167v6.71h8.446v-6.71h2.167v16.329h-2.167v-7.69h-8.446v7.69zm14.879-8.169v-1.615h28.358l.807.806-.807.809zM291.98 17.72l2.166.545q-.678 2.665-2.44 4.064-1.764 1.399-4.31 1.399-2.637 0-4.288-1.075t-2.514-3.115-.861-4.378q0-2.552.973-4.452.971-1.9 2.768-2.886 1.795-.986 3.952-.986 2.446 0 4.113 1.248 1.669 1.25 2.324 3.512l-2.122.501q-.567-1.781-1.645-2.593t-2.712-.813q-1.878 0-3.14.902t-1.773 2.421a9.8 9.8 0 0 0-.511 3.135q0 2.081.606 3.634.604 1.553 1.882 2.321a5.27 5.27 0 0 0 2.765.769q1.81 0 3.067-1.047t1.7-3.106m4.916 5.726V7.118h2.167v6.71h8.447v-6.71h2.167v16.329h-2.167v-7.69h-8.447v7.69zm22.194 2.835v1.44h-8.104q-.016-.543.177-1.045.312-.825.997-1.626.684-.8 1.966-1.85 1.988-1.642 2.698-2.597.71-.954.709-1.808a2 2 0 0 0-.641-1.505q-.642-.612-1.673-.612-1.09 0-1.745.653-.654.654-.662 1.81l-1.543-.163q.158-1.732 1.197-2.64 1.038-.908 2.787-.908 1.767 0 2.795.978 1.029.977 1.029 2.422 0 .737-.3 1.445-.303.709-1 1.496-.701.785-2.32 2.155-1.354 1.136-1.74 1.54a5 5 0 0 0-.64.814zm1.263-10.781q0-4.065 2.183-6.365t5.636-2.299q2.262 0 4.077 1.08a7.07 7.07 0 0 1 2.768 3.013q.952 1.932.952 4.381 0 2.483-1.002 4.443t-2.84 2.968a8.1 8.1 0 0 1-3.966 1.008q-2.306 0-4.121-1.113a7.16 7.16 0 0 1-2.751-3.04 9.2 9.2 0 0 1-.936-4.077m2.226.028q0 2.95 1.587 4.648t3.983 1.698q2.44 0 4.016-1.715t1.576-4.865q0-1.992-.673-3.479-.676-1.487-1.973-2.305t-2.912-.818q-2.294 0-3.95 1.575t-1.654 5.26m16.25 7.92V7.118h2.167v6.71h8.447v-6.71h2.167v16.329h-2.167v-7.69h-8.447v7.69zm-52.876 2.422h1.615v26.315h-1.615zm1.615 63.222-.808.809-.807-.808V52.183h1.615zm0 37.668-.808.808-.807-.808V90.706l.807-.807.808.806z"/><path d="m287.568 164.474-.808.806-.807-.806v-36.1l.807-.808.808.808zm4.412 41.774 2.166.545q-.678 2.665-2.44 4.063-1.764 1.4-4.31 1.4-2.637 0-4.288-1.076t-2.514-3.114-.861-4.379q0-2.551.973-4.451.971-1.9 2.768-2.886 1.795-.986 3.952-.986 2.446 0 4.113 1.248 1.669 1.25 2.324 3.512l-2.122.5q-.567-1.78-1.645-2.593t-2.712-.812q-1.878 0-3.14.901t-1.773 2.422a9.8 9.8 0 0 0-.511 3.134q0 2.081.606 3.635.604 1.553 1.882 2.32a5.27 5.27 0 0 0 2.765.77q1.81 0 3.067-1.048 1.256-1.046 1.7-3.105m4.916 5.726v-16.328h2.167v6.71h8.447v-6.71h2.167v16.328h-2.167v-7.689h-8.447v7.69zm22.194 2.835v1.44h-8.104q-.016-.543.177-1.045.312-.826.997-1.626.684-.8 1.966-1.851 1.988-1.641 2.698-2.596t.709-1.808a2 2 0 0 0-.641-1.505q-.642-.613-1.673-.613-1.09 0-1.745.654-.654.654-.662 1.81l-1.543-.164q.158-1.732 1.197-2.64 1.038-.907 2.787-.907 1.767 0 2.795.977t1.029 2.423q0 .736-.3 1.445-.303.708-1 1.495-.701.786-2.32 2.156-1.354 1.135-1.74 1.54a5 5 0 0 0-.64.814zm1.262-10.781q0-4.065 2.183-6.365t5.636-2.299q2.262 0 4.077 1.08a7.07 7.07 0 0 1 2.768 3.013q.952 1.932.952 4.382 0 2.483-1.002 4.443t-2.84 2.967a8.1 8.1 0 0 1-3.966 1.008q-2.306 0-4.121-1.113a7.16 7.16 0 0 1-2.751-3.04 9.2 9.2 0 0 1-.936-4.076m2.226.028q0 2.95 1.587 4.648t3.983 1.698q2.44 0 4.016-1.715t1.576-4.865q0-1.992-.673-3.479-.676-1.486-1.973-2.304t-2.912-.818q-2.294 0-3.95 1.575t-1.654 5.26m16.25 7.92v-16.33h2.167v6.71h8.447v-6.71h2.167v16.33h-2.167v-7.69h-8.447v7.69zm-51.261-18.764h-1.615V166.09l.807-.809.808.809zm29.075-139.997q0-4.065 2.184-6.364 2.182-2.3 5.635-2.3 2.263 0 4.077 1.08a7.05 7.05 0 0 1 2.768 3.013q.952 1.933.952 4.382 0 2.483-1.002 4.443t-2.84 2.968a8.1 8.1 0 0 1-3.966 1.008q-2.305 0-4.121-1.114a7.17 7.17 0 0 1-2.752-3.04 9.2 9.2 0 0 1-.935-4.076m2.227.028q0 2.95 1.588 4.649 1.587 1.697 3.981 1.697 2.44 0 4.018-1.715 1.575-1.714 1.575-4.864 0-1.993-.674-3.48-.673-1.486-1.972-2.304-1.296-.818-2.912-.818-2.295 0-3.949 1.575-1.655 1.575-1.655 5.26m-32.11-4.668h27.692v1.615H286.76zm0 5.652h27.692v1.614H286.76zm31.338 44.65V82.548h2.167v6.71h8.447v-6.71h2.166v16.328h-2.166v-7.689h-8.447v7.69zm-2.125-9.786v1.615h-28.405l-.808-.806.808-.808zm-90.357 9.787v-16.33h2.167v6.71h8.446v-6.71h2.167v16.329h-2.167v-7.69h-8.446v7.69zm15.723-7.947q0-4.064 2.184-6.364 2.183-2.3 5.636-2.3 2.262 0 4.076 1.081a7.07 7.07 0 0 1 2.769 3.013q.952 1.933.952 4.38 0 2.484-1.003 4.444t-2.84 2.968a8.1 8.1 0 0 1-3.966 1.008q-2.305 0-4.12-1.114a7.16 7.16 0 0 1-2.752-3.04 9.2 9.2 0 0 1-.936-4.076m2.227.028q0 2.95 1.588 4.648t3.982 1.698q2.44 0 4.017-1.715t1.576-4.865q0-1.992-.674-3.48-.675-1.486-1.972-2.304t-2.913-.818q-2.294 0-3.949 1.575t-1.655 5.26m15.454-.251V89.09h26.933l.807.808-.807.806zm57.623 37.891q0-4.065 2.184-6.365 2.183-2.298 5.636-2.298 2.262 0 4.076 1.08a7.06 7.06 0 0 1 2.768 3.012q.952 1.933.952 4.382 0 2.483-1.002 4.443t-2.84 2.967a8.1 8.1 0 0 1-3.966 1.008q-2.305 0-4.12-1.113a7.17 7.17 0 0 1-2.752-3.04 9.2 9.2 0 0 1-.936-4.076m2.227.027q0 2.95 1.588 4.648t3.982 1.698q2.44 0 4.017-1.715 1.575-1.713 1.575-4.865 0-1.992-.673-3.478-.675-1.487-1.972-2.305t-2.913-.818q-2.294 0-3.948 1.575-1.657 1.576-1.656 5.26m16.25 7.92v-16.33h2.168v6.71h8.446v-6.71h2.167v16.33h-2.167v-7.69h-8.446v7.69z"/><path d="M314.453 126.758v1.616h-26.885l-.808-.808.808-.808zm-71.737 9.785v-16.329h2.167v6.71h8.446v-6.71h2.167v16.329h-2.167v-7.69h-8.446v7.69z"/><path d="M257.595 128.374v-1.616h28.358l.807.808-.807.808zm60.503 45.884v-16.329h2.167v6.71h8.447v-6.71h2.166v16.329h-2.166v-7.69h-8.447v7.69zm-2.125-9.784v1.615h-28.405l-.808-.809.808-.806zm-90.357 9.784V157.93h2.167v6.71h8.446v-6.71h2.167v16.328h-2.167v-7.689h-8.446v7.69zm15.723-7.946q0-4.065 2.184-6.365 2.183-2.298 5.636-2.298 2.262 0 4.076 1.08a7.07 7.07 0 0 1 2.769 3.012q.952 1.933.952 4.382 0 2.483-1.003 4.443t-2.84 2.967a8.1 8.1 0 0 1-3.966 1.008q-2.305 0-4.12-1.113a7.16 7.16 0 0 1-2.752-3.04 9.2 9.2 0 0 1-.936-4.076m2.227.027q0 2.95 1.588 4.648t3.982 1.698q2.44 0 4.017-1.715t1.576-4.865q0-1.992-.674-3.478-.675-1.487-1.972-2.305t-2.913-.818q-2.294 0-3.949 1.575t-1.655 5.26m15.454-.25v-1.615h26.933l.807.806-.807.809zM16.756 266.314v-16.328h5.615q1.902 0 2.903.233 1.402.323 2.391 1.17 1.29 1.091 1.93 2.79.638 1.7.64 3.882 0 1.859-.435 3.297-.434 1.437-1.111 2.378-.68.94-1.485 1.482-.808.54-1.946.818-1.14.278-2.619.278zm2.167-1.93h3.476q1.61 0 2.526-.3t1.46-.846q.766-.768 1.194-2.065t.428-3.146q0-2.56-.84-3.935-.837-1.375-2.037-1.842-.866-.334-2.787-.335h-3.421zm13.244-2.968v-2.019h6.175v2.019zm7.92-.342 2.034-.179q.145 1.227.673 2.014.53.787 1.643 1.272t2.506.485q1.237 0 2.183-.369.947-.367 1.409-1.01t.462-1.4q0-.77-.452-1.344-.451-.574-1.476-.965-.657-.257-2.909-.797-2.251-.542-3.152-1.02-1.169-.614-1.741-1.522a3.73 3.73 0 0 1-.573-2.034q0-1.238.702-2.314t2.05-1.633 2.997-.557q1.816 0 3.204.585 1.387.586 2.133 1.722.747 1.137.803 2.576l-2.079.163q-.167-1.556-1.13-2.352-.965-.795-2.847-.795-1.962 0-2.859.72-.898.719-.897 1.734 0 .882.636 1.45.624.568 3.26 1.166 2.636.596 3.617 1.042 1.428.658 2.109 1.666t.681 2.323q0 1.304-.746 2.457-.745 1.153-2.142 1.794-1.396.64-3.144.64-2.216 0-3.712-.645-1.498-.646-2.348-1.943-.852-1.292-.895-2.93m14.925-.675q0-3.287 1.825-4.868 1.525-1.315 3.717-1.315 2.437 0 3.985 1.599 1.546 1.599 1.546 4.416 0 2.284-.685 3.592a4.85 4.85 0 0 1-1.992 2.034 5.8 5.8 0 0 1-2.854.724q-2.482 0-4.012-1.593t-1.53-4.59m2.063.003q0 2.272.989 3.402t2.49 1.13q1.49 0 2.478-1.135.989-1.137.989-3.464 0-2.194-.995-3.325t-2.473-1.13q-1.501 0-2.49 1.125t-.988 3.396m11.344 5.914v-11.83h1.797v1.8q.692-1.263 1.278-1.664a2.22 2.22 0 0 1 1.289-.403q1.015 0 2.064.648l-.7 1.855q-.734-.425-1.467-.424-.655 0-1.177.395t-.745 1.096a7.8 7.8 0 0 0-.334 2.338v6.19H68.42zm9.463 0h-1.855v-16.328h2.004v5.822q1.269-1.592 3.241-1.592 1.092 0 2.066.44a4.2 4.2 0 0 1 1.604 1.237q.63.798.986 1.92.356 1.126.356 2.407 0 3.04-1.504 4.7-1.503 1.66-3.61 1.66-2.094 0-3.287-1.748zm-.03-6.005q0 2.128.579 3.075.946 1.549 2.56 1.549 1.314 0 2.271-1.142t.958-3.404q0-2.317-.919-3.42t-2.22-1.104q-1.315 0-2.272 1.142-.958 1.143-.957 3.304m10.113.09q0-3.287 1.825-4.868 1.525-1.315 3.717-1.315 2.437 0 3.984 1.599t1.547 4.416q0 2.284-.685 3.592a4.85 4.85 0 0 1-1.992 2.034 5.8 5.8 0 0 1-2.855.724q-2.482 0-4.012-1.593t-1.53-4.59m2.064.003q0 2.272.99 3.402t2.49 1.13q1.489 0 2.478-1.135.989-1.137.989-3.464 0-2.194-.995-3.325t-2.474-1.13q-1.5 0-2.49 1.125t-.988 3.396m10.558 2.381 1.989-.311q.166 1.194.929 1.828t2.13.636q1.381 0 2.048-.563.668-.564.668-1.321 0-.68-.587-1.07-.41-.268-2.045-.68-2.2-.558-3.054-.963-.855-.407-1.295-1.126a3 3 0 0 1-.44-1.587q0-.79.361-1.465.362-.674.986-1.12.467-.345 1.275-.585a6 6 0 0 1 1.73-.239q1.392 0 2.444.402t1.553 1.089q.502.685.69 1.835l-1.96.267q-.133-.916-.771-1.43-.639-.514-1.806-.515-1.379 0-1.968.456-.589.457-.589 1.07 0 .39.245.702.244.325.767.535.3.112 1.768.513 2.122.568 2.963.93.84.363 1.32 1.053t.478 1.715q0 1.002-.585 1.888t-1.688 1.37-2.496.484q-2.305 0-3.515-.958-1.212-.956-1.545-2.84m20.284-.282 2.079.267q-.49 1.814-1.815 2.814t-3.383 1.001q-2.593 0-4.112-1.599t-1.52-4.484q0-2.985 1.536-4.634 1.536-1.648 3.984-1.648 2.37 0 3.873 1.615 1.503 1.616 1.503 4.545 0 .178-.011.535h-8.821q.112 1.95 1.101 2.986.99 1.037 2.47 1.037 1.102 0 1.881-.58.778-.581 1.235-1.855m-6.568-3.236h6.59q-.133-1.493-.754-2.24-.957-1.159-2.479-1.159-1.378 0-2.317.926t-1.04 2.473m120.864 7.051v-16.328h2.167v14.398h8.016v1.93zm11.716-4.898v-2.019h6.175v2.019zm7.919-.342 2.034-.179q.145 1.227.673 2.014.53.787 1.644 1.272 1.112.485 2.505.485 1.238 0 2.184-.369.946-.367 1.408-1.01a2.35 2.35 0 0 0 .462-1.4q0-.77-.452-1.344-.45-.574-1.476-.965-.657-.257-2.909-.797-2.251-.542-3.152-1.02-1.167-.614-1.74-1.522a3.74 3.74 0 0 1-.574-2.034q0-1.238.703-2.314.701-1.075 2.05-1.633t2.996-.557q1.816 0 3.205.585 1.387.586 2.133 1.722t.802 2.576l-2.078.163q-.168-1.556-1.13-2.352-.965-.795-2.848-.795-1.96 0-2.858.72-.898.719-.897 1.734 0 .882.636 1.45.623.568 3.259 1.166 2.636.596 3.618 1.042 1.428.658 2.108 1.666.682 1.007.681 2.323 0 1.304-.745 2.457t-2.142 1.794-3.145.64q-2.215 0-3.71-.645-1.498-.646-2.35-1.943c-.568-.865-.866-1.838-.895-2.93m14.925-.675q0-3.287 1.826-4.868 1.525-1.315 3.717-1.315 2.437 0 3.984 1.599t1.547 4.416q0 2.284-.685 3.592a4.85 4.85 0 0 1-1.992 2.034 5.8 5.8 0 0 1-2.855.724q-2.48 0-4.012-1.593-1.53-1.592-1.53-4.59m2.064.003q0 2.272.989 3.402.99 1.13 2.49 1.13 1.49 0 2.478-1.135.99-1.137.99-3.464 0-2.194-.995-3.325t-2.474-1.13q-1.5 0-2.49 1.125-.988 1.125-.988 3.396m11.344 5.914v-11.83h1.796v1.8q.692-1.263 1.279-1.664.585-.403 1.29-.403 1.013 0 2.062.648l-.7 1.855q-.732-.425-1.466-.424-.656 0-1.177.395-.522.395-.745 1.096a7.8 7.8 0 0 0-.335 2.338v6.19zm9.463 0h-1.856v-16.328h2.004v5.822q1.27-1.592 3.241-1.592 1.09 0 2.067.44a4.2 4.2 0 0 1 1.603 1.237q.63.798.985 1.92.357 1.126.357 2.407 0 3.04-1.504 4.7t-3.61 1.66q-2.095 0-3.288-1.748zm-.03-6.005q0 2.128.579 3.075.946 1.549 2.56 1.549 1.314 0 2.271-1.142t.958-3.404q0-2.317-.919-3.42t-2.22-1.104q-1.314 0-2.272 1.142-.957 1.143-.957 3.304m10.112.09q0-3.287 1.826-4.868 1.525-1.315 3.716-1.315 2.439 0 3.985 1.599t1.546 4.416q0 2.284-.685 3.592a4.85 4.85 0 0 1-1.99 2.034 5.8 5.8 0 0 1-2.857.724q-2.48 0-4.011-1.593-1.53-1.592-1.53-4.59m2.063.003q0 2.272.99 3.402t2.49 1.13q1.49 0 2.478-1.135.989-1.137.989-3.464 0-2.194-.995-3.325t-2.474-1.13q-1.5 0-2.49 1.125-.987 1.125-.988 3.396m10.558 2.381 1.99-.311q.165 1.194.93 1.828.762.636 2.129.636 1.381 0 2.047-.563.667-.564.667-1.321 0-.68-.586-1.07-.411-.268-2.044-.68-2.202-.558-3.055-.963-.855-.407-1.294-1.126a2.95 2.95 0 0 1-.442-1.587q0-.79.362-1.465.362-.674.985-1.12.467-.345 1.275-.585a6 6 0 0 1 1.73-.239q1.392 0 2.444.402t1.553 1.089q.502.685.691 1.835l-1.96.267q-.133-.916-.772-1.43-.64-.514-1.807-.515-1.378 0-1.967.456-.59.457-.59 1.07 0 .39.246.702.245.325.767.535.3.112 1.767.513 2.122.568 2.963.93t1.32 1.053.479 1.715q0 1.002-.585 1.888t-1.688 1.37q-1.1.484-2.496.484-2.305 0-3.514-.958-1.21-.956-1.545-2.84m20.284-.282 2.079.267q-.49 1.814-1.814 2.814t-3.384 1.001q-2.593 0-4.111-1.599-1.52-1.598-1.52-4.484 0-2.985 1.536-4.634 1.536-1.648 3.983-1.648 2.371 0 3.873 1.615 1.502 1.616 1.502 4.545 0 .178-.011.535h-8.82q.11 1.95 1.101 2.986t2.47 1.037q1.102 0 1.881-.58t1.235-1.855m-6.568-3.236h6.591q-.133-1.493-.755-2.24-.957-1.159-2.479-1.159-1.377 0-2.317.926t-1.04 2.473"/></svg>