<svg xmlns="http://www.w3.org/2000/svg" viewBox="0 0 360.63 257.98" xml:space="preserve" overflow="visible" enable-background="new 0 0 360.63 257.98"><path d="m70.968 69.8-.808.807-.807-.807V32.464l1.615.903z"/><path d="m70.968 107.514-.808.808-.807-.808v-36.1l.807-.807.808.807z"/><path d="m70.968 145.182-.808.807-.807-.807v-36.053l.807-.807.808.807zm4.412 41.775 2.166.545q-.68 2.665-2.44 4.063-1.764 1.4-4.31 1.4-2.637 0-4.288-1.076-1.652-1.075-2.514-3.114t-.861-4.379q0-2.551.973-4.451t2.769-2.886q1.795-.986 3.952-.986 2.446 0 4.113 1.248 1.668 1.25 2.324 3.512l-2.122.5q-.567-1.78-1.645-2.593t-2.712-.812q-1.878 0-3.14.901t-1.773 2.422a9.8 9.8 0 0 0-.511 3.134q0 2.081.605 3.635t1.883 2.32a5.27 5.27 0 0 0 2.766.77q1.81 0 3.066-1.048t1.698-3.105m4.917 5.725v-16.328h2.167v6.71h8.447v-6.71h2.167v16.328H90.91v-7.689h-8.447v7.69zm22.194 2.836v1.44h-8.104q-.017-.543.177-1.045.31-.826.996-1.627.684-.8 1.966-1.85 1.989-1.642 2.698-2.597.71-.954.71-1.807a2 2 0 0 0-.641-1.505q-.642-.613-1.672-.613-1.091 0-1.745.654-.654.653-.662 1.81l-1.543-.164q.157-1.732 1.197-2.64 1.036-.907 2.787-.907 1.766 0 2.795.977t1.029 2.423q0 .735-.302 1.445-.3.709-1 1.495t-2.318 2.156q-1.355 1.135-1.741 1.54t-.64.814zm1.262-10.782q0-4.065 2.183-6.365t5.636-2.299q2.261 0 4.077 1.08 1.814 1.08 2.768 3.013.952 1.933.952 4.382 0 2.483-1.002 4.443t-2.84 2.967a8.1 8.1 0 0 1-3.966 1.008q-2.306 0-4.121-1.113a7.16 7.16 0 0 1-2.751-3.04 9.2 9.2 0 0 1-.936-4.076m2.227.027q0 2.95 1.587 4.648t3.983 1.698q2.44 0 4.016-1.715t1.576-4.865q0-1.992-.673-3.478-.675-1.487-1.973-2.305t-2.912-.818q-2.295 0-3.95 1.575t-1.654 5.26m16.25 7.92v-16.33h2.166v6.71h8.447v-6.71h2.167v16.33h-2.167v-7.69h-8.447v7.69zM70.968 173.92h-1.615v-27.123l.807-.808.808.808zm29.076-102.282q0-4.064 2.183-6.364t5.636-2.299q2.261 0 4.077 1.08 1.814 1.08 2.768 3.013.952 1.933.952 4.381 0 2.483-1.002 4.443t-2.84 2.968a8.1 8.1 0 0 1-3.966 1.008q-2.306 0-4.121-1.114a7.16 7.16 0 0 1-2.751-3.04 9.2 9.2 0 0 1-.936-4.076m2.227.028q0 2.95 1.587 4.648t3.983 1.698q2.44 0 4.016-1.715t1.576-4.865q0-1.992-.673-3.479-.675-1.487-1.972-2.305t-2.913-.818q-2.294 0-3.95 1.575t-1.654 5.26m16.25 7.92V63.257h2.167v6.71h8.446v-6.71h2.167v16.329h-2.167v-7.69h-8.446v7.69z"/><path d="M97.853 69.8v1.614H70.968l-.808-.807.808-.807zm-71.737 9.784V63.257h2.167v6.71h8.446v-6.71h2.167v16.328h-2.167v-7.689h-8.446v7.69h-2.167zm14.879-8.17V69.8h28.358l.807.807-.807.807zm60.503 45.886v-16.328h2.167v6.71h8.447v-6.71h2.166V117.3h-2.166v-7.689h-8.447v7.69zm-2.125-9.786v1.615H70.968l-.808-.807.808-.808zM9.016 117.3v-16.328h2.167v6.71h8.446v-6.71h2.167v16.329H19.63v-7.69h-8.446v7.69zm15.723-7.947q0-4.064 2.184-6.364 2.183-2.299 5.636-2.299 2.26 0 4.076 1.08t2.769 3.013.952 4.381q0 2.483-1.003 4.443t-2.84 2.968a8.1 8.1 0 0 1-3.965 1.008q-2.306 0-4.122-1.114a7.16 7.16 0 0 1-2.75-3.04 9.2 9.2 0 0 1-.937-4.076m2.227.029q0 2.95 1.588 4.648t3.982 1.698q2.44 0 4.017-1.715t1.576-4.865q0-1.992-.674-3.48-.674-1.486-1.972-2.304t-2.913-.818q-2.294 0-3.949 1.575t-1.655 5.26"/><path d="M42.42 109.13v-1.616h26.933l.807.808-.807.807zm57.624 37.89q0-4.064 2.183-6.364t5.636-2.299q2.261 0 4.077 1.08 1.814 1.08 2.768 3.013.952 1.932.952 4.382 0 2.483-1.002 4.443t-2.84 2.967a8.1 8.1 0 0 1-3.966 1.008q-2.306 0-4.121-1.113a7.16 7.16 0 0 1-2.751-3.04 9.2 9.2 0 0 1-.936-4.076m2.227.027q0 2.95 1.587 4.648t3.983 1.698q2.44 0 4.016-1.715t1.576-4.865q0-1.992-.673-3.478-.675-1.487-1.972-2.305t-2.913-.818q-2.294 0-3.95 1.575t-1.654 5.26m16.25 7.92v-16.33h2.167v6.71h8.446v-6.71h2.167v16.33h-2.167v-7.69h-8.446v7.69zm-20.668-9.786v1.615H70.968l-.808-.808.808-.807zm-71.737 9.785v-16.329h2.167v6.71h8.446v-6.71h2.167v16.329h-2.167v-7.69h-8.446v7.69zm14.879-8.17v-1.615h28.358l.807.807-.807.808zM29.744 15.113q0-4.065 2.183-6.364 2.182-2.3 5.635-2.3 2.261 0 4.077 1.08a7.06 7.06 0 0 1 2.768 3.013q.952 1.933.952 4.382 0 2.482-1.002 4.443-1.004 1.96-2.84 2.967a8.1 8.1 0 0 1-3.966 1.008q-2.306 0-4.121-1.113a7.17 7.17 0 0 1-2.752-3.04 9.2 9.2 0 0 1-.934-4.076m2.226.027q0 2.95 1.588 4.648 1.587 1.699 3.982 1.698 2.44 0 4.017-1.715 1.575-1.713 1.576-4.865 0-1.992-.674-3.478-.673-1.487-1.972-2.305t-2.912-.818q-2.295 0-3.95 1.575-1.655 1.576-1.655 5.26m12.968 7.398.807-1.379 24.843 14.298-.808 1.425zm2.802-4.894.808-1.377L73.39 30.564l-.807 1.425zm48.723 5.416V6.731h2.167v6.71h8.447v-6.71h2.166V23.06h-2.166v-7.689H98.63v7.69z"/><path d="m92.723 18.975.807 1.377-22.562 13.015-1.615-.903zM287.568 69.8l-.808.807-.807-.807V32.464l1.615.903z"/><path d="m287.568 107.514-.808.808-.807-.808v-36.1l.807-.807.808.807z"/><path d="m287.568 145.182-.808.807-.807-.807v-36.053l.807-.807.808.807zm4.412 41.775 2.166.545q-.678 2.665-2.44 4.063-1.764 1.4-4.31 1.4-2.637 0-4.288-1.076t-2.514-3.114-.861-4.379q0-2.551.973-4.451.971-1.9 2.768-2.886 1.795-.986 3.952-.986 2.446 0 4.113 1.248 1.669 1.25 2.324 3.512l-2.122.5q-.567-1.78-1.645-2.593t-2.712-.812q-1.878 0-3.14.901t-1.773 2.422a9.8 9.8 0 0 0-.511 3.134q0 2.081.606 3.635.604 1.553 1.882 2.32a5.27 5.27 0 0 0 2.765.77q1.81 0 3.067-1.048t1.7-3.105m4.916 5.725v-16.328h2.167v6.71h8.447v-6.71h2.167v16.328h-2.167v-7.689h-8.447v7.69zm22.194 2.836v1.44h-8.104q-.016-.543.177-1.045.312-.826.997-1.627.684-.8 1.966-1.85 1.988-1.642 2.698-2.597.71-.954.709-1.807a2 2 0 0 0-.641-1.505q-.642-.613-1.673-.613-1.09 0-1.745.654-.654.653-.662 1.81l-1.543-.164q.158-1.732 1.197-2.64 1.038-.907 2.787-.907 1.767 0 2.795.977t1.029 2.423q0 .735-.3 1.445-.303.709-1 1.495-.701.786-2.32 2.156-1.354 1.135-1.74 1.54a5 5 0 0 0-.64.814zm1.262-10.781q0-4.065 2.183-6.365t5.636-2.299q2.262 0 4.077 1.08a7.07 7.07 0 0 1 2.768 3.013q.952 1.933.952 4.382 0 2.483-1.002 4.443t-2.84 2.967a8.1 8.1 0 0 1-3.966 1.008q-2.306 0-4.121-1.113a7.16 7.16 0 0 1-2.751-3.04 9.2 9.2 0 0 1-.936-4.076m2.226.027q0 2.95 1.587 4.648t3.983 1.698q2.44 0 4.016-1.715t1.576-4.865q0-1.992-.673-3.478-.676-1.487-1.973-2.305t-2.912-.818q-2.294 0-3.95 1.575t-1.654 5.26m16.25 7.92v-16.33h2.167v6.71h8.447v-6.71h2.167v16.33h-2.167v-7.69h-8.447v7.69zm-51.261-18.763h-1.615v-27.123l.807-.808.808.808zm30.53-94.336V63.257h2.167v6.71h8.447v-6.71h2.166v16.328h-2.166v-7.689h-8.447v7.69zm-2.125-9.784v1.614h-28.405l-.808-.807.808-.807zm-90.357 9.785V63.257h2.167v6.71h8.446v-6.71h2.167v16.329h-2.167v-7.69h-8.446v7.69zm15.723-7.947q0-4.064 2.184-6.364 2.183-2.299 5.636-2.299 2.262 0 4.076 1.08a7.07 7.07 0 0 1 2.769 3.013q.952 1.933.952 4.381 0 2.483-1.003 4.443t-2.84 2.968a8.1 8.1 0 0 1-3.966 1.008q-2.305 0-4.12-1.114a7.16 7.16 0 0 1-2.752-3.04 9.2 9.2 0 0 1-.936-4.076m2.227.028q0 2.95 1.588 4.648t3.982 1.698q2.44 0 4.017-1.715t1.576-4.865q0-1.992-.674-3.479-.675-1.487-1.972-2.305t-2.913-.818q-2.294 0-3.949 1.575t-1.655 5.26m15.454-.251V69.8h26.933l.807.807-.807.807zm57.623 37.939q0-4.064 2.184-6.364 2.183-2.299 5.636-2.299 2.262 0 4.076 1.08a7.06 7.06 0 0 1 2.768 3.013q.952 1.933.952 4.381 0 2.483-1.002 4.443t-2.84 2.968a8.1 8.1 0 0 1-3.966 1.008q-2.305 0-4.12-1.114a7.17 7.17 0 0 1-2.752-3.04 9.2 9.2 0 0 1-.936-4.076m2.227.029q0 2.95 1.588 4.648t3.982 1.698q2.44 0 4.017-1.715 1.575-1.715 1.575-4.865 0-1.992-.673-3.48-.675-1.486-1.972-2.304t-2.913-.818q-2.294 0-3.948 1.575-1.657 1.575-1.656 5.26m16.25 7.92v-16.329h2.168v6.71h8.446v-6.71h2.167v16.329h-2.167v-7.69h-8.446v7.69z"/><path d="M314.453 107.514v1.615h-26.885l-.808-.807.808-.808zm-71.737 9.786v-16.328h2.167v6.71h8.446v-6.71h2.167V117.3h-2.167v-7.689h-8.446v7.69z"/><path d="M257.595 109.13v-1.616h28.358l.807.808-.807.807zm60.503 45.837v-16.329h2.167v6.71h8.447v-6.71h2.166v16.329h-2.166v-7.69h-8.447v7.69zm-2.125-9.785v1.615h-28.405l-.808-.808.808-.807zm-90.357 9.785V138.64h2.167v6.71h8.446v-6.71h2.167v16.328h-2.167v-7.689h-8.446v7.69zm15.723-7.946q0-4.065 2.184-6.365 2.183-2.299 5.636-2.299 2.262 0 4.076 1.08a7.07 7.07 0 0 1 2.769 3.013q.952 1.932.952 4.382 0 2.483-1.003 4.443t-2.84 2.967a8.1 8.1 0 0 1-3.966 1.008q-2.305 0-4.12-1.113a7.16 7.16 0 0 1-2.752-3.04 9.2 9.2 0 0 1-.936-4.076m2.227.027q0 2.95 1.588 4.648t3.982 1.698q2.44 0 4.017-1.715t1.576-4.865q0-1.992-.674-3.478-.675-1.487-1.972-2.305t-2.913-.818q-2.294 0-3.949 1.575t-1.655 5.26m15.454-.251v-1.615h26.933l.807.807-.807.808zM246.343 15.113q0-4.065 2.184-6.364 2.182-2.3 5.635-2.3 2.263 0 4.077 1.08a7.05 7.05 0 0 1 2.768 3.013q.952 1.933.952 4.382 0 2.482-1.002 4.443t-2.84 2.967a8.1 8.1 0 0 1-3.966 1.008q-2.305 0-4.121-1.113a7.17 7.17 0 0 1-2.752-3.04 9.2 9.2 0 0 1-.935-4.076m2.227.027q0 2.95 1.588 4.648 1.587 1.698 3.981 1.698 2.44 0 4.018-1.715 1.575-1.713 1.575-4.865 0-1.992-.674-3.478-.673-1.487-1.972-2.305-1.296-.818-2.912-.818-2.295 0-3.949 1.575-1.656 1.576-1.655 5.26m12.968 7.398.807-1.379 24.843 14.298-.808 1.425zm2.802-4.894.808-1.377 24.842 14.297-.808 1.425zm48.724 5.416V6.731h2.167v6.71h8.446v-6.71h2.167V23.06h-2.167v-7.689h-8.446v7.69z"/><path d="m309.323 18.975.807 1.377-22.562 13.015-1.615-.903zM24.997 246.738V230.41h5.615q1.902 0 2.904.233 1.4.323 2.39 1.17 1.29 1.091 1.93 2.79t.64 3.882q0 1.859-.435 3.297-.434 1.437-1.111 2.378-.68.94-1.485 1.482-.807.54-1.946.818-1.14.278-2.619.278zm2.168-1.93h3.476q1.61 0 2.526-.3.916-.301 1.46-.847.767-.768 1.194-2.065t.428-3.146q0-2.56-.84-3.935-.837-1.375-2.037-1.842-.866-.335-2.787-.335h-3.421zm13.244-2.969v-2.019h6.175v2.02zm6.98 4.9 6.308-8.47-5.565-7.858H50.7l2.985 4.181q.926 1.301 1.319 2 .534-.867 1.276-1.84l3.272-4.342h2.355l-5.668 7.761 6.114 8.567h-2.658l-4.122-5.821a24 24 0 0 1-.676-1.007q-.538.838-.778 1.166l-4.134 5.662zm16.517 4.549-.222-1.878q.657.178 1.147.178.67 0 1.07-.222.402-.222.657-.623.19-.301.614-1.493.056-.167.179-.49l-4.498-11.852h2.143l2.47 6.837q.482 1.302.861 2.735.357-1.362.836-2.674l2.523-6.898h2.003l-4.481 12.036q-.726 1.945-1.127 2.677-.536.99-1.227 1.45t-1.652.46q-.583 0-1.296-.243m11.445-4.55V230.41h2.003v16.328zm4.368-5.915q0-3.287 1.825-4.868 1.525-1.315 3.717-1.315 2.437 0 3.984 1.599t1.547 4.416q0 2.284-.685 3.592a4.85 4.85 0 0 1-1.992 2.034 5.8 5.8 0 0 1-2.855.724q-2.481 0-4.012-1.593t-1.53-4.59m2.064.002q0 2.273.99 3.403t2.49 1.13q1.489 0 2.478-1.135.989-1.137.989-3.464 0-2.194-.995-3.325t-2.474-1.13q-1.5 0-2.49 1.125t-.988 3.396m10.558 2.381 1.989-.311q.166 1.194.929 1.828t2.13.636q1.38 0 2.048-.563.668-.564.668-1.32 0-.681-.587-1.07-.41-.269-2.045-.68-2.2-.559-3.054-.964-.855-.407-1.295-1.126a3 3 0 0 1-.44-1.587q0-.79.361-1.465.362-.674.986-1.12.467-.345 1.275-.585a6 6 0 0 1 1.73-.239q1.392 0 2.444.402t1.553 1.089.69 1.835l-1.96.267q-.133-.917-.771-1.43-.639-.514-1.806-.515-1.379 0-1.968.456-.589.457-.589 1.07 0 .39.245.702.243.324.767.535.3.112 1.768.513 2.122.568 2.963.93t1.32 1.053.478 1.715q0 1.002-.585 1.888t-1.688 1.37-2.496.484q-2.305 0-3.515-.958-1.212-.956-1.545-2.84m20.284-.282 2.079.267q-.49 1.813-1.815 2.814-1.325 1-3.383 1.001-2.593 0-4.112-1.599t-1.52-4.484q0-2.985 1.536-4.634 1.536-1.648 3.984-1.648 2.37 0 3.873 1.615 1.503 1.616 1.503 4.545 0 .178-.011.535h-8.821q.111 1.95 1.101 2.986t2.47 1.037q1.102 0 1.881-.58.778-.581 1.235-1.855m-6.57-3.236h6.592q-.134-1.493-.755-2.24-.957-1.159-2.479-1.159-1.377 0-2.317.926t-1.04 2.473m137.354 7.051V230.41h2.166v14.398h8.017v1.93zm11.715-4.899v-2.019h6.175v2.02zm6.98 4.9 6.308-8.47-5.565-7.858h2.567l2.985 4.181q.927 1.301 1.319 2 .535-.867 1.277-1.84l3.271-4.342h2.356l-5.67 7.761 6.115 8.567h-2.659l-4.122-5.821a26 26 0 0 1-.676-1.007q-.538.838-.778 1.166l-4.134 5.662zm16.517 4.549-.222-1.878q.657.178 1.148.178.67 0 1.07-.222.401-.222.657-.623.19-.301.613-1.493.056-.167.179-.49l-4.497-11.852h2.142l2.47 6.837q.483 1.302.862 2.735.356-1.362.836-2.674l2.522-6.898h2.003l-4.48 12.036q-.727 1.945-1.128 2.677-.537.99-1.228 1.45t-1.652.46q-.581 0-1.295-.243m11.445-4.55V230.41h2.003v16.328zm4.367-5.915q0-3.287 1.825-4.868 1.525-1.315 3.717-1.315 2.437 0 3.984 1.599t1.547 4.416q0 2.284-.685 3.592a4.85 4.85 0 0 1-1.992 2.034 5.8 5.8 0 0 1-2.855.724q-2.482 0-4.011-1.593t-1.53-4.59m2.063.002q0 2.273.99 3.403t2.49 1.13q1.489 0 2.478-1.135.988-1.137.989-3.464 0-2.194-.995-3.325t-2.474-1.13q-1.5 0-2.49 1.125t-.988 3.396m10.559 2.381 1.99-.311q.165 1.194.928 1.828t2.131.636q1.38 0 2.046-.563.668-.564.668-1.32 0-.681-.587-1.07-.41-.269-2.043-.68-2.203-.559-3.056-.964-.855-.407-1.294-1.126a3 3 0 0 1-.441-1.587q0-.79.362-1.465.362-.674.985-1.12.467-.345 1.275-.585a6 6 0 0 1 1.73-.239q1.392 0 2.444.402t1.553 1.089.69 1.835l-1.959.267q-.134-.917-.772-1.43-.639-.514-1.806-.515-1.379 0-1.968.456-.589.457-.589 1.07 0 .39.245.702.245.324.767.535.3.112 1.768.513 2.122.568 2.963.93t1.32 1.053.478 1.715q0 1.002-.584 1.888-.586.886-1.688 1.37t-2.496.484q-2.306 0-3.515-.958t-1.545-2.84m20.283-.282 2.079.267q-.49 1.813-1.815 2.814-1.323 1-3.383 1.001-2.593 0-4.112-1.599-1.518-1.598-1.52-4.484 0-2.985 1.536-4.634 1.536-1.648 3.984-1.648 2.37 0 3.872 1.615 1.503 1.616 1.503 4.545 0 .178-.011.535h-8.82q.11 1.95 1.1 2.986t2.471 1.037q1.101 0 1.88-.58t1.236-1.855m-6.568-3.236h6.591q-.134-1.493-.755-2.24-.958-1.159-2.479-1.159-1.377 0-2.317.926t-1.04 2.473"/></svg>