<svg xmlns="http://www.w3.org/2000/svg" preserveAspectRatio="xMidYMid" viewBox="90.81 168 165.22 86.42"><clipPath id="svg__github_work__a"><path d="M.3.3h539.4v719.15H.3z"/></clipPath><path fill="none" d="M90.81 168h165.22v86.42H90.81z" transform="translate(6.722 8.186)scale(.96124)"/><g clip-path="url(#svg__github_work__a)" transform="translate(6.722 8.186)scale(.96124)"><path fill-rule="evenodd" d="m113.98 228.88.3.17.3.17v14.06l-.3.17-.3-.17z" shape-rendering="geometricPrecision"/><path stroke="#000" stroke-width="0.6" d="M116.87 230.55v11.4"/><path fill-rule="evenodd" d="M114.28 243.8v-.35l.3-.17 12.17 7.02v.7zm12.47 7.2v-.7l12.17-7.02.3.17v.35z" shape-rendering="geometricPrecision"/><path stroke="#000" stroke-width="0.6" d="m126.75 247.66 9.88-5.71"/><path fill-rule="evenodd" d="m139.52 243.28-.3.17-.3-.17v-14.06l.3-.17.3.17zm-.3-14.58v.35l-.3.17-12.17-7.02v-.7z" shape-rendering="geometricPrecision"/><path stroke="#000" stroke-width="0.6" d="m136.63 230.55-9.88-5.71"/><path fill-rule="evenodd" d="M126.75 221.5v.7l-12.17 7.02-.3-.17-.3-.17zm12.47 22.3v-.35l.3-.17 12.17 7.02v.7zm12.47 7.2v-.7l12.17-7.02.3.17.3.17z" shape-rendering="geometricPrecision"/><path fill-rule="evenodd" d="m164.46 243.62-.3-.17-.3-.17v-14.06l.3-.17.3.17zm-.65-15.12.35.55-.3.17-12.17-7.02v-.35l.3-.17zm-12.42-6.82.3.17v.35l-12.17 7.02-.3-.17v-.35zm13.07 7.54-.3-.17.35-.55 11.82-6.82.3.17.03.33z" shape-rendering="geometricPrecision"/><path fill-rule="evenodd" d="m176.93 221.63-.3.22-.3-.17v-14.06l.3-.17.3.22z" shape-rendering="geometricPrecision"/><path fill-rule="evenodd" d="m176.28 206.9.35.55-.3.17-12.17-7.02v-.7zm-12.12-7v.7l-12.17 7.02-.3-.17-.3-.17z" shape-rendering="geometricPrecision"/><path fill-rule="evenodd" d="m151.39 207.28.3.17.3.17v14.06l-.3.17-.3-.17zm25.27 14.9-.03-.33.3-.22 13.29 4.32.11.35.11.35z" shape-rendering="geometricPrecision"/><path fill-rule="evenodd" d="m190.44 226.65-.11-.35-.11-.35 8.2-11.3h.74zm8.72-12h-.74l-8.2-11.3.11-.35.34-.04z" shape-rendering="geometricPrecision"/><path fill-rule="evenodd" d="m190.08 202.77.25.23-.11.35-13.29 4.32-.3-.22.34-.42z" shape-rendering="geometricPrecision"/><path fill-rule="evenodd" d="m176.97 207.03-.34.42-.35-.55-1.15-13.85h3z" shape-rendering="geometricPrecision"/><path d="M161.37 218.23v-7.158h.948v2.94h3.72v-2.94h.948v7.158h-.947v-3.374h-3.72v3.374z" font-family="Arial" font-size="10"/><path fill-rule="evenodd" d="m164.51 228.5-.35.55-.35-.55-1.15-8.6h3z" shape-rendering="geometricPrecision"/><path d="M191.343 189.544q0-1.783.957-2.79.957-1.01 2.471-1.01.991 0 1.787.474t1.214 1.321.417 1.922q0 1.089-.44 1.948a3 3 0 0 1-1.244 1.301 3.56 3.56 0 0 1-1.739.442q-1.011 0-1.806-.488a3.14 3.14 0 0 1-1.206-1.333 4.04 4.04 0 0 1-.41-1.787m.977.014q0 1.295.696 2.039t1.745.745q1.07 0 1.76-.752.692-.753.692-2.134 0-.874-.296-1.526a2.27 2.27 0 0 0-.864-1.01 2.34 2.34 0 0 0-1.277-.36q-1.006 0-1.73.691-.726.69-.726 2.307" font-family="Arial" font-size="10"/><path fill-rule="evenodd" d="m190.67 202.96-.34.04-.25-.23 1.51-8.51 1.43.46 1.42.46zm9.16-14.38-.06-.29-.07-.3 9.21-1.95-.11.33-.11.33zm8.86-1.88.11-.33.11-.33 9.6 10.66-.11.33-.11.33z" shape-rendering="geometricPrecision"/><path d="M209.813 172.914q0-1.783.957-2.79.957-1.01 2.471-1.01.991 0 1.787.474.795.475 1.214 1.321.417.848.417 1.922 0 1.089-.44 1.948a3 3 0 0 1-1.244 1.301 3.56 3.56 0 0 1-1.739.442q-1.011 0-1.806-.488a3.14 3.14 0 0 1-1.206-1.333 4.04 4.04 0 0 1-.41-1.787m.977.014q0 1.294.696 2.039.696.744 1.745.744 1.07 0 1.76-.751.692-.753.692-2.134 0-.875-.296-1.526a2.27 2.27 0 0 0-.864-1.01 2.34 2.34 0 0 0-1.277-.36q-1.006 0-1.73.691-.726.69-.726 2.307" font-family="Arial" font-size="10"/><path stroke="#000" stroke-width="0.6" d="m207.57 185.97 2.68-8.25"/><path fill-rule="evenodd" d="m209.67 186.89.47.52 2.85-8.8-.57-.18zm-2.56-.47.68-.14 2.74-8.46-.57-.19zm11.18 10.94.11-.33.11-.33 14.04-2.98-.11.33-.11.33z" shape-rendering="geometricPrecision"/><path d="M91.56 254.3v-7.158h.948v2.94h3.72v-2.94h.948v7.158h-.947v-3.374h-3.721v3.374zm6.91-3.486q0-1.783.957-2.79.958-1.01 2.47-1.01.992 0 1.788.474.796.475 1.213 1.321.418.848.418 1.922 0 1.089-.44 1.948a3 3 0 0 1-1.245 1.301 3.56 3.56 0 0 1-1.738.442q-1.01 0-1.807-.488a3.14 3.14 0 0 1-1.206-1.333 4.04 4.04 0 0 1-.41-1.787m.977.014q0 1.294.695 2.039.696.744 1.746.744 1.07 0 1.76-.751.69-.753.691-2.134 0-.875-.295-1.526a2.27 2.27 0 0 0-.865-1.01 2.34 2.34 0 0 0-1.276-.36q-1.007 0-1.731.691-.725.69-.725 2.307" font-family="Arial" font-size="10" text-anchor="end"/><path fill-rule="evenodd" d="m113.98 243.28.3.17v.35l-7.64 4.41-.15-.26-.15-.26z" shape-rendering="geometricPrecision"/><path d="M148.9 239.82v-7.158h.948v2.94h3.72v-2.94h.948v7.158h-.947v-3.374h-3.72v3.374z" font-family="Arial" font-size="10"/><path fill-rule="evenodd" d="M151.39 221.85h.6l.08.6h-.76zm-.37 2.88h1.34l.08.6h-1.5zm-.38 2.89h2.1l.08.6h-2.26zm-.37 2.88h2.84l.08.6h-3z" shape-rendering="geometricPrecision"/><path d="M173.84 239.82v-7.158h.948v2.94h3.72v-2.94h.948v7.158h-.947v-3.374h-3.721v3.374z" font-family="Arial" font-size="10"/><path fill-rule="evenodd" d="M176.33 221.85h.6l.08.6h-.76zm-.37 2.88h1.34l.08.6h-1.5zm-.38 2.89h2.1l.08.6h-2.26zm-.37 2.88h2.84l.08.6h-3zm57.12-36.12.11-.33.11-.33 9.59 10.65-.1.34-.1.34z" shape-rendering="geometricPrecision"/><path fill-rule="evenodd" d="m241.94 205.05.1-.34.1-.34 13.73-3.67.08.29.08.29z" shape-rendering="geometricPrecision"/></g></svg>