<svg preserveAspectRatio="xMidYMid" viewBox="90.8 168 165.2 86.4"><clipPath id="a"><path d="M.3.3h539.4v719.1H.3z"/></clipPath><path fill="none" d="M90.8 168H256v86.4H90.8z" style="fill:#fff;fill-opacity:0" transform="translate(6.722 8.186)scale(.96124)"/><g clip-path="url(#a)" transform="translate(6.722 8.186)scale(.96124)"><path d="m114 228.9.3.1.3.2v14l-.3.2-.3-.1z" shape-rendering="geometricPrecision" style="fill:#000;fill-rule:evenodd;stroke:#000;stroke-width:0;stroke-linejoin:miter"/><path d="M116.9 230.6V242" style="stroke:#000;stroke-width:.60000002"/><path d="M114.3 243.8v-.3l.3-.2 12.2 7v.7zm12.5 7.2v-.7l12.1-7 .3.1v.4z" shape-rendering="geometricPrecision" style="fill:#000;fill-rule:evenodd;stroke:#000;stroke-width:0;stroke-linejoin:miter"/><path d="m126.8 247.7 9.8-5.7" style="stroke:#000;stroke-width:.60000002"/><path d="m139.5 243.3-.3.1-.3-.1v-14l.3-.3.3.2z" shape-rendering="geometricPrecision" style="fill:#000;fill-rule:evenodd;stroke:#000;stroke-width:0;stroke-linejoin:miter"/><path d="M139.2 228.7v.4l-.3.1-12.2-7v-.7z" shape-rendering="geometricPrecision" style="fill:#000;fill-rule:evenodd;stroke:#000;stroke-width:0;stroke-linejoin:miter"/><path d="m136.6 230.6-9.8-5.8" style="stroke:#000;stroke-width:.60000002"/><path d="M126.8 221.5v.7l-12.2 7-.3-.1-.3-.2zm12.4 22.3v-.3l.3-.2 12.2 7v.7zm12.5 7.2v-.7l12.2-7 .3.1.3.2z" shape-rendering="geometricPrecision" style="fill:#000;fill-rule:evenodd;stroke:#000;stroke-width:0;stroke-linejoin:miter"/><path d="m164.5 243.6-.3-.1-.3-.2v-14l.3-.2.3.1zm-.7-15.1.4.6-.3.1-12.2-7v-.3l.3-.2zm-12.4-6.8.3.2v.3l-12.2 7-.3-.1v-.4z" shape-rendering="geometricPrecision" style="fill:#000;fill-rule:evenodd;stroke:#000;stroke-width:0;stroke-linejoin:miter"/><path d="m164.5 229.2-.3-.1.3-.6 11.8-6.8.3.2v.3z" shape-rendering="geometricPrecision" style="fill:#000;fill-rule:evenodd;stroke:#000;stroke-width:0;stroke-linejoin:miter"/><path d="m177 221.6-.4.3-.3-.2v-14l.3-.2.3.2zm-.7-14.7.3.6-.3.1-12.1-7v-.7zm-12.1-7v.7l-12.2 7-.3-.1-.3-.2z" shape-rendering="geometricPrecision" style="fill:#000;fill-rule:evenodd;stroke:#000;stroke-width:0;stroke-linejoin:miter"/><path d="m151.4 207.3.3.1.3.2v14l-.3.2-.3-.1zm25.3 14.9v-.3l.2-.3 13.3 4.4.1.3.1.3z" shape-rendering="geometricPrecision" style="fill:#000;fill-rule:evenodd;stroke:#000;stroke-width:0;stroke-linejoin:miter"/><path d="M190.4 226.7v-.4l-.2-.3 8.2-11.3h.8z" shape-rendering="geometricPrecision" style="fill:#000;fill-rule:evenodd;stroke:#000;stroke-width:0;stroke-linejoin:miter"/><path d="M199.2 214.7h-.8l-8.2-11.3.1-.4h.4z" shape-rendering="geometricPrecision" style="fill:#000;fill-rule:evenodd;stroke:#000;stroke-width:0;stroke-linejoin:miter"/><path d="m190 202.8.3.2v.4l-13.4 4.3-.3-.3.4-.4z" shape-rendering="geometricPrecision" style="fill:#000;fill-rule:evenodd;stroke:#000;stroke-width:0;stroke-linejoin:miter"/><path d="m177 207-.4.5-.3-.6L175 193h3z" shape-rendering="geometricPrecision" style="fill:#000;fill-rule:evenodd;stroke:#000;stroke-width:0;stroke-linejoin:miter"/><g style="text-anchor:start"><path d="M161.4 218.2v-7.1h1v3h3.6v-3h1v7.1h-1V215h-3.7v3.3z" style="font-size:10px;fill:#000;font-family:Arial"/></g><path d="m164.5 228.5-.3.6-.4-.6-1.1-8.6h3z" shape-rendering="geometricPrecision" style="fill:#000;fill-rule:evenodd;stroke:#000;stroke-width:0;stroke-linejoin:miter"/><g style="text-anchor:start"><path d="M191.3 189.5q0-1.7 1-2.7t2.5-1q.9 0 1.8.4t1.2 1.3.4 2-.5 2a3 3 0 0 1-1.2 1.2 4 4 0 0 1-3.5 0q-.9-.6-1.2-1.4a4 4 0 0 1-.5-1.8m1 0q0 1.4.7 2.1t1.8.7q1 0 1.7-.7a3 3 0 0 0 .7-2.1q0-.9-.3-1.6a2 2 0 0 0-2.1-1.3q-1 0-1.8.7-.7.6-.7 2.3" style="font-size:10px;fill:#000;font-family:Arial"/></g><path d="M190.7 203h-.4l-.2-.2 1.5-8.5 1.4.4 1.4.5zm9.1-14.4v-.3l-.1-.3 9.2-2-.1.4-.1.3z" shape-rendering="geometricPrecision" style="fill:#000;fill-rule:evenodd;stroke:#000;stroke-width:0;stroke-linejoin:miter"/><path d="m208.7 186.7.1-.3.1-.4 9.6 10.7-.1.3-.1.4z" shape-rendering="geometricPrecision" style="fill:#000;fill-rule:evenodd;stroke:#000;stroke-width:0;stroke-linejoin:miter"/><g style="text-anchor:start"><path d="M209.8 173q0-1.9 1-2.9t2.4-1q1 0 1.8.5t1.2 1.3.5 2-.5 1.9a3 3 0 0 1-1.2 1.3 4 4 0 0 1-3.6 0q-.7-.6-1.2-1.4a4 4 0 0 1-.4-1.8m1 0q0 1.2.7 2 .6.7 1.7.7 1 0 1.8-.7a3 3 0 0 0 .7-2.2q0-.8-.3-1.5a2 2 0 0 0-2.2-1.4q-1 0-1.7.7-.7.8-.7 2.3" style="font-size:10px;fill:#000;font-family:Arial"/></g><path d="m207.6 186 2.7-8.3" style="stroke:#000;stroke-width:.60000002"/><path d="m209.7 186.9.4.5 2.9-8.8-.6-.2zm-2.6-.5.7-.1 2.7-8.5-.5-.2zm11.2 11 .1-.4.1-.3 14-3v.4l-.2.3z" shape-rendering="geometricPrecision" style="fill:#000;fill-rule:evenodd;stroke:#000;stroke-width:0;stroke-linejoin:miter"/><g style="text-anchor:end"><path d="M91.6 254.3v-7.2h1v3h3.6v-3h1v7.2h-1v-3.4h-3.7v3.4zm6.9-3.5q0-1.8 1-2.8t2.4-1q1 0 1.8.5t1.2 1.3.4 2-.4 1.9a3 3 0 0 1-1.3 1.3 4 4 0 0 1-3.5 0q-.8-.5-1.2-1.4a4 4 0 0 1-.4-1.8m1 0q0 1.4.6 2 .7.8 1.8.8 1 0 1.7-.7a3 3 0 0 0 .7-2.2q0-.8-.3-1.5a2 2 0 0 0-2.1-1.4q-1 0-1.7.7-.8.8-.8 2.3" style="font-size:10px;fill:#000;font-family:Arial"/></g><path d="m114 243.3.3.1v.4l-7.7 4.4-.1-.3-.2-.2z" shape-rendering="geometricPrecision" style="fill:#000;fill-rule:evenodd;stroke:#000;stroke-width:0;stroke-linejoin:miter"/><g style="text-anchor:start"><path d="M148.9 239.8v-7.1h1v2.9h3.7v-3h1v7.2h-1v-3.4h-3.8v3.4z" style="font-size:10px;fill:#000;font-family:Arial"/></g><path d="M151.4 221.9h.6v.5h-.7zm-.4 2.8h1.4v.6H151zm-.4 2.9h2.1l.1.6h-2.2zm-.3 2.9h2.8v.6h-3z" shape-rendering="geometricPrecision" style="fill:#000;fill-rule:evenodd;stroke:#000;stroke-width:0;stroke-linejoin:miter"/><g style="text-anchor:start"><path d="M173.8 239.8v-7.1h1v2.9h3.7v-3h1v7.2h-1v-3.4h-3.7v3.4z" style="font-size:10px;fill:#000;font-family:Arial"/></g><path d="M176.3 221.9h.6l.1.5h-.7zm-.3 2.8h1.3v.6H176zm-.4 2.9h2l.2.6h-2.3zm-.4 2.9h2.9v.6h-3zm57.1-36.1.1-.4.2-.3 9.5 10.7v.3l-.2.3z" shape-rendering="geometricPrecision" style="fill:#000;fill-rule:evenodd;stroke:#000;stroke-width:0;stroke-linejoin:miter"/><path d="M242 205v-.3l.1-.3 13.8-3.7v.3l.1.3z" shape-rendering="geometricPrecision" style="fill:#000;fill-rule:evenodd;stroke:#000;stroke-width:0;stroke-linejoin:miter"/></g></svg>