<svg xml:space="preserve" viewBox="0 0 369.1 301.2"><path d="M166.7 131.9h-3.3l-.5 2.4h4.2zm5 28.8h-13.4l-.4 2.4h14.3zm-3.3-19.2h-6.7l-.4 2.4h7.5zm1.7 9.6H160l-.4 2.4h10.9zm93-19.2-.4 2.4h4.2l-.5-2.4zm-2.1 12h7.5l-.4-2.4h-6.6zm-3.4 19.2h14.3l-.4-2.4h-13.4zm1.7-9.6h11l-.5-2.4h-10.1z"/><path d="m354.9 100.6-1.7-2.3-32.5-44.8-.6-.9-2.7.9-51.1 16.6 6.2-55.9h-15.2l6.2 55.4L217.4 43l-2.4-1.3-.6.4-48.1 27.8-2.3 1.3v57.6L116.9 156l6-35.3h-15.2l6 35.3L66 128.5l-.6-.3-.6.3-48.2 27.8-2.3 1.3v59l2.3 1.3 48.2 27.8.6.3.6-.3 44.9-25.9q.2 2.5 3.8 4.4c.8.4 2.5 1.6 2.5 2.7q0 1.1-2.5 2.4c-.4.2-3.9 2-3.9 4.8q0 2.6 3.9 4.5c.8.4 2.5 1.6 2.5 2.7q0 1.1-2.6 2.4c-.4.2-3.9 2.1-3.8 5q0 2.7 3.9 4.6l1.1-2.1q-2.4-1.3-2.5-2.4c0-1.1 1.7-2.4 2.5-2.9q3.9-2 3.9-4.5c0-2.8-3.5-4.6-3.9-4.8q-2.4-1.3-2.5-2.4c0-1 1.7-2.2 2.5-2.7q3.9-2 3.9-4.5c0-2.8-3.5-4.6-3.9-4.8q-2.4-1.3-2.5-2.4c0-.8 1.1-1.8 2-2.3l49.3 28.5.6.3.6-.3 48.2-27.8 2.3-1.3v-57.6l48.8-28.2 52.4 17 1.9.6.8.3.5-.7 32.7-45zm-35.1 44.3-.6.9-53.2-17.3V72.6l53.1-17.3.6.9 32.2 44.3zM166.2 72.5 213.8 45l1.1-.7 48.7 28.1v56.2l-47.1 27.2 6-35.3h-15.2l6 35.3-47.1-27.2zM16.6 160.2v-1.3l47.6-27.5 1.1-.6 1.1.6 47.6 27.5v56.2l-.1.1-47.4 27.4-1.1.6-1.1-.6-47.6-27.5zm197.1 54.9-47.6 27.5-1.1.6-1.1-.6-47.6-27.5v-56.2l48.7-28.1 48.7 28.1z"/><path d="M107.6 101.1h15.1v13.1h3.8V85.6h-3.8v12.3h-15.1V85.6h-3.8v28.6h3.8zm64.9 83.2h-15V172h-3.8v28.6h3.8v-13.1h15v13.1h3.8V172h-3.8zm34.9-83.2h15v13.1h3.8V85.6h-3.8v12.3h-15V85.6h-3.8v28.6h3.8zm-84.7 169.6h-15.1v-12.3h-3.8V287h3.8v-13.1h15.1V287h3.8v-28.6h-3.8zm149.6-86.4h-15V172h-3.8v28.6h3.8v-13.1h15v13.1h3.8V172h-3.8z"/></svg>