<?xml version="1.0" encoding="utf-8"?>
<!-- Generator: Adobe Illustrator 19.2.1, SVG Export Plug-In . SVG Version: 6.00 Build 0)  -->
<svg version="1.1" id="Слой_1" xmlns="http://www.w3.org/2000/svg" xmlns:xlink="http://www.w3.org/1999/xlink" x="0px" y="0px"
	 viewBox="0 0 369.1 301.2" style="enable-background:new 0 0 369.1 301.2;" xml:space="preserve">
<g>
	<polygon points="166.7,131.9 163.4,131.9 162.9,134.3 167.1,134.3 	"/>
	<polygon points="171.7,160.7 158.3,160.7 157.9,163.1 172.2,163.1 	"/>
	<polygon points="168.4,141.5 161.7,141.5 161.3,143.9 168.8,143.9 	"/>
	<polygon points="170.1,151.1 160,151.1 159.6,153.5 170.5,153.5 	"/>
	<polygon points="263.1,131.9 262.7,134.3 266.9,134.3 266.4,131.9 	"/>
	<polygon points="261,143.9 268.5,143.9 268.1,141.5 261.5,141.5 	"/>
	<polygon points="257.6,163.1 271.9,163.1 271.5,160.7 258.1,160.7 	"/>
	<polygon points="259.3,153.5 270.3,153.5 269.8,151.1 259.7,151.1 	"/>
	<path d="M354.9,100.6l-1.7-2.3l0,0l-32.5-44.8l-0.6-0.9l-2.7,0.9l0,0l-51.1,16.6l6.2-55.9h-15.2l6.2,55.4l-46.1-26.6l0,0l-2.4-1.3
		l-0.6,0.4l-48.1,27.8l0,0l-2.3,1.3v0.7v2v54.9l-47.1,27.2l6-35.3h-15.2l6,35.3l-47.7-27.5l0,0l-0.6-0.3l-0.6,0.3l0,0l-48.2,27.8
		l0,0l-2.3,1.3v0.7v2v53.6v2v0.7l2.3,1.3l0,0l48.2,27.8l0,0l0.6,0.3l0.6-0.3l0,0l44.9-25.9c0.1,1.7,1.4,3.1,3.8,4.4
		c0.8,0.4,2.5,1.6,2.5,2.7c0,0.7-0.9,1.6-2.5,2.4c-0.4,0.2-3.9,2-3.9,4.8c0,1.7,1.3,3.3,3.9,4.5c0.8,0.4,2.5,1.6,2.5,2.7
		c0,0.7-0.9,1.6-2.6,2.4c-0.4,0.2-3.9,2.1-3.8,5c0,1.8,1.3,3.3,3.9,4.6l1.1-2.1c-1.6-0.8-2.5-1.7-2.5-2.4c0-1.1,1.7-2.4,2.5-2.9
		c2.6-1.3,3.9-2.8,3.9-4.5c0-2.8-3.5-4.6-3.9-4.8c-1.6-0.8-2.5-1.7-2.5-2.4c0-1,1.7-2.2,2.5-2.7c2.6-1.3,3.9-2.8,3.9-4.5
		c0-2.8-3.5-4.6-3.9-4.8c-1.6-0.8-2.5-1.7-2.5-2.4c0-0.8,1.1-1.8,2-2.3l49.3,28.5l0,0l0.6,0.3l0.6-0.3l0,0l48.2-27.8l0,0l2.3-1.3
		v-0.7v-2v-54.9l48.8-28.2l52.4,17l0,0l1.9,0.6l0,0l0,0l0.8,0.3l0.5-0.7l0,0l32.7-45l0,0L354.9,100.6z M319.8,144.9l-0.6,0.9
		L266,128.5V72.6l53.1-17.3l0.6,0.9l0,0l32.2,44.3L319.8,144.9L319.8,144.9z M166.2,72.5L213.8,45l0,0l1.1-0.7l48.7,28.1v56.2
		l-47.1,27.2l6-35.3h-15.2l6,35.3l-47.1-27.2V73.8V72.5z M16.6,160.2v-1.3l47.6-27.5l0,0l1.1-0.6l1.1,0.6l0,0l47.6,27.5v56.2
		c0,0-0.1,0-0.1,0.1l-47.4,27.4l0,0l-1.1,0.6l-1.1-0.6l0,0l-47.6-27.5v-1.3V160.2z M213.7,215.1l-47.6,27.5l0,0l-1.1,0.6l-1.1-0.6
		l0,0l-47.6-27.5v-56.2l48.7-28.1l48.7,28.1v54.9V215.1z"/>
	<polygon points="107.6,101.1 122.7,101.1 122.7,114.2 126.5,114.2 126.5,85.6 122.7,85.6 122.7,97.9 107.6,97.9 107.6,85.6 
		103.8,85.6 103.8,114.2 107.6,114.2 	"/>
	<polygon points="172.5,184.3 157.5,184.3 157.5,172 153.7,172 153.7,200.6 157.5,200.6 157.5,187.5 172.5,187.5 172.5,200.6 
		176.3,200.6 176.3,172 172.5,172 	"/>
	<polygon points="207.4,101.1 222.4,101.1 222.4,114.2 226.2,114.2 226.2,85.6 222.4,85.6 222.4,97.9 207.4,97.9 207.4,85.6 
		203.6,85.6 203.6,114.2 207.4,114.2 	"/>
	<polygon points="122.7,270.7 107.6,270.7 107.6,258.4 103.8,258.4 103.8,287 107.6,287 107.6,273.9 122.7,273.9 122.7,287 
		126.5,287 126.5,258.4 122.7,258.4 	"/>
	<polygon points="272.3,184.3 257.3,184.3 257.3,172 253.5,172 253.5,200.6 257.3,200.6 257.3,187.5 272.3,187.5 272.3,200.6 
		276.1,200.6 276.1,172 272.3,172 	"/>
</g>
</svg>
