<svg preserveAspectRatio="xMidYMid" viewBox="165 208.25 196.02 153.45"><clipPath id="a"><path d="M.5.5h539v719H.5z"/></clipPath><rect width="100%" height="100%" x="165" y="208.25" fill="#fff"/><g clip-path="url(#a)"><path stroke="#bebe00" d="M185.63 320.69v-6.95m0-1.98v-6.94m-3.96 15.86v-6.94m0-1.98v-6.95"/><circle cx="183.65" cy="328.62" r="7.43" fill="#ececb3" stroke="#bebe00"/><circle cx="183.65" cy="296.88" r="7.43" fill="#ececb3" stroke="#bebe00"/><path stroke="#bebe00" d="M201.73 320.69v-6.95m0-1.98v-6.94m-3.96 15.86v-6.94m0-1.98v-6.95"/><circle cx="199.75" cy="328.62" r="7.43" fill="#ececb3" stroke="#bebe00"/><circle cx="199.75" cy="296.88" r="7.43" fill="#ececb3" stroke="#bebe00"/><path stroke="#bebe00" d="M217.83 320.69v-6.95m0-1.98v-6.94m-3.96 15.86v-6.94m0-1.98v-6.95"/><circle cx="215.85" cy="328.62" r="7.43" fill="#ececb3" stroke="#bebe00"/><circle cx="215.85" cy="296.88" r="7.43" fill="#ececb3" stroke="#bebe00"/><path stroke="#bebe00" d="M233.93 320.69v-6.95m0-1.98v-6.94m-3.96 15.86v-6.94m0-1.98v-6.95"/><circle cx="231.95" cy="328.62" r="7.43" fill="#ececb3" stroke="#bebe00"/><circle cx="231.95" cy="296.88" r="7.43" fill="#ececb3" stroke="#bebe00"/><path stroke="#bebe00" d="M250.03 320.69v-6.95m0-1.98v-6.94m-3.96 15.86v-6.94m0-1.98v-6.95"/><circle cx="248.05" cy="328.62" r="7.43" fill="#ececb3" stroke="#bebe00"/><circle cx="248.05" cy="296.88" r="7.43" fill="#ececb3" stroke="#bebe00"/><path stroke="#bebe00" d="M266.13 320.69v-6.95m0-1.98v-6.94m-3.96 15.86v-6.94m0-1.98v-6.95"/><circle cx="264.15" cy="328.62" r="7.43" fill="#ececb3" stroke="#bebe00"/><circle cx="264.15" cy="296.88" r="7.43" fill="#ececb3" stroke="#bebe00"/><path stroke="#bebe00" d="M282.23 320.69v-6.95m0-1.98v-6.94m-3.96 15.86v-6.94m0-1.98v-6.95"/><circle cx="280.25" cy="328.62" r="7.43" fill="#ececb3" stroke="#bebe00"/><circle cx="280.25" cy="296.88" r="7.43" fill="#ececb3" stroke="#bebe00"/><path fill="#2d2dfe" fill-rule="evenodd" stroke="#2d2dfe" stroke-linejoin="bevel" d="M264.72 291.88l6.65-3.79-.05-7.61-6.6-3.86-6.59 3.81.03 7.71z" shape-rendering="geometricPrecision"/><path fill="none" stroke="#00001d" stroke-linejoin="bevel" d="M264.72 291.88l6.65-3.79-.05-7.61-6.6-3.86-6.59 3.81.03 7.71z" shape-rendering="geometricPrecision"/><path fill="#d0d0ff" fill-rule="evenodd" stroke="#d0d0ff" stroke-linejoin="bevel" d="M264.52 291.53s2.26-1.14 3.23-1.65c.64-.33 3.23-2.04 3.23-2.04s-2.01 1.1-3.48 1.9c-2.15 1.17-2.98 1.79-2.98 1.79z" shape-rendering="geometricPrecision"/><path fill="#d0d0ff" fill-rule="evenodd" stroke="#d0d0ff" stroke-linejoin="bevel" d="M270.9 287.94s.15-2.54.2-3.62c.03-.73-.15-3.83-.15-3.83s-.05 2.3-.1 3.97c-.06 2.44.05 3.48.05 3.48z" shape-rendering="geometricPrecision"/><path fill="#2e2efd" fill-rule="evenodd" stroke="#2e2efd" stroke-linejoin="bevel" d="M259.24 244.36l5.39-5.44-2.08-7.31-7.4-1.95-5.32 5.44 2.09 7.42z" shape-rendering="geometricPrecision"/><path fill="none" stroke="#00001d" stroke-linejoin="bevel" d="M259.24 244.36l5.39-5.44-2.08-7.31-7.4-1.95-5.32 5.44 2.09 7.42z" shape-rendering="geometricPrecision"/><path fill="#d0d0fe" fill-rule="evenodd" stroke="#d0d0fe" stroke-linejoin="bevel" d="M258.96 244.08s1.87-1.71 2.67-2.46c.53-.49 2.56-2.84 2.56-2.84s-1.64 1.61-2.84 2.78c-1.75 1.7-2.39 2.52-2.39 2.52z" shape-rendering="geometricPrecision"/><path fill="#d0d0fe" fill-rule="evenodd" stroke="#d0d0fe" stroke-linejoin="bevel" d="M264.14 238.9s-.53-2.48-.78-3.54c-.16-.7-1.17-3.64-1.17-3.64s.57 2.22.97 3.85c.6 2.37.98 3.33.98 3.33z" shape-rendering="geometricPrecision"/><path fill="#2e2efd" fill-rule="evenodd" stroke="#2e2efd" stroke-linejoin="bevel" d="M265.47 259.77l4.6-6.12-3.07-6.96-7.59-.92-4.53 6.11 3.08 7.06z" shape-rendering="geometricPrecision"/><path fill="none" stroke="#00001d" stroke-linejoin="bevel" d="M265.47 259.77l4.6-6.12-3.07-6.96-7.59-.92-4.53 6.11 3.08 7.06z" shape-rendering="geometricPrecision"/><path fill="#d0d0fe" fill-rule="evenodd" stroke="#d0d0fe" stroke-linejoin="bevel" d="M265.15 259.53s1.62-1.95 2.3-2.79c.46-.57 2.16-3.17 2.16-3.17s-1.41 1.82-2.44 3.14c-1.51 1.92-2.02 2.82-2.02 2.82z" shape-rendering="geometricPrecision"/><path fill="#d0d0fe" fill-rule="evenodd" stroke="#d0d0fe" stroke-linejoin="bevel" d="M269.58 253.7s-.87-2.39-1.26-3.4c-.26-.68-1.65-3.45-1.65-3.45s.86 2.12 1.48 3.68c.91 2.27 1.43 3.17 1.43 3.17z" shape-rendering="geometricPrecision"/><path fill="#2e2efd" fill-rule="evenodd" stroke="#2e2efd" stroke-linejoin="bevel" d="M265.47 276.13l6.65-3.79-.05-7.61-6.6-3.86-6.59 3.81.03 7.71z" shape-rendering="geometricPrecision"/><path fill="none" stroke="#00001d" stroke-linejoin="bevel" d="M265.47 276.13l6.65-3.79-.05-7.61-6.6-3.86-6.59 3.81.03 7.71z" shape-rendering="geometricPrecision"/><path fill="#d0d0fe" fill-rule="evenodd" stroke="#d0d0fe" stroke-linejoin="bevel" d="M265.27 275.78s2.26-1.14 3.23-1.65c.64-.33 3.23-2.04 3.23-2.04s-2.01 1.1-3.48 1.9c-2.15 1.17-2.98 1.79-2.98 1.79z" shape-rendering="geometricPrecision"/><path fill="#d0d0fe" fill-rule="evenodd" stroke="#d0d0fe" stroke-linejoin="bevel" d="M271.65 272.19s.15-2.54.2-3.62c.03-.73-.15-3.83-.15-3.83s-.05 2.3-.1 3.97c-.06 2.44.05 3.48.05 3.48z" shape-rendering="geometricPrecision"/><text text-rendering="geometricPrecision"><tspan x="232.5" y="219" font-family="Times New Roman" font-size="12">Glycolipid</tspan></text><text text-rendering="geometricPrecision"><tspan x="165" y="252.75" font-family="Times New Roman" font-size="12">Sugar Residue</tspan></text><text text-rendering="geometricPrecision"><tspan x="293.25" y="280.5" font-family="Times New Roman" font-size="12">Lipid Residue</tspan></text><path stroke="#2e2efd" d="M243.44 256.5H234"/><path fill="#2e2efd" fill-rule="evenodd" d="M254.25 256.5l-13.5-3.38c2.12 1.9 2.12 4.86 0 6.76z" shape-rendering="geometricPrecision"/><path fill="#bebe00" fill-rule="evenodd" d="M271.83 290.7l13.48-3.85c-2.81-.59-4.29-3.17-3.4-5.9z" shape-rendering="geometricPrecision"/><text text-rendering="geometricPrecision"><tspan x="202.5" y="358.5" font-family="Times New Roman" font-size="12">Lipid Membrane</tspan></text></g></svg>