<svg preserveAspectRatio="xMidYMid" viewBox="165 208.3 196 153.4"><clipPath id="a"><path d="M.5.5h539v719H.5z"/></clipPath><rect width="100%" height="100%" x="165" y="208.3" fill="#fff"/><g clip-path="url(#a)"><g stroke="#bebe00"><path d="M185.6 320.7v-7m0-1.9v-7m-3.9 15.9v-7m0-1.9v-7"/><circle cx="183.7" cy="328.6" r="7.4" fill="#ececb3"/><circle cx="183.7" cy="296.9" r="7.4" fill="#ececb3"/><path d="M201.7 320.7v-7m0-1.9v-7m-3.9 15.9v-7m0-1.9v-7"/><circle cx="199.8" cy="328.6" r="7.4" fill="#ececb3"/><circle cx="199.8" cy="296.9" r="7.4" fill="#ececb3"/><path d="M217.8 320.7v-7m0-1.9v-7m-3.9 15.9v-7m0-1.9v-7"/><circle cx="215.8" cy="328.6" r="7.4" fill="#ececb3"/><circle cx="215.8" cy="296.9" r="7.4" fill="#ececb3"/><path d="M233.9 320.7v-7m0-1.9v-7m-3.9 15.9v-7m0-1.9v-7"/><circle cx="231.9" cy="328.6" r="7.4" fill="#ececb3"/><circle cx="231.9" cy="296.9" r="7.4" fill="#ececb3"/><path d="M250 320.7v-7m0-1.9v-7m-3.9 15.9v-7m0-1.9v-7"/><circle cx="248.1" cy="328.6" r="7.4" fill="#ececb3"/><circle cx="248.1" cy="296.9" r="7.4" fill="#ececb3"/><path d="M266.1 320.7v-7m0-1.9v-7m-3.9 15.9v-7m0-1.9v-7"/><circle cx="264.1" cy="328.6" r="7.4" fill="#ececb3"/><circle cx="264.1" cy="296.9" r="7.4" fill="#ececb3"/><path d="M282.2 320.7v-7m0-1.9v-7m-3.9 15.9v-7m0-1.9v-7"/><circle cx="280.3" cy="328.6" r="7.4" fill="#ececb3"/><circle cx="280.3" cy="296.9" r="7.4" fill="#ececb3"/></g><path fill="#2d2dfe" fill-rule="evenodd" stroke="#2d2dfe" stroke-linejoin="bevel" d="m264.7 291.9 6.7-3.8v-7.6l-6.7-3.9-6.6 3.8v7.7z" shape-rendering="geometricPrecision"/><path fill="none" stroke="#00001d" stroke-linejoin="bevel" d="m264.7 291.9 6.7-3.8v-7.6l-6.7-3.9-6.6 3.8v7.7z" shape-rendering="geometricPrecision"/><path fill="#d0d0ff" fill-rule="evenodd" stroke="#d0d0ff" stroke-linejoin="bevel" d="m264.5 291.5 3.3-1.6 3.2-2-3.5 1.8z" shape-rendering="geometricPrecision"/><path fill="#d0d0ff" fill-rule="evenodd" stroke="#d0d0ff" stroke-linejoin="bevel" d="m270.9 288 .2-3.7-.2-3.8v7.4Z" shape-rendering="geometricPrecision"/><path fill="#2e2efd" fill-rule="evenodd" stroke="#2e2efd" stroke-linejoin="bevel" d="m259.2 244.4 5.4-5.5-2-7.3-7.5-2-5.3 5.5 2.1 7.4z" shape-rendering="geometricPrecision"/><path fill="none" stroke="#00001d" stroke-linejoin="bevel" d="m259.2 244.4 5.4-5.5-2-7.3-7.5-2-5.3 5.5 2.1 7.4z" shape-rendering="geometricPrecision"/><path fill="#d0d0fe" fill-rule="evenodd" stroke="#d0d0fe" stroke-linejoin="bevel" d="m259 244 2.6-2.4 2.6-2.8-2.8 2.8z" shape-rendering="geometricPrecision"/><path fill="#d0d0fe" fill-rule="evenodd" stroke="#d0d0fe" stroke-linejoin="bevel" d="m264.1 238.9-.7-3.5-1.2-3.7 1 3.9z" shape-rendering="geometricPrecision"/><path fill="#2e2efd" fill-rule="evenodd" stroke="#2e2efd" stroke-linejoin="bevel" d="m265.5 259.8 4.6-6.2-3.1-7-7.6-.8-4.5 6 3 7.1z" shape-rendering="geometricPrecision"/><path fill="none" stroke="#00001d" stroke-linejoin="bevel" d="m265.5 259.8 4.6-6.2-3.1-7-7.6-.8-4.5 6 3 7.1z" shape-rendering="geometricPrecision"/><path fill="#d0d0fe" fill-rule="evenodd" stroke="#d0d0fe" stroke-linejoin="bevel" d="m265.2 259.5 2.3-2.8 2.1-3.1-2.4 3.1zm4.4-5.8-1.3-3.4z" shape-rendering="geometricPrecision"/><path fill="#2e2efd" fill-rule="evenodd" stroke="#2e2efd" stroke-linejoin="bevel" d="m265.5 276.1 6.6-3.8v-7.6l-6.6-3.8-6.6 3.8v7.7z" shape-rendering="geometricPrecision"/><path fill="none" stroke="#00001d" stroke-linejoin="bevel" d="m265.5 276.1 6.6-3.8v-7.6l-6.6-3.8-6.6 3.8v7.7z" shape-rendering="geometricPrecision"/><path fill="#d0d0fe" fill-rule="evenodd" stroke="#d0d0fe" stroke-linejoin="bevel" d="m265.3 275.8 3.2-1.7 3.2-2s-2 1-3.4 1.9z" shape-rendering="geometricPrecision"/><path fill="#d0d0fe" fill-rule="evenodd" stroke="#d0d0fe" stroke-linejoin="bevel" d="m271.7 272.2.2-3.6-.2-3.9-.1 4z" shape-rendering="geometricPrecision"/><text xml:space="preserve" text-rendering="geometricPrecision"><tspan x="232.5" y="219" font-family="Times New Roman" font-size="12">Glycolipid</tspan></text><text xml:space="preserve" text-rendering="geometricPrecision"><tspan x="165" y="252.8" font-family="Times New Roman" font-size="12">Sugar Residue</tspan></text><text xml:space="preserve" text-rendering="geometricPrecision"><tspan x="293.3" y="280.5" font-family="Times New Roman" font-size="12">Lipid Residue</tspan></text><path stroke="#2e2efd" d="M243.4 256.5H234"/><path fill="#2e2efd" fill-rule="evenodd" d="m254.3 256.5-13.6-3.4a4.4 4.4 0 0 1 0 6.8Z" shape-rendering="geometricPrecision"/><path fill="#bebe00" fill-rule="evenodd" d="m271.8 290.7 13.5-3.8a4.4 4.4 0 0 1-3.4-6Z" shape-rendering="geometricPrecision"/><text xml:space="preserve" text-rendering="geometricPrecision"><tspan x="202.5" y="358.5" font-family="Times New Roman" font-size="12">Lipid Membrane</tspan></text></g></svg>