<svg viewBox="0 0 954 713.09"><path d="M58 584.082l-8 5v-148.99l8 5z"/><path d="M178.5 654.082v9.01L50 589.082l8-5zm120.5-70l4 2.5v4.5l-124.5 72.01v-9.01z"/><path d="M299 445.092l4-2.5 4 2.5v138.99l-4 2.5-4-2.5z"/><path d="M178.5 375.092v-9l120 69 4.5 7.5-4 2.5zm-120.5 70l-8-5 128.5-74v9zm370 208.99v9.01l-125-72.01v-4.5l4-2.5zm120.5-70l8 5-128.5 74.01v-9.01z"/><path d="M548.5 445.092l4-2.5 4 2.5v143.99l-8-5z"/><path d="M428 375.092v-4.5l4-2.5 115.5 67 5 7.5-4 2.5zm-121 70l-4-2.5 5-7.5 116-67 4 2.5v4.5zm366.5-77l4 2.5.51 4.5-121.51 70-4-2.5 5-7.5z"/><path d="M673.5 229.082l4-2.5 4 3.01v138l-4 3-4-2.5z"/><path d="M552.5 159.082v-9l120 69 5 7.5-4 2.5zm-120.5 70l-8-5 128.5-74v9z"/><path d="M432 368.092l-4 2.5-4-2.5v-144.01l8 5zm381.01 42.5l2.99 8.99-137.99-44.49-.51-4.5 4-3z"/><path d="M894 298.592h10l-88 120.99-2.99-8.99zm-80.99-112.01l2.99-9 88 121.01h-10z"/><path d="M681.5 229.592l-4-3.01 4.49-5.49L816 177.582l-2.99 9z"/><text transform="translate(267.5 337.587)"><tspan x="0" y="0" font-family="ArialMT" font-size="100">H</tspan></text><path d="M288 353.592h30l-10 81.5-5 7.5-4.5-7.5z"/><text transform="translate(516.507 337.587)"><tspan x="0" y="0" font-family="ArialMT" font-size="100">H</tspan></text><path d="M537.5 353.592h30l-10 81.5-5 7.5-5-7.5z"/><text transform="translate(641.507 121.582)"><tspan x="0" y="0" font-family="ArialMT" font-size="100">H</tspan></text><path d="M662.5 137.582h30l-10.51 83.51-4.49 5.49-5-7.5z"/><text transform="translate(391.998 553.592)"><tspan x="0" y="0" font-family="ArialMT" font-size="100">H</tspan></text><path d="M443 466.582h-30l1-7.99h27.5zm-5-31.49h-20l1-8.01h18zm-5-31.5h-10.5l1.5-8h8z"/><text transform="translate(641.507 553.592)"><tspan x="0" y="0" font-family="ArialMT" font-size="100">H</tspan></text><path d="M692.5 466.582h-30l1-7.99H691zm-5-31.49h-20.51l1.51-8.01H686zm-5-31.5h-10.49l1.49-8h8z"/></svg>