<?xml version="1.0" encoding="UTF-8" standalone="no"?>
<!-- Created with Inkscape (http://www.inkscape.org/) -->
<svg
   xmlns:svg="http://www.w3.org/2000/svg"
   xmlns="http://www.w3.org/2000/svg"
   version="1.0"
   width="954.00403"
   height="713.08899"
   viewBox="0 0 954.004 713.089"
   id="svg2"
   xml:space="preserve"><defs
   id="defs88" />
	
		<g
   transform="translate(49.99999,35.782)"
   id="レイヤー_1">
			<g
   id="g7">
				<polygon
   points="8.003,548.303 0,553.303 0,404.309 8.003,409.309 8.003,548.303 "
   id="polygon9" />
				<polygon
   points="128.501,618.303 128.501,627.307 0,553.303 8.003,548.303 128.501,618.303 "
   id="polygon11" />
				<polygon
   points="249.004,548.303 253.003,550.803 253.003,555.305 128.501,627.307 128.501,618.303 249.004,548.303 "
   id="polygon13" />
				<polygon
   points="249.004,409.309 253.003,406.809 257.002,409.309 257.002,548.303 253.003,550.803 249.004,548.303 249.004,409.309 "
   id="polygon15" />
				<polygon
   points="128.501,339.309 128.501,330.305 248.501,399.309 253.003,406.809 249.004,409.309 128.501,339.309 "
   id="polygon17" />
				<polygon
   points="8.003,409.309 0,404.309 128.501,330.305 128.501,339.309 8.003,409.309 "
   id="polygon19" />
				<polygon
   points="378.003,618.303 378.003,627.307 253.003,555.305 253.003,550.803 257.002,548.303 378.003,618.303 "
   id="polygon21" />
				<polygon
   points="498.496,548.303 506.504,553.303 378.003,627.307 378.003,618.303 498.496,548.303 "
   id="polygon23" />
				<polygon
   points="498.496,409.309 502.5,406.809 506.504,409.309 506.504,553.303 498.496,548.303 498.496,409.309 "
   id="polygon25" />
				<polygon
   points="378.003,339.309 378.003,334.807 382.002,332.307 497.5,399.309 502.5,406.809 498.496,409.309 378.003,339.309 "
   id="polygon27" />
				<polygon
   points="257.002,409.309 253.003,406.809 258.003,399.309 374.004,332.307 378.003,334.807 378.003,339.309 257.002,409.309 "
   id="polygon29" />
				<polygon
   points="623.496,332.307 627.5,334.807 628.008,339.309 506.504,409.309 502.5,406.809 507.5,399.309 623.496,332.307 "
   id="polygon31" />
				<polygon
   points="623.496,193.303 627.5,190.803 631.504,193.806 631.504,331.809 627.5,334.807 623.496,332.307 623.496,193.303 "
   id="polygon33" />
				<polygon
   points="502.5,123.303 502.5,114.304 622.5,183.303 627.5,190.803 623.496,193.303 502.5,123.303 "
   id="polygon35" />
				<polygon
   points="382.002,193.303 374.004,188.303 502.5,114.304 502.5,123.303 382.002,193.303 "
   id="polygon37" />
				<polygon
   points="382.002,332.307 378.003,334.807 374.004,332.307 374.004,188.303 382.002,193.303 382.002,332.307 "
   id="polygon39" />
				<polygon
   points="763.008,374.807 765.996,383.801 628.008,339.309 627.5,334.807 631.504,331.809 763.008,374.807 "
   id="polygon41" />
				<polygon
   points="844.004,262.805 854.004,262.805 765.996,383.801 763.008,374.807 844.004,262.805 "
   id="polygon43" />
				<polygon
   points="763.008,150.803 765.996,141.804 854.004,262.805 844.004,262.805 763.008,150.803 "
   id="polygon45" />
				<polygon
   points="631.504,193.806 627.5,190.803 631.992,185.305 765.996,141.804 763.008,150.803 631.504,193.806 "
   id="polygon47" />
				<text
   transform="translate(217.5005,301.8047)"
   id="text49"><tspan
     x="0"
     y="0"
     style="font-size:100px;font-family:ArialMT"
     id="tspan51">H</tspan></text>


				<polygon
   points="238.003,317.805 268.003,317.805 258.003,399.309 253.003,406.809 248.501,399.309 238.003,317.805 "
   id="polygon53" />
				<text
   transform="translate(466.5068,301.8047)"
   id="text55"><tspan
     x="0"
     y="0"
     style="font-size:100px;font-family:ArialMT"
     id="tspan57">H</tspan></text>


				<polygon
   points="487.5,317.805 517.5,317.805 507.5,399.309 502.5,406.809 497.5,399.309 487.5,317.805 "
   id="polygon59" />
				<text
   transform="translate(591.5068,85.7998)"
   id="text61"><tspan
     x="0"
     y="0"
     style="font-size:100px;font-family:ArialMT"
     id="tspan63">H</tspan></text>


				<polygon
   points="612.5,101.804 642.5,101.804 631.992,185.305 627.5,190.803 622.5,183.303 612.5,101.804 "
   id="polygon65" />
				<text
   transform="translate(341.9985,517.8091)"
   id="text67"><tspan
     x="0"
     y="0"
     style="font-size:100px;font-family:ArialMT"
     id="tspan69">H</tspan></text>


				<polygon
   points="393.003,430.803 363.003,430.803 364.004,422.805 391.504,422.805 393.003,430.803 "
   id="polygon71" />
				<polygon
   points="388.003,399.309 368.003,399.309 369.004,391.301 387.002,391.301 388.003,399.309 "
   id="polygon73" />
				<polygon
   points="383.003,367.805 372.5,367.805 374.004,359.807 382.002,359.807 383.003,367.805 "
   id="polygon75" />
				<text
   transform="translate(591.5068,517.8091)"
   id="text77"><tspan
     x="0"
     y="0"
     style="font-size:100px;font-family:ArialMT"
     id="tspan79">H</tspan></text>


				<polygon
   points="642.5,430.803 612.5,430.803 613.496,422.805 640.996,422.805 642.5,430.803 "
   id="polygon81" />
				<polygon
   points="637.5,399.309 616.992,399.309 618.496,391.301 635.996,391.301 637.5,399.309 "
   id="polygon83" />
				<polygon
   points="632.5,367.805 622.012,367.805 623.496,359.807 631.504,359.807 632.5,367.805 "
   id="polygon85" />
			</g>
		</g>
	</svg>