<svg xml:space="preserve" viewBox="0 0 954 713.1"><path d="m58 584-8 5V440l8 5z"/><path d="M178.5 654v9L50 589l8-5zM299 584l4 2.6v4.5l-124.5 72v-9z"/><path d="m299 445 4-2.4 4 2.5v139l-4 2.5-4-2.5z"/><path d="M178.5 375v-9l120 69 4.5 7.6-4 2.5zM58 445l-8-5 128.5-74v9zm370 209v9l-125-72v-4.4l4-2.5zm120.5-70 8 5L428 663v-9z"/><path d="m548.5 445 4-2.4 4 2.5v144l-8-5z"/><path d="M428 375v-4.4l4-2.5 115.5 67 5 7.5-4 2.5zm-121 70-4-2.4 5-7.5 116-67 4 2.5v4.5zm366.5-77 4 2.6.5 4.5-121.5 70-4-2.5 5-7.5z"/><path d="m673.5 229 4-2.4 4 3v138l-4 3-4-2.5z"/><path d="M552.5 159v-9l120 69 5 7.6-4 2.5zM432 229l-8-5 128.5-74v9z"/><path d="m432 368-4 2.6-4-2.5V224l8 5zm381 42.6 3 9L678 375l-.5-4.5 4-3z"/><path d="M894 298.6h10l-88 121-3-9zm-81-112 3-9 88 121h-10zm-131.5 43-4-3 4.5-5.5 134-43.5-3 9z"/><text transform="translate(267.5 337.587)"><tspan x="0" y="0" style="font-size:100px;font-family:ArialMT">H</tspan></text><path d="M288 353.6h30L308 435l-5 7.5-4.5-7.5z"/><text transform="translate(516.507 337.587)"><tspan x="0" y="0" style="font-size:100px;font-family:ArialMT">H</tspan></text><path d="M537.5 353.6h30l-10 81.5-5 7.5-5-7.5z"/><text transform="translate(641.507 121.582)"><tspan x="0" y="0" style="font-size:100px;font-family:ArialMT">H</tspan></text><path d="M662.5 137.6h30L682 221l-4.5 5.5-5-7.5z"/><text transform="translate(391.998 553.591)"><tspan x="0" y="0" style="font-size:100px;font-family:ArialMT">H</tspan></text><path d="M443 466.6h-30l1-8h27.5zm-5-31.6h-20l1-8h18zm-5-31.4h-10.5l1.5-8h8z"/><text transform="translate(641.507 553.591)"><tspan x="0" y="0" style="font-size:100px;font-family:ArialMT">H</tspan></text><path d="M692.5 466.6h-30l1-8H691zm-5-31.6H667l1.5-8H686zm-5-31.4H672l1.5-8h8z"/></svg>