<svg xmlns="http://www.w3.org/2000/svg" viewBox="0 0 954 713.09" xml:space="preserve"><g transform="translate(50 35.782)"><path d="m8 548.3-8 5V404.31l8 5z"/><path d="M128.5 618.3v9.01L0 553.3l8-5zm120.5-70 4 2.5v4.5l-124.5 72.01v-9.01z"/><path d="m249 409.31 4-2.5 4 2.5V548.3l-4 2.5-4-2.5z"/><path d="M128.5 339.31v-9l120 69 4.5 7.5-4 2.5zM8 409.31l-8-5 128.5-74v9zM378 618.3v9.01L253 555.3v-4.5l4-2.5zm120.5-70 8 5L378 627.31v-9.01z"/><path d="m498.5 409.31 4-2.5 4 2.5V553.3l-8-5z"/><path d="M378 339.31v-4.5l4-2.5 115.5 67 5 7.5-4 2.5zm-121 70-4-2.5 5-7.5 116-67 4 2.5v4.5zm366.5-77 4 2.5.51 4.5-121.51 70-4-2.5 5-7.5z"/><path d="m623.5 193.3 4-2.5 4 3.01v138l-4 3-4-2.5z"/><path d="M502.5 123.3v-9l120 69 5 7.5-4 2.5zm-120.5 70-8-5 128.5-74v9z"/><path d="m382 332.31-4 2.5-4-2.5V188.3l8 5zm381.01 42.5 2.99 8.99-137.99-44.49-.51-4.5 4-3z"/><path d="M844 262.81h10L766 383.8l-2.99-8.99zM763.01 150.8l2.99-9 88 121.01h-10z"/><path d="m631.5 193.81-4-3.01 4.49-5.49L766 141.8l-2.99 9z"/><text transform="translate(217.5 301.805)"><tspan x="0" y="0" font-size="100" font-family="ArialMT">H</tspan></text><path d="M238 317.81h30l-10 81.5-5 7.5-4.5-7.5z"/><text transform="translate(466.507 301.805)"><tspan x="0" y="0" font-size="100" font-family="ArialMT">H</tspan></text><path d="M487.5 317.81h30l-10 81.5-5 7.5-5-7.5z"/><text transform="translate(591.507 85.8)"><tspan x="0" y="0" font-size="100" font-family="ArialMT">H</tspan></text><path d="M612.5 101.8h30l-10.51 83.51-4.49 5.49-5-7.5z"/><text transform="translate(341.998 517.81)"><tspan x="0" y="0" font-size="100" font-family="ArialMT">H</tspan></text><path d="M393 430.8h-30l1-7.99h27.5zm-5-31.49h-20l1-8.01h18zm-5-31.5h-10.5l1.5-8h8z"/><text transform="translate(591.507 517.81)"><tspan x="0" y="0" font-size="100" font-family="ArialMT">H</tspan></text><path d="M642.5 430.8h-30l1-7.99H641zm-5-31.49h-20.51l1.51-8.01H636zm-5-31.5h-10.49l1.49-8h8z"/></g></svg>