<svg viewBox="0 0 800 400"><g style="stroke:#000"><path d="M85.5 939.3v-85.9m-18 85.9v-85.9" style="fill:none;stroke:#000;stroke-width:4.5;stroke-linecap:square;stroke-linejoin:miter;stroke-miterlimit:4;stroke-opacity:1;stroke-dasharray:none" transform="translate(3.447 -649.212)"/></g><g style="fill:#f0f"><path d="M155 64.8q0-4.2 2.3-6.7a8 8 0 0 1 6-2.4q2.3 0 4.2 1.1t3 3.2 1 4.6-1.1 4.7a7 7 0 0 1-3 3.1 9 9 0 0 1-8.5-.1A8 8 0 0 1 156 69q-1-2-1-4.3m2.4 0q0 3.1 1.6 5a6 6 0 0 0 4.2 1.7q2.6 0 4.2-1.8t1.7-5.1q0-2-.7-3.7a5 5 0 0 0-5.1-3.3q-2.5 0-4.2 1.7t-1.7 5.5" style="fill:#000;fill-opacity:1" transform="translate(-332.88 14.5)scale(2.52928)"/></g><path d="M5.6 1015.2q0-10.8 5.8-17 5.7-6 15-6 6 0 10.8 2.8 4.8 3 7.4 8a26 26 0 0 1 2.5 11.7q0 6.6-2.7 11.8a18 18 0 0 1-7.5 7.9 22 22 0 0 1-21.5-.3q-4.8-3-7.4-8-2.4-5.2-2.4-11m5.9 0q0 8 4.2 12.4t10.6 4.6q6.5 0 10.7-4.6t4.2-13q0-5.3-1.8-9.2a14 14 0 0 0-13-8.3q-6 0-10.5 4.2-4.5 4.1-4.4 14" style="fill:#000" transform="translate(3.694 -649.212)"/><path d="M53.4 1012.4h73l-50.1-86.8-34.6 59.9" style="fill:none;stroke:#000;stroke-width:4.5;stroke-linecap:square;stroke-linejoin:miter;stroke-miterlimit:4;stroke-opacity:1;stroke-dasharray:none" transform="translate(3.694 -649.212)"/><g style="stroke:#000"><path d="M85.5 932.5v-79m-18 79v-79" style="fill:none;stroke:#000;stroke-width:4.5;stroke-linecap:square;stroke-linejoin:miter;stroke-miterlimit:4;stroke-opacity:1;stroke-dasharray:none" transform="translate(184.841 -681.82)"/></g><g style="fill:#f0f"><path d="M155 64.8q0-4.2 2.3-6.7a8 8 0 0 1 6-2.4q2.3 0 4.2 1.1t3 3.2 1 4.6-1.1 4.7a7 7 0 0 1-3 3.1 9 9 0 0 1-8.5-.1A8 8 0 0 1 156 69q-1-2-1-4.3m2.4 0q0 3.1 1.6 5a6 6 0 0 0 4.2 1.7q2.6 0 4.2-1.8t1.7-5.1q0-2-.7-3.7a5 5 0 0 0-5.1-3.3q-2.5 0-4.2 1.7t-1.7 5.5" style="fill:#000" transform="translate(-151.486 -18.108)scale(2.52928)"/></g><path d="M174.6 939q0-11 5.8-17 6-6.1 15-6.1 6 0 10.9 2.8 4.8 3 7.3 8a26 26 0 0 1 2.6 11.7q0 6.7-2.7 11.8a18 18 0 0 1-7.5 8 22 22 0 0 1-21.6-.3q-4.8-3-7.3-8.1-2.4-5-2.5-10.9m6 0q0 7.9 4.2 12.4t10.6 4.5 10.7-4.6 4.2-13q0-5.2-1.8-9.2a14 14 0 0 0-13-8.3q-6.1 0-10.5 4.2t-4.4 14" style="fill:#000" transform="translate(-4.496 -621.37)"/><path d="m222 963.2 44 43.8 70.9-71-71-70.9-43.7 43.7" style="fill:none;stroke:#000;stroke-width:4.5;stroke-linecap:square;stroke-linejoin:miter;stroke-miterlimit:4;stroke-opacity:1;stroke-dasharray:none" transform="translate(-4.496 -621.37)"/><g style="stroke:#000"><path d="M85.5 930.2v-76.8m-18 76.8v-76.8" style="fill:none;stroke:#000;stroke-width:4.5;stroke-linecap:square;stroke-linejoin:miter;stroke-miterlimit:4;stroke-opacity:1;stroke-dasharray:none" transform="translate(397.239 -694.284)"/></g><g style="fill:#f0f"><path d="M155 64.8q0-4.2 2.3-6.7a8 8 0 0 1 6-2.4q2.3 0 4.2 1.1t3 3.2 1 4.6-1.1 4.7a7 7 0 0 1-3 3.1 9 9 0 0 1-8.5-.1A8 8 0 0 1 156 69q-1-2-1-4.3m2.4 0q0 3.1 1.6 5a6 6 0 0 0 4.2 1.7q2.6 0 4.2-1.8t1.7-5.1q0-2-.7-3.7a5 5 0 0 0-5.1-3.3q-2.5 0-4.2 1.7t-1.7 5.5" style="fill:#000" transform="translate(60.911 -30.573)scale(2.52928)"/></g><path d="M367.5 913.8q0-10.8 5.8-17 5.7-6 15-6 6 0 10.8 2.8 4.8 3 7.4 8a26 26 0 0 1 2.5 11.7q0 6.6-2.7 11.8a18 18 0 0 1-7.5 8 22 22 0 0 1-21.5-.4q-4.8-3-7.4-8-2.4-5.1-2.4-11m5.9 0q0 7.9 4.2 12.5t10.6 4.5q6.5 0 10.7-4.6t4.2-13q0-5.3-1.8-9.2a14 14 0 0 0-13-8.3q-6 0-10.5 4.2-4.4 4.1-4.4 14" style="fill:#000" transform="translate(4.913 -621.397)"/><path d="m397 940.3 21.7 66.7H519l31-95.5-81.2-59-55.4 40.4" style="fill:none;stroke:#000;stroke-width:4.5;stroke-linecap:square;stroke-linejoin:miter;stroke-miterlimit:4;stroke-opacity:1;stroke-dasharray:none" transform="translate(4.913 -621.397)"/><g style="stroke:#000"><path d="M85.5 928.9v-75.5m-18 75.5v-75.5" style="fill:none;stroke:#000;stroke-width:4.5;stroke-linecap:square;stroke-linejoin:miter;stroke-miterlimit:4;stroke-opacity:1;stroke-dasharray:none" transform="translate(624.942 -740.987)"/></g><g style="fill:#f0f"><path d="M155 64.8q0-4.2 2.3-6.7a8 8 0 0 1 6-2.4q2.3 0 4.2 1.1t3 3.2 1 4.6-1.1 4.7a7 7 0 0 1-3 3.1 9 9 0 0 1-8.5-.1A8 8 0 0 1 156 69q-1-2-1-4.3m2.4 0q0 3.1 1.6 5a6 6 0 0 0 4.2 1.7q2.6 0 4.2-1.8t1.7-5.1q0-2-.7-3.7a5 5 0 0 0-5.1-3.3q-2.5 0-4.2 1.7t-1.7 5.5" style="fill:#000" transform="translate(288.614 -77.275)scale(2.52928)"/></g><path d="M600 862.5q0-10.8 5.7-17 5.9-6 15-6 6 0 10.9 2.8 4.8 3 7.3 8a26 26 0 0 1 2.6 11.7q0 6.6-2.7 11.8a18 18 0 0 1-7.6 8 22 22 0 0 1-21.5-.4q-4.8-3-7.3-8t-2.5-10.9m5.8 0q0 7.9 4.3 12.5t10.6 4.5q6.5 0 10.7-4.6 4-4.5 4.1-13 0-5.3-1.7-9.2a14 14 0 0 0-13-8.3q-6.1 0-10.6 4.2-4.4 4.1-4.4 14" style="fill:#000" transform="translate(-4.877 -624.825)"/><path d="M619.3 892.7v67.5l87 50.2 87-50.2V859.7l-87-50.3-58.7 34" style="fill:none;stroke:#000;stroke-width:4.5;stroke-linecap:square;stroke-linejoin:miter;stroke-miterlimit:4;stroke-opacity:1;stroke-dasharray:none" transform="translate(-4.877 -624.825)"/><path d="M683.5 670.3v3.2l9.4 7.3-.7-.1h-.8a9 9 0 0 0-7 3.1 13 13 0 0 0-2.5 8.4q0 4.6 1.7 7a9 9 0 0 0 4.2 3.6q2.4 1 4.7 1 6 0 8.7-3 2.8-3 2.7-9-.2-5.6-2.5-8.3a19 19 0 0 0-4.3-3.8l-7.8-6.2h12v-3.2zm9.3 13.3q3.6 0 5.4 2.3a9 9 0 0 1 1.8 5.8q0 2.4-.9 4.5a7 7 0 0 1-2.2 3.1q-.7.5-1.4.6l-1.7.2h-1.3a6 6 0 0 1-4.8-2q-1.8-2.1-1.8-6.3 0-3.4 1.9-5.8a6 6 0 0 1 5-2.4m-215.3-14.8H473l-7.3 19.6-6-15.6q-1-2.6-2.1-3.6-1-1-3.4-1l-1.2.2-1 .4.4 3.6.6-.2h1.5l.5.6 8.5 21v12h4.4v-12z" style="font-size:100px;font-style:normal;font-variant:normal;font-weight:400;font-stretch:normal;fill:#000;fill-opacity:1;stroke:none;font-family:FreeSans;-inkscape-font-specification:FreeSans" transform="translate(0 -654.152)"/><text xml:space="preserve" x="451" y="840.4" style="font-size:400px;font-style:normal;font-weight:400;text-align:start;text-anchor:start;fill:#000;fill-opacity:1;stroke:none;font-family:Times New Roman" transform="translate(4.901 -75.115)scale(.14379)"><tspan x="451" y="840.4" style="text-align:center;text-anchor:middle">α</tspan></text><path d="M246.2 708.5h-3.8q.8-4 .8-7v-25.2q0-4 .7-5.9a7 7 0 0 1 2.7-3.4q2-1.5 5.2-1.4 3.6 0 6.1 1.9a7 7 0 0 1 2.5 5.5q0 4.1-4 6.8 6 2.7 6 8.7a11 11 0 0 1-5.2 9.4q-2 1-5 1.1-3 0-5.2-2.4v4.3q0 4.5-.8 7.6zm.8-14q1.8 3 5 3 3.1 0 4.6-2.3a10 10 0 0 0 1.5-5.5q0-2.5-1-5.1t-2.4-4q-1.5.4-2.5.4-2.4 0-2.4-1.3 0-1 2-1 1.2 0 3 .5 1.7-2.9 1.7-6 0-3-1.3-4.5t-3.3-1.5q-1.6 0-2.8.9t-1.7 2.2-.4 4.2z" style="font-size:50px;text-anchor:middle;fill:#000;stroke:#000;stroke-width:.94587135;font-family:serif" transform="translate(0 -654.152)"/></svg>