<svg viewBox="0 0 800 400"><defs><path id="a" fill="#000" d="M155.012 64.799q0-4.278 2.297-6.697t5.93-2.42q2.38 0 4.289 1.137a7.43 7.43 0 012.912 3.17q1.002 2.034 1.002 4.611 0 2.613-1.055 4.676t-2.988 3.123a8.54 8.54 0 01-4.172 1.061q-2.426 0-4.336-1.172a7.55 7.55 0 01-2.895-3.199 9.7 9.7 0 01-.984-4.29m2.344.035q0 3.105 1.67 4.893t4.189 1.787q2.566 0 4.225-1.805t1.658-5.121q0-2.097-.709-3.662-.71-1.565-2.074-2.426-1.365-.861-3.064-.861-2.414 0-4.154 1.658t-1.741 5.537"/></defs><g transform="translate(3.694 -649.212)"><path fill="none" stroke="#000" stroke-linecap="square" stroke-width="4.5" d="M85.274 939.257v-85.808M67.27 939.257v-85.808"/><use fill="#f0f" href="#a" transform="translate(-336.575 663.711) scale(2.52928)"/><path d="M5.56 1015.175q.001-10.82 5.81-16.94 5.81-6.12 15-6.12 6.017 0 10.847 2.876 4.83 2.874 7.366 8.018t2.534 11.662q0 6.61-2.668 11.827t-7.558 7.899-10.552 2.684q-6.136-.001-10.967-2.965-4.83-2.964-7.322-8.09a24.5 24.5 0 01-2.49-10.852m5.93.088q0 7.853 4.223 12.375 4.225 4.521 10.596 4.52 6.49-.001 10.686-4.565 4.194-4.564 4.193-12.953 0-5.304-1.793-9.262-1.794-3.957-5.246-6.136-3.453-2.178-7.75-2.178-6.104 0-10.506 4.194-4.402 4.193-4.403 14.004"/><path fill="none" stroke="#000" stroke-linecap="square" stroke-width="4.5" d="M53.435 1012.388h72.931l-50.094-86.766-34.543 59.83"/></g><g transform="translate(-4.496 -621.37)"><path fill="none" stroke="#000" stroke-linecap="square" stroke-width="4.5" d="M274.858 872.051V793m-18.004 79.051V793"/><use fill="#f0f" href="#a" transform="translate(-146.99 603.262) scale(2.52928)"/><path d="M174.623 938.918q.001-10.82 5.81-16.939 5.809-6.12 14.999-6.12 6.017 0 10.848 2.875 4.83 2.874 7.365 8.018 2.534 5.144 2.534 11.663 0 6.61-2.668 11.826-2.667 5.217-7.557 7.9-4.891 2.682-10.553 2.683-6.136 0-10.967-2.964-4.83-2.965-7.322-8.091a24.5 24.5 0 01-2.489-10.851m5.929.088q0 7.853 4.224 12.376 4.224 4.521 10.595 4.52 6.491 0 10.686-4.566 4.196-4.564 4.194-12.952 0-5.304-1.793-9.263-1.795-3.958-5.246-6.136-3.454-2.177-7.75-2.177-6.106 0-10.507 4.193t-4.403 14.005"/><path fill="none" stroke="#000" stroke-linecap="square" stroke-width="4.5" d="M222.088 963.22l43.768 43.769 70.946-70.946-70.946-70.946-43.748 43.748"/></g><g transform="translate(4.913 -621.397)"><path fill="none" stroke="#000" stroke-linecap="square" stroke-width="4.5" d="M477.847 857.307v-76.744m-18.004 76.744v-76.744"/><use fill="#f0f" href="#a" transform="translate(55.998 590.824) scale(2.52928)"/><path d="M367.46 913.793q.001-10.819 5.81-16.938 5.809-6.12 14.999-6.121 6.017 0 10.848 2.876 4.83 2.874 7.365 8.018 2.534 5.145 2.534 11.662 0 6.61-2.668 11.827-2.667 5.216-7.558 7.899-4.89 2.683-10.552 2.683-6.136 0-10.967-2.964-4.83-2.964-7.322-8.09a24.5 24.5 0 01-2.489-10.852m5.929.088q0 7.854 4.224 12.376t10.595 4.52q6.49-.001 10.686-4.565t4.194-12.953q0-5.304-1.794-9.262-1.794-3.957-5.245-6.136-3.454-2.178-7.75-2.178-6.106 0-10.507 4.194-4.402 4.193-4.403 14.004"/><path fill="none" stroke="#000" stroke-linecap="square" stroke-width="4.5" d="M396.975 940.301l21.677 66.715h100.386l31.021-95.473-81.214-59.006-55.487 40.314"/></g><g transform="translate(-4.877 -624.824)"><path fill="none" stroke="#000" stroke-linecap="square" stroke-width="4.5" d="M715.341 812.741v-75.454m-18.004 75.454v-75.454"/><use fill="#f0f" href="#a" transform="translate(293.492 547.55) scale(2.52928)"/><path d="M599.917 862.495q0-10.82 5.81-16.938 5.808-6.12 14.998-6.121 6.018 0 10.848 2.875t7.365 8.018 2.535 11.663q0 6.61-2.669 11.827-2.667 5.215-7.557 7.899-4.891 2.683-10.552 2.683-6.136 0-10.967-2.964-4.83-2.965-7.322-8.091a24.5 24.5 0 01-2.49-10.85m5.928.088q.001 7.854 4.224 12.376 4.224 4.521 10.595 4.52 6.492 0 10.687-4.566 4.194-4.563 4.193-12.952 0-5.304-1.793-9.262t-5.246-6.136-7.75-2.178q-6.105.001-10.506 4.193-4.402 4.193-4.404 14.005"/><path fill="none" stroke="#000" stroke-linecap="square" stroke-width="4.5" d="M619.304 892.669v67.525l87.034 50.25 87.034-50.25V859.696l-87.034-50.25-58.78 33.937"/></g><path d="M683.469 16.155v3.239l9.465 7.263c-.254-.046-.492-.09-.701-.126a5 5 0 00-.827-.056c-2.892.049-5.194 1.115-6.913 3.183s-2.594 4.854-2.637 8.357c.05 3.053.637 5.423 1.781 7.11q1.716 2.53 4.165 3.519c1.632.66 3.21.968 4.725.94 3.989.01 6.89-.959 8.708-2.917 1.818-1.959 2.72-4.966 2.692-9.016q-.214-5.633-2.566-8.287c-1.568-1.77-2.983-3.037-4.248-3.786l-7.853-6.184h12.06v-3.24zm9.325 13.335c2.4.042 4.204.8 5.398 2.271 1.194 1.473 1.782 3.408 1.781 5.806-.008 1.602-.286 3.078-.827 4.445-.542 1.366-1.285 2.433-2.258 3.183a3.4 3.4 0 01-1.402.588 9 9 0 01-1.697.127h-1.262c-2.004.006-3.599-.677-4.795-2.034-1.197-1.356-1.807-3.427-1.837-6.225.077-2.323.696-4.245 1.879-5.777q1.774-2.299 5.02-2.384M477.546 14.696h-4.505l-7.373 19.558-6.041-15.565q-.945-2.673-2.023-3.667t-3.404-.94q-.336.014-1.19.21-.855.197-.96.404l.306 3.584q.343-.155.666-.23.323-.077.666-.077.43-.003.774.166.345.17.506.55l8.55 20.89v12.082h4.403V39.578z" font-family="FreeSans" font-size="100" font-weight="400" style="-inkscape-font-specification:FreeSans"/><text style="text-align:start" x="450.97" y="840.37" font-family="Times New Roman" font-size="400" font-weight="400" transform="translate(4.901 -75.115) scale(.14379)"><tspan x="450.97" y="840.37" text-anchor="middle" style="text-align:center">α</tspan></text><path stroke="#000" stroke-width=".95" d="M246.176 54.323h-3.81q.831-3.903.831-7.066V22.108q0-3.926.704-5.843.705-1.916 2.748-3.383 2.044-1.466 5.115-1.466 3.65 0 6.132 1.928 2.482 1.929 2.482 5.485 0 4.156-3.949 6.812 5.889 2.771 5.889 8.706 0 3.232-1.559 5.785-1.56 2.55-3.602 3.637-2.044 1.085-4.884 1.085-3.233 0-5.266-2.425v4.296q0 4.433-.83 7.597zm.831-13.971q1.802 2.979 5.035 2.979 3.117 0 4.572-2.275t1.455-5.53q0-2.494-.959-5.092-.957-2.598-2.459-3.96-1.386.345-2.494.346-2.332 0-2.332-1.224 0-1.11 1.963-1.109 1.224 0 3.048.555a11.6 11.6 0 001.64-6.028q0-2.91-1.282-4.456-1.282-1.548-3.337-1.548-1.64 0-2.806.924t-1.605 2.205-.439 4.192z" font-family="serif" font-size="50" text-anchor="middle"/></svg>