<svg viewBox="349 288 456 141"><path fill="none" d="M349 288h456v141H349z"/><path fill="none" d="M349 288h456v141H349z"/><path fill="none" stroke="#111" stroke-linecap="round" stroke-linejoin="round" stroke-miterlimit="10" stroke-width="1.5" d="M429.8 320.3v40m0 0 34.6 20m-29.8-22.8 29.8 17.3m0 5.5 34.7-20m0 0v-40m-4.8 37.2v-34.4m4.8-2.8-34.7-20M434.6 323l29.8-17.2m-34.6 14.5 34.6-20m-34.6 20-34.7-20m0 0-34.5 20m34.5-14.4L365.4 323m-4.8-2.7v40m0 0 34.5 19.9m-29.7-22.7 29.7 17.1m34.7-14.3L395 380.2m189.4-59.9v40m4.8-37.2v34.4m-4.8 2.8 34.6 20m0 0 34.7-20M619 374.8l30-17.3m4.7 2.8v-40m0 0-34.7-20m30 22.8-30-17.3m-34.6 14.5 34.6-20m34.7 60 34.7 20m0 0 34.7-20m-34.7 14.5 30-17.3m4.7 2.8v-40m0 0-34.7-20m30 22.8-30-17.3m-34.7 14.5 34.7-20m34.7 60 34.6 20m0 0 34.7-20m-34.7 14.5 30-17.3m4.7 2.8v-40m0 0-34.7-20m30 22.8-30-17.3m-34.6 14.5 34.6-20" paint-order="fill stroke markers"/><g dominant-baseline="alphabetic" font-family="'Times New Roman'" font-size="22.9" font-weight="400"><text x="409" y="408.9" text-decoration="normal">萘</text><text x="431.9" y="408.9" text-decoration="normal">[</text><text x="439.5" y="408.9" text-decoration="normal">nai4</text><text x="478.8" y="408.9" text-decoration="normal">]</text></g><g dominant-baseline="alphabetic" font-family="'Times New Roman'" font-size="22.9" font-weight="400"><text x="667.6" y="408.9" text-decoration="normal">蒽</text><text x="690.4" y="408.9" text-decoration="normal">[</text><text x="698" y="408.9" text-decoration="normal">en1</text><text x="731" y="408.9" text-decoration="normal">]</text></g></svg>