<svg xmlns="http://www.w3.org/2000/svg" xml:space="preserve" viewBox="0 0 192.04 68.05"><path d="M97.38 34.05h-1.2v-1.2L123.98 5l.5 1.9zm-29 29-.5-1.9 27.1-27.1h1.2v1.2zm-.5-56.1.5-1.9 27.8 27.8v1.2h-1.2zm56.6 54.15-.5 1.9-27.8-27.75v-1.2h1.2zm-119.481.204v-17.18h2.273v7.055h8.93v-7.055h2.273v17.18h-2.273v-8.098h-8.93v8.098zm16.57-8.367q0-4.278 2.297-6.697c2.297-2.419 3.508-2.42 5.93-2.42q2.38 0 4.289 1.137c1.909 1.137 2.244 1.814 2.912 3.17s1.002 2.893 1.002 4.611q0 2.613-1.055 4.676c-1.055 2.063-1.699 2.416-2.988 3.123s-2.68 1.061-4.172 1.061q-2.426 0-4.336-1.172c-1.91-1.172-2.238-1.848-2.895-3.199s-.984-2.782-.984-4.29m2.344.035q0 3.105 1.67 4.893c1.67 1.788 2.51 1.787 4.189 1.787q2.566 0 4.225-1.805c1.659-1.805 1.658-2.91 1.658-5.121q0-2.097-.709-3.662c-.709-1.565-1.164-1.852-2.074-2.426s-1.932-.861-3.064-.861q-2.414 0-4.154 1.658c-1.74 1.658-1.741 2.951-1.741 5.537"/><path d="m39.98 55.45.45-1.65 27.45 7.35.5 1.9zm114.155-38.117q0-4.278 2.297-6.697c2.297-2.419 3.508-2.42 5.93-2.42q2.38 0 4.289 1.137c1.909 1.137 2.244 1.814 2.912 3.17s1.002 2.893 1.002 4.611q0 2.613-1.055 4.676c-1.055 2.063-1.699 2.416-2.988 3.123s-2.68 1.061-4.172 1.061q-2.426 0-4.336-1.172c-1.91-1.172-2.238-1.848-2.895-3.199s-.984-2.783-.984-4.29m2.344.035q0 3.105 1.67 4.893c1.67 1.788 2.51 1.787 4.189 1.787q2.566 0 4.225-1.805c1.659-1.805 1.658-2.91 1.658-5.121q0-2.097-.709-3.662c-.709-1.565-1.164-1.852-2.074-2.426s-1.932-.861-3.064-.861q-2.414 0-4.154 1.658c-1.74 1.658-1.741 2.951-1.741 5.537m17.086 8.332V8.52h2.273v7.055h8.93V8.52h2.273V25.7h-2.273v-8.098h-8.93V25.7zm-20.985-13-.45 1.6-27.65-7.4-.5-1.9zm1.555 40.179q0-4.278 2.297-6.697c2.297-2.419 3.508-2.42 5.93-2.42q2.38 0 4.289 1.137c1.909 1.137 2.244 1.814 2.912 3.17s1.002 2.893 1.002 4.611q0 2.613-1.055 4.676c-1.055 2.063-1.699 2.416-2.988 3.123s-2.68 1.061-4.172 1.061q-2.426 0-4.336-1.172c-1.91-1.172-2.238-1.848-2.895-3.199s-.984-2.782-.984-4.29m2.344.036q0 3.105 1.67 4.893c1.67 1.788 2.51 1.787 4.189 1.787q2.566 0 4.225-1.805c1.659-1.805 1.658-2.91 1.658-5.121q0-2.097-.709-3.662c-.709-1.565-1.164-1.852-2.074-2.426s-1.932-.861-3.064-.861q-2.414 0-4.154 1.658c-1.74 1.658-1.741 2.951-1.741 5.537m17.086 8.332v-17.18h2.273v7.055h8.93v-7.055h2.273v17.18h-2.273v-8.098h-8.93v8.098zM151.68 53.85l.45 1.6L123.98 63l.5-1.9zM4.999 25.7V8.52h2.273v7.055h8.93V8.52h2.273V25.7h-2.273v-8.098h-8.93V25.7zm16.57-8.367q0-4.278 2.297-6.697c2.297-2.419 3.508-2.42 5.93-2.42q2.38 0 4.289 1.137c1.909 1.137 2.244 1.814 2.912 3.17s1.002 2.893 1.002 4.611q0 2.613-1.055 4.676c-1.055 2.063-1.699 2.416-2.988 3.123s-2.68 1.061-4.172 1.061q-2.426 0-4.336-1.172c-1.91-1.172-2.238-1.848-2.895-3.199s-.984-2.783-.984-4.29m2.344.035q0 3.105 1.67 4.893c1.67 1.788 2.51 1.787 4.189 1.787q2.566 0 4.225-1.805c1.659-1.805 1.658-2.91 1.658-5.121q0-2.097-.709-3.662c-.709-1.565-1.164-1.852-2.074-2.426s-1.932-.861-3.064-.861q-2.414 0-4.154 1.658c-1.74 1.658-1.741 2.951-1.741 5.537M40.03 14.4l-.45-1.65 28.8-7.7-.5 1.9z"/></svg>