<svg xml:space="preserve" viewBox="0 0 192 68"><path d="M97.4 34h-1.2v-1L124 5l.5 1.9zm-29 29-.5-1.9 27-27h1.3v1.1zm-.5-56 .5-2 27.8 28v1H95zm56.6 54.1L124 63 96.2 35.3V34h1.2zM5 61.3V44.1h2.3v7h8.9v-7h2.3v17.2h-2.3v-8h-9v8zM21.6 53q0-4.4 2.3-6.8c2.3-2.4 3.5-2.4 5.9-2.4q2.4 0 4.3 1.2c1.9 1.2 2.2 1.8 2.9 3.1s1 3 1 4.6q0 2.6-1 4.7c-1 2.1-1.8 2.4-3 3.1s-2.7 1.1-4.2 1.1q-2.4 0-4.4-1.2c-2-1.2-2.2-1.8-2.8-3.2s-1-2.8-1-4.3m2.3 0q0 3 1.7 4.9c1.7 1.9 2.5 1.8 4.2 1.8q2.5 0 4.2-1.9c1.7-1.9 1.7-2.9 1.7-5q0-2.2-.8-3.7c-.8-1.5-1.1-1.9-2-2.5s-2-.8-3-.8q-2.5 0-4.2 1.6c-1.7 1.6-1.8 3-1.8 5.6"/><path d="m40 55.5.4-1.7L68 61.2l.5 1.8zm114.1-38.2q0-4.2 2.3-6.7c2.3-2.5 3.5-2.4 6-2.4q2.3 0 4.3 1.2c2 1.2 2.2 1.8 2.9 3.1s1 3 1 4.6q0 2.7-1 4.7c-1 2-1.8 2.4-3 3.1s-2.8 1-4.3 1q-2.4 0-4.3-1c-1.9-1-2.2-2-2.9-3.3s-1-2.8-1-4.3m2.4 0q0 3.2 1.6 5c1.6 1.8 2.6 1.7 4.2 1.7q2.6 0 4.3-1.8c1.7-1.8 1.6-2.9 1.6-5q0-2.2-.7-3.7a5 5 0 0 0-5.1-3.3q-2.4 0-4.2 1.6c-1.8 1.6-1.7 3-1.7 5.6m17.1 8.3V8.5h2.2v7h9v-7h2.2v17.2h-2.2v-8.1h-9v8.1zm-21-13-.5 1.6-27.6-7.4L124 5zm1.5 40.2q0-4.3 2.3-6.7c2.3-2.4 3.5-2.4 6-2.4q2.3 0 4.3 1.1c2 1.1 2.2 1.8 2.9 3.2s1 2.9 1 4.6q0 2.6-1 4.7c-1 2-1.8 2.4-3 3s-2.8 1.1-4.3 1.1q-2.4 0-4.3-1.1c-1.9-1.1-2.2-1.9-2.9-3.2s-1-2.8-1-4.3m2.4 0q0 3 1.6 5c1.6 2 2.6 1.7 4.2 1.7q2.6 0 4.3-1.8c1.7-1.8 1.6-3 1.6-5.1q0-2.2-.7-3.7c-.7-1.5-1.2-1.8-2-2.4s-2-.9-3.1-.9q-2.4 0-4.2 1.7c-1.8 1.7-1.7 3-1.7 5.5m17.1 8.3V44.1h2.2v7h9v-7h2.2v17.1h-2.2v-8h-9v8zm-21.9-7.3.4 1.6L124 63l.5-1.9zM5 25.7V8.5h2.3v7h8.9v-7h2.3v17.2h-2.3v-8.1h-9v8.1zm16.6-8.4q0-4.2 2.3-6.7c2.3-2.5 3.5-2.4 5.9-2.4q2.4 0 4.3 1.2c1.9 1.2 2.2 1.8 2.9 3.1s1 3 1 4.6q0 2.7-1 4.7c-1 2-1.8 2.4-3 3.1s-2.7 1-4.2 1q-2.4 0-4.4-1c-2-1-2.2-2-2.8-3.3s-1-2.8-1-4.3m2.3 0q0 3.2 1.7 5C27.3 24 28 24 29.8 24q2.5 0 4.2-1.8c1.7-1.8 1.7-2.9 1.7-5q0-2.2-.8-3.7c-.8-1.5-1.1-1.9-2-2.5s-2-.8-3-.8q-2.5 0-4.2 1.6c-1.7 1.6-1.8 3-1.8 5.6m16.1-3-.4-1.7 28.8-7.6-.5 1.9z"/></svg>