<svg xmlns="http://www.w3.org/2000/svg" xmlns:xlink="http://www.w3.org/1999/xlink" width="104" height="93" x="0" y="0" version="1.1" viewBox="514 501 104 93"><g><g><rect width="104" height="93" x="514" y="501" fill="none" stroke="none"/><rect width="104" height="93" x="514" y="501" fill="none" fill-opacity="1" stroke="none"/><g><g><path fill="none" stroke="#111" stroke-linecap="round" stroke-linejoin="round" stroke-miterlimit="10" stroke-width="1.46" d="M 545.716 581.784 L 525.716 547.144" paint-order="fill stroke markers" transform="scale(1,1)"/></g><g><path fill="none" stroke="#111" stroke-linecap="round" stroke-linejoin="round" stroke-miterlimit="10" stroke-width="1.46" d="M 531.2585232335442 547.1438614428217 L 548.4874006396298 517.3000000000003 M 525.716 547.144 L 545.716 512.5" paint-order="fill stroke markers" transform="scale(1,1)"/></g><g><path fill="none" stroke="#111" stroke-linecap="round" stroke-linejoin="round" stroke-miterlimit="10" stroke-width="1.46" d="M 545.716 512.5 L 585.716 512.5" paint-order="fill stroke markers" transform="scale(1,1)"/></g><g><path fill="none" stroke="#111" stroke-linecap="round" stroke-linejoin="round" stroke-miterlimit="10" stroke-width="1.46" d="M 582.9445993603701 517.3000000000002 L 600.1734767664558 547.1438614428217 M 585.716 512.5 L 605.716 547.144" paint-order="fill stroke markers" transform="scale(1,1)"/></g><g><path fill="none" stroke="#111" stroke-linecap="round" stroke-linejoin="round" stroke-miterlimit="10" stroke-width="1.46" d="M 605.716 547.144 L 585.716 581.784" paint-order="fill stroke markers" transform="scale(1,1)"/></g><g><path fill="none" stroke="#111" stroke-linecap="round" stroke-linejoin="round" stroke-miterlimit="10" stroke-width="1.46" d="M 582.9447593546898 576.984 L 548.4872406453102 576.984 M 585.716 581.784 L 545.716 581.784" paint-order="fill stroke markers" transform="scale(1,1)"/></g></g></g></g></svg>