<svg xml:space="preserve" overflow="visible" viewBox="0 0 289.8 176"><path fill="#fff" d="M155.1 175.5h-54.6V.5h54.6z"/><path fill="#e4ac7c" stroke="#e4b27c" d="M100.5 175.5H.5V.5h100z"/><path fill="#c4eaac" d="M289.8 175.5H154.4V.5h135.4z"/><path fill="none" stroke="#000" d="M20.7 49H44m3.9-30.7v24m5.1-24v24m4.8 6.7h24.4m14.5-.1H121m6.8 7.6V80m-6.6 7.9H96.6m-14.5 0H57.7m-13.5.1H21.6M48 95.4v24.1m5-24.1v24.1m74.8-24.1v24.1m6.6 7.5h25m14-.1h26m3.5-31.5v24.1m5.1 0v-24m-2.1 38.2v24.5m5.6-31.4h26m13.1-.1h26.9"/><path fill="#ac8a5c" d="M27.2 163.5q.1 1.4-1.5 1.4h-1c-1.3 0-1.5-.4-1.5-1.4v-.6a6 6 0 0 1-4.7 2.4 4.3 4.3 0 0 1-4.3-4.4c0-4.4 7.8-4.4 8.9-4.4v-1q.2-2.7-2.1-2.8-2.8 0-4.7 2l-.3.2a.4.4 0 0 1-.4-.4l-.2-2.2q0-.4.8-.7 2.9-1.1 5-1c1.4 0 6 .1 6 4.9zm-4.1-5.8c-.8 0-5 .2-5 3.2 0 1.1.8 2.2 2 2.2.1 0 3 0 3-2.8zM35 169.3q0 1.5-1.5 1.5h-1.2q-1.6 0-1.5-1.5v-16.7q0-1.5 1.5-1.4h1q1.6-.1 1.5 1.4 1.7-1.6 4.5-1.7c5.4 0 5.4 5.6 5.4 7.1s0 7.3-6.4 7.3c-.4 0-2 0-3.4-1.5zm0-7.9q-.2.6.6 1.2.6.5 1.6.5c3.4 0 3.4-3.8 3.4-5 0-1.4 0-4.9-3-4.9a4 4 0 0 0-2.7 1zm20 3.9q-7.2.1-7.3-7.1-.1-7.4 7.3-7.5t7.3 7.5c0 7.5-2.6 7-7.3 7m3.2-7.5c0-2.3 0-5-3.2-5s-3.2 2.7-3.2 5c0 2.4 0 5.1 3.2 5.1s3.2-2.7 3.2-5m10.8 5.7q.2 1.4-1.3 1.4h-1.2q-1.5.1-1.4-1.4v-18q0-1.4 1.4-1.4h1.2q1.6 0 1.4 1.5zm15.9 0q.2 1.4-1.5 1.4h-1c-1.3 0-1.5-.4-1.5-1.4v-.6a6 6 0 0 1-4.7 2.4 4.3 4.3 0 0 1-4.3-4.4c0-4.4 7.8-4.4 8.9-4.4v-1q.2-2.7-2.1-2.8-2.8 0-4.7 2l-.3.2a.4.4 0 0 1-.4-.4l-.2-2.2q-.1-.4.8-.7 2.9-1.1 4.9-1c1.5 0 6 .1 6 4.9zm-4.1-5.8c-.9 0-5 .2-5 3.2 0 1.1.8 2.2 2 2.2.1 0 3 0 3-2.8zm10.8 5.8q.2 1.4-1.5 1.4h-1q-1.7.1-1.5-1.4v-11q-.1-1.6 1.4-1.5h1q1.6 0 1.4 1.5v2c1.5-3.3 3.7-3.6 4.5-3.6q.6 0 .5.8v1.4c0 .8 0 .8-.6.8-1.9.1-4.2 1.3-4.2 4.1z"/><path fill="#849e74" d="M192.4 46.9q.1 1.5-1.7 1.4h-1.4q-1.8.1-1.7-1.4V30.2q0-1.5 1.7-1.4h1.3q1.8-.1 1.7 1.4 1.9-1.7 5.1-1.8c6.3 0 6.3 5.7 6.3 7.2s0 7.2-7.3 7.2c-.5 0-2.4 0-4-1.5zm0-8c0 .6 0 .7.8 1.3q.6.4 1.9.5c4 0 4-3.9 4-5 0-1.4-.1-5-3.7-5-1.5 0-2.6.8-3 1zm23.3 3.9q-8.4.1-8.5-7-.1-7.4 8.5-7.5t8.5 7.5c0 7.5-3 7-8.5 7m3.8-7.4c0-2.3 0-5-3.8-5s-3.7 2.7-3.7 5c0 2.4 0 5 3.7 5s3.8-2.6 3.8-5M232 41q.2 1.6-1.6 1.5h-1.3q-1.8 0-1.6-1.4V23q-.1-1.4 1.6-1.4h1.3q1.9 0 1.7 1.4zm18.4 0q.2 1.6-1.7 1.5h-1.3c-1.4 0-1.6-.5-1.6-1.4v-.6a7 7 0 0 1-5.5 2.3c-3 0-5-2.2-5-4.3 0-4.4 9.1-4.5 10.4-4.5v-1q.2-2.7-2.5-2.8-3.2 0-5.4 2l-.4.2q-.3 0-.4-.3l-.3-2.2q-.1-.3 1-.7 3.3-1.1 5.7-1c1.7 0 7 0 7 4.8zm-4.7-5.7c-1 0-5.9.2-5.9 3.2 0 1 1 2.2 2.5 2.2 0 0 3.4 0 3.4-2.8zm12.5 5.7q.2 1.6-1.7 1.5h-1.2q-1.8 0-1.7-1.4V30q-.1-1.6 1.7-1.5h1c1.5 0 1.7.5 1.7 1.4v2c1.7-3.3 4.3-3.6 5.2-3.6q.9 0 .7.8v1.4c0 .8-.1.8-.7.9-2.2 0-5 1.2-5 4.1z"/><path d="M14.3 54h-1.2l-2.6-4.4H8.3V54H7v-9.7h3.4c2 0 3.6 1.2 3.6 2.6q-.2 1.9-2.4 2.6zm-4-5.2q2.4-.2 2.5-1.9-.1-1.6-2.5-1.8h-2v3.6zm40-32.3c-2.3 0-4.4-2.2-4.4-5.2 0-2.9 2-5.1 4.4-5.1 2.3 0 4.4 2.2 4.4 5.1s-2 5.2-4.4 5.2m3.1-5.4c0-2.5-1.5-4-3.1-4s-3.1 1.5-3.1 4c0 2.7 1.4 4.5 3.1 4.5 1.6 0 3.1-1.7 3.1-4.5m.1 34.5a4 4 0 0 0-2.3-.7c-2 0-3.3 2-3.3 4.3 0 2.1 1.2 4.3 3.3 4.3a4 4 0 0 0 2.6-.9l.1 1c-1 .6-1.5.8-2.7.8-2.7 0-4.6-2.5-4.6-5.2s1.9-5.2 4.6-5.2q1.4 0 2.6.5zm36.2 8.6c-2.3 0-4.3-2.2-4.3-5.2 0-2.9 2-5.2 4.3-5.2 2.4 0 4.4 2.3 4.4 5.2s-2 5.2-4.4 5.2m3.1-5.4c0-2.5-1.4-4-3-4s-3.2 1.5-3.2 4c0 2.7 1.5 4.5 3.1 4.5s3.1-1.7 3.1-4.5m-74.9-2.3h1v.5H16v-.5h1.2v-4.7q-.8.3-1.2.2v-.5q.8.1 1.7-.6h.2zm112.2-.3a4 4 0 0 0-2.3-.8c-2 0-3.3 2-3.3 4.3s1.2 4.3 3.3 4.3q1.3 0 2.6-.9l.1 1c-1 .6-1.5.8-2.7.8-2.7 0-4.6-2.5-4.6-5.2s1.9-5.2 4.6-5.2q1.4 0 2.6.5zm9.7 8.4h-1.2v-4.7h-4.8v4.7h-1.3v-9.7h1.3V49h4.8v-4.2h1.2zm3.3 1.7q.9-.7 1-1.8 0-1.3-1.2-1.4-1.2.2-1.3 1.4l-.2-.3-.2-.2q.4-1.3 1.8-1.5 1.8.2 1.9 2-.2 1-.9 1.6l-.8.7L142 58h2.9v.6h-3.6V58l1.1-1zm-12.4 27.9a4 4 0 0 0-2.4-.7c-2 0-3.3 2-3.3 4.2s1.2 4.3 3.3 4.3q1.3.1 2.6-.8l.1 1a5 5 0 0 1-2.7.7c-2.7 0-4.6-2.5-4.6-5.2s2-5.1 4.6-5.1q1.4 0 2.6.5zm9.6 8.4h-1.2V88h-4.8v4.6h-1.2V83h1.2v4h4.8v-4h1.2zm-22.6 38h-1.2V126h-4.8v4.6h-1.3V121h1.3v4.3h4.8V121h1.2zm12.9-8.4a4 4 0 0 0-2.3-.7c-2 0-3.3 2-3.3 4.3 0 2.1 1.2 4.3 3.3 4.3q1.3 0 2.6-.9l.1 1c-1 .6-1.5.8-2.7.8-2.7 0-4.6-2.5-4.6-5.2s2-5.2 4.6-5.2q1.4 0 2.6.5zm-9.6 9.3q1-.7 1-1.8t-1.2-1.4q-1.2.2-1.3 1.4l-.2-.3-.2-.2q.4-1.4 1.8-1.5 1.9.2 2 2-.2 1-1 1.6l-.8.7-1.2 1.2h2.9v.6h-3.6v-.6l1.1-1zM13.4 92.7H12l-2.6-4.4H7.3v4.4H6V83h3.4c2 0 3.5 1.2 3.5 2.6q-.2 1.8-2.4 2.6zm-4.1-5.3q2.4-.2 2.5-1.8 0-1.7-2.5-1.8h-2v3.6zm44.4-2.5a4 4 0 0 0-2.4-.8c-1.9 0-3.3 2-3.3 4.3 0 2.1 1.3 4.3 3.4 4.3q1.3 0 2.6-.9v1c-1 .6-1.5.8-2.6.8-2.8 0-4.6-2.5-4.6-5.2s1.9-5.2 4.6-5.2q1.3 0 2.5.5zm-3.1 46.5c-2.3 0-4.4-2.1-4.4-5.1s2-5.2 4.4-5.2c2.3 0 4.4 2.2 4.4 5.2s-2 5.1-4.4 5.1m3.1-5.3c0-2.5-1.5-4.1-3.1-4.1s-3.1 1.5-3.1 4c0 2.8 1.5 4.5 3.1 4.5s3.1-1.7 3.1-4.4m35.5-32.9c-2.3 0-4.4-2.2-4.4-5.1 0-3 2-5.2 4.4-5.2 2.3 0 4.3 2.2 4.3 5.2s-2 5.1-4.3 5.1m3-5.3c0-2.5-1.4-4.1-3-4.1s-3.1 1.5-3.1 4c0 2.7 1.4 4.5 3 4.5s3.2-1.7 3.2-4.4m152 44.6c-2.3 0-4.4-2.1-4.4-5.1s2-5.2 4.4-5.2c2.3 0 4.3 2.3 4.3 5.2s-2 5.1-4.3 5.1m3.1-5.3c0-2.5-1.5-4.1-3.1-4.1s-3.1 1.5-3.1 4c0 2.8 1.4 4.5 3 4.5s3.2-1.7 3.2-4.4m-81.1 4.8c-2.3 0-4.4-2.2-4.4-5.1 0-3 2-5.2 4.4-5.2 2.3 0 4.3 2.2 4.3 5.2s-2 5.1-4.3 5.1m3-5.3c0-2.5-1.4-4.1-3-4.1s-3.1 1.5-3.1 4c0 2.8 1.4 4.5 3 4.5s3.2-1.7 3.2-4.4m36 42.7c-2.3 0-4.4-2.2-4.4-5.2 0-2.9 2-5.2 4.4-5.2 2.3 0 4.3 2.3 4.3 5.2s-2 5.2-4.3 5.2m3-5.4c0-2.5-1.4-4-3-4s-3.1 1.4-3.1 4c0 2.7 1.4 4.4 3 4.4s3.2-1.7 3.2-4.4m-3.3-71.3c-2.3 0-4.4-2.1-4.4-5.1s2-5.2 4.4-5.2c2.3 0 4.3 2.3 4.3 5.2s-2 5.1-4.3 5.1m3.1-5.3c0-2.5-1.5-4-3.1-4s-3.1 1.4-3.1 4c0 2.7 1.4 4.4 3.1 4.4 1.6 0 3.1-1.7 3.1-4.4m-4.7 39.7v4h-1.3v-9.6h3.5c2 0 3.3 1.3 3.3 2.8 0 1.6-1.5 2.8-3.2 2.8zm0-4.9v4.1h2c1.5 0 2.4-1 2.4-2q-.1-1.9-2.5-2zm6.6 37v-.8h2.7v.8zm76.1-27H285l-3.1-4.3-3 4.3h-1.4l3.8-5.1-3.6-4.6h1.5l2.7 3.7 2.6-3.7h1.4l-3.4 4.6zm-269.5-49q.7-.7.8-1.8 0-1.3-1-1.4-.7.2-.9 1.4l-.1-.3-.1-.2q.1-1.4 1.2-1.5 1.4.2 1.4 2 0 1-.6 1.6l-.6.7c-.2.2-.7 1-1 1.2h2.3v.6h-2.7v-.6l.8-1z"/></svg>