<svg xmlns="http://www.w3.org/2000/svg" width="289.81" height="175.99" enable-background="new 0 0 289.81 175.99" overflow="visible" viewBox="0 0 289.81 175.99" xml:space="preserve"><path fill="#fff" d="M155.137 175.5h-54.632V.5h54.632z"/><path fill="#e4ac7c" stroke="#e4b27c" d="M100.505 175.492H.5V.5h100.005z"/><path fill="#c4eaac" d="M289.815 175.5H154.436V.486h135.379z"/><path fill="none" stroke="#000" d="M20.729 48.974h23.228m3.918-30.69v24.067m5.038-24.067v24.067m4.85 6.623h24.44m14.46-.093h24.441m6.716 7.649v23.508m-6.623 7.836H96.569m-14.459 0H57.67m-13.433.093H21.569m26.479 7.463v24.067m4.944-24.067v24.067m74.814-24.067v24.067m6.637 7.463h25m13.992-.093h26.026M202.9 95.43v24.067m5.13.001V95.43m-2.131 38.25v24.533m5.602-31.438h25.933m13.157-.094h26.865"/><path fill="#ac8a5c" d="M27.179 163.498c0 1.051-.3 1.44-1.44 1.44h-1.11c-1.23 0-1.44-.48-1.44-1.44v-.6c-1.41 2.07-3.66 2.37-4.68 2.37-2.64 0-4.32-2.22-4.32-4.32 0-4.41 7.86-4.47 8.91-4.47v-1.05c0-1.771-.48-2.761-2.1-2.761-1.86 0-3.36.66-4.65 2.011-.09.09-.18.18-.33.18a.39.39 0 0 1-.39-.33c-.03-.24-.21-1.979-.21-2.19 0-.329.15-.42.78-.689 2.01-.84 3.51-.96 4.92-.96 1.5 0 6.06.03 6.06 4.77zm-4.08-5.79c-.84.03-5.01.24-5.01 3.181 0 1.14.81 2.22 2.07 2.22.09 0 2.94 0 2.94-2.79zm11.819 11.61c0 1.05-.3 1.44-1.44 1.44h-1.2c-1.11 0-1.44-.36-1.44-1.44v-16.68c0-1.11.36-1.44 1.44-1.44h1.11c1.02 0 1.44.3 1.44 1.41 1.08-1.021 2.67-1.74 4.44-1.74 5.43 0 5.43 5.67 5.43 7.141 0 1.5 0 7.26-6.36 7.26-.42 0-2.07 0-3.42-1.5zm0-7.92c0 .54 0 .69.72 1.2.36.27.9.51 1.59.51 3.39 0 3.39-3.84 3.39-5.04 0-1.32-.03-4.86-3.09-4.86-1.29 0-2.28.69-2.61.99zm20.073 3.87c-4.71 0-7.29-2.19-7.29-7.08 0-4.83 2.31-7.5 7.32-7.5 4.89 0 7.29 2.58 7.29 7.5s-2.61 7.08-7.32 7.08m3.24-7.44c0-2.34 0-4.979-3.24-4.979-3.21 0-3.21 2.67-3.21 4.979 0 2.4 0 5.101 3.24 5.101 3.21-.001 3.21-2.731 3.21-5.101m10.86 5.67c0 1.051-.3 1.44-1.44 1.44h-1.11c-1.11 0-1.44-.36-1.44-1.44v-17.939c0-1.11.36-1.44 1.44-1.44h1.11c1.23 0 1.44.48 1.44 1.44zm15.766 0c0 1.051-.3 1.44-1.44 1.44h-1.11c-1.23 0-1.44-.48-1.44-1.44v-.6c-1.41 2.07-3.66 2.37-4.68 2.37-2.64 0-4.32-2.22-4.32-4.32 0-4.41 7.86-4.47 8.91-4.47v-1.05c0-1.771-.48-2.761-2.1-2.761-1.86 0-3.36.66-4.65 2.011-.09.09-.18.18-.33.18a.39.39 0 0 1-.39-.33c-.03-.24-.21-1.979-.21-2.19 0-.329.15-.42.78-.689 2.01-.84 3.51-.96 4.92-.96 1.5 0 6.06.03 6.06 4.77zm-4.08-5.79c-.84.03-5.01.24-5.01 3.181 0 1.14.81 2.22 2.07 2.22.09 0 2.94 0 2.94-2.79zm10.801 5.79c0 1.051-.3 1.44-1.44 1.44h-1.11c-1.11 0-1.44-.36-1.44-1.44v-11.04c0-1.109.36-1.439 1.44-1.439h.96c1.23 0 1.44.479 1.44 1.439v1.95h.03c1.41-3.24 3.6-3.54 4.44-3.54.54 0 .54.21.54.811v1.409c0 .78-.06.78-.6.811-1.89.12-4.26 1.29-4.26 4.14z"/><path fill="#849e74" d="M192.383 46.879c0 1.05-.349 1.44-1.673 1.44h-1.395c-1.29 0-1.674-.36-1.674-1.44V30.2c0-1.11.419-1.44 1.674-1.44h1.29c1.185 0 1.673.3 1.673 1.41 1.255-1.02 3.103-1.74 5.159-1.74 6.31 0 6.31 5.67 6.31 7.14 0 1.5 0 7.26-7.391 7.26-.487 0-2.405 0-3.974-1.5v5.549zm0-7.92c0 .54 0 .69.837 1.2.418.27 1.046.51 1.848.51 3.938 0 3.938-3.84 3.938-5.04 0-1.32-.035-4.86-3.591-4.86-1.498 0-2.648.69-3.032.99zm23.324 3.871c-5.473 0-8.471-2.19-8.471-7.08 0-4.83 2.685-7.5 8.506-7.5 5.682 0 8.471 2.58 8.471 7.5s-3.033 7.08-8.506 7.08m3.765-7.44c0-2.34 0-4.98-3.766-4.98-3.729 0-3.729 2.67-3.729 4.98 0 2.4 0 5.1 3.765 5.1 3.73 0 3.73-2.73 3.73-5.1m12.618 5.67c0 1.05-.349 1.44-1.673 1.44h-1.29c-1.29 0-1.674-.36-1.674-1.44V23.12c0-1.11.419-1.44 1.674-1.44h1.29c1.429 0 1.673.48 1.673 1.44zm18.321 0c0 1.05-.349 1.44-1.674 1.44h-1.289c-1.43 0-1.674-.48-1.674-1.44v-.6c-1.638 2.07-4.252 2.37-5.438 2.37-3.067 0-5.02-2.22-5.02-4.32 0-4.41 9.133-4.47 10.353-4.47v-1.05c0-1.77-.558-2.76-2.439-2.76-2.161 0-3.904.66-5.403 2.01-.104.09-.209.18-.384.18-.244 0-.418-.15-.453-.33-.035-.24-.244-1.979-.244-2.19 0-.33.175-.42.906-.69 2.336-.84 4.079-.96 5.717-.96 1.743 0 7.042.03 7.042 4.77zm-4.742-5.79c-.976.03-5.821.24-5.821 3.18 0 1.14.941 2.22 2.405 2.22.104 0 3.416 0 3.416-2.79zm12.55 5.79c0 1.05-.349 1.44-1.674 1.44h-1.289c-1.29 0-1.674-.36-1.674-1.44V30.02c0-1.11.419-1.44 1.674-1.44h1.115c1.43 0 1.673.48 1.673 1.44v1.95h.035c1.639-3.24 4.184-3.54 5.159-3.54.628 0 .628.21.628.81v1.41c0 .78-.07.78-.697.81-2.196.12-4.95 1.29-4.95 4.14z"/><path d="M14.342 54.042h-1.246l-2.632-4.438H8.252v4.438H7.048v-9.716h3.374c2.002 0 3.528 1.218 3.528 2.604 0 1.134-.938 2.128-2.38 2.548zm-4.074-5.292c1.652 0 2.548-.826 2.548-1.82s-.924-1.82-2.548-1.82H8.252v3.64zm40.017-32.265c-2.282 0-4.354-2.17-4.354-5.138 0-2.912 1.988-5.194 4.368-5.194 2.324 0 4.354 2.254 4.354 5.194s-2.03 5.138-4.368 5.138m3.121-5.348c0-2.506-1.498-4.088-3.122-4.088-1.568 0-3.108 1.526-3.108 4.088 0 2.688 1.47 4.438 3.122 4.438 1.597 0 3.108-1.708 3.108-4.438m.135 34.506c-.588-.378-1.26-.728-2.366-.728-1.946 0-3.318 1.988-3.318 4.27 0 2.142 1.246 4.27 3.36 4.27.966 0 1.596-.14 2.604-.854l.084.966c-.994.602-1.54.784-2.702.784-2.73 0-4.592-2.464-4.592-5.166 0-2.744 1.89-5.166 4.578-5.166.924 0 1.68.154 2.562.49zm36.187 8.532c-2.282 0-4.354-2.17-4.354-5.138 0-2.912 1.988-5.194 4.368-5.194 2.324 0 4.354 2.254 4.354 5.194s-2.031 5.138-4.368 5.138m3.121-5.348c0-2.506-1.498-4.088-3.122-4.088-1.568 0-3.108 1.526-3.108 4.088 0 2.688 1.47 4.438 3.122 4.438 1.596 0 3.108-1.708 3.108-4.438m-74.988-2.319h1.125v.522h-2.961v-.522h1.125v-4.68c-.45.189-.882.207-1.179.216v-.522c.432-.018 1.179-.045 1.71-.594h.18zm112.283-.34c-.588-.378-1.26-.728-2.366-.728-1.946 0-3.318 1.988-3.318 4.27 0 2.142 1.246 4.27 3.36 4.27.966 0 1.596-.14 2.604-.854l.084.966c-.994.602-1.54.784-2.702.784-2.73 0-4.592-2.464-4.592-5.166 0-2.744 1.89-5.166 4.578-5.166.924 0 1.68.154 2.562.49zm9.658 8.4h-1.246v-4.62h-4.774v4.62h-1.246v-9.716h1.246v4.242h4.774v-4.242h1.246zm3.314 1.701c.531-.54 1.044-1.053 1.044-1.818 0-.702-.459-1.377-1.305-1.377-.819 0-1.071.702-1.251 1.395a4 4 0 0 0-.198-.261c-.018-.027-.063-.081-.171-.234.216-.774.72-1.476 1.746-1.476 1.188 0 1.917.9 1.917 1.935 0 .765-.486 1.242-.891 1.647-.171.162-.63.54-.801.702-.279.261-.963.936-1.251 1.188h.981c.108 0 .216-.009.324-.009h1.638v.639h-3.591v-.576c.252-.243.864-.864 1.116-1.116zM130.67 84.205c-.588-.378-1.26-.728-2.366-.728-1.946 0-3.318 1.988-3.318 4.27 0 2.142 1.246 4.27 3.36 4.27.966 0 1.596-.14 2.604-.854l.084.967c-.994.602-1.54.783-2.702.783-2.73 0-4.592-2.464-4.592-5.166 0-2.744 1.89-5.166 4.578-5.166.924 0 1.68.154 2.562.49zm9.658 8.4h-1.246v-4.62h-4.774v4.62h-1.246v-9.716h1.246v4.242h4.774v-4.242h1.246zm-22.618 38.04h-1.246v-4.62h-4.774v4.62h-1.246v-9.716h1.246v4.242h4.774v-4.242h1.246zm12.936-8.4c-.588-.378-1.26-.728-2.366-.728-1.946 0-3.318 1.988-3.318 4.27 0 2.143 1.246 4.271 3.36 4.271.966 0 1.596-.14 2.604-.854l.084.967c-.994.602-1.54.783-2.702.783-2.73 0-4.592-2.464-4.592-5.166 0-2.743 1.89-5.166 4.578-5.166.924 0 1.68.154 2.562.49zm-9.618 9.225c.531-.54 1.044-1.053 1.044-1.818 0-.701-.459-1.377-1.305-1.377-.819 0-1.071.702-1.251 1.396a4 4 0 0 0-.198-.261c-.018-.027-.063-.081-.171-.234.216-.774.72-1.477 1.746-1.477 1.188 0 1.917.9 1.917 1.936 0 .765-.486 1.242-.891 1.646-.171.162-.63.54-.801.702-.279.262-.963.937-1.251 1.188h.981c.108 0 .216-.009.324-.009h1.638v.639h-3.591v-.576c.252-.243.864-.864 1.116-1.116zM13.37 92.724h-1.246l-2.632-4.438H7.279v4.438H6.076v-9.716H9.45c2.002 0 3.528 1.218 3.528 2.604 0 1.134-.938 2.128-2.38 2.548zm-4.075-5.292c1.652 0 2.548-.826 2.548-1.82s-.924-1.82-2.548-1.82H7.279v3.64zm44.417-2.581c-.588-.378-1.26-.728-2.366-.728-1.946 0-3.318 1.988-3.318 4.27 0 2.142 1.246 4.27 3.36 4.27.966 0 1.596-.14 2.604-.854l.084.967c-.994.602-1.54.783-2.702.783-2.73 0-4.592-2.464-4.592-5.166 0-2.744 1.89-5.166 4.578-5.166.924 0 1.68.154 2.562.49zM50.6 131.422c-2.282 0-4.354-2.17-4.354-5.138 0-2.912 1.988-5.194 4.368-5.194 2.324 0 4.354 2.255 4.354 5.194-.001 2.941-2.03 5.138-4.368 5.138m3.121-5.347c0-2.506-1.498-4.088-3.122-4.088-1.568 0-3.108 1.526-3.108 4.088 0 2.688 1.47 4.438 3.122 4.438 1.596 0 3.108-1.708 3.108-4.438m35.445-32.868c-2.282 0-4.354-2.17-4.354-5.138 0-2.912 1.988-5.194 4.368-5.194 2.324 0 4.354 2.254 4.354 5.194s-2.03 5.138-4.368 5.138m3.122-5.348c0-2.506-1.498-4.088-3.122-4.088-1.568 0-3.108 1.526-3.108 4.088 0 2.688 1.47 4.438 3.122 4.438 1.596 0 3.108-1.708 3.108-4.438m151.986 44.679c-2.281 0-4.354-2.17-4.354-5.138 0-2.912 1.988-5.194 4.368-5.194 2.323 0 4.354 2.255 4.354 5.194s-2.03 5.138-4.368 5.138m3.122-5.348c0-2.506-1.498-4.088-3.122-4.088-1.567 0-3.107 1.526-3.107 4.088 0 2.688 1.47 4.438 3.122 4.438 1.595 0 3.107-1.708 3.107-4.438m-81.131 4.821c-2.281 0-4.354-2.17-4.354-5.138 0-2.912 1.988-5.194 4.368-5.194 2.323 0 4.354 2.255 4.354 5.194 0 2.941-2.03 5.138-4.368 5.138m3.122-5.347c0-2.506-1.498-4.088-3.122-4.088-1.567 0-3.107 1.526-3.107 4.088 0 2.688 1.47 4.438 3.122 4.438 1.595 0 3.107-1.708 3.107-4.438m35.97 42.686c-2.281 0-4.354-2.17-4.354-5.138 0-2.912 1.988-5.194 4.368-5.194 2.323 0 4.354 2.255 4.354 5.194 0 2.941-2.03 5.138-4.368 5.138m3.122-5.348c0-2.506-1.498-4.088-3.122-4.088-1.567 0-3.107 1.526-3.107 4.088 0 2.688 1.47 4.438 3.122 4.438 1.595.001 3.107-1.707 3.107-4.438m-3.298-71.259c-2.281 0-4.354-2.17-4.354-5.138 0-2.912 1.988-5.194 4.368-5.194 2.323 0 4.354 2.254 4.354 5.194s-2.03 5.138-4.368 5.138m3.122-5.348c0-2.506-1.498-4.088-3.122-4.088-1.567 0-3.107 1.526-3.107 4.088 0 2.688 1.47 4.438 3.122 4.438 1.596 0 3.107-1.708 3.107-4.438m-4.73 39.73v4.046h-1.246v-9.716h3.486c1.932 0 3.318 1.33 3.318 2.828 0 1.567-1.484 2.842-3.221 2.842zm-.042-4.886v4.073h1.974c1.61 0 2.492-.924 2.492-2.029 0-1.19-.952-2.044-2.492-2.044zm6.681 36.962v-.812h2.724v.812zm76.126-26.979h-1.452l-3.099-4.284-3.016 4.284h-1.34l3.755-5.124-3.56-4.592h1.452l2.708 3.654 2.624-3.654h1.341l-3.364 4.592zM16.841 83.169c.39-.54.766-1.053.766-1.818 0-.702-.337-1.377-.958-1.377-.601 0-.786.702-.918 1.395a4 4 0 0 0-.146-.261c-.013-.027-.046-.081-.125-.234.159-.774.529-1.476 1.282-1.476.872 0 1.407.9 1.407 1.935 0 .765-.357 1.242-.654 1.647-.125.162-.462.54-.588.702-.205.261-.707.936-.918 1.188h.72c.079 0 .159-.009.238-.009h1.203v.639h-2.636v-.576c.185-.243.634-.864.819-1.116z"/></svg>