<?xml version="1.0" encoding="utf-8"?>
<!-- Generator: Adobe Illustrator 13.0.2, SVG Export Plug-In . SVG Version: 6.00 Build 14948)  -->
<!DOCTYPE svg PUBLIC "-//W3C//DTD SVG 1.1//EN" "http://www.w3.org/Graphics/SVG/1.1/DTD/svg11.dtd">
<svg version="1.1" id="Ebene_1" xmlns="http://www.w3.org/2000/svg" xmlns:xlink="http://www.w3.org/1999/xlink" x="0px" y="0px"
	 width="255.2px" height="230.85px" viewBox="0 0 255.2 230.85" enable-background="new 0 0 255.2 230.85" xml:space="preserve">
<g>
	<polygon points="6.7,176.2 5,177.2 5,136.549 6.7,137.5 	"/>
	<polygon points="40.25,195.549 40.25,197.549 5,177.2 6.7,176.2 	"/>
	<polygon points="73.75,176.2 74.601,176.7 74.601,177.7 40.25,197.549 40.25,195.549 	"/>
	<polygon points="73.75,137.5 74.601,137 75.45,137.5 75.45,176.2 74.601,176.7 73.75,176.2 	"/>
	<polygon points="40.25,118.15 40.25,116.2 73.65,135.5 74.601,137 73.75,137.5 	"/>
	<polygon points="6.7,137.5 5,136.549 40.25,116.2 40.25,118.15 	"/>
	<polygon points="108.95,195.549 108.95,197.549 74.601,177.7 74.601,176.7 75.45,176.2 	"/>
	<polygon points="142.5,176.2 144.2,177.2 108.95,197.549 108.95,195.549 	"/>
	<polygon points="142.5,137.5 143.35,137 144.2,137.5 144.2,177.2 142.5,176.2 	"/>
	<polygon points="108.95,118.15 108.95,117.2 109.8,116.7 142.301,135.45 143.35,137 142.5,137.5 	"/>
	<polygon points="75.45,137.5 74.601,137 75.55,135.5 108.101,116.7 108.95,117.2 108.95,118.15 	"/>
	<polygon points="176.85,116.7 177.7,117.2 177.801,118.1 144.2,137.5 143.35,137 144.35,135.45 	"/>
	<polygon points="176.85,78 177.7,77.5 178.551,78.1 178.551,116.549 177.7,117.2 176.85,116.7 	"/>
	<polygon points="143.35,58.65 143.35,56.65 176.75,75.95 177.7,77.5 176.85,78 	"/>
	<polygon points="109.8,78 108.101,77 143.35,56.65 143.35,58.65 	"/>
	<polygon points="109.8,116.7 108.95,117.2 108.101,116.7 108.101,77 109.8,78 	"/>
	<polygon points="215.1,128.45 215.75,130.45 177.801,118.1 177.7,117.2 178.551,116.549 	"/>
	<polygon points="237.7,97.35 239.801,97.35 215.75,130.45 215.1,128.45 	"/>
	<polygon points="215.1,66.25 215.45,65.25 216.301,65 239.801,97.35 237.7,97.35 	"/>
	<polygon points="178.551,78.1 177.7,77.5 178.651,76.3 214.551,64.65 215.45,65.25 215.1,66.25 	"/>
	<polygon points="211.7,26.7 219.35,24.25 216.301,65 215.45,65.25 214.551,64.65 	"/>
	<polygon points="173.85,37.8 181.5,37.8 178.651,76.3 177.7,77.5 176.75,75.95 	"/>
	<g>
		<path d="M136.618,106.803v-17.18h2.273v7.055h8.93v-7.055h2.273v17.18h-2.273v-8.098h-8.93v8.098H136.618z"/>
	</g>
	<polygon points="139.5,109 147.151,109 144.35,135.45 143.35,137 142.301,135.45 	"/>
	<polygon points="70.75,97.35 78.4,97.35 75.55,135.5 74.601,137 73.65,135.5 	"/>
	<g>
		<path d="M102.267,166.292v-17.18h2.273v7.055h8.93v-7.055h2.273v17.18h-2.273v-8.098h-8.93v8.098H102.267z"/>
	</g>
	<polygon points="112.8,146.85 105.15,146.85 105.351,145.15 112.601,145.15 	"/>
	<polygon points="112.25,142.1 105.7,142.1 105.9,140.4 112.05,140.4 	"/>
	<polygon points="111.7,137.35 106.25,137.35 106.45,135.65 111.5,135.65 	"/>
	<polygon points="111.101,132.6 106.8,132.6 107,130.9 110.9,130.9 	"/>
	<polygon points="110.55,127.9 107.351,127.9 107.55,126.15 110.351,126.15 	"/>
	<polygon points="110,123.15 107.9,123.15 108.101,121.45 109.8,121.45 	"/>
	<g>
		<path d="M170.977,166.292v-17.18h2.273v7.055h8.93v-7.055h2.273v17.18h-2.273v-8.098h-8.93v8.098H170.977z"/>
	</g>
	<polygon points="181.5,146.85 173.85,146.85 174.051,145.15 181.35,145.15 	"/>
	<polygon points="180.95,142.1 174.45,142.1 174.651,140.4 180.75,140.4 	"/>
	<polygon points="180.401,137.35 175,137.35 175.2,135.65 180.2,135.65 	"/>
	<polygon points="179.85,132.6 175.551,132.6 175.75,130.9 179.651,130.9 	"/>
	<polygon points="179.301,127.9 176.1,127.9 176.301,126.15 179.1,126.15 	"/>
	<polygon points="178.75,123.15 176.651,123.15 176.85,121.45 178.551,121.45 	"/>
	<polygon points="249.35,5 250.2,6.45 219.35,24.25 211.7,26.7 	"/>
	<g>
		<path d="M67.868,225.85v-17.18h2.273v7.055h8.93v-7.055h2.273v17.18h-2.273v-8.098h-8.93v8.098H67.868z"/>
	</g>
	<path fill="none" stroke="#000000" stroke-width="1.7" d="M74.601,204.9c1.4,0,2.55-1.05,2.55-2.351c0-1.3-1.15-2.35-2.55-2.35
		c-1.4,0-2.55-1.05-2.55-2.35c0-1.301,1.15-2.351,2.55-2.351c1.4,0,2.55-1.05,2.55-2.35s-1.15-2.351-2.55-2.351
		c-1.4,0-2.55-1.05-2.55-2.35s1.15-2.35,2.55-2.35c1.4,0,2.55-1.051,2.55-2.351s-1.15-2.35-2.55-2.35c-1.4,0-2.55-1.05-2.55-2.351
		c0-1.3,1.15-2.35,2.55-2.35"/>
</g>
</svg>
