<svg xml:space="preserve" viewBox="0 0 255.2 230.8"><path d="m6.7 176.2-1.7 1v-40.7l1.7 1z"/><path d="M40.3 195.5v2L5 177.2l1.7-1zm33.5-19.3.8.5v1l-34.3 19.8v-2z"/><path d="m73.8 137.5.8-.5.9.5v38.7l-.9.5-.8-.5z"/><path d="M40.3 118.2v-2l33.4 19.3.9 1.5-.8.5zM6.7 137.5l-1.7-1 35.3-20.3v2zm102.3 58v2l-34.4-19.8v-1l.9-.5z"/><path d="m142.5 176.2 1.7 1-35.2 20.3v-2zm0-38.7.8-.5.9.5v39.7l-1.7-1z"/><path d="M109 118.2v-1l.8-.5 32.5 18.7 1 1.6-.8.5zm-33.5 19.3-.9-.5 1-1.5 32.5-18.8.9.5v1zm101.4-20.8.8.5.1.9-33.6 19.4-.8-.5 1-1.6z"/><path d="m176.9 78 .8-.5.9.6v38.4l-.9.7-.8-.5zm-33.5-19.3v-2L176.6 76l1 1.5-.8.5zM109.8 78l-1.7-1 35.3-20.3v2z"/><path d="m109.8 116.7-.8.5-.9-.5V77l1.7 1zm105.3 11.8.7 2-38-12.4-.1-.9.9-.7zm22.6-31.1h2.1l-24 33-.7-2zm-22.6-31.1.3-1 .9-.3 23.5 32.3h-2.1zm-36.5 11.8-.9-.6 1-1.2 35.9-11.6.8.5-.3 1z"/><path d="m211.7 26.7 7.7-2.4-3.1 40.7-.9.3-.8-.6zm-37.8 11.1h7.6l-2.8 38.5-1 1.2-1-1.5zm-37.3 69V89.6h2.3v7h9v-7h2.2v17.2h-2.3v-8.1h-9v8.1zm2.9 2.2h7.7l-2.8 26.4-1 1.6-1.1-1.6zM70.8 97.4h7.6l-2.9 38.1-.9 1.5-1-1.5zm31.5 68.9V149h2.2v7h9v-7h2.2v17.2h-2.2v-8.1h-9v8zm10.5-19.4h-7.6l.2-1.7h7.2zm-.5-4.8h-6.6l.2-1.7h6.1zm-.6-4.7h-5.5l.3-1.7h5zm-.6-4.8h-4.3l.2-1.7h3.9zm-.5-4.7h-3.2l.1-1.7h2.9zm-.6-4.7h-2.1l.2-1.7h1.7zm61 43.1V149h2.3v7h8.9v-7h2.3v17.2h-2.3v-8.1h-9v8zm10.5-19.4h-7.7l.3-1.7h7.3zm-.5-4.8h-6.6l.3-1.7h6zm-.6-4.7H175l.2-1.7h5zm-.5-4.8h-4.3l.2-1.7h3.9zm-.6-4.7h-3.2l.2-1.7h2.8zm-.5-4.7h-2.1l.2-1.7h1.7z"/><path d="m249.4 5 .8 1.5-30.8 17.8-7.7 2.4zM67.9 225.9v-17.2H70v7h9v-7h2.2v17.2H79v-8.1h-9v8z"/><path fill="none" stroke="#000" stroke-width="1.7" d="M74.6 204.9c1.4 0 2.6-1 2.6-2.4s-1.2-2.3-2.6-2.3q-2.3-.2-2.5-2.4.2-2.1 2.5-2.3c1.4 0 2.6-1 2.6-2.4s-1.2-2.3-2.6-2.3q-2.3-.2-2.5-2.4c-.2-2.2 1.1-2.3 2.5-2.3s2.6-1 2.6-2.4-1.2-2.3-2.6-2.3q-2.3-.2-2.5-2.4.2-2.1 2.5-2.3"/></svg>