<svg xmlns="http://www.w3.org/2000/svg" xml:space="preserve" viewBox="0 0 255.2 230.85"><path d="m6.7 176.2-1.7 1v-40.65l1.7.95z"/><path d="M40.25 195.55v2L5 177.2l1.7-1zm33.5-19.35.85.5v1l-34.35 19.85v-2zm0-38.7.85-.5.85.5v38.7l-.85.5-.85-.5z"/><path d="M40.25 118.15v-1.95l33.4 19.3.95 1.5-.85.5zM6.7 137.5l-1.7-.95 35.25-20.35v1.95zm102.25 58.05v2L74.6 177.7v-1l.85-.5zm33.55-19.35 1.7 1-35.25 20.35v-2zm0-38.7.85-.5.85.5v39.7l-1.7-1z"/><path d="M108.95 118.15v-.95l.85-.5 32.5 18.75 1.05 1.55-.85.5zm-33.5 19.35-.85-.5.95-1.5 32.55-18.8.85.5v.95zm101.4-20.8.85.5.1.9-33.6 19.4-.85-.5 1-1.55z"/><path d="m176.85 78 .85-.5.85.6v38.45l-.85.65-.85-.5z"/><path d="M143.35 58.65v-2l33.4 19.3.95 1.55-.85.5zM109.8 78l-1.7-1 35.25-20.35v2z"/><path d="m109.8 116.7-.85.5-.85-.5V77l1.7 1zm105.3 11.75.65 2-37.95-12.35-.1-.9.85-.65z"/><path d="M237.7 97.35h2.1l-24.05 33.1-.65-2zm-22.6-31.1.35-1 .85-.25 23.5 32.35h-2.1z"/><path d="m178.55 78.1-.85-.6.95-1.2 35.9-11.65.9.6-.35 1z"/><path d="m211.7 26.7 7.65-2.45L216.3 65l-.85.25-.9-.6zm-37.85 11.1h7.65l-2.85 38.5-.95 1.2-.95-1.55zm-37.232 69.003v-17.18h2.273v7.055h8.93v-7.055h2.273v17.18h-2.273v-8.098h-8.93v8.098zM139.5 109h7.65l-2.8 26.45-1 1.55-1.05-1.55zM70.75 97.35h7.65l-2.85 38.15-.95 1.5-.95-1.5zm31.517 68.942v-17.18h2.273v7.055h8.93v-7.055h2.273v17.18h-2.273v-8.098h-8.93v8.098zM112.8 146.85h-7.65l.2-1.7h7.25zm-.55-4.75h-6.55l.2-1.7h6.15zm-.55-4.75h-5.45l.2-1.7h5.05zm-.6-4.75h-4.3l.2-1.7h3.9zm-.55-4.7h-3.2l.2-1.75h2.8zm-.55-4.75h-2.1l.2-1.7h1.7zm60.977 43.142v-17.18h2.273v7.055h8.93v-7.055h2.273v17.18h-2.273v-8.098h-8.93v8.098zM181.5 146.85h-7.65l.2-1.7h7.3zm-.55-4.75h-6.5l.2-1.7h6.1zm-.55-4.75H175l.2-1.7h5zm-.55-4.75h-4.3l.2-1.7h3.9zm-.55-4.7h-3.2l.2-1.75h2.8zm-.55-4.75h-2.1l.2-1.7h1.7z"/><path d="m249.35 5 .85 1.45-30.85 17.8-7.65 2.45zM67.868 225.85v-17.18h2.273v7.055h8.93v-7.055h2.273v17.18h-2.273v-8.098h-8.93v8.098z"/><path fill="none" stroke="#000" stroke-width="1.7" d="M74.601 204.9c1.4 0 2.55-1.05 2.55-2.351s-1.15-2.35-2.55-2.35-2.55-1.05-2.55-2.35 1.15-2.351 2.55-2.351 2.55-1.05 2.55-2.35-1.15-2.351-2.55-2.351-2.55-1.05-2.55-2.35 1.15-2.35 2.55-2.35 2.55-1.051 2.55-2.351-1.15-2.35-2.55-2.35-2.55-1.05-2.55-2.351 1.15-2.35 2.55-2.35"/></svg>