<svg xml:space="preserve" style="overflow:visible" viewBox="0 0 296.6 208.6"><path d="m48.6 174.8-1.6 1V137l1.6 1z"/><path d="M80.5 193.2v1.9L47 175.8l1.6-1zm31.8-55.2.8-.4.9.5v36.7l-.9.5-.8-.5z"/><path d="M80.5 119.7v-1.9l31.7 18.3 1 1.5-.9.5zM48.6 138l-1.6-.9 33.5-19.3v1.9zm97.2 55.2v1.9L113 176.2v-.9l.9-.5z"/><path d="m177.7 174.8 1.6 1-33.5 19.3v-1.9zm0-36.8.8-.4.8.5v37.7l-1.6-1z"/><path d="M145.8 119.7v-1l.8-.5 30.9 18 1 1.4-.8.5zm64.5-38.2.8-.5.8.6v36.6l-.8.5-.8-.5zm-31.8-18.4v-1.9l31.7 18.4.9 1.4-.8.5zm-31.9 18.4-1.6-1 33.5-19.3v1.9zm0 36.7-.8.5-.8-.5V80.6l1.6.9zm-37.1-18.3h7.3L114 136l-.9 1.5-.9-1.5zm95.2 65.5v-16.3h2.2v6.7h8.4v-6.7h2.2v16.3h-2.2v-7.7H207v7.7zm10-18.4h-7.3l.2-1.7h7zm-.5-4.6H208l.2-1.6h5.8zm-.5-4.4h-5.2l.2-1.7h4.8zm-.6-4.6h-4l.1-1.6h3.7zm-.5-4.5h-3l.2-1.6h2.6zm-.6-4.5h-2l.3-1.6h1.6z"/><path d="m246.6 129.4.6 2-36-11.8-.1-.9.8-.5zM268 99.9h2l-22.8 31.4-.6-1.9z"/><path d="m246.6 70.3.4-1 .8-.2L270 100h-2z"/><path d="m246.1 32.1 1.7-.9v38l-.8.2-.9-.6z"/><path d="m214 13.6.7-1.5 33 19.1-1.6 1zm57.8.3q0-4.1 2.1-6.4a7 7 0 0 1 5.7-2.3q2.2 0 4 1a7 7 0 0 1 2.8 3.1q1 2 1 4.4t-1 4.4a7 7 0 0 1-2.9 3 8 8 0 0 1-8-.1 7 7 0 0 1-2.8-3q-1-2-1-4.1m2.2 0q0 3 1.6 4.7 1.5 1.6 4 1.7t4-1.8a7 7 0 0 0 1.5-4.8q0-2-.6-3.5a5 5 0 0 0-5-3.1q-2.2 0-3.9 1.5-1.6 1.6-1.6 5.3"/><path d="m268.5 15 .8 1.5-24.8 14.3-.8-1.5zm2.8 5 .8 1.3-24.8 14.3-.8-1.4zM80.5 195v-1.8l31.8-18.4.8.5v.9zm.4-6.7L80 187l27-15.6.8 1.4zm64.1-70.1.8.5v1L114 138l-.9-.5 1-1.5zm65.3 0 .8.5v1L179.4 138l-.8-.5 1-1.5zm35.8-49.4.9.6-.4 1L212 81.5l-.8-.6.9-1.1zM7.4 195.1q0-4 2.2-6.3a7 7 0 0 1 5.6-2.3q2.3 0 4.1 1a7 7 0 0 1 2.8 3q1 2 1 4.4t-1 4.5a7 7 0 0 1-3 3 8 8 0 0 1-8-.1 7 7 0 0 1-2.7-3q-1-2-1-4.2m2.2 0q0 3 1.6 4.7t4 1.7 4-1.7a7 7 0 0 0 1.6-4.9q0-2-.7-3.4a5 5 0 0 0-4.9-3.2q-2.2 0-3.9 1.6-1.7 1.5-1.7 5.3m16-2.9-.8-1.4 25.5-14.7.8 1.4zm-2.8-4.9L22 186l25.5-14.7.8 1.4z"/><path d="M207.4 43.3h7.3L212 80l-1 1.1-.8-1.4zm69 23.4V50.4h2.2V57h8.5v-6.7h2.1v16.3h-2.1V59h-8.5v7.7zm-5-9.1 2.3 7-1.6.2-2.2-6.5zm-3.8 1.8 1.9 6-1.6.2-1.8-5.5zm-3.9 1.8 1.5 5-1.5.3-1.5-4.6zm-3.9 1.8 1.3 4-1.7.3-1.1-3.6zm-3.9 1.9 1 2.9-1.6.3-.9-2.5zm-3.9 1.8.7 2-1.7.2-.4-1.5zm-112.6 98.7v-16.3h2.2v6.7h8.5v-6.7h2.1v16.3h-2.1v-7.7h-8.5v7.7zm10-18.4h-7.2l.2-1.7h6.8zm-.4-4.6h-6.3l.2-1.6h5.8zm-.6-4.4h-5.2l.2-1.7h4.8zm-.6-4.6h-4l.1-1.6h3.7zm-.5-4.5h-3l.1-1.6h2.7zm-.5-4.5h-2l.2-1.6h1.6zm25.2-15.6V92.5h2.2v6.7h8.5v-6.7h2.2v16.3h-2.2v-7.6h-8.5v7.6zm2.8 2.2h7.3l-2.7 25.1-1 1.5-1-1.5z"/></svg>