<?xml version="1.0" encoding="UTF-8" standalone="no"?>
<!-- Generator: Adobe Illustrator 12.0.1, SVG Export Plug-In . SVG Version: 6.00 Build 51448)  -->
<svg
   xmlns:dc="http://purl.org/dc/elements/1.1/"
   xmlns:cc="http://web.resource.org/cc/"
   xmlns:rdf="http://www.w3.org/1999/02/22-rdf-syntax-ns#"
   xmlns:svg="http://www.w3.org/2000/svg"
   xmlns="http://www.w3.org/2000/svg"
   xmlns:sodipodi="http://sodipodi.sourceforge.net/DTD/sodipodi-0.dtd"
   xmlns:inkscape="http://www.inkscape.org/namespaces/inkscape"
   version="1.1"
   id="Layer_1"
   width="296.634"
   height="208.581"
   viewBox="0 0 296.634 208.581"
   style="overflow:visible;enable-background:new 0 0 296.634 208.581;"
   xml:space="preserve"
   sodipodi:version="0.32"
   inkscape:version="0.45.1"
   sodipodi:docname="Progesteron.svg"
   inkscape:output_extension="org.inkscape.output.svg.inkscape"
   sodipodi:docbase="C:\"><metadata
   id="metadata126"><rdf:RDF><cc:Work
       rdf:about=""><dc:format>image/svg+xml</dc:format><dc:type
         rdf:resource="http://purl.org/dc/dcmitype/StillImage" /></cc:Work></rdf:RDF></metadata><defs
   id="defs124" /><sodipodi:namedview
   inkscape:window-height="579"
   inkscape:window-width="801"
   inkscape:pageshadow="2"
   inkscape:pageopacity="0.0"
   guidetolerance="10.0"
   gridtolerance="10.0"
   objecttolerance="10.0"
   borderopacity="1.0"
   bordercolor="#666666"
   pagecolor="#ffffff"
   id="base"
   inkscape:zoom="1.8122457"
   inkscape:cx="148.317"
   inkscape:cy="104.2905"
   inkscape:window-x="44"
   inkscape:window-y="44"
   inkscape:current-layer="Layer_1" />
<path
   d="M 48.64015,174.82185 L 47.0242,175.77185 L 47.0242,137.1078 L 48.64015,138.0578 L 48.64015,174.82185 z "
   id="polygon3" />
<path
   d="M 80.5117,193.2053 L 80.5117,195.0578 L 47.0242,175.77185 L 48.64015,174.82185 L 80.5117,193.2053 z "
   id="polygon5" />
<path
   d="M 112.3367,138.0578 L 113.1442,137.5828 L 113.95265,138.0578 L 113.95265,174.82185 L 113.1442,175.29685 L 112.3367,174.82185 L 112.3367,138.0578 z "
   id="polygon7" />
<path
   d="M 80.5117,119.67435 L 80.5117,117.82185 L 112.24265,136.10935 L 113.1442,137.5828 L 112.3367,138.0578 L 80.5117,119.67435 z "
   id="polygon9" />
<path
   d="M 48.64015,138.0578 L 47.0242,137.1078 L 80.5117,117.82185 L 80.5117,119.67435 L 48.64015,138.0578 z "
   id="polygon11" />
<path
   d="M 145.77765,193.2053 L 145.77765,195.0578 L 113.1442,176.19935 L 113.1442,175.29685 L 113.95265,174.82185 L 145.77765,193.2053 z "
   id="polygon13" />
<path
   d="M 177.65015,174.82185 L 179.2642,175.77185 L 145.77765,195.0578 L 145.77765,193.2053 L 177.65015,174.82185 z "
   id="polygon15" />
<path
   d="M 177.65015,138.0578 L 178.4567,137.5828 L 179.2642,138.0578 L 179.2642,175.77185 L 177.65015,174.82185 L 177.65015,138.0578 z "
   id="polygon17" />
<path
   d="M 145.77765,119.67435 L 145.77765,118.72435 L 146.58515,118.24935 L 177.46015,136.10935 L 178.4567,137.5828 L 177.65015,138.0578 L 145.77765,119.67435 z "
   id="polygon19" />
<path
   d="M 210.2817,81.48435 L 211.0892,81.00935 L 211.89765,81.6278 L 211.89765,118.1553 L 211.0892,118.72435 L 210.2817,118.24935 L 210.2817,81.48435 z "
   id="polygon21" />
<path
   d="M 178.4567,63.1028 L 178.4567,61.24935 L 210.18765,79.58435 L 211.0892,81.00935 L 210.2817,81.48435 L 178.4567,63.1028 z "
   id="polygon23" />
<path
   d="M 146.58515,81.48435 L 144.9692,80.5828 L 178.4567,61.24935 L 178.4567,63.1028 L 146.58515,81.48435 z "
   id="polygon25" />
<path
   d="M 146.58515,118.24935 L 145.77765,118.72435 L 144.9692,118.24935 L 144.9692,80.5828 L 146.58515,81.48435 L 146.58515,118.24935 z "
   id="polygon27" />
<path
   d="M 109.4867,99.8678 L 116.75515,99.8678 L 114.04765,136.10935 L 113.1442,137.5828 L 112.24265,136.10935 L 109.4867,99.8678 z "
   id="polygon29" />
<g
   id="g31"
   transform="matrix(0.95,0,0,0.95,7.41585,5.21455)">
	<path
   d="M 207.681,168.635 L 207.681,151.447 L 209.962,151.447 L 209.962,158.51 L 218.853,158.51 L 218.853,151.447 L 221.134,151.447 L 221.134,168.635 L 218.853,168.635 L 218.853,160.541 L 209.962,160.541 L 209.962,168.635 L 207.681,168.635 z "
   id="path33" />
</g>
<path
   d="M 214.74765,146.9403 L 207.4317,146.9403 L 207.62265,145.32435 L 214.5567,145.32435 L 214.74765,146.9403 z "
   id="polygon35" />
<path
   d="M 214.1767,142.4278 L 208.0017,142.4278 L 208.19265,140.81185 L 213.98765,140.81185 L 214.1767,142.4278 z "
   id="polygon37" />
<path
   d="M 213.65515,137.9153 L 208.52515,137.9153 L 208.7142,136.29935 L 213.4642,136.29935 L 213.65515,137.9153 z "
   id="polygon39" />
<path
   d="M 213.1317,133.4028 L 209.04765,133.4028 L 209.23765,131.78685 L 212.94265,131.78685 L 213.1317,133.4028 z "
   id="polygon41" />
<path
   d="M 212.61015,128.8903 L 209.5692,128.8903 L 209.76015,127.27435 L 212.4192,127.27435 L 212.61015,128.8903 z "
   id="polygon43" />
<path
   d="M 212.08765,124.3778 L 210.09265,124.3778 L 210.2817,122.76185 L 211.89765,122.76185 L 212.08765,124.3778 z "
   id="polygon45" />
<path
   d="M 246.6192,129.41185 L 247.23765,131.31185 L 211.18515,119.6278 L 211.0892,118.72435 L 211.89765,118.1553 L 246.6192,129.41185 z "
   id="polygon47" />
<path
   d="M 268.0892,99.8678 L 270.08515,99.8678 L 247.23765,131.31185 L 246.6192,129.41185 L 268.0892,99.8678 z "
   id="polygon49" />
<path
   d="M 246.6192,70.32185 L 246.9517,69.37185 L 247.76015,69.13435 L 270.08515,99.8678 L 268.0892,99.8678 L 246.6192,70.32185 z "
   id="polygon51" />
<path
   d="M 246.1442,32.1328 L 247.76015,31.2303 L 247.76015,69.13435 L 246.9517,69.37185 L 246.1442,68.8028 L 246.1442,32.1328 z "
   id="polygon53" />
<path
   d="M 213.9392,13.55935 L 214.74765,12.13435 L 247.76015,31.2303 L 246.1442,32.1328 L 213.9392,13.55935 z "
   id="polygon55" />
<g
   id="g57"
   transform="matrix(0.95,0,0,0.95,7.41585,5.21455)">
	<path
   d="M 278.25,9.119 C 278.25,6.266 279.016,4.034 280.547,2.421 C 282.081,0.807 284.057,0 286.481,0 C 288.067,0 289.498,0.379 290.772,1.137 C 292.045,1.896 293.016,2.952 293.685,4.308 C 294.354,5.664 294.688,7.202 294.688,8.92 C 294.688,10.663 294.336,12.222 293.632,13.597 C 292.928,14.972 291.932,16.014 290.643,16.721 C 289.352,17.428 287.961,17.782 286.469,17.782 C 284.85,17.782 283.405,17.391 282.131,16.61 C 280.856,15.829 279.891,14.761 279.235,13.41 C 278.579,12.059 278.25,10.628 278.25,9.119 z M 280.594,9.148 C 280.594,11.218 281.151,12.849 282.264,14.041 C 283.379,15.232 284.776,15.828 286.457,15.828 C 288.168,15.828 289.578,15.226 290.684,14.023 C 291.79,12.82 292.344,11.113 292.344,8.902 C 292.344,7.504 292.108,6.283 291.634,5.24 C 291.16,4.197 290.469,3.388 289.559,2.814 C 288.648,2.24 287.625,1.953 286.493,1.953 C 284.882,1.953 283.497,2.506 282.335,3.611 C 281.174,4.717 280.594,6.563 280.594,9.148 z "
   id="path59" />
</g>
<path
   d="M 268.5167,15.0328 L 269.32515,16.4578 L 244.53015,30.7553 L 243.72265,29.3303 L 268.5167,15.0328 z "
   id="polygon61" />
<path
   d="M 271.3192,19.92435 L 272.12765,21.34935 L 247.3317,35.64685 L 246.52515,34.22185 L 271.3192,19.92435 z "
   id="polygon63" />
<path
   d="M 80.5117,195.0578 L 80.5117,193.2053 L 112.3367,174.82185 L 113.1442,175.29685 L 113.1442,176.19935 L 80.5117,195.0578 z "
   id="polygon65" />
<path
   d="M 80.89265,188.31185 L 80.08515,186.88685 L 107.06515,171.3078 L 107.87265,172.7328 L 80.89265,188.31185 z "
   id="polygon67" />
<path
   d="M 144.9692,118.24935 L 145.77765,118.72435 L 145.77765,119.67435 L 113.95265,138.0578 L 113.1442,137.5828 L 114.04765,136.10935 L 144.9692,118.24935 z "
   id="polygon69" />
<path
   d="M 210.2817,118.24935 L 211.0892,118.72435 L 211.18515,119.6278 L 179.2642,138.0578 L 178.4567,137.5828 L 179.4067,136.10935 L 210.2817,118.24935 z "
   id="polygon71" />
<path
   d="M 246.1442,68.8028 L 246.9517,69.37185 L 246.6192,70.32185 L 211.89765,81.6278 L 211.0892,81.00935 L 211.99265,79.8703 L 246.1442,68.8028 z "
   id="polygon73" />
<g
   id="g75"
   transform="matrix(0.95,0,0,0.95,7.41585,5.21455)">
	<path
   d="M 0,199.919 C 0,197.066 0.766,194.834 2.298,193.221 C 3.83,191.607 5.808,190.8 8.231,190.8 C 9.818,190.8 11.248,191.179 12.522,191.937 C 13.796,192.696 14.767,193.752 15.436,195.108 C 16.105,196.464 16.438,198.002 16.438,199.72 C 16.438,201.463 16.086,203.022 15.383,204.397 C 14.68,205.772 13.683,206.814 12.393,207.521 C 11.103,208.228 9.712,208.582 8.219,208.582 C 6.601,208.582 5.155,208.191 3.881,207.41 C 2.607,206.629 1.642,205.561 0.985,204.21 C 0.328,202.859 0,201.428 0,199.919 z M 2.344,199.948 C 2.344,202.018 2.901,203.649 4.015,204.841 C 5.129,206.033 6.527,206.628 8.207,206.628 C 9.919,206.628 11.328,206.026 12.435,204.823 C 13.541,203.62 14.094,201.913 14.094,199.702 C 14.094,198.304 13.858,197.083 13.385,196.04 C 12.912,194.997 12.22,194.188 11.309,193.614 C 10.398,193.04 9.376,192.753 8.243,192.753 C 6.633,192.753 5.247,193.306 4.086,194.411 C 2.925,195.516 2.344,197.362 2.344,199.948 z "
   id="path77" />
</g>
<path
   d="M 25.6492,192.3028 L 24.84265,190.8778 L 50.25515,176.19935 L 51.0617,177.62435 L 25.6492,192.3028 z "
   id="polygon79" />
<path
   d="M 22.84765,187.40935 L 22.04015,185.98435 L 47.45265,171.3078 L 48.26015,172.7328 L 22.84765,187.40935 z "
   id="polygon81" />
<path
   d="M 207.4317,43.3428 L 214.74765,43.3428 L 211.99265,79.8703 L 211.0892,81.00935 L 210.18765,79.58435 L 207.4317,43.3428 z "
   id="polygon83" />
<g
   id="g85"
   transform="matrix(0.95,0,0,0.95,7.41585,5.21455)">
	<path
   d="M 283.181,64.734 L 283.181,47.547 L 285.462,47.547 L 285.462,54.61 L 294.353,54.61 L 294.353,47.547 L 296.634,47.547 L 296.634,64.735 L 294.353,64.735 L 294.353,56.641 L 285.462,56.641 L 285.462,64.735 L 283.181,64.735 L 283.181,64.734 z "
   id="path87" />
</g>
<path
   d="M 271.41515,57.5928 L 273.6942,64.5278 L 272.0792,64.81185 L 269.9417,58.3053 L 271.41515,57.5928 z "
   id="polygon89" />
<path
   d="M 267.5667,59.39685 L 269.4667,65.33435 L 267.85265,65.6203 L 266.0942,60.10935 L 267.5667,59.39685 z "
   id="polygon91" />
<path
   d="M 263.67265,61.24935 L 265.2392,66.1428 L 263.67265,66.47435 L 262.20015,61.9153 L 263.67265,61.24935 z "
   id="polygon93" />
<path
   d="M 259.7767,63.0553 L 261.06015,66.94935 L 259.4442,67.2828 L 258.3042,63.7203 L 259.7767,63.0553 z "
   id="polygon95" />
<path
   d="M 255.8817,64.85935 L 256.8317,67.7578 L 255.2642,68.0903 L 254.41015,65.57185 L 255.8817,64.85935 z "
   id="polygon97" />
<path
   d="M 252.03515,66.6653 L 252.6517,68.61185 L 251.03765,68.89685 L 250.56265,67.3778 L 252.03515,66.6653 z "
   id="polygon99" />
<g
   id="g101"
   transform="matrix(0.95,0,0,0.95,7.41585,5.21455)">
	<path
   d="M 138.981,168.635 L 138.981,151.447 L 141.262,151.447 L 141.262,158.51 L 150.153,158.51 L 150.153,151.447 L 152.434,151.447 L 152.434,168.635 L 150.153,168.635 L 150.153,160.541 L 141.262,160.541 L 141.262,168.635 L 138.981,168.635 z "
   id="path103" />
</g>
<path
   d="M 149.43515,146.9403 L 142.16765,146.9403 L 142.3567,145.32435 L 149.2442,145.32435 L 149.43515,146.9403 z "
   id="polygon105" />
<path
   d="M 148.9117,142.4278 L 142.69015,142.4278 L 142.88015,140.81185 L 148.72265,140.81185 L 148.9117,142.4278 z "
   id="polygon107" />
<path
   d="M 148.39015,137.9153 L 143.2117,137.9153 L 143.40265,136.29935 L 148.1992,136.29935 L 148.39015,137.9153 z "
   id="polygon109" />
<path
   d="M 147.8192,133.4028 L 143.73515,133.4028 L 143.9242,131.78685 L 147.63015,131.78685 L 147.8192,133.4028 z "
   id="polygon111" />
<path
   d="M 147.29765,128.8903 L 144.2567,128.8903 L 144.44765,127.27435 L 147.1067,127.27435 L 147.29765,128.8903 z "
   id="polygon113" />
<path
   d="M 146.7742,124.3778 L 144.78015,124.3778 L 144.9692,122.76185 L 146.58515,122.76185 L 146.7742,124.3778 z "
   id="polygon115" />
<g
   id="g117"
   transform="matrix(0.95,0,0,0.95,7.41585,5.21455)">
	<path
   d="M 173.331,109.085 L 173.331,91.897 L 175.612,91.897 L 175.612,98.96 L 184.503,98.96 L 184.503,91.897 L 186.784,91.897 L 186.784,109.085 L 184.503,109.085 L 184.503,100.991 L 175.612,100.991 L 175.612,109.085 L 173.331,109.085 L 173.331,109.085 z "
   id="path119" />
</g>
<path
   d="M 174.80015,111.0303 L 182.06765,111.0303 L 179.4067,136.10935 L 178.4567,137.5828 L 177.46015,136.10935 L 174.80015,111.0303 z "
   id="polygon121" />
</svg>