<svg xmlns="http://www.w3.org/2000/svg" xml:space="preserve" overflow="visible" viewBox="0 0 296.63 208.58"><path d="m48.64 174.822-1.616.95v-38.664l1.616.95zm31.872 18.383v1.853l-33.488-19.286 1.616-.95zm31.825-55.147.807-.475.809.475v36.764l-.809.475-.807-.475z"/><path d="M80.512 119.674v-1.852l31.73 18.287.902 1.474-.807.475zM48.64 138.058l-1.616-.95 33.488-19.286v1.852zm97.138 55.147v1.853l-32.634-18.859v-.902l.809-.475zm31.872-18.383 1.614.95-33.486 19.286v-1.853z"/><path d="m177.65 138.058.807-.475.807.475v37.714l-1.614-.95z"/><path d="M145.778 119.674v-.95l.807-.475 30.875 17.86.997 1.474-.807.475zm64.504-38.19.807-.475.809.619v36.527l-.809.57-.807-.476zm-31.825-18.381v-1.854l31.73 18.335.902 1.425-.807.475zm-31.872 18.381-1.616-.901 33.488-19.334v1.854z"/><path d="m146.585 118.25-.807.474-.809-.475V80.583l1.616.901zm-37.098-18.382h7.268l-2.707 36.241-.904 1.474-.901-1.474zm95.226 65.55v-16.329h2.167v6.71h8.446v-6.71h2.167v16.329h-2.167v-7.69h-8.446v7.69zm10.035-18.478h-7.316l.19-1.616h6.935zm-.571-4.512h-6.175l.19-1.616h5.796zm-.522-4.513h-5.13l.19-1.616h4.75zm-.523-4.512h-4.084l.19-1.616h3.705zm-.522-4.513h-3.04l.19-1.616h2.66zm-.522-4.512h-1.995l.189-1.616h1.616zm34.532 5.034.618 1.9-36.053-11.684-.096-.904.809-.569z"/><path d="M268.09 99.868h1.995l-22.847 31.444-.619-1.9zm-21.47-29.546.332-.95.808-.238 22.325 30.734h-1.996z"/><path d="m246.144 32.133 1.616-.903v37.904l-.808.238-.808-.57zM213.94 13.56l.808-1.426L247.76 31.23l-1.616.903zm57.813.318q0-4.065 2.183-6.363 2.184-2.3 5.637-2.3 2.26 0 4.076 1.08a7.07 7.07 0 0 1 2.768 3.012q.952 1.933.952 4.382 0 2.482-1.003 4.443t-2.84 2.967a8.1 8.1 0 0 1-3.965 1.008q-2.306 0-4.12-1.113a7.16 7.16 0 0 1-2.752-3.04 9.2 9.2 0 0 1-.936-4.076m2.227.027q0 2.95 1.587 4.649 1.588 1.696 3.983 1.697 2.438 0 4.016-1.715 1.576-1.713 1.577-4.865 0-1.992-.675-3.478t-1.971-2.305q-1.299-.818-2.913-.818-2.295 0-3.95 1.575-1.654 1.576-1.654 5.26"/><path d="m268.517 15.033.808 1.425-24.795 14.297-.807-1.425zm2.803 4.891.808 1.425-24.796 14.298-.807-1.425zM80.512 195.058v-1.853l31.825-18.383.807.475v.902zm.381-6.746-.808-1.425 26.98-15.58.808 1.426zm64.077-70.062.808.474v.95l-31.825 18.384-.809-.475.904-1.474zm65.312 0 .807.474.096.904-31.92 18.43-.808-.475.95-1.474zm35.862-49.447.808.569-.333.95-34.721 11.306-.809-.619.904-1.139zM7.416 195.138q0-4.065 2.183-6.364 2.183-2.3 5.636-2.3 2.261 0 4.077 1.08a7.07 7.07 0 0 1 2.768 3.013q.953 1.933.952 4.382 0 2.482-1.002 4.443t-2.84 2.967a8.1 8.1 0 0 1-3.966 1.008q-2.305 0-4.121-1.113a7.17 7.17 0 0 1-2.751-3.04 9.2 9.2 0 0 1-.936-4.076m2.227.027q0 2.95 1.587 4.649t3.983 1.697q2.439 0 4.016-1.715 1.576-1.713 1.576-4.865 0-1.993-.673-3.478-.675-1.487-1.973-2.305t-2.912-.818q-2.295 0-3.95 1.575-1.653 1.575-1.654 5.26m16.007-2.862-.807-1.425 25.412-14.679.807 1.425zm-2.802-4.893-.808-1.426 25.413-14.676.807 1.425z"/><path d="M207.432 43.343h7.316l-2.755 36.527-.904 1.14-.901-1.426zm69.006 23.369V50.384h2.167v6.71h8.446v-6.71h2.167v16.329h-2.167v-7.69h-8.446v7.69zm-5.023-9.119 2.28 6.935-1.616.284-2.137-6.507zm-3.848 1.804 1.9 5.937-1.614.286-1.759-5.51zm-3.894 1.853 1.566 4.893-1.566.331-1.473-4.559zm-3.896 1.805 1.283 3.894-1.616.334-1.14-3.563zm-3.895 1.805.95 2.898-1.568.332-.854-2.518zm-3.847 1.805.617 1.947-1.614.285-.475-1.52zm-112.587 98.753v-16.329h2.167v6.71h8.446v-6.71h2.167v16.329h-2.167v-7.69h-8.446v7.69zm9.987-18.478h-7.267l.189-1.616h6.887zm-.523-4.512h-6.222l.19-1.616h5.843zm-.522-4.513h-5.178l.19-1.616h4.797zm-.57-4.512h-4.085l.19-1.616h3.705zm-.522-4.513h-3.041l.19-1.616h2.66zm-.524-4.512h-1.994l.19-1.616h1.615zm25.306-15.533V92.517h2.167v6.71h8.447v-6.71h2.167v16.328h-2.167v-7.689h-8.447v7.69zm2.72 2.185h7.268l-2.661 25.08-.95 1.473-.997-1.474z"/></svg>