<svg xml:space="preserve" style="overflow:visible" viewBox="0 0 267.9 172.9"><path d="M8.5 95.3v1.5H0l.2-1q.3-.9 1-1.8l2.1-2q2-1.6 2.8-2.7.8-1 .8-1.9T6.2 86t-1.7-.7-1.9.7-.7 2l-1.6-.3A4 4 0 0 1 1.6 85q1-1 2.9-1t3 1 1 2.6q0 .8-.3 1.5l-1 1.6-2.5 2.2-2.5 2.5zM.2 142.6l1.6-.2q.3 1.3 1 1.9t1.5.6q1.2 0 2-.8.6-.7.7-1.9a2.4 2.4 0 0 0-2.5-2.5l-1.2.2.2-1.4h.3q1 0 1.8-.5.8-.7.8-1.6t-.6-1.5-1.5-.6-1.6.6a3 3 0 0 0-.7 1.8l-1.6-.3a4 4 0 0 1 1.3-2.5q1-.8 2.6-.8 1 0 1.9.4a3 3 0 0 1 1.8 2.9q0 .8-.4 1.5a3 3 0 0 1-1.3 1.1 3 3 0 0 1 1.7 1q.7.9.7 2.2 0 1.6-1.3 2.8-1.2 1.2-3 1.2a4 4 0 0 1-2.9-1 4 4 0 0 1-1.3-2.6m48 30v-3h-5.6V168l5.9-8.4h1.3v8.4h1.7v1.5h-1.7v3zm0-4.5v-5.8l-4 5.8zM87 131h1.7q.2 1 .9 1.8.7.6 1.6.6 1.2 0 2-.9.7-.9.7-2.3a3 3 0 0 0-.7-2.1q-.8-.8-2-.8a3 3 0 0 0-2.4 1.3l-1.4-.3 1.2-6.6H95v1.5h-5l-.7 3.5q1.1-.8 2.4-.8 1.6 0 2.9 1.2a4 4 0 0 1 1.1 3q0 1.7-1 3a4 4 0 0 1-3.4 1.6q-1.7 0-2.9-1a4 4 0 0 1-1.2-2.6m-9.7-41.9h-1.6v-10l-1.5 1-1.7.9v-1.6Q74.2 79 75 78a6 6 0 0 0 1.5-1.7h1zm4-6.3q0-2.3.5-3.7t1.4-2.1 2.3-.8q1 0 1.9.4t1.3 1.2.7 2q.3 1 .3 3 0 2.3-.4 3.6Q89 88 88 88.7t-2.4.8q-1.8 0-2.9-1.4-1.2-1.5-1.3-5.2m1.7 0q0 3.2.7 4.2.8 1 1.8 1 1.2 0 1.9-1t.7-4.2-.7-4.2-1.9-1a2 2 0 0 0-1.7.8q-.8 1.2-.8 4.4M48 72.4h-1.5v-10l-1.5 1-1.7.9v-1.6q1.5-.6 2.3-1.5a6 6 0 0 0 1.5-1.7h1z" style="fill:#ed1c24" transform="matrix(.95 0 0 .95 6.697 4.321)"/><path d="m19.9 132.7-1.6 1V95l1.6 1zM51.7 151v2l-33.4-19.3 1.6-1z"/><path d="m83.6 132.7.8.5v1l-32.7 18.7v-1.8z"/><path d="m83.6 96 .8-.5.8.4v36.8l-.8.5-.8-.5z"/><path d="M51.7 77.6v-1.9l32.7 18.9v.9l-.8.4zM19.9 96l-1.6-1 33.4-19.3v1.9z"/><path d="m120.1 162.9-1.6.1-.6-1.3q-.7-.7-1.6-.7-.8 0-1.3.4-.8.7-1.2 1.6t-.4 3a4 4 0 0 1 3.1-1.7q1.6 0 2.7 1.1t1.1 3a5 5 0 0 1-.5 2.3 4 4 0 0 1-3.5 2.2 4 4 0 0 1-3.3-1.5q-1.2-1.5-1.2-4.8 0-3.8 1.4-5.4a4 4 0 0 1 3.2-1.5q1.5 0 2.5.9t1.2 2.3m-6.5 5.6q0 .7.4 1.5.3.8 1 1.2.5.4 1.2.4 1 0 1.8-.9.7-.7.7-2.2a3 3 0 0 0-.7-2q-.7-.9-1.8-.8-1 0-1.8.7-.8.8-.8 2m41.4-33.1v-1.5h8.3v1.2q-1.2 1.3-2.5 3.5a21 21 0 0 0-2.4 8h-1.7q0-1.6.6-3.7a19 19 0 0 1 4-7.5zm-6.3-52a3 3 0 0 1-1.5-1q-.4-.7-.4-1.7 0-1.5 1-2.3 1-1 2.7-1 1.6 0 2.7 1 1 .9 1 2.4 0 .8-.5 1.5a3 3 0 0 1-1.4 1q1.2.4 1.8 1.3t.6 2q0 1.7-1.1 2.8-1.2 1.2-3.1 1.2t-3-1.2a4 4 0 0 1-1.2-2.8q0-1.2.6-2 .6-1 1.8-1.2m-.8 3.2q0 .8.3 1.3.3.7 1 1t1.3.4q1.2 0 1.9-.8.7-.7.7-1.8t-.7-2-2-.7a2.5 2.5 0 0 0-2.5 2.6m.5-6q0 1 .6 1.6t1.5.5a2 2 0 0 0 1.5-.5q.6-.6.6-1.4 0-.9-.6-1.5a2 2 0 0 0-1.5-.6 2 2 0 0 0-1.5.6q-.6.5-.6 1.4M120.7 73l1.5-.2q.2 1.1.8 1.6.5.5 1.4.5.7 0 1.2-.4.6-.3 1-.9.3-.5.5-1.5l.3-2.2a4 4 0 0 1-3.1 1.7q-1.6 0-2.7-1.2a4 4 0 0 1-1.1-3q0-2 1.1-3.2t3-1.2a4 4 0 0 1 3.8 2.6q.6 1.2.5 3.6t-.5 4q-.6 1.5-1.6 2.2t-2.5.8-2.4-.9-1.2-2.3m6.5-5.7q0-1.5-.7-2.2t-1.8-.8-1.8.9-.8 2.2.7 2 1.9.8 1.8-.8a3 3 0 0 0 .7-2.1" style="fill:#ed1c24" transform="matrix(.95 0 0 .95 6.697 4.321)"/><path d="M117 151v2l-32.6-19v-1l.8-.4zm31.9-18.3 1.6 1-33.5 19.2v-1.8zm0-36.7.8-.5.8.4v37.8l-1.6-1zM117 77.6v-1l.8-.5 31.9 18.5v.9l-.8.4zM85.2 96l-.8-.5v-1l31.8-18.4.8.5v1z"/><path d="M182.2 96.2h-1.6v-10q-.5.5-1.5 1l-1.6.9v-1.6q1.3-.6 2.3-1.5a6 6 0 0 0 1.4-1.7h1zm9.2 0v-3h-5.7v-1.5l6-8.4h1.2v8.4h1.8v1.5h-1.8v3zm0-4.5V86l-4 5.8zm-9.5-61.9h-1.6v-10l-1.5 1q-1 .6-1.7.8v-1.5q1.4-.7 2.3-1.5a6 6 0 0 0 1.5-1.7h1zm4.1-3.4 1.5-.2q.3 1.3 1 1.9t1.5.6q1.2 0 2-.8.7-.7.7-1.9a2.4 2.4 0 0 0-2.5-2.5l-1.1.2.1-1.4h.3q1 0 1.8-.5t.8-1.6q0-.9-.6-1.5t-1.5-.6-1.5.6a3 3 0 0 0-.8 1.8l-1.6-.3a4 4 0 0 1 1.3-2.5q1-.9 2.6-.8 1 0 2 .4a3 3 0 0 1 1.7 2.9q0 .8-.4 1.5a3 3 0 0 1-1.3 1.1 3 3 0 0 1 1.7 1.1q.7.8.7 2 0 1.8-1.2 3-1.4 1-3.2 1.1a4 4 0 0 1-4.1-3.6M147.2 13h-1.6V2.8q-.5.5-1.5 1l-1.6.9V3.2q1.3-.6 2.3-1.5a6 6 0 0 0 1.4-1.7h1zm12.4-1.6V13H151l.1-1q.4-.9 1.1-1.8l2-2q2.2-1.6 3-2.7.7-1 .7-1.9t-.7-1.5-1.8-.7-1.8.7-.7 2l-1.6-.3a4 4 0 0 1 1.2-2.7q1-1 3-1a4 4 0 0 1 2.9 1q1 1 1 2.6 0 .8-.2 1.5l-1 1.6-2.5 2.2-2.5 2.5zm-58 25.9H100v-10l-1.5 1-1.6.8v-1.5q1.3-.7 2.3-1.5a6 6 0 0 0 1.4-1.7h1zm10 0h-1.5v-10l-1.5 1-1.7.8v-1.5q1.3-.7 2.3-1.5a6 6 0 0 0 1.4-1.7h1z" style="fill:#ed1c24" transform="matrix(.95 0 0 .95 6.697 4.321)"/><path d="m181.5 76.1.8.5.1 1-31.9 18.3-.8-.4v-1z"/><path d="m181.5 39.4.8-.5.8.6V76l-.8.6-.8-.5zM149.7 21v-2l32.7 19v.8l-.9.5zm-31.9 18.4-1.6-1 33.5-19.3V21zm0 36.7-.8.5-.8-.5V38.5l1.6.9z"/><path d="M221.1 106.2h-1.6v-10q-.5.5-1.5 1l-1.6.9v-1.6q1.3-.6 2.3-1.5a6 6 0 0 0 1.4-1.7h1zm4.1-3.3 1.6-.2q.2 1.2.9 1.9t1.6.6q1.2 0 2-1 .8-.7.8-2.2a3 3 0 0 0-.8-2.1q-.8-.8-2-.8a3 3 0 0 0-2.4 1.3l-1.4-.3 1.2-6.6h6.4V95H228l-.7 3.5q1.2-.8 2.4-.8 1.6 0 2.9 1.2a4 4 0 0 1 1.1 3q0 1.6-1 3a4 4 0 0 1-3.4 1.6q-1.7 0-2.9-1a4 4 0 0 1-1.2-2.6m30.2-40.3h-1.6v-10l-1.5 1-1.7.9v-1.6q1.4-.6 2.3-1.5a6 6 0 0 0 1.5-1.7h1zm12.3-9.7-1.6.1-.6-1.3q-.6-.7-1.6-.7-.8 0-1.3.4-.8.7-1.2 1.6-.5 1-.5 3a4 4 0 0 1 3.2-1.7q1.6 0 2.7 1.1 1 1.2 1 3a5 5 0 0 1-.4 2.3 4 4 0 0 1-3.6 2.2 4 4 0 0 1-3.2-1.5q-1.2-1.5-1.2-4.8 0-3.7 1.3-5.4a4 4 0 0 1 3.3-1.5q1.5 0 2.5.9t1.2 2.3m-6.5 5.6q0 .7.3 1.5.4.8 1 1.2t1.3.4q1 0 1.7-.9.8-.7.8-2.2a3 3 0 0 0-.8-2q-.6-.8-1.8-.8-1 0-1.8.7-.7.9-.7 2m-37-38.6h-1.6v-10l-1.5 1-1.6.8v-1.5q1.3-.7 2.3-1.5a6 6 0 0 0 1.4-1.7h1zm4.2-11.2V7h8.3v1.2q-1.2 1.3-2.4 3.5a21 21 0 0 0-2.5 8h-1.6q0-1.6.6-3.7a19 19 0 0 1 3.9-7.5z" style="fill:#ed1c24" transform="matrix(.95 0 0 .95 6.697 4.321)"/><path d="m217.9 87.3.6 2-36-11.8-.2-.9.8-.6zm21.5-29.6h2l-22.9 31.5-.6-1.9zm-21.5-29.5.6-1.9 22.9 31.4h-2zm-34.8 11.3-.8-.6.1-.9 36.1-11.7-.6 1.9zm-140 83.4 6.3-16.4h2.3l6.7 16.4h-2.5l-1.9-5h-6.8l-1.8 5zm4.7-6.7h5.6l-1.7-4.6q-.9-2-1.2-3.3l-.9 3zm64.5 6.7v-16.4h6.1q2 0 3 .5 1.2.6 1.8 1.6t.6 2.1-.5 2a4 4 0 0 1-1.8 1.5q1.5.5 2.3 1.5t.8 2.4a5 5 0 0 1-1.7 3.7l-1.8.8q-1 .3-2.6.3zm2.2-9.5h3.5q1.4 0 2-.2.9-.2 1.3-.8t.4-1.4-.4-1.5a2 2 0 0 0-1.1-.8q-.7-.2-2.5-.2h-3.2zm0 7.5h5.5l1.2-.5q.5-.3.9-.9.3-.6.3-1.4 0-.9-.5-1.6-.4-.6-1.3-.9l-2.4-.3h-3.7zm41-60.4 2.2.5a7 7 0 0 1-2.4 4 7 7 0 0 1-4.4 1.5q-2.5 0-4.2-1-1.7-1.1-2.6-3.2a11 11 0 0 1 .2-8.8 7 7 0 0 1 2.7-3 8 8 0 0 1 4-1q2.5 0 4 1.3 1.8 1.3 2.4 3.6l-2.1.5a5 5 0 0 0-1.7-2.6q-1-.9-2.7-.9-1.9 0-3.1 1-1.2.8-1.8 2.4-.5 1.5-.5 3.1 0 2.1.6 3.6T148 64t2.8.7q1.8 0 3-1 1.3-1.1 1.7-3.1m49.3 5.6V49.9h5.6q2 0 3 .2 1.4.3 2.3 1.2 1.3 1 2 2.8t.6 3.8-.4 3.3a8 8 0 0 1-1.2 2.4q-.7 1-1.4 1.5l-2 .8q-1.1.3-2.6.3zm2.2-2h3.5q1.5 0 2.5-.2.8-.3 1.4-.9.8-.8 1.2-2 .5-1.4.5-3.2 0-2.5-.9-4-.8-1.3-2-1.8-.9-.3-2.8-.3H207z"/></svg>