<?xml version="1.0" encoding="UTF-8" standalone="no"?>
<!-- Generator: Adobe Illustrator 12.0.1, SVG Export Plug-In . SVG Version: 6.00 Build 51448)  -->
<svg
   xmlns:dc="http://purl.org/dc/elements/1.1/"
   xmlns:cc="http://web.resource.org/cc/"
   xmlns:rdf="http://www.w3.org/1999/02/22-rdf-syntax-ns#"
   xmlns:svg="http://www.w3.org/2000/svg"
   xmlns="http://www.w3.org/2000/svg"
   xmlns:sodipodi="http://sodipodi.sourceforge.net/DTD/sodipodi-0.dtd"
   xmlns:inkscape="http://www.inkscape.org/namespaces/inkscape"
   version="1.1"
   id="Layer_1"
   width="267.884"
   height="172.856"
   viewBox="0 0 267.884 172.856"
   style="overflow:visible;enable-background:new 0 0 267.884 172.856;"
   xml:space="preserve"
   sodipodi:version="0.32"
   inkscape:version="0.44.1"
   sodipodi:docname="Steran num ABCD.svg"
   sodipodi:docbase="E:\Eigene Dateien"><metadata
   id="metadata142"><rdf:RDF><cc:Work
       rdf:about=""><dc:format>image/svg+xml</dc:format><dc:type
         rdf:resource="http://purl.org/dc/dcmitype/StillImage" /></cc:Work></rdf:RDF></metadata><defs
   id="defs140" /><sodipodi:namedview
   inkscape:window-height="573"
   inkscape:window-width="925"
   inkscape:pageshadow="2"
   inkscape:pageopacity="0.0"
   guidetolerance="10.0"
   gridtolerance="10.0"
   objecttolerance="10.0"
   borderopacity="1.0"
   bordercolor="#666666"
   pagecolor="#ffffff"
   id="base"
   inkscape:zoom="2.1867913"
   inkscape:cx="133.942"
   inkscape:cy="86.428001"
   inkscape:window-x="132"
   inkscape:window-y="132"
   inkscape:current-layer="Layer_1" />
<g
   id="g3"
   transform="matrix(0.95,0,0,0.95,6.697064,4.3214)">
	<path
   style="fill:#ed1c24"
   d="M 8.533,95.322 L 8.533,96.838 L 0.001,96.838 C -0.011,96.457 0.051,96.091 0.187,95.738 C 0.405,95.158 0.754,94.588 1.235,94.026 C 1.715,93.464 2.405,92.815 3.305,92.078 C 4.701,90.926 5.647,90.015 6.145,89.345 C 6.643,88.675 6.892,88.041 6.892,87.442 C 6.892,86.816 6.667,86.288 6.217,85.858 C 5.767,85.428 5.18,85.213 4.457,85.213 C 3.691,85.213 3.08,85.442 2.621,85.901 C 2.162,86.359 1.93,86.995 1.924,87.806 L 0.299,87.634 C 0.41,86.419 0.83,85.492 1.559,84.855 C 2.286,84.219 3.264,83.9 4.492,83.9 C 5.731,83.9 6.712,84.243 7.434,84.929 C 8.156,85.615 8.517,86.464 8.517,87.479 C 8.517,87.996 8.411,88.502 8.2,89 C 7.989,89.498 7.637,90.022 7.147,90.574 C 6.656,91.125 5.843,91.882 4.707,92.843 C 3.756,93.64 3.145,94.181 2.874,94.464 C 2.603,94.749 2.378,95.034 2.201,95.321 L 8.533,95.321 L 8.533,95.322 z "
   id="path5" />
</g>
<g
   id="g7"
   transform="matrix(0.95,0,0,0.95,6.697064,4.3214)">
	<path
   style="fill:#ed1c24"
   d="M 0.22,142.581 L 1.798,142.362 C 1.981,143.258 2.29,143.905 2.726,144.3 C 3.163,144.696 3.698,144.894 4.333,144.894 C 5.086,144.894 5.719,144.636 6.232,144.121 C 6.745,143.606 7.001,142.968 7.001,142.207 C 7.001,141.48 6.763,140.882 6.285,140.41 C 5.808,139.939 5.202,139.703 4.466,139.703 C 4.165,139.703 3.791,139.762 3.344,139.879 L 3.521,138.488 C 3.627,138.5 3.712,138.506 3.777,138.506 C 4.451,138.506 5.058,138.33 5.598,137.98 C 6.138,137.629 6.408,137.088 6.408,136.357 C 6.408,135.778 6.211,135.298 5.817,134.919 C 5.423,134.539 4.915,134.349 4.292,134.349 C 3.675,134.349 3.16,134.543 2.749,134.931 C 2.337,135.32 2.073,135.902 1.956,136.677 L 0.378,136.396 C 0.571,135.334 1.012,134.511 1.698,133.927 C 2.384,133.344 3.238,133.052 4.259,133.052 C 4.963,133.052 5.612,133.202 6.204,133.504 C 6.796,133.805 7.249,134.216 7.564,134.736 C 7.877,135.257 8.035,135.809 8.035,136.394 C 8.035,136.95 7.886,137.456 7.587,137.912 C 7.288,138.368 6.846,138.73 6.26,139 C 7.022,139.176 7.614,139.54 8.039,140.095 C 8.463,140.648 8.676,141.341 8.676,142.173 C 8.676,143.298 8.265,144.252 7.443,145.034 C 6.621,145.817 5.582,146.208 4.326,146.208 C 3.193,146.208 2.252,145.872 1.504,145.198 C 0.752,144.524 0.326,143.651 0.22,142.581 z "
   id="path9" />
</g>
<g
   id="g11"
   transform="matrix(0.95,0,0,0.95,6.697064,4.3214)">
	<path
   style="fill:#ed1c24"
   d="M 48.198,172.638 L 48.198,169.56 L 42.589,169.56 L 42.589,168.107 L 48.48,159.748 L 49.777,159.748 L 49.777,168.107 L 51.511,168.107 L 51.511,169.56 L 49.777,169.56 L 49.777,172.638 L 48.198,172.638 z M 48.198,168.106 L 48.198,162.273 L 44.144,168.106 L 48.198,168.106 z "
   id="path13" />
</g>
<g
   id="g15"
   transform="matrix(0.95,0,0,0.95,6.697064,4.3214)">
	<path
   style="fill:#ed1c24"
   d="M 87.07,131.063 L 88.726,130.938 C 88.849,131.743 89.134,132.347 89.581,132.752 C 90.028,133.157 90.571,133.359 91.211,133.359 C 91.983,133.359 92.631,133.072 93.156,132.496 C 93.681,131.921 93.944,131.157 93.944,130.206 C 93.944,129.302 93.692,128.588 93.188,128.065 C 92.684,127.543 92.017,127.281 91.187,127.281 C 90.671,127.281 90.208,127.4 89.8,127.637 C 89.392,127.874 89.07,128.183 88.835,128.562 L 87.351,128.343 L 88.601,121.718 L 95.007,121.718 L 95.007,123.234 L 89.856,123.234 L 89.17,126.695 C 89.944,126.159 90.756,125.89 91.607,125.89 C 92.732,125.89 93.682,126.28 94.456,127.06 C 95.23,127.839 95.617,128.841 95.617,130.066 C 95.617,131.233 95.277,132.241 94.597,133.091 C 93.77,134.134 92.642,134.655 91.212,134.655 C 90.039,134.655 89.082,134.327 88.341,133.671 C 87.599,133.016 87.176,132.146 87.07,131.063 z "
   id="path17" />
</g>
<g
   id="g19"
   transform="matrix(0.95,0,0,0.95,6.697064,4.3214)">
	<path
   style="fill:#ed1c24"
   d="M 77.474,89.237 L 75.896,89.237 L 75.896,79.156 C 75.514,79.519 75.013,79.883 74.394,80.246 C 73.775,80.609 73.218,80.882 72.725,81.063 L 72.725,79.534 C 73.611,79.118 74.386,78.614 75.049,78.022 C 75.712,77.43 76.182,76.856 76.458,76.299 L 77.475,76.299 L 77.475,89.237 L 77.474,89.237 z "
   id="path21" />
	<path
   style="fill:#ed1c24"
   d="M 81.531,82.882 C 81.531,81.36 81.688,80.132 82.002,79.2 C 82.315,78.269 82.781,77.554 83.399,77.052 C 84.018,76.551 84.796,76.3 85.734,76.3 C 86.425,76.3 87.034,76.439 87.558,76.718 C 88.082,76.995 88.513,77.398 88.85,77.921 C 89.187,78.446 89.453,79.084 89.646,79.837 C 89.839,80.59 89.936,81.606 89.936,82.882 C 89.936,84.394 89.781,85.615 89.47,86.547 C 89.159,87.478 88.695,88.195 88.076,88.7 C 87.457,89.204 86.677,89.456 85.733,89.456 C 84.49,89.456 83.514,89.014 82.805,88.128 C 81.956,87.051 81.531,85.302 81.531,82.882 z M 83.156,82.886 C 83.156,85.007 83.404,86.415 83.899,87.113 C 84.395,87.811 85.006,88.16 85.734,88.16 C 86.462,88.16 87.073,87.81 87.568,87.109 C 88.064,86.409 88.312,85.002 88.312,82.886 C 88.312,80.765 88.065,79.356 87.57,78.658 C 87.075,77.96 86.458,77.612 85.716,77.612 C 84.988,77.612 84.406,77.92 83.97,78.535 C 83.428,79.32 83.156,80.771 83.156,82.886 z "
   id="path23" />
</g>
<g
   id="g25"
   transform="matrix(0.95,0,0,0.95,6.697064,4.3214)">
	<path
   style="fill:#ed1c24"
   d="M 48.073,72.438 L 46.495,72.438 L 46.495,62.356 C 46.113,62.719 45.612,63.083 44.993,63.446 C 44.374,63.809 43.817,64.082 43.324,64.263 L 43.324,62.734 C 44.21,62.318 44.985,61.814 45.648,61.222 C 46.311,60.63 46.781,60.056 47.057,59.499 L 48.074,59.499 L 48.074,72.438 L 48.073,72.438 z "
   id="path27" />
</g>
<path
   d="M 19.873564,132.7025 L 18.258564,133.6525 L 18.258564,94.9875 L 19.873564,95.9375 L 19.873564,132.7025 z "
   id="polygon29" />
<path
   d="M 51.746064,151.08405 L 51.746064,152.9375 L 18.258564,133.6525 L 19.873564,132.7025 L 51.746064,151.08405 z "
   id="polygon31" />
<path
   d="M 83.571064,132.7025 L 84.379514,133.1775 L 84.379514,134.1275 L 51.746064,152.9375 L 51.746064,151.08405 L 83.571064,132.7025 z "
   id="polygon33" />
<path
   d="M 83.571064,95.9375 L 84.379514,95.4625 L 85.186064,95.9375 L 85.186064,132.7025 L 84.379514,133.1775 L 83.571064,132.7025 L 83.571064,95.9375 z "
   id="polygon35" />
<path
   d="M 51.746064,77.555 L 51.746064,75.7025 L 84.379514,94.55905 L 84.379514,95.4625 L 83.571064,95.9375 L 51.746064,77.555 z "
   id="polygon37" />
<path
   d="M 19.873564,95.9375 L 18.258564,94.9875 L 51.746064,75.7025 L 51.746064,77.555 L 19.873564,95.9375 z "
   id="polygon39" />
<g
   id="g41"
   transform="matrix(0.95,0,0,0.95,6.697064,4.3214)">
	<path
   style="fill:#ed1c24"
   d="M 120.104,162.903 L 118.526,163.028 C 118.384,162.407 118.184,161.956 117.925,161.674 C 117.495,161.223 116.966,160.997 116.336,160.997 C 115.829,160.997 115.382,161.138 114.995,161.419 C 114.5,161.783 114.108,162.314 113.82,163.012 C 113.531,163.71 113.382,164.703 113.37,165.992 C 113.752,165.412 114.219,164.981 114.771,164.7 C 115.323,164.419 115.902,164.278 116.507,164.278 C 117.565,164.278 118.465,164.667 119.208,165.442 C 119.951,166.219 120.323,167.222 120.323,168.453 C 120.323,169.262 120.148,170.013 119.799,170.708 C 119.449,171.401 118.969,171.934 118.358,172.303 C 117.747,172.672 117.054,172.857 116.278,172.857 C 114.956,172.857 113.878,172.373 113.044,171.403 C 112.21,170.433 111.793,168.836 111.793,166.609 C 111.793,164.119 112.255,162.308 113.179,161.177 C 113.985,160.193 115.07,159.7 116.435,159.7 C 117.453,159.7 118.287,159.984 118.937,160.552 C 119.585,161.119 119.975,161.903 120.104,162.903 z M 113.604,168.46 C 113.604,169.006 113.72,169.528 113.953,170.027 C 114.186,170.526 114.51,170.906 114.925,171.168 C 115.34,171.429 115.78,171.56 116.244,171.56 C 116.92,171.56 117.498,171.29 117.978,170.749 C 118.457,170.21 118.698,169.476 118.698,168.548 C 118.698,167.656 118.461,166.953 117.987,166.44 C 117.512,165.926 116.911,165.669 116.182,165.669 C 115.463,165.669 114.854,165.926 114.354,166.44 C 113.854,166.953 113.604,167.627 113.604,168.46 z "
   id="path43" />
</g>
<g
   id="g45"
   transform="matrix(0.95,0,0,0.95,6.697064,4.3214)">
	<path
   style="fill:#ed1c24"
   d="M 154.929,135.284 L 154.929,133.768 L 163.273,133.768 L 163.273,134.995 C 162.452,135.868 161.637,137.028 160.83,138.476 C 160.023,139.924 159.4,141.413 158.959,142.943 C 158.643,144.022 158.439,145.204 158.352,146.487 L 156.727,146.487 C 156.745,145.473 156.944,144.248 157.327,142.811 C 157.708,141.375 158.255,139.99 158.968,138.657 C 159.681,137.323 160.441,136.198 161.243,135.284 L 154.929,135.284 L 154.929,135.284 z "
   id="path47" />
</g>
<g
   id="g49"
   transform="matrix(0.95,0,0,0.95,6.697064,4.3214)">
	<path
   style="fill:#ed1c24"
   d="M 148.71,83.252 C 148.052,83.012 147.564,82.669 147.247,82.224 C 146.929,81.779 146.77,81.245 146.77,80.623 C 146.77,79.685 147.106,78.897 147.78,78.259 C 148.452,77.619 149.348,77.3 150.467,77.3 C 151.591,77.3 152.495,77.627 153.181,78.28 C 153.865,78.933 154.208,79.729 154.208,80.667 C 154.208,81.265 154.051,81.785 153.737,82.228 C 153.424,82.671 152.948,83.012 152.311,83.252 C 153.102,83.51 153.705,83.926 154.118,84.5 C 154.532,85.073 154.739,85.759 154.739,86.556 C 154.739,87.657 154.348,88.582 153.571,89.331 C 152.792,90.081 151.766,90.456 150.497,90.456 C 149.226,90.456 148.201,90.08 147.423,89.327 C 146.644,88.575 146.255,87.636 146.255,86.512 C 146.255,85.674 146.468,84.973 146.893,84.408 C 147.318,83.843 147.924,83.457 148.71,83.252 z M 147.88,86.523 C 147.88,86.974 147.985,87.411 148.196,87.833 C 148.406,88.255 148.723,88.581 149.147,88.812 C 149.569,89.043 150.024,89.159 150.509,89.159 C 151.268,89.159 151.893,88.916 152.381,88.43 C 152.869,87.945 153.113,87.326 153.113,86.576 C 153.113,85.815 152.861,85.185 152.357,84.687 C 151.855,84.189 151.22,83.94 150.456,83.94 C 149.709,83.94 149.092,84.186 148.606,84.678 C 148.12,85.17 147.88,85.786 147.88,86.523 z M 148.396,80.567 C 148.396,81.176 148.589,81.675 148.978,82.063 C 149.367,82.45 149.876,82.643 150.507,82.643 C 151.118,82.643 151.618,82.452 152.004,82.067 C 152.39,81.682 152.583,81.212 152.583,80.655 C 152.583,80.075 152.384,79.587 151.986,79.19 C 151.589,78.794 151.089,78.596 150.489,78.596 C 149.882,78.596 149.382,78.789 148.987,79.177 C 148.593,79.564 148.396,80.028 148.396,80.567 z "
   id="path51" />
</g>
<g
   id="g53"
   transform="matrix(0.95,0,0,0.95,6.697064,4.3214)">
	<path
   style="fill:#ed1c24"
   d="M 120.705,72.953 L 122.221,72.828 C 122.35,73.54 122.596,74.057 122.96,74.378 C 123.324,74.699 123.79,74.859 124.359,74.859 C 124.846,74.859 125.275,74.748 125.644,74.524 C 126.013,74.3 126.314,74.003 126.546,73.629 C 126.777,73.256 126.973,72.752 127.131,72.117 C 127.29,71.483 127.369,70.838 127.369,70.181 C 127.369,70.111 127.366,70.005 127.36,69.865 C 127.044,70.369 126.611,70.778 126.064,71.091 C 125.516,71.405 124.923,71.562 124.284,71.562 C 123.218,71.562 122.315,71.175 121.577,70.403 C 120.839,69.631 120.47,68.611 120.47,67.347 C 120.47,66.04 120.855,64.99 121.625,64.194 C 122.395,63.398 123.36,63 124.52,63 C 125.357,63 126.124,63.226 126.817,63.677 C 127.51,64.128 128.038,64.772 128.399,65.606 C 128.759,66.442 128.939,67.65 128.939,69.231 C 128.939,70.877 128.76,72.189 128.403,73.165 C 128.046,74.141 127.514,74.883 126.808,75.393 C 126.102,75.903 125.274,76.158 124.325,76.158 C 123.317,76.158 122.494,75.878 121.856,75.318 C 121.217,74.756 120.833,73.969 120.705,72.953 z M 127.173,67.273 C 127.173,66.365 126.933,65.644 126.453,65.112 C 125.974,64.579 125.391,64.312 124.708,64.312 C 124.001,64.312 123.389,64.599 122.871,65.173 C 122.353,65.746 122.095,66.49 122.095,67.403 C 122.095,68.223 122.341,68.889 122.832,69.402 C 123.323,69.915 123.934,70.171 124.665,70.171 C 125.396,70.171 125.997,69.915 126.467,69.402 C 126.937,68.889 127.173,68.181 127.173,67.273 z "
   id="path55" />
</g>
<path
   d="M 117.01106,151.08405 L 117.01106,152.9375 L 84.379514,134.1275 L 84.379514,133.1775 L 85.186064,132.7025 L 117.01106,151.08405 z "
   id="polygon57" />
<path
   d="M 148.88261,132.7025 L 150.49951,133.6525 L 117.01106,152.9375 L 117.01106,151.08405 L 148.88261,132.7025 z "
   id="polygon59" />
<path
   d="M 148.88261,95.9375 L 149.69201,95.4625 L 150.49951,95.9375 L 150.49951,133.6525 L 148.88261,132.7025 L 148.88261,95.9375 z "
   id="polygon61" />
<path
   d="M 117.01106,77.555 L 117.01106,76.605 L 117.81856,76.13 L 149.69201,94.55905 L 149.69201,95.4625 L 148.88261,95.9375 L 117.01106,77.555 z "
   id="polygon63" />
<path
   d="M 85.186064,95.9375 L 84.379514,95.4625 L 84.379514,94.55905 L 116.20451,76.13 L 117.01106,76.605 L 117.01106,77.555 L 85.186064,95.9375 z "
   id="polygon65" />
<g
   id="g67"
   transform="matrix(0.95,0,0,0.95,6.697064,4.3214)">
	<path
   style="fill:#ed1c24"
   d="M 182.224,96.237 L 180.646,96.237 L 180.646,86.156 C 180.263,86.519 179.763,86.883 179.143,87.246 C 178.523,87.609 177.966,87.882 177.474,88.063 L 177.474,86.534 C 178.36,86.118 179.134,85.614 179.798,85.022 C 180.46,84.43 180.931,83.856 181.206,83.299 L 182.224,83.299 L 182.224,96.237 L 182.224,96.237 z "
   id="path69" />
	<path
   style="fill:#ed1c24"
   d="M 191.359,96.237 L 191.359,93.159 L 185.75,93.159 L 185.75,91.706 L 191.641,83.347 L 192.938,83.347 L 192.938,91.706 L 194.672,91.706 L 194.672,93.159 L 192.938,93.159 L 192.938,96.237 L 191.359,96.237 z M 191.359,91.706 L 191.359,85.873 L 187.306,91.706 L 191.359,91.706 z "
   id="path71" />
</g>
<g
   id="g73"
   transform="matrix(0.95,0,0,0.95,6.697064,4.3214)">
	<path
   style="fill:#ed1c24"
   d="M 181.874,29.788 L 180.296,29.788 L 180.296,19.707 C 179.914,20.07 179.413,20.434 178.793,20.797 C 178.174,21.16 177.617,21.433 177.124,21.614 L 177.124,20.085 C 178.01,19.669 178.785,19.165 179.448,18.573 C 180.111,17.981 180.581,17.407 180.857,16.85 L 181.874,16.85 L 181.874,29.788 z "
   id="path75" />
	<path
   style="fill:#ed1c24"
   d="M 185.931,26.382 L 187.509,26.163 C 187.692,27.059 188.001,27.706 188.437,28.101 C 188.874,28.497 189.41,28.695 190.044,28.695 C 190.797,28.695 191.431,28.437 191.942,27.922 C 192.456,27.407 192.712,26.769 192.712,26.008 C 192.712,25.281 192.474,24.683 191.996,24.211 C 191.519,23.74 190.913,23.504 190.177,23.504 C 189.876,23.504 189.502,23.563 189.055,23.68 L 189.232,22.289 C 189.337,22.301 189.423,22.307 189.488,22.307 C 190.162,22.307 190.769,22.131 191.309,21.781 C 191.849,21.431 192.119,20.889 192.119,20.158 C 192.119,19.579 191.922,19.099 191.528,18.72 C 191.134,18.341 190.626,18.15 190.003,18.15 C 189.386,18.15 188.871,18.344 188.459,18.732 C 188.048,19.121 187.783,19.703 187.666,20.478 L 186.088,20.197 C 186.281,19.135 186.722,18.312 187.408,17.728 C 188.094,17.145 188.947,16.853 189.969,16.853 C 190.673,16.853 191.322,17.003 191.914,17.305 C 192.506,17.606 192.959,18.017 193.273,18.537 C 193.586,19.058 193.744,19.61 193.744,20.195 C 193.744,20.751 193.595,21.257 193.296,21.713 C 192.997,22.169 192.555,22.531 191.969,22.801 C 192.731,22.977 193.323,23.341 193.748,23.896 C 194.172,24.449 194.385,25.142 194.385,25.974 C 194.385,27.099 193.974,28.053 193.153,28.835 C 192.331,29.618 191.292,30.009 190.036,30.009 C 188.903,30.009 187.962,29.673 187.214,28.999 C 186.463,28.325 186.037,27.452 185.931,26.382 z "
   id="path77" />
</g>
<g
   id="g79"
   transform="matrix(0.95,0,0,0.95,6.697064,4.3214)">
	<path
   style="fill:#ed1c24"
   d="M 147.224,12.938 L 145.646,12.938 L 145.646,2.856 C 145.263,3.219 144.763,3.583 144.143,3.946 C 143.523,4.309 142.966,4.582 142.474,4.763 L 142.474,3.234 C 143.36,2.818 144.134,2.314 144.798,1.722 C 145.46,1.13 145.931,0.556 146.206,-0.001 L 147.224,-0.001 L 147.224,12.938 L 147.224,12.938 z "
   id="path81" />
	<path
   style="fill:#ed1c24"
   d="M 159.593,11.422 L 159.593,12.938 L 151.062,12.938 C 151.05,12.557 151.113,12.191 151.248,11.838 C 151.467,11.258 151.816,10.688 152.297,10.126 C 152.778,9.564 153.467,8.915 154.367,8.178 C 155.762,7.026 156.709,6.115 157.207,5.445 C 157.705,4.775 157.953,4.141 157.953,3.542 C 157.953,2.916 157.728,2.388 157.278,1.958 C 156.828,1.528 156.242,1.313 155.517,1.313 C 154.751,1.313 154.14,1.542 153.681,2.001 C 153.222,2.459 152.99,3.095 152.984,3.906 L 151.359,3.734 C 151.47,2.519 151.89,1.592 152.619,0.955 C 153.347,0.318 154.326,0 155.552,0 C 156.791,0 157.773,0.343 158.494,1.029 C 159.216,1.715 159.577,2.564 159.577,3.579 C 159.577,4.096 159.472,4.602 159.261,5.1 C 159.049,5.598 158.698,6.122 158.208,6.674 C 157.716,7.225 156.903,7.982 155.767,8.943 C 154.817,9.74 154.206,10.281 153.935,10.564 C 153.664,10.849 153.439,11.134 153.261,11.421 L 159.593,11.421 L 159.593,11.422 z "
   id="path83" />
</g>
<g
   id="g85"
   transform="matrix(0.95,0,0,0.95,6.697064,4.3214)">
	<path
   style="fill:#ed1c24"
   d="M 101.624,37.288 L 100.046,37.288 L 100.046,27.207 C 99.664,27.57 99.163,27.934 98.544,28.297 C 97.925,28.66 97.368,28.933 96.875,29.114 L 96.875,27.585 C 97.761,27.169 98.536,26.665 99.199,26.073 C 99.862,25.481 100.332,24.907 100.608,24.35 L 101.625,24.35 L 101.625,37.288 L 101.624,37.288 z "
   id="path87" />
	<path
   style="fill:#ed1c24"
   d="M 111.634,37.288 L 110.056,37.288 L 110.056,27.207 C 109.674,27.57 109.173,27.934 108.554,28.297 C 107.935,28.66 107.378,28.933 106.885,29.114 L 106.885,27.585 C 107.771,27.169 108.546,26.665 109.209,26.073 C 109.872,25.481 110.342,24.907 110.618,24.35 L 111.635,24.35 L 111.635,37.288 L 111.634,37.288 z "
   id="path89" />
</g>
<path
   d="M 181.51701,76.13 L 182.32451,76.605 L 182.41856,77.5075 L 150.49951,95.9375 L 149.69201,95.4625 L 149.69201,94.55905 L 181.51701,76.13 z "
   id="polygon91" />
<path
   d="M 181.51701,39.365 L 182.32451,38.9375 L 183.13106,39.5075 L 183.13106,76.035 L 182.32451,76.605 L 181.51701,76.13 L 181.51701,39.365 z "
   id="polygon93" />
<path
   d="M 149.69201,20.9825 L 149.69201,19.13 L 182.41856,38.035 L 182.32451,38.9375 L 181.51701,39.365 L 149.69201,20.9825 z "
   id="polygon95" />
<path
   d="M 117.81856,39.365 L 116.20451,38.4625 L 149.69201,19.13 L 149.69201,20.9825 L 117.81856,39.365 z "
   id="polygon97" />
<path
   d="M 117.81856,76.13 L 117.01106,76.605 L 116.20451,76.13 L 116.20451,38.4625 L 117.81856,39.365 L 117.81856,76.13 z "
   id="polygon99" />
<g
   id="g101"
   transform="matrix(0.95,0,0,0.95,6.697064,4.3214)">
	<path
   style="fill:#ed1c24"
   d="M 221.124,106.237 L 219.546,106.237 L 219.546,96.156 C 219.164,96.519 218.663,96.883 218.043,97.246 C 217.424,97.609 216.867,97.882 216.374,98.063 L 216.374,96.534 C 217.26,96.118 218.035,95.614 218.698,95.022 C 219.361,94.43 219.831,93.856 220.107,93.299 L 221.124,93.299 L 221.124,106.237 z "
   id="path103" />
	<path
   style="fill:#ed1c24"
   d="M 225.181,102.862 L 226.837,102.737 C 226.96,103.542 227.245,104.146 227.692,104.551 C 228.139,104.956 228.682,105.158 229.323,105.158 C 230.094,105.158 230.743,104.871 231.268,104.295 C 231.792,103.72 232.055,102.956 232.055,102.005 C 232.055,101.101 231.803,100.387 231.299,99.864 C 230.795,99.341 230.127,99.08 229.297,99.08 C 228.781,99.08 228.318,99.199 227.91,99.436 C 227.502,99.673 227.18,99.982 226.945,100.361 L 225.461,100.142 L 226.711,93.517 L 233.117,93.517 L 233.117,95.033 L 227.967,95.033 L 227.28,98.494 C 228.054,97.958 228.866,97.689 229.717,97.689 C 230.842,97.689 231.792,98.079 232.566,98.859 C 233.34,99.638 233.727,100.64 233.727,101.865 C 233.727,103.032 233.387,104.04 232.707,104.89 C 231.88,105.933 230.752,106.454 229.321,106.454 C 228.148,106.454 227.191,106.126 226.45,105.47 C 225.709,104.814 225.287,103.946 225.181,102.862 z "
   id="path105" />
</g>
<g
   id="g107"
   transform="matrix(0.95,0,0,0.95,6.697064,4.3214)">
	<path
   style="fill:#ed1c24"
   d="M 255.374,62.638 L 253.796,62.638 L 253.796,52.557 C 253.414,52.92 252.913,53.284 252.293,53.647 C 251.674,54.01 251.117,54.283 250.624,54.464 L 250.624,52.935 C 251.51,52.519 252.285,52.015 252.948,51.423 C 253.611,50.831 254.081,50.257 254.357,49.7 L 255.374,49.7 L 255.374,62.638 z "
   id="path109" />
	<path
   style="fill:#ed1c24"
   d="M 267.666,52.903 L 266.088,53.028 C 265.946,52.407 265.746,51.956 265.487,51.674 C 265.057,51.223 264.528,50.997 263.898,50.997 C 263.391,50.997 262.945,51.138 262.556,51.419 C 262.062,51.783 261.669,52.314 261.381,53.012 C 261.093,53.71 260.943,54.703 260.931,55.992 C 261.313,55.412 261.78,54.981 262.332,54.7 C 262.884,54.419 263.463,54.278 264.067,54.278 C 265.126,54.278 266.026,54.667 266.768,55.442 C 267.512,56.219 267.883,57.222 267.883,58.453 C 267.883,59.262 267.708,60.013 267.359,60.708 C 267.009,61.401 266.529,61.934 265.919,62.303 C 265.308,62.672 264.614,62.857 263.839,62.857 C 262.517,62.857 261.439,62.373 260.605,61.403 C 259.77,60.433 259.353,58.836 259.353,56.609 C 259.353,54.119 259.815,52.308 260.739,51.177 C 261.545,50.193 262.63,49.7 263.995,49.7 C 265.013,49.7 265.847,49.984 266.497,50.552 C 267.146,51.119 267.537,51.903 267.666,52.903 z M 261.166,58.46 C 261.166,59.006 261.282,59.528 261.515,60.027 C 261.748,60.526 262.072,60.906 262.487,61.168 C 262.902,61.429 263.342,61.56 263.806,61.56 C 264.482,61.56 265.06,61.29 265.54,60.749 C 266.019,60.21 266.26,59.476 266.26,58.548 C 266.26,57.656 266.023,56.953 265.549,56.44 C 265.074,55.926 264.473,55.669 263.744,55.669 C 263.025,55.669 262.416,55.926 261.916,56.44 C 261.416,56.954 261.166,57.627 261.166,58.46 z "
   id="path111" />
</g>
<g
   id="g113"
   transform="matrix(0.95,0,0,0.95,6.697064,4.3214)">
	<path
   style="fill:#ed1c24"
   d="M 224.224,19.788 L 222.646,19.788 L 222.646,9.707 C 222.263,10.07 221.763,10.434 221.143,10.797 C 220.523,11.16 219.966,11.433 219.474,11.614 L 219.474,10.085 C 220.36,9.669 221.134,9.165 221.798,8.573 C 222.46,7.981 222.931,7.407 223.206,6.85 L 224.224,6.85 L 224.224,19.788 L 224.224,19.788 z "
   id="path115" />
	<path
   style="fill:#ed1c24"
   d="M 228.39,8.585 L 228.39,7.069 L 236.734,7.069 L 236.734,8.296 C 235.913,9.169 235.098,10.329 234.291,11.777 C 233.484,13.225 232.861,14.714 232.42,16.244 C 232.104,17.323 231.9,18.505 231.813,19.788 L 230.188,19.788 C 230.206,18.774 230.405,17.549 230.788,16.112 C 231.169,14.676 231.716,13.291 232.429,11.958 C 233.142,10.624 233.902,9.499 234.704,8.585 L 228.39,8.585 z "
   id="path117" />
</g>
<path
   d="M 217.90106,87.34 L 218.51856,89.24 L 182.41856,77.5075 L 182.32451,76.605 L 183.13106,76.035 L 217.90106,87.34 z "
   id="polygon119" />
<path
   d="M 239.37011,57.7475 L 241.36701,57.7475 L 218.51856,89.24 L 217.90106,87.34 L 239.37011,57.7475 z "
   id="polygon121" />
<path
   d="M 217.90106,28.2025 L 218.51856,26.3025 L 241.36701,57.7475 L 239.37011,57.7475 L 217.90106,28.2025 z "
   id="polygon123" />
<path
   d="M 183.13106,39.5075 L 182.32451,38.9375 L 182.41856,38.035 L 218.51856,26.3025 L 217.90106,28.2025 L 183.13106,39.5075 z "
   id="polygon125" />
<g
   id="g127"
   transform="matrix(0.95,0,0,0.95,6.697064,4.3214)">
	<path
   d="M 38.331,124.788 L 44.926,107.6 L 47.378,107.6 L 54.413,124.788 L 51.823,124.788 L 49.835,119.585 L 42.622,119.585 L 40.745,124.788 L 38.331,124.788 z M 43.286,117.726 L 49.109,117.726 L 47.323,112.976 C 46.774,111.532 46.365,110.344 46.096,109.413 C 45.879,110.514 45.57,111.606 45.17,112.691 L 43.286,117.726 z "
   id="path129" />
	<path
   d="M 111.151,124.788 L 111.151,107.6 L 117.596,107.6 C 118.909,107.6 119.961,107.774 120.754,108.121 C 121.547,108.47 122.168,109.006 122.617,109.728 C 123.066,110.452 123.291,111.208 123.291,111.998 C 123.291,112.733 123.092,113.426 122.694,114.074 C 122.296,114.723 121.695,115.248 120.892,115.646 C 121.929,115.951 122.725,116.47 123.283,117.205 C 123.841,117.94 124.119,118.807 124.119,119.807 C 124.119,120.612 123.949,121.36 123.609,122.051 C 123.269,122.742 122.849,123.276 122.35,123.651 C 121.85,124.026 121.224,124.309 120.47,124.501 C 119.716,124.693 118.793,124.788 117.699,124.788 L 111.151,124.788 L 111.151,124.788 z M 113.433,114.819 L 117.146,114.819 C 118.153,114.819 118.875,114.753 119.313,114.62 C 119.891,114.448 120.326,114.163 120.619,113.766 C 120.912,113.368 121.058,112.869 121.058,112.267 C 121.058,111.697 120.921,111.196 120.648,110.762 C 120.375,110.329 119.984,110.033 119.477,109.872 C 118.969,109.712 118.099,109.632 116.865,109.632 L 113.433,109.632 L 113.433,114.819 L 113.433,114.819 z M 113.433,122.757 L 117.71,122.757 C 118.444,122.757 118.96,122.73 119.257,122.675 C 119.78,122.581 120.218,122.425 120.57,122.206 C 120.922,121.987 121.211,121.669 121.437,121.251 C 121.663,120.833 121.777,120.351 121.777,119.804 C 121.777,119.163 121.612,118.607 121.283,118.134 C 120.954,117.661 120.498,117.329 119.917,117.138 C 119.335,116.947 118.498,116.851 117.404,116.851 L 113.433,116.851 L 113.433,122.757 z "
   id="path131" />
</g>
<g
   id="g133"
   transform="matrix(0.95,0,0,0.95,6.697064,4.3214)">
	<path
   d="M 156.664,59.11 L 158.945,59.684 C 158.469,61.554 157.613,62.98 156.377,63.961 C 155.139,64.943 153.627,65.434 151.84,65.434 C 149.99,65.434 148.486,65.057 147.326,64.302 C 146.168,63.547 145.285,62.455 144.681,61.024 C 144.076,59.593 143.773,58.057 143.773,56.415 C 143.773,54.624 144.115,53.062 144.797,51.729 C 145.48,50.395 146.45,49.383 147.712,48.691 C 148.972,47.999 150.358,47.653 151.872,47.653 C 153.589,47.653 155.032,48.091 156.202,48.967 C 157.372,49.844 158.187,51.076 158.647,52.664 L 156.413,53.191 C 156.016,51.941 155.438,51.031 154.683,50.461 C 153.925,49.891 152.974,49.606 151.828,49.606 C 150.51,49.606 149.408,49.922 148.521,50.555 C 147.636,51.188 147.014,52.037 146.656,53.104 C 146.297,54.17 146.117,55.27 146.117,56.403 C 146.117,57.864 146.33,59.139 146.755,60.229 C 147.18,61.319 147.84,62.133 148.736,62.672 C 149.632,63.211 150.603,63.481 151.648,63.481 C 152.919,63.481 153.994,63.114 154.875,62.379 C 155.756,61.644 156.352,60.556 156.664,59.11 z "
   id="path135" />
	<path
   d="M 208.538,65.138 L 208.538,47.95 L 214.449,47.95 C 215.783,47.95 216.803,48.032 217.505,48.196 C 218.488,48.423 219.326,48.833 220.022,49.427 C 220.927,50.193 221.604,51.172 222.053,52.364 C 222.502,53.556 222.726,54.919 222.726,56.45 C 222.726,57.755 222.574,58.912 222.27,59.921 C 221.965,60.929 221.575,61.763 221.098,62.424 C 220.623,63.084 220.102,63.605 219.535,63.984 C 218.97,64.363 218.287,64.65 217.486,64.845 C 216.687,65.04 215.767,65.138 214.73,65.138 L 208.538,65.138 L 208.538,65.138 z M 210.819,63.106 L 214.478,63.106 C 215.607,63.106 216.494,63.001 217.137,62.79 C 217.78,62.579 218.292,62.282 218.675,61.899 C 219.212,61.36 219.63,60.635 219.931,59.725 C 220.232,58.815 220.381,57.711 220.381,56.414 C 220.381,54.617 220.087,53.236 219.499,52.271 C 218.909,51.306 218.194,50.66 217.353,50.332 C 216.746,50.098 215.767,49.98 214.419,49.98 L 210.818,49.98 L 210.818,63.106 L 210.819,63.106 z "
   id="path137" />
</g>
</svg>