<svg xml:space="preserve" viewBox="0 0 455.1 303.4"><path d="m127.6 275.6 49.8-28.8 50 28.8 51-29.5v-57.6l48.8-28.2 55.1 18 34.9-48-34-46.8L398.8 51l-11.5-3.7-6.5 35.4-52.4 17 4.7-55.9h-12l4.6 55.5-48.5-28-51 29.5v57.6l-47.4 27.3 4.6-55.5h-12l4.7 55.5-48.5-28-51.1 29.5v51.6l-34 19.6 1.3 2 32.7-18.9v4.6l4 2.3-32.8 19 1.2 2 34-19.6zM381.4 85.1l32.9 45.2-32.9 45.1-53.1-17.2v-55.9zM277.2 74l48.7 28v56.3l-47.2 27.2 4.5-34.6h-12l4.5 34.6-47.2-27.3V102zm-49.9 86.3 48.7 28.1v56.3l-48.7 28-48.7-28v-56.3zM79 188.5l48.7-28 48.6 28v56.3l-48.6 28-48.7-28z"/><path d="m127 261.3 39.5-22.8 1.2 2-39.5 22.9zm-92 .2a14 14 0 0 0-7.1-2q-6 0-9.9 4c-3.9 4-3.8 6.5-3.8 11.2q0 3.9 1.6 7.2c1.6 3.3 2.7 4 4.8 5.3s4.6 2 7.3 2q3.7 0 7-1.8c3.2-1.8 3.7-2.9 4.9-5.2s1.8-4.9 1.8-7.8q0-4.3-1.7-7.7c-1.7-3.4-2.7-4-4.9-5.2m-.1 21.4q-2.7 3-7 3t-7-3c-2.8-3-2.8-4.6-2.8-8q0-6.6 2.9-9.3c2.9-2.7 4.2-2.8 7-2.8q2.7 0 5 1.5t3.5 4c1.2 2.5 1.2 3.8 1.2 6.1q0 5.5-2.8 8.5m234.9-151.7h14.8v13.5h3.8V116h-3.8v11.7h-14.8V116H266v28.6h3.8zm-49.9 86.4h14.9v13.5h3.8v-28.6h-3.8v11.7h-15v-11.7h-3.7V231h3.8zm13-24h-11.1l-.5 2.4h12zm-2.2-12.3H224l-.4 2.4h7.6zm-2.2-12.3h-2.4l-.4 2.5h3.3zm164-127.1q3.2 2 7.2 1.9 3.8 0 7-1.8c3.2-1.8 3.8-2.9 5-5.2s1.7-4.9 1.7-7.8q0-4.2-1.6-7.7-1.8-3.4-4.9-5.2a11 11 0 0 0-7.1-2q-6 0-10 4.1c-4 4.1-3.8 6.4-3.8 11.2q0 3.8 1.7 7.1c1.7 3.3 2.7 4 4.8 5.4m.4-21.7q2.9-2.7 6.9-2.8 2.9 0 5 1.5a9 9 0 0 1 3.5 4q1.2 2.7 1.2 6.1 0 5.5-2.7 8.6t-7 3-7-3q-3-3-2.9-8.2 0-6.5 3-9.2m29.3 9.6h15v13.5h3.7V14.7h-3.8v11.7h-14.9V14.7h-3.8v28.6h3.8zM338.3 231v-28.5h-3.8v11.7h-14.9v-11.7H316V231h3.7v-13.5h15V231zM321 196h12l-.3-2.4h-11.2zm2.3-12.3h7.6l-.4-2.4h-6.8zm2.6-14.7-.4 2.5h3.2l-.4-2.4z"/></svg>