<svg viewBox="534 561 638 281"><path fill="none" d="M534 561h638v281H534z"/><path fill="none" d="M534 561h638v281H534z"/><path fill="none" stroke="#111" stroke-linecap="round" stroke-linejoin="round" stroke-miterlimit="10" stroke-width="1.5" d="M549.3 609h40m-40-4.9h40m-40 163.2h40m-40-4.8h40m0-153.5h40m-40 158.3h40m0-158.3h40m-40-4.9h40m-40 163.2h40m-40-4.8h40" paint-order="fill stroke markers"/><g font-family="Arial"><text x="749.3" y="615" dominant-baseline="alphabetic" font-size="17pt" text-anchor="middle" text-decoration="normal">B</text><text x="756.9" y="615" dominant-baseline="alphabetic" font-size="17pt" text-decoration="normal">r</text><text x="764.4" y="606.5" dominant-baseline="hanging" font-size="13pt" text-decoration="normal">2</text></g><g font-family="Arial"><text x="749.3" y="773.3" dominant-baseline="alphabetic" font-size="17pt" text-anchor="middle" text-decoration="normal">B</text><text x="756.9" y="773.3" dominant-baseline="alphabetic" font-size="17pt" text-decoration="normal">r</text><text x="764.4" y="764.8" dominant-baseline="hanging" font-size="13pt" text-decoration="normal">2</text></g><path fill="none" stroke="#000" stroke-miterlimit="10" stroke-width="1.3" d="M812.4 609H955" paint-order="fill stroke markers"/><path stroke="#000" stroke-miterlimit="10" stroke-width="1.3" d="m955 609-1.8-3 9.2 3-9.2 3Z" paint-order="stroke fill markers"/><path fill="none" stroke="#000" stroke-miterlimit="10" stroke-width="1.3" d="M812.4 767.3H955" paint-order="fill stroke markers"/><path stroke="#000" stroke-miterlimit="10" stroke-width="1.3" d="m955 767.3-1.8-3 9.2 3-9.2 3Z" paint-order="stroke fill markers"/><path fill="none" stroke="#111" stroke-linecap="round" stroke-linejoin="round" stroke-miterlimit="10" stroke-width="1.5" d="M1006.4 584.3h40m0 0h40m-40-4.8h40m0 4.8h40" paint-order="fill stroke markers"/><g dominant-baseline="alphabetic" font-family="Arial" font-size="17pt"><text x="1006.4" y="632.8" text-anchor="middle" text-decoration="normal">B</text><text x="1014" y="632.8" text-decoration="normal">r</text></g><path fill="none" stroke="#111" stroke-linecap="round" stroke-linejoin="round" stroke-miterlimit="10" stroke-width="1.5" d="M1006.4 584.3v28.6" paint-order="fill stroke markers"/><g dominant-baseline="alphabetic" font-family="Arial" font-size="17pt"><text x="1126.4" y="632.8" text-anchor="middle" text-decoration="normal">B</text><text x="1134" y="632.8" text-decoration="normal">r</text></g><path fill="none" stroke="#111" stroke-linecap="round" stroke-linejoin="round" stroke-miterlimit="10" stroke-width="1.5" d="M1126.4 584.3v28.6" paint-order="fill stroke markers"/><g dominant-baseline="alphabetic" font-family="'Times New Roman'" font-size="22.9" font-weight="400"><text x="844.4" y="598.8" text-decoration="normal">1,4</text><text x="873" y="598.8" text-decoration="normal">-</text><text x="880.6" y="598.8" text-decoration="normal">加成</text></g><g dominant-baseline="alphabetic" font-family="'Times New Roman'" font-size="22.9" font-weight="400"><text x="844.4" y="757.2" text-decoration="normal">1,2</text><text x="873" y="757.2" text-decoration="normal">-</text><text x="880.6" y="757.2" text-decoration="normal">加成</text></g><path fill="none" stroke="#111" stroke-linecap="round" stroke-linejoin="round" stroke-miterlimit="10" stroke-width="1.5" d="M1006.4 742.6h40m0 0h40m0 0h40m-40-4.8h40" paint-order="fill stroke markers"/><g dominant-baseline="alphabetic" font-family="Arial" font-size="17pt"><text x="1046.4" y="791.1" text-anchor="middle" text-decoration="normal">B</text><text x="1054" y="791.1" text-decoration="normal">r</text></g><path fill="none" stroke="#111" stroke-linecap="round" stroke-linejoin="round" stroke-miterlimit="10" stroke-width="1.5" d="M1046.4 742.6v28.7" paint-order="fill stroke markers"/><g dominant-baseline="alphabetic" font-family="Arial" font-size="17pt"><text x="1006.4" y="791.1" text-anchor="middle" text-decoration="normal">B</text><text x="1014" y="791.1" text-decoration="normal">r</text></g><path fill="none" stroke="#111" stroke-linecap="round" stroke-linejoin="round" stroke-miterlimit="10" stroke-width="1.5" d="M1006.4 742.6v28.7" paint-order="fill stroke markers"/><text x="695.5" y="610.4" dominant-baseline="alphabetic" font-family="Arial" font-size="26.7" font-weight="400" text-decoration="normal">+</text><text x="695.5" y="768.8" dominant-baseline="alphabetic" font-family="Arial" font-size="26.7" font-weight="400" text-decoration="normal">+</text><g dominant-baseline="alphabetic" font-family="'Times New Roman'" font-size="22.9" font-weight="400"><text x="553.4" y="637.1" text-decoration="normal">1,3</text><text x="582" y="637.1" text-decoration="normal">-</text><text x="612.5" y="637.1" text-decoration="normal">二</text><text x="635.3" y="637.1" text-decoration="normal">烯</text><text x="589.6" y="637.1" fill="#111" text-decoration="normal">丁</text></g><g dominant-baseline="alphabetic" font-family="'Times New Roman'" font-size="22.9" font-weight="400"><text x="554.4" y="795.7" text-decoration="normal">1,3</text><text x="583" y="795.7" text-decoration="normal">-</text><text x="613.5" y="795.7" text-decoration="normal">二</text><text x="636.3" y="795.7" text-decoration="normal">烯</text><text x="590.6" y="795.7" fill="#111" text-decoration="normal">丁</text></g><g dominant-baseline="alphabetic" font-family="'Times New Roman'" font-size="22.9" font-weight="400"><text x="983.4" y="662.9" text-decoration="normal">1,4</text><text x="1012" y="662.9" text-decoration="normal">-</text><text x="1019.6" y="662.9" text-decoration="normal">二</text><text x="1042.5" y="662.9" text-decoration="normal">溴</text><text x="1065.3" y="662.9" text-decoration="normal">-</text><text x="1072.9" y="662.9" text-decoration="normal">2</text><text x="1084.4" y="662.9" text-decoration="normal">-</text><text x="1114.8" y="662.9" text-decoration="normal">烯</text><text x="1092" y="662.9" fill="#111" text-decoration="normal">丁</text></g><g dominant-baseline="alphabetic" font-family="'Times New Roman'" font-size="22.9" font-weight="400"><text x="976.3" y="821.4" text-decoration="normal">3,4</text><text x="1004.9" y="821.4" text-decoration="normal">-</text><text x="1012.5" y="821.4" text-decoration="normal">二</text><text x="1035.3" y="821.4" text-decoration="normal">溴</text><text x="1058.2" y="821.4" text-decoration="normal">-</text><text x="1065.8" y="821.4" text-decoration="normal">1</text><text x="1077.2" y="821.4" text-decoration="normal">-</text><text x="1107.7" y="821.4" text-decoration="normal">烯</text><text x="1084.8" y="821.4" fill="#111" text-decoration="normal">丁</text></g></svg>