<svg xmlns:xlink="http://www.w3.org/1999/xlink" viewBox="0 0 312.5 320.1"><defs><path id="b" d="M.9.7H.5zV1 .8H.1h.3V.7H0V.5h.4V.4v.2zM.8.6H.6zM.4.6H.2zM.8.5H.6zM.4.5H.2zm.5 0V.3H0h.3-.1V0v.2h.2V0v.2h.2V0v.2h.2V0H.7h.1v.3H.4 1z"/><path id="c" d="M.9.8H0h.3V.6H.2V.4h.6v.2H.6v.2zM.4.5h.2zm0 .1v.2h.2V.6zM.6.5h.2zM.2.5h.2zM1 .4V.3H.4v.1-.1H0h.2V.2L.5 0 .1-.1q.3 0 .5.2l.3-.2V0L.6.1l.1.2zM.4.4h.3L.6 0H.3z"/><path id="d" d="M.4.7H.2V.4h.2zM.2.7h.2zm0 .2h.1m.2 0H0V.6zM.9.5V.2zH.7v.2-.2H.4h.1-.1V0l.1.3V.2h.1v.3-.2L1 0v.2M.5.4H.3zH0h.3-.1L0 .2h.3-.2.1zm0-.2L.6 0zm.1 0L1 0zM.3.1V0h.1zM.1.1 0 0z"/><path id="e" d="M.1.8.2.7h.1zM1 .2V0H.4v.4h.3v.3H.4h.4V.5H.5V.1L.6 0H1zM.3.2.2 0v.4H0V0h.1z"/><path id="f" d="M.4.7H.2zH.1v.1V0h.2v.7M.2.4v.2h.2V.4zm0-.3v.3h.2V0zm.6.6H.6l.1.1L.4.4l.1.2zV0H.5h.2zH1M.5.6V.3h.1z"/><path id="g" d="M.9.7H.4h.3v.1H.2h.3V.7H0h.4V.4H.3V.3h.2V.2H.2h.3V0H0h1-.6v.1h.3v.1H.4h.2v.3h.1-.3v.1zM.5.4h.2zM.3.4h.2zM.5.2h.2v.1zM.3.3h.2z"/><path id="h" d="M.8.3H.5v-.4.1h.3zM.5 0v.2h.3V0zm.4.7H.7v.1-.2H.5h.2V.4H.5 1 .6v.2zM.4.4H.1l.3.3H0l.2.1v.1L0 .6V.4h.2V.3H0zm0-.2H0V0h.3z"/><path id="i" d="M.4.7H.2v.1-.2H0h.1Q.2.4 0 .2l.2.3v-.6.5h.2-.1zm.5 0H.5v.1l.1.1L.4.4l.1.2zV0H.5h.2zM.6.5.7.2H.5zL.5.3V.2h.2z"/><path id="j" d="M.9.8H0h.4V.5H.2V0v.5h.3Q.5.3.2.1l.3.3.2-.2Q.7.4.5.5v.1h.3V.1H.6l.2-.2v.6H1v.1H.4v.1z"/><path id="k" d="M.4.7H0h.1V.6H0V0h.3v.6M.1.3l.1.4V.4h.2V.1zm.1.4v.2zm.1 0V.4zM.1.6V.3zm0-.5h.2zm.7.4H.6V.1h.1v.3m0-.2v.2zm0 .5V.5h.2m.1.2H.5V0v.8zV0H.7 1z"/><path id="l" d="M0 0v.7h.3L.4.2l.1.5h.3V0H.6v.6L.5 0H.3v.6V0z"/><path id="m" d="M.4.2V0H0v.5h.4zH.2V0zm0 .2V.3z"/><path id="n" d="m0 .4.1.1.1.1h.4L.7.3V0H0zm0 0L.3.2h.3v.3L.4.6H.2z"/><path id="o" d="M.8.8H.2V.1v.1h.3V0v.3h.3zM.5.6v.2h.3V.6zM.2.6v.2h.3V.6zM.5.3v.2h.3V.3zM.2.3v.2h.3V.3z"/><path id="p" d="M.9.8H0V.6h.2v.1h.3V.6v.1H1m0-.6L.7.5H1 .6v.1-.1H0h.3Q.4.3 0 0l.5.5V.2H.3h.2v-.3.2h.2v.1H.4v.3z"/><path id="q" d="M.9.3.8 0H.5L.2.1l.5.6H0h.5L.1.1.5 0H1z"/><path id="r" d="M1 0H.5v.4V0L.3.1v.7H0v-.9.1zM.2.2l.1.4V.4h.2V.1zm.1.4v.2zm.1 0V.4zM.1.6V.3zm0-.6v.2h.3V0zm.8.8L.8.6zM.6.8V.6zM.8.6v.3zH.5h.1V.2l.1.3V0v.3L1 .2.8.4h.1z"/><path id="s" d="M.4.5H.2V.1h.2v.3M.2.3v.2h.2V.3zM.9.2V0L.7.2l.1.2v.1L.7.2v.4h.2-.3v.2-.2H0h.5V.2L.4-.1l.3.2.2-.2v.2M.7.9V.7h.1zM.5.1H0z"/><path id="t" d="M.8.7H.1zm0-.6H.1 1"/><path id="u" d="M.9.3.8 0H.5L.2.1l.5.6H0h.5L.1.1.5 0H1z"/><path id="v" d="M1 .1Q.7.1.7.3H1L.9.5H.7v.3H1 .6v.1-.1H.3v.1-.1H.1h.2V.4H.1h.2Q.3 0 0 0l.4.2h.2zM.4.5h.4zm0 0v.2h.4V.6zm0-.2h.4zM.8 0H.5h.2v.1H.4v.1-.1H.3h.2V0H0z"/><path id="w" d="M1 0H.5v.4V0L.3.1v.7H0v-.9.1zM.2.2l.1.4V.4h.2V.1zm.1.4v.2zm.1 0V.4zM.1.6V.3zm0-.6v.2h.3V0zm.8.8L.8.6zM.6.8V.6zM.8.6v.3zH.5h.1V.2l.1.3V0v.3L1 .2.8.4h.1z"/><path id="y" d="M.3.7H0V0v.1h.2zM0 .2v.4h.1V.2m.7 0V0H.6v.4l.2.1v.1L.7.4v.4V0H1zM.6.5H.4v.3V0H.3h.2-.1v.4z"/><path id="z" d="M.3.7H0V0v.2h.2zM0 .3v.4h.2V.3zm.5.5V.6zM.9.6H.3V.5zm0-.7v.3H1 .8v.2H1 .5h.2V0L.5.2v.1Q.5 0 .2 0l.3.2.2-.1z"/><path id="A" d="M0 0v.7h.2L.5.2v.5h.1V0H.5L.2.5V0z"/><path id="B" d="M.4.8H0v-.9.1h.3v.8M.1.2l.1.4V.4h.2V.1zm.2.4V.3zM.1.6V.2zm0-.6v.2h.3V0zm.8.8H.4V.6h.1V.5h.1v.1h.2V.5v.1H1m0-.3L.7.6.4.3l.3.3.2-.3m0-.2H.7v.2zH.6v.1h.1-.2V0H.4 1"/><path id="C" d="M0 0v.7h.2V.4h.3v.3h.1V0H.5v.3H.2V0z"/><path id="D" d="M.4.8H.1V0h.3zM0 .2l.1.4V.4h.2V.1zm.1.4v.2zm.1 0h.1V.4zM0 .6V.3zm0-.5h.3zm.7.7V.4H1zM.6.8.5.4zM.8.5H.6Q.6.1.4 0q.2.1.3.5V0l.1.2z"/><path id="E" d="M.8.8H.2V.1v.1h.3V0v.3h.3zM.5.6v.2h.3V.6zM.2.6v.2h.3V.6zM.5.3v.2h.3V.3zM.2.3v.2h.3V.3z"/><path id="F" d="M.4.8H.1V0h.3zM.1.2v.4zl.1.3V.4h.2V.1zM0 0v.1h.3zm.7.3H.4l.1.1V0l.3.2L1 0 .8.1l.1.2M.6.4h.2L.7.1zm0 .5L1 .7H.5zV.6H1zm0-.3L1 .3zm0-.1"/><path id="G" d="M.3-.1.2.3l.1.4L.1.3q0-.3.2-.5"/><path id="H" d="M.4.2.3 0v.2zv.3H.3v.2-.2H0V.3h.1V.1H0V0h.2zM.3.3v.3zM0 .3v.3h.1V.3m.4.5V.7h.1zM1 0 .7.2l.1.5L.7.3.5.7.6.2.3-.1l.4.2.2-.1"/><path id="I" d="M.4.8H.1V0h.3zM.1.2v.4zl.1.3V.4h.2V.1zM0 0v.1h.3zm.7.3H.4l.1.1V0l.3.2L1 0 .8.1l.1.2M.6.4h.2L.7.1zm0 .5L1 .7H.5zV.6H1zm0-.3L1 .3zm0-.1"/><path id="J" d="M0 .7Q.4.5.3.3L.1-.1l.2.4-.2.4"/><path id="K" d="M.3.8V.4L0-.1l.2.4h.1V0H.2h.1zM.1.6v.2h.1V.5zm0-.2v.2h.1V.3zm.7.2H.6v.1-.2H.4h.2L.5.2h.2L.4-.2l.3.2.1-.1H1L.6.2l.1.3H1zM.6.5h.2L.7.2H.5zm0 .4V.6h.1zm.3 0V.6H.3 1 .8 1z"/><path id="L" d="M.5.1V0H0v.1l.2.2.1.1v.2L.1.5H0l.1.2h.3L.5.5V.2H.2V0z"/><path id="M" d="M.4.8H.1V0h.3v.7zM0 .2l.1.4V.4h.2V.1zm.1.4V.3zm.1 0V.4zM0 0v.2h.3V0zm.7.4v-.5.1h.2v.3H1M.5.3v.1h.2V.2zm0-.2v.2h.2V0zm.3.5v.3H.7V.6v.1H.6V.6H.5h.1V.5H.4zM.7.5v.2z"/><path id="N" d="m0-.1.2.1-.1.1v-.2"/><path id="O" d="m0 0 .1.2h.3V0h.1L.3.7zm.3.6L.4.3H.2z"/><path id="P" d="M.3.5Q0 .5 0 .3T.3 0L0 .4q0 .2.2.2"/><path id="Q" d="M0 .3.4 0q.2.1.2.3L.3.7Q.1.6.1.3m0 0q0 .2.2.3T.5.3L.3.1z"/><path id="R" d="M0 0h.1v.3h.3V0v.7-.3H.1v.3z"/><path id="S" d="M0 .6h.2V0v.6h.2v.1z"/><path id="U" d="M0 0h.1v.3h.3H0v.3h.3v.1H0z"/><path id="V" d="m0-.1.2.1-.1.1v-.2"/><path id="W" d="M.8.8H.2V0h.6v.7H1zM.1.1v.6h.2Q.4.3.2.2q.3.1.2.5h.2V.3h.2-.1v.4h.1V.1z"/><path id="X" d="M.8.7H.2V.5zm0 .2H.3L0 .5l.3.3zM.5.5H.2zL0 0l.4.2.3-.1zM.8.2V0zv.3H.1h.5V.2L1-.1v.2M.6.2V0H.3zv.1H.1h.2V0H0h.6"/><path id="Y" d="M.3.7V.1h.1zM1 0Q.7 0 .7.4h.2-.3v.2H1 .5v.2-.2H.4h.2V.4H.4h.2q0-.4-.3-.5.3 0 .3.5Q.6 0 1 0M.3.3v.4h.1V.3z"/><path id="Z" d="M.3.7V0v.2-.1h.1zM.2.3v.4zm.6.5H.7v.1-.1H.3h.2V.4H.4V0v.5H1V0H.6 1v.5H.6v.1zm0-.6H.6v.1h.1-.1v.1H.5V.2h.1-.2.1V0v.2z"/><path id="aa" d="M0 0h.2q.3 0 .3.4Q.5.7.2.7H0zm0 .6Q.6.6.5.3T.2.1z"/><path id="ab" d="M0 0h.1v.6L.3 0l.3.6V0v.7L.4.1.2.7H0z"/><path id="ac" d="M.2 0H0z"/><path id="ad" d="M.4.2Q.4.5.2.5L0 .3Q0 0 .2 0h.2-.2L.1.2zM0 .2l.1.3.1-.2z"/><path id="ae" d="M0 0h.4-.3l.1.2.2.3Q.4.7.2.7H.1V.6h.2L.1 0z"/><path id="af" d="M0 0h.1v.6L.4 0h.1v.7-.6L.2.7H0z"/><path id="ag" d="M.5 0Q.2 0 0 .5q0 .3.3.2v.1Q0 .7 0 .4T.4 0"/><path id="ah" d="M.4.8H0V0h.3v.8M.1.2l.1.4V.4h.2V.1zm.2.3h.1V.4zM0 .6V.3zm0-.5h.3zM1 0H.7v.4h.1-.2v.2H1 .6v.2-.2.1L.5.5v.2h.2V.4H.5V0l.2.2v.3h.1V0z"/><path id="ai" d="M.5.8H0h.1V.5H0V0h.3v.6h.1-.1v.1zM0 .2l.2.4V.4h.1V.1zm.2.3h.1V.4zM0 .6h.1V.3zm0-.5h.2zm.8.3H.5V0H1zM.6.3v.1H1V.2zm0-.2v.2H1V0zm.3.6V.5H.6zH.6v.1-.3H1z"/><path id="aj" d="M0 0h.4zv.3h.3H0v.3h.3v.1H0z"/><path id="ak" d="M0 .6V0h.3v.6z"/><path id="al" d="M0 0v.7h.6V.6H.2V.4h.4-.4V0h.4z"/><path id="am" d="M.3.5V0H0v.6l.1.1z"/><path id="an" d="M0 0h.2l.2.2-.2.2v.2h.1v.1Q0 .7 0 .5V.3L.4.2.2 0z"/><path id="ao" d="M0 .2h.4L.3.4H0v.4h.4L.6.5H.5L.2.7H.1V.4h.2L.5.3.7.1.5 0H0z"/><clipPath id="a"><path d="M0 320h312.5V0H0Z" clip-rule="evenodd"/></clipPath></defs><g clip-path="url(#a)"><path fill="none" stroke="#231f20" stroke-miterlimit="10" d="M6 314h300.5M6 16.7h300.5"/><path fill="none" stroke="#231f20" stroke-miterlimit="10" stroke-width="0.3" d="M6 58.2h300.5M6 101h300.5M6 141.9h300.5M6 182.6h300.5M6 220.5h300.5M6 272.7h300.5"/><use xlink:href="#b" fill="#231f20" data-text="需" transform="matrix(8 0 0 -8 6 8.631)"/><use xlink:href="#c" fill="#231f20" data-text="要" transform="matrix(8 0 0 -8 14 8.631)"/><use xlink:href="#d" fill="#231f20" data-text="熟" transform="matrix(8 0 0 -8 22 8.631)"/><use xlink:href="#e" fill="#231f20" data-text="记" transform="matrix(8 0 0 -8 30 8.631)"/><use xlink:href="#f" fill="#231f20" data-text="的" transform="matrix(8 0 0 -8 38 8.631)"/><use xlink:href="#g" fill="#231f20" data-text="重" transform="matrix(8 0 0 -8 46 8.631)"/><use xlink:href="#c" fill="#231f20" data-text="要" transform="matrix(8 0 0 -8 54 8.631)"/><use xlink:href="#h" fill="#231f20" data-text="结" transform="matrix(8 0 0 -8 62 8.63)"/><use xlink:href="#i" fill="#231f20" data-text="构" transform="matrix(8 0 0 -8 70 8.63)"/><use xlink:href="#j" fill="#231f20" data-text="丙" transform="matrix(8 0 0 -8 6 28.63)"/><use xlink:href="#k" fill="#231f20" data-text="酮" transform="matrix(8 0 0 -8 14 28.63)"/><use xlink:href="#l" fill="#ed1c24" data-text="M" transform="matrix(8 0 0 -8 81.4 50.687)"/><use xlink:href="#m" fill="#ed1c24" data-text="e" transform="matrix(8 0 0 -8 88.064 50.687)"/><path fill="#ed1c24" d="M102.6 40.3v.8l-9.4 5.5-.3-.6z"/><use xlink:href="#l" fill="#ed1c24" data-text="M" transform="matrix(8 0 0 -8 111.46 50.667)"/><use xlink:href="#m" fill="#ed1c24" data-text="e" transform="matrix(8 0 0 -8 118.124 50.667)"/><path fill="#ed1c24" d="m110.5 44.9-.4.6-7.5-4.4v-.8z"/><use xlink:href="#n" fill="#ed1c24" data-text="O" transform="matrix(8 0 0 -8 99.36 29.467)"/><path fill="#ed1c24" d="M101 41.4h.8V31h-.7Zm2.4 0h.7V31h-.7Z"/><use xlink:href="#o" fill="#231f20" data-text="甲" transform="matrix(8 0 0 -8 221.451 28.631)"/><use xlink:href="#p" fill="#231f20" data-text="苯" transform="matrix(8 0 0 -8 229.451 28.63)"/><path fill="#ed1c24" d="m248.5 33.2-.7-.4 12.7-7v.8zm2.1 1.5-.4-.7 10-5.5.4.6z"/><path fill="#ed1c24" d="m248.2 47-.7.4.3-14.6.7.4z"/><path fill="#ed1c24" d="M260 54v1l-12.5-7.6.7-.4zm.2-2.4-.3.6-10-6 .5-.6z"/><path fill="#ed1c24" d="m272 47.5.7.4-12.7 7v-.8z"/><path fill="#ed1c24" d="m272.3 33.7.4-.2.3.2-.3 14.2-.7-.4zm-2.3 1.1h.7l-.2 11.5h-.7z"/><path fill="#ed1c24" d="M272.7 33v.5l-.4.2-11.8-7.1v-.8z"/><use xlink:href="#l" fill="#ed1c24" data-text="M" transform="matrix(8 0 0 -8 281.66 29.467)"/><use xlink:href="#m" fill="#ed1c24" data-text="e" transform="matrix(8 0 0 -8 288.324 29.467)"/><path fill="#ed1c24" d="m280.3 28.8.4.7-7.7 4.2-.3-.2V33z"/><use xlink:href="#q" fill="#231f20" data-text="乙" transform="matrix(8 0 0 -8 6 68.231)"/><use xlink:href="#r" fill="#231f20" data-text="醚" transform="matrix(8 0 0 -8 14 68.23)"/><use xlink:href="#s" fill="#231f20" data-text="或" transform="matrix(8 0 0 -8 23.848 68.23)"/><use xlink:href="#t" fill="#231f20" data-text="二" transform="matrix(8 0 0 -8 33.696 68.23)"/><use xlink:href="#u" fill="#231f20" data-text="乙" transform="matrix(8 0 0 -8 41.696 68.23)"/><use xlink:href="#v" fill="#231f20" data-text="基" transform="matrix(8 0 0 -8 49.696 68.23)"/><use xlink:href="#w" fill="#231f20" data-text="醚" transform="matrix(8 0 0 -8 57.696 68.23)"/><path fill="#ed1c24" d="M93.8 72.7v.9l-12.4-7.2.4-.6z"/><use xlink:href="#n" fill="#ed1c24" data-text="O" transform="matrix(8 0 0 -8 102.86 69.067)"/><path fill="#ed1c24" d="m102 68 .4.6-8.6 5v-1zm16.3 4.7v.9l-8.6-5 .4-.6zm12.1-6.9.3.6-12.4 7.2v-1z"/><use xlink:href="#y" fill="#231f20" data-text="吡" transform="matrix(8 0 0 -8 221.528 68.231)"/><use xlink:href="#z" fill="#231f20" data-text="啶" transform="matrix(8 0 0 -8 229.528 68.231)"/><use xlink:href="#A" fill="#ed1c24" data-text="N" transform="matrix(8 0 0 -8 257.84 95.27)"/><path fill="#ed1c24" d="m248.2 84.8-.7.4V69.9l.7.4zm1.7-1.2h.7V71.4h-.7Z"/><path fill="#ed1c24" d="m256.7 89.7-.3.6-9-5.1.8-.4zm16.7-4.9.7.4-9 5.2-.3-.7zm-2.2-1.5.3.6-7.6 4.4-.3-.6zm2.2-13 .7-.4v15.3l-.7-.4z"/><path fill="#ed1c24" d="M260.8 63v-.8l13.3 7.7-.7.4zm-.2 2.7.3-.6 10.6 6-.3.7z"/><path fill="#ed1c24" d="M260.8 62.2v.8l-12.6 7.3-.7-.4z"/><use xlink:href="#u" fill="#231f20" data-text="乙" transform="matrix(8 0 0 -8 6 111.131)"/><use xlink:href="#B" fill="#231f20" data-text="醛" transform="matrix(8 0 0 -8 14 111.13)"/><use xlink:href="#l" fill="#ed1c24" data-text="M" transform="matrix(8 0 0 -8 81.4 133.139)"/><use xlink:href="#m" fill="#ed1c24" data-text="e" transform="matrix(8 0 0 -8 88.064 133.139)"/><path fill="#ed1c24" d="M102.6 122.8v.9l-9.4 5.4-.3-.6z"/><use xlink:href="#C" fill="#ed1c24" data-text="H" transform="matrix(8 0 0 -8 111.96 133.167)"/><path fill="#ed1c24" d="m110.9 127.6-.4.6-8-4.5v-1z"/><use xlink:href="#n" fill="#ed1c24" data-text="O" transform="matrix(8 0 0 -8 99.46 111.967)"/><path fill="#ed1c24" d="M101 123.9h.8v-10.3h-.7Zm2.4 0h.7v-10.3h-.7Z"/><use xlink:href="#p" fill="#231f20" data-text="苯" transform="matrix(8 0 0 -8 221.524 111.131)"/><use xlink:href="#D" fill="#231f20" data-text="酚" transform="matrix(8 0 0 -8 229.524 111.131)"/><path fill="#ed1c24" d="m248.3 116.4-.8-.4 12.7-7.3v.8zm2 1.4-.3-.6 10-5.8.3.6z"/><path fill="#ed1c24" d="m248.3 130.2-.8.4V116l.8.4z"/><path fill="#ed1c24" d="M260.2 137v.9l-12.7-7.3.8-.4zm.1-2.5-.3.6-10-5.7.3-.6zm11.7-4.3.8.4-12.6 7.3v-1zm0-13.8.5-.2.3.2v14.2l-.7-.4zm-2.2 12.6h.7v-11.5h-.7Z"/><path fill="#ed1c24" d="M272.5 115.8v.4l-.4.2-12-7v-.7z"/><use xlink:href="#n" fill="#ed1c24" data-text="O" transform="matrix(8 0 0 -8 281.56 111.967)"/><use xlink:href="#C" fill="#ed1c24" data-text="H" transform="matrix(8 0 0 -8 287.784 111.967)"/><path fill="#ed1c24" d="m280.7 111 .4.6-8.3 4.8-.3-.2v-.4z"/><use xlink:href="#E" fill="#231f20" data-text="甲" transform="matrix(8 0 0 -8 6 151.931)"/><use xlink:href="#F" fill="#231f20" data-text="酸" transform="matrix(8 0 0 -8 14 151.93)"/><use xlink:href="#G" fill="#231f20" data-text="(" transform="matrix(8 0 0 -8 23.848 151.93)"/><use xlink:href="#H" fill="#231f20" data-text="蚁" transform="matrix(8 0 0 -8 26.84 151.93)"/><use xlink:href="#I" fill="#231f20" data-text="酸" transform="matrix(8 0 0 -8 34.84 151.93)"/><use xlink:href="#J" fill="#231f20" data-text=")" transform="matrix(8 0 0 -8 42.84 151.93)"/><use xlink:href="#C" fill="#ed1c24" data-text="H" transform="matrix(8 0 0 -8 81.4 173.939)"/><path fill="#ed1c24" d="M96.7 163.6v.8l-8 4.6-.3-.6z"/><use xlink:href="#n" fill="#ed1c24" data-text="O" transform="matrix(8 0 0 -8 105.76 173.967)"/><use xlink:href="#C" fill="#ed1c24" data-text="H" transform="matrix(8 0 0 -8 111.984 173.967)"/><path fill="#ed1c24" d="m105.4 168.6-.4.6-8.3-4.8v-.8z"/><use xlink:href="#n" fill="#ed1c24" data-text="O" transform="matrix(8 0 0 -8 93.46 152.667)"/><path fill="#ed1c24" d="M95.2 164.7h.7v-10.3h-.7Zm2.2 0h.7v-10.3h-.7Z"/><use xlink:href="#p" fill="#231f20" data-text="苯" transform="matrix(8 0 0 -8 221.524 151.931)"/><use xlink:href="#K" fill="#231f20" data-text="胺" transform="matrix(8 0 0 -8 229.524 151.931)"/><path fill="#ed1c24" d="m248.2 157.2-.7-.4 12.6-7.3v.8zm2.1 1.4-.3-.6 10-5.8.3.6zm-2.1 12.4-.7.4v-14.6l.7.4zm11.8 6.8v.8l-12.5-7.2.7-.4zm.3-2.5-.3.6-10-5.7.3-.6zM272 171l.8.4-12.7 7.2v-.8z"/><path fill="#ed1c24" d="m272 157.2.4-.2.4.2v14.2l-.7-.4zm-2.2 12.7h.7v-11.6h-.7Z"/><path fill="#ed1c24" d="M272.4 156.6v.4l-.3.2-12-7v-.7z"/><use xlink:href="#A" fill="#ed1c24" data-text="N" transform="matrix(8 0 0 -8 281.76 152.667)"/><use xlink:href="#C" fill="#ed1c24" data-text="H" transform="matrix(8 0 0 -8 287.535 152.667)"/><use xlink:href="#L" fill="#ed1c24" data-text="2" transform="matrix(6 0 0 -6 293.26 154.267)"/><path fill="#ed1c24" d="m280.3 152 .4.6-8 4.6-.3-.2v-.4z"/><use xlink:href="#M" fill="#231f20" data-text="醋" transform="matrix(8 0 0 -8 6 192.631)"/><use xlink:href="#I" fill="#231f20" data-text="酸" transform="matrix(8 0 0 -8 14 192.631)"/><use xlink:href="#N" fill="#231f20" data-text="," transform="matrix(8 0 0 -8 22 192.631)"/><use xlink:href="#O" fill="#231f20" data-text="A" transform="matrix(8 0 0 -8 25.576 192.631)"/><use xlink:href="#P" fill="#231f20" data-text="c" transform="matrix(8 0 0 -8 30.024 192.631)"/><use xlink:href="#Q" fill="#231f20" data-text="O" transform="matrix(8 0 0 -8 32.984 192.631)"/><use xlink:href="#R" fill="#231f20" data-text="H" transform="matrix(8 0 0 -8 37.736 192.631)"/><use xlink:href="#l" fill="#ed1c24" data-text="M" transform="matrix(8 0 0 -8 81.4 214.599)"/><use xlink:href="#m" fill="#ed1c24" data-text="e" transform="matrix(8 0 0 -8 88.064 214.599)"/><path fill="#ed1c24" d="M102.6 204.3v.8l-9.4 5.4-.3-.6z"/><use xlink:href="#n" fill="#ed1c24" data-text="O" transform="matrix(8 0 0 -8 111.66 214.667)"/><use xlink:href="#C" fill="#ed1c24" data-text="H" transform="matrix(8 0 0 -8 117.883 214.667)"/><path fill="#ed1c24" d="m111.3 209.3-.4.6-8.3-4.8v-.8z"/><use xlink:href="#n" fill="#ed1c24" data-text="O" transform="matrix(8 0 0 -8 99.36 193.467)"/><path fill="#ed1c24" d="M101 205.3h.8V195h-.7Zm2.4 0h.7V195h-.7Z"/><use xlink:href="#S" fill="#231f20" data-text="T" transform="matrix(8 0 0 -8 190.671 192.631)"/><use xlink:href="#R" fill="#231f20" data-text="H" transform="matrix(8 0 0 -8 194.079 192.631)"/><use xlink:href="#U" fill="#231f20" data-text="F" transform="matrix(8 0 0 -8 198.527 192.631)"/><use xlink:href="#V" fill="#231f20" data-text="," transform="matrix(8 0 0 -8 201.784 192.63)"/><use xlink:href="#W" fill="#231f20" data-text="四" transform="matrix(8 0 0 -8 205.536 192.63)"/><use xlink:href="#X" fill="#231f20" data-text="氢" transform="matrix(8 0 0 -8 213.536 192.63)"/><use xlink:href="#Y" fill="#231f20" data-text="呋" transform="matrix(8 0 0 -8 221.536 192.63)"/><use xlink:href="#Z" fill="#231f20" data-text="喃" transform="matrix(8 0 0 -8 229.536 192.63)"/><use xlink:href="#n" fill="#ed1c24" data-text="O" transform="matrix(8 0 0 -8 256.72 211.31)"/><path fill="#ed1c24" d="m248.3 200.5-.8.4 3.8-14.3.6.8z"/><path fill="#ed1c24" d="m256.4 205.8-.4.6-8.5-5.5.8-.4zm14-6.4.8.2-7.8 6.4-.5-.6z"/><path fill="#ed1c24" d="m265.5 187.4.5-.8 5.2 13-.8-.2z"/><path fill="#ed1c24" d="m266 186.6-.5.8h-13.6l-.6-.8z"/><use xlink:href="#p" fill="#231f20" data-text="苯" transform="matrix(8 0 0 -8 6 230.531)"/><path fill="#ed1c24" d="m82.2 246-.8.4v-14.6l.8.4zm1.5-1.1h.7v-11.6h-.7Z"/><path fill="#ed1c24" d="M94 252.9v.8l-12.6-7.3.8-.4zm12-6.9.7.4-12.6 7.3v-.8zm-2.1-1.5.4.7-10.1 5.8-.3-.7zm2.1-12.3.7-.4v14.6l-.7-.4z"/><path fill="#ed1c24" d="M94 225.3v-.8l12.7 7.3-.7.4zm-.1 2.5.3-.6 10 5.8-.3.6zm.1-3.3v.8l-11.8 6.9-.8-.4z"/><use xlink:href="#aa" fill="#231f20" data-text="D" transform="matrix(8 0 0 -8 189.193 230.467)"/><use xlink:href="#ab" fill="#231f20" data-text="M" transform="matrix(8 0 0 -8 193.641 230.467)"/><use xlink:href="#U" fill="#231f20" data-text="F" transform="matrix(8 0 0 -8 199.561 230.467)"/><use xlink:href="#ac" fill="#231f20" data-text="," transform="matrix(8 0 0 -8 201.793 230.467)"/><use xlink:href="#ab" fill="#231f20" data-text="M" transform="matrix(8 0 0 -8 205.528 230.467)"/><use xlink:href="#ad" fill="#231f20" data-text="e" transform="matrix(8 0 0 -8 211.448 230.467)"/><use xlink:href="#ae" fill="#231f20" data-text="2" transform="matrix(5.2 0 0 -5.2 214.856 232.267)"/><use xlink:href="#af" fill="#231f20" data-text="N" transform="matrix(8 0 0 -8 217.352 230.467)"/><use xlink:href="#ag" fill="#231f20" data-text="C" transform="matrix(8 0 0 -8 222.096 230.467)"/><use xlink:href="#R" fill="#231f20" data-text="H" transform="matrix(8 0 0 -8 226.392 230.467)"/><use xlink:href="#Q" fill="#231f20" data-text="O" transform="matrix(8 0 0 -8 230.84 230.467)"/><use xlink:href="#ac" fill="#231f20" data-text="," transform="matrix(8 0 0 -8 235.592 230.467)"/><use xlink:href="#t" fill="#231f20" data-text="二" transform="matrix(8 0 0 -8 189.511 240.035)"/><use xlink:href="#o" fill="#231f20" data-text="甲" transform="matrix(8 0 0 -8 197.511 240.035)"/><use xlink:href="#v" fill="#231f20" data-text="基" transform="matrix(8 0 0 -8 205.511 240.035)"/><use xlink:href="#o" fill="#231f20" data-text="甲" transform="matrix(8 0 0 -8 213.511 240.035)"/><use xlink:href="#ah" fill="#231f20" data-text="酰" transform="matrix(8 0 0 -8 221.511 240.035)"/><use xlink:href="#K" fill="#231f20" data-text="胺" transform="matrix(8 0 0 -8 229.511 240.035)"/><use xlink:href="#A" fill="#ed1c24" data-text="N" transform="matrix(8 0 0 -8 265.72 245.443)"/><path fill="#ed1c24" d="m272.7 245.3.4-.6 7.9 4.6v.8z"/><use xlink:href="#l" fill="#ed1c24" data-text="M" transform="matrix(8 0 0 -8 247.46 252.567)"/><use xlink:href="#m" fill="#ed1c24" data-text="e" transform="matrix(8 0 0 -8 254.124 252.567)"/><path fill="#ed1c24" d="m259.3 248.5-.4-.7 5.4-3.1.4.7z"/><use xlink:href="#l" fill="#ed1c24" data-text="M" transform="matrix(8 0 0 -8 265.26 231.367)"/><use xlink:href="#m" fill="#ed1c24" data-text="e" transform="matrix(8 0 0 -8 271.924 231.367)"/><path fill="#ed1c24" d="M268.4 238.3h.7v-5.6h-.7Z"/><use xlink:href="#C" fill="#ed1c24" data-text="H" transform="matrix(8 0 0 -8 290.26 245.467)"/><path fill="#ed1c24" d="m288.9 244.7.3.7-8.2 4.7v-.8z"/><use xlink:href="#n" fill="#ed1c24" data-text="O" transform="matrix(8 0 0 -8 277.86 266.767)"/><path fill="#ed1c24" d="M281.8 259.6h.7V249h-.7Zm-2.3 0h.7V249h-.7Z"/><use xlink:href="#u" fill="#231f20" data-text="乙" transform="matrix(8 0 0 -8 6 282.731)"/><use xlink:href="#I" fill="#231f20" data-text="酸" transform="matrix(8 0 0 -8 14 282.73)"/><use xlink:href="#u" fill="#231f20" data-text="乙" transform="matrix(8 0 0 -8 22 282.73)"/><use xlink:href="#ai" fill="#231f20" data-text="酯" transform="matrix(8 0 0 -8 30 282.73)"/><use xlink:href="#N" fill="#231f20" data-text="," transform="matrix(8 0 0 -8 38 282.73)"/><use xlink:href="#aj" fill="#231f20" data-text="E" transform="matrix(8 0 0 -8 41.995 282.73)"/><use xlink:href="#ak" fill="#231f20" data-text="t" transform="matrix(8 0 0 -8 45.547 282.73)"/><use xlink:href="#Q" fill="#231f20" data-text="O" transform="matrix(8 0 0 -8 47.77 282.73)"/><use xlink:href="#O" fill="#231f20" data-text="A" transform="matrix(8 0 0 -8 52.523 282.73)"/><use xlink:href="#P" fill="#231f20" data-text="c" transform="matrix(8 0 0 -8 56.97 282.73)"/><use xlink:href="#al" fill="#ed1c24" data-text="E" transform="matrix(8 0 0 -8 81.4 304.787)"/><use xlink:href="#am" fill="#ed1c24" data-text="t" transform="matrix(8 0 0 -8 86.736 304.787)"/><use xlink:href="#n" fill="#ed1c24" data-text="O" transform="matrix(8 0 0 -8 89.4 304.787)"/><path fill="#ed1c24" d="M104.8 294.3v.9l-8.3 4.8-.4-.6z"/><use xlink:href="#l" fill="#ed1c24" data-text="M" transform="matrix(8 0 0 -8 113.66 304.667)"/><use xlink:href="#m" fill="#ed1c24" data-text="e" transform="matrix(8 0 0 -8 120.323 304.667)"/><path fill="#ed1c24" d="m112.7 298.9-.3.6-7.6-4.3v-1z"/><use xlink:href="#n" fill="#ed1c24" data-text="O" transform="matrix(8 0 0 -8 101.66 283.467)"/><path fill="#ed1c24" d="M103.3 295.4h.7V285h-.7Zm2.3 0h.7V285h-.7Z"/><use xlink:href="#aa" fill="#231f20" data-text="D" transform="matrix(8 0 0 -8 218.96 282.667)"/><use xlink:href="#ab" fill="#231f20" data-text="M" transform="matrix(8 0 0 -8 223.408 282.667)"/><use xlink:href="#an" fill="#231f20" data-text="S" transform="matrix(8 0 0 -8 229.328 282.667)"/><use xlink:href="#Q" fill="#231f20" data-text="O" transform="matrix(8 0 0 -8 232.736 282.667)"/><use xlink:href="#l" fill="#ed1c24" data-text="M" transform="matrix(8 0 0 -8 247.488 304.69)"/><use xlink:href="#m" fill="#ed1c24" data-text="e" transform="matrix(8 0 0 -8 254.151 304.69)"/><use xlink:href="#ao" fill="#ed1c24" data-text="S" transform="matrix(8 0 0 -8 265.943 297.699)"/><path fill="#ed1c24" d="m264.7 296.6.4.7-5.8 3.3-.3-.7z"/><use xlink:href="#l" fill="#ed1c24" data-text="M" transform="matrix(8 0 0 -8 277.56 304.667)"/><use xlink:href="#m" fill="#ed1c24" data-text="e" transform="matrix(8 0 0 -8 284.224 304.667)"/><path fill="#ed1c24" d="m276.6 298.9-.4.6-4-2.3.4-.6z"/><use xlink:href="#n" fill="#ed1c24" data-text="O" transform="matrix(8 0 0 -8 265.46 283.467)"/><path fill="#ed1c24" d="M267.2 290.4h.7V285h-.7Zm2.3 0h.7V285h-.7Z"/></g></svg>