<svg stroke-linecap="round" stroke-linejoin="round" class="tl-container tl-theme__force-sRGB tl-theme__light" data-color-mode="light" style="background-color:#f9fafb" viewBox="1288 648 744 304"><path fill="none" stroke="#1d1d1d" stroke-width="3.5" d="M1320 680v240m0 0h320m-320-240 320 240"/><g transform="translate(1320 680)"><defs><clipPath id="a"><path d="M-100-100h360v201h-360Z"/></clipPath></defs><g fill="none" stroke="#1d1d1d" stroke-width="3.5" pointer-events="none"><path stroke-dasharray="7.591 8.35" stroke-dashoffset="3.5" d="M0 0h160" style="clip-path:url(#a)"/><path d="m151-5.2 9 5.2-9 5.2"/></g></g><g transform="translate(1480 680)"><defs><clipPath id="b"><path d="M-100-100h201v320h-201Z"/></clipPath></defs><g fill="none" stroke="#1d1d1d" stroke-width="3.5" pointer-events="none"><path stroke-dasharray="7.056 7.938" stroke-dashoffset="3.5" d="M0 0v120" style="clip-path:url(#b)"/><path d="M5.2 111 0 120l-5.2-9"/></g></g><g transform="translate(1640 680)"><defs><clipPath id="c"><path d="M-100-100h201v440h-201Z"/></clipPath></defs><g fill="none" stroke="#1d1d1d" stroke-width="3.5" pointer-events="none"><path stroke-dasharray="7.265 7.719" stroke-dashoffset="3.5" d="M0 0v240" style="clip-path:url(#c)"/><path d="M5.2 231 0 240l-5.2-9"/></g></g><g transform="translate(1320 680)"><defs><clipPath id="d"><path d="M60-100h360v201H60Z"/></clipPath></defs><g fill="none" stroke="#1d1d1d" stroke-width="3.5" pointer-events="none"><path stroke-dasharray="7.591 8.35" stroke-dashoffset="3.5" d="M160 0h160" style="clip-path:url(#d)"/><path d="m311-5.2 9 5.2-9 5.2"/></g></g><path fill="none" stroke="#1d1d1d" stroke-width="3.5" d="M1680 920h320m0 0V680m-320 240 320-240"/><g transform="translate(1900 720)"><defs><clipPath id="e"><path d="M-100-100h201v230h-201Z"/></clipPath></defs><g fill="none" stroke="#1d1d1d" stroke-width="3.5" pointer-events="none"><path stroke-dashoffset="none" d="M0 0v30" style="clip-path:url(#e)"/><path d="M3 24.8 0 30l-3-5.2"/></g></g><g transform="translate(1840 720)"><defs><clipPath id="f"><path d="M-100-100h201v280h-201Z"/></clipPath></defs><g fill="none" stroke="#1d1d1d" stroke-width="3.5" pointer-events="none"><path stroke-dashoffset="none" d="M0 0v80" style="clip-path:url(#f)"/><path d="M5.2 71 0 80l-5.2-9"/></g></g><g transform="translate(1760 720)"><defs><clipPath id="g"><path d="M-100-100h280v201h-280Z"/></clipPath></defs><g fill="none" stroke="#1d1d1d" stroke-width="3.5" pointer-events="none"><path stroke-dashoffset="none" d="M0 0h80" style="clip-path:url(#g)"/><path d="M71-5.2 80 0l-9 5.2"/></g></g><path fill="none" stroke="#1d1d1d" stroke-dasharray="7.333 7.857" stroke-width="3.5" d="M1740 800h220"/><g transform="translate(1920 720)"><defs><clipPath id="h"><path d="M-100-100h201v280h-201Z"/></clipPath></defs><g fill="none" stroke="#9fa8b2" stroke-width="3.5" pointer-events="none"><path stroke-dashoffset="none" d="M0 0v80" style="clip-path:url(#h)"/><path d="M5.2 71 0 80l-5.2-9"/></g></g><path fill="none" stroke="#1d1d1d" stroke-dasharray="7.143 8.333" stroke-width="3.5" d="M1760 720v100"/><g transform="translate(1840 720)"><defs><clipPath id="i"><path d="M-40-100h220v201H-40Z"/></clipPath></defs><g fill="none" stroke="#9fa8b2" stroke-width="3.5" pointer-events="none"><path stroke-dashoffset="none" d="M60 0h20" style="clip-path:url(#i)"/><path d="M76.5-2 80 0l-3.5 2"/></g></g><g transform="translate(1840 720)"><defs><clipPath id="j"><path d="M-100-100h260v201h-260Z"/></clipPath></defs><g fill="none" stroke="#1d1d1d" stroke-width="3.5" pointer-events="none"><path stroke-dashoffset="none" d="M0 0h60" style="clip-path:url(#j)"/><path d="M51-5.2 60 0l-9 5.2"/></g></g><path fill="none" stroke="#1d1d1d" stroke-width="3.5" d="M1790 790v20m10-20v20m80-20v20m10-20v20"/></svg>