<svg xmlns="http://www.w3.org/2000/svg" width="744" height="304" stroke-linecap="round" stroke-linejoin="round" class="tl-container tl-theme__force-sRGB tl-theme__light" data-color-mode="light" viewBox="1288 648 744 304" style="background-color:#f9fafb"><path fill="none" stroke="#1d1d1d" stroke-width="3.5" d="M1320 680v240m0 0h320m-320-240 320 240"/><g transform="translate(1320 680)"><defs><clipPath id="a"><path d="M-100-100h360v201h-360Z"/></clipPath></defs><g fill="none" stroke="#1d1d1d" stroke-width="3.5" pointer-events="none"><g clip-path="url(#a)"><path stroke-dasharray="7.59 8.35" stroke-dashoffset="3.5" d="M0 0h160"/></g><path d="M150.907-5.25 160 0l-9.093 5.25"/></g></g><g transform="translate(1480 680)"><defs><clipPath id="b"><path d="M-100-100h201v320h-201Z"/></clipPath></defs><g fill="none" stroke="#1d1d1d" stroke-width="3.5" pointer-events="none"><g clip-path="url(#b)"><path stroke-dasharray="7.06 7.94" stroke-dashoffset="3.5" d="M0 0v120"/></g><path d="M5.25 110.907 0 120l-5.25-9.093"/></g></g><g transform="translate(1640 680)"><defs><clipPath id="c"><path d="M-100-100h201v440h-201Z"/></clipPath></defs><g fill="none" stroke="#1d1d1d" stroke-width="3.5" pointer-events="none"><g clip-path="url(#c)"><path stroke-dasharray="7.26 7.72" stroke-dashoffset="3.5" d="M0 0v240"/></g><path d="M5.25 230.907 0 240l-5.25-9.093"/></g></g><g transform="translate(1320 680)"><defs><clipPath id="d"><path d="M60-100h360v201H60Z"/></clipPath></defs><g fill="none" stroke="#1d1d1d" stroke-width="3.5" pointer-events="none"><g clip-path="url(#d)"><path stroke-dasharray="7.59 8.35" stroke-dashoffset="3.5" d="M160 0h160"/></g><path d="M310.907-5.25 320 0l-9.093 5.25"/></g></g><path fill="none" stroke="#1d1d1d" stroke-width="3.5" d="M1680 920h320m0 0V680m-320 240 320-240"/><g transform="translate(1900 720)"><defs><clipPath id="e"><path d="M-100-100h201v230h-201Z"/></clipPath></defs><g fill="none" stroke="#1d1d1d" stroke-width="3.5" pointer-events="none"><g clip-path="url(#e)"><path stroke-dashoffset="none" d="M0 0v30"/></g><path d="M3 24.804 0 30l-3-5.196"/></g></g><g transform="translate(1840 720)"><defs><clipPath id="g"><use href="#f"/></clipPath></defs><g fill="none" stroke="#1d1d1d" stroke-width="3.5" pointer-events="none"><g clip-path="url(#g)"><use stroke-dashoffset="none" href="#h"/></g><use href="#i"/></g></g><g transform="translate(1760 720)"><defs><clipPath id="j"><path d="M-100-100h280v201h-280Z"/></clipPath></defs><g fill="none" stroke="#1d1d1d" stroke-width="3.5" pointer-events="none"><g clip-path="url(#j)"><path stroke-dashoffset="none" d="M0 0h80"/></g><path d="M70.907-5.25 80 0l-9.093 5.25"/></g></g><path fill="none" stroke-dasharray="7.33 7.86" d="M1740 800h220" stroke="#1d1d1d" stroke-width="3.5"/><g transform="translate(1920 720)"><defs><clipPath id="k"><use href="#f"/></clipPath></defs><g fill="none" stroke="#9fa8b2" stroke-width="3.5" pointer-events="none"><g clip-path="url(#k)"><use stroke-dashoffset="none" href="#h"/></g><use href="#i"/></g></g><path fill="none" stroke-dasharray="7.14 8.33" d="M1760 720v100" stroke="#1d1d1d" stroke-width="3.5"/><g transform="translate(1840 720)"><defs><clipPath id="l"><path d="M-40-100h220v201H-40Z"/></clipPath></defs><g fill="none" stroke="#9fa8b2" stroke-width="3.5" pointer-events="none"><g clip-path="url(#l)"><path stroke-dashoffset="none" d="M60 0h20"/></g><path d="M76.536-2 80 0l-3.464 2"/></g></g><g transform="translate(1840 720)"><defs><clipPath id="m"><path d="M-100-100h260v201h-260Z"/></clipPath></defs><g fill="none" stroke="#1d1d1d" stroke-width="3.5" pointer-events="none"><g clip-path="url(#m)"><path stroke-dashoffset="none" d="M0 0h60"/></g><path d="M50.907-5.25 60 0l-9.093 5.25"/></g></g><path fill="none" stroke="#1d1d1d" stroke-width="3.5" d="M1790 790v20m10-20v20m80-20v20m10-20v20"/></svg>