<svg xmlns="http://www.w3.org/2000/svg" width="744" height="304" stroke-linecap="round" stroke-linejoin="round" class="tl-container tl-theme__force-sRGB tl-theme__light" data-color-mode="light" direction="ltr" viewBox="1288 648 744 304" style="background-color:#f9fafb"><g opacity="1"><path fill="none" stroke="#1d1d1d" stroke-width="3.5" d="M0, 0L0, 240" transform="matrix(1, 0, 0, 1, 1320, 680) scale(1)"/></g><g opacity="1"><path fill="none" stroke="#1d1d1d" stroke-width="3.5" d="M0, 0L320, 0" transform="matrix(1, 0, 0, 1, 1320, 920) scale(1)"/></g><g opacity="1"><path fill="none" stroke="#1d1d1d" stroke-width="3.5" d="M0, 0L320, 240" transform="matrix(1, 0, 0, 1, 1320, 680) scale(1)"/></g><g opacity="1"><g transform="matrix(1, 0, 0, 1, 1320, 680) scale(1)"><defs><clipPath id="_export_5_rvp__shape_KGvRsYXiuQI3gWLMuKZ9H_clip"><path d="M-100,-100 h360 v201 h-360 Z"/></clipPath></defs><g fill="none" stroke="#1d1d1d" stroke-linecap="round" stroke-linejoin="round" stroke-width="3.5" pointer-events="none"><g style="clip-path:url(#_export_5_rvp__shape_KGvRsYXiuQI3gWLMuKZ9H_clip)"><rect width="360" height="201" x="-100" y="-100" opacity="0"/><path stroke-dasharray="7.591 8.35" stroke-dashoffset="3.5" d="M0,0L160,0"/></g><path d="M 150.9067332602634 -5.249999999999999 L 160 0 L 150.9067332602634 5.249999999999999"/></g></g></g><g opacity="1"><g transform="matrix(1, 0, 0, 1, 1480, 680) scale(1)"><defs><clipPath id="_export_5_rvp__shape_ZjR-QYgVLB-G1KUyn9qny_clip"><path d="M-100,-100 h201 v320 h-201 Z"/></clipPath></defs><g fill="none" stroke="#1d1d1d" stroke-linecap="round" stroke-linejoin="round" stroke-width="3.5" pointer-events="none"><g style="clip-path:url(#_export_5_rvp__shape_ZjR-QYgVLB-G1KUyn9qny_clip)"><rect width="201" height="320" x="-100" y="-100" opacity="0"/><path stroke-dasharray="7.056 7.938" stroke-dashoffset="3.5" d="M0,0L0,120"/></g><path d="M 5.249999999999999 110.9067332602634 L 0 120 L -5.249999999999999 110.9067332602634"/></g></g></g><g opacity="1"><g transform="matrix(1, 0, 0, 1, 1640, 680) scale(1)"><defs><clipPath id="_export_5_rvp__shape_5a51sGzSRTLXMihzKc-Vd_clip"><path d="M-100,-100 h201 v440 h-201 Z"/></clipPath></defs><g fill="none" stroke="#1d1d1d" stroke-linecap="round" stroke-linejoin="round" stroke-width="3.5" pointer-events="none"><g style="clip-path:url(#_export_5_rvp__shape_5a51sGzSRTLXMihzKc-Vd_clip)"><rect width="201" height="440" x="-100" y="-100" opacity="0"/><path stroke-dasharray="7.265 7.719" stroke-dashoffset="3.5" d="M0,0L0,240"/></g><path d="M 5.249999999999999 230.9067332602634 L 0 240 L -5.249999999999999 230.9067332602634"/></g></g></g><g opacity="1"><g stroke="#1d1d1d" stroke-width="3.5"><path fill="none" stroke-dasharray=".036 7.553" stroke-dashoffset="0" d="M0, 0 L80, 120" transform="matrix(1, 0, 0, 1, 1400, 680) scale(1)"/></g></g><g opacity="1"><g stroke="#1d1d1d" stroke-width="3.5"><path fill="none" stroke-dasharray=".035 7.175" stroke-dashoffset="0" d="M0, 0 L160, 240" transform="matrix(1, 0, 0, 1, 1480, 680) scale(1)"/></g></g><g opacity="1"><g transform="matrix(1, 0, 0, 1, 1320, 680) scale(1)"><defs><clipPath id="_export_5_rvp__shape_mLGptKAikxVtBWlsPp6PC_clip"><path d="M60,-100 h360 v201 h-360 Z"/></clipPath></defs><g fill="none" stroke="#1d1d1d" stroke-linecap="round" stroke-linejoin="round" stroke-width="3.5" pointer-events="none"><g style="clip-path:url(#_export_5_rvp__shape_mLGptKAikxVtBWlsPp6PC_clip)"><rect width="360" height="201" x="60" y="-100" opacity="0"/><path stroke-dasharray="7.591 8.35" stroke-dashoffset="3.5" d="M160,0L320,0"/></g><path d="M 310.9067332602634 -5.249999999999999 L 320 0 L 310.9067332602634 5.249999999999999"/></g></g></g><g opacity="1"><path fill="none" stroke="#1d1d1d" stroke-width="3.5" d="M0, 0L320, 0" transform="matrix(1, 0, 0, 1, 1680, 920) scale(1)"/></g><g opacity="1"><path fill="none" stroke="#1d1d1d" stroke-width="3.5" d="M0, 0L0, -240" transform="matrix(1, 0, 0, 1, 2000, 920) scale(1)"/></g><g opacity="1"><path fill="none" stroke="#1d1d1d" stroke-width="3.5" d="M0, 0L320, -240" transform="matrix(1, 0, 0, 1, 1680, 920) scale(1)"/></g><g opacity="1"><g transform="matrix(1, 0, 0, 1, 1900, 720) scale(1)"><defs><clipPath id="_export_5_rvp__shape_hNUkbfMMVIy8T5ytuozaF_clip"><path d="M-100,-100 h201 v230 h-201 Z"/></clipPath></defs><g fill="none" stroke="#1d1d1d" stroke-linecap="round" stroke-linejoin="round" stroke-width="3.5" pointer-events="none"><g style="clip-path:url(#_export_5_rvp__shape_hNUkbfMMVIy8T5ytuozaF_clip)"><rect width="201" height="230" x="-100" y="-100" opacity="0"/><path stroke-dasharray="none" stroke-dashoffset="none" d="M0,0L0,30"/></g><path d="M 2.9999999999999996 24.803847577293368 L 0 30 L -2.9999999999999996 24.803847577293368"/></g></g></g><g opacity="1"><g transform="matrix(1, 0, 0, 1, 1840, 720) scale(1)"><defs><clipPath id="_export_5_rvp__shape_jyMH-0Oron7AO1D9cS6H3_clip"><path d="M-100,-100 h201 v280 h-201 Z"/></clipPath></defs><g fill="none" stroke="#1d1d1d" stroke-linecap="round" stroke-linejoin="round" stroke-width="3.5" pointer-events="none"><g style="clip-path:url(#_export_5_rvp__shape_jyMH-0Oron7AO1D9cS6H3_clip)"><rect width="201" height="280" x="-100" y="-100" opacity="0"/><path stroke-dasharray="none" stroke-dashoffset="none" d="M0,0L0,80"/></g><path d="M 5.249999999999999 70.9067332602634 L 0 80 L -5.249999999999999 70.9067332602634"/></g></g></g><g opacity="1"><g transform="matrix(1, 0, 0, 1, 1760, 720) scale(1)"><defs><clipPath id="_export_5_rvp__shape_ZAtUw8OKOSsfvknmly9Vu_clip"><path d="M-100,-100 h280 v201 h-280 Z"/></clipPath></defs><g fill="none" stroke="#1d1d1d" stroke-linecap="round" stroke-linejoin="round" stroke-width="3.5" pointer-events="none"><g style="clip-path:url(#_export_5_rvp__shape_ZAtUw8OKOSsfvknmly9Vu_clip)"><rect width="280" height="201" x="-100" y="-100" opacity="0"/><path stroke-dasharray="none" stroke-dashoffset="none" d="M0,0L80,0"/></g><path d="M 70.9067332602634 -5.249999999999999 L 80 0 L 70.9067332602634 5.249999999999999"/></g></g></g><g opacity="1"><g stroke="#1d1d1d" stroke-width="3.5"><path fill="none" stroke-dasharray="7.333 7.857" stroke-dashoffset="0" d="M20, 0 L240, 0" transform="matrix(1, 0, 0, 1, 1720, 800) scale(1)"/></g></g><g opacity="1"><g transform="matrix(1, 0, 0, 1, 1920, 720) scale(1)"><defs><clipPath id="_export_5_rvp__shape_wT07Ym0v4I0PQBw5uXuCd_clip"><path d="M-100,-100 h201 v280 h-201 Z"/></clipPath></defs><g fill="none" stroke="#9fa8b2" stroke-linecap="round" stroke-linejoin="round" stroke-width="3.5" pointer-events="none"><g style="clip-path:url(#_export_5_rvp__shape_wT07Ym0v4I0PQBw5uXuCd_clip)"><rect width="201" height="280" x="-100" y="-100" opacity="0"/><path stroke-dasharray="none" stroke-dashoffset="none" d="M0,0L0,80"/></g><path d="M 5.249999999999999 70.9067332602634 L 0 80 L -5.249999999999999 70.9067332602634"/></g></g></g><g opacity="1"><g stroke="#1d1d1d" stroke-width="3.5"><path fill="none" stroke-dasharray="7.143 8.333" stroke-dashoffset="0" d="M0, 0 L0, 100" transform="matrix(1, 0, 0, 1, 1760, 720) scale(1)"/></g></g><g opacity="1"><g transform="matrix(1, 0, 0, 1, 1840, 720) scale(1)"><defs><clipPath id="_export_5_rvp__shape_FlfrYxBD5eLvL3szmtJe__clip"><path d="M-40,-100 h220 v201 h-220 Z"/></clipPath></defs><g fill="none" stroke="#9fa8b2" stroke-linecap="round" stroke-linejoin="round" stroke-width="3.5" pointer-events="none"><g style="clip-path:url(#_export_5_rvp__shape_FlfrYxBD5eLvL3szmtJe__clip)"><rect width="220" height="201" x="-40" y="-100" opacity="0"/><path stroke-dasharray="none" stroke-dashoffset="none" d="M60,0L80,0"/></g><path d="M 76.53589838486225 -1.9999999999999998 L 80 0 L 76.53589838486225 1.9999999999999998"/></g></g></g><g opacity="1"><g transform="matrix(1, 0, 0, 1, 1840, 720) scale(1)"><defs><clipPath id="_export_5_rvp__shape_XNz6M1_0YTr2rIleSPI8L_clip"><path d="M-100,-100 h260 v201 h-260 Z"/></clipPath></defs><g fill="none" stroke="#1d1d1d" stroke-linecap="round" stroke-linejoin="round" stroke-width="3.5" pointer-events="none"><g style="clip-path:url(#_export_5_rvp__shape_XNz6M1_0YTr2rIleSPI8L_clip)"><rect width="260" height="201" x="-100" y="-100" opacity="0"/><path stroke-dasharray="none" stroke-dashoffset="none" d="M0,0L60,0"/></g><path d="M 50.906733260263394 -5.249999999999999 L 60 0 L 50.906733260263394 5.249999999999999"/></g></g></g><g opacity="1"><g stroke="#1d1d1d" stroke-width="3.5"><path fill="none" stroke-dasharray=".037 8.091" stroke-dashoffset="0" d="M0, 0 L40, 80" transform="matrix(1, 0, 0, 1, 1800, 720) scale(1)"/></g></g><g opacity="1"><g stroke="#1d1d1d" stroke-width="3.5"><path fill="none" stroke-dasharray=".036 7.866" stroke-dashoffset="0" d="M0, 0 L90, 30" transform="matrix(1, 0, 0, 1, 1810, 720) scale(1)"/></g></g><g opacity="1"><path fill="none" stroke="#1d1d1d" stroke-width="3.5" d="M0, 0L0, 20" transform="matrix(1, 0, 0, 1, 1790, 790) scale(1)"/></g><g opacity="1"><path fill="none" stroke="#1d1d1d" stroke-width="3.5" d="M0, 0L0, 20" transform="matrix(1, 0, 0, 1, 1800, 790) scale(1)"/></g><g opacity="1"><path fill="none" stroke="#1d1d1d" stroke-width="3.5" d="M0, 0L0, 20" transform="matrix(1, 0, 0, 1, 1880, 790) scale(1)"/></g><g opacity="1"><path fill="none" stroke="#1d1d1d" stroke-width="3.5" d="M0, 0L0, 20" transform="matrix(1, 0, 0, 1, 1890, 790) scale(1)"/></g></svg>