<svg stroke-linecap="round" stroke-linejoin="round" class="tl-container tl-theme__force-sRGB tl-theme__light" data-color-mode="light" style="background-color:#f9fafb" viewBox="1288 518 584 314"><path fill="none" stroke="#1d1d1d" stroke-width="3.5" d="M1320 680v120"/><g transform="translate(1320 680)"><defs><clipPath id="a"><path d="M-100-220h520v320h-520Z"/></clipPath></defs><g fill="none" stroke="#1d1d1d" stroke-width="3.5" pointer-events="none"><path stroke-dashoffset="none" d="m0 0 320-120" style="clip-path:url(#a)"/><path d="M309.6-121.7 320-120l-6.7 8.1"/></g></g><path fill="none" stroke="#1d1d1d" stroke-width="3.5" d="M1320 800h320"/><g transform="translate(1640 680)"><defs><clipPath id="b"><path d="M-100-210h201v430h-201Z"/></clipPath></defs><g fill="none" stroke="#1d1d1d" stroke-width="3.5" pointer-events="none"><path stroke-dashoffset="none" d="M0-110v230" style="clip-path:url(#b)"/><path d="M5.2 111 0 120l-5.2-9"/></g></g><path fill="none" stroke="#1d1d1d" stroke-dasharray=".036 7.236" stroke-width="3.5" d="M1320 680h320"/><text fill="#f9fafb" stroke="#f9fafb" stroke-width="2" alignment-baseline="mathematical" dominant-baseline="mathematical" font-family="'tldraw_draw', sans-serif" font-size="24" transform="translate(1400 650)"><tspan x="0" y="12.5" unicode-bidi="plaintext">ϑ</tspan></text><text fill="#1d1d1d" alignment-baseline="mathematical" dominant-baseline="mathematical" font-family="'tldraw_draw', sans-serif" font-size="24" transform="translate(1400 650)"><tspan x="0" y="12.5" unicode-bidi="plaintext">ϑ</tspan></text><text fill="#f9fafb" stroke="#f9fafb" stroke-width="2" alignment-baseline="mathematical" dominant-baseline="mathematical" font-family="'tldraw_draw', sans-serif" font-size="24" transform="translate(1530 560)"><tspan x="0" y="12.5" unicode-bidi="plaintext">vt</tspan></text><text fill="#1d1d1d" alignment-baseline="mathematical" dominant-baseline="mathematical" font-family="'tldraw_draw', sans-serif" font-size="24" transform="translate(1530 560)"><tspan x="0" y="12.5" unicode-bidi="plaintext">vt</tspan></text><text fill="#f9fafb" stroke="#f9fafb" stroke-width="2" alignment-baseline="mathematical" dominant-baseline="mathematical" font-family="'tldraw_draw', sans-serif" font-size="24" transform="translate(1560 710)"><tspan x="0" y="12.5" unicode-bidi="plaintext">1/2gt²</tspan></text><text fill="#1d1d1d" alignment-baseline="mathematical" dominant-baseline="mathematical" font-family="'tldraw_draw', sans-serif" font-size="24" transform="translate(1560 710)"><tspan x="0" y="12.5" unicode-bidi="plaintext">1/2gt²</tspan></text><g transform="translate(1840 680)"><defs><clipPath id="c"><path d="M-100-210h201v430h-201Z"/></clipPath></defs><g fill="none" stroke="#1d1d1d" stroke-width="3.5" pointer-events="none"><path stroke-dashoffset="none" d="M0-110v230" style="clip-path:url(#c)"/><path d="M5.2 111 0 120l-5.2-9"/></g></g><path fill="none" stroke="#1d1d1d" stroke-dasharray=".036 7.581" stroke-width="3.5" d="M1680 620h160"/><g transform="translate(1680 680)"><defs><clipPath id="d"><path d="M-100-160h360v380h-360Z"/></clipPath></defs><g fill="none" stroke="#1d1d1d" stroke-width="3.5" pointer-events="none"><path stroke-dasharray="7.289 7.745" stroke-dashoffset="3.5" d="m0-60 160 180" style="clip-path:url(#d)"/><path d="M157.9 109.7 160 120l-10-3.3"/></g></g><g transform="translate(1520 680)"><defs><clipPath id="e"><path d="M60-220h360V40H60Z"/></clipPath></defs><g fill="none" stroke="#1d1d1d" stroke-width="3.5" pointer-events="none"><path stroke-dashoffset="none" d="m160-60 160-60" style="clip-path:url(#e)"/><path d="M309.6-121.7 320-120l-6.7 8.1"/></g></g><text fill="#f9fafb" stroke="#f9fafb" stroke-width="2" alignment-baseline="mathematical" dominant-baseline="mathematical" font-family="'tldraw_draw', sans-serif" font-size="24" transform="translate(1750 590)"><tspan x="0" y="12.5" unicode-bidi="plaintext">ϑ</tspan></text><text fill="#1d1d1d" alignment-baseline="mathematical" dominant-baseline="mathematical" font-family="'tldraw_draw', sans-serif" font-size="24" transform="translate(1750 590)"><tspan x="0" y="12.5" unicode-bidi="plaintext">ϑ</tspan></text><text fill="#f9fafb" stroke="#f9fafb" stroke-width="2" alignment-baseline="mathematical" dominant-baseline="mathematical" font-family="'tldraw_draw', sans-serif" font-size="24" transform="translate(1760 550)"><tspan x="0" y="12.5" unicode-bidi="plaintext">v</tspan></text><text fill="#1d1d1d" alignment-baseline="mathematical" dominant-baseline="mathematical" font-family="'tldraw_draw', sans-serif" font-size="24" transform="translate(1760 550)"><tspan x="0" y="12.5" unicode-bidi="plaintext">v</tspan></text><text fill="#f9fafb" stroke="#f9fafb" stroke-width="2" alignment-baseline="mathematical" dominant-baseline="mathematical" font-family="'tldraw_draw', sans-serif" font-size="24" transform="translate(1800 630)"><tspan x="0" y="12.5" unicode-bidi="plaintext">gt</tspan></text><text fill="#1d1d1d" alignment-baseline="mathematical" dominant-baseline="mathematical" font-family="'tldraw_draw', sans-serif" font-size="24" transform="translate(1800 630)"><tspan x="0" y="12.5" unicode-bidi="plaintext">gt</tspan></text></svg>