<svg stroke-linecap="round" stroke-linejoin="round" class="tl-container tl-theme__force-sRGB tl-theme__light" data-color-mode="light" style="background-color:#f9fafb" viewBox="1248 648 424 303.4"><g transform="translate(1360 840)"><defs><clipPath id="a"><path d="M-140-100h360v201h-360Z"/></clipPath></defs><g fill="none" stroke="#1d1d1d" stroke-width="3.5" pointer-events="none"><path stroke-dashoffset="none" d="M-40 0h160" style="clip-path:url(#a)"/><path d="m111-5.2 9 5.2-9 5.2"/></g></g><path fill="none" stroke="#1d1d1d" stroke-dasharray="7.011 7.011" stroke-dashoffset="3.5" stroke-width="3.5" d="M1398.9 839.9a80.5 80.1 0 1 1 161.1 0 80.5 80.1 0 1 1-161.1 0"/><g transform="translate(1480 840)"><defs><clipPath id="b"><path d="M-135.7-168.4H100V100h-235.7Z"/></clipPath></defs><g fill="none" stroke="#1d1d1d" stroke-width="3.5" pointer-events="none"><path stroke-dashoffset="none" d="m0 0-35.7-68.4" style="clip-path:url(#b)"/><path d="m-36.1-57.9.4-10.5 8.9 5.7"/></g></g><path fill="none" stroke="#1d1d1d" stroke-dasharray=".035 7.164" stroke-width="3.5" d="M1280 680h360"/><g transform="translate(1611.383 780)"><defs><clipPath id="c"><path d="M-100-100h201v260h-201Z"/></clipPath></defs><g fill="none" stroke="#1d1d1d" stroke-width="3.5" pointer-events="none"><path stroke-dashoffset="none" d="M0 0v60" style="clip-path:url(#c)"/><path d="M5.2 51 0 60l-5.2-9"/></g></g><g transform="translate(1320 840)"><defs><clipPath id="d"><path d="M-100-260h470v360h-470Z"/></clipPath></defs><g fill="none" stroke="#1d1d1d" stroke-width="3.5" pointer-events="none"><path stroke-dashoffset="none" d="m0 0 270-160" style="clip-path:url(#d)"/><path d="m259.5-159.9 10.5-.1-5.1 9.2"/></g></g><path fill="none" stroke="#1d1d1d" stroke-dasharray=".035 7.164" stroke-width="3.5" d="M1280 840h360"/><g transform="translate(1611.383 740)"><defs><clipPath id="e"><path d="M-100-160h201v260h-201Z"/></clipPath></defs><g fill="none" stroke="#1d1d1d" stroke-width="3.5" pointer-events="none"><path stroke-dashoffset="none" d="M0 0v-60" style="clip-path:url(#e)"/><path d="M-5.2-51 0-60l5.2 9"/></g></g><text fill="#f9fafb" stroke="#f9fafb" stroke-width="2" alignment-baseline="mathematical" dominant-baseline="mathematical" font-family="'tldraw_draw', sans-serif" font-size="24" transform="translate(1599.358 740)scale(1.23493)"><tspan x="0" y="12.5" unicode-bidi="plaintext">d</tspan></text><text fill="#1d1d1d" alignment-baseline="mathematical" dominant-baseline="mathematical" font-family="'tldraw_draw', sans-serif" font-size="24" transform="translate(1599.358 740)scale(1.23493)"><tspan x="0" y="12.5" unicode-bidi="plaintext">d</tspan></text><text fill="#f9fafb" stroke="#f9fafb" stroke-width="2" alignment-baseline="mathematical" dominant-baseline="mathematical" font-family="'tldraw_draw', sans-serif" font-size="24" transform="translate(1510 700)scale(.9262)"><tspan x="0" y="12.5" unicode-bidi="plaintext">v</tspan></text><text fill="#1d1d1d" alignment-baseline="mathematical" dominant-baseline="mathematical" font-family="'tldraw_draw', sans-serif" font-size="24" transform="translate(1510 700)scale(.9262)"><tspan x="0" y="12.5" unicode-bidi="plaintext">v</tspan></text><text fill="#f9fafb" stroke="#f9fafb" stroke-width="2" alignment-baseline="mathematical" dominant-baseline="mathematical" font-family="'tldraw_draw', sans-serif" font-size="18" transform="translate(1360 830)"><tspan x="0" y="9.5" unicode-bidi="plaintext">水</tspan></text><text fill="#1d1d1d" alignment-baseline="mathematical" dominant-baseline="mathematical" font-family="'tldraw_draw', sans-serif" font-size="18" transform="translate(1360 830)"><tspan x="0" y="9.5" unicode-bidi="plaintext">水</tspan></text><text fill="#f9fafb" stroke="#f9fafb" stroke-width="2" alignment-baseline="mathematical" dominant-baseline="mathematical" font-family="'tldraw_draw', sans-serif" font-size="18" transform="translate(1460 790)"><tspan x="0" y="9.5" unicode-bidi="plaintext">船</tspan></text><text fill="#1d1d1d" alignment-baseline="mathematical" dominant-baseline="mathematical" font-family="'tldraw_draw', sans-serif" font-size="18" transform="translate(1460 790)"><tspan x="0" y="9.5" unicode-bidi="plaintext">船</tspan></text><text fill="#f9fafb" stroke="#f9fafb" stroke-width="2" alignment-baseline="mathematical" dominant-baseline="mathematical" font-family="'tldraw_draw', sans-serif" font-size="24" transform="translate(1350 820)"><tspan x="0" y="12.5" unicode-bidi="plaintext">v</tspan></text><text fill="#1d1d1d" alignment-baseline="mathematical" dominant-baseline="mathematical" font-family="'tldraw_draw', sans-serif" font-size="24" transform="translate(1350 820)"><tspan x="0" y="12.5" unicode-bidi="plaintext">v</tspan></text><text fill="#f9fafb" stroke="#f9fafb" stroke-width="2" alignment-baseline="mathematical" dominant-baseline="mathematical" font-family="'tldraw_draw', sans-serif" font-size="24" transform="translate(1450 780)"><tspan x="0" y="12.5" unicode-bidi="plaintext">v</tspan></text><text fill="#1d1d1d" alignment-baseline="mathematical" dominant-baseline="mathematical" font-family="'tldraw_draw', sans-serif" font-size="24" transform="translate(1450 780)"><tspan x="0" y="12.5" unicode-bidi="plaintext">v</tspan></text><text fill="#f9fafb" stroke="#f9fafb" stroke-width="2" alignment-baseline="mathematical" dominant-baseline="mathematical" font-family="'tldraw_draw', sans-serif" font-size="18" transform="translate(1520 710)"><tspan x="0" y="9.5" unicode-bidi="plaintext">合</tspan></text><text fill="#1d1d1d" alignment-baseline="mathematical" dominant-baseline="mathematical" font-family="'tldraw_draw', sans-serif" font-size="18" transform="translate(1520 710)"><tspan x="0" y="9.5" unicode-bidi="plaintext">合</tspan></text></svg>