<svg xml:space="preserve" viewBox="0 0 334.7 403.3"><path fill="#cad8e5" d="M299.5 221.3v149.2h-260z"/><path fill="#e8cdcd" d="m194.7 38.5 104.8 182.8-260 149.2z"/><path fill="none" stroke="#000" stroke-miterlimit="10" d="M299.5 221.3v149.2h-260v-332h260zm-260 149.2 260-149.2m0 0L194.7 38.5"/><path fill="none" stroke="#000" stroke-miterlimit="10" d="M39.5 38.5h24v24h-24zm236 0h24v24h-24zm0 308h24v24h-24zM58.9 329c15.4 7.3 26 23 26 41m181.9-157.7 21-11.7 11.7 20.9-20.9 11.7zM175.5 79.7a45 45 0 0 1-25.9-41"/><text font-family="'Arial-BoldMT'" font-size="88.8" transform="translate(91.716 229.797)">1</text><text font-family="'ArialMT'" font-size="18" transform="translate(65.839 30.331)">cos(α + β)</text><text font-family="'ArialMT'" font-size="18" transform="rotate(-90 134.318 105.485)">sin(α + β)</text><text font-family="'ArialMT'" font-size="18" transform="translate(207.55 30.331)">sin α sin β</text><text font-family="'ArialMT'" font-size="18" transform="rotate(90 115.226 194.108)">cos α sin β</text><text font-family="'ArialMT'" font-size="18" transform="translate(121.442 390.665)">cos α cos β</text><text font-family="'ArialMT'" font-size="18" transform="rotate(90 28.06 281.275)">sin α cos β</text><text font-family="'ArialMT'" font-size="18" transform="translate(104.727 79.677)">α + β</text><text font-family="'ArialMT'" font-size="18" transform="translate(97.927 357.331)">α</text><text font-family="'ArialMT'" font-size="18" transform="translate(80.647 325.702)">β</text><text font-family="'ArialMT'" font-size="18" transform="rotate(-29.552 632.726 -166.02)">cos β</text><text font-family="'ArialMT'" font-size="18" transform="rotate(60.898 6.419 247.103)">sin β</text><path fill="none" stroke="#000" stroke-miterlimit="10" d="M275.5 179.4q10.6-6.8 24-6.9"/><text font-family="'ArialMT'" font-size="18" transform="translate(280.586 165.363)">α</text></svg>