<svg xmlns="http://www.w3.org/2000/svg" xml:space="preserve" viewBox="0 0 334.67 403.33"><path fill="#cad8e5" d="M299.5 221.28V370.5h-260z"/><path fill="#e8cdcd" d="M194.72 38.5 299.5 221.28 39.5 370.5z"/><path fill="none" stroke="#000" stroke-miterlimit="10" d="M299.5 221.28V370.5h-260v-332h260zM39.5 370.5l260-149.22m0 0L194.72 38.5"/><path fill="none" stroke="#000" stroke-miterlimit="10" stroke-width="4" d="M194.72 38.5 39.5 370.5"/><path fill="none" stroke="#000" stroke-miterlimit="10" d="M39.5 38.5h24v24h-24zm236 0h24v24h-24zm0 308h24v24h-24zM58.9 329.002c15.401 7.251 26.061 22.912 26.061 41.063m181.854-157.709 20.918-11.765 11.765 20.919-20.918 11.765zM175.473 79.677C160.174 72.387 149.6 56.78 149.6 38.702"/><text font-family="'Arial-BoldMT'" font-size="88.79" transform="translate(91.716 229.797)">1</text><text font-family="'ArialMT'" font-size="18" transform="translate(65.839 30.331)">cos(α + β)</text><text font-family="'ArialMT'" font-size="18" transform="rotate(-90 134.318 105.485)">sin(α + β)</text><text font-family="'ArialMT'" font-size="18" transform="translate(207.55 30.331)">sin α sin β</text><text font-family="'ArialMT'" font-size="18" transform="rotate(90 115.226 194.108)">cos α sin β</text><text font-family="'ArialMT'" font-size="18" transform="translate(121.442 390.665)">cos α cos β</text><text font-family="'ArialMT'" font-size="18" transform="rotate(90 28.06 281.275)">sin α cos β</text><text font-family="'ArialMT'" font-size="18" transform="translate(104.727 79.677)">α + β</text><text font-family="'ArialMT'" font-size="18" transform="translate(97.927 357.331)">α</text><text font-family="'ArialMT'" font-size="18" transform="translate(80.647 325.702)">β</text><text font-family="'ArialMT'" font-size="18" transform="rotate(-29.552 632.726 -166.02)">cos β</text><text font-family="'ArialMT'" font-size="18" transform="rotate(60.898 6.419 247.103)">sin β</text><path fill="none" stroke="#000" stroke-miterlimit="10" d="M275.469 179.36a45.15 45.15 0 0 1 23.993-6.857"/><text font-family="'ArialMT'" font-size="18" transform="translate(280.586 165.363)">α</text></svg>