<svg xmlns="http://www.w3.org/2000/svg" xmlns:svg="http://www.w3.org/2000/svg" id="svg3089" width="334.667" height="403.334" x="0" y="0" enable-background="new 0 0 334.667 403.334" version="1.1" viewBox="0 0 334.667 403.334" xml:space="preserve"><metadata id="metadata3153"/><polygon style="fill:#cad8e5" id="polygon3095" points="299.5 221.279 299.5 370.499 39.5 370.499"/><polygon style="fill:#e8cdcd" id="polygon3097" points="194.72 38.499 299.5 221.279 39.5 370.499"/><polygon style="fill:none;stroke:#000;stroke-miterlimit:10" id="polygon3101" stroke-miterlimit="10" points="299.5 221.279 299.5 370.499 39.5 370.499 39.5 38.499 194.72 38.499 299.5 38.499"/><line style="fill:none;stroke:#000;stroke-miterlimit:10" id="line3103" x1="39.5" x2="299.5" y1="370.499" y2="221.279" stroke-miterlimit="10"/><line style="fill:none;stroke:#000;stroke-miterlimit:10" id="line3105" x1="299.5" x2="194.72" y1="221.279" y2="38.499" stroke-miterlimit="10"/><line style="fill:none;stroke:#000;stroke-width:1.00000002;stroke-miterlimit:10;stroke-dasharray:none" id="line3107" x1="194.72" x2="39.5" y1="38.499" y2="370.499" stroke-miterlimit="10"/><rect style="fill:none;stroke:#000;stroke-miterlimit:10" id="rect3109" width="24" height="24" x="39.5" y="38.499" stroke-miterlimit="10"/><rect style="fill:none;stroke:#000;stroke-miterlimit:10" id="rect3111" width="24" height="24" x="275.5" y="38.499" stroke-miterlimit="10"/><rect style="fill:none;stroke:#000;stroke-miterlimit:10" id="rect3113" width="24" height="24" x="275.5" y="346.499" stroke-miterlimit="10"/><path style="fill:none;stroke:#000;stroke-miterlimit:10" id="path3115" stroke-miterlimit="10" d="m 58.9,329.002 c 15.401,7.251 26.061,22.912 26.061,41.063"/><rect style="fill:none;stroke:#000;stroke-width:.9999913;stroke-miterlimit:10" id="rect3117" width="24" height="24" x="128.455" y="315.886" stroke-miterlimit="10" transform="matrix(0.87160758,-0.49020426,0.49020426,0.87160758,0,0)"/><path style="fill:none;stroke:#000;stroke-miterlimit:10" id="path3119" stroke-miterlimit="10" d="M 175.473,79.677 C 160.174,72.387 149.6,56.78 149.6,38.702"/><text style="font-size:88.78659821px;font-family:Arial-BoldMT" id="text3121" x="164.509" y="400.638" font-size="88.787">1</text><text style="font-size:18px;font-family:ArialMT" id="text3123" x="45.839" y="30.331" font-size="18">1 - tan α tan β</text><text style="font-size:18px;font-family:ArialMT" id="text3125" x="-249.803" y="28.833" font-size="18" transform="matrix(0,-1,1,0,0,0)">tan α + tan β</text><text style="font-size:18px;font-family:ArialMT" id="text3127" x="207.551" y="30.331" font-size="18">tan α tan β</text><text style="font-size:18px;font-family:ArialMT" id="text3129" x="82.882" y="-309.334" font-size="18" transform="matrix(0,1,-1,0,0,0)">tan β</text><text style="font-size:18px;font-family:ArialMT" id="text3133" x="271.216" y="-309.334" font-size="18" transform="matrix(0,1,-1,0,0,0)">tan α</text><text style="font-size:18px;font-family:ArialMT" id="text3135" x="104.727" y="79.677" font-size="18">α + β</text><text style="font-size:18px;font-family:ArialMT" id="text3137" x="97.927" y="357.331" font-size="18">α</text><text style="font-size:18px;font-family:ArialMT" id="text3139" x="80.647" y="325.702" font-size="18">β</text><text style="font-size:17.99975014px;font-family:ArialMT" id="text3141" x="-.428" y="333.662" font-size="18" transform="matrix(0.86991207,-0.49320684,0.49320684,0.86991207,0,0)">1/cos α</text><text style="font-size:18.00100327px;font-family:ArialMT" id="text3143" x="180.073" y="-133.636" font-size="18" transform="matrix(0.48637291,0.87375133,-0.87375133,0.48637291,0,0)">tan β / cos α</text><path style="fill:none;stroke:#000;stroke-miterlimit:10" id="path3145" stroke-miterlimit="10" d="m 275.469,179.36 c 6.96,-4.346 15.184,-6.857 23.993,-6.857"/><text style="font-size:18px;font-family:ArialMT" id="text3147" x="280.586" y="165.363" font-size="18">α</text><path style="fill:none;stroke:#000;stroke-width:4;stroke-linecap:butt;stroke-linejoin:miter;stroke-miterlimit:4;stroke-opacity:1;stroke-dasharray:none" id="path3984" d="m 39.5,370.49901 260,0" transform="translate(0,-1.2154024e-5)"/><path style="fill:none;stroke:#000;stroke-width:4;stroke-linecap:butt;stroke-linejoin:miter;stroke-miterlimit:4;stroke-opacity:1;stroke-dasharray:none" id="path3984-7" d="m 39.5,38.499 260.00001,0"/></svg>