<svg xml:space="preserve" viewBox="0 0 334.7 403.3"><path d="M299.5 221.3v149.2h-260z" style="fill:#cad8e5"/><path d="m194.7 38.5 104.8 182.8-260 149.2z" style="fill:#e8cdcd"/><path stroke-miterlimit="10" d="M299.5 221.3v149.2h-260v-332h260zm-260 149.2 260-149.2m0 0L194.7 38.5" style="fill:none;stroke:#000;stroke-miterlimit:10"/><path stroke-miterlimit="10" d="M39.5 38.5h24v24h-24zm236 0h24v24h-24zm0 308h24v24h-24zM58.9 329c15.4 7.3 26 23 26 41" style="fill:none;stroke:#000;stroke-miterlimit:10"/><path stroke-miterlimit="10" d="M128.5 315.9h24v24h-24z" style="fill:none;stroke:#000;stroke-width:.9999913;stroke-miterlimit:10" transform="rotate(-29.354)"/><path stroke-miterlimit="10" d="M175.5 79.7a45 45 0 0 1-25.9-41" style="fill:none;stroke:#000;stroke-miterlimit:10"/><text x="164.5" y="400.6" font-size="88.8" style="font-size:88.78659821px;font-family:Arial-BoldMT">1</text><text x="45.8" y="30.3" font-size="18" style="font-size:18px;font-family:ArialMT">1 - tan α tan β</text><text x="-249.8" y="28.8" font-size="18" style="font-size:18px;font-family:ArialMT" transform="rotate(-90)">tan α + tan β</text><text x="207.6" y="30.3" font-size="18" style="font-size:18px;font-family:ArialMT">tan α tan β</text><text x="82.9" y="-309.3" font-size="18" style="font-size:18px;font-family:ArialMT" transform="rotate(90)">tan β</text><text x="271.2" y="-309.3" font-size="18" style="font-size:18px;font-family:ArialMT" transform="rotate(90)">tan α</text><text x="104.7" y="79.7" font-size="18" style="font-size:18px;font-family:ArialMT">α + β</text><text x="97.9" y="357.3" font-size="18" style="font-size:18px;font-family:ArialMT">α</text><text x="80.6" y="325.7" font-size="18" style="font-size:18px;font-family:ArialMT">β</text><text x="-0.4" y="333.7" font-size="18" style="font-size:17.99975014px;font-family:ArialMT" transform="rotate(-29.552)">1/cos α</text><text x="180.1" y="-133.6" font-size="18" style="font-size:18.00100327px;font-family:ArialMT" transform="rotate(60.898)">tan β / cos α</text><path stroke-miterlimit="10" d="M275.5 179.4q10.6-6.8 24-6.9" style="fill:none;stroke:#000;stroke-miterlimit:10"/><text x="280.6" y="165.4" font-size="18" style="font-size:18px;font-family:ArialMT">α</text><path d="M39.5 370.5h260m-260-332h260" style="fill:none;stroke:#000;stroke-width:4;stroke-linecap:butt;stroke-linejoin:miter;stroke-miterlimit:4;stroke-opacity:1;stroke-dasharray:none"/></svg>