<svg xmlns="http://www.w3.org/2000/svg" xml:space="preserve" viewBox="0 0 215 305"><g font-size="16"><text font-family="'Arial-ItalicMT'" transform="translate(82.5 220)">O</text><text font-family="'Arial-ItalicMT'" transform="translate(106 198)">α</text><text font-family="'Arial-ItalicMT'" transform="translate(117 136.333)">P</text><text font-family="'ArialMT'" transform="translate(139 304)">B</text><text font-family="'Arial-ItalicMT'" transform="translate(139 200)">M</text><text font-family="'Arial-ItalicMT'" transform="translate(190 213.333)">A</text><text font-family="'Arial-ItalicMT'" transform="translate(80 140)">G</text><text font-family="'Arial-ItalicMT'" transform="translate(80 110)">H</text><text font-family="'Arial-ItalicMT'" transform="translate(128 110)">K</text><text font-family="'Arial-ItalicMT'" transform="translate(190 20)">T</text><text font-family="'ArialMT'" transform="translate(107 160)">1</text></g><line x1="134" x2="134" y1="288" y2="205" fill="none" stroke="gray" stroke-dasharray="8 3" stroke-miterlimit="8" stroke-width="1.415"/><g fill="none" stroke="#000" stroke-miterlimit="8"><circle cx="95" cy="205" r="91.7" stroke-width="1.415"/><path stroke-width="3" d="M186.7 205c.003-35.542-20.533-67.884-52.7-83"/><line x1="95" x2="134" y1="205" y2="122" stroke-width="1.415"/><line x1="95" x2="134" y1="205" y2="288" stroke-dasharray="8 3" stroke-width="1.415"/><path stroke-width="1.415" d="M107 205c0-4-3-9-7-11"/><polyline stroke-width="1.415" points="85 205 85 195 95 195"/><polyline stroke-width="1.415" points="124 205 124 195 134 195"/><polyline stroke-width="1.415" points="176.7 205 176.7 195 186.7 195"/><polyline stroke-width="1.415" points="95 132 105 132 105 122"/><polyline stroke-width="1.415" points="95 103 105 103 105 113"/><line x1="95" x2="70" y1="205" y2="205" stroke-dasharray="3 4" stroke-width="1.415"/><line x1="95" x2="95" y1="122" y2="90" stroke-dasharray="3 4" stroke-width="1.415"/></g><line x1="134" x2="187" y1="122" y2="10" fill="none" stroke="#ff69b4" stroke-miterlimit="8" stroke-width="1.415"/><line x1="132.5" x2="136.5" y1="122" y2="113.3" fill="none" stroke="#006400" stroke-miterlimit="8" stroke-width="1.415"/><line x1="134" x2="186.7" y1="122" y2="205" fill="none" stroke="silver" stroke-miterlimit="8" stroke-width="1.415"/><line x1="95" x2="134" y1="122" y2="122" fill="none" stroke="#00f" stroke-miterlimit="8" stroke-width="1.415"/><line x1="95" x2="134" y1="205" y2="205" fill="none" stroke="#00f" stroke-miterlimit="8" stroke-width="1.415"/><line x1="134" x2="186.7" y1="205" y2="205" fill="none" stroke="green" stroke-miterlimit="8" stroke-width="1.415"/><line x1="95" x2="138" y1="113.3" y2="113.3" fill="none" stroke="#ff8c00" stroke-miterlimit="8" stroke-width="1.415"/><line x1="186.7" x2="186.7" y1="205" y2="10" fill="none" stroke="tan" stroke-miterlimit="8" stroke-width="1.415"/><line x1="134" x2="134" y1="205" y2="122" fill="none" stroke="red" stroke-miterlimit="8" stroke-width="1.415"/><line x1="95" x2="95" y1="205" y2="122" fill="none" stroke="red" stroke-miterlimit="8" stroke-width="1.415"/><line x1="95" x2="95" y1="122" y2="113.3" fill="none" stroke="#0ff" stroke-miterlimit="8" stroke-width="1.415"/><text font-family="'ArialMT'" font-size="14" transform="translate(160 140)">arc</text><text fill="red" font-family="'ArialMT'" font-size="14" transform="translate(136 170)">sin</text><text fill="#0ff" font-family="'ArialMT'" font-size="14" transform="translate(69 125)">cvs</text><text fill="#006400" font-family="'ArialMT'" font-size="14" transform="translate(140 123)">excsc</text><text fill="#00f" font-family="'ArialMT'" font-size="14" transform="translate(106 218)">cos</text><text fill="green" font-family="'ArialMT'" font-size="14" transform="translate(139 218)">versin</text><text fill="#ff69b4" font-family="'ArialMT'" font-size="14" transform="translate(118 70)">exsec</text><text fill="#ff8c00" font-family="'ArialMT'" font-size="14" transform="translate(107 111)">cot</text><text fill="tan" font-family="'ArialMT'" font-size="14" transform="translate(190 120)">tan</text><text transform="translate(20 30)"><tspan x="0" y="0" fill="#008b8b" font-family="'ArialMT'" font-size="14">sec = </tspan><tspan x="37.741" y="0" fill="#008b8b" font-family="'Arial-ItalicMT'" font-size="14">OT</tspan></text><text transform="translate(20 45)"><tspan x="0" y="0" fill="pink" font-family="'ArialMT'" font-size="14">csc = </tspan><tspan x="36.955" y="0" fill="pink" font-family="'Arial-ItalicMT'" font-size="14">OK</tspan></text><text transform="translate(20 60)"><tspan x="0" y="0" fill="#ff69b4" font-family="'ArialMT'" font-size="14">exsec = </tspan><tspan x="52.527" y="0" fill="#ff69b4" font-family="'Arial-ItalicMT'" font-size="14">PT</tspan></text><text transform="translate(20 75)"><tspan x="0" y="0" fill="#006400" font-family="'ArialMT'" font-size="14">excsc = </tspan><tspan x="51.741" y="0" fill="#006400" font-family="'Arial-ItalicMT'" font-size="14">PK</tspan></text><text fill="silver" font-family="'ArialMT'" font-size="14" transform="rotate(56 -67.0648 223.6781)">crd</text></svg>