<svg stroke-linecap="round" stroke-linejoin="round" class="tl-container tl-theme__force-sRGB tl-theme__light" data-color-mode="light" style="background-color:#f9fafb" viewBox="1688 768 378.1 272.6"><text fill="#f9fafb" stroke="#f9fafb" stroke-width="2" alignment-baseline="mathematical" dominant-baseline="mathematical" font-family="'tldraw_serif', serif" font-size="36" transform="translate(1720 800)"><tspan x="0" y="19" unicode-bidi="plaintext">sinα+cosα</tspan></text><text fill="#1d1d1d" alignment-baseline="mathematical" dominant-baseline="mathematical" font-family="'tldraw_serif', serif" font-size="36" transform="translate(1720 800)"><tspan x="0" y="19" unicode-bidi="plaintext">sinα+cosα</tspan></text><g transform="translate(1750 840)"><defs><clipPath id="a"><path d="M-100-90h201v310h-201Z"/></clipPath></defs><g fill="none" stroke="#1d1d1d" stroke-width="5" pointer-events="none"><path stroke-dashoffset="none" d="M0 10v110" style="clip-path:url(#a)"/><path d="M7.5 107 0 120l-7.5-13"/></g></g><text fill="#f9fafb" stroke="#f9fafb" stroke-width="2" alignment-baseline="mathematical" dominant-baseline="mathematical" font-family="'tldraw_serif', serif" font-size="36" transform="translate(1720 960)"><tspan x="0" y="19" unicode-bidi="plaintext">sinα-cosα</tspan></text><text fill="#1d1d1d" alignment-baseline="mathematical" dominant-baseline="mathematical" font-family="'tldraw_serif', serif" font-size="36" transform="translate(1720 960)"><tspan x="0" y="19" unicode-bidi="plaintext">sinα-cosα</tspan></text><g transform="translate(1820 960)"><defs><clipPath id="b"><path d="M-80-210h201v310H-80Z"/></clipPath></defs><g fill="none" stroke="#1d1d1d" stroke-width="5" pointer-events="none"><path stroke-dashoffset="none" d="M20 0v-110" style="clip-path:url(#b)"/><path d="m12.5-97 7.5-13 7.5 13"/></g></g><text fill="#f9fafb" stroke="#f9fafb" stroke-width="2" alignment-baseline="mathematical" dominant-baseline="mathematical" font-family="'tldraw_serif', serif" font-size="36" transform="translate(1880 880)"><tspan x="0" y="19" unicode-bidi="plaintext">sinαcosα</tspan></text><text fill="#1d1d1d" alignment-baseline="mathematical" dominant-baseline="mathematical" font-family="'tldraw_serif', serif" font-size="36" transform="translate(1880 880)"><tspan x="0" y="19" unicode-bidi="plaintext">sinαcosα</tspan></text><g transform="translate(1900 840)"><defs><clipPath id="c"><path d="M-100-100h260v240h-260Z"/></clipPath></defs><g fill="none" stroke="#1d1d1d" stroke-width="5" pointer-events="none"><path stroke-dashoffset="none" d="m0 0 60 40" style="clip-path:url(#c)"/><path d="M53.6 27 60 40l-14.4-1"/></g></g><g transform="translate(1890 980)"><defs><clipPath id="d"><path d="M-100-150h270v250h-270Z"/></clipPath></defs><g fill="none" stroke="#1d1d1d" stroke-width="5" pointer-events="none"><path stroke-dashoffset="none" d="m0 0 70-50" style="clip-path:url(#d)"/><path d="M55-48.6 70-50l-6.2 13.7"/></g></g></svg>