<svg xmlns="http://www.w3.org/2000/svg" width="1455.179" height="364" stroke-linecap="round" stroke-linejoin="round" class="tl-container tl-theme__force-sRGB tl-theme__light" data-color-mode="light" direction="ltr" viewBox="1566.821 258 1455.179 364" style="background-color:#f9fafb"><g opacity="1"><path fill="none" stroke="#1d1d1d" stroke-width="10" d="M0,120.7344676865683 a120.58973192038509,120.7344676865683,0,1,1,241.17946384077018,0a120.58973192038509,120.7344676865683,0,1,1,-241.17946384077018,0" transform="matrix(1, 0, 0, 1, 1598.8205, 319.4114)"/></g><g opacity="1"><path fill="none" stroke="#1d1d1d" stroke-width="10" d="M0,120.69437987999521 a120.12770227817357,120.69437987999521,0,1,1,240.25540455634714,0a120.12770227817357,120.69437987999521,0,1,1,-240.25540455634714,0" transform="matrix(1, 0, 0, 1, 1960.0128, 319.5842)"/></g><g opacity="1"><path fill="none" stroke="#1d1d1d" stroke-width="3.5" d="M0, 0L39.85, 0" transform="matrix(1, 0, 0, 1, 2560.2677, 439.8801) scale(1)"/></g><g opacity="1"><path fill="none" stroke="#1d1d1d" stroke-width="3.5" d="M0, 0L0, 80.14" transform="matrix(1, 0, 0, 1, 2600.1147, 439.8801) scale(1)"/></g><g opacity="1"><path fill="none" stroke="#1d1d1d" stroke-width="3.5" d="M-19.92, 0L39.85, 0" transform="matrix(1, 0, 0, 1, 2590.153, 520.025) scale(1)"/></g><g opacity="1"><path fill="none" stroke="#1d1d1d" stroke-width="3.5" d="M-9.96, 0L29.89, 0" transform="matrix(1, 0, 0, 1, 2590.153, 530.0431) scale(1)"/></g><g opacity="1"><path fill="none" stroke="#1d1d1d" stroke-width="3.5" d="M0, 0L19.92, 0" transform="matrix(1, 0, 0, 1, 2590.153, 540.0613) scale(1)"/></g><g opacity="1"><path fill="none" stroke="#1d1d1d" stroke-width="2" d="M0, 0L20, 0" transform="matrix(1, 0, 0, 1, 2070, 440) scale(1)"/></g><g opacity="1"><path fill="none" stroke="#1d1d1d" stroke-width="2" d="M0, 0L0, 20" transform="matrix(1, 0, 0, 1, 2080, 430) scale(1)"/></g><g opacity="1"><path fill="none" stroke="#1d1d1d" stroke-width="2" d="M0,10 a10,10,0,1,1,20,0a10,10,0,1,1,-20,0" transform="matrix(1, 0, 0, 1, 2070, 430)"/></g><g opacity="1"><g transform="matrix(1, 0, 0, 1, 1870, 440) scale(1)"><defs><clipPath id="_export_8_r1a5__shape_AO9xM69S1YsBDMVxG7TEa_clip"><path d="M-100,-100 h240 v201 h-240 Z"/></clipPath></defs><g fill="none" stroke="#1d1d1d" stroke-linecap="round" stroke-linejoin="round" stroke-width="3.5" pointer-events="none"><g style="clip-path:url(#_export_8_r1a5__shape_AO9xM69S1YsBDMVxG7TEa_clip)"><rect width="240" height="201" x="-100" y="-100" opacity="0"/><path stroke-dasharray="none" stroke-dashoffset="none" d="M0,0L40,0"/></g><path d="M 33.07179676972449 -3.9999999999999996 L 40 0 L 33.07179676972449 3.9999999999999996"/></g></g></g><g opacity="1"><path fill="none" stroke="#1d1d1d" stroke-width="2" d="M0, 0L20, 0" transform="matrix(1, 0, 0, 1, 2070, 550) scale(1)"/></g><g opacity="1"><path fill="none" stroke="#1d1d1d" stroke-width="2" d="M0, 0L20, 0" transform="matrix(1, 0, 0, 1, 2070, 330) scale(1)"/></g><g opacity="1"><path fill="none" stroke="#1d1d1d" stroke-width="2" d="M0, 0L20, 0" transform="matrix(1, 0, 0, 1, 2110, 340) scale(1)"/></g><g opacity="1"><path fill="none" stroke="#1d1d1d" stroke-width="2" d="M-10, 0L10, 0" transform="matrix(1, 0, 0, 1, 2140, 360) scale(1)"/></g><g opacity="1"><path fill="none" stroke="#1d1d1d" stroke-width="2" d="M0, 0L20, 0" transform="matrix(1, 0, 0, 1, 2110, 540) scale(1)"/></g><g opacity="1"><path fill="none" stroke="#1d1d1d" stroke-width="2" d="M-10, 0L10, 0" transform="matrix(1, 0, 0, 1, 2140, 520) scale(1)"/></g><g opacity="1"><path fill="none" stroke="#1d1d1d" stroke-width="2" d="M0, 0L20, 0" transform="matrix(1, 0, 0, 1, 2150, 500) scale(1)"/></g><g opacity="1"><path fill="none" stroke="#1d1d1d" stroke-width="2" d="M0, 0L20, 0" transform="matrix(1, 0, 0, 1, 2160, 480) scale(1)"/></g><g opacity="1"><path fill="none" stroke="#1d1d1d" stroke-width="2" d="M0, 0L20, 0" transform="matrix(1, 0, 0, 1, 2170, 460) scale(1)"/></g><g opacity="1"><path fill="none" stroke="#1d1d1d" stroke-width="2" d="M0, 0L20, 0" transform="matrix(1, 0, 0, 1, 2170, 440) scale(1)"/></g><g opacity="1"><path fill="none" stroke="#1d1d1d" stroke-width="2" d="M0, 0L20, 0" transform="matrix(1, 0, 0, 1, 2170, 420) scale(1)"/></g><g opacity="1"><path fill="none" stroke="#1d1d1d" stroke-width="2" d="M0, 0L20, 0" transform="matrix(1, 0, 0, 1, 2160, 400) scale(1)"/></g><g opacity="1"><path fill="none" stroke="#1d1d1d" stroke-width="2" d="M0, 0L20, 0" transform="matrix(1, 0, 0, 1, 2150, 380) scale(1)"/></g><g opacity="1"><path fill="none" stroke="#1d1d1d" stroke-width="2" d="M0, 0L20, 0" transform="matrix(1, 0, 0, 1, 2040, 540) scale(1)"/></g><g opacity="1"><path fill="none" stroke="#1d1d1d" stroke-width="2" d="M0, 0L20, 0" transform="matrix(1, 0, 0, 1, 2010, 520) scale(1)"/></g><g opacity="1"><path fill="none" stroke="#1d1d1d" stroke-width="2" d="M0, 0L20, 0" transform="matrix(1, 0, 0, 1, 1990, 500) scale(1)"/></g><g opacity="1"><path fill="none" stroke="#1d1d1d" stroke-width="2" d="M0, 0L20, 0" transform="matrix(1, 0, 0, 1, 1980, 480) scale(1)"/></g><g opacity="1"><path fill="none" stroke="#1d1d1d" stroke-width="2" d="M0, 0L20, 0" transform="matrix(1, 0, 0, 1, 1970, 460) scale(1)"/></g><g opacity="1"><path fill="none" stroke="#1d1d1d" stroke-width="2" d="M0, 0L20, 0" transform="matrix(1, 0, 0, 1, 1970, 440) scale(1)"/></g><g opacity="1"><path fill="none" stroke="#1d1d1d" stroke-width="2" d="M0, 0L20, 0" transform="matrix(1, 0, 0, 1, 1970, 420) scale(1)"/></g><g opacity="1"><path fill="none" stroke="#1d1d1d" stroke-width="2" d="M0, 0L20, 0" transform="matrix(1, 0, 0, 1, 1980, 400) scale(1)"/></g><g opacity="1"><path fill="none" stroke="#1d1d1d" stroke-width="2" d="M0, 0L20, 0" transform="matrix(1, 0, 0, 1, 1990, 380) scale(1)"/></g><g opacity="1"><path fill="none" stroke="#1d1d1d" stroke-width="2" d="M0, 0L20, 0" transform="matrix(1, 0, 0, 1, 2010, 360) scale(1)"/></g><g opacity="1"><path fill="none" stroke="#1d1d1d" stroke-width="2" d="M0, 0L20, 0" transform="matrix(1, 0, 0, 1, 2040, 340) scale(1)"/></g><g opacity="1"><path fill="none" stroke="#1d1d1d" stroke-width="2" d="M0, 0L20, 0" transform="matrix(1, 0, 0, 1, 2070, 300) scale(1)"/></g><g opacity="1"><path fill="none" stroke="#1d1d1d" stroke-width="2" d="M0, 0L0, 20" transform="matrix(1, 0, 0, 1, 2080, 290) scale(1)"/></g><g opacity="1"><path fill="none" stroke="#1d1d1d" stroke-width="2" d="M0, 0L20, 0" transform="matrix(1, 0, 0, 1, 2070, 580) scale(1)"/></g><g opacity="1"><path fill="none" stroke="#1d1d1d" stroke-width="2" d="M0, 0L0, 20" transform="matrix(1, 0, 0, 1, 2080, 570) scale(1)"/></g><g opacity="1"><path fill="none" stroke="#1d1d1d" stroke-width="2" d="M0, 0L20, 0" transform="matrix(1, 0, 0, 1, 1930, 440) scale(1)"/></g><g opacity="1"><path fill="none" stroke="#1d1d1d" stroke-width="2" d="M0, 0L0, 20" transform="matrix(1, 0, 0, 1, 1940, 430) scale(1)"/></g><g opacity="1"><path fill="none" stroke="#1d1d1d" stroke-width="2" d="M0, 0L20, 0" transform="matrix(1, 0, 0, 1, 2210, 440) scale(1)"/></g><g opacity="1"><path fill="none" stroke="#1d1d1d" stroke-width="2" d="M0, 0L0, 20" transform="matrix(1, 0, 0, 1, 2220, 430) scale(1)"/></g><g opacity="1"><path fill="none" stroke="#1d1d1d" stroke-width="2" d="M0, 0L20, 0" transform="matrix(1, 0, 0, 1, 2120, 310) scale(1)"/></g><g opacity="1"><path fill="none" stroke="#1d1d1d" stroke-width="2" d="M0, 0L0, 20" transform="matrix(1, 0, 0, 1, 2130, 300) scale(1)"/></g><g opacity="1"><path fill="none" stroke="#1d1d1d" stroke-width="2" d="M0, 0L20, 0" transform="matrix(1, 0, 0, 1, 2020, 310) scale(1)"/></g><g opacity="1"><path fill="none" stroke="#1d1d1d" stroke-width="2" d="M0, 0L0, 20" transform="matrix(1, 0, 0, 1, 2030, 300) scale(1)"/></g><g opacity="1"><path fill="none" stroke="#1d1d1d" stroke-width="2" d="M0, 0L20, 0" transform="matrix(1, 0, 0, 1, 1980, 330) scale(1)"/></g><g opacity="1"><path fill="none" stroke="#1d1d1d" stroke-width="2" d="M0, 0L0, 20" transform="matrix(1, 0, 0, 1, 1990, 320) scale(1)"/></g><g opacity="1"><path fill="none" stroke="#1d1d1d" stroke-width="2" d="M0, 0L20, 0" transform="matrix(1, 0, 0, 1, 2160, 330) scale(1)"/></g><g opacity="1"><path fill="none" stroke="#1d1d1d" stroke-width="2" d="M0, 0L0, 20" transform="matrix(1, 0, 0, 1, 2170, 320) scale(1)"/></g><g opacity="1"><path fill="none" stroke="#1d1d1d" stroke-width="2" d="M0, 0L20, 0" transform="matrix(1, 0, 0, 1, 1950, 360) scale(1)"/></g><g opacity="1"><path fill="none" stroke="#1d1d1d" stroke-width="2" d="M0, 0L0, 20" transform="matrix(1, 0, 0, 1, 1960, 350) scale(1)"/></g><g opacity="1"><path fill="none" stroke="#1d1d1d" stroke-width="2" d="M0, 0L20, 0" transform="matrix(1, 0, 0, 1, 2190, 360) scale(1)"/></g><g opacity="1"><path fill="none" stroke="#1d1d1d" stroke-width="2" d="M0, 0L0, 20" transform="matrix(1, 0, 0, 1, 2200, 350) scale(1)"/></g><g opacity="1"><path fill="none" stroke="#1d1d1d" stroke-width="2" d="M0, 0L20, 0" transform="matrix(1, 0, 0, 1, 1930, 400) scale(1)"/></g><g opacity="1"><path fill="none" stroke="#1d1d1d" stroke-width="2" d="M0, 0L0, 20" transform="matrix(1, 0, 0, 1, 1940, 390) scale(1)"/></g><g opacity="1"><path fill="none" stroke="#1d1d1d" stroke-width="2" d="M0, 0L20, 0" transform="matrix(1, 0, 0, 1, 2210, 400) scale(1)"/></g><g opacity="1"><path fill="none" stroke="#1d1d1d" stroke-width="2" d="M0, 0L0, 20" transform="matrix(1, 0, 0, 1, 2220, 390) scale(1)"/></g><g opacity="1"><path fill="none" stroke="#1d1d1d" stroke-width="2" d="M0, 0L20, 0" transform="matrix(1, 0, 0, 1, 1930, 480) scale(1)"/></g><g opacity="1"><path fill="none" stroke="#1d1d1d" stroke-width="2" d="M0, 0L0, 20" transform="matrix(1, 0, 0, 1, 1940, 470) scale(1)"/></g><g opacity="1"><path fill="none" stroke="#1d1d1d" stroke-width="2" d="M0, 0L20, 0" transform="matrix(1, 0, 0, 1, 2210, 480) scale(1)"/></g><g opacity="1"><path fill="none" stroke="#1d1d1d" stroke-width="2" d="M0, 0L0, 20" transform="matrix(1, 0, 0, 1, 2220, 470) scale(1)"/></g><g opacity="1"><path fill="none" stroke="#1d1d1d" stroke-width="2" d="M0, 0L20, 0" transform="matrix(1, 0, 0, 1, 1950, 510) scale(1)"/></g><g opacity="1"><path fill="none" stroke="#1d1d1d" stroke-width="2" d="M0, 0L0, 20" transform="matrix(1, 0, 0, 1, 1960, 500) scale(1)"/></g><g opacity="1"><path fill="none" stroke="#1d1d1d" stroke-width="2" d="M0, 0L20, 0" transform="matrix(1, 0, 0, 1, 2190, 510) scale(1)"/></g><g opacity="1"><path fill="none" stroke="#1d1d1d" stroke-width="2" d="M0, 0L0, 20" transform="matrix(1, 0, 0, 1, 2200, 500) scale(1)"/></g><g opacity="1"><path fill="none" stroke="#1d1d1d" stroke-width="2" d="M0, 0L20, 0" transform="matrix(1, 0, 0, 1, 1980, 550) scale(1)"/></g><g opacity="1"><path fill="none" stroke="#1d1d1d" stroke-width="2" d="M0, 0L0, 20" transform="matrix(1, 0, 0, 1, 1990, 540) scale(1)"/></g><g opacity="1"><path fill="none" stroke="#1d1d1d" stroke-width="2" d="M0, 0L20, 0" transform="matrix(1, 0, 0, 1, 2160, 550) scale(1)"/></g><g opacity="1"><path fill="none" stroke="#1d1d1d" stroke-width="2" d="M0, 0L0, 20" transform="matrix(1, 0, 0, 1, 2170, 540) scale(1)"/></g><g opacity="1"><path fill="none" stroke="#1d1d1d" stroke-width="2" d="M0, 0L20, 0" transform="matrix(1, 0, 0, 1, 2020, 570) scale(1)"/></g><g opacity="1"><path fill="none" stroke="#1d1d1d" stroke-width="2" d="M0, 0L0, 20" transform="matrix(1, 0, 0, 1, 2030, 560) scale(1)"/></g><g opacity="1"><path fill="none" stroke="#1d1d1d" stroke-width="2" d="M-10, 0L10, 0" transform="matrix(1, 0, 0, 1, 2130, 570) scale(1)"/></g><g opacity="1"><path fill="none" stroke="#1d1d1d" stroke-width="2" d="M-10, 0L-10, 20" transform="matrix(1, 0, 0, 1, 2140, 560) scale(1)"/></g><g opacity="1"><path fill="none" stroke="#1d1d1d" stroke-width="10" d="M0,120.69437987999521 a120.12770227817357,120.69437987999521,0,1,1,240.25540455634714,0a120.12770227817357,120.69437987999521,0,1,1,-240.25540455634714,0" transform="matrix(1, 0, 0, 1, 2320.0128, 319.5842)"/></g><g opacity="1"><path fill="none" stroke="#1d1d1d" stroke-width="2" d="M0, 0L20, 0" transform="matrix(1, 0, 0, 1, 2430, 440) scale(1)"/></g><g opacity="1"><path fill="none" stroke="#1d1d1d" stroke-width="2" d="M0, 0L0, 20" transform="matrix(1, 0, 0, 1, 2440, 430) scale(1)"/></g><g opacity="1"><path fill="none" stroke="#1d1d1d" stroke-width="2" d="M0,10 a10,10,0,1,1,20,0a10,10,0,1,1,-20,0" transform="matrix(1, 0, 0, 1, 2430, 430)"/></g><g opacity="1"><path fill="none" stroke="#1d1d1d" stroke-width="2" d="M0, 0L20, 0" transform="matrix(1, 0, 0, 1, 2430, 550) scale(1)"/></g><g opacity="1"><path fill="none" stroke="#1d1d1d" stroke-width="2" d="M0, 0L20, 0" transform="matrix(1, 0, 0, 1, 2430, 330) scale(1)"/></g><g opacity="1"><path fill="none" stroke="#1d1d1d" stroke-width="2" d="M0, 0L20, 0" transform="matrix(1, 0, 0, 1, 2470, 340) scale(1)"/></g><g opacity="1"><path fill="none" stroke="#1d1d1d" stroke-width="2" d="M-10, 0L10, 0" transform="matrix(1, 0, 0, 1, 2500, 360) scale(1)"/></g><g opacity="1"><path fill="none" stroke="#1d1d1d" stroke-width="2" d="M0, 0L20, 0" transform="matrix(1, 0, 0, 1, 2470, 540) scale(1)"/></g><g opacity="1"><path fill="none" stroke="#1d1d1d" stroke-width="2" d="M-10, 0L10, 0" transform="matrix(1, 0, 0, 1, 2500, 520) scale(1)"/></g><g opacity="1"><path fill="none" stroke="#1d1d1d" stroke-width="2" d="M0, 0L20, 0" transform="matrix(1, 0, 0, 1, 2510, 500) scale(1)"/></g><g opacity="1"><path fill="none" stroke="#1d1d1d" stroke-width="2" d="M0, 0L20, 0" transform="matrix(1, 0, 0, 1, 2520, 480) scale(1)"/></g><g opacity="1"><path fill="none" stroke="#1d1d1d" stroke-width="2" d="M0, 0L20, 0" transform="matrix(1, 0, 0, 1, 2530, 460) scale(1)"/></g><g opacity="1"><path fill="none" stroke="#1d1d1d" stroke-width="2" d="M0, 0L20, 0" transform="matrix(1, 0, 0, 1, 2530, 440) scale(1)"/></g><g opacity="1"><path fill="none" stroke="#1d1d1d" stroke-width="2" d="M0, 0L20, 0" transform="matrix(1, 0, 0, 1, 2530, 420) scale(1)"/></g><g opacity="1"><path fill="none" stroke="#1d1d1d" stroke-width="2" d="M0, 0L20, 0" transform="matrix(1, 0, 0, 1, 2520, 400) scale(1)"/></g><g opacity="1"><path fill="none" stroke="#1d1d1d" stroke-width="2" d="M0, 0L20, 0" transform="matrix(1, 0, 0, 1, 2510, 380) scale(1)"/></g><g opacity="1"><path fill="none" stroke="#1d1d1d" stroke-width="2" d="M0, 0L20, 0" transform="matrix(1, 0, 0, 1, 2400, 540) scale(1)"/></g><g opacity="1"><path fill="none" stroke="#1d1d1d" stroke-width="2" d="M0, 0L20, 0" transform="matrix(1, 0, 0, 1, 2370, 520) scale(1)"/></g><g opacity="1"><path fill="none" stroke="#1d1d1d" stroke-width="2" d="M0, 0L20, 0" transform="matrix(1, 0, 0, 1, 2350, 500) scale(1)"/></g><g opacity="1"><path fill="none" stroke="#1d1d1d" stroke-width="2" d="M0, 0L20, 0" transform="matrix(1, 0, 0, 1, 2340, 480) scale(1)"/></g><g opacity="1"><path fill="none" stroke="#1d1d1d" stroke-width="2" d="M0, 0L20, 0" transform="matrix(1, 0, 0, 1, 2330, 460) scale(1)"/></g><g opacity="1"><path fill="none" stroke="#1d1d1d" stroke-width="2" d="M0, 0L20, 0" transform="matrix(1, 0, 0, 1, 2330, 440) scale(1)"/></g><g opacity="1"><path fill="none" stroke="#1d1d1d" stroke-width="2" d="M0, 0L20, 0" transform="matrix(1, 0, 0, 1, 2330, 420) scale(1)"/></g><g opacity="1"><path fill="none" stroke="#1d1d1d" stroke-width="2" d="M0, 0L20, 0" transform="matrix(1, 0, 0, 1, 2340, 400) scale(1)"/></g><g opacity="1"><path fill="none" stroke="#1d1d1d" stroke-width="2" d="M0, 0L20, 0" transform="matrix(1, 0, 0, 1, 2350, 380) scale(1)"/></g><g opacity="1"><path fill="none" stroke="#1d1d1d" stroke-width="2" d="M0, 0L20, 0" transform="matrix(1, 0, 0, 1, 2370, 360) scale(1)"/></g><g opacity="1"><path fill="none" stroke="#1d1d1d" stroke-width="2" d="M0, 0L20, 0" transform="matrix(1, 0, 0, 1, 2400, 340) scale(1)"/></g><g opacity="1"><path fill="none" stroke="#1d1d1d" stroke-width="10" d="M0,120.69437987999521 a120.12770227817357,120.69437987999521,0,1,1,240.25540455634714,0a120.12770227817357,120.69437987999521,0,1,1,-240.25540455634714,0" transform="matrix(1, 0, 0, 1, 2720.0128, 319.5842)"/></g><g opacity="1"><path fill="none" stroke="#1d1d1d" stroke-width="2" d="M0, 0L20, 0" transform="matrix(1, 0, 0, 1, 2830, 300) scale(1)"/></g><g opacity="1"><path fill="none" stroke="#1d1d1d" stroke-width="2" d="M0, 0L20, 0" transform="matrix(1, 0, 0, 1, 2830, 580) scale(1)"/></g><g opacity="1"><path fill="none" stroke="#1d1d1d" stroke-width="2" d="M0, 0L20, 0" transform="matrix(1, 0, 0, 1, 2690, 440) scale(1)"/></g><g opacity="1"><path fill="none" stroke="#1d1d1d" stroke-width="2" d="M0, 0L20, 0" transform="matrix(1, 0, 0, 1, 2970, 440) scale(1)"/></g><g opacity="1"><path fill="none" stroke="#1d1d1d" stroke-width="2" d="M0, 0L20, 0" transform="matrix(1, 0, 0, 1, 2880, 310) scale(1)"/></g><g opacity="1"><path fill="none" stroke="#1d1d1d" stroke-width="2" d="M0, 0L20, 0" transform="matrix(1, 0, 0, 1, 2780, 310) scale(1)"/></g><g opacity="1"><path fill="none" stroke="#1d1d1d" stroke-width="2" d="M0, 0L20, 0" transform="matrix(1, 0, 0, 1, 2740, 330) scale(1)"/></g><g opacity="1"><path fill="none" stroke="#1d1d1d" stroke-width="2" d="M0, 0L20, 0" transform="matrix(1, 0, 0, 1, 2920, 330) scale(1)"/></g><g opacity="1"><path fill="none" stroke="#1d1d1d" stroke-width="2" d="M0, 0L20, 0" transform="matrix(1, 0, 0, 1, 2710, 360) scale(1)"/></g><g opacity="1"><path fill="none" stroke="#1d1d1d" stroke-width="2" d="M0, 0L20, 0" transform="matrix(1, 0, 0, 1, 2950, 360) scale(1)"/></g><g opacity="1"><path fill="none" stroke="#1d1d1d" stroke-width="2" d="M0, 0L20, 0" transform="matrix(1, 0, 0, 1, 2690, 400) scale(1)"/></g><g opacity="1"><path fill="none" stroke="#1d1d1d" stroke-width="2" d="M0, 0L20, 0" transform="matrix(1, 0, 0, 1, 2970, 400) scale(1)"/></g><g opacity="1"><path fill="none" stroke="#1d1d1d" stroke-width="2" d="M0, 0L20, 0" transform="matrix(1, 0, 0, 1, 2690, 480) scale(1)"/></g><g opacity="1"><path fill="none" stroke="#1d1d1d" stroke-width="2" d="M0, 0L20, 0" transform="matrix(1, 0, 0, 1, 2970, 480) scale(1)"/></g><g opacity="1"><path fill="none" stroke="#1d1d1d" stroke-width="2" d="M0, 0L20, 0" transform="matrix(1, 0, 0, 1, 2710, 510) scale(1)"/></g><g opacity="1"><path fill="none" stroke="#1d1d1d" stroke-width="2" d="M0, 0L20, 0" transform="matrix(1, 0, 0, 1, 2950, 510) scale(1)"/></g><g opacity="1"><path fill="none" stroke="#1d1d1d" stroke-width="2" d="M0, 0L20, 0" transform="matrix(1, 0, 0, 1, 2740, 550) scale(1)"/></g><g opacity="1"><path fill="none" stroke="#1d1d1d" stroke-width="2" d="M0, 0L20, 0" transform="matrix(1, 0, 0, 1, 2920, 550) scale(1)"/></g><g opacity="1"><path fill="none" stroke="#1d1d1d" stroke-width="2" d="M0, 0L20, 0" transform="matrix(1, 0, 0, 1, 2780, 570) scale(1)"/></g><g opacity="1"><path fill="none" stroke="#1d1d1d" stroke-width="2" d="M-10, 0L10, 0" transform="matrix(1, 0, 0, 1, 2890, 570) scale(1)"/></g><g opacity="1"><g transform="matrix(1, 0, 0, 1, 2250, 440) scale(1)"><defs><clipPath id="_export_8_r1a5__shape_0zBUWc-v2ql9JEkkOyX7h_clip"><path d="M-100,-100 h240 v201 h-240 Z"/></clipPath></defs><g fill="none" stroke="#1d1d1d" stroke-linecap="round" stroke-linejoin="round" stroke-width="3.5" pointer-events="none"><g style="clip-path:url(#_export_8_r1a5__shape_0zBUWc-v2ql9JEkkOyX7h_clip)"><rect width="240" height="201" x="-100" y="-100" opacity="0"/><path stroke-dasharray="none" stroke-dashoffset="none" d="M0,0L40,0"/></g><path d="M 33.07179676972449 -3.9999999999999996 L 40 0 L 33.07179676972449 3.9999999999999996"/></g></g></g><g opacity="1"><g transform="matrix(1, 0, 0, 1, 2630, 440) scale(1)"><defs><clipPath id="_export_8_r1a5__shape_VS1zdl2I_4dOwEsWpHVWS_clip"><path d="M-100,-100 h240 v201 h-240 Z"/></clipPath></defs><g fill="none" stroke="#1d1d1d" stroke-linecap="round" stroke-linejoin="round" stroke-width="3.5" pointer-events="none"><g style="clip-path:url(#_export_8_r1a5__shape_VS1zdl2I_4dOwEsWpHVWS_clip)"><rect width="240" height="201" x="-100" y="-100" opacity="0"/><path stroke-dasharray="none" stroke-dashoffset="none" d="M0,0L40,0"/></g><path d="M 33.07179676972449 -3.9999999999999996 L 40 0 L 33.07179676972449 3.9999999999999996"/></g></g></g></svg>