<svg xmlns="http://www.w3.org/2000/svg" width="1004" height="304" stroke-linecap="round" stroke-linejoin="round" class="tl-container tl-theme__force-sRGB tl-theme__light" data-color-mode="light" direction="ltr" viewBox="1788 248 1004 304" style="background-color:#f9fafb"><g opacity="1"><g transform="matrix(1, 0, 0, 1, 1820, 280) scale(1)"><defs><clipPath id="_export_11_r2nb__shape_rNa4CMgugNx-7tDDE1bTn_clip"><path d="M-100,-100 h520.0000000000001 v201 h-520.0000000000001 Z"/></clipPath></defs><g fill="none" stroke="#1d1d1d" stroke-linecap="round" stroke-linejoin="round" stroke-width="3.5" pointer-events="none"><g style="clip-path:url(#_export_11_r2nb__shape_rNa4CMgugNx-7tDDE1bTn_clip)"><rect width="520" height="201" x="-100" y="-100" opacity="0"/><path stroke-dasharray="none" stroke-dashoffset="none" d="M0,0L320.0000000000001,0"/></g><path d="M 310.90673326026354 -5.249999999999999 L 320.0000000000001 0 L 310.90673326026354 5.249999999999999"/></g></g></g><g opacity="1"><g transform="matrix(1, 0, 0, 1, 1820, 320) scale(1)"><defs><clipPath id="_export_11_r2nb__shape_W0MgRTwytqpG4GRaAaorU_clip"><path d="M-100,-100 h520.0000000000001 v201 h-520.0000000000001 Z"/></clipPath></defs><g fill="none" stroke="#1d1d1d" stroke-linecap="round" stroke-linejoin="round" stroke-width="3.5" pointer-events="none"><g style="clip-path:url(#_export_11_r2nb__shape_W0MgRTwytqpG4GRaAaorU_clip)"><rect width="520" height="201" x="-100" y="-100" opacity="0"/><path stroke-dasharray="none" stroke-dashoffset="none" d="M0,0L320.0000000000001,0"/></g><path d="M 310.90673326026354 -5.249999999999999 L 320.0000000000001 0 L 310.90673326026354 5.249999999999999"/></g></g></g><g opacity="1"><g transform="matrix(1, 0, 0, 1, 1820, 360) scale(1)"><defs><clipPath id="_export_11_r2nb__shape_MJtJ1JdkCRdDkJLV0klC6_clip"><path d="M-100,-100 h520.0000000000001 v201 h-520.0000000000001 Z"/></clipPath></defs><g fill="none" stroke="#1d1d1d" stroke-linecap="round" stroke-linejoin="round" stroke-width="3.5" pointer-events="none"><g style="clip-path:url(#_export_11_r2nb__shape_MJtJ1JdkCRdDkJLV0klC6_clip)"><rect width="520" height="201" x="-100" y="-100" opacity="0"/><path stroke-dasharray="none" stroke-dashoffset="none" d="M0,0L320.0000000000001,0"/></g><path d="M 310.90673326026354 -5.249999999999999 L 320.0000000000001 0 L 310.90673326026354 5.249999999999999"/></g></g></g><g opacity="1"><g transform="matrix(1, 0, 0, 1, 1820, 400) scale(1)"><defs><clipPath id="_export_11_r2nb__shape_bBvRlgVMpyxdn21fxv-p4_clip"><path d="M-100,-100 h520.0000000000001 v201 h-520.0000000000001 Z"/></clipPath></defs><g fill="none" stroke="#1d1d1d" stroke-linecap="round" stroke-linejoin="round" stroke-width="3.5" pointer-events="none"><g style="clip-path:url(#_export_11_r2nb__shape_bBvRlgVMpyxdn21fxv-p4_clip)"><rect width="520" height="201" x="-100" y="-100" opacity="0"/><path stroke-dasharray="none" stroke-dashoffset="none" d="M0,0L320.0000000000001,0"/></g><path d="M 310.90673326026354 -5.249999999999999 L 320.0000000000001 0 L 310.90673326026354 5.249999999999999"/></g></g></g><g opacity="1"><g transform="matrix(1, 0, 0, 1, 1820, 440) scale(1)"><defs><clipPath id="_export_11_r2nb__shape_vFAflTsskzgOCuz8hDaH0_clip"><path d="M-100,-100 h520.0000000000001 v201 h-520.0000000000001 Z"/></clipPath></defs><g fill="none" stroke="#1d1d1d" stroke-linecap="round" stroke-linejoin="round" stroke-width="3.5" pointer-events="none"><g style="clip-path:url(#_export_11_r2nb__shape_vFAflTsskzgOCuz8hDaH0_clip)"><rect width="520" height="201" x="-100" y="-100" opacity="0"/><path stroke-dasharray="none" stroke-dashoffset="none" d="M0,0L320.0000000000001,0"/></g><path d="M 310.90673326026354 -5.249999999999999 L 320.0000000000001 0 L 310.90673326026354 5.249999999999999"/></g></g></g><g opacity="1"><g transform="matrix(1, 0, 0, 1, 1820, 480) scale(1)"><defs><clipPath id="_export_11_r2nb__shape_PKKFyd1MbEOvXYozRqGU4_clip"><path d="M-100,-100 h520.0000000000001 v201 h-520.0000000000001 Z"/></clipPath></defs><g fill="none" stroke="#1d1d1d" stroke-linecap="round" stroke-linejoin="round" stroke-width="3.5" pointer-events="none"><g style="clip-path:url(#_export_11_r2nb__shape_PKKFyd1MbEOvXYozRqGU4_clip)"><rect width="520" height="201" x="-100" y="-100" opacity="0"/><path stroke-dasharray="none" stroke-dashoffset="none" d="M0,0L320.0000000000001,0"/></g><path d="M 310.90673326026354 -5.249999999999999 L 320.0000000000001 0 L 310.90673326026354 5.249999999999999"/></g></g></g><g opacity="1"><g transform="matrix(1, 0, 0, 1, 1820, 520) scale(1)"><defs><clipPath id="_export_11_r2nb__shape_fyv4jx-76UtxwG7LjryU5_clip"><path d="M-100,-100 h520.0000000000001 v201 h-520.0000000000001 Z"/></clipPath></defs><g fill="none" stroke="#1d1d1d" stroke-linecap="round" stroke-linejoin="round" stroke-width="3.5" pointer-events="none"><g style="clip-path:url(#_export_11_r2nb__shape_fyv4jx-76UtxwG7LjryU5_clip)"><rect width="520" height="201" x="-100" y="-100" opacity="0"/><path stroke-dasharray="none" stroke-dashoffset="none" d="M0,0L320.0000000000001,0"/></g><path d="M 310.90673326026354 -5.249999999999999 L 320.0000000000001 0 L 310.90673326026354 5.249999999999999"/></g></g></g><g opacity="1"><path fill="#fcfffe" d="M0, 0L200, 0,200, 200,0, 200Z" transform="matrix(1, 0, 0, 1, 1880, 300)"/><path fill="none" stroke="#1d1d1d" stroke-width="10" d="M0, 0L200, 0,200, 200,0, 200Z" transform="matrix(1, 0, 0, 1, 1880, 300)"/></g><g opacity="1"><path fill="none" stroke="#1d1d1d" stroke-width="2" d="M-10, 0L10, 0" transform="matrix(1, 0, 0, 1, 1860, 300) scale(1)"/></g><g opacity="1"><path fill="none" stroke="#1d1d1d" stroke-width="2" d="M0, 0L20, 0" transform="matrix(1, 0, 0, 1, 1850, 340) scale(1)"/></g><g opacity="1"><path fill="none" stroke="#1d1d1d" stroke-width="2" d="M0, 0L20, 0" transform="matrix(1, 0, 0, 1, 1850, 380) scale(1)"/></g><g opacity="1"><path fill="none" stroke="#1d1d1d" stroke-width="2" d="M0, 0L20, 0" transform="matrix(1, 0, 0, 1, 1850, 420) scale(1)"/></g><g opacity="1"><path fill="none" stroke="#1d1d1d" stroke-width="2" d="M0, 0L20, 0" transform="matrix(1, 0, 0, 1, 1850, 460) scale(1)"/></g><g opacity="1"><path fill="none" stroke="#1d1d1d" stroke-width="2" d="M0, 0L20, 0" transform="matrix(1, 0, 0, 1, 1850, 500) scale(1)"/></g><g opacity="1"><path fill="none" stroke="#1d1d1d" stroke-width="2" d="M0, 0L20, 0" transform="matrix(1, 0, 0, 1, 2090, 500) scale(1)"/></g><g opacity="1"><path fill="none" stroke="#1d1d1d" stroke-width="2" d="M0, 0L0, 20" transform="matrix(1, 0, 0, 1, 2100, 490) scale(1)"/></g><g opacity="1"><path fill="none" stroke="#1d1d1d" stroke-width="2" d="M0, 0L20, 0" transform="matrix(1, 0, 0, 1, 2090, 460) scale(1)"/></g><g opacity="1"><path fill="none" stroke="#1d1d1d" stroke-width="2" d="M0, 0L0, 20" transform="matrix(1, 0, 0, 1, 2100, 450) scale(1)"/></g><g opacity="1"><path fill="none" stroke="#1d1d1d" stroke-width="2" d="M0, 0L20, 0" transform="matrix(1, 0, 0, 1, 2090, 420) scale(1)"/></g><g opacity="1"><path fill="none" stroke="#1d1d1d" stroke-width="2" d="M0, 0L0, 20" transform="matrix(1, 0, 0, 1, 2100, 410) scale(1)"/></g><g opacity="1"><path fill="none" stroke="#1d1d1d" stroke-width="2" d="M0, 0L20, 0" transform="matrix(1, 0, 0, 1, 2090, 380) scale(1)"/></g><g opacity="1"><path fill="none" stroke="#1d1d1d" stroke-width="2" d="M0, 0L0, 20" transform="matrix(1, 0, 0, 1, 2100, 370) scale(1)"/></g><g opacity="1"><path fill="none" stroke="#1d1d1d" stroke-width="2" d="M0, 0L20, 0" transform="matrix(1, 0, 0, 1, 2090, 340) scale(1)"/></g><g opacity="1"><path fill="none" stroke="#1d1d1d" stroke-width="2" d="M0, 0L0, 20" transform="matrix(1, 0, 0, 1, 2100, 330) scale(1)"/></g><g opacity="1"><path fill="none" stroke="#1d1d1d" stroke-width="2" d="M0, 0L20, 0" transform="matrix(1, 0, 0, 1, 2090, 300) scale(1)"/></g><g opacity="1"><path fill="none" stroke="#1d1d1d" stroke-width="2" d="M0, 0L0, 20" transform="matrix(1, 0, 0, 1, 2100, 290) scale(1)"/></g><g opacity="1"><path fill="#fcfffe" d="M0, 0L240, 0,240, 240,0, 240Z" transform="matrix(1, 0, 0, 1, 2200, 280)"/><path fill="none" stroke="#1d1d1d" stroke-width="10" d="M0, 0L240, 0,240, 240,0, 240Z" transform="matrix(1, 0, 0, 1, 2200, 280)"/></g><g opacity="1"><path fill="#fcfffe" d="M0, 0L240, 0,240, 240,0, 240Z" transform="matrix(1, 0, 0, 1, 2520, 280)"/><path fill="none" stroke="#1d1d1d" stroke-width="10" d="M0, 0L240, 0,240, 240,0, 240Z" transform="matrix(1, 0, 0, 1, 2520, 280)"/></g><g opacity="1"><path fill="none" stroke="#1d1d1d" stroke-width="2" d="M0, 0L80, 0" transform="matrix(1, 0, 0, 1, 2440, 450) scale(1)"/></g><g opacity="1"><path fill="none" stroke="#1d1d1d" stroke-width="2" d="M0, 0L0, 50" transform="matrix(1, 0, 0, 1, 2480, 450) scale(1)"/></g><g opacity="1"><path fill="none" stroke="#1d1d1d" stroke-width="2" d="M-10, 0L50, 0" transform="matrix(1, 0, 0, 1, 2460, 500) scale(1)"/></g><g opacity="1"><path fill="none" stroke="#1d1d1d" stroke-width="2" d="M0, 0L40, 0" transform="matrix(1, 0, 0, 1, 2460, 510) scale(1)"/></g><g opacity="1"><path fill="none" stroke="#1d1d1d" stroke-width="2" d="M0, 0L20, 0" transform="matrix(1, 0, 0, 1, 2470, 520) scale(1)"/></g><g opacity="1"><path fill="none" stroke="#1d1d1d" stroke-width="2" d="M0,12 a12,12,0,1,1,24,0a12,12,0,1,1,-24,0" transform="matrix(1, 0, 0, 1, 2308, 388)"/></g><g opacity="1"><path fill="none" stroke="#1d1d1d" stroke-width="2" d="M0, 0L24, 0" transform="matrix(1, 0, 0, 1, 2308, 400) scale(1)"/></g><g opacity=".75"><g transform="matrix(1, 0, 0, 1, 2640, 400) scale(1)"><defs><clipPath id="_export_11_r2nb__shape_WYCGSjKnGTfyy92oSOTpd_clip"><path d="M-220,-220 h320 v320 h-320 Z"/></clipPath></defs><g fill="none" stroke="#e03131" stroke-linecap="round" stroke-linejoin="round" stroke-width="3.5" pointer-events="none"><g style="clip-path:url(#_export_11_r2nb__shape_WYCGSjKnGTfyy92oSOTpd_clip)"><rect width="320" height="320" x="-220" y="-220" opacity="0"/><path stroke-dasharray="none" stroke-dashoffset="none" d="M0,0L-120,-120"/></g><path d="M -117.28240002642353 -109.85777882396478 L -120 -120 L -109.85777882396478 -117.28240002642353"/></g></g></g><g opacity=".75"><g transform="matrix(1, 0, 0, 1, 2640, 388) scale(1)"><defs><clipPath id="_export_11_r2nb__shape_SfTMj7N-O0DnDP2hJpEAq_clip"><path d="M-100,-208 h201 v320 h-201 Z"/></clipPath></defs><g fill="none" stroke="#e03131" stroke-linecap="round" stroke-linejoin="round" stroke-width="3.5" pointer-events="none"><g style="clip-path:url(#_export_11_r2nb__shape_SfTMj7N-O0DnDP2hJpEAq_clip)"><rect width="201" height="320" x="-100" y="-208" opacity="0"/><path stroke-dasharray="none" stroke-dashoffset="none" d="M0,12L0,-108.00000000000001"/></g><path d="M -5.249999999999999 -98.90673326026341 L 0 -108.00000000000001 L 5.249999999999999 -98.90673326026341"/></g></g></g><g opacity=".75"><g transform="matrix(1, 0, 0, 1, 2640, 400) scale(1)"><defs><clipPath id="_export_11_r2nb__shape_AcXzBg861R9XSb51sYsvo_clip"><path d="M-100,-220 h320 v320 h-320 Z"/></clipPath></defs><g fill="none" stroke="#e03131" stroke-linecap="round" stroke-linejoin="round" stroke-width="3.5" pointer-events="none"><g style="clip-path:url(#_export_11_r2nb__shape_AcXzBg861R9XSb51sYsvo_clip)"><rect width="320" height="320" x="-100" y="-220" opacity="0"/><path stroke-dasharray="none" stroke-dashoffset="none" d="M0,0L120,-120"/></g><path d="M 109.85777882396478 -117.28240002642353 L 120 -120 L 117.28240002642353 -109.85777882396478"/></g></g></g><g opacity=".75"><g transform="matrix(1, 0, 0, 1, 2640, 400) scale(1)"><defs><clipPath id="_export_11_r2nb__shape_rgiV4Fp22jn77JMUH7W2p_clip"><path d="M-220,-100 h320 v320 h-320 Z"/></clipPath></defs><g fill="none" stroke="#e03131" stroke-linecap="round" stroke-linejoin="round" stroke-width="3.5" pointer-events="none"><g style="clip-path:url(#_export_11_r2nb__shape_rgiV4Fp22jn77JMUH7W2p_clip)"><rect width="320" height="320" x="-220" y="-100" opacity="0"/><path stroke-dasharray="none" stroke-dashoffset="none" d="M0,0L-120,120"/></g><path d="M -109.85777882396478 117.28240002642353 L -120 120 L -117.28240002642353 109.85777882396478"/></g></g></g><g opacity=".75"><g transform="matrix(1, 0, 0, 1, 2640, 400) scale(1)"><defs><clipPath id="_export_11_r2nb__shape_DanFP6CqoWcvURUTsrs_k_clip"><path d="M-100,-100 h320 v320 h-320 Z"/></clipPath></defs><g fill="none" stroke="#e03131" stroke-linecap="round" stroke-linejoin="round" stroke-width="3.5" pointer-events="none"><g style="clip-path:url(#_export_11_r2nb__shape_DanFP6CqoWcvURUTsrs_k_clip)"><rect width="320" height="320" x="-100" y="-100" opacity="0"/><path stroke-dasharray="none" stroke-dashoffset="none" d="M0,0L120,120"/></g><path d="M 117.28240002642353 109.85777882396478 L 120 120 L 109.85777882396478 117.28240002642353"/></g></g></g><g opacity=".75"><g transform="matrix(1, 0, 0, 1, 2640, 400) scale(1)"><defs><clipPath id="_export_11_r2nb__shape_lhw5mnnvk78KzAazzjhmX_clip"><path d="M-220,-100 h320 v201 h-320 Z"/></clipPath></defs><g fill="none" stroke="#e03131" stroke-linecap="round" stroke-linejoin="round" stroke-width="3.5" pointer-events="none"><g style="clip-path:url(#_export_11_r2nb__shape_lhw5mnnvk78KzAazzjhmX_clip)"><rect width="320" height="201" x="-220" y="-100" opacity="0"/><path stroke-dasharray="none" stroke-dashoffset="none" d="M0,0L-120,0"/></g><path d="M -110.9067332602634 5.249999999999999 L -120 0 L -110.9067332602634 -5.249999999999999"/></g></g></g><g opacity=".75"><g transform="matrix(1, 0, 0, 1, 2640, 400) scale(1)"><defs><clipPath id="_export_11_r2nb__shape_mbVQUjXHq_GXltNUNYJYJ_clip"><path d="M-100,-100 h201 v320 h-201 Z"/></clipPath></defs><g fill="none" stroke="#e03131" stroke-linecap="round" stroke-linejoin="round" stroke-width="3.5" pointer-events="none"><g style="clip-path:url(#_export_11_r2nb__shape_mbVQUjXHq_GXltNUNYJYJ_clip)"><rect width="201" height="320" x="-100" y="-100" opacity="0"/><path stroke-dasharray="none" stroke-dashoffset="none" d="M0,0L0,120"/></g><path d="M 5.249999999999999 110.9067332602634 L 0 120 L -5.249999999999999 110.9067332602634"/></g></g></g><g opacity=".75"><g transform="matrix(1, 0, 0, 1, 2640, 400) scale(1)"><defs><clipPath id="_export_11_r2nb__shape_fTgTDtbJL8ZKtRag_tnRn_clip"><path d="M-100,-100 h320 v201 h-320 Z"/></clipPath></defs><g fill="none" stroke="#e03131" stroke-linecap="round" stroke-linejoin="round" stroke-width="3.5" pointer-events="none"><g style="clip-path:url(#_export_11_r2nb__shape_fTgTDtbJL8ZKtRag_tnRn_clip)"><rect width="320" height="201" x="-100" y="-100" opacity="0"/><path stroke-dasharray="none" stroke-dashoffset="none" d="M0,0L120,0"/></g><path d="M 110.9067332602634 -5.249999999999999 L 120 0 L 110.9067332602634 5.249999999999999"/></g></g></g><g opacity="1"><path fill="#fcfffe" d="M0,12 a12,12,0,1,1,24,0a12,12,0,1,1,-24,0" transform="matrix(1, 0, 0, 1, 2628, 388)"/><path fill="none" stroke="#1d1d1d" stroke-width="2" d="M0,12 a12,12,0,1,1,24,0a12,12,0,1,1,-24,0" transform="matrix(1, 0, 0, 1, 2628, 388)"/></g><g opacity="1"><path fill="none" stroke="#1d1d1d" stroke-width="2" d="M0, 0L24, 0" transform="matrix(1, 0, 0, 1, 2628, 400) scale(1)"/></g><g opacity="1"><path fill="none" stroke="#1d1d1d" stroke-width="2" d="M0, 0L0, 24" transform="matrix(1, 0, 0, 1, 2640, 388) scale(1)"/></g><g opacity=".75"><g transform="matrix(1, 0, 0, 1, 2200, 520) scale(1)"><defs><clipPath id="_export_11_r2nb__shape_BaSCc58MxFEFHdVnZ0JVE_clip"><path d="M-100,-209.8177 h309.8176623509137 v309.8176623509137 h-309.8176623509137 Z"/></clipPath></defs><g fill="none" stroke="#e03131" stroke-linecap="round" stroke-linejoin="round" stroke-width="3.5" pointer-events="none"><g style="clip-path:url(#_export_11_r2nb__shape_BaSCc58MxFEFHdVnZ0JVE_clip)"><rect width="309.818" height="309.818" x="-100" y="-209.818" opacity="0"/><path stroke-dasharray="none" stroke-dashoffset="none" d="M0,0L109.81766235091371,-109.81766235091371"/></g><path d="M 99.67544117487849 -107.10006237733724 L 109.81766235091371 -109.81766235091371 L 107.10006237733724 -99.67544117487849"/></g></g></g><g opacity=".75"><g transform="matrix(1, 0, 0, 1, 2440, 280) scale(1)"><defs><clipPath id="_export_11_r2nb__shape_ogst7aBtOmG4h2eaRwA2W_clip"><path d="M-209.7789,-100 h309.77893006566535 v308.9453369476948 h-309.77893006566535 Z"/></clipPath></defs><g fill="none" stroke="#e03131" stroke-linecap="round" stroke-linejoin="round" stroke-width="3.5" pointer-events="none"><g style="clip-path:url(#_export_11_r2nb__shape_ogst7aBtOmG4h2eaRwA2W_clip)"><rect width="309.779" height="308.945" x="-209.779" y="-100" opacity="0"/><path stroke-dasharray="none" stroke-dashoffset="none" d="M0,0L-109.77893006566536,108.9453369476948"/></g><path d="M -99.62642541403909 106.26641005457007 L -109.77893006566536 108.9453369476948 L -107.02269648417956 98.8135465607844"/></g></g></g><g opacity=".75"><g transform="matrix(1, 0, 0, 1, 2440, 520) scale(1)"><defs><clipPath id="_export_11_r2nb__shape_mqrujY7IFYy_tGjGsalMf_clip"><path d="M-209.8103,-209.6512 h309.8102853931026 v309.6512309883016 h-309.8102853931026 Z"/></clipPath></defs><g fill="none" stroke="#e03131" stroke-linecap="round" stroke-linejoin="round" stroke-width="3.5" pointer-events="none"><g style="clip-path:url(#_export_11_r2nb__shape_mqrujY7IFYy_tGjGsalMf_clip)"><rect width="309.81" height="309.651" x="-209.81" y="-209.651" opacity="0"/><path stroke-dasharray="none" stroke-dashoffset="none" d="M0,0L-109.81028539310263,-109.65123098830163"/></g><path d="M -107.08533557559636 -99.51098205190601 L -109.81028539310263 -109.65123098830163 L -99.66609730473276 -106.94098228610203"/></g></g></g><g opacity=".75"><g transform="matrix(1, 0, 0, 1, 2200, 280) scale(1)"><defs><clipPath id="_export_11_r2nb__shape_zPN4FVNyw7HUZy_KwA8hs_clip"><path d="M-100,-100 h309.79461966182885 v309.29824767740377 h-309.79461966182885 Z"/></clipPath></defs><g fill="none" stroke="#e03131" stroke-linecap="round" stroke-linejoin="round" stroke-width="3.5" pointer-events="none"><g style="clip-path:url(#_export_11_r2nb__shape_zPN4FVNyw7HUZy_KwA8hs_clip)"><rect width="309.795" height="309.298" x="-100" y="-100" opacity="0"/><path stroke-dasharray="none" stroke-dashoffset="none" d="M0,0L109.79461966182885,109.2982476774038"/></g><path d="M 107.05404872834144 99.16220944945081 L 109.79461966182885 109.2982476774038 L 99.64626759594766 106.60363261270062"/></g></g></g><g opacity=".75"><g transform="matrix(1, 0, 0, 1, 2440, 400) scale(1)"><defs><clipPath id="_export_11_r2nb__shape_Aiu9bIpk7Ne--z1P7y0md_clip"><path d="M-205.6006,-100 h305.6006116762164 v201 h-305.6006116762164 Z"/></clipPath></defs><g fill="none" stroke="#e03131" stroke-linecap="round" stroke-linejoin="round" stroke-width="3.5" pointer-events="none"><g style="clip-path:url(#_export_11_r2nb__shape_Aiu9bIpk7Ne--z1P7y0md_clip)"><rect width="305.601" height="201" x="-205.601" y="-100" opacity="0"/><path stroke-dasharray="none" stroke-dashoffset="none" d="M0,0L-105.60061167621639,0.9733629670309778"/></g><path d="M -96.45934190691851 6.139327253098076 L -105.60061167621639 0.9733629670309778 L -96.5561204847902 -4.360226732994146"/></g></g></g><g opacity=".75"><g transform="matrix(1, 0, 0, 1, 2200, 400) scale(1)"><defs><clipPath id="_export_11_r2nb__shape_DxC50Fg3k9ps8W8TUZvAm_clip"><path d="M-100,-100 h305.6 v201 h-305.6 Z"/></clipPath></defs><g fill="none" stroke="#e03131" stroke-linecap="round" stroke-linejoin="round" stroke-width="3.5" pointer-events="none"><g style="clip-path:url(#_export_11_r2nb__shape_DxC50Fg3k9ps8W8TUZvAm_clip)"><rect width="305.6" height="201" x="-100" y="-100" opacity="0"/><path stroke-dasharray="none" stroke-dashoffset="none" d="M0,0L105.60000000000001,0"/></g><path d="M 96.5067332602634 -5.249999999999999 L 105.60000000000001 0 L 96.5067332602634 5.249999999999999"/></g></g></g><g opacity=".75"><g transform="matrix(1, 0, 0, 1, 2320, 280) scale(1)"><defs><clipPath id="_export_11_r2nb__shape_DjsCnspTtWqYBbKVL5QRz_clip"><path d="M-100,-100 h201 v305.67381197561923 h-201 Z"/></clipPath></defs><g fill="none" stroke="#e03131" stroke-linecap="round" stroke-linejoin="round" stroke-width="3.5" pointer-events="none"><g style="clip-path:url(#_export_11_r2nb__shape_DjsCnspTtWqYBbKVL5QRz_clip)"><rect width="201" height="305.674" x="-100" y="-100" opacity="0"/><path stroke-dasharray="none" stroke-dashoffset="none" d="M0,0L0,105.67381197561922"/></g><path d="M 5.249999999999999 96.58054523588261 L 0 105.67381197561922 L -5.249999999999999 96.58054523588261"/></g></g></g><g opacity=".75"><g transform="matrix(1, 0, 0, 1, 2320, 520) scale(1)"><defs><clipPath id="_export_11_r2nb__shape_nv50G6OO5Np5KLJHsNH4J_clip"><path d="M-100,-205.7949 h201 v305.79488228914244 h-201 Z"/></clipPath></defs><g fill="none" stroke="#e03131" stroke-linecap="round" stroke-linejoin="round" stroke-width="3.5" pointer-events="none"><g style="clip-path:url(#_export_11_r2nb__shape_nv50G6OO5Np5KLJHsNH4J_clip)"><rect width="201" height="305.795" x="-100" y="-205.795" opacity="0"/><path stroke-dasharray="none" stroke-dashoffset="none" d="M0,0L0,-105.79488228914242"/></g><path d="M -5.249999999999999 -96.70161554940582 L 0 -105.79488228914242 L 5.249999999999999 -96.70161554940582"/></g></g></g></svg>