<svg viewBox="0 0 6139.47 3563.76"><defs><marker id="j" orient="auto" overflow="visible" refX="0" refY="0"><use fill-rule="evenodd" stroke-linejoin="round" stroke-width=".63" href="#a" transform="matrix(-1.1 0 0 -1.1 -1.1 0)"/></marker><marker id="i" orient="auto" overflow="visible" refX="0" refY="0"><use fill-rule="evenodd" stroke-linejoin="round" stroke-width=".63" href="#a" transform="matrix(-1.1 0 0 -1.1 -1.1 0)"/></marker><marker id="h" orient="auto" overflow="visible" refX="0" refY="0"><use fill-rule="evenodd" stroke-linejoin="round" stroke-width=".63" href="#a" transform="matrix(-1.1 0 0 -1.1 -1.1 0)"/></marker><marker id="g" orient="auto" overflow="visible" refX="0" refY="0"><use fill-rule="evenodd" stroke-linejoin="round" stroke-width=".63" href="#a" transform="matrix(-1.1 0 0 -1.1 -1.1 0)"/></marker><linearGradient id="c"><stop offset="0" stop-color="#d5914a"/><stop offset="1" stop-color="#fcd37c"/></linearGradient><linearGradient id="b"><stop offset="0" stop-color="#b3b3b3"/><stop offset="1" stop-color="#e6e6e6"/></linearGradient><linearGradient id="e" x1="1247.18" x2="1497.88" y1="2062.76" y2="2062.76" gradientUnits="userSpaceOnUse" href="#b" spreadMethod="reflect"/><linearGradient id="f" x1="4368.67" x2="4638.42" y1="2062.76" y2="2062.76" gradientUnits="userSpaceOnUse" href="#c" spreadMethod="reflect"/><g id="d"><circle r="146.76" fill="#fff4b7" stroke="#000" stroke-width="7.56"/><text y="62" font-size="208" font-style="italic" text-anchor="middle"><tspan>e⁻</tspan></text></g><path id="a" fill="#000" stroke="#000" d="M8.719 4.034L-2.207.016 8.719-4.002c-1.746 2.372-1.736 5.618 0 8.036z"/></defs><path fill="#a1c9ff" d="M6127.366 1740.926c-127.14 103.892-312.153 103.84-439.348-.015-124.442 103.955-305.513 103.904-429.989-.015-124.432 103.97-305.503 103.919-429.978 0h-453.034c-124.432 103.97-305.503 103.919-429.978 0-124.432 103.97-305.503 103.919-429.979 0-97.61 81.56-230.073 99.108-342.73 52.72l-.775 1769.486 2967.917.663V1740.926z"/><path fill="#e6e6e6" d="M2966.19 1791.782c-113.574 48.685-248.235 31.697-347.154-50.886-124.432 103.97-305.503 103.919-429.979 0-124.432 103.97-305.503 103.919-429.978 0h-447.147c-124.432 103.97-305.503 103.919-429.979 0-124.432 103.97-305.503 103.919-430.323 0-124.776 103.97-305.847 103.919-430.322 0H0v1822.869h2966.886z"/><rect width="205.33" height="1914.45" x="2966.22" y="1649.31" fill="#ffc2bc" stroke="#000" stroke-width="7.56" ry=".66"/><path fill="none" stroke="#000" stroke-width="11.34" d="M1497.884 1462.15V878.21h3140.533v583.94M3172.33 1793.617c112.657 46.387 245.12 28.838 342.73-52.721 124.476 103.919 305.547 103.97 429.979 0 124.475 103.919 305.546 103.97 429.979 0h453.033c124.475 103.919 305.546 103.97 429.978 0 124.476 103.919 305.547 103.97 429.989.015 127.195 103.856 312.207 103.907 439.348.015h12.106m-3173.282 50.856c-113.574 48.685-248.235 31.697-347.154-50.886-124.432 103.97-305.503 103.919-429.979 0-124.432 103.97-305.503 103.919-429.978 0h-447.147c-124.432 103.97-305.503 103.919-429.979 0-124.432 103.97-305.503 103.919-430.323 0-124.776 103.97-305.847 103.919-430.322 0H0"/><use x="4869.12" y="581.08" href="#d"/><use x="4869.12" y="581.08" href="#d" transform="translate(174.17 341.563)"/><use x="4869.12" y="581.08" href="#d" transform="translate(-3597.101 .168)"/><use x="4869.12" y="581.08" href="#d" transform="translate(-3770.701 341.203)"/><path fill="#ff0" d="M3519.436 597.172l18.834 68.32-230.86 53.786-.918-3.765zm-227.553-203.91l55.99 43.446-152.71 181.298-2.99-2.466zm-287.409-58.81l70.212 9.631-41.6 233.363-3.823-.64zm-296.49 96.192l61.523-35.176 109.312 210.333-3.42 1.823zm-167.761 197.628l39.609-58.767 191.094 140.257-2.26 3.148z"/><circle cx="3046.92" cy="865.72" r="252.78" fill="#fff" stroke="#000" stroke-width="11.34"/><path fill="none" stroke="#000" stroke-width="7.56" d="M3039.612 912.722c18.018-17.757 61.042-53.27 61.042-96.072 0-42.8-23.58-60.718-47.985-60.087-24.404.631-53.092 13.066-54.839 60.061s22.538 71.4 41.782 96.098zm-240.316 3.766c87.41 74.145 172.653 57.916 240.316-3.766 79.07 58.097 171.451 64.165 251.915 16.764"/><rect width="509.74" height="1201.22" x="1247.18" y="1462.15" fill="url(#e)" stroke="#000" stroke-width="7.56" ry=".66"/><circle cx="2226.42" cy="3069.52" r="310.39" fill="none" stroke="#000" stroke-width="7.56"/><text x="2226.42" y="3115.43" font-size="208" text-anchor="middle"><tspan>Zn⁺²</tspan></text><g transform="translate(1685.888 -2.09)"><circle cx="2226.42" cy="3069.52" r="310.39" fill="none" stroke="#000" stroke-width="7.56"/><text x="2226.42" y="3119.86" font-size="208" text-anchor="middle"><tspan>Cu⁺²</tspan></text></g><text x="3408.12" y="3393.02" font-size="208" transform="translate(-3324.784 -2.09)"><tspan>ZnSO₄</tspan></text><rect width="518.09" height="1201.22" x="4372.44" y="1462.15" fill="url(#f)" stroke="#000" stroke-width="7.56" ry=".66"/><text x="3534.42" y="3164.79" font-size="208" transform="translate(-2249.38 -1071.584)"><tspan>Zn</tspan></text><text x="3521.89" y="3165.84" font-size="208" transform="translate(873.401 -1070.929)"><tspan>Cu</tspan></text><switch font-size="180" transform="translate(3400 2430.439)"><text systemLanguage="ca"><tspan>Flux </tspan><tspan x="0" dy="165">d&apos;anions</tspan></text><text systemLanguage="cs"><tspan>Aniontový </tspan><tspan x="0" dy="165">proud</tspan></text><text systemLanguage="en"><tspan>Anion </tspan><tspan x="0" dy="165">flow</tspan></text><text systemLanguage="es"><tspan>Flujo de </tspan><tspan x="0" dy="165">aniones</tspan></text><text systemLanguage="it"><tspan>Flusso </tspan><tspan x="0" dy="165">degli anioni</tspan></text><text systemLanguage="sw"><tspan>Mwendo </tspan><tspan x="0" dy="165">wa anioni</tspan></text><text systemLanguage="ru"><tspan>Поток </tspan><tspan x="0" dy="165">анионов</tspan></text><text><tspan>Anion </tspan><tspan x="0" dy="165">flow</tspan></text></switch><switch style="text-align:center" font-size="168" text-anchor="middle" transform="translate(3055.59 1427.68)"><text systemLanguage="ca"><tspan>Disc</tspan><tspan x="0" dy="168">porós</tspan></text><text systemLanguage="cs"><tspan>Porézní</tspan><tspan x="0" dy="168">deska</tspan></text><text systemLanguage="en"><tspan>Porous</tspan><tspan x="0" dy="168">membrane</tspan></text><text systemLanguage="es"><tspan>Membrana</tspan><tspan x="0" dy="168">porosa</tspan></text><text systemLanguage="it"><tspan>disco</tspan><tspan x="0" dy="168">poroso</tspan></text><text systemLanguage="sw"><tspan>Ukuta mwenye </tspan><tspan x="0" dy="168">vinyweleo</tspan></text><text systemLanguage="ru"><tspan>Пористая</tspan><tspan x="0" dy="168">перегородка</tspan></text><text><tspan>Porous</tspan><tspan x="0" dy="168">membrane</tspan></text></switch><g transform="translate(1689.813)"><text x="4380" y="3389.02" font-size="208" text-anchor="end"><tspan>CuSO₄</tspan></text><switch font-size="220" text-anchor="middle" transform="translate(-200 270)"><text systemLanguage="ca"><tspan>Ánode de zinc</tspan></text><text systemLanguage="cs"><tspan>Zinková anoda</tspan></text><text systemLanguage="en"><tspan>Zinc anode</tspan></text><text systemLanguage="es"><tspan>Ánodo de cinc</tspan></text><text systemLanguage="it"><tspan>Anodo di zinco</tspan></text><text systemLanguage="sw"><tspan>Anodi ya zinki (Zn)</tspan></text><text systemLanguage="ru"><tspan>Цинковый анод</tspan></text><text><tspan>Zinc anode</tspan></text></switch><switch font-size="220" text-anchor="middle" transform="translate(2950 270)"><text systemLanguage="ca"><tspan>Cátode de coure</tspan></text><text systemLanguage="cs"><tspan>Měděná katoda</tspan></text><text systemLanguage="en"><tspan>Copper cathode</tspan></text><text systemLanguage="es"><tspan>Cátodo de cobre</tspan></text><text systemLanguage="it"><tspan>Catodo di rame</tspan></text><text systemLanguage="sw"><tspan>Kathodi ya shaba (Cu)</tspan></text><text systemLanguage="ru"><tspan>Медный катод</tspan></text><text><tspan>Copper cathode</tspan></text></switch></g><path fill="#ffebe9" stroke="#000" stroke-width="11.34" d="M2836.23 2593.925v-96.7h525.884v-98.973H2836.23v-98.178l-194.977 146.925z"/><path fill="none" stroke="#000" stroke-width="11.34" marker-end="url(#g)" d="M1330.744 989.495c0-254.67 128.84-285.681 339.998-285.681"/><path fill="none" stroke="#000" stroke-width="11.34" marker-end="url(#h)" d="M4541.705 707.148c254.67 0 268.969 148.164 268.969 359.322"/><path fill="none" stroke="#000" stroke-width="11.34" marker-end="url(#i)" d="M1497.884 2802.441c0 254.671 128.84 285.682 339.998 285.682"/><path fill="none" stroke="#000" stroke-width="11.34" marker-end="url(#j)" d="M4369.448 3082.095c254.671 0 268.97-148.163 268.97-359.322"/><path fill="none" stroke="#000" stroke-width="15.12" d="M0 0v3563.765h6139.472V0z"/><text x="4229.74" y="1353.94" font-size="585"><tspan>+</tspan></text><text x="1587.06" y="1356.03" font-size="585"><tspan>−</tspan></text></svg>