<svg xmlns:xlink="http://www.w3.org/1999/xlink" viewBox="0 0 6139.5 3563.8"><defs><linearGradient id="b"><stop offset="0" style="stop-color:#d5914a;stop-opacity:1"/><stop offset="1" style="stop-color:#fcd37c;stop-opacity:1"/></linearGradient><linearGradient id="a"><stop offset="0" style="stop-color:#b3b3b3;stop-opacity:1"/><stop offset="1" style="stop-color:#e6e6e6;stop-opacity:1"/></linearGradient><linearGradient xlink:href="#a" id="d" x1="1247.2" x2="1497.9" y1="2062.8" y2="2062.8" gradientUnits="userSpaceOnUse" spreadMethod="reflect"/><linearGradient xlink:href="#b" id="e" x1="4368.7" x2="4638.4" y1="2062.8" y2="2062.8" gradientUnits="userSpaceOnUse" spreadMethod="reflect"/><marker id="i" orient="auto" refX="0" refY="0" style="overflow:visible"><path d="m8.7 4-11-4 11-4a7 7 0 0 0 0 8z" style="fill-rule:evenodd;stroke-width:.625;stroke-linejoin:round;stroke:#000;fill:#000" transform="translate(-1.1)scale(-1.1)"/></marker><marker id="h" orient="auto" refX="0" refY="0" style="overflow:visible"><path d="m8.7 4-11-4 11-4a7 7 0 0 0 0 8z" style="fill-rule:evenodd;stroke-width:.625;stroke-linejoin:round;stroke:#000;fill:#000" transform="translate(-1.1)scale(-1.1)"/></marker><marker id="g" orient="auto" refX="0" refY="0" style="overflow:visible"><path d="m8.7 4-11-4 11-4a7 7 0 0 0 0 8z" style="fill-rule:evenodd;stroke-width:.625;stroke-linejoin:round;stroke:#000;fill:#000" transform="translate(-1.1)scale(-1.1)"/></marker><marker id="f" orient="auto" refX="0" refY="0" style="overflow:visible"><path d="m8.7 4-11-4 11-4a7 7 0 0 0 0 8z" style="fill-rule:evenodd;stroke-width:.625;stroke-linejoin:round;stroke:#000;fill:#000" transform="translate(-1.1)scale(-1.1)"/></marker><g id="c"><circle r="146.8" style="fill:#fff4b7;stroke:#000;stroke-width:7.55905533;stroke-miterlimit:4"/><text y="62" style="font-size:208px;font-style:italic;text-anchor:middle"><tspan>e⁻</tspan></text></g></defs><g style="display:inline"><path d="M6127.4 1741a349 349 0 0 1-439.4 0 335.5 335.5 0 0 1-430-.1 335.4 335.4 0 0 1-430 0h-453a335.4 335.4 0 0 1-430 0 335.4 335.4 0 0 1-430 0 335 335 0 0 1-342.7 52.7l-.7 1769.5 2967.9.7V1740.9Z" style="fill:#a1c9ff;stroke:none;stroke-width:7.63801098;stroke-miterlimit:4"/><path d="M2966.2 1791.8a336 336 0 0 1-347.2-50.9 335.4 335.4 0 0 1-430 0 335.4 335.4 0 0 1-430 0h-447a335.4 335.4 0 0 1-430 0 336 336 0 0 1-430.4 0 336 336 0 0 1-430.3 0H0v1822.9h2966.9z" style="fill:#e6e6e6;stroke:none;stroke-width:7.63801098;stroke-miterlimit:4"/><rect width="205.3" height="1914.5" x="2966.2" y="1649.3" ry="0.7" style="fill:#ffc2bc;stroke:#000;stroke-width:7.55905533"/><path d="M1497.9 1462.2v-584h3140.5v584" style="fill:none;stroke:#000;stroke-width:11.33858299;stroke-linecap:butt;stroke-linejoin:miter"/><path d="M3172.3 1793.6a335 335 0 0 0 342.8-52.7 335.4 335.4 0 0 0 430 0 335.4 335.4 0 0 0 430 0h453a335.4 335.4 0 0 0 430 0 335.5 335.5 0 0 0 430 0 349 349 0 0 0 439.3 0h12m-3173.2 50.9a336 336 0 0 1-347.2-50.9 335.4 335.4 0 0 1-430 0 335.4 335.4 0 0 1-430 0h-447a335.4 335.4 0 0 1-430 0 336 336 0 0 1-430.4 0 336 336 0 0 1-430.3 0H0" style="fill:none;stroke:#000;stroke-width:11.33858299;stroke-miterlimit:4"/><use xlink:href="#c" x="4869.1" y="581.1"/><use xlink:href="#c" x="4869.1" y="581.1" transform="translate(174.17 341.563)"/><use xlink:href="#c" x="4869.1" y="581.1" transform="translate(-3597.101 .168)"/><use xlink:href="#c" x="4869.1" y="581.1" transform="translate(-3770.701 341.203)"/><path d="m3519.4 597.2 18.9 68.3-230.9 53.8-1-3.8zm-227.5-203.9 56 43.4L3195.2 618l-3-2.5zm-287.4-58.8 70.2 9.6-41.6 233.3-3.8-.6zM2708 430.6l61.5-35.1 109.3 210.3-3.4 1.8zm-167.8 197.7 39.6-58.8L2771 709.8l-2.2 3.1z" style="fill:#ff0;stroke:none;stroke-width:1px;stroke-linecap:butt;stroke-linejoin:miter"/><circle cx="3046.9" cy="865.7" r="252.8" style="fill:#fff;stroke:#000;stroke-width:11.33858299;stroke-miterlimit:4"/><path d="M3039.6 912.7c18-17.7 61-53.2 61-96 0-42.9-23.5-60.8-48-60.1-24.3.6-53 13-54.8 60s22.6 71.4 41.8 96.1zm-240.3 3.8c87.4 74.1 172.6 57.9 240.3-3.8 79 58.1 171.5 64.2 252 16.8" style="fill:none;stroke:#000;stroke-width:7.55905533;stroke-linecap:butt;stroke-linejoin:miter"/><rect width="509.7" height="1201.2" x="1247.2" y="1462.2" ry="0.7" style="fill:url(#d);stroke:#000;stroke-width:7.55905533"/><circle cx="2226.4" cy="3069.5" r="310.4" style="fill:none;stroke:#000;stroke-width:7.55905533;stroke-miterlimit:4"/><text xml:space="preserve" x="2226.4" y="3115.4" style="font-size:208px;text-anchor:middle"><tspan>Zn⁺²</tspan></text><text xml:space="preserve" x="2226.4" y="3300" style="text-anchor:middle"><tspan class="state">(aq)</tspan></text><g transform="translate(1685.888 -2.09)"><circle cx="2226.4" cy="3069.5" r="310.4" style="fill:none;stroke:#000;stroke-width:7.55905533;stroke-miterlimit:4"/><text xml:space="preserve" x="2226.4" y="3119.9" style="font-size:208px;text-anchor:middle"><tspan>Cu⁺²</tspan></text><text xml:space="preserve" x="2226.4" y="3300" style="text-anchor:middle"><tspan class="state">(aq)</tspan></text></g><text xml:space="preserve" x="3408.1" y="3393" style="font-size:208px" transform="translate(-3324.784 -2.09)"><tspan>ZnSO₄</tspan><tspan class="state"> (aq)</tspan></text><rect width="518.1" height="1201.2" x="4372.4" y="1462.2" ry="0.7" style="fill:url(#e);stroke:#000;stroke-width:7.55905533"/><text xml:space="preserve" x="3534.4" y="3164.8" style="font-size:208px" transform="translate(-2249.38 -1071.584)"><tspan>Zn</tspan><tspan class="state"> (s)</tspan></text><text xml:space="preserve" x="3521.9" y="3165.8" style="font-size:208px" transform="translate(873.401 -1070.929)"><tspan>Cu</tspan><tspan class="state"> (s)</tspan></text><switch style="font-size:180px" transform="translate(3400 2430.439)"><text systemLanguage="ca"><tspan>Flux </tspan><tspan x="0" dy="165">d&apos;anions</tspan></text><text systemLanguage="cs"><tspan>Aniontový </tspan><tspan x="0" dy="165">proud</tspan></text><text systemLanguage="en"><tspan>Anion </tspan><tspan x="0" dy="165">flow</tspan></text><text systemLanguage="es"><tspan>Flujo de </tspan><tspan x="0" dy="165">aniones</tspan></text><text systemLanguage="it"><tspan>Flusso </tspan><tspan x="0" dy="165">degli anioni</tspan></text><text systemLanguage="sw"><tspan>Mwendo </tspan><tspan x="0" dy="165">wa anioni</tspan></text><text systemLanguage="ru"><tspan>Поток </tspan><tspan x="0" dy="165">анионов</tspan></text><text><tspan>Anion </tspan><tspan x="0" dy="165">flow</tspan></text></switch><switch style="text-align:center;text-anchor:middle;font-size:168px" transform="translate(3055.59 1427.68)"><text systemLanguage="ca"><tspan>Disc</tspan><tspan x="0" dy="168">porós</tspan></text><text systemLanguage="cs"><tspan>Porézní</tspan><tspan x="0" dy="168">deska</tspan></text><text systemLanguage="en"><tspan>Porous</tspan><tspan x="0" dy="168">membrane</tspan></text><text systemLanguage="es"><tspan>Membrana</tspan><tspan x="0" dy="168">porosa</tspan></text><text systemLanguage="it"><tspan>disco</tspan><tspan x="0" dy="168">poroso</tspan></text><text systemLanguage="sw"><tspan>Ukuta mwenye </tspan><tspan x="0" dy="168">vinyweleo</tspan></text><text systemLanguage="ru"><tspan>Пористая</tspan><tspan x="0" dy="168">перегородка</tspan></text><text><tspan>Porous</tspan><tspan x="0" dy="168">membrane</tspan></text></switch><g transform="translate(1689.813)"><text xml:space="preserve" x="4380" y="3389" style="font-size:208px;fill:#000;text-anchor:end"><tspan>CuSO₄</tspan><tspan class="state"> (aq)</tspan></text><switch style="font-size:220px;text-anchor:middle" transform="translate(-200 270)"><text systemLanguage="ca"><tspan>Ánode de zinc</tspan></text><text systemLanguage="cs"><tspan>Zinková anoda</tspan></text><text systemLanguage="en"><tspan>Zinc anode</tspan></text><text systemLanguage="es"><tspan>Ánodo de cinc</tspan></text><text systemLanguage="it"><tspan>Anodo di zinco</tspan></text><text systemLanguage="sw"><tspan>Anodi ya zinki (Zn)</tspan></text><text systemLanguage="ru"><tspan>Цинковый анод</tspan></text><text><tspan>Zinc anode</tspan></text></switch><switch style="font-size:220px;text-anchor:middle" transform="translate(2950 270)"><text systemLanguage="ca"><tspan>Cátode de coure</tspan></text><text systemLanguage="cs"><tspan>Měděná katoda</tspan></text><text systemLanguage="en"><tspan>Copper cathode</tspan></text><text systemLanguage="es"><tspan>Cátodo de cobre</tspan></text><text systemLanguage="it"><tspan>Catodo di rame</tspan></text><text systemLanguage="sw"><tspan>Kathodi ya shaba (Cu)</tspan></text><text systemLanguage="ru"><tspan>Медный катод</tspan></text><text><tspan>Copper cathode</tspan></text></switch></g><path d="M2836.2 2594v-96.8h526v-99h-526v-98.1l-195 146.9z" style="fill:#ffebe9;stroke:#000;stroke-width:11.33858299;stroke-linecap:butt;stroke-linejoin:miter"/><path d="M1330.7 989.5c0-254.7 128.9-285.7 340-285.7" style="fill:none;stroke:#000;stroke-width:11.33858299;stroke-linecap:butt;stroke-linejoin:miter;stroke-miterlimit:4;marker-end:url(#f)"/><path d="M4541.7 707.1c254.7 0 269 148.2 269 359.4" style="fill:none;stroke:#000;stroke-width:11.33858299;stroke-linecap:butt;stroke-linejoin:miter;stroke-miterlimit:4;marker-end:url(#g)"/><path d="M1497.9 2802.4c0 254.7 128.8 285.7 340 285.7" style="fill:none;stroke:#000;stroke-width:11.33858299;stroke-linecap:butt;stroke-linejoin:miter;stroke-miterlimit:4;marker-end:url(#h)"/><path d="M4369.4 3082.1c254.7 0 269-148.2 269-359.3" style="fill:none;stroke:#000;stroke-width:11.33858299;stroke-linecap:butt;stroke-linejoin:miter;stroke-miterlimit:4;marker-end:url(#i)"/><path d="M0 0v3563.8h6139.5V0Z" style="fill:none;stroke:#000;stroke-width:15.11811066;stroke-linecap:butt;stroke-linejoin:miter"/><text x="4229.7" y="1353.9" style="font-size:585px"><tspan>+</tspan></text><text x="1587.1" y="1356" style="font-size:585px"><tspan>−</tspan></text></g></svg>