<svg viewBox="0 0 424 627"><path d="M70 112.4h424v627H70z" style="opacity:1;fill:#fff;fill-opacity:1;stroke:none;stroke-width:.60000002;stroke-linecap:butt;stroke-linejoin:miter;stroke-miterlimit:4;stroke-dasharray:none;stroke-opacity:1" transform="translate(-70 -112.362)"/><path d="m210 272.4-20 10s-20 210-10 230c8.6 17.1 50 40 50 40v50h30v-50s41.4-22.9 50-40c10-20-10-230-10-230l-20-10z" style="fill:#fff;fill-opacity:1;fill-rule:evenodd;stroke:none;stroke-width:1px;stroke-linecap:butt;stroke-linejoin:miter;stroke-opacity:1" transform="translate(-70 -112.362)"/><path d="M184.8 342.4s-13 151-5 170c7.6 17.6 50.2 40 50.2 40v50h30l-.2-50s42.2-22.5 50-40c8.2-18.3-5-170-5-170z" style="fill:#b4cbff;fill-opacity:1;fill-rule:evenodd;stroke:none;stroke-width:1px;stroke-linecap:butt;stroke-linejoin:miter;stroke-opacity:1" transform="translate(-70 -112.362)"/><path d="m210 272.4 10-90h50l10 90z" style="fill:none;fill-rule:evenodd;stroke:#000;stroke-width:1px;stroke-linecap:butt;stroke-linejoin:miter;stroke-opacity:1" transform="translate(-70 -112.362)"/><path d="m205 272.4 15-120s9-10 25-10 25 10 25 10l15 120m-55 395h30v35l-30 25z" style="fill:none;fill-rule:evenodd;stroke:#000;stroke-width:1px;stroke-linecap:butt;stroke-linejoin:miter;stroke-opacity:1" transform="translate(-70 -112.362)"/><path d="M240 602.4v65h10v-25h120c8.4 0 30.9-1.1 45-18a73 73 0 0 0 15-47v-125h-40v125c0 5.2 0 28.6-10 39.2-13.8 14.8-34.7 15.8-40 15.8h-90v-30z" style="fill:#b4cbff;fill-opacity:1;fill-rule:evenodd;stroke:#000;stroke-width:1px;stroke-linecap:butt;stroke-linejoin:miter;stroke-opacity:1" transform="translate(-70 -112.362)"/><path d="M290 664.9a32.5 32.5 0 1 1-65 0 32.5 32.5 0 1 1 65 0z" style="opacity:1;fill:none;fill-opacity:1;stroke:#000;stroke-width:1;stroke-linecap:butt;stroke-linejoin:miter;stroke-miterlimit:4;stroke-dasharray:none;stroke-opacity:1" transform="translate(-82.5 -142.362)"/><path d="M225 392.4h40v60h-40z" style="fill:#6e6e6e;fill-opacity:1;fill-rule:evenodd;stroke:#000;stroke-width:1px;stroke-linecap:butt;stroke-linejoin:miter;stroke-opacity:1" transform="translate(-70 -112.362)"/><path d="M315 325.5h30v21.9h-30z" style="opacity:1;fill:#b4cbff;fill-opacity:1;stroke:none;stroke-width:1;stroke-linecap:butt;stroke-linejoin:miter;stroke-miterlimit:4;stroke-dasharray:none;stroke-opacity:1" transform="translate(-70 -112.362)"/><path d="M315 307.4h30v5h10v10h-10v25h-30z" style="fill:none;fill-opacity:1;fill-rule:evenodd;stroke:#000;stroke-width:1px;stroke-linecap:butt;stroke-linejoin:miter;stroke-opacity:1" transform="translate(-70 -112.362)"/><path d="M265 392.4s-.7-7.6-5.5-10.9-9-2.8-12.7-4.1q-1.9-.8-1.8-2v-251s0-1-.5-1.5-1.5-.5-1.5-.5-41-1-55 0-27 5-38 5c-11-.1-26.5-6.4-35-5-8.5 1.3-16.7 4.6-20 10s0 20 0 20" style="fill:none;fill-rule:evenodd;stroke:#000;stroke-width:1px;stroke-linecap:butt;stroke-linejoin:miter;stroke-opacity:1" transform="translate(-70 -112.362)"/><path d="M350.6 312.9h5v9h-5z" style="opacity:1;fill:#fff;fill-opacity:1;stroke:none;stroke-width:1;stroke-linecap:butt;stroke-linejoin:miter;stroke-miterlimit:4;stroke-dasharray:none;stroke-opacity:1" transform="translate(-70 -112.362)"/><path d="m210 272.4-20 10s-20 210-10 230c8.6 17.1 50 40 50 40v50h30v-50s41.4-22.9 50-40c10-20-10-230-10-230l-20-10z" style="fill:none;fill-rule:evenodd;stroke:#000;stroke-width:1px;stroke-linecap:butt;stroke-linejoin:miter;stroke-opacity:1" transform="translate(-70 -112.362)"/><path d="M300.5 287.4H333s1 0 1.5.5.5 1.5.5 1.5v48h-10v-40h-23.6z" style="fill:#fff;fill-opacity:1;fill-rule:evenodd;stroke:#000;stroke-width:1px;stroke-linecap:round;stroke-linejoin:round;stroke-opacity:1" transform="translate(-70 -112.362)"/><path d="M302 287.9v9h-1.3l-.7-9z" style="fill:#fff;fill-opacity:1;fill-rule:evenodd;stroke:none;stroke-width:1px;stroke-linecap:butt;stroke-linejoin:miter;stroke-opacity:1" transform="translate(-70 -112.362)"/><path d="M325.5 335.1h9v2.8h-9zm25.1-22.2h5v9h-5z" style="opacity:1;fill:#fff;fill-opacity:1;stroke:none;stroke-width:1;stroke-linecap:butt;stroke-linejoin:miter;stroke-miterlimit:4;stroke-dasharray:none;stroke-opacity:1" transform="translate(-70 -112.362)"/><path d="M390.5 451.9h39v4.7h-39z" style="opacity:1;fill:#b4cbff;fill-opacity:1;stroke:none;stroke-width:1;stroke-linecap:butt;stroke-linejoin:miter;stroke-miterlimit:4;stroke-dasharray:none;stroke-opacity:1" transform="translate(-70 -112.362)"/><path d="M150 365.6h48s1 0 1.5.6.5 1.4.5 1.4v124.8h40v-15h10v23s0 1-.5 1.5-1.5.5-1.5.5h-56q-.8.1-1.5-.6c-.5-.4-.5-1.4-.5-1.4V375.6h-40z" style="fill:#fff;fill-opacity:1;fill-rule:evenodd;stroke:#000;stroke-width:1px;stroke-linecap:round;stroke-linejoin:round;stroke-opacity:1" transform="translate(-70 -112.362)"/><path d="M149.5 366.1h5v9h-5zm91 110.8h9v2.7h-9z" style="opacity:1;fill:#fff;fill-opacity:1;stroke:none;stroke-width:1;stroke-linecap:butt;stroke-linejoin:miter;stroke-miterlimit:4;stroke-dasharray:none;stroke-opacity:1" transform="translate(-70 -112.362)"/><path d="M265.8 392.5a.8.8 0 1 1-1.7 0 .8.8 0 1 1 1.7 0" style="opacity:1;fill:#000;fill-opacity:1;stroke:none;stroke-width:1;stroke-linecap:butt;stroke-linejoin:miter;stroke-miterlimit:4;stroke-dasharray:none;stroke-opacity:1" transform="matrix(1.28947 0 0 1.30118 -146.884 -230.748)"/><path d="M242.4 468.2a2.7 2.7 0 1 1-5.5 0 2.7 2.7 0 1 1 5.5 0z" style="opacity:1;fill:#fff;fill-opacity:1;stroke:#000;stroke-width:.60000002;stroke-linecap:butt;stroke-linejoin:miter;stroke-miterlimit:4;stroke-dasharray:none;stroke-opacity:1" transform="translate(-68.232 -109.534)"/><path d="M242.4 468.2a2.7 2.7 0 1 1-5.5 0 2.7 2.7 0 1 1 5.5 0z" style="opacity:1;fill:#fff;fill-opacity:1;stroke:#000;stroke-width:.60000002;stroke-linecap:butt;stroke-linejoin:miter;stroke-miterlimit:4;stroke-dasharray:none;stroke-opacity:1" transform="translate(-61.515 -114.66)"/><path d="M242.4 468.2a2.7 2.7 0 1 1-5.5 0 2.7 2.7 0 1 1 5.5 0z" style="opacity:1;fill:#fff;fill-opacity:1;stroke:#000;stroke-width:.60000002;stroke-linecap:butt;stroke-linejoin:miter;stroke-miterlimit:4;stroke-dasharray:none;stroke-opacity:1" transform="translate(-69.62 -121.731)"/><path d="M242.4 468.2a2.7 2.7 0 1 1-5.5 0 2.7 2.7 0 1 1 5.5 0z" style="opacity:1;fill:#fff;fill-opacity:1;stroke:#000;stroke-width:.60000002;stroke-linecap:butt;stroke-linejoin:miter;stroke-miterlimit:4;stroke-dasharray:none;stroke-opacity:1" transform="translate(-62.903 -121.378)"/><path d="M242.4 468.2a2.7 2.7 0 1 1-5.5 0 2.7 2.7 0 1 1 5.5 0z" style="opacity:1;fill:#fff;fill-opacity:1;stroke:#000;stroke-width:.60000002;stroke-linecap:butt;stroke-linejoin:miter;stroke-miterlimit:4;stroke-dasharray:none;stroke-opacity:1" transform="translate(-59.62 -139.586)"/><path d="M242.4 468.2a2.7 2.7 0 1 1-5.5 0 2.7 2.7 0 1 1 5.5 0z" style="opacity:1;fill:#fff;fill-opacity:1;stroke:#000;stroke-width:.60000002;stroke-linecap:butt;stroke-linejoin:miter;stroke-miterlimit:4;stroke-dasharray:none;stroke-opacity:1" transform="translate(-51.88 -153.204)"/><path d="M242.4 468.2a2.7 2.7 0 1 1-5.5 0 2.7 2.7 0 1 1 5.5 0z" style="opacity:1;fill:#fff;fill-opacity:1;stroke:#000;stroke-width:.60000002;stroke-linecap:butt;stroke-linejoin:miter;stroke-miterlimit:4;stroke-dasharray:none;stroke-opacity:1" transform="translate(-75.354 -144.359)"/><path d="M242.4 468.2a2.7 2.7 0 1 1-5.5 0 2.7 2.7 0 1 1 5.5 0z" style="opacity:1;fill:#fff;fill-opacity:1;stroke:#000;stroke-width:.60000002;stroke-linecap:butt;stroke-linejoin:miter;stroke-miterlimit:4;stroke-dasharray:none;stroke-opacity:1" transform="translate(-79.061 -166.835)"/><path d="M242.4 468.2a2.7 2.7 0 1 1-5.5 0 2.7 2.7 0 1 1 5.5 0z" style="opacity:1;fill:#fff;fill-opacity:1;stroke:#000;stroke-width:.60000002;stroke-linecap:butt;stroke-linejoin:miter;stroke-miterlimit:4;stroke-dasharray:none;stroke-opacity:1" transform="translate(-56.88 -168.944)"/><path d="M242.4 468.2a2.7 2.7 0 1 1-5.5 0 2.7 2.7 0 1 1 5.5 0z" style="opacity:1;fill:#fff;fill-opacity:1;stroke:#000;stroke-width:.60000002;stroke-linecap:butt;stroke-linejoin:miter;stroke-miterlimit:4;stroke-dasharray:none;stroke-opacity:1" transform="translate(-65.808 -157.685)"/><path d="M242.4 468.2a2.7 2.7 0 1 1-5.5 0 2.7 2.7 0 1 1 5.5 0z" style="opacity:1;fill:#fff;fill-opacity:1;stroke:#000;stroke-width:.60000002;stroke-linecap:butt;stroke-linejoin:miter;stroke-miterlimit:4;stroke-dasharray:none;stroke-opacity:1" transform="translate(-55.025 -182.434)"/><path d="M242.4 468.2a2.7 2.7 0 1 1-5.5 0 2.7 2.7 0 1 1 5.5 0z" style="opacity:1;fill:#fff;fill-opacity:1;stroke:#000;stroke-width:.60000002;stroke-linecap:butt;stroke-linejoin:miter;stroke-miterlimit:4;stroke-dasharray:none;stroke-opacity:1" transform="translate(-72.36 -182.434)"/><path d="M242.4 468.2a2.7 2.7 0 1 1-5.5 0 2.7 2.7 0 1 1 5.5 0z" style="opacity:1;fill:#fff;fill-opacity:1;stroke:#000;stroke-width:.60000002;stroke-linecap:butt;stroke-linejoin:miter;stroke-miterlimit:4;stroke-dasharray:none;stroke-opacity:1" transform="translate(-80.139 -194.985)"/><path d="M242.4 468.2a2.7 2.7 0 1 1-5.5 0 2.7 2.7 0 1 1 5.5 0z" style="opacity:1;fill:#fff;fill-opacity:1;stroke:#000;stroke-width:.60000002;stroke-linecap:butt;stroke-linejoin:miter;stroke-miterlimit:4;stroke-dasharray:none;stroke-opacity:1" transform="translate(-66.174 -199.051)"/><path d="M242.4 468.2a2.7 2.7 0 1 1-5.5 0 2.7 2.7 0 1 1 5.5 0z" style="opacity:1;fill:#fff;fill-opacity:1;stroke:#000;stroke-width:.60000002;stroke-linecap:butt;stroke-linejoin:miter;stroke-miterlimit:4;stroke-dasharray:none;stroke-opacity:1" transform="translate(-45.88 -210.944)"/><path d="M242.4 468.2a2.7 2.7 0 1 1-5.5 0 2.7 2.7 0 1 1 5.5 0z" style="opacity:1;fill:#fff;fill-opacity:1;stroke:#000;stroke-width:.60000002;stroke-linecap:butt;stroke-linejoin:miter;stroke-miterlimit:4;stroke-dasharray:none;stroke-opacity:1" transform="translate(-85.36 -210.464)"/><path d="M242.4 468.2a2.7 2.7 0 1 1-5.5 0 2.7 2.7 0 1 1 5.5 0z" style="opacity:1;fill:#fff;fill-opacity:1;stroke:#000;stroke-width:.60000002;stroke-linecap:butt;stroke-linejoin:miter;stroke-miterlimit:4;stroke-dasharray:none;stroke-opacity:1" transform="translate(-49.62 -225.464)"/><path d="M242.4 468.2a2.7 2.7 0 1 1-5.5 0 2.7 2.7 0 1 1 5.5 0z" style="opacity:1;fill:#fff;fill-opacity:1;stroke:#000;stroke-width:.60000002;stroke-linecap:butt;stroke-linejoin:miter;stroke-miterlimit:4;stroke-dasharray:none;stroke-opacity:1" transform="translate(-69.62 -217.444)"/><path d="M242.4 468.2a2.7 2.7 0 1 1-5.5 0 2.7 2.7 0 1 1 5.5 0z" style="opacity:1;fill:#fff;fill-opacity:1;stroke:#000;stroke-width:.60000002;stroke-linecap:butt;stroke-linejoin:miter;stroke-miterlimit:4;stroke-dasharray:none;stroke-opacity:1" transform="translate(-80.72 -230.464)"/><path d="M242.4 468.2a2.7 2.7 0 1 1-5.5 0 2.7 2.7 0 1 1 5.5 0z" style="opacity:1;fill:#fff;fill-opacity:1;stroke:#000;stroke-width:.60000002;stroke-linecap:butt;stroke-linejoin:miter;stroke-miterlimit:4;stroke-dasharray:none;stroke-opacity:1" transform="translate(-57.36 -233.204)"/><path d="M242.4 468.2a2.7 2.7 0 1 1-5.5 0 2.7 2.7 0 1 1 5.5 0z" style="opacity:1;fill:#fff;fill-opacity:1;stroke:#000;stroke-width:.60000002;stroke-linecap:butt;stroke-linejoin:miter;stroke-miterlimit:4;stroke-dasharray:none;stroke-opacity:1" transform="translate(-68.699 -229.05)"/><path d="M242.4 468.2a2.7 2.7 0 1 1-5.5 0 2.7 2.7 0 1 1 5.5 0z" style="opacity:1;fill:#fff;fill-opacity:1;stroke:#000;stroke-width:.60000002;stroke-linecap:butt;stroke-linejoin:miter;stroke-miterlimit:4;stroke-dasharray:none;stroke-opacity:1" transform="translate(14.38 -239.857)"/><path d="M242.4 468.2a2.7 2.7 0 1 1-5.5 0 2.7 2.7 0 1 1 5.5 0z" style="opacity:1;fill:#fff;fill-opacity:1;stroke:#000;stroke-width:.60000002;stroke-linecap:butt;stroke-linejoin:miter;stroke-miterlimit:4;stroke-dasharray:none;stroke-opacity:1" transform="translate(28.911 -242.578)"/><path d="M242.4 468.2a2.7 2.7 0 1 1-5.5 0 2.7 2.7 0 1 1 5.5 0z" style="opacity:1;fill:#fff;fill-opacity:1;stroke:#000;stroke-width:.60000002;stroke-linecap:butt;stroke-linejoin:miter;stroke-miterlimit:4;stroke-dasharray:none;stroke-opacity:1" transform="translate(10.64 -248.964)"/><path d="M242.4 468.2a2.7 2.7 0 1 1-5.5 0 2.7 2.7 0 1 1 5.5 0z" style="opacity:1;fill:#fff;fill-opacity:1;stroke:#000;stroke-width:.60000002;stroke-linecap:butt;stroke-linejoin:miter;stroke-miterlimit:4;stroke-dasharray:none;stroke-opacity:1" transform="translate(29.64 -252.204)"/><path d="M112 168.9a12 16.5 0 1 1-24 0 12 16.5 0 1 1 24 0" style="opacity:1;fill:#05350a;fill-opacity:1;stroke:none;stroke-width:.60000002;stroke-linecap:butt;stroke-linejoin:miter;stroke-miterlimit:4;stroke-dasharray:none;stroke-opacity:1" transform="translate(-74.813 -113.612)"/><path d="M90.1 164.6h10v21.2h-10z" style="opacity:1;fill:#fff;fill-opacity:1;stroke:none;stroke-width:.60000002;stroke-linecap:butt;stroke-linejoin:miter;stroke-miterlimit:4;stroke-dasharray:none;stroke-opacity:1" transform="translate(-70 -112.362)"/><path d="M230 422.4H125m115 55H125m120 55H125.1" style="fill:none;fill-rule:evenodd;stroke:#000;stroke-width:1.5;stroke-linecap:butt;stroke-linejoin:miter;stroke-miterlimit:4;stroke-dasharray:none;stroke-opacity:1" transform="translate(-70 -112.362)"/><path d="M450 462.4h-40" style="fill:none;fill-rule:evenodd;stroke:#000;stroke-width:1.50017571;stroke-linecap:butt;stroke-linejoin:miter;stroke-miterlimit:4;stroke-dasharray:none;stroke-opacity:1" transform="translate(-70 -112.362)"/><path d="M450 342.4H335" style="fill:none;fill-rule:evenodd;stroke:#000;stroke-width:1.5;stroke-linecap:butt;stroke-linejoin:miter;stroke-miterlimit:4;stroke-dasharray:none;stroke-opacity:1" transform="translate(-70 -112.362)"/><path d="M125 434.9a22.5 22.5 0 1 1-45 0 22.5 22.5 0 1 1 45 0z" style="opacity:1;fill:#fff;fill-opacity:1;stroke:#000;stroke-width:1.5;stroke-linecap:butt;stroke-linejoin:miter;stroke-miterlimit:4;stroke-dasharray:none;stroke-opacity:1" transform="translate(-32.27 21.306)scale(.66667)"/><text xml:space="preserve" x="95.7" y="435.2" style="font-size:32px;font-style:normal;font-variant:normal;font-weight:400;font-stretch:normal;fill:#000;fill-opacity:1;stroke:none;stroke-width:1px;stroke-linecap:butt;stroke-linejoin:miter;stroke-opacity:1;font-family:DejaVu Sans;-inkscape-font-specification:DejaVu Sans" transform="translate(-70 -112.362)"><tspan x="95.7" y="435.2">1</tspan></text><path d="M125 434.9a22.5 22.5 0 1 1-45 0 22.5 22.5 0 1 1 45 0z" style="opacity:1;fill:#fff;fill-opacity:1;stroke:#000;stroke-width:1.5;stroke-linecap:butt;stroke-linejoin:miter;stroke-miterlimit:4;stroke-dasharray:none;stroke-opacity:1" transform="translate(-32.27 76.46)scale(.66667)"/><text xml:space="preserve" x="96.5" y="489.7" style="font-size:32px;font-style:normal;font-variant:normal;font-weight:400;font-stretch:normal;fill:#000;fill-opacity:1;stroke:none;stroke-width:1px;stroke-linecap:butt;stroke-linejoin:miter;stroke-opacity:1;font-family:DejaVu Sans;-inkscape-font-specification:DejaVu Sans" transform="translate(-70 -112.362)"><tspan x="96.5" y="489.7">2</tspan></text><path d="M125 434.9a22.5 22.5 0 1 1-45 0 22.5 22.5 0 1 1 45 0z" style="opacity:1;fill:#fff;fill-opacity:1;stroke:#000;stroke-width:1.5;stroke-linecap:butt;stroke-linejoin:miter;stroke-miterlimit:4;stroke-dasharray:none;stroke-opacity:1" transform="translate(-32.27 130.908)scale(.66667)"/><text xml:space="preserve" x="96.7" y="544.9" style="font-size:32px;font-style:normal;font-variant:normal;font-weight:400;font-stretch:normal;fill:#000;fill-opacity:1;stroke:none;stroke-width:1px;stroke-linecap:butt;stroke-linejoin:miter;stroke-opacity:1;font-family:DejaVu Sans;-inkscape-font-specification:DejaVu Sans" transform="translate(-70 -112.362)"><tspan x="96.7" y="544.9">3</tspan></text><path d="M125 434.9a22.5 22.5 0 1 1-45 0 22.5 22.5 0 1 1 45 0z" style="opacity:1;fill:#fff;fill-opacity:1;stroke:#000;stroke-width:1.5;stroke-linecap:butt;stroke-linejoin:miter;stroke-miterlimit:4;stroke-dasharray:none;stroke-opacity:1" transform="translate(330.476 60.904)scale(.66667)"/><text xml:space="preserve" x="459.5" y="475" style="font-size:32px;font-style:normal;font-variant:normal;font-weight:400;font-stretch:normal;fill:#000;fill-opacity:1;stroke:none;stroke-width:1px;stroke-linecap:butt;stroke-linejoin:miter;stroke-opacity:1;font-family:DejaVu Sans;-inkscape-font-specification:DejaVu Sans" transform="translate(-70 -112.362)"><tspan x="459.5" y="475">5</tspan></text><path d="M125 434.9a22.5 22.5 0 1 1-45 0 22.5 22.5 0 1 1 45 0z" style="opacity:1;fill:#fff;fill-opacity:1;stroke:#000;stroke-width:1.5;stroke-linecap:butt;stroke-linejoin:miter;stroke-miterlimit:4;stroke-dasharray:none;stroke-opacity:1" transform="translate(330.476 -59.908)scale(.66667)"/><text xml:space="preserve" x="457.3" y="353.4" style="font-size:32px;font-style:normal;font-variant:normal;font-weight:400;font-stretch:normal;fill:#000;fill-opacity:1;stroke:none;stroke-width:1px;stroke-linecap:butt;stroke-linejoin:miter;stroke-opacity:1;font-family:DejaVu Sans;-inkscape-font-specification:DejaVu Sans" transform="translate(-70 -112.362)"><tspan x="457.3" y="353.4">4</tspan></text><path d="M146.1 370.9H89.4" style="fill:none;fill-rule:evenodd;stroke:#000;stroke-width:1.10217452;stroke-linecap:butt;stroke-linejoin:miter;stroke-miterlimit:4;stroke-dasharray:none;stroke-opacity:1" transform="translate(-70 -112.362)"/><path d="m146 370.8-10.1-3.7m10.2 3.8-10.2 3.7" style="fill:none;fill-rule:evenodd;stroke:#000;stroke-width:1.10217452;stroke-linecap:round;stroke-linejoin:miter;stroke-miterlimit:4;stroke-dasharray:none;stroke-opacity:1" transform="translate(-70 -112.362)"/><text xml:space="preserve" x="90" y="366.8" style="font-size:24.99700928px;font-style:normal;font-weight:400;fill:#000;fill-opacity:1;stroke:none;stroke-width:1px;stroke-linecap:butt;stroke-linejoin:miter;stroke-opacity:1;font-family:Bitstream Vera Sans" transform="translate(-70 -112.362)"><tspan x="90" y="366.8">H</tspan></text><text xml:space="preserve" x="105.9" y="369" style="font-size:12.49850464px;font-style:normal;font-weight:400;fill:#000;fill-opacity:1;stroke:none;stroke-width:1px;stroke-linecap:butt;stroke-linejoin:miter;stroke-opacity:1;font-family:Bitstream Vera Sans" transform="translate(-70 -112.362)"><tspan x="105.9" y="369">2</tspan></text></svg>