<svg xmlns="http://www.w3.org/2000/svg" width="424" height="627" xmlns:xlink="http://www.w3.org/1999/xlink"><defs><path fill="#fff" stroke="#000" d="M242.36 468.204a2.74 2.74 0 1 1-5.48 0 2.74 2.74 0 1 1 5.48 0z" id="a"/><path fill="#fff" stroke="#000" d="M125 434.862a22.5 22.5 0 1 1-45 0 22.5 22.5 0 1 1 45 0z" id="b"/></defs><g transform="translate(-70 -112.362)"><path d="M70 112.36h424v627H70z" fill="#fff"/><path d="m210 272.362-20 10s-20 210-10 230c8.59 17.182 50 40 50 40v50h30v-50s41.41-22.818 50-40c10-20-10-230-10-230l-20-10z" fill="#fff" fill-rule="evenodd"/><path d="M184.797 342.362s-13.092 151.12-5 170c7.567 17.656 50.203 40 50.203 40v50h30l-.203-50s42.16-22.463 50-40c8.184-18.305-5-170-5-170z" fill="#b4cbff" fill-rule="evenodd"/><path d="m210 272.362 10-90h50l10 90z" fill="none" stroke="#000"/><path d="m205 272.362 15-120s9-10 25-10 25 10 25 10l15 120m-55 395h30v35l-30 25z" fill="none" stroke="#000"/><path d="M240 602.362v65h10v-25h120c8.443 0 30.882-1.101 45-17.964 14.263-17.036 15-38.398 15-47.036v-125h-40v125c0 5.281 0 28.624-10 39.286-13.829 14.744-34.696 15.714-40 15.714h-90v-30z" fill="#b4cbff" fill-rule="evenodd" stroke="#000"/><path d="M277.5 634.862a32.5 32.5 0 1 1-65 0 32.5 32.5 0 1 1 65 0z" fill="none" stroke="#000"/><path d="M225 392.362h40v60h-40z" fill="#6e6e6e" fill-rule="evenodd" stroke="#000"/><path d="M315 325.49h30v21.88h-30z" fill="#b4cbff"/><path d="M315 307.362h30v5h10v10h-10v25h-30zm-50 85s-.682-7.527-5.45-10.867c-4.74-3.32-8.99-2.77-12.782-4.133-1.252-.45-1.768-1.115-1.768-2.055V124.362s.022-.955-.508-1.492c-.519-.527-1.492-.508-1.492-.508s-41.03-.915-55 0-26.948 5.061-38 5-26.454-6.387-35-5-16.66 4.595-20 10 0 20 0 20" fill="none" stroke="#000"/><path d="M350.59 312.86h4.96v9h-4.96z" fill="#fff"/><path d="m210 272.362-20 10s-20 210-10 230c8.59 17.182 50 40 50 40v50h30v-50s41.41-22.818 50-40c10-20-10-230-10-230l-20-10z" fill="none" stroke="#000"/><path d="M300.465 287.362H333s1.017-.001 1.536.53c.52.532.464 1.47.464 1.47v48h-10l.016-39.992-23.641-.016z" fill="#fff" fill-rule="evenodd" stroke="#000" stroke-linecap="round" stroke-linejoin="round"/><path d="M302 287.862v8.992h-1.269l-.75-8.992z" fill="#fff" fill-rule="evenodd"/><path d="M325.5 335.11h9v2.75h-9zm25.09-22.25h4.96v9h-4.96z" fill="#fff"/><path d="M390.5 451.86h39v4.69h-39z" fill="#b4cbff"/><path d="M150 365.622h48s.976.018 1.484.531c.516.521.516 1.47.516 1.47v124.74h40v-15h10v23s.043 1.004-.508 1.535c-.53.51-1.465.464-1.465.464h-56.011c-.605 0-.993-.023-1.516-.515-.51-.482-.5-1.485-.5-1.485v-124.74h-40z" fill="#fff" fill-rule="evenodd" stroke="#000" stroke-linecap="round" stroke-linejoin="round"/><path d="M149.49 366.12h4.96v9h-4.96zm91.01 110.74h9v2.74h-9z" fill="#fff"/><path d="M265.893 392.269a1.083 1.093 0 1 1-2.166 0 1.083 1.093 0 1 1 2.166 0"/><use transform="translate(1.768 2.828)" stroke-width="0.6" href="#a"/><use transform="translate(8.485 -2.298)" stroke-width="0.6" href="#a"/><use transform="translate(.38 -9.37)" stroke-width="0.6" href="#a"/><use transform="translate(7.097 -9.016)" stroke-width="0.6" href="#a"/><use transform="translate(10.38 -27.224)" stroke-width="0.6" href="#a"/><use transform="translate(18.12 -40.841)" stroke-width="0.6" href="#a"/><use transform="translate(-5.354 -31.997)" stroke-width="0.6" href="#a"/><use transform="translate(-9.061 -54.472)" stroke-width="0.6" href="#a"/><use transform="translate(13.12 -56.581)" stroke-width="0.6" href="#a"/><use transform="translate(4.192 -45.323)" stroke-width="0.6" href="#a"/><use transform="translate(14.975 -70.072)" stroke-width="0.6" href="#a"/><use transform="translate(-2.36 -70.072)" stroke-width="0.6" href="#a"/><use transform="translate(-10.139 -82.623)" stroke-width="0.6" href="#a"/><use transform="translate(3.826 -86.689)" stroke-width="0.6" href="#a"/><use transform="translate(24.12 -98.581)" stroke-width="0.6" href="#a"/><use transform="translate(-15.36 -98.101)" stroke-width="0.6" href="#a"/><use transform="translate(20.38 -113.101)" stroke-width="0.6" href="#a"/><use transform="translate(.38 -105.081)" stroke-width="0.6" href="#a"/><use transform="translate(-10.72 -118.101)" stroke-width="0.6" href="#a"/><use transform="translate(12.64 -120.841)" stroke-width="0.6" href="#a"/><use transform="translate(1.301 -116.687)" stroke-width="0.6" href="#a"/><use transform="translate(84.38 -127.495)" stroke-width="0.6" href="#a"/><use transform="translate(98.911 -130.216)" stroke-width="0.6" href="#a"/><use transform="translate(80.64 -136.601)" stroke-width="0.6" href="#a"/><use transform="translate(99.64 -139.841)" stroke-width="0.6" href="#a"/><path d="M107.187 167.612a12 16.5 0 1 1-24 0 12 16.5 0 1 1 24 0" fill="#05350a"/><path d="M90.08 164.61h10v21.18h-10z" fill="#fff"/><path d="M230 422.362H125m115.071 55h-115m119.963 55H125.105m324.914-70h-40.01m40.012-120H335.01" fill="none" stroke="#000" stroke-width="1.5"/><use transform="translate(37.73 133.669)scale(.66667)" stroke-width="1.5" href="#b"/><text x="95.65" y="435.2" xml:space="preserve" style="-inkscape-font-specification:DejaVu Sans" font-size="32" font-weight="400" font-family="DejaVu Sans"><tspan x="95.65" y="435.2">1</tspan></text><use transform="translate(37.73 188.823)scale(.66667)" stroke-width="1.5" href="#b"/><text x="96.53" y="489.73" xml:space="preserve" style="-inkscape-font-specification:DejaVu Sans" font-size="32" font-weight="400" font-family="DejaVu Sans"><tspan x="96.53" y="489.73">2</tspan></text><use transform="translate(37.73 243.27)scale(.66667)" stroke-width="1.5" href="#b"/><text x="96.71" y="544.89" xml:space="preserve" style="-inkscape-font-specification:DejaVu Sans" font-size="32" font-weight="400" font-family="DejaVu Sans"><tspan x="96.71" y="544.89">3</tspan></text><use transform="translate(400.476 173.267)scale(.66667)" stroke-width="1.5" href="#b"/><text x="459.46" y="474.97" xml:space="preserve" style="-inkscape-font-specification:DejaVu Sans" font-size="32" font-weight="400" font-family="DejaVu Sans"><tspan x="459.46" y="474.97">5</tspan></text><use transform="translate(400.476 52.454)scale(.66667)" stroke-width="1.5" href="#b"/><text x="457.34" y="353.36" xml:space="preserve" style="-inkscape-font-specification:DejaVu Sans" font-size="32" font-weight="400" font-family="DejaVu Sans"><tspan x="457.34" y="353.36">4</tspan></text><path d="M146.095 370.862h-56.69" fill="none" stroke="#000" stroke-width="1.1"/><path d="m146.064 370.83-10.19-3.75m10.221 3.798-10.19 3.75" fill="none" stroke="#000" stroke-width="1.1" stroke-linecap="round"/><text x="89.96" y="366.8" xml:space="preserve" font-size="25" font-weight="400" font-family="Bitstream Vera Sans"><tspan x="89.96" y="366.8">H</tspan></text><text x="105.9" y="368.99" xml:space="preserve" font-size="12.5" font-weight="400" font-family="Bitstream Vera Sans"><tspan x="105.9" y="368.99">2</tspan></text></g></svg>