<svg xmlns="http://www.w3.org/2000/svg" xmlns:svg="http://www.w3.org/2000/svg" id="svg2" width="424" height="627" version="1.0"><g id="layer1" transform="translate(-70,-112.36218)"><rect id="rect3281" width="424" height="627" x="70" y="112.362" style="opacity:1;fill:#fff;fill-opacity:1;stroke:none;stroke-width:.60000002;stroke-linecap:butt;stroke-linejoin:miter;stroke-miterlimit:4;stroke-dasharray:none;stroke-opacity:1"/><path id="path3213" d="M 210,272.36218 L 190,282.36218 C 190,282.36218 170,492.36218 180,512.36218 C 188.59069,529.54356 230,552.36218 230,552.36218 L 230,602.36218 L 260,602.36218 L 260,552.36218 C 260,552.36218 301.40931,529.54356 310,512.36218 C 320,492.36218 300,282.36218 300,282.36218 L 280,272.36218 L 210,272.36218 z" style="fill:#fff;fill-opacity:1;fill-rule:evenodd;stroke:none;stroke-width:1px;stroke-linecap:butt;stroke-linejoin:miter;stroke-opacity:1"/><path id="path3211" d="M 184.79688,342.36218 C 184.79688,342.36218 171.7052,493.48269 179.79688,512.36218 C 187.36418,530.01822 230,552.36218 230,552.36218 L 230,602.36218 L 260,602.36218 L 259.79688,552.36218 C 259.79688,552.36218 301.95653,529.89868 309.79688,512.36218 C 317.98101,494.05672 304.79688,342.36218 304.79688,342.36218 L 184.79688,342.36218 z" style="fill:#b4cbff;fill-opacity:1;fill-rule:evenodd;stroke:none;stroke-width:1px;stroke-linecap:butt;stroke-linejoin:miter;stroke-opacity:1"/><path id="path2387" d="M 210,272.36218 L 220,182.36218 L 270,182.36218 L 280,272.36218 L 210,272.36218 z" style="fill:none;fill-rule:evenodd;stroke:#000;stroke-width:1px;stroke-linecap:butt;stroke-linejoin:miter;stroke-opacity:1"/><path id="path2389" d="M 205,272.36218 L 220,152.36218 C 220,152.36218 229,142.36218 245,142.36218 C 261,142.36218 270,152.36218 270,152.36218 L 285,272.36218" style="fill:none;fill-rule:evenodd;stroke:#000;stroke-width:1px;stroke-linecap:butt;stroke-linejoin:miter;stroke-opacity:1"/><path id="path3163" d="M 230,667.36218 L 260,667.36218 L 260,702.36218 L 230,727.36218 L 230,667.36218 z" style="fill:none;fill-rule:evenodd;stroke:#000;stroke-width:1px;stroke-linecap:butt;stroke-linejoin:miter;stroke-opacity:1"/><path id="path3165" d="M 240,602.36218 L 240,667.36218 L 250,667.36218 L 250,642.36218 C 250,642.36218 334,642.36217 370,642.36218 C 378.44284,642.36218 400.88183,641.2605 415,624.39771 C 429.26279,607.36218 430,585.9996 430,577.36218 C 430,539.86218 430,452.36218 430,452.36218 L 390,452.36218 C 390,452.36218 390,539.86218 390,577.36218 C 390,582.64301 390,605.98586 380,616.64771 C 366.17116,631.39183 345.30372,632.36218 340,632.36218 C 313,632.36217 250,632.36218 250,632.36218 L 250,602.36218 L 240,602.36218 z" style="fill:#b4cbff;fill-opacity:1;fill-rule:evenodd;stroke:#000;stroke-width:1px;stroke-linecap:butt;stroke-linejoin:miter;stroke-opacity:1"/><path id="path2391" d="M 290,664.86218 A 32.5,32.5 0 1 1 225,664.86218 A 32.5,32.5 0 1 1 290,664.86218 z" transform="translate(-12.5,-30)" style="opacity:1;fill:none;fill-opacity:1;stroke:#000;stroke-width:1;stroke-linecap:butt;stroke-linejoin:miter;stroke-miterlimit:4;stroke-dasharray:none;stroke-opacity:1"/><path id="path3169" d="M 225,392.36218 L 265,392.36218 L 265,452.36218 L 225,452.36218 L 225,392.36218 z" style="fill:#6e6e6e;fill-opacity:1;fill-rule:evenodd;stroke:#000;stroke-width:1px;stroke-linecap:butt;stroke-linejoin:miter;stroke-opacity:1"/><rect id="rect3207" width="30" height="21.875" x="315" y="325.487" style="opacity:1;fill:#b4cbff;fill-opacity:1;stroke:none;stroke-width:1;stroke-linecap:butt;stroke-linejoin:miter;stroke-miterlimit:4;stroke-dasharray:none;stroke-opacity:1"/><path id="path3173" d="M 315,307.36218 L 345,307.36218 L 345,312.36218 L 355,312.36218 L 355,322.36218 L 345,322.36218 L 345,347.36218 L 315,347.36218 L 315,307.36218 z" style="fill:none;fill-opacity:1;fill-rule:evenodd;stroke:#000;stroke-width:1px;stroke-linecap:butt;stroke-linejoin:miter;stroke-opacity:1"/><path id="path3175" d="M 265,392.36218 C 265,392.36218 264.31846,384.83485 259.54954,381.49501 C 254.81023,378.1759 250.5601,378.72567 246.76777,377.36218 C 245.51599,376.91212 245,376.24661 245,375.30745 C 245,300.02387 245,124.36218 245,124.36218 C 245,124.36218 245.02187,123.40749 244.49219,122.87 C 243.97317,122.34332 243,122.36218 243,122.36218 C 243,122.36218 201.96919,121.4471 188,122.36218 C 174.03081,123.27726 161.05226,127.42335 150,127.36218 C 138.94774,127.30101 123.54561,120.97542 115,122.36218 C 106.45439,123.74894 98.340549,126.95706 95,132.36218 C 91.659451,137.7673 95,152.36218 95,152.36218" style="fill:none;fill-rule:evenodd;stroke:#000;stroke-width:1px;stroke-linecap:butt;stroke-linejoin:miter;stroke-opacity:1"/><rect id="rect3199" width="4.96" height="8.998" x="350.587" y="312.861" style="opacity:1;fill:#fff;fill-opacity:1;stroke:none;stroke-width:1;stroke-linecap:butt;stroke-linejoin:miter;stroke-miterlimit:4;stroke-dasharray:none;stroke-opacity:1"/><path id="path2385" d="M 210,272.36218 L 190,282.36218 C 190,282.36218 170,492.36218 180,512.36218 C 188.59069,529.54356 230,552.36218 230,552.36218 L 230,602.36218 L 260,602.36218 L 260,552.36218 C 260,552.36218 301.40931,529.54356 310,512.36218 C 320,492.36218 300,282.36218 300,282.36218 L 280,272.36218 L 210,272.36218 z" style="fill:none;fill-rule:evenodd;stroke:#000;stroke-width:1px;stroke-linecap:butt;stroke-linejoin:miter;stroke-opacity:1"/><path id="path3171" d="M 300.46484,287.36218 L 333,287.36218 C 333,287.36218 334.01668,287.36078 334.53596,287.89251 C 335.05524,288.42424 335,289.36218 335,289.36218 L 335,337.36218 L 325,337.36218 L 325.01562,297.36999 L 301.375,297.35437 L 300.46484,287.36218 z" style="fill:#fff;fill-opacity:1;fill-rule:evenodd;stroke:#000;stroke-width:1px;stroke-linecap:round;stroke-linejoin:round;stroke-opacity:1"/><path id="path3205" d="M 302,287.86218 L 302,296.85437 L 300.73126,296.85437 L 299.98047,287.86218 L 302,287.86218 z" style="fill:#fff;fill-opacity:1;fill-rule:evenodd;stroke:none;stroke-width:1px;stroke-linecap:butt;stroke-linejoin:miter;stroke-opacity:1"/><rect id="rect3201" width="8.998" height="2.752" x="325.501" y="335.111" style="opacity:1;fill:#fff;fill-opacity:1;stroke:none;stroke-width:1;stroke-linecap:butt;stroke-linejoin:miter;stroke-miterlimit:4;stroke-dasharray:none;stroke-opacity:1"/><rect id="rect3215" width="4.96" height="8.998" x="350.587" y="312.861" style="opacity:1;fill:#fff;fill-opacity:1;stroke:none;stroke-width:1;stroke-linecap:butt;stroke-linejoin:miter;stroke-miterlimit:4;stroke-dasharray:none;stroke-opacity:1"/><rect id="rect3221" width="39" height="4.688" x="390.5" y="451.862" style="opacity:1;fill:#b4cbff;fill-opacity:1;stroke:none;stroke-width:1;stroke-linecap:butt;stroke-linejoin:miter;stroke-miterlimit:4;stroke-dasharray:none;stroke-opacity:1"/><path id="path3167" d="M 150,365.62222 L 195,365.62222 L 198,365.62222 C 198,365.62222 198.9765,365.64047 199.48438,366.15347 C 200,366.6743 200,367.62222 200,367.62222 L 200,492.36218 L 240,492.36218 L 240,477.36218 L 250,477.36218 L 250,500.36218 C 250,500.36218 250.04337,501.36675 249.49177,501.89814 C 248.96222,502.40829 248.0273,502.36218 248.0273,502.36218 C 248.0273,502.36218 207.91094,502.36219 192.01563,502.36218 C 191.41094,502.36218 191.02293,502.33925 190.5,501.84656 C 189.98909,501.36518 190,500.36218 190,500.36218 L 190,375.62222 L 150,375.62222 L 150,365.62222 z" style="fill:#fff;fill-opacity:1;fill-rule:evenodd;stroke:#000;stroke-width:1px;stroke-linecap:round;stroke-linejoin:round;stroke-opacity:1"/><rect id="rect3217" width="4.96" height="9.002" x="149.494" y="366.119" style="opacity:1;fill:#fff;fill-opacity:1;stroke:none;stroke-width:1;stroke-linecap:butt;stroke-linejoin:miter;stroke-miterlimit:4;stroke-dasharray:none;stroke-opacity:1"/><rect id="rect3219" width="8.998" height="2.744" x="240.501" y="476.861" style="opacity:1;fill:#fff;fill-opacity:1;stroke:none;stroke-width:1;stroke-linecap:butt;stroke-linejoin:miter;stroke-miterlimit:4;stroke-dasharray:none;stroke-opacity:1"/><path id="path3223" d="M 265.82794,392.45477 A 0.83968931,0.83968931 0 1 1 264.14856,392.45477 A 0.83968931,0.83968931 0 1 1 265.82794,392.45477 z" transform="matrix(1.2894737,0,0,1.301184,-76.883901,-118.38628)" style="opacity:1;fill:#000;fill-opacity:1;stroke:none;stroke-width:1;stroke-linecap:butt;stroke-linejoin:miter;stroke-miterlimit:4;stroke-dasharray:none;stroke-opacity:1"/><path id="path3225" d="M 242.36084,468.20358 A 2.7400389,2.7400389 0 1 1 236.88076,468.20358 A 2.7400389,2.7400389 0 1 1 242.36084,468.20358 z" transform="translate(1.7677669,2.8284271)" style="opacity:1;fill:#fff;fill-opacity:1;stroke:#000;stroke-width:.60000002;stroke-linecap:butt;stroke-linejoin:miter;stroke-miterlimit:4;stroke-dasharray:none;stroke-opacity:1"/><path id="path3227" d="M 242.36084,468.20358 A 2.7400389,2.7400389 0 1 1 236.88076,468.20358 A 2.7400389,2.7400389 0 1 1 242.36084,468.20358 z" transform="translate(8.4852813,-2.298097)" style="opacity:1;fill:#fff;fill-opacity:1;stroke:#000;stroke-width:.60000002;stroke-linecap:butt;stroke-linejoin:miter;stroke-miterlimit:4;stroke-dasharray:none;stroke-opacity:1"/><path id="path3229" d="M 242.36084,468.20358 A 2.7400389,2.7400389 0 1 1 236.88076,468.20358 A 2.7400389,2.7400389 0 1 1 242.36084,468.20358 z" transform="translate(0.3791962,-9.3691648)" style="opacity:1;fill:#fff;fill-opacity:1;stroke:#000;stroke-width:.60000002;stroke-linecap:butt;stroke-linejoin:miter;stroke-miterlimit:4;stroke-dasharray:none;stroke-opacity:1"/><path id="path3231" d="M 242.36084,468.20358 A 2.7400389,2.7400389 0 1 1 236.88076,468.20358 A 2.7400389,2.7400389 0 1 1 242.36084,468.20358 z" transform="translate(7.0967106,-9.0156114)" style="opacity:1;fill:#fff;fill-opacity:1;stroke:#000;stroke-width:.60000002;stroke-linecap:butt;stroke-linejoin:miter;stroke-miterlimit:4;stroke-dasharray:none;stroke-opacity:1"/><path id="path3233" d="M 242.36084,468.20358 A 2.7400389,2.7400389 0 1 1 236.88076,468.20358 A 2.7400389,2.7400389 0 1 1 242.36084,468.20358 z" transform="translate(10.379196,-27.223611)" style="opacity:1;fill:#fff;fill-opacity:1;stroke:#000;stroke-width:.60000002;stroke-linecap:butt;stroke-linejoin:miter;stroke-miterlimit:4;stroke-dasharray:none;stroke-opacity:1"/><path id="path3235" d="M 242.36084,468.20358 A 2.7400389,2.7400389 0 1 1 236.88076,468.20358 A 2.7400389,2.7400389 0 1 1 242.36084,468.20358 z" transform="translate(18.119235,-40.8414)" style="opacity:1;fill:#fff;fill-opacity:1;stroke:#000;stroke-width:.60000002;stroke-linecap:butt;stroke-linejoin:miter;stroke-miterlimit:4;stroke-dasharray:none;stroke-opacity:1"/><path id="path3237" d="M 242.36084,468.20358 A 2.7400389,2.7400389 0 1 1 236.88076,468.20358 A 2.7400389,2.7400389 0 1 1 242.36084,468.20358 z" transform="translate(-5.3539296,-31.996582)" style="opacity:1;fill:#fff;fill-opacity:1;stroke:#000;stroke-width:.60000002;stroke-linecap:butt;stroke-linejoin:miter;stroke-miterlimit:4;stroke-dasharray:none;stroke-opacity:1"/><path id="path3239" d="M 242.36084,468.20358 A 2.7400389,2.7400389 0 1 1 236.88076,468.20358 A 2.7400389,2.7400389 0 1 1 242.36084,468.20358 z" transform="translate(-9.0610364,-54.472349)" style="opacity:1;fill:#fff;fill-opacity:1;stroke:#000;stroke-width:.60000002;stroke-linecap:butt;stroke-linejoin:miter;stroke-miterlimit:4;stroke-dasharray:none;stroke-opacity:1"/><path id="path3241" d="M 242.36084,468.20358 A 2.7400389,2.7400389 0 1 1 236.88076,468.20358 A 2.7400389,2.7400389 0 1 1 242.36084,468.20358 z" transform="translate(13.119235,-56.581439)" style="opacity:1;fill:#fff;fill-opacity:1;stroke:#000;stroke-width:.60000002;stroke-linecap:butt;stroke-linejoin:miter;stroke-miterlimit:4;stroke-dasharray:none;stroke-opacity:1"/><path id="path3243" d="M 242.36084,468.20358 A 2.7400389,2.7400389 0 1 1 236.88076,468.20358 A 2.7400389,2.7400389 0 1 1 242.36084,468.20358 z" transform="translate(4.1920119,-45.323187)" style="opacity:1;fill:#fff;fill-opacity:1;stroke:#000;stroke-width:.60000002;stroke-linecap:butt;stroke-linejoin:miter;stroke-miterlimit:4;stroke-dasharray:none;stroke-opacity:1"/><path id="path3245" d="M 242.36084,468.20358 A 2.7400389,2.7400389 0 1 1 236.88076,468.20358 A 2.7400389,2.7400389 0 1 1 242.36084,468.20358 z" transform="translate(14.97539,-70.071924)" style="opacity:1;fill:#fff;fill-opacity:1;stroke:#000;stroke-width:.60000002;stroke-linecap:butt;stroke-linejoin:miter;stroke-miterlimit:4;stroke-dasharray:none;stroke-opacity:1"/><path id="path3247" d="M 242.36084,468.20358 A 2.7400389,2.7400389 0 1 1 236.88076,468.20358 A 2.7400389,2.7400389 0 1 1 242.36084,468.20358 z" transform="translate(-2.3608427,-70.071924)" style="opacity:1;fill:#fff;fill-opacity:1;stroke:#000;stroke-width:.60000002;stroke-linecap:butt;stroke-linejoin:miter;stroke-miterlimit:4;stroke-dasharray:none;stroke-opacity:1"/><path id="path3249" d="M 242.36084,468.20358 A 2.7400389,2.7400389 0 1 1 236.88076,468.20358 A 2.7400389,2.7400389 0 1 1 242.36084,468.20358 z" transform="translate(-10.139017,-82.623069)" style="opacity:1;fill:#fff;fill-opacity:1;stroke:#000;stroke-width:.60000002;stroke-linecap:butt;stroke-linejoin:miter;stroke-miterlimit:4;stroke-dasharray:none;stroke-opacity:1"/><path id="path3251" d="M 242.36084,468.20358 A 2.7400389,2.7400389 0 1 1 236.88076,468.20358 A 2.7400389,2.7400389 0 1 1 242.36084,468.20358 z" transform="translate(3.8263419,-86.688933)" style="opacity:1;fill:#fff;fill-opacity:1;stroke:#000;stroke-width:.60000002;stroke-linecap:butt;stroke-linejoin:miter;stroke-miterlimit:4;stroke-dasharray:none;stroke-opacity:1"/><path id="path3253" d="M 242.36084,468.20358 A 2.7400389,2.7400389 0 1 1 236.88076,468.20358 A 2.7400389,2.7400389 0 1 1 242.36084,468.20358 z" transform="translate(24.119235,-98.581439)" style="opacity:1;fill:#fff;fill-opacity:1;stroke:#000;stroke-width:.60000002;stroke-linecap:butt;stroke-linejoin:miter;stroke-miterlimit:4;stroke-dasharray:none;stroke-opacity:1"/><path id="path3255" d="M 242.36084,468.20358 A 2.7400389,2.7400389 0 1 1 236.88076,468.20358 A 2.7400389,2.7400389 0 1 1 242.36084,468.20358 z" transform="translate(-15.360843,-98.101361)" style="opacity:1;fill:#fff;fill-opacity:1;stroke:#000;stroke-width:.60000002;stroke-linecap:butt;stroke-linejoin:miter;stroke-miterlimit:4;stroke-dasharray:none;stroke-opacity:1"/><path id="path3257" d="M 242.36084,468.20358 A 2.7400389,2.7400389 0 1 1 236.88076,468.20358 A 2.7400389,2.7400389 0 1 1 242.36084,468.20358 z" transform="translate(20.379196,-113.10136)" style="opacity:1;fill:#fff;fill-opacity:1;stroke:#000;stroke-width:.60000002;stroke-linecap:butt;stroke-linejoin:miter;stroke-miterlimit:4;stroke-dasharray:none;stroke-opacity:1"/><path id="path3259" d="M 242.36084,468.20358 A 2.7400389,2.7400389 0 1 1 236.88076,468.20358 A 2.7400389,2.7400389 0 1 1 242.36084,468.20358 z" transform="translate(0.3791962,-105.08144)" style="opacity:1;fill:#fff;fill-opacity:1;stroke:#000;stroke-width:.60000002;stroke-linecap:butt;stroke-linejoin:miter;stroke-miterlimit:4;stroke-dasharray:none;stroke-opacity:1"/><path id="path3261" d="M 242.36084,468.20358 A 2.7400389,2.7400389 0 1 1 236.88076,468.20358 A 2.7400389,2.7400389 0 1 1 242.36084,468.20358 z" transform="translate(-10.7196,-118.10136)" style="opacity:1;fill:#fff;fill-opacity:1;stroke:#000;stroke-width:.60000002;stroke-linecap:butt;stroke-linejoin:miter;stroke-miterlimit:4;stroke-dasharray:none;stroke-opacity:1"/><path id="path3263" d="M 242.36084,468.20358 A 2.7400389,2.7400389 0 1 1 236.88076,468.20358 A 2.7400389,2.7400389 0 1 1 242.36084,468.20358 z" transform="translate(12.639157,-120.8414)" style="opacity:1;fill:#fff;fill-opacity:1;stroke:#000;stroke-width:.60000002;stroke-linecap:butt;stroke-linejoin:miter;stroke-miterlimit:4;stroke-dasharray:none;stroke-opacity:1"/><path id="path3265" d="M 242.36084,468.20358 A 2.7400389,2.7400389 0 1 1 236.88076,468.20358 A 2.7400389,2.7400389 0 1 1 242.36084,468.20358 z" transform="translate(1.3012152,-116.68714)" style="opacity:1;fill:#fff;fill-opacity:1;stroke:#000;stroke-width:.60000002;stroke-linecap:butt;stroke-linejoin:miter;stroke-miterlimit:4;stroke-dasharray:none;stroke-opacity:1"/><path id="path3267" d="M 242.36084,468.20358 A 2.7400389,2.7400389 0 1 1 236.88076,468.20358 A 2.7400389,2.7400389 0 1 1 242.36084,468.20358 z" transform="translate(84.379196,-127.49489)" style="opacity:1;fill:#fff;fill-opacity:1;stroke:#000;stroke-width:.60000002;stroke-linecap:butt;stroke-linejoin:miter;stroke-miterlimit:4;stroke-dasharray:none;stroke-opacity:1"/><path id="path3269" d="M 242.36084,468.20358 A 2.7400389,2.7400389 0 1 1 236.88076,468.20358 A 2.7400389,2.7400389 0 1 1 242.36084,468.20358 z" transform="translate(98.911366,-130.21564)" style="opacity:1;fill:#fff;fill-opacity:1;stroke:#000;stroke-width:.60000002;stroke-linecap:butt;stroke-linejoin:miter;stroke-miterlimit:4;stroke-dasharray:none;stroke-opacity:1"/><path id="path3273" d="M 242.36084,468.20358 A 2.7400389,2.7400389 0 1 1 236.88076,468.20358 A 2.7400389,2.7400389 0 1 1 242.36084,468.20358 z" transform="translate(80.639157,-136.60136)" style="opacity:1;fill:#fff;fill-opacity:1;stroke:#000;stroke-width:.60000002;stroke-linecap:butt;stroke-linejoin:miter;stroke-miterlimit:4;stroke-dasharray:none;stroke-opacity:1"/><path id="path3275" d="M 242.36084,468.20358 A 2.7400389,2.7400389 0 1 1 236.88076,468.20358 A 2.7400389,2.7400389 0 1 1 242.36084,468.20358 z" transform="translate(99.639157,-139.8414)" style="opacity:1;fill:#fff;fill-opacity:1;stroke:#000;stroke-width:.60000002;stroke-linecap:butt;stroke-linejoin:miter;stroke-miterlimit:4;stroke-dasharray:none;stroke-opacity:1"/><path id="path3277" d="M 112,168.86218 A 12,16.500002 0 1 1 88,168.86218 A 12,16.500002 0 1 1 112,168.86218 z" transform="translate(-4.8125,-1.25)" style="opacity:1;fill:#05350a;fill-opacity:1;stroke:none;stroke-width:.60000002;stroke-linecap:butt;stroke-linejoin:miter;stroke-miterlimit:4;stroke-dasharray:none;stroke-opacity:1"/><rect id="rect3279" width="10" height="21.179" x="90.085" y="164.612" style="opacity:1;fill:#fff;fill-opacity:1;stroke:none;stroke-width:.60000002;stroke-linecap:butt;stroke-linejoin:miter;stroke-miterlimit:4;stroke-dasharray:none;stroke-opacity:1"/><path id="path3283" d="M 230,422.36218 L 125,422.36218" style="fill:none;fill-rule:evenodd;stroke:#000;stroke-width:1.5;stroke-linecap:butt;stroke-linejoin:miter;stroke-miterlimit:4;stroke-dasharray:none;stroke-opacity:1"/><path id="path3285" d="M 240.07143,477.36218 L 125.07143,477.36218" style="fill:none;fill-rule:evenodd;stroke:#000;stroke-width:1.5;stroke-linecap:butt;stroke-linejoin:miter;stroke-miterlimit:4;stroke-dasharray:none;stroke-opacity:1"/><path id="path3287" d="M 245.03364,532.36218 L 125.10507,532.36218" style="fill:none;fill-rule:evenodd;stroke:#000;stroke-width:1.5;stroke-linecap:butt;stroke-linejoin:miter;stroke-miterlimit:4;stroke-dasharray:none;stroke-opacity:1"/><path id="path3289" d="M 450.01851,462.36218 L 410.00914,462.36218" style="fill:none;fill-rule:evenodd;stroke:#000;stroke-width:1.50017571;stroke-linecap:butt;stroke-linejoin:miter;stroke-miterlimit:4;stroke-dasharray:none;stroke-opacity:1"/><path id="path3291" d="M 450.02141,342.36218 L 335.00899,342.36218" style="fill:none;fill-rule:evenodd;stroke:#000;stroke-width:1.5;stroke-linecap:butt;stroke-linejoin:miter;stroke-miterlimit:4;stroke-dasharray:none;stroke-opacity:1"/><path id="path3293" d="M 125,434.86218 A 22.5,22.5 0 1 1 80,434.86218 A 22.5,22.5 0 1 1 125,434.86218 z" transform="matrix(0.6666667,0,0,0.6666667,37.730375,133.66853)" style="opacity:1;fill:#fff;fill-opacity:1;stroke:#000;stroke-width:1.5;stroke-linecap:butt;stroke-linejoin:miter;stroke-miterlimit:4;stroke-dasharray:none;stroke-opacity:1"/><text id="text3295" x="95.651" y="435.197" xml:space="preserve" style="font-size:32px;font-style:normal;font-variant:normal;font-weight:400;font-stretch:normal;fill:#000;fill-opacity:1;stroke:none;stroke-width:1px;stroke-linecap:butt;stroke-linejoin:miter;stroke-opacity:1;font-family:DejaVu Sans;-inkscape-font-specification:DejaVu Sans"><tspan id="tspan3297" x="95.651" y="435.197">1</tspan></text><path id="path3299" d="M 125,434.86218 A 22.5,22.5 0 1 1 80,434.86218 A 22.5,22.5 0 1 1 125,434.86218 z" transform="matrix(0.6666667,0,0,0.6666667,37.730375,188.82286)" style="opacity:1;fill:#fff;fill-opacity:1;stroke:#000;stroke-width:1.5;stroke-linecap:butt;stroke-linejoin:miter;stroke-miterlimit:4;stroke-dasharray:none;stroke-opacity:1"/><text id="text3301" x="96.535" y="489.732" xml:space="preserve" style="font-size:32px;font-style:normal;font-variant:normal;font-weight:400;font-stretch:normal;fill:#000;fill-opacity:1;stroke:none;stroke-width:1px;stroke-linecap:butt;stroke-linejoin:miter;stroke-opacity:1;font-family:DejaVu Sans;-inkscape-font-specification:DejaVu Sans"><tspan id="tspan3303" x="96.535" y="489.732">2</tspan></text><path id="path3305" d="M 125,434.86218 A 22.5,22.5 0 1 1 80,434.86218 A 22.5,22.5 0 1 1 125,434.86218 z" transform="matrix(0.6666667,0,0,0.6666667,37.730375,243.27008)" style="opacity:1;fill:#fff;fill-opacity:1;stroke:#000;stroke-width:1.5;stroke-linecap:butt;stroke-linejoin:miter;stroke-miterlimit:4;stroke-dasharray:none;stroke-opacity:1"/><text id="text3307" x="96.711" y="544.887" xml:space="preserve" style="font-size:32px;font-style:normal;font-variant:normal;font-weight:400;font-stretch:normal;fill:#000;fill-opacity:1;stroke:none;stroke-width:1px;stroke-linecap:butt;stroke-linejoin:miter;stroke-opacity:1;font-family:DejaVu Sans;-inkscape-font-specification:DejaVu Sans"><tspan id="tspan3309" x="96.711" y="544.887">3</tspan></text><path id="path3331" d="M 125,434.86218 A 22.5,22.5 0 1 1 80,434.86218 A 22.5,22.5 0 1 1 125,434.86218 z" transform="matrix(0.6666667,0,0,0.6666667,400.47615,173.26651)" style="opacity:1;fill:#fff;fill-opacity:1;stroke:#000;stroke-width:1.5;stroke-linecap:butt;stroke-linejoin:miter;stroke-miterlimit:4;stroke-dasharray:none;stroke-opacity:1"/><text id="text3333" x="459.457" y="474.971" xml:space="preserve" style="font-size:32px;font-style:normal;font-variant:normal;font-weight:400;font-stretch:normal;fill:#000;fill-opacity:1;stroke:none;stroke-width:1px;stroke-linecap:butt;stroke-linejoin:miter;stroke-opacity:1;font-family:DejaVu Sans;-inkscape-font-specification:DejaVu Sans"><tspan id="tspan3335" x="459.457" y="474.971">5</tspan></text><path id="path3337" d="M 125,434.86218 A 22.5,22.5 0 1 1 80,434.86218 A 22.5,22.5 0 1 1 125,434.86218 z" transform="matrix(0.6666667,0,0,0.6666667,400.47615,52.454046)" style="opacity:1;fill:#fff;fill-opacity:1;stroke:#000;stroke-width:1.5;stroke-linecap:butt;stroke-linejoin:miter;stroke-miterlimit:4;stroke-dasharray:none;stroke-opacity:1"/><text id="text3339" x="457.336" y="353.362" xml:space="preserve" style="font-size:32px;font-style:normal;font-variant:normal;font-weight:400;font-stretch:normal;fill:#000;fill-opacity:1;stroke:none;stroke-width:1px;stroke-linecap:butt;stroke-linejoin:miter;stroke-opacity:1;font-family:DejaVu Sans;-inkscape-font-specification:DejaVu Sans"><tspan id="tspan3341" x="457.336" y="353.362">4</tspan></text><path id="path3343" d="M 146.09507,370.86218 L 89.404929,370.86218" style="fill:none;fill-rule:evenodd;stroke:#000;stroke-width:1.10217452;stroke-linecap:butt;stroke-linejoin:miter;stroke-miterlimit:4;stroke-dasharray:none;stroke-opacity:1"/><path id="path3345" d="M 146.06383,370.83093 L 135.87369,367.08093" style="fill:none;fill-rule:evenodd;stroke:#000;stroke-width:1.10217452;stroke-linecap:round;stroke-linejoin:miter;stroke-miterlimit:4;stroke-dasharray:none;stroke-opacity:1"/><path id="path3347" d="M 146.09507,370.8778 L 135.90493,374.6278" style="fill:none;fill-rule:evenodd;stroke:#000;stroke-width:1.10217452;stroke-linecap:round;stroke-linejoin:miter;stroke-miterlimit:4;stroke-dasharray:none;stroke-opacity:1"/><text id="text3349" x="89.961" y="366.8" xml:space="preserve" style="font-size:24.99700928px;font-style:normal;font-weight:400;fill:#000;fill-opacity:1;stroke:none;stroke-width:1px;stroke-linecap:butt;stroke-linejoin:miter;stroke-opacity:1;font-family:Bitstream Vera Sans"><tspan id="tspan3351" x="89.961" y="366.8">H</tspan></text><text id="text3353" x="105.897" y="368.987" xml:space="preserve" style="font-size:12.49850464px;font-style:normal;font-weight:400;fill:#000;fill-opacity:1;stroke:none;stroke-width:1px;stroke-linecap:butt;stroke-linejoin:miter;stroke-opacity:1;font-family:Bitstream Vera Sans"><tspan id="tspan3355" x="105.897" y="368.987">2</tspan></text></g></svg>