<svg viewBox="0 0 440 355"><path fill="#f8f9fa" d="M0 0h440v355H0z"/><path fill="none" stroke="#1e1e1e" stroke-linecap="round" stroke-width="4" d="M10 310h420m-420 0h420m-23.5 8.6L430 310m-23.5 8.6L430 310m-23.5-8.5L430 310m-23.5-8.6L430 310M30 330V10m0 320V10m8.6 23.5L30 10m8.5 23.5L30 10m-8.5 23.5c3-8.6 6.2-17.1 8.5-23.5m-8.5 23.5L30 10m0 60 340 240M30 70l340 240M30 70l220 240M30 70l220 240m120 0L30 150m340 160L30 150"/><text y="26.7" fill="#1e1e1e" dominant-baseline="alphabetic" font-family="Nunito, sans-serif, Segoe UI Emoji" font-size="28" style="white-space:pre" transform="translate(50 10)">U/V</text><text y="26.7" fill="#1e1e1e" dominant-baseline="alphabetic" font-family="Nunito, sans-serif, Segoe UI Emoji" font-size="28" style="white-space:pre" transform="translate(390 270)">I/A</text><text y="26.7" fill="#1e1e1e" dominant-baseline="alphabetic" font-family="Nunito, sans-serif, Segoe UI Emoji" font-size="28" style="white-space:pre" transform="translate(10 50)">E</text><text y="26.7" fill="#1e1e1e" dominant-baseline="alphabetic" font-family="Nunito, sans-serif, Segoe UI Emoji" font-size="28" style="white-space:pre" transform="translate(330 310)">E/R</text><text y="19.1" fill="#1e1e1e" dominant-baseline="alphabetic" font-family="Nunito, sans-serif, Segoe UI Emoji" font-size="20" style="white-space:pre" transform="translate(150 270)">内接法</text><text y="19.1" fill="#1e1e1e" dominant-baseline="alphabetic" font-family="Nunito, sans-serif, Segoe UI Emoji" font-size="20" style="white-space:pre" transform="translate(50 190)">外接法</text></svg>