<svg xmlns:xlink="http://www.w3.org/1999/xlink" viewBox="0 0 150 150"><path fill="#e4e2dd" d="M0 150h150V0H0z" data-name="Artifact"/><g data-name="Span"><clipPath id="a"><path d="M0 0h150v150H0z" transform="matrix(1 0 0 -1 0 150)"/></clipPath><g clip-path="url(#a)"><path d="M52.416 67.098c-3.767-2.78-8.238-4.049-8.414-4.119-.635-.21-1.586.105-1.586 1.197v9.611c0 .528.353 1.021.88 1.197 4.297 1.268 7.605 3.697 7.64 3.697 1.058.563 1.973-.176 1.973-.986v-9.54c0-.458-.176-.81-.493-1.057m-1.972 8.31c-1.337-.776-3.31-1.797-5.563-2.536v-6.97c1.409.527 3.556 1.478 5.563 2.851zm-7.077-36.475c.387.07 1.338.317 1.443.317 1.41 0 1.69-2.077.317-2.429-.422-.106-.809-.212-1.232-.317-1.584-.282-2.112 2.042-.528 2.429m8.45 3.063c7.92 3.521 13.59 9.647 13.66 9.682.247.281 1.127.563 1.725.07.528-.422.528-1.232.07-1.725-.246-.282-6.055-6.548-14.47-10.28-1.478-.634-2.428 1.549-.985 2.253m-8.45 6.055c12.393 2.817 22.004 12.674 22.11 12.78.74.67 1.478.317 1.725.035.458-.493.493-1.267.035-1.725-.422-.422-10.21-10.49-23.342-13.449-1.549-.387-2.112 1.938-.528 2.36m.563 6.688c-1.583-.316-2.111 2.008-.527 2.395 12.393 2.817 22.039 12.674 22.11 12.78.246.246 1.126.563 1.725.035.528-.422.493-1.267.035-1.725-.423-.458-10.21-10.491-23.342-13.484m14.399 15.42c-1.443-.739-2.605 1.338-1.197 2.148 4.401 2.43 8.31 6.618 8.344 6.654.246.246 1.162.598 1.725.07a1.222 1.222 0 00.07-1.725c-.14-.176-4.189-4.506-8.942-7.147"/></g><path d="M58.33 79.28c-1.443-.74-2.605 1.338-1.197 2.148 4.401 2.429 8.31 6.618 8.344 6.654.246.246 1.162.598 1.725.07a1.222 1.222 0 00.07-1.725c-.14-.176-4.189-4.506-8.942-7.147" data-name="Figure"/><path d="M95.508 41.75c-.035-1.725-2.57-1.725-2.605 0 .035 1.725 2.57 1.725 2.605 0" data-name="Span"/><path d="M131.7 48.474c-.457-.211-.914-.458-1.337-.669-.74-.352-1.62.141-1.725.951-.141.845.599 1.302 1.303 1.584v62.914c-19.962-8.872-39.08-5.774-53.866.035V50.34c-.106-.845-.247-1.514-.705-2.394-8.273-12.815-21.476-22.673-44.36-24.75-.352-.036-1.338.176-1.338 1.232v19.716c-2.077.563-7.252 2.112-11.407 4.33a1.21 1.21 0 00-.67 1.091v75.976c0 .88.776 1.373 1.586 1.232 30.489-8.52 51.12-1.091 55.66-.035 4.543-1.056 25.526-8.485 55.98.035 1.02.177 1.584-.316 1.584-1.232V49.565c-.035-.457-.282-.88-.704-1.091M20.06 50.305c3.415-1.69 7.464-2.958 9.61-3.591v43.233c0 .634.494 1.197 1.128 1.233 20.913 1.901 32.636 10.174 41.016 21.37-15.315-5.387-31.827-7.886-51.754.669zm53.514 73.582c-15.491-4.331-31.193-5.457-53.514.105v-2.64c23.94-10.457 49.676-1.479 53.514-.036zm0-5.211c-14.4-4.929-34.327-7.816-53.514-.035v-2.711c19.258-9.33 39.924-5.88 53.514 0zm0-7.886c-1.584-2.254-12.815-19.892-41.473-21.969v-63.02c21.053 2.007 34.537 12.428 41.473 24.081zm56.33 13.202c-18.66-5.457-41.262-4.049-53.866-.105v-2.535c3.627-1.373 29.785-10.527 53.866 0zm0-5.316c-19.152-7.816-39.501-4.859-53.866.07v-2.711c4.4-1.971 29.257-11.935 53.866-.035z" data-name="Figure"/><path d="M87.27 84.913c-3.732.986-4.718 5.035-4.682 7.182 0 .669.563 1.232 1.232 1.232h42.529c.669 0 1.233-.563 1.233-1.232-.071-5.175-3.31-8.942-9.049-8.31-2.042-9.223-14.751-8.8-16.159.529-1.655.529-4.26 2.113-4.648 6.549h-2.288V59.459a10.558 10.558 0 004.647-1.655v10.175c0 .387.211.774.528 1.02.317.247.74.282 1.127.14 3.908-1.407 6.408-4.47 7.323-8.871.88.247 1.76.388 2.711.423-2.183 11.477-11.337 8.52-11.689 17.462v1.057c0 .668.564 1.232 1.232 1.232 1.338-.106 1.268-1.268 1.233-2.29 0-2.076 1.126-3.977 2.992-4.998 3.45-1.936 7.746-5.668 8.767-12.604 8.907-1.303 13.484-11.865 8.238-19.223 2.288-8.344-5.95-16.124-14.153-13.378-7.077-8.45-21.018-3.873-21.723 7.076C81.32 36.68 79.56 43.72 83.573 47.7c-.633 5.844 3.767 11.16 9.471 11.759v19.61c-3.838.985-5.281 4.26-5.774 5.844m5.703 5.915h-7.78c.246-1.338 1.021-3.38 3.239-3.627a1.23 1.23 0 001.056-1.021c.035-.14.669-3.38 3.485-4.541zm10.738-4.331a1.208 1.208 0 001.021-1.197c.388-7.64 11.02-7.675 11.478-.07 0 .774.774 1.373 1.514 1.162 3.802-.986 6.724.704 7.287 4.436h-24.855c.352-3.134 2.077-4.12 3.555-4.331m-1.197-20.49v-9.083c1.655.14 2.711 1.83 4.19 2.394-.528 3.098-1.936 5.316-4.19 6.689M85.897 48.756c-.035-1.197.387-3.521 2.64-4.507.634-.246.986-.95.74-1.584-1.197-2.36-4.401 1.127-4.859 2.218-1.795-3.028.141-7.112 3.591-7.675a1.246 1.246 0 001.021-1.232c-.105-8.907 10.914-13.343 17.005-6.901-1.373.95-3.345 2.817-3.873 5.809-.246 1.62 2.113 2.007 2.43.423.563-3.24 3.661-4.683 3.802-4.753 6.724-2.887 13.871 3.697 11.548 10.632-.141.388-.035.81.211 1.127 7.147 9.435-5.281 21.159-14.294 13.484-1.936-1.69-4.753-1.795-6.83-.282-1.408 1.02-3.098 1.55-4.859 1.55-4.541 0-8.273-3.732-8.273-8.31" data-name="Span"/><path fill="#e4e2dd" d="M14.614 74.465h122.095v30.707H14.614z"/></g><symbol id="b"><path d="M.829.67H.577L.53.437.49.5.415.56.357.467.327.61.252.67H0L.124.06.199 0h.212l.058.1.024-.04L.568 0H.78l.124.61-.075.06M.415.204L.333.065H.128l-.122.6h.242L.307.377l.108.174.107-.174.059.288h.242l-.122-.6H.496L.415.204M.505.08h.184l.116.57H.593L.53.337.415.523.3.337.236.65H.025L.14.08h.184l.09.155.09-.155z"/></symbol><symbol id="c"><path d="M.71.67H.442V.51H.343v.1L.268.67H0V.06L.075 0h.268v.25h.099V.06L.517 0h.268v.61L.71.67M.005.665h.258v-.16h.184v.16h.258v-.6H.447v.25H.263v-.25H.005v.6M.462.33V.08H.69v.57H.462V.49H.248v.16H.02V.08h.228v.25h.214z"/></symbol><symbol id="d"><path d="M.577.34l.222.27-.075.06H.423L.342.565V.61L.268.67H0V.06L.075 0h.268v.207L.453.06.527 0h.304L.577.34M.3.272H.263V.065H.005v.6h.258V.452l.162.213h.289L.495.4.747.065H.455L.301.272M.717.08L.476.4l.206.25h-.25L.248.408V.65H.02V.08h.228v.207h.06L.464.08h.254z"/></symbol><use transform="matrix(44.2354 0 0 -44.2354 15.15 104.638)" xlink:href="#b"/><use transform="matrix(44.2354 0 0 -44.2354 58.7 104.638)" xlink:href="#c"/><use transform="matrix(44.2354 0 0 -44.2354 99.396 104.638)" xlink:href="#d"/><use transform="matrix(44.2354 0 0 -44.2354 132.75 101.099)" xlink:href="#e"/></svg>