<svg xmlns="http://www.w3.org/2000/svg" xmlns:xlink="http://www.w3.org/1999/xlink" xml:space="preserve" viewBox="-17.579 -7.045 836 766"><defs><symbol id="svg__github_work__e" viewBox="-35.163 -21.955 70.327 43.91"><polygon fill="#f7941e" stroke="#ed1c24" points="0.001 21.237 8.337 12.658 23.88 15.018 20.129 5.243 33.771 0 20.129 -5.243 23.88 -15.018 8.337 -12.659 0.001 -21.238 -8.337 -12.659 -23.879 -15.018 -20.129 -5.243 -33.77 0 -20.129 5.243 -23.879 15.018 -8.337 12.658"/><text transform="matrix(1 0 0 -1 -18.3359 -6.6074)"><tspan x="0" y="0" font-family="'Helvetica'" font-size="18.5729">AD</tspan><tspan x="25.801" y="0" font-family="'Helvetica'" font-size="18.5729">P</tspan></text></symbol><symbol id="svg__github_work__d" viewBox="-39.814 -24.99 79.63 49.98"><polygon fill="#fff200" stroke="#ed1c24" points="0 24.195 8.396 13.824 23.682 19.573 21.979 8.544 38.316 7.478 27.168 -0.001 38.316 -7.478 21.979 -8.544 23.682 -19.574 8.396 -13.824 0 -24.195 -8.395 -13.824 -23.68 -19.574 -21.979 -8.544 -38.315 -7.478 -27.166 -0.001 -38.315 7.478 -21.979 8.544 -23.68 19.573 -8.395 13.824"/><text transform="matrix(1 0 0 -1 -20.3818 -9.4189)"><tspan x="0" y="0" font-family="'Helvetica'" font-size="23.5741" letter-spacing="-1">A</tspan><tspan x="13.985" y="0" font-family="'Helvetica'" font-size="23.5741">T</tspan><tspan x="28.386" y="0" font-family="'Helvetica'" font-size="23.5741">P</tspan></text></symbol><symbol id="svg__github_work__g" viewBox="-35.163 -21.956 70.327 43.911"><polygon fill="#009f75" stroke="#3d52a4" points="0.001 21.237 8.337 12.658 23.88 15.018 20.129 5.242 33.771 0 20.129 -5.244 23.88 -15.018 8.337 -12.658 0.001 -21.238 -8.337 -12.658 -23.879 -15.018 -20.129 -5.244 -33.77 0 -20.129 5.242 -23.879 15.018 -8.337 12.658"/><text font-family="'Helvetica'" font-size="12.3797" transform="matrix(1 0 0 -1 -19.3359 -3.4375)">NADP+</text></symbol><symbol id="svg__github_work__f" viewBox="-39.815 -24.99 79.63 49.98"><polygon fill="#00a651" stroke="#00aeef" points="-0.001 24.195 8.395 13.824 23.681 19.573 21.979 8.544 38.315 7.478 27.167 -0.001 38.315 -7.478 21.979 -8.544 23.681 -19.574 8.395 -13.824 -0.001 -24.195 -8.396 -13.824 -23.681 -19.574 -21.979 -8.544 -38.316 -7.478 -27.167 -0.001 -38.316 7.478 -21.979 8.544 -23.681 19.573 -8.396 13.824"/><text font-family="'Helvetica'" font-size="14.5767" transform="matrix(1 0 0 -1 -25.0703 -5.376)">NADPH</text></symbol></defs><radialGradient id="svg__github_work__a" cx="313.1768" cy="319.7886" r="175.5131" gradientTransform="matrix(.0268 -.9996 .6331 .017 105.4371 625.366)" gradientUnits="userSpaceOnUse"><stop offset="0.0061" stop-color="#fff100"/><stop offset="1" stop-color="#fff200" stop-opacity="0"/></radialGradient><path fill="url(#svg__github_work__a)" d="M66.984 202.013 312.756 348.65l248.319-142.283-38.754-.341-72.863-75.328s-68.42-45.32-71.961-45.906c-3.543-.586-52.815-1.582-52.815-1.582s-69.401.066-71.457-.4c-2.056-.465-63.775 22.955-63.775 22.955l-65.937 20.088-37.693 48.1 15.679 28.366z" opacity="0.57"/><radialGradient id="svg__github_work__b" cx="283.3291" cy="365.9341" r="175.5018" gradientTransform="matrix(-.872 .4895 -.31 -.5523 643.6791 426.9213)" gradientUnits="userSpaceOnUse"><stop offset="0" stop-color="#f58c1f"/><stop offset="1" stop-color="#f78d1e" stop-opacity="0"/></radialGradient><path fill="url(#svg__github_work__b)" d="m311.615 636.882-.112-286.191L62.03 210.442l19.577 33.447-27.317 101.18s-3.831 81.979-2.518 85.319c1.313 3.342 25.72 46.156 25.72 46.156s35.639 59.551 36.292 61.555c.655 2.004 52.407 42.986 52.407 42.986l51.053 46.312 60.622 7.701 16.315-28.006z" opacity="0.57"/><radialGradient id="svg__github_work__c" cx="257.9756" cy="318.3857" r="175.5165" gradientTransform="rotate(31.38 .2192 430.291)scale(1 .6333)" gradientUnits="userSpaceOnUse"><stop offset="0.0061" stop-color="#eb1d24"/><stop offset="1" stop-color="#ed1c24" stop-opacity="0"/></radialGradient><path fill="url(#svg__github_work__c)" d="M563.771 210.65 314.27 350.847l-.171 286.193 19.582-33.443 101.6-25.711s73.359-36.791 75.631-39.57c2.271-2.781 27.656-45.023 27.656-45.023s34.482-60.229 35.91-61.779c1.426-1.553 11.828-66.74 11.828-66.74l15.393-67.189-22.961-56.631-32.408-.517z" opacity="0.57"/><rect width="102.02" height="60.476" x="207.303" y="352.066" fill="#fff" stroke="#000" opacity="0.5" transform="rotate(60 258.313 382.3099)"/><line x1="24.146" x2="10.187" y1="306.812" y2="315.188" fill="none" stroke="#000" stroke-width="3"/><circle cx="7.396" cy="316.238" r="4.886" fill="#fff" stroke="#000"/><path fill="none" stroke="#000" stroke-width="5" d="M114.196 202.801c18.183-25.774 41.207-47.889 67.75-65.02"/><path fill="none" stroke="#000" stroke-width="5" d="M70.251 363.804c-.518-6.509-.782-13.09-.782-19.733 0-6.104.224-12.156.662-18.148"/><path fill="none" stroke="#000" stroke-width="5" d="M82.289 422.551c-4.702-13.937-8.187-28.434-10.327-43.365"/><path fill="none" stroke="#000" stroke-width="5" d="M104.817 471.008c-6.971-11.508-13.022-23.634-18.053-36.277"/><path fill="none" stroke="#000" stroke-width="5" d="M143.233 519.441c-12.284-12.021-23.31-25.32-32.862-39.685"/><path fill="none" stroke="#000" stroke-width="5" d="M201.122 561.542c-17.916-9.385-34.527-20.919-49.494-34.259"/><path fill="none" stroke="#000" stroke-width="5" d="M462.306 540.158c-19.872 14.971-42.094 26.991-66.013 35.41"/><path fill="none" stroke="#000" stroke-width="5" d="M559.765 329.938c.266 4.677.4 9.389.4 14.132 0 14.001-1.173 27.729-3.426 41.09"/><path fill="none" stroke="#3c57a7" stroke-width="9" d="M431.021 127.932c35.211 18.97 65.256 46.293 87.482 79.316"/><line x1="307.41" x2="321.369" y1="140.711" y2="149.087" fill="none" stroke="#000" stroke-width="3"/><line x1="222.357" x2="211.08" y1="155.72" y2="163.341" fill="none" stroke="#000" stroke-width="3"/><line x1="217.418" x2="223.794" y1="132.272" y2="142.479" fill="none" stroke="#000" stroke-width="3"/><line x1="274.604" x2="274.604" y1="75.799" y2="89.759" fill="none" stroke="#000" stroke-width="3"/><line x1="301.127" x2="301.127" y1="117.329" y2="131.289" fill="none" stroke="#000" stroke-width="3"/><line x1="323.812" x2="323.812" y1="76.497" y2="90.457" fill="none" stroke="#000" stroke-width="3"/><line x1="348.242" x2="348.242" y1="92.201" y2="106.161" fill="none" stroke="#000" stroke-width="3"/><line x1="348.626" x2="348.626" y1="117.007" y2="133.056" fill="none" stroke="#000" stroke-width="3"/><line x1="324.626" x2="324.626" y1="102.007" y2="118.056" fill="none" stroke="#000" stroke-width="3"/><line x1="300.876" x2="300.876" y1="88.757" y2="104.806" fill="none" stroke="#000" stroke-width="3"/><line x1="252.269" x2="252.269" y1="117.329" y2="131.289" fill="none" stroke="#000" stroke-width="3"/><line x1="278.443" x2="278.443" y1="75.799" y2="89.759" fill="none" stroke="#000" stroke-width="3"/><circle cx="252.564" cy="109.427" r="8.25"/><circle cx="276.645" cy="68.944" r="8.251" fill="#ed1f24"/><circle cx="301.423" cy="137.347" r="8.25" fill="#ed1f24"/><circle cx="324.108" cy="68.595" r="8.251" fill="#ed1f24"/><line x1="248.429" x2="229.583" y1="139.665" y2="150.832" fill="none" stroke="#000" stroke-width="3"/><circle cx="276.296" cy="96.165" r="8.25"/><circle cx="300.725" cy="109.078" r="8.251"/><circle cx="324.107" cy="95.816" r="8.25"/><circle cx="348.537" cy="109.078" r="8.25"/><line x1="257.853" x2="271.812" y1="105.812" y2="99.181" fill="none" stroke="#000" stroke-width="3"/><line x1="330.853" x2="344.812" y1="64.312" y2="57.681" fill="none" stroke="#000" stroke-width="3"/><line x1="282.282" x2="296.242" y1="99.181" y2="107.557" fill="none" stroke="#000" stroke-width="3"/><line x1="306.013" x2="321.02" y1="105.463" y2="97.437" fill="none" stroke="#000" stroke-width="3"/><line x1="352.779" x2="367.785" y1="106.51" y2="98.483" fill="none" stroke="#000" stroke-width="3"/><line x1="329.396" x2="344.053" y1="98.134" y2="107.208" fill="none" stroke="#000" stroke-width="3"/><circle cx="252.564" cy="137.695" r="8.25" fill="#ed1f24"/><circle cx="213.709" cy="127.281" r="8.25" fill="#ed1f24"/><line x1="241.867" x2="234.895" y1="168.772" y2="158.964" fill="none" stroke="#000" stroke-width="3"/><circle cx="245.049" cy="174.115" r="8.251" fill="#ed1f24"/><circle cx="206.897" cy="166.1" r="8.25" fill="#ed1f24"/><circle cx="229.584" cy="150.832" r="11.167" fill="#d0158d"/><line x1="389.743" x2="377.279" y1="88.521" y2="93.99" fill="none" stroke="#000" stroke-width="3"/><line x1="389.101" x2="393.538" y1="64.568" y2="75.754" fill="none" stroke="#000" stroke-width="3"/><line x1="418.277" x2="397.73" y1="77.416" y2="85.013" fill="none" stroke="#000" stroke-width="3"/><circle cx="422.699" cy="76.222" r="8.251" fill="#ed1f24"/><circle cx="386.35" cy="58.991" r="8.25" fill="#ed1f24"/><line x1="406.587" x2="401.493" y1="104.869" y2="93.967" fill="none" stroke="#000" stroke-width="3"/><circle cx="408.758" cy="110.697" r="8.25" fill="#ed1f24"/><circle cx="372.668" cy="95.952" r="8.25" fill="#ed1f24"/><circle cx="397.731" cy="85.013" r="11.167" fill="#d0158d"/><circle cx="324.159" cy="150.137" r="4.886" fill="#fff" stroke="#000"/><circle cx="348.937" cy="55.56" r="4.886" fill="#fff" stroke="#000"/><line x1="232.31" x2="246.27" y1="97.317" y2="105.693" fill="none" stroke="#000" stroke-width="3"/><circle cx="228.695" cy="94.847" r="4.886" fill="#fff" stroke="#000"/><circle cx="300.776" cy="85.573" r="4.886" fill="#fff" stroke="#000"/><circle cx="324.507" cy="118.378" r="4.886" fill="#fff" stroke="#000"/><circle cx="348.662" cy="136.581" r="4.886" fill="#fff" stroke="#000"/><circle cx="348.239" cy="88.366" r="4.886" fill="#fff" stroke="#000"/><line x1="252.241" x2="252.241" y1="92.201" y2="106.161" fill="none" stroke="#000" stroke-width="3"/><circle cx="252.238" cy="88.366" r="4.886" fill="#fff" stroke="#000"/><line x1="499.973" x2="514.896" y1="84.056" y2="92.689" fill="none" stroke="#000" stroke-width="3"/><line x1="497.343" x2="512.265" y1="88.137" y2="96.769" fill="none" stroke="#000" stroke-width="3"/><circle cx="493.877" cy="83.837" r="8.251" fill="#ed1f24"/><circle cx="518.245" cy="97.069" r="8.251"/><line x1="539.408" x2="524.421" y1="106.475" y2="97.955" fill="none" stroke="#000" stroke-width="3"/><line x1="537.214" x2="522.228" y1="110.806" y2="102.285" fill="none" stroke="#000" stroke-width="3"/><circle cx="542.676" cy="111.625" r="8.251" fill="#ed1f24"/><path fill="none" stroke="#3c57a7" stroke-width="9" d="M507.23 108.701c-14.92 31.162-11.809 69.442 11.191 98.253"/><line x1="420.233" x2="435.156" y1="289.979" y2="298.612" fill="none" stroke="#000" stroke-width="3"/><line x1="417.603" x2="432.525" y1="294.06" y2="302.692" fill="none" stroke="#000" stroke-width="3"/><line x1="438.907" x2="438.907" y1="311.243" y2="325.203" fill="none" stroke="#000" stroke-width="3"/><line x1="461.591" x2="461.591" y1="270.411" y2="284.371" fill="none" stroke="#000" stroke-width="3"/><line x1="486.021" x2="486.021" y1="286.116" y2="300.076" fill="none" stroke="#000" stroke-width="3"/><line x1="486.406" x2="486.406" y1="310.921" y2="326.971" fill="none" stroke="#000" stroke-width="3"/><line x1="462.406" x2="462.406" y1="295.921" y2="311.971" fill="none" stroke="#000" stroke-width="3"/><circle cx="439.203" cy="331.261" r="8.25" fill="#ed1f24"/><circle cx="461.887" cy="262.51" r="8.251" fill="#ed1f24"/><circle cx="414.137" cy="289.76" r="8.251" fill="#ed1f24"/><circle cx="438.504" cy="302.992" r="8.251"/><circle cx="461.887" cy="289.73" r="8.25"/><circle cx="486.316" cy="302.992" r="8.25"/><line x1="468.632" x2="482.591" y1="258.227" y2="251.596" fill="none" stroke="#000" stroke-width="3"/><line x1="443.792" x2="458.799" y1="299.378" y2="291.351" fill="none" stroke="#000" stroke-width="3"/><line x1="490.558" x2="505.564" y1="300.425" y2="292.398" fill="none" stroke="#000" stroke-width="3"/><line x1="467.175" x2="481.833" y1="292.049" y2="301.123" fill="none" stroke="#000" stroke-width="3"/><line x1="527.522" x2="515.058" y1="282.436" y2="287.905" fill="none" stroke="#000" stroke-width="3"/><line x1="526.88" x2="531.317" y1="258.483" y2="269.668" fill="none" stroke="#000" stroke-width="3"/><line x1="556.056" x2="535.509" y1="271.331" y2="278.927" fill="none" stroke="#000" stroke-width="3"/><circle cx="560.478" cy="270.136" r="8.251" fill="#ed1f24"/><circle cx="524.129" cy="252.906" r="8.25" fill="#ed1f24"/><line x1="544.367" x2="539.272" y1="298.784" y2="287.881" fill="none" stroke="#000" stroke-width="3"/><circle cx="546.537" cy="304.611" r="8.25" fill="#ed1f24"/><circle cx="510.447" cy="289.867" r="8.25" fill="#ed1f24"/><circle cx="535.51" cy="278.927" r="11.167" fill="#d0158d"/><circle cx="486.716" cy="249.475" r="4.886" fill="#fff" stroke="#000"/><circle cx="462.287" cy="312.293" r="4.886" fill="#fff" stroke="#000"/><circle cx="486.441" cy="330.496" r="4.886" fill="#fff" stroke="#000"/><circle cx="486.018" cy="282.281" r="4.886" fill="#fff" stroke="#000"/><circle cx="564.982" cy="256.992" r="3.333" fill="none" stroke="#000"/><line x1="563.078" x2="566.887" y1="256.992" y2="256.992" fill="none" stroke="#000"/><circle cx="428.316" cy="341.325" r="3.333" fill="none" stroke="#000"/><line x1="426.412" x2="430.221" y1="341.325" y2="341.325" fill="none" stroke="#000"/><line x1="627.778" x2="642.701" y1="219.167" y2="227.799" fill="none" stroke="#000" stroke-width="3"/><line x1="625.148" x2="640.07" y1="223.248" y2="231.879" fill="none" stroke="#000" stroke-width="3"/><line x1="646.452" x2="646.452" y1="240.431" y2="254.391" fill="none" stroke="#000" stroke-width="3"/><line x1="669.136" x2="669.136" y1="199.599" y2="213.559" fill="none" stroke="#000" stroke-width="3"/><line x1="693.566" x2="693.566" y1="215.303" y2="229.263" fill="none" stroke="#000" stroke-width="3"/><line x1="693.951" x2="693.951" y1="240.109" y2="256.158" fill="none" stroke="#000" stroke-width="3"/><line x1="669.951" x2="669.951" y1="225.109" y2="241.158" fill="none" stroke="#000" stroke-width="3"/><circle cx="646.748" cy="260.449" r="8.25" fill="#ed1f24"/><circle cx="669.432" cy="191.697" r="8.251" fill="#ed1f24"/><circle cx="621.682" cy="218.947" r="8.251" fill="#ed1f24"/><circle cx="646.049" cy="232.18" r="8.251"/><circle cx="669.432" cy="218.918" r="8.25"/><circle cx="693.861" cy="232.18" r="8.25"/><line x1="676.177" x2="690.136" y1="187.414" y2="180.783" fill="none" stroke="#000" stroke-width="3"/><line x1="651.337" x2="666.344" y1="228.565" y2="220.539" fill="none" stroke="#000" stroke-width="3"/><line x1="698.103" x2="713.109" y1="229.612" y2="221.585" fill="none" stroke="#000" stroke-width="3"/><line x1="674.72" x2="689.377" y1="221.236" y2="230.31" fill="none" stroke="#000" stroke-width="3"/><line x1="735.067" x2="722.603" y1="211.624" y2="217.092" fill="none" stroke="#000" stroke-width="3"/><line x1="734.425" x2="738.862" y1="187.67" y2="198.856" fill="none" stroke="#000" stroke-width="3"/><line x1="763.601" x2="743.054" y1="200.518" y2="208.115" fill="none" stroke="#000" stroke-width="3"/><circle cx="768.023" cy="199.324" r="8.251" fill="#ed1f24"/><circle cx="731.674" cy="182.093" r="8.25" fill="#ed1f24"/><line x1="751.912" x2="746.817" y1="227.971" y2="217.069" fill="none" stroke="#000" stroke-width="3"/><circle cx="754.082" cy="233.799" r="8.25" fill="#ed1f24"/><circle cx="717.992" cy="219.054" r="8.25" fill="#ed1f24"/><circle cx="743.055" cy="208.115" r="11.167" fill="#d0158d"/><circle cx="694.261" cy="178.662" r="4.886" fill="#fff" stroke="#000"/><circle cx="669.832" cy="241.48" r="4.886" fill="#fff" stroke="#000"/><circle cx="693.986" cy="259.683" r="4.886" fill="#fff" stroke="#000"/><circle cx="693.563" cy="211.468" r="4.886" fill="#fff" stroke="#000"/><circle cx="772.527" cy="186.18" r="3.333" fill="none" stroke="#000"/><line x1="770.623" x2="774.432" y1="186.18" y2="186.18" fill="none" stroke="#000"/><circle cx="635.861" cy="270.513" r="3.333" fill="none" stroke="#000"/><line x1="633.957" x2="637.766" y1="270.513" y2="270.513" fill="none" stroke="#000"/><circle cx="435.421" cy="82.622" r="3.333" fill="none" stroke="#000"/><line x1="433.516" x2="437.326" y1="82.622" y2="82.622" fill="none" stroke="#000"/><circle cx="193.422" cy="163.621" r="3.333" fill="none" stroke="#000"/><line x1="191.517" x2="195.327" y1="163.621" y2="163.621" fill="none" stroke="#000"/><circle cx="408.184" cy="511.622" r="3.333" fill="none" stroke="#000"/><line x1="406.279" x2="410.088" y1="511.622" y2="511.622" fill="none" stroke="#000"/><circle cx="385.851" cy="544.955" r="3.333" fill="none" stroke="#000"/><line x1="383.946" x2="387.755" y1="544.955" y2="544.955" fill="none" stroke="#000"/><line x1="437.333" x2="425.881" y1="506.392" y2="513.75" fill="none" stroke="#000" stroke-width="3"/><line x1="432.939" x2="439.076" y1="482.837" y2="493.187" fill="none" stroke="#000" stroke-width="3"/><line x1="463.769" x2="444.669" y1="490.945" y2="501.673" fill="none" stroke="#000" stroke-width="3"/><circle cx="429.346" cy="477.761" r="8.25" fill="#ed1f24"/><line x1="456.535" x2="449.792" y1="519.894" y2="509.925" fill="none" stroke="#000" stroke-width="3"/><circle cx="459.593" cy="525.308" r="8.25" fill="#ed1f24"/><path fill="#ed1f24" d="M426.095 523.351c-3.833 2.465-8.938 1.354-11.401-2.479-2.462-3.836-1.351-8.939 2.482-11.402s8.938-1.354 11.401 2.48 1.352 8.94-2.482 11.401z"/><circle cx="444.671" cy="501.673" r="11.168" fill="#d0158d"/><line x1="450.338" x2="465.261" y1="446.941" y2="455.574" fill="none" stroke="#000" stroke-width="3"/><line x1="447.708" x2="462.63" y1="451.023" y2="459.654" fill="none" stroke="#000" stroke-width="3"/><line x1="469.012" x2="469.012" y1="468.206" y2="482.166" fill="none" stroke="#000" stroke-width="3"/><line x1="491.697" x2="491.697" y1="427.374" y2="441.333" fill="none" stroke="#000" stroke-width="3"/><line x1="516.126" x2="516.126" y1="443.078" y2="457.039" fill="none" stroke="#000" stroke-width="3"/><line x1="516.511" x2="516.511" y1="467.884" y2="483.933" fill="none" stroke="#000" stroke-width="3"/><line x1="492.511" x2="492.511" y1="452.884" y2="468.933" fill="none" stroke="#000" stroke-width="3"/><circle cx="469.308" cy="488.223" r="8.25" fill="#ed1f24"/><circle cx="491.993" cy="419.472" r="8.251" fill="#ed1f24"/><circle cx="444.243" cy="446.722" r="8.251" fill="#ed1f24"/><circle cx="468.61" cy="459.955" r="8.251"/><circle cx="491.992" cy="446.693" r="8.25"/><circle cx="516.422" cy="459.955" r="8.25"/><line x1="498.738" x2="512.697" y1="415.189" y2="408.558" fill="none" stroke="#000" stroke-width="3"/><line x1="473.898" x2="488.905" y1="456.34" y2="448.314" fill="none" stroke="#000" stroke-width="3"/><line x1="520.664" x2="535.669" y1="457.387" y2="449.361" fill="none" stroke="#000" stroke-width="3"/><line x1="497.281" x2="511.938" y1="449.011" y2="458.085" fill="none" stroke="#000" stroke-width="3"/><line x1="557.627" x2="545.164" y1="439.398" y2="444.867" fill="none" stroke="#000" stroke-width="3"/><line x1="556.986" x2="561.422" y1="415.445" y2="426.63" fill="none" stroke="#000" stroke-width="3"/><line x1="586.162" x2="565.615" y1="428.292" y2="435.89" fill="none" stroke="#000" stroke-width="3"/><circle cx="590.583" cy="427.098" r="8.251" fill="#ed1f24"/><circle cx="554.234" cy="409.868" r="8.25" fill="#ed1f24"/><line x1="574.472" x2="569.377" y1="455.746" y2="444.843" fill="none" stroke="#000" stroke-width="3"/><circle cx="576.643" cy="461.574" r="8.25" fill="#ed1f24"/><circle cx="540.553" cy="446.83" r="8.25" fill="#ed1f24"/><circle cx="565.616" cy="435.89" r="11.167" fill="#d0158d"/><circle cx="516.822" cy="406.437" r="4.886" fill="#fff" stroke="#000"/><circle cx="492.392" cy="469.255" r="4.886" fill="#fff" stroke="#000"/><circle cx="516.546" cy="487.458" r="4.886" fill="#fff" stroke="#000"/><circle cx="516.124" cy="439.244" r="4.886" fill="#fff" stroke="#000"/><line x1="236.208" x2="251.13" y1="575.067" y2="583.7" fill="none" stroke="#000" stroke-width="3"/><line x1="233.578" x2="248.5" y1="579.148" y2="587.78" fill="none" stroke="#000" stroke-width="3"/><line x1="254.881" x2="254.881" y1="594.834" y2="612.334" fill="none" stroke="#000" stroke-width="3"/><line x1="277.566" x2="277.566" y1="555.499" y2="569.459" fill="none" stroke="#000" stroke-width="3"/><line x1="301.996" x2="301.996" y1="571.204" y2="585.164" fill="none" stroke="#000" stroke-width="3"/><line x1="302.38" x2="302.38" y1="596.009" y2="612.059" fill="none" stroke="#000" stroke-width="3"/><line x1="278.38" x2="278.38" y1="581.009" y2="597.059" fill="none" stroke="#000" stroke-width="3"/><circle cx="277.862" cy="547.598" r="8.251" fill="#ed1f24"/><circle cx="230.112" cy="574.848" r="8.251" fill="#ed1f24"/><circle cx="254.479" cy="588.081" r="8.251"/><circle cx="277.861" cy="574.819" r="8.25"/><circle cx="302.291" cy="588.081" r="8.25"/><line x1="284.607" x2="298.566" y1="543.315" y2="536.684" fill="none" stroke="#000" stroke-width="3"/><line x1="259.767" x2="274.774" y1="584.465" y2="576.439" fill="none" stroke="#000" stroke-width="3"/><line x1="306.533" x2="321.539" y1="585.512" y2="577.486" fill="none" stroke="#000" stroke-width="3"/><line x1="283.15" x2="297.807" y1="577.137" y2="586.21" fill="none" stroke="#000" stroke-width="3"/><line x1="343.497" x2="331.033" y1="567.524" y2="572.993" fill="none" stroke="#000" stroke-width="3"/><line x1="342.855" x2="347.292" y1="543.571" y2="554.756" fill="none" stroke="#000" stroke-width="3"/><line x1="372.031" x2="351.484" y1="556.418" y2="564.015" fill="none" stroke="#000" stroke-width="3"/><circle cx="376.453" cy="555.224" r="8.251" fill="#ed1f24"/><circle cx="340.104" cy="537.994" r="8.25" fill="#ed1f24"/><line x1="360.341" x2="355.247" y1="583.872" y2="572.969" fill="none" stroke="#000" stroke-width="3"/><circle cx="362.512" cy="589.699" r="8.25" fill="#ed1f24"/><circle cx="326.422" cy="574.955" r="8.25" fill="#ed1f24"/><circle cx="351.485" cy="564.015" r="11.167" fill="#d0158d"/><circle cx="302.691" cy="534.563" r="4.886" fill="#fff" stroke="#000"/><circle cx="278.261" cy="597.381" r="4.886" fill="#fff" stroke="#000"/><circle cx="254.761" cy="615.881" r="4.886" fill="#fff" stroke="#000"/><circle cx="302.416" cy="615.583" r="4.886" fill="#fff" stroke="#000"/><circle cx="301.993" cy="567.369" r="4.886" fill="#fff" stroke="#000"/><line x1="84.1" x2="98.059" y1="305.653" y2="314.029" fill="none" stroke="#000" stroke-width="3"/><line x1="51.294" x2="51.294" y1="240.741" y2="254.701" fill="none" stroke="#000" stroke-width="3"/><line x1="77.818" x2="77.818" y1="282.271" y2="296.23" fill="none" stroke="#000" stroke-width="3"/><line x1="100.502" x2="100.502" y1="241.438" y2="255.398" fill="none" stroke="#000" stroke-width="3"/><line x1="124.932" x2="124.932" y1="257.143" y2="271.103" fill="none" stroke="#000" stroke-width="3"/><line x1="125.317" x2="125.317" y1="281.949" y2="297.998" fill="none" stroke="#000" stroke-width="3"/><line x1="101.317" x2="101.317" y1="266.949" y2="282.998" fill="none" stroke="#000" stroke-width="3"/><line x1="77.567" x2="77.567" y1="253.699" y2="269.748" fill="none" stroke="#000" stroke-width="3"/><line x1="28.959" x2="28.959" y1="282.271" y2="296.23" fill="none" stroke="#000" stroke-width="3"/><line x1="55.133" x2="55.133" y1="240.741" y2="254.701" fill="none" stroke="#000" stroke-width="3"/><circle cx="29.255" cy="274.369" r="8.25"/><circle cx="53.335" cy="233.886" r="8.251" fill="#ed1f24"/><circle cx="78.114" cy="302.289" r="8.25" fill="#ed1f24"/><circle cx="100.798" cy="233.537" r="8.251" fill="#ed1f24"/><circle cx="52.986" cy="261.107" r="8.25"/><circle cx="77.416" cy="274.02" r="8.251"/><circle cx="100.798" cy="260.758" r="8.25"/><circle cx="125.228" cy="274.02" r="8.25"/><line x1="34.543" x2="48.502" y1="270.754" y2="264.123" fill="none" stroke="#000" stroke-width="3"/><line x1="107.543" x2="121.502" y1="229.254" y2="222.623" fill="none" stroke="#000" stroke-width="3"/><line x1="58.972" x2="72.932" y1="264.123" y2="272.499" fill="none" stroke="#000" stroke-width="3"/><line x1="82.704" x2="97.71" y1="270.405" y2="262.378" fill="none" stroke="#000" stroke-width="3"/><line x1="129.469" x2="144.475" y1="271.452" y2="263.425" fill="none" stroke="#000" stroke-width="3"/><line x1="106.086" x2="120.744" y1="263.076" y2="272.15" fill="none" stroke="#000" stroke-width="3"/><circle cx="29.255" cy="302.637" r="8.25" fill="#ed1f24"/><line x1="166.433" x2="153.969" y1="253.463" y2="258.932" fill="none" stroke="#000" stroke-width="3"/><line x1="165.792" x2="170.228" y1="229.51" y2="240.696" fill="none" stroke="#000" stroke-width="3"/><line x1="194.967" x2="174.42" y1="242.358" y2="249.955" fill="none" stroke="#000" stroke-width="3"/><circle cx="199.389" cy="241.164" r="8.251" fill="#ed1f24"/><circle cx="163.04" cy="223.933" r="8.25" fill="#ed1f24"/><line x1="183.278" x2="178.183" y1="269.811" y2="258.909" fill="none" stroke="#000" stroke-width="3"/><circle cx="185.448" cy="275.639" r="8.25" fill="#ed1f24"/><circle cx="149.358" cy="260.894" r="8.25" fill="#ed1f24"/><circle cx="174.421" cy="249.955" r="11.167" fill="#d0158d"/><circle cx="100.849" cy="315.079" r="4.886" fill="#fff" stroke="#000"/><circle cx="125.627" cy="220.502" r="4.886" fill="#fff" stroke="#000"/><line x1="9" x2="22.96" y1="262.259" y2="270.635" fill="none" stroke="#000" stroke-width="3"/><circle cx="5.386" cy="259.789" r="4.886" fill="#fff" stroke="#000"/><circle cx="77.466" cy="250.515" r="4.886" fill="#fff" stroke="#000"/><circle cx="101.198" cy="283.32" r="4.886" fill="#fff" stroke="#000"/><circle cx="125.352" cy="301.523" r="4.886" fill="#fff" stroke="#000"/><circle cx="124.929" cy="253.308" r="4.886" fill="#fff" stroke="#000"/><line x1="28.932" x2="28.932" y1="257.143" y2="271.103" fill="none" stroke="#000" stroke-width="3"/><circle cx="28.929" cy="253.308" r="4.886" fill="#fff" stroke="#000"/><path fill="none" stroke="#000" d="M215.445 247.563c0 1.841-1.492 3.333-3.334 3.333-1.841 0-3.333-1.492-3.333-3.333s1.492-3.333 3.333-3.333c1.842 0 3.334 1.492 3.334 3.333"/><line x1="210.207" x2="214.016" y1="247.563" y2="247.563" fill="none" stroke="#000"/><polygon fill="none" stroke="#3c57a7" stroke-width="9" points="518.343 206.834 524.213 195.652 525.742 217.826 505.775 208.062"/><polygon points="556.832 385.036 569.074 381.932 553.595 397.882 547.521 376.503"/><polygon points="396.578 575.706 405.095 585.03 383.726 578.922 399.699 563.469"/><polygon points="70.424 326.547 58.357 330.275 72.995 313.551 80.16 334.589"/><polygon points="72.454 381.548 62.574 389.416 70.114 368.508 84.45 385.491"/><polygon points="699.437 77.019 688.485 83.307 699.091 63.774 710.703 82.725"/><polygon points="87.908 436.865 79.744 446.5 83.08 424.527 100.442 438.402"/><polygon points="112.824 483.691 106.815 494.799 105.564 472.608 125.407 482.62"/><polygon points="154.321 529.418 151.301 541.681 144.504 520.521 166.229 525.215"/><polygon points="181.93 138.198 171.079 131.735 193.302 131.403 182.479 150.814"/><use xlink:href="#svg__github_work__d" width="79.63" height="49.98" x="-39.814" y="-24.99" overflow="visible" transform="matrix(1 0 0 -1 621.4146 333.5293)"/><use xlink:href="#svg__github_work__d" width="79.63" height="49.98" x="-39.814" y="-24.99" overflow="visible" transform="matrix(1 0 0 -1 77.8452 150.5713)"/><use xlink:href="#svg__github_work__e" width="70.327" height="43.91" x="-35.163" y="-21.955" overflow="visible" transform="matrix(1 0 0 -1 675.4204 455.9556)"/><use xlink:href="#svg__github_work__e" width="70.327" height="43.91" x="-35.163" y="-21.955" overflow="visible" transform="matrix(1 0 0 -1 189.0879 21.9546)"/><use xlink:href="#svg__github_work__f" width="79.63" height="49.98" x="-39.815" y="-24.99" overflow="visible" transform="matrix(1 0 0 -1 517.5894 573.9546)"/><use xlink:href="#svg__github_work__g" width="70.327" height="43.911" x="-35.163" y="-21.956" overflow="visible" transform="matrix(1 0 0 -1 399.4507 678.0464)"/><path fill="none" stroke="#000" stroke-width="5" d="M587.078 346.915c-16.202 5-28.315 19.319-30.08 36.698"/><path fill="none" stroke="#000" stroke-width="5" d="M490.251 560.939c-12.389-11.577-30.833-14.977-46.792-7.874"/><path fill="none" stroke="#000" stroke-width="5" d="M105.862 164.135c14.993 7.922 33.683 6.362 47.22-4.68"/><polygon points="203.445 53.554 195.29 63.198 198.609 41.221 215.98 55.082"/><path fill="none" stroke="#000" stroke-width="5" d="M203.378 52.904c6.211 21.762 2.207 44.02-9.168 61.651"/><polygon points="637.238 443.035 634.842 430.633 649.876 447.005 628.185 451.839"/><path fill="none" stroke="#000" stroke-width="5" d="M637.787 443.39c-20.844-8.813-35.666-25.895-42.262-45.813"/><polygon points="614.278 247.751 606.194 238.047 627.264 245.129 610.6 259.833"/><path fill="none" stroke="#000" stroke-width="5" d="M614.93 247.798c-22.509 2.342-43.734-5.463-59.125-19.725"/><polygon points="351.342 646.369 362.741 640.928 350.681 659.6 340.542 639.824"/><path fill="none" stroke="#000" stroke-width="5" d="M351.136 646.99c3.282-22.392 16.081-41.036 33.698-52.435"/><circle cx="360.483" cy="667.302" r="3.333" fill="none" stroke="#000"/><line x1="358.578" x2="362.388" y1="667.302" y2="667.302" fill="none" stroke="#000"/><circle cx="294.109" cy="709.068" r="3.333" fill="none" stroke="#000"/><line x1="292.205" x2="296.014" y1="709.068" y2="709.068" fill="none" stroke="#000"/><line x1="318.129" x2="305.665" y1="689.872" y2="695.34" fill="none" stroke="#000" stroke-width="3"/><line x1="317.487" x2="321.924" y1="665.918" y2="677.104" fill="none" stroke="#000" stroke-width="3"/><line x1="346.664" x2="326.117" y1="678.766" y2="686.363" fill="none" stroke="#000" stroke-width="3"/><circle cx="351.084" cy="677.572" r="8.251" fill="#ed1f24"/><circle cx="314.736" cy="660.341" r="8.25" fill="#ed1f24"/><line x1="334.974" x2="329.878" y1="706.219" y2="695.317" fill="none" stroke="#000" stroke-width="3"/><circle cx="337.144" cy="712.047" r="8.25" fill="#ed1f24"/><circle cx="301.054" cy="697.302" r="8.25" fill="#ed1f24"/><circle cx="326.117" cy="686.363" r="11.168" fill="#d0158d"/><rect width="102.019" height="60.476" x="262.637" y="256.065" fill="#fff" stroke="#000" opacity="0.5"/><rect width="102.018" height="60.476" x="316.802" y="352.036" fill="#fff" stroke="#000" opacity="0.5" transform="rotate(-60 367.8193 382.2764)"/><line x1="699.494" x2="699.494" y1="139.559" y2="76.562" fill="none" stroke="#000" stroke-width="5"/><text xml:space="preserve" x="638.5051" y="165.0974" font-family="Sans" font-size="40" font-weight="400" letter-spacing="0" style="line-height:125%" word-spacing="0"><tspan x="638.5051" y="165.0974" font-family="Microsoft YaHei" font-size="20" style="-inkscape-font-specification:Microsoft YaHei">3-磷酸甘油酸</tspan></text><text xml:space="preserve" x="410.6152" y="241.6977" font-family="Sans" font-size="40" font-weight="400" letter-spacing="0" style="line-height:125%" word-spacing="0"><tspan x="410.6152" y="241.6977" font-family="Microsoft YaHei" font-size="20" style="-inkscape-font-specification:Microsoft YaHei">3-磷酸甘油酸</tspan></text><text xml:space="preserve" x="338.1945" y="182.0068" fill="#3c57a7" font-family="Sans" font-size="40" font-weight="400" letter-spacing="0" style="line-height:125%" word-spacing="0"><tspan x="338.1945" y="182.0068" font-family="Microsoft YaHei" font-size="20" style="-inkscape-font-specification:Microsoft YaHei">1,5-二磷酸核酮</tspan><tspan x="338.1945" y="207.0068" font-family="Microsoft YaHei" font-size="20" style="-inkscape-font-specification:Microsoft YaHei">糖羧化酶/加氧酶</tspan></text><text xml:space="preserve" x="232.0521" y="45.5488" font-family="Sans" font-size="40" font-weight="400" letter-spacing="0" style="line-height:125%" word-spacing="0"><tspan x="232.0521" y="45.5488" font-family="Microsoft YaHei" font-size="20" style="-inkscape-font-specification:Microsoft YaHei">核酮糖-1,5-二磷酸</tspan></text><text xml:space="preserve" x="511.3952" y="81.3967" font-family="Sans" font-size="40" font-weight="400" letter-spacing="0" style="line-height:125%" word-spacing="0"><tspan x="511.3952" y="81.3967" font-family="Microsoft YaHei" font-size="20" style="-inkscape-font-specification:Microsoft YaHei">二氧化碳</tspan></text><text xml:space="preserve" x="637.2302" y="55.018" font-family="Sans" font-size="40" font-weight="400" letter-spacing="0" style="line-height:125%" word-spacing="0"><tspan x="637.2302" y="55.018" font-family="Microsoft YaHei" font-size="20" style="-inkscape-font-specification:Microsoft YaHei">中央代谢途径</tspan></text><text xml:space="preserve" x="-174.3449" y="506.1838" font-family="Sans" font-size="40" font-weight="400" letter-spacing="0" style="text-align:start;line-height:125%" transform="rotate(-59.509)" word-spacing="0"><tspan x="-174.3449" y="506.1838" font-family="Microsoft YaHei" font-size="16" font-weight="700" style="text-align:start;-inkscape-font-specification:Microsoft YaHei Bold">第二阶段</tspan><tspan x="-174.3449" y="526.1838" font-family="Microsoft YaHei" font-size="16" style="text-align:start;-inkscape-font-specification:Microsoft YaHei">：还原</tspan></text><text xml:space="preserve" x="267.1105" y="283.3761" font-family="Sans" font-size="40" font-weight="400" letter-spacing="0" style="text-align:start;line-height:125%" word-spacing="0"><tspan x="267.1105" y="283.3761" font-family="Microsoft YaHei" font-size="16" font-weight="700" style="text-align:start;-inkscape-font-specification:Microsoft YaHei Bold">第一阶段：</tspan><tspan x="267.1105" y="303.3761" font-family="Microsoft YaHei" font-size="16" style="text-align:start;-inkscape-font-specification:Microsoft YaHei">二氧化碳固定</tspan></text><text xml:space="preserve" x="424.7693" y="-31.6236" font-family="Sans" font-size="40" font-weight="400" letter-spacing="0" style="text-align:start;line-height:125%" transform="rotate(59.187)" word-spacing="0"><tspan x="424.7693" y="-31.6236" font-family="Microsoft YaHei" font-size="16" font-weight="700" style="text-align:start;-inkscape-font-specification:Microsoft YaHei Bold">第三阶段：</tspan><tspan x="424.7693" y="-11.6236" font-family="Microsoft YaHei" font-size="16" style="text-align:start;-inkscape-font-specification:Microsoft YaHei">核酮糖再生</tspan></text><text xml:space="preserve" x="485.6929" y="521.0407" font-family="Sans" font-size="40" font-weight="400" letter-spacing="0" style="line-height:125%" word-spacing="0"><tspan x="485.6929" y="521.0407" font-family="Microsoft YaHei" font-size="20" style="-inkscape-font-specification:Microsoft YaHei">1,3-二磷酸甘油酸</tspan></text><text xml:space="preserve" x="248.7813" y="519.0116" font-family="Sans" font-size="40" font-weight="400" letter-spacing="0" style="line-height:125%" word-spacing="0"><tspan x="248.7813" y="519.0116" font-family="Microsoft YaHei" font-size="20" style="-inkscape-font-specification:Microsoft YaHei">甘油醛-3-磷酸</tspan></text><text xml:space="preserve" x="32.5726" y="212.0247" font-family="Sans" font-size="40" font-weight="400" letter-spacing="0" style="line-height:125%" word-spacing="0"><tspan x="32.5726" y="212.0247" font-family="Microsoft YaHei" font-size="20" style="-inkscape-font-specification:Microsoft YaHei">核酮糖-5-磷酸</tspan></text><text xml:space="preserve" x="290.1551" y="743.5975" font-family="Sans" font-size="40" font-weight="400" letter-spacing="0" style="line-height:125%" word-spacing="0"><tspan x="290.1551" y="743.5975" font-family="Microsoft YaHei" font-size="20" style="-inkscape-font-specification:Microsoft YaHei">无机磷酸</tspan></text></svg>