<svg viewBox="0 0 735.744 697.268"><defs><marker id="a" orient="auto" overflow="visible" refX="0" refY="0"><path fill-rule="evenodd" stroke="#000" stroke-width=".4pt" d="M2.308 0l-3.46 2v-4z"/></marker></defs><path fill="#00f20d" stroke="#000" stroke-width="1.218" d="M512.835 2.609h93.742v25.592h-93.742z" opacity=".192"/><path fill="#00f20d" stroke="#000" stroke-width="1.09" d="M230.771 2.545h74.777v25.72h-74.777z" opacity=".192"/><path fill="#00f2dc" stroke="#005d00" stroke-width="1.025" d="M654.815 668.971h73.003v23.285h-73.003z" opacity=".192"/><path fill="#00f2dc" stroke="#000" stroke-width="1.531" d="M137.068 669.224h149.997v25.279H137.068z" opacity=".192"/><path fill="#00f2dc" stroke="#005d00" stroke-width="1.025" d="M522.815 668.471h73.003v23.285h-73.003z" opacity=".192"/><path fill="none" stroke="#000" stroke-width="2" marker-end="url(#a)" d="M582.576 458.874l83.975-.147m-83.975 28.147l83.975-.147" transform="translate(-.855 -21.883)"/><path fill="#e0a532" stroke="#000" stroke-width="1.114" d="M371.726 97.599h99.414v20.196h-99.414z" opacity=".192"/><text x="244.855" y="42.109" font-family="Bitstream Vera Sans" font-weight="400" transform="translate(-.855 -21.883)" style="line-height:0%"><tspan x="244.855" y="42.109" font-family="Noto Sans CJK SC" font-size="16" style="line-height:1.25;-inkscape-font-specification:Noto Sans CJK SC">葡萄糖</tspan></text><text x="680.775" y="110.094" font-family="Bitstream Vera Sans" font-weight="400" transform="translate(-.855 -21.883)" style="line-height:0%"><tspan x="680.775" y="110.094" font-size="14" style="line-height:1.25">2AT<tspan fill="purple">P</tspan></tspan></text><text x="376.602" y="135.634" font-family="Bitstream Vera Sans" font-weight="400" transform="translate(-.855 -21.883)" style="line-height:0%"><tspan x="376.602" y="135.634" font-size="14" style="line-height:1.25">2 NADH + H</tspan></text><text x="460.507" y="127.728" font-family="Bitstream Vera Sans" font-weight="400" transform="translate(-.855 -21.883)" style="line-height:0%"><tspan x="460.507" y="127.728" font-size="10.322" style="line-height:1.25">+</tspan></text><text x="237.903" y="124.918" fill="red" font-family="Bitstream Vera Sans" font-weight="400" transform="translate(-.855 -21.883)" style="line-height:0%"><tspan x="237.903" y="124.918" font-family="Noto Sans CJK SC" font-size="20" style="line-height:1.25;-inkscape-font-specification:Noto Sans CJK SC">糖酵解</tspan></text><path fill="#ac9393" d="M211.386 82.481h113v27h-113z" opacity=".188"/><path fill="none" stroke="#000" stroke-width="2" marker-end="url(#a)" d="M268.513 50.255l-.207 49.56" transform="translate(-.855 -21.883)"/><text x="242.855" y="206.109" font-family="Bitstream Vera Sans" font-weight="400" transform="translate(-.855 -21.883)" style="line-height:0%"><tspan x="242.855" y="206.109" font-family="Noto Sans CJK SC" font-size="16" style="line-height:1.25;-inkscape-font-specification:Noto Sans CJK SC">丙酮酸</tspan></text><path fill="none" stroke="#000" stroke-width="2" marker-end="url(#a)" d="M268.513 132.134l-.207 51.68m.207 32.32l-.207 51.68" transform="translate(-.855 -21.883)"/><path fill="#ac9393" d="M149.834 252.708h232.501v27H149.834z" opacity=".188"/><text x="226.855" y="294.109" fill="red" font-family="Bitstream Vera Sans" font-weight="400" transform="translate(-.855 -21.883)" style="line-height:0%"><tspan x="226.855" y="294.109" font-family="Noto Sans CJK SC" font-size="20" style="line-height:1.25;-inkscape-font-specification:Noto Sans CJK SC">氧化脱羧</tspan></text><path fill="none" stroke="#000" stroke-width="2" marker-end="url(#a)" d="M268.513 302.134l-.207 51.68" transform="translate(-.855 -21.883)"/><text x="230.855" y="376.109" font-family="Bitstream Vera Sans" font-weight="400" transform="translate(-.855 -21.883)" style="line-height:0%"><tspan x="230.855" y="376.109" font-family="Noto Sans CJK SC" font-size="16" style="line-height:1.25;-inkscape-font-specification:Noto Sans CJK SC">乙酰辅酶A</tspan></text><path fill="#ac9393" d="M361.139 511.352c0 52.135-42.264 94.398-94.4 94.398s-94.398-42.263-94.398-94.398 42.264-94.399 94.399-94.399 94.399 42.264 94.399 94.399z" opacity=".188"/><text x="219.187" y="542.608" fill="red" font-family="Bitstream Vera Sans" font-weight="400" transform="translate(-.855 -21.883)" style="line-height:0%"><tspan x="219.187" y="542.608" font-family="Noto Sans CJK SC" font-size="20" style="line-height:1.25;-inkscape-font-specification:Noto Sans CJK SC">三羧酸循环</tspan></text><path fill="none" stroke="#000" stroke-width="2" marker-end="url(#a)" d="M268.513 382.134l-.207 51.68" transform="translate(-.855 -21.883)"/><path fill="none" stroke="#000" stroke-width="2.126" marker-end="url(#a)" d="M268.513 626.49l-.207 58.399" transform="translate(-.855 -21.883)"/><text x="178.855" y="710.109" font-family="Bitstream Vera Sans" font-weight="400" transform="translate(-.855 -21.883)" style="line-height:0%"><tspan x="178.855" y="710.109" font-family="Noto Sans CJK SC" font-size="16" style="line-height:1.25;-inkscape-font-specification:Noto Sans CJK SC">二氧化碳</tspan></text><path fill="none" stroke="#000" stroke-width="2" marker-end="url(#a)" d="M324.576 105.56l341.929-.146m-341.929 23.46l41.68-.293m-206.43 172.138l-.915 385.435m169.039-79.28l341.202-.5" transform="translate(-.855 -21.883)"/><path fill="purple" d="M527.416 101.341h55.154v390.323h-55.154z" opacity=".192"/><path fill="none" stroke="#000" stroke-width="2" marker-end="url(#a)" d="M472.576 128.874l49.68.207" transform="translate(-.855 -21.883)"/><path fill="#e0a532" stroke="#000" stroke-width="1.114" d="M405.726 255.599h99.414v20.196h-99.414z" opacity=".192"/><text x="410.602" y="293.634" font-family="Bitstream Vera Sans" font-weight="400" transform="translate(-.855 -21.883)" style="line-height:0%"><tspan x="410.602" y="293.634" font-size="14" style="line-height:1.25">2 NADH + H</tspan></text><text x="494.507" y="285.728" font-family="Bitstream Vera Sans" font-weight="400" transform="translate(-.855 -21.883)" style="line-height:0%"><tspan x="494.507" y="285.728" font-size="10.322" style="line-height:1.25">+</tspan></text><path fill="none" stroke="#000" stroke-width="2" marker-end="url(#a)" d="M384.576 286.874l16.18.207m105.82-.207l14.68-.293" transform="translate(-.855 -21.883)"/><path fill="#e0a532" stroke="#000" stroke-width="1.114" d="M371.726 427.599h99.414v20.196h-99.414z" opacity=".192"/><text x="376.602" y="465.634" font-family="Bitstream Vera Sans" font-weight="400" transform="translate(-.855 -21.883)" style="line-height:0%"><tspan x="376.602" y="465.634" font-size="14" style="line-height:1.25">6 NADH + H</tspan></text><text x="460.507" y="457.728" font-family="Bitstream Vera Sans" font-weight="400" transform="translate(-.855 -21.883)" style="line-height:0%"><tspan x="460.507" y="457.728" font-size="10.322" style="line-height:1.25">+</tspan></text><path fill="none" stroke="#000" stroke-width="2" marker-end="url(#a)" d="M324.576 458.874l41.68-.293m106.32.293l49.68.207" transform="translate(-.855 -21.883)"/><path fill="#e0a532" stroke="#000" stroke-width="1.114" d="M371.726 455.599h99.414v20.196h-99.414z" opacity=".192"/><text x="390.602" y="493.634" font-family="Bitstream Vera Sans" font-weight="400" transform="translate(-.855 -21.883)" style="line-height:0%"><tspan x="390.602" y="493.634" font-size="14" style="line-height:1.25">2 FADH</tspan></text><text x="443.924" y="497.395" font-family="Bitstream Vera Sans" font-weight="400" transform="translate(-.855 -21.883)" style="line-height:0%"><tspan x="443.924" y="497.395" font-size="10.322" style="line-height:1.25">2</tspan></text><path fill="none" stroke="#000" stroke-width="2" marker-end="url(#a)" d="M349.325 486.874l16.932-.293m106.32.293l49.68.207m60.32-358.207l83.974-.147m-83.975 158.147l83.975-.147" transform="translate(-.855 -21.883)"/><text x="680.775" y="134.094" font-family="Bitstream Vera Sans" font-weight="400" transform="translate(-.855 -21.883)" style="line-height:0%"><tspan x="680.775" y="134.094" font-size="14" style="line-height:1.25">6AT<tspan fill="purple">P</tspan></tspan></text><text x="680.775" y="292.094" font-family="Bitstream Vera Sans" font-weight="400" transform="translate(-.855 -21.883)" style="line-height:0%"><tspan x="680.775" y="292.094" font-size="14" style="line-height:1.25">6AT<tspan fill="purple">P</tspan></tspan></text><text x="672.775" y="462.094" font-family="Bitstream Vera Sans" font-weight="400" transform="translate(-.855 -21.883)" style="line-height:0%"><tspan x="672.775" y="462.094" font-size="14" style="line-height:1.25">18AT<tspan fill="purple">P</tspan></tspan></text><text x="680.775" y="490.094" font-family="Bitstream Vera Sans" font-weight="400" transform="translate(-.855 -21.883)" style="line-height:0%"><tspan x="680.775" y="490.094" font-size="14" style="line-height:1.25">4AT<tspan fill="purple">P</tspan></tspan></text><text x="680.775" y="610.094" font-family="Bitstream Vera Sans" font-weight="400" transform="translate(-.855 -21.883)" style="line-height:0%"><tspan x="680.775" y="610.094" font-size="14" style="line-height:1.25">2AT<tspan fill="purple">P</tspan></tspan></text><text x="668.775" y="704.094" font-family="Bitstream Vera Sans" font-weight="400" transform="translate(-.855 -21.883)" style="line-height:0%"><tspan x="668.775" y="704.094" font-size="14" font-weight="700" style="line-height:1.25">38AT<tspan fill="purple">P</tspan></tspan></text><path fill="none" stroke="#000" d="M648.976 654.174c86.267 0 86.267.292 86.267.292m-70.017 31.708c67.767.5 55.267.042 55.267.042m-55.267 1.957c67.767.5 55.267.043 55.267.043"/><text x="124.855" y="40.109" fill-opacity=".588" font-family="Bitstream Vera Sans" font-weight="400" transform="translate(-.855 -21.883)" style="line-height:0%"><tspan x="124.855" y="40.109" font-family="Noto Sans CJK SC" font-size="16" style="line-height:1.25;-inkscape-font-specification:Noto Sans CJK SC">脂肪</tspan></text><text x="34.855" y="40.109" fill-opacity=".588" font-family="Bitstream Vera Sans" font-weight="400" transform="translate(-.855 -21.883)" style="line-height:0%"><tspan x="34.855" y="40.109" font-family="Noto Sans CJK SC" font-size="16" style="line-height:1.25;-inkscape-font-specification:Noto Sans CJK SC">蛋白质</tspan></text><path fill="none" stroke="#000" stroke-dasharray="12 2" stroke-opacity=".588" stroke-width="2" marker-end="url(#a)" d="M141.825 44.72l-26.336 37.92m27.036-37.922l33.586 37.422" transform="translate(-.855 -21.883)"/><text x="168.855" y="98.109" fill-opacity=".588" font-family="Bitstream Vera Sans" font-weight="400" transform="translate(-.855 -21.883)" style="line-height:0%"><tspan x="168.855" y="98.109" font-family="Noto Sans CJK SC" font-size="14" style="line-height:1.25;-inkscape-font-specification:Noto Sans CJK SC">甘油</tspan></text><text x="90.855" y="98.109" fill-opacity=".588" font-family="Bitstream Vera Sans" font-weight="400" transform="translate(-.855 -21.883)" style="line-height:0%"><tspan x="90.855" y="98.109" font-family="Noto Sans CJK SC" font-size="14" style="line-height:1.25;-inkscape-font-specification:Noto Sans CJK SC">脂肪酸</tspan></text><path fill="none" stroke="#000" stroke-dasharray="12 2" stroke-opacity=".588" stroke-width="2" marker-end="url(#a)" d="M182.775 102.22l.185 17.454 23.15.217m-94.286-19.172l-.752 185.49 33.46.218M59.824 44.719l-.752 185.49-.54 231.218" transform="translate(-.855 -21.883)"/><text x="34.855" y="484.609" fill-opacity=".588" font-family="Bitstream Vera Sans" font-weight="400" transform="translate(-.855 -21.883)" style="line-height:0%"><tspan x="34.855" y="484.609" font-family="Noto Sans CJK SC" font-size="16" style="line-height:1.25;-inkscape-font-specification:Noto Sans CJK SC">氨基酸</tspan></text><path fill="none" stroke="#000" stroke-dasharray="11.56 1.927" stroke-opacity=".588" stroke-width="1.927" marker-end="url(#a)" d="M59.806 494.72l-.234 39.24 108.312.717" transform="translate(-.855 -21.883)"/><text x="551.39" y="708.089" font-family="Bitstream Vera Sans" font-weight="400" transform="translate(-.855 -21.883)" style="line-height:0%"><tspan x="551.39" y="708.089" font-family="Noto Sans CJK SC" font-size="16" style="line-height:1.25;-inkscape-font-specification:Noto Sans CJK SC">水</tspan></text><text x="549.39" y="42.089" font-family="Bitstream Vera Sans" font-weight="400" transform="translate(-.855 -21.883)" style="line-height:0%"><tspan x="549.39" y="42.089" font-family="Noto Sans CJK SC" font-size="16" style="line-height:1.25;-inkscape-font-specification:Noto Sans CJK SC">氧</tspan></text><path fill="none" stroke="#000" stroke-width="2" marker-end="url(#a)" d="M558.744 50.447l-.293 65.932m1.293 398.068l.207 169.432" transform="translate(-.855 -21.883)"/><text x="8.855" y="710.109" font-family="Bitstream Vera Sans" font-weight="400" transform="translate(-.855 -21.883)" style="line-height:0%"><tspan x="8.855" y="710.109" font-family="Noto Sans CJK SC" font-size="16" style="line-height:1.25;-inkscape-font-specification:Noto Sans CJK SC">细胞呼吸的产物：</tspan></text><text x="555.884" y="318.491" font-family="sans-serif" font-weight="400" letter-spacing="0" text-anchor="middle" transform="translate(-.855 -21.883)" word-spacing="0" writing-mode="tb-rl" style="line-height:0%;text-align:center"><tspan x="555.884" y="318.491" font-family="Noto Sans CJK SC" font-size="36" style="line-height:1.25;-inkscape-font-specification:Noto Sans CJK SC;text-align:center">氧化磷酸化</tspan></text></svg>