<svg xmlns="http://www.w3.org/2000/svg" viewBox="0 0 1067 599" height="599" width="1067" version="1.1"><g
style="fill:none;stroke:#000;"><path
d="M561.7 185.8l5.6 28.6 27.1-12.8m-89-0.4 27.5 11.8 5.8-28.1m5.8 144.9c-11.1 32.1-33.6 60.1-63.4 80.6m-92.5 34.1c-8.6 1-17.3 1.5-26.2 1.5-26.4 0-51.6-4.6-74.4-12.9M228.8 399.1c-18.8-15.9-33.8-35.2-43.6-56.6m-10.7-34.3c-1.4-7.9-2.1-16-2.1-24.2 0-9.7 1-19.2 2.9-28.4m18-45.6c11.4-19 27.1-35.7 46-49.4m56.8-28.4c18.8-6 39-9.5 60.1-10m87.6 15.6c53 21.5 92.4 63.4 104.5 113.7m376.1 68.6c-11.4 46.2-45.8 85.1-92.5 107.6M619.2 412.3C588.9 391.3 566.2 362.5 555.6 329.4m-2.8-78.3c12.2-49.5 51-89 102.9-110.6m83-16.3c58.4 0 110.6 22.5 145.5 57.9m26.1 34.7c11.7 21.1 18.3 44.6 18.3 69.5" style="stroke-width:3;stroke-linecap:butt;stroke-linejoin:miter" /><path
d="M664.8 454.5l27.6 1.5m-138.1 29.5c51.9 9.6 99.9 6.2 138.1-29.5l2.3 23.2" style="stroke-width:2.5;stroke-linecap:round;stroke-linejoin:round;stroke-dasharray:5,5;stroke-dashoffset:5.25" /><path
d="M613.6 396l5.6 16.3-17.2 1.9m-119.3-19.8-1.6 16 16.3 0M594.3 180.6c34.1-35.3-4.7-73.8 29.8-105M508.3 180.6C474.2 145.3 513 106.8 478.5 75.5M205.1 375.1C162.7 344.1 132 342.5 103.1 345.4l11.3-9.5m-11.4 9.5 12.1 11.1m18-180.2c70.7 31.9 104.2 29.4 49-55.4l11.4 1.5m-11.4-1.3-3.9 9.8M459.5 251h199.9v77.7H459.5Z" style="stroke-width:2.4;stroke-linecap:butt;stroke-linejoin:round" /></g><g
style="font-size:26px;font-family:'DejaVu Sans'"><text
y="242" x="128">Glycerate</text><text
y="333" x="142">Serine</text><text
y="425" x="202">Glycine</text><text
y="184" x="128" style="text-anchor:end;text-align:end;">ATP</text><text
y="328" x="45">CO<tspan
font-size="75%" dy="4">2</tspan></text><text
y="155" x="243">3PG</text><text
y="139" x="366">RuBP</text><text
y="372" x="45">NH<tspan
font-size="75%" dy="4">3</tspan></text><text><tspan
style="text-align:end;text-anchor:end" y="435" x="575">2-PGlycolate +</tspan><tspan
y="467" x="400">3PGlycerate</tspan></text><text
style="text-anchor:end" x="186" y="117">ADP</text><text
x="664" y="141">RuBP</text><text
y="206" x="1056" style="text-anchor:end">Ribulose 5-Phosphate</text><text
style="text-anchor:end;" x="1054" y="312">Triose Phosphate</text><text
y="440" x="821" style="text-anchor:end;text-align:end;">2 × 3PGlycerate</text><text
x="624" y="66">CO<tspan
font-size="75%" dy="4">2</tspan></text><text
y="67" x="474" style="text-anchor:end">O<tspan
style="font-size:75%;text-align:end" dy="4">2</tspan></text><text
y="307" x="559" style="font-size:44px;text-align:center;text-anchor:middle">RuBisCO</text>
<switch>
<g systemLanguage="en">
<text y="551" x="56" style="font-size:54px">Photorespiration</text><text
y="557" x="989" style="font-size:54px;text-anchor:end">Calvin Cycle</text></g>
<g systemLanguage="ta">
<text y="551" x="56" style="font-size:54px">ஒளிச்சுவாசம்</text><text
y="557" x="989" style="font-size:54px;text-anchor:end">கல்வின் வட்டம்</text></g>
<g>
<text y="551" x="56" style="font-size:54px">Photorespiration</text><text
y="557" x="989" style="font-size:54px;text-anchor:end">Calvin Cycle</text></g>
</switch></g></svg>
