<svg viewBox="0 0 455.07 303.36"><path d="M127.56 275.63l49.88-28.8 49.88 28.8 51.08-29.49v-57.6l48.82-28.19 55.1 17.9 34.88-48.01-33.96-46.74 15.52-32.48-11.41-3.71-6.53 35.4-52.4 17.03 4.66-55.9h-12l4.62 55.42-48.5-28-51.08 29.49v57.6l-47.3 27.31 4.62-55.42h-12l4.62 55.42-48.5-28-51.08 29.49v51.61l-33.92 19.59 1.2 2.08 32.72-18.89v4.6l3.98 2.3-32.72 18.89 1.2 2.08 33.92-19.59zM381.42 85.06l32.83 45.19-32.83 45.19-53.12-17.26v-55.86zM277.21 74.04l48.68 28.11v56.21L278.7 185.6l4.51-34.64h-12l4.51 34.64-47.19-27.25v-56.21zm-49.88 86.39l48.68 28.11v56.21l-48.68 28.11-48.68-28.11v-56.21zM78.88 188.54l48.68-28.11 48.68 28.11v56.21l-48.68 28.11-48.68-28.11z"/><path d="M126.958 261.243l39.515-22.82 1.2 2.08-39.514 22.818zm-91.928.207c-2.12-1.26-4.51-1.89-7.15-1.89-4.04 0-7.33 1.34-9.88 4.03s-3.83 6.41-3.83 11.16c0 2.51.55 4.9 1.64 7.15s2.7 4.03 4.82 5.33 4.53 1.95 7.23 1.95c2.49 0 4.8-.59 6.95-1.77s3.81-2.91 4.98-5.21 1.76-4.89 1.76-7.79c0-2.87-.56-5.43-1.67-7.69s-2.72-4.01-4.85-5.27m-.14 21.48c-1.84 2.01-4.19 3.01-7.04 3.01-2.8 0-5.13-.99-6.98-2.98s-2.78-4.7-2.78-8.15c0-4.31.97-7.39 2.9-9.23s4.24-2.76 6.92-2.76c1.89 0 3.59.48 5.11 1.44s2.67 2.3 3.46 4.04 1.18 3.77 1.18 6.1c-.01 3.68-.93 6.53-2.77 8.53M269.76 131.2h14.88v13.49h3.79v-28.63h-3.79v11.76h-14.88v-11.76h-3.79v28.63h3.79zm-49.88 86.4h14.88v13.49h3.79v-28.63h-3.79v11.76h-14.88v-11.76h-3.79v28.63h3.79zm13.02-24.04h-11.14l-.43 2.4h12zm-2.19-12.24h-6.77l-.43 2.4h7.63zm-2.18-12.24h-2.4l-.43 2.4h3.26zM392.52 41.85q3.18 1.95 7.23 1.95c2.48 0 4.8-.59 6.95-1.77s3.81-2.91 4.98-5.21 1.76-4.89 1.76-7.79c0-2.87-.56-5.43-1.67-7.69-1.12-2.26-2.73-4.02-4.86-5.28s-4.5-1.89-7.15-1.89c-4.04 0-7.33 1.34-9.88 4.03s-3.83 6.41-3.83 11.16c0 2.51.55 4.9 1.64 7.15s2.7 4.04 4.83 5.34m.34-21.65c1.93-1.84 4.24-2.76 6.92-2.76 1.89 0 3.59.48 5.11 1.44s2.67 2.3 3.45 4.04c.79 1.74 1.18 3.77 1.18 6.1 0 3.69-.92 6.53-2.76 8.54s-4.19 3.01-7.04 3.01c-2.8 0-5.13-.99-6.98-2.98-1.86-1.99-2.79-4.7-2.79-8.15.01-4.32.97-7.4 2.91-9.24m29.36 9.62h14.89v13.49h3.79V14.68h-3.79v11.76h-14.89V14.68h-3.79v28.63h3.79zm-83.91 201.27v-28.63h-3.79v11.76h-14.88v-11.76h-3.79v28.63h3.79V217.6h14.88v13.49zm-17.22-35.13h12l-.43-2.4h-11.14zm2.19-12.24h7.63l-.43-2.4h-6.77zm2.61-14.64l-.43 2.4h3.26l-.43-2.4z"/></svg>