<svg xmlns="http://www.w3.org/2000/svg" viewBox="0 0 800 800"><path fill="#fff" d="M0 0h800v800H0z" class="dcg-svg-background"/><path fill="none" stroke="#000" stroke-miterlimit="10" stroke-opacity="0.2" stroke-width="2" d="M5 0v800M33 0v800M61 0v800M119 0v800M147 0v800M175 0v800M203 0v800M231 0v800M259 0v800M289 0v800M317 0v800M345 0v800M373 0v800M401 0v800M431 0v800M459 0v800M487 0v800M515 0v800M543 0v800M573 0v800M601 0v800M629 0v800M657 0v800M685 0v800M713 0v800M743 0v800M771 0v800M799 0v800M0 789h800M0 761h800M0 735h800M0 709h800M0 681h800M0 655h800M0 629h800M0 601h800M0 575h800M0 523h800M0 495h800M0 469h800M0 443h800M0 415h800M0 389h800M0 363h800M0 335h800M0 309h800M0 283h800M0 255h800M0 229h800M0 203h800M0 177h800M0 149h800M0 123h800M0 97h800M0 69h800M0 43h800M0 17h800" class="dcg-svg-minor-gridline" paint-order="fill stroke markers"/><path fill="none" stroke="#000" stroke-miterlimit="10" stroke-opacity="0.25" stroke-width="2" d="M203 0v800M317 0v800M431 0v800M543 0v800M657 0v800M771 0v800M0 761h800M0 655h800M0 443h800M0 335h800M0 229h800M0 123h800M0 17h800" class="dcg-svg-major-gridline" paint-order="fill stroke markers"/><path fill="none" stroke="#000" stroke-miterlimit="10" stroke-opacity="0.9" stroke-width="3" d="M90 0v800M0 548h800" class="dcg-svg-axis-line" paint-order="fill stroke markers"/><g class="dcg-svg-axis-value" font-family="Arial" font-size="14" text-anchor="middle"><text x="36" y="290.14" fill="none" stroke="#fff" stroke-miterlimit="2" stroke-width="3" text-decoration="normal" transform="scale(2)">0</text><text x="36" y="290.14" text-decoration="normal" transform="scale(2)">0</text></g><g class="dcg-svg-axis-value" font-family="Arial" font-size="14" text-anchor="middle"><text x="101.62" y="290.14" fill="none" stroke="#fff" stroke-miterlimit="2" stroke-width="3" text-decoration="normal" transform="scale(2)">1</text><text x="101.62" y="290.14" text-decoration="normal" transform="scale(2)">1</text></g><g class="dcg-svg-axis-value" font-family="Arial" font-size="14" text-anchor="middle"><text x="158.36" y="290.14" fill="none" stroke="#fff" stroke-miterlimit="2" stroke-width="3" text-decoration="normal" transform="scale(2)">2</text><text x="158.36" y="290.14" text-decoration="normal" transform="scale(2)">2</text></g><g class="dcg-svg-axis-value" font-family="Arial" font-size="14" text-anchor="middle"><text x="215.09" y="290.14" fill="none" stroke="#fff" stroke-miterlimit="2" stroke-width="3" text-decoration="normal" transform="scale(2)">3</text><text x="215.09" y="290.14" text-decoration="normal" transform="scale(2)">3</text></g><g class="dcg-svg-axis-value" font-family="Arial" font-size="14" text-anchor="middle"><text x="271.82" y="290.14" fill="none" stroke="#fff" stroke-miterlimit="2" stroke-width="3" text-decoration="normal" transform="scale(2)">4</text><text x="271.82" y="290.14" text-decoration="normal" transform="scale(2)">4</text></g><g class="dcg-svg-axis-value" font-family="Arial" font-size="14" text-anchor="middle"><text x="328.56" y="290.14" fill="none" stroke="#fff" stroke-miterlimit="2" stroke-width="3" text-decoration="normal" transform="scale(2)">5</text><text x="328.56" y="290.14" text-decoration="normal" transform="scale(2)">5</text></g><g class="dcg-svg-axis-value" font-family="Arial" font-size="14" text-anchor="middle"><text x="385.29" y="290.14" fill="none" stroke="#fff" stroke-miterlimit="2" stroke-width="3" text-decoration="normal" transform="scale(2)">6</text><text x="385.29" y="290.14" text-decoration="normal" transform="scale(2)">6</text></g><g class="dcg-svg-axis-value" font-family="Arial" font-size="14" text-anchor="middle"><text x="29.77" y="384.6" fill="none" stroke="#fff" stroke-miterlimit="2" stroke-width="3" text-decoration="normal" transform="scale(2)">-40</text><text x="29.77" y="384.6" text-decoration="normal" transform="scale(2)">-40</text></g><g class="dcg-svg-axis-value" font-family="Arial" font-size="14" text-anchor="middle"><text x="29.77" y="331.37" fill="none" stroke="#fff" stroke-miterlimit="2" stroke-width="3" text-decoration="normal" transform="scale(2)">-20</text><text x="29.77" y="331.37" text-decoration="normal" transform="scale(2)">-20</text></g><g class="dcg-svg-axis-value" font-family="Arial" font-size="14" text-anchor="middle"><text x="32.1" y="224.91" fill="none" stroke="#fff" stroke-miterlimit="2" stroke-width="3" text-decoration="normal" transform="scale(2)">20</text><text x="32.1" y="224.91" text-decoration="normal" transform="scale(2)">20</text></g><g class="dcg-svg-axis-value" font-family="Arial" font-size="14" text-anchor="middle"><text x="32.1" y="171.68" fill="none" stroke="#fff" stroke-miterlimit="2" stroke-width="3" text-decoration="normal" transform="scale(2)">40</text><text x="32.1" y="171.68" text-decoration="normal" transform="scale(2)">40</text></g><g class="dcg-svg-axis-value" font-family="Arial" font-size="14" text-anchor="middle"><text x="32.1" y="118.45" fill="none" stroke="#fff" stroke-miterlimit="2" stroke-width="3" text-decoration="normal" transform="scale(2)">60</text><text x="32.1" y="118.45" text-decoration="normal" transform="scale(2)">60</text></g><g class="dcg-svg-axis-value" font-family="Arial" font-size="14" text-anchor="middle"><text x="32.1" y="65.22" fill="none" stroke="#fff" stroke-miterlimit="2" stroke-width="3" text-decoration="normal" transform="scale(2)">80</text><text x="32.1" y="65.22" text-decoration="normal" transform="scale(2)">80</text></g><g class="dcg-svg-axis-value dcg-svg-offcenter-axis-value" font-family="Arial" font-size="14" text-anchor="middle"><text x="28.21" y="13.81" fill="none" stroke="#fff" stroke-miterlimit="2" stroke-width="3" text-decoration="normal" transform="scale(2)">100</text><text x="28.21" y="13.81" text-decoration="normal" transform="scale(2)">100</text></g><path fill="none" stroke="#c74440" stroke-linecap="round" stroke-linejoin="round" stroke-miterlimit="10" stroke-width="5" d="m0 546.25 48.828-1.296 40.04-1.57 33.788-1.832 29.492-2.112 25.978-2.372 23.24-2.636 21.094-2.908 19.336-3.184 17.774-3.446 16.6-3.746 15.432-4.008 14.648-4.342 13.672-4.594 13.086-4.946 12.5-5.288 11.914-5.612 11.524-6.02 10.936-6.306 10.744-6.814 10.35-7.208 10.156-7.74 9.96-8.292 9.768-8.87 9.57-9.466 9.374-10.08 9.376-10.948 9.374-11.89 9.376-12.914 8.984-13.42 8.594-13.87 8.4-14.608 8.2-15.35 8.01-16.094 7.812-16.836 7.616-17.57 7.618-18.79 7.422-19.562 7.42-20.884 7.228-21.69 7.226-23.118 7.032-23.95 7.032-25.48 7.03-27.112 7.032-28.844 6.836-29.808 6.836-31.66L617.95-11" class="dcg-svg-curve" paint-order="fill stroke markers"/><path fill="none" stroke="#2d70b3" stroke-linecap="round" stroke-linejoin="round" stroke-miterlimit="10" stroke-width="5" d="M38.3 811 800 93.284" class="dcg-svg-curve" paint-order="fill stroke markers"/><path fill="#c74440" d="M437.68 441.75a7.5 7.5 0 1 1 0-.008Z" class="dcg-svg-point" paint-order="stroke fill markers"/><path fill="#2d70b3" d="M324.214 548.664a7.5 7.5 0 1 1 0-.008Z" class="dcg-svg-point" paint-order="stroke fill markers"/></svg>