<svg xmlns="http://www.w3.org/2000/svg" xmlns:xlink="http://www.w3.org/1999/xlink" width="600" height="400" version="1.1" viewBox="0 0 600 400"><title>mplwp_lambert_W_branches.svg</title><desc>http://commons.wikimedia.org/wiki/File:mplwp_lambert_W_branches.svg Plot created with mplwp, the Matplotlib extension for Wikipedia plots.</desc><defs><style type="text/css">*{stroke-linecap:square;stroke-linejoin:round}</style></defs><defs><clipPath id="pa82c4e93f3"><rect width="515" height="355" x="42.5" y="18.5"/></clipPath></defs><g id="figure_1"><g id="patch_1"><path d="M 0 400 L 600 400 L 600 0 L 0 0 z" style="fill:#fff"/></g><g id="axes_1"><g id="patch_2"><path d="M 42.5 373.5 L 557.5 373.5 L 557.5 18.5 L 42.5 18.5 z" style="fill:#fff"/></g><g id="line2d_1"><path d="M 89.006 196 L 89.1177 190.782 L 89.44 185.989 L 89.9623 181.516 L 90.6741 177.327 L 91.5667 173.387 L 92.6459 169.624 L 93.9039 166.038 L 95.3459 162.595 L 96.9839 159.258 L 98.8168 156.027 L 100.866 152.868 L 103.137 149.779 L 105.633 146.762 L 108.391 143.78 L 111.423 140.833 L 114.742 137.922 L 118.361 135.047 L 122.344 132.171 L 126.661 129.331 L 131.388 126.491 L 136.554 123.651 L 142.191 120.811 L 148.333 117.971 L 155.015 115.131 L 162.277 112.291 L 170.159 109.451 L 178.704 106.611 L 187.958 103.771 L 197.972 100.931 L 208.936 98.0555 L 220.79 95.18 L 233.595 92.3045 L 247.592 89.3935 L 262.702 86.4825 L 279.001 83.5715 L 296.572 80.6605 L 315.74 77.714 L 336.394 74.7675 L 358.638 71.821 L 382.578 68.8745 L 408.653 65.8925 L 436.712 62.9105 L 466.889 59.9285 L 499.73 56.911 L 535.048 53.8935 L 557.946 52.0475 L 557.946 52.0475" clip-path="url(#pa82c4e93f3)" style="fill:none;stroke:#00c;stroke-width:2.4"/></g><g id="line2d_2"><path d="M 110.681 373.5 L 109.435 356.886 L 108.04 341.231 L 106.48 326.214 L 104.734 311.553 L 102.755 296.82 L 100.453 281.378 L 97.5061 263.202 L 92.109 230.187 L 90.7259 220.105 L 89.8384 212.046 L 89.2987 205.159 L 89.0416 199.089 L 89.006 196 L 89.006 196" clip-path="url(#pa82c4e93f3)" style="fill:none;stroke:#d0a;stroke-width:2.4"/></g><g id="matplotlib.axis_1"><g id="xtick_1"><g id="line2d_3"><path d="M 42.5 373.5 L 42.5 18.5" clip-path="url(#pa82c4e93f3)" style="fill:none;stroke:#000;stroke-dasharray:1,3;stroke-dashoffset:0;stroke-linecap:butt;stroke-width:.5"/></g><g id="line2d_4"><defs><path id="ma222041d45" d="M 0 0 L 0 -4" style="stroke:#000;stroke-linecap:butt;stroke-width:1.25"/></defs><g><use style="stroke:#000;stroke-linecap:butt;stroke-width:1.25" x="42.5" y="373.5" xlink:href="#ma222041d45"/></g></g><g id="line2d_5"><defs><path id="mab2f347831" d="M 0 0 L 0 4" style="stroke:#000;stroke-linecap:butt;stroke-width:1.25"/></defs><g><use style="stroke:#000;stroke-linecap:butt;stroke-width:1.25" x="42.5" y="18.5" xlink:href="#mab2f347831"/></g></g><g id="text_1"><defs><path id="DejaVuSans-31" d="M 12.4062 8.29688 L 28.5156 8.29688 L 28.5156 63.9219 L 10.9844 60.4062 L 10.9844 69.3906 L 28.4219 72.9062 L 38.2812 72.9062 L 38.2812 8.29688 L 54.3906 8.29688 L 54.3906 0 L 12.4062 0 z"/><path id="DejaVuSans-2212" d="M 10.5938 35.5 L 73.1875 35.5 L 73.1875 27.2031 L 10.5938 27.2031 z"/></defs><g transform="translate(32.2925 392.165)scale(0.16 -0.16)"><use xlink:href="#DejaVuSans-2212"/><use x="83.789" xlink:href="#DejaVuSans-31"/></g></g></g><g id="xtick_2"><g id="line2d_6"><path d="M 116.071 373.5 L 116.071 18.5" clip-path="url(#pa82c4e93f3)" style="fill:none;stroke:#000;stroke-dasharray:3,1;stroke-dashoffset:0;stroke-linecap:butt;stroke-width:.5"/></g><g id="line2d_7"><g><use style="stroke:#000;stroke-linecap:butt;stroke-width:1.25" x="116.071" y="373.5" xlink:href="#ma222041d45"/></g></g><g id="line2d_8"><g><use style="stroke:#000;stroke-linecap:butt;stroke-width:1.25" x="116.071" y="18.5" xlink:href="#mab2f347831"/></g></g><g id="text_2"><defs><path id="DejaVuSans-30" d="M 31.7812 66.4062 Q 24.1719 66.4062 20.3281 58.9062 Q 16.5 51.4219 16.5 36.375 Q 16.5 21.3906 20.3281 13.8906 Q 24.1719 6.39062 31.7812 6.39062 Q 39.4531 6.39062 43.2812 13.8906 Q 47.125 21.3906 47.125 36.375 Q 47.125 51.4219 43.2812 58.9062 Q 39.4531 66.4062 31.7812 66.4062 M 31.7812 74.2188 Q 44.0469 74.2188 50.5156 64.5156 Q 56.9844 54.8281 56.9844 36.375 Q 56.9844 17.9688 50.5156 8.26562 Q 44.0469 -1.42188 31.7812 -1.42188 Q 19.5312 -1.42188 13.0625 8.26562 Q 6.59375 17.9688 6.59375 36.375 Q 6.59375 54.8281 13.0625 64.5156 Q 19.5312 74.2188 31.7812 74.2188"/></defs><g transform="translate(112.040178571 392.375)scale(0.16 -0.16)"><use xlink:href="#DejaVuSans-30"/></g></g></g><g id="xtick_3"><g id="line2d_9"><path d="M 189.643 373.5 L 189.643 18.5" clip-path="url(#pa82c4e93f3)" style="fill:none;stroke:#000;stroke-dasharray:1,3;stroke-dashoffset:0;stroke-linecap:butt;stroke-width:.5"/></g><g id="line2d_10"><g><use style="stroke:#000;stroke-linecap:butt;stroke-width:1.25" x="189.643" y="373.5" xlink:href="#ma222041d45"/></g></g><g id="line2d_11"><g><use style="stroke:#000;stroke-linecap:butt;stroke-width:1.25" x="189.643" y="18.5" xlink:href="#mab2f347831"/></g></g><g id="text_3"><g transform="translate(186.170357143 392.165)scale(0.16 -0.16)"><use xlink:href="#DejaVuSans-31"/></g></g></g><g id="xtick_4"><g id="line2d_12"><path d="M 263.214 373.5 L 263.214 18.5" clip-path="url(#pa82c4e93f3)" style="fill:none;stroke:#000;stroke-dasharray:1,3;stroke-dashoffset:0;stroke-linecap:butt;stroke-width:.5"/></g><g id="line2d_13"><g><use style="stroke:#000;stroke-linecap:butt;stroke-width:1.25" x="263.214" y="373.5" xlink:href="#ma222041d45"/></g></g><g id="line2d_14"><g><use style="stroke:#000;stroke-linecap:butt;stroke-width:1.25" x="263.214" y="18.5" xlink:href="#mab2f347831"/></g></g><g id="text_4"><defs><path id="DejaVuSans-32" d="M 19.1875 8.29688 L 53.6094 8.29688 L 53.6094 0 L 7.32812 0 L 7.32812 8.29688 Q 12.9375 14.1094 22.625 23.8906 Q 32.3281 33.6875 34.8125 36.5312 Q 39.5469 41.8438 41.4219 45.5312 Q 43.3125 49.2188 43.3125 52.7812 Q 43.3125 58.5938 39.2344 62.25 Q 35.1562 65.9219 28.6094 65.9219 Q 23.9688 65.9219 18.8125 64.3125 Q 13.6719 62.7031 7.8125 59.4219 L 7.8125 69.3906 Q 13.7656 71.7812 18.9375 73 Q 24.125 74.2188 28.4219 74.2188 Q 39.75 74.2188 46.4844 68.5469 Q 53.2188 62.8906 53.2188 53.4219 Q 53.2188 48.9219 51.5312 44.8906 Q 49.8594 40.875 45.4062 35.4062 Q 44.1875 33.9844 37.6406 27.2188 Q 31.1094 20.4531 19.1875 8.29688"/></defs><g transform="translate(259.511785714 392.375)scale(0.16 -0.16)"><use xlink:href="#DejaVuSans-32"/></g></g></g><g id="xtick_5"><g id="line2d_15"><path d="M 336.786 373.5 L 336.786 18.5" clip-path="url(#pa82c4e93f3)" style="fill:none;stroke:#000;stroke-dasharray:1,3;stroke-dashoffset:0;stroke-linecap:butt;stroke-width:.5"/></g><g id="line2d_16"><g><use style="stroke:#000;stroke-linecap:butt;stroke-width:1.25" x="336.786" y="373.5" xlink:href="#ma222041d45"/></g></g><g id="line2d_17"><g><use style="stroke:#000;stroke-linecap:butt;stroke-width:1.25" x="336.786" y="18.5" xlink:href="#mab2f347831"/></g></g><g id="text_5"><defs><path id="DejaVuSans-33" d="M 40.5781 39.3125 Q 47.6562 37.7969 51.625 33 Q 55.6094 28.2188 55.6094 21.1875 Q 55.6094 10.4062 48.1875 4.48438 Q 40.7656 -1.42188 27.0938 -1.42188 Q 22.5156 -1.42188 17.6562 -0.515625 Q 12.7969 0.390625 7.625 2.20312 L 7.625 11.7188 Q 11.7188 9.32812 16.5938 8.10938 Q 21.4844 6.89062 26.8125 6.89062 Q 36.0781 6.89062 40.9375 10.5469 Q 45.7969 14.2031 45.7969 21.1875 Q 45.7969 27.6406 41.2812 31.2656 Q 36.7656 34.9062 28.7188 34.9062 L 20.2188 34.9062 L 20.2188 43.0156 L 29.1094 43.0156 Q 36.375 43.0156 40.2344 45.9219 Q 44.0938 48.8281 44.0938 54.2969 Q 44.0938 59.9062 40.1094 62.9062 Q 36.1406 65.9219 28.7188 65.9219 Q 24.6562 65.9219 20.0156 65.0312 Q 15.375 64.1562 9.8125 62.3125 L 9.8125 71.0938 Q 15.4375 72.6562 20.3438 73.4375 Q 25.25 74.2188 29.5938 74.2188 Q 40.8281 74.2188 47.3594 69.1094 Q 53.9062 64.0156 53.9062 55.3281 Q 53.9062 49.2656 50.4375 45.0938 Q 46.9688 40.9219 40.5781 39.3125"/></defs><g transform="translate(332.946964286 392.375)scale(0.16 -0.16)"><use xlink:href="#DejaVuSans-33"/></g></g></g><g id="xtick_6"><g id="line2d_18"><path d="M 410.357 373.5 L 410.357 18.5" clip-path="url(#pa82c4e93f3)" style="fill:none;stroke:#000;stroke-dasharray:1,3;stroke-dashoffset:0;stroke-linecap:butt;stroke-width:.5"/></g><g id="line2d_19"><g><use style="stroke:#000;stroke-linecap:butt;stroke-width:1.25" x="410.357" y="373.5" xlink:href="#ma222041d45"/></g></g><g id="line2d_20"><g><use style="stroke:#000;stroke-linecap:butt;stroke-width:1.25" x="410.357" y="18.5" xlink:href="#mab2f347831"/></g></g><g id="text_6"><defs><path id="DejaVuSans-34" d="M 37.7969 64.3125 L 12.8906 25.3906 L 37.7969 25.3906 z M 35.2031 72.9062 L 47.6094 72.9062 L 47.6094 25.3906 L 58.0156 25.3906 L 58.0156 17.1875 L 47.6094 17.1875 L 47.6094 0 L 37.7969 0 L 37.7969 17.1875 L 4.89062 17.1875 L 4.89062 26.7031 z"/></defs><g transform="translate(406.107142857 392.165)scale(0.16 -0.16)"><use xlink:href="#DejaVuSans-34"/></g></g></g><g id="xtick_7"><g id="line2d_21"><path d="M 483.929 373.5 L 483.929 18.5" clip-path="url(#pa82c4e93f3)" style="fill:none;stroke:#000;stroke-dasharray:1,3;stroke-dashoffset:0;stroke-linecap:butt;stroke-width:.5"/></g><g id="line2d_22"><g><use style="stroke:#000;stroke-linecap:butt;stroke-width:1.25" x="483.929" y="373.5" xlink:href="#ma222041d45"/></g></g><g id="line2d_23"><g><use style="stroke:#000;stroke-linecap:butt;stroke-width:1.25" x="483.929" y="18.5" xlink:href="#mab2f347831"/></g></g><g id="text_7"><defs><path id="DejaVuSans-35" d="M 10.7969 72.9062 L 49.5156 72.9062 L 49.5156 64.5938 L 19.8281 64.5938 L 19.8281 46.7344 Q 21.9688 47.4688 24.1094 47.8281 Q 26.2656 48.1875 28.4219 48.1875 Q 40.625 48.1875 47.75 41.5 Q 54.8906 34.8125 54.8906 23.3906 Q 54.8906 11.625 47.5625 5.09375 Q 40.2344 -1.42188 26.9062 -1.42188 Q 22.3125 -1.42188 17.5469 -0.640625 Q 12.7969 0.140625 7.71875 1.70312 L 7.71875 11.625 Q 12.1094 9.23438 16.7969 8.0625 Q 21.4844 6.89062 26.7031 6.89062 Q 35.1562 6.89062 40.0781 11.3281 Q 45.0156 15.7656 45.0156 23.3906 Q 45.0156 31 40.0781 35.4375 Q 35.1562 39.8906 26.7031 39.8906 Q 22.75 39.8906 18.8125 39.0156 Q 14.8906 38.1406 10.7969 36.2812 z"/></defs><g transform="translate(480.154821429 392.165)scale(0.16 -0.16)"><use xlink:href="#DejaVuSans-35"/></g></g></g><g id="xtick_8"><g id="line2d_24"><path d="M 557.5 373.5 L 557.5 18.5" clip-path="url(#pa82c4e93f3)" style="fill:none;stroke:#000;stroke-dasharray:1,3;stroke-dashoffset:0;stroke-linecap:butt;stroke-width:.5"/></g><g id="line2d_25"><g><use style="stroke:#000;stroke-linecap:butt;stroke-width:1.25" x="557.5" y="373.5" xlink:href="#ma222041d45"/></g></g><g id="line2d_26"><g><use style="stroke:#000;stroke-linecap:butt;stroke-width:1.25" x="557.5" y="18.5" xlink:href="#mab2f347831"/></g></g><g id="text_8"><defs><path id="DejaVuSans-36" d="M 33.0156 40.375 Q 26.375 40.375 22.4844 35.8281 Q 18.6094 31.2969 18.6094 23.3906 Q 18.6094 15.5312 22.4844 10.9531 Q 26.375 6.39062 33.0156 6.39062 Q 39.6562 6.39062 43.5312 10.9531 Q 47.4062 15.5312 47.4062 23.3906 Q 47.4062 31.2969 43.5312 35.8281 Q 39.6562 40.375 33.0156 40.375 M 52.5938 71.2969 L 52.5938 62.3125 Q 48.875 64.0625 45.0938 64.9844 Q 41.3125 65.9219 37.5938 65.9219 Q 27.8281 65.9219 22.6719 59.3281 Q 17.5312 52.7344 16.7969 39.4062 Q 19.6719 43.6562 24.0156 45.9219 Q 28.375 48.1875 33.5938 48.1875 Q 44.5781 48.1875 50.9531 41.5156 Q 57.3281 34.8594 57.3281 23.3906 Q 57.3281 12.1562 50.6875 5.35938 Q 44.0469 -1.42188 33.0156 -1.42188 Q 20.3594 -1.42188 13.6719 8.26562 Q 6.98438 17.9688 6.98438 36.375 Q 6.98438 53.6562 15.1875 63.9375 Q 23.3906 74.2188 37.2031 74.2188 Q 40.9219 74.2188 44.7031 73.4844 Q 48.4844 72.75 52.5938 71.2969"/></defs><g transform="translate(553.4725 392.375)scale(0.16 -0.16)"><use xlink:href="#DejaVuSans-36"/></g></g></g></g><g id="matplotlib.axis_2"><g id="ytick_1"><g id="line2d_27"><path d="M 42.5 373.5 L 557.5 373.5" clip-path="url(#pa82c4e93f3)" style="fill:none;stroke:#000;stroke-dasharray:1,3;stroke-dashoffset:0;stroke-linecap:butt;stroke-width:.5"/></g><g id="line2d_28"><defs><path id="m1eb0c910b5" d="M 0 0 L 4 0" style="stroke:#000;stroke-linecap:butt;stroke-width:1.25"/></defs><g><use style="stroke:#000;stroke-linecap:butt;stroke-width:1.25" x="42.5" y="373.5" xlink:href="#m1eb0c910b5"/></g></g><g id="line2d_29"><defs><path id="mb63a56c30e" d="M 0 0 L -4 0" style="stroke:#000;stroke-linecap:butt;stroke-width:1.25"/></defs><g><use style="stroke:#000;stroke-linecap:butt;stroke-width:1.25" x="557.5" y="373.5" xlink:href="#mb63a56c30e"/></g></g><g id="text_9"><g transform="translate(14.505 379.3325)scale(0.16 -0.16)"><use xlink:href="#DejaVuSans-2212"/><use x="83.789" xlink:href="#DejaVuSans-34"/></g></g></g><g id="ytick_2"><g id="line2d_30"><path d="M 42.5 314.333 L 557.5 314.333" clip-path="url(#pa82c4e93f3)" style="fill:none;stroke:#000;stroke-dasharray:1,3;stroke-dashoffset:0;stroke-linecap:butt;stroke-width:.5"/></g><g id="line2d_31"><g><use style="stroke:#000;stroke-linecap:butt;stroke-width:1.25" x="42.5" y="314.333" xlink:href="#m1eb0c910b5"/></g></g><g id="line2d_32"><g><use style="stroke:#000;stroke-linecap:butt;stroke-width:1.25" x="557.5" y="314.333" xlink:href="#mb63a56c30e"/></g></g><g id="text_10"><g transform="translate(14.89 320.157083333)scale(0.16 -0.16)"><use xlink:href="#DejaVuSans-2212"/><use x="83.789" xlink:href="#DejaVuSans-33"/></g></g></g><g id="ytick_3"><g id="line2d_33"><path d="M 42.5 255.167 L 557.5 255.167" clip-path="url(#pa82c4e93f3)" style="fill:none;stroke:#000;stroke-dasharray:1,3;stroke-dashoffset:0;stroke-linecap:butt;stroke-width:.5"/></g><g id="line2d_34"><g><use style="stroke:#000;stroke-linecap:butt;stroke-width:1.25" x="42.5" y="255.167" xlink:href="#m1eb0c910b5"/></g></g><g id="line2d_35"><g><use style="stroke:#000;stroke-linecap:butt;stroke-width:1.25" x="557.5" y="255.167" xlink:href="#mb63a56c30e"/></g></g><g id="text_11"><g transform="translate(15.21 261.104166667)scale(0.16 -0.16)"><use xlink:href="#DejaVuSans-2212"/><use x="83.789" xlink:href="#DejaVuSans-32"/></g></g></g><g id="ytick_4"><g id="line2d_36"><path d="M 42.5 196 L 557.5 196" clip-path="url(#pa82c4e93f3)" style="fill:none;stroke:#000;stroke-dasharray:1,3;stroke-dashoffset:0;stroke-linecap:butt;stroke-width:.5"/></g><g id="line2d_37"><g><use style="stroke:#000;stroke-linecap:butt;stroke-width:1.25" x="42.5" y="196" xlink:href="#m1eb0c910b5"/></g></g><g id="line2d_38"><g><use style="stroke:#000;stroke-linecap:butt;stroke-width:1.25" x="557.5" y="196" xlink:href="#mb63a56c30e"/></g></g><g id="text_12"><g transform="translate(15.085 201.8325)scale(0.16 -0.16)"><use xlink:href="#DejaVuSans-2212"/><use x="83.789" xlink:href="#DejaVuSans-31"/></g></g></g><g id="ytick_5"><g id="line2d_39"><path d="M 42.5 136.833 L 557.5 136.833" clip-path="url(#pa82c4e93f3)" style="fill:none;stroke:#000;stroke-dasharray:3,1;stroke-dashoffset:0;stroke-linecap:butt;stroke-width:.5"/></g><g id="line2d_40"><g><use style="stroke:#000;stroke-linecap:butt;stroke-width:1.25" x="42.5" y="136.833" xlink:href="#m1eb0c910b5"/></g></g><g id="line2d_41"><g><use style="stroke:#000;stroke-linecap:butt;stroke-width:1.25" x="557.5" y="136.833" xlink:href="#mb63a56c30e"/></g></g><g id="text_13"><g transform="translate(27.4375 142.657083333)scale(0.16 -0.16)"><use xlink:href="#DejaVuSans-30"/></g></g></g><g id="ytick_6"><g id="line2d_42"><path d="M 42.5 77.6667 L 557.5 77.6667" clip-path="url(#pa82c4e93f3)" style="fill:none;stroke:#000;stroke-dasharray:1,3;stroke-dashoffset:0;stroke-linecap:butt;stroke-width:.5"/></g><g id="line2d_43"><g><use style="stroke:#000;stroke-linecap:butt;stroke-width:1.25" x="42.5" y="77.667" xlink:href="#m1eb0c910b5"/></g></g><g id="line2d_44"><g><use style="stroke:#000;stroke-linecap:butt;stroke-width:1.25" x="557.5" y="77.667" xlink:href="#mb63a56c30e"/></g></g><g id="text_14"><g transform="translate(28.555 83.4991666667)scale(0.16 -0.16)"><use xlink:href="#DejaVuSans-31"/></g></g></g><g id="ytick_7"><g id="line2d_45"><path d="M 42.5 18.5 L 557.5 18.5" clip-path="url(#pa82c4e93f3)" style="fill:none;stroke:#000;stroke-dasharray:1,3;stroke-dashoffset:0;stroke-linecap:butt;stroke-width:.5"/></g><g id="line2d_46"><g><use style="stroke:#000;stroke-linecap:butt;stroke-width:1.25" x="42.5" y="18.5" xlink:href="#m1eb0c910b5"/></g></g><g id="line2d_47"><g><use style="stroke:#000;stroke-linecap:butt;stroke-width:1.25" x="557.5" y="18.5" xlink:href="#mb63a56c30e"/></g></g><g id="text_15"><g transform="translate(28.095 24.4375)scale(0.16 -0.16)"><use xlink:href="#DejaVuSans-32"/></g></g></g></g><g id="patch_3"><path d="M 42.5 18.5 L 557.5 18.5" style="fill:none;stroke:#000;stroke-width:1.25"/></g><g id="patch_4"><path d="M 557.5 373.5 L 557.5 18.5" style="fill:none;stroke:#000;stroke-width:1.25"/></g><g id="patch_5"><path d="M 42.5 373.5 L 557.5 373.5" style="fill:none;stroke:#000;stroke-width:1.25"/></g><g id="patch_6"><path d="M 42.5 373.5 L 42.5 18.5" style="fill:none;stroke:#000;stroke-width:1.25"/></g><g id="legend_1"><g id="patch_7"><path d="M 427.132 226.698 L 528.7 226.698 L 528.7 165.303 L 427.132 165.303 L 427.132 226.698 z" style="fill:#fff;opacity:.9;stroke:#000"/></g><g id="line2d_48"><path d="M 440.572 180.852 L 467.452 180.852" style="fill:none;stroke:#00c;stroke-width:2.4"/></g><g id="text_16"><defs><path id="DejaVuSans-57" d="M 3.32812 72.9062 L 13.2812 72.9062 L 28.6094 11.2812 L 43.8906 72.9062 L 54.9844 72.9062 L 70.3125 11.2812 L 85.5938 72.9062 L 95.6094 72.9062 L 77.2969 0 L 64.8906 0 L 49.5156 63.2812 L 33.9844 0 L 21.5781 0 z"/></defs><g transform="translate(488.572 191.0275)scale(0.192 -0.192)"><use transform="translate(0.0 18.09375)" xlink:href="#DejaVuSans-57"/><use transform="translate(98.876953125 1.6875)scale(0.7)" xlink:href="#DejaVuSans-30"/></g></g><g id="line2d_50"><path d="M 440.572 209.034 L 467.452 209.034" style="fill:none;stroke:#d0a;stroke-width:2.4"/></g><g id="text_17"><defs><path id="DejaVuSans-2d" d="M 4.89062 31.3906 L 31.2031 31.3906 L 31.2031 23.3906 L 4.89062 23.3906 z"/></defs><g transform="translate(488.572 219.0175)scale(0.192 -0.192)"><use transform="translate(0.0 17.09375)" xlink:href="#DejaVuSans-57"/><use transform="translate(98.876953125 0.6875)scale(0.7)" xlink:href="#DejaVuSans-2d"/><use transform="translate(124.135742188 0.6875)scale(0.7)" xlink:href="#DejaVuSans-31"/></g></g></g></g></g></svg>