<svg xmlns:xlink="http://www.w3.org/1999/xlink" viewBox="0 0 600 400"><title>mplwp_lambert_W_branches.svg</title><desc>http://commons.wikimedia.org/wiki/File:mplwp_lambert_W_branches.svg Plot created with mplwp, the Matplotlib extension for Wikipedia plots.</desc><defs><clipPath id="a"><path d="M42.5 18.5h515v355h-515z"/></clipPath></defs><path d="M0 400h600V0H0z" style="fill:#fff"/><path d="M42.5 373.5h515v-355h-515z" style="fill:#fff"/><path d="m89 196 .1-5.2.3-4.8.6-4.5.7-4.2.9-4 1-3.7L94 166l1.4-3.4 1.7-3.3 1.8-3.3 2-3.1 2.3-3.1 2.5-3 2.8-3 3-3 3.3-2.9 3.7-2.9 4-2.8 4.3-2.9 4.7-2.8 5.2-2.8 5.6-2.9 6.1-2.8 6.7-2.9 7.3-2.8 7.9-2.8 8.5-2.9 9.3-2.8 10-2.9 11-2.8 11.8-3 12.8-2.8 14-3 15.1-2.8 16.3-3 17.6-2.8 19.1-3 20.7-3 22.2-2.9 24-3 26-3 28.1-2.9 30.2-3 32.8-3 35.3-3 23-1.9" clip-path="url(#a)" style="fill:none;stroke:#00c;stroke-width:2.4"/><path d="m110.7 373.5-1.3-16.6-1.4-15.7-1.5-15-1.8-14.6-2-14.8-2.2-15.4-3-18.2-5.4-33-1.4-10-.9-8.2-.5-6.8-.3-6.1V196" clip-path="url(#a)" style="fill:none;stroke:#d0a;stroke-width:2.4"/><path d="M42.5 373.5v-355" clip-path="url(#a)" style="fill:none;stroke:#000;stroke-dasharray:1,3;stroke-dashoffset:0;stroke-linecap:butt;stroke-width:.5"/><defs><path id="b" d="M0 0v-4" style="stroke:#000;stroke-linecap:butt;stroke-width:1.25"/></defs><use xlink:href="#b" x="42.5" y="373.5" style="stroke:#000;stroke-linecap:butt;stroke-width:1.25"/><defs><path id="c" d="M0 0v4" style="stroke:#000;stroke-linecap:butt;stroke-width:1.25"/></defs><use xlink:href="#c" x="42.5" y="18.5" style="stroke:#000;stroke-linecap:butt;stroke-width:1.25"/><defs><path id="e" d="M12.4 8.3h16.1v55.6L11 60.4v9l17.4 3.5h9.9V8.3h16V0H12.5z"/><path id="d" d="M10.6 35.5h62.6v-8.3H10.6z"/></defs><g transform="matrix(.16 0 0 -.16 32.292 392.165)"><use xlink:href="#d"/><use xlink:href="#e" x="83.8"/></g><path d="M116 373.5v-355" clip-path="url(#a)" style="fill:none;stroke:#000;stroke-dasharray:3,1;stroke-dashoffset:0;stroke-linecap:butt;stroke-width:.5"/><use xlink:href="#b" x="116.1" y="373.5" style="stroke:#000;stroke-linecap:butt;stroke-width:1.25"/><use xlink:href="#c" x="116.1" y="18.5" style="stroke:#000;stroke-linecap:butt;stroke-width:1.25"/><defs><path id="f" d="M31.8 66.4q-7.6 0-11.5-7.5-3.8-7.5-3.8-22.5t3.8-22.5 11.5-7.5 11.5 7.5T47 36.4t-3.8 22.5-11.5 7.5m0 7.8q12.2 0 18.7-9.7T57 36.4 50.5 8.3 31.8-1.4 13 8.3q-6.5 9.7-6.5 28 0 18.5 6.5 28.2t18.7 9.7"/></defs><use xlink:href="#f" transform="matrix(.16 0 0 -.16 112.04 392.375)"/><path d="M189.6 373.5v-355" clip-path="url(#a)" style="fill:none;stroke:#000;stroke-dasharray:1,3;stroke-dashoffset:0;stroke-linecap:butt;stroke-width:.5"/><use xlink:href="#b" x="189.6" y="373.5" style="stroke:#000;stroke-linecap:butt;stroke-width:1.25"/><use xlink:href="#c" x="189.6" y="18.5" style="stroke:#000;stroke-linecap:butt;stroke-width:1.25"/><use xlink:href="#e" transform="matrix(.16 0 0 -.16 186.17 392.165)"/><path d="M263.2 373.5v-355" clip-path="url(#a)" style="fill:none;stroke:#000;stroke-dasharray:1,3;stroke-dashoffset:0;stroke-linecap:butt;stroke-width:.5"/><use xlink:href="#b" x="263.2" y="373.5" style="stroke:#000;stroke-linecap:butt;stroke-width:1.25"/><use xlink:href="#c" x="263.2" y="18.5" style="stroke:#000;stroke-linecap:butt;stroke-width:1.25"/><defs><path id="g" d="M19.2 8.3h34.4V0H7.3v8.3l15.3 15.6q9.7 9.8 12.2 12.6 4.7 5.3 6.6 9 2 3.7 2 7.3 0 5.8-4.2 9.5-4 3.6-10.6 3.6-4.6 0-9.8-1.6-5.1-1.6-11-4.9v10q6 2.4 11.1 3.6 5.2 1.2 9.5 1.2 11.4 0 18-5.7 6.8-5.6 6.8-15 0-4.6-1.7-8.6t-6-9.5l-7.9-8.2z"/></defs><use xlink:href="#g" transform="matrix(.16 0 0 -.16 259.512 392.375)"/><path d="M336.8 373.5v-355" clip-path="url(#a)" style="fill:none;stroke:#000;stroke-dasharray:1,3;stroke-dashoffset:0;stroke-linecap:butt;stroke-width:.5"/><use xlink:href="#b" x="336.8" y="373.5" style="stroke:#000;stroke-linecap:butt;stroke-width:1.25"/><use xlink:href="#c" x="336.8" y="18.5" style="stroke:#000;stroke-linecap:butt;stroke-width:1.25"/><defs><path id="h" d="M40.6 39.3q7-1.5 11-6.3t4-11.8q0-10.8-7.4-16.7-7.4-6-21.1-6-4.6 0-9.4 1t-10 2.7v9.5q4-2.4 8.9-3.6T26.8 7q9.3 0 14.1 3.6 4.9 3.7 4.9 10.7 0 6.4-4.5 10Q36.8 35 28.7 35h-8.5v8h9q7.2 0 11 3 3.9 2.8 3.9 8.3t-4 8.6-11.4 3q-4 0-8.7-.9T9.8 62.3v8.8q5.6 1.6 10.5 2.3 5 .8 9.3.8 11.2 0 17.8-5 6.5-5.2 6.5-13.9 0-6-3.5-10.2-3.4-4.2-9.8-5.8"/></defs><use xlink:href="#h" transform="matrix(.16 0 0 -.16 332.947 392.375)"/><path d="M410.4 373.5v-355" clip-path="url(#a)" style="fill:none;stroke:#000;stroke-dasharray:1,3;stroke-dashoffset:0;stroke-linecap:butt;stroke-width:.5"/><use xlink:href="#b" x="410.4" y="373.5" style="stroke:#000;stroke-linecap:butt;stroke-width:1.25"/><use xlink:href="#c" x="410.4" y="18.5" style="stroke:#000;stroke-linecap:butt;stroke-width:1.25"/><defs><path id="i" d="m37.8 64.3-25-39h25zM35.2 73h12.4V25.4H58v-8.2H47.6V0h-9.8v17.2h-33v9.5z"/></defs><use xlink:href="#i" transform="matrix(.16 0 0 -.16 406.107 392.165)"/><path d="M484 373.5v-355" clip-path="url(#a)" style="fill:none;stroke:#000;stroke-dasharray:1,3;stroke-dashoffset:0;stroke-linecap:butt;stroke-width:.5"/><use xlink:href="#b" x="483.9" y="373.5" style="stroke:#000;stroke-linecap:butt;stroke-width:1.25"/><use xlink:href="#c" x="483.9" y="18.5" style="stroke:#000;stroke-linecap:butt;stroke-width:1.25"/><defs><path id="j" d="M10.8 73h38.7v-8.4H19.8V46.7q2.2.8 4.3 1.1 2.2.4 4.3.4 12.2 0 19.4-6.7 7-6.7 7-18.1 0-11.8-7.2-18.3-7.4-6.5-20.7-6.5-4.6 0-9.4.8-4.7.7-9.8 2.3v10q4.4-2.5 9.1-3.6t9.9-1.2q8.5 0 13.4 4.4t5 12-5 12.1T26.7 40q-4 0-7.9-.9t-8-2.7z"/></defs><use xlink:href="#j" transform="matrix(.16 0 0 -.16 480.155 392.165)"/><path d="M557.5 373.5v-355" clip-path="url(#a)" style="fill:none;stroke:#000;stroke-dasharray:1,3;stroke-dashoffset:0;stroke-linecap:butt;stroke-width:.5"/><use xlink:href="#b" x="557.5" y="373.5" style="stroke:#000;stroke-linecap:butt;stroke-width:1.25"/><use xlink:href="#c" x="557.5" y="18.5" style="stroke:#000;stroke-linecap:butt;stroke-width:1.25"/><defs><path id="k" d="M33 40.4q-6.6 0-10.5-4.6t-3.9-12.4T22.5 11 33 6.4 43.5 11q4 4.5 4 12.4t-4 12.4q-3.8 4.6-10.5 4.6m19.6 30.9v-9Q48.9 64.1 45 65t-7.5 1q-9.8 0-15-6.7-5-6.6-5.8-19.9 2.9 4.3 7.2 6.5t9.6 2.3q11 0 17.4-6.7 6.3-6.6 6.3-18.1 0-11.2-6.6-18T33-1.4q-12.6 0-19.3 9.7T7 36.3Q7 53.8 15.2 64t22 10.3q3.7 0 7.5-.7t7.9-2.2"/></defs><use xlink:href="#k" transform="matrix(.16 0 0 -.16 553.472 392.375)"/><path d="M42.5 373.5h515" clip-path="url(#a)" style="fill:none;stroke:#000;stroke-dasharray:1,3;stroke-dashoffset:0;stroke-linecap:butt;stroke-width:.5"/><defs><path id="l" d="M0 0h4" style="stroke:#000;stroke-linecap:butt;stroke-width:1.25"/></defs><use xlink:href="#l" x="42.5" y="373.5" style="stroke:#000;stroke-linecap:butt;stroke-width:1.25"/><defs><path id="m" d="M0 0h-4" style="stroke:#000;stroke-linecap:butt;stroke-width:1.25"/></defs><use xlink:href="#m" x="557.5" y="373.5" style="stroke:#000;stroke-linecap:butt;stroke-width:1.25"/><g transform="matrix(.16 0 0 -.16 14.505 379.332)"><use xlink:href="#d"/><use xlink:href="#i" x="83.8"/></g><path d="M42.5 314.3h515" clip-path="url(#a)" style="fill:none;stroke:#000;stroke-dasharray:1,3;stroke-dashoffset:0;stroke-linecap:butt;stroke-width:.5"/><use xlink:href="#l" x="42.5" y="314.3" style="stroke:#000;stroke-linecap:butt;stroke-width:1.25"/><use xlink:href="#m" x="557.5" y="314.3" style="stroke:#000;stroke-linecap:butt;stroke-width:1.25"/><g transform="matrix(.16 0 0 -.16 14.89 320.157)"><use xlink:href="#d"/><use xlink:href="#h" x="83.8"/></g><path d="M42.5 255.2h515" clip-path="url(#a)" style="fill:none;stroke:#000;stroke-dasharray:1,3;stroke-dashoffset:0;stroke-linecap:butt;stroke-width:.5"/><use xlink:href="#l" x="42.5" y="255.2" style="stroke:#000;stroke-linecap:butt;stroke-width:1.25"/><use xlink:href="#m" x="557.5" y="255.2" style="stroke:#000;stroke-linecap:butt;stroke-width:1.25"/><g transform="matrix(.16 0 0 -.16 15.21 261.104)"><use xlink:href="#d"/><use xlink:href="#g" x="83.8"/></g><path d="M42.5 196h515" clip-path="url(#a)" style="fill:none;stroke:#000;stroke-dasharray:1,3;stroke-dashoffset:0;stroke-linecap:butt;stroke-width:.5"/><use xlink:href="#l" x="42.5" y="196" style="stroke:#000;stroke-linecap:butt;stroke-width:1.25"/><use xlink:href="#m" x="557.5" y="196" style="stroke:#000;stroke-linecap:butt;stroke-width:1.25"/><g transform="matrix(.16 0 0 -.16 15.085 201.833)"><use xlink:href="#d"/><use xlink:href="#e" x="83.8"/></g><path d="M42.5 136.8h515" clip-path="url(#a)" style="fill:none;stroke:#000;stroke-dasharray:3,1;stroke-dashoffset:0;stroke-linecap:butt;stroke-width:.5"/><use xlink:href="#l" x="42.5" y="136.8" style="stroke:#000;stroke-linecap:butt;stroke-width:1.25"/><use xlink:href="#m" x="557.5" y="136.8" style="stroke:#000;stroke-linecap:butt;stroke-width:1.25"/><use xlink:href="#f" transform="matrix(.16 0 0 -.16 27.438 142.657)"/><path d="M42.5 77.7h515" clip-path="url(#a)" style="fill:none;stroke:#000;stroke-dasharray:1,3;stroke-dashoffset:0;stroke-linecap:butt;stroke-width:.5"/><use xlink:href="#l" x="42.5" y="77.7" style="stroke:#000;stroke-linecap:butt;stroke-width:1.25"/><use xlink:href="#m" x="557.5" y="77.7" style="stroke:#000;stroke-linecap:butt;stroke-width:1.25"/><use xlink:href="#e" transform="matrix(.16 0 0 -.16 28.555 83.5)"/><path d="M42.5 18.5h515" clip-path="url(#a)" style="fill:none;stroke:#000;stroke-dasharray:1,3;stroke-dashoffset:0;stroke-linecap:butt;stroke-width:.5"/><use xlink:href="#l" x="42.5" y="18.5" style="stroke:#000;stroke-linecap:butt;stroke-width:1.25"/><use xlink:href="#m" x="557.5" y="18.5" style="stroke:#000;stroke-linecap:butt;stroke-width:1.25"/><use xlink:href="#g" transform="matrix(.16 0 0 -.16 28.095 24.438)"/><path d="M42.5 18.5h515m0 355v-355m-515 355h515m-515 0v-355" style="fill:none;stroke:#000;stroke-width:1.25"/><path d="M427.1 226.7h101.6v-61.4H427.1z" style="fill:#fff;opacity:.9;stroke:#000"/><path d="M440.6 180.9h26.9" style="fill:none;stroke:#00c;stroke-width:2.4"/><defs><path id="n" d="M3.3 73h10l15.3-61.7L44 72.9h11l15.4-61.6 15.3 61.6h10L77.3 0H64.9L49.5 63.3 34 0H21.6z"/></defs><g transform="matrix(.192 0 0 -.192 488.572 191.028)"><use xlink:href="#n" transform="translate(0 18.094)"/><use xlink:href="#f" transform="matrix(.7 0 0 .7 98.877 1.688)"/></g><path d="M440.6 209h26.9" style="fill:none;stroke:#d0a;stroke-width:2.4"/><defs><path id="o" d="M4.9 31.4h26.3v-8H4.9z"/></defs><g transform="matrix(.192 0 0 -.192 488.572 219.018)"><use xlink:href="#n" transform="translate(0 17.094)"/><use xlink:href="#o" transform="matrix(.7 0 0 .7 98.877 .688)"/><use xlink:href="#e" transform="matrix(.7 0 0 .7 124.136 .688)"/></g></svg>