<svg xmlns="http://www.w3.org/2000/svg" id="svg__github_work__svg2739" viewBox="0 0 6139.47 3563.76"><style>text{font-family:Liberation Sans,sans-serif}tspan.state{font-size:150px}</style><defs id="svg__github_work__defs2743"><marker id="svg__github_work__marker6387" orient="auto" overflow="visible" refX="0" refY="0"><use fill-rule="evenodd" stroke-linejoin="round" stroke-width="0.63" href="#svg__github_work__path6385" transform="translate(-1.1)scale(-1.1)"/></marker><marker id="svg__github_work__marker6197" orient="auto" overflow="visible" refX="0" refY="0"><use id="svg__github_work__path6195" fill-rule="evenodd" stroke-linejoin="round" stroke-width="0.63" href="#svg__github_work__path6385" transform="translate(-1.1)scale(-1.1)"/></marker><marker id="svg__github_work__marker5739" orient="auto" overflow="visible" refX="0" refY="0"><use id="svg__github_work__path5737" fill-rule="evenodd" stroke-linejoin="round" stroke-width="0.63" href="#svg__github_work__path6385" transform="translate(-1.1)scale(-1.1)"/></marker><marker id="svg__github_work__Arrow2Lend" orient="auto" overflow="visible" refX="0" refY="0"><use id="svg__github_work__path5490" fill-rule="evenodd" stroke-linejoin="round" stroke-width="0.63" href="#svg__github_work__path6385" transform="translate(-1.1)scale(-1.1)"/></marker><marker id="svg__github_work__Arrow1Mend" orient="auto" overflow="visible" refX="0" refY="0"><path id="svg__github_work__path5478" fill="#000" fill-rule="evenodd" stroke="#000" stroke-width="1pt" d="m0 0 5-5-17.5 5L5 5z" transform="translate(-4)scale(-.4)"/></marker><linearGradient id="svg__github_work__linearGradient5363"><stop id="svg__github_work__stop5359" offset="0" stop-color="#d5914a" stop-opacity="1"/><stop id="svg__github_work__stop5361" offset="1" stop-color="#fcd37c" stop-opacity="1"/></linearGradient><linearGradient id="svg__github_work__linearGradient5351"><stop id="svg__github_work__stop5349" offset="0" stop-color="#b3b3b3" stop-opacity="1"/><stop id="svg__github_work__stop5347" offset="1" stop-color="#e6e6e6" stop-opacity="1"/></linearGradient><linearGradient id="svg__github_work__linearGradient5353" x1="1247.18" x2="1497.88" y1="2062.76" y2="2062.76" gradientUnits="userSpaceOnUse" href="#svg__github_work__linearGradient5351" spreadMethod="reflect"/><linearGradient id="svg__github_work__linearGradient5365" x1="4368.67" x2="4638.42" y1="2062.76" y2="2062.76" gradientUnits="userSpaceOnUse" href="#svg__github_work__linearGradient5363" spreadMethod="reflect"/><path id="svg__github_work__path6385" fill="#000" stroke="#000" d="M8.719 4.034-2.207.016 8.719-4.002c-1.746 2.372-1.736 5.618 0 8.036z"/><g id="svg__github_work__electron"><circle r="146.76" fill="#fff4b7" stroke="#000" stroke-width="7.56"/><text y="62" font-size="208" font-style="italic" text-anchor="middle"><tspan>e⁻</tspan></text></g></defs><g id="svg__github_work__layer1" display="inline"><path id="svg__github_work__path5357" fill="#a1c9ff" stroke="none" stroke-miterlimit="4" stroke-width="7.64" d="M6127.366 1740.926c-127.14 103.892-312.153 103.84-439.348-.015-124.442 103.955-305.513 103.904-429.989-.015-124.432 103.97-305.503 103.919-429.978 0h-453.034c-124.432 103.97-305.503 103.919-429.978 0-124.432 103.97-305.503 103.919-429.979 0-97.61 81.56-230.073 99.108-342.73 52.72l-.775 1769.486 2967.917.663V1740.926Z"/><path id="svg__github_work__path5345" fill="#e6e6e6" stroke="none" stroke-miterlimit="4" stroke-width="7.64" d="M2966.19 1791.782c-113.574 48.685-248.235 31.697-347.154-50.886-124.432 103.97-305.503 103.919-429.979 0-124.432 103.97-305.503 103.919-429.978 0h-447.147c-124.432 103.97-305.503 103.919-429.979 0-124.432 103.97-305.503 103.919-430.323 0-124.776 103.97-305.847 103.919-430.322 0H0v1822.869h2966.886z"/><rect id="svg__github_work__rect6492" width="205.33" height="1914.45" x="2966.22" y="1649.31" fill="#ffc2bc" stroke="#000" stroke-width="7.56" ry="0.66"/><path id="svg__github_work__path6494" fill="none" stroke="#000" stroke-linecap="butt" stroke-linejoin="miter" stroke-width="11.34" d="M1497.884 1462.15V878.21h3140.533v583.94"/><path id="svg__github_work__path5343" fill="none" stroke="#000" stroke-miterlimit="4" stroke-width="11.34" d="M3172.33 1793.617c112.657 46.387 245.12 28.838 342.73-52.721 124.476 103.919 305.547 103.97 429.979 0 124.475 103.919 305.546 103.97 429.979 0h453.033c124.475 103.919 305.546 103.97 429.978 0 124.476 103.919 305.547 103.97 429.989.015 127.195 103.856 312.207 103.907 439.348.015h12.106"/><path id="svg__github_work__path6502-60" fill="none" stroke="#000" stroke-miterlimit="4" stroke-width="11.34" d="M2966.19 1791.782c-113.574 48.685-248.235 31.697-347.154-50.886-124.432 103.97-305.503 103.919-429.979 0-124.432 103.97-305.503 103.919-429.978 0h-447.147c-124.432 103.97-305.503 103.919-429.979 0-124.432 103.97-305.503 103.919-430.323 0-124.776 103.97-305.847 103.919-430.322 0H0"/><use x="4869.12" y="581.08" href="#svg__github_work__electron"/><use x="4869.12" y="581.08" href="#svg__github_work__electron" transform="translate(174.17 341.563)"/><use x="4869.12" y="581.08" href="#svg__github_work__electron" transform="translate(-3597.101 .168)"/><use x="4869.12" y="581.08" href="#svg__github_work__electron" transform="translate(-3770.701 341.203)"/><path id="svg__github_work__path4709" fill="#ff0" stroke="none" stroke-linecap="butt" stroke-linejoin="miter" stroke-width="1" d="m3519.436 597.172 18.834 68.32-230.86 53.786-.918-3.765z"/><path id="svg__github_work__path4709-9" fill="#ff0" stroke="none" stroke-linecap="butt" stroke-linejoin="miter" stroke-width="1" d="m3291.883 393.262 55.99 43.446-152.71 181.298-2.99-2.466z"/><path id="svg__github_work__path4709-9-2" fill="#ff0" stroke="none" stroke-linecap="butt" stroke-linejoin="miter" stroke-width="1" d="m3004.474 334.452 70.212 9.631-41.6 233.363-3.823-.64z"/><path id="svg__github_work__path4709-9-2-0" fill="#ff0" stroke="none" stroke-linecap="butt" stroke-linejoin="miter" stroke-width="1" d="m2707.984 430.644 61.523-35.176 109.312 210.333-3.42 1.823z"/><path id="svg__github_work__path4709-9-2-2" fill="#ff0" stroke="none" stroke-linecap="butt" stroke-linejoin="miter" stroke-width="1" d="m2540.223 628.272 39.609-58.767 191.094 140.257-2.26 3.148z"/><circle id="svg__github_work__path4762" cx="3046.92" cy="865.72" r="252.78" fill="#fff" stroke="#000" stroke-miterlimit="4" stroke-width="11.34"/><path id="svg__github_work__path4770" fill="none" stroke="#000" stroke-linecap="butt" stroke-linejoin="miter" stroke-width="7.56" d="M3039.612 912.722c18.018-17.757 61.042-53.27 61.042-96.072 0-42.8-23.58-60.718-47.985-60.087-24.404.631-53.092 13.066-54.839 60.061s22.538 71.4 41.782 96.098zm-240.316 3.766c87.41 74.145 172.653 57.916 240.316-3.766 79.07 58.097 171.451 64.165 251.915 16.764"/><rect id="svg__github_work__rect6488" width="509.74" height="1201.22" x="1247.18" y="1462.15" fill="url(#svg__github_work__linearGradient5353)" stroke="#000" stroke-width="7.56" ry="0.66"/><g id="svg__github_work__g4838"><circle id="svg__github_work__path4762-3" cx="2226.42" cy="3069.52" r="310.39" fill="none" stroke="#000" stroke-miterlimit="4" stroke-width="7.56"/><text xml:space="preserve" id="svg__github_work__text4792" x="2226.42" y="3115.43" font-size="208" text-anchor="middle"><tspan id="svg__github_work__tspan4790">Zn⁺²</tspan></text><text xml:space="preserve" id="svg__github_work__text4800" x="2226.42" y="3300" text-anchor="middle"><tspan id="svg__github_work__tspan4798" class="state">(aq)</tspan></text></g><g id="svg__github_work__g5028" transform="translate(1685.888 -2.09)"><circle id="svg__github_work__circle4840" cx="2226.42" cy="3069.52" r="310.39" fill="none" stroke="#000" stroke-miterlimit="4" stroke-width="7.56"/><text xml:space="preserve" id="svg__github_work__text4844" x="2226.42" y="3119.86" font-size="208" text-anchor="middle"><tspan id="svg__github_work__tspan4842">Cu⁺²</tspan></text><text xml:space="preserve" id="svg__github_work__text4852" x="2226.42" y="3300" text-anchor="middle"><tspan id="svg__github_work__tspan4850" class="state">(aq)</tspan></text></g><g id="svg__github_work__g5007" transform="translate(-3324.784 -2.09)"><text xml:space="preserve" id="svg__github_work__text4858" x="3408.12" y="3393.02" font-size="208"><tspan id="svg__github_work__tspan4856">ZnSO₄</tspan><tspan class="state"> (aq)</tspan></text></g><rect id="svg__github_work__rect6490" width="518.09" height="1201.22" x="4372.44" y="1462.15" fill="url(#svg__github_work__linearGradient5365)" stroke="#000" stroke-width="7.56" ry="0.66"/><g id="svg__github_work__g5019" transform="translate(-2249.38 -1071.584)"><text xml:space="preserve" id="svg__github_work__text5011" x="3534.42" y="3164.79" font-size="208"><tspan id="svg__github_work__tspan5009">Zn</tspan><tspan id="svg__github_work__tspan5015" class="state"> (s)</tspan></text></g><g id="svg__github_work__g5057" transform="translate(873.401 -1070.929)"><text xml:space="preserve" id="svg__github_work__text5051" x="3521.89" y="3165.84" font-size="208"><tspan id="svg__github_work__tspan5049">Cu</tspan><tspan id="svg__github_work__tspan5053" class="state"> (s)</tspan></text></g><switch font-size="180" transform="translate(3400 2430.439)"><text systemLanguage="ca"><tspan>Flux </tspan><tspan x="0" dy="165">d&apos;anions</tspan></text><text systemLanguage="cs"><tspan>Aniontový </tspan><tspan x="0" dy="165">proud</tspan></text><text systemLanguage="en"><tspan>Anion </tspan><tspan x="0" dy="165">flow</tspan></text><text systemLanguage="es"><tspan>Flujo de </tspan><tspan x="0" dy="165">aniones</tspan></text><text systemLanguage="it"><tspan>Flusso </tspan><tspan x="0" dy="165">degli anioni</tspan></text><text systemLanguage="sw"><tspan>Mwendo </tspan><tspan x="0" dy="165">wa anioni</tspan></text><text systemLanguage="ru"><tspan>Поток </tspan><tspan x="0" dy="165">анионов</tspan></text><text><tspan>Anion </tspan><tspan x="0" dy="165">flow</tspan></text></switch><switch font-size="168" style="text-align:center" text-anchor="middle" transform="translate(3055.59 1427.68)"><text systemLanguage="ca"><tspan>Disc</tspan><tspan x="0" dy="168">porós</tspan></text><text systemLanguage="cs"><tspan>Porézní</tspan><tspan x="0" dy="168">deska</tspan></text><text systemLanguage="en"><tspan>Porous</tspan><tspan x="0" dy="168">membrane</tspan></text><text systemLanguage="es"><tspan>Membrana</tspan><tspan x="0" dy="168">porosa</tspan></text><text systemLanguage="it"><tspan>disco</tspan><tspan x="0" dy="168">poroso</tspan></text><text systemLanguage="sw"><tspan>Ukuta mwenye </tspan><tspan x="0" dy="168">vinyweleo</tspan></text><text systemLanguage="ru"><tspan>Пористая</tspan><tspan x="0" dy="168">перегородка</tspan></text><text><tspan>Porous</tspan><tspan x="0" dy="168">membrane</tspan></text></switch><g id="svg__github_work__g5085" transform="translate(1689.813)"><text xml:space="preserve" id="svg__github_work__text5077" x="4380" y="3389.02" fill="#000" font-size="208" text-anchor="end"><tspan id="svg__github_work__tspan5075">CuSO₄</tspan><tspan class="state"> (aq)</tspan></text><switch font-size="220" text-anchor="middle" transform="translate(-200 270)"><text systemLanguage="ca"><tspan>Ánode de zinc</tspan></text><text systemLanguage="cs"><tspan>Zinková anoda</tspan></text><text systemLanguage="en"><tspan>Zinc anode</tspan></text><text systemLanguage="es"><tspan>Ánodo de cinc</tspan></text><text systemLanguage="it"><tspan>Anodo di zinco</tspan></text><text systemLanguage="sw"><tspan>Anodi ya zinki (Zn)</tspan></text><text systemLanguage="ru"><tspan>Цинковый анод</tspan></text><text><tspan>Zinc anode</tspan></text></switch><switch font-size="220" text-anchor="middle" transform="translate(2950 270)"><text systemLanguage="ca"><tspan>Cátode de coure</tspan></text><text systemLanguage="cs"><tspan>Měděná katoda</tspan></text><text systemLanguage="en"><tspan>Copper cathode</tspan></text><text systemLanguage="es"><tspan>Cátodo de cobre</tspan></text><text systemLanguage="it"><tspan>Catodo di rame</tspan></text><text systemLanguage="sw"><tspan>Kathodi ya shaba (Cu)</tspan></text><text systemLanguage="ru"><tspan>Медный катод</tspan></text><text><tspan>Copper cathode</tspan></text></switch></g><path id="svg__github_work__path5464" fill="#ffebe9" stroke="#000" stroke-linecap="butt" stroke-linejoin="miter" stroke-width="11.34" d="M2836.23 2593.925v-96.7h525.884v-98.973H2836.23v-98.178l-194.977 146.925z"/><path id="svg__github_work__path5467" fill="none" stroke="#000" stroke-linecap="butt" stroke-linejoin="miter" stroke-miterlimit="4" stroke-width="11.34" marker-end="url(#svg__github_work__Arrow2Lend)" d="M1330.744 989.495c0-254.67 128.84-285.681 339.998-285.681"/><path id="svg__github_work__path5735" fill="none" stroke="#000" stroke-linecap="butt" stroke-linejoin="miter" stroke-miterlimit="4" stroke-width="11.34" marker-end="url(#svg__github_work__marker5739)" d="M4541.705 707.148c254.67 0 268.969 148.164 268.969 359.322"/><path id="svg__github_work__path6193" fill="none" stroke="#000" stroke-linecap="butt" stroke-linejoin="miter" stroke-miterlimit="4" stroke-width="11.34" marker-end="url(#svg__github_work__marker6197)" d="M1497.884 2802.441c0 254.671 128.84 285.682 339.998 285.682"/><path id="svg__github_work__path6379" fill="none" stroke="#000" stroke-linecap="butt" stroke-linejoin="miter" stroke-miterlimit="4" stroke-width="11.34" marker-end="url(#svg__github_work__marker6387)" d="M4369.448 3082.095c254.671 0 268.97-148.163 268.97-359.322"/><path id="svg__github_work__path6593" fill="none" stroke="#000" stroke-linecap="butt" stroke-linejoin="miter" stroke-width="15.12" d="M0 0v3563.765h6139.472V0Z"/><text id="svg__github_work__text6597" x="4229.74" y="1353.94" font-size="585"><tspan id="svg__github_work__tspan6595">+</tspan></text><text id="svg__github_work__text6601" x="1587.06" y="1356.03" font-size="585"><tspan id="svg__github_work__tspan6599">−</tspan></text></g></svg>