<svg viewBox="0 0 440 355"><path fill="#f8f9fa" d="M0 0h440v355H0z"/><path fill="none" stroke="#1e1e1e" stroke-linecap="round" stroke-width="4" d="M10 310h420m-420 0h420m-23.49 8.55c8.39-3.05 16.78-6.11 23.49-8.55m-23.49 8.55c6.93-2.52 13.86-5.04 23.49-8.55m-23.49-8.55c8.39 3.05 16.78 6.11 23.49 8.55m-23.49-8.55c6.93 2.52 13.86 5.04 23.49 8.55M30 330V10m0 320V10m8.55 23.49C35.44 24.93 32.32 16.38 30 10m8.55 23.49L30 10m-8.55 23.49C24.56 24.93 27.68 16.38 30 10m-8.55 23.49L30 10m0 60c104.53 73.78 209.05 147.57 340 240M30 70c120.56 85.1 241.11 170.2 340 240M30 70c86.2 94.03 172.39 188.07 220 240M30 70c73.73 80.43 147.45 160.86 220 240"/><path fill="none" stroke="#1e1e1e" stroke-linecap="round" stroke-width="4" d="M370 310c-84.15-39.6-168.29-79.2-340-160m340 160C242.61 250.05 115.23 190.11 30 150"/><text y="26.71" fill="#1e1e1e" dominant-baseline="alphabetic" font-family="Nunito, sans-serif, Segoe UI Emoji" font-size="28" transform="translate(50 10)" style="white-space:pre">U/V</text><text y="26.71" fill="#1e1e1e" dominant-baseline="alphabetic" font-family="Nunito, sans-serif, Segoe UI Emoji" font-size="28" transform="translate(390 270)" style="white-space:pre">I/A</text><text y="26.71" fill="#1e1e1e" dominant-baseline="alphabetic" font-family="Nunito, sans-serif, Segoe UI Emoji" font-size="28" transform="translate(10 50)" style="white-space:pre">E</text><text y="26.71" fill="#1e1e1e" dominant-baseline="alphabetic" font-family="Nunito, sans-serif, Segoe UI Emoji" font-size="28" transform="translate(330 310)" style="white-space:pre">E/R</text><text y="19.08" fill="#1e1e1e" dominant-baseline="alphabetic" font-family="Nunito, sans-serif, Segoe UI Emoji" font-size="20" transform="translate(150 270)" style="white-space:pre">内接法</text><text y="19.08" fill="#1e1e1e" dominant-baseline="alphabetic" font-family="Nunito, sans-serif, Segoe UI Emoji" font-size="20" transform="translate(50 190)" style="white-space:pre">外接法</text></svg>