<svg stroke-linecap="round" stroke-linejoin="round" class="tl-container tl-theme__force-sRGB tl-theme__light" data-color-mode="light" style="background-color:#f9fafb" viewBox="1928 768 488.7 228.3"><text fill="#f9fafb" stroke="#f9fafb" stroke-width="2" alignment-baseline="mathematical" dominant-baseline="mathematical" font-family="'tldraw_serif', serif" font-size="36" transform="translate(1960 860)scale(1.23493)"><tspan x="0" y="19" unicode-bidi="plaintext">CuO</tspan><tspan x="72.8" y="19" unicode-bidi="plaintext"> </tspan><tspan x="81.2" y="19" unicode-bidi="plaintext">+</tspan><tspan x="102.8" y="19" unicode-bidi="plaintext"> </tspan><tspan x="111.1" y="19" unicode-bidi="plaintext">H₂</tspan><tspan x="152.5" y="19" unicode-bidi="plaintext"> </tspan><tspan x="160.8" y="19" unicode-bidi="plaintext">=</tspan><tspan x="182.4" y="19" unicode-bidi="plaintext"> </tspan><tspan x="190.8" y="19" unicode-bidi="plaintext">Cu</tspan><tspan x="237.1" y="19" unicode-bidi="plaintext"> </tspan><tspan x="245.4" y="19" unicode-bidi="plaintext">+</tspan><tspan x="267" y="19" unicode-bidi="plaintext"> </tspan><tspan x="275.4" y="19" unicode-bidi="plaintext">H₂O</tspan></text><text fill="#1d1d1d" alignment-baseline="mathematical" dominant-baseline="mathematical" font-family="'tldraw_serif', serif" font-size="36" transform="translate(1960 860)scale(1.23493)"><tspan x="0" y="19" unicode-bidi="plaintext">CuO</tspan><tspan x="72.8" y="19" unicode-bidi="plaintext"> </tspan><tspan x="81.2" y="19" unicode-bidi="plaintext">+</tspan><tspan x="102.8" y="19" unicode-bidi="plaintext"> </tspan><tspan x="111.1" y="19" unicode-bidi="plaintext">H₂</tspan><tspan x="152.5" y="19" unicode-bidi="plaintext"> </tspan><tspan x="160.8" y="19" unicode-bidi="plaintext">=</tspan><tspan x="182.4" y="19" unicode-bidi="plaintext"> </tspan><tspan x="190.8" y="19" unicode-bidi="plaintext">Cu</tspan><tspan x="237.1" y="19" unicode-bidi="plaintext"> </tspan><tspan x="245.4" y="19" unicode-bidi="plaintext">+</tspan><tspan x="267" y="19" unicode-bidi="plaintext"> </tspan><tspan x="275.4" y="19" unicode-bidi="plaintext">H₂O</tspan></text><text fill="#f9fafb" stroke="#f9fafb" stroke-width="2" alignment-baseline="mathematical" dominant-baseline="mathematical" font-family="'tldraw_serif', serif" font-size="24" transform="translate(1980 840)"><tspan x="0" y="12.5" unicode-bidi="plaintext">+2</tspan></text><text fill="#1d1d1d" alignment-baseline="mathematical" dominant-baseline="mathematical" font-family="'tldraw_serif', serif" font-size="24" transform="translate(1980 840)"><tspan x="0" y="12.5" unicode-bidi="plaintext">+2</tspan></text><text fill="#f9fafb" stroke="#f9fafb" stroke-width="2" alignment-baseline="mathematical" dominant-baseline="mathematical" font-family="'tldraw_serif', serif" font-size="24" transform="translate(2310 840)"><tspan x="0" y="12.5" unicode-bidi="plaintext">0</tspan></text><text fill="#1d1d1d" alignment-baseline="mathematical" dominant-baseline="mathematical" font-family="'tldraw_serif', serif" font-size="24" transform="translate(2310 840)"><tspan x="0" y="12.5" unicode-bidi="plaintext">0</tspan></text><text fill="#f9fafb" stroke="#f9fafb" stroke-width="2" alignment-baseline="mathematical" dominant-baseline="mathematical" font-family="'tldraw_serif', serif" font-size="24" transform="translate(2110 840)"><tspan x="0" y="12.5" unicode-bidi="plaintext">0</tspan></text><text fill="#1d1d1d" alignment-baseline="mathematical" dominant-baseline="mathematical" font-family="'tldraw_serif', serif" font-size="24" transform="translate(2110 840)"><tspan x="0" y="12.5" unicode-bidi="plaintext">0</tspan></text><text fill="#f9fafb" stroke="#f9fafb" stroke-width="2" alignment-baseline="mathematical" dominant-baseline="mathematical" font-family="'tldraw_serif', serif" font-size="24" transform="translate(2210 840)"><tspan x="0" y="12.5" unicode-bidi="plaintext">+1</tspan></text><text fill="#1d1d1d" alignment-baseline="mathematical" dominant-baseline="mathematical" font-family="'tldraw_serif', serif" font-size="24" transform="translate(2210 840)"><tspan x="0" y="12.5" unicode-bidi="plaintext">+1</tspan></text><path fill="none" stroke="#1d1d1d" stroke-width="2" d="M2110 840v-20m0 0h210"/><g transform="translate(2200 820)"><defs><clipPath id="a"><path d="M20-100h201v220H20Z"/></clipPath></defs><g fill="none" stroke="#1d1d1d" stroke-width="2" pointer-events="none"><path stroke-dashoffset="none" d="M120 0v20" style="clip-path:url(#a)"/><path d="m122 16.5-2 3.5-2-3.5"/></g></g><text fill="#f9fafb" stroke="#f9fafb" stroke-width="2" alignment-baseline="mathematical" dominant-baseline="mathematical" font-family="'tldraw_mono', monospace" font-size="18" transform="translate(2170 800)"><tspan x="0" y="10" unicode-bidi="plaintext">失去</tspan><tspan x="36" y="10" unicode-bidi="plaintext"> </tspan><tspan x="46.8" y="10" unicode-bidi="plaintext">1e⁻×2</tspan></text><text fill="#1d1d1d" alignment-baseline="mathematical" dominant-baseline="mathematical" font-family="'tldraw_mono', monospace" font-size="18" transform="translate(2170 800)"><tspan x="0" y="10" unicode-bidi="plaintext">失去</tspan><tspan x="36" y="10" unicode-bidi="plaintext"> </tspan><tspan x="46.8" y="10" unicode-bidi="plaintext">1e⁻×2</tspan></text><path fill="none" stroke="#1d1d1d" stroke-width="2" d="M1990 920v20m0 0h240"/><g transform="translate(2230 940)"><defs><clipPath id="b"><path d="M-100-120h201v220h-201Z"/></clipPath></defs><g fill="none" stroke="#1d1d1d" stroke-width="2" pointer-events="none"><path stroke-dashoffset="none" d="M0 0v-20" style="clip-path:url(#b)"/><path d="M-2-16.5 0-20l2 3.5"/></g></g><text fill="#f9fafb" stroke="#f9fafb" stroke-width="2" alignment-baseline="mathematical" dominant-baseline="mathematical" font-family="'tldraw_mono', monospace" font-size="18" transform="translate(2060 940)"><tspan x="0" y="10" unicode-bidi="plaintext">得到</tspan><tspan x="36" y="10" unicode-bidi="plaintext"> </tspan><tspan x="46.8" y="10" unicode-bidi="plaintext">2e⁻×1</tspan></text><text fill="#1d1d1d" alignment-baseline="mathematical" dominant-baseline="mathematical" font-family="'tldraw_mono', monospace" font-size="18" transform="translate(2060 940)"><tspan x="0" y="10" unicode-bidi="plaintext">得到</tspan><tspan x="36" y="10" unicode-bidi="plaintext"> </tspan><tspan x="46.8" y="10" unicode-bidi="plaintext">2e⁻×1</tspan></text></svg>