<svg style="background-color:#fbfbfb" viewBox="0 0 505 528"><defs><path id="reuse-0" fill="#efeef6" stroke="#7b73bf" d="M5.5.5h49s5 0 5 5v17s0 5-5 5h-49s-5 0-5-5v-17s0-5 5-5z"/><path id="reuse-1" fill="transparent" d="M0 28h60v20H0z"/><path id="reuse-2" fill="transparent" stroke="transparent" d="M5 0h45s5 0 5 5v15s0 5-5 5H5s-5 0-5-5V5s0-5 5-5z"/><path id="reuse-3" fill="transparent" d="M0 25h55v20H0z"/><path id="reuse-4" fill="transparent" stroke="transparent" d="M5 0h69s5 0 5 5v15s0 5-5 5H5s-5 0-5-5V5s0-5 5-5z"/><path id="reuse-5" fill="transparent" stroke="transparent" d="M5 0h57s5 0 5 5v15s0 5-5 5H5s-5 0-5-5V5s0-5 5-5z"/></defs></svg>