<svg stroke-linecap="round" stroke-linejoin="round" class="tl-container tl-theme__force-sRGB tl-theme__light" data-color-mode="light" style="background-color:#f9fafb" viewBox="1827.8 767.9 924.2 744.9"><path fill="none" stroke="#1d1d1d" stroke-width="5" d="M1859.8 930.3a100 100.5 0 1 1 200.2 0 100 100.5 0 1 1-200.2 0"/><g transform="translate(1980 1020)"><defs><clipPath id="a"><path d="M-90-90h420v510H-90Z"/></clipPath></defs><g fill="none" stroke="#1d1d1d" stroke-width="3.5" pointer-events="none"><path stroke-dashoffset="none" d="m10 10 220 310" style="clip-path:url(#a)"/><path d="m229 309.5 1 10.5-9.5-4.4"/></g></g><g transform="translate(2250 1290)"><defs><clipPath id="b"><path d="M-320-380H90v490h-410Z"/></clipPath></defs><g fill="none" stroke="#1d1d1d" stroke-width="3.5" pointer-events="none"><path stroke-dashoffset="none" d="m-10 10-210-290" style="clip-path:url(#b)"/><path d="m-219-269.6-1-10.4 9.6 4.3"/></g></g><g transform="translate(2480 910)"><defs><clipPath id="c"><path d="M-520-100h620v201h-620Z"/></clipPath></defs><g fill="none" stroke="#1d1d1d" stroke-width="3.5" pointer-events="none"><path stroke-dashoffset="none" d="M0 0h-420" style="clip-path:url(#c)"/><path d="m-411 5.2-9-5.2 9-5.2"/></g></g><g transform="translate(2050 960)"><defs><clipPath id="d"><path d="M-90-110h620V91H-90Z"/></clipPath></defs><g fill="none" stroke="#1d1d1d" stroke-width="3.5" pointer-events="none"><path stroke-dashoffset="none" d="M10-10h420" style="clip-path:url(#d)"/><path d="m421-15.2 9 5.2-9 5.2"/></g></g><text fill="#f9fafb" stroke="#f9fafb" stroke-width="2" alignment-baseline="mathematical" dominant-baseline="mathematical" font-family="'tldraw_draw', sans-serif" font-size="24" transform="translate(1910 940)"><tspan x="0" y="12.5" unicode-bidi="plaintext">（酸性）</tspan></text><text fill="#1d1d1d" alignment-baseline="mathematical" dominant-baseline="mathematical" font-family="'tldraw_draw', sans-serif" font-size="24" transform="translate(1910 940)"><tspan x="0" y="12.5" unicode-bidi="plaintext">（酸性）</tspan></text><text fill="#f9fafb" stroke="#f9fafb" stroke-width="2" alignment-baseline="mathematical" dominant-baseline="mathematical" font-family="'tldraw_serif', serif" font-size="44" transform="translate(1920 890)"><tspan x="0" y="24.5" unicode-bidi="plaintext">Al³⁺</tspan></text><text fill="#1d1d1d" alignment-baseline="mathematical" dominant-baseline="mathematical" font-family="'tldraw_serif', serif" font-size="44" transform="translate(1920 890)"><tspan x="0" y="24.5" unicode-bidi="plaintext">Al³⁺</tspan></text><path fill="none" stroke="#1d1d1d" stroke-width="5" d="M2479.9 919.8a120 120.3 0 1 1 240.1 0 120 120.3 0 1 1-240.1 0"/><g transform="translate(2570 1040)"><defs><clipPath id="e"><path d="M-280-102.9h384.9V380H-280Z"/></clipPath></defs><g fill="none" stroke="#1d1d1d" stroke-width="3.5" pointer-events="none"><path stroke-dashoffset="none" d="M4.9-2.9-180 280" style="clip-path:url(#e)"/><path d="m-170.6 275.3-9.4 4.7.6-10.5"/></g></g><text fill="#f9fafb" stroke="#f9fafb" stroke-width="2" alignment-baseline="mathematical" dominant-baseline="mathematical" font-family="'tldraw_draw', sans-serif" font-size="24" transform="translate(2550 940)"><tspan x="0" y="12.5" unicode-bidi="plaintext">（酸性）</tspan></text><text fill="#1d1d1d" alignment-baseline="mathematical" dominant-baseline="mathematical" font-family="'tldraw_draw', sans-serif" font-size="24" transform="translate(2550 940)"><tspan x="0" y="12.5" unicode-bidi="plaintext">（酸性）</tspan></text><text fill="#f9fafb" stroke="#f9fafb" stroke-width="2" alignment-baseline="mathematical" dominant-baseline="mathematical" font-family="'tldraw_serif', serif" font-size="44" transform="translate(2500 880)"><tspan x="0" y="24.5" unicode-bidi="plaintext">[Al(OH)₄]⁻</tspan></text><text fill="#1d1d1d" alignment-baseline="mathematical" dominant-baseline="mathematical" font-family="'tldraw_serif', serif" font-size="44" transform="translate(2500 880)"><tspan x="0" y="24.5" unicode-bidi="plaintext">[Al(OH)₄]⁻</tspan></text><path fill="none" stroke="#1d1d1d" stroke-width="5" d="M2203.2 1380.3a100 100.5 0 1 1 200.2 0 100 100.5 0 1 1-200.2 0"/><g transform="translate(2380 1320)"><defs><clipPath id="f"><path d="M-120.6-390H260V77.2h-380.6Z"/></clipPath></defs><g fill="none" stroke="#1d1d1d" stroke-width="3.5" pointer-events="none"><path stroke-dashoffset="none" d="M-20.6-22.8 160-290" style="clip-path:url(#f)"/><path d="m150.6-285.4 9.4-4.6-.7 10.5"/></g></g><text fill="#f9fafb" stroke="#f9fafb" stroke-width="2" alignment-baseline="mathematical" dominant-baseline="mathematical" font-family="'tldraw_draw', sans-serif" font-size="24" transform="translate(2253.388 1400.062)"><tspan x="0" y="12.5" unicode-bidi="plaintext">（中性）</tspan></text><text fill="#1d1d1d" alignment-baseline="mathematical" dominant-baseline="mathematical" font-family="'tldraw_draw', sans-serif" font-size="24" transform="translate(2253.388 1400.062)"><tspan x="0" y="12.5" unicode-bidi="plaintext">（中性）</tspan></text><text fill="#f9fafb" stroke="#f9fafb" stroke-width="2" alignment-baseline="mathematical" dominant-baseline="mathematical" font-family="'tldraw_serif', serif" font-size="44" transform="translate(2230 1340)"><tspan x="0" y="24.5" unicode-bidi="plaintext">Al(OH)₃</tspan></text><text fill="#1d1d1d" alignment-baseline="mathematical" dominant-baseline="mathematical" font-family="'tldraw_serif', serif" font-size="44" transform="translate(2230 1340)"><tspan x="0" y="24.5" unicode-bidi="plaintext">Al(OH)₃</tspan></text><text fill="#f9fafb" stroke="#f9fafb" stroke-width="2" alignment-baseline="mathematical" dominant-baseline="mathematical" font-family="'tldraw_serif', serif" font-size="24" transform="translate(2130 1110)"><tspan x="0" y="12.5" unicode-bidi="plaintext">强酸③</tspan></text><text fill="#1d1d1d" alignment-baseline="mathematical" dominant-baseline="mathematical" font-family="'tldraw_serif', serif" font-size="24" transform="translate(2130 1110)"><tspan x="0" y="12.5" unicode-bidi="plaintext">强酸③</tspan></text><text fill="#f9fafb" stroke="#f9fafb" stroke-width="2" alignment-baseline="mathematical" dominant-baseline="mathematical" font-family="'tldraw_serif', serif" font-size="24" transform="translate(2390 1110)"><tspan x="0" y="12.5" unicode-bidi="plaintext">④强碱</tspan></text><text fill="#1d1d1d" alignment-baseline="mathematical" dominant-baseline="mathematical" font-family="'tldraw_serif', serif" font-size="24" transform="translate(2390 1110)"><tspan x="0" y="12.5" unicode-bidi="plaintext">④强碱</tspan></text><text fill="#f9fafb" stroke="#f9fafb" stroke-width="2" alignment-baseline="mathematical" dominant-baseline="mathematical" font-family="'tldraw_serif', serif" font-size="24" transform="translate(2210 870)"><tspan x="0" y="12.5" unicode-bidi="plaintext">过量强酸⑦</tspan></text><text fill="#1d1d1d" alignment-baseline="mathematical" dominant-baseline="mathematical" font-family="'tldraw_serif', serif" font-size="24" transform="translate(2210 870)"><tspan x="0" y="12.5" unicode-bidi="plaintext">过量强酸⑦</tspan></text><text fill="#f9fafb" stroke="#f9fafb" stroke-width="2" alignment-baseline="mathematical" dominant-baseline="mathematical" font-family="'tldraw_serif', serif" font-size="24" transform="translate(2210 960)"><tspan x="0" y="12.5" unicode-bidi="plaintext">过量强碱⑧</tspan></text><text fill="#1d1d1d" alignment-baseline="mathematical" dominant-baseline="mathematical" font-family="'tldraw_serif', serif" font-size="24" transform="translate(2210 960)"><tspan x="0" y="12.5" unicode-bidi="plaintext">过量强碱⑧</tspan></text><text fill="#f9fafb" stroke="#f9fafb" stroke-width="2" alignment-baseline="mathematical" dominant-baseline="mathematical" font-family="'tldraw_serif', serif" font-size="24" transform="translate(2460 1240)"><tspan x="0" y="12.5" unicode-bidi="plaintext">酸</tspan></text><text fill="#1d1d1d" alignment-baseline="mathematical" dominant-baseline="mathematical" font-family="'tldraw_serif', serif" font-size="24" transform="translate(2460 1240)"><tspan x="0" y="12.5" unicode-bidi="plaintext">酸</tspan></text><text fill="#f9fafb" stroke="#f9fafb" stroke-width="2" alignment-baseline="mathematical" dominant-baseline="mathematical" font-family="'tldraw_serif', serif" font-size="24" transform="translate(2090 1240)"><tspan x="0" y="12.5" unicode-bidi="plaintext">碱</tspan></text><text fill="#1d1d1d" alignment-baseline="mathematical" dominant-baseline="mathematical" font-family="'tldraw_serif', serif" font-size="24" transform="translate(2090 1240)"><tspan x="0" y="12.5" unicode-bidi="plaintext">碱</tspan></text><path fill="#1d1d1d" d="m2517.3 1197.8-.1-2.3.8-2.5-1 1.2-3.7 2.8-3.2 4.5-2.6 5-1.4 3.8-.6 3.4-.4 4-.4 5.4-.2 5.5v5.6l-.1 5v12.8l-.3 4.2-1.5 3.4-2.7 1.3-1.8.7-.6.2h-.6l-.6-.3-.5-.3-.5-.5-.3-.5-.2-.6v-.7l.1-.6.3-.6.4-.5.5-.4.6-.2 2.5.2 3.9.7 3 1.1 3.1 3 2.3 3.7.6 3.6.3 3.6v8l-.2 5v4.9l-.5 4.8-.5 5.2-.9 5.8-1 6-.6 5.4-.3 4.4-.1 4.4v7.9l1.2 3.3 1.1 1.8a2.5 2.5 0 0 1-3.7 3.3l-.6-.8-1.4-3.4-.6-4.3.2-3.5v-4.5l.3-4.5.3-4.5.5-5.6 1-6 .8-5.5.3-5.1.2-4.6-.2-5-.2-4.8-.3-4.2-.2-3.4-.5-4-1.9-4.2-4-2.4-3-.6h-.7l-.6-.3-.5-.3-.5-.5-.3-.5-.2-.6v-.7l.1-.6.3-.6.4-.5.5-.4.6-.2 1-.2 1.7-1.4 1.2-3v-17.8l.1-5.7v-5.6l.2-5.6.5-4.5.9-3.9 1.4-4.3 2.8-5.6 3.4-5.5 3.4-3.3 3.3-2 3.6 2 2.2 4.6.5 2.3a2.8 2.8 0 0 1-5.6.7m-475.2-8.4 1.7.3 3.5 1.3 2.8 1.7 2.1 2.6 1.3 3.3.6 2.9.2 3v4l-.1 4.2-.4 3.8-.4 3.6-.2 4.2v19.6l.2 3.6 1.8 2 2.8.1h1.3a3.2 3.2 0 0 1-.4 6.4l-1.5-.2-3.2-.5-3.8-2.3-2.4-3.3-.3-2.9v-6.2l-.1-3.4v-6.4l.3-4.3.3-3.9.2-3.1.4-3.3.2-3.5-.2-4-.5-4.8-.5-4.2-1.8-2.8-3.2-1.3-1.7-.2a3 3 0 0 1 1-6m18.8 66-.8.6-2.3 1.4-1.4 2.4.1 4.3.4 5.5.6 5 .6 4.6.4 3.7.5 3.5.4 4.3v7.4l-.3 4.4-.4 4.2-.8 4.4-.8 4.9-1.4 6.4-2.2 7.1-2.4 5.5-2.7 4.5-1.5 2.4a1.8 1.8 0 0 1-3-1.8l1.3-2.4 2.5-4.3 2.1-5 2-6.7 1.1-6.3.6-5 .6-4 .2-4-.2-4.2-.2-3.8v-10.9l-.5-3.5-1-4.4-1.3-5.1-1-6.2-.1-5.6 1.5-4 2.6-2.6 2.3-1.3.8-.6a3.2 3.2 0 0 1 3.7 5.2"/><text fill="#f9fafb" stroke="#f9fafb" stroke-width="2" alignment-baseline="mathematical" dominant-baseline="mathematical" font-family="'tldraw_serif', serif" font-size="24" transform="translate(2530 1210)"><tspan x="0" y="12.5" unicode-bidi="plaintext">适量强酸⑤</tspan></text><text fill="#1d1d1d" alignment-baseline="mathematical" dominant-baseline="mathematical" font-family="'tldraw_serif', serif" font-size="24" transform="translate(2530 1210)"><tspan x="0" y="12.5" unicode-bidi="plaintext">适量强酸⑤</tspan></text><text fill="#f9fafb" stroke="#f9fafb" stroke-width="2" alignment-baseline="mathematical" dominant-baseline="mathematical" font-family="'tldraw_serif', serif" font-size="24" transform="translate(2530 1300)"><tspan x="0" y="12.5" unicode-bidi="plaintext">过量弱酸⑥</tspan></text><text fill="#1d1d1d" alignment-baseline="mathematical" dominant-baseline="mathematical" font-family="'tldraw_serif', serif" font-size="24" transform="translate(2530 1300)"><tspan x="0" y="12.5" unicode-bidi="plaintext">过量弱酸⑥</tspan></text><text fill="#f9fafb" stroke="#f9fafb" stroke-width="2" alignment-baseline="mathematical" dominant-baseline="mathematical" font-family="'tldraw_serif', serif" font-size="24" transform="translate(1910 1210)"><tspan x="0" y="12.5" unicode-bidi="plaintext">①适量强碱</tspan></text><text fill="#1d1d1d" alignment-baseline="mathematical" dominant-baseline="mathematical" font-family="'tldraw_serif', serif" font-size="24" transform="translate(1910 1210)"><tspan x="0" y="12.5" unicode-bidi="plaintext">①适量强碱</tspan></text><text fill="#f9fafb" stroke="#f9fafb" stroke-width="2" alignment-baseline="mathematical" dominant-baseline="mathematical" font-family="'tldraw_serif', serif" font-size="24" transform="translate(1910 1290)"><tspan x="0" y="12.5" unicode-bidi="plaintext">②过量弱碱</tspan></text><text fill="#1d1d1d" alignment-baseline="mathematical" dominant-baseline="mathematical" font-family="'tldraw_serif', serif" font-size="24" transform="translate(1910 1290)"><tspan x="0" y="12.5" unicode-bidi="plaintext">②过量弱碱</tspan></text></svg>