<svg viewBox="0 0 1052.362 744.095"><path fill="#87aade" d="M1014.493 373.736c0 182.596-218.29 330.62-487.566 330.62-269.274 0-487.565-148.024-487.565-330.62s218.29-330.62 487.565-330.62 487.566 148.024 487.566 330.62z"/><path fill="#3771c8" d="M993.779 388.076c0 53.24-49.58 96.398-110.738 96.398s-110.738-43.158-110.738-96.398c0-53.238 49.579-96.397 110.738-96.397s110.738 43.158 110.738 96.397z"/><path fill="#bcd35f" d="M761.15 384.093c0 129.797-156.584 235.02-349.74 235.02S61.668 513.89 61.668 384.092c0-129.797 156.584-235.02 349.74-235.02 193.157 0 349.74 105.222 349.74 235.02z"/><path style="line-height:100%;-inkscape-font-specification:&quot;Academy Engraved LET&quot;;text-align:start" d="M799.705 198.13q-3.843-1.03-7.187-3.124-3.188-1.969-5.375-4.844-2.188-2.844-3.25-6.406-1.125-3.563-1.125-7.781 0-3.157.562-5.625.563-2.438 1.844-4.782 1.281-2.28 3.188-4.187 1.906-1.906 4.718-3.813-3.312 1.47-5.781 3.47-2.437 1.968-4.219 4.53-1.656 2.438-2.593 5.5-.875 2.938-.875 6.25 0 3.438 1 6.688.937 3.062 2.843 5.844 1.813 2.656 4.469 4.5 2.531 1.78 5.438 2.687 2.812.906 6.343 1.094zm16.094-42l3.656 11.157h-1.062q-1.594-3.062-3.188-5.094-1.719-2.125-3.5-3.468-1.844-1.344-3.906-1.938-2.125-.625-4.656-.625-3.688 0-6.875 1.406-3.219 1.407-5.531 3.97-2.375 2.624-3.625 6.062-1.313 3.5-1.313 7.53 0 6.032 2.406 11.095 2.375 5 6.625 7.875 4.188 2.875 9.313 2.875 3.5 0 6.625-1.375 3.062-1.375 5.469-3.97 2.406-2.593 4.187-6.53h1.281q-2.625 6.937-7.906 10.5-5.281 3.593-12.906 3.593-8.907 0-14.75-4.812-2.563-2.188-4.188-4.75-1.75-2.688-2.625-5.844a23.66 23.66 0 01-.906-6.5q0-6.187 3.156-11.375t8.657-8.125q5.468-2.937 12.187-2.937 2.719 0 7.406.812 3.094.594 4.625.594.719 0 1.344-.125zm-287.432 82.218l-1.219.906h9.125l-1.219-.906q-1.062-.782-1.343-1.25-.313-.438-.313-1.407v-.687q-.031-.094-.031-.344v-30.28q0-.25.031-.375v-.656q0-.875.281-1.344.188-.406 1.157-1.156l.218-.157 1.75-1.343-1.125.062q-2.843.188-5.125.188-1.406 0-3.843-.094l1.656 1.187q1.031.72 1.344 1.188.312.5.312 1.469.031.343.031 1.03v30.282q0 .688-.03 1.031 0 .97-.282 1.407-.25.406-1.375 1.25zm39.656 2.53q-1.625-.874-2.687-1.655-1.157-.844-2.407-2.094-1.562-1.656-2.53-3.031-1.032-1.375-3.063-4.782-2.125-3.5-3.594-5.406-1.656-2.094-3.25-3.312a15.04 15.04 0 00-3.594-2.063q1.281 1.25 2.063 2.531.53.875 1.562 2.907.188.312.422.75t.266.53q.093.188.625 1.313 3.343 6.532 7.187 9.907 3.844 3.406 9 4.406zm-19.719-23.53q2.157-.47 3.844-1.344 1.75-.906 2.844-2 1.156-1.156 1.75-2.563.594-1.406.594-3 0-3.406-2.438-5.937t-6.437-3.25q1.843 1 3 2.312 1.25 1.407 1.843 3.032.625 1.78.625 3.687 0 3.438-1.343 5.563-1.344 2.187-4.282 3.5zm-12.187-10.97v10.845h5.594q4.843 0 6.968-1.094 1.938-1 3-3.031 1.063-2 1.063-4.688 0-2.75-1.25-4.937-1.25-2.157-3.531-3.407-2.313-1.187-5.188-1.187-4.312 0-5.812 2.687-.844 1.532-.844 4.813zm5.438 12.095h-5.438v12.843q0 2.625.344 4 .343 1.344 1.25 2.344 1.593 1.688 4.937 2.219v.969h-19.875v-.97q3.344-.562 4.906-2.593 1.188-1.531 1.188-5.969v-23.593q0-2.907-.313-4.125-.343-1.344-1.156-2.188-1.5-1.656-4.625-2.25v-.969q.281.032.781.032l2.75.156q1.657.094 3.844.094 3.469 0 6.281-.282l4.375-.375q2.063-.187 4.063-.187 3.688 0 6.594.75 2.875.75 4.906 2.156 2 1.406 3.094 3.438 1.093 2.093 1.093 4.593 0 4.219-2.875 6.563-2.875 2.344-8.562 2.781 3.5 1.344 5.938 3.75 2.437 2.406 5.75 7.813 3.874 6.156 5.968 8.437 2.219 2.406 4.844 3.375v.875q-3.313-.031-5.781-.625-2.438-.562-4.782-2-3-1.844-5.593-4.969-2.657-3.156-4.594-7.156l-1.656-3.469q-1.125-2.343-2.094-3.562-.875-1.094-2.156-1.5-1.22-.406-3.407-.406z" font-family="Academy Engraved LET" font-size="64" font-weight="400"/><path fill="#ffe680" d="M535.69 392.06c0 98.118-100.94 177.658-225.458 177.658s-225.46-79.54-225.46-177.658c0-98.118 100.942-177.659 225.46-177.659 124.517 0 225.459 79.54 225.459 177.659z"/><path fill="#89a02c" d="M746.81 384.093c0 53.24-43.872 96.398-97.991 96.398s-97.991-43.159-97.991-96.398 43.872-96.398 97.99-96.398c54.12 0 97.992 43.16 97.992 96.398z"/><path style="text-align:start;line-height:100%;-inkscape-font-specification:Academy Engraved LET" d="M330.575 284.154q-3.312 3.97-7.312 3.97-4.781 0-13.813-5.282-3.718-2.156-4.75-2.594-1.343-.562-2.406-.562-1.031 0-1.781.312-.781.313-1.906 1.156 1.218-.468 1.968-.468 1.063 0 2.375.625 1.282.625 4.407 2.812 2.53 1.719 4.53 3 1.47.938 3.25 1.875 3.688 1.906 6.688 1.906 2.75 0 5.032-1.75 2.25-1.75 3.718-5zm-12.718-6.656q11.437-6.625 11.437-19.25 0-4.125-1.25-7.781-1.219-3.594-3.594-6.594-2.343-2.875-5.468-4.594 6.843 6 6.843 18.688 0 3.719-.656 7.094-.687 3.406-1.875 5.937-.719 1.5-1.281 2.281-.781 1.094-1.688 2-.937 1-2.468 2.22zm-17.157-.031q-2.75-2.063-4.593-4.875-1.875-2.844-2.75-6.469-.938-3.719-.938-8.094 0-6.53 2-11.093 2-4.594 6.281-7.813-3.718 2-6.343 4.875-2.688 2.906-4.032 6.5-1.406 3.594-1.406 7.719 0 4.062 1.406 7.687 1.344 3.625 4.032 6.594 2.625 2.938 6.343 4.969zm-5.093-19.438q0 4.594 1.03 8.5 1 3.875 2.97 6.688 1.968 2.844 4.625 4.25 2.687 1.469 5.968 1.469 5.375 0 9.344-4.25 2.406-2.594 3.781-6.907 1.313-4.28 1.313-9.78 0-4.75-1-8.688-1.031-3.875-2.906-6.594-1.97-2.781-4.563-4.188-2.687-1.468-6.031-1.468-3.281 0-5.969 1.468-2.687 1.5-4.594 4.25-1.875 2.72-2.937 6.688-1.031 3.937-1.031 8.562zm5.656 20.782q-4.125-1.782-7.156-4.907-3.032-3.093-4.688-7.218-1.687-4.094-1.687-8.438 0-4.5 1.75-8.656 1.718-4.094 4.875-7.25 3.062-3.063 7.187-4.813 4.094-1.687 8.594-1.687 6.062 0 11.219 3 5.125 3.062 8.156 8.187 3 5.157 3 11.22 0 4.5-1.688 8.593-1.75 4.125-4.843 7.219t-7.22 4.843q-4.093 1.72-8.687 1.72-1.406 0-2.375-.126l.188.094q.781.406 1.844.937l2.625 1.407q4.187 2.218 6.5 3 2.343.843 4.375.843 1.937 0 3.406-.687 1.5-.656 2.781-2.125 1.313-1.5 2.438-3.719l.875.313q-1.157 4.406-2.75 7.25-1.594 2.78-3.75 4.156-2.22 1.375-5 1.375-2.657 0-5.313-1.344-2.75-1.344-6.812-4.594l-2.782-2.218q-2.093-1.75-3.687-2.688-1.406-.75-2.563-.75-1.343 0-2.468.75-1.125.781-2.563 2.625l-.75-.562q3.469-5.438 6.969-5.75z" font-family="Academy Engraved LET" font-size="64" font-weight="400"/><text x="256.061" y="628.988" stroke-width=".861" font-family="sans-serif" font-size="34.439" font-weight="400" letter-spacing="0" transform="translate(-16.405 -304.985)" word-spacing="0" style="line-height:1.25"><tspan x="256.061" y="628.988">Rational</tspan></text><path style="line-height:100%;-inkscape-font-specification:&quot;Academy Engraved LET&quot;;text-align:start" d="M644.678 381.173l-1.219.906h9.125l-1.219-.906q-1.062-.781-1.343-1.25-.313-.438-.313-1.406v-.688q-.031-.093-.031-.343v-30.282q0-.25.031-.375v-.656q0-.969.313-1.406.28-.469 1.343-1.25l1.782-1.313h-10.25l1.78 1.313q1.095.812 1.376 1.219.281.406.281 1.437.031.344.031 1.031v30.282q0 .687-.03 1.03 0 .97-.282 1.407-.25.406-1.375 1.25zm13.875 2.5h-19.469v-.969q3.344-.562 4.906-2.593 1.188-1.532 1.188-5.97v-23.593q0-2.906-.313-4.125-.343-1.344-1.156-2.188-1.531-1.718-4.625-2.25v-.968h19.469v.969q-3.375.562-4.938 2.593-.625.813-.906 2.157t-.281 3.812v23.594q0 2.562.344 4 .343 1.406 1.156 2.312 1.531 1.719 4.625 2.25z" font-family="Academy Engraved LET" font-size="64" font-weight="400"/><path fill="#f95" d="M491.077 446.234c0 57.639-81.324 104.364-181.642 104.364s-181.642-46.725-181.642-104.364c0-57.64 81.324-104.365 181.642-104.365s181.642 46.726 181.642 104.365z"/><path fill="#f55" d="M475.143 446.234c0 39.599-41.375 71.7-92.414 71.7s-92.414-32.101-92.414-71.7c0-39.6 41.375-71.701 92.414-71.701s92.414 32.101 92.414 71.7z"/><path style="line-height:100%;-inkscape-font-specification:&quot;Academy Engraved LET&quot;;text-align:start" d="M361.98 444.017h6.374q-1.25-1.344-1.875-2.407-.656-.968-1.219-2.5-.656 1.688-1.28 2.625-.688 1.063-2 2.282zm40.53-39.875h-6q1.5.75 2.282 1.53.78.782 1.53 2.282.563-1.5.938-2.156.438-.75 1.25-1.656zm-36.437 3.937l34.25 36.563v-4.907l-29.313-31.312q-2.031-2.125-3.218-4.281h-6.375q2.218 1.312 4.656 3.937zm35.437 6.094v32.437h-.937l-34.313-36.53.032 20.968q0 3.594.406 5.625.437 2.094 1.312 3.656 2.094 3.406 6.907 4.313v.968h-16.344v-.968q4.219-1.563 5.625-5.907.5-1.375.687-3.187.188-1.75.188-4.375v-22.375q-2.5-2.531-3.75-3.438-1.281-.906-3-1.437v-.969h12.125q.75 1.313 1.625 2.375.156.094.687.75l.36.422q.172.203.265.36.219.218.36.374.14.157.172.22l26.406 28.218v-21.5q0-3.25-.813-5.406-.812-2.063-2.593-3.25t-4.688-1.594v-.969h14.906v.969q-3.344.906-4.468 3-1.157 2.094-1.157 7.25zm-193.138-9.187h-4l-1.063 4.469q1.22-1.75 2.282-2.688 1.062-.968 2.781-1.78zm13.906 39.844h6.5l1-5.094q-1.437 2.031-3.219 3.281-1.687 1.188-4.28 1.813zm-22.719 0h3.75l25.282-39.906h-3.75zm33.75-12.344l-2.28 13.937h-33.282v-1l25.656-40.468h-5.281q-6.375 0-10 2.406-3.656 2.438-6.094 8.25h-1.156l2.437-11.844h28.75v.97l-25.53 40.093h7.405q4.563 0 8.032-1.063 3.5-1.094 5.406-3 2.906-2.906 4.687-8.28z" font-family="Academy Engraved LET" font-size="64" font-weight="400"/><text x="143.725" y="796.744" stroke-width=".861" font-family="sans-serif" font-size="34.439" font-weight="400" letter-spacing="0" transform="translate(0 -308.268)" word-spacing="0" style="line-height:1.25"><tspan x="143.725" y="796.744">Integers</tspan></text><text x="319.081" y="797.803" stroke-width=".861" font-family="sans-serif" font-size="34.439" font-weight="400" letter-spacing="0" transform="translate(0 -308.268)" word-spacing="0" style="line-height:1.25"><tspan x="319.081" y="797.803">Natural</tspan></text><text x="509.982" y="594.46" stroke-width=".861" font-family="sans-serif" font-size="34.439" font-weight="400" letter-spacing="0" transform="translate(0 -308.268)" word-spacing="0" style="line-height:1.25"><tspan x="509.982" y="594.46">Real</tspan></text><text x="570.877" y="740.255" stroke-width=".861" font-family="sans-serif" font-size="34.439" font-weight="400" letter-spacing="0" transform="translate(0 -308.268)" word-spacing="0" style="line-height:1.25"><tspan x="570.877" y="740.255">Irrational</tspan></text><text x="724.124" y="550.883" stroke-width=".861" font-family="sans-serif" font-size="34.439" font-weight="400" letter-spacing="0" transform="translate(0 -308.268)" word-spacing="0" style="line-height:1.25"><tspan x="724.124" y="550.883">Complex</tspan></text><text x="794.96" y="705.845" stroke-width=".861" font-family="sans-serif" font-size="34.439" font-weight="400" letter-spacing="0" transform="translate(0 -308.268)" word-spacing="0" style="line-height:1.25"><tspan x="794.96" y="705.845">Imaginary</tspan></text></svg>